<?xml version="1.0" encoding="UTF-8" standalone="no"?>
<!DOCTYPE svg PUBLIC "-//W3C//DTD SVG 1.1//EN"
 "http://www.w3.org/Graphics/SVG/1.1/DTD/svg11.dtd">
<!-- Generated by graphviz version 2.43.0 (0)
 -->
<!-- Title: ActParser.H Pages: 1 -->
<!--zoomable 252 -->
<svg id="main" version="1.1" xmlns="http://www.w3.org/2000/svg" xmlns:xlink="http://www.w3.org/1999/xlink" xml:space="preserve" onload="init(evt)">
<style type="text/css"><![CDATA[
.edge:hover path { stroke: red; }
.edge:hover polygon { stroke: red; fill: red; }
]]></style>
<script type="text/javascript"><![CDATA[
var edges = document.getElementsByTagName('g');
if (edges && edges.length) {
  for (var i=0;i<edges.length;i++) {
    if (edges[i].id.substr(0,4)=='edge') {
      edges[i].setAttribute('class','edge');
    }
  }
}
]]></script>
        <defs>
                <circle id="rim" cx="0" cy="0" r="7"/>
                <circle id="rim2" cx="0" cy="0" r="3.5"/>
                <g id="zoomPlus">
                        <use xlink:href="#rim" fill="#404040">
                                <set attributeName="fill" to="#808080" begin="zoomplus.mouseover" end="zoomplus.mouseout"/>
                        </use>
                        <path d="M-4,0h8M0,-4v8" fill="none" stroke="white" stroke-width="1.5" pointer-events="none"/>
                </g>
                <g id="zoomMin">
                        <use xlink:href="#rim" fill="#404040">
                                <set attributeName="fill" to="#808080" begin="zoomminus.mouseover" end="zoomminus.mouseout"/>
                        </use>
                        <path d="M-4,0h8" fill="none" stroke="white" stroke-width="1.5" pointer-events="none"/>
                </g>
                <g id="dirArrow">
                        <path fill="none" stroke="white" stroke-width="1.5" d="M0,-3.0v7 M-2.5,-0.5L0,-3.0L2.5,-0.5"/>
                </g>
               <g id="resetDef">
                       <use xlink:href="#rim2" fill="#404040">
                               <set attributeName="fill" to="#808080" begin="reset.mouseover" end="reset.mouseout"/>
                       </use>
               </g>
        </defs>

<script type="text/javascript">
var viewWidth = 1089;
var viewHeight = 252;
var sectionId = 'dynsection-1';
</script>
<script xlink:href="svgpan.js"/>
<svg id="graph" class="graph">
<g id="viewport">
<title>ActParser.H</title>
<polygon fill="white" stroke="transparent" points="-4,4 -4,-248 1084.8,-248 1084.8,4 -4,4"/>
<!-- Node1 -->
<g id="node1" class="node">
<title>Node1</title>
<g id="a_node1"><a xlink:title=" ">
<polygon fill="#bfbfbf" stroke="black" points="576,-224.5 576,-243.5 648,-243.5 648,-224.5 576,-224.5"/>
<text text-anchor="middle" x="612" y="-231.5" font-family="Helvetica,sans-Serif" font-size="10.00">ActParser.H</text>
</a>
</g>
</g>
<!-- Node2 -->
<g id="node2" class="node">
<title>Node2</title>
<g id="a_node2"><a xlink:href="actuator__ops_8_h.html" target="_top" xlink:title=" ">
<polygon fill="white" stroke="black" points="567,-168.5 567,-187.5 657,-187.5 657,-168.5 567,-168.5"/>
<text text-anchor="middle" x="612" y="-175.5" font-family="Helvetica,sans-Serif" font-size="10.00">actuator_ops.H</text>
</a>
</g>
</g>
<!-- Node1&#45;&gt;Node2 -->
<g id="edge1" class="edge">
<title>Node1&#45;&gt;Node2</title>
<path fill="none" stroke="midnightblue" d="M612,-213.8C612,-204.91 612,-194.78 612,-187.75"/>
<polygon fill="midnightblue" stroke="midnightblue" points="608.5,-214.08 612,-224.08 615.5,-214.08 608.5,-214.08"/>
</g>
<!-- Node4 -->
<g id="node4" class="node">
<title>Node4</title>
<g id="a_node4"><a xlink:href="_actuator_model_8_h.html" target="_top" xlink:title=" ">
<polygon fill="white" stroke="black" points="494,-56.5 494,-75.5 592,-75.5 592,-56.5 494,-56.5"/>
<text text-anchor="middle" x="543" y="-63.5" font-family="Helvetica,sans-Serif" font-size="10.00">ActuatorModel.H</text>
</a>
</g>
</g>
<!-- Node1&#45;&gt;Node4 -->
<g id="edge33" class="edge">
<title>Node1&#45;&gt;Node4</title>
<path fill="none" stroke="midnightblue" d="M566.05,-226.88C478.4,-214.16 292.7,-181.85 255,-132 249.64,-124.91 249.22,-118.75 255,-112 255.24,-111.72 411.69,-87.39 493.87,-74.63"/>
<polygon fill="midnightblue" stroke="midnightblue" points="565.58,-230.35 575.98,-228.3 566.57,-223.42 565.58,-230.35"/>
</g>
<!-- Node5 -->
<g id="node5" class="node">
<title>Node5</title>
<g id="a_node5"><a xlink:href="_actuator_8cpp.html" target="_top" xlink:title=" ">
<polygon fill="white" stroke="black" points="142.5,-0.5 142.5,-19.5 219.5,-19.5 219.5,-0.5 142.5,-0.5"/>
<text text-anchor="middle" x="181" y="-7.5" font-family="Helvetica,sans-Serif" font-size="10.00">Actuator.cpp</text>
</a>
</g>
</g>
<!-- Node1&#45;&gt;Node5 -->
<g id="edge34" class="edge">
<title>Node1&#45;&gt;Node5</title>
<path fill="none" stroke="midnightblue" d="M565.71,-229.45C457.37,-220.21 191.77,-191.85 129,-132 103.72,-107.9 92.07,-86.55 109,-56 118.86,-38.21 139.01,-26.52 155.5,-19.53"/>
<polygon fill="midnightblue" stroke="midnightblue" points="565.43,-232.94 575.69,-230.28 566.02,-225.96 565.43,-232.94"/>
</g>
<!-- Node14 -->
<g id="node14" class="node">
<title>Node14</title>
<g id="a_node14"><a xlink:href="uniform__ct__ops_8cpp.html" target="_top" xlink:title=" ">
<polygon fill="white" stroke="black" points="0,-0.5 0,-19.5 112,-19.5 112,-0.5 0,-0.5"/>
<text text-anchor="middle" x="56" y="-7.5" font-family="Helvetica,sans-Serif" font-size="10.00">uniform_ct_ops.cpp</text>
</a>
</g>
</g>
<!-- Node1&#45;&gt;Node14 -->
<g id="edge35" class="edge">
<title>Node1&#45;&gt;Node14</title>
<path fill="none" stroke="midnightblue" d="M565.64,-230.48C472.69,-225.01 266.74,-210.7 200,-188 154.68,-172.59 139.38,-168.15 108,-132 77.42,-96.78 62.56,-40.85 57.78,-19.59"/>
<polygon fill="midnightblue" stroke="midnightblue" points="565.68,-233.99 575.87,-231.07 566.09,-227 565.68,-233.99"/>
</g>
<!-- Node20 -->
<g id="node20" class="node">
<title>Node20</title>
<g id="a_node20"><a xlink:href="wing__ops_8_h.html" target="_top" xlink:title=" ">
<polygon fill="white" stroke="black" points="752.5,-112.5 752.5,-131.5 825.5,-131.5 825.5,-112.5 752.5,-112.5"/>
<text text-anchor="middle" x="789" y="-119.5" font-family="Helvetica,sans-Serif" font-size="10.00">wing_ops.H</text>
</a>
</g>
</g>
<!-- Node1&#45;&gt;Node20 -->
<g id="edge39" class="edge">
<title>Node1&#45;&gt;Node20</title>
<path fill="none" stroke="midnightblue" d="M634.51,-219.01C671.67,-195.92 744.73,-150.51 775.18,-131.59"/>
<polygon fill="midnightblue" stroke="midnightblue" points="632.53,-216.12 625.89,-224.37 636.23,-222.06 632.53,-216.12"/>
</g>
<!-- Node22 -->
<g id="node22" class="node">
<title>Node22</title>
<g id="a_node22"><a xlink:href="wing__ops_8cpp.html" target="_top" xlink:title=" ">
<polygon fill="white" stroke="black" points="975.5,-56.5 975.5,-75.5 1058.5,-75.5 1058.5,-56.5 975.5,-56.5"/>
<text text-anchor="middle" x="1017" y="-63.5" font-family="Helvetica,sans-Serif" font-size="10.00">wing_ops.cpp</text>
</a>
</g>
</g>
<!-- Node1&#45;&gt;Node22 -->
<g id="edge40" class="edge">
<title>Node1&#45;&gt;Node22</title>
<path fill="none" stroke="midnightblue" d="M658.46,-230.8C766.98,-224.51 1031.42,-202.14 1077,-132 1091.64,-109.47 1058.23,-87.37 1035.62,-75.64"/>
<polygon fill="midnightblue" stroke="midnightblue" points="657.94,-227.32 648.15,-231.38 658.33,-234.31 657.94,-227.32"/>
</g>
<!-- Node23 -->
<g id="node23" class="node">
<title>Node23</title>
<g id="a_node23"><a xlink:href="turbine__utils_8_h.html" target="_top" xlink:title=" ">
<polygon fill="white" stroke="black" points="854,-168.5 854,-187.5 942,-187.5 942,-168.5 854,-168.5"/>
<text text-anchor="middle" x="898" y="-175.5" font-family="Helvetica,sans-Serif" font-size="10.00">turbine_utils.H</text>
</a>
</g>
</g>
<!-- Node1&#45;&gt;Node23 -->
<g id="edge36" class="edge">
<title>Node1&#45;&gt;Node23</title>
<path fill="none" stroke="midnightblue" d="M658.19,-224.28C712.08,-214.1 800.54,-197.4 853.64,-187.38"/>
<polygon fill="midnightblue" stroke="midnightblue" points="657.4,-220.87 648.22,-226.16 658.7,-227.74 657.4,-220.87"/>
</g>
<!-- Node3 -->
<g id="node3" class="node">
<title>Node3</title>
<g id="a_node3"><a xlink:href="_act_src_line_op_8_h.html" target="_top" xlink:title=" ">
<polygon fill="white" stroke="black" points="566,-112.5 566,-131.5 658,-131.5 658,-112.5 566,-112.5"/>
<text text-anchor="middle" x="612" y="-119.5" font-family="Helvetica,sans-Serif" font-size="10.00">ActSrcLineOp.H</text>
</a>
</g>
</g>
<!-- Node2&#45;&gt;Node3 -->
<g id="edge2" class="edge">
<title>Node2&#45;&gt;Node3</title>
<path fill="none" stroke="midnightblue" d="M612,-157.8C612,-148.91 612,-138.78 612,-131.75"/>
<polygon fill="midnightblue" stroke="midnightblue" points="608.5,-158.08 612,-168.08 615.5,-158.08 608.5,-158.08"/>
</g>
<!-- Node2&#45;&gt;Node4 -->
<g id="edge9" class="edge">
<title>Node2&#45;&gt;Node4</title>
<path fill="none" stroke="midnightblue" d="M588,-162.77C576.95,-155.02 564.62,-144.46 557,-132 546.04,-114.07 543.59,-88.78 543.09,-75.66"/>
<polygon fill="midnightblue" stroke="midnightblue" points="586.21,-165.78 596.48,-168.37 590.07,-159.94 586.21,-165.78"/>
</g>
<!-- Node10 -->
<g id="node10" class="node">
<title>Node10</title>
<g id="a_node10"><a xlink:href="_act_src_disk_op___turbine_8_h.html" target="_top" xlink:title=" ">
<polygon fill="white" stroke="black" points="264,-112.5 264,-131.5 398,-131.5 398,-112.5 264,-112.5"/>
<text text-anchor="middle" x="331" y="-119.5" font-family="Helvetica,sans-Serif" font-size="10.00">ActSrcDiskOp_Turbine.H</text>
</a>
</g>
</g>
<!-- Node2&#45;&gt;Node10 -->
<g id="edge10" class="edge">
<title>Node2&#45;&gt;Node10</title>
<path fill="none" stroke="midnightblue" d="M557.55,-166.54C504.45,-156.33 424.66,-141 375.32,-131.52"/>
<polygon fill="midnightblue" stroke="midnightblue" points="556.99,-169.99 567.47,-168.44 558.31,-163.12 556.99,-169.99"/>
</g>
<!-- Node11 -->
<g id="node11" class="node">
<title>Node11</title>
<g id="a_node11"><a xlink:href="_act_src_disk_op_8_h.html" target="_top" xlink:title=" ">
<polygon fill="white" stroke="black" points="416.5,-112.5 416.5,-131.5 509.5,-131.5 509.5,-112.5 416.5,-112.5"/>
<text text-anchor="middle" x="463" y="-119.5" font-family="Helvetica,sans-Serif" font-size="10.00">ActSrcDiskOp.H</text>
</a>
</g>
</g>
<!-- Node2&#45;&gt;Node11 -->
<g id="edge12" class="edge">
<title>Node2&#45;&gt;Node11</title>
<path fill="none" stroke="midnightblue" d="M578.63,-164.91C550.62,-154.75 511.3,-140.51 486.5,-131.52"/>
<polygon fill="midnightblue" stroke="midnightblue" points="577.8,-168.33 588.39,-168.44 580.18,-161.75 577.8,-168.33"/>
</g>
<!-- Node12 -->
<g id="node12" class="node">
<title>Node12</title>
<g id="a_node12"><a xlink:href="disk__ops_8_h.html" target="_top" xlink:title=" ">
<polygon fill="white" stroke="black" points="138,-112.5 138,-131.5 208,-131.5 208,-112.5 138,-112.5"/>
<text text-anchor="middle" x="173" y="-119.5" font-family="Helvetica,sans-Serif" font-size="10.00">disk_ops.H</text>
</a>
</g>
</g>
<!-- Node2&#45;&gt;Node12 -->
<g id="edge14" class="edge">
<title>Node2&#45;&gt;Node12</title>
<path fill="none" stroke="midnightblue" d="M556.47,-170.17C464.75,-158.89 284.17,-136.67 208.1,-127.32"/>
<polygon fill="midnightblue" stroke="midnightblue" points="556.32,-173.68 566.67,-171.42 557.17,-166.73 556.32,-173.68"/>
</g>
<!-- Node18 -->
<g id="node18" class="node">
<title>Node18</title>
<g id="a_node18"><a xlink:href="turbine__fast__ops_8_h.html" target="_top" xlink:title=" ">
<polygon fill="white" stroke="black" points="844,-112.5 844,-131.5 952,-131.5 952,-112.5 844,-112.5"/>
<text text-anchor="middle" x="898" y="-119.5" font-family="Helvetica,sans-Serif" font-size="10.00">turbine_fast_ops.H</text>
</a>
</g>
</g>
<!-- Node2&#45;&gt;Node18 -->
<g id="edge23" class="edge">
<title>Node2&#45;&gt;Node18</title>
<path fill="none" stroke="midnightblue" d="M667.09,-166.6C721.1,-156.4 802.46,-141.04 852.79,-131.54"/>
<polygon fill="midnightblue" stroke="midnightblue" points="666.18,-163.21 657,-168.5 667.48,-170.09 666.18,-163.21"/>
</g>
<!-- Node19 -->
<g id="node19" class="node">
<title>Node19</title>
<g id="a_node19"><a xlink:href="fixed__wing__ops_8_h.html" target="_top" xlink:title=" ">
<polygon fill="white" stroke="black" points="616.5,-56.5 616.5,-75.5 717.5,-75.5 717.5,-56.5 616.5,-56.5"/>
<text text-anchor="middle" x="667" y="-63.5" font-family="Helvetica,sans-Serif" font-size="10.00">fixed_wing_ops.H</text>
</a>
</g>
</g>
<!-- Node2&#45;&gt;Node19 -->
<g id="edge25" class="edge">
<title>Node2&#45;&gt;Node19</title>
<path fill="none" stroke="midnightblue" d="M637.86,-162.95C649.01,-155.38 660.87,-144.93 667,-132 675.8,-113.44 672.08,-88.42 669.2,-75.5"/>
<polygon fill="midnightblue" stroke="midnightblue" points="635.81,-160.1 629.2,-168.39 639.53,-166.03 635.81,-160.1"/>
</g>
<!-- Node2&#45;&gt;Node20 -->
<g id="edge27" class="edge">
<title>Node2&#45;&gt;Node20</title>
<path fill="none" stroke="midnightblue" d="M649.9,-165.44C683.28,-155.26 731.1,-140.66 761.09,-131.52"/>
<polygon fill="midnightblue" stroke="midnightblue" points="648.59,-162.18 640.05,-168.44 650.63,-168.87 648.59,-162.18"/>
</g>
<!-- Node21 -->
<g id="node21" class="node">
<title>Node21</title>
<g id="a_node21"><a xlink:href="flat__plate__ops_8_h.html" target="_top" xlink:title=" ">
<polygon fill="white" stroke="black" points="735.5,-56.5 735.5,-75.5 830.5,-75.5 830.5,-56.5 735.5,-56.5"/>
<text text-anchor="middle" x="783" y="-63.5" font-family="Helvetica,sans-Serif" font-size="10.00">flat_plate_ops.H</text>
</a>
</g>
</g>
<!-- Node2&#45;&gt;Node21 -->
<g id="edge32" class="edge">
<title>Node2&#45;&gt;Node21</title>
<path fill="none" stroke="midnightblue" d="M634.14,-163.06C648.17,-154.2 666.68,-142.48 683,-132 714.19,-111.98 750.65,-88.18 769.77,-75.67"/>
<polygon fill="midnightblue" stroke="midnightblue" points="632.23,-160.12 625.64,-168.42 635.97,-166.05 632.23,-160.12"/>
</g>
<!-- Node3&#45;&gt;Node4 -->
<g id="edge3" class="edge">
<title>Node3&#45;&gt;Node4</title>
<path fill="none" stroke="midnightblue" d="M592.96,-106.1C580.54,-96.38 564.76,-84.03 554.29,-75.83"/>
<polygon fill="midnightblue" stroke="midnightblue" points="590.88,-108.92 600.91,-112.32 595.2,-103.4 590.88,-108.92"/>
</g>
<!-- Node4&#45;&gt;Node5 -->
<g id="edge4" class="edge">
<title>Node4&#45;&gt;Node5</title>
<path fill="none" stroke="midnightblue" d="M483.98,-55.86C372.32,-39.26 342.79,-36.74 235,-20 230.02,-19.23 224.79,-18.39 219.62,-17.54"/>
<polygon fill="midnightblue" stroke="midnightblue" points="483.55,-59.34 493.96,-57.35 484.58,-52.41 483.55,-59.34"/>
</g>
<!-- Node6 -->
<g id="node6" class="node">
<title>Node6</title>
<g id="a_node6"><a xlink:href="_actuator_disk_8cpp.html" target="_top" xlink:title=" ">
<polygon fill="white" stroke="black" points="375,-0.5 375,-19.5 475,-19.5 475,-0.5 375,-0.5"/>
<text text-anchor="middle" x="425" y="-7.5" font-family="Helvetica,sans-Serif" font-size="10.00">ActuatorDisk.cpp</text>
</a>
</g>
</g>
<!-- Node4&#45;&gt;Node6 -->
<g id="edge5" class="edge">
<title>Node4&#45;&gt;Node6</title>
<path fill="none" stroke="midnightblue" d="M515.1,-52.23C493.03,-42.13 462.82,-28.31 443.61,-19.52"/>
<polygon fill="midnightblue" stroke="midnightblue" points="513.75,-55.46 524.3,-56.44 516.67,-49.1 513.75,-55.46"/>
</g>
<!-- Node7 -->
<g id="node7" class="node">
<title>Node7</title>
<g id="a_node7"><a xlink:href="_turbine_fast_8cpp.html" target="_top" xlink:title=" ">
<polygon fill="white" stroke="black" points="809,-0.5 809,-19.5 901,-19.5 901,-0.5 809,-0.5"/>
<text text-anchor="middle" x="855" y="-7.5" font-family="Helvetica,sans-Serif" font-size="10.00">TurbineFast.cpp</text>
</a>
</g>
</g>
<!-- Node4&#45;&gt;Node7 -->
<g id="edge6" class="edge">
<title>Node4&#45;&gt;Node7</title>
<path fill="none" stroke="midnightblue" d="M602.19,-54.75C662.3,-44.35 754.12,-28.46 808.99,-18.96"/>
<polygon fill="midnightblue" stroke="midnightblue" points="601.35,-51.35 592.09,-56.5 602.54,-58.25 601.35,-51.35"/>
</g>
<!-- Node8 -->
<g id="node8" class="node">
<title>Node8</title>
<g id="a_node8"><a xlink:href="_fixed_wing_8cpp.html" target="_top" xlink:title=" ">
<polygon fill="white" stroke="black" points="521.5,-0.5 521.5,-19.5 608.5,-19.5 608.5,-0.5 521.5,-0.5"/>
<text text-anchor="middle" x="565" y="-7.5" font-family="Helvetica,sans-Serif" font-size="10.00">FixedWing.cpp</text>
</a>
</g>
</g>
<!-- Node4&#45;&gt;Node8 -->
<g id="edge7" class="edge">
<title>Node4&#45;&gt;Node8</title>
<path fill="none" stroke="midnightblue" d="M550.46,-46.69C554.17,-37.59 558.48,-27.01 561.43,-19.75"/>
<polygon fill="midnightblue" stroke="midnightblue" points="547.16,-45.5 546.63,-56.08 553.65,-48.14 547.16,-45.5"/>
</g>
<!-- Node9 -->
<g id="node9" class="node">
<title>Node9</title>
<g id="a_node9"><a xlink:href="_flat_plate_8cpp.html" target="_top" xlink:title=" ">
<polygon fill="white" stroke="black" points="683,-0.5 683,-19.5 763,-19.5 763,-0.5 683,-0.5"/>
<text text-anchor="middle" x="723" y="-7.5" font-family="Helvetica,sans-Serif" font-size="10.00">FlatPlate.cpp</text>
</a>
</g>
</g>
<!-- Node4&#45;&gt;Node9 -->
<g id="edge8" class="edge">
<title>Node4&#45;&gt;Node9</title>
<path fill="none" stroke="midnightblue" d="M581.11,-53.57C615.06,-43.38 663.99,-28.7 694.61,-19.52"/>
<polygon fill="midnightblue" stroke="midnightblue" points="580.09,-50.22 571.52,-56.44 582.11,-56.92 580.09,-50.22"/>
</g>
<!-- Node10&#45;&gt;Node4 -->
<g id="edge11" class="edge">
<title>Node10&#45;&gt;Node4</title>
<path fill="none" stroke="midnightblue" d="M374.35,-109.96C414.39,-99.76 473.03,-84.82 509.57,-75.52"/>
<polygon fill="midnightblue" stroke="midnightblue" points="373.42,-106.58 364.59,-112.44 375.15,-113.37 373.42,-106.58"/>
</g>
<!-- Node11&#45;&gt;Node4 -->
<g id="edge13" class="edge">
<title>Node11&#45;&gt;Node4</title>
<path fill="none" stroke="midnightblue" d="M484.3,-106.62C498.92,-96.76 517.83,-83.99 530.18,-75.65"/>
<polygon fill="midnightblue" stroke="midnightblue" points="482.18,-103.83 475.85,-112.32 486.1,-109.63 482.18,-103.83"/>
</g>
<!-- Node13 -->
<g id="node13" class="node">
<title>Node13</title>
<g id="a_node13"><a xlink:href="uniform__ct__ops_8_h.html" target="_top" xlink:title=" ">
<polygon fill="white" stroke="black" points="118,-56.5 118,-75.5 220,-75.5 220,-56.5 118,-56.5"/>
<text text-anchor="middle" x="169" y="-63.5" font-family="Helvetica,sans-Serif" font-size="10.00">uniform_ct_ops.H</text>
</a>
</g>
</g>
<!-- Node12&#45;&gt;Node13 -->
<g id="edge15" class="edge">
<title>Node12&#45;&gt;Node13</title>
<path fill="none" stroke="midnightblue" d="M171.6,-102.1C170.94,-93.14 170.17,-82.86 169.65,-75.75"/>
<polygon fill="midnightblue" stroke="midnightblue" points="168.11,-102.37 172.34,-112.08 175.09,-101.85 168.11,-102.37"/>
</g>
<!-- Node15 -->
<g id="node15" class="node">
<title>Node15</title>
<g id="a_node15"><a xlink:href="_joukowsky__ops_8_h.html" target="_top" xlink:title=" ">
<polygon fill="white" stroke="black" points="374.5,-56.5 374.5,-75.5 475.5,-75.5 475.5,-56.5 374.5,-56.5"/>
<text text-anchor="middle" x="425" y="-63.5" font-family="Helvetica,sans-Serif" font-size="10.00">Joukowsky_ops.H</text>
</a>
</g>
</g>
<!-- Node12&#45;&gt;Node15 -->
<g id="edge18" class="edge">
<title>Node12&#45;&gt;Node15</title>
<path fill="none" stroke="midnightblue" d="M218.05,-111.35C265.61,-101.15 339.84,-85.25 385.28,-75.51"/>
<polygon fill="midnightblue" stroke="midnightblue" points="217.08,-107.97 208.04,-113.49 218.55,-114.82 217.08,-107.97"/>
</g>
<!-- Node16 -->
<g id="node16" class="node">
<title>Node16</title>
<g id="a_node16"><a xlink:href="_joukowsky__ops_8cpp.html" target="_top" xlink:title=" ">
<polygon fill="white" stroke="black" points="244,-0.5 244,-19.5 354,-19.5 354,-0.5 244,-0.5"/>
<text text-anchor="middle" x="299" y="-7.5" font-family="Helvetica,sans-Serif" font-size="10.00">Joukowsky_ops.cpp</text>
</a>
</g>
</g>
<!-- Node12&#45;&gt;Node16 -->
<g id="edge22" class="edge">
<title>Node12&#45;&gt;Node16</title>
<path fill="none" stroke="midnightblue" d="M192.39,-105.97C203.3,-97.38 217.09,-86.3 229,-76 251.59,-56.48 277.02,-32.28 290.13,-19.62"/>
<polygon fill="midnightblue" stroke="midnightblue" points="190.07,-103.35 184.35,-112.27 194.38,-108.86 190.07,-103.35"/>
</g>
<!-- Node17 -->
<g id="node17" class="node">
<title>Node17</title>
<g id="a_node17"><a xlink:href="disk__ops_8cpp.html" target="_top" xlink:title=" ">
<polygon fill="white" stroke="black" points="276,-56.5 276,-75.5 356,-75.5 356,-56.5 276,-56.5"/>
<text text-anchor="middle" x="316" y="-63.5" font-family="Helvetica,sans-Serif" font-size="10.00">disk_ops.cpp</text>
</a>
</g>
</g>
<!-- Node12&#45;&gt;Node17 -->
<g id="edge21" class="edge">
<title>Node12&#45;&gt;Node17</title>
<path fill="none" stroke="midnightblue" d="M205.03,-108.91C231.91,-98.75 269.64,-84.51 293.45,-75.52"/>
<polygon fill="midnightblue" stroke="midnightblue" points="203.78,-105.64 195.66,-112.44 206.25,-112.19 203.78,-105.64"/>
</g>
<!-- Node13&#45;&gt;Node6 -->
<g id="edge16" class="edge">
<title>Node13&#45;&gt;Node6</title>
<path fill="none" stroke="midnightblue" d="M219.51,-54.35C267.89,-44.14 339.95,-28.94 384.63,-19.52"/>
<polygon fill="midnightblue" stroke="midnightblue" points="218.63,-50.95 209.56,-56.44 220.07,-57.8 218.63,-50.95"/>
</g>
<!-- Node13&#45;&gt;Node14 -->
<g id="edge17" class="edge">
<title>Node13&#45;&gt;Node14</title>
<path fill="none" stroke="midnightblue" d="M142,-52.1C120.89,-42.01 92.14,-28.27 73.82,-19.52"/>
<polygon fill="midnightblue" stroke="midnightblue" points="140.56,-55.29 151.09,-56.44 143.58,-48.97 140.56,-55.29"/>
</g>
<!-- Node15&#45;&gt;Node6 -->
<g id="edge19" class="edge">
<title>Node15&#45;&gt;Node6</title>
<path fill="none" stroke="midnightblue" d="M425,-45.8C425,-36.91 425,-26.78 425,-19.75"/>
<polygon fill="midnightblue" stroke="midnightblue" points="421.5,-46.08 425,-56.08 428.5,-46.08 421.5,-46.08"/>
</g>
<!-- Node15&#45;&gt;Node16 -->
<g id="edge20" class="edge">
<title>Node15&#45;&gt;Node16</title>
<path fill="none" stroke="midnightblue" d="M395.84,-52.5C372.22,-42.38 339.57,-28.39 318.87,-19.52"/>
<polygon fill="midnightblue" stroke="midnightblue" points="394.46,-55.72 405.03,-56.44 397.22,-49.29 394.46,-55.72"/>
</g>
<!-- Node18&#45;&gt;Node7 -->
<g id="edge24" class="edge">
<title>Node18&#45;&gt;Node7</title>
<path fill="none" stroke="midnightblue" d="M890.96,-103C881.58,-79 865.35,-37.47 858.36,-19.59"/>
<polygon fill="midnightblue" stroke="midnightblue" points="887.73,-104.33 894.63,-112.37 894.24,-101.78 887.73,-104.33"/>
</g>
<!-- Node19&#45;&gt;Node8 -->
<g id="edge26" class="edge">
<title>Node19&#45;&gt;Node8</title>
<path fill="none" stroke="midnightblue" d="M641.67,-51.59C622.81,-41.61 597.62,-28.27 581.35,-19.65"/>
<polygon fill="midnightblue" stroke="midnightblue" points="640.14,-54.74 650.61,-56.32 643.41,-48.55 640.14,-54.74"/>
</g>
<!-- Node20&#45;&gt;Node19 -->
<g id="edge28" class="edge">
<title>Node20&#45;&gt;Node19</title>
<path fill="none" stroke="midnightblue" d="M760.46,-108.37C737.61,-98.26 706.19,-84.35 686.24,-75.52"/>
<polygon fill="midnightblue" stroke="midnightblue" points="759.11,-111.6 769.67,-112.44 761.94,-105.2 759.11,-111.6"/>
</g>
<!-- Node20&#45;&gt;Node21 -->
<g id="edge29" class="edge">
<title>Node20&#45;&gt;Node21</title>
<path fill="none" stroke="midnightblue" d="M786.9,-102.1C785.9,-93.14 784.76,-82.86 783.97,-75.75"/>
<polygon fill="midnightblue" stroke="midnightblue" points="783.43,-102.53 788.01,-112.08 790.38,-101.76 783.43,-102.53"/>
</g>
<!-- Node20&#45;&gt;Node22 -->
<g id="edge31" class="edge">
<title>Node20&#45;&gt;Node22</title>
<path fill="none" stroke="midnightblue" d="M835.07,-110.09C878.15,-99.89 941.59,-84.86 981.04,-75.52"/>
<polygon fill="midnightblue" stroke="midnightblue" points="834.05,-106.73 825.13,-112.44 835.66,-113.54 834.05,-106.73"/>
</g>
<!-- Node21&#45;&gt;Node9 -->
<g id="edge30" class="edge">
<title>Node21&#45;&gt;Node9</title>
<path fill="none" stroke="midnightblue" d="M765.82,-49.54C755.12,-39.91 741.74,-27.87 732.82,-19.83"/>
<polygon fill="midnightblue" stroke="midnightblue" points="763.59,-52.24 773.36,-56.32 768.27,-47.03 763.59,-52.24"/>
</g>
<!-- Node23&#45;&gt;Node18 -->
<g id="edge37" class="edge">
<title>Node23&#45;&gt;Node18</title>
<path fill="none" stroke="midnightblue" d="M898,-157.8C898,-148.91 898,-138.78 898,-131.75"/>
<polygon fill="midnightblue" stroke="midnightblue" points="894.5,-158.08 898,-168.08 901.5,-158.08 894.5,-158.08"/>
</g>
<!-- Node24 -->
<g id="node24" class="node">
<title>Node24</title>
<g id="a_node24"><a xlink:href="turbine__utils_8cpp.html" target="_top" xlink:title=" ">
<polygon fill="white" stroke="black" points="970,-112.5 970,-131.5 1068,-131.5 1068,-112.5 970,-112.5"/>
<text text-anchor="middle" x="1019" y="-119.5" font-family="Helvetica,sans-Serif" font-size="10.00">turbine_utils.cpp</text>
</a>
</g>
</g>
<!-- Node23&#45;&gt;Node24 -->
<g id="edge38" class="edge">
<title>Node23&#45;&gt;Node24</title>
<path fill="none" stroke="midnightblue" d="M926.31,-164.37C948.97,-154.26 980.13,-140.35 999.92,-131.52"/>
<polygon fill="midnightblue" stroke="midnightblue" points="924.88,-161.17 917.17,-168.44 927.73,-167.56 924.88,-161.17"/>
</g>
</g>
</svg>
        <g id="navigator" transform="translate(0 0)" fill="#404254">
                <rect fill="#f2f5e9" fill-opacity="0.5" stroke="#606060" stroke-width=".5" x="0" y="0" width="60" height="60"/>
                <use id="zoomplus" xlink:href="#zoomPlus" x="17" y="9" onmousedown="handleZoom(evt,'in')"/>
                <use id="zoomminus" xlink:href="#zoomMin" x="42" y="9" onmousedown="handleZoom(evt,'out')"/>
                <use id="reset" xlink:href="#resetDef" x="30" y="36" onmousedown="handleReset()"/>
                <g id="arrowUp" xlink:href="#dirArrow" transform="translate(30 24)" onmousedown="handlePan(0,-1)">
                  <use xlink:href="#rim" fill="#404040">
                        <set attributeName="fill" to="#808080" begin="arrowUp.mouseover" end="arrowUp.mouseout"/>
                  </use>
                  <path fill="none" stroke="white" stroke-width="1.5" d="M0,-3.0v7 M-2.5,-0.5L0,-3.0L2.5,-0.5"/>
                </g>
                <g id="arrowRight" xlink:href="#dirArrow" transform="rotate(90) translate(36 -43)" onmousedown="handlePan(1,0)">
                  <use xlink:href="#rim" fill="#404040">
                        <set attributeName="fill" to="#808080" begin="arrowRight.mouseover" end="arrowRight.mouseout"/>
                  </use>
                  <path fill="none" stroke="white" stroke-width="1.5" d="M0,-3.0v7 M-2.5,-0.5L0,-3.0L2.5,-0.5"/>
                </g>
                <g id="arrowDown" xlink:href="#dirArrow" transform="rotate(180) translate(-30 -48)" onmousedown="handlePan(0,1)">
                  <use xlink:href="#rim" fill="#404040">
                        <set attributeName="fill" to="#808080" begin="arrowDown.mouseover" end="arrowDown.mouseout"/>
                  </use>
                  <path fill="none" stroke="white" stroke-width="1.5" d="M0,-3.0v7 M-2.5,-0.5L0,-3.0L2.5,-0.5"/>
                </g>
                <g id="arrowLeft" xlink:href="#dirArrow" transform="rotate(270) translate(-36 17)" onmousedown="handlePan(-1,0)">
                  <use xlink:href="#rim" fill="#404040">
                        <set attributeName="fill" to="#808080" begin="arrowLeft.mouseover" end="arrowLeft.mouseout"/>
                  </use>
                  <path fill="none" stroke="white" stroke-width="1.5" d="M0,-3.0v7 M-2.5,-0.5L0,-3.0L2.5,-0.5"/>
                </g>
        </g>
        <svg viewBox="0 0 15 15" width="100%" height="30px" preserveAspectRatio="xMaxYMin meet">
         <g id="arrow_out" transform="scale(0.3 0.3)">
          <a xlink:href="_act_parser_8_h__dep__incl_org.svg" target="_base">
           <rect id="button" ry="5" rx="5" y="6" x="6" height="38" width="38"
                fill="#f2f5e9" fill-opacity="0.5" stroke="#606060" stroke-width="1.0"/>
           <path id="arrow"
             d="M 11.500037,31.436501 C 11.940474,20.09759 22.043105,11.32322 32.158766,21.979434 L 37.068811,17.246167 C 37.068811,17.246167 37.088388,32 37.088388,32 L 22.160133,31.978069 C 22.160133,31.978069 26.997745,27.140456 26.997745,27.140456 C 18.528582,18.264221 13.291696,25.230495 11.500037,31.436501 z"
             style="fill:#404040;"/>
          </a>
         </g>
        </svg>
</svg>
