<?xml version="1.0" encoding="UTF-8" standalone="no"?>
<!DOCTYPE svg PUBLIC "-//W3C//DTD SVG 1.1//EN"
 "http://www.w3.org/Graphics/SVG/1.1/DTD/svg11.dtd">
<!-- Generated by graphviz version 2.43.0 (0)
 -->
<!-- Title: ActuatorForcing.cpp Pages: 1 -->
<svg width="2818pt" height="408pt"
 viewBox="0.00 0.00 2818.30 408.00" xmlns="http://www.w3.org/2000/svg" xmlns:xlink="http://www.w3.org/1999/xlink">
<g id="graph0" class="graph" transform="scale(1 1) rotate(0) translate(4 404)">
<title>ActuatorForcing.cpp</title>
<polygon fill="white" stroke="transparent" points="-4,4 -4,-404 2814.3,-404 2814.3,4 -4,4"/>
<!-- Node1 -->
<g id="node1" class="node">
<title>Node1</title>
<g id="a_node1"><a xlink:title=" ">
<polygon fill="#bfbfbf" stroke="black" points="1365.3,-380.5 1365.3,-399.5 1478.3,-399.5 1478.3,-380.5 1365.3,-380.5"/>
<text text-anchor="middle" x="1421.8" y="-387.5" font-family="Helvetica,sans-Serif" font-size="10.00">ActuatorForcing.cpp</text>
</a>
</g>
</g>
<!-- Node2 -->
<g id="node2" class="node">
<title>Node2</title>
<g id="a_node2"><a xlink:href="_actuator_forcing_8_h.html" target="_top" xlink:title=" ">
<polygon fill="white" stroke="black" points="446.8,-313.5 446.8,-343.5 644.8,-343.5 644.8,-313.5 446.8,-313.5"/>
<text text-anchor="start" x="454.8" y="-331.5" font-family="Helvetica,sans-Serif" font-size="10.00">amr&#45;wind/equation_systems</text>
<text text-anchor="middle" x="545.8" y="-320.5" font-family="Helvetica,sans-Serif" font-size="10.00">/icns/source_terms/ActuatorForcing.H</text>
</a>
</g>
</g>
<!-- Node1&#45;&gt;Node2 -->
<g id="edge1" class="edge">
<title>Node1&#45;&gt;Node2</title>
<path fill="none" stroke="midnightblue" d="M1364.99,-385.14C1221.66,-375.41 843.38,-349.71 655.25,-336.93"/>
<polygon fill="midnightblue" stroke="midnightblue" points="655.27,-333.43 645.06,-336.24 654.8,-340.41 655.27,-333.43"/>
</g>
<!-- Node19 -->
<g id="node19" class="node">
<title>Node19</title>
<g id="a_node19"><a xlink:title=" ">
<polygon fill="white" stroke="#bfbfbf" points="1265.3,-56.5 1265.3,-75.5 1352.3,-75.5 1352.3,-56.5 1265.3,-56.5"/>
<text text-anchor="middle" x="1308.8" y="-63.5" font-family="Helvetica,sans-Serif" font-size="10.00">AMReX_Gpu.H</text>
</a>
</g>
</g>
<!-- Node1&#45;&gt;Node19 -->
<g id="edge83" class="edge">
<title>Node1&#45;&gt;Node19</title>
<path fill="none" stroke="midnightblue" d="M1419.62,-380.48C1414.63,-360.19 1402.8,-307.36 1402.8,-262.5 1402.8,-262.5 1402.8,-262.5 1402.8,-193.5 1402.8,-156.31 1405.7,-142.06 1383.8,-112 1373.45,-97.81 1357.15,-87.25 1342.38,-79.95"/>
<polygon fill="midnightblue" stroke="midnightblue" points="1343.52,-76.62 1332.97,-75.61 1340.58,-82.97 1343.52,-76.62"/>
</g>
<!-- Node33 -->
<g id="node33" class="node">
<title>Node33</title>
<g id="a_node33"><a xlink:href="_c_f_d_sim_8_h.html" target="_top" xlink:title=" ">
<polygon fill="white" stroke="black" points="1430.8,-252 1430.8,-271 1546.8,-271 1546.8,-252 1430.8,-252"/>
<text text-anchor="middle" x="1488.8" y="-259" font-family="Helvetica,sans-Serif" font-size="10.00">amr&#45;wind/CFDSim.H</text>
</a>
</g>
</g>
<!-- Node1&#45;&gt;Node33 -->
<g id="edge54" class="edge">
<title>Node1&#45;&gt;Node33</title>
<path fill="none" stroke="midnightblue" d="M1426.4,-380.31C1437.3,-359.72 1464.86,-307.69 1479.43,-280.18"/>
<polygon fill="midnightblue" stroke="midnightblue" points="1482.57,-281.73 1484.16,-271.26 1476.38,-278.45 1482.57,-281.73"/>
</g>
<!-- Node41 -->
<g id="node41" class="node">
<title>Node41</title>
<g id="a_node41"><a xlink:href="_actuator_8_h.html" target="_top" xlink:title=" ">
<polygon fill="white" stroke="black" points="1499.8,-313.5 1499.8,-343.5 1627.8,-343.5 1627.8,-313.5 1499.8,-313.5"/>
<text text-anchor="start" x="1507.8" y="-331.5" font-family="Helvetica,sans-Serif" font-size="10.00">amr&#45;wind/wind_energy</text>
<text text-anchor="middle" x="1563.8" y="-320.5" font-family="Helvetica,sans-Serif" font-size="10.00">/actuator/Actuator.H</text>
</a>
</g>
</g>
<!-- Node1&#45;&gt;Node41 -->
<g id="edge81" class="edge">
<title>Node1&#45;&gt;Node41</title>
<path fill="none" stroke="midnightblue" d="M1442.14,-380.48C1462.63,-371.89 1494.87,-358.38 1521.01,-347.43"/>
<polygon fill="midnightblue" stroke="midnightblue" points="1522.46,-350.62 1530.33,-343.52 1519.75,-344.16 1522.46,-350.62"/>
</g>
<!-- Node3 -->
<g id="node3" class="node">
<title>Node3</title>
<g id="a_node3"><a xlink:href="_momentum_source_8_h.html" target="_top" xlink:title=" ">
<polygon fill="white" stroke="black" points="468.3,-246.5 468.3,-276.5 623.3,-276.5 623.3,-246.5 468.3,-246.5"/>
<text text-anchor="start" x="476.3" y="-264.5" font-family="Helvetica,sans-Serif" font-size="10.00">amr&#45;wind/equation_systems</text>
<text text-anchor="middle" x="545.8" y="-253.5" font-family="Helvetica,sans-Serif" font-size="10.00">/icns/MomentumSource.H</text>
</a>
</g>
</g>
<!-- Node2&#45;&gt;Node3 -->
<g id="edge2" class="edge">
<title>Node2&#45;&gt;Node3</title>
<path fill="none" stroke="midnightblue" d="M545.8,-313.4C545.8,-305.64 545.8,-295.81 545.8,-286.86"/>
<polygon fill="midnightblue" stroke="midnightblue" points="549.3,-286.58 545.8,-276.58 542.3,-286.58 549.3,-286.58"/>
</g>
<!-- Node29 -->
<g id="node29" class="node">
<title>Node29</title>
<g id="a_node29"><a xlink:href="_sim_time_8_h.html" target="_top" xlink:title=" ">
<polygon fill="white" stroke="black" points="315.8,-185 315.8,-204 459.8,-204 459.8,-185 315.8,-185"/>
<text text-anchor="middle" x="387.8" y="-192" font-family="Helvetica,sans-Serif" font-size="10.00">amr&#45;wind/core/SimTime.H</text>
</a>
</g>
</g>
<!-- Node2&#45;&gt;Node29 -->
<g id="edge50" class="edge">
<title>Node2&#45;&gt;Node29</title>
<path fill="none" stroke="midnightblue" d="M516.04,-313.34C498.47,-304.25 476.31,-291.45 458.8,-277 435.26,-257.57 412.97,-229.93 399.84,-212.36"/>
<polygon fill="midnightblue" stroke="midnightblue" points="402.59,-210.18 393.86,-204.18 396.94,-214.32 402.59,-210.18"/>
</g>
<!-- Node4 -->
<g id="node4" class="node">
<title>Node4</title>
<g id="a_node4"><a xlink:href="_factory_8_h.html" target="_top" xlink:title=" ">
<polygon fill="white" stroke="black" points="2022.8,-118 2022.8,-137 2156.8,-137 2156.8,-118 2022.8,-118"/>
<text text-anchor="middle" x="2089.8" y="-125" font-family="Helvetica,sans-Serif" font-size="10.00">amr&#45;wind/core/Factory.H</text>
</a>
</g>
</g>
<!-- Node3&#45;&gt;Node4 -->
<g id="edge3" class="edge">
<title>Node3&#45;&gt;Node4</title>
<path fill="none" stroke="midnightblue" d="M623.7,-259.88C899.6,-257.38 1820.61,-246.37 1947.8,-210 1960.58,-206.34 2030.56,-164.48 2067.28,-142.22"/>
<polygon fill="midnightblue" stroke="midnightblue" points="2069.11,-145.21 2075.84,-137.02 2065.48,-139.22 2069.11,-145.21"/>
</g>
<!-- Node10 -->
<g id="node10" class="node">
<title>Node10</title>
<g id="a_node10"><a xlink:href="_field_desc_types_8_h.html" target="_top" xlink:title=" ">
<polygon fill="white" stroke="black" points="623.8,-0.5 623.8,-19.5 799.8,-19.5 799.8,-0.5 623.8,-0.5"/>
<text text-anchor="middle" x="711.8" y="-7.5" font-family="Helvetica,sans-Serif" font-size="10.00">amr&#45;wind/core/FieldDescTypes.H</text>
</a>
</g>
</g>
<!-- Node3&#45;&gt;Node10 -->
<g id="edge9" class="edge">
<title>Node3&#45;&gt;Node10</title>
<path fill="none" stroke="midnightblue" d="M468.16,-258.45C332.35,-254.06 63.3,-241.46 34.8,-210 -11.16,-159.28 -11.97,-105.98 34.8,-56 73.43,-14.71 435.01,-10.04 613.32,-10.29"/>
<polygon fill="midnightblue" stroke="midnightblue" points="613.49,-13.79 623.49,-10.31 613.5,-6.79 613.49,-13.79"/>
</g>
<!-- Node11 -->
<g id="node11" class="node">
<title>Node11</title>
<g id="a_node11"><a xlink:href="_field_utils_8_h.html" target="_top" xlink:title=" ">
<polygon fill="white" stroke="black" points="472.8,-118 472.8,-137 618.8,-137 618.8,-118 472.8,-118"/>
<text text-anchor="middle" x="545.8" y="-125" font-family="Helvetica,sans-Serif" font-size="10.00">amr&#45;wind/core/FieldUtils.H</text>
</a>
</g>
</g>
<!-- Node3&#45;&gt;Node11 -->
<g id="edge10" class="edge">
<title>Node3&#45;&gt;Node11</title>
<path fill="none" stroke="midnightblue" d="M545.8,-246.37C545.8,-222.5 545.8,-174.18 545.8,-147.41"/>
<polygon fill="midnightblue" stroke="midnightblue" points="549.3,-147.1 545.8,-137.1 542.3,-147.1 549.3,-147.1"/>
</g>
<!-- Node12 -->
<g id="node12" class="node">
<title>Node12</title>
<g id="a_node12"><a xlink:title=" ">
<polygon fill="white" stroke="#bfbfbf" points="1178.3,-0.5 1178.3,-19.5 1287.3,-19.5 1287.3,-0.5 1178.3,-0.5"/>
<text text-anchor="middle" x="1232.8" y="-7.5" font-family="Helvetica,sans-Serif" font-size="10.00">AMReX_MultiFab.H</text>
</a>
</g>
</g>
<!-- Node3&#45;&gt;Node12 -->
<g id="edge49" class="edge">
<title>Node3&#45;&gt;Node12</title>
<path fill="none" stroke="midnightblue" d="M468.09,-261.37C306.17,-260.61 -43.41,-244.15 67.8,-112 161.61,-0.52 246.02,-72.36 390.8,-56 679.23,-23.4 1026,-14.31 1167.69,-11.86"/>
<polygon fill="midnightblue" stroke="midnightblue" points="1168,-15.36 1177.94,-11.69 1167.88,-8.36 1168,-15.36"/>
</g>
<!-- Node14 -->
<g id="node14" class="node">
<title>Node14</title>
<g id="a_node14"><a xlink:href="_field_repo_8_h.html" target="_top" xlink:title=" ">
<polygon fill="white" stroke="black" points="902.3,-185 902.3,-204 1051.3,-204 1051.3,-185 902.3,-185"/>
<text text-anchor="middle" x="976.8" y="-192" font-family="Helvetica,sans-Serif" font-size="10.00">amr&#45;wind/core/FieldRepo.H</text>
</a>
</g>
</g>
<!-- Node3&#45;&gt;Node14 -->
<g id="edge14" class="edge">
<title>Node3&#45;&gt;Node14</title>
<path fill="none" stroke="midnightblue" d="M623.35,-248.8C705.11,-236.47 832.57,-217.25 910.02,-205.57"/>
<polygon fill="midnightblue" stroke="midnightblue" points="910.77,-209 920.14,-204.04 909.73,-202.08 910.77,-209"/>
</g>
<!-- Node5 -->
<g id="node5" class="node">
<title>Node5</title>
<g id="a_node5"><a xlink:title=" ">
<polygon fill="white" stroke="#bfbfbf" points="2108.8,-56.5 2108.8,-75.5 2166.8,-75.5 2166.8,-56.5 2108.8,-56.5"/>
<text text-anchor="middle" x="2137.8" y="-63.5" font-family="Helvetica,sans-Serif" font-size="10.00">memory</text>
</a>
</g>
</g>
<!-- Node4&#45;&gt;Node5 -->
<g id="edge4" class="edge">
<title>Node4&#45;&gt;Node5</title>
<path fill="none" stroke="midnightblue" d="M2096.67,-117.98C2103.94,-108.96 2115.59,-94.52 2124.64,-83.31"/>
<polygon fill="midnightblue" stroke="midnightblue" points="2127.38,-85.49 2130.93,-75.51 2121.93,-81.09 2127.38,-85.49"/>
</g>
<!-- Node6 -->
<g id="node6" class="node">
<title>Node6</title>
<g id="a_node6"><a xlink:title=" ">
<polygon fill="white" stroke="#bfbfbf" points="1889.3,-56.5 1889.3,-75.5 1982.3,-75.5 1982.3,-56.5 1889.3,-56.5"/>
<text text-anchor="middle" x="1935.8" y="-63.5" font-family="Helvetica,sans-Serif" font-size="10.00">unordered_map</text>
</a>
</g>
</g>
<!-- Node4&#45;&gt;Node6 -->
<g id="edge5" class="edge">
<title>Node4&#45;&gt;Node6</title>
<path fill="none" stroke="midnightblue" d="M2067.73,-117.98C2041.43,-107.81 1997.28,-90.76 1967.37,-79.2"/>
<polygon fill="midnightblue" stroke="midnightblue" points="1968.41,-75.85 1957.82,-75.51 1965.89,-82.38 1968.41,-75.85"/>
</g>
<!-- Node7 -->
<g id="node7" class="node">
<title>Node7</title>
<g id="a_node7"><a xlink:title=" ">
<polygon fill="white" stroke="#bfbfbf" points="2264.8,-56.5 2264.8,-75.5 2324.8,-75.5 2324.8,-56.5 2264.8,-56.5"/>
<text text-anchor="middle" x="2294.8" y="-63.5" font-family="Helvetica,sans-Serif" font-size="10.00">iostream</text>
</a>
</g>
</g>
<!-- Node4&#45;&gt;Node7 -->
<g id="edge6" class="edge">
<title>Node4&#45;&gt;Node7</title>
<path fill="none" stroke="midnightblue" d="M2119.17,-117.98C2155.09,-107.55 2216.03,-89.86 2255.84,-78.31"/>
<polygon fill="midnightblue" stroke="midnightblue" points="2256.85,-81.66 2265.48,-75.51 2254.9,-74.94 2256.85,-81.66"/>
</g>
<!-- Node8 -->
<g id="node8" class="node">
<title>Node8</title>
<g id="a_node8"><a xlink:title=" ">
<polygon fill="white" stroke="#bfbfbf" points="2000.8,-56.5 2000.8,-75.5 2090.8,-75.5 2090.8,-56.5 2000.8,-56.5"/>
<text text-anchor="middle" x="2045.8" y="-63.5" font-family="Helvetica,sans-Serif" font-size="10.00">AMReX_Print.H</text>
</a>
</g>
</g>
<!-- Node4&#45;&gt;Node8 -->
<g id="edge7" class="edge">
<title>Node4&#45;&gt;Node8</title>
<path fill="none" stroke="midnightblue" d="M2083.49,-117.98C2076.89,-109.05 2066.36,-94.81 2058.1,-83.64"/>
<polygon fill="midnightblue" stroke="midnightblue" points="2060.85,-81.47 2052.09,-75.51 2055.22,-85.63 2060.85,-81.47"/>
</g>
<!-- Node9 -->
<g id="node9" class="node">
<title>Node9</title>
<g id="a_node9"><a xlink:title=" ">
<polygon fill="white" stroke="#bfbfbf" points="2184.8,-56.5 2184.8,-75.5 2246.8,-75.5 2246.8,-56.5 2184.8,-56.5"/>
<text text-anchor="middle" x="2215.8" y="-63.5" font-family="Helvetica,sans-Serif" font-size="10.00">AMReX.H</text>
</a>
</g>
</g>
<!-- Node4&#45;&gt;Node9 -->
<g id="edge8" class="edge">
<title>Node4&#45;&gt;Node9</title>
<path fill="none" stroke="midnightblue" d="M2107.85,-117.98C2128.99,-107.99 2164.24,-91.35 2188.67,-79.81"/>
<polygon fill="midnightblue" stroke="midnightblue" points="2190.23,-82.94 2197.78,-75.51 2187.24,-76.61 2190.23,-82.94"/>
</g>
<!-- Node11&#45;&gt;Node10 -->
<g id="edge11" class="edge">
<title>Node11&#45;&gt;Node10</title>
<path fill="none" stroke="midnightblue" d="M500.82,-117.92C459.89,-109.09 403.93,-94.09 390.8,-76 385.57,-68.81 384.96,-62.71 390.8,-56 419.27,-23.25 529.95,-13.63 613.44,-11.16"/>
<polygon fill="midnightblue" stroke="midnightblue" points="613.58,-14.65 623.48,-10.89 613.39,-7.66 613.58,-14.65"/>
</g>
<!-- Node11&#45;&gt;Node12 -->
<g id="edge12" class="edge">
<title>Node11&#45;&gt;Node12</title>
<path fill="none" stroke="midnightblue" d="M555.11,-117.83C572.52,-102.23 611.89,-69.76 651.8,-56 745.61,-23.64 1036.86,-14.45 1167.83,-11.92"/>
<polygon fill="midnightblue" stroke="midnightblue" points="1168.18,-15.42 1178.11,-11.73 1168.05,-8.42 1168.18,-15.42"/>
</g>
<!-- Node13 -->
<g id="node13" class="node">
<title>Node13</title>
<g id="a_node13"><a xlink:title=" ">
<polygon fill="white" stroke="#bfbfbf" points="399.8,-56.5 399.8,-75.5 523.8,-75.5 523.8,-56.5 399.8,-56.5"/>
<text text-anchor="middle" x="461.8" y="-63.5" font-family="Helvetica,sans-Serif" font-size="10.00">AMReX_Interpolater.H</text>
</a>
</g>
</g>
<!-- Node11&#45;&gt;Node13 -->
<g id="edge13" class="edge">
<title>Node11&#45;&gt;Node13</title>
<path fill="none" stroke="midnightblue" d="M533.76,-117.98C520.29,-108.43 498.23,-92.81 482.08,-81.37"/>
<polygon fill="midnightblue" stroke="midnightblue" points="483.99,-78.43 473.81,-75.51 479.95,-84.15 483.99,-78.43"/>
</g>
<!-- Node14&#45;&gt;Node6 -->
<g id="edge16" class="edge">
<title>Node14&#45;&gt;Node6</title>
<path fill="none" stroke="midnightblue" d="M1051.54,-185.54C1099.22,-178.55 1161.48,-165.78 1212.8,-143 1234.33,-133.44 1233.63,-119.97 1255.8,-112 1370.64,-70.71 1682.03,-84.15 1803.8,-76 1828.45,-74.35 1855.7,-72.5 1879,-70.9"/>
<polygon fill="midnightblue" stroke="midnightblue" points="1879.33,-74.39 1889.06,-70.21 1878.85,-67.41 1879.33,-74.39"/>
</g>
<!-- Node14&#45;&gt;Node10 -->
<g id="edge17" class="edge">
<title>Node14&#45;&gt;Node10</title>
<path fill="none" stroke="midnightblue" d="M901.96,-190.23C821.41,-185.21 700.21,-172.82 665.8,-143 635.73,-116.95 626.09,-91.1 644.8,-56 652.35,-41.83 666.56,-31.33 679.95,-24.06"/>
<polygon fill="midnightblue" stroke="midnightblue" points="681.63,-27.13 689.01,-19.53 678.5,-20.87 681.63,-27.13"/>
</g>
<!-- Node14&#45;&gt;Node11 -->
<g id="edge18" class="edge">
<title>Node14&#45;&gt;Node11</title>
<path fill="none" stroke="midnightblue" d="M916.16,-184.96C847.39,-175.19 731.94,-158.54 632.8,-143 624.11,-141.64 614.95,-140.16 605.96,-138.68"/>
<polygon fill="midnightblue" stroke="midnightblue" points="606.35,-135.2 595.91,-137.02 605.21,-142.11 606.35,-135.2"/>
</g>
<!-- Node14&#45;&gt;Node12 -->
<g id="edge47" class="edge">
<title>Node14&#45;&gt;Node12</title>
<path fill="none" stroke="midnightblue" d="M963.86,-184.8C931.54,-162.07 852.55,-99.61 890.8,-56 908.77,-35.5 1074.25,-21.39 1168.27,-14.96"/>
<polygon fill="midnightblue" stroke="midnightblue" points="1168.51,-18.45 1178.25,-14.29 1168.04,-11.47 1168.51,-18.45"/>
</g>
<!-- Node15 -->
<g id="node15" class="node">
<title>Node15</title>
<g id="a_node15"><a xlink:title=" ">
<polygon fill="white" stroke="#bfbfbf" points="1415.8,-0.5 1415.8,-19.5 1459.8,-19.5 1459.8,-0.5 1415.8,-0.5"/>
<text text-anchor="middle" x="1437.8" y="-7.5" font-family="Helvetica,sans-Serif" font-size="10.00">string</text>
</a>
</g>
</g>
<!-- Node14&#45;&gt;Node15 -->
<g id="edge15" class="edge">
<title>Node14&#45;&gt;Node15</title>
<path fill="none" stroke="midnightblue" d="M1044.05,-184.96C1082.77,-177.89 1131.25,-165.25 1169.8,-143 1216.88,-115.82 1208.53,-82.86 1255.8,-56 1303.65,-28.81 1367.69,-17.9 1405.66,-13.63"/>
<polygon fill="midnightblue" stroke="midnightblue" points="1406.06,-17.11 1415.64,-12.6 1405.34,-10.15 1406.06,-17.11"/>
</g>
<!-- Node16 -->
<g id="node16" class="node">
<title>Node16</title>
<g id="a_node16"><a xlink:href="_field_8_h.html" target="_top" xlink:title=" ">
<polygon fill="white" stroke="black" points="1632.8,-118 1632.8,-137 1756.8,-137 1756.8,-118 1632.8,-118"/>
<text text-anchor="middle" x="1694.8" y="-125" font-family="Helvetica,sans-Serif" font-size="10.00">amr&#45;wind/core/Field.H</text>
</a>
</g>
</g>
<!-- Node14&#45;&gt;Node16 -->
<g id="edge19" class="edge">
<title>Node14&#45;&gt;Node16</title>
<path fill="none" stroke="midnightblue" d="M1051.6,-186.73C1190.36,-174.17 1485.92,-147.41 1622.65,-135.03"/>
<polygon fill="midnightblue" stroke="midnightblue" points="1622.97,-138.52 1632.61,-134.13 1622.34,-131.55 1622.97,-138.52"/>
</g>
<!-- Node23 -->
<g id="node23" class="node">
<title>Node23</title>
<g id="a_node23"><a xlink:href="_int_field_8_h.html" target="_top" xlink:title=" ">
<polygon fill="white" stroke="black" points="675.3,-118 675.3,-137 812.3,-137 812.3,-118 675.3,-118"/>
<text text-anchor="middle" x="743.8" y="-125" font-family="Helvetica,sans-Serif" font-size="10.00">amr&#45;wind/core/IntField.H</text>
</a>
</g>
</g>
<!-- Node14&#45;&gt;Node23 -->
<g id="edge34" class="edge">
<title>Node14&#45;&gt;Node23</title>
<path fill="none" stroke="midnightblue" d="M945.86,-184.87C904.22,-173.25 830.1,-152.58 784.13,-139.75"/>
<polygon fill="midnightblue" stroke="midnightblue" points="785.07,-136.38 774.49,-137.06 783.18,-143.12 785.07,-136.38"/>
</g>
<!-- Node24 -->
<g id="node24" class="node">
<title>Node24</title>
<g id="a_node24"><a xlink:title=" ">
<polygon fill="white" stroke="#bfbfbf" points="693.8,-56.5 693.8,-75.5 805.8,-75.5 805.8,-56.5 693.8,-56.5"/>
<text text-anchor="middle" x="749.8" y="-63.5" font-family="Helvetica,sans-Serif" font-size="10.00">AMReX_iMultiFab.H</text>
</a>
</g>
</g>
<!-- Node14&#45;&gt;Node24 -->
<g id="edge48" class="edge">
<title>Node14&#45;&gt;Node24</title>
<path fill="none" stroke="midnightblue" d="M954.29,-184.83C931.23,-175.61 894.62,-160.02 864.8,-143 844.02,-131.14 840.68,-125.3 820.8,-112 804.77,-101.29 786.39,-89.65 772.34,-80.9"/>
<polygon fill="midnightblue" stroke="midnightblue" points="774.14,-77.9 763.8,-75.6 770.45,-83.84 774.14,-77.9"/>
</g>
<!-- Node25 -->
<g id="node25" class="node">
<title>Node25</title>
<g id="a_node25"><a xlink:href="_scratch_field_8_h.html" target="_top" xlink:title=" ">
<polygon fill="white" stroke="black" points="1000.8,-118 1000.8,-137 1160.8,-137 1160.8,-118 1000.8,-118"/>
<text text-anchor="middle" x="1080.8" y="-125" font-family="Helvetica,sans-Serif" font-size="10.00">amr&#45;wind/core/ScratchField.H</text>
</a>
</g>
</g>
<!-- Node14&#45;&gt;Node25 -->
<g id="edge38" class="edge">
<title>Node14&#45;&gt;Node25</title>
<path fill="none" stroke="midnightblue" d="M990.82,-184.73C1008.13,-173.92 1037.78,-155.38 1058.29,-142.57"/>
<polygon fill="midnightblue" stroke="midnightblue" points="1060.37,-145.4 1066.99,-137.13 1056.66,-139.46 1060.37,-145.4"/>
</g>
<!-- Node28 -->
<g id="node28" class="node">
<title>Node28</title>
<g id="a_node28"><a xlink:title=" ">
<polygon fill="white" stroke="#bfbfbf" points="1264.8,-118 1264.8,-137 1374.8,-137 1374.8,-118 1264.8,-118"/>
<text text-anchor="middle" x="1319.8" y="-125" font-family="Helvetica,sans-Serif" font-size="10.00">AMReX_AmrCore.H</text>
</a>
</g>
</g>
<!-- Node14&#45;&gt;Node28 -->
<g id="edge46" class="edge">
<title>Node14&#45;&gt;Node28</title>
<path fill="none" stroke="midnightblue" d="M1025.37,-184.92C1080.2,-175.16 1172.02,-158.53 1250.8,-143 1257.02,-141.77 1263.56,-140.45 1270.02,-139.11"/>
<polygon fill="midnightblue" stroke="midnightblue" points="1270.98,-142.49 1280.06,-137.03 1269.56,-135.64 1270.98,-142.49"/>
</g>
<!-- Node16&#45;&gt;Node5 -->
<g id="edge21" class="edge">
<title>Node16&#45;&gt;Node5</title>
<path fill="none" stroke="midnightblue" d="M1756.86,-120.87C1834.59,-113.36 1971.96,-98.52 2098.53,-76.06"/>
<polygon fill="midnightblue" stroke="midnightblue" points="2099.18,-79.5 2108.4,-74.29 2097.94,-72.61 2099.18,-79.5"/>
</g>
<!-- Node16&#45;&gt;Node6 -->
<g id="edge22" class="edge">
<title>Node16&#45;&gt;Node6</title>
<path fill="none" stroke="midnightblue" d="M1729.33,-117.98C1772.01,-107.44 1844.72,-89.49 1891.48,-77.94"/>
<polygon fill="midnightblue" stroke="midnightblue" points="1892.46,-81.3 1901.33,-75.51 1890.78,-74.51 1892.46,-81.3"/>
</g>
<!-- Node16&#45;&gt;Node10 -->
<g id="edge28" class="edge">
<title>Node16&#45;&gt;Node10</title>
<path fill="none" stroke="midnightblue" d="M1632.73,-121.41C1572.1,-115.15 1477.8,-102 1399.8,-76 1381.32,-69.84 1379.56,-61.22 1360.8,-56 1259.98,-27.93 965.07,-16.92 809.87,-12.98"/>
<polygon fill="midnightblue" stroke="midnightblue" points="809.94,-9.48 799.86,-12.73 809.76,-16.48 809.94,-9.48"/>
</g>
<!-- Node16&#45;&gt;Node12 -->
<g id="edge24" class="edge">
<title>Node16&#45;&gt;Node12</title>
<path fill="none" stroke="midnightblue" d="M1679.35,-117.87C1646.43,-99.48 1571.83,-57.98 1565.8,-56 1475.78,-26.44 1365.95,-16.28 1297.68,-12.79"/>
<polygon fill="midnightblue" stroke="midnightblue" points="1297.65,-9.29 1287.5,-12.31 1297.32,-16.28 1297.65,-9.29"/>
</g>
<!-- Node16&#45;&gt;Node15 -->
<g id="edge20" class="edge">
<title>Node16&#45;&gt;Node15</title>
<path fill="none" stroke="midnightblue" d="M1731.03,-117.93C1771.93,-106.62 1829.62,-84.75 1803.8,-56 1755.67,-2.42 1558.13,-32.02 1469.97,-19.64"/>
<polygon fill="midnightblue" stroke="midnightblue" points="1470.47,-16.17 1460.03,-17.96 1469.31,-23.08 1470.47,-16.17"/>
</g>
<!-- Node17 -->
<g id="node17" class="node">
<title>Node17</title>
<g id="a_node17"><a xlink:title=" ">
<polygon fill="white" stroke="#bfbfbf" points="1612.8,-56.5 1612.8,-75.5 1676.8,-75.5 1676.8,-56.5 1612.8,-56.5"/>
<text text-anchor="middle" x="1644.8" y="-63.5" font-family="Helvetica,sans-Serif" font-size="10.00">algorithm</text>
</a>
</g>
</g>
<!-- Node16&#45;&gt;Node17 -->
<g id="edge23" class="edge">
<title>Node16&#45;&gt;Node17</title>
<path fill="none" stroke="midnightblue" d="M1687.63,-117.98C1680.06,-108.96 1667.93,-94.52 1658.5,-83.31"/>
<polygon fill="midnightblue" stroke="midnightblue" points="1661.06,-80.91 1651.95,-75.51 1655.7,-85.42 1661.06,-80.91"/>
</g>
<!-- Node18 -->
<g id="node18" class="node">
<title>Node18</title>
<g id="a_node18"><a xlink:title=" ">
<polygon fill="white" stroke="#bfbfbf" points="1695.3,-56.5 1695.3,-75.5 1794.3,-75.5 1794.3,-56.5 1695.3,-56.5"/>
<text text-anchor="middle" x="1744.8" y="-63.5" font-family="Helvetica,sans-Serif" font-size="10.00">AMReX_BCRec.H</text>
</a>
</g>
</g>
<!-- Node16&#45;&gt;Node18 -->
<g id="edge25" class="edge">
<title>Node16&#45;&gt;Node18</title>
<path fill="none" stroke="midnightblue" d="M1701.96,-117.98C1709.53,-108.96 1721.67,-94.52 1731.09,-83.31"/>
<polygon fill="midnightblue" stroke="midnightblue" points="1733.89,-85.42 1737.65,-75.51 1728.53,-80.91 1733.89,-85.42"/>
</g>
<!-- Node16&#45;&gt;Node19 -->
<g id="edge26" class="edge">
<title>Node16&#45;&gt;Node19</title>
<path fill="none" stroke="midnightblue" d="M1639.37,-117.99C1574.15,-107.96 1462.6,-90.81 1366.8,-76 1365.35,-75.78 1363.88,-75.55 1362.4,-75.32"/>
<polygon fill="midnightblue" stroke="midnightblue" points="1362.92,-71.86 1352.5,-73.79 1361.85,-78.78 1362.92,-71.86"/>
</g>
<!-- Node20 -->
<g id="node20" class="node">
<title>Node20</title>
<g id="a_node20"><a xlink:href="incflo__enums_8_h.html" target="_top" xlink:title=" ">
<polygon fill="white" stroke="black" points="2343.3,-56.5 2343.3,-75.5 2484.3,-75.5 2484.3,-56.5 2343.3,-56.5"/>
<text text-anchor="middle" x="2413.8" y="-63.5" font-family="Helvetica,sans-Serif" font-size="10.00">amr&#45;wind/incflo_enums.H</text>
</a>
</g>
</g>
<!-- Node16&#45;&gt;Node20 -->
<g id="edge27" class="edge">
<title>Node16&#45;&gt;Node20</title>
<path fill="none" stroke="midnightblue" d="M1756.83,-121.65C1902.69,-110.25 2260.07,-82.27 2332.95,-75.99"/>
<polygon fill="midnightblue" stroke="midnightblue" points="2333.49,-79.45 2343.14,-75.08 2332.87,-72.48 2333.49,-79.45"/>
</g>
<!-- Node21 -->
<g id="node21" class="node">
<title>Node21</title>
<g id="a_node21"><a xlink:href="_view_field_8_h.html" target="_top" xlink:title=" ">
<polygon fill="white" stroke="black" points="1408.8,-56.5 1408.8,-75.5 1556.8,-75.5 1556.8,-56.5 1408.8,-56.5"/>
<text text-anchor="middle" x="1482.8" y="-63.5" font-family="Helvetica,sans-Serif" font-size="10.00">amr&#45;wind/core/ViewField.H</text>
</a>
</g>
</g>
<!-- Node16&#45;&gt;Node21 -->
<g id="edge29" class="edge">
<title>Node16&#45;&gt;Node21</title>
<path fill="none" stroke="midnightblue" d="M1664.42,-117.98C1627.19,-107.53 1563.99,-89.79 1522.82,-78.23"/>
<polygon fill="midnightblue" stroke="midnightblue" points="1523.69,-74.84 1513.11,-75.51 1521.8,-81.58 1523.69,-74.84"/>
</g>
<!-- Node21&#45;&gt;Node10 -->
<g id="edge31" class="edge">
<title>Node21&#45;&gt;Node10</title>
<path fill="none" stroke="midnightblue" d="M1408.4,-57.2C1403.8,-56.78 1399.23,-56.37 1394.8,-56 1186.91,-38.53 942.96,-23.86 810.16,-16.36"/>
<polygon fill="midnightblue" stroke="midnightblue" points="810.19,-12.86 800.01,-15.79 809.8,-19.85 810.19,-12.86"/>
</g>
<!-- Node21&#45;&gt;Node12 -->
<g id="edge32" class="edge">
<title>Node21&#45;&gt;Node12</title>
<path fill="none" stroke="midnightblue" d="M1443.18,-56.44C1399.57,-47.02 1329.4,-31.87 1282.22,-21.68"/>
<polygon fill="midnightblue" stroke="midnightblue" points="1282.74,-18.21 1272.22,-19.52 1281.26,-25.05 1282.74,-18.21"/>
</g>
<!-- Node21&#45;&gt;Node15 -->
<g id="edge30" class="edge">
<title>Node21&#45;&gt;Node15</title>
<path fill="none" stroke="midnightblue" d="M1475.36,-56.08C1468.94,-48.38 1459.49,-37.03 1451.67,-27.65"/>
<polygon fill="midnightblue" stroke="midnightblue" points="1454.18,-25.19 1445.09,-19.75 1448.8,-29.67 1454.18,-25.19"/>
</g>
<!-- Node22 -->
<g id="node22" class="node">
<title>Node22</title>
<g id="a_node22"><a xlink:title=" ">
<polygon fill="white" stroke="#bfbfbf" points="1477.8,-0.5 1477.8,-19.5 1575.8,-19.5 1575.8,-0.5 1477.8,-0.5"/>
<text text-anchor="middle" x="1526.8" y="-7.5" font-family="Helvetica,sans-Serif" font-size="10.00">AMReX_Vector.H</text>
</a>
</g>
</g>
<!-- Node21&#45;&gt;Node22 -->
<g id="edge33" class="edge">
<title>Node21&#45;&gt;Node22</title>
<path fill="none" stroke="midnightblue" d="M1490.06,-56.08C1496.34,-48.38 1505.58,-37.03 1513.23,-27.65"/>
<polygon fill="midnightblue" stroke="midnightblue" points="1516.06,-29.71 1519.67,-19.75 1510.64,-25.29 1516.06,-29.71"/>
</g>
<!-- Node23&#45;&gt;Node10 -->
<g id="edge36" class="edge">
<title>Node23&#45;&gt;Node10</title>
<path fill="none" stroke="midnightblue" d="M711.34,-118C690.34,-110.62 664.6,-97.64 651.8,-76 639.94,-55.97 663.16,-36.87 684.07,-24.62"/>
<polygon fill="midnightblue" stroke="midnightblue" points="686.01,-27.55 693.08,-19.66 682.63,-21.42 686.01,-27.55"/>
</g>
<!-- Node23&#45;&gt;Node15 -->
<g id="edge35" class="edge">
<title>Node23&#45;&gt;Node15</title>
<path fill="none" stroke="midnightblue" d="M727.64,-117.98C703.94,-104.44 664.65,-77.37 684.8,-56 731.45,-6.52 1227.92,-24.15 1295.8,-20 1333.4,-17.7 1376.6,-14.95 1405.38,-13.1"/>
<polygon fill="midnightblue" stroke="midnightblue" points="1405.91,-16.57 1415.66,-12.43 1405.46,-9.58 1405.91,-16.57"/>
</g>
<!-- Node23&#45;&gt;Node24 -->
<g id="edge37" class="edge">
<title>Node23&#45;&gt;Node24</title>
<path fill="none" stroke="midnightblue" d="M744.66,-117.98C745.5,-109.58 746.82,-96.48 747.91,-85.66"/>
<polygon fill="midnightblue" stroke="midnightblue" points="751.42,-85.81 748.94,-75.51 744.45,-85.11 751.42,-85.81"/>
</g>
<!-- Node25&#45;&gt;Node10 -->
<g id="edge41" class="edge">
<title>Node25&#45;&gt;Node10</title>
<path fill="none" stroke="midnightblue" d="M1044.81,-117.94C1006.39,-108.58 943.88,-92.66 890.8,-76 838.17,-59.49 778.12,-36.9 742.67,-23.16"/>
<polygon fill="midnightblue" stroke="midnightblue" points="743.94,-19.9 733.35,-19.53 741.4,-26.42 743.94,-19.9"/>
</g>
<!-- Node25&#45;&gt;Node12 -->
<g id="edge43" class="edge">
<title>Node25&#45;&gt;Node12</title>
<path fill="none" stroke="midnightblue" d="M1087.33,-117.8C1098.38,-103.54 1121.97,-74.88 1146.8,-56 1163.84,-43.04 1185.15,-31.86 1202.29,-23.88"/>
<polygon fill="midnightblue" stroke="midnightblue" points="1204.17,-26.88 1211.84,-19.57 1201.29,-20.5 1204.17,-26.88"/>
</g>
<!-- Node25&#45;&gt;Node15 -->
<g id="edge39" class="edge">
<title>Node25&#45;&gt;Node15</title>
<path fill="none" stroke="midnightblue" d="M1092.34,-117.76C1115.06,-100.72 1165.09,-64 1184.8,-56 1260.08,-25.42 1356.3,-15.57 1405.56,-12.44"/>
<polygon fill="midnightblue" stroke="midnightblue" points="1405.84,-15.93 1415.62,-11.85 1405.44,-8.94 1405.84,-15.93"/>
</g>
<!-- Node25&#45;&gt;Node21 -->
<g id="edge42" class="edge">
<title>Node25&#45;&gt;Node21</title>
<path fill="none" stroke="midnightblue" d="M1138.39,-117.98C1211.53,-107.15 1337.52,-88.5 1415.15,-77.01"/>
<polygon fill="midnightblue" stroke="midnightblue" points="1415.93,-80.44 1425.31,-75.51 1414.9,-73.51 1415.93,-80.44"/>
</g>
<!-- Node25&#45;&gt;Node22 -->
<g id="edge44" class="edge">
<title>Node25&#45;&gt;Node22</title>
<path fill="none" stroke="midnightblue" d="M1098.23,-117.98C1129.21,-103.19 1196.19,-72.74 1255.8,-56 1265.93,-53.15 1391.01,-32.83 1467.65,-20.49"/>
<polygon fill="midnightblue" stroke="midnightblue" points="1468.35,-23.92 1477.66,-18.87 1467.23,-17.01 1468.35,-23.92"/>
</g>
<!-- Node26 -->
<g id="node26" class="node">
<title>Node26</title>
<g id="a_node26"><a xlink:title=" ">
<polygon fill="white" stroke="#bfbfbf" points="1049.3,-56.5 1049.3,-75.5 1094.3,-75.5 1094.3,-56.5 1049.3,-56.5"/>
<text text-anchor="middle" x="1071.8" y="-63.5" font-family="Helvetica,sans-Serif" font-size="10.00">utility</text>
</a>
</g>
</g>
<!-- Node25&#45;&gt;Node26 -->
<g id="edge40" class="edge">
<title>Node25&#45;&gt;Node26</title>
<path fill="none" stroke="midnightblue" d="M1079.51,-117.98C1078.24,-109.58 1076.25,-96.48 1074.62,-85.66"/>
<polygon fill="midnightblue" stroke="midnightblue" points="1078.04,-84.87 1073.08,-75.51 1071.12,-85.92 1078.04,-84.87"/>
</g>
<!-- Node27 -->
<g id="node27" class="node">
<title>Node27</title>
<g id="a_node27"><a xlink:title=" ">
<polygon fill="white" stroke="#bfbfbf" points="900.3,-56.5 900.3,-75.5 1031.3,-75.5 1031.3,-56.5 900.3,-56.5"/>
<text text-anchor="middle" x="965.8" y="-63.5" font-family="Helvetica,sans-Serif" font-size="10.00">AMReX_PhysBCFunct.H</text>
</a>
</g>
</g>
<!-- Node25&#45;&gt;Node27 -->
<g id="edge45" class="edge">
<title>Node25&#45;&gt;Node27</title>
<path fill="none" stroke="midnightblue" d="M1064.32,-117.98C1045.19,-108.08 1013.42,-91.64 991.14,-80.12"/>
<polygon fill="midnightblue" stroke="midnightblue" points="992.73,-77 982.24,-75.51 989.52,-83.21 992.73,-77"/>
</g>
<!-- Node30 -->
<g id="node30" class="node">
<title>Node30</title>
<g id="a_node30"><a xlink:title=" ">
<polygon fill="white" stroke="#bfbfbf" points="210.8,-118 210.8,-137 302.8,-137 302.8,-118 210.8,-118"/>
<text text-anchor="middle" x="256.8" y="-125" font-family="Helvetica,sans-Serif" font-size="10.00">AMReX_REAL.H</text>
</a>
</g>
</g>
<!-- Node29&#45;&gt;Node30 -->
<g id="edge51" class="edge">
<title>Node29&#45;&gt;Node30</title>
<path fill="none" stroke="midnightblue" d="M370.4,-184.87C348.18,-173.84 309.51,-154.66 283.54,-141.77"/>
<polygon fill="midnightblue" stroke="midnightblue" points="284.78,-138.48 274.26,-137.17 281.67,-144.75 284.78,-138.48"/>
</g>
<!-- Node31 -->
<g id="node31" class="node">
<title>Node31</title>
<g id="a_node31"><a xlink:title=" ">
<polygon fill="white" stroke="#bfbfbf" points="320.8,-118 320.8,-137 454.8,-137 454.8,-118 320.8,-118"/>
<text text-anchor="middle" x="387.8" y="-125" font-family="Helvetica,sans-Serif" font-size="10.00">AMReX_GpuQualifiers.H</text>
</a>
</g>
</g>
<!-- Node29&#45;&gt;Node31 -->
<g id="edge52" class="edge">
<title>Node29&#45;&gt;Node31</title>
<path fill="none" stroke="midnightblue" d="M387.8,-184.73C387.8,-175.18 387.8,-159.62 387.8,-147.28"/>
<polygon fill="midnightblue" stroke="midnightblue" points="391.3,-147.13 387.8,-137.13 384.3,-147.13 391.3,-147.13"/>
</g>
<!-- Node32 -->
<g id="node32" class="node">
<title>Node32</title>
<g id="a_node32"><a xlink:title=" ">
<polygon fill="white" stroke="#bfbfbf" points="76.8,-118 76.8,-137 192.8,-137 192.8,-118 76.8,-118"/>
<text text-anchor="middle" x="134.8" y="-125" font-family="Helvetica,sans-Serif" font-size="10.00">AMReX_Extension.H</text>
</a>
</g>
</g>
<!-- Node29&#45;&gt;Node32 -->
<g id="edge53" class="edge">
<title>Node29&#45;&gt;Node32</title>
<path fill="none" stroke="midnightblue" d="M354.46,-184.94C309.14,-173.29 228.03,-152.45 178.07,-139.62"/>
<polygon fill="midnightblue" stroke="midnightblue" points="178.76,-136.18 168.21,-137.08 177.02,-142.96 178.76,-136.18"/>
</g>
<!-- Node33&#45;&gt;Node14 -->
<g id="edge57" class="edge">
<title>Node33&#45;&gt;Node14</title>
<path fill="none" stroke="midnightblue" d="M1430.56,-253.11C1337.98,-241.35 1157.16,-218.4 1053.92,-205.29"/>
<polygon fill="midnightblue" stroke="midnightblue" points="1054.23,-201.8 1043.87,-204.02 1053.35,-208.75 1054.23,-201.8"/>
</g>
<!-- Node33&#45;&gt;Node28 -->
<g id="edge55" class="edge">
<title>Node33&#45;&gt;Node28</title>
<path fill="none" stroke="midnightblue" d="M1477.71,-251.84C1449.41,-229.74 1374.26,-171.04 1338.81,-143.35"/>
<polygon fill="midnightblue" stroke="midnightblue" points="1340.74,-140.42 1330.71,-137.02 1336.43,-145.94 1340.74,-140.42"/>
</g>
<!-- Node33&#45;&gt;Node29 -->
<g id="edge56" class="edge">
<title>Node33&#45;&gt;Node29</title>
<path fill="none" stroke="midnightblue" d="M1430.77,-257.07C1247.93,-246.28 683.36,-212.95 470.32,-200.37"/>
<polygon fill="midnightblue" stroke="midnightblue" points="470.32,-196.87 460.13,-199.77 469.91,-203.85 470.32,-196.87"/>
</g>
<!-- Node34 -->
<g id="node34" class="node">
<title>Node34</title>
<g id="a_node34"><a xlink:href="_p_d_e_base_8_h.html" target="_top" xlink:title=" ">
<polygon fill="white" stroke="black" points="2397.3,-179.5 2397.3,-209.5 2552.3,-209.5 2552.3,-179.5 2397.3,-179.5"/>
<text text-anchor="start" x="2405.3" y="-197.5" font-family="Helvetica,sans-Serif" font-size="10.00">amr&#45;wind/equation_systems</text>
<text text-anchor="middle" x="2474.8" y="-186.5" font-family="Helvetica,sans-Serif" font-size="10.00">/PDEBase.H</text>
</a>
</g>
</g>
<!-- Node33&#45;&gt;Node34 -->
<g id="edge58" class="edge">
<title>Node33&#45;&gt;Node34</title>
<path fill="none" stroke="midnightblue" d="M1547.16,-256.65C1713.26,-245.7 2189.34,-214.32 2387.06,-201.28"/>
<polygon fill="midnightblue" stroke="midnightblue" points="2387.37,-204.77 2397.12,-200.62 2386.91,-197.79 2387.37,-204.77"/>
</g>
<!-- Node38 -->
<g id="node38" class="node">
<title>Node38</title>
<g id="a_node38"><a xlink:href="_physics_8_h.html" target="_top" xlink:title=" ">
<polygon fill="white" stroke="black" points="2014.3,-185 2014.3,-204 2151.3,-204 2151.3,-185 2014.3,-185"/>
<text text-anchor="middle" x="2082.8" y="-192" font-family="Helvetica,sans-Serif" font-size="10.00">amr&#45;wind/core/Physics.H</text>
</a>
</g>
</g>
<!-- Node33&#45;&gt;Node38 -->
<g id="edge70" class="edge">
<title>Node33&#45;&gt;Node38</title>
<path fill="none" stroke="midnightblue" d="M1546.93,-255.44C1639.67,-247.18 1826.76,-229.73 1984.8,-210 1995.58,-208.65 2007,-207.09 2018.1,-205.5"/>
<polygon fill="midnightblue" stroke="midnightblue" points="2018.78,-208.93 2028.17,-204.03 2017.77,-202.01 2018.78,-208.93"/>
</g>
<!-- Node40 -->
<g id="node40" class="node">
<title>Node40</title>
<g id="a_node40"><a xlink:href="_mesh_map_8_h.html" target="_top" xlink:title=" ">
<polygon fill="white" stroke="black" points="1790.8,-185 1790.8,-204 1938.8,-204 1938.8,-185 1790.8,-185"/>
<text text-anchor="middle" x="1864.8" y="-192" font-family="Helvetica,sans-Serif" font-size="10.00">amr&#45;wind/core/MeshMap.H</text>
</a>
</g>
</g>
<!-- Node33&#45;&gt;Node40 -->
<g id="edge75" class="edge">
<title>Node33&#45;&gt;Node40</title>
<path fill="none" stroke="midnightblue" d="M1538.34,-251.94C1607.19,-240.03 1731.63,-218.52 1805.38,-205.77"/>
<polygon fill="midnightblue" stroke="midnightblue" points="1806.19,-209.18 1815.44,-204.03 1804.99,-202.29 1806.19,-209.18"/>
</g>
<!-- Node34&#45;&gt;Node4 -->
<g id="edge60" class="edge">
<title>Node34&#45;&gt;Node4</title>
<path fill="none" stroke="midnightblue" d="M2397.18,-181.29C2334.85,-171.37 2245.11,-156.79 2166.8,-143 2159.44,-141.7 2151.69,-140.3 2144.06,-138.89"/>
<polygon fill="midnightblue" stroke="midnightblue" points="2144.62,-135.43 2134.15,-137.04 2143.33,-142.31 2144.62,-135.43"/>
</g>
<!-- Node34&#45;&gt;Node10 -->
<g id="edge68" class="edge">
<title>Node34&#45;&gt;Node10</title>
<path fill="none" stroke="midnightblue" d="M2483.34,-179.1C2498.69,-151.18 2526.43,-89.47 2493.8,-56 2486.39,-48.4 1182.99,-20.78 810.28,-13.03"/>
<polygon fill="midnightblue" stroke="midnightblue" points="810.13,-9.53 800.06,-12.82 809.99,-16.53 810.13,-9.53"/>
</g>
<!-- Node34&#45;&gt;Node15 -->
<g id="edge59" class="edge">
<title>Node34&#45;&gt;Node15</title>
<path fill="none" stroke="midnightblue" d="M2496.09,-179.38C2507.52,-170.46 2520.52,-157.84 2526.8,-143 2542.05,-106.93 2543.25,-80.63 2512.8,-56 2469.26,-20.78 1591.2,-28.54 1470.14,-19.25"/>
<polygon fill="midnightblue" stroke="midnightblue" points="1470.31,-15.75 1460,-18.16 1469.57,-22.71 1470.31,-15.75"/>
</g>
<!-- Node34&#45;&gt;Node20 -->
<g id="edge69" class="edge">
<title>Node34&#45;&gt;Node20</title>
<path fill="none" stroke="midnightblue" d="M2468.03,-179.48C2456.91,-156.41 2434.76,-110.48 2422.49,-85.03"/>
<polygon fill="midnightblue" stroke="midnightblue" points="2425.53,-83.28 2418.03,-75.79 2419.22,-86.32 2425.53,-83.28"/>
</g>
<!-- Node35 -->
<g id="node35" class="node">
<title>Node35</title>
<g id="a_node35"><a xlink:href="_coll_mgr_8_h.html" target="_top" xlink:title=" ">
<polygon fill="white" stroke="black" points="2175.3,-118 2175.3,-137 2312.3,-137 2312.3,-118 2175.3,-118"/>
<text text-anchor="middle" x="2243.8" y="-125" font-family="Helvetica,sans-Serif" font-size="10.00">amr&#45;wind/core/CollMgr.H</text>
</a>
</g>
</g>
<!-- Node34&#45;&gt;Node35 -->
<g id="edge61" class="edge">
<title>Node34&#45;&gt;Node35</title>
<path fill="none" stroke="midnightblue" d="M2424.96,-179.48C2382.74,-167.6 2323,-150.79 2283.84,-139.77"/>
<polygon fill="midnightblue" stroke="midnightblue" points="2284.68,-136.37 2274.11,-137.03 2282.78,-143.11 2284.68,-136.37"/>
</g>
<!-- Node36 -->
<g id="node36" class="node">
<title>Node36</title>
<g id="a_node36"><a xlink:href="_p_d_e_fields_8_h.html" target="_top" xlink:title=" ">
<polygon fill="white" stroke="black" points="2655.3,-112.5 2655.3,-142.5 2810.3,-142.5 2810.3,-112.5 2655.3,-112.5"/>
<text text-anchor="start" x="2663.3" y="-130.5" font-family="Helvetica,sans-Serif" font-size="10.00">amr&#45;wind/equation_systems</text>
<text text-anchor="middle" x="2732.8" y="-119.5" font-family="Helvetica,sans-Serif" font-size="10.00">/PDEFields.H</text>
</a>
</g>
</g>
<!-- Node34&#45;&gt;Node36 -->
<g id="edge66" class="edge">
<title>Node34&#45;&gt;Node36</title>
<path fill="none" stroke="midnightblue" d="M2530.46,-179.48C2570.51,-169.39 2624.67,-155.74 2666.88,-145.11"/>
<polygon fill="midnightblue" stroke="midnightblue" points="2667.94,-148.45 2676.79,-142.61 2666.23,-141.66 2667.94,-148.45"/>
</g>
<!-- Node35&#45;&gt;Node5 -->
<g id="edge63" class="edge">
<title>Node35&#45;&gt;Node5</title>
<path fill="none" stroke="midnightblue" d="M2228.61,-117.98C2211.13,-108.17 2182.22,-91.93 2161.71,-80.42"/>
<polygon fill="midnightblue" stroke="midnightblue" points="2163.39,-77.35 2152.95,-75.51 2159.96,-83.46 2163.39,-77.35"/>
</g>
<!-- Node35&#45;&gt;Node6 -->
<g id="edge64" class="edge">
<title>Node35&#45;&gt;Node6</title>
<path fill="none" stroke="midnightblue" d="M2199.67,-117.98C2144.32,-107.28 2049.46,-88.96 1989.82,-77.44"/>
<polygon fill="midnightblue" stroke="midnightblue" points="1990.33,-73.97 1979.84,-75.51 1989,-80.84 1990.33,-73.97"/>
</g>
<!-- Node35&#45;&gt;Node15 -->
<g id="edge62" class="edge">
<title>Node35&#45;&gt;Node15</title>
<path fill="none" stroke="midnightblue" d="M2312.49,-126.98C2404.49,-125.46 2550.02,-114.23 2493.8,-56 2455.61,-16.45 1589.29,-28.1 1469.99,-19.21"/>
<polygon fill="midnightblue" stroke="midnightblue" points="1470.31,-15.73 1460,-18.16 1469.57,-22.69 1470.31,-15.73"/>
</g>
<!-- Node35&#45;&gt;Node22 -->
<g id="edge65" class="edge">
<title>Node35&#45;&gt;Node22</title>
<path fill="none" stroke="midnightblue" d="M2312.32,-123.49C2427.72,-117.2 2644.45,-99.44 2602.8,-56 2567.4,-19.1 1806.66,-12.4 1586.18,-11.24"/>
<polygon fill="midnightblue" stroke="midnightblue" points="1586.11,-7.74 1576.09,-11.19 1586.08,-14.74 1586.11,-7.74"/>
</g>
<!-- Node37 -->
<g id="node37" class="node">
<title>Node37</title>
<g id="a_node37"><a xlink:title=" ">
<polygon fill="white" stroke="#bfbfbf" points="2708.8,-56.5 2708.8,-75.5 2756.8,-75.5 2756.8,-56.5 2708.8,-56.5"/>
<text text-anchor="middle" x="2732.8" y="-63.5" font-family="Helvetica,sans-Serif" font-size="10.00">iosfwd</text>
</a>
</g>
</g>
<!-- Node36&#45;&gt;Node37 -->
<g id="edge67" class="edge">
<title>Node36&#45;&gt;Node37</title>
<path fill="none" stroke="midnightblue" d="M2732.8,-112.4C2732.8,-104.47 2732.8,-94.46 2732.8,-85.86"/>
<polygon fill="midnightblue" stroke="midnightblue" points="2736.3,-85.66 2732.8,-75.66 2729.3,-85.66 2736.3,-85.66"/>
</g>
<!-- Node38&#45;&gt;Node4 -->
<g id="edge71" class="edge">
<title>Node38&#45;&gt;Node4</title>
<path fill="none" stroke="midnightblue" d="M2083.74,-184.73C2084.77,-175.18 2086.44,-159.62 2087.77,-147.28"/>
<polygon fill="midnightblue" stroke="midnightblue" points="2091.28,-147.44 2088.87,-137.13 2084.32,-146.7 2091.28,-147.44"/>
</g>
<!-- Node38&#45;&gt;Node12 -->
<g id="edge73" class="edge">
<title>Node38&#45;&gt;Node12</title>
<path fill="none" stroke="midnightblue" d="M2151.4,-192.05C2293.34,-186.89 2597.64,-163.34 2493.8,-56 2451.78,-12.57 1467.16,-22.56 1406.8,-20 1370.8,-18.47 1330.63,-16.42 1297.97,-14.66"/>
<polygon fill="midnightblue" stroke="midnightblue" points="1297.82,-11.15 1287.64,-14.1 1297.44,-18.13 1297.82,-11.15"/>
</g>
<!-- Node38&#45;&gt;Node35 -->
<g id="edge72" class="edge">
<title>Node38&#45;&gt;Node35</title>
<path fill="none" stroke="midnightblue" d="M2104.18,-184.87C2132.16,-173.57 2181.39,-153.7 2213.28,-140.82"/>
<polygon fill="midnightblue" stroke="midnightblue" points="2214.62,-144.05 2222.58,-137.06 2212,-137.56 2214.62,-144.05"/>
</g>
<!-- Node39 -->
<g id="node39" class="node">
<title>Node39</title>
<g id="a_node39"><a xlink:title=" ">
<polygon fill="white" stroke="#bfbfbf" points="1889.3,-118 1889.3,-137 2004.3,-137 2004.3,-118 1889.3,-118"/>
<text text-anchor="middle" x="1946.8" y="-125" font-family="Helvetica,sans-Serif" font-size="10.00">AMReX_Geometry.H</text>
</a>
</g>
</g>
<!-- Node38&#45;&gt;Node39 -->
<g id="edge74" class="edge">
<title>Node38&#45;&gt;Node39</title>
<path fill="none" stroke="midnightblue" d="M2064.74,-184.87C2041.57,-173.8 2001.17,-154.49 1974.2,-141.6"/>
<polygon fill="midnightblue" stroke="midnightblue" points="1975.46,-138.32 1964.93,-137.17 1972.44,-144.64 1975.46,-138.32"/>
</g>
<!-- Node40&#45;&gt;Node4 -->
<g id="edge77" class="edge">
<title>Node40&#45;&gt;Node4</title>
<path fill="none" stroke="midnightblue" d="M1894.67,-184.87C1934.71,-173.3 2005.86,-152.75 2050.28,-139.91"/>
<polygon fill="midnightblue" stroke="midnightblue" points="2051.52,-143.2 2060.15,-137.06 2049.57,-136.48 2051.52,-143.2"/>
</g>
<!-- Node40&#45;&gt;Node12 -->
<g id="edge79" class="edge">
<title>Node40&#45;&gt;Node12</title>
<path fill="none" stroke="midnightblue" d="M1863.93,-184.85C1860.93,-159.91 1848.56,-87.68 1803.8,-56 1783.4,-41.56 1442.86,-22.05 1297.61,-14.33"/>
<polygon fill="midnightblue" stroke="midnightblue" points="1297.66,-10.83 1287.49,-13.8 1297.29,-17.82 1297.66,-10.83"/>
</g>
<!-- Node40&#45;&gt;Node16 -->
<g id="edge78" class="edge">
<title>Node40&#45;&gt;Node16</title>
<path fill="none" stroke="midnightblue" d="M1842.22,-184.87C1812.55,-173.52 1760.24,-153.52 1726.58,-140.65"/>
<polygon fill="midnightblue" stroke="midnightblue" points="1727.78,-137.37 1717.19,-137.06 1725.28,-143.9 1727.78,-137.37"/>
</g>
<!-- Node40&#45;&gt;Node35 -->
<g id="edge76" class="edge">
<title>Node40&#45;&gt;Node35</title>
<path fill="none" stroke="midnightblue" d="M1917.32,-184.98C1977.42,-175.15 2078.79,-158.38 2165.8,-143 2173.15,-141.7 2180.89,-140.3 2188.52,-138.9"/>
<polygon fill="midnightblue" stroke="midnightblue" points="2189.25,-142.32 2198.45,-137.07 2187.98,-135.44 2189.25,-142.32"/>
</g>
<!-- Node40&#45;&gt;Node39 -->
<g id="edge80" class="edge">
<title>Node40&#45;&gt;Node39</title>
<path fill="none" stroke="midnightblue" d="M1875.85,-184.73C1889.13,-174.21 1911.62,-156.38 1927.72,-143.62"/>
<polygon fill="midnightblue" stroke="midnightblue" points="1930.25,-146.08 1935.91,-137.13 1925.9,-140.6 1930.25,-146.08"/>
</g>
<!-- Node41&#45;&gt;Node38 -->
<g id="edge82" class="edge">
<title>Node41&#45;&gt;Node38</title>
<path fill="none" stroke="midnightblue" d="M1618.85,-313.5C1722.68,-287.09 1945.43,-230.44 2039.48,-206.52"/>
<polygon fill="midnightblue" stroke="midnightblue" points="2040.4,-209.89 2049.23,-204.04 2038.68,-203.11 2040.4,-209.89"/>
</g>
</g>
</svg>
