<?xml version="1.0" encoding="UTF-8" standalone="no"?>
<!DOCTYPE svg PUBLIC "-//W3C//DTD SVG 1.1//EN"
 "http://www.w3.org/Graphics/SVG/1.1/DTD/svg11.dtd">
<!-- Generated by graphviz version 2.43.0 (0)
 -->
<!-- Title: ActuatorContainer.cpp Pages: 1 -->
<svg width="1880pt" height="397pt"
 viewBox="0.00 0.00 1879.50 397.00" xmlns="http://www.w3.org/2000/svg" xmlns:xlink="http://www.w3.org/1999/xlink">
<g id="graph0" class="graph" transform="scale(1 1) rotate(0) translate(4 393)">
<title>ActuatorContainer.cpp</title>
<polygon fill="white" stroke="transparent" points="-4,4 -4,-393 1875.5,-393 1875.5,4 -4,4"/>
<!-- Node1 -->
<g id="node1" class="node">
<title>Node1</title>
<g id="a_node1"><a xlink:title=" ">
<polygon fill="#bfbfbf" stroke="black" points="895,-369.5 895,-388.5 1020,-388.5 1020,-369.5 895,-369.5"/>
<text text-anchor="middle" x="957.5" y="-376.5" font-family="Helvetica,sans-Serif" font-size="10.00">ActuatorContainer.cpp</text>
</a>
</g>
</g>
<!-- Node2 -->
<g id="node2" class="node">
<title>Node2</title>
<g id="a_node2"><a xlink:href="_actuator_container_8_h.html" target="_top" xlink:title=" ">
<polygon fill="white" stroke="black" points="401,-302.5 401,-332.5 562,-332.5 562,-302.5 401,-302.5"/>
<text text-anchor="start" x="409" y="-320.5" font-family="Helvetica,sans-Serif" font-size="10.00">amr&#45;wind/wind_energy</text>
<text text-anchor="middle" x="481.5" y="-309.5" font-family="Helvetica,sans-Serif" font-size="10.00">/actuator/ActuatorContainer.H</text>
</a>
</g>
</g>
<!-- Node1&#45;&gt;Node2 -->
<g id="edge1" class="edge">
<title>Node1&#45;&gt;Node2</title>
<path fill="none" stroke="midnightblue" d="M894.72,-371.24C819.13,-362.96 688.38,-348.14 576.5,-333 575.03,-332.8 573.54,-332.6 572.05,-332.39"/>
<polygon fill="midnightblue" stroke="midnightblue" points="572.46,-328.91 562.07,-330.99 571.48,-335.85 572.46,-328.91"/>
</g>
<!-- Node16 -->
<g id="node16" class="node">
<title>Node16</title>
<g id="a_node16"><a xlink:href="_actuator_8_h.html" target="_top" xlink:title=" ">
<polygon fill="white" stroke="black" points="893.5,-302.5 893.5,-332.5 1021.5,-332.5 1021.5,-302.5 893.5,-302.5"/>
<text text-anchor="start" x="901.5" y="-320.5" font-family="Helvetica,sans-Serif" font-size="10.00">amr&#45;wind/wind_energy</text>
<text text-anchor="middle" x="957.5" y="-309.5" font-family="Helvetica,sans-Serif" font-size="10.00">/actuator/Actuator.H</text>
</a>
</g>
</g>
<!-- Node1&#45;&gt;Node16 -->
<g id="edge24" class="edge">
<title>Node1&#45;&gt;Node16</title>
<path fill="none" stroke="midnightblue" d="M957.5,-369.48C957.5,-362.47 957.5,-352.19 957.5,-342.7"/>
<polygon fill="midnightblue" stroke="midnightblue" points="961,-342.52 957.5,-332.52 954,-342.52 961,-342.52"/>
</g>
<!-- Node22 -->
<g id="node22" class="node">
<title>Node22</title>
<g id="a_node22"><a xlink:title=" ">
<polygon fill="white" stroke="#bfbfbf" points="618.5,-123.5 618.5,-142.5 708.5,-142.5 708.5,-123.5 618.5,-123.5"/>
<text text-anchor="middle" x="663.5" y="-130.5" font-family="Helvetica,sans-Serif" font-size="10.00">AMReX_Print.H</text>
</a>
</g>
</g>
<!-- Node1&#45;&gt;Node22 -->
<g id="edge57" class="edge">
<title>Node1&#45;&gt;Node22</title>
<path fill="none" stroke="midnightblue" d="M920.52,-369.48C852.08,-351.48 707.24,-302.47 647.5,-199 638.99,-184.26 645.45,-165.11 652.54,-151.42"/>
<polygon fill="midnightblue" stroke="midnightblue" points="655.68,-152.98 657.61,-142.56 649.61,-149.5 655.68,-152.98"/>
</g>
<!-- Node29 -->
<g id="node29" class="node">
<title>Node29</title>
<g id="a_node29"><a xlink:href="gpu__utils_8_h.html" target="_top" xlink:title=" ">
<polygon fill="white" stroke="black" points="574,-62 574,-81 719,-81 719,-62 574,-62"/>
<text text-anchor="middle" x="646.5" y="-69" font-family="Helvetica,sans-Serif" font-size="10.00">amr&#45;wind/core/gpu_utils.H</text>
</a>
</g>
</g>
<!-- Node1&#45;&gt;Node29 -->
<g id="edge39" class="edge">
<title>Node1&#45;&gt;Node29</title>
<path fill="none" stroke="midnightblue" d="M894.83,-369.57C790.01,-353.68 590.5,-315.1 590.5,-251.5 590.5,-251.5 590.5,-251.5 590.5,-188 590.5,-157.9 596.18,-149.99 609.5,-123 615.54,-110.76 624.55,-98.38 632.17,-88.94"/>
<polygon fill="midnightblue" stroke="midnightblue" points="634.93,-91.1 638.65,-81.19 629.56,-86.61 634.93,-91.1"/>
</g>
<!-- Node30 -->
<g id="node30" class="node">
<title>Node30</title>
<g id="a_node30"><a xlink:href="_field_8_h.html" target="_top" xlink:title=" ">
<polygon fill="white" stroke="black" points="1313.5,-241 1313.5,-260 1437.5,-260 1437.5,-241 1313.5,-241"/>
<text text-anchor="middle" x="1375.5" y="-248" font-family="Helvetica,sans-Serif" font-size="10.00">amr&#45;wind/core/Field.H</text>
</a>
</g>
</g>
<!-- Node1&#45;&gt;Node30 -->
<g id="edge41" class="edge">
<title>Node1&#45;&gt;Node30</title>
<path fill="none" stroke="midnightblue" d="M985.9,-369.4C1059.19,-347.22 1254.74,-288.05 1337.57,-262.98"/>
<polygon fill="midnightblue" stroke="midnightblue" points="1338.78,-266.27 1347.33,-260.02 1336.75,-259.57 1338.78,-266.27"/>
</g>
<!-- Node31 -->
<g id="node31" class="node">
<title>Node31</title>
<g id="a_node31"><a xlink:title=" ">
<polygon fill="white" stroke="#bfbfbf" points="1807.5,-179.5 1807.5,-198.5 1871.5,-198.5 1871.5,-179.5 1807.5,-179.5"/>
<text text-anchor="middle" x="1839.5" y="-186.5" font-family="Helvetica,sans-Serif" font-size="10.00">algorithm</text>
</a>
</g>
</g>
<!-- Node1&#45;&gt;Node31 -->
<g id="edge58" class="edge">
<title>Node1&#45;&gt;Node31</title>
<path fill="none" stroke="midnightblue" d="M999.12,-369.46C1042.82,-360.48 1113.52,-345.88 1174.5,-333 1410.16,-283.23 1692.42,-221.99 1797.44,-199.16"/>
<polygon fill="midnightblue" stroke="midnightblue" points="1798.31,-202.55 1807.34,-197 1796.82,-195.71 1798.31,-202.55"/>
</g>
<!-- Node36 -->
<g id="node36" class="node">
<title>Node36</title>
<g id="a_node36"><a xlink:title=" ">
<polygon fill="white" stroke="#bfbfbf" points="1494,-308 1494,-327 1585,-327 1585,-308 1494,-308"/>
<text text-anchor="middle" x="1539.5" y="-315" font-family="Helvetica,sans-Serif" font-size="10.00">AMReX_Scan.H</text>
</a>
</g>
</g>
<!-- Node1&#45;&gt;Node36 -->
<g id="edge56" class="edge">
<title>Node1&#45;&gt;Node36</title>
<path fill="none" stroke="midnightblue" d="M1020.15,-375.66C1118.52,-371.3 1314.98,-359.81 1479.5,-333 1485.68,-331.99 1492.16,-330.69 1498.49,-329.28"/>
<polygon fill="midnightblue" stroke="midnightblue" points="1499.29,-332.69 1508.23,-327 1497.7,-325.87 1499.29,-332.69"/>
</g>
<!-- Node3 -->
<g id="node3" class="node">
<title>Node3</title>
<g id="a_node3"><a xlink:href="vector__space_8_h.html" target="_top" xlink:title=" ">
<polygon fill="white" stroke="black" points="272,-235.5 272,-265.5 407,-265.5 407,-235.5 272,-235.5"/>
<text text-anchor="start" x="280" y="-253.5" font-family="Helvetica,sans-Serif" font-size="10.00">amr&#45;wind/core/vs/vector</text>
<text text-anchor="middle" x="339.5" y="-242.5" font-family="Helvetica,sans-Serif" font-size="10.00">_space.H</text>
</a>
</g>
</g>
<!-- Node2&#45;&gt;Node3 -->
<g id="edge2" class="edge">
<title>Node2&#45;&gt;Node3</title>
<path fill="none" stroke="midnightblue" d="M450.69,-302.4C429.85,-292.86 402.12,-280.16 379.57,-269.84"/>
<polygon fill="midnightblue" stroke="midnightblue" points="380.8,-266.56 370.25,-265.58 377.89,-272.92 380.8,-266.56"/>
</g>
<!-- Node15 -->
<g id="node15" class="node">
<title>Node15</title>
<g id="a_node15"><a xlink:title=" ">
<polygon fill="white" stroke="#bfbfbf" points="425,-241 425,-260 554,-260 554,-241 425,-241"/>
<text text-anchor="middle" x="489.5" y="-248" font-family="Helvetica,sans-Serif" font-size="10.00">AMReX_AmrParticles.H</text>
</a>
</g>
</g>
<!-- Node2&#45;&gt;Node15 -->
<g id="edge23" class="edge">
<title>Node2&#45;&gt;Node15</title>
<path fill="none" stroke="midnightblue" d="M483.24,-302.4C484.4,-292.96 485.94,-280.45 487.2,-270.19"/>
<polygon fill="midnightblue" stroke="midnightblue" points="490.68,-270.55 488.43,-260.19 483.73,-269.69 490.68,-270.55"/>
</g>
<!-- Node4 -->
<g id="node4" class="node">
<title>Node4</title>
<g id="a_node4"><a xlink:href="vector_8_h.html" target="_top" xlink:title=" ">
<polygon fill="white" stroke="black" points="112,-123.5 112,-142.5 257,-142.5 257,-123.5 112,-123.5"/>
<text text-anchor="middle" x="184.5" y="-130.5" font-family="Helvetica,sans-Serif" font-size="10.00">amr&#45;wind/core/vs/vector.H</text>
</a>
</g>
</g>
<!-- Node3&#45;&gt;Node4 -->
<g id="edge3" class="edge">
<title>Node3&#45;&gt;Node4</title>
<path fill="none" stroke="midnightblue" d="M320.49,-235.34C290.92,-213.3 234.16,-171.01 204.18,-148.66"/>
<polygon fill="midnightblue" stroke="midnightblue" points="206.24,-145.84 196.13,-142.67 202.06,-151.45 206.24,-145.84"/>
</g>
<!-- Node12 -->
<g id="node12" class="node">
<title>Node12</title>
<g id="a_node12"><a xlink:href="tensor_8_h.html" target="_top" xlink:title=" ">
<polygon fill="white" stroke="black" points="291,-179.5 291,-198.5 436,-198.5 436,-179.5 291,-179.5"/>
<text text-anchor="middle" x="363.5" y="-186.5" font-family="Helvetica,sans-Serif" font-size="10.00">amr&#45;wind/core/vs/tensor.H</text>
</a>
</g>
</g>
<!-- Node3&#45;&gt;Node12 -->
<g id="edge12" class="edge">
<title>Node3&#45;&gt;Node12</title>
<path fill="none" stroke="midnightblue" d="M345.19,-235.4C348.5,-227.2 352.7,-216.78 356.24,-207.99"/>
<polygon fill="midnightblue" stroke="midnightblue" points="359.51,-209.24 360.01,-198.66 353.02,-206.62 359.51,-209.24"/>
</g>
<!-- Node5 -->
<g id="node5" class="node">
<title>Node5</title>
<g id="a_node5"><a xlink:title=" ">
<polygon fill="white" stroke="#bfbfbf" points="502,-0.5 502,-19.5 589,-19.5 589,-0.5 502,-0.5"/>
<text text-anchor="middle" x="545.5" y="-7.5" font-family="Helvetica,sans-Serif" font-size="10.00">AMReX_Gpu.H</text>
</a>
</g>
</g>
<!-- Node4&#45;&gt;Node5 -->
<g id="edge4" class="edge">
<title>Node4&#45;&gt;Node5</title>
<path fill="none" stroke="midnightblue" d="M257.15,-124.11C340.43,-114.61 468.01,-98.5 487.5,-87 510.55,-73.4 527.57,-46.78 537.02,-28.94"/>
<polygon fill="midnightblue" stroke="midnightblue" points="540.23,-30.35 541.58,-19.84 533.97,-27.21 540.23,-30.35"/>
</g>
<!-- Node6 -->
<g id="node6" class="node">
<title>Node6</title>
<g id="a_node6"><a xlink:href="vstraits_8_h.html" target="_top" xlink:title=" ">
<polygon fill="white" stroke="black" points="167.5,-62 167.5,-81 319.5,-81 319.5,-62 167.5,-62"/>
<text text-anchor="middle" x="243.5" y="-69" font-family="Helvetica,sans-Serif" font-size="10.00">amr&#45;wind/core/vs/vstraits.H</text>
</a>
</g>
</g>
<!-- Node4&#45;&gt;Node6 -->
<g id="edge5" class="edge">
<title>Node4&#45;&gt;Node6</title>
<path fill="none" stroke="midnightblue" d="M192.95,-123.48C202.07,-114.28 216.77,-99.46 227.98,-88.16"/>
<polygon fill="midnightblue" stroke="midnightblue" points="230.51,-90.57 235.06,-81.01 225.54,-85.65 230.51,-90.57"/>
</g>
<!-- Node9 -->
<g id="node9" class="node">
<title>Node9</title>
<g id="a_node9"><a xlink:href="vector_i_8_h.html" target="_top" xlink:title=" ">
<polygon fill="white" stroke="black" points="0,-62 0,-81 149,-81 149,-62 0,-62"/>
<text text-anchor="middle" x="74.5" y="-69" font-family="Helvetica,sans-Serif" font-size="10.00">amr&#45;wind/core/vs/vectorI.H</text>
</a>
</g>
</g>
<!-- Node4&#45;&gt;Node9 -->
<g id="edge8" class="edge">
<title>Node4&#45;&gt;Node9</title>
<path fill="none" stroke="midnightblue" d="M163.84,-123.48C143.75,-113.75 113.82,-97.73 94.1,-86.24"/>
<polygon fill="midnightblue" stroke="midnightblue" points="95.72,-83.12 85.33,-81.01 92.13,-89.14 95.72,-83.12"/>
</g>
<!-- Node7 -->
<g id="node7" class="node">
<title>Node7</title>
<g id="a_node7"><a xlink:title=" ">
<polygon fill="white" stroke="#bfbfbf" points="221.5,-0.5 221.5,-19.5 265.5,-19.5 265.5,-0.5 221.5,-0.5"/>
<text text-anchor="middle" x="243.5" y="-7.5" font-family="Helvetica,sans-Serif" font-size="10.00">limits</text>
</a>
</g>
</g>
<!-- Node6&#45;&gt;Node7 -->
<g id="edge6" class="edge">
<title>Node6&#45;&gt;Node7</title>
<path fill="none" stroke="midnightblue" d="M243.5,-61.98C243.5,-53.58 243.5,-40.48 243.5,-29.66"/>
<polygon fill="midnightblue" stroke="midnightblue" points="247,-29.51 243.5,-19.51 240,-29.51 247,-29.51"/>
</g>
<!-- Node8 -->
<g id="node8" class="node">
<title>Node8</title>
<g id="a_node8"><a xlink:title=" ">
<polygon fill="white" stroke="#bfbfbf" points="381.5,-0.5 381.5,-19.5 473.5,-19.5 473.5,-0.5 381.5,-0.5"/>
<text text-anchor="middle" x="427.5" y="-7.5" font-family="Helvetica,sans-Serif" font-size="10.00">AMReX_REAL.H</text>
</a>
</g>
</g>
<!-- Node6&#45;&gt;Node8 -->
<g id="edge7" class="edge">
<title>Node6&#45;&gt;Node8</title>
<path fill="none" stroke="midnightblue" d="M269.86,-61.98C301.84,-51.64 355.88,-34.16 391.62,-22.6"/>
<polygon fill="midnightblue" stroke="midnightblue" points="392.75,-25.92 401.19,-19.51 390.59,-19.26 392.75,-25.92"/>
</g>
<!-- Node9&#45;&gt;Node4 -->
<g id="edge11" class="edge">
<title>Node9&#45;&gt;Node4</title>
<path fill="none" stroke="midnightblue" d="M95.13,-81.01C115.21,-90.72 145.14,-106.75 164.86,-118.24"/>
<polygon fill="midnightblue" stroke="midnightblue" points="163.26,-121.36 173.64,-123.48 166.84,-115.35 163.26,-121.36"/>
</g>
<!-- Node10 -->
<g id="node10" class="node">
<title>Node10</title>
<g id="a_node10"><a xlink:title=" ">
<polygon fill="white" stroke="#bfbfbf" points="46,-0.5 46,-19.5 103,-19.5 103,-0.5 46,-0.5"/>
<text text-anchor="middle" x="74.5" y="-7.5" font-family="Helvetica,sans-Serif" font-size="10.00">ostream</text>
</a>
</g>
</g>
<!-- Node9&#45;&gt;Node10 -->
<g id="edge9" class="edge">
<title>Node9&#45;&gt;Node10</title>
<path fill="none" stroke="midnightblue" d="M74.5,-61.98C74.5,-53.58 74.5,-40.48 74.5,-29.66"/>
<polygon fill="midnightblue" stroke="midnightblue" points="78,-29.51 74.5,-19.51 71,-29.51 78,-29.51"/>
</g>
<!-- Node11 -->
<g id="node11" class="node">
<title>Node11</title>
<g id="a_node11"><a xlink:title=" ">
<polygon fill="white" stroke="#bfbfbf" points="316,-0.5 316,-19.5 363,-19.5 363,-0.5 316,-0.5"/>
<text text-anchor="middle" x="339.5" y="-7.5" font-family="Helvetica,sans-Serif" font-size="10.00">cmath</text>
</a>
</g>
</g>
<!-- Node9&#45;&gt;Node11 -->
<g id="edge10" class="edge">
<title>Node9&#45;&gt;Node11</title>
<path fill="none" stroke="midnightblue" d="M112.47,-61.98C164.31,-50.34 256.43,-29.65 305.89,-18.55"/>
<polygon fill="midnightblue" stroke="midnightblue" points="306.78,-21.93 315.77,-16.33 305.25,-15.1 306.78,-21.93"/>
</g>
<!-- Node12&#45;&gt;Node4 -->
<g id="edge15" class="edge">
<title>Node12&#45;&gt;Node4</title>
<path fill="none" stroke="midnightblue" d="M335.14,-179.44C304.76,-170.28 256.39,-155.69 222.68,-145.52"/>
<polygon fill="midnightblue" stroke="midnightblue" points="223.32,-142.05 212.73,-142.52 221.29,-148.76 223.32,-142.05"/>
</g>
<!-- Node12&#45;&gt;Node5 -->
<g id="edge13" class="edge">
<title>Node12&#45;&gt;Node5</title>
<path fill="none" stroke="midnightblue" d="M394.08,-179.43C416.64,-172.14 447.31,-160.1 470.5,-143 496.65,-123.72 501.2,-115.11 517.5,-87 528.16,-68.62 535.99,-45.45 540.62,-29.56"/>
<polygon fill="midnightblue" stroke="midnightblue" points="544.01,-30.44 543.31,-19.86 537.26,-28.57 544.01,-30.44"/>
</g>
<!-- Node12&#45;&gt;Node6 -->
<g id="edge14" class="edge">
<title>Node12&#45;&gt;Node6</title>
<path fill="none" stroke="midnightblue" d="M350.44,-179.46C337.83,-170.93 318.49,-157.09 303.5,-143 285.66,-126.22 267.8,-104.44 256.26,-89.56"/>
<polygon fill="midnightblue" stroke="midnightblue" points="258.8,-87.11 249.96,-81.29 253.24,-91.36 258.8,-87.11"/>
</g>
<!-- Node13 -->
<g id="node13" class="node">
<title>Node13</title>
<g id="a_node13"><a xlink:href="tensor_i_8_h.html" target="_top" xlink:title=" ">
<polygon fill="white" stroke="black" points="313,-123.5 313,-142.5 462,-142.5 462,-123.5 313,-123.5"/>
<text text-anchor="middle" x="387.5" y="-130.5" font-family="Helvetica,sans-Serif" font-size="10.00">amr&#45;wind/core/vs/tensorI.H</text>
</a>
</g>
</g>
<!-- Node12&#45;&gt;Node13 -->
<g id="edge16" class="edge">
<title>Node12&#45;&gt;Node13</title>
<path fill="none" stroke="midnightblue" d="M362.3,-179.08C364.04,-171.61 368.48,-160.72 373.35,-151.52"/>
<polygon fill="midnightblue" stroke="midnightblue" points="376.45,-153.15 378.48,-142.75 370.41,-149.61 376.45,-153.15"/>
</g>
<!-- Node13&#45;&gt;Node11 -->
<g id="edge17" class="edge">
<title>Node13&#45;&gt;Node11</title>
<path fill="none" stroke="midnightblue" d="M383.23,-123.48C378.8,-114.51 371.8,-99.92 366.5,-87 358.55,-67.61 350.67,-44.91 345.49,-29.41"/>
<polygon fill="midnightblue" stroke="midnightblue" points="348.69,-27.94 342.24,-19.53 342.04,-30.13 348.69,-27.94"/>
</g>
<!-- Node13&#45;&gt;Node12 -->
<g id="edge18" class="edge">
<title>Node13&#45;&gt;Node12</title>
<path fill="none" stroke="midnightblue" d="M388.74,-142.75C387.04,-150.17 382.62,-161.05 377.76,-170.27"/>
<polygon fill="midnightblue" stroke="midnightblue" points="374.64,-168.68 372.63,-179.08 380.69,-172.2 374.64,-168.68"/>
</g>
<!-- Node14 -->
<g id="node14" class="node">
<title>Node14</title>
<g id="a_node14"><a xlink:href="trig__ops_8_h.html" target="_top" xlink:title=" ">
<polygon fill="white" stroke="black" points="376,-56.5 376,-86.5 479,-86.5 479,-56.5 376,-56.5"/>
<text text-anchor="start" x="384" y="-74.5" font-family="Helvetica,sans-Serif" font-size="10.00">amr&#45;wind/utilities</text>
<text text-anchor="middle" x="427.5" y="-63.5" font-family="Helvetica,sans-Serif" font-size="10.00">/trig_ops.H</text>
</a>
</g>
</g>
<!-- Node13&#45;&gt;Node14 -->
<g id="edge19" class="edge">
<title>Node13&#45;&gt;Node14</title>
<path fill="none" stroke="midnightblue" d="M393.23,-123.48C398.24,-116.02 405.75,-104.85 412.46,-94.87"/>
<polygon fill="midnightblue" stroke="midnightblue" points="415.4,-96.77 418.07,-86.52 409.59,-92.87 415.4,-96.77"/>
</g>
<!-- Node14&#45;&gt;Node5 -->
<g id="edge22" class="edge">
<title>Node14&#45;&gt;Node5</title>
<path fill="none" stroke="midnightblue" d="M455.46,-56.4C474.82,-46.64 500.41,-33.74 519.36,-24.18"/>
<polygon fill="midnightblue" stroke="midnightblue" points="520.98,-27.29 528.33,-19.66 517.83,-21.04 520.98,-27.29"/>
</g>
<!-- Node14&#45;&gt;Node8 -->
<g id="edge21" class="edge">
<title>Node14&#45;&gt;Node8</title>
<path fill="none" stroke="midnightblue" d="M427.5,-56.4C427.5,-48.47 427.5,-38.46 427.5,-29.86"/>
<polygon fill="midnightblue" stroke="midnightblue" points="431,-29.66 427.5,-19.66 424,-29.66 431,-29.66"/>
</g>
<!-- Node14&#45;&gt;Node11 -->
<g id="edge20" class="edge">
<title>Node14&#45;&gt;Node11</title>
<path fill="none" stroke="midnightblue" d="M406.65,-56.4C392.8,-47.04 374.69,-34.79 360.76,-25.38"/>
<polygon fill="midnightblue" stroke="midnightblue" points="362.55,-22.36 352.3,-19.66 358.63,-28.16 362.55,-22.36"/>
</g>
<!-- Node17 -->
<g id="node17" class="node">
<title>Node17</title>
<g id="a_node17"><a xlink:href="_physics_8_h.html" target="_top" xlink:title=" ">
<polygon fill="white" stroke="black" points="889,-241 889,-260 1026,-260 1026,-241 889,-241"/>
<text text-anchor="middle" x="957.5" y="-248" font-family="Helvetica,sans-Serif" font-size="10.00">amr&#45;wind/core/Physics.H</text>
</a>
</g>
</g>
<!-- Node16&#45;&gt;Node17 -->
<g id="edge25" class="edge">
<title>Node16&#45;&gt;Node17</title>
<path fill="none" stroke="midnightblue" d="M957.5,-302.4C957.5,-293.06 957.5,-280.71 957.5,-270.52"/>
<polygon fill="midnightblue" stroke="midnightblue" points="961,-270.19 957.5,-260.19 954,-270.19 961,-270.19"/>
</g>
<!-- Node18 -->
<g id="node18" class="node">
<title>Node18</title>
<g id="a_node18"><a xlink:href="_factory_8_h.html" target="_top" xlink:title=" ">
<polygon fill="white" stroke="black" points="656.5,-179.5 656.5,-198.5 790.5,-198.5 790.5,-179.5 656.5,-179.5"/>
<text text-anchor="middle" x="723.5" y="-186.5" font-family="Helvetica,sans-Serif" font-size="10.00">amr&#45;wind/core/Factory.H</text>
</a>
</g>
</g>
<!-- Node17&#45;&gt;Node18 -->
<g id="edge26" class="edge">
<title>Node17&#45;&gt;Node18</title>
<path fill="none" stroke="midnightblue" d="M923.97,-240.98C882.62,-230.46 812.23,-212.56 766.82,-201.01"/>
<polygon fill="midnightblue" stroke="midnightblue" points="767.52,-197.58 756.96,-198.51 765.79,-204.37 767.52,-197.58"/>
</g>
<!-- Node24 -->
<g id="node24" class="node">
<title>Node24</title>
<g id="a_node24"><a xlink:href="_coll_mgr_8_h.html" target="_top" xlink:title=" ">
<polygon fill="white" stroke="black" points="981,-179.5 981,-198.5 1118,-198.5 1118,-179.5 981,-179.5"/>
<text text-anchor="middle" x="1049.5" y="-186.5" font-family="Helvetica,sans-Serif" font-size="10.00">amr&#45;wind/core/CollMgr.H</text>
</a>
</g>
</g>
<!-- Node17&#45;&gt;Node24 -->
<g id="edge32" class="edge">
<title>Node17&#45;&gt;Node24</title>
<path fill="none" stroke="midnightblue" d="M970.68,-240.98C985.57,-231.34 1010.04,-215.52 1027.77,-204.05"/>
<polygon fill="midnightblue" stroke="midnightblue" points="1029.85,-206.88 1036.34,-198.51 1026.05,-201 1029.85,-206.88"/>
</g>
<!-- Node27 -->
<g id="node27" class="node">
<title>Node27</title>
<g id="a_node27"><a xlink:title=" ">
<polygon fill="white" stroke="#bfbfbf" points="1271,-123.5 1271,-142.5 1380,-142.5 1380,-123.5 1271,-123.5"/>
<text text-anchor="middle" x="1325.5" y="-130.5" font-family="Helvetica,sans-Serif" font-size="10.00">AMReX_MultiFab.H</text>
</a>
</g>
</g>
<!-- Node17&#45;&gt;Node27 -->
<g id="edge37" class="edge">
<title>Node17&#45;&gt;Node27</title>
<path fill="none" stroke="midnightblue" d="M986.88,-240.97C1020.64,-231.1 1077.69,-214.26 1126.5,-199 1184.1,-180.99 1250.7,-159 1290.39,-145.77"/>
<polygon fill="midnightblue" stroke="midnightblue" points="1291.74,-149 1300.12,-142.52 1289.53,-142.36 1291.74,-149"/>
</g>
<!-- Node28 -->
<g id="node28" class="node">
<title>Node28</title>
<g id="a_node28"><a xlink:title=" ">
<polygon fill="white" stroke="#bfbfbf" points="809,-179.5 809,-198.5 924,-198.5 924,-179.5 809,-179.5"/>
<text text-anchor="middle" x="866.5" y="-186.5" font-family="Helvetica,sans-Serif" font-size="10.00">AMReX_Geometry.H</text>
</a>
</g>
</g>
<!-- Node17&#45;&gt;Node28 -->
<g id="edge38" class="edge">
<title>Node17&#45;&gt;Node28</title>
<path fill="none" stroke="midnightblue" d="M944.46,-240.98C929.73,-231.34 905.53,-215.52 887.99,-204.05"/>
<polygon fill="midnightblue" stroke="midnightblue" points="889.8,-201.05 879.51,-198.51 885.97,-206.91 889.8,-201.05"/>
</g>
<!-- Node19 -->
<g id="node19" class="node">
<title>Node19</title>
<g id="a_node19"><a xlink:title=" ">
<polygon fill="white" stroke="#bfbfbf" points="1016.5,-123.5 1016.5,-142.5 1074.5,-142.5 1074.5,-123.5 1016.5,-123.5"/>
<text text-anchor="middle" x="1045.5" y="-130.5" font-family="Helvetica,sans-Serif" font-size="10.00">memory</text>
</a>
</g>
</g>
<!-- Node18&#45;&gt;Node19 -->
<g id="edge27" class="edge">
<title>Node18&#45;&gt;Node19</title>
<path fill="none" stroke="midnightblue" d="M784.99,-179.47C840.22,-171.53 923.73,-158.82 1006.12,-142.95"/>
<polygon fill="midnightblue" stroke="midnightblue" points="1007.01,-146.34 1016.16,-141 1005.67,-139.47 1007.01,-146.34"/>
</g>
<!-- Node20 -->
<g id="node20" class="node">
<title>Node20</title>
<g id="a_node20"><a xlink:title=" ">
<polygon fill="white" stroke="#bfbfbf" points="905,-123.5 905,-142.5 998,-142.5 998,-123.5 905,-123.5"/>
<text text-anchor="middle" x="951.5" y="-130.5" font-family="Helvetica,sans-Serif" font-size="10.00">unordered_map</text>
</a>
</g>
</g>
<!-- Node18&#45;&gt;Node20 -->
<g id="edge28" class="edge">
<title>Node18&#45;&gt;Node20</title>
<path fill="none" stroke="midnightblue" d="M759.63,-179.44C799.15,-170.08 862.6,-155.06 905.61,-144.87"/>
<polygon fill="midnightblue" stroke="midnightblue" points="906.62,-148.23 915.54,-142.52 905,-141.42 906.62,-148.23"/>
</g>
<!-- Node21 -->
<g id="node21" class="node">
<title>Node21</title>
<g id="a_node21"><a xlink:title=" ">
<polygon fill="white" stroke="#bfbfbf" points="806.5,-123.5 806.5,-142.5 866.5,-142.5 866.5,-123.5 806.5,-123.5"/>
<text text-anchor="middle" x="836.5" y="-130.5" font-family="Helvetica,sans-Serif" font-size="10.00">iostream</text>
</a>
</g>
</g>
<!-- Node18&#45;&gt;Node21 -->
<g id="edge29" class="edge">
<title>Node18&#45;&gt;Node21</title>
<path fill="none" stroke="midnightblue" d="M741.41,-179.44C759.75,-170.68 788.51,-156.94 809.59,-146.86"/>
<polygon fill="midnightblue" stroke="midnightblue" points="811.17,-149.99 818.68,-142.52 808.15,-143.67 811.17,-149.99"/>
</g>
<!-- Node18&#45;&gt;Node22 -->
<g id="edge30" class="edge">
<title>Node18&#45;&gt;Node22</title>
<path fill="none" stroke="midnightblue" d="M713.86,-179.32C704.99,-171.34 691.63,-159.31 680.89,-149.65"/>
<polygon fill="midnightblue" stroke="midnightblue" points="683.09,-146.92 673.32,-142.83 678.41,-152.13 683.09,-146.92"/>
</g>
<!-- Node23 -->
<g id="node23" class="node">
<title>Node23</title>
<g id="a_node23"><a xlink:title=" ">
<polygon fill="white" stroke="#bfbfbf" points="726.5,-123.5 726.5,-142.5 788.5,-142.5 788.5,-123.5 726.5,-123.5"/>
<text text-anchor="middle" x="757.5" y="-130.5" font-family="Helvetica,sans-Serif" font-size="10.00">AMReX.H</text>
</a>
</g>
</g>
<!-- Node18&#45;&gt;Node23 -->
<g id="edge31" class="edge">
<title>Node18&#45;&gt;Node23</title>
<path fill="none" stroke="midnightblue" d="M729.11,-179.08C733.87,-171.53 740.82,-160.49 746.65,-151.23"/>
<polygon fill="midnightblue" stroke="midnightblue" points="749.62,-153.08 751.99,-142.75 743.7,-149.35 749.62,-153.08"/>
</g>
<!-- Node24&#45;&gt;Node19 -->
<g id="edge34" class="edge">
<title>Node24&#45;&gt;Node19</title>
<path fill="none" stroke="midnightblue" d="M1048.84,-179.08C1048.32,-172.01 1047.56,-161.86 1046.91,-152.99"/>
<polygon fill="midnightblue" stroke="midnightblue" points="1050.38,-152.47 1046.15,-142.75 1043.4,-152.98 1050.38,-152.47"/>
</g>
<!-- Node24&#45;&gt;Node20 -->
<g id="edge35" class="edge">
<title>Node24&#45;&gt;Node20</title>
<path fill="none" stroke="midnightblue" d="M1033.75,-179.32C1018.18,-170.74 994.12,-157.49 976.04,-147.52"/>
<polygon fill="midnightblue" stroke="midnightblue" points="977.65,-144.42 967.21,-142.65 974.28,-150.55 977.65,-144.42"/>
</g>
<!-- Node25 -->
<g id="node25" class="node">
<title>Node25</title>
<g id="a_node25"><a xlink:title=" ">
<polygon fill="white" stroke="#bfbfbf" points="1208.5,-123.5 1208.5,-142.5 1252.5,-142.5 1252.5,-123.5 1208.5,-123.5"/>
<text text-anchor="middle" x="1230.5" y="-130.5" font-family="Helvetica,sans-Serif" font-size="10.00">string</text>
</a>
</g>
</g>
<!-- Node24&#45;&gt;Node25 -->
<g id="edge33" class="edge">
<title>Node24&#45;&gt;Node25</title>
<path fill="none" stroke="midnightblue" d="M1078.18,-179.44C1110.88,-169.69 1164.21,-153.78 1198.31,-143.6"/>
<polygon fill="midnightblue" stroke="midnightblue" points="1199.65,-146.86 1208.23,-140.64 1197.65,-140.15 1199.65,-146.86"/>
</g>
<!-- Node26 -->
<g id="node26" class="node">
<title>Node26</title>
<g id="a_node26"><a xlink:title=" ">
<polygon fill="white" stroke="#bfbfbf" points="1092.5,-123.5 1092.5,-142.5 1190.5,-142.5 1190.5,-123.5 1092.5,-123.5"/>
<text text-anchor="middle" x="1141.5" y="-130.5" font-family="Helvetica,sans-Serif" font-size="10.00">AMReX_Vector.H</text>
</a>
</g>
</g>
<!-- Node24&#45;&gt;Node26 -->
<g id="edge36" class="edge">
<title>Node24&#45;&gt;Node26</title>
<path fill="none" stroke="midnightblue" d="M1064.28,-179.32C1078.77,-170.82 1101.07,-157.73 1117.99,-147.8"/>
<polygon fill="midnightblue" stroke="midnightblue" points="1119.9,-150.74 1126.76,-142.65 1116.36,-144.7 1119.9,-150.74"/>
</g>
<!-- Node29&#45;&gt;Node5 -->
<g id="edge40" class="edge">
<title>Node29&#45;&gt;Node5</title>
<path fill="none" stroke="midnightblue" d="M632.03,-61.98C615.53,-52.25 588.32,-36.23 568.82,-24.74"/>
<polygon fill="midnightblue" stroke="midnightblue" points="570.34,-21.57 559.94,-19.51 566.78,-27.6 570.34,-21.57"/>
</g>
<!-- Node30&#45;&gt;Node5 -->
<g id="edge48" class="edge">
<title>Node30&#45;&gt;Node5</title>
<path fill="none" stroke="midnightblue" d="M1437.86,-241.9C1540.58,-229.24 1734.58,-204.65 1739.5,-199 1745.34,-192.3 1743.26,-187.05 1739.5,-179 1723.06,-143.84 1708.28,-138.03 1672.5,-123 1474.81,-39.97 795.98,-17.12 599.3,-12.18"/>
<polygon fill="midnightblue" stroke="midnightblue" points="599.29,-8.68 589.21,-11.93 599.12,-15.67 599.29,-8.68"/>
</g>
<!-- Node30&#45;&gt;Node19 -->
<g id="edge43" class="edge">
<title>Node30&#45;&gt;Node19</title>
<path fill="none" stroke="midnightblue" d="M1350.06,-240.94C1320.54,-230.98 1270.43,-213.99 1227.5,-199 1175.38,-180.8 1115.08,-159.15 1078.64,-146"/>
<polygon fill="midnightblue" stroke="midnightblue" points="1079.62,-142.63 1069.02,-142.52 1077.24,-149.21 1079.62,-142.63"/>
</g>
<!-- Node30&#45;&gt;Node20 -->
<g id="edge44" class="edge">
<title>Node30&#45;&gt;Node20</title>
<path fill="none" stroke="midnightblue" d="M1313.1,-249.72C1212.82,-248.79 1021.92,-241.32 971.5,-199 958.1,-187.75 953.51,-167.74 952.02,-152.88"/>
<polygon fill="midnightblue" stroke="midnightblue" points="955.51,-152.52 951.4,-142.75 948.52,-152.95 955.51,-152.52"/>
</g>
<!-- Node30&#45;&gt;Node25 -->
<g id="edge42" class="edge">
<title>Node30&#45;&gt;Node25</title>
<path fill="none" stroke="midnightblue" d="M1316.58,-240.95C1289.83,-234.04 1260.07,-221.55 1241.5,-199 1230.94,-186.17 1228.82,-166.99 1228.96,-152.78"/>
<polygon fill="midnightblue" stroke="midnightblue" points="1232.46,-152.83 1229.44,-142.68 1225.47,-152.5 1232.46,-152.83"/>
</g>
<!-- Node30&#45;&gt;Node27 -->
<g id="edge46" class="edge">
<title>Node30&#45;&gt;Node27</title>
<path fill="none" stroke="midnightblue" d="M1384.66,-240.96C1398.05,-227.39 1420.1,-200.28 1407.5,-179 1398.53,-163.84 1382.43,-153.45 1366.87,-146.5"/>
<polygon fill="midnightblue" stroke="midnightblue" points="1367.89,-143.14 1357.31,-142.62 1365.25,-149.63 1367.89,-143.14"/>
</g>
<!-- Node30&#45;&gt;Node31 -->
<g id="edge45" class="edge">
<title>Node30&#45;&gt;Node31</title>
<path fill="none" stroke="midnightblue" d="M1416.81,-240.97C1428.03,-238.83 1440.21,-236.67 1451.5,-235 1602.7,-212.66 1642.35,-221.7 1793.5,-199 1794.77,-198.81 1796.05,-198.61 1797.35,-198.4"/>
<polygon fill="midnightblue" stroke="midnightblue" points="1798.14,-201.81 1807.39,-196.66 1796.94,-194.92 1798.14,-201.81"/>
</g>
<!-- Node32 -->
<g id="node32" class="node">
<title>Node32</title>
<g id="a_node32"><a xlink:title=" ">
<polygon fill="white" stroke="#bfbfbf" points="1455,-179.5 1455,-198.5 1554,-198.5 1554,-179.5 1455,-179.5"/>
<text text-anchor="middle" x="1504.5" y="-186.5" font-family="Helvetica,sans-Serif" font-size="10.00">AMReX_BCRec.H</text>
</a>
</g>
</g>
<!-- Node30&#45;&gt;Node32 -->
<g id="edge47" class="edge">
<title>Node30&#45;&gt;Node32</title>
<path fill="none" stroke="midnightblue" d="M1393.98,-240.98C1415.63,-230.99 1451.71,-214.35 1476.73,-202.81"/>
<polygon fill="midnightblue" stroke="midnightblue" points="1478.44,-205.88 1486.05,-198.51 1475.51,-199.52 1478.44,-205.88"/>
</g>
<!-- Node33 -->
<g id="node33" class="node">
<title>Node33</title>
<g id="a_node33"><a xlink:href="incflo__enums_8_h.html" target="_top" xlink:title=" ">
<polygon fill="white" stroke="black" points="1572,-179.5 1572,-198.5 1713,-198.5 1713,-179.5 1572,-179.5"/>
<text text-anchor="middle" x="1642.5" y="-186.5" font-family="Helvetica,sans-Serif" font-size="10.00">amr&#45;wind/incflo_enums.H</text>
</a>
</g>
</g>
<!-- Node30&#45;&gt;Node33 -->
<g id="edge49" class="edge">
<title>Node30&#45;&gt;Node33</title>
<path fill="none" stroke="midnightblue" d="M1413.75,-240.98C1461.34,-230.37 1542.61,-212.26 1594.38,-200.72"/>
<polygon fill="midnightblue" stroke="midnightblue" points="1595.32,-204.1 1604.32,-198.51 1593.79,-197.27 1595.32,-204.1"/>
</g>
<!-- Node34 -->
<g id="node34" class="node">
<title>Node34</title>
<g id="a_node34"><a xlink:href="_field_desc_types_8_h.html" target="_top" xlink:title=" ">
<polygon fill="white" stroke="black" points="1487.5,-123.5 1487.5,-142.5 1663.5,-142.5 1663.5,-123.5 1487.5,-123.5"/>
<text text-anchor="middle" x="1575.5" y="-130.5" font-family="Helvetica,sans-Serif" font-size="10.00">amr&#45;wind/core/FieldDescTypes.H</text>
</a>
</g>
</g>
<!-- Node30&#45;&gt;Node34 -->
<g id="edge50" class="edge">
<title>Node30&#45;&gt;Node34</title>
<path fill="none" stroke="midnightblue" d="M1418.03,-240.95C1428.92,-238.88 1440.63,-236.76 1451.5,-235 1511.47,-225.3 1682.47,-244.7 1722.5,-199 1747.73,-170.19 1703.67,-153.59 1657.35,-144.39"/>
<polygon fill="midnightblue" stroke="midnightblue" points="1657.93,-140.94 1647.45,-142.54 1656.64,-147.82 1657.93,-140.94"/>
</g>
<!-- Node35 -->
<g id="node35" class="node">
<title>Node35</title>
<g id="a_node35"><a xlink:href="_view_field_8_h.html" target="_top" xlink:title=" ">
<polygon fill="white" stroke="black" points="1250.5,-179.5 1250.5,-198.5 1398.5,-198.5 1398.5,-179.5 1250.5,-179.5"/>
<text text-anchor="middle" x="1324.5" y="-186.5" font-family="Helvetica,sans-Serif" font-size="10.00">amr&#45;wind/core/ViewField.H</text>
</a>
</g>
</g>
<!-- Node30&#45;&gt;Node35 -->
<g id="edge51" class="edge">
<title>Node30&#45;&gt;Node35</title>
<path fill="none" stroke="midnightblue" d="M1368.19,-240.98C1360.47,-231.96 1348.09,-217.52 1338.48,-206.31"/>
<polygon fill="midnightblue" stroke="midnightblue" points="1340.96,-203.82 1331.79,-198.51 1335.64,-208.38 1340.96,-203.82"/>
</g>
<!-- Node35&#45;&gt;Node25 -->
<g id="edge52" class="edge">
<title>Node35&#45;&gt;Node25</title>
<path fill="none" stroke="midnightblue" d="M1309.4,-179.32C1294.6,-170.82 1271.81,-157.73 1254.52,-147.8"/>
<polygon fill="midnightblue" stroke="midnightblue" points="1255.98,-144.6 1245.57,-142.65 1252.49,-150.67 1255.98,-144.6"/>
</g>
<!-- Node35&#45;&gt;Node26 -->
<g id="edge55" class="edge">
<title>Node35&#45;&gt;Node26</title>
<path fill="none" stroke="midnightblue" d="M1295.5,-179.44C1264.32,-170.24 1214.57,-155.56 1180.09,-145.39"/>
<polygon fill="midnightblue" stroke="midnightblue" points="1180.94,-141.99 1170.36,-142.52 1178.96,-148.7 1180.94,-141.99"/>
</g>
<!-- Node35&#45;&gt;Node27 -->
<g id="edge54" class="edge">
<title>Node35&#45;&gt;Node27</title>
<path fill="none" stroke="midnightblue" d="M1324.67,-179.08C1324.8,-172.01 1324.98,-161.86 1325.15,-152.99"/>
<polygon fill="midnightblue" stroke="midnightblue" points="1328.65,-152.81 1325.34,-142.75 1321.65,-152.68 1328.65,-152.81"/>
</g>
<!-- Node35&#45;&gt;Node34 -->
<g id="edge53" class="edge">
<title>Node35&#45;&gt;Node34</title>
<path fill="none" stroke="midnightblue" d="M1364.27,-179.44C1408.06,-170.02 1478.51,-154.87 1525.88,-144.68"/>
<polygon fill="midnightblue" stroke="midnightblue" points="1526.87,-148.04 1535.91,-142.52 1525.4,-141.2 1526.87,-148.04"/>
</g>
</g>
</svg>
