<?xml version="1.0" encoding="UTF-8" standalone="no"?>
<!DOCTYPE svg PUBLIC "-//W3C//DTD SVG 1.1//EN"
 "http://www.w3.org/Graphics/SVG/1.1/DTD/svg11.dtd">
<!-- Generated by graphviz version 2.43.0 (0)
 -->
<!-- Title: ActuatorDisk.H Pages: 1 -->
<svg width="895pt" height="308pt"
 viewBox="0.00 0.00 895.00 308.00" xmlns="http://www.w3.org/2000/svg" xmlns:xlink="http://www.w3.org/1999/xlink">
<g id="graph0" class="graph" transform="scale(1 1) rotate(0) translate(4 304)">
<title>ActuatorDisk.H</title>
<polygon fill="white" stroke="transparent" points="-4,4 -4,-304 891,-304 891,4 -4,4"/>
<!-- Node1 -->
<g id="node1" class="node">
<title>Node1</title>
<g id="a_node1"><a xlink:title=" ">
<polygon fill="#bfbfbf" stroke="black" points="576,-280.5 576,-299.5 666,-299.5 666,-280.5 576,-280.5"/>
<text text-anchor="middle" x="621" y="-287.5" font-family="Helvetica,sans-Serif" font-size="10.00">ActuatorDisk.H</text>
</a>
</g>
</g>
<!-- Node2 -->
<g id="node2" class="node">
<title>Node2</title>
<g id="a_node2"><a xlink:href="_uniform_ct_8_h.html" target="_top" xlink:title=" ">
<polygon fill="white" stroke="black" points="432.5,-224.5 432.5,-243.5 509.5,-243.5 509.5,-224.5 432.5,-224.5"/>
<text text-anchor="middle" x="471" y="-231.5" font-family="Helvetica,sans-Serif" font-size="10.00">UniformCt.H</text>
</a>
</g>
</g>
<!-- Node1&#45;&gt;Node2 -->
<g id="edge1" class="edge">
<title>Node1&#45;&gt;Node2</title>
<path fill="none" stroke="midnightblue" d="M587.78,-277.04C559.55,-266.88 519.74,-252.55 494.66,-243.52"/>
<polygon fill="midnightblue" stroke="midnightblue" points="586.64,-280.35 597.23,-280.44 589.01,-273.76 586.64,-280.35"/>
</g>
<!-- Node13 -->
<g id="node13" class="node">
<title>Node13</title>
<g id="a_node13"><a xlink:href="_joukowsky_8_h.html" target="_top" xlink:title=" ">
<polygon fill="white" stroke="black" points="582.5,-224.5 582.5,-243.5 659.5,-243.5 659.5,-224.5 582.5,-224.5"/>
<text text-anchor="middle" x="621" y="-231.5" font-family="Helvetica,sans-Serif" font-size="10.00">Joukowsky.H</text>
</a>
</g>
</g>
<!-- Node1&#45;&gt;Node13 -->
<g id="edge15" class="edge">
<title>Node1&#45;&gt;Node13</title>
<path fill="none" stroke="midnightblue" d="M621,-269.8C621,-260.91 621,-250.78 621,-243.75"/>
<polygon fill="midnightblue" stroke="midnightblue" points="617.5,-270.08 621,-280.08 624.5,-270.08 617.5,-270.08"/>
</g>
<!-- Node16 -->
<g id="node16" class="node">
<title>Node16</title>
<g id="a_node16"><a xlink:href="disk__ops_8_h.html" target="_top" xlink:title=" ">
<polygon fill="white" stroke="black" points="678,-224.5 678,-243.5 748,-243.5 748,-224.5 678,-224.5"/>
<text text-anchor="middle" x="713" y="-231.5" font-family="Helvetica,sans-Serif" font-size="10.00">disk_ops.H</text>
</a>
</g>
</g>
<!-- Node1&#45;&gt;Node16 -->
<g id="edge20" class="edge">
<title>Node1&#45;&gt;Node16</title>
<path fill="none" stroke="midnightblue" d="M644.55,-275.18C661.48,-265.24 683.78,-252.15 698.26,-243.65"/>
<polygon fill="midnightblue" stroke="midnightblue" points="642.63,-272.24 635.78,-280.32 646.18,-278.28 642.63,-272.24"/>
</g>
<!-- Node3 -->
<g id="node3" class="node">
<title>Node3</title>
<g id="a_node3"><a xlink:href="disk__spreading_8_h.html" target="_top" xlink:title=" ">
<polygon fill="white" stroke="black" points="285.5,-168.5 285.5,-187.5 386.5,-187.5 386.5,-168.5 285.5,-168.5"/>
<text text-anchor="middle" x="336" y="-175.5" font-family="Helvetica,sans-Serif" font-size="10.00">disk_spreading.H</text>
</a>
</g>
</g>
<!-- Node2&#45;&gt;Node3 -->
<g id="edge2" class="edge">
<title>Node2&#45;&gt;Node3</title>
<path fill="none" stroke="midnightblue" d="M440.09,-220.64C414.76,-210.5 379.57,-196.43 357.29,-187.52"/>
<polygon fill="midnightblue" stroke="midnightblue" points="439.02,-223.98 449.61,-224.44 441.62,-217.48 439.02,-223.98"/>
</g>
<!-- Node7 -->
<g id="node7" class="node">
<title>Node7</title>
<g id="a_node7"><a xlink:href="_actuator_disk_8cpp.html" target="_top" xlink:title=" ">
<polygon fill="white" stroke="black" points="410,-0.5 410,-19.5 510,-19.5 510,-0.5 410,-0.5"/>
<text text-anchor="middle" x="460" y="-7.5" font-family="Helvetica,sans-Serif" font-size="10.00">ActuatorDisk.cpp</text>
</a>
</g>
</g>
<!-- Node2&#45;&gt;Node7 -->
<g id="edge11" class="edge">
<title>Node2&#45;&gt;Node7</title>
<path fill="none" stroke="midnightblue" d="M463.52,-214.77C460.58,-206.71 457.55,-197.03 456,-188 446.08,-130.17 450.11,-114.54 454,-56 454.85,-43.26 457.02,-28.62 458.51,-19.59"/>
<polygon fill="midnightblue" stroke="midnightblue" points="460.31,-216.18 467.19,-224.24 466.84,-213.65 460.31,-216.18"/>
</g>
<!-- Node11 -->
<g id="node11" class="node">
<title>Node11</title>
<g id="a_node11"><a xlink:href="uniform__ct__ops_8_h.html" target="_top" xlink:title=" ">
<polygon fill="white" stroke="black" points="465,-168.5 465,-187.5 567,-187.5 567,-168.5 465,-168.5"/>
<text text-anchor="middle" x="516" y="-175.5" font-family="Helvetica,sans-Serif" font-size="10.00">uniform_ct_ops.H</text>
</a>
</g>
</g>
<!-- Node2&#45;&gt;Node11 -->
<g id="edge12" class="edge">
<title>Node2&#45;&gt;Node11</title>
<path fill="none" stroke="midnightblue" d="M485.05,-216.14C492.89,-206.74 502.33,-195.4 508.71,-187.75"/>
<polygon fill="midnightblue" stroke="midnightblue" points="482.14,-214.16 478.43,-224.08 487.52,-218.64 482.14,-214.16"/>
</g>
<!-- Node4 -->
<g id="node4" class="node">
<title>Node4</title>
<g id="a_node4"><a xlink:href="_act_src_disk_op_8_h.html" target="_top" xlink:title=" ">
<polygon fill="white" stroke="black" points="248.5,-112.5 248.5,-131.5 341.5,-131.5 341.5,-112.5 248.5,-112.5"/>
<text text-anchor="middle" x="295" y="-119.5" font-family="Helvetica,sans-Serif" font-size="10.00">ActSrcDiskOp.H</text>
</a>
</g>
</g>
<!-- Node3&#45;&gt;Node4 -->
<g id="edge3" class="edge">
<title>Node3&#45;&gt;Node4</title>
<path fill="none" stroke="midnightblue" d="M322.98,-159.86C315.88,-150.5 307.4,-139.33 301.64,-131.75"/>
<polygon fill="midnightblue" stroke="midnightblue" points="320.39,-162.24 329.23,-168.08 325.97,-158 320.39,-162.24"/>
</g>
<!-- Node3&#45;&gt;Node7 -->
<g id="edge10" class="edge">
<title>Node3&#45;&gt;Node7</title>
<path fill="none" stroke="midnightblue" d="M342.82,-158.98C352.88,-133.99 373.52,-88.23 401,-56 413.87,-40.9 432.61,-27.69 445.5,-19.55"/>
<polygon fill="midnightblue" stroke="midnightblue" points="339.55,-157.74 339.17,-168.32 346.07,-160.29 339.55,-157.74"/>
</g>
<!-- Node5 -->
<g id="node5" class="node">
<title>Node5</title>
<g id="a_node5"><a xlink:href="_actuator_model_8_h.html" target="_top" xlink:title=" ">
<polygon fill="white" stroke="black" points="232,-56.5 232,-75.5 330,-75.5 330,-56.5 232,-56.5"/>
<text text-anchor="middle" x="281" y="-63.5" font-family="Helvetica,sans-Serif" font-size="10.00">ActuatorModel.H</text>
</a>
</g>
</g>
<!-- Node4&#45;&gt;Node5 -->
<g id="edge4" class="edge">
<title>Node4&#45;&gt;Node5</title>
<path fill="none" stroke="midnightblue" d="M290.18,-102.4C287.83,-93.36 285.13,-82.94 283.27,-75.75"/>
<polygon fill="midnightblue" stroke="midnightblue" points="286.79,-103.28 292.69,-112.08 293.57,-101.52 286.79,-103.28"/>
</g>
<!-- Node6 -->
<g id="node6" class="node">
<title>Node6</title>
<g id="a_node6"><a xlink:href="_actuator_8cpp.html" target="_top" xlink:title=" ">
<polygon fill="white" stroke="black" points="314.5,-0.5 314.5,-19.5 391.5,-19.5 391.5,-0.5 314.5,-0.5"/>
<text text-anchor="middle" x="353" y="-7.5" font-family="Helvetica,sans-Serif" font-size="10.00">Actuator.cpp</text>
</a>
</g>
</g>
<!-- Node5&#45;&gt;Node6 -->
<g id="edge5" class="edge">
<title>Node5&#45;&gt;Node6</title>
<path fill="none" stroke="midnightblue" d="M300.87,-50.1C313.82,-40.38 330.3,-28.03 341.22,-19.83"/>
<polygon fill="midnightblue" stroke="midnightblue" points="298.47,-47.52 292.57,-56.32 302.67,-53.12 298.47,-47.52"/>
</g>
<!-- Node5&#45;&gt;Node7 -->
<g id="edge6" class="edge">
<title>Node5&#45;&gt;Node7</title>
<path fill="none" stroke="midnightblue" d="M319.33,-53.44C353.08,-43.26 401.45,-28.66 431.77,-19.52"/>
<polygon fill="midnightblue" stroke="midnightblue" points="317.93,-50.2 309.36,-56.44 319.95,-56.91 317.93,-50.2"/>
</g>
<!-- Node8 -->
<g id="node8" class="node">
<title>Node8</title>
<g id="a_node8"><a xlink:href="_turbine_fast_8cpp.html" target="_top" xlink:title=" ">
<polygon fill="white" stroke="black" points="0,-0.5 0,-19.5 92,-19.5 92,-0.5 0,-0.5"/>
<text text-anchor="middle" x="46" y="-7.5" font-family="Helvetica,sans-Serif" font-size="10.00">TurbineFast.cpp</text>
</a>
</g>
</g>
<!-- Node5&#45;&gt;Node8 -->
<g id="edge7" class="edge">
<title>Node5&#45;&gt;Node8</title>
<path fill="none" stroke="midnightblue" d="M233.79,-54.15C189.39,-43.95 123.81,-28.88 83.06,-19.52"/>
<polygon fill="midnightblue" stroke="midnightblue" points="233.23,-57.62 243.76,-56.44 234.8,-50.79 233.23,-57.62"/>
</g>
<!-- Node9 -->
<g id="node9" class="node">
<title>Node9</title>
<g id="a_node9"><a xlink:href="_fixed_wing_8cpp.html" target="_top" xlink:title=" ">
<polygon fill="white" stroke="black" points="110.5,-0.5 110.5,-19.5 197.5,-19.5 197.5,-0.5 110.5,-0.5"/>
<text text-anchor="middle" x="154" y="-7.5" font-family="Helvetica,sans-Serif" font-size="10.00">FixedWing.cpp</text>
</a>
</g>
</g>
<!-- Node5&#45;&gt;Node9 -->
<g id="edge8" class="edge">
<title>Node5&#45;&gt;Node9</title>
<path fill="none" stroke="midnightblue" d="M251.61,-52.5C227.8,-42.38 194.89,-28.39 174.03,-19.52"/>
<polygon fill="midnightblue" stroke="midnightblue" points="250.3,-55.75 260.88,-56.44 253.04,-49.31 250.3,-55.75"/>
</g>
<!-- Node10 -->
<g id="node10" class="node">
<title>Node10</title>
<g id="a_node10"><a xlink:href="_flat_plate_8cpp.html" target="_top" xlink:title=" ">
<polygon fill="white" stroke="black" points="216,-0.5 216,-19.5 296,-19.5 296,-0.5 216,-0.5"/>
<text text-anchor="middle" x="256" y="-7.5" font-family="Helvetica,sans-Serif" font-size="10.00">FlatPlate.cpp</text>
</a>
</g>
</g>
<!-- Node5&#45;&gt;Node10 -->
<g id="edge9" class="edge">
<title>Node5&#45;&gt;Node10</title>
<path fill="none" stroke="midnightblue" d="M272.66,-46.98C268.42,-37.82 263.45,-27.09 260.05,-19.75"/>
<polygon fill="midnightblue" stroke="midnightblue" points="269.49,-48.48 276.87,-56.08 275.85,-45.54 269.49,-48.48"/>
</g>
<!-- Node11&#45;&gt;Node7 -->
<g id="edge13" class="edge">
<title>Node11&#45;&gt;Node7</title>
<path fill="none" stroke="midnightblue" d="M495.81,-161.73C486.96,-153.87 477.38,-143.52 472,-132 453.97,-93.36 456.92,-40.36 458.97,-19.72"/>
<polygon fill="midnightblue" stroke="midnightblue" points="493.67,-164.5 503.59,-168.21 498.15,-159.12 493.67,-164.5"/>
</g>
<!-- Node12 -->
<g id="node12" class="node">
<title>Node12</title>
<g id="a_node12"><a xlink:href="uniform__ct__ops_8cpp.html" target="_top" xlink:title=" ">
<polygon fill="white" stroke="black" points="481,-112.5 481,-131.5 593,-131.5 593,-112.5 481,-112.5"/>
<text text-anchor="middle" x="537" y="-119.5" font-family="Helvetica,sans-Serif" font-size="10.00">uniform_ct_ops.cpp</text>
</a>
</g>
</g>
<!-- Node11&#45;&gt;Node12 -->
<g id="edge14" class="edge">
<title>Node11&#45;&gt;Node12</title>
<path fill="none" stroke="midnightblue" d="M523.12,-158.69C526.66,-149.59 530.77,-139.01 533.6,-131.75"/>
<polygon fill="midnightblue" stroke="midnightblue" points="519.83,-157.49 519.47,-168.08 526.35,-160.03 519.83,-157.49"/>
</g>
<!-- Node13&#45;&gt;Node7 -->
<g id="edge16" class="edge">
<title>Node13&#45;&gt;Node7</title>
<path fill="none" stroke="midnightblue" d="M622.36,-214.28C623.29,-189.1 621.7,-143.83 602,-112 572.95,-65.05 513.15,-33.71 481.21,-19.59"/>
<polygon fill="midnightblue" stroke="midnightblue" points="618.87,-214.13 621.81,-224.31 625.85,-214.51 618.87,-214.13"/>
</g>
<!-- Node14 -->
<g id="node14" class="node">
<title>Node14</title>
<g id="a_node14"><a xlink:href="_joukowsky__ops_8_h.html" target="_top" xlink:title=" ">
<polygon fill="white" stroke="black" points="649.5,-168.5 649.5,-187.5 750.5,-187.5 750.5,-168.5 649.5,-168.5"/>
<text text-anchor="middle" x="700" y="-175.5" font-family="Helvetica,sans-Serif" font-size="10.00">Joukowsky_ops.H</text>
</a>
</g>
</g>
<!-- Node13&#45;&gt;Node14 -->
<g id="edge17" class="edge">
<title>Node13&#45;&gt;Node14</title>
<path fill="none" stroke="midnightblue" d="M642.03,-218.62C656.47,-208.76 675.14,-195.99 687.34,-187.65"/>
<polygon fill="midnightblue" stroke="midnightblue" points="639.97,-215.79 633.69,-224.32 643.92,-221.57 639.97,-215.79"/>
</g>
<!-- Node14&#45;&gt;Node7 -->
<g id="edge18" class="edge">
<title>Node14&#45;&gt;Node7</title>
<path fill="none" stroke="midnightblue" d="M695.18,-158.45C687.24,-131.68 668.83,-82.51 635,-56 599.32,-28.04 548.17,-17.3 510.37,-13.26"/>
<polygon fill="midnightblue" stroke="midnightblue" points="691.9,-159.73 697.95,-168.42 698.65,-157.85 691.9,-159.73"/>
</g>
<!-- Node15 -->
<g id="node15" class="node">
<title>Node15</title>
<g id="a_node15"><a xlink:href="_joukowsky__ops_8cpp.html" target="_top" xlink:title=" ">
<polygon fill="white" stroke="black" points="715,-112.5 715,-131.5 825,-131.5 825,-112.5 715,-112.5"/>
<text text-anchor="middle" x="770" y="-119.5" font-family="Helvetica,sans-Serif" font-size="10.00">Joukowsky_ops.cpp</text>
</a>
</g>
</g>
<!-- Node14&#45;&gt;Node15 -->
<g id="edge19" class="edge">
<title>Node14&#45;&gt;Node15</title>
<path fill="none" stroke="midnightblue" d="M719.31,-162.1C731.91,-152.38 747.93,-140.03 758.55,-131.83"/>
<polygon fill="midnightblue" stroke="midnightblue" points="717.03,-159.44 711.25,-168.32 721.3,-164.99 717.03,-159.44"/>
</g>
<!-- Node16&#45;&gt;Node11 -->
<g id="edge21" class="edge">
<title>Node16&#45;&gt;Node11</title>
<path fill="none" stroke="midnightblue" d="M671.77,-221.7C634.59,-211.51 580.73,-196.74 547.07,-187.52"/>
<polygon fill="midnightblue" stroke="midnightblue" points="671.22,-225.18 681.78,-224.44 673.07,-218.42 671.22,-225.18"/>
</g>
<!-- Node16&#45;&gt;Node14 -->
<g id="edge22" class="edge">
<title>Node16&#45;&gt;Node14</title>
<path fill="none" stroke="midnightblue" d="M708.45,-214.1C706.29,-205.14 703.82,-194.86 702.11,-187.75"/>
<polygon fill="midnightblue" stroke="midnightblue" points="705.11,-215.18 710.85,-224.08 711.92,-213.54 705.11,-215.18"/>
</g>
<!-- Node16&#45;&gt;Node15 -->
<g id="edge24" class="edge">
<title>Node16&#45;&gt;Node15</title>
<path fill="none" stroke="midnightblue" d="M733.99,-218.09C743.46,-210.23 753.87,-199.78 760,-188 769.59,-169.57 770.6,-144.49 770.38,-131.53"/>
<polygon fill="midnightblue" stroke="midnightblue" points="731.77,-215.38 726.04,-224.3 736.08,-220.9 731.77,-215.38"/>
</g>
<!-- Node17 -->
<g id="node17" class="node">
<title>Node17</title>
<g id="a_node17"><a xlink:href="disk__ops_8cpp.html" target="_top" xlink:title=" ">
<polygon fill="white" stroke="black" points="807,-168.5 807,-187.5 887,-187.5 887,-168.5 807,-168.5"/>
<text text-anchor="middle" x="847" y="-175.5" font-family="Helvetica,sans-Serif" font-size="10.00">disk_ops.cpp</text>
</a>
</g>
</g>
<!-- Node16&#45;&gt;Node17 -->
<g id="edge23" class="edge">
<title>Node16&#45;&gt;Node17</title>
<path fill="none" stroke="midnightblue" d="M743.68,-220.64C768.82,-210.5 803.75,-196.43 825.87,-187.52"/>
<polygon fill="midnightblue" stroke="midnightblue" points="742.2,-217.46 734.23,-224.44 744.82,-223.95 742.2,-217.46"/>
</g>
</g>
</svg>
