<?xml version="1.0" encoding="UTF-8" standalone="no"?>
<!DOCTYPE svg PUBLIC "-//W3C//DTD SVG 1.1//EN"
 "http://www.w3.org/Graphics/SVG/1.1/DTD/svg11.dtd">
<!-- Generated by graphviz version 2.43.0 (0)
 -->
<!-- Title: BCInterface.cpp Pages: 1 -->
<!--zoomable 330 -->
<svg id="main" version="1.1" xmlns="http://www.w3.org/2000/svg" xmlns:xlink="http://www.w3.org/1999/xlink" xml:space="preserve" onload="init(evt)">
<style type="text/css"><![CDATA[
.edge:hover path { stroke: red; }
.edge:hover polygon { stroke: red; fill: red; }
]]></style>
<script type="text/javascript"><![CDATA[
var edges = document.getElementsByTagName('g');
if (edges && edges.length) {
  for (var i=0;i<edges.length;i++) {
    if (edges[i].id.substr(0,4)=='edge') {
      edges[i].setAttribute('class','edge');
    }
  }
}
]]></script>
        <defs>
                <circle id="rim" cx="0" cy="0" r="7"/>
                <circle id="rim2" cx="0" cy="0" r="3.5"/>
                <g id="zoomPlus">
                        <use xlink:href="#rim" fill="#404040">
                                <set attributeName="fill" to="#808080" begin="zoomplus.mouseover" end="zoomplus.mouseout"/>
                        </use>
                        <path d="M-4,0h8M0,-4v8" fill="none" stroke="white" stroke-width="1.5" pointer-events="none"/>
                </g>
                <g id="zoomMin">
                        <use xlink:href="#rim" fill="#404040">
                                <set attributeName="fill" to="#808080" begin="zoomminus.mouseover" end="zoomminus.mouseout"/>
                        </use>
                        <path d="M-4,0h8" fill="none" stroke="white" stroke-width="1.5" pointer-events="none"/>
                </g>
                <g id="dirArrow">
                        <path fill="none" stroke="white" stroke-width="1.5" d="M0,-3.0v7 M-2.5,-0.5L0,-3.0L2.5,-0.5"/>
                </g>
               <g id="resetDef">
                       <use xlink:href="#rim2" fill="#404040">
                               <set attributeName="fill" to="#808080" begin="reset.mouseover" end="reset.mouseout"/>
                       </use>
               </g>
        </defs>

<script type="text/javascript">
var viewWidth = 1803;
var viewHeight = 330;
var sectionId = 'dynsection-0';
</script>
<script xlink:href="svgpan.js"/>
<svg id="graph" class="graph">
<g id="viewport">
<title>BCInterface.cpp</title>
<polygon fill="white" stroke="transparent" points="-4,4 -4,-326 1799.08,-326 1799.08,4 -4,4"/>
<!-- Node1 -->
<g id="node1" class="node">
<title>Node1</title>
<g id="a_node1"><a xlink:title=" ">
<polygon fill="#bfbfbf" stroke="black" points="937.58,-302.5 937.58,-321.5 1031.58,-321.5 1031.58,-302.5 937.58,-302.5"/>
<text text-anchor="middle" x="984.58" y="-309.5" font-family="Helvetica,sans-Serif" font-size="10.00">BCInterface.cpp</text>
</a>
</g>
</g>
<!-- Node2 -->
<g id="node2" class="node">
<title>Node2</title>
<g id="a_node2"><a xlink:href="_b_c_interface_8_h.html" target="_top" xlink:title=" ">
<polygon fill="white" stroke="black" points="1166.08,-168.5 1166.08,-198.5 1333.08,-198.5 1333.08,-168.5 1166.08,-168.5"/>
<text text-anchor="start" x="1174.08" y="-186.5" font-family="Helvetica,sans-Serif" font-size="10.00">amr&#45;wind/boundary_conditions</text>
<text text-anchor="middle" x="1249.58" y="-175.5" font-family="Helvetica,sans-Serif" font-size="10.00">/BCInterface.H</text>
</a>
</g>
</g>
<!-- Node1&#45;&gt;Node2 -->
<g id="edge1" class="edge">
<title>Node1&#45;&gt;Node2</title>
<path fill="none" stroke="midnightblue" d="M992.05,-302.49C1007.86,-284.65 1044.58,-244.23 1060.58,-235 1089.64,-218.24 1124.41,-206.89 1156.16,-199.28"/>
<polygon fill="midnightblue" stroke="midnightblue" points="1156.95,-202.69 1165.91,-197.03 1155.38,-195.87 1156.95,-202.69"/>
</g>
<!-- Node17 -->
<g id="node17" class="node">
<title>Node17</title>
<g id="a_node17"><a xlink:href="_field_repo_8_h.html" target="_top" xlink:title=" ">
<polygon fill="white" stroke="black" points="518.08,-174 518.08,-193 667.08,-193 667.08,-174 518.08,-174"/>
<text text-anchor="middle" x="592.58" y="-181" font-family="Helvetica,sans-Serif" font-size="10.00">amr&#45;wind/core/FieldRepo.H</text>
</a>
</g>
</g>
<!-- Node1&#45;&gt;Node17 -->
<g id="edge20" class="edge">
<title>Node1&#45;&gt;Node17</title>
<path fill="none" stroke="midnightblue" d="M956.06,-302.49C926.4,-293.59 878.64,-279.11 837.58,-266 762.39,-241.99 674.72,-212.45 627.32,-196.35"/>
<polygon fill="midnightblue" stroke="midnightblue" points="628.15,-192.93 617.55,-193.03 625.89,-199.56 628.15,-192.93"/>
</g>
<!-- Node25 -->
<g id="node25" class="node">
<title>Node25</title>
<g id="a_node25"><a xlink:href="_fixed_gradient_b_c_8_h.html" target="_top" xlink:title=" ">
<polygon fill="white" stroke="black" points="846.08,-235.5 846.08,-265.5 1013.08,-265.5 1013.08,-235.5 846.08,-235.5"/>
<text text-anchor="start" x="854.08" y="-253.5" font-family="Helvetica,sans-Serif" font-size="10.00">amr&#45;wind/boundary_conditions</text>
<text text-anchor="middle" x="929.58" y="-242.5" font-family="Helvetica,sans-Serif" font-size="10.00">/FixedGradientBC.H</text>
</a>
</g>
</g>
<!-- Node1&#45;&gt;Node25 -->
<g id="edge44" class="edge">
<title>Node1&#45;&gt;Node25</title>
<path fill="none" stroke="midnightblue" d="M976.7,-302.48C969.6,-294.79 958.85,-283.17 949.42,-272.96"/>
<polygon fill="midnightblue" stroke="midnightblue" points="951.9,-270.49 942.54,-265.52 946.76,-275.24 951.9,-270.49"/>
</g>
<!-- Node30 -->
<g id="node30" class="node">
<title>Node30</title>
<g id="a_node30"><a xlink:title=" ">
<polygon fill="white" stroke="#bfbfbf" points="1069.08,-241 1069.08,-260 1188.08,-260 1188.08,-241 1069.08,-241"/>
<text text-anchor="middle" x="1128.58" y="-248" font-family="Helvetica,sans-Serif" font-size="10.00">AMReX_ParmParse.H</text>
</a>
</g>
</g>
<!-- Node1&#45;&gt;Node30 -->
<g id="edge54" class="edge">
<title>Node1&#45;&gt;Node30</title>
<path fill="none" stroke="midnightblue" d="M1005.21,-302.48C1029.7,-292.36 1070.72,-275.4 1098.69,-263.85"/>
<polygon fill="midnightblue" stroke="midnightblue" points="1100.08,-267.06 1107.98,-260.01 1097.41,-260.59 1100.08,-267.06"/>
</g>
<!-- Node3 -->
<g id="node3" class="node">
<title>Node3</title>
<g id="a_node3"><a xlink:href="_field_8_h.html" target="_top" xlink:title=" ">
<polygon fill="white" stroke="black" points="1183.58,-112.5 1183.58,-131.5 1307.58,-131.5 1307.58,-112.5 1183.58,-112.5"/>
<text text-anchor="middle" x="1245.58" y="-119.5" font-family="Helvetica,sans-Serif" font-size="10.00">amr&#45;wind/core/Field.H</text>
</a>
</g>
</g>
<!-- Node2&#45;&gt;Node3 -->
<g id="edge2" class="edge">
<title>Node2&#45;&gt;Node3</title>
<path fill="none" stroke="midnightblue" d="M1248.63,-168.4C1248.1,-160.47 1247.42,-150.46 1246.85,-141.86"/>
<polygon fill="midnightblue" stroke="midnightblue" points="1250.32,-141.4 1246.16,-131.66 1243.34,-141.87 1250.32,-141.4"/>
</g>
<!-- Node11 -->
<g id="node11" class="node">
<title>Node11</title>
<g id="a_node11"><a xlink:href="incflo__enums_8_h.html" target="_top" xlink:title=" ">
<polygon fill="white" stroke="black" points="1654.08,-56.5 1654.08,-75.5 1795.08,-75.5 1795.08,-56.5 1654.08,-56.5"/>
<text text-anchor="middle" x="1724.58" y="-63.5" font-family="Helvetica,sans-Serif" font-size="10.00">amr&#45;wind/incflo_enums.H</text>
</a>
</g>
</g>
<!-- Node2&#45;&gt;Node11 -->
<g id="edge17" class="edge">
<title>Node2&#45;&gt;Node11</title>
<path fill="none" stroke="midnightblue" d="M1277.66,-168.36C1317.58,-148.31 1386.59,-113.83 1392.58,-112 1416.1,-104.82 1553.5,-87.48 1644.01,-76.54"/>
<polygon fill="midnightblue" stroke="midnightblue" points="1644.47,-80.01 1653.98,-75.34 1643.63,-73.06 1644.47,-80.01"/>
</g>
<!-- Node15 -->
<g id="node15" class="node">
<title>Node15</title>
<g id="a_node15"><a xlink:title=" ">
<polygon fill="white" stroke="#bfbfbf" points="1401.58,-112.5 1401.58,-131.5 1517.58,-131.5 1517.58,-112.5 1401.58,-112.5"/>
<text text-anchor="middle" x="1459.58" y="-119.5" font-family="Helvetica,sans-Serif" font-size="10.00">AMReX_BC_TYPES.H</text>
</a>
</g>
</g>
<!-- Node2&#45;&gt;Node15 -->
<g id="edge18" class="edge">
<title>Node2&#45;&gt;Node15</title>
<path fill="none" stroke="midnightblue" d="M1299.08,-168.47C1335.94,-158.03 1385.61,-143.96 1419.88,-134.25"/>
<polygon fill="midnightblue" stroke="midnightblue" points="1420.89,-137.6 1429.55,-131.51 1418.98,-130.87 1420.89,-137.6"/>
</g>
<!-- Node16 -->
<g id="node16" class="node">
<title>Node16</title>
<g id="a_node16"><a xlink:title=" ">
<polygon fill="white" stroke="#bfbfbf" points="742.08,-56.5 742.08,-75.5 787.08,-75.5 787.08,-56.5 742.08,-56.5"/>
<text text-anchor="middle" x="764.58" y="-63.5" font-family="Helvetica,sans-Serif" font-size="10.00">utility</text>
</a>
</g>
</g>
<!-- Node2&#45;&gt;Node16 -->
<g id="edge19" class="edge">
<title>Node2&#45;&gt;Node16</title>
<path fill="none" stroke="midnightblue" d="M1229.46,-168.41C1202.53,-149.82 1155.92,-118.68 1136.58,-112 995.03,-63.13 949.09,-101.75 801.58,-76 800.11,-75.74 798.62,-75.46 797.11,-75.17"/>
<polygon fill="midnightblue" stroke="midnightblue" points="797.69,-71.71 787.18,-73 796.2,-78.55 797.69,-71.71"/>
</g>
<!-- Node4 -->
<g id="node4" class="node">
<title>Node4</title>
<g id="a_node4"><a xlink:title=" ">
<polygon fill="white" stroke="#bfbfbf" points="653.58,-0.5 653.58,-19.5 697.58,-19.5 697.58,-0.5 653.58,-0.5"/>
<text text-anchor="middle" x="675.58" y="-7.5" font-family="Helvetica,sans-Serif" font-size="10.00">string</text>
</a>
</g>
</g>
<!-- Node3&#45;&gt;Node4 -->
<g id="edge3" class="edge">
<title>Node3&#45;&gt;Node4</title>
<path fill="none" stroke="midnightblue" d="M1240.98,-112.38C1232.69,-97.83 1213.75,-68.76 1188.58,-56 1145.74,-34.28 813.41,-17.32 707.73,-12.43"/>
<polygon fill="midnightblue" stroke="midnightblue" points="707.81,-8.93 697.66,-11.97 707.49,-15.92 707.81,-8.93"/>
</g>
<!-- Node5 -->
<g id="node5" class="node">
<title>Node5</title>
<g id="a_node5"><a xlink:title=" ">
<polygon fill="white" stroke="#bfbfbf" points="1273.58,-56.5 1273.58,-75.5 1331.58,-75.5 1331.58,-56.5 1273.58,-56.5"/>
<text text-anchor="middle" x="1302.58" y="-63.5" font-family="Helvetica,sans-Serif" font-size="10.00">memory</text>
</a>
</g>
</g>
<!-- Node3&#45;&gt;Node5 -->
<g id="edge4" class="edge">
<title>Node3&#45;&gt;Node5</title>
<path fill="none" stroke="midnightblue" d="M1254.74,-112.32C1263.08,-104.42 1275.61,-92.55 1285.75,-82.94"/>
<polygon fill="midnightblue" stroke="midnightblue" points="1288.4,-85.25 1293.25,-75.83 1283.59,-80.17 1288.4,-85.25"/>
</g>
<!-- Node6 -->
<g id="node6" class="node">
<title>Node6</title>
<g id="a_node6"><a xlink:title=" ">
<polygon fill="white" stroke="#bfbfbf" points="1086.08,-56.5 1086.08,-75.5 1179.08,-75.5 1179.08,-56.5 1086.08,-56.5"/>
<text text-anchor="middle" x="1132.58" y="-63.5" font-family="Helvetica,sans-Serif" font-size="10.00">unordered_map</text>
</a>
</g>
</g>
<!-- Node3&#45;&gt;Node6 -->
<g id="edge5" class="edge">
<title>Node3&#45;&gt;Node6</title>
<path fill="none" stroke="midnightblue" d="M1227.67,-112.44C1209.32,-103.68 1180.57,-89.94 1159.48,-79.86"/>
<polygon fill="midnightblue" stroke="midnightblue" points="1160.93,-76.67 1150.4,-75.52 1157.91,-82.99 1160.93,-76.67"/>
</g>
<!-- Node7 -->
<g id="node7" class="node">
<title>Node7</title>
<g id="a_node7"><a xlink:title=" ">
<polygon fill="white" stroke="#bfbfbf" points="1349.58,-56.5 1349.58,-75.5 1413.58,-75.5 1413.58,-56.5 1349.58,-56.5"/>
<text text-anchor="middle" x="1381.58" y="-63.5" font-family="Helvetica,sans-Serif" font-size="10.00">algorithm</text>
</a>
</g>
</g>
<!-- Node3&#45;&gt;Node7 -->
<g id="edge6" class="edge">
<title>Node3&#45;&gt;Node7</title>
<path fill="none" stroke="midnightblue" d="M1267.13,-112.44C1289.61,-103.52 1325.06,-89.44 1350.56,-79.32"/>
<polygon fill="midnightblue" stroke="midnightblue" points="1352.13,-82.46 1360.13,-75.52 1349.54,-75.95 1352.13,-82.46"/>
</g>
<!-- Node8 -->
<g id="node8" class="node">
<title>Node8</title>
<g id="a_node8"><a xlink:title=" ">
<polygon fill="white" stroke="#bfbfbf" points="863.08,-0.5 863.08,-19.5 972.08,-19.5 972.08,-0.5 863.08,-0.5"/>
<text text-anchor="middle" x="917.58" y="-7.5" font-family="Helvetica,sans-Serif" font-size="10.00">AMReX_MultiFab.H</text>
</a>
</g>
</g>
<!-- Node3&#45;&gt;Node8 -->
<g id="edge7" class="edge">
<title>Node3&#45;&gt;Node8</title>
<path fill="none" stroke="midnightblue" d="M1245.07,-112.24C1243.75,-98.03 1238.95,-70.1 1221.58,-56 1216.95,-52.24 1070.3,-31.76 982.41,-19.76"/>
<polygon fill="midnightblue" stroke="midnightblue" points="982.64,-16.26 972.26,-18.38 981.69,-23.19 982.64,-16.26"/>
</g>
<!-- Node9 -->
<g id="node9" class="node">
<title>Node9</title>
<g id="a_node9"><a xlink:title=" ">
<polygon fill="white" stroke="#bfbfbf" points="1432.08,-56.5 1432.08,-75.5 1531.08,-75.5 1531.08,-56.5 1432.08,-56.5"/>
<text text-anchor="middle" x="1481.58" y="-63.5" font-family="Helvetica,sans-Serif" font-size="10.00">AMReX_BCRec.H</text>
</a>
</g>
</g>
<!-- Node3&#45;&gt;Node9 -->
<g id="edge8" class="edge">
<title>Node3&#45;&gt;Node9</title>
<path fill="none" stroke="midnightblue" d="M1282.97,-112.44C1323.97,-103.06 1389.83,-87.99 1434.36,-77.8"/>
<polygon fill="midnightblue" stroke="midnightblue" points="1435.39,-81.16 1444.36,-75.52 1433.83,-74.34 1435.39,-81.16"/>
</g>
<!-- Node10 -->
<g id="node10" class="node">
<title>Node10</title>
<g id="a_node10"><a xlink:title=" ">
<polygon fill="white" stroke="#bfbfbf" points="1549.08,-56.5 1549.08,-75.5 1636.08,-75.5 1636.08,-56.5 1549.08,-56.5"/>
<text text-anchor="middle" x="1592.58" y="-63.5" font-family="Helvetica,sans-Serif" font-size="10.00">AMReX_Gpu.H</text>
</a>
</g>
</g>
<!-- Node3&#45;&gt;Node10 -->
<g id="edge9" class="edge">
<title>Node3&#45;&gt;Node10</title>
<path fill="none" stroke="midnightblue" d="M1303.84,-112.46C1361.18,-103.98 1451.5,-90.41 1538.81,-76.26"/>
<polygon fill="midnightblue" stroke="midnightblue" points="1539.59,-79.68 1548.9,-74.63 1538.46,-72.78 1539.59,-79.68"/>
</g>
<!-- Node3&#45;&gt;Node11 -->
<g id="edge10" class="edge">
<title>Node3&#45;&gt;Node11</title>
<path fill="none" stroke="midnightblue" d="M1307.59,-114.05C1384.15,-105.47 1518.64,-90.36 1643.8,-76.2"/>
<polygon fill="midnightblue" stroke="midnightblue" points="1644.4,-79.65 1653.94,-75.05 1643.61,-72.7 1644.4,-79.65"/>
</g>
<!-- Node12 -->
<g id="node12" class="node">
<title>Node12</title>
<g id="a_node12"><a xlink:href="_field_desc_types_8_h.html" target="_top" xlink:title=" ">
<polygon fill="white" stroke="black" points="304.58,-0.5 304.58,-19.5 480.58,-19.5 480.58,-0.5 304.58,-0.5"/>
<text text-anchor="middle" x="392.58" y="-7.5" font-family="Helvetica,sans-Serif" font-size="10.00">amr&#45;wind/core/FieldDescTypes.H</text>
</a>
</g>
</g>
<!-- Node3&#45;&gt;Node12 -->
<g id="edge11" class="edge">
<title>Node3&#45;&gt;Node12</title>
<path fill="none" stroke="midnightblue" d="M1183.39,-113.68C1178.38,-113.11 1173.39,-112.54 1168.58,-112 1020.21,-95.33 977.39,-119.54 834.58,-76 816.32,-70.43 814.82,-61.6 796.58,-56 695.38,-24.95 574.08,-14.84 490.97,-11.79"/>
<polygon fill="midnightblue" stroke="midnightblue" points="490.89,-8.28 480.77,-11.44 490.65,-15.28 490.89,-8.28"/>
</g>
<!-- Node13 -->
<g id="node13" class="node">
<title>Node13</title>
<g id="a_node13"><a xlink:href="_view_field_8_h.html" target="_top" xlink:title=" ">
<polygon fill="white" stroke="black" points="843.58,-56.5 843.58,-75.5 991.58,-75.5 991.58,-56.5 843.58,-56.5"/>
<text text-anchor="middle" x="917.58" y="-63.5" font-family="Helvetica,sans-Serif" font-size="10.00">amr&#45;wind/core/ViewField.H</text>
</a>
</g>
</g>
<!-- Node3&#45;&gt;Node13 -->
<g id="edge12" class="edge">
<title>Node3&#45;&gt;Node13</title>
<path fill="none" stroke="midnightblue" d="M1193.6,-112.44C1135.43,-102.87 1041.22,-87.36 979.33,-77.17"/>
<polygon fill="midnightblue" stroke="midnightblue" points="979.74,-73.69 969.31,-75.52 978.61,-80.59 979.74,-73.69"/>
</g>
<!-- Node13&#45;&gt;Node4 -->
<g id="edge13" class="edge">
<title>Node13&#45;&gt;Node4</title>
<path fill="none" stroke="midnightblue" d="M879.23,-56.44C831.85,-45.87 752.08,-28.07 707.75,-18.18"/>
<polygon fill="midnightblue" stroke="midnightblue" points="708.32,-14.72 697.8,-15.96 706.8,-21.55 708.32,-14.72"/>
</g>
<!-- Node13&#45;&gt;Node8 -->
<g id="edge15" class="edge">
<title>Node13&#45;&gt;Node8</title>
<path fill="none" stroke="midnightblue" d="M917.58,-56.08C917.58,-49.01 917.58,-38.86 917.58,-29.99"/>
<polygon fill="midnightblue" stroke="midnightblue" points="921.08,-29.75 917.58,-19.75 914.08,-29.75 921.08,-29.75"/>
</g>
<!-- Node13&#45;&gt;Node12 -->
<g id="edge14" class="edge">
<title>Node13&#45;&gt;Node12</title>
<path fill="none" stroke="midnightblue" d="M843.47,-57.38C749.51,-47.71 587.48,-31.05 485.39,-20.55"/>
<polygon fill="midnightblue" stroke="midnightblue" points="485.7,-17.06 475.39,-19.52 484.98,-24.02 485.7,-17.06"/>
</g>
<!-- Node14 -->
<g id="node14" class="node">
<title>Node14</title>
<g id="a_node14"><a xlink:title=" ">
<polygon fill="white" stroke="#bfbfbf" points="999.58,-0.5 999.58,-19.5 1097.58,-19.5 1097.58,-0.5 999.58,-0.5"/>
<text text-anchor="middle" x="1048.58" y="-7.5" font-family="Helvetica,sans-Serif" font-size="10.00">AMReX_Vector.H</text>
</a>
</g>
</g>
<!-- Node13&#45;&gt;Node14 -->
<g id="edge16" class="edge">
<title>Node13&#45;&gt;Node14</title>
<path fill="none" stroke="midnightblue" d="M938.33,-56.44C959.89,-47.56 993.84,-33.56 1018.37,-23.45"/>
<polygon fill="midnightblue" stroke="midnightblue" points="1020.01,-26.56 1027.92,-19.52 1017.34,-20.09 1020.01,-26.56"/>
</g>
<!-- Node17&#45;&gt;Node3 -->
<g id="edge28" class="edge">
<title>Node17&#45;&gt;Node3</title>
<path fill="none" stroke="midnightblue" d="M667.17,-175.7C793.62,-164.18 1048.48,-140.96 1173.33,-129.58"/>
<polygon fill="midnightblue" stroke="midnightblue" points="1173.9,-133.05 1183.54,-128.65 1173.27,-126.07 1173.9,-133.05"/>
</g>
<!-- Node17&#45;&gt;Node4 -->
<g id="edge21" class="edge">
<title>Node17&#45;&gt;Node4</title>
<path fill="none" stroke="midnightblue" d="M578.95,-173.96C547.49,-153.19 474.88,-98.61 507.58,-56 524,-34.6 599.34,-21.15 643.35,-14.98"/>
<polygon fill="midnightblue" stroke="midnightblue" points="643.84,-18.44 653.28,-13.63 642.91,-11.51 643.84,-18.44"/>
</g>
<!-- Node17&#45;&gt;Node6 -->
<g id="edge22" class="edge">
<title>Node17&#45;&gt;Node6</title>
<path fill="none" stroke="midnightblue" d="M647.36,-173.96C694.94,-165.75 765.31,-151.67 824.58,-132 844.96,-125.23 848.04,-118.3 868.58,-112 938.31,-90.6 1021.73,-78.53 1075.86,-72.39"/>
<polygon fill="midnightblue" stroke="midnightblue" points="1076.4,-75.85 1085.95,-71.28 1075.63,-68.89 1076.4,-75.85"/>
</g>
<!-- Node17&#45;&gt;Node8 -->
<g id="edge42" class="edge">
<title>Node17&#45;&gt;Node8</title>
<path fill="none" stroke="midnightblue" d="M635.96,-173.98C675.64,-165.54 735.59,-151.1 785.58,-132 803.77,-125.05 806.2,-118.46 824.58,-112 899.91,-85.54 950.09,-137.86 1000.58,-76 1018.54,-53.99 984.21,-34.78 954.4,-23.06"/>
<polygon fill="midnightblue" stroke="midnightblue" points="955.54,-19.75 944.95,-19.52 953.09,-26.31 955.54,-19.75"/>
</g>
<!-- Node17&#45;&gt;Node12 -->
<g id="edge23" class="edge">
<title>Node17&#45;&gt;Node12</title>
<path fill="none" stroke="midnightblue" d="M518.08,-181.55C368.36,-178.88 42.37,-168.84 8.58,-132 -6.54,-115.52 -0.24,-76.15 22.58,-56 32.74,-47.03 188.17,-30.52 294.31,-20.18"/>
<polygon fill="midnightblue" stroke="midnightblue" points="294.81,-23.65 304.42,-19.2 294.13,-16.68 294.81,-23.65"/>
</g>
<!-- Node18 -->
<g id="node18" class="node">
<title>Node18</title>
<g id="a_node18"><a xlink:href="_field_utils_8_h.html" target="_top" xlink:title=" ">
<polygon fill="white" stroke="black" points="199.58,-56.5 199.58,-75.5 345.58,-75.5 345.58,-56.5 199.58,-56.5"/>
<text text-anchor="middle" x="272.58" y="-63.5" font-family="Helvetica,sans-Serif" font-size="10.00">amr&#45;wind/core/FieldUtils.H</text>
</a>
</g>
</g>
<!-- Node17&#45;&gt;Node18 -->
<g id="edge24" class="edge">
<title>Node17&#45;&gt;Node18</title>
<path fill="none" stroke="midnightblue" d="M529.91,-173.95C485.12,-166.44 424.09,-153.31 373.58,-132 342.59,-118.93 310.55,-96.52 291.09,-81.74"/>
<polygon fill="midnightblue" stroke="midnightblue" points="293.14,-78.89 283.09,-75.54 288.85,-84.43 293.14,-78.89"/>
</g>
<!-- Node20 -->
<g id="node20" class="node">
<title>Node20</title>
<g id="a_node20"><a xlink:href="_int_field_8_h.html" target="_top" xlink:title=" ">
<polygon fill="white" stroke="black" points="184.08,-112.5 184.08,-131.5 321.08,-131.5 321.08,-112.5 184.08,-112.5"/>
<text text-anchor="middle" x="252.58" y="-119.5" font-family="Helvetica,sans-Serif" font-size="10.00">amr&#45;wind/core/IntField.H</text>
</a>
</g>
</g>
<!-- Node17&#45;&gt;Node20 -->
<g id="edge29" class="edge">
<title>Node17&#45;&gt;Node20</title>
<path fill="none" stroke="midnightblue" d="M543.86,-173.98C482.51,-163.24 377.18,-144.81 311.41,-133.29"/>
<polygon fill="midnightblue" stroke="midnightblue" points="311.65,-129.79 301.2,-131.51 310.45,-136.68 311.65,-129.79"/>
</g>
<!-- Node21 -->
<g id="node21" class="node">
<title>Node21</title>
<g id="a_node21"><a xlink:title=" ">
<polygon fill="white" stroke="#bfbfbf" points="31.58,-56.5 31.58,-75.5 143.58,-75.5 143.58,-56.5 31.58,-56.5"/>
<text text-anchor="middle" x="87.58" y="-63.5" font-family="Helvetica,sans-Serif" font-size="10.00">AMReX_iMultiFab.H</text>
</a>
</g>
</g>
<!-- Node17&#45;&gt;Node21 -->
<g id="edge43" class="edge">
<title>Node17&#45;&gt;Node21</title>
<path fill="none" stroke="midnightblue" d="M517.69,-178.03C414.93,-171.11 236.06,-156.04 175.58,-132 147.32,-120.77 119.99,-98.16 103.48,-82.8"/>
<polygon fill="midnightblue" stroke="midnightblue" points="105.53,-79.92 95.88,-75.53 100.68,-84.97 105.53,-79.92"/>
</g>
<!-- Node22 -->
<g id="node22" class="node">
<title>Node22</title>
<g id="a_node22"><a xlink:href="_scratch_field_8_h.html" target="_top" xlink:title=" ">
<polygon fill="white" stroke="black" points="616.58,-112.5 616.58,-131.5 776.58,-131.5 776.58,-112.5 616.58,-112.5"/>
<text text-anchor="middle" x="696.58" y="-119.5" font-family="Helvetica,sans-Serif" font-size="10.00">amr&#45;wind/core/ScratchField.H</text>
</a>
</g>
</g>
<!-- Node17&#45;&gt;Node22 -->
<g id="edge33" class="edge">
<title>Node17&#45;&gt;Node22</title>
<path fill="none" stroke="midnightblue" d="M607.48,-173.98C624.55,-164.21 652.74,-148.08 672.84,-136.58"/>
<polygon fill="midnightblue" stroke="midnightblue" points="674.76,-139.51 681.7,-131.51 671.29,-133.44 674.76,-139.51"/>
</g>
<!-- Node24 -->
<g id="node24" class="node">
<title>Node24</title>
<g id="a_node24"><a xlink:title=" ">
<polygon fill="white" stroke="#bfbfbf" points="17.58,-112.5 17.58,-131.5 127.58,-131.5 127.58,-112.5 17.58,-112.5"/>
<text text-anchor="middle" x="72.58" y="-119.5" font-family="Helvetica,sans-Serif" font-size="10.00">AMReX_AmrCore.H</text>
</a>
</g>
</g>
<!-- Node17&#45;&gt;Node24 -->
<g id="edge41" class="edge">
<title>Node17&#45;&gt;Node24</title>
<path fill="none" stroke="midnightblue" d="M517.91,-174.56C428.43,-164.95 273.96,-148.04 141.58,-132 140.47,-131.87 139.35,-131.73 138.22,-131.59"/>
<polygon fill="midnightblue" stroke="midnightblue" points="138.28,-128.07 127.93,-130.31 137.42,-135.02 138.28,-128.07"/>
</g>
<!-- Node18&#45;&gt;Node8 -->
<g id="edge26" class="edge">
<title>Node18&#45;&gt;Node8</title>
<path fill="none" stroke="midnightblue" d="M345.63,-58.88C472.54,-48.26 731.73,-26.56 852.7,-16.43"/>
<polygon fill="midnightblue" stroke="midnightblue" points="853.24,-19.9 862.92,-15.58 852.66,-12.92 853.24,-19.9"/>
</g>
<!-- Node18&#45;&gt;Node12 -->
<g id="edge25" class="edge">
<title>Node18&#45;&gt;Node12</title>
<path fill="none" stroke="midnightblue" d="M291.59,-56.44C311.16,-47.64 341.88,-33.81 364.31,-23.72"/>
<polygon fill="midnightblue" stroke="midnightblue" points="365.97,-26.81 373.65,-19.52 363.1,-20.43 365.97,-26.81"/>
</g>
<!-- Node19 -->
<g id="node19" class="node">
<title>Node19</title>
<g id="a_node19"><a xlink:title=" ">
<polygon fill="white" stroke="#bfbfbf" points="162.58,-0.5 162.58,-19.5 286.58,-19.5 286.58,-0.5 162.58,-0.5"/>
<text text-anchor="middle" x="224.58" y="-7.5" font-family="Helvetica,sans-Serif" font-size="10.00">AMReX_Interpolater.H</text>
</a>
</g>
</g>
<!-- Node18&#45;&gt;Node19 -->
<g id="edge27" class="edge">
<title>Node18&#45;&gt;Node19</title>
<path fill="none" stroke="midnightblue" d="M264.65,-56.08C257.73,-48.3 247.51,-36.8 239.13,-27.37"/>
<polygon fill="midnightblue" stroke="midnightblue" points="241.62,-24.9 232.36,-19.75 236.38,-29.55 241.62,-24.9"/>
</g>
<!-- Node20&#45;&gt;Node4 -->
<g id="edge30" class="edge">
<title>Node20&#45;&gt;Node4</title>
<path fill="none" stroke="midnightblue" d="M279.63,-112.41C321.13,-99.37 403.1,-74.19 473.58,-56 533.14,-40.63 603.38,-25.69 643.37,-17.48"/>
<polygon fill="midnightblue" stroke="midnightblue" points="644.24,-20.88 653.34,-15.45 642.84,-14.02 644.24,-20.88"/>
</g>
<!-- Node20&#45;&gt;Node12 -->
<g id="edge31" class="edge">
<title>Node20&#45;&gt;Node12</title>
<path fill="none" stroke="midnightblue" d="M233.58,-112.4C209.56,-100.36 173.31,-77.54 190.58,-56 204.29,-38.9 250.82,-27.87 295.77,-21.02"/>
<polygon fill="midnightblue" stroke="midnightblue" points="296.54,-24.45 305.93,-19.54 295.53,-17.52 296.54,-24.45"/>
</g>
<!-- Node20&#45;&gt;Node21 -->
<g id="edge32" class="edge">
<title>Node20&#45;&gt;Node21</title>
<path fill="none" stroke="midnightblue" d="M226.43,-112.44C198.55,-103.32 154.23,-88.81 123.18,-78.65"/>
<polygon fill="midnightblue" stroke="midnightblue" points="124.19,-75.3 113.6,-75.52 122.02,-81.95 124.19,-75.3"/>
</g>
<!-- Node22&#45;&gt;Node4 -->
<g id="edge34" class="edge">
<title>Node22&#45;&gt;Node4</title>
<path fill="none" stroke="midnightblue" d="M694.93,-112.37C691.54,-94.62 683.72,-53.67 679.13,-29.6"/>
<polygon fill="midnightblue" stroke="midnightblue" points="682.53,-28.76 677.22,-19.59 675.65,-30.07 682.53,-28.76"/>
</g>
<!-- Node22&#45;&gt;Node8 -->
<g id="edge38" class="edge">
<title>Node22&#45;&gt;Node8</title>
<path fill="none" stroke="midnightblue" d="M699.04,-112.34C703.5,-98.27 714.3,-70.55 733.58,-56 767.79,-30.17 814.87,-18.98 852.84,-14.22"/>
<polygon fill="midnightblue" stroke="midnightblue" points="853.24,-17.69 862.78,-13.09 852.45,-10.74 853.24,-17.69"/>
</g>
<!-- Node22&#45;&gt;Node12 -->
<g id="edge36" class="edge">
<title>Node22&#45;&gt;Node12</title>
<path fill="none" stroke="midnightblue" d="M643.22,-112.44C604.69,-105.27 551.85,-93.38 507.58,-76 472.87,-62.37 435.86,-39.83 413.47,-25.2"/>
<polygon fill="midnightblue" stroke="midnightblue" points="415.36,-22.26 405.09,-19.65 411.49,-28.09 415.36,-22.26"/>
</g>
<!-- Node22&#45;&gt;Node13 -->
<g id="edge37" class="edge">
<title>Node22&#45;&gt;Node13</title>
<path fill="none" stroke="midnightblue" d="M731.6,-112.44C769.83,-103.1 831.14,-88.12 872.83,-77.93"/>
<polygon fill="midnightblue" stroke="midnightblue" points="873.84,-81.29 882.72,-75.52 872.18,-74.49 873.84,-81.29"/>
</g>
<!-- Node22&#45;&gt;Node14 -->
<g id="edge39" class="edge">
<title>Node22&#45;&gt;Node14</title>
<path fill="none" stroke="midnightblue" d="M776.61,-116.09C853.7,-110.13 963.87,-98.04 1000.58,-76 1018.75,-65.09 1032.2,-44.4 1040.16,-29.29"/>
<polygon fill="midnightblue" stroke="midnightblue" points="1043.51,-30.43 1044.79,-19.91 1037.23,-27.33 1043.51,-30.43"/>
</g>
<!-- Node22&#45;&gt;Node16 -->
<g id="edge35" class="edge">
<title>Node22&#45;&gt;Node16</title>
<path fill="none" stroke="midnightblue" d="M707.5,-112.32C717.75,-104.18 733.3,-91.84 745.58,-82.09"/>
<polygon fill="midnightblue" stroke="midnightblue" points="747.8,-84.79 753.45,-75.83 743.45,-79.31 747.8,-84.79"/>
</g>
<!-- Node23 -->
<g id="node23" class="node">
<title>Node23</title>
<g id="a_node23"><a xlink:title=" ">
<polygon fill="white" stroke="#bfbfbf" points="516.08,-56.5 516.08,-75.5 647.08,-75.5 647.08,-56.5 516.08,-56.5"/>
<text text-anchor="middle" x="581.58" y="-63.5" font-family="Helvetica,sans-Serif" font-size="10.00">AMReX_PhysBCFunct.H</text>
</a>
</g>
</g>
<!-- Node22&#45;&gt;Node23 -->
<g id="edge40" class="edge">
<title>Node22&#45;&gt;Node23</title>
<path fill="none" stroke="midnightblue" d="M678.36,-112.44C659.68,-103.68 630.42,-89.94 608.96,-79.86"/>
<polygon fill="midnightblue" stroke="midnightblue" points="610.25,-76.6 599.71,-75.52 607.28,-82.93 610.25,-76.6"/>
</g>
<!-- Node25&#45;&gt;Node17 -->
<g id="edge52" class="edge">
<title>Node25&#45;&gt;Node17</title>
<path fill="none" stroke="midnightblue" d="M856.87,-235.48C793.71,-223.29 703.67,-205.93 646.69,-194.94"/>
<polygon fill="midnightblue" stroke="midnightblue" points="647.28,-191.49 636.8,-193.03 645.95,-198.36 647.28,-191.49"/>
</g>
<!-- Node26 -->
<g id="node26" class="node">
<title>Node26</title>
<g id="a_node26"><a xlink:href="_field_b_c_ops_8_h.html" target="_top" xlink:title=" ">
<polygon fill="white" stroke="black" points="851.58,-174 851.58,-193 1007.58,-193 1007.58,-174 851.58,-174"/>
<text text-anchor="middle" x="929.58" y="-181" font-family="Helvetica,sans-Serif" font-size="10.00">amr&#45;wind/core/FieldBCOps.H</text>
</a>
</g>
</g>
<!-- Node25&#45;&gt;Node26 -->
<g id="edge45" class="edge">
<title>Node25&#45;&gt;Node26</title>
<path fill="none" stroke="midnightblue" d="M929.58,-235.4C929.58,-226.06 929.58,-213.71 929.58,-203.52"/>
<polygon fill="midnightblue" stroke="midnightblue" points="933.08,-203.19 929.58,-193.19 926.08,-203.19 933.08,-203.19"/>
</g>
<!-- Node29 -->
<g id="node29" class="node">
<title>Node29</title>
<g id="a_node29"><a xlink:title=" ">
<polygon fill="white" stroke="#bfbfbf" points="1025.58,-174 1025.58,-193 1147.58,-193 1147.58,-174 1025.58,-174"/>
<text text-anchor="middle" x="1086.58" y="-181" font-family="Helvetica,sans-Serif" font-size="10.00">AMReX_Orientation.H</text>
</a>
</g>
</g>
<!-- Node25&#45;&gt;Node29 -->
<g id="edge53" class="edge">
<title>Node25&#45;&gt;Node29</title>
<path fill="none" stroke="midnightblue" d="M963.64,-235.4C991.31,-223.94 1029.96,-207.94 1056.5,-196.95"/>
<polygon fill="midnightblue" stroke="midnightblue" points="1058.13,-200.07 1066.03,-193.01 1055.45,-193.6 1058.13,-200.07"/>
</g>
<!-- Node26&#45;&gt;Node3 -->
<g id="edge47" class="edge">
<title>Node26&#45;&gt;Node3</title>
<path fill="none" stroke="midnightblue" d="M974.85,-173.98C1031.76,-163.26 1129.36,-144.88 1190.52,-133.37"/>
<polygon fill="midnightblue" stroke="midnightblue" points="1191.21,-136.8 1200.39,-131.51 1189.91,-129.92 1191.21,-136.8"/>
</g>
<!-- Node26&#45;&gt;Node10 -->
<g id="edge48" class="edge">
<title>Node26&#45;&gt;Node10</title>
<path fill="none" stroke="midnightblue" d="M978.29,-173.98C990.75,-171.91 1004.15,-169.78 1016.58,-168 1149.51,-148.96 1189.63,-175.79 1316.58,-132 1332.79,-126.41 1333.55,-118.11 1349.58,-112 1358.4,-108.64 1469.9,-88.64 1538.76,-76.46"/>
<polygon fill="midnightblue" stroke="midnightblue" points="1539.77,-79.84 1549.01,-74.65 1538.55,-72.94 1539.77,-79.84"/>
</g>
<!-- Node26&#45;&gt;Node12 -->
<g id="edge46" class="edge">
<title>Node26&#45;&gt;Node12</title>
<path fill="none" stroke="midnightblue" d="M851.37,-180.99C753.21,-175.63 583.22,-154.6 463.58,-76 442.09,-61.89 420.8,-41.27 407.22,-27.06"/>
<polygon fill="midnightblue" stroke="midnightblue" points="409.56,-24.44 400.17,-19.53 404.45,-29.22 409.56,-24.44"/>
</g>
<!-- Node26&#45;&gt;Node23 -->
<g id="edge51" class="edge">
<title>Node26&#45;&gt;Node23</title>
<path fill="none" stroke="midnightblue" d="M851.41,-178.99C768.42,-173.78 644.25,-161.23 607.58,-132 593.49,-120.77 587,-100.76 584.03,-85.89"/>
<polygon fill="midnightblue" stroke="midnightblue" points="587.44,-85.07 582.38,-75.76 580.53,-86.19 587.44,-85.07"/>
</g>
<!-- Node27 -->
<g id="node27" class="node">
<title>Node27</title>
<g id="a_node27"><a xlink:title=" ">
<polygon fill="white" stroke="#bfbfbf" points="1010.08,-112.5 1010.08,-131.5 1127.08,-131.5 1127.08,-112.5 1010.08,-112.5"/>
<text text-anchor="middle" x="1068.58" y="-119.5" font-family="Helvetica,sans-Serif" font-size="10.00">AMReX_FArrayBox.H</text>
</a>
</g>
</g>
<!-- Node26&#45;&gt;Node27 -->
<g id="edge49" class="edge">
<title>Node26&#45;&gt;Node27</title>
<path fill="none" stroke="midnightblue" d="M949.49,-173.98C973.03,-163.9 1012.39,-147.05 1039.37,-135.5"/>
<polygon fill="midnightblue" stroke="midnightblue" points="1040.88,-138.66 1048.7,-131.51 1038.13,-132.23 1040.88,-138.66"/>
</g>
<!-- Node28 -->
<g id="node28" class="node">
<title>Node28</title>
<g id="a_node28"><a xlink:title=" ">
<polygon fill="white" stroke="#bfbfbf" points="877.08,-112.5 877.08,-131.5 992.08,-131.5 992.08,-112.5 877.08,-112.5"/>
<text text-anchor="middle" x="934.58" y="-119.5" font-family="Helvetica,sans-Serif" font-size="10.00">AMReX_Geometry.H</text>
</a>
</g>
</g>
<!-- Node26&#45;&gt;Node28 -->
<g id="edge50" class="edge">
<title>Node26&#45;&gt;Node28</title>
<path fill="none" stroke="midnightblue" d="M930.29,-173.98C931,-165.58 932.1,-152.48 933.01,-141.66"/>
<polygon fill="midnightblue" stroke="midnightblue" points="936.51,-141.77 933.86,-131.51 929.54,-141.18 936.51,-141.77"/>
</g>
</g>
</svg>
        <g id="navigator" transform="translate(0 0)" fill="#404254">
                <rect fill="#f2f5e9" fill-opacity="0.5" stroke="#606060" stroke-width=".5" x="0" y="0" width="60" height="60"/>
                <use id="zoomplus" xlink:href="#zoomPlus" x="17" y="9" onmousedown="handleZoom(evt,'in')"/>
                <use id="zoomminus" xlink:href="#zoomMin" x="42" y="9" onmousedown="handleZoom(evt,'out')"/>
                <use id="reset" xlink:href="#resetDef" x="30" y="36" onmousedown="handleReset()"/>
                <g id="arrowUp" xlink:href="#dirArrow" transform="translate(30 24)" onmousedown="handlePan(0,-1)">
                  <use xlink:href="#rim" fill="#404040">
                        <set attributeName="fill" to="#808080" begin="arrowUp.mouseover" end="arrowUp.mouseout"/>
                  </use>
                  <path fill="none" stroke="white" stroke-width="1.5" d="M0,-3.0v7 M-2.5,-0.5L0,-3.0L2.5,-0.5"/>
                </g>
                <g id="arrowRight" xlink:href="#dirArrow" transform="rotate(90) translate(36 -43)" onmousedown="handlePan(1,0)">
                  <use xlink:href="#rim" fill="#404040">
                        <set attributeName="fill" to="#808080" begin="arrowRight.mouseover" end="arrowRight.mouseout"/>
                  </use>
                  <path fill="none" stroke="white" stroke-width="1.5" d="M0,-3.0v7 M-2.5,-0.5L0,-3.0L2.5,-0.5"/>
                </g>
                <g id="arrowDown" xlink:href="#dirArrow" transform="rotate(180) translate(-30 -48)" onmousedown="handlePan(0,1)">
                  <use xlink:href="#rim" fill="#404040">
                        <set attributeName="fill" to="#808080" begin="arrowDown.mouseover" end="arrowDown.mouseout"/>
                  </use>
                  <path fill="none" stroke="white" stroke-width="1.5" d="M0,-3.0v7 M-2.5,-0.5L0,-3.0L2.5,-0.5"/>
                </g>
                <g id="arrowLeft" xlink:href="#dirArrow" transform="rotate(270) translate(-36 17)" onmousedown="handlePan(-1,0)">
                  <use xlink:href="#rim" fill="#404040">
                        <set attributeName="fill" to="#808080" begin="arrowLeft.mouseover" end="arrowLeft.mouseout"/>
                  </use>
                  <path fill="none" stroke="white" stroke-width="1.5" d="M0,-3.0v7 M-2.5,-0.5L0,-3.0L2.5,-0.5"/>
                </g>
        </g>
        <svg viewBox="0 0 15 15" width="100%" height="30px" preserveAspectRatio="xMaxYMin meet">
         <g id="arrow_out" transform="scale(0.3 0.3)">
          <a xlink:href="_b_c_interface_8cpp__incl_org.svg" target="_base">
           <rect id="button" ry="5" rx="5" y="6" x="6" height="38" width="38"
                fill="#f2f5e9" fill-opacity="0.5" stroke="#606060" stroke-width="1.0"/>
           <path id="arrow"
             d="M 11.500037,31.436501 C 11.940474,20.09759 22.043105,11.32322 32.158766,21.979434 L 37.068811,17.246167 C 37.068811,17.246167 37.088388,32 37.088388,32 L 22.160133,31.978069 C 22.160133,31.978069 26.997745,27.140456 26.997745,27.140456 C 18.528582,18.264221 13.291696,25.230495 11.500037,31.436501 z"
             style="fill:#404040;"/>
          </a>
         </g>
        </svg>
</svg>
