<?xml version="1.0" encoding="UTF-8" standalone="no"?>
<!DOCTYPE svg PUBLIC "-//W3C//DTD SVG 1.1//EN"
 "http://www.w3.org/Graphics/SVG/1.1/DTD/svg11.dtd">
<!-- Generated by graphviz version 2.43.0 (0)
 -->
<!-- Title: BodyForce.H Pages: 1 -->
<!--zoomable 319 -->
<svg id="main" version="1.1" xmlns="http://www.w3.org/2000/svg" xmlns:xlink="http://www.w3.org/1999/xlink" xml:space="preserve" onload="init(evt)">
<style type="text/css"><![CDATA[
.edge:hover path { stroke: red; }
.edge:hover polygon { stroke: red; fill: red; }
]]></style>
<script type="text/javascript"><![CDATA[
var edges = document.getElementsByTagName('g');
if (edges && edges.length) {
  for (var i=0;i<edges.length;i++) {
    if (edges[i].id.substr(0,4)=='edge') {
      edges[i].setAttribute('class','edge');
    }
  }
}
]]></script>
        <defs>
                <circle id="rim" cx="0" cy="0" r="7"/>
                <circle id="rim2" cx="0" cy="0" r="3.5"/>
                <g id="zoomPlus">
                        <use xlink:href="#rim" fill="#404040">
                                <set attributeName="fill" to="#808080" begin="zoomplus.mouseover" end="zoomplus.mouseout"/>
                        </use>
                        <path d="M-4,0h8M0,-4v8" fill="none" stroke="white" stroke-width="1.5" pointer-events="none"/>
                </g>
                <g id="zoomMin">
                        <use xlink:href="#rim" fill="#404040">
                                <set attributeName="fill" to="#808080" begin="zoomminus.mouseover" end="zoomminus.mouseout"/>
                        </use>
                        <path d="M-4,0h8" fill="none" stroke="white" stroke-width="1.5" pointer-events="none"/>
                </g>
                <g id="dirArrow">
                        <path fill="none" stroke="white" stroke-width="1.5" d="M0,-3.0v7 M-2.5,-0.5L0,-3.0L2.5,-0.5"/>
                </g>
               <g id="resetDef">
                       <use xlink:href="#rim2" fill="#404040">
                               <set attributeName="fill" to="#808080" begin="reset.mouseover" end="reset.mouseout"/>
                       </use>
               </g>
        </defs>

<script type="text/javascript">
var viewWidth = 2124;
var viewHeight = 319;
var sectionId = 'dynsection-0';
</script>
<script xlink:href="svgpan.js"/>
<svg id="graph" class="graph">
<g id="viewport">
<title>BodyForce.H</title>
<polygon fill="white" stroke="transparent" points="-4,4 -4,-315 2120.14,-315 2120.14,4 -4,4"/>
<!-- Node1 -->
<g id="node1" class="node">
<title>Node1</title>
<g id="a_node1"><a xlink:title=" ">
<polygon fill="#bfbfbf" stroke="black" points="532.14,-291.5 532.14,-310.5 610.14,-310.5 610.14,-291.5 532.14,-291.5"/>
<text text-anchor="middle" x="571.14" y="-298.5" font-family="Helvetica,sans-Serif" font-size="10.00">BodyForce.H</text>
</a>
</g>
</g>
<!-- Node2 -->
<g id="node2" class="node">
<title>Node2</title>
<g id="a_node2"><a xlink:href="_momentum_source_8_h.html" target="_top" xlink:title=" ">
<polygon fill="white" stroke="black" points="395.64,-224.5 395.64,-254.5 550.64,-254.5 550.64,-224.5 395.64,-224.5"/>
<text text-anchor="start" x="403.64" y="-242.5" font-family="Helvetica,sans-Serif" font-size="10.00">amr&#45;wind/equation_systems</text>
<text text-anchor="middle" x="473.14" y="-231.5" font-family="Helvetica,sans-Serif" font-size="10.00">/icns/MomentumSource.H</text>
</a>
</g>
</g>
<!-- Node1&#45;&gt;Node2 -->
<g id="edge1" class="edge">
<title>Node1&#45;&gt;Node2</title>
<path fill="none" stroke="midnightblue" d="M557.1,-291.48C543.58,-283.27 522.65,-270.56 505.07,-259.88"/>
<polygon fill="midnightblue" stroke="midnightblue" points="506.6,-256.72 496.24,-254.52 502.97,-262.7 506.6,-256.72"/>
</g>
<!-- Node28 -->
<g id="node28" class="node">
<title>Node28</title>
<g id="a_node28"><a xlink:href="_sim_time_8_h.html" target="_top" xlink:title=" ">
<polygon fill="white" stroke="black" points="766.14,-230 766.14,-249 910.14,-249 910.14,-230 766.14,-230"/>
<text text-anchor="middle" x="838.14" y="-237" font-family="Helvetica,sans-Serif" font-size="10.00">amr&#45;wind/core/SimTime.H</text>
</a>
</g>
</g>
<!-- Node1&#45;&gt;Node28 -->
<g id="edge49" class="edge">
<title>Node1&#45;&gt;Node28</title>
<path fill="none" stroke="midnightblue" d="M609.4,-291.48C656.98,-280.87 738.25,-262.76 790.02,-251.22"/>
<polygon fill="midnightblue" stroke="midnightblue" points="790.96,-254.6 799.96,-249.01 789.44,-247.77 790.96,-254.6"/>
</g>
<!-- Node3 -->
<g id="node3" class="node">
<title>Node3</title>
<g id="a_node3"><a xlink:href="_factory_8_h.html" target="_top" xlink:title=" ">
<polygon fill="white" stroke="black" points="1811.14,-112.5 1811.14,-131.5 1945.14,-131.5 1945.14,-112.5 1811.14,-112.5"/>
<text text-anchor="middle" x="1878.14" y="-119.5" font-family="Helvetica,sans-Serif" font-size="10.00">amr&#45;wind/core/Factory.H</text>
</a>
</g>
</g>
<!-- Node2&#45;&gt;Node3 -->
<g id="edge2" class="edge">
<title>Node2&#45;&gt;Node3</title>
<path fill="none" stroke="midnightblue" d="M535.44,-224.47C570.6,-215.7 615,-203.19 653.14,-188 670.87,-180.94 672.69,-172.88 691.14,-168 924.78,-106.15 1536.91,-146.84 1778.14,-132 1785.52,-131.55 1793.2,-131 1800.88,-130.39"/>
<polygon fill="midnightblue" stroke="midnightblue" points="1801.26,-133.87 1810.94,-129.57 1800.69,-126.9 1801.26,-133.87"/>
</g>
<!-- Node9 -->
<g id="node9" class="node">
<title>Node9</title>
<g id="a_node9"><a xlink:href="_field_desc_types_8_h.html" target="_top" xlink:title=" ">
<polygon fill="white" stroke="black" points="500.14,-0.5 500.14,-19.5 676.14,-19.5 676.14,-0.5 500.14,-0.5"/>
<text text-anchor="middle" x="588.14" y="-7.5" font-family="Helvetica,sans-Serif" font-size="10.00">amr&#45;wind/core/FieldDescTypes.H</text>
</a>
</g>
</g>
<!-- Node2&#45;&gt;Node9 -->
<g id="edge8" class="edge">
<title>Node2&#45;&gt;Node9</title>
<path fill="none" stroke="midnightblue" d="M449.68,-224.47C400.17,-193.15 293.47,-115.63 343.14,-56 361.98,-33.38 430.06,-22.1 489.68,-16.48"/>
<polygon fill="midnightblue" stroke="midnightblue" points="490.29,-19.94 499.93,-15.57 489.66,-12.97 490.29,-19.94"/>
</g>
<!-- Node10 -->
<g id="node10" class="node">
<title>Node10</title>
<g id="a_node10"><a xlink:href="_field_utils_8_h.html" target="_top" xlink:title=" ">
<polygon fill="white" stroke="black" points="17.14,-112.5 17.14,-131.5 163.14,-131.5 163.14,-112.5 17.14,-112.5"/>
<text text-anchor="middle" x="90.14" y="-119.5" font-family="Helvetica,sans-Serif" font-size="10.00">amr&#45;wind/core/FieldUtils.H</text>
</a>
</g>
</g>
<!-- Node2&#45;&gt;Node10 -->
<g id="edge9" class="edge">
<title>Node2&#45;&gt;Node10</title>
<path fill="none" stroke="midnightblue" d="M417.37,-224.44C379.84,-214.76 329.32,-201.28 285.14,-188 228.2,-170.88 162.78,-148.51 124.04,-134.98"/>
<polygon fill="midnightblue" stroke="midnightblue" points="124.91,-131.58 114.31,-131.57 122.59,-138.18 124.91,-131.58"/>
</g>
<!-- Node11 -->
<g id="node11" class="node">
<title>Node11</title>
<g id="a_node11"><a xlink:title=" ">
<polygon fill="white" stroke="#bfbfbf" points="149.64,-0.5 149.64,-19.5 258.64,-19.5 258.64,-0.5 149.64,-0.5"/>
<text text-anchor="middle" x="204.14" y="-7.5" font-family="Helvetica,sans-Serif" font-size="10.00">AMReX_MultiFab.H</text>
</a>
</g>
</g>
<!-- Node2&#45;&gt;Node11 -->
<g id="edge48" class="edge">
<title>Node2&#45;&gt;Node11</title>
<path fill="none" stroke="midnightblue" d="M395.51,-232.37C275.75,-221.1 54.83,-192.48 8.14,-132 -3.11,-117.42 -3.76,-77.84 16.14,-56 32.71,-37.82 91.93,-25.7 139.54,-18.67"/>
<polygon fill="midnightblue" stroke="midnightblue" points="140.1,-22.13 149.5,-17.25 139.11,-15.2 140.1,-22.13"/>
</g>
<!-- Node13 -->
<g id="node13" class="node">
<title>Node13</title>
<g id="a_node13"><a xlink:href="_field_repo_8_h.html" target="_top" xlink:title=" ">
<polygon fill="white" stroke="black" points="495.64,-168.5 495.64,-187.5 644.64,-187.5 644.64,-168.5 495.64,-168.5"/>
<text text-anchor="middle" x="570.14" y="-175.5" font-family="Helvetica,sans-Serif" font-size="10.00">amr&#45;wind/core/FieldRepo.H</text>
</a>
</g>
</g>
<!-- Node2&#45;&gt;Node13 -->
<g id="edge13" class="edge">
<title>Node2&#45;&gt;Node13</title>
<path fill="none" stroke="midnightblue" d="M496.13,-224.4C511.53,-214.95 531.73,-202.56 547.14,-193.11"/>
<polygon fill="midnightblue" stroke="midnightblue" points="549.33,-195.87 556.03,-187.66 545.67,-189.9 549.33,-195.87"/>
</g>
<!-- Node4 -->
<g id="node4" class="node">
<title>Node4</title>
<g id="a_node4"><a xlink:title=" ">
<polygon fill="white" stroke="#bfbfbf" points="1792.14,-56.5 1792.14,-75.5 1850.14,-75.5 1850.14,-56.5 1792.14,-56.5"/>
<text text-anchor="middle" x="1821.14" y="-63.5" font-family="Helvetica,sans-Serif" font-size="10.00">memory</text>
</a>
</g>
</g>
<!-- Node3&#45;&gt;Node4 -->
<g id="edge3" class="edge">
<title>Node3&#45;&gt;Node4</title>
<path fill="none" stroke="midnightblue" d="M1868.98,-112.32C1860.64,-104.42 1848.11,-92.55 1837.96,-82.94"/>
<polygon fill="midnightblue" stroke="midnightblue" points="1840.13,-80.17 1830.47,-75.83 1835.32,-85.25 1840.13,-80.17"/>
</g>
<!-- Node5 -->
<g id="node5" class="node">
<title>Node5</title>
<g id="a_node5"><a xlink:title=" ">
<polygon fill="white" stroke="#bfbfbf" points="1642.64,-56.5 1642.64,-75.5 1735.64,-75.5 1735.64,-56.5 1642.64,-56.5"/>
<text text-anchor="middle" x="1689.14" y="-63.5" font-family="Helvetica,sans-Serif" font-size="10.00">unordered_map</text>
</a>
</g>
</g>
<!-- Node3&#45;&gt;Node5 -->
<g id="edge4" class="edge">
<title>Node3&#45;&gt;Node5</title>
<path fill="none" stroke="midnightblue" d="M1848.19,-112.44C1815.98,-103.24 1764.61,-88.56 1729,-78.39"/>
<polygon fill="midnightblue" stroke="midnightblue" points="1729.53,-74.9 1718.95,-75.52 1727.6,-81.63 1729.53,-74.9"/>
</g>
<!-- Node6 -->
<g id="node6" class="node">
<title>Node6</title>
<g id="a_node6"><a xlink:title=" ">
<polygon fill="white" stroke="#bfbfbf" points="1868.14,-56.5 1868.14,-75.5 1928.14,-75.5 1928.14,-56.5 1868.14,-56.5"/>
<text text-anchor="middle" x="1898.14" y="-63.5" font-family="Helvetica,sans-Serif" font-size="10.00">iostream</text>
</a>
</g>
</g>
<!-- Node3&#45;&gt;Node6 -->
<g id="edge5" class="edge">
<title>Node3&#45;&gt;Node6</title>
<path fill="none" stroke="midnightblue" d="M1881.44,-112.08C1884.12,-104.85 1887.99,-94.41 1891.33,-85.4"/>
<polygon fill="midnightblue" stroke="midnightblue" points="1894.71,-86.34 1894.9,-75.75 1888.15,-83.91 1894.71,-86.34"/>
</g>
<!-- Node7 -->
<g id="node7" class="node">
<title>Node7</title>
<g id="a_node7"><a xlink:title=" ">
<polygon fill="white" stroke="#bfbfbf" points="1946.14,-56.5 1946.14,-75.5 2036.14,-75.5 2036.14,-56.5 1946.14,-56.5"/>
<text text-anchor="middle" x="1991.14" y="-63.5" font-family="Helvetica,sans-Serif" font-size="10.00">AMReX_Print.H</text>
</a>
</g>
</g>
<!-- Node3&#45;&gt;Node7 -->
<g id="edge6" class="edge">
<title>Node3&#45;&gt;Node7</title>
<path fill="none" stroke="midnightblue" d="M1896.05,-112.44C1914.4,-103.68 1943.15,-89.94 1964.24,-79.86"/>
<polygon fill="midnightblue" stroke="midnightblue" points="1965.81,-82.99 1973.32,-75.52 1962.79,-76.67 1965.81,-82.99"/>
</g>
<!-- Node8 -->
<g id="node8" class="node">
<title>Node8</title>
<g id="a_node8"><a xlink:title=" ">
<polygon fill="white" stroke="#bfbfbf" points="2054.14,-56.5 2054.14,-75.5 2116.14,-75.5 2116.14,-56.5 2054.14,-56.5"/>
<text text-anchor="middle" x="2085.14" y="-63.5" font-family="Helvetica,sans-Serif" font-size="10.00">AMReX.H</text>
</a>
</g>
</g>
<!-- Node3&#45;&gt;Node8 -->
<g id="edge7" class="edge">
<title>Node3&#45;&gt;Node8</title>
<path fill="none" stroke="midnightblue" d="M1910.94,-112.44C1946.94,-103.05 2004.8,-87.96 2043.86,-77.77"/>
<polygon fill="midnightblue" stroke="midnightblue" points="2045.06,-81.07 2053.85,-75.16 2043.29,-74.3 2045.06,-81.07"/>
</g>
<!-- Node10&#45;&gt;Node9 -->
<g id="edge10" class="edge">
<title>Node10&#45;&gt;Node9</title>
<path fill="none" stroke="midnightblue" d="M111.71,-112.43C147.29,-98.6 220.76,-71.39 285.14,-56 354.08,-39.52 433.38,-28 493.55,-20.75"/>
<polygon fill="midnightblue" stroke="midnightblue" points="494.28,-24.19 503.79,-19.53 493.45,-17.24 494.28,-24.19"/>
</g>
<!-- Node10&#45;&gt;Node11 -->
<g id="edge11" class="edge">
<title>Node10&#45;&gt;Node11</title>
<path fill="none" stroke="midnightblue" d="M69.73,-112.46C44.45,-100.67 6.72,-78.31 24.14,-56 38.42,-37.71 93.66,-25.75 139.22,-18.79"/>
<polygon fill="midnightblue" stroke="midnightblue" points="139.99,-22.22 149.37,-17.3 138.97,-15.29 139.99,-22.22"/>
</g>
<!-- Node12 -->
<g id="node12" class="node">
<title>Node12</title>
<g id="a_node12"><a xlink:title=" ">
<polygon fill="white" stroke="#bfbfbf" points="33.14,-56.5 33.14,-75.5 157.14,-75.5 157.14,-56.5 33.14,-56.5"/>
<text text-anchor="middle" x="95.14" y="-63.5" font-family="Helvetica,sans-Serif" font-size="10.00">AMReX_Interpolater.H</text>
</a>
</g>
</g>
<!-- Node10&#45;&gt;Node12 -->
<g id="edge12" class="edge">
<title>Node10&#45;&gt;Node12</title>
<path fill="none" stroke="midnightblue" d="M90.97,-112.08C91.62,-105.01 92.56,-94.86 93.38,-85.99"/>
<polygon fill="midnightblue" stroke="midnightblue" points="96.89,-86.03 94.33,-75.75 89.92,-85.39 96.89,-86.03"/>
</g>
<!-- Node13&#45;&gt;Node5 -->
<g id="edge15" class="edge">
<title>Node13&#45;&gt;Node5</title>
<path fill="none" stroke="midnightblue" d="M645.01,-169.11C649.45,-168.71 653.86,-168.34 658.14,-168 942.59,-145.48 1015.55,-163.5 1299.14,-132 1420.99,-118.47 1562.64,-92.18 1637.16,-77.52"/>
<polygon fill="midnightblue" stroke="midnightblue" points="1638.09,-80.91 1647.22,-75.53 1636.73,-74.04 1638.09,-80.91"/>
</g>
<!-- Node13&#45;&gt;Node9 -->
<g id="edge16" class="edge">
<title>Node13&#45;&gt;Node9</title>
<path fill="none" stroke="midnightblue" d="M519.25,-168.48C441.12,-153.27 305.7,-117.16 356.14,-56 373.37,-35.1 434.54,-23.79 489.74,-17.74"/>
<polygon fill="midnightblue" stroke="midnightblue" points="490.39,-21.19 499.97,-16.67 489.66,-14.23 490.39,-21.19"/>
</g>
<!-- Node13&#45;&gt;Node10 -->
<g id="edge17" class="edge">
<title>Node13&#45;&gt;Node10</title>
<path fill="none" stroke="midnightblue" d="M495.41,-168.59C408.16,-158.78 264.29,-142.59 173.5,-132.38"/>
<polygon fill="midnightblue" stroke="midnightblue" points="173.85,-128.9 163.52,-131.26 173.07,-135.85 173.85,-128.9"/>
</g>
<!-- Node13&#45;&gt;Node11 -->
<g id="edge46" class="edge">
<title>Node13&#45;&gt;Node11</title>
<path fill="none" stroke="midnightblue" d="M495.52,-169.12C454.45,-162.8 403.4,-151.6 361.14,-132 302.86,-104.96 246.09,-53.01 219.62,-26.86"/>
<polygon fill="midnightblue" stroke="midnightblue" points="221.95,-24.24 212.41,-19.63 216.99,-29.18 221.95,-24.24"/>
</g>
<!-- Node14 -->
<g id="node14" class="node">
<title>Node14</title>
<g id="a_node14"><a xlink:title=" ">
<polygon fill="white" stroke="#bfbfbf" points="1052.14,-0.5 1052.14,-19.5 1096.14,-19.5 1096.14,-0.5 1052.14,-0.5"/>
<text text-anchor="middle" x="1074.14" y="-7.5" font-family="Helvetica,sans-Serif" font-size="10.00">string</text>
</a>
</g>
</g>
<!-- Node13&#45;&gt;Node14 -->
<g id="edge14" class="edge">
<title>Node13&#45;&gt;Node14</title>
<path fill="none" stroke="midnightblue" d="M643.3,-168.5C645.26,-168.32 647.22,-168.16 649.14,-168 770.94,-158.08 1665.59,-168.77 1745.14,-76 1750.93,-69.25 1751.21,-62.49 1745.14,-56 1701.17,-8.98 1234.84,-9.58 1106.61,-10.65"/>
<polygon fill="midnightblue" stroke="midnightblue" points="1106.25,-7.15 1096.28,-10.74 1106.31,-14.15 1106.25,-7.15"/>
</g>
<!-- Node15 -->
<g id="node15" class="node">
<title>Node15</title>
<g id="a_node15"><a xlink:href="_field_8_h.html" target="_top" xlink:title=" ">
<polygon fill="white" stroke="black" points="1166.14,-112.5 1166.14,-131.5 1290.14,-131.5 1290.14,-112.5 1166.14,-112.5"/>
<text text-anchor="middle" x="1228.14" y="-119.5" font-family="Helvetica,sans-Serif" font-size="10.00">amr&#45;wind/core/Field.H</text>
</a>
</g>
</g>
<!-- Node13&#45;&gt;Node15 -->
<g id="edge18" class="edge">
<title>Node13&#45;&gt;Node15</title>
<path fill="none" stroke="midnightblue" d="M645.02,-169.22C649.46,-168.8 653.86,-168.39 658.14,-168 837,-151.8 1047.73,-136.02 1155.96,-128.16"/>
<polygon fill="midnightblue" stroke="midnightblue" points="1156.39,-131.64 1166.11,-127.43 1155.88,-124.66 1156.39,-131.64"/>
</g>
<!-- Node22 -->
<g id="node22" class="node">
<title>Node22</title>
<g id="a_node22"><a xlink:href="_int_field_8_h.html" target="_top" xlink:title=" ">
<polygon fill="white" stroke="black" points="761.64,-112.5 761.64,-131.5 898.64,-131.5 898.64,-112.5 761.64,-112.5"/>
<text text-anchor="middle" x="830.14" y="-119.5" font-family="Helvetica,sans-Serif" font-size="10.00">amr&#45;wind/core/IntField.H</text>
</a>
</g>
</g>
<!-- Node13&#45;&gt;Node22 -->
<g id="edge33" class="edge">
<title>Node13&#45;&gt;Node22</title>
<path fill="none" stroke="midnightblue" d="M611.34,-168.44C656.79,-159 729.98,-143.8 779.05,-133.61"/>
<polygon fill="midnightblue" stroke="midnightblue" points="780.06,-136.98 789.14,-131.52 778.63,-130.12 780.06,-136.98"/>
</g>
<!-- Node23 -->
<g id="node23" class="node">
<title>Node23</title>
<g id="a_node23"><a xlink:title=" ">
<polygon fill="white" stroke="#bfbfbf" points="654.14,-56.5 654.14,-75.5 766.14,-75.5 766.14,-56.5 654.14,-56.5"/>
<text text-anchor="middle" x="710.14" y="-63.5" font-family="Helvetica,sans-Serif" font-size="10.00">AMReX_iMultiFab.H</text>
</a>
</g>
</g>
<!-- Node13&#45;&gt;Node23 -->
<g id="edge47" class="edge">
<title>Node13&#45;&gt;Node23</title>
<path fill="none" stroke="midnightblue" d="M644.67,-170.8C669.91,-164.72 695.61,-153.27 711.14,-132 720.81,-118.77 719.19,-99.64 715.98,-85.56"/>
<polygon fill="midnightblue" stroke="midnightblue" points="719.25,-84.28 713.24,-75.55 712.5,-86.12 719.25,-84.28"/>
</g>
<!-- Node24 -->
<g id="node24" class="node">
<title>Node24</title>
<g id="a_node24"><a xlink:href="_scratch_field_8_h.html" target="_top" xlink:title=" ">
<polygon fill="white" stroke="black" points="414.14,-112.5 414.14,-131.5 574.14,-131.5 574.14,-112.5 414.14,-112.5"/>
<text text-anchor="middle" x="494.14" y="-119.5" font-family="Helvetica,sans-Serif" font-size="10.00">amr&#45;wind/core/ScratchField.H</text>
</a>
</g>
</g>
<!-- Node13&#45;&gt;Node24 -->
<g id="edge37" class="edge">
<title>Node13&#45;&gt;Node24</title>
<path fill="none" stroke="midnightblue" d="M557.93,-168.32C546.37,-160.11 528.77,-147.6 514.98,-137.81"/>
<polygon fill="midnightblue" stroke="midnightblue" points="516.75,-134.77 506.57,-131.83 512.7,-140.48 516.75,-134.77"/>
</g>
<!-- Node27 -->
<g id="node27" class="node">
<title>Node27</title>
<g id="a_node27"><a xlink:title=" ">
<polygon fill="white" stroke="#bfbfbf" points="592.14,-112.5 592.14,-131.5 702.14,-131.5 702.14,-112.5 592.14,-112.5"/>
<text text-anchor="middle" x="647.14" y="-119.5" font-family="Helvetica,sans-Serif" font-size="10.00">AMReX_AmrCore.H</text>
</a>
</g>
</g>
<!-- Node13&#45;&gt;Node27 -->
<g id="edge45" class="edge">
<title>Node13&#45;&gt;Node27</title>
<path fill="none" stroke="midnightblue" d="M582.51,-168.32C594.3,-160.06 612.27,-147.45 626.28,-137.63"/>
<polygon fill="midnightblue" stroke="midnightblue" points="628.62,-140.26 634.8,-131.65 624.6,-134.53 628.62,-140.26"/>
</g>
<!-- Node15&#45;&gt;Node4 -->
<g id="edge20" class="edge">
<title>Node15&#45;&gt;Node4</title>
<path fill="none" stroke="midnightblue" d="M1290.27,-116.22C1387.42,-108.6 1581.13,-92.85 1745.14,-76 1757.1,-74.77 1770.1,-73.29 1781.91,-71.88"/>
<polygon fill="midnightblue" stroke="midnightblue" points="1782.42,-75.35 1791.93,-70.67 1781.59,-68.4 1782.42,-75.35"/>
</g>
<!-- Node15&#45;&gt;Node5 -->
<g id="edge21" class="edge">
<title>Node15&#45;&gt;Node5</title>
<path fill="none" stroke="midnightblue" d="M1290.35,-115.04C1367.94,-107.39 1504.87,-93.19 1632.46,-76.03"/>
<polygon fill="midnightblue" stroke="midnightblue" points="1632.98,-79.49 1642.42,-74.68 1632.04,-72.56 1632.98,-79.49"/>
</g>
<!-- Node15&#45;&gt;Node9 -->
<g id="edge27" class="edge">
<title>Node15&#45;&gt;Node9</title>
<path fill="none" stroke="midnightblue" d="M1205.42,-112.4C1167.16,-98.27 1087.18,-70.32 1017.14,-56 905.1,-33.09 774.08,-21.5 686.59,-15.88"/>
<polygon fill="midnightblue" stroke="midnightblue" points="686.61,-12.37 676.41,-15.24 686.17,-19.36 686.61,-12.37"/>
</g>
<!-- Node15&#45;&gt;Node11 -->
<g id="edge23" class="edge">
<title>Node15&#45;&gt;Node11</title>
<path fill="none" stroke="midnightblue" d="M1166.03,-116.24C1090.97,-109.88 961.06,-96.92 851.14,-76 816.83,-69.47 809.58,-61.84 775.14,-56 593.45,-25.19 375.57,-15.4 269.12,-12.35"/>
<polygon fill="midnightblue" stroke="midnightblue" points="268.96,-8.84 258.86,-12.07 268.76,-15.84 268.96,-8.84"/>
</g>
<!-- Node15&#45;&gt;Node14 -->
<g id="edge19" class="edge">
<title>Node15&#45;&gt;Node14</title>
<path fill="none" stroke="midnightblue" d="M1216.06,-112.37C1189.74,-93.57 1127.02,-48.77 1094.49,-25.53"/>
<polygon fill="midnightblue" stroke="midnightblue" points="1096.34,-22.56 1086.17,-19.59 1092.27,-28.25 1096.34,-22.56"/>
</g>
<!-- Node16 -->
<g id="node16" class="node">
<title>Node16</title>
<g id="a_node16"><a xlink:title=" ">
<polygon fill="white" stroke="#bfbfbf" points="1560.14,-56.5 1560.14,-75.5 1624.14,-75.5 1624.14,-56.5 1560.14,-56.5"/>
<text text-anchor="middle" x="1592.14" y="-63.5" font-family="Helvetica,sans-Serif" font-size="10.00">algorithm</text>
</a>
</g>
</g>
<!-- Node15&#45;&gt;Node16 -->
<g id="edge22" class="edge">
<title>Node15&#45;&gt;Node16</title>
<path fill="none" stroke="midnightblue" d="M1290.29,-113.8C1353.33,-106.16 1453.91,-93.08 1550.07,-76.08"/>
<polygon fill="midnightblue" stroke="midnightblue" points="1550.73,-79.51 1559.96,-74.31 1549.5,-72.62 1550.73,-79.51"/>
</g>
<!-- Node17 -->
<g id="node17" class="node">
<title>Node17</title>
<g id="a_node17"><a xlink:title=" ">
<polygon fill="white" stroke="#bfbfbf" points="1178.64,-56.5 1178.64,-75.5 1277.64,-75.5 1277.64,-56.5 1178.64,-56.5"/>
<text text-anchor="middle" x="1228.14" y="-63.5" font-family="Helvetica,sans-Serif" font-size="10.00">AMReX_BCRec.H</text>
</a>
</g>
</g>
<!-- Node15&#45;&gt;Node17 -->
<g id="edge24" class="edge">
<title>Node15&#45;&gt;Node17</title>
<path fill="none" stroke="midnightblue" d="M1228.14,-112.08C1228.14,-105.01 1228.14,-94.86 1228.14,-85.99"/>
<polygon fill="midnightblue" stroke="midnightblue" points="1231.64,-85.75 1228.14,-75.75 1224.64,-85.75 1231.64,-85.75"/>
</g>
<!-- Node18 -->
<g id="node18" class="node">
<title>Node18</title>
<g id="a_node18"><a xlink:title=" ">
<polygon fill="white" stroke="#bfbfbf" points="1295.64,-56.5 1295.64,-75.5 1382.64,-75.5 1382.64,-56.5 1295.64,-56.5"/>
<text text-anchor="middle" x="1339.14" y="-63.5" font-family="Helvetica,sans-Serif" font-size="10.00">AMReX_Gpu.H</text>
</a>
</g>
</g>
<!-- Node15&#45;&gt;Node18 -->
<g id="edge25" class="edge">
<title>Node15&#45;&gt;Node18</title>
<path fill="none" stroke="midnightblue" d="M1245.98,-112.32C1263.86,-103.62 1291.62,-90.12 1312.19,-80.11"/>
<polygon fill="midnightblue" stroke="midnightblue" points="1313.89,-83.18 1321.35,-75.65 1310.83,-76.88 1313.89,-83.18"/>
</g>
<!-- Node19 -->
<g id="node19" class="node">
<title>Node19</title>
<g id="a_node19"><a xlink:href="incflo__enums_8_h.html" target="_top" xlink:title=" ">
<polygon fill="white" stroke="black" points="1400.64,-56.5 1400.64,-75.5 1541.64,-75.5 1541.64,-56.5 1400.64,-56.5"/>
<text text-anchor="middle" x="1471.14" y="-63.5" font-family="Helvetica,sans-Serif" font-size="10.00">amr&#45;wind/incflo_enums.H</text>
</a>
</g>
</g>
<!-- Node15&#45;&gt;Node19 -->
<g id="edge26" class="edge">
<title>Node15&#45;&gt;Node19</title>
<path fill="none" stroke="midnightblue" d="M1266.65,-112.44C1308.95,-103.04 1376.96,-87.93 1422.81,-77.74"/>
<polygon fill="midnightblue" stroke="midnightblue" points="1423.82,-81.1 1432.82,-75.52 1422.3,-74.27 1423.82,-81.1"/>
</g>
<!-- Node20 -->
<g id="node20" class="node">
<title>Node20</title>
<g id="a_node20"><a xlink:href="_view_field_8_h.html" target="_top" xlink:title=" ">
<polygon fill="white" stroke="black" points="860.14,-56.5 860.14,-75.5 1008.14,-75.5 1008.14,-56.5 860.14,-56.5"/>
<text text-anchor="middle" x="934.14" y="-63.5" font-family="Helvetica,sans-Serif" font-size="10.00">amr&#45;wind/core/ViewField.H</text>
</a>
</g>
</g>
<!-- Node15&#45;&gt;Node20 -->
<g id="edge28" class="edge">
<title>Node15&#45;&gt;Node20</title>
<path fill="none" stroke="midnightblue" d="M1181.56,-112.44C1129.73,-102.92 1046.01,-87.55 990.53,-77.36"/>
<polygon fill="midnightblue" stroke="midnightblue" points="990.98,-73.88 980.51,-75.52 989.71,-80.77 990.98,-73.88"/>
</g>
<!-- Node20&#45;&gt;Node9 -->
<g id="edge30" class="edge">
<title>Node20&#45;&gt;Node9</title>
<path fill="none" stroke="midnightblue" d="M879.32,-56.44C817.82,-46.85 718.16,-31.29 652.88,-21.1"/>
<polygon fill="midnightblue" stroke="midnightblue" points="653.13,-17.6 642.71,-19.52 652.05,-24.52 653.13,-17.6"/>
</g>
<!-- Node20&#45;&gt;Node11 -->
<g id="edge31" class="edge">
<title>Node20&#45;&gt;Node11</title>
<path fill="none" stroke="midnightblue" d="M860.13,-59.53C717.05,-48.94 404.7,-25.84 269.11,-15.81"/>
<polygon fill="midnightblue" stroke="midnightblue" points="269.11,-12.3 258.88,-15.05 268.6,-19.28 269.11,-12.3"/>
</g>
<!-- Node20&#45;&gt;Node14 -->
<g id="edge29" class="edge">
<title>Node20&#45;&gt;Node14</title>
<path fill="none" stroke="midnightblue" d="M956.33,-56.44C979.57,-47.48 1016.29,-33.31 1042.56,-23.18"/>
<polygon fill="midnightblue" stroke="midnightblue" points="1043.99,-26.38 1052.06,-19.52 1041.47,-19.85 1043.99,-26.38"/>
</g>
<!-- Node21 -->
<g id="node21" class="node">
<title>Node21</title>
<g id="a_node21"><a xlink:title=" ">
<polygon fill="white" stroke="#bfbfbf" points="790.14,-0.5 790.14,-19.5 888.14,-19.5 888.14,-0.5 790.14,-0.5"/>
<text text-anchor="middle" x="839.14" y="-7.5" font-family="Helvetica,sans-Serif" font-size="10.00">AMReX_Vector.H</text>
</a>
</g>
</g>
<!-- Node20&#45;&gt;Node21 -->
<g id="edge32" class="edge">
<title>Node20&#45;&gt;Node21</title>
<path fill="none" stroke="midnightblue" d="M918.88,-56.32C903.92,-47.82 880.89,-34.73 863.42,-24.8"/>
<polygon fill="midnightblue" stroke="midnightblue" points="864.79,-21.55 854.37,-19.65 861.33,-27.64 864.79,-21.55"/>
</g>
<!-- Node22&#45;&gt;Node9 -->
<g id="edge35" class="edge">
<title>Node22&#45;&gt;Node9</title>
<path fill="none" stroke="midnightblue" d="M825.3,-112.31C816.98,-98.2 798.55,-70.43 775.14,-56 747.18,-38.77 713.1,-28.13 681.74,-21.57"/>
<polygon fill="midnightblue" stroke="midnightblue" points="682.15,-18.09 671.66,-19.58 680.79,-24.95 682.15,-18.09"/>
</g>
<!-- Node22&#45;&gt;Node14 -->
<g id="edge34" class="edge">
<title>Node22&#45;&gt;Node14</title>
<path fill="none" stroke="midnightblue" d="M898.71,-114.28C954.56,-107.51 1027.7,-95.27 1050.14,-76 1063.67,-64.39 1069.58,-44.43 1072.16,-29.69"/>
<polygon fill="midnightblue" stroke="midnightblue" points="1075.64,-30.04 1073.55,-19.65 1068.71,-29.08 1075.64,-30.04"/>
</g>
<!-- Node22&#45;&gt;Node23 -->
<g id="edge36" class="edge">
<title>Node22&#45;&gt;Node23</title>
<path fill="none" stroke="midnightblue" d="M811.13,-112.44C791.55,-103.64 760.83,-89.81 738.41,-79.72"/>
<polygon fill="midnightblue" stroke="midnightblue" points="739.62,-76.43 729.07,-75.52 736.75,-82.81 739.62,-76.43"/>
</g>
<!-- Node24&#45;&gt;Node9 -->
<g id="edge40" class="edge">
<title>Node24&#45;&gt;Node9</title>
<path fill="none" stroke="midnightblue" d="M516.95,-112.35C533.39,-105.02 554.93,-92.97 568.14,-76 578.56,-62.62 583.58,-43.8 585.98,-29.85"/>
<polygon fill="midnightblue" stroke="midnightblue" points="589.46,-30.3 587.4,-19.9 582.53,-29.31 589.46,-30.3"/>
</g>
<!-- Node24&#45;&gt;Node11 -->
<g id="edge42" class="edge">
<title>Node24&#45;&gt;Node11</title>
<path fill="none" stroke="midnightblue" d="M465.34,-112.43C437.24,-103.87 393.41,-90.01 356.14,-76 312.21,-59.48 262.39,-37.55 232.12,-23.85"/>
<polygon fill="midnightblue" stroke="midnightblue" points="233.2,-20.5 222.65,-19.55 230.3,-26.87 233.2,-20.5"/>
</g>
<!-- Node24&#45;&gt;Node14 -->
<g id="edge38" class="edge">
<title>Node24&#45;&gt;Node14</title>
<path fill="none" stroke="midnightblue" d="M574.19,-112.84C577.21,-112.55 580.2,-112.27 583.14,-112 679.51,-103.13 930.72,-119.55 1017.14,-76 1038.01,-65.48 1054.58,-43.72 1064.36,-28.28"/>
<polygon fill="midnightblue" stroke="midnightblue" points="1067.4,-30.01 1069.55,-19.63 1061.4,-26.4 1067.4,-30.01"/>
</g>
<!-- Node24&#45;&gt;Node20 -->
<g id="edge41" class="edge">
<title>Node24&#45;&gt;Node20</title>
<path fill="none" stroke="midnightblue" d="M563.86,-112.44C642.95,-102.74 771.68,-86.94 854.62,-76.76"/>
<polygon fill="midnightblue" stroke="midnightblue" points="855.25,-80.21 864.75,-75.52 854.4,-73.26 855.25,-80.21"/>
</g>
<!-- Node24&#45;&gt;Node21 -->
<g id="edge43" class="edge">
<title>Node24&#45;&gt;Node21</title>
<path fill="none" stroke="midnightblue" d="M511.42,-112.35C539.07,-98.79 595.25,-72.38 645.14,-56 690.22,-41.2 742.72,-29.34 781.73,-21.51"/>
<polygon fill="midnightblue" stroke="midnightblue" points="782.72,-24.89 791.85,-19.51 781.36,-18.02 782.72,-24.89"/>
</g>
<!-- Node25 -->
<g id="node25" class="node">
<title>Node25</title>
<g id="a_node25"><a xlink:title=" ">
<polygon fill="white" stroke="#bfbfbf" points="365.64,-56.5 365.64,-75.5 410.64,-75.5 410.64,-56.5 365.64,-56.5"/>
<text text-anchor="middle" x="388.14" y="-63.5" font-family="Helvetica,sans-Serif" font-size="10.00">utility</text>
</a>
</g>
</g>
<!-- Node24&#45;&gt;Node25 -->
<g id="edge39" class="edge">
<title>Node24&#45;&gt;Node25</title>
<path fill="none" stroke="midnightblue" d="M477.11,-112.32C460.11,-103.66 433.77,-90.24 414.15,-80.25"/>
<polygon fill="midnightblue" stroke="midnightblue" points="415.63,-77.08 405.13,-75.65 412.45,-83.31 415.63,-77.08"/>
</g>
<!-- Node26 -->
<g id="node26" class="node">
<title>Node26</title>
<g id="a_node26"><a xlink:title=" ">
<polygon fill="white" stroke="#bfbfbf" points="428.64,-56.5 428.64,-75.5 559.64,-75.5 559.64,-56.5 428.64,-56.5"/>
<text text-anchor="middle" x="494.14" y="-63.5" font-family="Helvetica,sans-Serif" font-size="10.00">AMReX_PhysBCFunct.H</text>
</a>
</g>
</g>
<!-- Node24&#45;&gt;Node26 -->
<g id="edge44" class="edge">
<title>Node24&#45;&gt;Node26</title>
<path fill="none" stroke="midnightblue" d="M494.14,-112.08C494.14,-105.01 494.14,-94.86 494.14,-85.99"/>
<polygon fill="midnightblue" stroke="midnightblue" points="497.64,-85.75 494.14,-75.75 490.64,-85.75 497.64,-85.75"/>
</g>
<!-- Node29 -->
<g id="node29" class="node">
<title>Node29</title>
<g id="a_node29"><a xlink:title=" ">
<polygon fill="white" stroke="#bfbfbf" points="986.14,-168.5 986.14,-187.5 1078.14,-187.5 1078.14,-168.5 986.14,-168.5"/>
<text text-anchor="middle" x="1032.14" y="-175.5" font-family="Helvetica,sans-Serif" font-size="10.00">AMReX_REAL.H</text>
</a>
</g>
</g>
<!-- Node28&#45;&gt;Node29 -->
<g id="edge50" class="edge">
<title>Node28&#45;&gt;Node29</title>
<path fill="none" stroke="midnightblue" d="M865.94,-229.98C899.79,-219.59 957.11,-202.01 994.8,-190.45"/>
<polygon fill="midnightblue" stroke="midnightblue" points="995.86,-193.79 1004.4,-187.51 993.81,-187.1 995.86,-193.79"/>
</g>
<!-- Node30 -->
<g id="node30" class="node">
<title>Node30</title>
<g id="a_node30"><a xlink:title=" ">
<polygon fill="white" stroke="#bfbfbf" points="700.14,-168.5 700.14,-187.5 834.14,-187.5 834.14,-168.5 700.14,-168.5"/>
<text text-anchor="middle" x="767.14" y="-175.5" font-family="Helvetica,sans-Serif" font-size="10.00">AMReX_GpuQualifiers.H</text>
</a>
</g>
</g>
<!-- Node28&#45;&gt;Node30 -->
<g id="edge51" class="edge">
<title>Node28&#45;&gt;Node30</title>
<path fill="none" stroke="midnightblue" d="M827.97,-229.98C816.79,-220.61 798.63,-205.38 785.05,-194.01"/>
<polygon fill="midnightblue" stroke="midnightblue" points="787.21,-191.25 777.3,-187.51 782.71,-196.61 787.21,-191.25"/>
</g>
<!-- Node31 -->
<g id="node31" class="node">
<title>Node31</title>
<g id="a_node31"><a xlink:title=" ">
<polygon fill="white" stroke="#bfbfbf" points="852.14,-168.5 852.14,-187.5 968.14,-187.5 968.14,-168.5 852.14,-168.5"/>
<text text-anchor="middle" x="910.14" y="-175.5" font-family="Helvetica,sans-Serif" font-size="10.00">AMReX_Extension.H</text>
</a>
</g>
</g>
<!-- Node28&#45;&gt;Node31 -->
<g id="edge52" class="edge">
<title>Node28&#45;&gt;Node31</title>
<path fill="none" stroke="midnightblue" d="M848.46,-229.98C859.79,-220.61 878.22,-205.38 891.98,-194.01"/>
<polygon fill="midnightblue" stroke="midnightblue" points="894.37,-196.58 899.85,-187.51 889.91,-191.18 894.37,-196.58"/>
</g>
</g>
</svg>
        <g id="navigator" transform="translate(0 0)" fill="#404254">
                <rect fill="#f2f5e9" fill-opacity="0.5" stroke="#606060" stroke-width=".5" x="0" y="0" width="60" height="60"/>
                <use id="zoomplus" xlink:href="#zoomPlus" x="17" y="9" onmousedown="handleZoom(evt,'in')"/>
                <use id="zoomminus" xlink:href="#zoomMin" x="42" y="9" onmousedown="handleZoom(evt,'out')"/>
                <use id="reset" xlink:href="#resetDef" x="30" y="36" onmousedown="handleReset()"/>
                <g id="arrowUp" xlink:href="#dirArrow" transform="translate(30 24)" onmousedown="handlePan(0,-1)">
                  <use xlink:href="#rim" fill="#404040">
                        <set attributeName="fill" to="#808080" begin="arrowUp.mouseover" end="arrowUp.mouseout"/>
                  </use>
                  <path fill="none" stroke="white" stroke-width="1.5" d="M0,-3.0v7 M-2.5,-0.5L0,-3.0L2.5,-0.5"/>
                </g>
                <g id="arrowRight" xlink:href="#dirArrow" transform="rotate(90) translate(36 -43)" onmousedown="handlePan(1,0)">
                  <use xlink:href="#rim" fill="#404040">
                        <set attributeName="fill" to="#808080" begin="arrowRight.mouseover" end="arrowRight.mouseout"/>
                  </use>
                  <path fill="none" stroke="white" stroke-width="1.5" d="M0,-3.0v7 M-2.5,-0.5L0,-3.0L2.5,-0.5"/>
                </g>
                <g id="arrowDown" xlink:href="#dirArrow" transform="rotate(180) translate(-30 -48)" onmousedown="handlePan(0,1)">
                  <use xlink:href="#rim" fill="#404040">
                        <set attributeName="fill" to="#808080" begin="arrowDown.mouseover" end="arrowDown.mouseout"/>
                  </use>
                  <path fill="none" stroke="white" stroke-width="1.5" d="M0,-3.0v7 M-2.5,-0.5L0,-3.0L2.5,-0.5"/>
                </g>
                <g id="arrowLeft" xlink:href="#dirArrow" transform="rotate(270) translate(-36 17)" onmousedown="handlePan(-1,0)">
                  <use xlink:href="#rim" fill="#404040">
                        <set attributeName="fill" to="#808080" begin="arrowLeft.mouseover" end="arrowLeft.mouseout"/>
                  </use>
                  <path fill="none" stroke="white" stroke-width="1.5" d="M0,-3.0v7 M-2.5,-0.5L0,-3.0L2.5,-0.5"/>
                </g>
        </g>
        <svg viewBox="0 0 15 15" width="100%" height="30px" preserveAspectRatio="xMaxYMin meet">
         <g id="arrow_out" transform="scale(0.3 0.3)">
          <a xlink:href="_body_force_8_h__incl_org.svg" target="_base">
           <rect id="button" ry="5" rx="5" y="6" x="6" height="38" width="38"
                fill="#f2f5e9" fill-opacity="0.5" stroke="#606060" stroke-width="1.0"/>
           <path id="arrow"
             d="M 11.500037,31.436501 C 11.940474,20.09759 22.043105,11.32322 32.158766,21.979434 L 37.068811,17.246167 C 37.068811,17.246167 37.088388,32 37.088388,32 L 22.160133,31.978069 C 22.160133,31.978069 26.997745,27.140456 26.997745,27.140456 C 18.528582,18.264221 13.291696,25.230495 11.500037,31.436501 z"
             style="fill:#404040;"/>
          </a>
         </g>
        </svg>
</svg>
