<?xml version="1.0" encoding="UTF-8" standalone="no"?>
<!DOCTYPE svg PUBLIC "-//W3C//DTD SVG 1.1//EN"
 "http://www.w3.org/Graphics/SVG/1.1/DTD/svg11.dtd">
<!-- Generated by graphviz version 2.43.0 (0)
 -->
<!-- Title: BoussinesqBuoyancy.cpp Pages: 1 -->
<svg width="2956pt" height="408pt"
 viewBox="0.00 0.00 2955.76 408.00" xmlns="http://www.w3.org/2000/svg" xmlns:xlink="http://www.w3.org/1999/xlink">
<g id="graph0" class="graph" transform="scale(1 1) rotate(0) translate(4 404)">
<title>BoussinesqBuoyancy.cpp</title>
<polygon fill="white" stroke="transparent" points="-4,4 -4,-404 2951.76,-404 2951.76,4 -4,4"/>
<!-- Node1 -->
<g id="node1" class="node">
<title>Node1</title>
<g id="a_node1"><a xlink:title=" ">
<polygon fill="#bfbfbf" stroke="black" points="374.26,-380.5 374.26,-399.5 513.26,-399.5 513.26,-380.5 374.26,-380.5"/>
<text text-anchor="middle" x="443.76" y="-387.5" font-family="Helvetica,sans-Serif" font-size="10.00">BoussinesqBuoyancy.cpp</text>
</a>
</g>
</g>
<!-- Node2 -->
<g id="node2" class="node">
<title>Node2</title>
<g id="a_node2"><a xlink:href="_boussinesq_buoyancy_8_h.html" target="_top" xlink:title=" ">
<polygon fill="white" stroke="black" points="261.76,-313.5 261.76,-343.5 485.76,-343.5 485.76,-313.5 261.76,-313.5"/>
<text text-anchor="start" x="269.76" y="-331.5" font-family="Helvetica,sans-Serif" font-size="10.00">amr&#45;wind/equation_systems</text>
<text text-anchor="middle" x="373.76" y="-320.5" font-family="Helvetica,sans-Serif" font-size="10.00">/icns/source_terms/BoussinesqBuoyancy.H</text>
</a>
</g>
</g>
<!-- Node1&#45;&gt;Node2 -->
<g id="edge1" class="edge">
<title>Node1&#45;&gt;Node2</title>
<path fill="none" stroke="midnightblue" d="M433.73,-380.48C424.43,-372.57 410.21,-360.48 397.96,-350.07"/>
<polygon fill="midnightblue" stroke="midnightblue" points="400.14,-347.33 390.26,-343.52 395.61,-352.67 400.14,-347.33"/>
</g>
<!-- Node7 -->
<g id="node7" class="node">
<title>Node7</title>
<g id="a_node7"><a xlink:href="_field_utils_8_h.html" target="_top" xlink:title=" ">
<polygon fill="white" stroke="black" points="81.76,-118 81.76,-137 227.76,-137 227.76,-118 81.76,-118"/>
<text text-anchor="middle" x="154.76" y="-125" font-family="Helvetica,sans-Serif" font-size="10.00">amr&#45;wind/core/FieldUtils.H</text>
</a>
</g>
</g>
<!-- Node1&#45;&gt;Node7 -->
<g id="edge81" class="edge">
<title>Node1&#45;&gt;Node7</title>
<path fill="none" stroke="midnightblue" d="M373.99,-387.31C334.58,-383.02 286.59,-371.79 252.76,-344 189.05,-291.66 165.01,-189.02 157.59,-147.05"/>
<polygon fill="midnightblue" stroke="midnightblue" points="161.03,-146.42 155.95,-137.12 154.13,-147.56 161.03,-146.42"/>
</g>
<!-- Node29 -->
<g id="node29" class="node">
<title>Node29</title>
<g id="a_node29"><a xlink:href="_c_f_d_sim_8_h.html" target="_top" xlink:title=" ">
<polygon fill="white" stroke="black" points="1576.76,-252 1576.76,-271 1692.76,-271 1692.76,-252 1576.76,-252"/>
<text text-anchor="middle" x="1634.76" y="-259" font-family="Helvetica,sans-Serif" font-size="10.00">amr&#45;wind/CFDSim.H</text>
</a>
</g>
</g>
<!-- Node1&#45;&gt;Node29 -->
<g id="edge51" class="edge">
<title>Node1&#45;&gt;Node29</title>
<path fill="none" stroke="midnightblue" d="M453.78,-380.24C476.22,-360.66 528.98,-314.88 533.76,-313 629.55,-275.46 1341.47,-265.35 1566.67,-263.08"/>
<polygon fill="midnightblue" stroke="midnightblue" points="1566.74,-266.58 1576.71,-262.98 1566.67,-259.58 1566.74,-266.58"/>
</g>
<!-- Node41 -->
<g id="node41" class="node">
<title>Node41</title>
<g id="a_node41"><a xlink:title=" ">
<polygon fill="white" stroke="#bfbfbf" points="542.26,-319 542.26,-338 661.26,-338 661.26,-319 542.26,-319"/>
<text text-anchor="middle" x="601.76" y="-326" font-family="Helvetica,sans-Serif" font-size="10.00">AMReX_ParmParse.H</text>
</a>
</g>
</g>
<!-- Node1&#45;&gt;Node41 -->
<g id="edge82" class="edge">
<title>Node1&#45;&gt;Node41</title>
<path fill="none" stroke="midnightblue" d="M466.4,-380.48C493.5,-370.27 539.07,-353.11 569.76,-341.55"/>
<polygon fill="midnightblue" stroke="midnightblue" points="571.04,-344.81 579.16,-338.01 568.57,-338.26 571.04,-344.81"/>
</g>
<!-- Node3 -->
<g id="node3" class="node">
<title>Node3</title>
<g id="a_node3"><a xlink:href="_field_repo_8_h.html" target="_top" xlink:title=" ">
<polygon fill="white" stroke="black" points="468.26,-185 468.26,-204 617.26,-204 617.26,-185 468.26,-185"/>
<text text-anchor="middle" x="542.76" y="-192" font-family="Helvetica,sans-Serif" font-size="10.00">amr&#45;wind/core/FieldRepo.H</text>
</a>
</g>
</g>
<!-- Node2&#45;&gt;Node3 -->
<g id="edge2" class="edge">
<title>Node2&#45;&gt;Node3</title>
<path fill="none" stroke="midnightblue" d="M391.85,-313.37C424.05,-288.22 491.02,-235.91 523.83,-210.29"/>
<polygon fill="midnightblue" stroke="midnightblue" points="526.03,-213.01 531.75,-204.1 521.72,-207.49 526.03,-213.01"/>
</g>
<!-- Node24 -->
<g id="node24" class="node">
<title>Node24</title>
<g id="a_node24"><a xlink:href="_momentum_source_8_h.html" target="_top" xlink:title=" ">
<polygon fill="white" stroke="black" points="243.26,-246.5 243.26,-276.5 398.26,-276.5 398.26,-246.5 243.26,-246.5"/>
<text text-anchor="start" x="251.26" y="-264.5" font-family="Helvetica,sans-Serif" font-size="10.00">amr&#45;wind/equation_systems</text>
<text text-anchor="middle" x="320.76" y="-253.5" font-family="Helvetica,sans-Serif" font-size="10.00">/icns/MomentumSource.H</text>
</a>
</g>
</g>
<!-- Node2&#45;&gt;Node24 -->
<g id="edge40" class="edge">
<title>Node2&#45;&gt;Node24</title>
<path fill="none" stroke="midnightblue" d="M362.26,-313.4C355.38,-304.96 346.5,-294.07 338.72,-284.52"/>
<polygon fill="midnightblue" stroke="midnightblue" points="341.27,-282.11 332.24,-276.58 335.84,-286.54 341.27,-282.11"/>
</g>
<!-- Node4 -->
<g id="node4" class="node">
<title>Node4</title>
<g id="a_node4"><a xlink:title=" ">
<polygon fill="white" stroke="#bfbfbf" points="1166.76,-0.5 1166.76,-19.5 1210.76,-19.5 1210.76,-0.5 1166.76,-0.5"/>
<text text-anchor="middle" x="1188.76" y="-7.5" font-family="Helvetica,sans-Serif" font-size="10.00">string</text>
</a>
</g>
</g>
<!-- Node3&#45;&gt;Node4 -->
<g id="edge3" class="edge">
<title>Node3&#45;&gt;Node4</title>
<path fill="none" stroke="midnightblue" d="M617.46,-189.55C729.4,-181.14 944.99,-155.17 1108.76,-76 1134.05,-63.78 1158.39,-42.11 1173.45,-27.18"/>
<polygon fill="midnightblue" stroke="midnightblue" points="1176.31,-29.26 1180.81,-19.67 1171.31,-24.36 1176.31,-29.26"/>
</g>
<!-- Node5 -->
<g id="node5" class="node">
<title>Node5</title>
<g id="a_node5"><a xlink:title=" ">
<polygon fill="white" stroke="#bfbfbf" points="1592.26,-56.5 1592.26,-75.5 1685.26,-75.5 1685.26,-56.5 1592.26,-56.5"/>
<text text-anchor="middle" x="1638.76" y="-63.5" font-family="Helvetica,sans-Serif" font-size="10.00">unordered_map</text>
</a>
</g>
</g>
<!-- Node3&#45;&gt;Node5 -->
<g id="edge4" class="edge">
<title>Node3&#45;&gt;Node5</title>
<path fill="none" stroke="midnightblue" d="M617.54,-191.86C765.49,-187.94 1090.45,-175.78 1196.76,-143 1223.21,-134.85 1224.48,-120.66 1250.76,-112 1310.9,-92.18 1489.77,-77.33 1582.15,-70.75"/>
<polygon fill="midnightblue" stroke="midnightblue" points="1582.43,-74.24 1592.16,-70.04 1581.94,-67.25 1582.43,-74.24"/>
</g>
<!-- Node6 -->
<g id="node6" class="node">
<title>Node6</title>
<g id="a_node6"><a xlink:href="_field_desc_types_8_h.html" target="_top" xlink:title=" ">
<polygon fill="white" stroke="black" points="430.76,-0.5 430.76,-19.5 606.76,-19.5 606.76,-0.5 430.76,-0.5"/>
<text text-anchor="middle" x="518.76" y="-7.5" font-family="Helvetica,sans-Serif" font-size="10.00">amr&#45;wind/core/FieldDescTypes.H</text>
</a>
</g>
</g>
<!-- Node3&#45;&gt;Node6 -->
<g id="edge5" class="edge">
<title>Node3&#45;&gt;Node6</title>
<path fill="none" stroke="midnightblue" d="M468.12,-185.76C431.81,-179.04 389.13,-166.47 356.76,-143 327.92,-122.09 322.97,-110.13 312.76,-76 310.21,-67.48 307.19,-62.92 312.76,-56 326.82,-38.53 374.6,-27.48 420.61,-20.7"/>
<polygon fill="midnightblue" stroke="midnightblue" points="421.28,-24.14 430.69,-19.27 420.3,-17.21 421.28,-24.14"/>
</g>
<!-- Node3&#45;&gt;Node7 -->
<g id="edge6" class="edge">
<title>Node3&#45;&gt;Node7</title>
<path fill="none" stroke="midnightblue" d="M491.64,-184.94C420.44,-173.01 291.65,-151.43 215.6,-138.69"/>
<polygon fill="midnightblue" stroke="midnightblue" points="216.13,-135.23 205.69,-137.03 214.97,-142.14 216.13,-135.23"/>
</g>
<!-- Node8 -->
<g id="node8" class="node">
<title>Node8</title>
<g id="a_node8"><a xlink:title=" ">
<polygon fill="white" stroke="#bfbfbf" points="769.26,-0.5 769.26,-19.5 878.26,-19.5 878.26,-0.5 769.26,-0.5"/>
<text text-anchor="middle" x="823.76" y="-7.5" font-family="Helvetica,sans-Serif" font-size="10.00">AMReX_MultiFab.H</text>
</a>
</g>
</g>
<!-- Node3&#45;&gt;Node8 -->
<g id="edge38" class="edge">
<title>Node3&#45;&gt;Node8</title>
<path fill="none" stroke="midnightblue" d="M545.22,-184.75C552.59,-160.17 576.97,-90.11 623.76,-56 662.82,-27.53 716.72,-16.6 758.72,-12.62"/>
<polygon fill="midnightblue" stroke="midnightblue" points="759.18,-16.09 768.86,-11.77 758.6,-9.11 759.18,-16.09"/>
</g>
<!-- Node10 -->
<g id="node10" class="node">
<title>Node10</title>
<g id="a_node10"><a xlink:href="_field_8_h.html" target="_top" xlink:title=" ">
<polygon fill="white" stroke="black" points="1389.76,-118 1389.76,-137 1513.76,-137 1513.76,-118 1389.76,-118"/>
<text text-anchor="middle" x="1451.76" y="-125" font-family="Helvetica,sans-Serif" font-size="10.00">amr&#45;wind/core/Field.H</text>
</a>
</g>
</g>
<!-- Node3&#45;&gt;Node10 -->
<g id="edge10" class="edge">
<title>Node3&#45;&gt;Node10</title>
<path fill="none" stroke="midnightblue" d="M617.45,-192.38C764.02,-189.44 1099.35,-179.02 1378.76,-143 1386.96,-141.94 1395.62,-140.51 1404,-138.95"/>
<polygon fill="midnightblue" stroke="midnightblue" points="1404.88,-142.35 1414.03,-137.01 1403.55,-135.47 1404.88,-142.35"/>
</g>
<!-- Node18 -->
<g id="node18" class="node">
<title>Node18</title>
<g id="a_node18"><a xlink:href="_int_field_8_h.html" target="_top" xlink:title=" ">
<polygon fill="white" stroke="black" points="377.26,-118 377.26,-137 514.26,-137 514.26,-118 377.26,-118"/>
<text text-anchor="middle" x="445.76" y="-125" font-family="Helvetica,sans-Serif" font-size="10.00">amr&#45;wind/core/IntField.H</text>
</a>
</g>
</g>
<!-- Node3&#45;&gt;Node18 -->
<g id="edge25" class="edge">
<title>Node3&#45;&gt;Node18</title>
<path fill="none" stroke="midnightblue" d="M529.68,-184.73C513.61,-173.96 486.13,-155.55 467.01,-142.74"/>
<polygon fill="midnightblue" stroke="midnightblue" points="468.89,-139.79 458.63,-137.13 464.99,-145.6 468.89,-139.79"/>
</g>
<!-- Node19 -->
<g id="node19" class="node">
<title>Node19</title>
<g id="a_node19"><a xlink:title=" ">
<polygon fill="white" stroke="#bfbfbf" points="321.76,-56.5 321.76,-75.5 433.76,-75.5 433.76,-56.5 321.76,-56.5"/>
<text text-anchor="middle" x="377.76" y="-63.5" font-family="Helvetica,sans-Serif" font-size="10.00">AMReX_iMultiFab.H</text>
</a>
</g>
</g>
<!-- Node3&#45;&gt;Node19 -->
<g id="edge39" class="edge">
<title>Node3&#45;&gt;Node19</title>
<path fill="none" stroke="midnightblue" d="M487.63,-184.94C441.97,-176.59 382.3,-162.33 367.76,-143 355.17,-126.27 361.84,-101.39 368.84,-84.71"/>
<polygon fill="midnightblue" stroke="midnightblue" points="372.07,-86.07 373.08,-75.52 365.71,-83.14 372.07,-86.07"/>
</g>
<!-- Node20 -->
<g id="node20" class="node">
<title>Node20</title>
<g id="a_node20"><a xlink:href="_scratch_field_8_h.html" target="_top" xlink:title=" ">
<polygon fill="white" stroke="black" points="637.76,-118 637.76,-137 797.76,-137 797.76,-118 637.76,-118"/>
<text text-anchor="middle" x="717.76" y="-125" font-family="Helvetica,sans-Serif" font-size="10.00">amr&#45;wind/core/ScratchField.H</text>
</a>
</g>
</g>
<!-- Node3&#45;&gt;Node20 -->
<g id="edge29" class="edge">
<title>Node3&#45;&gt;Node20</title>
<path fill="none" stroke="midnightblue" d="M566,-184.87C596.55,-173.52 650.39,-153.52 685.04,-140.65"/>
<polygon fill="midnightblue" stroke="midnightblue" points="686.55,-143.83 694.7,-137.06 684.11,-137.26 686.55,-143.83"/>
</g>
<!-- Node23 -->
<g id="node23" class="node">
<title>Node23</title>
<g id="a_node23"><a xlink:title=" ">
<polygon fill="white" stroke="#bfbfbf" points="1259.76,-118 1259.76,-137 1369.76,-137 1369.76,-118 1259.76,-118"/>
<text text-anchor="middle" x="1314.76" y="-125" font-family="Helvetica,sans-Serif" font-size="10.00">AMReX_AmrCore.H</text>
</a>
</g>
</g>
<!-- Node3&#45;&gt;Node23 -->
<g id="edge37" class="edge">
<title>Node3&#45;&gt;Node23</title>
<path fill="none" stroke="midnightblue" d="M617.3,-191.15C745.44,-186.43 1015.53,-173.52 1241.76,-143 1249.77,-141.92 1258.23,-140.5 1266.43,-138.97"/>
<polygon fill="midnightblue" stroke="midnightblue" points="1267.11,-142.41 1276.27,-137.07 1265.78,-135.53 1267.11,-142.41"/>
</g>
<!-- Node7&#45;&gt;Node6 -->
<g id="edge7" class="edge">
<title>Node7&#45;&gt;Node6</title>
<path fill="none" stroke="midnightblue" d="M158.05,-117.82C164.34,-102.5 179.66,-70.87 203.76,-56 239.08,-34.21 341.46,-22.5 420,-16.54"/>
<polygon fill="midnightblue" stroke="midnightblue" points="420.71,-20 430.43,-15.77 420.2,-13.02 420.71,-20"/>
</g>
<!-- Node7&#45;&gt;Node8 -->
<g id="edge8" class="edge">
<title>Node7&#45;&gt;Node8</title>
<path fill="none" stroke="midnightblue" d="M162.07,-117.83C175.81,-102.22 207.26,-69.74 241.76,-56 288.78,-37.27 616.76,-20.37 758.62,-13.85"/>
<polygon fill="midnightblue" stroke="midnightblue" points="759.09,-17.33 768.92,-13.38 758.77,-10.34 759.09,-17.33"/>
</g>
<!-- Node9 -->
<g id="node9" class="node">
<title>Node9</title>
<g id="a_node9"><a xlink:title=" ">
<polygon fill="white" stroke="#bfbfbf" points="27.76,-56.5 27.76,-75.5 151.76,-75.5 151.76,-56.5 27.76,-56.5"/>
<text text-anchor="middle" x="89.76" y="-63.5" font-family="Helvetica,sans-Serif" font-size="10.00">AMReX_Interpolater.H</text>
</a>
</g>
</g>
<!-- Node7&#45;&gt;Node9 -->
<g id="edge9" class="edge">
<title>Node7&#45;&gt;Node9</title>
<path fill="none" stroke="midnightblue" d="M145.45,-117.98C135.31,-108.7 118.9,-93.67 106.51,-82.33"/>
<polygon fill="midnightblue" stroke="midnightblue" points="108.8,-79.68 99.06,-75.51 104.07,-84.84 108.8,-79.68"/>
</g>
<!-- Node10&#45;&gt;Node4 -->
<g id="edge11" class="edge">
<title>Node10&#45;&gt;Node4</title>
<path fill="none" stroke="midnightblue" d="M1467.17,-117.8C1489.28,-104.26 1525.39,-77.45 1506.76,-56 1470,-13.67 1294.74,-10.08 1221.28,-10.48"/>
<polygon fill="midnightblue" stroke="midnightblue" points="1221.18,-6.98 1211.21,-10.57 1221.24,-13.98 1221.18,-6.98"/>
</g>
<!-- Node10&#45;&gt;Node5 -->
<g id="edge13" class="edge">
<title>Node10&#45;&gt;Node5</title>
<path fill="none" stroke="midnightblue" d="M1478.55,-117.98C1511.05,-107.64 1565.97,-90.16 1602.3,-78.6"/>
<polygon fill="midnightblue" stroke="midnightblue" points="1603.55,-81.88 1612.02,-75.51 1601.43,-75.21 1603.55,-81.88"/>
</g>
<!-- Node10&#45;&gt;Node6 -->
<g id="edge19" class="edge">
<title>Node10&#45;&gt;Node6</title>
<path fill="none" stroke="midnightblue" d="M1413.27,-117.93C1402.18,-115.71 1390.03,-113.52 1378.76,-112 1160.17,-82.46 1095.84,-136.65 883.76,-76 865.41,-70.75 863.93,-61.83 845.76,-56 771.16,-32.05 682.96,-20.85 616.98,-15.61"/>
<polygon fill="midnightblue" stroke="midnightblue" points="617.23,-12.12 607,-14.85 616.7,-19.1 617.23,-12.12"/>
</g>
<!-- Node10&#45;&gt;Node8 -->
<g id="edge15" class="edge">
<title>Node10&#45;&gt;Node8</title>
<path fill="none" stroke="midnightblue" d="M1409.32,-117.95C1399.31,-115.97 1388.66,-113.88 1378.76,-112 1197.84,-77.57 983.26,-39.23 882.08,-21.3"/>
<polygon fill="midnightblue" stroke="midnightblue" points="882.52,-17.82 872.06,-19.52 881.3,-24.71 882.52,-17.82"/>
</g>
<!-- Node11 -->
<g id="node11" class="node">
<title>Node11</title>
<g id="a_node11"><a xlink:title=" ">
<polygon fill="white" stroke="#bfbfbf" points="1781.76,-56.5 1781.76,-75.5 1839.76,-75.5 1839.76,-56.5 1781.76,-56.5"/>
<text text-anchor="middle" x="1810.76" y="-63.5" font-family="Helvetica,sans-Serif" font-size="10.00">memory</text>
</a>
</g>
</g>
<!-- Node10&#45;&gt;Node11 -->
<g id="edge12" class="edge">
<title>Node10&#45;&gt;Node11</title>
<path fill="none" stroke="midnightblue" d="M1513.84,-118.17C1576.47,-109.44 1676.13,-94.67 1771.27,-76.18"/>
<polygon fill="midnightblue" stroke="midnightblue" points="1772.21,-79.56 1781.35,-74.2 1770.86,-72.69 1772.21,-79.56"/>
</g>
<!-- Node12 -->
<g id="node12" class="node">
<title>Node12</title>
<g id="a_node12"><a xlink:title=" ">
<polygon fill="white" stroke="#bfbfbf" points="1210.76,-56.5 1210.76,-75.5 1274.76,-75.5 1274.76,-56.5 1210.76,-56.5"/>
<text text-anchor="middle" x="1242.76" y="-63.5" font-family="Helvetica,sans-Serif" font-size="10.00">algorithm</text>
</a>
</g>
</g>
<!-- Node10&#45;&gt;Node12 -->
<g id="edge14" class="edge">
<title>Node10&#45;&gt;Node12</title>
<path fill="none" stroke="midnightblue" d="M1421.82,-117.98C1385.19,-107.55 1323.06,-89.86 1282.48,-78.31"/>
<polygon fill="midnightblue" stroke="midnightblue" points="1283.23,-74.88 1272.65,-75.51 1281.31,-81.61 1283.23,-74.88"/>
</g>
<!-- Node13 -->
<g id="node13" class="node">
<title>Node13</title>
<g id="a_node13"><a xlink:title=" ">
<polygon fill="white" stroke="#bfbfbf" points="1293.26,-56.5 1293.26,-75.5 1392.26,-75.5 1392.26,-56.5 1293.26,-56.5"/>
<text text-anchor="middle" x="1342.76" y="-63.5" font-family="Helvetica,sans-Serif" font-size="10.00">AMReX_BCRec.H</text>
</a>
</g>
</g>
<!-- Node10&#45;&gt;Node13 -->
<g id="edge16" class="edge">
<title>Node10&#45;&gt;Node13</title>
<path fill="none" stroke="midnightblue" d="M1436.14,-117.98C1418.17,-108.17 1388.44,-91.93 1367.35,-80.42"/>
<polygon fill="midnightblue" stroke="midnightblue" points="1368.8,-77.23 1358.35,-75.51 1365.45,-83.37 1368.8,-77.23"/>
</g>
<!-- Node14 -->
<g id="node14" class="node">
<title>Node14</title>
<g id="a_node14"><a xlink:title=" ">
<polygon fill="white" stroke="#bfbfbf" points="1410.26,-56.5 1410.26,-75.5 1497.26,-75.5 1497.26,-56.5 1410.26,-56.5"/>
<text text-anchor="middle" x="1453.76" y="-63.5" font-family="Helvetica,sans-Serif" font-size="10.00">AMReX_Gpu.H</text>
</a>
</g>
</g>
<!-- Node10&#45;&gt;Node14 -->
<g id="edge17" class="edge">
<title>Node10&#45;&gt;Node14</title>
<path fill="none" stroke="midnightblue" d="M1452.05,-117.98C1452.33,-109.58 1452.77,-96.48 1453.13,-85.66"/>
<polygon fill="midnightblue" stroke="midnightblue" points="1456.64,-85.62 1453.47,-75.51 1449.64,-85.39 1456.64,-85.62"/>
</g>
<!-- Node15 -->
<g id="node15" class="node">
<title>Node15</title>
<g id="a_node15"><a xlink:href="incflo__enums_8_h.html" target="_top" xlink:title=" ">
<polygon fill="white" stroke="black" points="2084.26,-56.5 2084.26,-75.5 2225.26,-75.5 2225.26,-56.5 2084.26,-56.5"/>
<text text-anchor="middle" x="2154.76" y="-63.5" font-family="Helvetica,sans-Serif" font-size="10.00">amr&#45;wind/incflo_enums.H</text>
</a>
</g>
</g>
<!-- Node10&#45;&gt;Node15 -->
<g id="edge18" class="edge">
<title>Node10&#45;&gt;Node15</title>
<path fill="none" stroke="midnightblue" d="M1513.85,-119.81C1538.42,-117.24 1566.91,-114.36 1592.76,-112 1683.9,-103.67 1941.77,-83.5 2074.16,-73.23"/>
<polygon fill="midnightblue" stroke="midnightblue" points="2074.54,-76.71 2084.24,-72.45 2074,-69.73 2074.54,-76.71"/>
</g>
<!-- Node16 -->
<g id="node16" class="node">
<title>Node16</title>
<g id="a_node16"><a xlink:href="_view_field_8_h.html" target="_top" xlink:title=" ">
<polygon fill="white" stroke="black" points="892.76,-56.5 892.76,-75.5 1040.76,-75.5 1040.76,-56.5 892.76,-56.5"/>
<text text-anchor="middle" x="966.76" y="-63.5" font-family="Helvetica,sans-Serif" font-size="10.00">amr&#45;wind/core/ViewField.H</text>
</a>
</g>
</g>
<!-- Node10&#45;&gt;Node16 -->
<g id="edge20" class="edge">
<title>Node10&#45;&gt;Node16</title>
<path fill="none" stroke="midnightblue" d="M1412.09,-117.97C1401.31,-115.83 1389.62,-113.67 1378.76,-112 1347.29,-107.17 1162.44,-87.51 1051.31,-75.83"/>
<polygon fill="midnightblue" stroke="midnightblue" points="1051.43,-72.33 1041.12,-74.77 1050.7,-79.29 1051.43,-72.33"/>
</g>
<!-- Node16&#45;&gt;Node4 -->
<g id="edge21" class="edge">
<title>Node16&#45;&gt;Node4</title>
<path fill="none" stroke="midnightblue" d="M1005.68,-56.44C1042.26,-48.26 1098.77,-35.28 1156.43,-20.25"/>
<polygon fill="midnightblue" stroke="midnightblue" points="1157.66,-23.55 1166.45,-17.63 1155.89,-16.78 1157.66,-23.55"/>
</g>
<!-- Node16&#45;&gt;Node6 -->
<g id="edge22" class="edge">
<title>Node16&#45;&gt;Node6</title>
<path fill="none" stroke="midnightblue" d="M895.77,-56.44C815.16,-46.73 683.91,-30.91 599.47,-20.73"/>
<polygon fill="midnightblue" stroke="midnightblue" points="599.76,-17.24 589.42,-19.52 598.92,-24.19 599.76,-17.24"/>
</g>
<!-- Node16&#45;&gt;Node8 -->
<g id="edge23" class="edge">
<title>Node16&#45;&gt;Node8</title>
<path fill="none" stroke="midnightblue" d="M944.1,-56.44C920.36,-47.48 882.85,-33.31 856.02,-23.18"/>
<polygon fill="midnightblue" stroke="midnightblue" points="856.9,-19.77 846.31,-19.52 854.43,-26.32 856.9,-19.77"/>
</g>
<!-- Node17 -->
<g id="node17" class="node">
<title>Node17</title>
<g id="a_node17"><a xlink:title=" ">
<polygon fill="white" stroke="#bfbfbf" points="1050.76,-0.5 1050.76,-19.5 1148.76,-19.5 1148.76,-0.5 1050.76,-0.5"/>
<text text-anchor="middle" x="1099.76" y="-7.5" font-family="Helvetica,sans-Serif" font-size="10.00">AMReX_Vector.H</text>
</a>
</g>
</g>
<!-- Node16&#45;&gt;Node17 -->
<g id="edge24" class="edge">
<title>Node16&#45;&gt;Node17</title>
<path fill="none" stroke="midnightblue" d="M987.83,-56.44C1009.82,-47.52 1044.49,-33.44 1069.42,-23.32"/>
<polygon fill="midnightblue" stroke="midnightblue" points="1070.84,-26.52 1078.78,-19.52 1068.2,-20.04 1070.84,-26.52"/>
</g>
<!-- Node18&#45;&gt;Node4 -->
<g id="edge26" class="edge">
<title>Node18&#45;&gt;Node4</title>
<path fill="none" stroke="midnightblue" d="M463.38,-117.9C496.07,-102.41 568.7,-70.12 633.76,-56 858.66,-7.2 926.01,-59.26 1156.51,-19.82"/>
<polygon fill="midnightblue" stroke="midnightblue" points="1157.3,-23.24 1166.54,-18.07 1156.09,-16.34 1157.3,-23.24"/>
</g>
<!-- Node18&#45;&gt;Node6 -->
<g id="edge27" class="edge">
<title>Node18&#45;&gt;Node6</title>
<path fill="none" stroke="midnightblue" d="M450.37,-117.62C457.5,-104.06 471.84,-77.5 485.76,-56 491.95,-46.44 499.4,-36.18 505.67,-27.87"/>
<polygon fill="midnightblue" stroke="midnightblue" points="508.58,-29.82 511.87,-19.75 503.02,-25.57 508.58,-29.82"/>
</g>
<!-- Node18&#45;&gt;Node19 -->
<g id="edge28" class="edge">
<title>Node18&#45;&gt;Node19</title>
<path fill="none" stroke="midnightblue" d="M436.02,-117.98C425.41,-108.7 408.24,-93.67 395.28,-82.33"/>
<polygon fill="midnightblue" stroke="midnightblue" points="397.32,-79.46 387.48,-75.51 392.71,-84.73 397.32,-79.46"/>
</g>
<!-- Node20&#45;&gt;Node4 -->
<g id="edge30" class="edge">
<title>Node20&#45;&gt;Node4</title>
<path fill="none" stroke="midnightblue" d="M797.85,-123.64C871.33,-119.05 982.3,-107.09 1073.76,-76 1109.45,-63.87 1146.71,-40.52 1168.82,-25.36"/>
<polygon fill="midnightblue" stroke="midnightblue" points="1170.86,-28.21 1177.05,-19.61 1166.85,-22.47 1170.86,-28.21"/>
</g>
<!-- Node20&#45;&gt;Node6 -->
<g id="edge32" class="edge">
<title>Node20&#45;&gt;Node6</title>
<path fill="none" stroke="midnightblue" d="M700.95,-117.87C682.01,-108.05 650.39,-91.38 623.76,-76 594.65,-59.19 561.81,-38.59 540.73,-25.14"/>
<polygon fill="midnightblue" stroke="midnightblue" points="542.5,-22.12 532.19,-19.68 538.73,-28.02 542.5,-22.12"/>
</g>
<!-- Node20&#45;&gt;Node8 -->
<g id="edge34" class="edge">
<title>Node20&#45;&gt;Node8</title>
<path fill="none" stroke="midnightblue" d="M692.46,-117.95C660.74,-105.88 612.92,-82.36 633.76,-56 649.27,-36.39 709.99,-24.44 758.67,-17.83"/>
<polygon fill="midnightblue" stroke="midnightblue" points="759.39,-21.27 768.85,-16.5 758.48,-14.32 759.39,-21.27"/>
</g>
<!-- Node20&#45;&gt;Node16 -->
<g id="edge33" class="edge">
<title>Node20&#45;&gt;Node16</title>
<path fill="none" stroke="midnightblue" d="M753.44,-117.98C797.63,-107.42 872.97,-89.41 921.28,-77.87"/>
<polygon fill="midnightblue" stroke="midnightblue" points="922.24,-81.24 931.15,-75.51 920.61,-74.43 922.24,-81.24"/>
</g>
<!-- Node20&#45;&gt;Node17 -->
<g id="edge35" class="edge">
<title>Node20&#45;&gt;Node17</title>
<path fill="none" stroke="midnightblue" d="M798.08,-121.16C882.39,-114.35 1008.33,-100.44 1049.76,-76 1068.47,-64.96 1082.64,-43.99 1091.03,-28.85"/>
<polygon fill="midnightblue" stroke="midnightblue" points="1094.18,-30.39 1095.71,-19.9 1087.97,-27.15 1094.18,-30.39"/>
</g>
<!-- Node21 -->
<g id="node21" class="node">
<title>Node21</title>
<g id="a_node21"><a xlink:title=" ">
<polygon fill="white" stroke="#bfbfbf" points="642.26,-56.5 642.26,-75.5 687.26,-75.5 687.26,-56.5 642.26,-56.5"/>
<text text-anchor="middle" x="664.76" y="-63.5" font-family="Helvetica,sans-Serif" font-size="10.00">utility</text>
</a>
</g>
</g>
<!-- Node20&#45;&gt;Node21 -->
<g id="edge31" class="edge">
<title>Node20&#45;&gt;Node21</title>
<path fill="none" stroke="midnightblue" d="M710.17,-117.98C702.06,-108.87 689.03,-94.24 679,-82.98"/>
<polygon fill="midnightblue" stroke="midnightblue" points="681.6,-80.65 672.34,-75.51 676.38,-85.3 681.6,-80.65"/>
</g>
<!-- Node22 -->
<g id="node22" class="node">
<title>Node22</title>
<g id="a_node22"><a xlink:title=" ">
<polygon fill="white" stroke="#bfbfbf" points="705.26,-56.5 705.26,-75.5 836.26,-75.5 836.26,-56.5 705.26,-56.5"/>
<text text-anchor="middle" x="770.76" y="-63.5" font-family="Helvetica,sans-Serif" font-size="10.00">AMReX_PhysBCFunct.H</text>
</a>
</g>
</g>
<!-- Node20&#45;&gt;Node22 -->
<g id="edge36" class="edge">
<title>Node20&#45;&gt;Node22</title>
<path fill="none" stroke="midnightblue" d="M725.35,-117.98C733.46,-108.87 746.5,-94.24 756.52,-82.98"/>
<polygon fill="midnightblue" stroke="midnightblue" points="759.14,-85.3 763.18,-75.51 753.92,-80.65 759.14,-85.3"/>
</g>
<!-- Node24&#45;&gt;Node3 -->
<g id="edge49" class="edge">
<title>Node24&#45;&gt;Node3</title>
<path fill="none" stroke="midnightblue" d="M368.66,-246.48C408.97,-234.67 465.91,-218 503.56,-206.98"/>
<polygon fill="midnightblue" stroke="midnightblue" points="505.02,-210.2 513.63,-204.03 503.05,-203.48 505.02,-210.2"/>
</g>
<!-- Node24&#45;&gt;Node6 -->
<g id="edge47" class="edge">
<title>Node24&#45;&gt;Node6</title>
<path fill="none" stroke="midnightblue" d="M262.04,-246.39C152.61,-217.54 -64.22,-146.79 18.76,-56 45.27,-26.99 282.61,-16.52 420.55,-12.87"/>
<polygon fill="midnightblue" stroke="midnightblue" points="420.81,-16.36 430.71,-12.61 420.63,-9.36 420.81,-16.36"/>
</g>
<!-- Node24&#45;&gt;Node7 -->
<g id="edge48" class="edge">
<title>Node24&#45;&gt;Node7</title>
<path fill="none" stroke="midnightblue" d="M296.13,-246.36C280.13,-236.79 259.11,-223.49 241.76,-210 215.08,-189.26 187.04,-161.82 170.23,-144.67"/>
<polygon fill="midnightblue" stroke="midnightblue" points="172.41,-141.89 162.94,-137.15 167.39,-146.76 172.41,-141.89"/>
</g>
<!-- Node24&#45;&gt;Node8 -->
<g id="edge50" class="edge">
<title>Node24&#45;&gt;Node8</title>
<path fill="none" stroke="midnightblue" d="M314.31,-246.32C298.63,-209.5 263.33,-109.98 312.76,-56 327.64,-39.76 624.73,-21.74 758.93,-14.4"/>
<polygon fill="midnightblue" stroke="midnightblue" points="759.29,-17.88 769.08,-13.84 758.91,-10.89 759.29,-17.88"/>
</g>
<!-- Node25 -->
<g id="node25" class="node">
<title>Node25</title>
<g id="a_node25"><a xlink:href="_factory_8_h.html" target="_top" xlink:title=" ">
<polygon fill="white" stroke="black" points="1738.76,-118 1738.76,-137 1872.76,-137 1872.76,-118 1738.76,-118"/>
<text text-anchor="middle" x="1805.76" y="-125" font-family="Helvetica,sans-Serif" font-size="10.00">amr&#45;wind/core/Factory.H</text>
</a>
</g>
</g>
<!-- Node24&#45;&gt;Node25 -->
<g id="edge41" class="edge">
<title>Node24&#45;&gt;Node25</title>
<path fill="none" stroke="midnightblue" d="M398.72,-260.84C674.79,-261.6 1595.93,-260.31 1717.76,-210 1726.5,-206.39 1767.12,-166.9 1789.99,-144.24"/>
<polygon fill="midnightblue" stroke="midnightblue" points="1792.64,-146.55 1797.26,-137.01 1787.7,-141.58 1792.64,-146.55"/>
</g>
<!-- Node25&#45;&gt;Node5 -->
<g id="edge43" class="edge">
<title>Node25&#45;&gt;Node5</title>
<path fill="none" stroke="midnightblue" d="M1781.83,-117.98C1753.06,-107.72 1704.6,-90.46 1672.16,-78.9"/>
<polygon fill="midnightblue" stroke="midnightblue" points="1673.24,-75.57 1662.64,-75.51 1670.89,-82.16 1673.24,-75.57"/>
</g>
<!-- Node25&#45;&gt;Node11 -->
<g id="edge42" class="edge">
<title>Node25&#45;&gt;Node11</title>
<path fill="none" stroke="midnightblue" d="M1806.48,-117.98C1807.18,-109.58 1808.28,-96.48 1809.19,-85.66"/>
<polygon fill="midnightblue" stroke="midnightblue" points="1812.7,-85.77 1810.05,-75.51 1805.72,-85.18 1812.7,-85.77"/>
</g>
<!-- Node26 -->
<g id="node26" class="node">
<title>Node26</title>
<g id="a_node26"><a xlink:title=" ">
<polygon fill="white" stroke="#bfbfbf" points="1703.76,-56.5 1703.76,-75.5 1763.76,-75.5 1763.76,-56.5 1703.76,-56.5"/>
<text text-anchor="middle" x="1733.76" y="-63.5" font-family="Helvetica,sans-Serif" font-size="10.00">iostream</text>
</a>
</g>
</g>
<!-- Node25&#45;&gt;Node26 -->
<g id="edge44" class="edge">
<title>Node25&#45;&gt;Node26</title>
<path fill="none" stroke="midnightblue" d="M1795.44,-117.98C1784.11,-108.61 1765.69,-93.38 1751.92,-82.01"/>
<polygon fill="midnightblue" stroke="midnightblue" points="1754,-79.18 1744.06,-75.51 1749.54,-84.58 1754,-79.18"/>
</g>
<!-- Node27 -->
<g id="node27" class="node">
<title>Node27</title>
<g id="a_node27"><a xlink:title=" ">
<polygon fill="white" stroke="#bfbfbf" points="1857.76,-56.5 1857.76,-75.5 1947.76,-75.5 1947.76,-56.5 1857.76,-56.5"/>
<text text-anchor="middle" x="1902.76" y="-63.5" font-family="Helvetica,sans-Serif" font-size="10.00">AMReX_Print.H</text>
</a>
</g>
</g>
<!-- Node25&#45;&gt;Node27 -->
<g id="edge45" class="edge">
<title>Node25&#45;&gt;Node27</title>
<path fill="none" stroke="midnightblue" d="M1819.66,-117.98C1835.43,-108.3 1861.4,-92.37 1880.11,-80.89"/>
<polygon fill="midnightblue" stroke="midnightblue" points="1882.19,-83.72 1888.89,-75.51 1878.53,-77.75 1882.19,-83.72"/>
</g>
<!-- Node28 -->
<g id="node28" class="node">
<title>Node28</title>
<g id="a_node28"><a xlink:title=" ">
<polygon fill="white" stroke="#bfbfbf" points="1965.76,-56.5 1965.76,-75.5 2027.76,-75.5 2027.76,-56.5 1965.76,-56.5"/>
<text text-anchor="middle" x="1996.76" y="-63.5" font-family="Helvetica,sans-Serif" font-size="10.00">AMReX.H</text>
</a>
</g>
</g>
<!-- Node25&#45;&gt;Node28 -->
<g id="edge46" class="edge">
<title>Node25&#45;&gt;Node28</title>
<path fill="none" stroke="midnightblue" d="M1833.13,-117.98C1866.31,-107.64 1922.41,-90.16 1959.52,-78.6"/>
<polygon fill="midnightblue" stroke="midnightblue" points="1960.94,-81.82 1969.45,-75.51 1958.86,-75.14 1960.94,-81.82"/>
</g>
<!-- Node29&#45;&gt;Node3 -->
<g id="edge57" class="edge">
<title>Node29&#45;&gt;Node3</title>
<path fill="none" stroke="midnightblue" d="M1576.44,-257.03C1395.1,-246.23 840.63,-213.23 627.47,-200.54"/>
<polygon fill="midnightblue" stroke="midnightblue" points="627.47,-197.04 617.28,-199.94 627.05,-204.02 627.47,-197.04"/>
</g>
<!-- Node29&#45;&gt;Node23 -->
<g id="edge52" class="edge">
<title>Node29&#45;&gt;Node23</title>
<path fill="none" stroke="midnightblue" d="M1613.76,-251.84C1558.59,-229.08 1409.37,-167.53 1344.99,-140.97"/>
<polygon fill="midnightblue" stroke="midnightblue" points="1346,-137.6 1335.42,-137.02 1343.33,-144.07 1346,-137.6"/>
</g>
<!-- Node30 -->
<g id="node30" class="node">
<title>Node30</title>
<g id="a_node30"><a xlink:href="_sim_time_8_h.html" target="_top" xlink:title=" ">
<polygon fill="white" stroke="black" points="2616.76,-185 2616.76,-204 2760.76,-204 2760.76,-185 2616.76,-185"/>
<text text-anchor="middle" x="2688.76" y="-192" font-family="Helvetica,sans-Serif" font-size="10.00">amr&#45;wind/core/SimTime.H</text>
</a>
</g>
</g>
<!-- Node29&#45;&gt;Node30 -->
<g id="edge53" class="edge">
<title>Node29&#45;&gt;Node30</title>
<path fill="none" stroke="midnightblue" d="M1692.93,-256.91C1869.69,-246.01 2400.93,-213.25 2606.38,-200.58"/>
<polygon fill="midnightblue" stroke="midnightblue" points="2606.74,-204.06 2616.51,-199.96 2606.31,-197.08 2606.74,-204.06"/>
</g>
<!-- Node34 -->
<g id="node34" class="node">
<title>Node34</title>
<g id="a_node34"><a xlink:href="_p_d_e_base_8_h.html" target="_top" xlink:title=" ">
<polygon fill="white" stroke="black" points="2138.26,-179.5 2138.26,-209.5 2293.26,-209.5 2293.26,-179.5 2138.26,-179.5"/>
<text text-anchor="start" x="2146.26" y="-197.5" font-family="Helvetica,sans-Serif" font-size="10.00">amr&#45;wind/equation_systems</text>
<text text-anchor="middle" x="2215.76" y="-186.5" font-family="Helvetica,sans-Serif" font-size="10.00">/PDEBase.H</text>
</a>
</g>
</g>
<!-- Node29&#45;&gt;Node34 -->
<g id="edge58" class="edge">
<title>Node29&#45;&gt;Node34</title>
<path fill="none" stroke="midnightblue" d="M1692.86,-254C1795.07,-242.57 2007.57,-218.79 2127.84,-205.34"/>
<polygon fill="midnightblue" stroke="midnightblue" points="2128.56,-208.78 2138.11,-204.19 2127.78,-201.82 2128.56,-208.78"/>
</g>
<!-- Node38 -->
<g id="node38" class="node">
<title>Node38</title>
<g id="a_node38"><a xlink:href="_physics_8_h.html" target="_top" xlink:title=" ">
<polygon fill="white" stroke="black" points="1765.26,-185 1765.26,-204 1902.26,-204 1902.26,-185 1765.26,-185"/>
<text text-anchor="middle" x="1833.76" y="-192" font-family="Helvetica,sans-Serif" font-size="10.00">amr&#45;wind/core/Physics.H</text>
</a>
</g>
</g>
<!-- Node29&#45;&gt;Node38 -->
<g id="edge70" class="edge">
<title>Node29&#45;&gt;Node38</title>
<path fill="none" stroke="midnightblue" d="M1661.19,-251.87C1696.3,-240.4 1758.46,-220.09 1797.82,-207.24"/>
<polygon fill="midnightblue" stroke="midnightblue" points="1799.12,-210.5 1807.54,-204.06 1796.95,-203.84 1799.12,-210.5"/>
</g>
<!-- Node40 -->
<g id="node40" class="node">
<title>Node40</title>
<g id="a_node40"><a xlink:href="_mesh_map_8_h.html" target="_top" xlink:title=" ">
<polygon fill="white" stroke="black" points="1560.76,-185 1560.76,-204 1708.76,-204 1708.76,-185 1560.76,-185"/>
<text text-anchor="middle" x="1634.76" y="-192" font-family="Helvetica,sans-Serif" font-size="10.00">amr&#45;wind/core/MeshMap.H</text>
</a>
</g>
</g>
<!-- Node29&#45;&gt;Node40 -->
<g id="edge75" class="edge">
<title>Node29&#45;&gt;Node40</title>
<path fill="none" stroke="midnightblue" d="M1634.76,-251.73C1634.76,-242.18 1634.76,-226.62 1634.76,-214.28"/>
<polygon fill="midnightblue" stroke="midnightblue" points="1638.26,-214.13 1634.76,-204.13 1631.26,-214.13 1638.26,-214.13"/>
</g>
<!-- Node31 -->
<g id="node31" class="node">
<title>Node31</title>
<g id="a_node31"><a xlink:title=" ">
<polygon fill="white" stroke="#bfbfbf" points="2703.76,-118 2703.76,-137 2795.76,-137 2795.76,-118 2703.76,-118"/>
<text text-anchor="middle" x="2749.76" y="-125" font-family="Helvetica,sans-Serif" font-size="10.00">AMReX_REAL.H</text>
</a>
</g>
</g>
<!-- Node30&#45;&gt;Node31 -->
<g id="edge54" class="edge">
<title>Node30&#45;&gt;Node31</title>
<path fill="none" stroke="midnightblue" d="M2696.99,-184.73C2706.59,-174.5 2722.67,-157.36 2734.56,-144.69"/>
<polygon fill="midnightblue" stroke="midnightblue" points="2737.37,-146.81 2741.66,-137.13 2732.27,-142.02 2737.37,-146.81"/>
</g>
<!-- Node32 -->
<g id="node32" class="node">
<title>Node32</title>
<g id="a_node32"><a xlink:title=" ">
<polygon fill="white" stroke="#bfbfbf" points="2813.76,-118 2813.76,-137 2947.76,-137 2947.76,-118 2813.76,-118"/>
<text text-anchor="middle" x="2880.76" y="-125" font-family="Helvetica,sans-Serif" font-size="10.00">AMReX_GpuQualifiers.H</text>
</a>
</g>
</g>
<!-- Node30&#45;&gt;Node32 -->
<g id="edge55" class="edge">
<title>Node30&#45;&gt;Node32</title>
<path fill="none" stroke="midnightblue" d="M2714.26,-184.87C2748.06,-173.42 2807.86,-153.18 2845.84,-140.32"/>
<polygon fill="midnightblue" stroke="midnightblue" points="2847.11,-143.59 2855.46,-137.06 2844.87,-136.96 2847.11,-143.59"/>
</g>
<!-- Node33 -->
<g id="node33" class="node">
<title>Node33</title>
<g id="a_node33"><a xlink:title=" ">
<polygon fill="white" stroke="#bfbfbf" points="2569.76,-118 2569.76,-137 2685.76,-137 2685.76,-118 2569.76,-118"/>
<text text-anchor="middle" x="2627.76" y="-125" font-family="Helvetica,sans-Serif" font-size="10.00">AMReX_Extension.H</text>
</a>
</g>
</g>
<!-- Node30&#45;&gt;Node33 -->
<g id="edge56" class="edge">
<title>Node30&#45;&gt;Node33</title>
<path fill="none" stroke="midnightblue" d="M2680.53,-184.73C2670.93,-174.5 2654.85,-157.36 2642.96,-144.69"/>
<polygon fill="midnightblue" stroke="midnightblue" points="2645.25,-142.02 2635.86,-137.13 2640.15,-146.81 2645.25,-142.02"/>
</g>
<!-- Node34&#45;&gt;Node4 -->
<g id="edge59" class="edge">
<title>Node34&#45;&gt;Node4</title>
<path fill="none" stroke="midnightblue" d="M2237.06,-179.38C2248.49,-170.46 2261.49,-157.84 2267.76,-143 2282.99,-106.99 2284.85,-80.96 2254.76,-56 2214,-22.19 1395.22,-12.87 1221.13,-11.27"/>
<polygon fill="midnightblue" stroke="midnightblue" points="1221.08,-7.77 1211.05,-11.18 1221.02,-14.77 1221.08,-7.77"/>
</g>
<!-- Node34&#45;&gt;Node6 -->
<g id="edge68" class="edge">
<title>Node34&#45;&gt;Node6</title>
<path fill="none" stroke="midnightblue" d="M2224.31,-179.1C2239.66,-151.17 2267.41,-89.46 2234.76,-56 2206.16,-26.69 801.7,-21.26 760.76,-20 713.49,-18.54 661.04,-16.63 617.08,-14.94"/>
<polygon fill="midnightblue" stroke="midnightblue" points="617.1,-11.44 606.97,-14.55 616.83,-18.43 617.1,-11.44"/>
</g>
<!-- Node34&#45;&gt;Node15 -->
<g id="edge69" class="edge">
<title>Node34&#45;&gt;Node15</title>
<path fill="none" stroke="midnightblue" d="M2209,-179.48C2197.88,-156.41 2175.73,-110.48 2163.45,-85.03"/>
<polygon fill="midnightblue" stroke="midnightblue" points="2166.49,-83.28 2159,-75.79 2160.19,-86.32 2166.49,-83.28"/>
</g>
<!-- Node34&#45;&gt;Node25 -->
<g id="edge60" class="edge">
<title>Node34&#45;&gt;Node25</title>
<path fill="none" stroke="midnightblue" d="M2138.26,-182.54C2070.69,-172.8 1970.1,-157.84 1882.76,-143 1875.3,-141.73 1867.45,-140.33 1859.72,-138.91"/>
<polygon fill="midnightblue" stroke="midnightblue" points="1860.16,-135.44 1849.69,-137.05 1858.88,-142.32 1860.16,-135.44"/>
</g>
<!-- Node35 -->
<g id="node35" class="node">
<title>Node35</title>
<g id="a_node35"><a xlink:href="_coll_mgr_8_h.html" target="_top" xlink:title=" ">
<polygon fill="white" stroke="black" points="1891.26,-118 1891.26,-137 2028.26,-137 2028.26,-118 1891.26,-118"/>
<text text-anchor="middle" x="1959.76" y="-125" font-family="Helvetica,sans-Serif" font-size="10.00">amr&#45;wind/core/CollMgr.H</text>
</a>
</g>
</g>
<!-- Node34&#45;&gt;Node35 -->
<g id="edge61" class="edge">
<title>Node34&#45;&gt;Node35</title>
<path fill="none" stroke="midnightblue" d="M2160.53,-179.48C2113.44,-167.52 2046.69,-150.57 2003.31,-139.56"/>
<polygon fill="midnightblue" stroke="midnightblue" points="2003.9,-136.1 1993.35,-137.03 2002.18,-142.88 2003.9,-136.1"/>
</g>
<!-- Node36 -->
<g id="node36" class="node">
<title>Node36</title>
<g id="a_node36"><a xlink:href="_p_d_e_fields_8_h.html" target="_top" xlink:title=" ">
<polygon fill="white" stroke="black" points="2396.26,-112.5 2396.26,-142.5 2551.26,-142.5 2551.26,-112.5 2396.26,-112.5"/>
<text text-anchor="start" x="2404.26" y="-130.5" font-family="Helvetica,sans-Serif" font-size="10.00">amr&#45;wind/equation_systems</text>
<text text-anchor="middle" x="2473.76" y="-119.5" font-family="Helvetica,sans-Serif" font-size="10.00">/PDEFields.H</text>
</a>
</g>
</g>
<!-- Node34&#45;&gt;Node36 -->
<g id="edge66" class="edge">
<title>Node34&#45;&gt;Node36</title>
<path fill="none" stroke="midnightblue" d="M2271.42,-179.48C2311.47,-169.39 2365.63,-155.74 2407.84,-145.11"/>
<polygon fill="midnightblue" stroke="midnightblue" points="2408.91,-148.45 2417.75,-142.61 2407.2,-141.66 2408.91,-148.45"/>
</g>
<!-- Node35&#45;&gt;Node4 -->
<g id="edge62" class="edge">
<title>Node35&#45;&gt;Node4</title>
<path fill="none" stroke="midnightblue" d="M2028.27,-123.64C2101,-119 2208.97,-106.95 2234.76,-76 2240.45,-69.17 2240.91,-62.42 2234.76,-56 2198.85,-18.51 1393.94,-12.1 1221.21,-11.15"/>
<polygon fill="midnightblue" stroke="midnightblue" points="1221.22,-7.65 1211.21,-11.1 1221.19,-14.65 1221.22,-7.65"/>
</g>
<!-- Node35&#45;&gt;Node5 -->
<g id="edge64" class="edge">
<title>Node35&#45;&gt;Node5</title>
<path fill="none" stroke="midnightblue" d="M1913.98,-117.98C1903.4,-116.02 1892.19,-113.93 1881.76,-112 1817.76,-100.13 1744.28,-86.52 1695.02,-77.41"/>
<polygon fill="midnightblue" stroke="midnightblue" points="1695.36,-73.91 1684.89,-75.53 1694.09,-80.79 1695.36,-73.91"/>
</g>
<!-- Node35&#45;&gt;Node11 -->
<g id="edge63" class="edge">
<title>Node35&#45;&gt;Node11</title>
<path fill="none" stroke="midnightblue" d="M1938.41,-117.98C1913.07,-107.86 1870.62,-90.9 1841.69,-79.35"/>
<polygon fill="midnightblue" stroke="midnightblue" points="1842.65,-75.97 1832.07,-75.51 1840.06,-82.47 1842.65,-75.97"/>
</g>
<!-- Node35&#45;&gt;Node17 -->
<g id="edge65" class="edge">
<title>Node35&#45;&gt;Node17</title>
<path fill="none" stroke="midnightblue" d="M1981.56,-117.99C2011.58,-105.11 2059.48,-79.67 2036.76,-56 2004.24,-22.12 1267.47,-24.5 1159.09,-19.67"/>
<polygon fill="midnightblue" stroke="midnightblue" points="1159.27,-16.17 1149.07,-19.04 1158.83,-23.16 1159.27,-16.17"/>
</g>
<!-- Node37 -->
<g id="node37" class="node">
<title>Node37</title>
<g id="a_node37"><a xlink:title=" ">
<polygon fill="white" stroke="#bfbfbf" points="2449.76,-56.5 2449.76,-75.5 2497.76,-75.5 2497.76,-56.5 2449.76,-56.5"/>
<text text-anchor="middle" x="2473.76" y="-63.5" font-family="Helvetica,sans-Serif" font-size="10.00">iosfwd</text>
</a>
</g>
</g>
<!-- Node36&#45;&gt;Node37 -->
<g id="edge67" class="edge">
<title>Node36&#45;&gt;Node37</title>
<path fill="none" stroke="midnightblue" d="M2473.76,-112.4C2473.76,-104.47 2473.76,-94.46 2473.76,-85.86"/>
<polygon fill="midnightblue" stroke="midnightblue" points="2477.26,-85.66 2473.76,-75.66 2470.26,-85.66 2477.26,-85.66"/>
</g>
<!-- Node38&#45;&gt;Node8 -->
<g id="edge73" class="edge">
<title>Node38&#45;&gt;Node8</title>
<path fill="none" stroke="midnightblue" d="M1902.34,-191.61C2041.61,-185.58 2336.11,-160.45 2234.76,-56 2211.67,-32.21 1074.89,-21.18 1041.76,-20 990.24,-18.16 931.89,-15.73 888.53,-13.86"/>
<polygon fill="midnightblue" stroke="midnightblue" points="888.55,-10.36 878.4,-13.42 888.24,-17.35 888.55,-10.36"/>
</g>
<!-- Node38&#45;&gt;Node25 -->
<g id="edge71" class="edge">
<title>Node38&#45;&gt;Node25</title>
<path fill="none" stroke="midnightblue" d="M1829.98,-184.73C1825.79,-174.99 1818.89,-158.98 1813.53,-146.53"/>
<polygon fill="midnightblue" stroke="midnightblue" points="1816.65,-144.93 1809.48,-137.13 1810.22,-147.7 1816.65,-144.93"/>
</g>
<!-- Node38&#45;&gt;Node35 -->
<g id="edge72" class="edge">
<title>Node38&#45;&gt;Node35</title>
<path fill="none" stroke="midnightblue" d="M1850.49,-184.87C1871.86,-173.84 1909.06,-154.66 1934.04,-141.77"/>
<polygon fill="midnightblue" stroke="midnightblue" points="1935.68,-144.86 1942.96,-137.17 1932.47,-138.64 1935.68,-144.86"/>
</g>
<!-- Node39 -->
<g id="node39" class="node">
<title>Node39</title>
<g id="a_node39"><a xlink:title=" ">
<polygon fill="white" stroke="#bfbfbf" points="1601.26,-118 1601.26,-137 1716.26,-137 1716.26,-118 1601.26,-118"/>
<text text-anchor="middle" x="1658.76" y="-125" font-family="Helvetica,sans-Serif" font-size="10.00">AMReX_Geometry.H</text>
</a>
</g>
</g>
<!-- Node38&#45;&gt;Node39 -->
<g id="edge74" class="edge">
<title>Node38&#45;&gt;Node39</title>
<path fill="none" stroke="midnightblue" d="M1810.52,-184.87C1779.97,-173.52 1726.13,-153.52 1691.48,-140.65"/>
<polygon fill="midnightblue" stroke="midnightblue" points="1692.41,-137.26 1681.82,-137.06 1689.97,-143.83 1692.41,-137.26"/>
</g>
<!-- Node40&#45;&gt;Node8 -->
<g id="edge79" class="edge">
<title>Node40&#45;&gt;Node8</title>
<path fill="none" stroke="midnightblue" d="M1627.18,-184.63C1602.12,-155.39 1522.59,-63.52 1506.76,-56 1479.11,-42.87 1053.46,-21.72 888.44,-13.97"/>
<polygon fill="midnightblue" stroke="midnightblue" points="888.57,-10.47 878.42,-13.5 888.25,-17.46 888.57,-10.47"/>
</g>
<!-- Node40&#45;&gt;Node10 -->
<g id="edge78" class="edge">
<title>Node40&#45;&gt;Node10</title>
<path fill="none" stroke="midnightblue" d="M1610.46,-184.87C1578.38,-173.47 1521.73,-153.35 1485.51,-140.49"/>
<polygon fill="midnightblue" stroke="midnightblue" points="1486.46,-137.11 1475.87,-137.06 1484.12,-143.71 1486.46,-137.11"/>
</g>
<!-- Node40&#45;&gt;Node25 -->
<g id="edge77" class="edge">
<title>Node40&#45;&gt;Node25</title>
<path fill="none" stroke="midnightblue" d="M1657.47,-184.87C1687.32,-173.52 1739.93,-153.52 1773.79,-140.65"/>
<polygon fill="midnightblue" stroke="midnightblue" points="1775.13,-143.89 1783.23,-137.06 1772.64,-137.35 1775.13,-143.89"/>
</g>
<!-- Node40&#45;&gt;Node35 -->
<g id="edge76" class="edge">
<title>Node40&#45;&gt;Node35</title>
<path fill="none" stroke="midnightblue" d="M1677.58,-184.94C1736.73,-173.11 1843.34,-151.78 1907.23,-139.01"/>
<polygon fill="midnightblue" stroke="midnightblue" points="1907.98,-142.43 1917.1,-137.03 1906.61,-135.56 1907.98,-142.43"/>
</g>
<!-- Node40&#45;&gt;Node39 -->
<g id="edge80" class="edge">
<title>Node40&#45;&gt;Node39</title>
<path fill="none" stroke="midnightblue" d="M1638,-184.73C1641.6,-174.99 1647.51,-158.98 1652.1,-146.53"/>
<polygon fill="midnightblue" stroke="midnightblue" points="1655.39,-147.72 1655.57,-137.13 1648.83,-145.3 1655.39,-147.72"/>
</g>
</g>
</svg>
