<?xml version="1.0" encoding="UTF-8" standalone="no"?>
<!DOCTYPE svg PUBLIC "-//W3C//DTD SVG 1.1//EN"
 "http://www.w3.org/Graphics/SVG/1.1/DTD/svg11.dtd">
<!-- Generated by graphviz version 2.43.0 (0)
 -->
<!-- Title: CFDSim.H Pages: 1 -->
<svg width="2834pt" height="274pt"
 viewBox="0.00 0.00 2834.39 274.00" xmlns="http://www.w3.org/2000/svg" xmlns:xlink="http://www.w3.org/1999/xlink">
<g id="graph0" class="graph" transform="scale(1 1) rotate(0) translate(4 270)">
<title>CFDSim.H</title>
<polygon fill="white" stroke="transparent" points="-4,4 -4,-270 2830.39,-270 2830.39,4 -4,4"/>
<!-- Node1 -->
<g id="node1" class="node">
<title>Node1</title>
<g id="a_node1"><a xlink:title=" ">
<polygon fill="#bfbfbf" stroke="black" points="1605,-246.5 1605,-265.5 1671,-265.5 1671,-246.5 1605,-246.5"/>
<text text-anchor="middle" x="1638" y="-253.5" font-family="Helvetica,sans-Serif" font-size="10.00">CFDSim.H</text>
</a>
</g>
</g>
<!-- Node2 -->
<g id="node2" class="node">
<title>Node2</title>
<g id="a_node2"><a xlink:title=" ">
<polygon fill="white" stroke="#bfbfbf" points="396,-118 396,-137 506,-137 506,-118 396,-118"/>
<text text-anchor="middle" x="451" y="-125" font-family="Helvetica,sans-Serif" font-size="10.00">AMReX_AmrCore.H</text>
</a>
</g>
</g>
<!-- Node1&#45;&gt;Node2 -->
<g id="edge1" class="edge">
<title>Node1&#45;&gt;Node2</title>
<path fill="none" stroke="midnightblue" d="M1604.89,-253.15C1469.56,-245.28 945.58,-211.81 520,-143 513.1,-141.88 505.84,-140.54 498.73,-139.14"/>
<polygon fill="midnightblue" stroke="midnightblue" points="498.98,-135.61 488.48,-137.04 497.58,-142.47 498.98,-135.61"/>
</g>
<!-- Node3 -->
<g id="node3" class="node">
<title>Node3</title>
<g id="a_node3"><a xlink:href="_sim_time_8_h.html" target="_top" xlink:title=" ">
<polygon fill="white" stroke="black" points="199,-185 199,-204 343,-204 343,-185 199,-185"/>
<text text-anchor="middle" x="271" y="-192" font-family="Helvetica,sans-Serif" font-size="10.00">amr&#45;wind/core/SimTime.H</text>
</a>
</g>
</g>
<!-- Node1&#45;&gt;Node3 -->
<g id="edge2" class="edge">
<title>Node1&#45;&gt;Node3</title>
<path fill="none" stroke="midnightblue" d="M1604.89,-253.56C1430.56,-245.97 617.27,-210.57 353.69,-199.1"/>
<polygon fill="midnightblue" stroke="midnightblue" points="353.57,-195.59 343.42,-198.65 353.26,-202.58 353.57,-195.59"/>
</g>
<!-- Node7 -->
<g id="node7" class="node">
<title>Node7</title>
<g id="a_node7"><a xlink:href="_field_repo_8_h.html" target="_top" xlink:title=" ">
<polygon fill="white" stroke="black" points="1117.5,-185 1117.5,-204 1266.5,-204 1266.5,-185 1117.5,-185"/>
<text text-anchor="middle" x="1192" y="-192" font-family="Helvetica,sans-Serif" font-size="10.00">amr&#45;wind/core/FieldRepo.H</text>
</a>
</g>
</g>
<!-- Node1&#45;&gt;Node7 -->
<g id="edge6" class="edge">
<title>Node1&#45;&gt;Node7</title>
<path fill="none" stroke="midnightblue" d="M1604.84,-250.58C1533.58,-241.07 1364.33,-218.49 1266.09,-205.38"/>
<polygon fill="midnightblue" stroke="midnightblue" points="1266.31,-201.88 1255.93,-204.03 1265.38,-208.82 1266.31,-201.88"/>
</g>
<!-- Node27 -->
<g id="node27" class="node">
<title>Node27</title>
<g id="a_node27"><a xlink:href="_p_d_e_base_8_h.html" target="_top" xlink:title=" ">
<polygon fill="white" stroke="black" points="2008.5,-179.5 2008.5,-209.5 2163.5,-209.5 2163.5,-179.5 2008.5,-179.5"/>
<text text-anchor="start" x="2016.5" y="-197.5" font-family="Helvetica,sans-Serif" font-size="10.00">amr&#45;wind/equation_systems</text>
<text text-anchor="middle" x="2086" y="-186.5" font-family="Helvetica,sans-Serif" font-size="10.00">/PDEBase.H</text>
</a>
</g>
</g>
<!-- Node1&#45;&gt;Node27 -->
<g id="edge44" class="edge">
<title>Node1&#45;&gt;Node27</title>
<path fill="none" stroke="midnightblue" d="M1671.31,-250.58C1739.73,-241.49 1898.07,-220.46 1998.1,-207.17"/>
<polygon fill="midnightblue" stroke="midnightblue" points="1998.74,-210.62 2008.19,-205.83 1997.82,-203.68 1998.74,-210.62"/>
</g>
<!-- Node35 -->
<g id="node35" class="node">
<title>Node35</title>
<g id="a_node35"><a xlink:href="_physics_8_h.html" target="_top" xlink:title=" ">
<polygon fill="white" stroke="black" points="2518.5,-185 2518.5,-204 2655.5,-204 2655.5,-185 2518.5,-185"/>
<text text-anchor="middle" x="2587" y="-192" font-family="Helvetica,sans-Serif" font-size="10.00">amr&#45;wind/core/Physics.H</text>
</a>
</g>
</g>
<!-- Node1&#45;&gt;Node35 -->
<g id="edge61" class="edge">
<title>Node1&#45;&gt;Node35</title>
<path fill="none" stroke="midnightblue" d="M1671.1,-254.45C1785.41,-252.31 2174,-242.91 2493,-210 2504.31,-208.83 2516.33,-207.25 2527.86,-205.55"/>
<polygon fill="midnightblue" stroke="midnightblue" points="2528.48,-208.99 2537.85,-204.04 2527.44,-202.07 2528.48,-208.99"/>
</g>
<!-- Node37 -->
<g id="node37" class="node">
<title>Node37</title>
<g id="a_node37"><a xlink:href="_mesh_map_8_h.html" target="_top" xlink:title=" ">
<polygon fill="white" stroke="black" points="2336,-185 2336,-204 2484,-204 2484,-185 2336,-185"/>
<text text-anchor="middle" x="2410" y="-192" font-family="Helvetica,sans-Serif" font-size="10.00">amr&#45;wind/core/MeshMap.H</text>
</a>
</g>
</g>
<!-- Node1&#45;&gt;Node37 -->
<g id="edge66" class="edge">
<title>Node1&#45;&gt;Node37</title>
<path fill="none" stroke="midnightblue" d="M1671.17,-252.44C1784.3,-243.72 2157.28,-214.98 2325.9,-201.98"/>
<polygon fill="midnightblue" stroke="midnightblue" points="2326.28,-205.46 2335.98,-201.21 2325.74,-198.48 2326.28,-205.46"/>
</g>
<!-- Node4 -->
<g id="node4" class="node">
<title>Node4</title>
<g id="a_node4"><a xlink:title=" ">
<polygon fill="white" stroke="#bfbfbf" points="286,-118 286,-137 378,-137 378,-118 286,-118"/>
<text text-anchor="middle" x="332" y="-125" font-family="Helvetica,sans-Serif" font-size="10.00">AMReX_REAL.H</text>
</a>
</g>
</g>
<!-- Node3&#45;&gt;Node4 -->
<g id="edge3" class="edge">
<title>Node3&#45;&gt;Node4</title>
<path fill="none" stroke="midnightblue" d="M279.23,-184.73C288.83,-174.5 304.91,-157.36 316.8,-144.69"/>
<polygon fill="midnightblue" stroke="midnightblue" points="319.61,-146.81 323.9,-137.13 314.51,-142.02 319.61,-146.81"/>
</g>
<!-- Node5 -->
<g id="node5" class="node">
<title>Node5</title>
<g id="a_node5"><a xlink:title=" ">
<polygon fill="white" stroke="#bfbfbf" points="0,-118 0,-137 134,-137 134,-118 0,-118"/>
<text text-anchor="middle" x="67" y="-125" font-family="Helvetica,sans-Serif" font-size="10.00">AMReX_GpuQualifiers.H</text>
</a>
</g>
</g>
<!-- Node3&#45;&gt;Node5 -->
<g id="edge4" class="edge">
<title>Node3&#45;&gt;Node5</title>
<path fill="none" stroke="midnightblue" d="M243.91,-184.87C207.84,-173.38 143.92,-153.01 103.59,-140.16"/>
<polygon fill="midnightblue" stroke="midnightblue" points="104.47,-136.76 93.88,-137.06 102.34,-143.43 104.47,-136.76"/>
</g>
<!-- Node6 -->
<g id="node6" class="node">
<title>Node6</title>
<g id="a_node6"><a xlink:title=" ">
<polygon fill="white" stroke="#bfbfbf" points="152,-118 152,-137 268,-137 268,-118 152,-118"/>
<text text-anchor="middle" x="210" y="-125" font-family="Helvetica,sans-Serif" font-size="10.00">AMReX_Extension.H</text>
</a>
</g>
</g>
<!-- Node3&#45;&gt;Node6 -->
<g id="edge5" class="edge">
<title>Node3&#45;&gt;Node6</title>
<path fill="none" stroke="midnightblue" d="M262.77,-184.73C253.17,-174.5 237.09,-157.36 225.2,-144.69"/>
<polygon fill="midnightblue" stroke="midnightblue" points="227.49,-142.02 218.1,-137.13 222.39,-146.81 227.49,-142.02"/>
</g>
<!-- Node7&#45;&gt;Node2 -->
<g id="edge41" class="edge">
<title>Node7&#45;&gt;Node2</title>
<path fill="none" stroke="midnightblue" d="M1117.07,-191.1C992.57,-186.39 735.45,-173.6 520,-143 512.5,-141.93 504.59,-140.54 496.92,-139.03"/>
<polygon fill="midnightblue" stroke="midnightblue" points="497.51,-135.58 487.01,-137.01 496.11,-142.44 497.51,-135.58"/>
</g>
<!-- Node8 -->
<g id="node8" class="node">
<title>Node8</title>
<g id="a_node8"><a xlink:title=" ">
<polygon fill="white" stroke="#bfbfbf" points="1316,-0.5 1316,-19.5 1360,-19.5 1360,-0.5 1316,-0.5"/>
<text text-anchor="middle" x="1338" y="-7.5" font-family="Helvetica,sans-Serif" font-size="10.00">string</text>
</a>
</g>
</g>
<!-- Node7&#45;&gt;Node8 -->
<g id="edge7" class="edge">
<title>Node7&#45;&gt;Node8</title>
<path fill="none" stroke="midnightblue" d="M1215.99,-184.9C1235.71,-176.77 1263.21,-162.84 1281,-143 1296.8,-125.38 1320.47,-61.43 1331.68,-29.46"/>
<polygon fill="midnightblue" stroke="midnightblue" points="1335.13,-30.21 1335.09,-19.61 1328.51,-27.92 1335.13,-30.21"/>
</g>
<!-- Node9 -->
<g id="node9" class="node">
<title>Node9</title>
<g id="a_node9"><a xlink:title=" ">
<polygon fill="white" stroke="#bfbfbf" points="2253.5,-56.5 2253.5,-75.5 2346.5,-75.5 2346.5,-56.5 2253.5,-56.5"/>
<text text-anchor="middle" x="2300" y="-63.5" font-family="Helvetica,sans-Serif" font-size="10.00">unordered_map</text>
</a>
</g>
</g>
<!-- Node7&#45;&gt;Node9 -->
<g id="edge8" class="edge">
<title>Node7&#45;&gt;Node9</title>
<path fill="none" stroke="midnightblue" d="M1266.57,-192.42C1505.6,-188.65 2239.49,-174.55 2279,-143 2295.93,-129.48 2299.95,-103.64 2300.56,-85.87"/>
<polygon fill="midnightblue" stroke="midnightblue" points="2304.06,-85.8 2300.57,-75.8 2297.06,-85.8 2304.06,-85.8"/>
</g>
<!-- Node10 -->
<g id="node10" class="node">
<title>Node10</title>
<g id="a_node10"><a xlink:href="_field_desc_types_8_h.html" target="_top" xlink:title=" ">
<polygon fill="white" stroke="black" points="842,-0.5 842,-19.5 1018,-19.5 1018,-0.5 842,-0.5"/>
<text text-anchor="middle" x="930" y="-7.5" font-family="Helvetica,sans-Serif" font-size="10.00">amr&#45;wind/core/FieldDescTypes.H</text>
</a>
</g>
</g>
<!-- Node7&#45;&gt;Node10 -->
<g id="edge9" class="edge">
<title>Node7&#45;&gt;Node10</title>
<path fill="none" stroke="midnightblue" d="M1117.39,-189.12C975.31,-180.45 676.07,-160.39 632,-143 586.93,-125.21 567.27,-119.53 546,-76 542.1,-68.01 540.09,-62.64 546,-56 550.8,-50.6 723.09,-32.08 835.24,-20.55"/>
<polygon fill="midnightblue" stroke="midnightblue" points="835.63,-24.03 845.22,-19.53 834.91,-17.07 835.63,-24.03"/>
</g>
<!-- Node11 -->
<g id="node11" class="node">
<title>Node11</title>
<g id="a_node11"><a xlink:href="_field_utils_8_h.html" target="_top" xlink:title=" ">
<polygon fill="white" stroke="black" points="723,-56.5 723,-75.5 869,-75.5 869,-56.5 723,-56.5"/>
<text text-anchor="middle" x="796" y="-63.5" font-family="Helvetica,sans-Serif" font-size="10.00">amr&#45;wind/core/FieldUtils.H</text>
</a>
</g>
</g>
<!-- Node7&#45;&gt;Node11 -->
<g id="edge10" class="edge">
<title>Node7&#45;&gt;Node11</title>
<path fill="none" stroke="midnightblue" d="M1117.46,-192.69C1052.67,-189.4 957.75,-178.19 883,-143 853.06,-128.9 825.57,-101.41 809.81,-83.64"/>
<polygon fill="midnightblue" stroke="midnightblue" points="812.24,-81.09 803.06,-75.8 806.94,-85.66 812.24,-81.09"/>
</g>
<!-- Node12 -->
<g id="node12" class="node">
<title>Node12</title>
<g id="a_node12"><a xlink:title=" ">
<polygon fill="white" stroke="#bfbfbf" points="1906.5,-0.5 1906.5,-19.5 2015.5,-19.5 2015.5,-0.5 1906.5,-0.5"/>
<text text-anchor="middle" x="1961" y="-7.5" font-family="Helvetica,sans-Serif" font-size="10.00">AMReX_MultiFab.H</text>
</a>
</g>
</g>
<!-- Node7&#45;&gt;Node12 -->
<g id="edge42" class="edge">
<title>Node7&#45;&gt;Node12</title>
<path fill="none" stroke="midnightblue" d="M1266.66,-191.51C1438.04,-186.46 1849.24,-171.51 1905,-143 1939.55,-125.33 1947.76,-112.48 1961,-76 1966.36,-61.23 1965.89,-43.3 1964.35,-30.02"/>
<polygon fill="midnightblue" stroke="midnightblue" points="1967.75,-29.12 1962.83,-19.74 1960.83,-30.14 1967.75,-29.12"/>
</g>
<!-- Node14 -->
<g id="node14" class="node">
<title>Node14</title>
<g id="a_node14"><a xlink:href="_field_8_h.html" target="_top" xlink:title=" ">
<polygon fill="white" stroke="black" points="1772,-118 1772,-137 1896,-137 1896,-118 1772,-118"/>
<text text-anchor="middle" x="1834" y="-125" font-family="Helvetica,sans-Serif" font-size="10.00">amr&#45;wind/core/Field.H</text>
</a>
</g>
</g>
<!-- Node7&#45;&gt;Node14 -->
<g id="edge14" class="edge">
<title>Node7&#45;&gt;Node14</title>
<path fill="none" stroke="midnightblue" d="M1266.59,-185.95C1390.96,-173.36 1639.15,-148.23 1761.87,-135.8"/>
<polygon fill="midnightblue" stroke="midnightblue" points="1762.32,-139.28 1771.92,-134.79 1761.62,-132.31 1762.32,-139.28"/>
</g>
<!-- Node22 -->
<g id="node22" class="node">
<title>Node22</title>
<g id="a_node22"><a xlink:href="_int_field_8_h.html" target="_top" xlink:title=" ">
<polygon fill="white" stroke="black" points="675.5,-118 675.5,-137 812.5,-137 812.5,-118 675.5,-118"/>
<text text-anchor="middle" x="744" y="-125" font-family="Helvetica,sans-Serif" font-size="10.00">amr&#45;wind/core/IntField.H</text>
</a>
</g>
</g>
<!-- Node7&#45;&gt;Node22 -->
<g id="edge29" class="edge">
<title>Node7&#45;&gt;Node22</title>
<path fill="none" stroke="midnightblue" d="M1131.07,-184.96C1060.69,-175.05 941.43,-158.14 839,-143 829.34,-141.57 819.14,-140.04 809.14,-138.53"/>
<polygon fill="midnightblue" stroke="midnightblue" points="809.66,-135.06 799.24,-137.02 808.61,-141.98 809.66,-135.06"/>
</g>
<!-- Node23 -->
<g id="node23" class="node">
<title>Node23</title>
<g id="a_node23"><a xlink:title=" ">
<polygon fill="white" stroke="#bfbfbf" points="555,-56.5 555,-75.5 667,-75.5 667,-56.5 555,-56.5"/>
<text text-anchor="middle" x="611" y="-63.5" font-family="Helvetica,sans-Serif" font-size="10.00">AMReX_iMultiFab.H</text>
</a>
</g>
</g>
<!-- Node7&#45;&gt;Node23 -->
<g id="edge43" class="edge">
<title>Node7&#45;&gt;Node23</title>
<path fill="none" stroke="midnightblue" d="M1117.48,-193.78C991.09,-193.05 741.08,-185.99 666,-143 643.21,-129.95 627.31,-103.19 618.66,-85.16"/>
<polygon fill="midnightblue" stroke="midnightblue" points="621.81,-83.64 614.51,-75.96 615.43,-86.52 621.81,-83.64"/>
</g>
<!-- Node24 -->
<g id="node24" class="node">
<title>Node24</title>
<g id="a_node24"><a xlink:href="_scratch_field_8_h.html" target="_top" xlink:title=" ">
<polygon fill="white" stroke="black" points="1112,-118 1112,-137 1272,-137 1272,-118 1112,-118"/>
<text text-anchor="middle" x="1192" y="-125" font-family="Helvetica,sans-Serif" font-size="10.00">amr&#45;wind/core/ScratchField.H</text>
</a>
</g>
</g>
<!-- Node7&#45;&gt;Node24 -->
<g id="edge33" class="edge">
<title>Node7&#45;&gt;Node24</title>
<path fill="none" stroke="midnightblue" d="M1192,-184.73C1192,-175.18 1192,-159.62 1192,-147.28"/>
<polygon fill="midnightblue" stroke="midnightblue" points="1195.5,-147.13 1192,-137.13 1188.5,-147.13 1195.5,-147.13"/>
</g>
<!-- Node11&#45;&gt;Node10 -->
<g id="edge11" class="edge">
<title>Node11&#45;&gt;Node10</title>
<path fill="none" stroke="midnightblue" d="M817.23,-56.44C839.38,-47.52 874.32,-33.44 899.44,-23.32"/>
<polygon fill="midnightblue" stroke="midnightblue" points="900.9,-26.5 908.87,-19.52 898.28,-20.01 900.9,-26.5"/>
</g>
<!-- Node11&#45;&gt;Node12 -->
<g id="edge12" class="edge">
<title>Node11&#45;&gt;Node12</title>
<path fill="none" stroke="midnightblue" d="M869.32,-61.6C1081.76,-51.75 1695.34,-23.31 1896.38,-14"/>
<polygon fill="midnightblue" stroke="midnightblue" points="1896.66,-17.49 1906.49,-13.53 1896.34,-10.49 1896.66,-17.49"/>
</g>
<!-- Node13 -->
<g id="node13" class="node">
<title>Node13</title>
<g id="a_node13"><a xlink:title=" ">
<polygon fill="white" stroke="#bfbfbf" points="700,-0.5 700,-19.5 824,-19.5 824,-0.5 700,-0.5"/>
<text text-anchor="middle" x="762" y="-7.5" font-family="Helvetica,sans-Serif" font-size="10.00">AMReX_Interpolater.H</text>
</a>
</g>
</g>
<!-- Node11&#45;&gt;Node13 -->
<g id="edge13" class="edge">
<title>Node11&#45;&gt;Node13</title>
<path fill="none" stroke="midnightblue" d="M790.39,-56.08C785.63,-48.53 778.68,-37.49 772.85,-28.23"/>
<polygon fill="midnightblue" stroke="midnightblue" points="775.8,-26.35 767.51,-19.75 769.88,-30.08 775.8,-26.35"/>
</g>
<!-- Node14&#45;&gt;Node8 -->
<g id="edge15" class="edge">
<title>Node14&#45;&gt;Node8</title>
<path fill="none" stroke="midnightblue" d="M1771.79,-122.26C1675.09,-115.06 1493.52,-98.96 1433,-76 1402.81,-64.55 1372.89,-41.66 1354.92,-26.33"/>
<polygon fill="midnightblue" stroke="midnightblue" points="1356.94,-23.45 1347.11,-19.5 1352.33,-28.72 1356.94,-23.45"/>
</g>
<!-- Node14&#45;&gt;Node9 -->
<g id="edge17" class="edge">
<title>Node14&#45;&gt;Node9</title>
<path fill="none" stroke="midnightblue" d="M1896.26,-119.55C1974.65,-110.65 2113.69,-94.31 2243.17,-76.07"/>
<polygon fill="midnightblue" stroke="midnightblue" points="2243.86,-79.51 2253.27,-74.64 2242.88,-72.58 2243.86,-79.51"/>
</g>
<!-- Node14&#45;&gt;Node10 -->
<g id="edge23" class="edge">
<title>Node14&#45;&gt;Node10</title>
<path fill="none" stroke="midnightblue" d="M1771.86,-119.89C1686.43,-110.68 1527.92,-93.19 1393,-76 1252.09,-58.04 1087.46,-34.26 997.4,-21.01"/>
<polygon fill="midnightblue" stroke="midnightblue" points="997.72,-17.52 987.32,-19.53 996.7,-24.45 997.72,-17.52"/>
</g>
<!-- Node14&#45;&gt;Node12 -->
<g id="edge19" class="edge">
<title>Node14&#45;&gt;Node12</title>
<path fill="none" stroke="midnightblue" d="M1870.09,-117.94C1893.69,-110.57 1923.47,-97.6 1942,-76 1953.11,-63.04 1957.73,-43.88 1959.65,-29.71"/>
<polygon fill="midnightblue" stroke="midnightblue" points="1963.14,-29.94 1960.68,-19.64 1956.18,-29.23 1963.14,-29.94"/>
</g>
<!-- Node15 -->
<g id="node15" class="node">
<title>Node15</title>
<g id="a_node15"><a xlink:title=" ">
<polygon fill="white" stroke="#bfbfbf" points="2365,-56.5 2365,-75.5 2423,-75.5 2423,-56.5 2365,-56.5"/>
<text text-anchor="middle" x="2394" y="-63.5" font-family="Helvetica,sans-Serif" font-size="10.00">memory</text>
</a>
</g>
</g>
<!-- Node14&#45;&gt;Node15 -->
<g id="edge16" class="edge">
<title>Node14&#45;&gt;Node15</title>
<path fill="none" stroke="midnightblue" d="M1896.23,-123.23C1992.57,-117.55 2183.72,-103.89 2354.69,-76.01"/>
<polygon fill="midnightblue" stroke="midnightblue" points="2355.33,-79.46 2364.62,-74.38 2354.19,-72.55 2355.33,-79.46"/>
</g>
<!-- Node16 -->
<g id="node16" class="node">
<title>Node16</title>
<g id="a_node16"><a xlink:title=" ">
<polygon fill="white" stroke="#bfbfbf" points="1646,-56.5 1646,-75.5 1710,-75.5 1710,-56.5 1646,-56.5"/>
<text text-anchor="middle" x="1678" y="-63.5" font-family="Helvetica,sans-Serif" font-size="10.00">algorithm</text>
</a>
</g>
</g>
<!-- Node14&#45;&gt;Node16 -->
<g id="edge18" class="edge">
<title>Node14&#45;&gt;Node16</title>
<path fill="none" stroke="midnightblue" d="M1811.65,-117.98C1785.01,-107.81 1740.29,-90.76 1709.99,-79.2"/>
<polygon fill="midnightblue" stroke="midnightblue" points="1710.9,-75.8 1700.31,-75.51 1708.41,-82.34 1710.9,-75.8"/>
</g>
<!-- Node17 -->
<g id="node17" class="node">
<title>Node17</title>
<g id="a_node17"><a xlink:title=" ">
<polygon fill="white" stroke="#bfbfbf" points="1728.5,-56.5 1728.5,-75.5 1827.5,-75.5 1827.5,-56.5 1728.5,-56.5"/>
<text text-anchor="middle" x="1778" y="-63.5" font-family="Helvetica,sans-Serif" font-size="10.00">AMReX_BCRec.H</text>
</a>
</g>
</g>
<!-- Node14&#45;&gt;Node17 -->
<g id="edge20" class="edge">
<title>Node14&#45;&gt;Node17</title>
<path fill="none" stroke="midnightblue" d="M1825.98,-117.98C1817.41,-108.87 1803.64,-94.24 1793.04,-82.98"/>
<polygon fill="midnightblue" stroke="midnightblue" points="1795.41,-80.39 1786.01,-75.51 1790.31,-85.19 1795.41,-80.39"/>
</g>
<!-- Node18 -->
<g id="node18" class="node">
<title>Node18</title>
<g id="a_node18"><a xlink:title=" ">
<polygon fill="white" stroke="#bfbfbf" points="1845.5,-56.5 1845.5,-75.5 1932.5,-75.5 1932.5,-56.5 1845.5,-56.5"/>
<text text-anchor="middle" x="1889" y="-63.5" font-family="Helvetica,sans-Serif" font-size="10.00">AMReX_Gpu.H</text>
</a>
</g>
</g>
<!-- Node14&#45;&gt;Node18 -->
<g id="edge21" class="edge">
<title>Node14&#45;&gt;Node18</title>
<path fill="none" stroke="midnightblue" d="M1841.88,-117.98C1850.29,-108.87 1863.82,-94.24 1874.23,-82.98"/>
<polygon fill="midnightblue" stroke="midnightblue" points="1876.92,-85.23 1881.13,-75.51 1871.78,-80.48 1876.92,-85.23"/>
</g>
<!-- Node19 -->
<g id="node19" class="node">
<title>Node19</title>
<g id="a_node19"><a xlink:href="incflo__enums_8_h.html" target="_top" xlink:title=" ">
<polygon fill="white" stroke="black" points="2027.5,-56.5 2027.5,-75.5 2168.5,-75.5 2168.5,-56.5 2027.5,-56.5"/>
<text text-anchor="middle" x="2098" y="-63.5" font-family="Helvetica,sans-Serif" font-size="10.00">amr&#45;wind/incflo_enums.H</text>
</a>
</g>
</g>
<!-- Node14&#45;&gt;Node19 -->
<g id="edge22" class="edge">
<title>Node14&#45;&gt;Node19</title>
<path fill="none" stroke="midnightblue" d="M1871.82,-117.98C1918.87,-107.37 1999.23,-89.26 2050.42,-77.72"/>
<polygon fill="midnightblue" stroke="midnightblue" points="2051.26,-81.12 2060.25,-75.51 2049.72,-74.29 2051.26,-81.12"/>
</g>
<!-- Node20 -->
<g id="node20" class="node">
<title>Node20</title>
<g id="a_node20"><a xlink:href="_view_field_8_h.html" target="_top" xlink:title=" ">
<polygon fill="white" stroke="black" points="1442,-56.5 1442,-75.5 1590,-75.5 1590,-56.5 1442,-56.5"/>
<text text-anchor="middle" x="1516" y="-63.5" font-family="Helvetica,sans-Serif" font-size="10.00">amr&#45;wind/core/ViewField.H</text>
</a>
</g>
</g>
<!-- Node14&#45;&gt;Node20 -->
<g id="edge24" class="edge">
<title>Node14&#45;&gt;Node20</title>
<path fill="none" stroke="midnightblue" d="M1788.44,-117.98C1731.17,-107.26 1632.95,-88.88 1571.4,-77.37"/>
<polygon fill="midnightblue" stroke="midnightblue" points="1571.95,-73.91 1561.48,-75.51 1570.66,-80.79 1571.95,-73.91"/>
</g>
<!-- Node20&#45;&gt;Node8 -->
<g id="edge25" class="edge">
<title>Node20&#45;&gt;Node8</title>
<path fill="none" stroke="midnightblue" d="M1487.8,-56.44C1455.72,-46.71 1403.48,-30.86 1369.93,-20.69"/>
<polygon fill="midnightblue" stroke="midnightblue" points="1370.75,-17.28 1360.17,-17.73 1368.72,-23.98 1370.75,-17.28"/>
</g>
<!-- Node20&#45;&gt;Node10 -->
<g id="edge26" class="edge">
<title>Node20&#45;&gt;Node10</title>
<path fill="none" stroke="midnightblue" d="M1441.78,-58.16C1336.89,-48.5 1145.1,-30.82 1028.42,-20.07"/>
<polygon fill="midnightblue" stroke="midnightblue" points="1028.7,-16.58 1018.42,-19.15 1028.05,-23.55 1028.7,-16.58"/>
</g>
<!-- Node20&#45;&gt;Node12 -->
<g id="edge27" class="edge">
<title>Node20&#45;&gt;Node12</title>
<path fill="none" stroke="midnightblue" d="M1586.51,-56.44C1671.68,-46.11 1813.75,-28.87 1896.25,-18.86"/>
<polygon fill="midnightblue" stroke="midnightblue" points="1896.74,-22.32 1906.25,-17.64 1895.9,-15.37 1896.74,-22.32"/>
</g>
<!-- Node21 -->
<g id="node21" class="node">
<title>Node21</title>
<g id="a_node21"><a xlink:title=" ">
<polygon fill="white" stroke="#bfbfbf" points="1467,-0.5 1467,-19.5 1565,-19.5 1565,-0.5 1467,-0.5"/>
<text text-anchor="middle" x="1516" y="-7.5" font-family="Helvetica,sans-Serif" font-size="10.00">AMReX_Vector.H</text>
</a>
</g>
</g>
<!-- Node20&#45;&gt;Node21 -->
<g id="edge28" class="edge">
<title>Node20&#45;&gt;Node21</title>
<path fill="none" stroke="midnightblue" d="M1516,-56.08C1516,-49.01 1516,-38.86 1516,-29.99"/>
<polygon fill="midnightblue" stroke="midnightblue" points="1519.5,-29.75 1516,-19.75 1512.5,-29.75 1519.5,-29.75"/>
</g>
<!-- Node22&#45;&gt;Node8 -->
<g id="edge30" class="edge">
<title>Node22&#45;&gt;Node8</title>
<path fill="none" stroke="midnightblue" d="M769.4,-117.93C813.96,-103.2 909.36,-73.02 992,-56 1106.18,-32.48 1244.22,-18.89 1305.72,-13.59"/>
<polygon fill="midnightblue" stroke="midnightblue" points="1306.28,-17.06 1315.95,-12.73 1305.69,-10.08 1306.28,-17.06"/>
</g>
<!-- Node22&#45;&gt;Node10 -->
<g id="edge31" class="edge">
<title>Node22&#45;&gt;Node10</title>
<path fill="none" stroke="midnightblue" d="M735,-117.87C721.3,-103.71 698.39,-75.2 714,-56 723.37,-44.48 800.6,-30.41 860.07,-21.1"/>
<polygon fill="midnightblue" stroke="midnightblue" points="860.85,-24.52 870.2,-19.54 859.78,-17.61 860.85,-24.52"/>
</g>
<!-- Node22&#45;&gt;Node23 -->
<g id="edge32" class="edge">
<title>Node22&#45;&gt;Node23</title>
<path fill="none" stroke="midnightblue" d="M724.94,-117.98C702.53,-107.95 665.09,-91.2 639.29,-79.65"/>
<polygon fill="midnightblue" stroke="midnightblue" points="640.58,-76.4 630.02,-75.51 637.72,-82.79 640.58,-76.4"/>
</g>
<!-- Node24&#45;&gt;Node8 -->
<g id="edge34" class="edge">
<title>Node24&#45;&gt;Node8</title>
<path fill="none" stroke="midnightblue" d="M1202.97,-117.82C1227.71,-98.25 1288.05,-50.52 1319,-26.03"/>
<polygon fill="midnightblue" stroke="midnightblue" points="1321.23,-28.73 1326.9,-19.78 1316.88,-23.24 1321.23,-28.73"/>
</g>
<!-- Node24&#45;&gt;Node10 -->
<g id="edge36" class="edge">
<title>Node24&#45;&gt;Node10</title>
<path fill="none" stroke="midnightblue" d="M1117.91,-117.92C1078.48,-110.93 1030.36,-98.38 992,-76 971.25,-63.89 953.03,-42.82 941.8,-27.96"/>
<polygon fill="midnightblue" stroke="midnightblue" points="944.46,-25.67 935.75,-19.64 938.8,-29.79 944.46,-25.67"/>
</g>
<!-- Node24&#45;&gt;Node12 -->
<g id="edge38" class="edge">
<title>Node24&#45;&gt;Node12</title>
<path fill="none" stroke="midnightblue" d="M1272.19,-125.02C1355.6,-121.54 1489.11,-110.47 1599,-76 1617.21,-70.29 1618.83,-61.84 1637,-56 1723.98,-28.02 1829.61,-17.43 1896.09,-13.43"/>
<polygon fill="midnightblue" stroke="midnightblue" points="1896.63,-16.91 1906.41,-12.84 1896.23,-9.92 1896.63,-16.91"/>
</g>
<!-- Node24&#45;&gt;Node20 -->
<g id="edge37" class="edge">
<title>Node24&#45;&gt;Node20</title>
<path fill="none" stroke="midnightblue" d="M1238.42,-117.98C1296.77,-107.26 1396.84,-88.88 1459.55,-77.37"/>
<polygon fill="midnightblue" stroke="midnightblue" points="1460.46,-80.76 1469.66,-75.51 1459.2,-73.87 1460.46,-80.76"/>
</g>
<!-- Node24&#45;&gt;Node21 -->
<g id="edge39" class="edge">
<title>Node24&#45;&gt;Node21</title>
<path fill="none" stroke="midnightblue" d="M1216.09,-117.91C1273.14,-97.57 1416.64,-46.42 1482.28,-23.02"/>
<polygon fill="midnightblue" stroke="midnightblue" points="1483.51,-26.3 1491.75,-19.64 1481.16,-19.7 1483.51,-26.3"/>
</g>
<!-- Node25 -->
<g id="node25" class="node">
<title>Node25</title>
<g id="a_node25"><a xlink:title=" ">
<polygon fill="white" stroke="#bfbfbf" points="1001.5,-56.5 1001.5,-75.5 1046.5,-75.5 1046.5,-56.5 1001.5,-56.5"/>
<text text-anchor="middle" x="1024" y="-63.5" font-family="Helvetica,sans-Serif" font-size="10.00">utility</text>
</a>
</g>
</g>
<!-- Node24&#45;&gt;Node25 -->
<g id="edge35" class="edge">
<title>Node24&#45;&gt;Node25</title>
<path fill="none" stroke="midnightblue" d="M1167.93,-117.98C1138.58,-107.58 1088.85,-89.97 1056.22,-78.41"/>
<polygon fill="midnightblue" stroke="midnightblue" points="1057.28,-75.07 1046.68,-75.03 1054.94,-81.67 1057.28,-75.07"/>
</g>
<!-- Node26 -->
<g id="node26" class="node">
<title>Node26</title>
<g id="a_node26"><a xlink:title=" ">
<polygon fill="white" stroke="#bfbfbf" points="1064.5,-56.5 1064.5,-75.5 1195.5,-75.5 1195.5,-56.5 1064.5,-56.5"/>
<text text-anchor="middle" x="1130" y="-63.5" font-family="Helvetica,sans-Serif" font-size="10.00">AMReX_PhysBCFunct.H</text>
</a>
</g>
</g>
<!-- Node24&#45;&gt;Node26 -->
<g id="edge40" class="edge">
<title>Node24&#45;&gt;Node26</title>
<path fill="none" stroke="midnightblue" d="M1183.12,-117.98C1173.54,-108.78 1158.09,-93.96 1146.31,-82.66"/>
<polygon fill="midnightblue" stroke="midnightblue" points="1148.51,-79.91 1138.87,-75.51 1143.66,-84.96 1148.51,-79.91"/>
</g>
<!-- Node27&#45;&gt;Node8 -->
<g id="edge45" class="edge">
<title>Node27&#45;&gt;Node8</title>
<path fill="none" stroke="midnightblue" d="M2008.22,-187.15C1850.01,-173.15 1496.88,-136.01 1393,-76 1373.47,-64.72 1357.68,-43.79 1348.11,-28.73"/>
<polygon fill="midnightblue" stroke="midnightblue" points="1350.91,-26.59 1342.75,-19.84 1344.92,-30.21 1350.91,-26.59"/>
</g>
<!-- Node27&#45;&gt;Node10 -->
<g id="edge59" class="edge">
<title>Node27&#45;&gt;Node10</title>
<path fill="none" stroke="midnightblue" d="M2008.41,-193.44C1807.44,-192.65 1273.8,-186.4 1103,-143 1036.14,-126.01 1012.34,-124.2 963,-76 949.73,-63.03 940.83,-43.6 935.65,-29.36"/>
<polygon fill="midnightblue" stroke="midnightblue" points="938.91,-28.04 932.41,-19.67 932.27,-30.27 938.91,-28.04"/>
</g>
<!-- Node27&#45;&gt;Node19 -->
<g id="edge60" class="edge">
<title>Node27&#45;&gt;Node19</title>
<path fill="none" stroke="midnightblue" d="M2087.33,-179.48C2089.49,-156.72 2093.76,-111.7 2096.19,-86.06"/>
<polygon fill="midnightblue" stroke="midnightblue" points="2099.71,-86.07 2097.17,-75.79 2092.74,-85.41 2099.71,-86.07"/>
</g>
<!-- Node28 -->
<g id="node28" class="node">
<title>Node28</title>
<g id="a_node28"><a xlink:href="_factory_8_h.html" target="_top" xlink:title=" ">
<polygon fill="white" stroke="black" points="2520,-118 2520,-137 2654,-137 2654,-118 2520,-118"/>
<text text-anchor="middle" x="2587" y="-125" font-family="Helvetica,sans-Serif" font-size="10.00">amr&#45;wind/core/Factory.H</text>
</a>
</g>
</g>
<!-- Node27&#45;&gt;Node28 -->
<g id="edge46" class="edge">
<title>Node27&#45;&gt;Node28</title>
<path fill="none" stroke="midnightblue" d="M2163.73,-183.42C2258.53,-171.12 2417.71,-150.46 2511.49,-138.3"/>
<polygon fill="midnightblue" stroke="midnightblue" points="2512.01,-141.76 2521.48,-137 2511.11,-134.82 2512.01,-141.76"/>
</g>
<!-- Node32 -->
<g id="node32" class="node">
<title>Node32</title>
<g id="a_node32"><a xlink:href="_coll_mgr_8_h.html" target="_top" xlink:title=" ">
<polygon fill="white" stroke="black" points="2326.5,-118 2326.5,-137 2463.5,-137 2463.5,-118 2326.5,-118"/>
<text text-anchor="middle" x="2395" y="-125" font-family="Helvetica,sans-Serif" font-size="10.00">amr&#45;wind/core/CollMgr.H</text>
</a>
</g>
</g>
<!-- Node27&#45;&gt;Node32 -->
<g id="edge52" class="edge">
<title>Node27&#45;&gt;Node32</title>
<path fill="none" stroke="midnightblue" d="M2152.67,-179.48C2210.22,-167.37 2292.11,-150.14 2344.41,-139.14"/>
<polygon fill="midnightblue" stroke="midnightblue" points="2345.39,-142.51 2354.46,-137.03 2343.95,-135.66 2345.39,-142.51"/>
</g>
<!-- Node33 -->
<g id="node33" class="node">
<title>Node33</title>
<g id="a_node33"><a xlink:href="_p_d_e_fields_8_h.html" target="_top" xlink:title=" ">
<polygon fill="white" stroke="black" points="2114.5,-112.5 2114.5,-142.5 2269.5,-142.5 2269.5,-112.5 2114.5,-112.5"/>
<text text-anchor="start" x="2122.5" y="-130.5" font-family="Helvetica,sans-Serif" font-size="10.00">amr&#45;wind/equation_systems</text>
<text text-anchor="middle" x="2192" y="-119.5" font-family="Helvetica,sans-Serif" font-size="10.00">/PDEFields.H</text>
</a>
</g>
</g>
<!-- Node27&#45;&gt;Node33 -->
<g id="edge57" class="edge">
<title>Node27&#45;&gt;Node33</title>
<path fill="none" stroke="midnightblue" d="M2109,-179.4C2124,-170.2 2143.79,-158.07 2160.27,-147.95"/>
<polygon fill="midnightblue" stroke="midnightblue" points="2162.35,-150.79 2169.04,-142.58 2158.69,-144.82 2162.35,-150.79"/>
</g>
<!-- Node28&#45;&gt;Node9 -->
<g id="edge48" class="edge">
<title>Node28&#45;&gt;Node9</title>
<path fill="none" stroke="midnightblue" d="M2545.88,-117.98C2494.52,-107.33 2406.64,-89.11 2351.04,-77.58"/>
<polygon fill="midnightblue" stroke="midnightblue" points="2351.55,-74.11 2341.04,-75.51 2350.13,-80.97 2351.55,-74.11"/>
</g>
<!-- Node28&#45;&gt;Node15 -->
<g id="edge47" class="edge">
<title>Node28&#45;&gt;Node15</title>
<path fill="none" stroke="midnightblue" d="M2559.35,-117.98C2525.81,-107.64 2469.13,-90.16 2431.63,-78.6"/>
<polygon fill="midnightblue" stroke="midnightblue" points="2432.19,-75.11 2421.6,-75.51 2430.13,-81.8 2432.19,-75.11"/>
</g>
<!-- Node29 -->
<g id="node29" class="node">
<title>Node29</title>
<g id="a_node29"><a xlink:title=" ">
<polygon fill="white" stroke="#bfbfbf" points="2555,-56.5 2555,-75.5 2615,-75.5 2615,-56.5 2555,-56.5"/>
<text text-anchor="middle" x="2585" y="-63.5" font-family="Helvetica,sans-Serif" font-size="10.00">iostream</text>
</a>
</g>
</g>
<!-- Node28&#45;&gt;Node29 -->
<g id="edge49" class="edge">
<title>Node28&#45;&gt;Node29</title>
<path fill="none" stroke="midnightblue" d="M2586.71,-117.98C2586.43,-109.58 2585.99,-96.48 2585.63,-85.66"/>
<polygon fill="midnightblue" stroke="midnightblue" points="2589.12,-85.39 2585.29,-75.51 2582.12,-85.62 2589.12,-85.39"/>
</g>
<!-- Node30 -->
<g id="node30" class="node">
<title>Node30</title>
<g id="a_node30"><a xlink:title=" ">
<polygon fill="white" stroke="#bfbfbf" points="2633,-56.5 2633,-75.5 2723,-75.5 2723,-56.5 2633,-56.5"/>
<text text-anchor="middle" x="2678" y="-63.5" font-family="Helvetica,sans-Serif" font-size="10.00">AMReX_Print.H</text>
</a>
</g>
</g>
<!-- Node28&#45;&gt;Node30 -->
<g id="edge50" class="edge">
<title>Node28&#45;&gt;Node30</title>
<path fill="none" stroke="midnightblue" d="M2600.04,-117.98C2614.77,-108.34 2638.97,-92.52 2656.51,-81.05"/>
<polygon fill="midnightblue" stroke="midnightblue" points="2658.53,-83.91 2664.99,-75.51 2654.7,-78.05 2658.53,-83.91"/>
</g>
<!-- Node31 -->
<g id="node31" class="node">
<title>Node31</title>
<g id="a_node31"><a xlink:title=" ">
<polygon fill="white" stroke="#bfbfbf" points="2741,-56.5 2741,-75.5 2803,-75.5 2803,-56.5 2741,-56.5"/>
<text text-anchor="middle" x="2772" y="-63.5" font-family="Helvetica,sans-Serif" font-size="10.00">AMReX.H</text>
</a>
</g>
</g>
<!-- Node28&#45;&gt;Node31 -->
<g id="edge51" class="edge">
<title>Node28&#45;&gt;Node31</title>
<path fill="none" stroke="midnightblue" d="M2613.51,-117.98C2645.65,-107.64 2699.99,-90.16 2735.93,-78.6"/>
<polygon fill="midnightblue" stroke="midnightblue" points="2737.1,-81.9 2745.54,-75.51 2734.95,-75.24 2737.1,-81.9"/>
</g>
<!-- Node32&#45;&gt;Node8 -->
<g id="edge53" class="edge">
<title>Node32&#45;&gt;Node8</title>
<path fill="none" stroke="midnightblue" d="M2405.52,-117.95C2421.93,-103.65 2449.94,-74.61 2432,-56 2394.43,-17.01 1512.06,-23.03 1458,-20 1428.2,-18.33 1394.29,-15.72 1370.14,-13.74"/>
<polygon fill="midnightblue" stroke="midnightblue" points="1370.36,-10.25 1360.1,-12.91 1369.78,-17.22 1370.36,-10.25"/>
</g>
<!-- Node32&#45;&gt;Node9 -->
<g id="edge55" class="edge">
<title>Node32&#45;&gt;Node9</title>
<path fill="none" stroke="midnightblue" d="M2381.39,-117.98C2365.94,-108.3 2340.51,-92.37 2322.18,-80.89"/>
<polygon fill="midnightblue" stroke="midnightblue" points="2323.92,-77.85 2313.59,-75.51 2320.2,-83.78 2323.92,-77.85"/>
</g>
<!-- Node32&#45;&gt;Node15 -->
<g id="edge54" class="edge">
<title>Node32&#45;&gt;Node15</title>
<path fill="none" stroke="midnightblue" d="M2394.86,-117.98C2394.72,-109.58 2394.5,-96.48 2394.31,-85.66"/>
<polygon fill="midnightblue" stroke="midnightblue" points="2397.81,-85.45 2394.14,-75.51 2390.81,-85.57 2397.81,-85.45"/>
</g>
<!-- Node32&#45;&gt;Node21 -->
<g id="edge56" class="edge">
<title>Node32&#45;&gt;Node21</title>
<path fill="none" stroke="midnightblue" d="M2414.6,-117.93C2442.14,-104.77 2486.67,-78.72 2465,-56 2449.59,-39.84 1780.84,-18.81 1575.4,-12.72"/>
<polygon fill="midnightblue" stroke="midnightblue" points="1575.21,-9.21 1565.11,-12.42 1575,-16.21 1575.21,-9.21"/>
</g>
<!-- Node34 -->
<g id="node34" class="node">
<title>Node34</title>
<g id="a_node34"><a xlink:title=" ">
<polygon fill="white" stroke="#bfbfbf" points="2187,-56.5 2187,-75.5 2235,-75.5 2235,-56.5 2187,-56.5"/>
<text text-anchor="middle" x="2211" y="-63.5" font-family="Helvetica,sans-Serif" font-size="10.00">iosfwd</text>
</a>
</g>
</g>
<!-- Node33&#45;&gt;Node34 -->
<g id="edge58" class="edge">
<title>Node33&#45;&gt;Node34</title>
<path fill="none" stroke="midnightblue" d="M2196.5,-112.4C2199.09,-104.29 2202.38,-94.01 2205.16,-85.28"/>
<polygon fill="midnightblue" stroke="midnightblue" points="2208.53,-86.25 2208.24,-75.66 2201.86,-84.12 2208.53,-86.25"/>
</g>
<!-- Node35&#45;&gt;Node12 -->
<g id="edge64" class="edge">
<title>Node35&#45;&gt;Node12</title>
<path fill="none" stroke="midnightblue" d="M2655.32,-184.96C2708.79,-176.89 2777.3,-163.01 2797,-143 2824.53,-115.04 2839,-84.47 2812,-56 2785.04,-27.58 2220,-15.38 2025.84,-12.02"/>
<polygon fill="midnightblue" stroke="midnightblue" points="2025.84,-8.52 2015.78,-11.85 2025.72,-15.52 2025.84,-8.52"/>
</g>
<!-- Node35&#45;&gt;Node28 -->
<g id="edge62" class="edge">
<title>Node35&#45;&gt;Node28</title>
<path fill="none" stroke="midnightblue" d="M2587,-184.73C2587,-175.18 2587,-159.62 2587,-147.28"/>
<polygon fill="midnightblue" stroke="midnightblue" points="2590.5,-147.13 2587,-137.13 2583.5,-147.13 2590.5,-147.13"/>
</g>
<!-- Node35&#45;&gt;Node32 -->
<g id="edge63" class="edge">
<title>Node35&#45;&gt;Node32</title>
<path fill="none" stroke="midnightblue" d="M2561.5,-184.87C2527.7,-173.42 2467.9,-153.18 2429.92,-140.32"/>
<polygon fill="midnightblue" stroke="midnightblue" points="2430.89,-136.96 2420.3,-137.06 2428.65,-143.59 2430.89,-136.96"/>
</g>
<!-- Node36 -->
<g id="node36" class="node">
<title>Node36</title>
<g id="a_node36"><a xlink:title=" ">
<polygon fill="white" stroke="#bfbfbf" points="2672.5,-118 2672.5,-137 2787.5,-137 2787.5,-118 2672.5,-118"/>
<text text-anchor="middle" x="2730" y="-125" font-family="Helvetica,sans-Serif" font-size="10.00">AMReX_Geometry.H</text>
</a>
</g>
</g>
<!-- Node35&#45;&gt;Node36 -->
<g id="edge65" class="edge">
<title>Node35&#45;&gt;Node36</title>
<path fill="none" stroke="midnightblue" d="M2605.99,-184.87C2630.46,-173.75 2673.2,-154.32 2701.56,-141.43"/>
<polygon fill="midnightblue" stroke="midnightblue" points="2703.28,-144.49 2710.93,-137.17 2700.38,-138.12 2703.28,-144.49"/>
</g>
<!-- Node37&#45;&gt;Node12 -->
<g id="edge70" class="edge">
<title>Node37&#45;&gt;Node12</title>
<path fill="none" stroke="midnightblue" d="M2426.75,-184.99C2441.58,-176.5 2462.45,-161.99 2473,-143 2491.85,-109.05 2507.25,-84.62 2481,-56 2450.78,-23.05 2158.1,-14.16 2025.6,-11.82"/>
<polygon fill="midnightblue" stroke="midnightblue" points="2025.64,-8.32 2015.58,-11.65 2025.52,-15.31 2025.64,-8.32"/>
</g>
<!-- Node37&#45;&gt;Node14 -->
<g id="edge69" class="edge">
<title>Node37&#45;&gt;Node14</title>
<path fill="none" stroke="midnightblue" d="M2335.88,-185.14C2224.8,-172.6 2016.47,-149.09 1906.4,-136.67"/>
<polygon fill="midnightblue" stroke="midnightblue" points="1906.71,-133.18 1896.38,-135.54 1905.93,-140.14 1906.71,-133.18"/>
</g>
<!-- Node37&#45;&gt;Node28 -->
<g id="edge68" class="edge">
<title>Node37&#45;&gt;Node28</title>
<path fill="none" stroke="midnightblue" d="M2433.5,-184.87C2464.4,-173.52 2518.86,-153.52 2553.91,-140.65"/>
<polygon fill="midnightblue" stroke="midnightblue" points="2555.5,-143.8 2563.68,-137.06 2553.09,-137.23 2555.5,-143.8"/>
</g>
<!-- Node37&#45;&gt;Node32 -->
<g id="edge67" class="edge">
<title>Node37&#45;&gt;Node32</title>
<path fill="none" stroke="midnightblue" d="M2407.98,-184.73C2405.75,-175.09 2402.11,-159.3 2399.25,-146.91"/>
<polygon fill="midnightblue" stroke="midnightblue" points="2402.65,-146.08 2396.99,-137.13 2395.83,-147.66 2402.65,-146.08"/>
</g>
<!-- Node37&#45;&gt;Node36 -->
<g id="edge71" class="edge">
<title>Node37&#45;&gt;Node36</title>
<path fill="none" stroke="midnightblue" d="M2453.92,-184.96C2504.42,-175.08 2589.77,-158.23 2663,-143 2668.82,-141.79 2674.92,-140.5 2680.98,-139.21"/>
<polygon fill="midnightblue" stroke="midnightblue" points="2682.01,-142.56 2691.05,-137.04 2680.54,-135.72 2682.01,-142.56"/>
</g>
</g>
</svg>
