<?xml version="1.0" encoding="UTF-8" standalone="no"?>
<!DOCTYPE svg PUBLIC "-//W3C//DTD SVG 1.1//EN"
 "http://www.w3.org/Graphics/SVG/1.1/DTD/svg11.dtd">
<!-- Generated by graphviz version 2.43.0 (0)
 -->
<!-- Title: CartBoxRefinement.cpp Pages: 1 -->
<svg width="2865pt" height="341pt"
 viewBox="0.00 0.00 2864.62 341.00" xmlns="http://www.w3.org/2000/svg" xmlns:xlink="http://www.w3.org/1999/xlink">
<g id="graph0" class="graph" transform="scale(1 1) rotate(0) translate(4 337)">
<title>CartBoxRefinement.cpp</title>
<polygon fill="white" stroke="transparent" points="-4,4 -4,-337 2860.62,-337 2860.62,4 -4,4"/>
<!-- Node1 -->
<g id="node1" class="node">
<title>Node1</title>
<g id="a_node1"><a xlink:title=" ">
<polygon fill="#bfbfbf" stroke="black" points="2460.12,-313.5 2460.12,-332.5 2592.12,-332.5 2592.12,-313.5 2460.12,-313.5"/>
<text text-anchor="middle" x="2526.12" y="-320.5" font-family="Helvetica,sans-Serif" font-size="10.00">CartBoxRefinement.cpp</text>
</a>
</g>
</g>
<!-- Node2 -->
<g id="node2" class="node">
<title>Node2</title>
<g id="a_node2"><a xlink:title=" ">
<polygon fill="white" stroke="#bfbfbf" points="2516.12,-56.5 2516.12,-75.5 2576.12,-75.5 2576.12,-56.5 2516.12,-56.5"/>
<text text-anchor="middle" x="2546.12" y="-63.5" font-family="Helvetica,sans-Serif" font-size="10.00">iostream</text>
</a>
</g>
</g>
<!-- Node1&#45;&gt;Node2 -->
<g id="edge1" class="edge">
<title>Node1&#45;&gt;Node2</title>
<path fill="none" stroke="midnightblue" d="M2526.81,-313.22C2529.67,-276.82 2540.61,-137.27 2544.63,-86.02"/>
<polygon fill="midnightblue" stroke="midnightblue" points="2548.14,-85.98 2545.44,-75.74 2541.17,-85.44 2548.14,-85.98"/>
</g>
<!-- Node3 -->
<g id="node3" class="node">
<title>Node3</title>
<g id="a_node3"><a xlink:title=" ">
<polygon fill="white" stroke="#bfbfbf" points="2442.62,-252 2442.62,-271 2497.62,-271 2497.62,-252 2442.62,-252"/>
<text text-anchor="middle" x="2470.12" y="-259" font-family="Helvetica,sans-Serif" font-size="10.00">fstream</text>
</a>
</g>
</g>
<!-- Node1&#45;&gt;Node3 -->
<g id="edge2" class="edge">
<title>Node1&#45;&gt;Node3</title>
<path fill="none" stroke="midnightblue" d="M2518.1,-313.48C2509.53,-304.37 2495.76,-289.74 2485.16,-278.48"/>
<polygon fill="midnightblue" stroke="midnightblue" points="2487.53,-275.89 2478.13,-271.01 2482.44,-280.69 2487.53,-275.89"/>
</g>
<!-- Node4 -->
<g id="node4" class="node">
<title>Node4</title>
<g id="a_node4"><a xlink:href="_cart_box_refinement_8_h.html" target="_top" xlink:title=" ">
<polygon fill="white" stroke="black" points="2554.62,-246.5 2554.62,-276.5 2719.62,-276.5 2719.62,-246.5 2554.62,-246.5"/>
<text text-anchor="start" x="2562.62" y="-264.5" font-family="Helvetica,sans-Serif" font-size="10.00">amr&#45;wind/utilities</text>
<text text-anchor="middle" x="2637.12" y="-253.5" font-family="Helvetica,sans-Serif" font-size="10.00">/tagging/CartBoxRefinement.H</text>
</a>
</g>
</g>
<!-- Node1&#45;&gt;Node4 -->
<g id="edge3" class="edge">
<title>Node1&#45;&gt;Node4</title>
<path fill="none" stroke="midnightblue" d="M2542.03,-313.48C2557.62,-305.12 2581.92,-292.09 2602.05,-281.3"/>
<polygon fill="midnightblue" stroke="midnightblue" points="2603.8,-284.33 2610.96,-276.52 2600.49,-278.16 2603.8,-284.33"/>
</g>
<!-- Node16 -->
<g id="node16" class="node">
<title>Node16</title>
<g id="a_node16"><a xlink:href="_c_f_d_sim_8_h.html" target="_top" xlink:title=" ">
<polygon fill="white" stroke="black" points="1582.12,-252 1582.12,-271 1698.12,-271 1698.12,-252 1582.12,-252"/>
<text text-anchor="middle" x="1640.12" y="-259" font-family="Helvetica,sans-Serif" font-size="10.00">amr&#45;wind/CFDSim.H</text>
</a>
</g>
</g>
<!-- Node1&#45;&gt;Node16 -->
<g id="edge16" class="edge">
<title>Node1&#45;&gt;Node16</title>
<path fill="none" stroke="midnightblue" d="M2459.89,-317.55C2296.19,-306.56 1873.84,-278.2 1708.21,-267.07"/>
<polygon fill="midnightblue" stroke="midnightblue" points="1708.36,-263.57 1698.15,-266.4 1707.89,-270.56 1708.36,-263.57"/>
</g>
<!-- Node44 -->
<g id="node44" class="node">
<title>Node44</title>
<g id="a_node44"><a xlink:title=" ">
<polygon fill="white" stroke="#bfbfbf" points="2737.62,-252 2737.62,-271 2856.62,-271 2856.62,-252 2737.62,-252"/>
<text text-anchor="middle" x="2797.12" y="-259" font-family="Helvetica,sans-Serif" font-size="10.00">AMReX_ParmParse.H</text>
</a>
</g>
</g>
<!-- Node1&#45;&gt;Node44 -->
<g id="edge83" class="edge">
<title>Node1&#45;&gt;Node44</title>
<path fill="none" stroke="midnightblue" d="M2564.95,-313.48C2613.25,-302.87 2695.74,-284.76 2748.28,-273.22"/>
<polygon fill="midnightblue" stroke="midnightblue" points="2749.35,-276.57 2758.37,-271.01 2747.85,-269.74 2749.35,-276.57"/>
</g>
<!-- Node5 -->
<g id="node5" class="node">
<title>Node5</title>
<g id="a_node5"><a xlink:title=" ">
<polygon fill="white" stroke="#bfbfbf" points="2654.12,-56.5 2654.12,-75.5 2702.12,-75.5 2702.12,-56.5 2654.12,-56.5"/>
<text text-anchor="middle" x="2678.12" y="-63.5" font-family="Helvetica,sans-Serif" font-size="10.00">iosfwd</text>
</a>
</g>
</g>
<!-- Node4&#45;&gt;Node5 -->
<g id="edge4" class="edge">
<title>Node4&#45;&gt;Node5</title>
<path fill="none" stroke="midnightblue" d="M2661.18,-246.46C2674.45,-237.58 2690.2,-224.95 2700.12,-210 2717.23,-184.21 2714.86,-173.66 2719.12,-143 2721.02,-129.35 2724.1,-124.85 2719.12,-112 2714.67,-100.5 2705.75,-90.13 2697.37,-82.25"/>
<polygon fill="midnightblue" stroke="midnightblue" points="2699.49,-79.46 2689.66,-75.51 2694.88,-84.73 2699.49,-79.46"/>
</g>
<!-- Node6 -->
<g id="node6" class="node">
<title>Node6</title>
<g id="a_node6"><a xlink:href="_refinement_criteria_8_h.html" target="_top" xlink:title=" ">
<polygon fill="white" stroke="black" points="1771.12,-179.5 1771.12,-209.5 1933.12,-209.5 1933.12,-179.5 1771.12,-179.5"/>
<text text-anchor="start" x="1779.12" y="-197.5" font-family="Helvetica,sans-Serif" font-size="10.00">amr&#45;wind/utilities</text>
<text text-anchor="middle" x="1852.12" y="-186.5" font-family="Helvetica,sans-Serif" font-size="10.00">/tagging/RefinementCriteria.H</text>
</a>
</g>
</g>
<!-- Node4&#45;&gt;Node6 -->
<g id="edge5" class="edge">
<title>Node4&#45;&gt;Node6</title>
<path fill="none" stroke="midnightblue" d="M2554.29,-250.83C2538.63,-249.13 2522.38,-247.44 2507.12,-246 2400.36,-235.93 2097,-213.41 1943.49,-202.16"/>
<polygon fill="midnightblue" stroke="midnightblue" points="1943.38,-198.64 1933.15,-201.4 1942.87,-205.62 1943.38,-198.64"/>
</g>
<!-- Node14 -->
<g id="node14" class="node">
<title>Node14</title>
<g id="a_node14"><a xlink:title=" ">
<polygon fill="white" stroke="#bfbfbf" points="2583.12,-185 2583.12,-204 2691.12,-204 2691.12,-185 2583.12,-185"/>
<text text-anchor="middle" x="2637.12" y="-192" font-family="Helvetica,sans-Serif" font-size="10.00">AMReX_RealBox.H</text>
</a>
</g>
</g>
<!-- Node4&#45;&gt;Node14 -->
<g id="edge14" class="edge">
<title>Node4&#45;&gt;Node14</title>
<path fill="none" stroke="midnightblue" d="M2637.12,-246.4C2637.12,-237.06 2637.12,-224.71 2637.12,-214.52"/>
<polygon fill="midnightblue" stroke="midnightblue" points="2640.62,-214.19 2637.12,-204.19 2633.62,-214.19 2640.62,-214.19"/>
</g>
<!-- Node15 -->
<g id="node15" class="node">
<title>Node15</title>
<g id="a_node15"><a xlink:title=" ">
<polygon fill="white" stroke="#bfbfbf" points="1318.12,-0.5 1318.12,-19.5 1416.12,-19.5 1416.12,-0.5 1318.12,-0.5"/>
<text text-anchor="middle" x="1367.12" y="-7.5" font-family="Helvetica,sans-Serif" font-size="10.00">AMReX_Vector.H</text>
</a>
</g>
</g>
<!-- Node4&#45;&gt;Node15 -->
<g id="edge15" class="edge">
<title>Node4&#45;&gt;Node15</title>
<path fill="none" stroke="midnightblue" d="M2674.43,-246.43C2691.18,-238.26 2709.71,-226.31 2721.12,-210 2760.45,-153.8 2767.45,-95.14 2711.12,-56 2657.73,-18.9 1679.38,-12.29 1426.42,-11.2"/>
<polygon fill="midnightblue" stroke="midnightblue" points="1426.34,-7.7 1416.33,-11.16 1426.31,-14.7 1426.34,-7.7"/>
</g>
<!-- Node7 -->
<g id="node7" class="node">
<title>Node7</title>
<g id="a_node7"><a xlink:title=" ">
<polygon fill="white" stroke="#bfbfbf" points="1238.12,-118 1238.12,-137 1348.12,-137 1348.12,-118 1238.12,-118"/>
<text text-anchor="middle" x="1293.12" y="-125" font-family="Helvetica,sans-Serif" font-size="10.00">AMReX_AmrCore.H</text>
</a>
</g>
</g>
<!-- Node6&#45;&gt;Node7 -->
<g id="edge6" class="edge">
<title>Node6&#45;&gt;Node7</title>
<path fill="none" stroke="midnightblue" d="M1770.67,-184.64C1649.31,-171.42 1431.35,-147.58 1395.12,-143 1383.2,-141.49 1370.51,-139.78 1358.28,-138.07"/>
<polygon fill="midnightblue" stroke="midnightblue" points="1358.52,-134.57 1348.13,-136.64 1357.55,-141.5 1358.52,-134.57"/>
</g>
<!-- Node8 -->
<g id="node8" class="node">
<title>Node8</title>
<g id="a_node8"><a xlink:title=" ">
<polygon fill="white" stroke="#bfbfbf" points="1884.62,-118 1884.62,-137 1987.62,-137 1987.62,-118 1884.62,-118"/>
<text text-anchor="middle" x="1936.12" y="-125" font-family="Helvetica,sans-Serif" font-size="10.00">AMReX_TagBox.H</text>
</a>
</g>
</g>
<!-- Node6&#45;&gt;Node8 -->
<g id="edge7" class="edge">
<title>Node6&#45;&gt;Node8</title>
<path fill="none" stroke="midnightblue" d="M1870.35,-179.4C1884.09,-168.76 1902.91,-154.2 1916.89,-143.38"/>
<polygon fill="midnightblue" stroke="midnightblue" points="1919.12,-146.08 1924.89,-137.19 1914.84,-140.55 1919.12,-146.08"/>
</g>
<!-- Node9 -->
<g id="node9" class="node">
<title>Node9</title>
<g id="a_node9"><a xlink:href="_factory_8_h.html" target="_top" xlink:title=" ">
<polygon fill="white" stroke="black" points="1732.12,-118 1732.12,-137 1866.12,-137 1866.12,-118 1732.12,-118"/>
<text text-anchor="middle" x="1799.12" y="-125" font-family="Helvetica,sans-Serif" font-size="10.00">amr&#45;wind/core/Factory.H</text>
</a>
</g>
</g>
<!-- Node6&#45;&gt;Node9 -->
<g id="edge8" class="edge">
<title>Node6&#45;&gt;Node9</title>
<path fill="none" stroke="midnightblue" d="M1840.62,-179.4C1832.44,-169.36 1821.41,-155.84 1812.78,-145.25"/>
<polygon fill="midnightblue" stroke="midnightblue" points="1815.24,-142.73 1806.21,-137.19 1809.82,-147.16 1815.24,-142.73"/>
</g>
<!-- Node9&#45;&gt;Node2 -->
<g id="edge11" class="edge">
<title>Node9&#45;&gt;Node2</title>
<path fill="none" stroke="midnightblue" d="M1838.81,-117.98C1850.47,-115.74 1863.26,-113.52 1875.12,-112 2113.03,-81.44 2401.24,-70.95 2505.79,-68"/>
<polygon fill="midnightblue" stroke="midnightblue" points="2506,-71.49 2515.9,-67.72 2505.81,-64.49 2506,-71.49"/>
</g>
<!-- Node10 -->
<g id="node10" class="node">
<title>Node10</title>
<g id="a_node10"><a xlink:title=" ">
<polygon fill="white" stroke="#bfbfbf" points="1673.12,-56.5 1673.12,-75.5 1731.12,-75.5 1731.12,-56.5 1673.12,-56.5"/>
<text text-anchor="middle" x="1702.12" y="-63.5" font-family="Helvetica,sans-Serif" font-size="10.00">memory</text>
</a>
</g>
</g>
<!-- Node9&#45;&gt;Node10 -->
<g id="edge9" class="edge">
<title>Node9&#45;&gt;Node10</title>
<path fill="none" stroke="midnightblue" d="M1785.22,-117.98C1769.45,-108.3 1743.48,-92.37 1724.77,-80.89"/>
<polygon fill="midnightblue" stroke="midnightblue" points="1726.35,-77.75 1715.99,-75.51 1722.69,-83.72 1726.35,-77.75"/>
</g>
<!-- Node11 -->
<g id="node11" class="node">
<title>Node11</title>
<g id="a_node11"><a xlink:title=" ">
<polygon fill="white" stroke="#bfbfbf" points="1409.62,-56.5 1409.62,-75.5 1502.62,-75.5 1502.62,-56.5 1409.62,-56.5"/>
<text text-anchor="middle" x="1456.12" y="-63.5" font-family="Helvetica,sans-Serif" font-size="10.00">unordered_map</text>
</a>
</g>
</g>
<!-- Node9&#45;&gt;Node11 -->
<g id="edge10" class="edge">
<title>Node9&#45;&gt;Node11</title>
<path fill="none" stroke="midnightblue" d="M1754.36,-117.93C1743.8,-115.94 1732.57,-113.87 1722.12,-112 1650,-99.11 1566.71,-85.17 1512.82,-76.28"/>
<polygon fill="midnightblue" stroke="midnightblue" points="1513.21,-72.8 1502.78,-74.62 1512.07,-79.7 1513.21,-72.8"/>
</g>
<!-- Node12 -->
<g id="node12" class="node">
<title>Node12</title>
<g id="a_node12"><a xlink:title=" ">
<polygon fill="white" stroke="#bfbfbf" points="1751.12,-56.5 1751.12,-75.5 1841.12,-75.5 1841.12,-56.5 1751.12,-56.5"/>
<text text-anchor="middle" x="1796.12" y="-63.5" font-family="Helvetica,sans-Serif" font-size="10.00">AMReX_Print.H</text>
</a>
</g>
</g>
<!-- Node9&#45;&gt;Node12 -->
<g id="edge12" class="edge">
<title>Node9&#45;&gt;Node12</title>
<path fill="none" stroke="midnightblue" d="M1798.69,-117.98C1798.27,-109.58 1797.61,-96.48 1797.06,-85.66"/>
<polygon fill="midnightblue" stroke="midnightblue" points="1800.55,-85.32 1796.55,-75.51 1793.56,-85.67 1800.55,-85.32"/>
</g>
<!-- Node13 -->
<g id="node13" class="node">
<title>Node13</title>
<g id="a_node13"><a xlink:title=" ">
<polygon fill="white" stroke="#bfbfbf" points="2019.12,-56.5 2019.12,-75.5 2081.12,-75.5 2081.12,-56.5 2019.12,-56.5"/>
<text text-anchor="middle" x="2050.12" y="-63.5" font-family="Helvetica,sans-Serif" font-size="10.00">AMReX.H</text>
</a>
</g>
</g>
<!-- Node9&#45;&gt;Node13 -->
<g id="edge13" class="edge">
<title>Node9&#45;&gt;Node13</title>
<path fill="none" stroke="midnightblue" d="M1835.08,-117.98C1881.15,-107.06 1960.8,-88.17 2009.15,-76.71"/>
<polygon fill="midnightblue" stroke="midnightblue" points="2010.05,-80.1 2018.97,-74.38 2008.44,-73.28 2010.05,-80.1"/>
</g>
<!-- Node16&#45;&gt;Node7 -->
<g id="edge17" class="edge">
<title>Node16&#45;&gt;Node7</title>
<path fill="none" stroke="midnightblue" d="M1581.89,-257.65C1528.32,-253.07 1447.9,-241.12 1385.12,-210 1352.79,-193.97 1323.03,-163.56 1306.55,-144.76"/>
<polygon fill="midnightblue" stroke="midnightblue" points="1309.11,-142.36 1299.95,-137.03 1303.79,-146.91 1309.11,-142.36"/>
</g>
<!-- Node17 -->
<g id="node17" class="node">
<title>Node17</title>
<g id="a_node17"><a xlink:href="_sim_time_8_h.html" target="_top" xlink:title=" ">
<polygon fill="white" stroke="black" points="2072.12,-185 2072.12,-204 2216.12,-204 2216.12,-185 2072.12,-185"/>
<text text-anchor="middle" x="2144.12" y="-192" font-family="Helvetica,sans-Serif" font-size="10.00">amr&#45;wind/core/SimTime.H</text>
</a>
</g>
</g>
<!-- Node16&#45;&gt;Node17 -->
<g id="edge18" class="edge">
<title>Node16&#45;&gt;Node17</title>
<path fill="none" stroke="midnightblue" d="M1698.43,-252.98C1789.74,-241.2 1966.49,-218.41 2067.82,-205.34"/>
<polygon fill="midnightblue" stroke="midnightblue" points="2068.51,-208.78 2077.98,-204.03 2067.62,-201.84 2068.51,-208.78"/>
</g>
<!-- Node21 -->
<g id="node21" class="node">
<title>Node21</title>
<g id="a_node21"><a xlink:href="_field_repo_8_h.html" target="_top" xlink:title=" ">
<polygon fill="white" stroke="black" points="607.62,-185 607.62,-204 756.62,-204 756.62,-185 607.62,-185"/>
<text text-anchor="middle" x="682.12" y="-192" font-family="Helvetica,sans-Serif" font-size="10.00">amr&#45;wind/core/FieldRepo.H</text>
</a>
</g>
</g>
<!-- Node16&#45;&gt;Node21 -->
<g id="edge22" class="edge">
<title>Node16&#45;&gt;Node21</title>
<path fill="none" stroke="midnightblue" d="M1581.99,-256.56C1419.21,-245.51 958.22,-214.23 766.94,-201.25"/>
<polygon fill="midnightblue" stroke="midnightblue" points="767.15,-197.76 756.93,-200.58 766.67,-204.74 767.15,-197.76"/>
</g>
<!-- Node38 -->
<g id="node38" class="node">
<title>Node38</title>
<g id="a_node38"><a xlink:href="_p_d_e_base_8_h.html" target="_top" xlink:title=" ">
<polygon fill="white" stroke="black" points="2334.62,-179.5 2334.62,-209.5 2489.62,-209.5 2489.62,-179.5 2334.62,-179.5"/>
<text text-anchor="start" x="2342.62" y="-197.5" font-family="Helvetica,sans-Serif" font-size="10.00">amr&#45;wind/equation_systems</text>
<text text-anchor="middle" x="2412.12" y="-186.5" font-family="Helvetica,sans-Serif" font-size="10.00">/PDEBase.H</text>
</a>
</g>
</g>
<!-- Node16&#45;&gt;Node38 -->
<g id="edge60" class="edge">
<title>Node16&#45;&gt;Node38</title>
<path fill="none" stroke="midnightblue" d="M1698.15,-255.61C1832.4,-244.31 2165.07,-216.3 2324.37,-202.89"/>
<polygon fill="midnightblue" stroke="midnightblue" points="2324.94,-206.35 2334.61,-202.03 2324.35,-199.38 2324.94,-206.35"/>
</g>
<!-- Node41 -->
<g id="node41" class="node">
<title>Node41</title>
<g id="a_node41"><a xlink:href="_physics_8_h.html" target="_top" xlink:title=" ">
<polygon fill="white" stroke="black" points="1571.62,-185 1571.62,-204 1708.62,-204 1708.62,-185 1571.62,-185"/>
<text text-anchor="middle" x="1640.12" y="-192" font-family="Helvetica,sans-Serif" font-size="10.00">amr&#45;wind/core/Physics.H</text>
</a>
</g>
</g>
<!-- Node16&#45;&gt;Node41 -->
<g id="edge72" class="edge">
<title>Node16&#45;&gt;Node41</title>
<path fill="none" stroke="midnightblue" d="M1640.12,-251.73C1640.12,-242.18 1640.12,-226.62 1640.12,-214.28"/>
<polygon fill="midnightblue" stroke="midnightblue" points="1643.62,-214.13 1640.12,-204.13 1636.62,-214.13 1643.62,-214.13"/>
</g>
<!-- Node43 -->
<g id="node43" class="node">
<title>Node43</title>
<g id="a_node43"><a xlink:href="_mesh_map_8_h.html" target="_top" xlink:title=" ">
<polygon fill="white" stroke="black" points="1394.12,-185 1394.12,-204 1542.12,-204 1542.12,-185 1394.12,-185"/>
<text text-anchor="middle" x="1468.12" y="-192" font-family="Helvetica,sans-Serif" font-size="10.00">amr&#45;wind/core/MeshMap.H</text>
</a>
</g>
</g>
<!-- Node16&#45;&gt;Node43 -->
<g id="edge77" class="edge">
<title>Node16&#45;&gt;Node43</title>
<path fill="none" stroke="midnightblue" d="M1617.28,-251.87C1587.26,-240.52 1534.34,-220.52 1500.28,-207.65"/>
<polygon fill="midnightblue" stroke="midnightblue" points="1501.37,-204.32 1490.78,-204.06 1498.9,-210.87 1501.37,-204.32"/>
</g>
<!-- Node18 -->
<g id="node18" class="node">
<title>Node18</title>
<g id="a_node18"><a xlink:title=" ">
<polygon fill="white" stroke="#bfbfbf" points="2292.12,-118 2292.12,-137 2384.12,-137 2384.12,-118 2292.12,-118"/>
<text text-anchor="middle" x="2338.12" y="-125" font-family="Helvetica,sans-Serif" font-size="10.00">AMReX_REAL.H</text>
</a>
</g>
</g>
<!-- Node17&#45;&gt;Node18 -->
<g id="edge19" class="edge">
<title>Node17&#45;&gt;Node18</title>
<path fill="none" stroke="midnightblue" d="M2169.88,-184.87C2204.04,-173.42 2264.46,-153.18 2302.84,-140.32"/>
<polygon fill="midnightblue" stroke="midnightblue" points="2304.19,-143.56 2312.56,-137.06 2301.97,-136.92 2304.19,-143.56"/>
</g>
<!-- Node19 -->
<g id="node19" class="node">
<title>Node19</title>
<g id="a_node19"><a xlink:title=" ">
<polygon fill="white" stroke="#bfbfbf" points="2006.12,-118 2006.12,-137 2140.12,-137 2140.12,-118 2006.12,-118"/>
<text text-anchor="middle" x="2073.12" y="-125" font-family="Helvetica,sans-Serif" font-size="10.00">AMReX_GpuQualifiers.H</text>
</a>
</g>
</g>
<!-- Node17&#45;&gt;Node19 -->
<g id="edge20" class="edge">
<title>Node17&#45;&gt;Node19</title>
<path fill="none" stroke="midnightblue" d="M2134.55,-184.73C2123.16,-174.31 2103.93,-156.71 2090.02,-143.97"/>
<polygon fill="midnightblue" stroke="midnightblue" points="2092.28,-141.3 2082.55,-137.13 2087.56,-146.46 2092.28,-141.3"/>
</g>
<!-- Node20 -->
<g id="node20" class="node">
<title>Node20</title>
<g id="a_node20"><a xlink:title=" ">
<polygon fill="white" stroke="#bfbfbf" points="2158.12,-118 2158.12,-137 2274.12,-137 2274.12,-118 2158.12,-118"/>
<text text-anchor="middle" x="2216.12" y="-125" font-family="Helvetica,sans-Serif" font-size="10.00">AMReX_Extension.H</text>
</a>
</g>
</g>
<!-- Node17&#45;&gt;Node20 -->
<g id="edge21" class="edge">
<title>Node17&#45;&gt;Node20</title>
<path fill="none" stroke="midnightblue" d="M2153.83,-184.73C2165.38,-174.31 2184.88,-156.71 2198.98,-143.97"/>
<polygon fill="midnightblue" stroke="midnightblue" points="2201.49,-146.43 2206.57,-137.13 2196.8,-141.23 2201.49,-146.43"/>
</g>
<!-- Node21&#45;&gt;Node7 -->
<g id="edge57" class="edge">
<title>Node21&#45;&gt;Node7</title>
<path fill="none" stroke="midnightblue" d="M756.97,-189.24C861.84,-182.65 1058.26,-168.07 1224.12,-143 1231.36,-141.91 1238.98,-140.53 1246.42,-139.07"/>
<polygon fill="midnightblue" stroke="midnightblue" points="1247.28,-142.46 1256.38,-137.03 1245.88,-135.6 1247.28,-142.46"/>
</g>
<!-- Node21&#45;&gt;Node11 -->
<g id="edge24" class="edge">
<title>Node21&#45;&gt;Node11</title>
<path fill="none" stroke="midnightblue" d="M756.88,-191.36C878.79,-187 1114.48,-174.65 1191.12,-143 1211.27,-134.68 1209.4,-121.28 1229.12,-112 1258.7,-98.08 1342.4,-83.67 1399.46,-75.02"/>
<polygon fill="midnightblue" stroke="midnightblue" points="1400.06,-78.47 1409.43,-73.53 1399.02,-71.55 1400.06,-78.47"/>
</g>
<!-- Node22 -->
<g id="node22" class="node">
<title>Node22</title>
<g id="a_node22"><a xlink:title=" ">
<polygon fill="white" stroke="#bfbfbf" points="978.12,-0.5 978.12,-19.5 1022.12,-19.5 1022.12,-0.5 978.12,-0.5"/>
<text text-anchor="middle" x="1000.12" y="-7.5" font-family="Helvetica,sans-Serif" font-size="10.00">string</text>
</a>
</g>
</g>
<!-- Node21&#45;&gt;Node22 -->
<g id="edge23" class="edge">
<title>Node21&#45;&gt;Node22</title>
<path fill="none" stroke="midnightblue" d="M746.62,-184.99C814.39,-172.67 919.51,-143.42 981.12,-76 992.64,-63.4 997.2,-44.18 999,-29.91"/>
<polygon fill="midnightblue" stroke="midnightblue" points="1002.5,-30.02 999.92,-19.74 995.53,-29.38 1002.5,-30.02"/>
</g>
<!-- Node23 -->
<g id="node23" class="node">
<title>Node23</title>
<g id="a_node23"><a xlink:href="_field_desc_types_8_h.html" target="_top" xlink:title=" ">
<polygon fill="white" stroke="black" points="551.12,-0.5 551.12,-19.5 727.12,-19.5 727.12,-0.5 551.12,-0.5"/>
<text text-anchor="middle" x="639.12" y="-7.5" font-family="Helvetica,sans-Serif" font-size="10.00">amr&#45;wind/core/FieldDescTypes.H</text>
</a>
</g>
</g>
<!-- Node21&#45;&gt;Node23 -->
<g id="edge25" class="edge">
<title>Node21&#45;&gt;Node23</title>
<path fill="none" stroke="midnightblue" d="M607.42,-194.03C443.63,-193.23 62.84,-180.03 4.12,-76 -0.25,-68.26 -1.94,-62.5 4.12,-56 39.86,-17.64 371.48,-11.42 540.73,-10.77"/>
<polygon fill="midnightblue" stroke="midnightblue" points="540.91,-14.27 550.89,-10.74 540.88,-7.27 540.91,-14.27"/>
</g>
<!-- Node24 -->
<g id="node24" class="node">
<title>Node24</title>
<g id="a_node24"><a xlink:href="_field_utils_8_h.html" target="_top" xlink:title=" ">
<polygon fill="white" stroke="black" points="13.12,-56.5 13.12,-75.5 159.12,-75.5 159.12,-56.5 13.12,-56.5"/>
<text text-anchor="middle" x="86.12" y="-63.5" font-family="Helvetica,sans-Serif" font-size="10.00">amr&#45;wind/core/FieldUtils.H</text>
</a>
</g>
</g>
<!-- Node21&#45;&gt;Node24 -->
<g id="edge26" class="edge">
<title>Node21&#45;&gt;Node24</title>
<path fill="none" stroke="midnightblue" d="M607.6,-192.84C481.81,-190.65 233.51,-181.44 156.12,-143 129.86,-129.95 108.59,-102.57 96.65,-84.49"/>
<polygon fill="midnightblue" stroke="midnightblue" points="99.58,-82.58 91.28,-76 93.67,-86.32 99.58,-82.58"/>
</g>
<!-- Node25 -->
<g id="node25" class="node">
<title>Node25</title>
<g id="a_node25"><a xlink:title=" ">
<polygon fill="white" stroke="#bfbfbf" points="745.62,-0.5 745.62,-19.5 854.62,-19.5 854.62,-0.5 745.62,-0.5"/>
<text text-anchor="middle" x="800.12" y="-7.5" font-family="Helvetica,sans-Serif" font-size="10.00">AMReX_MultiFab.H</text>
</a>
</g>
</g>
<!-- Node21&#45;&gt;Node25 -->
<g id="edge58" class="edge">
<title>Node21&#45;&gt;Node25</title>
<path fill="none" stroke="midnightblue" d="M619.95,-184.96C521.29,-168.99 346.43,-129.39 412.12,-56 458.55,-4.13 648.56,-27.06 735.28,-19.85"/>
<polygon fill="midnightblue" stroke="midnightblue" points="735.73,-23.32 745.32,-18.81 735.02,-16.36 735.73,-23.32"/>
</g>
<!-- Node27 -->
<g id="node27" class="node">
<title>Node27</title>
<g id="a_node27"><a xlink:href="_field_8_h.html" target="_top" xlink:title=" ">
<polygon fill="white" stroke="black" points="1058.12,-118 1058.12,-137 1182.12,-137 1182.12,-118 1058.12,-118"/>
<text text-anchor="middle" x="1120.12" y="-125" font-family="Helvetica,sans-Serif" font-size="10.00">amr&#45;wind/core/Field.H</text>
</a>
</g>
</g>
<!-- Node21&#45;&gt;Node27 -->
<g id="edge30" class="edge">
<title>Node21&#45;&gt;Node27</title>
<path fill="none" stroke="midnightblue" d="M739.83,-184.94C820.53,-172.96 966.78,-151.26 1052.49,-138.54"/>
<polygon fill="midnightblue" stroke="midnightblue" points="1053.25,-141.96 1062.63,-137.03 1052.23,-135.04 1053.25,-141.96"/>
</g>
<!-- Node33 -->
<g id="node33" class="node">
<title>Node33</title>
<g id="a_node33"><a xlink:href="_int_field_8_h.html" target="_top" xlink:title=" ">
<polygon fill="white" stroke="black" points="165.62,-118 165.62,-137 302.62,-137 302.62,-118 165.62,-118"/>
<text text-anchor="middle" x="234.12" y="-125" font-family="Helvetica,sans-Serif" font-size="10.00">amr&#45;wind/core/IntField.H</text>
</a>
</g>
</g>
<!-- Node21&#45;&gt;Node33 -->
<g id="edge45" class="edge">
<title>Node21&#45;&gt;Node33</title>
<path fill="none" stroke="midnightblue" d="M623.15,-185C553.75,-174.99 435.05,-157.84 333.12,-143 323.19,-141.55 312.71,-140.02 302.42,-138.52"/>
<polygon fill="midnightblue" stroke="midnightblue" points="302.63,-135.01 292.23,-137.03 301.61,-141.94 302.63,-135.01"/>
</g>
<!-- Node34 -->
<g id="node34" class="node">
<title>Node34</title>
<g id="a_node34"><a xlink:title=" ">
<polygon fill="white" stroke="#bfbfbf" points="253.12,-56.5 253.12,-75.5 365.12,-75.5 365.12,-56.5 253.12,-56.5"/>
<text text-anchor="middle" x="309.12" y="-63.5" font-family="Helvetica,sans-Serif" font-size="10.00">AMReX_iMultiFab.H</text>
</a>
</g>
</g>
<!-- Node21&#45;&gt;Node34 -->
<g id="edge59" class="edge">
<title>Node21&#45;&gt;Node34</title>
<path fill="none" stroke="midnightblue" d="M607.4,-186.65C530.77,-178.63 417.53,-163.77 379.12,-143 353.56,-129.17 332.32,-102.41 320.17,-84.62"/>
<polygon fill="midnightblue" stroke="midnightblue" points="322.79,-82.24 314.38,-75.8 316.94,-86.08 322.79,-82.24"/>
</g>
<!-- Node35 -->
<g id="node35" class="node">
<title>Node35</title>
<g id="a_node35"><a xlink:href="_scratch_field_8_h.html" target="_top" xlink:title=" ">
<polygon fill="white" stroke="black" points="602.12,-118 602.12,-137 762.12,-137 762.12,-118 602.12,-118"/>
<text text-anchor="middle" x="682.12" y="-125" font-family="Helvetica,sans-Serif" font-size="10.00">amr&#45;wind/core/ScratchField.H</text>
</a>
</g>
</g>
<!-- Node21&#45;&gt;Node35 -->
<g id="edge49" class="edge">
<title>Node21&#45;&gt;Node35</title>
<path fill="none" stroke="midnightblue" d="M682.12,-184.73C682.12,-175.18 682.12,-159.62 682.12,-147.28"/>
<polygon fill="midnightblue" stroke="midnightblue" points="685.62,-147.13 682.12,-137.13 678.62,-147.13 685.62,-147.13"/>
</g>
<!-- Node24&#45;&gt;Node23 -->
<g id="edge27" class="edge">
<title>Node24&#45;&gt;Node23</title>
<path fill="none" stroke="midnightblue" d="M159.22,-57.4C163.92,-56.92 168.59,-56.45 173.12,-56 300.12,-43.3 446.65,-29.25 540.97,-20.28"/>
<polygon fill="midnightblue" stroke="midnightblue" points="541.44,-23.75 551.07,-19.32 540.78,-16.78 541.44,-23.75"/>
</g>
<!-- Node24&#45;&gt;Node25 -->
<g id="edge28" class="edge">
<title>Node24&#45;&gt;Node25</title>
<path fill="none" stroke="midnightblue" d="M159.16,-59.7C176.21,-58.47 194.3,-57.18 211.12,-56 441.12,-39.83 501.8,-44.17 735.18,-20.02"/>
<polygon fill="midnightblue" stroke="midnightblue" points="735.76,-23.48 745.34,-18.97 735.03,-16.52 735.76,-23.48"/>
</g>
<!-- Node26 -->
<g id="node26" class="node">
<title>Node26</title>
<g id="a_node26"><a xlink:title=" ">
<polygon fill="white" stroke="#bfbfbf" points="24.12,-0.5 24.12,-19.5 148.12,-19.5 148.12,-0.5 24.12,-0.5"/>
<text text-anchor="middle" x="86.12" y="-7.5" font-family="Helvetica,sans-Serif" font-size="10.00">AMReX_Interpolater.H</text>
</a>
</g>
</g>
<!-- Node24&#45;&gt;Node26 -->
<g id="edge29" class="edge">
<title>Node24&#45;&gt;Node26</title>
<path fill="none" stroke="midnightblue" d="M86.12,-56.08C86.12,-49.01 86.12,-38.86 86.12,-29.99"/>
<polygon fill="midnightblue" stroke="midnightblue" points="89.62,-29.75 86.12,-19.75 82.62,-29.75 89.62,-29.75"/>
</g>
<!-- Node27&#45;&gt;Node10 -->
<g id="edge32" class="edge">
<title>Node27&#45;&gt;Node10</title>
<path fill="none" stroke="midnightblue" d="M1181.18,-117.97C1196.8,-115.9 1213.57,-113.77 1229.12,-112 1389.72,-93.69 1581.59,-77.04 1662.77,-70.24"/>
<polygon fill="midnightblue" stroke="midnightblue" points="1663.34,-73.71 1673.02,-69.39 1662.76,-66.73 1663.34,-73.71"/>
</g>
<!-- Node27&#45;&gt;Node11 -->
<g id="edge33" class="edge">
<title>Node27&#45;&gt;Node11</title>
<path fill="none" stroke="midnightblue" d="M1164.3,-117.94C1174.73,-115.95 1185.81,-113.88 1196.12,-112 1266.05,-99.28 1346.72,-85.45 1399.43,-76.52"/>
<polygon fill="midnightblue" stroke="midnightblue" points="1400.31,-79.93 1409.58,-74.81 1399.14,-73.02 1400.31,-79.93"/>
</g>
<!-- Node27&#45;&gt;Node22 -->
<g id="edge31" class="edge">
<title>Node27&#45;&gt;Node22</title>
<path fill="none" stroke="midnightblue" d="M1164.18,-118C1232.86,-104.63 1358,-79.85 1361.12,-76 1366.73,-69.1 1367.01,-62.66 1361.12,-56 1339.47,-31.48 1116.51,-17.18 1032.19,-12.61"/>
<polygon fill="midnightblue" stroke="midnightblue" points="1032.33,-9.12 1022.15,-12.08 1031.95,-16.11 1032.33,-9.12"/>
</g>
<!-- Node27&#45;&gt;Node23 -->
<g id="edge39" class="edge">
<title>Node27&#45;&gt;Node23</title>
<path fill="none" stroke="midnightblue" d="M1057.89,-120.91C992.75,-114.08 887.93,-100.31 800.12,-76 751.36,-62.5 697.34,-38.76 665.91,-24.01"/>
<polygon fill="midnightblue" stroke="midnightblue" points="667.07,-20.69 656.53,-19.57 664.07,-27.01 667.07,-20.69"/>
</g>
<!-- Node27&#45;&gt;Node25 -->
<g id="edge35" class="edge">
<title>Node27&#45;&gt;Node25</title>
<path fill="none" stroke="midnightblue" d="M1057.78,-124.17C978.94,-119.91 849.31,-108.1 815.12,-76 802.61,-64.25 799.56,-44.32 799.21,-29.61"/>
<polygon fill="midnightblue" stroke="midnightblue" points="802.71,-29.66 799.35,-19.61 795.71,-29.56 802.71,-29.66"/>
</g>
<!-- Node28 -->
<g id="node28" class="node">
<title>Node28</title>
<g id="a_node28"><a xlink:title=" ">
<polygon fill="white" stroke="#bfbfbf" points="1066.12,-56.5 1066.12,-75.5 1130.12,-75.5 1130.12,-56.5 1066.12,-56.5"/>
<text text-anchor="middle" x="1098.12" y="-63.5" font-family="Helvetica,sans-Serif" font-size="10.00">algorithm</text>
</a>
</g>
</g>
<!-- Node27&#45;&gt;Node28 -->
<g id="edge34" class="edge">
<title>Node27&#45;&gt;Node28</title>
<path fill="none" stroke="midnightblue" d="M1116.97,-117.98C1113.8,-109.4 1108.82,-95.93 1104.77,-84.98"/>
<polygon fill="midnightblue" stroke="midnightblue" points="1108.02,-83.67 1101.27,-75.51 1101.45,-86.1 1108.02,-83.67"/>
</g>
<!-- Node29 -->
<g id="node29" class="node">
<title>Node29</title>
<g id="a_node29"><a xlink:title=" ">
<polygon fill="white" stroke="#bfbfbf" points="1148.62,-56.5 1148.62,-75.5 1247.62,-75.5 1247.62,-56.5 1148.62,-56.5"/>
<text text-anchor="middle" x="1198.12" y="-63.5" font-family="Helvetica,sans-Serif" font-size="10.00">AMReX_BCRec.H</text>
</a>
</g>
</g>
<!-- Node27&#45;&gt;Node29 -->
<g id="edge36" class="edge">
<title>Node27&#45;&gt;Node29</title>
<path fill="none" stroke="midnightblue" d="M1131.3,-117.98C1143.69,-108.52 1163.91,-93.1 1178.87,-81.69"/>
<polygon fill="midnightblue" stroke="midnightblue" points="1181.14,-84.36 1186.97,-75.51 1176.89,-78.79 1181.14,-84.36"/>
</g>
<!-- Node30 -->
<g id="node30" class="node">
<title>Node30</title>
<g id="a_node30"><a xlink:title=" ">
<polygon fill="white" stroke="#bfbfbf" points="1265.62,-56.5 1265.62,-75.5 1352.62,-75.5 1352.62,-56.5 1265.62,-56.5"/>
<text text-anchor="middle" x="1309.12" y="-63.5" font-family="Helvetica,sans-Serif" font-size="10.00">AMReX_Gpu.H</text>
</a>
</g>
</g>
<!-- Node27&#45;&gt;Node30 -->
<g id="edge37" class="edge">
<title>Node27&#45;&gt;Node30</title>
<path fill="none" stroke="midnightblue" d="M1147.2,-117.98C1180.04,-107.64 1235.55,-90.16 1272.27,-78.6"/>
<polygon fill="midnightblue" stroke="midnightblue" points="1273.61,-81.85 1282.09,-75.51 1271.5,-75.17 1273.61,-81.85"/>
</g>
<!-- Node31 -->
<g id="node31" class="node">
<title>Node31</title>
<g id="a_node31"><a xlink:href="incflo__enums_8_h.html" target="_top" xlink:title=" ">
<polygon fill="white" stroke="black" points="1859.62,-56.5 1859.62,-75.5 2000.62,-75.5 2000.62,-56.5 1859.62,-56.5"/>
<text text-anchor="middle" x="1930.12" y="-63.5" font-family="Helvetica,sans-Serif" font-size="10.00">amr&#45;wind/incflo_enums.H</text>
</a>
</g>
</g>
<!-- Node27&#45;&gt;Node31 -->
<g id="edge38" class="edge">
<title>Node27&#45;&gt;Node31</title>
<path fill="none" stroke="midnightblue" d="M1178.01,-117.98C1194.5,-115.78 1212.49,-113.59 1229.12,-112 1500.98,-86.07 1572.91,-99.13 1849.14,-76.03"/>
<polygon fill="midnightblue" stroke="midnightblue" points="1849.8,-79.49 1859.47,-75.16 1849.21,-72.51 1849.8,-79.49"/>
</g>
<!-- Node32 -->
<g id="node32" class="node">
<title>Node32</title>
<g id="a_node32"><a xlink:href="_view_field_8_h.html" target="_top" xlink:title=" ">
<polygon fill="white" stroke="black" points="824.12,-56.5 824.12,-75.5 972.12,-75.5 972.12,-56.5 824.12,-56.5"/>
<text text-anchor="middle" x="898.12" y="-63.5" font-family="Helvetica,sans-Serif" font-size="10.00">amr&#45;wind/core/ViewField.H</text>
</a>
</g>
</g>
<!-- Node27&#45;&gt;Node32 -->
<g id="edge40" class="edge">
<title>Node27&#45;&gt;Node32</title>
<path fill="none" stroke="midnightblue" d="M1088.31,-117.98C1049.24,-107.5 982.86,-89.71 939.76,-78.16"/>
<polygon fill="midnightblue" stroke="midnightblue" points="940.44,-74.72 929.87,-75.51 938.62,-81.48 940.44,-74.72"/>
</g>
<!-- Node32&#45;&gt;Node15 -->
<g id="edge44" class="edge">
<title>Node32&#45;&gt;Node15</title>
<path fill="none" stroke="midnightblue" d="M972.18,-56.47C1065.07,-45.78 1222.49,-27.65 1307.84,-17.83"/>
<polygon fill="midnightblue" stroke="midnightblue" points="1308.35,-21.29 1317.88,-16.67 1307.55,-14.34 1308.35,-21.29"/>
</g>
<!-- Node32&#45;&gt;Node22 -->
<g id="edge41" class="edge">
<title>Node32&#45;&gt;Node22</title>
<path fill="none" stroke="midnightblue" d="M914.51,-56.32C930.79,-47.7 955.99,-34.36 974.84,-24.39"/>
<polygon fill="midnightblue" stroke="midnightblue" points="976.57,-27.43 983.77,-19.65 973.3,-21.24 976.57,-27.43"/>
</g>
<!-- Node32&#45;&gt;Node23 -->
<g id="edge42" class="edge">
<title>Node32&#45;&gt;Node23</title>
<path fill="none" stroke="midnightblue" d="M857.08,-56.44C811.81,-47 738.89,-31.8 690.02,-21.61"/>
<polygon fill="midnightblue" stroke="midnightblue" points="690.47,-18.13 679.97,-19.52 689.04,-24.98 690.47,-18.13"/>
</g>
<!-- Node32&#45;&gt;Node25 -->
<g id="edge43" class="edge">
<title>Node32&#45;&gt;Node25</title>
<path fill="none" stroke="midnightblue" d="M882.38,-56.32C866.8,-47.74 842.74,-34.49 824.66,-24.52"/>
<polygon fill="midnightblue" stroke="midnightblue" points="826.28,-21.42 815.83,-19.65 822.9,-27.55 826.28,-21.42"/>
</g>
<!-- Node33&#45;&gt;Node22 -->
<g id="edge46" class="edge">
<title>Node33&#45;&gt;Node22</title>
<path fill="none" stroke="midnightblue" d="M232.24,-117.55C229.64,-102.38 227.02,-71.74 244.12,-56 294.81,-9.34 794.36,-24.26 863.12,-20 898.83,-17.79 939.75,-15.08 967.51,-13.21"/>
<polygon fill="midnightblue" stroke="midnightblue" points="968.08,-16.68 977.82,-12.52 967.61,-9.7 968.08,-16.68"/>
</g>
<!-- Node33&#45;&gt;Node23 -->
<g id="edge47" class="edge">
<title>Node33&#45;&gt;Node23</title>
<path fill="none" stroke="midnightblue" d="M226.31,-117.56C214.5,-102.95 195.1,-73.8 211.12,-56 232.77,-31.96 421.04,-19.85 540.56,-14.53"/>
<polygon fill="midnightblue" stroke="midnightblue" points="540.99,-18.02 550.83,-14.08 540.69,-11.02 540.99,-18.02"/>
</g>
<!-- Node33&#45;&gt;Node34 -->
<g id="edge48" class="edge">
<title>Node33&#45;&gt;Node34</title>
<path fill="none" stroke="midnightblue" d="M244.87,-117.98C256.67,-108.61 275.86,-93.38 290.2,-82.01"/>
<polygon fill="midnightblue" stroke="midnightblue" points="292.74,-84.47 298.4,-75.51 288.39,-78.98 292.74,-84.47"/>
</g>
<!-- Node35&#45;&gt;Node15 -->
<g id="edge55" class="edge">
<title>Node35&#45;&gt;Node15</title>
<path fill="none" stroke="midnightblue" d="M742.27,-117.97C802.87,-108.99 898.91,-93.72 981.12,-76 1015.27,-68.64 1022.9,-62.96 1057.12,-56 1143.7,-38.38 1245.23,-25 1307.88,-17.58"/>
<polygon fill="midnightblue" stroke="midnightblue" points="1308.44,-21.04 1317.97,-16.39 1307.63,-14.08 1308.44,-21.04"/>
</g>
<!-- Node35&#45;&gt;Node22 -->
<g id="edge50" class="edge">
<title>Node35&#45;&gt;Node22</title>
<path fill="none" stroke="midnightblue" d="M695.57,-117.91C718.99,-103.29 769.19,-73.45 815.12,-56 866.87,-36.34 930.08,-23.15 967.62,-16.37"/>
<polygon fill="midnightblue" stroke="midnightblue" points="968.7,-19.73 977.94,-14.55 967.49,-12.84 968.7,-19.73"/>
</g>
<!-- Node35&#45;&gt;Node23 -->
<g id="edge52" class="edge">
<title>Node35&#45;&gt;Node23</title>
<path fill="none" stroke="midnightblue" d="M678.89,-117.82C671.92,-99.09 655.33,-54.55 645.93,-29.29"/>
<polygon fill="midnightblue" stroke="midnightblue" points="649.16,-27.93 642.39,-19.78 642.6,-30.37 649.16,-27.93"/>
</g>
<!-- Node35&#45;&gt;Node25 -->
<g id="edge54" class="edge">
<title>Node35&#45;&gt;Node25</title>
<path fill="none" stroke="midnightblue" d="M688.93,-117.83C699.9,-104.08 722.45,-76.73 744.12,-56 755.36,-45.25 768.93,-34.3 779.9,-25.89"/>
<polygon fill="midnightblue" stroke="midnightblue" points="782.17,-28.56 788.05,-19.75 777.96,-22.98 782.17,-28.56"/>
</g>
<!-- Node35&#45;&gt;Node32 -->
<g id="edge53" class="edge">
<title>Node35&#45;&gt;Node32</title>
<path fill="none" stroke="midnightblue" d="M713.07,-117.98C751,-107.53 815.4,-89.79 857.34,-78.23"/>
<polygon fill="midnightblue" stroke="midnightblue" points="858.52,-81.54 867.23,-75.51 856.66,-74.79 858.52,-81.54"/>
</g>
<!-- Node36 -->
<g id="node36" class="node">
<title>Node36</title>
<g id="a_node36"><a xlink:title=" ">
<polygon fill="white" stroke="#bfbfbf" points="421.62,-56.5 421.62,-75.5 466.62,-75.5 466.62,-56.5 421.62,-56.5"/>
<text text-anchor="middle" x="444.12" y="-63.5" font-family="Helvetica,sans-Serif" font-size="10.00">utility</text>
</a>
</g>
</g>
<!-- Node35&#45;&gt;Node36 -->
<g id="edge51" class="edge">
<title>Node35&#45;&gt;Node36</title>
<path fill="none" stroke="midnightblue" d="M644.98,-117.95C605.48,-108.74 540.96,-93.39 476.67,-76.34"/>
<polygon fill="midnightblue" stroke="midnightblue" points="477.34,-72.89 466.78,-73.7 475.54,-79.66 477.34,-72.89"/>
</g>
<!-- Node37 -->
<g id="node37" class="node">
<title>Node37</title>
<g id="a_node37"><a xlink:title=" ">
<polygon fill="white" stroke="#bfbfbf" points="484.62,-56.5 484.62,-75.5 615.62,-75.5 615.62,-56.5 484.62,-56.5"/>
<text text-anchor="middle" x="550.12" y="-63.5" font-family="Helvetica,sans-Serif" font-size="10.00">AMReX_PhysBCFunct.H</text>
</a>
</g>
</g>
<!-- Node35&#45;&gt;Node37 -->
<g id="edge56" class="edge">
<title>Node35&#45;&gt;Node37</title>
<path fill="none" stroke="midnightblue" d="M663.21,-117.98C640.96,-107.95 603.81,-91.2 578.2,-79.65"/>
<polygon fill="midnightblue" stroke="midnightblue" points="579.55,-76.43 569,-75.51 576.68,-82.81 579.55,-76.43"/>
</g>
<!-- Node38&#45;&gt;Node9 -->
<g id="edge62" class="edge">
<title>Node38&#45;&gt;Node9</title>
<path fill="none" stroke="midnightblue" d="M2334.5,-187.11C2207.73,-176.53 1961.69,-155.3 1875.12,-143 1866.99,-141.84 1858.41,-140.41 1850.05,-138.91"/>
<polygon fill="midnightblue" stroke="midnightblue" points="1850.49,-135.43 1840.02,-137.04 1849.21,-142.31 1850.49,-135.43"/>
</g>
<!-- Node38&#45;&gt;Node22 -->
<g id="edge61" class="edge">
<title>Node38&#45;&gt;Node22</title>
<path fill="none" stroke="midnightblue" d="M2433.42,-179.38C2444.85,-170.46 2457.85,-157.84 2464.12,-143 2479.18,-107.39 2491.04,-83.76 2464.12,-56 2462.51,-54.34 1247.77,-18.33 1032.52,-11.96"/>
<polygon fill="midnightblue" stroke="midnightblue" points="1032.31,-8.45 1022.22,-11.65 1032.11,-15.45 1032.31,-8.45"/>
</g>
<!-- Node38&#45;&gt;Node23 -->
<g id="edge70" class="edge">
<title>Node38&#45;&gt;Node23</title>
<path fill="none" stroke="midnightblue" d="M2417.84,-179.26C2423.99,-161.37 2430.9,-130.73 2415.12,-112 2320.69,0.1 2235.98,-70.43 2090.12,-56 1494.42,2.93 1338.79,-55.17 737.36,-20.03"/>
<polygon fill="midnightblue" stroke="midnightblue" points="737.32,-16.52 727.13,-19.42 736.91,-23.5 737.32,-16.52"/>
</g>
<!-- Node38&#45;&gt;Node31 -->
<g id="edge71" class="edge">
<title>Node38&#45;&gt;Node31</title>
<path fill="none" stroke="midnightblue" d="M2413.37,-179.21C2414.12,-160.67 2412.27,-128.72 2393.12,-112 2330.93,-57.7 2110.93,-82.9 2010.94,-75.89"/>
<polygon fill="midnightblue" stroke="midnightblue" points="2011.05,-72.39 2000.78,-75.02 2010.45,-79.36 2011.05,-72.39"/>
</g>
<!-- Node39 -->
<g id="node39" class="node">
<title>Node39</title>
<g id="a_node39"><a xlink:href="_coll_mgr_8_h.html" target="_top" xlink:title=" ">
<polygon fill="white" stroke="black" points="1576.62,-118 1576.62,-137 1713.62,-137 1713.62,-118 1576.62,-118"/>
<text text-anchor="middle" x="1645.12" y="-125" font-family="Helvetica,sans-Serif" font-size="10.00">amr&#45;wind/core/CollMgr.H</text>
</a>
</g>
</g>
<!-- Node38&#45;&gt;Node39 -->
<g id="edge63" class="edge">
<title>Node38&#45;&gt;Node39</title>
<path fill="none" stroke="midnightblue" d="M2334.34,-187.37C2300.75,-184.75 2261,-181.68 2225.12,-179 2002.06,-162.35 1944.98,-171.49 1723.12,-143 1714.39,-141.88 1705.15,-140.41 1696.21,-138.84"/>
<polygon fill="midnightblue" stroke="midnightblue" points="1696.74,-135.38 1686.28,-137.04 1695.49,-142.27 1696.74,-135.38"/>
</g>
<!-- Node40 -->
<g id="node40" class="node">
<title>Node40</title>
<g id="a_node40"><a xlink:href="_p_d_e_fields_8_h.html" target="_top" xlink:title=" ">
<polygon fill="white" stroke="black" points="2554.62,-112.5 2554.62,-142.5 2709.62,-142.5 2709.62,-112.5 2554.62,-112.5"/>
<text text-anchor="start" x="2562.62" y="-130.5" font-family="Helvetica,sans-Serif" font-size="10.00">amr&#45;wind/equation_systems</text>
<text text-anchor="middle" x="2632.12" y="-119.5" font-family="Helvetica,sans-Serif" font-size="10.00">/PDEFields.H</text>
</a>
</g>
</g>
<!-- Node38&#45;&gt;Node40 -->
<g id="edge68" class="edge">
<title>Node38&#45;&gt;Node40</title>
<path fill="none" stroke="midnightblue" d="M2459.59,-179.48C2493.3,-169.51 2538.75,-156.09 2574.54,-145.51"/>
<polygon fill="midnightblue" stroke="midnightblue" points="2575.76,-148.8 2584.36,-142.61 2573.78,-142.09 2575.76,-148.8"/>
</g>
<!-- Node39&#45;&gt;Node10 -->
<g id="edge65" class="edge">
<title>Node39&#45;&gt;Node10</title>
<path fill="none" stroke="midnightblue" d="M1653.29,-117.98C1662.01,-108.87 1676.03,-94.24 1686.81,-82.98"/>
<polygon fill="midnightblue" stroke="midnightblue" points="1689.58,-85.15 1693.97,-75.51 1684.53,-80.31 1689.58,-85.15"/>
</g>
<!-- Node39&#45;&gt;Node11 -->
<g id="edge66" class="edge">
<title>Node39&#45;&gt;Node11</title>
<path fill="none" stroke="midnightblue" d="M1618.04,-117.98C1585.2,-107.64 1529.69,-90.16 1492.97,-78.6"/>
<polygon fill="midnightblue" stroke="midnightblue" points="1493.74,-75.17 1483.15,-75.51 1491.64,-81.85 1493.74,-75.17"/>
</g>
<!-- Node39&#45;&gt;Node15 -->
<g id="edge67" class="edge">
<title>Node39&#45;&gt;Node15</title>
<path fill="none" stroke="midnightblue" d="M1644.85,-117.57C1643.87,-102.43 1639.57,-71.83 1621.12,-56 1592.57,-31.51 1492.09,-19.78 1426.39,-14.61"/>
<polygon fill="midnightblue" stroke="midnightblue" points="1426.4,-11.1 1416.16,-13.84 1425.87,-18.08 1426.4,-11.1"/>
</g>
<!-- Node39&#45;&gt;Node22 -->
<g id="edge64" class="edge">
<title>Node39&#45;&gt;Node22</title>
<path fill="none" stroke="midnightblue" d="M1640.41,-117.62C1631.56,-101.97 1610.83,-69.84 1583.12,-56 1533.8,-31.36 1148.35,-16.13 1032.77,-12.09"/>
<polygon fill="midnightblue" stroke="midnightblue" points="1032.57,-8.58 1022.45,-11.73 1032.32,-15.57 1032.57,-8.58"/>
</g>
<!-- Node40&#45;&gt;Node5 -->
<g id="edge69" class="edge">
<title>Node40&#45;&gt;Node5</title>
<path fill="none" stroke="midnightblue" d="M2643.02,-112.4C2649.71,-103.75 2658.3,-92.64 2665.31,-83.58"/>
<polygon fill="midnightblue" stroke="midnightblue" points="2668.08,-85.71 2671.43,-75.66 2662.54,-81.43 2668.08,-85.71"/>
</g>
<!-- Node41&#45;&gt;Node9 -->
<g id="edge73" class="edge">
<title>Node41&#45;&gt;Node9</title>
<path fill="none" stroke="midnightblue" d="M1661.24,-184.87C1688.75,-173.62 1737.07,-153.87 1768.58,-140.99"/>
<polygon fill="midnightblue" stroke="midnightblue" points="1770.24,-144.09 1778.17,-137.06 1767.59,-137.61 1770.24,-144.09"/>
</g>
<!-- Node41&#45;&gt;Node25 -->
<g id="edge75" class="edge">
<title>Node41&#45;&gt;Node25</title>
<path fill="none" stroke="midnightblue" d="M1622.4,-184.9C1606.17,-176.25 1582.4,-161.56 1567.12,-143 1540.31,-110.42 1563.7,-80.18 1529.12,-56 1522.34,-51.26 1042.04,-24.34 864.85,-14.55"/>
<polygon fill="midnightblue" stroke="midnightblue" points="864.8,-11.05 854.63,-13.99 864.42,-18.03 864.8,-11.05"/>
</g>
<!-- Node41&#45;&gt;Node39 -->
<g id="edge74" class="edge">
<title>Node41&#45;&gt;Node39</title>
<path fill="none" stroke="midnightblue" d="M1640.8,-184.73C1641.53,-175.18 1642.73,-159.62 1643.68,-147.28"/>
<polygon fill="midnightblue" stroke="midnightblue" points="1647.18,-147.37 1644.46,-137.13 1640.2,-146.83 1647.18,-147.37"/>
</g>
<!-- Node42 -->
<g id="node42" class="node">
<title>Node42</title>
<g id="a_node42"><a xlink:title=" ">
<polygon fill="white" stroke="#bfbfbf" points="1404.62,-118 1404.62,-137 1519.62,-137 1519.62,-118 1404.62,-118"/>
<text text-anchor="middle" x="1462.12" y="-125" font-family="Helvetica,sans-Serif" font-size="10.00">AMReX_Geometry.H</text>
</a>
</g>
</g>
<!-- Node41&#45;&gt;Node42 -->
<g id="edge76" class="edge">
<title>Node41&#45;&gt;Node42</title>
<path fill="none" stroke="midnightblue" d="M1616.48,-184.87C1585.41,-173.52 1530.65,-153.52 1495.4,-140.65"/>
<polygon fill="midnightblue" stroke="midnightblue" points="1496.17,-137.21 1485.57,-137.06 1493.77,-143.78 1496.17,-137.21"/>
</g>
<!-- Node43&#45;&gt;Node9 -->
<g id="edge79" class="edge">
<title>Node43&#45;&gt;Node9</title>
<path fill="none" stroke="midnightblue" d="M1511.73,-184.94C1571.97,-173.11 1680.55,-151.78 1745.62,-139.01"/>
<polygon fill="midnightblue" stroke="midnightblue" points="1746.54,-142.39 1755.68,-137.03 1745.19,-135.52 1746.54,-142.39"/>
</g>
<!-- Node43&#45;&gt;Node25 -->
<g id="edge81" class="edge">
<title>Node43&#45;&gt;Node25</title>
<path fill="none" stroke="midnightblue" d="M1445.76,-184.91C1428.45,-176.92 1405.71,-163.2 1395.12,-143 1388.73,-130.8 1386.95,-123.09 1395.12,-112 1429.08,-65.91 1550.3,-97.74 1511.12,-56 1505.62,-50.14 1039.22,-24.07 864.89,-14.52"/>
<polygon fill="midnightblue" stroke="midnightblue" points="865.01,-11.02 854.83,-13.97 864.62,-18.01 865.01,-11.02"/>
</g>
<!-- Node43&#45;&gt;Node27 -->
<g id="edge80" class="edge">
<title>Node43&#45;&gt;Node27</title>
<path fill="none" stroke="midnightblue" d="M1422.27,-184.94C1358.81,-173.08 1244.31,-151.7 1175.95,-138.93"/>
<polygon fill="midnightblue" stroke="midnightblue" points="1176.27,-135.43 1165.8,-137.03 1174.99,-142.31 1176.27,-135.43"/>
</g>
<!-- Node43&#45;&gt;Node39 -->
<g id="edge78" class="edge">
<title>Node43&#45;&gt;Node39</title>
<path fill="none" stroke="midnightblue" d="M1491.63,-184.87C1522.52,-173.52 1576.98,-153.52 1612.03,-140.65"/>
<polygon fill="midnightblue" stroke="midnightblue" points="1613.62,-143.8 1621.8,-137.06 1611.21,-137.23 1613.62,-143.8"/>
</g>
<!-- Node43&#45;&gt;Node42 -->
<g id="edge82" class="edge">
<title>Node43&#45;&gt;Node42</title>
<path fill="none" stroke="midnightblue" d="M1467.31,-184.73C1466.43,-175.18 1464.99,-159.62 1463.86,-147.28"/>
<polygon fill="midnightblue" stroke="midnightblue" points="1467.32,-146.76 1462.92,-137.13 1460.35,-147.41 1467.32,-146.76"/>
</g>
</g>
</svg>
