<?xml version="1.0" encoding="UTF-8" standalone="no"?>
<!DOCTYPE svg PUBLIC "-//W3C//DTD SVG 1.1//EN"
 "http://www.w3.org/Graphics/SVG/1.1/DTD/svg11.dtd">
<!-- Generated by graphviz version 2.43.0 (0)
 -->
<!-- Title: ChannelFlow.H Pages: 1 -->
<!--zoomable 330 -->
<svg id="main" version="1.1" xmlns="http://www.w3.org/2000/svg" xmlns:xlink="http://www.w3.org/1999/xlink" xml:space="preserve" onload="init(evt)">
<style type="text/css"><![CDATA[
.edge:hover path { stroke: red; }
.edge:hover polygon { stroke: red; fill: red; }
]]></style>
<script type="text/javascript"><![CDATA[
var edges = document.getElementsByTagName('g');
if (edges && edges.length) {
  for (var i=0;i<edges.length;i++) {
    if (edges[i].id.substr(0,4)=='edge') {
      edges[i].setAttribute('class','edge');
    }
  }
}
]]></script>
        <defs>
                <circle id="rim" cx="0" cy="0" r="7"/>
                <circle id="rim2" cx="0" cy="0" r="3.5"/>
                <g id="zoomPlus">
                        <use xlink:href="#rim" fill="#404040">
                                <set attributeName="fill" to="#808080" begin="zoomplus.mouseover" end="zoomplus.mouseout"/>
                        </use>
                        <path d="M-4,0h8M0,-4v8" fill="none" stroke="white" stroke-width="1.5" pointer-events="none"/>
                </g>
                <g id="zoomMin">
                        <use xlink:href="#rim" fill="#404040">
                                <set attributeName="fill" to="#808080" begin="zoomminus.mouseover" end="zoomminus.mouseout"/>
                        </use>
                        <path d="M-4,0h8" fill="none" stroke="white" stroke-width="1.5" pointer-events="none"/>
                </g>
                <g id="dirArrow">
                        <path fill="none" stroke="white" stroke-width="1.5" d="M0,-3.0v7 M-2.5,-0.5L0,-3.0L2.5,-0.5"/>
                </g>
               <g id="resetDef">
                       <use xlink:href="#rim2" fill="#404040">
                               <set attributeName="fill" to="#808080" begin="reset.mouseover" end="reset.mouseout"/>
                       </use>
               </g>
        </defs>

<script type="text/javascript">
var viewWidth = 2836;
var viewHeight = 330;
var sectionId = 'dynsection-0';
</script>
<script xlink:href="svgpan.js"/>
<svg id="graph" class="graph">
<g id="viewport">
<title>ChannelFlow.H</title>
<polygon fill="white" stroke="transparent" points="-4,4 -4,-326 2831.5,-326 2831.5,4 -4,4"/>
<!-- Node1 -->
<g id="node1" class="node">
<title>Node1</title>
<g id="a_node1"><a xlink:title=" ">
<polygon fill="#bfbfbf" stroke="black" points="723.5,-302.5 723.5,-321.5 812.5,-321.5 812.5,-302.5 723.5,-302.5"/>
<text text-anchor="middle" x="768" y="-309.5" font-family="Helvetica,sans-Serif" font-size="10.00">ChannelFlow.H</text>
</a>
</g>
</g>
<!-- Node2 -->
<g id="node2" class="node">
<title>Node2</title>
<g id="a_node2"><a xlink:href="_physics_8_h.html" target="_top" xlink:title=" ">
<polygon fill="white" stroke="black" points="582.5,-185 582.5,-204 719.5,-204 719.5,-185 582.5,-185"/>
<text text-anchor="middle" x="651" y="-192" font-family="Helvetica,sans-Serif" font-size="10.00">amr&#45;wind/core/Physics.H</text>
</a>
</g>
</g>
<!-- Node1&#45;&gt;Node2 -->
<g id="edge1" class="edge">
<title>Node1&#45;&gt;Node2</title>
<path fill="none" stroke="midnightblue" d="M759.21,-302.32C739.64,-283 692.27,-236.24 667.19,-211.48"/>
<polygon fill="midnightblue" stroke="midnightblue" points="669.47,-208.82 659.9,-204.28 664.55,-213.8 669.47,-208.82"/>
</g>
<!-- Node14 -->
<g id="node14" class="node">
<title>Node14</title>
<g id="a_node14"><a xlink:href="_field_8_h.html" target="_top" xlink:title=" ">
<polygon fill="white" stroke="black" points="1139,-118 1139,-137 1263,-137 1263,-118 1139,-118"/>
<text text-anchor="middle" x="1201" y="-125" font-family="Helvetica,sans-Serif" font-size="10.00">amr&#45;wind/core/Field.H</text>
</a>
</g>
</g>
<!-- Node1&#45;&gt;Node14 -->
<g id="edge15" class="edge">
<title>Node1&#45;&gt;Node14</title>
<path fill="none" stroke="midnightblue" d="M789.33,-302.49C811.71,-293.53 847.9,-278.94 879,-266 987.27,-220.94 1115.22,-165.71 1171.7,-141.23"/>
<polygon fill="midnightblue" stroke="midnightblue" points="1173.3,-144.35 1181.08,-137.16 1170.52,-137.92 1173.3,-144.35"/>
</g>
<!-- Node21 -->
<g id="node21" class="node">
<title>Node21</title>
<g id="a_node21"><a xlink:href="_c_f_d_sim_8_h.html" target="_top" xlink:title=" ">
<polygon fill="white" stroke="black" points="754,-246.5 754,-265.5 870,-265.5 870,-246.5 754,-246.5"/>
<text text-anchor="middle" x="812" y="-253.5" font-family="Helvetica,sans-Serif" font-size="10.00">amr&#45;wind/CFDSim.H</text>
</a>
</g>
</g>
<!-- Node1&#45;&gt;Node21 -->
<g id="edge30" class="edge">
<title>Node1&#45;&gt;Node21</title>
<path fill="none" stroke="midnightblue" d="M775.27,-302.08C781.54,-294.38 790.79,-283.03 798.43,-273.65"/>
<polygon fill="midnightblue" stroke="midnightblue" points="801.27,-275.71 804.87,-265.75 795.84,-271.29 801.27,-275.71"/>
</g>
<!-- Node24 -->
<g id="node24" class="node">
<title>Node24</title>
<g id="a_node24"><a xlink:title=" ">
<polygon fill="white" stroke="#bfbfbf" points="286,-118 286,-137 378,-137 378,-118 286,-118"/>
<text text-anchor="middle" x="332" y="-125" font-family="Helvetica,sans-Serif" font-size="10.00">AMReX_REAL.H</text>
</a>
</g>
</g>
<!-- Node1&#45;&gt;Node24 -->
<g id="edge75" class="edge">
<title>Node1&#45;&gt;Node24</title>
<path fill="none" stroke="midnightblue" d="M747.56,-302.44C677.18,-272.99 444.73,-175.69 361.76,-140.96"/>
<polygon fill="midnightblue" stroke="midnightblue" points="362.98,-137.67 352.4,-137.04 360.27,-144.13 362.98,-137.67"/>
</g>
<!-- Node3 -->
<g id="node3" class="node">
<title>Node3</title>
<g id="a_node3"><a xlink:href="_factory_8_h.html" target="_top" xlink:title=" ">
<polygon fill="white" stroke="black" points="584,-118 584,-137 718,-137 718,-118 584,-118"/>
<text text-anchor="middle" x="651" y="-125" font-family="Helvetica,sans-Serif" font-size="10.00">amr&#45;wind/core/Factory.H</text>
</a>
</g>
</g>
<!-- Node2&#45;&gt;Node3 -->
<g id="edge2" class="edge">
<title>Node2&#45;&gt;Node3</title>
<path fill="none" stroke="midnightblue" d="M651,-184.73C651,-175.18 651,-159.62 651,-147.28"/>
<polygon fill="midnightblue" stroke="midnightblue" points="654.5,-147.13 651,-137.13 647.5,-147.13 654.5,-147.13"/>
</g>
<!-- Node9 -->
<g id="node9" class="node">
<title>Node9</title>
<g id="a_node9"><a xlink:href="_coll_mgr_8_h.html" target="_top" xlink:title=" ">
<polygon fill="white" stroke="black" points="774.5,-118 774.5,-137 911.5,-137 911.5,-118 774.5,-118"/>
<text text-anchor="middle" x="843" y="-125" font-family="Helvetica,sans-Serif" font-size="10.00">amr&#45;wind/core/CollMgr.H</text>
</a>
</g>
</g>
<!-- Node2&#45;&gt;Node9 -->
<g id="edge8" class="edge">
<title>Node2&#45;&gt;Node9</title>
<path fill="none" stroke="midnightblue" d="M676.5,-184.87C710.3,-173.42 770.1,-153.18 808.08,-140.32"/>
<polygon fill="midnightblue" stroke="midnightblue" points="809.35,-143.59 817.7,-137.06 807.11,-136.96 809.35,-143.59"/>
</g>
<!-- Node12 -->
<g id="node12" class="node">
<title>Node12</title>
<g id="a_node12"><a xlink:title=" ">
<polygon fill="white" stroke="#bfbfbf" points="1300.5,-0.5 1300.5,-19.5 1409.5,-19.5 1409.5,-0.5 1300.5,-0.5"/>
<text text-anchor="middle" x="1355" y="-7.5" font-family="Helvetica,sans-Serif" font-size="10.00">AMReX_MultiFab.H</text>
</a>
</g>
</g>
<!-- Node2&#45;&gt;Node12 -->
<g id="edge13" class="edge">
<title>Node2&#45;&gt;Node12</title>
<path fill="none" stroke="midnightblue" d="M583.29,-184.97C529.78,-176.87 460.9,-162.94 441,-143 413.22,-115.18 397.88,-84.46 425,-56 454.81,-24.71 1084.01,-14.29 1290.21,-11.71"/>
<polygon fill="midnightblue" stroke="midnightblue" points="1290.33,-15.21 1300.28,-11.59 1290.24,-8.21 1290.33,-15.21"/>
</g>
<!-- Node13 -->
<g id="node13" class="node">
<title>Node13</title>
<g id="a_node13"><a xlink:title=" ">
<polygon fill="white" stroke="#bfbfbf" points="450.5,-118 450.5,-137 565.5,-137 565.5,-118 450.5,-118"/>
<text text-anchor="middle" x="508" y="-125" font-family="Helvetica,sans-Serif" font-size="10.00">AMReX_Geometry.H</text>
</a>
</g>
</g>
<!-- Node2&#45;&gt;Node13 -->
<g id="edge14" class="edge">
<title>Node2&#45;&gt;Node13</title>
<path fill="none" stroke="midnightblue" d="M632.01,-184.87C607.54,-173.75 564.8,-154.32 536.44,-141.43"/>
<polygon fill="midnightblue" stroke="midnightblue" points="537.62,-138.12 527.07,-137.17 534.72,-144.49 537.62,-138.12"/>
</g>
<!-- Node4 -->
<g id="node4" class="node">
<title>Node4</title>
<g id="a_node4"><a xlink:title=" ">
<polygon fill="white" stroke="#bfbfbf" points="814,-56.5 814,-75.5 872,-75.5 872,-56.5 814,-56.5"/>
<text text-anchor="middle" x="843" y="-63.5" font-family="Helvetica,sans-Serif" font-size="10.00">memory</text>
</a>
</g>
</g>
<!-- Node3&#45;&gt;Node4 -->
<g id="edge3" class="edge">
<title>Node3&#45;&gt;Node4</title>
<path fill="none" stroke="midnightblue" d="M678.51,-117.98C711.87,-107.64 768.26,-90.16 805.56,-78.6"/>
<polygon fill="midnightblue" stroke="midnightblue" points="807.03,-81.81 815.54,-75.51 804.95,-75.13 807.03,-81.81"/>
</g>
<!-- Node5 -->
<g id="node5" class="node">
<title>Node5</title>
<g id="a_node5"><a xlink:title=" ">
<polygon fill="white" stroke="#bfbfbf" points="890.5,-56.5 890.5,-75.5 983.5,-75.5 983.5,-56.5 890.5,-56.5"/>
<text text-anchor="middle" x="937" y="-63.5" font-family="Helvetica,sans-Serif" font-size="10.00">unordered_map</text>
</a>
</g>
</g>
<!-- Node3&#45;&gt;Node5 -->
<g id="edge4" class="edge">
<title>Node3&#45;&gt;Node5</title>
<path fill="none" stroke="midnightblue" d="M691.98,-117.98C743.16,-107.33 830.73,-89.11 886.14,-77.58"/>
<polygon fill="midnightblue" stroke="midnightblue" points="887.02,-80.97 896.1,-75.51 885.6,-74.12 887.02,-80.97"/>
</g>
<!-- Node6 -->
<g id="node6" class="node">
<title>Node6</title>
<g id="a_node6"><a xlink:title=" ">
<polygon fill="white" stroke="#bfbfbf" points="622,-56.5 622,-75.5 682,-75.5 682,-56.5 622,-56.5"/>
<text text-anchor="middle" x="652" y="-63.5" font-family="Helvetica,sans-Serif" font-size="10.00">iostream</text>
</a>
</g>
</g>
<!-- Node3&#45;&gt;Node6 -->
<g id="edge5" class="edge">
<title>Node3&#45;&gt;Node6</title>
<path fill="none" stroke="midnightblue" d="M651.14,-117.98C651.28,-109.58 651.5,-96.48 651.69,-85.66"/>
<polygon fill="midnightblue" stroke="midnightblue" points="655.19,-85.57 651.86,-75.51 648.19,-85.45 655.19,-85.57"/>
</g>
<!-- Node7 -->
<g id="node7" class="node">
<title>Node7</title>
<g id="a_node7"><a xlink:title=" ">
<polygon fill="white" stroke="#bfbfbf" points="434,-56.5 434,-75.5 524,-75.5 524,-56.5 434,-56.5"/>
<text text-anchor="middle" x="479" y="-63.5" font-family="Helvetica,sans-Serif" font-size="10.00">AMReX_Print.H</text>
</a>
</g>
</g>
<!-- Node3&#45;&gt;Node7 -->
<g id="edge6" class="edge">
<title>Node3&#45;&gt;Node7</title>
<path fill="none" stroke="midnightblue" d="M626.36,-117.98C596.72,-107.72 546.82,-90.46 513.4,-78.9"/>
<polygon fill="midnightblue" stroke="midnightblue" points="514.19,-75.47 503.6,-75.51 511.9,-82.09 514.19,-75.47"/>
</g>
<!-- Node8 -->
<g id="node8" class="node">
<title>Node8</title>
<g id="a_node8"><a xlink:title=" ">
<polygon fill="white" stroke="#bfbfbf" points="542,-56.5 542,-75.5 604,-75.5 604,-56.5 542,-56.5"/>
<text text-anchor="middle" x="573" y="-63.5" font-family="Helvetica,sans-Serif" font-size="10.00">AMReX.H</text>
</a>
</g>
</g>
<!-- Node3&#45;&gt;Node8 -->
<g id="edge7" class="edge">
<title>Node3&#45;&gt;Node8</title>
<path fill="none" stroke="midnightblue" d="M639.82,-117.98C627.43,-108.52 607.21,-93.1 592.25,-81.69"/>
<polygon fill="midnightblue" stroke="midnightblue" points="594.23,-78.79 584.15,-75.51 589.98,-84.36 594.23,-78.79"/>
</g>
<!-- Node9&#45;&gt;Node4 -->
<g id="edge10" class="edge">
<title>Node9&#45;&gt;Node4</title>
<path fill="none" stroke="midnightblue" d="M843,-117.98C843,-109.58 843,-96.48 843,-85.66"/>
<polygon fill="midnightblue" stroke="midnightblue" points="846.5,-85.51 843,-75.51 839.5,-85.51 846.5,-85.51"/>
</g>
<!-- Node9&#45;&gt;Node5 -->
<g id="edge11" class="edge">
<title>Node9&#45;&gt;Node5</title>
<path fill="none" stroke="midnightblue" d="M856.47,-117.98C871.68,-108.34 896.69,-92.52 914.8,-81.05"/>
<polygon fill="midnightblue" stroke="midnightblue" points="916.98,-83.81 923.56,-75.51 913.24,-77.9 916.98,-83.81"/>
</g>
<!-- Node10 -->
<g id="node10" class="node">
<title>Node10</title>
<g id="a_node10"><a xlink:title=" ">
<polygon fill="white" stroke="#bfbfbf" points="1773,-0.5 1773,-19.5 1817,-19.5 1817,-0.5 1773,-0.5"/>
<text text-anchor="middle" x="1795" y="-7.5" font-family="Helvetica,sans-Serif" font-size="10.00">string</text>
</a>
</g>
</g>
<!-- Node9&#45;&gt;Node10 -->
<g id="edge9" class="edge">
<title>Node9&#45;&gt;Node10</title>
<path fill="none" stroke="midnightblue" d="M832.28,-117.98C815.56,-103.72 786.97,-74.73 805,-56 841.48,-18.11 1698.78,-26.29 1751,-20 1754.78,-19.54 1758.73,-18.93 1762.63,-18.25"/>
<polygon fill="midnightblue" stroke="midnightblue" points="1763.58,-21.63 1772.73,-16.29 1762.25,-14.75 1763.58,-21.63"/>
</g>
<!-- Node11 -->
<g id="node11" class="node">
<title>Node11</title>
<g id="a_node11"><a xlink:title=" ">
<polygon fill="white" stroke="#bfbfbf" points="1644,-0.5 1644,-19.5 1742,-19.5 1742,-0.5 1644,-0.5"/>
<text text-anchor="middle" x="1693" y="-7.5" font-family="Helvetica,sans-Serif" font-size="10.00">AMReX_Vector.H</text>
</a>
</g>
</g>
<!-- Node9&#45;&gt;Node11 -->
<g id="edge12" class="edge">
<title>Node9&#45;&gt;Node11</title>
<path fill="none" stroke="midnightblue" d="M823.17,-117.97C795.28,-104.87 750.2,-78.89 772,-56 779.46,-48.17 1431.45,-21.46 1633.79,-13.35"/>
<polygon fill="midnightblue" stroke="midnightblue" points="1634.08,-16.84 1643.93,-12.95 1633.8,-9.85 1634.08,-16.84"/>
</g>
<!-- Node14&#45;&gt;Node4 -->
<g id="edge17" class="edge">
<title>Node14&#45;&gt;Node4</title>
<path fill="none" stroke="midnightblue" d="M1138.81,-118.11C1076.36,-109.37 977.18,-94.61 882.45,-76.17"/>
<polygon fill="midnightblue" stroke="midnightblue" points="882.9,-72.69 872.41,-74.2 881.55,-79.56 882.9,-72.69"/>
</g>
<!-- Node14&#45;&gt;Node5 -->
<g id="edge18" class="edge">
<title>Node14&#45;&gt;Node5</title>
<path fill="none" stroke="midnightblue" d="M1163.18,-117.98C1116.13,-107.37 1035.77,-89.26 984.58,-77.72"/>
<polygon fill="midnightblue" stroke="midnightblue" points="985.28,-74.29 974.75,-75.51 983.74,-81.12 985.28,-74.29"/>
</g>
<!-- Node14&#45;&gt;Node10 -->
<g id="edge16" class="edge">
<title>Node14&#45;&gt;Node10</title>
<path fill="none" stroke="midnightblue" d="M1221.65,-117.97C1259.09,-102.89 1340.98,-71.62 1413,-56 1560.64,-23.98 1601.71,-43.16 1751,-20 1754.77,-19.42 1758.7,-18.73 1762.59,-17.99"/>
<polygon fill="midnightblue" stroke="midnightblue" points="1763.56,-21.37 1772.69,-15.99 1762.2,-14.5 1763.56,-21.37"/>
</g>
<!-- Node14&#45;&gt;Node12 -->
<g id="edge20" class="edge">
<title>Node14&#45;&gt;Node12</title>
<path fill="none" stroke="midnightblue" d="M1186.24,-117.89C1165.05,-104.47 1130.42,-77.82 1148,-56 1165.67,-34.08 1236.27,-22.28 1290.15,-16.34"/>
<polygon fill="midnightblue" stroke="midnightblue" points="1290.76,-19.79 1300.34,-15.26 1290.03,-12.83 1290.76,-19.79"/>
</g>
<!-- Node15 -->
<g id="node15" class="node">
<title>Node15</title>
<g id="a_node15"><a xlink:title=" ">
<polygon fill="white" stroke="#bfbfbf" points="1263,-56.5 1263,-75.5 1327,-75.5 1327,-56.5 1263,-56.5"/>
<text text-anchor="middle" x="1295" y="-63.5" font-family="Helvetica,sans-Serif" font-size="10.00">algorithm</text>
</a>
</g>
</g>
<!-- Node14&#45;&gt;Node15 -->
<g id="edge19" class="edge">
<title>Node14&#45;&gt;Node15</title>
<path fill="none" stroke="midnightblue" d="M1214.47,-117.98C1229.68,-108.34 1254.69,-92.52 1272.8,-81.05"/>
<polygon fill="midnightblue" stroke="midnightblue" points="1274.98,-83.81 1281.56,-75.51 1271.24,-77.9 1274.98,-83.81"/>
</g>
<!-- Node16 -->
<g id="node16" class="node">
<title>Node16</title>
<g id="a_node16"><a xlink:title=" ">
<polygon fill="white" stroke="#bfbfbf" points="1001.5,-56.5 1001.5,-75.5 1100.5,-75.5 1100.5,-56.5 1001.5,-56.5"/>
<text text-anchor="middle" x="1051" y="-63.5" font-family="Helvetica,sans-Serif" font-size="10.00">AMReX_BCRec.H</text>
</a>
</g>
</g>
<!-- Node14&#45;&gt;Node16 -->
<g id="edge21" class="edge">
<title>Node14&#45;&gt;Node16</title>
<path fill="none" stroke="midnightblue" d="M1179.51,-117.98C1153.89,-107.81 1110.89,-90.76 1081.76,-79.2"/>
<polygon fill="midnightblue" stroke="midnightblue" points="1083.04,-75.94 1072.45,-75.51 1080.46,-82.45 1083.04,-75.94"/>
</g>
<!-- Node17 -->
<g id="node17" class="node">
<title>Node17</title>
<g id="a_node17"><a xlink:title=" ">
<polygon fill="white" stroke="#bfbfbf" points="1157.5,-56.5 1157.5,-75.5 1244.5,-75.5 1244.5,-56.5 1157.5,-56.5"/>
<text text-anchor="middle" x="1201" y="-63.5" font-family="Helvetica,sans-Serif" font-size="10.00">AMReX_Gpu.H</text>
</a>
</g>
</g>
<!-- Node14&#45;&gt;Node17 -->
<g id="edge22" class="edge">
<title>Node14&#45;&gt;Node17</title>
<path fill="none" stroke="midnightblue" d="M1201,-117.98C1201,-109.58 1201,-96.48 1201,-85.66"/>
<polygon fill="midnightblue" stroke="midnightblue" points="1204.5,-85.51 1201,-75.51 1197.5,-85.51 1204.5,-85.51"/>
</g>
<!-- Node18 -->
<g id="node18" class="node">
<title>Node18</title>
<g id="a_node18"><a xlink:href="incflo__enums_8_h.html" target="_top" xlink:title=" ">
<polygon fill="white" stroke="black" points="1421.5,-56.5 1421.5,-75.5 1562.5,-75.5 1562.5,-56.5 1421.5,-56.5"/>
<text text-anchor="middle" x="1492" y="-63.5" font-family="Helvetica,sans-Serif" font-size="10.00">amr&#45;wind/incflo_enums.H</text>
</a>
</g>
</g>
<!-- Node14&#45;&gt;Node18 -->
<g id="edge23" class="edge">
<title>Node14&#45;&gt;Node18</title>
<path fill="none" stroke="midnightblue" d="M1242.69,-117.98C1294.77,-107.33 1383.87,-89.11 1440.25,-77.58"/>
<polygon fill="midnightblue" stroke="midnightblue" points="1441.29,-80.94 1450.38,-75.51 1439.89,-74.08 1441.29,-80.94"/>
</g>
<!-- Node19 -->
<g id="node19" class="node">
<title>Node19</title>
<g id="a_node19"><a xlink:href="_field_desc_types_8_h.html" target="_top" xlink:title=" ">
<polygon fill="white" stroke="black" points="2263,-0.5 2263,-19.5 2439,-19.5 2439,-0.5 2263,-0.5"/>
<text text-anchor="middle" x="2351" y="-7.5" font-family="Helvetica,sans-Serif" font-size="10.00">amr&#45;wind/core/FieldDescTypes.H</text>
</a>
</g>
</g>
<!-- Node14&#45;&gt;Node19 -->
<g id="edge24" class="edge">
<title>Node14&#45;&gt;Node19</title>
<path fill="none" stroke="midnightblue" d="M1263.2,-121.91C1368.77,-113.91 1589.71,-96.35 1776,-76 1844.17,-68.55 1860.9,-64.08 1929,-56 2040.9,-42.72 2169.72,-29.25 2255.3,-20.55"/>
<polygon fill="midnightblue" stroke="midnightblue" points="2255.66,-24.03 2265.26,-19.54 2254.96,-17.07 2255.66,-24.03"/>
</g>
<!-- Node20 -->
<g id="node20" class="node">
<title>Node20</title>
<g id="a_node20"><a xlink:href="_view_field_8_h.html" target="_top" xlink:title=" ">
<polygon fill="white" stroke="black" points="1619,-56.5 1619,-75.5 1767,-75.5 1767,-56.5 1619,-56.5"/>
<text text-anchor="middle" x="1693" y="-63.5" font-family="Helvetica,sans-Serif" font-size="10.00">amr&#45;wind/core/ViewField.H</text>
</a>
</g>
</g>
<!-- Node14&#45;&gt;Node20 -->
<g id="edge25" class="edge">
<title>Node14&#45;&gt;Node20</title>
<path fill="none" stroke="midnightblue" d="M1263.31,-118.96C1351.97,-108.24 1514.58,-88.58 1612.33,-76.76"/>
<polygon fill="midnightblue" stroke="midnightblue" points="1612.96,-80.21 1622.46,-75.53 1612.12,-73.26 1612.96,-80.21"/>
</g>
<!-- Node20&#45;&gt;Node10 -->
<g id="edge26" class="edge">
<title>Node20&#45;&gt;Node10</title>
<path fill="none" stroke="midnightblue" d="M1709.39,-56.32C1725.67,-47.7 1750.87,-34.36 1769.72,-24.39"/>
<polygon fill="midnightblue" stroke="midnightblue" points="1771.45,-27.43 1778.65,-19.65 1768.18,-21.24 1771.45,-27.43"/>
</g>
<!-- Node20&#45;&gt;Node11 -->
<g id="edge29" class="edge">
<title>Node20&#45;&gt;Node11</title>
<path fill="none" stroke="midnightblue" d="M1693,-56.08C1693,-49.01 1693,-38.86 1693,-29.99"/>
<polygon fill="midnightblue" stroke="midnightblue" points="1696.5,-29.75 1693,-19.75 1689.5,-29.75 1696.5,-29.75"/>
</g>
<!-- Node20&#45;&gt;Node12 -->
<g id="edge28" class="edge">
<title>Node20&#45;&gt;Node12</title>
<path fill="none" stroke="midnightblue" d="M1639.44,-56.44C1579.37,-46.85 1482.01,-31.29 1418.24,-21.1"/>
<polygon fill="midnightblue" stroke="midnightblue" points="1418.73,-17.64 1408.31,-19.52 1417.63,-24.55 1418.73,-17.64"/>
</g>
<!-- Node20&#45;&gt;Node19 -->
<g id="edge27" class="edge">
<title>Node20&#45;&gt;Node19</title>
<path fill="none" stroke="midnightblue" d="M1767.2,-58.91C1886.27,-49.14 2120.07,-29.95 2252.82,-19.06"/>
<polygon fill="midnightblue" stroke="midnightblue" points="2253.31,-22.53 2262.99,-18.22 2252.74,-15.55 2253.31,-22.53"/>
</g>
<!-- Node21&#45;&gt;Node2 -->
<g id="edge68" class="edge">
<title>Node21&#45;&gt;Node2</title>
<path fill="none" stroke="midnightblue" d="M788.93,-246.48C761.32,-236.27 714.88,-219.11 683.6,-207.55"/>
<polygon fill="midnightblue" stroke="midnightblue" points="684.62,-204.19 674.02,-204.01 682.19,-210.76 684.62,-204.19"/>
</g>
<!-- Node22 -->
<g id="node22" class="node">
<title>Node22</title>
<g id="a_node22"><a xlink:title=" ">
<polygon fill="white" stroke="#bfbfbf" points="941,-118 941,-137 1051,-137 1051,-118 941,-118"/>
<text text-anchor="middle" x="996" y="-125" font-family="Helvetica,sans-Serif" font-size="10.00">AMReX_AmrCore.H</text>
</a>
</g>
</g>
<!-- Node21&#45;&gt;Node22 -->
<g id="edge31" class="edge">
<title>Node21&#45;&gt;Node22</title>
<path fill="none" stroke="midnightblue" d="M830.03,-246.42C847.22,-237.96 873.59,-224.27 895,-210 926.03,-189.32 959.15,-161.31 978.69,-144.1"/>
<polygon fill="midnightblue" stroke="midnightblue" points="981.28,-146.48 986.43,-137.22 976.63,-141.25 981.28,-146.48"/>
</g>
<!-- Node23 -->
<g id="node23" class="node">
<title>Node23</title>
<g id="a_node23"><a xlink:href="_sim_time_8_h.html" target="_top" xlink:title=" ">
<polygon fill="white" stroke="black" points="195,-185 195,-204 339,-204 339,-185 195,-185"/>
<text text-anchor="middle" x="267" y="-192" font-family="Helvetica,sans-Serif" font-size="10.00">amr&#45;wind/core/SimTime.H</text>
</a>
</g>
</g>
<!-- Node21&#45;&gt;Node23 -->
<g id="edge32" class="edge">
<title>Node21&#45;&gt;Node23</title>
<path fill="none" stroke="midnightblue" d="M753.93,-248.66C656.72,-238.05 460.75,-216.65 349.34,-204.49"/>
<polygon fill="midnightblue" stroke="midnightblue" points="349.48,-200.98 339.16,-203.38 348.72,-207.94 349.48,-200.98"/>
</g>
<!-- Node27 -->
<g id="node27" class="node">
<title>Node27</title>
<g id="a_node27"><a xlink:href="_field_repo_8_h.html" target="_top" xlink:title=" ">
<polygon fill="white" stroke="black" points="1396.5,-185 1396.5,-204 1545.5,-204 1545.5,-185 1396.5,-185"/>
<text text-anchor="middle" x="1471" y="-192" font-family="Helvetica,sans-Serif" font-size="10.00">amr&#45;wind/core/FieldRepo.H</text>
</a>
</g>
</g>
<!-- Node21&#45;&gt;Node27 -->
<g id="edge36" class="edge">
<title>Node21&#45;&gt;Node27</title>
<path fill="none" stroke="midnightblue" d="M870.19,-249.75C986.91,-239.21 1250.04,-215.45 1386.04,-203.17"/>
<polygon fill="midnightblue" stroke="midnightblue" points="1386.76,-206.62 1396.41,-202.23 1386.13,-199.65 1386.76,-206.62"/>
</g>
<!-- Node35 -->
<g id="node35" class="node">
<title>Node35</title>
<g id="a_node35"><a xlink:href="_p_d_e_base_8_h.html" target="_top" xlink:title=" ">
<polygon fill="white" stroke="black" points="1563.5,-179.5 1563.5,-209.5 1718.5,-209.5 1718.5,-179.5 1563.5,-179.5"/>
<text text-anchor="start" x="1571.5" y="-197.5" font-family="Helvetica,sans-Serif" font-size="10.00">amr&#45;wind/equation_systems</text>
<text text-anchor="middle" x="1641" y="-186.5" font-family="Helvetica,sans-Serif" font-size="10.00">/PDEBase.H</text>
</a>
</g>
</g>
<!-- Node21&#45;&gt;Node35 -->
<g id="edge60" class="edge">
<title>Node21&#45;&gt;Node35</title>
<path fill="none" stroke="midnightblue" d="M870.46,-253.58C994.52,-250.1 1293.39,-239.29 1553.23,-210.13"/>
<polygon fill="midnightblue" stroke="midnightblue" points="1553.69,-213.6 1563.24,-208.99 1552.91,-206.64 1553.69,-213.6"/>
</g>
<!-- Node38 -->
<g id="node38" class="node">
<title>Node38</title>
<g id="a_node38"><a xlink:href="_mesh_map_8_h.html" target="_top" xlink:title=" ">
<polygon fill="white" stroke="black" points="738,-185 738,-204 886,-204 886,-185 738,-185"/>
<text text-anchor="middle" x="812" y="-192" font-family="Helvetica,sans-Serif" font-size="10.00">amr&#45;wind/core/MeshMap.H</text>
</a>
</g>
</g>
<!-- Node21&#45;&gt;Node38 -->
<g id="edge69" class="edge">
<title>Node21&#45;&gt;Node38</title>
<path fill="none" stroke="midnightblue" d="M812,-246.48C812,-238.08 812,-224.98 812,-214.16"/>
<polygon fill="midnightblue" stroke="midnightblue" points="815.5,-214.01 812,-204.01 808.5,-214.01 815.5,-214.01"/>
</g>
<!-- Node23&#45;&gt;Node24 -->
<g id="edge33" class="edge">
<title>Node23&#45;&gt;Node24</title>
<path fill="none" stroke="midnightblue" d="M275.77,-184.73C286.1,-174.4 303.46,-157.04 316.17,-144.33"/>
<polygon fill="midnightblue" stroke="midnightblue" points="318.78,-146.67 323.37,-137.13 313.83,-141.72 318.78,-146.67"/>
</g>
<!-- Node25 -->
<g id="node25" class="node">
<title>Node25</title>
<g id="a_node25"><a xlink:title=" ">
<polygon fill="white" stroke="#bfbfbf" points="134,-118 134,-137 268,-137 268,-118 134,-118"/>
<text text-anchor="middle" x="201" y="-125" font-family="Helvetica,sans-Serif" font-size="10.00">AMReX_GpuQualifiers.H</text>
</a>
</g>
</g>
<!-- Node23&#45;&gt;Node25 -->
<g id="edge34" class="edge">
<title>Node23&#45;&gt;Node25</title>
<path fill="none" stroke="midnightblue" d="M258.1,-184.73C247.61,-174.4 229.98,-157.04 217.08,-144.33"/>
<polygon fill="midnightblue" stroke="midnightblue" points="219.34,-141.65 209.76,-137.13 214.43,-146.64 219.34,-141.65"/>
</g>
<!-- Node26 -->
<g id="node26" class="node">
<title>Node26</title>
<g id="a_node26"><a xlink:title=" ">
<polygon fill="white" stroke="#bfbfbf" points="0,-118 0,-137 116,-137 116,-118 0,-118"/>
<text text-anchor="middle" x="58" y="-125" font-family="Helvetica,sans-Serif" font-size="10.00">AMReX_Extension.H</text>
</a>
</g>
</g>
<!-- Node23&#45;&gt;Node26 -->
<g id="edge35" class="edge">
<title>Node23&#45;&gt;Node26</title>
<path fill="none" stroke="midnightblue" d="M239.25,-184.87C202.21,-173.35 136.53,-152.92 95.22,-140.08"/>
<polygon fill="midnightblue" stroke="midnightblue" points="96.12,-136.69 85.54,-137.06 94.04,-143.38 96.12,-136.69"/>
</g>
<!-- Node27&#45;&gt;Node5 -->
<g id="edge38" class="edge">
<title>Node27&#45;&gt;Node5</title>
<path fill="none" stroke="midnightblue" d="M1396.27,-188.26C1326.34,-182.01 1219.53,-168.94 1130,-143 1097.32,-133.53 1091.55,-124.74 1060,-112 1030.54,-100.1 996.59,-87.78 971.83,-79.05"/>
<polygon fill="midnightblue" stroke="midnightblue" points="972.75,-75.66 962.16,-75.65 970.43,-82.27 972.75,-75.66"/>
</g>
<!-- Node27&#45;&gt;Node10 -->
<g id="edge37" class="edge">
<title>Node27&#45;&gt;Node10</title>
<path fill="none" stroke="midnightblue" d="M1503.41,-184.94C1573.86,-165.75 1737.68,-117.66 1776,-76 1787.56,-63.44 1792.12,-44.22 1793.9,-29.93"/>
<polygon fill="midnightblue" stroke="midnightblue" points="1797.4,-30.03 1794.81,-19.75 1790.43,-29.4 1797.4,-30.03"/>
</g>
<!-- Node27&#45;&gt;Node12 -->
<g id="edge58" class="edge">
<title>Node27&#45;&gt;Node12</title>
<path fill="none" stroke="midnightblue" d="M1465.41,-184.7C1447.3,-156.21 1390.07,-66.18 1365.92,-28.18"/>
<polygon fill="midnightblue" stroke="midnightblue" points="1368.86,-26.28 1360.54,-19.71 1362.95,-30.03 1368.86,-26.28"/>
</g>
<!-- Node27&#45;&gt;Node14 -->
<g id="edge44" class="edge">
<title>Node27&#45;&gt;Node14</title>
<path fill="none" stroke="midnightblue" d="M1435.42,-184.94C1386.86,-173.24 1299.78,-152.28 1246.51,-139.46"/>
<polygon fill="midnightblue" stroke="midnightblue" points="1247.2,-136.02 1236.65,-137.08 1245.56,-142.83 1247.2,-136.02"/>
</g>
<!-- Node27&#45;&gt;Node19 -->
<g id="edge39" class="edge">
<title>Node27&#45;&gt;Node19</title>
<path fill="none" stroke="midnightblue" d="M1514.02,-184.99C1527.13,-182.69 1541.61,-180.44 1555,-179 1923,-139.44 2023.07,-210.44 2387,-143 2479.17,-125.92 2532.24,-152.09 2587,-76 2592.19,-68.79 2592.67,-62.85 2587,-56 2576.79,-43.66 2493.94,-29.94 2429.25,-20.93"/>
<polygon fill="midnightblue" stroke="midnightblue" points="2429.42,-17.42 2419.04,-19.52 2428.47,-24.35 2429.42,-17.42"/>
</g>
<!-- Node27&#45;&gt;Node22 -->
<g id="edge57" class="edge">
<title>Node27&#45;&gt;Node22</title>
<path fill="none" stroke="midnightblue" d="M1401.36,-184.99C1324.18,-175.41 1196.06,-159.08 1086,-143 1076.7,-141.64 1066.88,-140.13 1057.27,-138.62"/>
<polygon fill="midnightblue" stroke="midnightblue" points="1057.79,-135.16 1047.36,-137.04 1056.69,-142.07 1057.79,-135.16"/>
</g>
<!-- Node28 -->
<g id="node28" class="node">
<title>Node28</title>
<g id="a_node28"><a xlink:href="_field_utils_8_h.html" target="_top" xlink:title=" ">
<polygon fill="white" stroke="black" points="2432,-56.5 2432,-75.5 2578,-75.5 2578,-56.5 2432,-56.5"/>
<text text-anchor="middle" x="2505" y="-63.5" font-family="Helvetica,sans-Serif" font-size="10.00">amr&#45;wind/core/FieldUtils.H</text>
</a>
</g>
</g>
<!-- Node27&#45;&gt;Node28 -->
<g id="edge40" class="edge">
<title>Node27&#45;&gt;Node28</title>
<path fill="none" stroke="midnightblue" d="M1514.45,-184.94C1527.45,-182.67 1541.76,-180.45 1555,-179 1897.34,-141.64 1993.47,-220.52 2329,-143 2386.26,-129.77 2448.26,-98.64 2481.22,-80.59"/>
<polygon fill="midnightblue" stroke="midnightblue" points="2483.06,-83.57 2490.1,-75.66 2479.66,-77.45 2483.06,-83.57"/>
</g>
<!-- Node30 -->
<g id="node30" class="node">
<title>Node30</title>
<g id="a_node30"><a xlink:href="_int_field_8_h.html" target="_top" xlink:title=" ">
<polygon fill="white" stroke="black" points="2182.5,-118 2182.5,-137 2319.5,-137 2319.5,-118 2182.5,-118"/>
<text text-anchor="middle" x="2251" y="-125" font-family="Helvetica,sans-Serif" font-size="10.00">amr&#45;wind/core/IntField.H</text>
</a>
</g>
</g>
<!-- Node27&#45;&gt;Node30 -->
<g id="edge45" class="edge">
<title>Node27&#45;&gt;Node30</title>
<path fill="none" stroke="midnightblue" d="M1515.34,-184.96C1528.1,-182.74 1542.07,-180.55 1555,-179 1791.19,-150.73 1851.86,-161.6 2089,-143 2116.21,-140.87 2145.96,-138.28 2172.46,-135.88"/>
<polygon fill="midnightblue" stroke="midnightblue" points="2172.81,-139.36 2182.45,-134.97 2172.17,-132.39 2172.81,-139.36"/>
</g>
<!-- Node31 -->
<g id="node31" class="node">
<title>Node31</title>
<g id="a_node31"><a xlink:title=" ">
<polygon fill="white" stroke="#bfbfbf" points="2188,-56.5 2188,-75.5 2300,-75.5 2300,-56.5 2188,-56.5"/>
<text text-anchor="middle" x="2244" y="-63.5" font-family="Helvetica,sans-Serif" font-size="10.00">AMReX_iMultiFab.H</text>
</a>
</g>
</g>
<!-- Node27&#45;&gt;Node31 -->
<g id="edge59" class="edge">
<title>Node27&#45;&gt;Node31</title>
<path fill="none" stroke="midnightblue" d="M1516.23,-184.93C1528.75,-182.77 1542.37,-180.6 1555,-179 1749.65,-154.29 1802.28,-179.85 1995,-143 2074.82,-127.74 2165.35,-96.42 2212.17,-79.13"/>
<polygon fill="midnightblue" stroke="midnightblue" points="2213.6,-82.34 2221.75,-75.57 2211.16,-75.78 2213.6,-82.34"/>
</g>
<!-- Node32 -->
<g id="node32" class="node">
<title>Node32</title>
<g id="a_node32"><a xlink:href="_scratch_field_8_h.html" target="_top" xlink:title=" ">
<polygon fill="white" stroke="black" points="1826,-118 1826,-137 1986,-137 1986,-118 1826,-118"/>
<text text-anchor="middle" x="1906" y="-125" font-family="Helvetica,sans-Serif" font-size="10.00">amr&#45;wind/core/ScratchField.H</text>
</a>
</g>
</g>
<!-- Node27&#45;&gt;Node32 -->
<g id="edge49" class="edge">
<title>Node27&#45;&gt;Node32</title>
<path fill="none" stroke="midnightblue" d="M1518.93,-184.97C1530.72,-182.94 1543.3,-180.84 1555,-179 1667.63,-161.3 1696.17,-159.43 1809,-143 1818.86,-141.56 1829.27,-140.03 1839.48,-138.51"/>
<polygon fill="midnightblue" stroke="midnightblue" points="1840.21,-141.94 1849.59,-137.01 1839.18,-135.02 1840.21,-141.94"/>
</g>
<!-- Node28&#45;&gt;Node12 -->
<g id="edge42" class="edge">
<title>Node28&#45;&gt;Node12</title>
<path fill="none" stroke="midnightblue" d="M2431.75,-61.56C2221.56,-51.69 1618.77,-23.39 1419.68,-14.04"/>
<polygon fill="midnightblue" stroke="midnightblue" points="1419.82,-10.54 1409.67,-13.57 1419.49,-17.53 1419.82,-10.54"/>
</g>
<!-- Node28&#45;&gt;Node19 -->
<g id="edge41" class="edge">
<title>Node28&#45;&gt;Node19</title>
<path fill="none" stroke="midnightblue" d="M2480.6,-56.44C2454.8,-47.4 2413.92,-33.06 2384.98,-22.92"/>
<polygon fill="midnightblue" stroke="midnightblue" points="2385.88,-19.52 2375.29,-19.52 2383.57,-26.13 2385.88,-19.52"/>
</g>
<!-- Node29 -->
<g id="node29" class="node">
<title>Node29</title>
<g id="a_node29"><a xlink:title=" ">
<polygon fill="white" stroke="#bfbfbf" points="2457,-0.5 2457,-19.5 2581,-19.5 2581,-0.5 2457,-0.5"/>
<text text-anchor="middle" x="2519" y="-7.5" font-family="Helvetica,sans-Serif" font-size="10.00">AMReX_Interpolater.H</text>
</a>
</g>
</g>
<!-- Node28&#45;&gt;Node29 -->
<g id="edge43" class="edge">
<title>Node28&#45;&gt;Node29</title>
<path fill="none" stroke="midnightblue" d="M2507.31,-56.08C2509.17,-48.93 2511.84,-38.64 2514.15,-29.69"/>
<polygon fill="midnightblue" stroke="midnightblue" points="2517.61,-30.31 2516.73,-19.75 2510.83,-28.55 2517.61,-30.31"/>
</g>
<!-- Node30&#45;&gt;Node10 -->
<g id="edge46" class="edge">
<title>Node30&#45;&gt;Node10</title>
<path fill="none" stroke="midnightblue" d="M2267.24,-117.79C2290.54,-104.22 2328.59,-77.38 2309,-56 2276.42,-20.44 1934.92,-12.86 1827.29,-11.35"/>
<polygon fill="midnightblue" stroke="midnightblue" points="1827.1,-7.85 1817.05,-11.22 1827.01,-14.85 1827.1,-7.85"/>
</g>
<!-- Node30&#45;&gt;Node19 -->
<g id="edge47" class="edge">
<title>Node30&#45;&gt;Node19</title>
<path fill="none" stroke="midnightblue" d="M2280.44,-117.97C2301.08,-110.39 2327.49,-97.16 2342,-76 2351.16,-62.64 2352.92,-44.07 2352.68,-30.2"/>
<polygon fill="midnightblue" stroke="midnightblue" points="2356.15,-29.66 2352.12,-19.87 2349.16,-30.04 2356.15,-29.66"/>
</g>
<!-- Node30&#45;&gt;Node31 -->
<g id="edge48" class="edge">
<title>Node30&#45;&gt;Node31</title>
<path fill="none" stroke="midnightblue" d="M2250,-117.98C2249.01,-109.58 2247.47,-96.48 2246.2,-85.66"/>
<polygon fill="midnightblue" stroke="midnightblue" points="2249.65,-85.03 2245,-75.51 2242.69,-85.85 2249.65,-85.03"/>
</g>
<!-- Node32&#45;&gt;Node10 -->
<g id="edge50" class="edge">
<title>Node32&#45;&gt;Node10</title>
<path fill="none" stroke="midnightblue" d="M1905.57,-117.65C1904.44,-103.17 1900.27,-74.19 1885,-56 1869.98,-38.11 1846.11,-26.63 1826.72,-19.75"/>
<polygon fill="midnightblue" stroke="midnightblue" points="1827.65,-16.37 1817.06,-16.56 1825.45,-23.02 1827.65,-16.37"/>
</g>
<!-- Node32&#45;&gt;Node11 -->
<g id="edge55" class="edge">
<title>Node32&#45;&gt;Node11</title>
<path fill="none" stroke="midnightblue" d="M1889.99,-117.82C1853.12,-97.83 1762.03,-48.43 1717.83,-24.47"/>
<polygon fill="midnightblue" stroke="midnightblue" points="1719.36,-21.31 1708.9,-19.62 1716.03,-27.47 1719.36,-21.31"/>
</g>
<!-- Node32&#45;&gt;Node12 -->
<g id="edge54" class="edge">
<title>Node32&#45;&gt;Node12</title>
<path fill="none" stroke="midnightblue" d="M1825.8,-119.72C1765.28,-112.97 1680.85,-100.01 1610,-76 1591.92,-69.87 1589.96,-62.45 1572,-56 1522.28,-38.16 1463.47,-26.51 1419.62,-19.55"/>
<polygon fill="midnightblue" stroke="midnightblue" points="1420.08,-16.07 1409.66,-18 1419.01,-22.99 1420.08,-16.07"/>
</g>
<!-- Node32&#45;&gt;Node19 -->
<g id="edge52" class="edge">
<title>Node32&#45;&gt;Node19</title>
<path fill="none" stroke="midnightblue" d="M1967.65,-117.97C2015.81,-110.19 2083.92,-96.71 2141,-76 2158.94,-69.49 2161.21,-62.9 2179,-56 2217.63,-41.01 2263.05,-29.37 2297.51,-21.68"/>
<polygon fill="midnightblue" stroke="midnightblue" points="2298.35,-25.08 2307.37,-19.52 2296.86,-18.24 2298.35,-25.08"/>
</g>
<!-- Node32&#45;&gt;Node20 -->
<g id="edge53" class="edge">
<title>Node32&#45;&gt;Node20</title>
<path fill="none" stroke="midnightblue" d="M1875.48,-117.98C1838.08,-107.53 1774.57,-89.79 1733.21,-78.23"/>
<polygon fill="midnightblue" stroke="midnightblue" points="1734.03,-74.83 1723.46,-75.51 1732.15,-81.57 1734.03,-74.83"/>
</g>
<!-- Node33 -->
<g id="node33" class="node">
<title>Node33</title>
<g id="a_node33"><a xlink:title=" ">
<polygon fill="white" stroke="#bfbfbf" points="1937.5,-56.5 1937.5,-75.5 1982.5,-75.5 1982.5,-56.5 1937.5,-56.5"/>
<text text-anchor="middle" x="1960" y="-63.5" font-family="Helvetica,sans-Serif" font-size="10.00">utility</text>
</a>
</g>
</g>
<!-- Node32&#45;&gt;Node33 -->
<g id="edge51" class="edge">
<title>Node32&#45;&gt;Node33</title>
<path fill="none" stroke="midnightblue" d="M1913.74,-117.98C1922,-108.87 1935.28,-94.24 1945.49,-82.98"/>
<polygon fill="midnightblue" stroke="midnightblue" points="1948.15,-85.27 1952.28,-75.51 1942.97,-80.56 1948.15,-85.27"/>
</g>
<!-- Node34 -->
<g id="node34" class="node">
<title>Node34</title>
<g id="a_node34"><a xlink:title=" ">
<polygon fill="white" stroke="#bfbfbf" points="2000.5,-56.5 2000.5,-75.5 2131.5,-75.5 2131.5,-56.5 2000.5,-56.5"/>
<text text-anchor="middle" x="2066" y="-63.5" font-family="Helvetica,sans-Serif" font-size="10.00">AMReX_PhysBCFunct.H</text>
</a>
</g>
</g>
<!-- Node32&#45;&gt;Node34 -->
<g id="edge56" class="edge">
<title>Node32&#45;&gt;Node34</title>
<path fill="none" stroke="midnightblue" d="M1928.92,-117.98C1956.37,-107.77 2002.52,-90.61 2033.6,-79.05"/>
<polygon fill="midnightblue" stroke="midnightblue" points="2034.97,-82.28 2043.12,-75.51 2032.53,-75.71 2034.97,-82.28"/>
</g>
<!-- Node35&#45;&gt;Node3 -->
<g id="edge62" class="edge">
<title>Node35&#45;&gt;Node3</title>
<path fill="none" stroke="midnightblue" d="M1563.24,-179.95C1560.46,-179.61 1557.71,-179.29 1555,-179 1205.51,-141.71 1115.18,-173.2 765,-143 750.63,-141.76 735.28,-140.06 720.65,-138.27"/>
<polygon fill="midnightblue" stroke="midnightblue" points="721.02,-134.79 710.66,-137.01 720.15,-141.73 721.02,-134.79"/>
</g>
<!-- Node35&#45;&gt;Node9 -->
<g id="edge63" class="edge">
<title>Node35&#45;&gt;Node9</title>
<path fill="none" stroke="midnightblue" d="M1563.24,-180C1560.46,-179.64 1557.71,-179.31 1555,-179 1279.4,-147.9 1207.69,-173.34 932,-143 921.5,-141.84 910.36,-140.29 899.64,-138.63"/>
<polygon fill="midnightblue" stroke="midnightblue" points="899.95,-135.14 889.53,-137.02 898.85,-142.05 899.95,-135.14"/>
</g>
<!-- Node35&#45;&gt;Node10 -->
<g id="edge61" class="edge">
<title>Node35&#45;&gt;Node10</title>
<path fill="none" stroke="midnightblue" d="M1718.55,-193.61C1889.75,-193.04 2288.16,-186.95 2329,-143 2339.05,-132.18 2336.89,-68.05 2325,-56 2289.97,-20.49 1936.56,-12.87 1827.13,-11.35"/>
<polygon fill="midnightblue" stroke="midnightblue" points="1827.07,-7.85 1817.03,-11.22 1826.98,-14.85 1827.07,-7.85"/>
</g>
<!-- Node35&#45;&gt;Node18 -->
<g id="edge67" class="edge">
<title>Node35&#45;&gt;Node18</title>
<path fill="none" stroke="midnightblue" d="M1624.49,-179.48C1596.35,-155.59 1539.33,-107.19 1510.13,-82.39"/>
<polygon fill="midnightblue" stroke="midnightblue" points="1512.24,-79.59 1502.35,-75.79 1507.71,-84.93 1512.24,-79.59"/>
</g>
<!-- Node35&#45;&gt;Node19 -->
<g id="edge66" class="edge">
<title>Node35&#45;&gt;Node19</title>
<path fill="none" stroke="midnightblue" d="M1718.65,-192.38C1944.83,-188.73 2589.11,-175.53 2620,-143 2646.63,-114.96 2644.98,-85.51 2620,-56 2608.49,-42.41 2517.63,-29.25 2444.65,-20.71"/>
<polygon fill="midnightblue" stroke="midnightblue" points="2444.81,-17.21 2434.48,-19.54 2444.01,-24.16 2444.81,-17.21"/>
</g>
<!-- Node36 -->
<g id="node36" class="node">
<title>Node36</title>
<g id="a_node36"><a xlink:href="_p_d_e_fields_8_h.html" target="_top" xlink:title=" ">
<polygon fill="white" stroke="black" points="2672.5,-112.5 2672.5,-142.5 2827.5,-142.5 2827.5,-112.5 2672.5,-112.5"/>
<text text-anchor="start" x="2680.5" y="-130.5" font-family="Helvetica,sans-Serif" font-size="10.00">amr&#45;wind/equation_systems</text>
<text text-anchor="middle" x="2750" y="-119.5" font-family="Helvetica,sans-Serif" font-size="10.00">/PDEFields.H</text>
</a>
</g>
</g>
<!-- Node35&#45;&gt;Node36 -->
<g id="edge64" class="edge">
<title>Node35&#45;&gt;Node36</title>
<path fill="none" stroke="midnightblue" d="M1718.72,-192.47C1889.22,-189.58 2308.73,-179.09 2658,-143 2659.31,-142.86 2660.63,-142.72 2661.96,-142.58"/>
<polygon fill="midnightblue" stroke="midnightblue" points="2662.76,-146.01 2672.28,-141.35 2661.93,-139.05 2662.76,-146.01"/>
</g>
<!-- Node37 -->
<g id="node37" class="node">
<title>Node37</title>
<g id="a_node37"><a xlink:title=" ">
<polygon fill="white" stroke="#bfbfbf" points="2726,-56.5 2726,-75.5 2774,-75.5 2774,-56.5 2726,-56.5"/>
<text text-anchor="middle" x="2750" y="-63.5" font-family="Helvetica,sans-Serif" font-size="10.00">iosfwd</text>
</a>
</g>
</g>
<!-- Node36&#45;&gt;Node37 -->
<g id="edge65" class="edge">
<title>Node36&#45;&gt;Node37</title>
<path fill="none" stroke="midnightblue" d="M2750,-112.4C2750,-104.47 2750,-94.46 2750,-85.86"/>
<polygon fill="midnightblue" stroke="midnightblue" points="2753.5,-85.66 2750,-75.66 2746.5,-85.66 2753.5,-85.66"/>
</g>
<!-- Node38&#45;&gt;Node3 -->
<g id="edge71" class="edge">
<title>Node38&#45;&gt;Node3</title>
<path fill="none" stroke="midnightblue" d="M790.62,-184.87C762.64,-173.57 713.41,-153.7 681.51,-140.82"/>
<polygon fill="midnightblue" stroke="midnightblue" points="682.79,-137.56 672.21,-137.06 680.17,-144.05 682.79,-137.56"/>
</g>
<!-- Node38&#45;&gt;Node9 -->
<g id="edge70" class="edge">
<title>Node38&#45;&gt;Node9</title>
<path fill="none" stroke="midnightblue" d="M816.18,-184.73C820.88,-174.89 828.62,-158.66 834.58,-146.16"/>
<polygon fill="midnightblue" stroke="midnightblue" points="837.74,-147.66 838.89,-137.13 831.42,-144.65 837.74,-147.66"/>
</g>
<!-- Node38&#45;&gt;Node12 -->
<g id="edge73" class="edge">
<title>Node38&#45;&gt;Node12</title>
<path fill="none" stroke="midnightblue" d="M800.2,-185C788.82,-176.02 772.28,-160.73 765,-143 750.31,-107.22 736.71,-84.37 763,-56 798.26,-17.96 1144.09,-11.92 1290.28,-11.07"/>
<polygon fill="midnightblue" stroke="midnightblue" points="1290.47,-14.57 1300.46,-11.02 1290.44,-7.57 1290.47,-14.57"/>
</g>
<!-- Node38&#45;&gt;Node13 -->
<g id="edge74" class="edge">
<title>Node38&#45;&gt;Node13</title>
<path fill="none" stroke="midnightblue" d="M771.73,-184.96C724.57,-174.95 644.1,-157.84 575,-143 569.26,-141.77 563.24,-140.47 557.27,-139.18"/>
<polygon fill="midnightblue" stroke="midnightblue" points="557.83,-135.72 547.32,-137.03 556.36,-142.56 557.83,-135.72"/>
</g>
<!-- Node38&#45;&gt;Node14 -->
<g id="edge72" class="edge">
<title>Node38&#45;&gt;Node14</title>
<path fill="none" stroke="midnightblue" d="M863.25,-184.94C934.63,-173.01 1063.76,-151.43 1140,-138.69"/>
<polygon fill="midnightblue" stroke="midnightblue" points="1140.65,-142.13 1149.94,-137.03 1139.5,-135.23 1140.65,-142.13"/>
</g>
</g>
</svg>
        <g id="navigator" transform="translate(0 0)" fill="#404254">
                <rect fill="#f2f5e9" fill-opacity="0.5" stroke="#606060" stroke-width=".5" x="0" y="0" width="60" height="60"/>
                <use id="zoomplus" xlink:href="#zoomPlus" x="17" y="9" onmousedown="handleZoom(evt,'in')"/>
                <use id="zoomminus" xlink:href="#zoomMin" x="42" y="9" onmousedown="handleZoom(evt,'out')"/>
                <use id="reset" xlink:href="#resetDef" x="30" y="36" onmousedown="handleReset()"/>
                <g id="arrowUp" xlink:href="#dirArrow" transform="translate(30 24)" onmousedown="handlePan(0,-1)">
                  <use xlink:href="#rim" fill="#404040">
                        <set attributeName="fill" to="#808080" begin="arrowUp.mouseover" end="arrowUp.mouseout"/>
                  </use>
                  <path fill="none" stroke="white" stroke-width="1.5" d="M0,-3.0v7 M-2.5,-0.5L0,-3.0L2.5,-0.5"/>
                </g>
                <g id="arrowRight" xlink:href="#dirArrow" transform="rotate(90) translate(36 -43)" onmousedown="handlePan(1,0)">
                  <use xlink:href="#rim" fill="#404040">
                        <set attributeName="fill" to="#808080" begin="arrowRight.mouseover" end="arrowRight.mouseout"/>
                  </use>
                  <path fill="none" stroke="white" stroke-width="1.5" d="M0,-3.0v7 M-2.5,-0.5L0,-3.0L2.5,-0.5"/>
                </g>
                <g id="arrowDown" xlink:href="#dirArrow" transform="rotate(180) translate(-30 -48)" onmousedown="handlePan(0,1)">
                  <use xlink:href="#rim" fill="#404040">
                        <set attributeName="fill" to="#808080" begin="arrowDown.mouseover" end="arrowDown.mouseout"/>
                  </use>
                  <path fill="none" stroke="white" stroke-width="1.5" d="M0,-3.0v7 M-2.5,-0.5L0,-3.0L2.5,-0.5"/>
                </g>
                <g id="arrowLeft" xlink:href="#dirArrow" transform="rotate(270) translate(-36 17)" onmousedown="handlePan(-1,0)">
                  <use xlink:href="#rim" fill="#404040">
                        <set attributeName="fill" to="#808080" begin="arrowLeft.mouseover" end="arrowLeft.mouseout"/>
                  </use>
                  <path fill="none" stroke="white" stroke-width="1.5" d="M0,-3.0v7 M-2.5,-0.5L0,-3.0L2.5,-0.5"/>
                </g>
        </g>
        <svg viewBox="0 0 15 15" width="100%" height="30px" preserveAspectRatio="xMaxYMin meet">
         <g id="arrow_out" transform="scale(0.3 0.3)">
          <a xlink:href="_channel_flow_8_h__incl_org.svg" target="_base">
           <rect id="button" ry="5" rx="5" y="6" x="6" height="38" width="38"
                fill="#f2f5e9" fill-opacity="0.5" stroke="#606060" stroke-width="1.0"/>
           <path id="arrow"
             d="M 11.500037,31.436501 C 11.940474,20.09759 22.043105,11.32322 32.158766,21.979434 L 37.068811,17.246167 C 37.068811,17.246167 37.088388,32 37.088388,32 L 22.160133,31.978069 C 22.160133,31.978069 26.997745,27.140456 26.997745,27.140456 C 18.528582,18.264221 13.291696,25.230495 11.500037,31.436501 z"
             style="fill:#404040;"/>
          </a>
         </g>
        </svg>
</svg>
