<?xml version="1.0" encoding="UTF-8" standalone="no"?>
<!DOCTYPE svg PUBLIC "-//W3C//DTD SVG 1.1//EN"
 "http://www.w3.org/Graphics/SVG/1.1/DTD/svg11.dtd">
<!-- Generated by graphviz version 2.43.0 (0)
 -->
<!-- Title: ConstTransport.H Pages: 1 -->
<!--zoomable 319 -->
<svg id="main" version="1.1" xmlns="http://www.w3.org/2000/svg" xmlns:xlink="http://www.w3.org/1999/xlink" xml:space="preserve" onload="init(evt)">
<style type="text/css"><![CDATA[
.edge:hover path { stroke: red; }
.edge:hover polygon { stroke: red; fill: red; }
]]></style>
<script type="text/javascript"><![CDATA[
var edges = document.getElementsByTagName('g');
if (edges && edges.length) {
  for (var i=0;i<edges.length;i++) {
    if (edges[i].id.substr(0,4)=='edge') {
      edges[i].setAttribute('class','edge');
    }
  }
}
]]></script>
        <defs>
                <circle id="rim" cx="0" cy="0" r="7"/>
                <circle id="rim2" cx="0" cy="0" r="3.5"/>
                <g id="zoomPlus">
                        <use xlink:href="#rim" fill="#404040">
                                <set attributeName="fill" to="#808080" begin="zoomplus.mouseover" end="zoomplus.mouseout"/>
                        </use>
                        <path d="M-4,0h8M0,-4v8" fill="none" stroke="white" stroke-width="1.5" pointer-events="none"/>
                </g>
                <g id="zoomMin">
                        <use xlink:href="#rim" fill="#404040">
                                <set attributeName="fill" to="#808080" begin="zoomminus.mouseover" end="zoomminus.mouseout"/>
                        </use>
                        <path d="M-4,0h8" fill="none" stroke="white" stroke-width="1.5" pointer-events="none"/>
                </g>
                <g id="dirArrow">
                        <path fill="none" stroke="white" stroke-width="1.5" d="M0,-3.0v7 M-2.5,-0.5L0,-3.0L2.5,-0.5"/>
                </g>
               <g id="resetDef">
                       <use xlink:href="#rim2" fill="#404040">
                               <set attributeName="fill" to="#808080" begin="reset.mouseover" end="reset.mouseout"/>
                       </use>
               </g>
        </defs>

<script type="text/javascript">
var viewWidth = 2014;
var viewHeight = 319;
var sectionId = 'dynsection-0';
</script>
<script xlink:href="svgpan.js"/>
<svg id="graph" class="graph">
<g id="viewport">
<title>ConstTransport.H</title>
<polygon fill="white" stroke="transparent" points="-4,4 -4,-315 2010.15,-315 2010.15,4 -4,4"/>
<!-- Node1 -->
<g id="node1" class="node">
<title>Node1</title>
<g id="a_node1"><a xlink:title=" ">
<polygon fill="#bfbfbf" stroke="black" points="795,-291.5 795,-310.5 895,-310.5 895,-291.5 795,-291.5"/>
<text text-anchor="middle" x="845" y="-298.5" font-family="Helvetica,sans-Serif" font-size="10.00">ConstTransport.H</text>
</a>
</g>
</g>
<!-- Node2 -->
<g id="node2" class="node">
<title>Node2</title>
<g id="a_node2"><a xlink:href="_transport_model_8_h.html" target="_top" xlink:title=" ">
<polygon fill="white" stroke="black" points="697,-224.5 697,-254.5 843,-254.5 843,-224.5 697,-224.5"/>
<text text-anchor="start" x="705" y="-242.5" font-family="Helvetica,sans-Serif" font-size="10.00">amr&#45;wind/transport</text>
<text text-anchor="middle" x="770" y="-231.5" font-family="Helvetica,sans-Serif" font-size="10.00">_models/TransportModel.H</text>
</a>
</g>
</g>
<!-- Node1&#45;&gt;Node2 -->
<g id="edge1" class="edge">
<title>Node1&#45;&gt;Node2</title>
<path fill="none" stroke="midnightblue" d="M834.25,-291.48C824.19,-283.49 808.77,-271.25 795.55,-260.77"/>
<polygon fill="midnightblue" stroke="midnightblue" points="797.69,-258 787.68,-254.52 793.33,-263.48 797.69,-258"/>
</g>
<!-- Node28 -->
<g id="node28" class="node">
<title>Node28</title>
<g id="a_node28"><a xlink:title=" ">
<polygon fill="white" stroke="#bfbfbf" points="861.5,-230 861.5,-249 980.5,-249 980.5,-230 861.5,-230"/>
<text text-anchor="middle" x="921" y="-237" font-family="Helvetica,sans-Serif" font-size="10.00">AMReX_ParmParse.H</text>
</a>
</g>
</g>
<!-- Node1&#45;&gt;Node28 -->
<g id="edge46" class="edge">
<title>Node1&#45;&gt;Node28</title>
<path fill="none" stroke="midnightblue" d="M855.89,-291.48C867.97,-282.02 887.67,-266.6 902.24,-255.19"/>
<polygon fill="midnightblue" stroke="midnightblue" points="904.41,-257.93 910.13,-249.01 900.1,-252.42 904.41,-257.93"/>
</g>
<!-- Node3 -->
<g id="node3" class="node">
<title>Node3</title>
<g id="a_node3"><a xlink:href="_factory_8_h.html" target="_top" xlink:title=" ">
<polygon fill="white" stroke="black" points="190,-112.5 190,-131.5 324,-131.5 324,-112.5 190,-112.5"/>
<text text-anchor="middle" x="257" y="-119.5" font-family="Helvetica,sans-Serif" font-size="10.00">amr&#45;wind/core/Factory.H</text>
</a>
</g>
</g>
<!-- Node2&#45;&gt;Node3 -->
<g id="edge2" class="edge">
<title>Node2&#45;&gt;Node3</title>
<path fill="none" stroke="midnightblue" d="M707.61,-224.45C603.89,-201.1 398.19,-154.79 304.94,-133.79"/>
<polygon fill="midnightblue" stroke="midnightblue" points="305.47,-130.32 294.94,-131.54 303.93,-137.15 305.47,-130.32"/>
</g>
<!-- Node9 -->
<g id="node9" class="node">
<title>Node9</title>
<g id="a_node9"><a xlink:href="_field_repo_8_h.html" target="_top" xlink:title=" ">
<polygon fill="white" stroke="black" points="1169.5,-168.5 1169.5,-187.5 1318.5,-187.5 1318.5,-168.5 1169.5,-168.5"/>
<text text-anchor="middle" x="1244" y="-175.5" font-family="Helvetica,sans-Serif" font-size="10.00">amr&#45;wind/core/FieldRepo.H</text>
</a>
</g>
</g>
<!-- Node2&#45;&gt;Node9 -->
<g id="edge8" class="edge">
<title>Node2&#45;&gt;Node9</title>
<path fill="none" stroke="midnightblue" d="M843.28,-225.31C846.22,-224.86 849.14,-224.42 852,-224 957.64,-208.61 1079.92,-195.28 1159.44,-187.21"/>
<polygon fill="midnightblue" stroke="midnightblue" points="1159.81,-190.69 1169.41,-186.2 1159.1,-183.73 1159.81,-190.69"/>
</g>
<!-- Node4 -->
<g id="node4" class="node">
<title>Node4</title>
<g id="a_node4"><a xlink:title=" ">
<polygon fill="white" stroke="#bfbfbf" points="266,-56.5 266,-75.5 324,-75.5 324,-56.5 266,-56.5"/>
<text text-anchor="middle" x="295" y="-63.5" font-family="Helvetica,sans-Serif" font-size="10.00">memory</text>
</a>
</g>
</g>
<!-- Node3&#45;&gt;Node4 -->
<g id="edge3" class="edge">
<title>Node3&#45;&gt;Node4</title>
<path fill="none" stroke="midnightblue" d="M263.27,-112.08C268.64,-104.46 276.52,-93.26 283.08,-83.94"/>
<polygon fill="midnightblue" stroke="midnightblue" points="285.95,-85.94 288.84,-75.75 280.22,-81.91 285.95,-85.94"/>
</g>
<!-- Node5 -->
<g id="node5" class="node">
<title>Node5</title>
<g id="a_node5"><a xlink:title=" ">
<polygon fill="white" stroke="#bfbfbf" points="544.5,-56.5 544.5,-75.5 637.5,-75.5 637.5,-56.5 544.5,-56.5"/>
<text text-anchor="middle" x="591" y="-63.5" font-family="Helvetica,sans-Serif" font-size="10.00">unordered_map</text>
</a>
</g>
</g>
<!-- Node3&#45;&gt;Node5 -->
<g id="edge4" class="edge">
<title>Node3&#45;&gt;Node5</title>
<path fill="none" stroke="midnightblue" d="M309.92,-112.44C371.08,-102.56 471.34,-86.35 534.13,-76.19"/>
<polygon fill="midnightblue" stroke="midnightblue" points="534.94,-79.61 544.25,-74.56 533.82,-72.7 534.94,-79.61"/>
</g>
<!-- Node6 -->
<g id="node6" class="node">
<title>Node6</title>
<g id="a_node6"><a xlink:title=" ">
<polygon fill="white" stroke="#bfbfbf" points="188,-56.5 188,-75.5 248,-75.5 248,-56.5 188,-56.5"/>
<text text-anchor="middle" x="218" y="-63.5" font-family="Helvetica,sans-Serif" font-size="10.00">iostream</text>
</a>
</g>
</g>
<!-- Node3&#45;&gt;Node6 -->
<g id="edge5" class="edge">
<title>Node3&#45;&gt;Node6</title>
<path fill="none" stroke="midnightblue" d="M250.56,-112.08C245.05,-104.46 236.97,-93.26 230.24,-83.94"/>
<polygon fill="midnightblue" stroke="midnightblue" points="233.01,-81.81 224.32,-75.75 227.34,-85.91 233.01,-81.81"/>
</g>
<!-- Node7 -->
<g id="node7" class="node">
<title>Node7</title>
<g id="a_node7"><a xlink:title=" ">
<polygon fill="white" stroke="#bfbfbf" points="0,-56.5 0,-75.5 90,-75.5 90,-56.5 0,-56.5"/>
<text text-anchor="middle" x="45" y="-63.5" font-family="Helvetica,sans-Serif" font-size="10.00">AMReX_Print.H</text>
</a>
</g>
</g>
<!-- Node3&#45;&gt;Node7 -->
<g id="edge6" class="edge">
<title>Node3&#45;&gt;Node7</title>
<path fill="none" stroke="midnightblue" d="M223.41,-112.44C186.81,-103.12 128.16,-88.18 88.17,-78"/>
<polygon fill="midnightblue" stroke="midnightblue" points="88.99,-74.59 78.43,-75.52 87.26,-81.38 88.99,-74.59"/>
</g>
<!-- Node8 -->
<g id="node8" class="node">
<title>Node8</title>
<g id="a_node8"><a xlink:title=" ">
<polygon fill="white" stroke="#bfbfbf" points="108,-56.5 108,-75.5 170,-75.5 170,-56.5 108,-56.5"/>
<text text-anchor="middle" x="139" y="-63.5" font-family="Helvetica,sans-Serif" font-size="10.00">AMReX.H</text>
</a>
</g>
</g>
<!-- Node3&#45;&gt;Node8 -->
<g id="edge7" class="edge">
<title>Node3&#45;&gt;Node8</title>
<path fill="none" stroke="midnightblue" d="M238.3,-112.44C219.06,-103.64 188.85,-89.81 166.8,-79.72"/>
<polygon fill="midnightblue" stroke="midnightblue" points="168.16,-76.5 157.61,-75.52 165.25,-82.86 168.16,-76.5"/>
</g>
<!-- Node9&#45;&gt;Node5 -->
<g id="edge10" class="edge">
<title>Node9&#45;&gt;Node5</title>
<path fill="none" stroke="midnightblue" d="M1169.4,-170.64C1092.89,-163.53 970.61,-150.53 866,-132 782.04,-117.13 685.33,-92.49 631.88,-78.2"/>
<polygon fill="midnightblue" stroke="midnightblue" points="632.67,-74.79 622.1,-75.57 630.85,-81.55 632.67,-74.79"/>
</g>
<!-- Node10 -->
<g id="node10" class="node">
<title>Node10</title>
<g id="a_node10"><a xlink:title=" ">
<polygon fill="white" stroke="#bfbfbf" points="1632,-0.5 1632,-19.5 1676,-19.5 1676,-0.5 1632,-0.5"/>
<text text-anchor="middle" x="1654" y="-7.5" font-family="Helvetica,sans-Serif" font-size="10.00">string</text>
</a>
</g>
</g>
<!-- Node9&#45;&gt;Node10 -->
<g id="edge9" class="edge">
<title>Node9&#45;&gt;Node10</title>
<path fill="none" stroke="midnightblue" d="M1318.55,-168.69C1372.83,-161.62 1447.77,-149.76 1512,-132 1516.11,-130.86 1652.6,-79.52 1655,-76 1664.14,-62.61 1662.71,-43.79 1659.69,-29.84"/>
<polygon fill="midnightblue" stroke="midnightblue" points="1663.01,-28.7 1657.1,-19.9 1656.24,-30.46 1663.01,-28.7"/>
</g>
<!-- Node11 -->
<g id="node11" class="node">
<title>Node11</title>
<g id="a_node11"><a xlink:href="_field_desc_types_8_h.html" target="_top" xlink:title=" ">
<polygon fill="white" stroke="black" points="1259,-0.5 1259,-19.5 1435,-19.5 1435,-0.5 1259,-0.5"/>
<text text-anchor="middle" x="1347" y="-7.5" font-family="Helvetica,sans-Serif" font-size="10.00">amr&#45;wind/core/FieldDescTypes.H</text>
</a>
</g>
</g>
<!-- Node9&#45;&gt;Node11 -->
<g id="edge11" class="edge">
<title>Node9&#45;&gt;Node11</title>
<path fill="none" stroke="midnightblue" d="M1242.92,-168.43C1240.73,-147.21 1237.89,-91.37 1263,-56 1273.73,-40.89 1291.15,-30.39 1307.35,-23.35"/>
<polygon fill="midnightblue" stroke="midnightblue" points="1308.72,-26.58 1316.69,-19.6 1306.11,-20.08 1308.72,-26.58"/>
</g>
<!-- Node12 -->
<g id="node12" class="node">
<title>Node12</title>
<g id="a_node12"><a xlink:href="_field_utils_8_h.html" target="_top" xlink:title=" ">
<polygon fill="white" stroke="black" points="342,-56.5 342,-75.5 488,-75.5 488,-56.5 342,-56.5"/>
<text text-anchor="middle" x="415" y="-63.5" font-family="Helvetica,sans-Serif" font-size="10.00">amr&#45;wind/core/FieldUtils.H</text>
</a>
</g>
</g>
<!-- Node9&#45;&gt;Node12 -->
<g id="edge12" class="edge">
<title>Node9&#45;&gt;Node12</title>
<path fill="none" stroke="midnightblue" d="M1169.34,-174.9C993.5,-169.61 563.46,-154.51 502,-132 473.66,-121.62 446.74,-98.8 430.55,-83.16"/>
<polygon fill="midnightblue" stroke="midnightblue" points="432.66,-80.33 423.11,-75.74 427.72,-85.28 432.66,-80.33"/>
</g>
<!-- Node13 -->
<g id="node13" class="node">
<title>Node13</title>
<g id="a_node13"><a xlink:title=" ">
<polygon fill="white" stroke="#bfbfbf" points="611.5,-0.5 611.5,-19.5 720.5,-19.5 720.5,-0.5 611.5,-0.5"/>
<text text-anchor="middle" x="666" y="-7.5" font-family="Helvetica,sans-Serif" font-size="10.00">AMReX_MultiFab.H</text>
</a>
</g>
</g>
<!-- Node9&#45;&gt;Node13 -->
<g id="edge44" class="edge">
<title>Node9&#45;&gt;Node13</title>
<path fill="none" stroke="midnightblue" d="M1169.48,-172.1C995.46,-159.88 574.06,-125.41 535,-76 512.02,-46.93 557.83,-29.88 601.46,-20.59"/>
<polygon fill="midnightblue" stroke="midnightblue" points="602.17,-24.02 611.29,-18.61 600.8,-17.15 602.17,-24.02"/>
</g>
<!-- Node15 -->
<g id="node15" class="node">
<title>Node15</title>
<g id="a_node15"><a xlink:href="_field_8_h.html" target="_top" xlink:title=" ">
<polygon fill="white" stroke="black" points="875,-112.5 875,-131.5 999,-131.5 999,-112.5 875,-112.5"/>
<text text-anchor="middle" x="937" y="-119.5" font-family="Helvetica,sans-Serif" font-size="10.00">amr&#45;wind/core/Field.H</text>
</a>
</g>
</g>
<!-- Node9&#45;&gt;Node15 -->
<g id="edge16" class="edge">
<title>Node9&#45;&gt;Node15</title>
<path fill="none" stroke="midnightblue" d="M1195.35,-168.44C1141.13,-158.9 1053.45,-143.48 995.52,-133.29"/>
<polygon fill="midnightblue" stroke="midnightblue" points="995.87,-129.8 985.42,-131.52 994.66,-136.7 995.87,-129.8"/>
</g>
<!-- Node22 -->
<g id="node22" class="node">
<title>Node22</title>
<g id="a_node22"><a xlink:href="_int_field_8_h.html" target="_top" xlink:title=" ">
<polygon fill="white" stroke="black" points="1365.5,-112.5 1365.5,-131.5 1502.5,-131.5 1502.5,-112.5 1365.5,-112.5"/>
<text text-anchor="middle" x="1434" y="-119.5" font-family="Helvetica,sans-Serif" font-size="10.00">amr&#45;wind/core/IntField.H</text>
</a>
</g>
</g>
<!-- Node9&#45;&gt;Node22 -->
<g id="edge31" class="edge">
<title>Node9&#45;&gt;Node22</title>
<path fill="none" stroke="midnightblue" d="M1274.11,-168.44C1306.63,-159.2 1358.58,-144.44 1394.39,-134.26"/>
<polygon fill="midnightblue" stroke="midnightblue" points="1395.37,-137.62 1404.03,-131.52 1393.46,-130.88 1395.37,-137.62"/>
</g>
<!-- Node23 -->
<g id="node23" class="node">
<title>Node23</title>
<g id="a_node23"><a xlink:title=" ">
<polygon fill="white" stroke="#bfbfbf" points="1272,-56.5 1272,-75.5 1384,-75.5 1384,-56.5 1272,-56.5"/>
<text text-anchor="middle" x="1328" y="-63.5" font-family="Helvetica,sans-Serif" font-size="10.00">AMReX_iMultiFab.H</text>
</a>
</g>
</g>
<!-- Node9&#45;&gt;Node23 -->
<g id="edge45" class="edge">
<title>Node9&#45;&gt;Node23</title>
<path fill="none" stroke="midnightblue" d="M1250.59,-168.37C1264.52,-150.14 1297.13,-107.43 1315.27,-83.68"/>
<polygon fill="midnightblue" stroke="midnightblue" points="1318.15,-85.66 1321.44,-75.59 1312.59,-81.41 1318.15,-85.66"/>
</g>
<!-- Node24 -->
<g id="node24" class="node">
<title>Node24</title>
<g id="a_node24"><a xlink:href="_scratch_field_8_h.html" target="_top" xlink:title=" ">
<polygon fill="white" stroke="black" points="1703,-112.5 1703,-131.5 1863,-131.5 1863,-112.5 1703,-112.5"/>
<text text-anchor="middle" x="1783" y="-119.5" font-family="Helvetica,sans-Serif" font-size="10.00">amr&#45;wind/core/ScratchField.H</text>
</a>
</g>
</g>
<!-- Node9&#45;&gt;Node24 -->
<g id="edge35" class="edge">
<title>Node9&#45;&gt;Node24</title>
<path fill="none" stroke="midnightblue" d="M1318.85,-169.54C1405.97,-160.85 1554.5,-146.02 1692.6,-132.14"/>
<polygon fill="midnightblue" stroke="midnightblue" points="1693.35,-135.58 1702.95,-131.1 1692.65,-128.62 1693.35,-135.58"/>
</g>
<!-- Node27 -->
<g id="node27" class="node">
<title>Node27</title>
<g id="a_node27"><a xlink:title=" ">
<polygon fill="white" stroke="#bfbfbf" points="1575,-112.5 1575,-131.5 1685,-131.5 1685,-112.5 1575,-112.5"/>
<text text-anchor="middle" x="1630" y="-119.5" font-family="Helvetica,sans-Serif" font-size="10.00">AMReX_AmrCore.H</text>
</a>
</g>
</g>
<!-- Node9&#45;&gt;Node27 -->
<g id="edge43" class="edge">
<title>Node9&#45;&gt;Node27</title>
<path fill="none" stroke="midnightblue" d="M1305.16,-168.44C1376.02,-158.53 1492.29,-142.26 1564.82,-132.12"/>
<polygon fill="midnightblue" stroke="midnightblue" points="1565.33,-135.58 1574.75,-130.73 1564.36,-128.65 1565.33,-135.58"/>
</g>
<!-- Node12&#45;&gt;Node11 -->
<g id="edge13" class="edge">
<title>Node12&#45;&gt;Node11</title>
<path fill="none" stroke="midnightblue" d="M488.28,-59.28C503.71,-58.13 519.89,-56.99 535,-56 792.37,-39.22 1095.9,-23.47 1248.66,-15.83"/>
<polygon fill="midnightblue" stroke="midnightblue" points="1249.14,-19.31 1258.95,-15.32 1248.79,-12.32 1249.14,-19.31"/>
</g>
<!-- Node12&#45;&gt;Node13 -->
<g id="edge14" class="edge">
<title>Node12&#45;&gt;Node13</title>
<path fill="none" stroke="midnightblue" d="M454.77,-56.44C498.56,-47.02 569.01,-31.87 616.38,-21.68"/>
<polygon fill="midnightblue" stroke="midnightblue" points="617.37,-25.04 626.41,-19.52 615.9,-18.2 617.37,-25.04"/>
</g>
<!-- Node14 -->
<g id="node14" class="node">
<title>Node14</title>
<g id="a_node14"><a xlink:title=" ">
<polygon fill="white" stroke="#bfbfbf" points="353,-0.5 353,-19.5 477,-19.5 477,-0.5 353,-0.5"/>
<text text-anchor="middle" x="415" y="-7.5" font-family="Helvetica,sans-Serif" font-size="10.00">AMReX_Interpolater.H</text>
</a>
</g>
</g>
<!-- Node12&#45;&gt;Node14 -->
<g id="edge15" class="edge">
<title>Node12&#45;&gt;Node14</title>
<path fill="none" stroke="midnightblue" d="M415,-56.08C415,-49.01 415,-38.86 415,-29.99"/>
<polygon fill="midnightblue" stroke="midnightblue" points="418.5,-29.75 415,-19.75 411.5,-29.75 418.5,-29.75"/>
</g>
<!-- Node15&#45;&gt;Node4 -->
<g id="edge18" class="edge">
<title>Node15&#45;&gt;Node4</title>
<path fill="none" stroke="midnightblue" d="M874.9,-119.61C766.79,-116.48 536.96,-106.7 334.3,-75.97"/>
<polygon fill="midnightblue" stroke="midnightblue" points="334.78,-72.5 324.37,-74.44 333.72,-79.42 334.78,-72.5"/>
</g>
<!-- Node15&#45;&gt;Node5 -->
<g id="edge19" class="edge">
<title>Node15&#45;&gt;Node5</title>
<path fill="none" stroke="midnightblue" d="M882.18,-112.44C818.05,-102.44 712.45,-85.95 647.58,-75.83"/>
<polygon fill="midnightblue" stroke="midnightblue" points="647.95,-72.35 637.53,-74.26 646.87,-79.26 647.95,-72.35"/>
</g>
<!-- Node15&#45;&gt;Node10 -->
<g id="edge17" class="edge">
<title>Node15&#45;&gt;Node10</title>
<path fill="none" stroke="midnightblue" d="M989.73,-112.46C1039.87,-104.08 1117.34,-90.49 1184,-76 1219.39,-68.31 1227.37,-62.53 1263,-56 1394.79,-31.85 1554.08,-18.29 1621.43,-13.27"/>
<polygon fill="midnightblue" stroke="midnightblue" points="1622.08,-16.73 1631.8,-12.51 1621.57,-9.75 1622.08,-16.73"/>
</g>
<!-- Node15&#45;&gt;Node11 -->
<g id="edge25" class="edge">
<title>Node15&#45;&gt;Node11</title>
<path fill="none" stroke="midnightblue" d="M992.96,-112.47C1036,-105.1 1096.6,-92.94 1148,-76 1168.4,-69.28 1171.86,-63.46 1192,-56 1228.63,-42.44 1271.34,-30.3 1302.63,-22.06"/>
<polygon fill="midnightblue" stroke="midnightblue" points="1303.57,-25.43 1312.37,-19.52 1301.81,-18.66 1303.57,-25.43"/>
</g>
<!-- Node15&#45;&gt;Node13 -->
<g id="edge21" class="edge">
<title>Node15&#45;&gt;Node13</title>
<path fill="none" stroke="midnightblue" d="M874.75,-117.29C809.38,-112.14 712.32,-100.53 685,-76 672.03,-64.36 667.71,-44.41 666.37,-29.67"/>
<polygon fill="midnightblue" stroke="midnightblue" points="669.86,-29.44 665.83,-19.65 662.87,-29.82 669.86,-29.44"/>
</g>
<!-- Node16 -->
<g id="node16" class="node">
<title>Node16</title>
<g id="a_node16"><a xlink:title=" ">
<polygon fill="white" stroke="#bfbfbf" points="694,-56.5 694,-75.5 758,-75.5 758,-56.5 694,-56.5"/>
<text text-anchor="middle" x="726" y="-63.5" font-family="Helvetica,sans-Serif" font-size="10.00">algorithm</text>
</a>
</g>
</g>
<!-- Node15&#45;&gt;Node16 -->
<g id="edge20" class="edge">
<title>Node15&#45;&gt;Node16</title>
<path fill="none" stroke="midnightblue" d="M903.57,-112.44C866.9,-103.06 807.99,-87.98 768.17,-77.79"/>
<polygon fill="midnightblue" stroke="midnightblue" points="768.79,-74.34 758.24,-75.25 767.06,-81.12 768.79,-74.34"/>
</g>
<!-- Node17 -->
<g id="node17" class="node">
<title>Node17</title>
<g id="a_node17"><a xlink:title=" ">
<polygon fill="white" stroke="#bfbfbf" points="776.5,-56.5 776.5,-75.5 875.5,-75.5 875.5,-56.5 776.5,-56.5"/>
<text text-anchor="middle" x="826" y="-63.5" font-family="Helvetica,sans-Serif" font-size="10.00">AMReX_BCRec.H</text>
</a>
</g>
</g>
<!-- Node15&#45;&gt;Node17 -->
<g id="edge22" class="edge">
<title>Node15&#45;&gt;Node17</title>
<path fill="none" stroke="midnightblue" d="M919.17,-112.32C901.28,-103.62 873.52,-90.12 852.95,-80.11"/>
<polygon fill="midnightblue" stroke="midnightblue" points="854.31,-76.88 843.79,-75.65 851.25,-83.18 854.31,-76.88"/>
</g>
<!-- Node18 -->
<g id="node18" class="node">
<title>Node18</title>
<g id="a_node18"><a xlink:title=" ">
<polygon fill="white" stroke="#bfbfbf" points="893.5,-56.5 893.5,-75.5 980.5,-75.5 980.5,-56.5 893.5,-56.5"/>
<text text-anchor="middle" x="937" y="-63.5" font-family="Helvetica,sans-Serif" font-size="10.00">AMReX_Gpu.H</text>
</a>
</g>
</g>
<!-- Node15&#45;&gt;Node18 -->
<g id="edge23" class="edge">
<title>Node15&#45;&gt;Node18</title>
<path fill="none" stroke="midnightblue" d="M937,-112.08C937,-105.01 937,-94.86 937,-85.99"/>
<polygon fill="midnightblue" stroke="midnightblue" points="940.5,-85.75 937,-75.75 933.5,-85.75 940.5,-85.75"/>
</g>
<!-- Node19 -->
<g id="node19" class="node">
<title>Node19</title>
<g id="a_node19"><a xlink:href="incflo__enums_8_h.html" target="_top" xlink:title=" ">
<polygon fill="white" stroke="black" points="998.5,-56.5 998.5,-75.5 1139.5,-75.5 1139.5,-56.5 998.5,-56.5"/>
<text text-anchor="middle" x="1069" y="-63.5" font-family="Helvetica,sans-Serif" font-size="10.00">amr&#45;wind/incflo_enums.H</text>
</a>
</g>
</g>
<!-- Node15&#45;&gt;Node19 -->
<g id="edge24" class="edge">
<title>Node15&#45;&gt;Node19</title>
<path fill="none" stroke="midnightblue" d="M957.92,-112.44C979.74,-103.52 1014.15,-89.44 1038.89,-79.32"/>
<polygon fill="midnightblue" stroke="midnightblue" points="1040.25,-82.54 1048.18,-75.52 1037.6,-76.06 1040.25,-82.54"/>
</g>
<!-- Node20 -->
<g id="node20" class="node">
<title>Node20</title>
<g id="a_node20"><a xlink:href="_view_field_8_h.html" target="_top" xlink:title=" ">
<polygon fill="white" stroke="black" points="1478,-56.5 1478,-75.5 1626,-75.5 1626,-56.5 1478,-56.5"/>
<text text-anchor="middle" x="1552" y="-63.5" font-family="Helvetica,sans-Serif" font-size="10.00">amr&#45;wind/core/ViewField.H</text>
</a>
</g>
</g>
<!-- Node15&#45;&gt;Node20 -->
<g id="edge26" class="edge">
<title>Node15&#45;&gt;Node20</title>
<path fill="none" stroke="midnightblue" d="M999.07,-115.55C1109.87,-105.82 1341.81,-85.46 1467.2,-74.45"/>
<polygon fill="midnightblue" stroke="midnightblue" points="1467.86,-77.9 1477.51,-73.54 1467.25,-70.93 1467.86,-77.9"/>
</g>
<!-- Node20&#45;&gt;Node10 -->
<g id="edge27" class="edge">
<title>Node20&#45;&gt;Node10</title>
<path fill="none" stroke="midnightblue" d="M1568.39,-56.32C1584.67,-47.7 1609.87,-34.36 1628.72,-24.39"/>
<polygon fill="midnightblue" stroke="midnightblue" points="1630.45,-27.43 1637.65,-19.65 1627.18,-21.24 1630.45,-27.43"/>
</g>
<!-- Node20&#45;&gt;Node11 -->
<g id="edge28" class="edge">
<title>Node20&#45;&gt;Node11</title>
<path fill="none" stroke="midnightblue" d="M1519.52,-56.44C1484.28,-47.16 1427.9,-32.31 1389.24,-22.13"/>
<polygon fill="midnightblue" stroke="midnightblue" points="1389.89,-18.68 1379.33,-19.52 1388.11,-25.45 1389.89,-18.68"/>
</g>
<!-- Node20&#45;&gt;Node13 -->
<g id="edge29" class="edge">
<title>Node20&#45;&gt;Node13</title>
<path fill="none" stroke="midnightblue" d="M1477.72,-59.54C1460.73,-58.34 1442.74,-57.09 1426,-56 1168.85,-39.2 862.56,-21.89 731.14,-14.59"/>
<polygon fill="midnightblue" stroke="midnightblue" points="731.03,-11.08 720.85,-14.02 730.64,-18.07 731.03,-11.08"/>
</g>
<!-- Node21 -->
<g id="node21" class="node">
<title>Node21</title>
<g id="a_node21"><a xlink:title=" ">
<polygon fill="white" stroke="#bfbfbf" points="1832,-0.5 1832,-19.5 1930,-19.5 1930,-0.5 1832,-0.5"/>
<text text-anchor="middle" x="1881" y="-7.5" font-family="Helvetica,sans-Serif" font-size="10.00">AMReX_Vector.H</text>
</a>
</g>
</g>
<!-- Node20&#45;&gt;Node21 -->
<g id="edge30" class="edge">
<title>Node20&#45;&gt;Node21</title>
<path fill="none" stroke="midnightblue" d="M1604.13,-56.44C1663.34,-46.72 1759.77,-30.9 1821.78,-20.72"/>
<polygon fill="midnightblue" stroke="midnightblue" points="1822.5,-24.15 1831.8,-19.08 1821.36,-17.24 1822.5,-24.15"/>
</g>
<!-- Node22&#45;&gt;Node10 -->
<g id="edge32" class="edge">
<title>Node22&#45;&gt;Node10</title>
<path fill="none" stroke="midnightblue" d="M1502.64,-113.14C1553.05,-106.02 1615.93,-93.89 1635,-76 1647.59,-64.2 1651.99,-44.56 1653.45,-29.96"/>
<polygon fill="midnightblue" stroke="midnightblue" points="1656.97,-29.76 1654.09,-19.57 1649.98,-29.33 1656.97,-29.76"/>
</g>
<!-- Node22&#45;&gt;Node11 -->
<g id="edge33" class="edge">
<title>Node22&#45;&gt;Node11</title>
<path fill="none" stroke="midnightblue" d="M1429.3,-112.15C1422.23,-99.23 1408.09,-74.68 1393,-56 1384.51,-45.49 1373.77,-34.86 1364.8,-26.58"/>
<polygon fill="midnightblue" stroke="midnightblue" points="1366.95,-23.8 1357.19,-19.7 1362.26,-29 1366.95,-23.8"/>
</g>
<!-- Node22&#45;&gt;Node23 -->
<g id="edge34" class="edge">
<title>Node22&#45;&gt;Node23</title>
<path fill="none" stroke="midnightblue" d="M1416.97,-112.32C1399.97,-103.66 1373.62,-90.24 1354.01,-80.25"/>
<polygon fill="midnightblue" stroke="midnightblue" points="1355.49,-77.08 1344.99,-75.65 1352.31,-83.31 1355.49,-77.08"/>
</g>
<!-- Node24&#45;&gt;Node10 -->
<g id="edge36" class="edge">
<title>Node24&#45;&gt;Node10</title>
<path fill="none" stroke="midnightblue" d="M1779.7,-112.37C1774.14,-98.83 1761.77,-72.45 1744,-56 1727.27,-40.51 1704.2,-29.11 1685.61,-21.67"/>
<polygon fill="midnightblue" stroke="midnightblue" points="1686.67,-18.33 1676.08,-18.03 1684.17,-24.87 1686.67,-18.33"/>
</g>
<!-- Node24&#45;&gt;Node11 -->
<g id="edge38" class="edge">
<title>Node24&#45;&gt;Node11</title>
<path fill="none" stroke="midnightblue" d="M1767.09,-112.36C1740.53,-98.32 1685.1,-70.65 1635,-56 1573.14,-37.92 1501.55,-26.69 1445.23,-19.97"/>
<polygon fill="midnightblue" stroke="midnightblue" points="1445.59,-16.49 1435.25,-18.81 1444.78,-23.44 1445.59,-16.49"/>
</g>
<!-- Node24&#45;&gt;Node13 -->
<g id="edge40" class="edge">
<title>Node24&#45;&gt;Node13</title>
<path fill="none" stroke="midnightblue" d="M1706.12,-112.49C1642.29,-104.82 1549.29,-92.26 1469,-76 1434.77,-69.07 1427.48,-61.55 1393,-56 1151.04,-17.06 858.78,-11.29 731.04,-10.78"/>
<polygon fill="midnightblue" stroke="midnightblue" points="730.68,-7.28 720.66,-10.75 730.65,-14.28 730.68,-7.28"/>
</g>
<!-- Node24&#45;&gt;Node20 -->
<g id="edge39" class="edge">
<title>Node24&#45;&gt;Node20</title>
<path fill="none" stroke="midnightblue" d="M1746.4,-112.44C1706.27,-103.06 1641.8,-87.99 1598.22,-77.8"/>
<polygon fill="midnightblue" stroke="midnightblue" points="1598.97,-74.38 1588.43,-75.52 1597.37,-81.2 1598.97,-74.38"/>
</g>
<!-- Node24&#45;&gt;Node21 -->
<g id="edge41" class="edge">
<title>Node24&#45;&gt;Node21</title>
<path fill="none" stroke="midnightblue" d="M1863.22,-114.81C1917.65,-108.76 1982.73,-97.22 2000,-76 2021.76,-49.27 1979.69,-31.85 1939.7,-21.84"/>
<polygon fill="midnightblue" stroke="midnightblue" points="1940.42,-18.41 1929.89,-19.51 1938.81,-25.22 1940.42,-18.41"/>
</g>
<!-- Node25 -->
<g id="node25" class="node">
<title>Node25</title>
<g id="a_node25"><a xlink:title=" ">
<polygon fill="white" stroke="#bfbfbf" points="1796.5,-56.5 1796.5,-75.5 1841.5,-75.5 1841.5,-56.5 1796.5,-56.5"/>
<text text-anchor="middle" x="1819" y="-63.5" font-family="Helvetica,sans-Serif" font-size="10.00">utility</text>
</a>
</g>
</g>
<!-- Node24&#45;&gt;Node25 -->
<g id="edge37" class="edge">
<title>Node24&#45;&gt;Node25</title>
<path fill="none" stroke="midnightblue" d="M1788.94,-112.08C1793.98,-104.53 1801.34,-93.49 1807.51,-84.23"/>
<polygon fill="midnightblue" stroke="midnightblue" points="1810.53,-86.01 1813.17,-75.75 1804.71,-82.13 1810.53,-86.01"/>
</g>
<!-- Node26 -->
<g id="node26" class="node">
<title>Node26</title>
<g id="a_node26"><a xlink:title=" ">
<polygon fill="white" stroke="#bfbfbf" points="1859.5,-56.5 1859.5,-75.5 1990.5,-75.5 1990.5,-56.5 1859.5,-56.5"/>
<text text-anchor="middle" x="1925" y="-63.5" font-family="Helvetica,sans-Serif" font-size="10.00">AMReX_PhysBCFunct.H</text>
</a>
</g>
</g>
<!-- Node24&#45;&gt;Node26 -->
<g id="edge42" class="edge">
<title>Node24&#45;&gt;Node26</title>
<path fill="none" stroke="midnightblue" d="M1805.5,-112.44C1829.08,-103.48 1866.32,-89.31 1892.96,-79.18"/>
<polygon fill="midnightblue" stroke="midnightblue" points="1894.5,-82.34 1902.6,-75.52 1892.01,-75.8 1894.5,-82.34"/>
</g>
</g>
</svg>
        <g id="navigator" transform="translate(0 0)" fill="#404254">
                <rect fill="#f2f5e9" fill-opacity="0.5" stroke="#606060" stroke-width=".5" x="0" y="0" width="60" height="60"/>
                <use id="zoomplus" xlink:href="#zoomPlus" x="17" y="9" onmousedown="handleZoom(evt,'in')"/>
                <use id="zoomminus" xlink:href="#zoomMin" x="42" y="9" onmousedown="handleZoom(evt,'out')"/>
                <use id="reset" xlink:href="#resetDef" x="30" y="36" onmousedown="handleReset()"/>
                <g id="arrowUp" xlink:href="#dirArrow" transform="translate(30 24)" onmousedown="handlePan(0,-1)">
                  <use xlink:href="#rim" fill="#404040">
                        <set attributeName="fill" to="#808080" begin="arrowUp.mouseover" end="arrowUp.mouseout"/>
                  </use>
                  <path fill="none" stroke="white" stroke-width="1.5" d="M0,-3.0v7 M-2.5,-0.5L0,-3.0L2.5,-0.5"/>
                </g>
                <g id="arrowRight" xlink:href="#dirArrow" transform="rotate(90) translate(36 -43)" onmousedown="handlePan(1,0)">
                  <use xlink:href="#rim" fill="#404040">
                        <set attributeName="fill" to="#808080" begin="arrowRight.mouseover" end="arrowRight.mouseout"/>
                  </use>
                  <path fill="none" stroke="white" stroke-width="1.5" d="M0,-3.0v7 M-2.5,-0.5L0,-3.0L2.5,-0.5"/>
                </g>
                <g id="arrowDown" xlink:href="#dirArrow" transform="rotate(180) translate(-30 -48)" onmousedown="handlePan(0,1)">
                  <use xlink:href="#rim" fill="#404040">
                        <set attributeName="fill" to="#808080" begin="arrowDown.mouseover" end="arrowDown.mouseout"/>
                  </use>
                  <path fill="none" stroke="white" stroke-width="1.5" d="M0,-3.0v7 M-2.5,-0.5L0,-3.0L2.5,-0.5"/>
                </g>
                <g id="arrowLeft" xlink:href="#dirArrow" transform="rotate(270) translate(-36 17)" onmousedown="handlePan(-1,0)">
                  <use xlink:href="#rim" fill="#404040">
                        <set attributeName="fill" to="#808080" begin="arrowLeft.mouseover" end="arrowLeft.mouseout"/>
                  </use>
                  <path fill="none" stroke="white" stroke-width="1.5" d="M0,-3.0v7 M-2.5,-0.5L0,-3.0L2.5,-0.5"/>
                </g>
        </g>
        <svg viewBox="0 0 15 15" width="100%" height="30px" preserveAspectRatio="xMaxYMin meet">
         <g id="arrow_out" transform="scale(0.3 0.3)">
          <a xlink:href="_const_transport_8_h__incl_org.svg" target="_base">
           <rect id="button" ry="5" rx="5" y="6" x="6" height="38" width="38"
                fill="#f2f5e9" fill-opacity="0.5" stroke="#606060" stroke-width="1.0"/>
           <path id="arrow"
             d="M 11.500037,31.436501 C 11.940474,20.09759 22.043105,11.32322 32.158766,21.979434 L 37.068811,17.246167 C 37.068811,17.246167 37.088388,32 37.088388,32 L 22.160133,31.978069 C 22.160133,31.978069 26.997745,27.140456 26.997745,27.140456 C 18.528582,18.264221 13.291696,25.230495 11.500037,31.436501 z"
             style="fill:#404040;"/>
          </a>
         </g>
        </svg>
</svg>
