<?xml version="1.0" encoding="UTF-8" standalone="no"?>
<!DOCTYPE svg PUBLIC "-//W3C//DTD SVG 1.1//EN"
 "http://www.w3.org/Graphics/SVG/1.1/DTD/svg11.dtd">
<!-- Generated by graphviz version 2.43.0 (0)
 -->
<!-- Title: ConvectingTaylorVortex.H Pages: 1 -->
<!--zoomable 330 -->
<svg id="main" version="1.1" xmlns="http://www.w3.org/2000/svg" xmlns:xlink="http://www.w3.org/1999/xlink" xml:space="preserve" onload="init(evt)">
<style type="text/css"><![CDATA[
.edge:hover path { stroke: red; }
.edge:hover polygon { stroke: red; fill: red; }
]]></style>
<script type="text/javascript"><![CDATA[
var edges = document.getElementsByTagName('g');
if (edges && edges.length) {
  for (var i=0;i<edges.length;i++) {
    if (edges[i].id.substr(0,4)=='edge') {
      edges[i].setAttribute('class','edge');
    }
  }
}
]]></script>
        <defs>
                <circle id="rim" cx="0" cy="0" r="7"/>
                <circle id="rim2" cx="0" cy="0" r="3.5"/>
                <g id="zoomPlus">
                        <use xlink:href="#rim" fill="#404040">
                                <set attributeName="fill" to="#808080" begin="zoomplus.mouseover" end="zoomplus.mouseout"/>
                        </use>
                        <path d="M-4,0h8M0,-4v8" fill="none" stroke="white" stroke-width="1.5" pointer-events="none"/>
                </g>
                <g id="zoomMin">
                        <use xlink:href="#rim" fill="#404040">
                                <set attributeName="fill" to="#808080" begin="zoomminus.mouseover" end="zoomminus.mouseout"/>
                        </use>
                        <path d="M-4,0h8" fill="none" stroke="white" stroke-width="1.5" pointer-events="none"/>
                </g>
                <g id="dirArrow">
                        <path fill="none" stroke="white" stroke-width="1.5" d="M0,-3.0v7 M-2.5,-0.5L0,-3.0L2.5,-0.5"/>
                </g>
               <g id="resetDef">
                       <use xlink:href="#rim2" fill="#404040">
                               <set attributeName="fill" to="#808080" begin="reset.mouseover" end="reset.mouseout"/>
                       </use>
               </g>
        </defs>

<script type="text/javascript">
var viewWidth = 2682;
var viewHeight = 330;
var sectionId = 'dynsection-0';
</script>
<script xlink:href="svgpan.js"/>
<svg id="graph" class="graph">
<g id="viewport">
<title>ConvectingTaylorVortex.H</title>
<polygon fill="white" stroke="transparent" points="-4,4 -4,-326 2678,-326 2678,4 -4,4"/>
<!-- Node1 -->
<g id="node1" class="node">
<title>Node1</title>
<g id="a_node1"><a xlink:title=" ">
<polygon fill="#bfbfbf" stroke="black" points="1884.5,-302.5 1884.5,-321.5 2027.5,-321.5 2027.5,-302.5 1884.5,-302.5"/>
<text text-anchor="middle" x="1956" y="-309.5" font-family="Helvetica,sans-Serif" font-size="10.00">ConvectingTaylorVortex.H</text>
</a>
</g>
</g>
<!-- Node2 -->
<g id="node2" class="node">
<title>Node2</title>
<g id="a_node2"><a xlink:href="_physics_8_h.html" target="_top" xlink:title=" ">
<polygon fill="white" stroke="black" points="2255.5,-185 2255.5,-204 2392.5,-204 2392.5,-185 2255.5,-185"/>
<text text-anchor="middle" x="2324" y="-192" font-family="Helvetica,sans-Serif" font-size="10.00">amr&#45;wind/core/Physics.H</text>
</a>
</g>
</g>
<!-- Node1&#45;&gt;Node2 -->
<g id="edge1" class="edge">
<title>Node1&#45;&gt;Node2</title>
<path fill="none" stroke="midnightblue" d="M1983.36,-302.41C2048.43,-281.99 2212.49,-230.5 2286.62,-207.23"/>
<polygon fill="midnightblue" stroke="midnightblue" points="2287.97,-210.48 2296.46,-204.14 2285.87,-203.8 2287.97,-210.48"/>
</g>
<!-- Node14 -->
<g id="node14" class="node">
<title>Node14</title>
<g id="a_node14"><a xlink:href="_field_8_h.html" target="_top" xlink:title=" ">
<polygon fill="white" stroke="black" points="1698,-118 1698,-137 1822,-137 1822,-118 1698,-118"/>
<text text-anchor="middle" x="1760" y="-125" font-family="Helvetica,sans-Serif" font-size="10.00">amr&#45;wind/core/Field.H</text>
</a>
</g>
</g>
<!-- Node1&#45;&gt;Node14 -->
<g id="edge15" class="edge">
<title>Node1&#45;&gt;Node14</title>
<path fill="none" stroke="midnightblue" d="M1941.21,-302.41C1927.17,-293.94 1905.76,-280.25 1889,-266 1842.64,-226.6 1795.59,-171.92 1773.3,-144.93"/>
<polygon fill="midnightblue" stroke="midnightblue" points="1776,-142.71 1766.96,-137.19 1770.59,-147.14 1776,-142.71"/>
</g>
<!-- Node21 -->
<g id="node21" class="node">
<title>Node21</title>
<g id="a_node21"><a xlink:href="_c_f_d_sim_8_h.html" target="_top" xlink:title=" ">
<polygon fill="white" stroke="black" points="1898,-246.5 1898,-265.5 2014,-265.5 2014,-246.5 1898,-246.5"/>
<text text-anchor="middle" x="1956" y="-253.5" font-family="Helvetica,sans-Serif" font-size="10.00">amr&#45;wind/CFDSim.H</text>
</a>
</g>
</g>
<!-- Node1&#45;&gt;Node21 -->
<g id="edge30" class="edge">
<title>Node1&#45;&gt;Node21</title>
<path fill="none" stroke="midnightblue" d="M1956,-302.08C1956,-295.01 1956,-284.86 1956,-275.99"/>
<polygon fill="midnightblue" stroke="midnightblue" points="1959.5,-275.75 1956,-265.75 1952.5,-275.75 1959.5,-275.75"/>
</g>
<!-- Node3 -->
<g id="node3" class="node">
<title>Node3</title>
<g id="a_node3"><a xlink:href="_factory_8_h.html" target="_top" xlink:title=" ">
<polygon fill="white" stroke="black" points="2389,-118 2389,-137 2523,-137 2523,-118 2389,-118"/>
<text text-anchor="middle" x="2456" y="-125" font-family="Helvetica,sans-Serif" font-size="10.00">amr&#45;wind/core/Factory.H</text>
</a>
</g>
</g>
<!-- Node2&#45;&gt;Node3 -->
<g id="edge2" class="edge">
<title>Node2&#45;&gt;Node3</title>
<path fill="none" stroke="midnightblue" d="M2341.53,-184.87C2364.01,-173.8 2403.23,-154.49 2429.4,-141.6"/>
<polygon fill="midnightblue" stroke="midnightblue" points="2430.97,-144.72 2438.4,-137.17 2427.88,-138.44 2430.97,-144.72"/>
</g>
<!-- Node9 -->
<g id="node9" class="node">
<title>Node9</title>
<g id="a_node9"><a xlink:href="_coll_mgr_8_h.html" target="_top" xlink:title=" ">
<polygon fill="white" stroke="black" points="2233.5,-118 2233.5,-137 2370.5,-137 2370.5,-118 2233.5,-118"/>
<text text-anchor="middle" x="2302" y="-125" font-family="Helvetica,sans-Serif" font-size="10.00">amr&#45;wind/core/CollMgr.H</text>
</a>
</g>
</g>
<!-- Node2&#45;&gt;Node9 -->
<g id="edge8" class="edge">
<title>Node2&#45;&gt;Node9</title>
<path fill="none" stroke="midnightblue" d="M2321.03,-184.73C2317.77,-175.09 2312.42,-159.3 2308.23,-146.91"/>
<polygon fill="midnightblue" stroke="midnightblue" points="2311.44,-145.48 2304.92,-137.13 2304.81,-147.72 2311.44,-145.48"/>
</g>
<!-- Node12 -->
<g id="node12" class="node">
<title>Node12</title>
<g id="a_node12"><a xlink:title=" ">
<polygon fill="white" stroke="#bfbfbf" points="1078.5,-0.5 1078.5,-19.5 1187.5,-19.5 1187.5,-0.5 1078.5,-0.5"/>
<text text-anchor="middle" x="1133" y="-7.5" font-family="Helvetica,sans-Serif" font-size="10.00">AMReX_MultiFab.H</text>
</a>
</g>
</g>
<!-- Node2&#45;&gt;Node12 -->
<g id="edge13" class="edge">
<title>Node2&#45;&gt;Node12</title>
<path fill="none" stroke="midnightblue" d="M2283.26,-184.98C2271.3,-182.73 2258.16,-180.52 2246,-179 2012.04,-149.8 1397.79,-187.42 1190,-76 1169.63,-65.08 1153.13,-43.77 1143.23,-28.52"/>
<polygon fill="midnightblue" stroke="midnightblue" points="1146.17,-26.63 1137.94,-19.96 1140.22,-30.31 1146.17,-26.63"/>
</g>
<!-- Node13 -->
<g id="node13" class="node">
<title>Node13</title>
<g id="a_node13"><a xlink:title=" ">
<polygon fill="white" stroke="#bfbfbf" points="2541.5,-118 2541.5,-137 2656.5,-137 2656.5,-118 2541.5,-118"/>
<text text-anchor="middle" x="2599" y="-125" font-family="Helvetica,sans-Serif" font-size="10.00">AMReX_Geometry.H</text>
</a>
</g>
</g>
<!-- Node2&#45;&gt;Node13 -->
<g id="edge14" class="edge">
<title>Node2&#45;&gt;Node13</title>
<path fill="none" stroke="midnightblue" d="M2360.23,-184.94C2409.7,-173.24 2498.39,-152.28 2552.65,-139.46"/>
<polygon fill="midnightblue" stroke="midnightblue" points="2553.76,-142.79 2562.69,-137.08 2552.15,-135.98 2553.76,-142.79"/>
</g>
<!-- Node4 -->
<g id="node4" class="node">
<title>Node4</title>
<g id="a_node4"><a xlink:title=" ">
<polygon fill="white" stroke="#bfbfbf" points="2274,-56.5 2274,-75.5 2332,-75.5 2332,-56.5 2274,-56.5"/>
<text text-anchor="middle" x="2303" y="-63.5" font-family="Helvetica,sans-Serif" font-size="10.00">memory</text>
</a>
</g>
</g>
<!-- Node3&#45;&gt;Node4 -->
<g id="edge3" class="edge">
<title>Node3&#45;&gt;Node4</title>
<path fill="none" stroke="midnightblue" d="M2434.08,-117.98C2407.95,-107.81 2364.09,-90.76 2334.37,-79.2"/>
<polygon fill="midnightblue" stroke="midnightblue" points="2335.47,-75.87 2324.88,-75.51 2332.93,-82.4 2335.47,-75.87"/>
</g>
<!-- Node5 -->
<g id="node5" class="node">
<title>Node5</title>
<g id="a_node5"><a xlink:title=" ">
<polygon fill="white" stroke="#bfbfbf" points="2058.5,-56.5 2058.5,-75.5 2151.5,-75.5 2151.5,-56.5 2058.5,-56.5"/>
<text text-anchor="middle" x="2105" y="-63.5" font-family="Helvetica,sans-Serif" font-size="10.00">unordered_map</text>
</a>
</g>
</g>
<!-- Node3&#45;&gt;Node5 -->
<g id="edge4" class="edge">
<title>Node3&#45;&gt;Node5</title>
<path fill="none" stroke="midnightblue" d="M2412.23,-117.95C2401.69,-115.94 2390.45,-113.85 2380,-112 2358.96,-108.27 2235.96,-88.25 2161.77,-76.21"/>
<polygon fill="midnightblue" stroke="midnightblue" points="2162.07,-72.71 2151.64,-74.56 2160.95,-79.62 2162.07,-72.71"/>
</g>
<!-- Node6 -->
<g id="node6" class="node">
<title>Node6</title>
<g id="a_node6"><a xlink:title=" ">
<polygon fill="white" stroke="#bfbfbf" points="2426,-56.5 2426,-75.5 2486,-75.5 2486,-56.5 2426,-56.5"/>
<text text-anchor="middle" x="2456" y="-63.5" font-family="Helvetica,sans-Serif" font-size="10.00">iostream</text>
</a>
</g>
</g>
<!-- Node3&#45;&gt;Node6 -->
<g id="edge5" class="edge">
<title>Node3&#45;&gt;Node6</title>
<path fill="none" stroke="midnightblue" d="M2456,-117.98C2456,-109.58 2456,-96.48 2456,-85.66"/>
<polygon fill="midnightblue" stroke="midnightblue" points="2459.5,-85.51 2456,-75.51 2452.5,-85.51 2459.5,-85.51"/>
</g>
<!-- Node7 -->
<g id="node7" class="node">
<title>Node7</title>
<g id="a_node7"><a xlink:title=" ">
<polygon fill="white" stroke="#bfbfbf" points="2504,-56.5 2504,-75.5 2594,-75.5 2594,-56.5 2504,-56.5"/>
<text text-anchor="middle" x="2549" y="-63.5" font-family="Helvetica,sans-Serif" font-size="10.00">AMReX_Print.H</text>
</a>
</g>
</g>
<!-- Node3&#45;&gt;Node7 -->
<g id="edge6" class="edge">
<title>Node3&#45;&gt;Node7</title>
<path fill="none" stroke="midnightblue" d="M2469.32,-117.98C2484.38,-108.34 2509.12,-92.52 2527.04,-81.05"/>
<polygon fill="midnightblue" stroke="midnightblue" points="2529.16,-83.85 2535.7,-75.51 2525.39,-77.95 2529.16,-83.85"/>
</g>
<!-- Node8 -->
<g id="node8" class="node">
<title>Node8</title>
<g id="a_node8"><a xlink:title=" ">
<polygon fill="white" stroke="#bfbfbf" points="2612,-56.5 2612,-75.5 2674,-75.5 2674,-56.5 2612,-56.5"/>
<text text-anchor="middle" x="2643" y="-63.5" font-family="Helvetica,sans-Serif" font-size="10.00">AMReX.H</text>
</a>
</g>
</g>
<!-- Node3&#45;&gt;Node8 -->
<g id="edge7" class="edge">
<title>Node3&#45;&gt;Node8</title>
<path fill="none" stroke="midnightblue" d="M2482.79,-117.98C2515.29,-107.64 2570.21,-90.16 2606.54,-78.6"/>
<polygon fill="midnightblue" stroke="midnightblue" points="2607.79,-81.88 2616.26,-75.51 2605.67,-75.21 2607.79,-81.88"/>
</g>
<!-- Node9&#45;&gt;Node4 -->
<g id="edge10" class="edge">
<title>Node9&#45;&gt;Node4</title>
<path fill="none" stroke="midnightblue" d="M2302.14,-117.98C2302.28,-109.58 2302.5,-96.48 2302.69,-85.66"/>
<polygon fill="midnightblue" stroke="midnightblue" points="2306.19,-85.57 2302.86,-75.51 2299.19,-85.45 2306.19,-85.57"/>
</g>
<!-- Node9&#45;&gt;Node5 -->
<g id="edge11" class="edge">
<title>Node9&#45;&gt;Node5</title>
<path fill="none" stroke="midnightblue" d="M2273.77,-117.98C2239.4,-107.59 2181.19,-90.01 2142.92,-78.45"/>
<polygon fill="midnightblue" stroke="midnightblue" points="2143.76,-75.05 2133.17,-75.51 2141.73,-81.75 2143.76,-75.05"/>
</g>
<!-- Node10 -->
<g id="node10" class="node">
<title>Node10</title>
<g id="a_node10"><a xlink:title=" ">
<polygon fill="white" stroke="#bfbfbf" points="1810,-0.5 1810,-19.5 1854,-19.5 1854,-0.5 1810,-0.5"/>
<text text-anchor="middle" x="1832" y="-7.5" font-family="Helvetica,sans-Serif" font-size="10.00">string</text>
</a>
</g>
</g>
<!-- Node9&#45;&gt;Node10 -->
<g id="edge9" class="edge">
<title>Node9&#45;&gt;Node10</title>
<path fill="none" stroke="midnightblue" d="M2322.44,-117.89C2350.57,-104.89 2395.44,-79.3 2374,-56 2339.42,-18.43 1976.35,-12.22 1864.57,-11.2"/>
<polygon fill="midnightblue" stroke="midnightblue" points="1864.29,-7.7 1854.26,-11.11 1864.23,-14.7 1864.29,-7.7"/>
</g>
<!-- Node11 -->
<g id="node11" class="node">
<title>Node11</title>
<g id="a_node11"><a xlink:title=" ">
<polygon fill="white" stroke="#bfbfbf" points="1364,-0.5 1364,-19.5 1462,-19.5 1462,-0.5 1364,-0.5"/>
<text text-anchor="middle" x="1413" y="-7.5" font-family="Helvetica,sans-Serif" font-size="10.00">AMReX_Vector.H</text>
</a>
</g>
</g>
<!-- Node9&#45;&gt;Node11 -->
<g id="edge12" class="edge">
<title>Node9&#45;&gt;Node11</title>
<path fill="none" stroke="midnightblue" d="M2313.18,-117.79C2330.23,-103.52 2358.95,-74.84 2341,-56 2325.97,-40.23 1674.94,-19.01 1472.46,-12.79"/>
<polygon fill="midnightblue" stroke="midnightblue" points="1472.41,-9.28 1462.31,-12.48 1472.2,-16.28 1472.41,-9.28"/>
</g>
<!-- Node14&#45;&gt;Node4 -->
<g id="edge17" class="edge">
<title>Node14&#45;&gt;Node4</title>
<path fill="none" stroke="midnightblue" d="M1822.34,-119.96C1911.9,-110.52 2082.16,-92.41 2227,-76 2238.95,-74.65 2251.94,-73.13 2263.76,-71.72"/>
<polygon fill="midnightblue" stroke="midnightblue" points="2264.26,-75.19 2273.78,-70.53 2263.43,-68.24 2264.26,-75.19"/>
</g>
<!-- Node14&#45;&gt;Node5 -->
<g id="edge18" class="edge">
<title>Node14&#45;&gt;Node5</title>
<path fill="none" stroke="midnightblue" d="M1809.43,-117.98C1872.7,-107.06 1982.05,-88.2 2048.54,-76.74"/>
<polygon fill="midnightblue" stroke="midnightblue" points="2049.16,-80.18 2058.42,-75.03 2047.97,-73.28 2049.16,-80.18"/>
</g>
<!-- Node14&#45;&gt;Node10 -->
<g id="edge16" class="edge">
<title>Node14&#45;&gt;Node10</title>
<path fill="none" stroke="midnightblue" d="M1772.02,-117.77C1783.8,-108.61 1801.49,-93.17 1812,-76 1820.76,-61.68 1825.96,-43.22 1828.85,-29.63"/>
<polygon fill="midnightblue" stroke="midnightblue" points="1832.34,-30.04 1830.76,-19.56 1825.46,-28.73 1832.34,-30.04"/>
</g>
<!-- Node14&#45;&gt;Node12 -->
<g id="edge20" class="edge">
<title>Node14&#45;&gt;Node12</title>
<path fill="none" stroke="midnightblue" d="M1713.64,-117.96C1600.8,-97.17 1312.13,-44 1189.49,-21.41"/>
<polygon fill="midnightblue" stroke="midnightblue" points="1190.02,-17.94 1179.55,-19.57 1188.75,-24.83 1190.02,-17.94"/>
</g>
<!-- Node15 -->
<g id="node15" class="node">
<title>Node15</title>
<g id="a_node15"><a xlink:title=" ">
<polygon fill="white" stroke="#bfbfbf" points="1517,-56.5 1517,-75.5 1581,-75.5 1581,-56.5 1517,-56.5"/>
<text text-anchor="middle" x="1549" y="-63.5" font-family="Helvetica,sans-Serif" font-size="10.00">algorithm</text>
</a>
</g>
</g>
<!-- Node14&#45;&gt;Node15 -->
<g id="edge19" class="edge">
<title>Node14&#45;&gt;Node15</title>
<path fill="none" stroke="midnightblue" d="M1729.77,-117.98C1692.71,-107.53 1629.81,-89.79 1588.84,-78.23"/>
<polygon fill="midnightblue" stroke="midnightblue" points="1589.75,-74.85 1579.18,-75.51 1587.85,-81.59 1589.75,-74.85"/>
</g>
<!-- Node16 -->
<g id="node16" class="node">
<title>Node16</title>
<g id="a_node16"><a xlink:title=" ">
<polygon fill="white" stroke="#bfbfbf" points="1599.5,-56.5 1599.5,-75.5 1698.5,-75.5 1698.5,-56.5 1599.5,-56.5"/>
<text text-anchor="middle" x="1649" y="-63.5" font-family="Helvetica,sans-Serif" font-size="10.00">AMReX_BCRec.H</text>
</a>
</g>
</g>
<!-- Node14&#45;&gt;Node16 -->
<g id="edge21" class="edge">
<title>Node14&#45;&gt;Node16</title>
<path fill="none" stroke="midnightblue" d="M1744.1,-117.98C1725.72,-108.12 1695.24,-91.79 1673.76,-80.27"/>
<polygon fill="midnightblue" stroke="midnightblue" points="1675.34,-77.15 1664.87,-75.51 1672.03,-83.32 1675.34,-77.15"/>
</g>
<!-- Node17 -->
<g id="node17" class="node">
<title>Node17</title>
<g id="a_node17"><a xlink:title=" ">
<polygon fill="white" stroke="#bfbfbf" points="1716.5,-56.5 1716.5,-75.5 1803.5,-75.5 1803.5,-56.5 1716.5,-56.5"/>
<text text-anchor="middle" x="1760" y="-63.5" font-family="Helvetica,sans-Serif" font-size="10.00">AMReX_Gpu.H</text>
</a>
</g>
</g>
<!-- Node14&#45;&gt;Node17 -->
<g id="edge22" class="edge">
<title>Node14&#45;&gt;Node17</title>
<path fill="none" stroke="midnightblue" d="M1760,-117.98C1760,-109.58 1760,-96.48 1760,-85.66"/>
<polygon fill="midnightblue" stroke="midnightblue" points="1763.5,-85.51 1760,-75.51 1756.5,-85.51 1763.5,-85.51"/>
</g>
<!-- Node18 -->
<g id="node18" class="node">
<title>Node18</title>
<g id="a_node18"><a xlink:href="incflo__enums_8_h.html" target="_top" xlink:title=" ">
<polygon fill="white" stroke="black" points="1860.5,-56.5 1860.5,-75.5 2001.5,-75.5 2001.5,-56.5 1860.5,-56.5"/>
<text text-anchor="middle" x="1931" y="-63.5" font-family="Helvetica,sans-Serif" font-size="10.00">amr&#45;wind/incflo_enums.H</text>
</a>
</g>
</g>
<!-- Node14&#45;&gt;Node18 -->
<g id="edge23" class="edge">
<title>Node14&#45;&gt;Node18</title>
<path fill="none" stroke="midnightblue" d="M1784.5,-117.98C1813.96,-107.72 1863.58,-90.46 1896.8,-78.9"/>
<polygon fill="midnightblue" stroke="midnightblue" points="1898.25,-82.1 1906.55,-75.51 1895.95,-75.49 1898.25,-82.1"/>
</g>
<!-- Node19 -->
<g id="node19" class="node">
<title>Node19</title>
<g id="a_node19"><a xlink:href="_field_desc_types_8_h.html" target="_top" xlink:title=" ">
<polygon fill="white" stroke="black" points="642,-0.5 642,-19.5 818,-19.5 818,-0.5 642,-0.5"/>
<text text-anchor="middle" x="730" y="-7.5" font-family="Helvetica,sans-Serif" font-size="10.00">amr&#45;wind/core/FieldDescTypes.H</text>
</a>
</g>
</g>
<!-- Node14&#45;&gt;Node19 -->
<g id="edge24" class="edge">
<title>Node14&#45;&gt;Node19</title>
<path fill="none" stroke="midnightblue" d="M1697.9,-122.06C1593.05,-114.33 1374.32,-97.17 1190,-76 1115.58,-67.45 906.96,-37.08 798.08,-21.06"/>
<polygon fill="midnightblue" stroke="midnightblue" points="798.27,-17.55 787.86,-19.56 797.25,-24.48 798.27,-17.55"/>
</g>
<!-- Node20 -->
<g id="node20" class="node">
<title>Node20</title>
<g id="a_node20"><a xlink:href="_view_field_8_h.html" target="_top" xlink:title=" ">
<polygon fill="white" stroke="black" points="1199,-56.5 1199,-75.5 1347,-75.5 1347,-56.5 1199,-56.5"/>
<text text-anchor="middle" x="1273" y="-63.5" font-family="Helvetica,sans-Serif" font-size="10.00">amr&#45;wind/core/ViewField.H</text>
</a>
</g>
</g>
<!-- Node14&#45;&gt;Node20 -->
<g id="edge25" class="edge">
<title>Node14&#45;&gt;Node20</title>
<path fill="none" stroke="midnightblue" d="M1697.83,-118.9C1609.91,-108.16 1449.23,-88.53 1352.67,-76.73"/>
<polygon fill="midnightblue" stroke="midnightblue" points="1353.01,-73.25 1342.66,-75.51 1352.16,-80.2 1353.01,-73.25"/>
</g>
<!-- Node20&#45;&gt;Node10 -->
<g id="edge26" class="edge">
<title>Node20&#45;&gt;Node10</title>
<path fill="none" stroke="midnightblue" d="M1347.23,-57.83C1470.54,-45.92 1712.63,-22.53 1799.78,-14.11"/>
<polygon fill="midnightblue" stroke="midnightblue" points="1800.24,-17.58 1809.86,-13.14 1799.57,-10.62 1800.24,-17.58"/>
</g>
<!-- Node20&#45;&gt;Node11 -->
<g id="edge29" class="edge">
<title>Node20&#45;&gt;Node11</title>
<path fill="none" stroke="midnightblue" d="M1295.18,-56.44C1318.43,-47.48 1355.15,-33.31 1381.42,-23.18"/>
<polygon fill="midnightblue" stroke="midnightblue" points="1382.85,-26.38 1390.92,-19.52 1380.33,-19.85 1382.85,-26.38"/>
</g>
<!-- Node20&#45;&gt;Node12 -->
<g id="edge28" class="edge">
<title>Node20&#45;&gt;Node12</title>
<path fill="none" stroke="midnightblue" d="M1250.82,-56.44C1227.57,-47.48 1190.85,-33.31 1164.58,-23.18"/>
<polygon fill="midnightblue" stroke="midnightblue" points="1165.67,-19.85 1155.08,-19.52 1163.15,-26.38 1165.67,-19.85"/>
</g>
<!-- Node20&#45;&gt;Node19 -->
<g id="edge27" class="edge">
<title>Node20&#45;&gt;Node19</title>
<path fill="none" stroke="midnightblue" d="M1198.92,-57.63C1102.07,-48 932.24,-31.11 825.73,-20.52"/>
<polygon fill="midnightblue" stroke="midnightblue" points="825.92,-17.02 815.62,-19.51 825.23,-23.99 825.92,-17.02"/>
</g>
<!-- Node21&#45;&gt;Node2 -->
<g id="edge68" class="edge">
<title>Node21&#45;&gt;Node2</title>
<path fill="none" stroke="midnightblue" d="M2014.13,-246.5C2072.74,-237.81 2165.77,-223.68 2246,-210 2253.64,-208.7 2261.68,-207.27 2269.59,-205.83"/>
<polygon fill="midnightblue" stroke="midnightblue" points="2270.29,-209.26 2279.49,-204.01 2269.03,-202.37 2270.29,-209.26"/>
</g>
<!-- Node22 -->
<g id="node22" class="node">
<title>Node22</title>
<g id="a_node22"><a xlink:title=" ">
<polygon fill="white" stroke="#bfbfbf" points="396,-118 396,-137 506,-137 506,-118 396,-118"/>
<text text-anchor="middle" x="451" y="-125" font-family="Helvetica,sans-Serif" font-size="10.00">AMReX_AmrCore.H</text>
</a>
</g>
</g>
<!-- Node21&#45;&gt;Node22 -->
<g id="edge31" class="edge">
<title>Node21&#45;&gt;Node22</title>
<path fill="none" stroke="midnightblue" d="M1897.74,-254.85C1685.28,-253.98 952.53,-248.22 722,-210 632.9,-195.23 532.02,-159.64 482.22,-140.76"/>
<polygon fill="midnightblue" stroke="midnightblue" points="483.27,-137.41 472.68,-137.1 480.77,-143.95 483.27,-137.41"/>
</g>
<!-- Node23 -->
<g id="node23" class="node">
<title>Node23</title>
<g id="a_node23"><a xlink:href="_sim_time_8_h.html" target="_top" xlink:title=" ">
<polygon fill="white" stroke="black" points="174,-185 174,-204 318,-204 318,-185 174,-185"/>
<text text-anchor="middle" x="246" y="-192" font-family="Helvetica,sans-Serif" font-size="10.00">amr&#45;wind/core/SimTime.H</text>
</a>
</g>
</g>
<!-- Node21&#45;&gt;Node23 -->
<g id="edge32" class="edge">
<title>Node21&#45;&gt;Node23</title>
<path fill="none" stroke="midnightblue" d="M1897.68,-253.39C1706.55,-248.04 1081.67,-230.1 565,-210 484.55,-206.87 392.71,-202.62 328.3,-199.54"/>
<polygon fill="midnightblue" stroke="midnightblue" points="328.36,-196.04 318.2,-199.05 328.02,-203.03 328.36,-196.04"/>
</g>
<!-- Node27 -->
<g id="node27" class="node">
<title>Node27</title>
<g id="a_node27"><a xlink:href="_field_repo_8_h.html" target="_top" xlink:title=" ">
<polygon fill="white" stroke="black" points="731.5,-185 731.5,-204 880.5,-204 880.5,-185 731.5,-185"/>
<text text-anchor="middle" x="806" y="-192" font-family="Helvetica,sans-Serif" font-size="10.00">amr&#45;wind/core/FieldRepo.H</text>
</a>
</g>
</g>
<!-- Node21&#45;&gt;Node27 -->
<g id="edge36" class="edge">
<title>Node21&#45;&gt;Node27</title>
<path fill="none" stroke="midnightblue" d="M1897.79,-251.99C1709.02,-242.22 1113.21,-211.39 890.81,-199.89"/>
<polygon fill="midnightblue" stroke="midnightblue" points="890.68,-196.38 880.51,-199.36 890.32,-203.37 890.68,-196.38"/>
</g>
<!-- Node35 -->
<g id="node35" class="node">
<title>Node35</title>
<g id="a_node35"><a xlink:href="_p_d_e_base_8_h.html" target="_top" xlink:title=" ">
<polygon fill="white" stroke="black" points="1915.5,-179.5 1915.5,-209.5 2070.5,-209.5 2070.5,-179.5 1915.5,-179.5"/>
<text text-anchor="start" x="1923.5" y="-197.5" font-family="Helvetica,sans-Serif" font-size="10.00">amr&#45;wind/equation_systems</text>
<text text-anchor="middle" x="1993" y="-186.5" font-family="Helvetica,sans-Serif" font-size="10.00">/PDEBase.H</text>
</a>
</g>
</g>
<!-- Node21&#45;&gt;Node35 -->
<g id="edge60" class="edge">
<title>Node21&#45;&gt;Node35</title>
<path fill="none" stroke="midnightblue" d="M1961.3,-246.48C1965.89,-239.09 1972.74,-228.08 1978.9,-218.17"/>
<polygon fill="midnightblue" stroke="midnightblue" points="1981.97,-219.86 1984.28,-209.52 1976.03,-216.17 1981.97,-219.86"/>
</g>
<!-- Node38 -->
<g id="node38" class="node">
<title>Node38</title>
<g id="a_node38"><a xlink:href="_mesh_map_8_h.html" target="_top" xlink:title=" ">
<polygon fill="white" stroke="black" points="2089,-185 2089,-204 2237,-204 2237,-185 2089,-185"/>
<text text-anchor="middle" x="2163" y="-192" font-family="Helvetica,sans-Serif" font-size="10.00">amr&#45;wind/core/MeshMap.H</text>
</a>
</g>
</g>
<!-- Node21&#45;&gt;Node38 -->
<g id="edge69" class="edge">
<title>Node21&#45;&gt;Node38</title>
<path fill="none" stroke="midnightblue" d="M1985.66,-246.48C2021.93,-236.05 2083.46,-218.36 2123.66,-206.81"/>
<polygon fill="midnightblue" stroke="midnightblue" points="2124.75,-210.14 2133.4,-204.01 2122.82,-203.41 2124.75,-210.14"/>
</g>
<!-- Node24 -->
<g id="node24" class="node">
<title>Node24</title>
<g id="a_node24"><a xlink:title=" ">
<polygon fill="white" stroke="#bfbfbf" points="134,-118 134,-137 226,-137 226,-118 134,-118"/>
<text text-anchor="middle" x="180" y="-125" font-family="Helvetica,sans-Serif" font-size="10.00">AMReX_REAL.H</text>
</a>
</g>
</g>
<!-- Node23&#45;&gt;Node24 -->
<g id="edge33" class="edge">
<title>Node23&#45;&gt;Node24</title>
<path fill="none" stroke="midnightblue" d="M237.1,-184.73C226.61,-174.4 208.98,-157.04 196.08,-144.33"/>
<polygon fill="midnightblue" stroke="midnightblue" points="198.34,-141.65 188.76,-137.13 193.43,-146.64 198.34,-141.65"/>
</g>
<!-- Node25 -->
<g id="node25" class="node">
<title>Node25</title>
<g id="a_node25"><a xlink:title=" ">
<polygon fill="white" stroke="#bfbfbf" points="244,-118 244,-137 378,-137 378,-118 244,-118"/>
<text text-anchor="middle" x="311" y="-125" font-family="Helvetica,sans-Serif" font-size="10.00">AMReX_GpuQualifiers.H</text>
</a>
</g>
</g>
<!-- Node23&#45;&gt;Node25 -->
<g id="edge34" class="edge">
<title>Node23&#45;&gt;Node25</title>
<path fill="none" stroke="midnightblue" d="M254.77,-184.73C265.1,-174.4 282.46,-157.04 295.17,-144.33"/>
<polygon fill="midnightblue" stroke="midnightblue" points="297.78,-146.67 302.37,-137.13 292.83,-141.72 297.78,-146.67"/>
</g>
<!-- Node26 -->
<g id="node26" class="node">
<title>Node26</title>
<g id="a_node26"><a xlink:title=" ">
<polygon fill="white" stroke="#bfbfbf" points="0,-118 0,-137 116,-137 116,-118 0,-118"/>
<text text-anchor="middle" x="58" y="-125" font-family="Helvetica,sans-Serif" font-size="10.00">AMReX_Extension.H</text>
</a>
</g>
</g>
<!-- Node23&#45;&gt;Node26 -->
<g id="edge35" class="edge">
<title>Node23&#45;&gt;Node26</title>
<path fill="none" stroke="midnightblue" d="M221.04,-184.87C188.08,-173.47 129.88,-153.35 92.67,-140.49"/>
<polygon fill="midnightblue" stroke="midnightblue" points="93.36,-137.02 82.77,-137.06 91.08,-143.64 93.36,-137.02"/>
</g>
<!-- Node27&#45;&gt;Node5 -->
<g id="edge38" class="edge">
<title>Node27&#45;&gt;Node5</title>
<path fill="none" stroke="midnightblue" d="M880.6,-193.7C1098.37,-193.71 1730.45,-189.61 1931,-143 1960.58,-136.13 2037.7,-99.79 2078.61,-79.95"/>
<polygon fill="midnightblue" stroke="midnightblue" points="2080.25,-83.04 2087.71,-75.52 2077.19,-76.75 2080.25,-83.04"/>
</g>
<!-- Node27&#45;&gt;Node10 -->
<g id="edge37" class="edge">
<title>Node27&#45;&gt;Node10</title>
<path fill="none" stroke="midnightblue" d="M880.72,-192.8C1084.94,-190.42 1649.32,-180.53 1831,-143 1851.8,-138.7 1997.9,-93.45 2010,-76 2046.43,-23.46 1924.98,-13.23 1864.35,-11.35"/>
<polygon fill="midnightblue" stroke="midnightblue" points="1864.22,-7.85 1854.14,-11.1 1864.05,-14.85 1864.22,-7.85"/>
</g>
<!-- Node27&#45;&gt;Node12 -->
<g id="edge58" class="edge">
<title>Node27&#45;&gt;Node12</title>
<path fill="none" stroke="midnightblue" d="M804.1,-184.91C799.31,-160.77 789.52,-91.75 825,-56 858.08,-22.66 988.23,-13.85 1068.38,-11.63"/>
<polygon fill="midnightblue" stroke="midnightblue" points="1068.47,-15.13 1078.38,-11.38 1068.29,-8.13 1068.47,-15.13"/>
</g>
<!-- Node27&#45;&gt;Node14 -->
<g id="edge44" class="edge">
<title>Node27&#45;&gt;Node14</title>
<path fill="none" stroke="midnightblue" d="M880.86,-188.4C1059.91,-176.2 1511.11,-145.46 1687.62,-133.43"/>
<polygon fill="midnightblue" stroke="midnightblue" points="1688.1,-136.91 1697.84,-132.74 1687.62,-129.92 1688.1,-136.91"/>
</g>
<!-- Node27&#45;&gt;Node19 -->
<g id="edge39" class="edge">
<title>Node27&#45;&gt;Node19</title>
<path fill="none" stroke="midnightblue" d="M799.86,-184.81C789.18,-169.77 766.37,-138 746,-112 733.15,-95.61 723.09,-95.58 716,-76 710.42,-60.58 715.34,-42.27 720.83,-29.01"/>
<polygon fill="midnightblue" stroke="midnightblue" points="724.15,-30.17 725.16,-19.62 717.79,-27.23 724.15,-30.17"/>
</g>
<!-- Node27&#45;&gt;Node22 -->
<g id="edge57" class="edge">
<title>Node27&#45;&gt;Node22</title>
<path fill="none" stroke="midnightblue" d="M754.76,-184.97C697.46,-175.3 601.93,-158.84 520,-143 513.69,-141.78 507.07,-140.45 500.52,-139.11"/>
<polygon fill="midnightblue" stroke="midnightblue" points="500.87,-135.61 490.36,-137 499.44,-142.46 500.87,-135.61"/>
</g>
<!-- Node28 -->
<g id="node28" class="node">
<title>Node28</title>
<g id="a_node28"><a xlink:href="_field_utils_8_h.html" target="_top" xlink:title=" ">
<polygon fill="white" stroke="black" points="350,-56.5 350,-75.5 496,-75.5 496,-56.5 350,-56.5"/>
<text text-anchor="middle" x="423" y="-63.5" font-family="Helvetica,sans-Serif" font-size="10.00">amr&#45;wind/core/FieldUtils.H</text>
</a>
</g>
</g>
<!-- Node27&#45;&gt;Node28 -->
<g id="edge40" class="edge">
<title>Node27&#45;&gt;Node28</title>
<path fill="none" stroke="midnightblue" d="M742.22,-184.99C694.12,-177.34 627.07,-164.02 571,-143 544.36,-133.02 540.23,-125.14 515,-112 493.48,-100.79 468.76,-88.74 450.36,-79.94"/>
<polygon fill="midnightblue" stroke="midnightblue" points="451.65,-76.67 441.12,-75.53 448.64,-82.99 451.65,-76.67"/>
</g>
<!-- Node30 -->
<g id="node30" class="node">
<title>Node30</title>
<g id="a_node30"><a xlink:href="_int_field_8_h.html" target="_top" xlink:title=" ">
<polygon fill="white" stroke="black" points="600.5,-118 600.5,-137 737.5,-137 737.5,-118 600.5,-118"/>
<text text-anchor="middle" x="669" y="-125" font-family="Helvetica,sans-Serif" font-size="10.00">amr&#45;wind/core/IntField.H</text>
</a>
</g>
</g>
<!-- Node27&#45;&gt;Node30 -->
<g id="edge45" class="edge">
<title>Node27&#45;&gt;Node30</title>
<path fill="none" stroke="midnightblue" d="M787.81,-184.87C764.47,-173.8 723.77,-154.49 696.61,-141.6"/>
<polygon fill="midnightblue" stroke="midnightblue" points="697.8,-138.29 687.27,-137.17 694.8,-144.62 697.8,-138.29"/>
</g>
<!-- Node31 -->
<g id="node31" class="node">
<title>Node31</title>
<g id="a_node31"><a xlink:title=" ">
<polygon fill="white" stroke="#bfbfbf" points="514,-56.5 514,-75.5 626,-75.5 626,-56.5 514,-56.5"/>
<text text-anchor="middle" x="570" y="-63.5" font-family="Helvetica,sans-Serif" font-size="10.00">AMReX_iMultiFab.H</text>
</a>
</g>
</g>
<!-- Node27&#45;&gt;Node31 -->
<g id="edge59" class="edge">
<title>Node27&#45;&gt;Node31</title>
<path fill="none" stroke="midnightblue" d="M736.87,-184.99C682.21,-176.89 611.76,-162.97 591,-143 575.54,-128.13 571.14,-103 570.05,-85.73"/>
<polygon fill="midnightblue" stroke="midnightblue" points="573.55,-85.59 569.73,-75.71 566.55,-85.81 573.55,-85.59"/>
</g>
<!-- Node32 -->
<g id="node32" class="node">
<title>Node32</title>
<g id="a_node32"><a xlink:href="_scratch_field_8_h.html" target="_top" xlink:title=" ">
<polygon fill="white" stroke="black" points="936,-118 936,-137 1096,-137 1096,-118 936,-118"/>
<text text-anchor="middle" x="1016" y="-125" font-family="Helvetica,sans-Serif" font-size="10.00">amr&#45;wind/core/ScratchField.H</text>
</a>
</g>
</g>
<!-- Node27&#45;&gt;Node32 -->
<g id="edge49" class="edge">
<title>Node27&#45;&gt;Node32</title>
<path fill="none" stroke="midnightblue" d="M833.89,-184.87C871.1,-173.35 937.1,-152.92 978.6,-140.08"/>
<polygon fill="midnightblue" stroke="midnightblue" points="979.81,-143.36 988.33,-137.06 977.74,-136.68 979.81,-143.36"/>
</g>
<!-- Node28&#45;&gt;Node12 -->
<g id="edge42" class="edge">
<title>Node28&#45;&gt;Node12</title>
<path fill="none" stroke="midnightblue" d="M496.3,-56.82C499.24,-56.53 502.15,-56.26 505,-56 710.32,-37.38 953.99,-21.77 1068.04,-14.84"/>
<polygon fill="midnightblue" stroke="midnightblue" points="1068.57,-18.32 1078.34,-14.22 1068.15,-11.33 1068.57,-18.32"/>
</g>
<!-- Node28&#45;&gt;Node19 -->
<g id="edge41" class="edge">
<title>Node28&#45;&gt;Node19</title>
<path fill="none" stroke="midnightblue" d="M471.65,-56.44C525.87,-46.9 613.55,-31.48 671.48,-21.29"/>
<polygon fill="midnightblue" stroke="midnightblue" points="672.34,-24.7 681.58,-19.52 671.13,-17.8 672.34,-24.7"/>
</g>
<!-- Node29 -->
<g id="node29" class="node">
<title>Node29</title>
<g id="a_node29"><a xlink:title=" ">
<polygon fill="white" stroke="#bfbfbf" points="361,-0.5 361,-19.5 485,-19.5 485,-0.5 361,-0.5"/>
<text text-anchor="middle" x="423" y="-7.5" font-family="Helvetica,sans-Serif" font-size="10.00">AMReX_Interpolater.H</text>
</a>
</g>
</g>
<!-- Node28&#45;&gt;Node29 -->
<g id="edge43" class="edge">
<title>Node28&#45;&gt;Node29</title>
<path fill="none" stroke="midnightblue" d="M423,-56.08C423,-49.01 423,-38.86 423,-29.99"/>
<polygon fill="midnightblue" stroke="midnightblue" points="426.5,-29.75 423,-19.75 419.5,-29.75 426.5,-29.75"/>
</g>
<!-- Node30&#45;&gt;Node10 -->
<g id="edge46" class="edge">
<title>Node30&#45;&gt;Node10</title>
<path fill="none" stroke="midnightblue" d="M737.61,-122.4C886.99,-113.33 1237.75,-91.15 1356,-76 1404.85,-69.74 1416.31,-63.44 1465,-56 1587.97,-37.2 1735.07,-21.07 1799.3,-14.35"/>
<polygon fill="midnightblue" stroke="midnightblue" points="1800.01,-17.79 1809.6,-13.28 1799.29,-10.83 1800.01,-17.79"/>
</g>
<!-- Node30&#45;&gt;Node19 -->
<g id="edge47" class="edge">
<title>Node30&#45;&gt;Node19</title>
<path fill="none" stroke="midnightblue" d="M668.19,-117.66C667.32,-103.68 667.27,-76.01 678,-56 684.61,-43.67 696.07,-33.2 706.55,-25.47"/>
<polygon fill="midnightblue" stroke="midnightblue" points="708.75,-28.2 714.99,-19.64 704.77,-22.44 708.75,-28.2"/>
</g>
<!-- Node30&#45;&gt;Node31 -->
<g id="edge48" class="edge">
<title>Node30&#45;&gt;Node31</title>
<path fill="none" stroke="midnightblue" d="M654.82,-117.98C638.64,-108.25 611.97,-92.23 592.86,-80.74"/>
<polygon fill="midnightblue" stroke="midnightblue" points="594.53,-77.66 584.16,-75.51 590.93,-83.66 594.53,-77.66"/>
</g>
<!-- Node32&#45;&gt;Node10 -->
<g id="edge50" class="edge">
<title>Node32&#45;&gt;Node10</title>
<path fill="none" stroke="midnightblue" d="M1096.16,-125.24C1187.15,-122.04 1339.25,-111.3 1465,-76 1485.29,-70.3 1487.78,-61.96 1508,-56 1611.84,-25.39 1740.7,-15.41 1799.73,-12.32"/>
<polygon fill="midnightblue" stroke="midnightblue" points="1800.1,-15.8 1809.92,-11.81 1799.76,-8.81 1800.1,-15.8"/>
</g>
<!-- Node32&#45;&gt;Node11 -->
<g id="edge55" class="edge">
<title>Node32&#45;&gt;Node11</title>
<path fill="none" stroke="midnightblue" d="M1096.01,-120.99C1182.07,-113.95 1312.45,-99.75 1356,-76 1376.3,-64.93 1392.81,-43.65 1402.74,-28.46"/>
<polygon fill="midnightblue" stroke="midnightblue" points="1405.73,-30.26 1408.04,-19.92 1399.79,-26.57 1405.73,-30.26"/>
</g>
<!-- Node32&#45;&gt;Node12 -->
<g id="edge54" class="edge">
<title>Node32&#45;&gt;Node12</title>
<path fill="none" stroke="midnightblue" d="M1024.79,-117.82C1044.36,-98.5 1091.73,-51.74 1116.81,-26.98"/>
<polygon fill="midnightblue" stroke="midnightblue" points="1119.45,-29.3 1124.1,-19.78 1114.53,-24.32 1119.45,-29.3"/>
</g>
<!-- Node32&#45;&gt;Node19 -->
<g id="edge52" class="edge">
<title>Node32&#45;&gt;Node19</title>
<path fill="none" stroke="midnightblue" d="M964.92,-117.93C925.49,-110.15 870.22,-96.7 825,-76 796.11,-62.78 766.46,-40.91 748.14,-26.23"/>
<polygon fill="midnightblue" stroke="midnightblue" points="750.07,-23.29 740.11,-19.68 745.64,-28.71 750.07,-23.29"/>
</g>
<!-- Node32&#45;&gt;Node20 -->
<g id="edge53" class="edge">
<title>Node32&#45;&gt;Node20</title>
<path fill="none" stroke="midnightblue" d="M1052.82,-117.98C1098.53,-107.39 1176.53,-89.34 1226.37,-77.8"/>
<polygon fill="midnightblue" stroke="midnightblue" points="1227.29,-81.17 1236.25,-75.51 1225.71,-74.35 1227.29,-81.17"/>
</g>
<!-- Node33 -->
<g id="node33" class="node">
<title>Node33</title>
<g id="a_node33"><a xlink:title=" ">
<polygon fill="white" stroke="#bfbfbf" points="983.5,-56.5 983.5,-75.5 1028.5,-75.5 1028.5,-56.5 983.5,-56.5"/>
<text text-anchor="middle" x="1006" y="-63.5" font-family="Helvetica,sans-Serif" font-size="10.00">utility</text>
</a>
</g>
</g>
<!-- Node32&#45;&gt;Node33 -->
<g id="edge51" class="edge">
<title>Node32&#45;&gt;Node33</title>
<path fill="none" stroke="midnightblue" d="M1014.57,-117.98C1013.16,-109.58 1010.95,-96.48 1009.14,-85.66"/>
<polygon fill="midnightblue" stroke="midnightblue" points="1012.54,-84.79 1007.43,-75.51 1005.64,-85.95 1012.54,-84.79"/>
</g>
<!-- Node34 -->
<g id="node34" class="node">
<title>Node34</title>
<g id="a_node34"><a xlink:title=" ">
<polygon fill="white" stroke="#bfbfbf" points="834.5,-56.5 834.5,-75.5 965.5,-75.5 965.5,-56.5 834.5,-56.5"/>
<text text-anchor="middle" x="900" y="-63.5" font-family="Helvetica,sans-Serif" font-size="10.00">AMReX_PhysBCFunct.H</text>
</a>
</g>
</g>
<!-- Node32&#45;&gt;Node34 -->
<g id="edge56" class="edge">
<title>Node32&#45;&gt;Node34</title>
<path fill="none" stroke="midnightblue" d="M999.38,-117.98C980.08,-108.08 948.04,-91.64 925.57,-80.12"/>
<polygon fill="midnightblue" stroke="midnightblue" points="927.08,-76.96 916.59,-75.51 923.89,-83.19 927.08,-76.96"/>
</g>
<!-- Node35&#45;&gt;Node3 -->
<g id="edge62" class="edge">
<title>Node35&#45;&gt;Node3</title>
<path fill="none" stroke="midnightblue" d="M2070.76,-180.36C2073.88,-179.89 2076.97,-179.43 2080,-179 2212.93,-159.96 2247.3,-163.6 2380,-143 2387.75,-141.8 2395.91,-140.39 2403.9,-138.93"/>
<polygon fill="midnightblue" stroke="midnightblue" points="2404.69,-142.35 2413.88,-137.07 2403.41,-135.46 2404.69,-142.35"/>
</g>
<!-- Node35&#45;&gt;Node9 -->
<g id="edge63" class="edge">
<title>Node35&#45;&gt;Node9</title>
<path fill="none" stroke="midnightblue" d="M2059.67,-179.48C2117.22,-167.37 2199.11,-150.14 2251.41,-139.14"/>
<polygon fill="midnightblue" stroke="midnightblue" points="2252.39,-142.51 2261.46,-137.03 2250.95,-135.66 2252.39,-142.51"/>
</g>
<!-- Node35&#45;&gt;Node10 -->
<g id="edge61" class="edge">
<title>Node35&#45;&gt;Node10</title>
<path fill="none" stroke="midnightblue" d="M2069.07,-179.45C2114.28,-169.97 2166.33,-156.73 2185,-143 2219.59,-117.56 2255.59,-88.03 2227,-56 2202.96,-29.06 1954.33,-16.1 1864.31,-12.26"/>
<polygon fill="midnightblue" stroke="midnightblue" points="1864.28,-8.76 1854.14,-11.84 1863.99,-15.75 1864.28,-8.76"/>
</g>
<!-- Node35&#45;&gt;Node18 -->
<g id="edge67" class="edge">
<title>Node35&#45;&gt;Node18</title>
<path fill="none" stroke="midnightblue" d="M1986.13,-179.48C1974.82,-156.41 1952.31,-110.48 1939.84,-85.03"/>
<polygon fill="midnightblue" stroke="midnightblue" points="1942.85,-83.23 1935.31,-75.79 1936.57,-86.31 1942.85,-83.23"/>
</g>
<!-- Node35&#45;&gt;Node19 -->
<g id="edge66" class="edge">
<title>Node35&#45;&gt;Node19</title>
<path fill="none" stroke="midnightblue" d="M1915.49,-193.78C1702.94,-193.91 1114.25,-189.91 927,-143 859.7,-126.14 841.17,-118.08 786,-76 768.12,-62.37 751.86,-42.21 741.52,-27.97"/>
<polygon fill="midnightblue" stroke="midnightblue" points="744.24,-25.75 735.63,-19.59 738.52,-29.78 744.24,-25.75"/>
</g>
<!-- Node36 -->
<g id="node36" class="node">
<title>Node36</title>
<g id="a_node36"><a xlink:href="_p_d_e_fields_8_h.html" target="_top" xlink:title=" ">
<polygon fill="white" stroke="black" points="2021.5,-112.5 2021.5,-142.5 2176.5,-142.5 2176.5,-112.5 2021.5,-112.5"/>
<text text-anchor="start" x="2029.5" y="-130.5" font-family="Helvetica,sans-Serif" font-size="10.00">amr&#45;wind/equation_systems</text>
<text text-anchor="middle" x="2099" y="-119.5" font-family="Helvetica,sans-Serif" font-size="10.00">/PDEFields.H</text>
</a>
</g>
</g>
<!-- Node35&#45;&gt;Node36 -->
<g id="edge64" class="edge">
<title>Node35&#45;&gt;Node36</title>
<path fill="none" stroke="midnightblue" d="M2016,-179.4C2031,-170.2 2050.79,-158.07 2067.27,-147.95"/>
<polygon fill="midnightblue" stroke="midnightblue" points="2069.35,-150.79 2076.04,-142.58 2065.69,-144.82 2069.35,-150.79"/>
</g>
<!-- Node37 -->
<g id="node37" class="node">
<title>Node37</title>
<g id="a_node37"><a xlink:title=" ">
<polygon fill="white" stroke="#bfbfbf" points="2170,-56.5 2170,-75.5 2218,-75.5 2218,-56.5 2170,-56.5"/>
<text text-anchor="middle" x="2194" y="-63.5" font-family="Helvetica,sans-Serif" font-size="10.00">iosfwd</text>
</a>
</g>
</g>
<!-- Node36&#45;&gt;Node37 -->
<g id="edge65" class="edge">
<title>Node36&#45;&gt;Node37</title>
<path fill="none" stroke="midnightblue" d="M2121.51,-112.4C2136.6,-102.95 2156.39,-90.56 2171.47,-81.11"/>
<polygon fill="midnightblue" stroke="midnightblue" points="2173.56,-83.93 2180.18,-75.66 2169.84,-78 2173.56,-83.93"/>
</g>
<!-- Node38&#45;&gt;Node3 -->
<g id="edge71" class="edge">
<title>Node38&#45;&gt;Node3</title>
<path fill="none" stroke="midnightblue" d="M2201.61,-184.94C2254.53,-173.2 2349.59,-152.11 2407.33,-139.3"/>
<polygon fill="midnightblue" stroke="midnightblue" points="2408.3,-142.67 2417.31,-137.08 2406.79,-135.83 2408.3,-142.67"/>
</g>
<!-- Node38&#45;&gt;Node9 -->
<g id="edge70" class="edge">
<title>Node38&#45;&gt;Node9</title>
<path fill="none" stroke="midnightblue" d="M2181.46,-184.87C2205.24,-173.75 2246.79,-154.32 2274.35,-141.43"/>
<polygon fill="midnightblue" stroke="midnightblue" points="2275.89,-144.57 2283.47,-137.17 2272.92,-138.23 2275.89,-144.57"/>
</g>
<!-- Node38&#45;&gt;Node12 -->
<g id="edge73" class="edge">
<title>Node38&#45;&gt;Node12</title>
<path fill="none" stroke="midnightblue" d="M2119.99,-184.95C2106.88,-182.65 2092.39,-180.41 2079,-179 2028.02,-173.63 1195.71,-176.61 1157,-143 1124.7,-114.96 1126.39,-59.23 1129.93,-29.96"/>
<polygon fill="midnightblue" stroke="midnightblue" points="1133.42,-30.22 1131.36,-19.83 1126.49,-29.24 1133.42,-30.22"/>
</g>
<!-- Node38&#45;&gt;Node13 -->
<g id="edge74" class="edge">
<title>Node38&#45;&gt;Node13</title>
<path fill="none" stroke="midnightblue" d="M2210.03,-184.99C2222.07,-182.93 2235,-180.79 2247,-179 2373.27,-160.14 2406.15,-164.52 2532,-143 2538.62,-141.87 2545.58,-140.53 2552.4,-139.13"/>
<polygon fill="midnightblue" stroke="midnightblue" points="2553.19,-142.54 2562.25,-137.06 2551.75,-135.69 2553.19,-142.54"/>
</g>
<!-- Node38&#45;&gt;Node14 -->
<g id="edge72" class="edge">
<title>Node38&#45;&gt;Node14</title>
<path fill="none" stroke="midnightblue" d="M2114.16,-184.95C2102.64,-182.97 2090.39,-180.88 2079,-179 1991.31,-164.49 1889.9,-148.59 1825.39,-138.58"/>
<polygon fill="midnightblue" stroke="midnightblue" points="1825.78,-135.1 1815.36,-137.02 1824.71,-142.02 1825.78,-135.1"/>
</g>
</g>
</svg>
        <g id="navigator" transform="translate(0 0)" fill="#404254">
                <rect fill="#f2f5e9" fill-opacity="0.5" stroke="#606060" stroke-width=".5" x="0" y="0" width="60" height="60"/>
                <use id="zoomplus" xlink:href="#zoomPlus" x="17" y="9" onmousedown="handleZoom(evt,'in')"/>
                <use id="zoomminus" xlink:href="#zoomMin" x="42" y="9" onmousedown="handleZoom(evt,'out')"/>
                <use id="reset" xlink:href="#resetDef" x="30" y="36" onmousedown="handleReset()"/>
                <g id="arrowUp" xlink:href="#dirArrow" transform="translate(30 24)" onmousedown="handlePan(0,-1)">
                  <use xlink:href="#rim" fill="#404040">
                        <set attributeName="fill" to="#808080" begin="arrowUp.mouseover" end="arrowUp.mouseout"/>
                  </use>
                  <path fill="none" stroke="white" stroke-width="1.5" d="M0,-3.0v7 M-2.5,-0.5L0,-3.0L2.5,-0.5"/>
                </g>
                <g id="arrowRight" xlink:href="#dirArrow" transform="rotate(90) translate(36 -43)" onmousedown="handlePan(1,0)">
                  <use xlink:href="#rim" fill="#404040">
                        <set attributeName="fill" to="#808080" begin="arrowRight.mouseover" end="arrowRight.mouseout"/>
                  </use>
                  <path fill="none" stroke="white" stroke-width="1.5" d="M0,-3.0v7 M-2.5,-0.5L0,-3.0L2.5,-0.5"/>
                </g>
                <g id="arrowDown" xlink:href="#dirArrow" transform="rotate(180) translate(-30 -48)" onmousedown="handlePan(0,1)">
                  <use xlink:href="#rim" fill="#404040">
                        <set attributeName="fill" to="#808080" begin="arrowDown.mouseover" end="arrowDown.mouseout"/>
                  </use>
                  <path fill="none" stroke="white" stroke-width="1.5" d="M0,-3.0v7 M-2.5,-0.5L0,-3.0L2.5,-0.5"/>
                </g>
                <g id="arrowLeft" xlink:href="#dirArrow" transform="rotate(270) translate(-36 17)" onmousedown="handlePan(-1,0)">
                  <use xlink:href="#rim" fill="#404040">
                        <set attributeName="fill" to="#808080" begin="arrowLeft.mouseover" end="arrowLeft.mouseout"/>
                  </use>
                  <path fill="none" stroke="white" stroke-width="1.5" d="M0,-3.0v7 M-2.5,-0.5L0,-3.0L2.5,-0.5"/>
                </g>
        </g>
        <svg viewBox="0 0 15 15" width="100%" height="30px" preserveAspectRatio="xMaxYMin meet">
         <g id="arrow_out" transform="scale(0.3 0.3)">
          <a xlink:href="_convecting_taylor_vortex_8_h__incl_org.svg" target="_base">
           <rect id="button" ry="5" rx="5" y="6" x="6" height="38" width="38"
                fill="#f2f5e9" fill-opacity="0.5" stroke="#606060" stroke-width="1.0"/>
           <path id="arrow"
             d="M 11.500037,31.436501 C 11.940474,20.09759 22.043105,11.32322 32.158766,21.979434 L 37.068811,17.246167 C 37.068811,17.246167 37.088388,32 37.088388,32 L 22.160133,31.978069 C 22.160133,31.978069 26.997745,27.140456 26.997745,27.140456 C 18.528582,18.264221 13.291696,25.230495 11.500037,31.436501 z"
             style="fill:#404040;"/>
          </a>
         </g>
        </svg>
</svg>
