<?xml version="1.0" encoding="UTF-8" standalone="no"?>
<!DOCTYPE svg PUBLIC "-//W3C//DTD SVG 1.1//EN"
 "http://www.w3.org/Graphics/SVG/1.1/DTD/svg11.dtd">
<!-- Generated by graphviz version 2.43.0 (0)
 -->
<!-- Title: DensitySource.H Pages: 1 -->
<!--zoomable 252 -->
<svg id="main" version="1.1" xmlns="http://www.w3.org/2000/svg" xmlns:xlink="http://www.w3.org/1999/xlink" xml:space="preserve" onload="init(evt)">
<style type="text/css"><![CDATA[
.edge:hover path { stroke: red; }
.edge:hover polygon { stroke: red; fill: red; }
]]></style>
<script type="text/javascript"><![CDATA[
var edges = document.getElementsByTagName('g');
if (edges && edges.length) {
  for (var i=0;i<edges.length;i++) {
    if (edges[i].id.substr(0,4)=='edge') {
      edges[i].setAttribute('class','edge');
    }
  }
}
]]></script>
        <defs>
                <circle id="rim" cx="0" cy="0" r="7"/>
                <circle id="rim2" cx="0" cy="0" r="3.5"/>
                <g id="zoomPlus">
                        <use xlink:href="#rim" fill="#404040">
                                <set attributeName="fill" to="#808080" begin="zoomplus.mouseover" end="zoomplus.mouseout"/>
                        </use>
                        <path d="M-4,0h8M0,-4v8" fill="none" stroke="white" stroke-width="1.5" pointer-events="none"/>
                </g>
                <g id="zoomMin">
                        <use xlink:href="#rim" fill="#404040">
                                <set attributeName="fill" to="#808080" begin="zoomminus.mouseover" end="zoomminus.mouseout"/>
                        </use>
                        <path d="M-4,0h8" fill="none" stroke="white" stroke-width="1.5" pointer-events="none"/>
                </g>
                <g id="dirArrow">
                        <path fill="none" stroke="white" stroke-width="1.5" d="M0,-3.0v7 M-2.5,-0.5L0,-3.0L2.5,-0.5"/>
                </g>
               <g id="resetDef">
                       <use xlink:href="#rim2" fill="#404040">
                               <set attributeName="fill" to="#808080" begin="reset.mouseover" end="reset.mouseout"/>
                       </use>
               </g>
        </defs>

<script type="text/javascript">
var viewWidth = 2120;
var viewHeight = 252;
var sectionId = 'dynsection-0';
</script>
<script xlink:href="svgpan.js"/>
<svg id="graph" class="graph">
<g id="viewport">
<title>DensitySource.H</title>
<polygon fill="white" stroke="transparent" points="-4,4 -4,-248 2116.26,-248 2116.26,4 -4,4"/>
<!-- Node1 -->
<g id="node1" class="node">
<title>Node1</title>
<g id="a_node1"><a xlink:title=" ">
<polygon fill="#bfbfbf" stroke="black" points="387,-224.5 387,-243.5 485,-243.5 485,-224.5 387,-224.5"/>
<text text-anchor="middle" x="436" y="-231.5" font-family="Helvetica,sans-Serif" font-size="10.00">DensitySource.H</text>
</a>
</g>
</g>
<!-- Node2 -->
<g id="node2" class="node">
<title>Node2</title>
<g id="a_node2"><a xlink:href="_factory_8_h.html" target="_top" xlink:title=" ">
<polygon fill="white" stroke="black" points="114,-112.5 114,-131.5 248,-131.5 248,-112.5 114,-112.5"/>
<text text-anchor="middle" x="181" y="-119.5" font-family="Helvetica,sans-Serif" font-size="10.00">amr&#45;wind/core/Factory.H</text>
</a>
</g>
</g>
<!-- Node1&#45;&gt;Node2 -->
<g id="edge1" class="edge">
<title>Node1&#45;&gt;Node2</title>
<path fill="none" stroke="midnightblue" d="M386.78,-225.99C350.81,-219.53 301.61,-207.85 262,-188 236.7,-175.32 211.98,-153.76 196.64,-138.97"/>
<polygon fill="midnightblue" stroke="midnightblue" points="198.7,-136.09 189.13,-131.55 193.78,-141.07 198.7,-136.09"/>
</g>
<!-- Node8 -->
<g id="node8" class="node">
<title>Node8</title>
<g id="a_node8"><a xlink:href="_field_desc_types_8_h.html" target="_top" xlink:title=" ">
<polygon fill="white" stroke="black" points="670,-0.5 670,-19.5 846,-19.5 846,-0.5 670,-0.5"/>
<text text-anchor="middle" x="758" y="-7.5" font-family="Helvetica,sans-Serif" font-size="10.00">amr&#45;wind/core/FieldDescTypes.H</text>
</a>
</g>
</g>
<!-- Node1&#45;&gt;Node8 -->
<g id="edge7" class="edge">
<title>Node1&#45;&gt;Node8</title>
<path fill="none" stroke="midnightblue" d="M422.92,-224.38C383.59,-197.46 272.25,-113.39 324,-56 346.08,-31.51 538.87,-19.52 659.95,-14.35"/>
<polygon fill="midnightblue" stroke="midnightblue" points="660.14,-17.85 669.99,-13.93 659.85,-10.85 660.14,-17.85"/>
</g>
<!-- Node9 -->
<g id="node9" class="node">
<title>Node9</title>
<g id="a_node9"><a xlink:href="_field_utils_8_h.html" target="_top" xlink:title=" ">
<polygon fill="white" stroke="black" points="363,-112.5 363,-131.5 509,-131.5 509,-112.5 363,-112.5"/>
<text text-anchor="middle" x="436" y="-119.5" font-family="Helvetica,sans-Serif" font-size="10.00">amr&#45;wind/core/FieldUtils.H</text>
</a>
</g>
</g>
<!-- Node1&#45;&gt;Node9 -->
<g id="edge8" class="edge">
<title>Node1&#45;&gt;Node9</title>
<path fill="none" stroke="midnightblue" d="M436,-224.37C436,-206.62 436,-165.67 436,-141.6"/>
<polygon fill="midnightblue" stroke="midnightblue" points="439.5,-141.59 436,-131.59 432.5,-141.59 439.5,-141.59"/>
</g>
<!-- Node10 -->
<g id="node10" class="node">
<title>Node10</title>
<g id="a_node10"><a xlink:title=" ">
<polygon fill="white" stroke="#bfbfbf" points="1346.5,-0.5 1346.5,-19.5 1455.5,-19.5 1455.5,-0.5 1346.5,-0.5"/>
<text text-anchor="middle" x="1401" y="-7.5" font-family="Helvetica,sans-Serif" font-size="10.00">AMReX_MultiFab.H</text>
</a>
</g>
</g>
<!-- Node1&#45;&gt;Node10 -->
<g id="edge47" class="edge">
<title>Node1&#45;&gt;Node10</title>
<path fill="none" stroke="midnightblue" d="M485.37,-230.9C618.22,-223.76 992.4,-193.83 1276,-76 1286.02,-71.84 1342.23,-42.2 1375.76,-24.42"/>
<polygon fill="midnightblue" stroke="midnightblue" points="1377.77,-27.31 1384.97,-19.53 1374.49,-21.13 1377.77,-27.31"/>
</g>
<!-- Node12 -->
<g id="node12" class="node">
<title>Node12</title>
<g id="a_node12"><a xlink:href="_field_repo_8_h.html" target="_top" xlink:title=" ">
<polygon fill="white" stroke="black" points="1171.5,-168.5 1171.5,-187.5 1320.5,-187.5 1320.5,-168.5 1171.5,-168.5"/>
<text text-anchor="middle" x="1246" y="-175.5" font-family="Helvetica,sans-Serif" font-size="10.00">amr&#45;wind/core/FieldRepo.H</text>
</a>
</g>
</g>
<!-- Node1&#45;&gt;Node12 -->
<g id="edge12" class="edge">
<title>Node1&#45;&gt;Node12</title>
<path fill="none" stroke="midnightblue" d="M485.07,-230.61C601.8,-224.79 905.16,-208.8 1158,-188 1158.94,-187.92 1159.88,-187.84 1160.83,-187.76"/>
<polygon fill="midnightblue" stroke="midnightblue" points="1161.47,-191.22 1171.13,-186.86 1160.86,-184.25 1161.47,-191.22"/>
</g>
<!-- Node3 -->
<g id="node3" class="node">
<title>Node3</title>
<g id="a_node3"><a xlink:title=" ">
<polygon fill="white" stroke="#bfbfbf" points="484,-56.5 484,-75.5 542,-75.5 542,-56.5 484,-56.5"/>
<text text-anchor="middle" x="513" y="-63.5" font-family="Helvetica,sans-Serif" font-size="10.00">memory</text>
</a>
</g>
</g>
<!-- Node2&#45;&gt;Node3 -->
<g id="edge2" class="edge">
<title>Node2&#45;&gt;Node3</title>
<path fill="none" stroke="midnightblue" d="M246.65,-112.5C304.13,-104.7 390.09,-92.19 473.68,-76.14"/>
<polygon fill="midnightblue" stroke="midnightblue" points="474.44,-79.55 483.59,-74.21 473.11,-72.68 474.44,-79.55"/>
</g>
<!-- Node4 -->
<g id="node4" class="node">
<title>Node4</title>
<g id="a_node4"><a xlink:title=" ">
<polygon fill="white" stroke="#bfbfbf" points="636.5,-56.5 636.5,-75.5 729.5,-75.5 729.5,-56.5 636.5,-56.5"/>
<text text-anchor="middle" x="683" y="-63.5" font-family="Helvetica,sans-Serif" font-size="10.00">unordered_map</text>
</a>
</g>
</g>
<!-- Node2&#45;&gt;Node4 -->
<g id="edge3" class="edge">
<title>Node2&#45;&gt;Node4</title>
<path fill="none" stroke="midnightblue" d="M248.18,-113.77C347.84,-103.05 533.08,-83.13 626.3,-73.1"/>
<polygon fill="midnightblue" stroke="midnightblue" points="626.82,-76.56 636.39,-72.01 626.07,-69.6 626.82,-76.56"/>
</g>
<!-- Node5 -->
<g id="node5" class="node">
<title>Node5</title>
<g id="a_node5"><a xlink:title=" ">
<polygon fill="white" stroke="#bfbfbf" points="0,-56.5 0,-75.5 60,-75.5 60,-56.5 0,-56.5"/>
<text text-anchor="middle" x="30" y="-63.5" font-family="Helvetica,sans-Serif" font-size="10.00">iostream</text>
</a>
</g>
</g>
<!-- Node2&#45;&gt;Node5 -->
<g id="edge4" class="edge">
<title>Node2&#45;&gt;Node5</title>
<path fill="none" stroke="midnightblue" d="M157.07,-112.44C131.78,-103.4 91.7,-89.06 63.32,-78.92"/>
<polygon fill="midnightblue" stroke="midnightblue" points="64.41,-75.59 53.81,-75.52 62.05,-82.18 64.41,-75.59"/>
</g>
<!-- Node6 -->
<g id="node6" class="node">
<title>Node6</title>
<g id="a_node6"><a xlink:title=" ">
<polygon fill="white" stroke="#bfbfbf" points="78,-56.5 78,-75.5 168,-75.5 168,-56.5 78,-56.5"/>
<text text-anchor="middle" x="123" y="-63.5" font-family="Helvetica,sans-Serif" font-size="10.00">AMReX_Print.H</text>
</a>
</g>
</g>
<!-- Node2&#45;&gt;Node6 -->
<g id="edge5" class="edge">
<title>Node2&#45;&gt;Node6</title>
<path fill="none" stroke="midnightblue" d="M171.68,-112.32C163.11,-104.34 150.19,-92.31 139.81,-82.65"/>
<polygon fill="midnightblue" stroke="midnightblue" points="142.19,-80.09 132.49,-75.83 137.42,-85.21 142.19,-80.09"/>
</g>
<!-- Node7 -->
<g id="node7" class="node">
<title>Node7</title>
<g id="a_node7"><a xlink:title=" ">
<polygon fill="white" stroke="#bfbfbf" points="186,-56.5 186,-75.5 248,-75.5 248,-56.5 186,-56.5"/>
<text text-anchor="middle" x="217" y="-63.5" font-family="Helvetica,sans-Serif" font-size="10.00">AMReX.H</text>
</a>
</g>
</g>
<!-- Node2&#45;&gt;Node7 -->
<g id="edge6" class="edge">
<title>Node2&#45;&gt;Node7</title>
<path fill="none" stroke="midnightblue" d="M186.94,-112.08C191.98,-104.53 199.34,-93.49 205.51,-84.23"/>
<polygon fill="midnightblue" stroke="midnightblue" points="208.53,-86.01 211.17,-75.75 202.71,-82.13 208.53,-86.01"/>
</g>
<!-- Node9&#45;&gt;Node8 -->
<g id="edge9" class="edge">
<title>Node9&#45;&gt;Node8</title>
<path fill="none" stroke="midnightblue" d="M398.74,-112.41C360.41,-101.91 309.38,-82.25 333,-56 354.46,-32.15 540.92,-19.99 659.63,-14.6"/>
<polygon fill="midnightblue" stroke="midnightblue" points="659.99,-18.09 669.83,-14.15 659.68,-11.1 659.99,-18.09"/>
</g>
<!-- Node9&#45;&gt;Node10 -->
<g id="edge10" class="edge">
<title>Node9&#45;&gt;Node10</title>
<path fill="none" stroke="midnightblue" d="M455.43,-112.47C489.56,-97.93 562.89,-68.68 628,-56 762.93,-29.73 1175.6,-16.71 1336.14,-12.54"/>
<polygon fill="midnightblue" stroke="midnightblue" points="1336.44,-16.03 1346.34,-12.28 1336.26,-9.04 1336.44,-16.03"/>
</g>
<!-- Node11 -->
<g id="node11" class="node">
<title>Node11</title>
<g id="a_node11"><a xlink:title=" ">
<polygon fill="white" stroke="#bfbfbf" points="342,-56.5 342,-75.5 466,-75.5 466,-56.5 342,-56.5"/>
<text text-anchor="middle" x="404" y="-63.5" font-family="Helvetica,sans-Serif" font-size="10.00">AMReX_Interpolater.H</text>
</a>
</g>
</g>
<!-- Node9&#45;&gt;Node11 -->
<g id="edge11" class="edge">
<title>Node9&#45;&gt;Node11</title>
<path fill="none" stroke="midnightblue" d="M430.72,-112.08C426.29,-104.61 419.84,-93.72 414.38,-84.52"/>
<polygon fill="midnightblue" stroke="midnightblue" points="417.29,-82.57 409.19,-75.75 411.27,-86.14 417.29,-82.57"/>
</g>
<!-- Node12&#45;&gt;Node4 -->
<g id="edge14" class="edge">
<title>Node12&#45;&gt;Node4</title>
<path fill="none" stroke="midnightblue" d="M1182.26,-168.48C1123.74,-160.32 1034.73,-147.04 958,-132 875.01,-115.73 779.09,-91.9 725.28,-78.07"/>
<polygon fill="midnightblue" stroke="midnightblue" points="725.98,-74.63 715.42,-75.52 724.23,-81.41 725.98,-74.63"/>
</g>
<!-- Node12&#45;&gt;Node8 -->
<g id="edge15" class="edge">
<title>Node12&#45;&gt;Node8</title>
<path fill="none" stroke="midnightblue" d="M1171.23,-176.75C1021.61,-174.43 694.03,-159.7 628,-76 606.01,-48.12 647.47,-31.25 689.28,-21.71"/>
<polygon fill="midnightblue" stroke="midnightblue" points="690.26,-25.08 699.3,-19.56 688.79,-18.24 690.26,-25.08"/>
</g>
<!-- Node12&#45;&gt;Node9 -->
<g id="edge16" class="edge">
<title>Node12&#45;&gt;Node9</title>
<path fill="none" stroke="midnightblue" d="M1171.45,-172.38C1044.89,-164.47 779.94,-147.7 556,-132 544.2,-131.17 531.74,-130.27 519.5,-129.37"/>
<polygon fill="midnightblue" stroke="midnightblue" points="519.52,-125.86 509.29,-128.61 519,-132.84 519.52,-125.86"/>
</g>
<!-- Node12&#45;&gt;Node10 -->
<g id="edge45" class="edge">
<title>Node12&#45;&gt;Node10</title>
<path fill="none" stroke="midnightblue" d="M1320.62,-173.11C1382.77,-168.12 1464.35,-156.9 1485,-132 1500.95,-112.77 1478.39,-75.88 1463,-56 1453.17,-43.3 1438.83,-32.58 1426.41,-24.78"/>
<polygon fill="midnightblue" stroke="midnightblue" points="1428.19,-21.76 1417.81,-19.64 1424.6,-27.77 1428.19,-21.76"/>
</g>
<!-- Node13 -->
<g id="node13" class="node">
<title>Node13</title>
<g id="a_node13"><a xlink:title=" ">
<polygon fill="white" stroke="#bfbfbf" points="1838,-0.5 1838,-19.5 1882,-19.5 1882,-0.5 1838,-0.5"/>
<text text-anchor="middle" x="1860" y="-7.5" font-family="Helvetica,sans-Serif" font-size="10.00">string</text>
</a>
</g>
</g>
<!-- Node12&#45;&gt;Node13 -->
<g id="edge13" class="edge">
<title>Node12&#45;&gt;Node13</title>
<path fill="none" stroke="midnightblue" d="M1320.66,-174.04C1520.92,-165.33 2058.23,-136.46 2108,-76 2113.65,-69.14 2113.7,-62.82 2108,-56 2080.88,-23.52 1953.21,-14.43 1892.38,-11.93"/>
<polygon fill="midnightblue" stroke="midnightblue" points="1892.31,-8.42 1882.18,-11.55 1892.05,-15.42 1892.31,-8.42"/>
</g>
<!-- Node14 -->
<g id="node14" class="node">
<title>Node14</title>
<g id="a_node14"><a xlink:href="_field_8_h.html" target="_top" xlink:title=" ">
<polygon fill="white" stroke="black" points="967,-112.5 967,-131.5 1091,-131.5 1091,-112.5 967,-112.5"/>
<text text-anchor="middle" x="1029" y="-119.5" font-family="Helvetica,sans-Serif" font-size="10.00">amr&#45;wind/core/Field.H</text>
</a>
</g>
</g>
<!-- Node12&#45;&gt;Node14 -->
<g id="edge17" class="edge">
<title>Node12&#45;&gt;Node14</title>
<path fill="none" stroke="midnightblue" d="M1211.62,-168.44C1174.08,-159.1 1113.87,-144.12 1072.93,-133.93"/>
<polygon fill="midnightblue" stroke="midnightblue" points="1073.77,-130.53 1063.22,-131.52 1072.08,-137.33 1073.77,-130.53"/>
</g>
<!-- Node21 -->
<g id="node21" class="node">
<title>Node21</title>
<g id="a_node21"><a xlink:href="_int_field_8_h.html" target="_top" xlink:title=" ">
<polygon fill="white" stroke="black" points="1338.5,-112.5 1338.5,-131.5 1475.5,-131.5 1475.5,-112.5 1338.5,-112.5"/>
<text text-anchor="middle" x="1407" y="-119.5" font-family="Helvetica,sans-Serif" font-size="10.00">amr&#45;wind/core/IntField.H</text>
</a>
</g>
</g>
<!-- Node12&#45;&gt;Node21 -->
<g id="edge32" class="edge">
<title>Node12&#45;&gt;Node21</title>
<path fill="none" stroke="midnightblue" d="M1271.51,-168.44C1298.6,-159.36 1341.59,-144.94 1371.87,-134.78"/>
<polygon fill="midnightblue" stroke="midnightblue" points="1373.24,-138.01 1381.61,-131.52 1371.01,-131.38 1373.24,-138.01"/>
</g>
<!-- Node22 -->
<g id="node22" class="node">
<title>Node22</title>
<g id="a_node22"><a xlink:title=" ">
<polygon fill="white" stroke="#bfbfbf" points="1326,-56.5 1326,-75.5 1438,-75.5 1438,-56.5 1326,-56.5"/>
<text text-anchor="middle" x="1382" y="-63.5" font-family="Helvetica,sans-Serif" font-size="10.00">AMReX_iMultiFab.H</text>
</a>
</g>
</g>
<!-- Node12&#45;&gt;Node22 -->
<g id="edge46" class="edge">
<title>Node12&#45;&gt;Node22</title>
<path fill="none" stroke="midnightblue" d="M1232.43,-168.36C1214.21,-155.69 1185.78,-131.46 1201,-112 1208.81,-102.01 1274.88,-87.39 1324.96,-77.55"/>
<polygon fill="midnightblue" stroke="midnightblue" points="1325.91,-80.93 1335.06,-75.59 1324.57,-74.06 1325.91,-80.93"/>
</g>
<!-- Node23 -->
<g id="node23" class="node">
<title>Node23</title>
<g id="a_node23"><a xlink:href="_scratch_field_8_h.html" target="_top" xlink:title=" ">
<polygon fill="white" stroke="black" points="1653,-112.5 1653,-131.5 1813,-131.5 1813,-112.5 1653,-112.5"/>
<text text-anchor="middle" x="1733" y="-119.5" font-family="Helvetica,sans-Serif" font-size="10.00">amr&#45;wind/core/ScratchField.H</text>
</a>
</g>
</g>
<!-- Node12&#45;&gt;Node23 -->
<g id="edge36" class="edge">
<title>Node12&#45;&gt;Node23</title>
<path fill="none" stroke="midnightblue" d="M1320.76,-168.71C1408.4,-158.99 1553.4,-142.91 1646,-132.65"/>
<polygon fill="midnightblue" stroke="midnightblue" points="1646.64,-136.1 1656.19,-131.52 1645.87,-129.14 1646.64,-136.1"/>
</g>
<!-- Node26 -->
<g id="node26" class="node">
<title>Node26</title>
<g id="a_node26"><a xlink:title=" ">
<polygon fill="white" stroke="#bfbfbf" points="1210,-112.5 1210,-131.5 1320,-131.5 1320,-112.5 1210,-112.5"/>
<text text-anchor="middle" x="1265" y="-119.5" font-family="Helvetica,sans-Serif" font-size="10.00">AMReX_AmrCore.H</text>
</a>
</g>
</g>
<!-- Node12&#45;&gt;Node26 -->
<g id="edge44" class="edge">
<title>Node12&#45;&gt;Node26</title>
<path fill="none" stroke="midnightblue" d="M1249.14,-168.08C1251.68,-160.85 1255.36,-150.41 1258.53,-141.4"/>
<polygon fill="midnightblue" stroke="midnightblue" points="1261.9,-142.35 1261.92,-131.75 1255.3,-140.02 1261.9,-142.35"/>
</g>
<!-- Node14&#45;&gt;Node3 -->
<g id="edge19" class="edge">
<title>Node14&#45;&gt;Node3</title>
<path fill="none" stroke="midnightblue" d="M966.76,-114.49C859.11,-103.22 641.16,-80.41 552.18,-71.1"/>
<polygon fill="midnightblue" stroke="midnightblue" points="552.54,-67.62 542.23,-70.06 551.81,-74.58 552.54,-67.62"/>
</g>
<!-- Node14&#45;&gt;Node4 -->
<g id="edge20" class="edge">
<title>Node14&#45;&gt;Node4</title>
<path fill="none" stroke="midnightblue" d="M974.18,-112.44C910.05,-102.44 804.45,-85.95 739.58,-75.83"/>
<polygon fill="midnightblue" stroke="midnightblue" points="739.95,-72.35 729.53,-74.26 738.87,-79.26 739.95,-72.35"/>
</g>
<!-- Node14&#45;&gt;Node8 -->
<g id="edge26" class="edge">
<title>Node14&#45;&gt;Node8</title>
<path fill="none" stroke="midnightblue" d="M966.75,-117.29C901.38,-112.14 804.32,-100.53 777,-76 764.03,-64.36 759.71,-44.41 758.37,-29.67"/>
<polygon fill="midnightblue" stroke="midnightblue" points="761.86,-29.44 757.83,-19.65 754.87,-29.82 761.86,-29.44"/>
</g>
<!-- Node14&#45;&gt;Node10 -->
<g id="edge22" class="edge">
<title>Node14&#45;&gt;Node10</title>
<path fill="none" stroke="midnightblue" d="M1086.17,-112.47C1129.38,-105.17 1189.79,-93.1 1241,-76 1260.99,-69.32 1264.6,-64.23 1284,-56 1312.05,-44.1 1344.41,-31.76 1367.98,-23.01"/>
<polygon fill="midnightblue" stroke="midnightblue" points="1369.33,-26.25 1377.5,-19.5 1366.91,-19.68 1369.33,-26.25"/>
</g>
<!-- Node14&#45;&gt;Node13 -->
<g id="edge18" class="edge">
<title>Node14&#45;&gt;Node13</title>
<path fill="none" stroke="midnightblue" d="M1091.15,-117.64C1265.76,-108.15 1749.14,-81.44 1765,-76 1795.54,-65.52 1825.37,-42.38 1843.22,-26.73"/>
<polygon fill="midnightblue" stroke="midnightblue" points="1845.89,-29.04 1850.97,-19.74 1841.2,-23.84 1845.89,-29.04"/>
</g>
<!-- Node15 -->
<g id="node15" class="node">
<title>Node15</title>
<g id="a_node15"><a xlink:title=" ">
<polygon fill="white" stroke="#bfbfbf" points="786,-56.5 786,-75.5 850,-75.5 850,-56.5 786,-56.5"/>
<text text-anchor="middle" x="818" y="-63.5" font-family="Helvetica,sans-Serif" font-size="10.00">algorithm</text>
</a>
</g>
</g>
<!-- Node14&#45;&gt;Node15 -->
<g id="edge21" class="edge">
<title>Node14&#45;&gt;Node15</title>
<path fill="none" stroke="midnightblue" d="M995.57,-112.44C958.9,-103.06 899.99,-87.98 860.17,-77.79"/>
<polygon fill="midnightblue" stroke="midnightblue" points="860.79,-74.34 850.24,-75.25 859.06,-81.12 860.79,-74.34"/>
</g>
<!-- Node16 -->
<g id="node16" class="node">
<title>Node16</title>
<g id="a_node16"><a xlink:title=" ">
<polygon fill="white" stroke="#bfbfbf" points="868.5,-56.5 868.5,-75.5 967.5,-75.5 967.5,-56.5 868.5,-56.5"/>
<text text-anchor="middle" x="918" y="-63.5" font-family="Helvetica,sans-Serif" font-size="10.00">AMReX_BCRec.H</text>
</a>
</g>
</g>
<!-- Node14&#45;&gt;Node16 -->
<g id="edge23" class="edge">
<title>Node14&#45;&gt;Node16</title>
<path fill="none" stroke="midnightblue" d="M1011.17,-112.32C993.28,-103.62 965.52,-90.12 944.95,-80.11"/>
<polygon fill="midnightblue" stroke="midnightblue" points="946.31,-76.88 935.79,-75.65 943.25,-83.18 946.31,-76.88"/>
</g>
<!-- Node17 -->
<g id="node17" class="node">
<title>Node17</title>
<g id="a_node17"><a xlink:title=" ">
<polygon fill="white" stroke="#bfbfbf" points="985.5,-56.5 985.5,-75.5 1072.5,-75.5 1072.5,-56.5 985.5,-56.5"/>
<text text-anchor="middle" x="1029" y="-63.5" font-family="Helvetica,sans-Serif" font-size="10.00">AMReX_Gpu.H</text>
</a>
</g>
</g>
<!-- Node14&#45;&gt;Node17 -->
<g id="edge24" class="edge">
<title>Node14&#45;&gt;Node17</title>
<path fill="none" stroke="midnightblue" d="M1029,-112.08C1029,-105.01 1029,-94.86 1029,-85.99"/>
<polygon fill="midnightblue" stroke="midnightblue" points="1032.5,-85.75 1029,-75.75 1025.5,-85.75 1032.5,-85.75"/>
</g>
<!-- Node18 -->
<g id="node18" class="node">
<title>Node18</title>
<g id="a_node18"><a xlink:href="incflo__enums_8_h.html" target="_top" xlink:title=" ">
<polygon fill="white" stroke="black" points="1090.5,-56.5 1090.5,-75.5 1231.5,-75.5 1231.5,-56.5 1090.5,-56.5"/>
<text text-anchor="middle" x="1161" y="-63.5" font-family="Helvetica,sans-Serif" font-size="10.00">amr&#45;wind/incflo_enums.H</text>
</a>
</g>
</g>
<!-- Node14&#45;&gt;Node18 -->
<g id="edge25" class="edge">
<title>Node14&#45;&gt;Node18</title>
<path fill="none" stroke="midnightblue" d="M1049.92,-112.44C1071.74,-103.52 1106.15,-89.44 1130.89,-79.32"/>
<polygon fill="midnightblue" stroke="midnightblue" points="1132.25,-82.54 1140.18,-75.52 1129.6,-76.06 1132.25,-82.54"/>
</g>
<!-- Node19 -->
<g id="node19" class="node">
<title>Node19</title>
<g id="a_node19"><a xlink:href="_view_field_8_h.html" target="_top" xlink:title=" ">
<polygon fill="white" stroke="black" points="1608,-56.5 1608,-75.5 1756,-75.5 1756,-56.5 1608,-56.5"/>
<text text-anchor="middle" x="1682" y="-63.5" font-family="Helvetica,sans-Serif" font-size="10.00">amr&#45;wind/core/ViewField.H</text>
</a>
</g>
</g>
<!-- Node14&#45;&gt;Node19 -->
<g id="edge27" class="edge">
<title>Node14&#45;&gt;Node19</title>
<path fill="none" stroke="midnightblue" d="M1091.02,-115.87C1208.69,-106.14 1464.46,-84.99 1597.61,-73.98"/>
<polygon fill="midnightblue" stroke="midnightblue" points="1598.09,-77.45 1607.77,-73.14 1597.51,-70.47 1598.09,-77.45"/>
</g>
<!-- Node19&#45;&gt;Node8 -->
<g id="edge29" class="edge">
<title>Node19&#45;&gt;Node8</title>
<path fill="none" stroke="midnightblue" d="M1607.72,-59.51C1590.73,-58.3 1572.74,-57.07 1556,-56 1304.04,-39.9 1007.14,-23.95 856.45,-16.08"/>
<polygon fill="midnightblue" stroke="midnightblue" points="856.46,-12.57 846.29,-15.55 856.1,-19.56 856.46,-12.57"/>
</g>
<!-- Node19&#45;&gt;Node10 -->
<g id="edge30" class="edge">
<title>Node19&#45;&gt;Node10</title>
<path fill="none" stroke="midnightblue" d="M1637.47,-56.44C1588.04,-46.94 1508.25,-31.61 1455.22,-21.42"/>
<polygon fill="midnightblue" stroke="midnightblue" points="1455.8,-17.97 1445.32,-19.52 1454.48,-24.84 1455.8,-17.97"/>
</g>
<!-- Node19&#45;&gt;Node13 -->
<g id="edge28" class="edge">
<title>Node19&#45;&gt;Node13</title>
<path fill="none" stroke="midnightblue" d="M1710.2,-56.44C1742.28,-46.71 1794.52,-30.86 1828.07,-20.69"/>
<polygon fill="midnightblue" stroke="midnightblue" points="1829.28,-23.98 1837.83,-17.73 1827.25,-17.28 1829.28,-23.98"/>
</g>
<!-- Node20 -->
<g id="node20" class="node">
<title>Node20</title>
<g id="a_node20"><a xlink:title=" ">
<polygon fill="white" stroke="#bfbfbf" points="1677,-0.5 1677,-19.5 1775,-19.5 1775,-0.5 1677,-0.5"/>
<text text-anchor="middle" x="1726" y="-7.5" font-family="Helvetica,sans-Serif" font-size="10.00">AMReX_Vector.H</text>
</a>
</g>
</g>
<!-- Node19&#45;&gt;Node20 -->
<g id="edge31" class="edge">
<title>Node19&#45;&gt;Node20</title>
<path fill="none" stroke="midnightblue" d="M1689.27,-56.08C1695.54,-48.38 1704.79,-37.03 1712.43,-27.65"/>
<polygon fill="midnightblue" stroke="midnightblue" points="1715.27,-29.71 1718.87,-19.75 1709.84,-25.29 1715.27,-29.71"/>
</g>
<!-- Node21&#45;&gt;Node8 -->
<g id="edge34" class="edge">
<title>Node21&#45;&gt;Node8</title>
<path fill="none" stroke="midnightblue" d="M1418.95,-112.47C1436.01,-99.31 1463.58,-73.7 1447,-56 1407.51,-13.85 1036.96,-9.66 856.21,-10.16"/>
<polygon fill="midnightblue" stroke="midnightblue" points="856.16,-6.66 846.17,-10.2 856.18,-13.66 856.16,-6.66"/>
</g>
<!-- Node21&#45;&gt;Node13 -->
<g id="edge33" class="edge">
<title>Node21&#45;&gt;Node13</title>
<path fill="none" stroke="midnightblue" d="M1475.84,-117.73C1589.87,-111.75 1808.21,-97.6 1836,-76 1850.08,-65.06 1855.9,-45 1858.31,-30.04"/>
<polygon fill="midnightblue" stroke="midnightblue" points="1861.81,-30.19 1859.56,-19.84 1854.87,-29.34 1861.81,-30.19"/>
</g>
<!-- Node21&#45;&gt;Node22 -->
<g id="edge35" class="edge">
<title>Node21&#45;&gt;Node22</title>
<path fill="none" stroke="midnightblue" d="M1402.87,-112.08C1399.49,-104.77 1394.58,-94.18 1390.38,-85.1"/>
<polygon fill="midnightblue" stroke="midnightblue" points="1393.43,-83.36 1386.05,-75.75 1387.08,-86.3 1393.43,-83.36"/>
</g>
<!-- Node23&#45;&gt;Node8 -->
<g id="edge39" class="edge">
<title>Node23&#45;&gt;Node8</title>
<path fill="none" stroke="midnightblue" d="M1699.05,-112.48C1631.85,-95.66 1486.33,-59.53 1463,-56 1248.12,-23.53 992.95,-14.45 856.21,-11.94"/>
<polygon fill="midnightblue" stroke="midnightblue" points="856.23,-8.44 846.17,-11.76 856.11,-15.43 856.23,-8.44"/>
</g>
<!-- Node23&#45;&gt;Node10 -->
<g id="edge41" class="edge">
<title>Node23&#45;&gt;Node10</title>
<path fill="none" stroke="midnightblue" d="M1704.44,-112.42C1677.08,-103.97 1634.79,-90.28 1599,-76 1579.42,-68.19 1575.73,-63.4 1556,-56 1519.54,-42.32 1476.99,-30.23 1445.71,-22.04"/>
<polygon fill="midnightblue" stroke="midnightblue" points="1446.53,-18.64 1435.97,-19.52 1444.77,-25.41 1446.53,-18.64"/>
</g>
<!-- Node23&#45;&gt;Node13 -->
<g id="edge37" class="edge">
<title>Node23&#45;&gt;Node13</title>
<path fill="none" stroke="midnightblue" d="M1813.05,-116.5C1913.19,-110.03 2073.84,-96.58 2092,-76 2097.88,-69.34 2097.66,-62.86 2092,-56 2067.06,-25.75 1950.07,-15.59 1892.36,-12.38"/>
<polygon fill="midnightblue" stroke="midnightblue" points="1892.48,-8.88 1882.31,-11.86 1892.11,-15.87 1892.48,-8.88"/>
</g>
<!-- Node23&#45;&gt;Node19 -->
<g id="edge40" class="edge">
<title>Node23&#45;&gt;Node19</title>
<path fill="none" stroke="midnightblue" d="M1724.58,-112.08C1717.15,-104.22 1706.15,-92.57 1697.19,-83.08"/>
<polygon fill="midnightblue" stroke="midnightblue" points="1699.68,-80.62 1690.26,-75.75 1694.59,-85.42 1699.68,-80.62"/>
</g>
<!-- Node23&#45;&gt;Node20 -->
<g id="edge42" class="edge">
<title>Node23&#45;&gt;Node20</title>
<path fill="none" stroke="midnightblue" d="M1742.28,-112.42C1754.3,-100.21 1772.83,-76.98 1765,-56 1760.83,-44.81 1752.48,-34.56 1744.58,-26.68"/>
<polygon fill="midnightblue" stroke="midnightblue" points="1746.7,-23.87 1736.99,-19.63 1741.94,-29 1746.7,-23.87"/>
</g>
<!-- Node24 -->
<g id="node24" class="node">
<title>Node24</title>
<g id="a_node24"><a xlink:title=" ">
<polygon fill="white" stroke="#bfbfbf" points="1888.5,-56.5 1888.5,-75.5 1933.5,-75.5 1933.5,-56.5 1888.5,-56.5"/>
<text text-anchor="middle" x="1911" y="-63.5" font-family="Helvetica,sans-Serif" font-size="10.00">utility</text>
</a>
</g>
</g>
<!-- Node23&#45;&gt;Node24 -->
<g id="edge38" class="edge">
<title>Node23&#45;&gt;Node24</title>
<path fill="none" stroke="midnightblue" d="M1761.2,-112.44C1793.1,-102.77 1844.94,-87.04 1878.51,-76.86"/>
<polygon fill="midnightblue" stroke="midnightblue" points="1879.74,-80.14 1888.29,-73.89 1877.71,-73.44 1879.74,-80.14"/>
</g>
<!-- Node25 -->
<g id="node25" class="node">
<title>Node25</title>
<g id="a_node25"><a xlink:title=" ">
<polygon fill="white" stroke="#bfbfbf" points="1951.5,-56.5 1951.5,-75.5 2082.5,-75.5 2082.5,-56.5 1951.5,-56.5"/>
<text text-anchor="middle" x="2017" y="-63.5" font-family="Helvetica,sans-Serif" font-size="10.00">AMReX_PhysBCFunct.H</text>
</a>
</g>
</g>
<!-- Node23&#45;&gt;Node25 -->
<g id="edge43" class="edge">
<title>Node23&#45;&gt;Node25</title>
<path fill="none" stroke="midnightblue" d="M1778,-112.44C1827.96,-102.94 1908.6,-87.61 1962.2,-77.42"/>
<polygon fill="midnightblue" stroke="midnightblue" points="1963.04,-80.82 1972.21,-75.52 1961.73,-73.95 1963.04,-80.82"/>
</g>
</g>
</svg>
        <g id="navigator" transform="translate(0 0)" fill="#404254">
                <rect fill="#f2f5e9" fill-opacity="0.5" stroke="#606060" stroke-width=".5" x="0" y="0" width="60" height="60"/>
                <use id="zoomplus" xlink:href="#zoomPlus" x="17" y="9" onmousedown="handleZoom(evt,'in')"/>
                <use id="zoomminus" xlink:href="#zoomMin" x="42" y="9" onmousedown="handleZoom(evt,'out')"/>
                <use id="reset" xlink:href="#resetDef" x="30" y="36" onmousedown="handleReset()"/>
                <g id="arrowUp" xlink:href="#dirArrow" transform="translate(30 24)" onmousedown="handlePan(0,-1)">
                  <use xlink:href="#rim" fill="#404040">
                        <set attributeName="fill" to="#808080" begin="arrowUp.mouseover" end="arrowUp.mouseout"/>
                  </use>
                  <path fill="none" stroke="white" stroke-width="1.5" d="M0,-3.0v7 M-2.5,-0.5L0,-3.0L2.5,-0.5"/>
                </g>
                <g id="arrowRight" xlink:href="#dirArrow" transform="rotate(90) translate(36 -43)" onmousedown="handlePan(1,0)">
                  <use xlink:href="#rim" fill="#404040">
                        <set attributeName="fill" to="#808080" begin="arrowRight.mouseover" end="arrowRight.mouseout"/>
                  </use>
                  <path fill="none" stroke="white" stroke-width="1.5" d="M0,-3.0v7 M-2.5,-0.5L0,-3.0L2.5,-0.5"/>
                </g>
                <g id="arrowDown" xlink:href="#dirArrow" transform="rotate(180) translate(-30 -48)" onmousedown="handlePan(0,1)">
                  <use xlink:href="#rim" fill="#404040">
                        <set attributeName="fill" to="#808080" begin="arrowDown.mouseover" end="arrowDown.mouseout"/>
                  </use>
                  <path fill="none" stroke="white" stroke-width="1.5" d="M0,-3.0v7 M-2.5,-0.5L0,-3.0L2.5,-0.5"/>
                </g>
                <g id="arrowLeft" xlink:href="#dirArrow" transform="rotate(270) translate(-36 17)" onmousedown="handlePan(-1,0)">
                  <use xlink:href="#rim" fill="#404040">
                        <set attributeName="fill" to="#808080" begin="arrowLeft.mouseover" end="arrowLeft.mouseout"/>
                  </use>
                  <path fill="none" stroke="white" stroke-width="1.5" d="M0,-3.0v7 M-2.5,-0.5L0,-3.0L2.5,-0.5"/>
                </g>
        </g>
        <svg viewBox="0 0 15 15" width="100%" height="30px" preserveAspectRatio="xMaxYMin meet">
         <g id="arrow_out" transform="scale(0.3 0.3)">
          <a xlink:href="_density_source_8_h__incl_org.svg" target="_base">
           <rect id="button" ry="5" rx="5" y="6" x="6" height="38" width="38"
                fill="#f2f5e9" fill-opacity="0.5" stroke="#606060" stroke-width="1.0"/>
           <path id="arrow"
             d="M 11.500037,31.436501 C 11.940474,20.09759 22.043105,11.32322 32.158766,21.979434 L 37.068811,17.246167 C 37.068811,17.246167 37.088388,32 37.088388,32 L 22.160133,31.978069 C 22.160133,31.978069 26.997745,27.140456 26.997745,27.140456 C 18.528582,18.264221 13.291696,25.230495 11.500037,31.436501 z"
             style="fill:#404040;"/>
          </a>
         </g>
        </svg>
</svg>
