<?xml version="1.0" encoding="UTF-8" standalone="no"?>
<!DOCTYPE svg PUBLIC "-//W3C//DTD SVG 1.1//EN"
 "http://www.w3.org/Graphics/SVG/1.1/DTD/svg11.dtd">
<!-- Generated by graphviz version 2.43.0 (0)
 -->
<!-- Title: DensityBuoyancy.cpp Pages: 1 -->
<svg width="2956pt" height="408pt"
 viewBox="0.00 0.00 2955.70 408.00" xmlns="http://www.w3.org/2000/svg" xmlns:xlink="http://www.w3.org/1999/xlink">
<g id="graph0" class="graph" transform="scale(1 1) rotate(0) translate(4 404)">
<title>DensityBuoyancy.cpp</title>
<polygon fill="white" stroke="transparent" points="-4,4 -4,-404 2951.7,-404 2951.7,4 -4,4"/>
<!-- Node1 -->
<g id="node1" class="node">
<title>Node1</title>
<g id="a_node1"><a xlink:title=" ">
<polygon fill="#bfbfbf" stroke="black" points="374.2,-380.5 374.2,-399.5 495.2,-399.5 495.2,-380.5 374.2,-380.5"/>
<text text-anchor="middle" x="434.7" y="-387.5" font-family="Helvetica,sans-Serif" font-size="10.00">DensityBuoyancy.cpp</text>
</a>
</g>
</g>
<!-- Node2 -->
<g id="node2" class="node">
<title>Node2</title>
<g id="a_node2"><a xlink:href="_density_buoyancy_8_h.html" target="_top" xlink:title=" ">
<polygon fill="white" stroke="black" points="266.7,-313.5 266.7,-343.5 472.7,-343.5 472.7,-313.5 266.7,-313.5"/>
<text text-anchor="start" x="274.7" y="-331.5" font-family="Helvetica,sans-Serif" font-size="10.00">amr&#45;wind/equation_systems</text>
<text text-anchor="middle" x="369.7" y="-320.5" font-family="Helvetica,sans-Serif" font-size="10.00">/icns/source_terms/DensityBuoyancy.H</text>
</a>
</g>
</g>
<!-- Node1&#45;&gt;Node2 -->
<g id="edge1" class="edge">
<title>Node1&#45;&gt;Node2</title>
<path fill="none" stroke="midnightblue" d="M425.39,-380.48C416.83,-372.64 403.8,-360.71 392.49,-350.37"/>
<polygon fill="midnightblue" stroke="midnightblue" points="394.76,-347.69 385.02,-343.52 390.03,-352.86 394.76,-347.69"/>
</g>
<!-- Node7 -->
<g id="node7" class="node">
<title>Node7</title>
<g id="a_node7"><a xlink:href="_field_utils_8_h.html" target="_top" xlink:title=" ">
<polygon fill="white" stroke="black" points="81.7,-118 81.7,-137 227.7,-137 227.7,-118 81.7,-118"/>
<text text-anchor="middle" x="154.7" y="-125" font-family="Helvetica,sans-Serif" font-size="10.00">amr&#45;wind/core/FieldUtils.H</text>
</a>
</g>
</g>
<!-- Node1&#45;&gt;Node7 -->
<g id="edge81" class="edge">
<title>Node1&#45;&gt;Node7</title>
<path fill="none" stroke="midnightblue" d="M373.96,-386.34C336.81,-381.84 290.3,-370.74 257.7,-344 193.38,-291.25 166.62,-188.84 158.05,-146.99"/>
<polygon fill="midnightblue" stroke="midnightblue" points="161.47,-146.25 156.13,-137.09 154.59,-147.58 161.47,-146.25"/>
</g>
<!-- Node29 -->
<g id="node29" class="node">
<title>Node29</title>
<g id="a_node29"><a xlink:href="_c_f_d_sim_8_h.html" target="_top" xlink:title=" ">
<polygon fill="white" stroke="black" points="1576.7,-252 1576.7,-271 1692.7,-271 1692.7,-252 1576.7,-252"/>
<text text-anchor="middle" x="1634.7" y="-259" font-family="Helvetica,sans-Serif" font-size="10.00">amr&#45;wind/CFDSim.H</text>
</a>
</g>
</g>
<!-- Node1&#45;&gt;Node29 -->
<g id="edge51" class="edge">
<title>Node1&#45;&gt;Node29</title>
<path fill="none" stroke="midnightblue" d="M443.92,-380.22C464.17,-361.02 511.46,-316.74 520.7,-313 617.3,-273.91 1339.46,-264.85 1566.55,-262.96"/>
<polygon fill="midnightblue" stroke="midnightblue" points="1566.7,-266.46 1576.67,-262.88 1566.64,-259.46 1566.7,-266.46"/>
</g>
<!-- Node41 -->
<g id="node41" class="node">
<title>Node41</title>
<g id="a_node41"><a xlink:title=" ">
<polygon fill="white" stroke="#bfbfbf" points="529.2,-319 529.2,-338 648.2,-338 648.2,-319 529.2,-319"/>
<text text-anchor="middle" x="588.7" y="-326" font-family="Helvetica,sans-Serif" font-size="10.00">AMReX_ParmParse.H</text>
</a>
</g>
</g>
<!-- Node1&#45;&gt;Node41 -->
<g id="edge82" class="edge">
<title>Node1&#45;&gt;Node41</title>
<path fill="none" stroke="midnightblue" d="M456.76,-380.48C483.07,-370.31 527.21,-353.26 557.12,-341.7"/>
<polygon fill="midnightblue" stroke="midnightblue" points="558.61,-344.88 566.68,-338.01 556.09,-338.35 558.61,-344.88"/>
</g>
<!-- Node3 -->
<g id="node3" class="node">
<title>Node3</title>
<g id="a_node3"><a xlink:href="_field_repo_8_h.html" target="_top" xlink:title=" ">
<polygon fill="white" stroke="black" points="468.2,-185 468.2,-204 617.2,-204 617.2,-185 468.2,-185"/>
<text text-anchor="middle" x="542.7" y="-192" font-family="Helvetica,sans-Serif" font-size="10.00">amr&#45;wind/core/FieldRepo.H</text>
</a>
</g>
</g>
<!-- Node2&#45;&gt;Node3 -->
<g id="edge2" class="edge">
<title>Node2&#45;&gt;Node3</title>
<path fill="none" stroke="midnightblue" d="M388.21,-313.37C421.18,-288.22 489.74,-235.91 523.32,-210.29"/>
<polygon fill="midnightblue" stroke="midnightblue" points="525.6,-212.95 531.43,-204.1 521.36,-207.38 525.6,-212.95"/>
</g>
<!-- Node24 -->
<g id="node24" class="node">
<title>Node24</title>
<g id="a_node24"><a xlink:href="_momentum_source_8_h.html" target="_top" xlink:title=" ">
<polygon fill="white" stroke="black" points="241.2,-246.5 241.2,-276.5 396.2,-276.5 396.2,-246.5 241.2,-246.5"/>
<text text-anchor="start" x="249.2" y="-264.5" font-family="Helvetica,sans-Serif" font-size="10.00">amr&#45;wind/equation_systems</text>
<text text-anchor="middle" x="318.7" y="-253.5" font-family="Helvetica,sans-Serif" font-size="10.00">/icns/MomentumSource.H</text>
</a>
</g>
</g>
<!-- Node2&#45;&gt;Node24 -->
<g id="edge40" class="edge">
<title>Node2&#45;&gt;Node24</title>
<path fill="none" stroke="midnightblue" d="M358.63,-313.4C352.02,-304.96 343.47,-294.07 335.98,-284.52"/>
<polygon fill="midnightblue" stroke="midnightblue" points="338.67,-282.28 329.74,-276.58 333.16,-286.6 338.67,-282.28"/>
</g>
<!-- Node4 -->
<g id="node4" class="node">
<title>Node4</title>
<g id="a_node4"><a xlink:title=" ">
<polygon fill="white" stroke="#bfbfbf" points="1166.7,-0.5 1166.7,-19.5 1210.7,-19.5 1210.7,-0.5 1166.7,-0.5"/>
<text text-anchor="middle" x="1188.7" y="-7.5" font-family="Helvetica,sans-Serif" font-size="10.00">string</text>
</a>
</g>
</g>
<!-- Node3&#45;&gt;Node4 -->
<g id="edge3" class="edge">
<title>Node3&#45;&gt;Node4</title>
<path fill="none" stroke="midnightblue" d="M617.4,-189.55C729.34,-181.14 944.93,-155.17 1108.7,-76 1133.98,-63.78 1158.33,-42.11 1173.39,-27.18"/>
<polygon fill="midnightblue" stroke="midnightblue" points="1176.25,-29.26 1180.75,-19.67 1171.25,-24.36 1176.25,-29.26"/>
</g>
<!-- Node5 -->
<g id="node5" class="node">
<title>Node5</title>
<g id="a_node5"><a xlink:title=" ">
<polygon fill="white" stroke="#bfbfbf" points="1592.2,-56.5 1592.2,-75.5 1685.2,-75.5 1685.2,-56.5 1592.2,-56.5"/>
<text text-anchor="middle" x="1638.7" y="-63.5" font-family="Helvetica,sans-Serif" font-size="10.00">unordered_map</text>
</a>
</g>
</g>
<!-- Node3&#45;&gt;Node5 -->
<g id="edge4" class="edge">
<title>Node3&#45;&gt;Node5</title>
<path fill="none" stroke="midnightblue" d="M617.47,-191.86C765.43,-187.94 1090.39,-175.78 1196.7,-143 1223.14,-134.85 1224.42,-120.66 1250.7,-112 1310.84,-92.18 1489.71,-77.33 1582.09,-70.75"/>
<polygon fill="midnightblue" stroke="midnightblue" points="1582.37,-74.24 1592.1,-70.04 1581.88,-67.25 1582.37,-74.24"/>
</g>
<!-- Node6 -->
<g id="node6" class="node">
<title>Node6</title>
<g id="a_node6"><a xlink:href="_field_desc_types_8_h.html" target="_top" xlink:title=" ">
<polygon fill="white" stroke="black" points="430.7,-0.5 430.7,-19.5 606.7,-19.5 606.7,-0.5 430.7,-0.5"/>
<text text-anchor="middle" x="518.7" y="-7.5" font-family="Helvetica,sans-Serif" font-size="10.00">amr&#45;wind/core/FieldDescTypes.H</text>
</a>
</g>
</g>
<!-- Node3&#45;&gt;Node6 -->
<g id="edge5" class="edge">
<title>Node3&#45;&gt;Node6</title>
<path fill="none" stroke="midnightblue" d="M468.06,-185.76C431.75,-179.04 389.07,-166.47 356.7,-143 327.86,-122.09 322.9,-110.13 312.7,-76 310.15,-67.48 307.12,-62.92 312.7,-56 326.76,-38.53 374.54,-27.48 420.55,-20.7"/>
<polygon fill="midnightblue" stroke="midnightblue" points="421.22,-24.14 430.63,-19.27 420.24,-17.21 421.22,-24.14"/>
</g>
<!-- Node3&#45;&gt;Node7 -->
<g id="edge6" class="edge">
<title>Node3&#45;&gt;Node7</title>
<path fill="none" stroke="midnightblue" d="M491.58,-184.94C420.38,-173.01 291.59,-151.43 215.54,-138.69"/>
<polygon fill="midnightblue" stroke="midnightblue" points="216.07,-135.23 205.63,-137.03 214.91,-142.14 216.07,-135.23"/>
</g>
<!-- Node8 -->
<g id="node8" class="node">
<title>Node8</title>
<g id="a_node8"><a xlink:title=" ">
<polygon fill="white" stroke="#bfbfbf" points="769.2,-0.5 769.2,-19.5 878.2,-19.5 878.2,-0.5 769.2,-0.5"/>
<text text-anchor="middle" x="823.7" y="-7.5" font-family="Helvetica,sans-Serif" font-size="10.00">AMReX_MultiFab.H</text>
</a>
</g>
</g>
<!-- Node3&#45;&gt;Node8 -->
<g id="edge38" class="edge">
<title>Node3&#45;&gt;Node8</title>
<path fill="none" stroke="midnightblue" d="M545.16,-184.75C552.53,-160.17 576.91,-90.11 623.7,-56 662.76,-27.53 716.66,-16.6 758.66,-12.62"/>
<polygon fill="midnightblue" stroke="midnightblue" points="759.12,-16.09 768.8,-11.77 758.54,-9.11 759.12,-16.09"/>
</g>
<!-- Node10 -->
<g id="node10" class="node">
<title>Node10</title>
<g id="a_node10"><a xlink:href="_field_8_h.html" target="_top" xlink:title=" ">
<polygon fill="white" stroke="black" points="1389.7,-118 1389.7,-137 1513.7,-137 1513.7,-118 1389.7,-118"/>
<text text-anchor="middle" x="1451.7" y="-125" font-family="Helvetica,sans-Serif" font-size="10.00">amr&#45;wind/core/Field.H</text>
</a>
</g>
</g>
<!-- Node3&#45;&gt;Node10 -->
<g id="edge10" class="edge">
<title>Node3&#45;&gt;Node10</title>
<path fill="none" stroke="midnightblue" d="M617.39,-192.38C763.95,-189.44 1099.29,-179.02 1378.7,-143 1386.9,-141.94 1395.56,-140.51 1403.94,-138.95"/>
<polygon fill="midnightblue" stroke="midnightblue" points="1404.82,-142.35 1413.97,-137.01 1403.49,-135.47 1404.82,-142.35"/>
</g>
<!-- Node18 -->
<g id="node18" class="node">
<title>Node18</title>
<g id="a_node18"><a xlink:href="_int_field_8_h.html" target="_top" xlink:title=" ">
<polygon fill="white" stroke="black" points="377.2,-118 377.2,-137 514.2,-137 514.2,-118 377.2,-118"/>
<text text-anchor="middle" x="445.7" y="-125" font-family="Helvetica,sans-Serif" font-size="10.00">amr&#45;wind/core/IntField.H</text>
</a>
</g>
</g>
<!-- Node3&#45;&gt;Node18 -->
<g id="edge25" class="edge">
<title>Node3&#45;&gt;Node18</title>
<path fill="none" stroke="midnightblue" d="M529.62,-184.73C513.55,-173.96 486.07,-155.55 466.95,-142.74"/>
<polygon fill="midnightblue" stroke="midnightblue" points="468.83,-139.79 458.57,-137.13 464.93,-145.6 468.83,-139.79"/>
</g>
<!-- Node19 -->
<g id="node19" class="node">
<title>Node19</title>
<g id="a_node19"><a xlink:title=" ">
<polygon fill="white" stroke="#bfbfbf" points="321.7,-56.5 321.7,-75.5 433.7,-75.5 433.7,-56.5 321.7,-56.5"/>
<text text-anchor="middle" x="377.7" y="-63.5" font-family="Helvetica,sans-Serif" font-size="10.00">AMReX_iMultiFab.H</text>
</a>
</g>
</g>
<!-- Node3&#45;&gt;Node19 -->
<g id="edge39" class="edge">
<title>Node3&#45;&gt;Node19</title>
<path fill="none" stroke="midnightblue" d="M487.57,-184.94C441.91,-176.59 382.24,-162.33 367.7,-143 355.11,-126.27 361.77,-101.39 368.78,-84.71"/>
<polygon fill="midnightblue" stroke="midnightblue" points="372.01,-86.07 373.02,-75.52 365.65,-83.14 372.01,-86.07"/>
</g>
<!-- Node20 -->
<g id="node20" class="node">
<title>Node20</title>
<g id="a_node20"><a xlink:href="_scratch_field_8_h.html" target="_top" xlink:title=" ">
<polygon fill="white" stroke="black" points="637.7,-118 637.7,-137 797.7,-137 797.7,-118 637.7,-118"/>
<text text-anchor="middle" x="717.7" y="-125" font-family="Helvetica,sans-Serif" font-size="10.00">amr&#45;wind/core/ScratchField.H</text>
</a>
</g>
</g>
<!-- Node3&#45;&gt;Node20 -->
<g id="edge29" class="edge">
<title>Node3&#45;&gt;Node20</title>
<path fill="none" stroke="midnightblue" d="M565.94,-184.87C596.49,-173.52 650.33,-153.52 684.98,-140.65"/>
<polygon fill="midnightblue" stroke="midnightblue" points="686.49,-143.83 694.64,-137.06 684.05,-137.26 686.49,-143.83"/>
</g>
<!-- Node23 -->
<g id="node23" class="node">
<title>Node23</title>
<g id="a_node23"><a xlink:title=" ">
<polygon fill="white" stroke="#bfbfbf" points="1259.7,-118 1259.7,-137 1369.7,-137 1369.7,-118 1259.7,-118"/>
<text text-anchor="middle" x="1314.7" y="-125" font-family="Helvetica,sans-Serif" font-size="10.00">AMReX_AmrCore.H</text>
</a>
</g>
</g>
<!-- Node3&#45;&gt;Node23 -->
<g id="edge37" class="edge">
<title>Node3&#45;&gt;Node23</title>
<path fill="none" stroke="midnightblue" d="M617.24,-191.15C745.38,-186.43 1015.46,-173.52 1241.7,-143 1249.71,-141.92 1258.17,-140.5 1266.37,-138.97"/>
<polygon fill="midnightblue" stroke="midnightblue" points="1267.05,-142.41 1276.21,-137.07 1265.72,-135.53 1267.05,-142.41"/>
</g>
<!-- Node7&#45;&gt;Node6 -->
<g id="edge7" class="edge">
<title>Node7&#45;&gt;Node6</title>
<path fill="none" stroke="midnightblue" d="M157.98,-117.82C164.28,-102.5 179.59,-70.87 203.7,-56 239.02,-34.21 341.39,-22.5 419.94,-16.54"/>
<polygon fill="midnightblue" stroke="midnightblue" points="420.65,-20 430.37,-15.77 420.14,-13.02 420.65,-20"/>
</g>
<!-- Node7&#45;&gt;Node8 -->
<g id="edge8" class="edge">
<title>Node7&#45;&gt;Node8</title>
<path fill="none" stroke="midnightblue" d="M162.01,-117.83C175.75,-102.22 207.2,-69.74 241.7,-56 288.71,-37.27 616.7,-20.37 758.56,-13.85"/>
<polygon fill="midnightblue" stroke="midnightblue" points="759.03,-17.33 768.86,-13.38 758.71,-10.34 759.03,-17.33"/>
</g>
<!-- Node9 -->
<g id="node9" class="node">
<title>Node9</title>
<g id="a_node9"><a xlink:title=" ">
<polygon fill="white" stroke="#bfbfbf" points="27.7,-56.5 27.7,-75.5 151.7,-75.5 151.7,-56.5 27.7,-56.5"/>
<text text-anchor="middle" x="89.7" y="-63.5" font-family="Helvetica,sans-Serif" font-size="10.00">AMReX_Interpolater.H</text>
</a>
</g>
</g>
<!-- Node7&#45;&gt;Node9 -->
<g id="edge9" class="edge">
<title>Node7&#45;&gt;Node9</title>
<path fill="none" stroke="midnightblue" d="M145.39,-117.98C135.25,-108.7 118.84,-93.67 106.45,-82.33"/>
<polygon fill="midnightblue" stroke="midnightblue" points="108.73,-79.68 98.99,-75.51 104.01,-84.84 108.73,-79.68"/>
</g>
<!-- Node10&#45;&gt;Node4 -->
<g id="edge11" class="edge">
<title>Node10&#45;&gt;Node4</title>
<path fill="none" stroke="midnightblue" d="M1467.11,-117.8C1489.22,-104.26 1525.33,-77.45 1506.7,-56 1469.94,-13.67 1294.68,-10.08 1221.22,-10.48"/>
<polygon fill="midnightblue" stroke="midnightblue" points="1221.12,-6.98 1211.15,-10.57 1221.18,-13.98 1221.12,-6.98"/>
</g>
<!-- Node10&#45;&gt;Node5 -->
<g id="edge13" class="edge">
<title>Node10&#45;&gt;Node5</title>
<path fill="none" stroke="midnightblue" d="M1478.49,-117.98C1510.99,-107.64 1565.91,-90.16 1602.24,-78.6"/>
<polygon fill="midnightblue" stroke="midnightblue" points="1603.49,-81.88 1611.96,-75.51 1601.37,-75.21 1603.49,-81.88"/>
</g>
<!-- Node10&#45;&gt;Node6 -->
<g id="edge19" class="edge">
<title>Node10&#45;&gt;Node6</title>
<path fill="none" stroke="midnightblue" d="M1413.21,-117.93C1402.11,-115.71 1389.97,-113.52 1378.7,-112 1160.11,-82.46 1095.78,-136.65 883.7,-76 865.35,-70.75 863.87,-61.83 845.7,-56 771.09,-32.05 682.9,-20.85 616.92,-15.61"/>
<polygon fill="midnightblue" stroke="midnightblue" points="617.17,-12.12 606.93,-14.85 616.64,-19.1 617.17,-12.12"/>
</g>
<!-- Node10&#45;&gt;Node8 -->
<g id="edge15" class="edge">
<title>Node10&#45;&gt;Node8</title>
<path fill="none" stroke="midnightblue" d="M1409.26,-117.95C1399.24,-115.97 1388.6,-113.88 1378.7,-112 1197.78,-77.57 983.2,-39.23 882.02,-21.3"/>
<polygon fill="midnightblue" stroke="midnightblue" points="882.46,-17.82 872,-19.52 881.24,-24.71 882.46,-17.82"/>
</g>
<!-- Node11 -->
<g id="node11" class="node">
<title>Node11</title>
<g id="a_node11"><a xlink:title=" ">
<polygon fill="white" stroke="#bfbfbf" points="1781.7,-56.5 1781.7,-75.5 1839.7,-75.5 1839.7,-56.5 1781.7,-56.5"/>
<text text-anchor="middle" x="1810.7" y="-63.5" font-family="Helvetica,sans-Serif" font-size="10.00">memory</text>
</a>
</g>
</g>
<!-- Node10&#45;&gt;Node11 -->
<g id="edge12" class="edge">
<title>Node10&#45;&gt;Node11</title>
<path fill="none" stroke="midnightblue" d="M1513.78,-118.17C1576.41,-109.44 1676.07,-94.67 1771.21,-76.18"/>
<polygon fill="midnightblue" stroke="midnightblue" points="1772.15,-79.56 1781.29,-74.2 1770.8,-72.69 1772.15,-79.56"/>
</g>
<!-- Node12 -->
<g id="node12" class="node">
<title>Node12</title>
<g id="a_node12"><a xlink:title=" ">
<polygon fill="white" stroke="#bfbfbf" points="1210.7,-56.5 1210.7,-75.5 1274.7,-75.5 1274.7,-56.5 1210.7,-56.5"/>
<text text-anchor="middle" x="1242.7" y="-63.5" font-family="Helvetica,sans-Serif" font-size="10.00">algorithm</text>
</a>
</g>
</g>
<!-- Node10&#45;&gt;Node12 -->
<g id="edge14" class="edge">
<title>Node10&#45;&gt;Node12</title>
<path fill="none" stroke="midnightblue" d="M1421.75,-117.98C1385.13,-107.55 1323,-89.86 1282.41,-78.31"/>
<polygon fill="midnightblue" stroke="midnightblue" points="1283.16,-74.88 1272.59,-75.51 1281.25,-81.61 1283.16,-74.88"/>
</g>
<!-- Node13 -->
<g id="node13" class="node">
<title>Node13</title>
<g id="a_node13"><a xlink:title=" ">
<polygon fill="white" stroke="#bfbfbf" points="1293.2,-56.5 1293.2,-75.5 1392.2,-75.5 1392.2,-56.5 1293.2,-56.5"/>
<text text-anchor="middle" x="1342.7" y="-63.5" font-family="Helvetica,sans-Serif" font-size="10.00">AMReX_BCRec.H</text>
</a>
</g>
</g>
<!-- Node10&#45;&gt;Node13 -->
<g id="edge16" class="edge">
<title>Node10&#45;&gt;Node13</title>
<path fill="none" stroke="midnightblue" d="M1436.08,-117.98C1418.11,-108.17 1388.38,-91.93 1367.29,-80.42"/>
<polygon fill="midnightblue" stroke="midnightblue" points="1368.74,-77.23 1358.29,-75.51 1365.39,-83.37 1368.74,-77.23"/>
</g>
<!-- Node14 -->
<g id="node14" class="node">
<title>Node14</title>
<g id="a_node14"><a xlink:title=" ">
<polygon fill="white" stroke="#bfbfbf" points="1410.2,-56.5 1410.2,-75.5 1497.2,-75.5 1497.2,-56.5 1410.2,-56.5"/>
<text text-anchor="middle" x="1453.7" y="-63.5" font-family="Helvetica,sans-Serif" font-size="10.00">AMReX_Gpu.H</text>
</a>
</g>
</g>
<!-- Node10&#45;&gt;Node14 -->
<g id="edge17" class="edge">
<title>Node10&#45;&gt;Node14</title>
<path fill="none" stroke="midnightblue" d="M1451.99,-117.98C1452.27,-109.58 1452.71,-96.48 1453.07,-85.66"/>
<polygon fill="midnightblue" stroke="midnightblue" points="1456.58,-85.62 1453.41,-75.51 1449.58,-85.39 1456.58,-85.62"/>
</g>
<!-- Node15 -->
<g id="node15" class="node">
<title>Node15</title>
<g id="a_node15"><a xlink:href="incflo__enums_8_h.html" target="_top" xlink:title=" ">
<polygon fill="white" stroke="black" points="2084.2,-56.5 2084.2,-75.5 2225.2,-75.5 2225.2,-56.5 2084.2,-56.5"/>
<text text-anchor="middle" x="2154.7" y="-63.5" font-family="Helvetica,sans-Serif" font-size="10.00">amr&#45;wind/incflo_enums.H</text>
</a>
</g>
</g>
<!-- Node10&#45;&gt;Node15 -->
<g id="edge18" class="edge">
<title>Node10&#45;&gt;Node15</title>
<path fill="none" stroke="midnightblue" d="M1513.79,-119.81C1538.35,-117.24 1566.85,-114.36 1592.7,-112 1683.84,-103.67 1941.71,-83.5 2074.09,-73.23"/>
<polygon fill="midnightblue" stroke="midnightblue" points="2074.48,-76.71 2084.18,-72.45 2073.94,-69.73 2074.48,-76.71"/>
</g>
<!-- Node16 -->
<g id="node16" class="node">
<title>Node16</title>
<g id="a_node16"><a xlink:href="_view_field_8_h.html" target="_top" xlink:title=" ">
<polygon fill="white" stroke="black" points="892.7,-56.5 892.7,-75.5 1040.7,-75.5 1040.7,-56.5 892.7,-56.5"/>
<text text-anchor="middle" x="966.7" y="-63.5" font-family="Helvetica,sans-Serif" font-size="10.00">amr&#45;wind/core/ViewField.H</text>
</a>
</g>
</g>
<!-- Node10&#45;&gt;Node16 -->
<g id="edge20" class="edge">
<title>Node10&#45;&gt;Node16</title>
<path fill="none" stroke="midnightblue" d="M1412.03,-117.97C1401.25,-115.83 1389.55,-113.67 1378.7,-112 1347.23,-107.17 1162.37,-87.51 1051.24,-75.83"/>
<polygon fill="midnightblue" stroke="midnightblue" points="1051.37,-72.33 1041.06,-74.77 1050.64,-79.29 1051.37,-72.33"/>
</g>
<!-- Node16&#45;&gt;Node4 -->
<g id="edge21" class="edge">
<title>Node16&#45;&gt;Node4</title>
<path fill="none" stroke="midnightblue" d="M1005.62,-56.44C1042.2,-48.26 1098.71,-35.28 1156.37,-20.25"/>
<polygon fill="midnightblue" stroke="midnightblue" points="1157.6,-23.55 1166.39,-17.63 1155.83,-16.78 1157.6,-23.55"/>
</g>
<!-- Node16&#45;&gt;Node6 -->
<g id="edge22" class="edge">
<title>Node16&#45;&gt;Node6</title>
<path fill="none" stroke="midnightblue" d="M895.71,-56.44C815.1,-46.73 683.85,-30.91 599.41,-20.73"/>
<polygon fill="midnightblue" stroke="midnightblue" points="599.7,-17.24 589.35,-19.52 598.86,-24.19 599.7,-17.24"/>
</g>
<!-- Node16&#45;&gt;Node8 -->
<g id="edge23" class="edge">
<title>Node16&#45;&gt;Node8</title>
<path fill="none" stroke="midnightblue" d="M944.04,-56.44C920.3,-47.48 882.79,-33.31 855.96,-23.18"/>
<polygon fill="midnightblue" stroke="midnightblue" points="856.84,-19.77 846.25,-19.52 854.37,-26.32 856.84,-19.77"/>
</g>
<!-- Node17 -->
<g id="node17" class="node">
<title>Node17</title>
<g id="a_node17"><a xlink:title=" ">
<polygon fill="white" stroke="#bfbfbf" points="1050.7,-0.5 1050.7,-19.5 1148.7,-19.5 1148.7,-0.5 1050.7,-0.5"/>
<text text-anchor="middle" x="1099.7" y="-7.5" font-family="Helvetica,sans-Serif" font-size="10.00">AMReX_Vector.H</text>
</a>
</g>
</g>
<!-- Node16&#45;&gt;Node17 -->
<g id="edge24" class="edge">
<title>Node16&#45;&gt;Node17</title>
<path fill="none" stroke="midnightblue" d="M987.77,-56.44C1009.76,-47.52 1044.43,-33.44 1069.36,-23.32"/>
<polygon fill="midnightblue" stroke="midnightblue" points="1070.77,-26.52 1078.72,-19.52 1068.14,-20.04 1070.77,-26.52"/>
</g>
<!-- Node18&#45;&gt;Node4 -->
<g id="edge26" class="edge">
<title>Node18&#45;&gt;Node4</title>
<path fill="none" stroke="midnightblue" d="M463.32,-117.9C496.01,-102.41 568.63,-70.12 633.7,-56 858.6,-7.2 925.95,-59.26 1156.45,-19.82"/>
<polygon fill="midnightblue" stroke="midnightblue" points="1157.24,-23.24 1166.48,-18.07 1156.03,-16.34 1157.24,-23.24"/>
</g>
<!-- Node18&#45;&gt;Node6 -->
<g id="edge27" class="edge">
<title>Node18&#45;&gt;Node6</title>
<path fill="none" stroke="midnightblue" d="M450.31,-117.62C457.44,-104.06 471.78,-77.5 485.7,-56 491.88,-46.44 499.34,-36.18 505.6,-27.87"/>
<polygon fill="midnightblue" stroke="midnightblue" points="508.52,-29.82 511.81,-19.75 502.96,-25.57 508.52,-29.82"/>
</g>
<!-- Node18&#45;&gt;Node19 -->
<g id="edge28" class="edge">
<title>Node18&#45;&gt;Node19</title>
<path fill="none" stroke="midnightblue" d="M435.96,-117.98C425.35,-108.7 408.18,-93.67 395.22,-82.33"/>
<polygon fill="midnightblue" stroke="midnightblue" points="397.25,-79.46 387.42,-75.51 392.64,-84.73 397.25,-79.46"/>
</g>
<!-- Node20&#45;&gt;Node4 -->
<g id="edge30" class="edge">
<title>Node20&#45;&gt;Node4</title>
<path fill="none" stroke="midnightblue" d="M797.79,-123.64C871.27,-119.05 982.24,-107.09 1073.7,-76 1109.39,-63.87 1146.65,-40.52 1168.76,-25.36"/>
<polygon fill="midnightblue" stroke="midnightblue" points="1170.8,-28.21 1176.99,-19.61 1166.79,-22.47 1170.8,-28.21"/>
</g>
<!-- Node20&#45;&gt;Node6 -->
<g id="edge32" class="edge">
<title>Node20&#45;&gt;Node6</title>
<path fill="none" stroke="midnightblue" d="M700.89,-117.87C681.95,-108.05 650.33,-91.38 623.7,-76 594.59,-59.19 561.75,-38.59 540.67,-25.14"/>
<polygon fill="midnightblue" stroke="midnightblue" points="542.44,-22.12 532.13,-19.68 538.67,-28.02 542.44,-22.12"/>
</g>
<!-- Node20&#45;&gt;Node8 -->
<g id="edge34" class="edge">
<title>Node20&#45;&gt;Node8</title>
<path fill="none" stroke="midnightblue" d="M692.4,-117.95C660.68,-105.88 612.86,-82.36 633.7,-56 649.21,-36.39 709.93,-24.44 758.6,-17.83"/>
<polygon fill="midnightblue" stroke="midnightblue" points="759.33,-21.27 768.79,-16.5 758.42,-14.32 759.33,-21.27"/>
</g>
<!-- Node20&#45;&gt;Node16 -->
<g id="edge33" class="edge">
<title>Node20&#45;&gt;Node16</title>
<path fill="none" stroke="midnightblue" d="M753.37,-117.98C797.57,-107.42 872.91,-89.41 921.21,-77.87"/>
<polygon fill="midnightblue" stroke="midnightblue" points="922.18,-81.24 931.09,-75.51 920.55,-74.43 922.18,-81.24"/>
</g>
<!-- Node20&#45;&gt;Node17 -->
<g id="edge35" class="edge">
<title>Node20&#45;&gt;Node17</title>
<path fill="none" stroke="midnightblue" d="M798.02,-121.16C882.33,-114.35 1008.27,-100.44 1049.7,-76 1068.41,-64.96 1082.58,-43.99 1090.97,-28.85"/>
<polygon fill="midnightblue" stroke="midnightblue" points="1094.12,-30.39 1095.64,-19.9 1087.91,-27.15 1094.12,-30.39"/>
</g>
<!-- Node21 -->
<g id="node21" class="node">
<title>Node21</title>
<g id="a_node21"><a xlink:title=" ">
<polygon fill="white" stroke="#bfbfbf" points="642.2,-56.5 642.2,-75.5 687.2,-75.5 687.2,-56.5 642.2,-56.5"/>
<text text-anchor="middle" x="664.7" y="-63.5" font-family="Helvetica,sans-Serif" font-size="10.00">utility</text>
</a>
</g>
</g>
<!-- Node20&#45;&gt;Node21 -->
<g id="edge31" class="edge">
<title>Node20&#45;&gt;Node21</title>
<path fill="none" stroke="midnightblue" d="M710.11,-117.98C702,-108.87 688.96,-94.24 678.94,-82.98"/>
<polygon fill="midnightblue" stroke="midnightblue" points="681.54,-80.65 672.28,-75.51 676.32,-85.3 681.54,-80.65"/>
</g>
<!-- Node22 -->
<g id="node22" class="node">
<title>Node22</title>
<g id="a_node22"><a xlink:title=" ">
<polygon fill="white" stroke="#bfbfbf" points="705.2,-56.5 705.2,-75.5 836.2,-75.5 836.2,-56.5 705.2,-56.5"/>
<text text-anchor="middle" x="770.7" y="-63.5" font-family="Helvetica,sans-Serif" font-size="10.00">AMReX_PhysBCFunct.H</text>
</a>
</g>
</g>
<!-- Node20&#45;&gt;Node22 -->
<g id="edge36" class="edge">
<title>Node20&#45;&gt;Node22</title>
<path fill="none" stroke="midnightblue" d="M725.29,-117.98C733.4,-108.87 746.43,-94.24 756.46,-82.98"/>
<polygon fill="midnightblue" stroke="midnightblue" points="759.08,-85.3 763.12,-75.51 753.85,-80.65 759.08,-85.3"/>
</g>
<!-- Node24&#45;&gt;Node3 -->
<g id="edge49" class="edge">
<title>Node24&#45;&gt;Node3</title>
<path fill="none" stroke="midnightblue" d="M367.03,-246.48C407.88,-234.62 465.65,-217.86 503.63,-206.84"/>
<polygon fill="midnightblue" stroke="midnightblue" points="504.68,-210.18 513.31,-204.03 502.73,-203.45 504.68,-210.18"/>
</g>
<!-- Node24&#45;&gt;Node6 -->
<g id="edge47" class="edge">
<title>Node24&#45;&gt;Node6</title>
<path fill="none" stroke="midnightblue" d="M260.76,-246.43C152.13,-217.53 -64.01,-146.49 18.7,-56 45.21,-26.99 282.55,-16.52 420.49,-12.87"/>
<polygon fill="midnightblue" stroke="midnightblue" points="420.75,-16.36 430.65,-12.61 420.57,-9.36 420.75,-16.36"/>
</g>
<!-- Node24&#45;&gt;Node7 -->
<g id="edge48" class="edge">
<title>Node24&#45;&gt;Node7</title>
<path fill="none" stroke="midnightblue" d="M295.07,-246.48C279.45,-236.86 258.79,-223.44 241.7,-210 215.14,-189.1 187.07,-161.71 170.22,-144.61"/>
<polygon fill="midnightblue" stroke="midnightblue" points="172.39,-141.82 162.9,-137.11 167.38,-146.71 172.39,-141.82"/>
</g>
<!-- Node24&#45;&gt;Node8 -->
<g id="edge50" class="edge">
<title>Node24&#45;&gt;Node8</title>
<path fill="none" stroke="midnightblue" d="M312.45,-246.32C297.28,-209.5 263.28,-109.96 312.7,-56 327.57,-39.76 624.66,-21.74 758.87,-14.4"/>
<polygon fill="midnightblue" stroke="midnightblue" points="759.23,-17.88 769.02,-13.84 758.85,-10.89 759.23,-17.88"/>
</g>
<!-- Node25 -->
<g id="node25" class="node">
<title>Node25</title>
<g id="a_node25"><a xlink:href="_factory_8_h.html" target="_top" xlink:title=" ">
<polygon fill="white" stroke="black" points="1738.7,-118 1738.7,-137 1872.7,-137 1872.7,-118 1738.7,-118"/>
<text text-anchor="middle" x="1805.7" y="-125" font-family="Helvetica,sans-Serif" font-size="10.00">amr&#45;wind/core/Factory.H</text>
</a>
</g>
</g>
<!-- Node24&#45;&gt;Node25 -->
<g id="edge41" class="edge">
<title>Node24&#45;&gt;Node25</title>
<path fill="none" stroke="midnightblue" d="M396.29,-260.84C672.17,-261.62 1595.62,-260.41 1717.7,-210 1726.44,-206.39 1767.06,-166.9 1789.93,-144.24"/>
<polygon fill="midnightblue" stroke="midnightblue" points="1792.58,-146.55 1797.2,-137.01 1787.64,-141.58 1792.58,-146.55"/>
</g>
<!-- Node25&#45;&gt;Node5 -->
<g id="edge43" class="edge">
<title>Node25&#45;&gt;Node5</title>
<path fill="none" stroke="midnightblue" d="M1781.77,-117.98C1753,-107.72 1704.54,-90.46 1672.1,-78.9"/>
<polygon fill="midnightblue" stroke="midnightblue" points="1673.18,-75.57 1662.58,-75.51 1670.83,-82.16 1673.18,-75.57"/>
</g>
<!-- Node25&#45;&gt;Node11 -->
<g id="edge42" class="edge">
<title>Node25&#45;&gt;Node11</title>
<path fill="none" stroke="midnightblue" d="M1806.42,-117.98C1807.12,-109.58 1808.22,-96.48 1809.13,-85.66"/>
<polygon fill="midnightblue" stroke="midnightblue" points="1812.63,-85.77 1809.98,-75.51 1805.66,-85.18 1812.63,-85.77"/>
</g>
<!-- Node26 -->
<g id="node26" class="node">
<title>Node26</title>
<g id="a_node26"><a xlink:title=" ">
<polygon fill="white" stroke="#bfbfbf" points="1703.7,-56.5 1703.7,-75.5 1763.7,-75.5 1763.7,-56.5 1703.7,-56.5"/>
<text text-anchor="middle" x="1733.7" y="-63.5" font-family="Helvetica,sans-Serif" font-size="10.00">iostream</text>
</a>
</g>
</g>
<!-- Node25&#45;&gt;Node26 -->
<g id="edge44" class="edge">
<title>Node25&#45;&gt;Node26</title>
<path fill="none" stroke="midnightblue" d="M1795.38,-117.98C1784.05,-108.61 1765.63,-93.38 1751.86,-82.01"/>
<polygon fill="midnightblue" stroke="midnightblue" points="1753.93,-79.18 1744,-75.51 1749.47,-84.58 1753.93,-79.18"/>
</g>
<!-- Node27 -->
<g id="node27" class="node">
<title>Node27</title>
<g id="a_node27"><a xlink:title=" ">
<polygon fill="white" stroke="#bfbfbf" points="1857.7,-56.5 1857.7,-75.5 1947.7,-75.5 1947.7,-56.5 1857.7,-56.5"/>
<text text-anchor="middle" x="1902.7" y="-63.5" font-family="Helvetica,sans-Serif" font-size="10.00">AMReX_Print.H</text>
</a>
</g>
</g>
<!-- Node25&#45;&gt;Node27 -->
<g id="edge45" class="edge">
<title>Node25&#45;&gt;Node27</title>
<path fill="none" stroke="midnightblue" d="M1819.6,-117.98C1835.37,-108.3 1861.34,-92.37 1880.05,-80.89"/>
<polygon fill="midnightblue" stroke="midnightblue" points="1882.13,-83.72 1888.83,-75.51 1878.47,-77.75 1882.13,-83.72"/>
</g>
<!-- Node28 -->
<g id="node28" class="node">
<title>Node28</title>
<g id="a_node28"><a xlink:title=" ">
<polygon fill="white" stroke="#bfbfbf" points="1965.7,-56.5 1965.7,-75.5 2027.7,-75.5 2027.7,-56.5 1965.7,-56.5"/>
<text text-anchor="middle" x="1996.7" y="-63.5" font-family="Helvetica,sans-Serif" font-size="10.00">AMReX.H</text>
</a>
</g>
</g>
<!-- Node25&#45;&gt;Node28 -->
<g id="edge46" class="edge">
<title>Node25&#45;&gt;Node28</title>
<path fill="none" stroke="midnightblue" d="M1833.06,-117.98C1866.25,-107.64 1922.35,-90.16 1959.46,-78.6"/>
<polygon fill="midnightblue" stroke="midnightblue" points="1960.88,-81.82 1969.38,-75.51 1958.8,-75.14 1960.88,-81.82"/>
</g>
<!-- Node29&#45;&gt;Node3 -->
<g id="edge57" class="edge">
<title>Node29&#45;&gt;Node3</title>
<path fill="none" stroke="midnightblue" d="M1576.37,-257.03C1395.04,-246.23 840.57,-213.23 627.41,-200.54"/>
<polygon fill="midnightblue" stroke="midnightblue" points="627.41,-197.04 617.22,-199.94 626.99,-204.02 627.41,-197.04"/>
</g>
<!-- Node29&#45;&gt;Node23 -->
<g id="edge52" class="edge">
<title>Node29&#45;&gt;Node23</title>
<path fill="none" stroke="midnightblue" d="M1613.7,-251.84C1558.53,-229.08 1409.31,-167.53 1344.93,-140.97"/>
<polygon fill="midnightblue" stroke="midnightblue" points="1345.94,-137.6 1335.36,-137.02 1343.27,-144.07 1345.94,-137.6"/>
</g>
<!-- Node30 -->
<g id="node30" class="node">
<title>Node30</title>
<g id="a_node30"><a xlink:href="_sim_time_8_h.html" target="_top" xlink:title=" ">
<polygon fill="white" stroke="black" points="2616.7,-185 2616.7,-204 2760.7,-204 2760.7,-185 2616.7,-185"/>
<text text-anchor="middle" x="2688.7" y="-192" font-family="Helvetica,sans-Serif" font-size="10.00">amr&#45;wind/core/SimTime.H</text>
</a>
</g>
</g>
<!-- Node29&#45;&gt;Node30 -->
<g id="edge53" class="edge">
<title>Node29&#45;&gt;Node30</title>
<path fill="none" stroke="midnightblue" d="M1692.87,-256.91C1869.63,-246.01 2400.87,-213.25 2606.32,-200.58"/>
<polygon fill="midnightblue" stroke="midnightblue" points="2606.68,-204.06 2616.45,-199.96 2606.25,-197.08 2606.68,-204.06"/>
</g>
<!-- Node34 -->
<g id="node34" class="node">
<title>Node34</title>
<g id="a_node34"><a xlink:href="_p_d_e_base_8_h.html" target="_top" xlink:title=" ">
<polygon fill="white" stroke="black" points="2138.2,-179.5 2138.2,-209.5 2293.2,-209.5 2293.2,-179.5 2138.2,-179.5"/>
<text text-anchor="start" x="2146.2" y="-197.5" font-family="Helvetica,sans-Serif" font-size="10.00">amr&#45;wind/equation_systems</text>
<text text-anchor="middle" x="2215.7" y="-186.5" font-family="Helvetica,sans-Serif" font-size="10.00">/PDEBase.H</text>
</a>
</g>
</g>
<!-- Node29&#45;&gt;Node34 -->
<g id="edge58" class="edge">
<title>Node29&#45;&gt;Node34</title>
<path fill="none" stroke="midnightblue" d="M1692.8,-254C1795.01,-242.57 2007.51,-218.79 2127.78,-205.34"/>
<polygon fill="midnightblue" stroke="midnightblue" points="2128.5,-208.78 2138.05,-204.19 2127.72,-201.82 2128.5,-208.78"/>
</g>
<!-- Node38 -->
<g id="node38" class="node">
<title>Node38</title>
<g id="a_node38"><a xlink:href="_physics_8_h.html" target="_top" xlink:title=" ">
<polygon fill="white" stroke="black" points="1765.2,-185 1765.2,-204 1902.2,-204 1902.2,-185 1765.2,-185"/>
<text text-anchor="middle" x="1833.7" y="-192" font-family="Helvetica,sans-Serif" font-size="10.00">amr&#45;wind/core/Physics.H</text>
</a>
</g>
</g>
<!-- Node29&#45;&gt;Node38 -->
<g id="edge70" class="edge">
<title>Node29&#45;&gt;Node38</title>
<path fill="none" stroke="midnightblue" d="M1661.12,-251.87C1696.24,-240.4 1758.4,-220.09 1797.76,-207.24"/>
<polygon fill="midnightblue" stroke="midnightblue" points="1799.06,-210.5 1807.48,-204.06 1796.89,-203.84 1799.06,-210.5"/>
</g>
<!-- Node40 -->
<g id="node40" class="node">
<title>Node40</title>
<g id="a_node40"><a xlink:href="_mesh_map_8_h.html" target="_top" xlink:title=" ">
<polygon fill="white" stroke="black" points="1560.7,-185 1560.7,-204 1708.7,-204 1708.7,-185 1560.7,-185"/>
<text text-anchor="middle" x="1634.7" y="-192" font-family="Helvetica,sans-Serif" font-size="10.00">amr&#45;wind/core/MeshMap.H</text>
</a>
</g>
</g>
<!-- Node29&#45;&gt;Node40 -->
<g id="edge75" class="edge">
<title>Node29&#45;&gt;Node40</title>
<path fill="none" stroke="midnightblue" d="M1634.7,-251.73C1634.7,-242.18 1634.7,-226.62 1634.7,-214.28"/>
<polygon fill="midnightblue" stroke="midnightblue" points="1638.2,-214.13 1634.7,-204.13 1631.2,-214.13 1638.2,-214.13"/>
</g>
<!-- Node31 -->
<g id="node31" class="node">
<title>Node31</title>
<g id="a_node31"><a xlink:title=" ">
<polygon fill="white" stroke="#bfbfbf" points="2703.7,-118 2703.7,-137 2795.7,-137 2795.7,-118 2703.7,-118"/>
<text text-anchor="middle" x="2749.7" y="-125" font-family="Helvetica,sans-Serif" font-size="10.00">AMReX_REAL.H</text>
</a>
</g>
</g>
<!-- Node30&#45;&gt;Node31 -->
<g id="edge54" class="edge">
<title>Node30&#45;&gt;Node31</title>
<path fill="none" stroke="midnightblue" d="M2696.93,-184.73C2706.53,-174.5 2722.61,-157.36 2734.5,-144.69"/>
<polygon fill="midnightblue" stroke="midnightblue" points="2737.31,-146.81 2741.6,-137.13 2732.21,-142.02 2737.31,-146.81"/>
</g>
<!-- Node32 -->
<g id="node32" class="node">
<title>Node32</title>
<g id="a_node32"><a xlink:title=" ">
<polygon fill="white" stroke="#bfbfbf" points="2813.7,-118 2813.7,-137 2947.7,-137 2947.7,-118 2813.7,-118"/>
<text text-anchor="middle" x="2880.7" y="-125" font-family="Helvetica,sans-Serif" font-size="10.00">AMReX_GpuQualifiers.H</text>
</a>
</g>
</g>
<!-- Node30&#45;&gt;Node32 -->
<g id="edge55" class="edge">
<title>Node30&#45;&gt;Node32</title>
<path fill="none" stroke="midnightblue" d="M2714.2,-184.87C2748,-173.42 2807.8,-153.18 2845.78,-140.32"/>
<polygon fill="midnightblue" stroke="midnightblue" points="2847.05,-143.59 2855.4,-137.06 2844.81,-136.96 2847.05,-143.59"/>
</g>
<!-- Node33 -->
<g id="node33" class="node">
<title>Node33</title>
<g id="a_node33"><a xlink:title=" ">
<polygon fill="white" stroke="#bfbfbf" points="2569.7,-118 2569.7,-137 2685.7,-137 2685.7,-118 2569.7,-118"/>
<text text-anchor="middle" x="2627.7" y="-125" font-family="Helvetica,sans-Serif" font-size="10.00">AMReX_Extension.H</text>
</a>
</g>
</g>
<!-- Node30&#45;&gt;Node33 -->
<g id="edge56" class="edge">
<title>Node30&#45;&gt;Node33</title>
<path fill="none" stroke="midnightblue" d="M2680.47,-184.73C2670.87,-174.5 2654.79,-157.36 2642.9,-144.69"/>
<polygon fill="midnightblue" stroke="midnightblue" points="2645.19,-142.02 2635.8,-137.13 2640.09,-146.81 2645.19,-142.02"/>
</g>
<!-- Node34&#45;&gt;Node4 -->
<g id="edge59" class="edge">
<title>Node34&#45;&gt;Node4</title>
<path fill="none" stroke="midnightblue" d="M2236.99,-179.38C2248.43,-170.46 2261.43,-157.84 2267.7,-143 2282.92,-106.99 2284.79,-80.96 2254.7,-56 2213.94,-22.19 1395.16,-12.87 1221.07,-11.27"/>
<polygon fill="midnightblue" stroke="midnightblue" points="1221.02,-7.77 1210.99,-11.18 1220.96,-14.77 1221.02,-7.77"/>
</g>
<!-- Node34&#45;&gt;Node6 -->
<g id="edge68" class="edge">
<title>Node34&#45;&gt;Node6</title>
<path fill="none" stroke="midnightblue" d="M2224.25,-179.1C2239.6,-151.17 2267.35,-89.46 2234.7,-56 2206.09,-26.69 801.64,-21.26 760.7,-20 713.43,-18.54 660.98,-16.63 617.02,-14.94"/>
<polygon fill="midnightblue" stroke="midnightblue" points="617.04,-11.44 606.91,-14.55 616.77,-18.43 617.04,-11.44"/>
</g>
<!-- Node34&#45;&gt;Node15 -->
<g id="edge69" class="edge">
<title>Node34&#45;&gt;Node15</title>
<path fill="none" stroke="midnightblue" d="M2208.94,-179.48C2197.81,-156.41 2175.67,-110.48 2163.39,-85.03"/>
<polygon fill="midnightblue" stroke="midnightblue" points="2166.43,-83.28 2158.94,-75.79 2160.13,-86.32 2166.43,-83.28"/>
</g>
<!-- Node34&#45;&gt;Node25 -->
<g id="edge60" class="edge">
<title>Node34&#45;&gt;Node25</title>
<path fill="none" stroke="midnightblue" d="M2138.19,-182.54C2070.62,-172.8 1970.03,-157.84 1882.7,-143 1875.24,-141.73 1867.39,-140.33 1859.66,-138.91"/>
<polygon fill="midnightblue" stroke="midnightblue" points="1860.1,-135.44 1849.63,-137.05 1858.82,-142.32 1860.1,-135.44"/>
</g>
<!-- Node35 -->
<g id="node35" class="node">
<title>Node35</title>
<g id="a_node35"><a xlink:href="_coll_mgr_8_h.html" target="_top" xlink:title=" ">
<polygon fill="white" stroke="black" points="1891.2,-118 1891.2,-137 2028.2,-137 2028.2,-118 1891.2,-118"/>
<text text-anchor="middle" x="1959.7" y="-125" font-family="Helvetica,sans-Serif" font-size="10.00">amr&#45;wind/core/CollMgr.H</text>
</a>
</g>
</g>
<!-- Node34&#45;&gt;Node35 -->
<g id="edge61" class="edge">
<title>Node34&#45;&gt;Node35</title>
<path fill="none" stroke="midnightblue" d="M2160.47,-179.48C2113.38,-167.52 2046.63,-150.57 2003.25,-139.56"/>
<polygon fill="midnightblue" stroke="midnightblue" points="2003.84,-136.1 1993.29,-137.03 2002.12,-142.88 2003.84,-136.1"/>
</g>
<!-- Node36 -->
<g id="node36" class="node">
<title>Node36</title>
<g id="a_node36"><a xlink:href="_p_d_e_fields_8_h.html" target="_top" xlink:title=" ">
<polygon fill="white" stroke="black" points="2396.2,-112.5 2396.2,-142.5 2551.2,-142.5 2551.2,-112.5 2396.2,-112.5"/>
<text text-anchor="start" x="2404.2" y="-130.5" font-family="Helvetica,sans-Serif" font-size="10.00">amr&#45;wind/equation_systems</text>
<text text-anchor="middle" x="2473.7" y="-119.5" font-family="Helvetica,sans-Serif" font-size="10.00">/PDEFields.H</text>
</a>
</g>
</g>
<!-- Node34&#45;&gt;Node36 -->
<g id="edge66" class="edge">
<title>Node34&#45;&gt;Node36</title>
<path fill="none" stroke="midnightblue" d="M2271.36,-179.48C2311.41,-169.39 2365.57,-155.74 2407.78,-145.11"/>
<polygon fill="midnightblue" stroke="midnightblue" points="2408.85,-148.45 2417.69,-142.61 2407.14,-141.66 2408.85,-148.45"/>
</g>
<!-- Node35&#45;&gt;Node4 -->
<g id="edge62" class="edge">
<title>Node35&#45;&gt;Node4</title>
<path fill="none" stroke="midnightblue" d="M2028.21,-123.64C2100.94,-119 2208.91,-106.95 2234.7,-76 2240.39,-69.17 2240.85,-62.42 2234.7,-56 2198.79,-18.51 1393.88,-12.1 1221.15,-11.15"/>
<polygon fill="midnightblue" stroke="midnightblue" points="1221.16,-7.65 1211.14,-11.1 1221.13,-14.65 1221.16,-7.65"/>
</g>
<!-- Node35&#45;&gt;Node5 -->
<g id="edge64" class="edge">
<title>Node35&#45;&gt;Node5</title>
<path fill="none" stroke="midnightblue" d="M1913.92,-117.98C1903.34,-116.02 1892.13,-113.93 1881.7,-112 1817.7,-100.13 1744.22,-86.52 1694.96,-77.41"/>
<polygon fill="midnightblue" stroke="midnightblue" points="1695.3,-73.91 1684.83,-75.53 1694.03,-80.79 1695.3,-73.91"/>
</g>
<!-- Node35&#45;&gt;Node11 -->
<g id="edge63" class="edge">
<title>Node35&#45;&gt;Node11</title>
<path fill="none" stroke="midnightblue" d="M1938.35,-117.98C1913.01,-107.86 1870.56,-90.9 1841.63,-79.35"/>
<polygon fill="midnightblue" stroke="midnightblue" points="1842.59,-75.97 1832.01,-75.51 1840,-82.47 1842.59,-75.97"/>
</g>
<!-- Node35&#45;&gt;Node17 -->
<g id="edge65" class="edge">
<title>Node35&#45;&gt;Node17</title>
<path fill="none" stroke="midnightblue" d="M1981.5,-117.99C2011.52,-105.11 2059.42,-79.67 2036.7,-56 2004.18,-22.12 1267.41,-24.5 1159.02,-19.67"/>
<polygon fill="midnightblue" stroke="midnightblue" points="1159.21,-16.17 1149.01,-19.04 1158.77,-23.16 1159.21,-16.17"/>
</g>
<!-- Node37 -->
<g id="node37" class="node">
<title>Node37</title>
<g id="a_node37"><a xlink:title=" ">
<polygon fill="white" stroke="#bfbfbf" points="2449.7,-56.5 2449.7,-75.5 2497.7,-75.5 2497.7,-56.5 2449.7,-56.5"/>
<text text-anchor="middle" x="2473.7" y="-63.5" font-family="Helvetica,sans-Serif" font-size="10.00">iosfwd</text>
</a>
</g>
</g>
<!-- Node36&#45;&gt;Node37 -->
<g id="edge67" class="edge">
<title>Node36&#45;&gt;Node37</title>
<path fill="none" stroke="midnightblue" d="M2473.7,-112.4C2473.7,-104.47 2473.7,-94.46 2473.7,-85.86"/>
<polygon fill="midnightblue" stroke="midnightblue" points="2477.2,-85.66 2473.7,-75.66 2470.2,-85.66 2477.2,-85.66"/>
</g>
<!-- Node38&#45;&gt;Node8 -->
<g id="edge73" class="edge">
<title>Node38&#45;&gt;Node8</title>
<path fill="none" stroke="midnightblue" d="M1902.28,-191.61C2041.55,-185.58 2336.05,-160.45 2234.7,-56 2211.61,-32.21 1074.83,-21.18 1041.7,-20 990.18,-18.16 931.83,-15.73 888.47,-13.86"/>
<polygon fill="midnightblue" stroke="midnightblue" points="888.49,-10.36 878.34,-13.42 888.18,-17.35 888.49,-10.36"/>
</g>
<!-- Node38&#45;&gt;Node25 -->
<g id="edge71" class="edge">
<title>Node38&#45;&gt;Node25</title>
<path fill="none" stroke="midnightblue" d="M1829.92,-184.73C1825.72,-174.99 1818.83,-158.98 1813.47,-146.53"/>
<polygon fill="midnightblue" stroke="midnightblue" points="1816.59,-144.93 1809.42,-137.13 1810.16,-147.7 1816.59,-144.93"/>
</g>
<!-- Node38&#45;&gt;Node35 -->
<g id="edge72" class="edge">
<title>Node38&#45;&gt;Node35</title>
<path fill="none" stroke="midnightblue" d="M1850.43,-184.87C1871.8,-173.84 1909,-154.66 1933.98,-141.77"/>
<polygon fill="midnightblue" stroke="midnightblue" points="1935.62,-144.86 1942.9,-137.17 1932.41,-138.64 1935.62,-144.86"/>
</g>
<!-- Node39 -->
<g id="node39" class="node">
<title>Node39</title>
<g id="a_node39"><a xlink:title=" ">
<polygon fill="white" stroke="#bfbfbf" points="1601.2,-118 1601.2,-137 1716.2,-137 1716.2,-118 1601.2,-118"/>
<text text-anchor="middle" x="1658.7" y="-125" font-family="Helvetica,sans-Serif" font-size="10.00">AMReX_Geometry.H</text>
</a>
</g>
</g>
<!-- Node38&#45;&gt;Node39 -->
<g id="edge74" class="edge">
<title>Node38&#45;&gt;Node39</title>
<path fill="none" stroke="midnightblue" d="M1810.46,-184.87C1779.91,-173.52 1726.07,-153.52 1691.42,-140.65"/>
<polygon fill="midnightblue" stroke="midnightblue" points="1692.35,-137.26 1681.76,-137.06 1689.91,-143.83 1692.35,-137.26"/>
</g>
<!-- Node40&#45;&gt;Node8 -->
<g id="edge79" class="edge">
<title>Node40&#45;&gt;Node8</title>
<path fill="none" stroke="midnightblue" d="M1627.12,-184.63C1602.05,-155.39 1522.53,-63.52 1506.7,-56 1479.05,-42.87 1053.39,-21.72 888.38,-13.97"/>
<polygon fill="midnightblue" stroke="midnightblue" points="888.51,-10.47 878.36,-13.5 888.19,-17.46 888.51,-10.47"/>
</g>
<!-- Node40&#45;&gt;Node10 -->
<g id="edge78" class="edge">
<title>Node40&#45;&gt;Node10</title>
<path fill="none" stroke="midnightblue" d="M1610.4,-184.87C1578.32,-173.47 1521.67,-153.35 1485.45,-140.49"/>
<polygon fill="midnightblue" stroke="midnightblue" points="1486.4,-137.11 1475.81,-137.06 1484.06,-143.71 1486.4,-137.11"/>
</g>
<!-- Node40&#45;&gt;Node25 -->
<g id="edge77" class="edge">
<title>Node40&#45;&gt;Node25</title>
<path fill="none" stroke="midnightblue" d="M1657.41,-184.87C1687.26,-173.52 1739.87,-153.52 1773.73,-140.65"/>
<polygon fill="midnightblue" stroke="midnightblue" points="1775.07,-143.89 1783.17,-137.06 1772.58,-137.35 1775.07,-143.89"/>
</g>
<!-- Node40&#45;&gt;Node35 -->
<g id="edge76" class="edge">
<title>Node40&#45;&gt;Node35</title>
<path fill="none" stroke="midnightblue" d="M1677.52,-184.94C1736.67,-173.11 1843.28,-151.78 1907.17,-139.01"/>
<polygon fill="midnightblue" stroke="midnightblue" points="1907.92,-142.43 1917.04,-137.03 1906.55,-135.56 1907.92,-142.43"/>
</g>
<!-- Node40&#45;&gt;Node39 -->
<g id="edge80" class="edge">
<title>Node40&#45;&gt;Node39</title>
<path fill="none" stroke="midnightblue" d="M1637.94,-184.73C1641.53,-174.99 1647.44,-158.98 1652.04,-146.53"/>
<polygon fill="midnightblue" stroke="midnightblue" points="1655.33,-147.72 1655.51,-137.13 1648.77,-145.3 1655.33,-147.72"/>
</g>
</g>
</svg>
