<?xml version="1.0" encoding="UTF-8" standalone="no"?>
<!DOCTYPE svg PUBLIC "-//W3C//DTD SVG 1.1//EN"
 "http://www.w3.org/Graphics/SVG/1.1/DTD/svg11.dtd">
<!-- Generated by graphviz version 2.43.0 (0)
 -->
<!-- Title: DensityBuoyancy.H Pages: 1 -->
<svg width="2172pt" height="319pt"
 viewBox="0.00 0.00 2171.88 319.00" xmlns="http://www.w3.org/2000/svg" xmlns:xlink="http://www.w3.org/1999/xlink">
<g id="graph0" class="graph" transform="scale(1 1) rotate(0) translate(4 315)">
<title>DensityBuoyancy.H</title>
<polygon fill="white" stroke="transparent" points="-4,4 -4,-315 2167.88,-315 2167.88,4 -4,4"/>
<!-- Node1 -->
<g id="node1" class="node">
<title>Node1</title>
<g id="a_node1"><a xlink:title=" ">
<polygon fill="#bfbfbf" stroke="black" points="1409.5,-291.5 1409.5,-310.5 1520.5,-310.5 1520.5,-291.5 1409.5,-291.5"/>
<text text-anchor="middle" x="1465" y="-298.5" font-family="Helvetica,sans-Serif" font-size="10.00">DensityBuoyancy.H</text>
</a>
</g>
</g>
<!-- Node2 -->
<g id="node2" class="node">
<title>Node2</title>
<g id="a_node2"><a xlink:href="_field_repo_8_h.html" target="_top" xlink:title=" ">
<polygon fill="white" stroke="black" points="1076.5,-168.5 1076.5,-187.5 1225.5,-187.5 1225.5,-168.5 1076.5,-168.5"/>
<text text-anchor="middle" x="1151" y="-175.5" font-family="Helvetica,sans-Serif" font-size="10.00">amr&#45;wind/core/FieldRepo.H</text>
</a>
</g>
</g>
<!-- Node1&#45;&gt;Node2 -->
<g id="edge1" class="edge">
<title>Node1&#45;&gt;Node2</title>
<path fill="none" stroke="midnightblue" d="M1442.92,-291.49C1388.33,-270.45 1246.82,-215.92 1183.02,-191.34"/>
<polygon fill="midnightblue" stroke="midnightblue" points="1184.07,-187.99 1173.48,-187.66 1181.55,-194.52 1184.07,-187.99"/>
</g>
<!-- Node23 -->
<g id="node23" class="node">
<title>Node23</title>
<g id="a_node23"><a xlink:href="_momentum_source_8_h.html" target="_top" xlink:title=" ">
<polygon fill="white" stroke="black" points="1510.5,-224.5 1510.5,-254.5 1665.5,-254.5 1665.5,-224.5 1510.5,-224.5"/>
<text text-anchor="start" x="1518.5" y="-242.5" font-family="Helvetica,sans-Serif" font-size="10.00">amr&#45;wind/equation_systems</text>
<text text-anchor="middle" x="1588" y="-231.5" font-family="Helvetica,sans-Serif" font-size="10.00">/icns/MomentumSource.H</text>
</a>
</g>
</g>
<!-- Node1&#45;&gt;Node23 -->
<g id="edge39" class="edge">
<title>Node1&#45;&gt;Node23</title>
<path fill="none" stroke="midnightblue" d="M1482.62,-291.48C1500.06,-283.04 1527.32,-269.86 1549.74,-259.01"/>
<polygon fill="midnightblue" stroke="midnightblue" points="1551.53,-262.03 1559.01,-254.52 1548.49,-255.73 1551.53,-262.03"/>
</g>
<!-- Node3 -->
<g id="node3" class="node">
<title>Node3</title>
<g id="a_node3"><a xlink:title=" ">
<polygon fill="white" stroke="#bfbfbf" points="200,-0.5 200,-19.5 244,-19.5 244,-0.5 200,-0.5"/>
<text text-anchor="middle" x="222" y="-7.5" font-family="Helvetica,sans-Serif" font-size="10.00">string</text>
</a>
</g>
</g>
<!-- Node2&#45;&gt;Node3 -->
<g id="edge2" class="edge">
<title>Node2&#45;&gt;Node3</title>
<path fill="none" stroke="midnightblue" d="M1076.39,-175.4C914.96,-171.46 537.8,-159.53 413,-132 346.35,-117.3 324.17,-117.52 270,-76 253.36,-63.24 239.78,-43.22 231.37,-28.76"/>
<polygon fill="midnightblue" stroke="midnightblue" points="234.31,-26.85 226.39,-19.81 228.19,-30.25 234.31,-26.85"/>
</g>
<!-- Node4 -->
<g id="node4" class="node">
<title>Node4</title>
<g id="a_node4"><a xlink:title=" ">
<polygon fill="white" stroke="#bfbfbf" points="1397.5,-56.5 1397.5,-75.5 1490.5,-75.5 1490.5,-56.5 1397.5,-56.5"/>
<text text-anchor="middle" x="1444" y="-63.5" font-family="Helvetica,sans-Serif" font-size="10.00">unordered_map</text>
</a>
</g>
</g>
<!-- Node2&#45;&gt;Node4 -->
<g id="edge3" class="edge">
<title>Node2&#45;&gt;Node4</title>
<path fill="none" stroke="midnightblue" d="M1177.24,-168.42C1203.78,-159.64 1245.94,-145.42 1282,-132 1328.59,-114.66 1381.98,-92.86 1414.34,-79.43"/>
<polygon fill="midnightblue" stroke="midnightblue" points="1415.78,-82.62 1423.67,-75.54 1413.09,-76.15 1415.78,-82.62"/>
</g>
<!-- Node5 -->
<g id="node5" class="node">
<title>Node5</title>
<g id="a_node5"><a xlink:href="_field_desc_types_8_h.html" target="_top" xlink:title=" ">
<polygon fill="white" stroke="black" points="703,-0.5 703,-19.5 879,-19.5 879,-0.5 703,-0.5"/>
<text text-anchor="middle" x="791" y="-7.5" font-family="Helvetica,sans-Serif" font-size="10.00">amr&#45;wind/core/FieldDescTypes.H</text>
</a>
</g>
</g>
<!-- Node2&#45;&gt;Node5 -->
<g id="edge4" class="edge">
<title>Node2&#45;&gt;Node5</title>
<path fill="none" stroke="midnightblue" d="M1097.13,-168.46C1032.87,-156.27 924.31,-129.22 846,-76 827.55,-63.46 811.73,-43.11 801.86,-28.52"/>
<polygon fill="midnightblue" stroke="midnightblue" points="804.65,-26.38 796.27,-19.9 798.78,-30.2 804.65,-26.38"/>
</g>
<!-- Node6 -->
<g id="node6" class="node">
<title>Node6</title>
<g id="a_node6"><a xlink:href="_field_utils_8_h.html" target="_top" xlink:title=" ">
<polygon fill="white" stroke="black" points="1585,-112.5 1585,-131.5 1731,-131.5 1731,-112.5 1585,-112.5"/>
<text text-anchor="middle" x="1658" y="-119.5" font-family="Helvetica,sans-Serif" font-size="10.00">amr&#45;wind/core/FieldUtils.H</text>
</a>
</g>
</g>
<!-- Node2&#45;&gt;Node6 -->
<g id="edge5" class="edge">
<title>Node2&#45;&gt;Node6</title>
<path fill="none" stroke="midnightblue" d="M1225.54,-169.06C1318.71,-159.14 1477.73,-142.2 1574.79,-131.86"/>
<polygon fill="midnightblue" stroke="midnightblue" points="1575.28,-135.33 1584.86,-130.79 1574.54,-128.37 1575.28,-135.33"/>
</g>
<!-- Node7 -->
<g id="node7" class="node">
<title>Node7</title>
<g id="a_node7"><a xlink:title=" ">
<polygon fill="white" stroke="#bfbfbf" points="1408.5,-0.5 1408.5,-19.5 1517.5,-19.5 1517.5,-0.5 1408.5,-0.5"/>
<text text-anchor="middle" x="1463" y="-7.5" font-family="Helvetica,sans-Serif" font-size="10.00">AMReX_MultiFab.H</text>
</a>
</g>
</g>
<!-- Node2&#45;&gt;Node7 -->
<g id="edge37" class="edge">
<title>Node2&#45;&gt;Node7</title>
<path fill="none" stroke="midnightblue" d="M1211.23,-168.44C1301.7,-154.21 1465.74,-122.54 1500,-76 1511.76,-60.03 1496.32,-39.98 1481.95,-26.4"/>
<polygon fill="midnightblue" stroke="midnightblue" points="1484.06,-23.6 1474.25,-19.59 1479.42,-28.84 1484.06,-23.6"/>
</g>
<!-- Node9 -->
<g id="node9" class="node">
<title>Node9</title>
<g id="a_node9"><a xlink:href="_field_8_h.html" target="_top" xlink:title=" ">
<polygon fill="white" stroke="black" points="1021,-112.5 1021,-131.5 1145,-131.5 1145,-112.5 1021,-112.5"/>
<text text-anchor="middle" x="1083" y="-119.5" font-family="Helvetica,sans-Serif" font-size="10.00">amr&#45;wind/core/Field.H</text>
</a>
</g>
</g>
<!-- Node2&#45;&gt;Node9 -->
<g id="edge9" class="edge">
<title>Node2&#45;&gt;Node9</title>
<path fill="none" stroke="midnightblue" d="M1140.07,-168.32C1129.83,-160.18 1114.28,-147.84 1102,-138.09"/>
<polygon fill="midnightblue" stroke="midnightblue" points="1104.13,-135.31 1094.12,-131.83 1099.78,-140.79 1104.13,-135.31"/>
</g>
<!-- Node17 -->
<g id="node17" class="node">
<title>Node17</title>
<g id="a_node17"><a xlink:href="_int_field_8_h.html" target="_top" xlink:title=" ">
<polygon fill="white" stroke="black" points="77.5,-112.5 77.5,-131.5 214.5,-131.5 214.5,-112.5 77.5,-112.5"/>
<text text-anchor="middle" x="146" y="-119.5" font-family="Helvetica,sans-Serif" font-size="10.00">amr&#45;wind/core/IntField.H</text>
</a>
</g>
</g>
<!-- Node2&#45;&gt;Node17 -->
<g id="edge24" class="edge">
<title>Node2&#45;&gt;Node17</title>
<path fill="none" stroke="midnightblue" d="M1076.21,-174.85C919.11,-170.01 543.34,-156.69 229,-132 227.7,-131.9 226.39,-131.79 225.07,-131.68"/>
<polygon fill="midnightblue" stroke="midnightblue" points="225.08,-128.17 214.81,-130.78 224.47,-135.14 225.08,-128.17"/>
</g>
<!-- Node18 -->
<g id="node18" class="node">
<title>Node18</title>
<g id="a_node18"><a xlink:title=" ">
<polygon fill="white" stroke="#bfbfbf" points="0,-56.5 0,-75.5 112,-75.5 112,-56.5 0,-56.5"/>
<text text-anchor="middle" x="56" y="-63.5" font-family="Helvetica,sans-Serif" font-size="10.00">AMReX_iMultiFab.H</text>
</a>
</g>
</g>
<!-- Node2&#45;&gt;Node18 -->
<g id="edge38" class="edge">
<title>Node2&#45;&gt;Node18</title>
<path fill="none" stroke="midnightblue" d="M1076.27,-176.4C837.63,-174.17 107.22,-164.69 69,-132 56.04,-120.91 53.73,-100.88 54.08,-85.97"/>
<polygon fill="midnightblue" stroke="midnightblue" points="57.58,-86.01 54.74,-75.8 50.6,-85.56 57.58,-86.01"/>
</g>
<!-- Node19 -->
<g id="node19" class="node">
<title>Node19</title>
<g id="a_node19"><a xlink:href="_scratch_field_8_h.html" target="_top" xlink:title=" ">
<polygon fill="white" stroke="black" points="422,-112.5 422,-131.5 582,-131.5 582,-112.5 422,-112.5"/>
<text text-anchor="middle" x="502" y="-119.5" font-family="Helvetica,sans-Serif" font-size="10.00">amr&#45;wind/core/ScratchField.H</text>
</a>
</g>
</g>
<!-- Node2&#45;&gt;Node19 -->
<g id="edge28" class="edge">
<title>Node2&#45;&gt;Node19</title>
<path fill="none" stroke="midnightblue" d="M1076.23,-170.78C956.32,-160.8 721.41,-141.26 592.32,-130.51"/>
<polygon fill="midnightblue" stroke="midnightblue" points="592.32,-127 582.06,-129.66 591.74,-133.98 592.32,-127"/>
</g>
<!-- Node22 -->
<g id="node22" class="node">
<title>Node22</title>
<g id="a_node22"><a xlink:title=" ">
<polygon fill="white" stroke="#bfbfbf" points="1163,-112.5 1163,-131.5 1273,-131.5 1273,-112.5 1163,-112.5"/>
<text text-anchor="middle" x="1218" y="-119.5" font-family="Helvetica,sans-Serif" font-size="10.00">AMReX_AmrCore.H</text>
</a>
</g>
</g>
<!-- Node2&#45;&gt;Node22 -->
<g id="edge36" class="edge">
<title>Node2&#45;&gt;Node22</title>
<path fill="none" stroke="midnightblue" d="M1161.76,-168.32C1171.77,-160.26 1186.89,-148.08 1198.93,-138.37"/>
<polygon fill="midnightblue" stroke="midnightblue" points="1201.45,-140.83 1207.04,-131.83 1197.06,-135.38 1201.45,-140.83"/>
</g>
<!-- Node6&#45;&gt;Node5 -->
<g id="edge6" class="edge">
<title>Node6&#45;&gt;Node5</title>
<path fill="none" stroke="midnightblue" d="M1645.61,-112.27C1623.96,-97.57 1577.32,-68.27 1533,-56 1414.71,-23.26 1062.57,-14.33 889.39,-11.9"/>
<polygon fill="midnightblue" stroke="midnightblue" points="889.3,-8.4 879.25,-11.76 889.21,-15.4 889.3,-8.4"/>
</g>
<!-- Node6&#45;&gt;Node7 -->
<g id="edge7" class="edge">
<title>Node6&#45;&gt;Node7</title>
<path fill="none" stroke="midnightblue" d="M1731.29,-116.33C1792.75,-109.71 1865.51,-93.84 1832,-56 1812.2,-33.64 1628.04,-20.08 1527.61,-14.29"/>
<polygon fill="midnightblue" stroke="midnightblue" points="1527.75,-10.8 1517.57,-13.73 1527.35,-17.79 1527.75,-10.8"/>
</g>
<!-- Node8 -->
<g id="node8" class="node">
<title>Node8</title>
<g id="a_node8"><a xlink:title=" ">
<polygon fill="white" stroke="#bfbfbf" points="1623,-56.5 1623,-75.5 1747,-75.5 1747,-56.5 1623,-56.5"/>
<text text-anchor="middle" x="1685" y="-63.5" font-family="Helvetica,sans-Serif" font-size="10.00">AMReX_Interpolater.H</text>
</a>
</g>
</g>
<!-- Node6&#45;&gt;Node8 -->
<g id="edge8" class="edge">
<title>Node6&#45;&gt;Node8</title>
<path fill="none" stroke="midnightblue" d="M1662.46,-112.08C1666.15,-104.69 1671.52,-93.95 1676.09,-84.81"/>
<polygon fill="midnightblue" stroke="midnightblue" points="1679.28,-86.26 1680.62,-75.75 1673.02,-83.13 1679.28,-86.26"/>
</g>
<!-- Node9&#45;&gt;Node3 -->
<g id="edge10" class="edge">
<title>Node9&#45;&gt;Node3</title>
<path fill="none" stroke="midnightblue" d="M1020.82,-118.38C929.35,-113.79 753.42,-102.17 606,-76 571.61,-69.89 564.22,-62.98 530,-56 430.26,-35.66 310.55,-20.89 254.25,-14.5"/>
<polygon fill="midnightblue" stroke="midnightblue" points="254.51,-11.01 244.18,-13.37 253.73,-17.97 254.51,-11.01"/>
</g>
<!-- Node9&#45;&gt;Node4 -->
<g id="edge12" class="edge">
<title>Node9&#45;&gt;Node4</title>
<path fill="none" stroke="midnightblue" d="M1140.2,-112.44C1207.9,-102.32 1319.93,-85.56 1387.38,-75.47"/>
<polygon fill="midnightblue" stroke="midnightblue" points="1388.03,-78.91 1397.4,-73.97 1386.99,-71.99 1388.03,-78.91"/>
</g>
<!-- Node9&#45;&gt;Node5 -->
<g id="edge18" class="edge">
<title>Node9&#45;&gt;Node5</title>
<path fill="none" stroke="midnightblue" d="M1020.77,-112.92C981.03,-106.28 929.07,-94.84 886,-76 856.73,-63.2 826.98,-41.04 808.75,-26.2"/>
<polygon fill="midnightblue" stroke="midnightblue" points="810.71,-23.28 800.79,-19.58 806.24,-28.67 810.71,-23.28"/>
</g>
<!-- Node9&#45;&gt;Node7 -->
<g id="edge14" class="edge">
<title>Node9&#45;&gt;Node7</title>
<path fill="none" stroke="midnightblue" d="M1145.18,-113.11C1211.91,-104.19 1313.28,-89.18 1350,-76 1359.41,-72.62 1409.68,-42.93 1439.91,-24.87"/>
<polygon fill="midnightblue" stroke="midnightblue" points="1441.8,-27.82 1448.58,-19.68 1438.2,-21.81 1441.8,-27.82"/>
</g>
<!-- Node10 -->
<g id="node10" class="node">
<title>Node10</title>
<g id="a_node10"><a xlink:title=" ">
<polygon fill="white" stroke="#bfbfbf" points="1765,-56.5 1765,-75.5 1823,-75.5 1823,-56.5 1765,-56.5"/>
<text text-anchor="middle" x="1794" y="-63.5" font-family="Helvetica,sans-Serif" font-size="10.00">memory</text>
</a>
</g>
</g>
<!-- Node9&#45;&gt;Node10 -->
<g id="edge11" class="edge">
<title>Node9&#45;&gt;Node10</title>
<path fill="none" stroke="midnightblue" d="M1145.31,-112.86C1148.25,-112.56 1151.15,-112.27 1154,-112 1417.62,-87.44 1489.09,-114.36 1754.7,-75.94"/>
<polygon fill="midnightblue" stroke="midnightblue" points="1755.25,-79.39 1764.64,-74.48 1754.24,-72.47 1755.25,-79.39"/>
</g>
<!-- Node11 -->
<g id="node11" class="node">
<title>Node11</title>
<g id="a_node11"><a xlink:title=" ">
<polygon fill="white" stroke="#bfbfbf" points="895,-56.5 895,-75.5 959,-75.5 959,-56.5 895,-56.5"/>
<text text-anchor="middle" x="927" y="-63.5" font-family="Helvetica,sans-Serif" font-size="10.00">algorithm</text>
</a>
</g>
</g>
<!-- Node9&#45;&gt;Node11 -->
<g id="edge13" class="edge">
<title>Node9&#45;&gt;Node11</title>
<path fill="none" stroke="midnightblue" d="M1058.28,-112.44C1032.15,-103.4 990.74,-89.06 961.42,-78.92"/>
<polygon fill="midnightblue" stroke="midnightblue" points="962.2,-75.48 951.6,-75.52 959.91,-82.1 962.2,-75.48"/>
</g>
<!-- Node12 -->
<g id="node12" class="node">
<title>Node12</title>
<g id="a_node12"><a xlink:title=" ">
<polygon fill="white" stroke="#bfbfbf" points="977.5,-56.5 977.5,-75.5 1076.5,-75.5 1076.5,-56.5 977.5,-56.5"/>
<text text-anchor="middle" x="1027" y="-63.5" font-family="Helvetica,sans-Serif" font-size="10.00">AMReX_BCRec.H</text>
</a>
</g>
</g>
<!-- Node9&#45;&gt;Node12 -->
<g id="edge15" class="edge">
<title>Node9&#45;&gt;Node12</title>
<path fill="none" stroke="midnightblue" d="M1074,-112.32C1065.81,-104.42 1053.49,-92.55 1043.53,-82.94"/>
<polygon fill="midnightblue" stroke="midnightblue" points="1045.79,-80.26 1036.16,-75.83 1040.93,-85.29 1045.79,-80.26"/>
</g>
<!-- Node13 -->
<g id="node13" class="node">
<title>Node13</title>
<g id="a_node13"><a xlink:title=" ">
<polygon fill="white" stroke="#bfbfbf" points="1094.5,-56.5 1094.5,-75.5 1181.5,-75.5 1181.5,-56.5 1094.5,-56.5"/>
<text text-anchor="middle" x="1138" y="-63.5" font-family="Helvetica,sans-Serif" font-size="10.00">AMReX_Gpu.H</text>
</a>
</g>
</g>
<!-- Node9&#45;&gt;Node13 -->
<g id="edge16" class="edge">
<title>Node9&#45;&gt;Node13</title>
<path fill="none" stroke="midnightblue" d="M1092.08,-112.08C1100.17,-104.14 1112.2,-92.34 1121.91,-82.8"/>
<polygon fill="midnightblue" stroke="midnightblue" points="1124.4,-85.25 1129.09,-75.75 1119.5,-80.26 1124.4,-85.25"/>
</g>
<!-- Node14 -->
<g id="node14" class="node">
<title>Node14</title>
<g id="a_node14"><a xlink:href="incflo__enums_8_h.html" target="_top" xlink:title=" ">
<polygon fill="white" stroke="black" points="1199.5,-56.5 1199.5,-75.5 1340.5,-75.5 1340.5,-56.5 1199.5,-56.5"/>
<text text-anchor="middle" x="1270" y="-63.5" font-family="Helvetica,sans-Serif" font-size="10.00">amr&#45;wind/incflo_enums.H</text>
</a>
</g>
</g>
<!-- Node9&#45;&gt;Node14 -->
<g id="edge17" class="edge">
<title>Node9&#45;&gt;Node14</title>
<path fill="none" stroke="midnightblue" d="M1112.63,-112.44C1144.5,-103.24 1195.33,-88.56 1230.56,-78.39"/>
<polygon fill="midnightblue" stroke="midnightblue" points="1231.87,-81.65 1240.51,-75.52 1229.93,-74.93 1231.87,-81.65"/>
</g>
<!-- Node15 -->
<g id="node15" class="node">
<title>Node15</title>
<g id="a_node15"><a xlink:href="_view_field_8_h.html" target="_top" xlink:title=" ">
<polygon fill="white" stroke="black" points="615,-56.5 615,-75.5 763,-75.5 763,-56.5 615,-56.5"/>
<text text-anchor="middle" x="689" y="-63.5" font-family="Helvetica,sans-Serif" font-size="10.00">amr&#45;wind/core/ViewField.H</text>
</a>
</g>
</g>
<!-- Node9&#45;&gt;Node15 -->
<g id="edge19" class="edge">
<title>Node9&#45;&gt;Node15</title>
<path fill="none" stroke="midnightblue" d="M1020.57,-112.44C950.11,-102.79 835.65,-87.1 761.35,-76.92"/>
<polygon fill="midnightblue" stroke="midnightblue" points="761.52,-73.41 751.14,-75.52 760.57,-80.34 761.52,-73.41"/>
</g>
<!-- Node15&#45;&gt;Node3 -->
<g id="edge20" class="edge">
<title>Node15&#45;&gt;Node3</title>
<path fill="none" stroke="midnightblue" d="M615.26,-56.47C511.88,-44.52 328.23,-23.28 254.23,-14.73"/>
<polygon fill="midnightblue" stroke="midnightblue" points="254.46,-11.23 244.13,-13.56 253.66,-18.18 254.46,-11.23"/>
</g>
<!-- Node15&#45;&gt;Node5 -->
<g id="edge21" class="edge">
<title>Node15&#45;&gt;Node5</title>
<path fill="none" stroke="midnightblue" d="M705.39,-56.32C721.67,-47.7 746.87,-34.36 765.72,-24.39"/>
<polygon fill="midnightblue" stroke="midnightblue" points="767.45,-27.43 774.65,-19.65 764.18,-21.24 767.45,-27.43"/>
</g>
<!-- Node15&#45;&gt;Node7 -->
<g id="edge22" class="edge">
<title>Node15&#45;&gt;Node7</title>
<path fill="none" stroke="midnightblue" d="M763.29,-59.67C780.28,-58.46 798.26,-57.18 815,-56 1028.48,-40.96 1281.55,-23.49 1398.2,-15.46"/>
<polygon fill="midnightblue" stroke="midnightblue" points="1398.64,-18.94 1408.38,-14.76 1398.16,-11.95 1398.64,-18.94"/>
</g>
<!-- Node16 -->
<g id="node16" class="node">
<title>Node16</title>
<g id="a_node16"><a xlink:title=" ">
<polygon fill="white" stroke="#bfbfbf" points="425,-0.5 425,-19.5 523,-19.5 523,-0.5 425,-0.5"/>
<text text-anchor="middle" x="474" y="-7.5" font-family="Helvetica,sans-Serif" font-size="10.00">AMReX_Vector.H</text>
</a>
</g>
</g>
<!-- Node15&#45;&gt;Node16 -->
<g id="edge23" class="edge">
<title>Node15&#45;&gt;Node16</title>
<path fill="none" stroke="midnightblue" d="M654.93,-56.44C617.82,-47.12 558.34,-32.18 517.79,-22"/>
<polygon fill="midnightblue" stroke="midnightblue" points="518.46,-18.56 507.91,-19.52 516.75,-25.35 518.46,-18.56"/>
</g>
<!-- Node17&#45;&gt;Node3 -->
<g id="edge25" class="edge">
<title>Node17&#45;&gt;Node3</title>
<path fill="none" stroke="midnightblue" d="M147.73,-112.36C150.66,-99.26 157.54,-74 170,-56 178.18,-44.19 190.15,-33.54 200.55,-25.57"/>
<polygon fill="midnightblue" stroke="midnightblue" points="202.79,-28.27 208.8,-19.54 198.66,-22.62 202.79,-28.27"/>
</g>
<!-- Node17&#45;&gt;Node5 -->
<g id="edge26" class="edge">
<title>Node17&#45;&gt;Node5</title>
<path fill="none" stroke="midnightblue" d="M164.08,-112.32C194.88,-97.96 259.85,-69.5 318,-56 445.27,-26.46 596.13,-16.24 692.66,-12.75"/>
<polygon fill="midnightblue" stroke="midnightblue" points="692.83,-16.25 702.7,-12.41 692.59,-9.25 692.83,-16.25"/>
</g>
<!-- Node17&#45;&gt;Node18 -->
<g id="edge27" class="edge">
<title>Node17&#45;&gt;Node18</title>
<path fill="none" stroke="midnightblue" d="M131.54,-112.32C117.5,-103.9 95.95,-90.97 79.46,-81.07"/>
<polygon fill="midnightblue" stroke="midnightblue" points="80.8,-77.8 70.42,-75.65 77.2,-83.8 80.8,-77.8"/>
</g>
<!-- Node19&#45;&gt;Node3 -->
<g id="edge29" class="edge">
<title>Node19&#45;&gt;Node3</title>
<path fill="none" stroke="midnightblue" d="M433.32,-112.47C394.85,-105.92 346.77,-94.71 307,-76 280.38,-63.47 254.16,-41.56 238.04,-26.68"/>
<polygon fill="midnightblue" stroke="midnightblue" points="240.25,-23.95 230.58,-19.62 235.44,-29.04 240.25,-23.95"/>
</g>
<!-- Node19&#45;&gt;Node5 -->
<g id="edge31" class="edge">
<title>Node19&#45;&gt;Node5</title>
<path fill="none" stroke="midnightblue" d="M513.18,-112.3C531.55,-98.43 569.7,-71.29 606,-56 644.57,-39.76 690.23,-28.58 726.54,-21.42"/>
<polygon fill="midnightblue" stroke="midnightblue" points="727.36,-24.83 736.52,-19.51 726.04,-17.95 727.36,-24.83"/>
</g>
<!-- Node19&#45;&gt;Node7 -->
<g id="edge33" class="edge">
<title>Node19&#45;&gt;Node7</title>
<path fill="none" stroke="midnightblue" d="M554.03,-112.46C608.42,-103.51 696.23,-88.96 772,-76 822.7,-67.33 834.97,-62.45 886,-56 1071.17,-32.59 1291.42,-19.46 1398.34,-14.02"/>
<polygon fill="midnightblue" stroke="midnightblue" points="1398.52,-17.51 1408.33,-13.51 1398.17,-10.52 1398.52,-17.51"/>
</g>
<!-- Node19&#45;&gt;Node15 -->
<g id="edge32" class="edge">
<title>Node19&#45;&gt;Node15</title>
<path fill="none" stroke="midnightblue" d="M531.63,-112.44C563.5,-103.24 614.33,-88.56 649.56,-78.39"/>
<polygon fill="midnightblue" stroke="midnightblue" points="650.87,-81.65 659.51,-75.52 648.93,-74.93 650.87,-81.65"/>
</g>
<!-- Node19&#45;&gt;Node16 -->
<g id="edge34" class="edge">
<title>Node19&#45;&gt;Node16</title>
<path fill="none" stroke="midnightblue" d="M429.2,-112.43C384,-105.45 331.96,-93.78 318,-76 288.67,-38.63 358.85,-22.53 414.4,-15.74"/>
<polygon fill="midnightblue" stroke="midnightblue" points="415.03,-19.19 424.57,-14.58 414.24,-12.24 415.03,-19.19"/>
</g>
<!-- Node20 -->
<g id="node20" class="node">
<title>Node20</title>
<g id="a_node20"><a xlink:title=" ">
<polygon fill="white" stroke="#bfbfbf" points="326.5,-56.5 326.5,-75.5 371.5,-75.5 371.5,-56.5 326.5,-56.5"/>
<text text-anchor="middle" x="349" y="-63.5" font-family="Helvetica,sans-Serif" font-size="10.00">utility</text>
</a>
</g>
</g>
<!-- Node19&#45;&gt;Node20 -->
<g id="edge30" class="edge">
<title>Node19&#45;&gt;Node20</title>
<path fill="none" stroke="midnightblue" d="M477.76,-112.44C451.68,-103.24 410.08,-88.56 381.25,-78.38"/>
<polygon fill="midnightblue" stroke="midnightblue" points="382.23,-75.02 371.63,-74.99 379.9,-81.62 382.23,-75.02"/>
</g>
<!-- Node21 -->
<g id="node21" class="node">
<title>Node21</title>
<g id="a_node21"><a xlink:title=" ">
<polygon fill="white" stroke="#bfbfbf" points="389.5,-56.5 389.5,-75.5 520.5,-75.5 520.5,-56.5 389.5,-56.5"/>
<text text-anchor="middle" x="455" y="-63.5" font-family="Helvetica,sans-Serif" font-size="10.00">AMReX_PhysBCFunct.H</text>
</a>
</g>
</g>
<!-- Node19&#45;&gt;Node21 -->
<g id="edge35" class="edge">
<title>Node19&#45;&gt;Node21</title>
<path fill="none" stroke="midnightblue" d="M494.24,-112.08C487.46,-104.3 477.46,-92.8 469.24,-83.37"/>
<polygon fill="midnightblue" stroke="midnightblue" points="471.82,-81 462.62,-75.75 466.54,-85.59 471.82,-81"/>
</g>
<!-- Node23&#45;&gt;Node2 -->
<g id="edge48" class="edge">
<title>Node23&#45;&gt;Node2</title>
<path fill="none" stroke="midnightblue" d="M1510.38,-227.93C1429.4,-216.91 1303.41,-199.75 1224.14,-188.96"/>
<polygon fill="midnightblue" stroke="midnightblue" points="1224.13,-185.43 1213.75,-187.54 1223.19,-192.36 1224.13,-185.43"/>
</g>
<!-- Node23&#45;&gt;Node5 -->
<g id="edge46" class="edge">
<title>Node23&#45;&gt;Node5</title>
<path fill="none" stroke="midnightblue" d="M1586.04,-224.45C1580.26,-189.07 1559.82,-96.26 1500,-56 1450.61,-22.75 1072.33,-14.06 889.43,-11.79"/>
<polygon fill="midnightblue" stroke="midnightblue" points="889.31,-8.29 879.27,-11.67 889.23,-15.29 889.31,-8.29"/>
</g>
<!-- Node23&#45;&gt;Node6 -->
<g id="edge47" class="edge">
<title>Node23&#45;&gt;Node6</title>
<path fill="none" stroke="midnightblue" d="M1596.58,-224.34C1609.43,-203.15 1633.61,-163.24 1647.49,-140.34"/>
<polygon fill="midnightblue" stroke="midnightblue" points="1650.56,-142.04 1652.75,-131.67 1644.57,-138.41 1650.56,-142.04"/>
</g>
<!-- Node23&#45;&gt;Node7 -->
<g id="edge49" class="edge">
<title>Node23&#45;&gt;Node7</title>
<path fill="none" stroke="midnightblue" d="M1665.61,-237.42C1847.42,-232.41 2275.31,-204.94 2136,-56 2095.03,-12.2 1688.59,-9.68 1527.9,-10.43"/>
<polygon fill="midnightblue" stroke="midnightblue" points="1527.66,-6.93 1517.67,-10.48 1527.69,-13.93 1527.66,-6.93"/>
</g>
<!-- Node24 -->
<g id="node24" class="node">
<title>Node24</title>
<g id="a_node24"><a xlink:href="_factory_8_h.html" target="_top" xlink:title=" ">
<polygon fill="white" stroke="black" points="1796,-112.5 1796,-131.5 1930,-131.5 1930,-112.5 1796,-112.5"/>
<text text-anchor="middle" x="1863" y="-119.5" font-family="Helvetica,sans-Serif" font-size="10.00">amr&#45;wind/core/Factory.H</text>
</a>
</g>
</g>
<!-- Node23&#45;&gt;Node24 -->
<g id="edge40" class="edge">
<title>Node23&#45;&gt;Node24</title>
<path fill="none" stroke="midnightblue" d="M1621.45,-224.45C1675.64,-201.69 1781.76,-157.12 1833.39,-135.44"/>
<polygon fill="midnightblue" stroke="midnightblue" points="1834.8,-138.64 1842.66,-131.54 1832.09,-132.19 1834.8,-138.64"/>
</g>
<!-- Node24&#45;&gt;Node4 -->
<g id="edge42" class="edge">
<title>Node24&#45;&gt;Node4</title>
<path fill="none" stroke="midnightblue" d="M1796.61,-112.44C1714.9,-101.91 1577.55,-84.21 1500.61,-74.3"/>
<polygon fill="midnightblue" stroke="midnightblue" points="1500.99,-70.82 1490.62,-73.01 1500.09,-77.76 1500.99,-70.82"/>
</g>
<!-- Node24&#45;&gt;Node10 -->
<g id="edge41" class="edge">
<title>Node24&#45;&gt;Node10</title>
<path fill="none" stroke="midnightblue" d="M1851.91,-112.32C1841.51,-104.18 1825.74,-91.84 1813.28,-82.09"/>
<polygon fill="midnightblue" stroke="midnightblue" points="1815.32,-79.24 1805.29,-75.83 1811.01,-84.75 1815.32,-79.24"/>
</g>
<!-- Node25 -->
<g id="node25" class="node">
<title>Node25</title>
<g id="a_node25"><a xlink:title=" ">
<polygon fill="white" stroke="#bfbfbf" points="1959,-56.5 1959,-75.5 2019,-75.5 2019,-56.5 1959,-56.5"/>
<text text-anchor="middle" x="1989" y="-63.5" font-family="Helvetica,sans-Serif" font-size="10.00">iostream</text>
</a>
</g>
</g>
<!-- Node24&#45;&gt;Node25 -->
<g id="edge43" class="edge">
<title>Node24&#45;&gt;Node25</title>
<path fill="none" stroke="midnightblue" d="M1882.97,-112.44C1903.61,-103.6 1936.06,-89.69 1959.63,-79.59"/>
<polygon fill="midnightblue" stroke="midnightblue" points="1961.32,-82.67 1969.13,-75.52 1958.56,-76.24 1961.32,-82.67"/>
</g>
<!-- Node26 -->
<g id="node26" class="node">
<title>Node26</title>
<g id="a_node26"><a xlink:title=" ">
<polygon fill="white" stroke="#bfbfbf" points="2037,-56.5 2037,-75.5 2127,-75.5 2127,-56.5 2037,-56.5"/>
<text text-anchor="middle" x="2082" y="-63.5" font-family="Helvetica,sans-Serif" font-size="10.00">AMReX_Print.H</text>
</a>
</g>
</g>
<!-- Node24&#45;&gt;Node26 -->
<g id="edge44" class="edge">
<title>Node24&#45;&gt;Node26</title>
<path fill="none" stroke="midnightblue" d="M1897.7,-112.44C1935.58,-103.1 1996.35,-88.12 2037.66,-77.93"/>
<polygon fill="midnightblue" stroke="midnightblue" points="2038.59,-81.31 2047.46,-75.52 2036.91,-74.51 2038.59,-81.31"/>
</g>
<!-- Node27 -->
<g id="node27" class="node">
<title>Node27</title>
<g id="a_node27"><a xlink:title=" ">
<polygon fill="white" stroke="#bfbfbf" points="1879,-56.5 1879,-75.5 1941,-75.5 1941,-56.5 1879,-56.5"/>
<text text-anchor="middle" x="1910" y="-63.5" font-family="Helvetica,sans-Serif" font-size="10.00">AMReX.H</text>
</a>
</g>
</g>
<!-- Node24&#45;&gt;Node27 -->
<g id="edge45" class="edge">
<title>Node24&#45;&gt;Node27</title>
<path fill="none" stroke="midnightblue" d="M1870.76,-112.08C1877.54,-104.3 1887.54,-92.8 1895.76,-83.37"/>
<polygon fill="midnightblue" stroke="midnightblue" points="1898.46,-85.59 1902.38,-75.75 1893.18,-81 1898.46,-85.59"/>
</g>
</g>
</svg>
