<?xml version="1.0" encoding="UTF-8" standalone="no"?>
<!DOCTYPE svg PUBLIC "-//W3C//DTD SVG 1.1//EN"
 "http://www.w3.org/Graphics/SVG/1.1/DTD/svg11.dtd">
<!-- Generated by graphviz version 2.43.0 (0)
 -->
<!-- Title: DerivedQuantity.cpp Pages: 1 -->
<svg width="2572pt" height="408pt"
 viewBox="0.00 0.00 2571.56 408.00" xmlns="http://www.w3.org/2000/svg" xmlns:xlink="http://www.w3.org/1999/xlink">
<g id="graph0" class="graph" transform="scale(1 1) rotate(0) translate(4 404)">
<title>DerivedQuantity.cpp</title>
<polygon fill="white" stroke="transparent" points="-4,4 -4,-404 2567.56,-404 2567.56,4 -4,4"/>
<!-- Node1 -->
<g id="node1" class="node">
<title>Node1</title>
<g id="a_node1"><a xlink:title=" ">
<polygon fill="#bfbfbf" stroke="black" points="1008,-380.5 1008,-399.5 1124,-399.5 1124,-380.5 1008,-380.5"/>
<text text-anchor="middle" x="1066" y="-387.5" font-family="Helvetica,sans-Serif" font-size="10.00">DerivedQuantity.cpp</text>
</a>
</g>
</g>
<!-- Node2 -->
<g id="node2" class="node">
<title>Node2</title>
<g id="a_node2"><a xlink:title=" ">
<polygon fill="white" stroke="#bfbfbf" points="411,-0.5 411,-19.5 455,-19.5 455,-0.5 411,-0.5"/>
<text text-anchor="middle" x="433" y="-7.5" font-family="Helvetica,sans-Serif" font-size="10.00">string</text>
</a>
</g>
</g>
<!-- Node1&#45;&gt;Node2 -->
<g id="edge1" class="edge">
<title>Node1&#45;&gt;Node2</title>
<path fill="none" stroke="midnightblue" d="M1007.9,-387.29C809.35,-380.69 170,-352.86 170,-268 170,-268 170,-268 170,-137.5 170,-95.24 184.56,-80.5 219,-56 273.99,-16.88 355.79,-10.39 400.65,-10.08"/>
<polygon fill="midnightblue" stroke="midnightblue" points="400.69,-13.58 410.7,-10.11 400.71,-6.58 400.69,-13.58"/>
</g>
<!-- Node3 -->
<g id="node3" class="node">
<title>Node3</title>
<g id="a_node3"><a xlink:title=" ">
<polygon fill="white" stroke="#bfbfbf" points="2154,-62 2154,-81 2218,-81 2218,-62 2154,-62"/>
<text text-anchor="middle" x="2186" y="-69" font-family="Helvetica,sans-Serif" font-size="10.00">algorithm</text>
</a>
</g>
</g>
<!-- Node1&#45;&gt;Node3 -->
<g id="edge2" class="edge">
<title>Node1&#45;&gt;Node3</title>
<path fill="none" stroke="midnightblue" d="M1124.03,-388.53C1275.66,-386.83 1696.04,-379.05 2044,-344 2261.96,-322.04 2531,-487.06 2531,-268 2531,-268 2531,-268 2531,-204.5 2531,-167.31 2539.27,-148.29 2512,-123 2509.4,-120.59 2315.9,-91.71 2228.28,-78.74"/>
<polygon fill="midnightblue" stroke="midnightblue" points="2228.55,-75.24 2218.14,-77.24 2227.52,-82.17 2228.55,-75.24"/>
</g>
<!-- Node4 -->
<g id="node4" class="node">
<title>Node4</title>
<g id="a_node4"><a xlink:href="_derived_quantity_8_h.html" target="_top" xlink:title=" ">
<polygon fill="white" stroke="black" points="1926.5,-313.5 1926.5,-343.5 2035.5,-343.5 2035.5,-313.5 1926.5,-313.5"/>
<text text-anchor="start" x="1934.5" y="-331.5" font-family="Helvetica,sans-Serif" font-size="10.00">amr&#45;wind/utilities</text>
<text text-anchor="middle" x="1981" y="-320.5" font-family="Helvetica,sans-Serif" font-size="10.00">/DerivedQuantity.H</text>
</a>
</g>
</g>
<!-- Node1&#45;&gt;Node4 -->
<g id="edge3" class="edge">
<title>Node1&#45;&gt;Node4</title>
<path fill="none" stroke="midnightblue" d="M1124.28,-385.21C1287.07,-374.62 1745.81,-344.79 1916.21,-333.71"/>
<polygon fill="midnightblue" stroke="midnightblue" points="1916.54,-337.2 1926.29,-333.06 1916.08,-330.21 1916.54,-337.2"/>
</g>
<!-- Node41 -->
<g id="node41" class="node">
<title>Node41</title>
<g id="a_node41"><a xlink:href="io__utils_8_h.html" target="_top" xlink:title=" ">
<polygon fill="white" stroke="black" points="38.5,-56.5 38.5,-86.5 141.5,-86.5 141.5,-56.5 38.5,-56.5"/>
<text text-anchor="start" x="46.5" y="-74.5" font-family="Helvetica,sans-Serif" font-size="10.00">amr&#45;wind/utilities</text>
<text text-anchor="middle" x="90" y="-63.5" font-family="Helvetica,sans-Serif" font-size="10.00">/io_utils.H</text>
</a>
</g>
</g>
<!-- Node1&#45;&gt;Node41 -->
<g id="edge81" class="edge">
<title>Node1&#45;&gt;Node41</title>
<path fill="none" stroke="midnightblue" d="M1007.74,-389.29C818.42,-389.8 228.63,-387.81 156,-344 122.39,-323.72 111,-307.25 111,-268 111,-268 111,-268 111,-204.5 111,-166.36 102.34,-122.79 96.15,-96.47"/>
<polygon fill="midnightblue" stroke="midnightblue" points="99.52,-95.53 93.75,-86.64 92.72,-97.19 99.52,-95.53"/>
</g>
<!-- Node4&#45;&gt;Node2 -->
<g id="edge4" class="edge">
<title>Node4&#45;&gt;Node2</title>
<path fill="none" stroke="midnightblue" d="M1926.48,-326.7C1628.28,-321.98 208,-294.86 208,-206.5 208,-206.5 208,-206.5 208,-137.5 208,-95.24 223.1,-81.24 257,-56 299.71,-24.21 362.64,-14.78 400.54,-12.04"/>
<polygon fill="midnightblue" stroke="midnightblue" points="401.21,-15.51 410.99,-11.41 400.79,-8.52 401.21,-15.51"/>
</g>
<!-- Node5 -->
<g id="node5" class="node">
<title>Node5</title>
<g id="a_node5"><a xlink:title=" ">
<polygon fill="white" stroke="#bfbfbf" points="1966.5,-62 1966.5,-81 2059.5,-81 2059.5,-62 1966.5,-62"/>
<text text-anchor="middle" x="2013" y="-69" font-family="Helvetica,sans-Serif" font-size="10.00">unordered_map</text>
</a>
</g>
</g>
<!-- Node4&#45;&gt;Node5 -->
<g id="edge5" class="edge">
<title>Node4&#45;&gt;Node5</title>
<path fill="none" stroke="midnightblue" d="M2035.72,-318.36C2122.89,-302.57 2286.94,-267.36 2321,-221 2346.79,-185.9 2349.54,-155.9 2321,-123 2283.94,-80.27 2124.47,-98.11 2069,-87 2063.9,-85.98 2058.57,-84.78 2053.31,-83.51"/>
<polygon fill="midnightblue" stroke="midnightblue" points="2053.93,-80.05 2043.37,-81.02 2052.23,-86.85 2053.93,-80.05"/>
</g>
<!-- Node6 -->
<g id="node6" class="node">
<title>Node6</title>
<g id="a_node6"><a xlink:title=" ">
<polygon fill="white" stroke="#bfbfbf" points="2364.5,-257.5 2364.5,-276.5 2411.5,-276.5 2411.5,-257.5 2364.5,-257.5"/>
<text text-anchor="middle" x="2388" y="-264.5" font-family="Helvetica,sans-Serif" font-size="10.00">vector</text>
</a>
</g>
</g>
<!-- Node4&#45;&gt;Node6 -->
<g id="edge6" class="edge">
<title>Node4&#45;&gt;Node6</title>
<path fill="none" stroke="midnightblue" d="M2035.66,-321.69C2107.92,-313.63 2239.08,-297.68 2350,-277 2351.46,-276.73 2352.94,-276.44 2354.44,-276.13"/>
<polygon fill="midnightblue" stroke="midnightblue" points="2355.33,-279.52 2364.36,-273.97 2353.84,-272.68 2355.33,-279.52"/>
</g>
<!-- Node7 -->
<g id="node7" class="node">
<title>Node7</title>
<g id="a_node7"><a xlink:href="_factory_8_h.html" target="_top" xlink:title=" ">
<polygon fill="white" stroke="black" points="2369,-129 2369,-148 2503,-148 2503,-129 2369,-129"/>
<text text-anchor="middle" x="2436" y="-136" font-family="Helvetica,sans-Serif" font-size="10.00">amr&#45;wind/core/Factory.H</text>
</a>
</g>
</g>
<!-- Node4&#45;&gt;Node7 -->
<g id="edge7" class="edge">
<title>Node4&#45;&gt;Node7</title>
<path fill="none" stroke="midnightblue" d="M2035.52,-324.97C2147.09,-319.25 2393.23,-303.73 2420,-277 2451.51,-245.53 2445.79,-187.56 2440.22,-157.96"/>
<polygon fill="midnightblue" stroke="midnightblue" points="2443.64,-157.19 2438.17,-148.11 2436.78,-158.62 2443.64,-157.19"/>
</g>
<!-- Node12 -->
<g id="node12" class="node">
<title>Node12</title>
<g id="a_node12"><a xlink:href="_coll_mgr_8_h.html" target="_top" xlink:title=" ">
<polygon fill="white" stroke="black" points="2003.5,-129 2003.5,-148 2140.5,-148 2140.5,-129 2003.5,-129"/>
<text text-anchor="middle" x="2072" y="-136" font-family="Helvetica,sans-Serif" font-size="10.00">amr&#45;wind/core/CollMgr.H</text>
</a>
</g>
</g>
<!-- Node4&#45;&gt;Node12 -->
<g id="edge13" class="edge">
<title>Node4&#45;&gt;Node12</title>
<path fill="none" stroke="midnightblue" d="M1979.45,-313.42C1977.26,-287.09 1975.89,-229.49 2000,-190 2009.95,-173.71 2027.36,-161.28 2042.57,-152.83"/>
<polygon fill="midnightblue" stroke="midnightblue" points="2044.42,-155.82 2051.66,-148.09 2041.18,-149.61 2044.42,-155.82"/>
</g>
<!-- Node14 -->
<g id="node14" class="node">
<title>Node14</title>
<g id="a_node14"><a xlink:href="_c_f_d_sim_8_h.html" target="_top" xlink:title=" ">
<polygon fill="white" stroke="black" points="1729,-257.5 1729,-276.5 1845,-276.5 1845,-257.5 1729,-257.5"/>
<text text-anchor="middle" x="1787" y="-264.5" font-family="Helvetica,sans-Serif" font-size="10.00">amr&#45;wind/CFDSim.H</text>
</a>
</g>
</g>
<!-- Node4&#45;&gt;Node14 -->
<g id="edge18" class="edge">
<title>Node4&#45;&gt;Node14</title>
<path fill="none" stroke="midnightblue" d="M1935.02,-313.4C1901.36,-303.07 1856.22,-289.23 1824.68,-279.56"/>
<polygon fill="midnightblue" stroke="midnightblue" points="1825.53,-276.16 1814.95,-276.57 1823.48,-282.85 1825.53,-276.16"/>
</g>
<!-- Node7&#45;&gt;Node5 -->
<g id="edge9" class="edge">
<title>Node7&#45;&gt;Node5</title>
<path fill="none" stroke="midnightblue" d="M2390.66,-128.96C2379.05,-126.89 2366.58,-124.76 2355,-123 2228.35,-103.71 2194.83,-111.11 2069,-87 2063.83,-86.01 2058.43,-84.82 2053.11,-83.55"/>
<polygon fill="midnightblue" stroke="midnightblue" points="2053.61,-80.06 2043.06,-81.04 2051.92,-86.86 2053.61,-80.06"/>
</g>
<!-- Node8 -->
<g id="node8" class="node">
<title>Node8</title>
<g id="a_node8"><a xlink:title=" ">
<polygon fill="white" stroke="#bfbfbf" points="2078,-62 2078,-81 2136,-81 2136,-62 2078,-62"/>
<text text-anchor="middle" x="2107" y="-69" font-family="Helvetica,sans-Serif" font-size="10.00">memory</text>
</a>
</g>
</g>
<!-- Node7&#45;&gt;Node8 -->
<g id="edge8" class="edge">
<title>Node7&#45;&gt;Node8</title>
<path fill="none" stroke="midnightblue" d="M2388.47,-128.93C2377.48,-126.97 2365.84,-124.9 2355,-123 2261.73,-106.66 2236.34,-112 2145,-87 2142.35,-86.27 2139.62,-85.43 2136.9,-84.53"/>
<polygon fill="midnightblue" stroke="midnightblue" points="2137.86,-81.15 2127.27,-81.07 2135.5,-87.74 2137.86,-81.15"/>
</g>
<!-- Node9 -->
<g id="node9" class="node">
<title>Node9</title>
<g id="a_node9"><a xlink:title=" ">
<polygon fill="white" stroke="#bfbfbf" points="2481,-62 2481,-81 2541,-81 2541,-62 2481,-62"/>
<text text-anchor="middle" x="2511" y="-69" font-family="Helvetica,sans-Serif" font-size="10.00">iostream</text>
</a>
</g>
</g>
<!-- Node7&#45;&gt;Node9 -->
<g id="edge10" class="edge">
<title>Node7&#45;&gt;Node9</title>
<path fill="none" stroke="midnightblue" d="M2446.11,-128.73C2458.15,-118.31 2478.45,-100.71 2493.15,-87.97"/>
<polygon fill="midnightblue" stroke="midnightblue" points="2495.78,-90.32 2501.05,-81.13 2491.2,-85.03 2495.78,-90.32"/>
</g>
<!-- Node10 -->
<g id="node10" class="node">
<title>Node10</title>
<g id="a_node10"><a xlink:title=" ">
<polygon fill="white" stroke="#bfbfbf" points="2293,-62 2293,-81 2383,-81 2383,-62 2293,-62"/>
<text text-anchor="middle" x="2338" y="-69" font-family="Helvetica,sans-Serif" font-size="10.00">AMReX_Print.H</text>
</a>
</g>
</g>
<!-- Node7&#45;&gt;Node10 -->
<g id="edge11" class="edge">
<title>Node7&#45;&gt;Node10</title>
<path fill="none" stroke="midnightblue" d="M2422.78,-128.73C2406.55,-117.96 2378.78,-99.55 2359.47,-86.74"/>
<polygon fill="midnightblue" stroke="midnightblue" points="2361.28,-83.74 2351.01,-81.13 2357.41,-89.57 2361.28,-83.74"/>
</g>
<!-- Node11 -->
<g id="node11" class="node">
<title>Node11</title>
<g id="a_node11"><a xlink:title=" ">
<polygon fill="white" stroke="#bfbfbf" points="2401,-62 2401,-81 2463,-81 2463,-62 2401,-62"/>
<text text-anchor="middle" x="2432" y="-69" font-family="Helvetica,sans-Serif" font-size="10.00">AMReX.H</text>
</a>
</g>
</g>
<!-- Node7&#45;&gt;Node11 -->
<g id="edge12" class="edge">
<title>Node7&#45;&gt;Node11</title>
<path fill="none" stroke="midnightblue" d="M2435.46,-128.73C2434.87,-119.18 2433.91,-103.62 2433.16,-91.28"/>
<polygon fill="midnightblue" stroke="midnightblue" points="2436.64,-90.89 2432.53,-81.13 2429.65,-91.32 2436.64,-90.89"/>
</g>
<!-- Node12&#45;&gt;Node2 -->
<g id="edge14" class="edge">
<title>Node12&#45;&gt;Node2</title>
<path fill="none" stroke="midnightblue" d="M2042.3,-128.95C2010.32,-119.52 1958.1,-103.5 1914,-87 1881.37,-74.79 1876.01,-63.58 1842,-56 1833.31,-54.06 674.97,-18.43 465.33,-11.99"/>
<polygon fill="midnightblue" stroke="midnightblue" points="465.37,-8.49 455.27,-11.68 465.16,-15.49 465.37,-8.49"/>
</g>
<!-- Node12&#45;&gt;Node5 -->
<g id="edge16" class="edge">
<title>Node12&#45;&gt;Node5</title>
<path fill="none" stroke="midnightblue" d="M2064.04,-128.73C2054.75,-118.5 2039.2,-101.36 2027.7,-88.69"/>
<polygon fill="midnightblue" stroke="midnightblue" points="2030.14,-86.18 2020.83,-81.13 2024.96,-90.88 2030.14,-86.18"/>
</g>
<!-- Node12&#45;&gt;Node8 -->
<g id="edge15" class="edge">
<title>Node12&#45;&gt;Node8</title>
<path fill="none" stroke="midnightblue" d="M2076.72,-128.73C2082.02,-118.89 2090.76,-102.66 2097.49,-90.16"/>
<polygon fill="midnightblue" stroke="midnightblue" points="2100.7,-91.59 2102.35,-81.13 2094.53,-88.27 2100.7,-91.59"/>
</g>
<!-- Node13 -->
<g id="node13" class="node">
<title>Node13</title>
<g id="a_node13"><a xlink:title=" ">
<polygon fill="white" stroke="#bfbfbf" points="735,-0.5 735,-19.5 833,-19.5 833,-0.5 735,-0.5"/>
<text text-anchor="middle" x="784" y="-7.5" font-family="Helvetica,sans-Serif" font-size="10.00">AMReX_Vector.H</text>
</a>
</g>
</g>
<!-- Node12&#45;&gt;Node13 -->
<g id="edge17" class="edge">
<title>Node12&#45;&gt;Node13</title>
<path fill="none" stroke="midnightblue" d="M2048.84,-128.99C2025.11,-119.9 1987.48,-104.42 1957,-87 1936.55,-75.31 1936.29,-63.63 1914,-56 1805.87,-18.98 1000.08,-27.03 886,-20 872.15,-19.15 857.26,-17.98 843.26,-16.76"/>
<polygon fill="midnightblue" stroke="midnightblue" points="843.52,-13.27 833.25,-15.88 842.9,-20.25 843.52,-13.27"/>
</g>
<!-- Node15 -->
<g id="node15" class="node">
<title>Node15</title>
<g id="a_node15"><a xlink:title=" ">
<polygon fill="white" stroke="#bfbfbf" points="1087,-129 1087,-148 1197,-148 1197,-129 1087,-129"/>
<text text-anchor="middle" x="1142" y="-136" font-family="Helvetica,sans-Serif" font-size="10.00">AMReX_AmrCore.H</text>
</a>
</g>
</g>
<!-- Node14&#45;&gt;Node15 -->
<g id="edge19" class="edge">
<title>Node14&#45;&gt;Node15</title>
<path fill="none" stroke="midnightblue" d="M1728.89,-264.99C1644.36,-262.42 1483.04,-253.28 1350,-221 1282.07,-204.52 1206.7,-170.85 1168.03,-152.36"/>
<polygon fill="midnightblue" stroke="midnightblue" points="1169.54,-149.21 1159.01,-148.01 1166.5,-155.51 1169.54,-149.21"/>
</g>
<!-- Node16 -->
<g id="node16" class="node">
<title>Node16</title>
<g id="a_node16"><a xlink:href="_sim_time_8_h.html" target="_top" xlink:title=" ">
<polygon fill="white" stroke="black" points="1715,-196 1715,-215 1859,-215 1859,-196 1715,-196"/>
<text text-anchor="middle" x="1787" y="-203" font-family="Helvetica,sans-Serif" font-size="10.00">amr&#45;wind/core/SimTime.H</text>
</a>
</g>
</g>
<!-- Node14&#45;&gt;Node16 -->
<g id="edge20" class="edge">
<title>Node14&#45;&gt;Node16</title>
<path fill="none" stroke="midnightblue" d="M1787,-257.48C1787,-249.08 1787,-235.98 1787,-225.16"/>
<polygon fill="midnightblue" stroke="midnightblue" points="1790.5,-225.01 1787,-215.01 1783.5,-225.01 1790.5,-225.01"/>
</g>
<!-- Node20 -->
<g id="node20" class="node">
<title>Node20</title>
<g id="a_node20"><a xlink:href="_field_repo_8_h.html" target="_top" xlink:title=" ">
<polygon fill="white" stroke="black" points="908.5,-196 908.5,-215 1057.5,-215 1057.5,-196 908.5,-196"/>
<text text-anchor="middle" x="983" y="-203" font-family="Helvetica,sans-Serif" font-size="10.00">amr&#45;wind/core/FieldRepo.H</text>
</a>
</g>
</g>
<!-- Node14&#45;&gt;Node20 -->
<g id="edge24" class="edge">
<title>Node14&#45;&gt;Node20</title>
<path fill="none" stroke="midnightblue" d="M1728.85,-261.7C1588.68,-251.32 1231.61,-224.9 1067.65,-212.76"/>
<polygon fill="midnightblue" stroke="midnightblue" points="1067.84,-209.27 1057.61,-212.02 1067.32,-216.25 1067.84,-209.27"/>
</g>
<!-- Node35 -->
<g id="node35" class="node">
<title>Node35</title>
<g id="a_node35"><a xlink:href="_p_d_e_base_8_h.html" target="_top" xlink:title=" ">
<polygon fill="white" stroke="black" points="1359.5,-190.5 1359.5,-220.5 1514.5,-220.5 1514.5,-190.5 1359.5,-190.5"/>
<text text-anchor="start" x="1367.5" y="-208.5" font-family="Helvetica,sans-Serif" font-size="10.00">amr&#45;wind/equation_systems</text>
<text text-anchor="middle" x="1437" y="-197.5" font-family="Helvetica,sans-Serif" font-size="10.00">/PDEBase.H</text>
</a>
</g>
</g>
<!-- Node14&#45;&gt;Node35 -->
<g id="edge62" class="edge">
<title>Node14&#45;&gt;Node35</title>
<path fill="none" stroke="midnightblue" d="M1736.85,-257.48C1681.66,-248.09 1591.89,-232.83 1524.93,-221.45"/>
<polygon fill="midnightblue" stroke="midnightblue" points="1525.25,-217.95 1514.81,-219.73 1524.08,-224.85 1525.25,-217.95"/>
</g>
<!-- Node38 -->
<g id="node38" class="node">
<title>Node38</title>
<g id="a_node38"><a xlink:href="_physics_8_h.html" target="_top" xlink:title=" ">
<polygon fill="white" stroke="black" points="2175.5,-196 2175.5,-215 2312.5,-215 2312.5,-196 2175.5,-196"/>
<text text-anchor="middle" x="2244" y="-203" font-family="Helvetica,sans-Serif" font-size="10.00">amr&#45;wind/core/Physics.H</text>
</a>
</g>
</g>
<!-- Node14&#45;&gt;Node38 -->
<g id="edge70" class="edge">
<title>Node14&#45;&gt;Node38</title>
<path fill="none" stroke="midnightblue" d="M1845.27,-260.28C1919.82,-252.69 2052.84,-238.22 2166,-221 2174.04,-219.78 2182.51,-218.35 2190.8,-216.87"/>
<polygon fill="midnightblue" stroke="midnightblue" points="2191.55,-220.29 2200.77,-215.06 2190.3,-213.41 2191.55,-220.29"/>
</g>
<!-- Node40 -->
<g id="node40" class="node">
<title>Node40</title>
<g id="a_node40"><a xlink:href="_mesh_map_8_h.html" target="_top" xlink:title=" ">
<polygon fill="white" stroke="black" points="2009,-196 2009,-215 2157,-215 2157,-196 2009,-196"/>
<text text-anchor="middle" x="2083" y="-203" font-family="Helvetica,sans-Serif" font-size="10.00">amr&#45;wind/core/MeshMap.H</text>
</a>
</g>
</g>
<!-- Node14&#45;&gt;Node40 -->
<g id="edge75" class="edge">
<title>Node14&#45;&gt;Node40</title>
<path fill="none" stroke="midnightblue" d="M1829.41,-257.48C1882.49,-246.8 1973.39,-228.53 2030.72,-217.01"/>
<polygon fill="midnightblue" stroke="midnightblue" points="2031.55,-220.41 2040.67,-215.01 2030.18,-213.55 2031.55,-220.41"/>
</g>
<!-- Node17 -->
<g id="node17" class="node">
<title>Node17</title>
<g id="a_node17"><a xlink:title=" ">
<polygon fill="white" stroke="#bfbfbf" points="1741,-129 1741,-148 1833,-148 1833,-129 1741,-129"/>
<text text-anchor="middle" x="1787" y="-136" font-family="Helvetica,sans-Serif" font-size="10.00">AMReX_REAL.H</text>
</a>
</g>
</g>
<!-- Node16&#45;&gt;Node17 -->
<g id="edge21" class="edge">
<title>Node16&#45;&gt;Node17</title>
<path fill="none" stroke="midnightblue" d="M1787,-195.73C1787,-186.18 1787,-170.62 1787,-158.28"/>
<polygon fill="midnightblue" stroke="midnightblue" points="1790.5,-158.13 1787,-148.13 1783.5,-158.13 1790.5,-158.13"/>
</g>
<!-- Node18 -->
<g id="node18" class="node">
<title>Node18</title>
<g id="a_node18"><a xlink:title=" ">
<polygon fill="white" stroke="#bfbfbf" points="1851,-129 1851,-148 1985,-148 1985,-129 1851,-129"/>
<text text-anchor="middle" x="1918" y="-136" font-family="Helvetica,sans-Serif" font-size="10.00">AMReX_GpuQualifiers.H</text>
</a>
</g>
</g>
<!-- Node16&#45;&gt;Node18 -->
<g id="edge22" class="edge">
<title>Node16&#45;&gt;Node18</title>
<path fill="none" stroke="midnightblue" d="M1804.4,-195.87C1826.61,-184.84 1865.29,-165.66 1891.26,-152.77"/>
<polygon fill="midnightblue" stroke="midnightblue" points="1893.13,-155.75 1900.53,-148.17 1890.02,-149.48 1893.13,-155.75"/>
</g>
<!-- Node19 -->
<g id="node19" class="node">
<title>Node19</title>
<g id="a_node19"><a xlink:title=" ">
<polygon fill="white" stroke="#bfbfbf" points="1607,-129 1607,-148 1723,-148 1723,-129 1607,-129"/>
<text text-anchor="middle" x="1665" y="-136" font-family="Helvetica,sans-Serif" font-size="10.00">AMReX_Extension.H</text>
</a>
</g>
</g>
<!-- Node16&#45;&gt;Node19 -->
<g id="edge23" class="edge">
<title>Node16&#45;&gt;Node19</title>
<path fill="none" stroke="midnightblue" d="M1770.8,-195.87C1750.2,-184.89 1714.41,-165.82 1690.22,-152.94"/>
<polygon fill="midnightblue" stroke="midnightblue" points="1691.74,-149.78 1681.27,-148.17 1688.45,-155.96 1691.74,-149.78"/>
</g>
<!-- Node20&#45;&gt;Node2 -->
<g id="edge25" class="edge">
<title>Node20&#45;&gt;Node2</title>
<path fill="none" stroke="midnightblue" d="M908.49,-203.47C765.32,-200.67 457.17,-190.48 358,-154 310.19,-136.41 288.22,-132.34 265,-87 237.11,-32.53 344.57,-17.03 400.78,-12.67"/>
<polygon fill="midnightblue" stroke="midnightblue" points="401.22,-16.15 410.96,-11.96 400.74,-9.17 401.22,-16.15"/>
</g>
<!-- Node20&#45;&gt;Node5 -->
<g id="edge26" class="edge">
<title>Node20&#45;&gt;Node5</title>
<path fill="none" stroke="midnightblue" d="M991.46,-195.95C1010.71,-176.71 1057.7,-131.06 1078,-123 1156.98,-91.63 1757.2,-92.59 1842,-87 1880.12,-84.49 1922.96,-80.85 1956.22,-77.85"/>
<polygon fill="midnightblue" stroke="midnightblue" points="1956.58,-81.33 1966.22,-76.94 1955.95,-74.36 1956.58,-81.33"/>
</g>
<!-- Node20&#45;&gt;Node15 -->
<g id="edge59" class="edge">
<title>Node20&#45;&gt;Node15</title>
<path fill="none" stroke="midnightblue" d="M1004.11,-195.87C1031.63,-184.62 1079.95,-164.87 1111.46,-151.99"/>
<polygon fill="midnightblue" stroke="midnightblue" points="1113.12,-155.09 1121.05,-148.06 1110.47,-148.61 1113.12,-155.09"/>
</g>
<!-- Node21 -->
<g id="node21" class="node">
<title>Node21</title>
<g id="a_node21"><a xlink:href="_field_desc_types_8_h.html" target="_top" xlink:title=" ">
<polygon fill="white" stroke="black" points="895,-0.5 895,-19.5 1071,-19.5 1071,-0.5 895,-0.5"/>
<text text-anchor="middle" x="983" y="-7.5" font-family="Helvetica,sans-Serif" font-size="10.00">amr&#45;wind/core/FieldDescTypes.H</text>
</a>
</g>
</g>
<!-- Node20&#45;&gt;Node21 -->
<g id="edge27" class="edge">
<title>Node20&#45;&gt;Node21</title>
<path fill="none" stroke="midnightblue" d="M983.5,-195.79C984.75,-172.9 987.77,-109.09 986,-56 985.71,-47.38 985.12,-37.85 984.53,-29.79"/>
<polygon fill="midnightblue" stroke="midnightblue" points="988.01,-29.32 983.75,-19.62 981.03,-29.86 988.01,-29.32"/>
</g>
<!-- Node22 -->
<g id="node22" class="node">
<title>Node22</title>
<g id="a_node22"><a xlink:href="_field_utils_8_h.html" target="_top" xlink:title=" ">
<polygon fill="white" stroke="black" points="1049,-62 1049,-81 1195,-81 1195,-62 1049,-62"/>
<text text-anchor="middle" x="1122" y="-69" font-family="Helvetica,sans-Serif" font-size="10.00">amr&#45;wind/core/FieldUtils.H</text>
</a>
</g>
</g>
<!-- Node20&#45;&gt;Node22 -->
<g id="edge28" class="edge">
<title>Node20&#45;&gt;Node22</title>
<path fill="none" stroke="midnightblue" d="M983.24,-195.75C984.14,-179.47 988.29,-144.26 1007,-123 1023.82,-103.89 1049.21,-91.71 1071.85,-84.11"/>
<polygon fill="midnightblue" stroke="midnightblue" points="1073.2,-87.36 1081.69,-81.03 1071.1,-80.68 1073.2,-87.36"/>
</g>
<!-- Node23 -->
<g id="node23" class="node">
<title>Node23</title>
<g id="a_node23"><a xlink:title=" ">
<polygon fill="white" stroke="#bfbfbf" points="1231.5,-0.5 1231.5,-19.5 1340.5,-19.5 1340.5,-0.5 1231.5,-0.5"/>
<text text-anchor="middle" x="1286" y="-7.5" font-family="Helvetica,sans-Serif" font-size="10.00">AMReX_MultiFab.H</text>
</a>
</g>
</g>
<!-- Node20&#45;&gt;Node23 -->
<g id="edge60" class="edge">
<title>Node20&#45;&gt;Node23</title>
<path fill="none" stroke="midnightblue" d="M987.37,-195.85C997.16,-176.83 1021.05,-132.33 1035,-123 1110.79,-72.29 1161.09,-137.53 1237,-87 1257.78,-73.17 1271.65,-47.2 1279.18,-29.51"/>
<polygon fill="midnightblue" stroke="midnightblue" points="1282.62,-30.33 1283.05,-19.74 1276.11,-27.75 1282.62,-30.33"/>
</g>
<!-- Node25 -->
<g id="node25" class="node">
<title>Node25</title>
<g id="a_node25"><a xlink:href="_field_8_h.html" target="_top" xlink:title=" ">
<polygon fill="white" stroke="black" points="1465,-129 1465,-148 1589,-148 1589,-129 1465,-129"/>
<text text-anchor="middle" x="1527" y="-136" font-family="Helvetica,sans-Serif" font-size="10.00">amr&#45;wind/core/Field.H</text>
</a>
</g>
</g>
<!-- Node20&#45;&gt;Node25 -->
<g id="edge32" class="edge">
<title>Node20&#45;&gt;Node25</title>
<path fill="none" stroke="midnightblue" d="M1054.4,-195.97C1158.31,-183.55 1350.19,-160.63 1454.64,-148.15"/>
<polygon fill="midnightblue" stroke="midnightblue" points="1455.27,-151.6 1464.78,-146.93 1454.44,-144.65 1455.27,-151.6"/>
</g>
<!-- Node30 -->
<g id="node30" class="node">
<title>Node30</title>
<g id="a_node30"><a xlink:href="_int_field_8_h.html" target="_top" xlink:title=" ">
<polygon fill="white" stroke="black" points="405.5,-129 405.5,-148 542.5,-148 542.5,-129 405.5,-129"/>
<text text-anchor="middle" x="474" y="-136" font-family="Helvetica,sans-Serif" font-size="10.00">amr&#45;wind/core/IntField.H</text>
</a>
</g>
</g>
<!-- Node20&#45;&gt;Node30 -->
<g id="edge47" class="edge">
<title>Node20&#45;&gt;Node30</title>
<path fill="none" stroke="midnightblue" d="M916.2,-195.97C821.93,-183.93 650.31,-162.02 550.87,-149.32"/>
<polygon fill="midnightblue" stroke="midnightblue" points="551.25,-145.84 540.89,-148.04 550.36,-152.78 551.25,-145.84"/>
</g>
<!-- Node31 -->
<g id="node31" class="node">
<title>Node31</title>
<g id="a_node31"><a xlink:title=" ">
<polygon fill="white" stroke="#bfbfbf" points="274,-62 274,-81 386,-81 386,-62 274,-62"/>
<text text-anchor="middle" x="330" y="-69" font-family="Helvetica,sans-Serif" font-size="10.00">AMReX_iMultiFab.H</text>
</a>
</g>
</g>
<!-- Node20&#45;&gt;Node31 -->
<g id="edge61" class="edge">
<title>Node20&#45;&gt;Node31</title>
<path fill="none" stroke="midnightblue" d="M908.35,-205.24C770.68,-205.45 482.9,-200.13 396,-154 369.16,-139.75 349.26,-109.44 338.66,-90.07"/>
<polygon fill="midnightblue" stroke="midnightblue" points="341.71,-88.33 333.98,-81.08 335.5,-91.56 341.71,-88.33"/>
</g>
<!-- Node32 -->
<g id="node32" class="node">
<title>Node32</title>
<g id="a_node32"><a xlink:href="_scratch_field_8_h.html" target="_top" xlink:title=" ">
<polygon fill="white" stroke="black" points="690,-129 690,-148 850,-148 850,-129 690,-129"/>
<text text-anchor="middle" x="770" y="-136" font-family="Helvetica,sans-Serif" font-size="10.00">amr&#45;wind/core/ScratchField.H</text>
</a>
</g>
</g>
<!-- Node20&#45;&gt;Node32 -->
<g id="edge51" class="edge">
<title>Node20&#45;&gt;Node32</title>
<path fill="none" stroke="midnightblue" d="M954.72,-195.87C916.89,-184.33 849.75,-163.84 807.67,-151"/>
<polygon fill="midnightblue" stroke="midnightblue" points="808.65,-147.63 798.06,-148.06 806.61,-154.33 808.65,-147.63"/>
</g>
<!-- Node22&#45;&gt;Node21 -->
<g id="edge29" class="edge">
<title>Node22&#45;&gt;Node21</title>
<path fill="none" stroke="midnightblue" d="M1102.08,-61.98C1078.55,-51.9 1039.19,-35.05 1012.21,-23.5"/>
<polygon fill="midnightblue" stroke="midnightblue" points="1013.45,-20.23 1002.88,-19.51 1010.69,-26.66 1013.45,-20.23"/>
</g>
<!-- Node22&#45;&gt;Node23 -->
<g id="edge30" class="edge">
<title>Node22&#45;&gt;Node23</title>
<path fill="none" stroke="midnightblue" d="M1145.5,-61.98C1173.63,-51.77 1220.93,-34.61 1252.79,-23.05"/>
<polygon fill="midnightblue" stroke="midnightblue" points="1254.34,-26.21 1262.55,-19.51 1251.95,-19.63 1254.34,-26.21"/>
</g>
<!-- Node24 -->
<g id="node24" class="node">
<title>Node24</title>
<g id="a_node24"><a xlink:title=" ">
<polygon fill="white" stroke="#bfbfbf" points="1089,-0.5 1089,-19.5 1213,-19.5 1213,-0.5 1089,-0.5"/>
<text text-anchor="middle" x="1151" y="-7.5" font-family="Helvetica,sans-Serif" font-size="10.00">AMReX_Interpolater.H</text>
</a>
</g>
</g>
<!-- Node22&#45;&gt;Node24 -->
<g id="edge31" class="edge">
<title>Node22&#45;&gt;Node24</title>
<path fill="none" stroke="midnightblue" d="M1126.15,-61.98C1130.38,-53.32 1137.04,-39.65 1142.4,-28.65"/>
<polygon fill="midnightblue" stroke="midnightblue" points="1145.62,-30.03 1146.85,-19.51 1139.33,-26.96 1145.62,-30.03"/>
</g>
<!-- Node25&#45;&gt;Node2 -->
<g id="edge33" class="edge">
<title>Node25&#45;&gt;Node2</title>
<path fill="none" stroke="midnightblue" d="M1532.93,-128.77C1543.39,-112.2 1562.28,-76.07 1543,-56 1533.41,-46.02 647.58,-17.73 465.5,-12.01"/>
<polygon fill="midnightblue" stroke="midnightblue" points="465.57,-8.51 455.46,-11.7 465.35,-15.51 465.57,-8.51"/>
</g>
<!-- Node25&#45;&gt;Node3 -->
<g id="edge36" class="edge">
<title>Node25&#45;&gt;Node3</title>
<path fill="none" stroke="midnightblue" d="M1564.06,-128.94C1574.94,-126.7 1586.9,-124.49 1598,-123 1839.47,-90.55 1906.36,-136.08 2145,-87 2148.51,-86.28 2152.12,-85.33 2155.69,-84.25"/>
<polygon fill="midnightblue" stroke="midnightblue" points="2157.07,-87.48 2165.46,-81.01 2154.86,-80.84 2157.07,-87.48"/>
</g>
<!-- Node25&#45;&gt;Node5 -->
<g id="edge35" class="edge">
<title>Node25&#45;&gt;Node5</title>
<path fill="none" stroke="midnightblue" d="M1565.96,-128.96C1576.34,-126.84 1587.57,-124.7 1598,-123 1665.56,-112.01 1858.87,-89.8 1955.94,-78.87"/>
<polygon fill="midnightblue" stroke="midnightblue" points="1956.61,-82.31 1966.15,-77.72 1955.83,-75.36 1956.61,-82.31"/>
</g>
<!-- Node25&#45;&gt;Node8 -->
<g id="edge34" class="edge">
<title>Node25&#45;&gt;Node8</title>
<path fill="none" stroke="midnightblue" d="M1564.43,-128.94C1575.22,-126.73 1587.04,-124.53 1598,-123 1805.48,-93.98 1863.38,-131.94 2068,-87 2071.08,-86.32 2074.23,-85.46 2077.36,-84.49"/>
<polygon fill="midnightblue" stroke="midnightblue" points="2078.77,-87.7 2087.08,-81.12 2076.49,-81.09 2078.77,-87.7"/>
</g>
<!-- Node25&#45;&gt;Node21 -->
<g id="edge41" class="edge">
<title>Node25&#45;&gt;Node21</title>
<path fill="none" stroke="midnightblue" d="M1539.21,-128.9C1560.13,-113.16 1598.59,-79.22 1577,-56 1540.91,-17.2 1169.23,-23.87 1081.12,-19.86"/>
<polygon fill="midnightblue" stroke="midnightblue" points="1081.21,-16.35 1071.02,-19.25 1080.79,-23.34 1081.21,-16.35"/>
</g>
<!-- Node25&#45;&gt;Node23 -->
<g id="edge37" class="edge">
<title>Node25&#45;&gt;Node23</title>
<path fill="none" stroke="midnightblue" d="M1566.73,-128.98C1576.9,-126.92 1587.84,-124.79 1598,-123 1708.76,-103.53 1918.25,-138.67 1842,-56 1809.29,-20.54 1490.64,-13.02 1351,-11.43"/>
<polygon fill="midnightblue" stroke="midnightblue" points="1350.9,-7.92 1340.87,-11.32 1350.83,-14.92 1350.9,-7.92"/>
</g>
<!-- Node26 -->
<g id="node26" class="node">
<title>Node26</title>
<g id="a_node26"><a xlink:title=" ">
<polygon fill="white" stroke="#bfbfbf" points="1629.5,-62 1629.5,-81 1728.5,-81 1728.5,-62 1629.5,-62"/>
<text text-anchor="middle" x="1679" y="-69" font-family="Helvetica,sans-Serif" font-size="10.00">AMReX_BCRec.H</text>
</a>
</g>
</g>
<!-- Node25&#45;&gt;Node26 -->
<g id="edge38" class="edge">
<title>Node25&#45;&gt;Node26</title>
<path fill="none" stroke="midnightblue" d="M1547.18,-128.87C1573.3,-117.7 1619.03,-98.15 1649.16,-85.26"/>
<polygon fill="midnightblue" stroke="midnightblue" points="1650.91,-88.32 1658.73,-81.17 1648.16,-81.88 1650.91,-88.32"/>
</g>
<!-- Node27 -->
<g id="node27" class="node">
<title>Node27</title>
<g id="a_node27"><a xlink:title=" ">
<polygon fill="white" stroke="#bfbfbf" points="1746.5,-62 1746.5,-81 1833.5,-81 1833.5,-62 1746.5,-62"/>
<text text-anchor="middle" x="1790" y="-69" font-family="Helvetica,sans-Serif" font-size="10.00">AMReX_Gpu.H</text>
</a>
</g>
</g>
<!-- Node25&#45;&gt;Node27 -->
<g id="edge39" class="edge">
<title>Node25&#45;&gt;Node27</title>
<path fill="none" stroke="midnightblue" d="M1563.88,-129C1605.89,-119.23 1676.53,-102.54 1737,-87 1741.11,-85.94 1745.38,-84.82 1749.65,-83.68"/>
<polygon fill="midnightblue" stroke="midnightblue" points="1750.75,-87.01 1759.49,-81.02 1748.93,-80.25 1750.75,-87.01"/>
</g>
<!-- Node28 -->
<g id="node28" class="node">
<title>Node28</title>
<g id="a_node28"><a xlink:href="incflo__enums_8_h.html" target="_top" xlink:title=" ">
<polygon fill="white" stroke="black" points="1393.5,-62 1393.5,-81 1534.5,-81 1534.5,-62 1393.5,-62"/>
<text text-anchor="middle" x="1464" y="-69" font-family="Helvetica,sans-Serif" font-size="10.00">amr&#45;wind/incflo_enums.H</text>
</a>
</g>
</g>
<!-- Node25&#45;&gt;Node28 -->
<g id="edge40" class="edge">
<title>Node25&#45;&gt;Node28</title>
<path fill="none" stroke="midnightblue" d="M1518.5,-128.73C1508.49,-118.4 1491.66,-101.04 1479.34,-88.33"/>
<polygon fill="midnightblue" stroke="midnightblue" points="1481.83,-85.87 1472.36,-81.13 1476.81,-90.74 1481.83,-85.87"/>
</g>
<!-- Node29 -->
<g id="node29" class="node">
<title>Node29</title>
<g id="a_node29"><a xlink:href="_view_field_8_h.html" target="_top" xlink:title=" ">
<polygon fill="white" stroke="black" points="807,-62 807,-81 955,-81 955,-62 807,-62"/>
<text text-anchor="middle" x="881" y="-69" font-family="Helvetica,sans-Serif" font-size="10.00">amr&#45;wind/core/ViewField.H</text>
</a>
</g>
</g>
<!-- Node25&#45;&gt;Node29 -->
<g id="edge42" class="edge">
<title>Node25&#45;&gt;Node29</title>
<path fill="none" stroke="midnightblue" d="M1464.77,-131.24C1348.19,-119.51 1096.85,-94.22 965.25,-80.98"/>
<polygon fill="midnightblue" stroke="midnightblue" points="965.51,-77.49 955.21,-79.97 964.81,-84.45 965.51,-77.49"/>
</g>
<!-- Node29&#45;&gt;Node2 -->
<g id="edge43" class="edge">
<title>Node29&#45;&gt;Node2</title>
<path fill="none" stroke="midnightblue" d="M831.26,-61.96C818.78,-59.91 805.41,-57.8 793,-56 672.49,-38.55 528.7,-21.79 465.51,-14.63"/>
<polygon fill="midnightblue" stroke="midnightblue" points="465.7,-11.13 455.37,-13.49 464.91,-18.09 465.7,-11.13"/>
</g>
<!-- Node29&#45;&gt;Node13 -->
<g id="edge46" class="edge">
<title>Node29&#45;&gt;Node13</title>
<path fill="none" stroke="midnightblue" d="M867.1,-61.98C851.33,-52.3 825.36,-36.37 806.65,-24.89"/>
<polygon fill="midnightblue" stroke="midnightblue" points="808.23,-21.75 797.87,-19.51 804.57,-27.72 808.23,-21.75"/>
</g>
<!-- Node29&#45;&gt;Node21 -->
<g id="edge44" class="edge">
<title>Node29&#45;&gt;Node21</title>
<path fill="none" stroke="midnightblue" d="M895.61,-61.98C912.35,-52.21 940,-36.08 959.72,-24.58"/>
<polygon fill="midnightblue" stroke="midnightblue" points="961.54,-27.57 968.41,-19.51 958.01,-21.52 961.54,-27.57"/>
</g>
<!-- Node29&#45;&gt;Node23 -->
<g id="edge45" class="edge">
<title>Node29&#45;&gt;Node23</title>
<path fill="none" stroke="midnightblue" d="M939.03,-61.98C1013.76,-51 1143.26,-31.97 1221.15,-20.53"/>
<polygon fill="midnightblue" stroke="midnightblue" points="1221.94,-23.95 1231.32,-19.03 1220.92,-17.02 1221.94,-23.95"/>
</g>
<!-- Node30&#45;&gt;Node2 -->
<g id="edge48" class="edge">
<title>Node30&#45;&gt;Node2</title>
<path fill="none" stroke="midnightblue" d="M465.37,-128.72C456.72,-119.29 443.86,-103.43 438,-87 431.35,-68.36 430.77,-45.54 431.43,-29.79"/>
<polygon fill="midnightblue" stroke="midnightblue" points="434.93,-29.94 432.06,-19.74 427.94,-29.5 434.93,-29.94"/>
</g>
<!-- Node30&#45;&gt;Node21 -->
<g id="edge49" class="edge">
<title>Node30&#45;&gt;Node21</title>
<path fill="none" stroke="midnightblue" d="M474.88,-128.84C477.13,-111.72 484.74,-73.69 509,-56 523.96,-45.09 750.25,-27.4 884.67,-17.77"/>
<polygon fill="midnightblue" stroke="midnightblue" points="885.26,-21.24 894.98,-17.04 884.76,-14.26 885.26,-21.24"/>
</g>
<!-- Node30&#45;&gt;Node31 -->
<g id="edge50" class="edge">
<title>Node30&#45;&gt;Node31</title>
<path fill="none" stroke="midnightblue" d="M454.88,-128.87C430.24,-117.75 387.19,-98.32 358.64,-85.43"/>
<polygon fill="midnightblue" stroke="midnightblue" points="359.76,-82.09 349.2,-81.17 356.88,-88.47 359.76,-82.09"/>
</g>
<!-- Node32&#45;&gt;Node2 -->
<g id="edge52" class="edge">
<title>Node32&#45;&gt;Node2</title>
<path fill="none" stroke="midnightblue" d="M689.73,-134.16C635.92,-129.08 564.94,-116.71 509,-87 482.06,-72.69 458.53,-45.66 445.04,-27.99"/>
<polygon fill="midnightblue" stroke="midnightblue" points="447.7,-25.69 438.94,-19.72 442.06,-29.85 447.7,-25.69"/>
</g>
<!-- Node32&#45;&gt;Node13 -->
<g id="edge57" class="edge">
<title>Node32&#45;&gt;Node13</title>
<path fill="none" stroke="midnightblue" d="M770.96,-128.81C773.21,-108.49 778.85,-57.55 781.92,-29.78"/>
<polygon fill="midnightblue" stroke="midnightblue" points="785.41,-30.08 783.03,-19.76 778.45,-29.31 785.41,-30.08"/>
</g>
<!-- Node32&#45;&gt;Node21 -->
<g id="edge54" class="edge">
<title>Node32&#45;&gt;Node21</title>
<path fill="none" stroke="midnightblue" d="M828.39,-128.99C878.34,-120.54 945.08,-106.1 964,-87 978.85,-72 982.68,-47.26 983.39,-30.1"/>
<polygon fill="midnightblue" stroke="midnightblue" points="986.89,-29.67 983.48,-19.64 979.89,-29.61 986.89,-29.67"/>
</g>
<!-- Node32&#45;&gt;Node23 -->
<g id="edge56" class="edge">
<title>Node32&#45;&gt;Node23</title>
<path fill="none" stroke="midnightblue" d="M850.15,-134.11C957.86,-128.55 1142.85,-115.16 1204,-87 1219.34,-79.93 1251.72,-47.36 1270.88,-27.21"/>
<polygon fill="midnightblue" stroke="midnightblue" points="1273.65,-29.37 1277.97,-19.7 1268.56,-24.57 1273.65,-29.37"/>
</g>
<!-- Node32&#45;&gt;Node29 -->
<g id="edge55" class="edge">
<title>Node32&#45;&gt;Node29</title>
<path fill="none" stroke="midnightblue" d="M784.97,-128.73C803.61,-117.82 835.66,-99.05 857.57,-86.22"/>
<polygon fill="midnightblue" stroke="midnightblue" points="859.41,-89.2 866.27,-81.13 855.87,-83.16 859.41,-89.2"/>
</g>
<!-- Node33 -->
<g id="node33" class="node">
<title>Node33</title>
<g id="a_node33"><a xlink:title=" ">
<polygon fill="white" stroke="#bfbfbf" points="667.5,-62 667.5,-81 712.5,-81 712.5,-62 667.5,-62"/>
<text text-anchor="middle" x="690" y="-69" font-family="Helvetica,sans-Serif" font-size="10.00">utility</text>
</a>
</g>
</g>
<!-- Node32&#45;&gt;Node33 -->
<g id="edge53" class="edge">
<title>Node32&#45;&gt;Node33</title>
<path fill="none" stroke="midnightblue" d="M759.21,-128.73C746.26,-118.21 724.31,-100.38 708.61,-87.62"/>
<polygon fill="midnightblue" stroke="midnightblue" points="710.59,-84.72 700.62,-81.13 706.17,-90.15 710.59,-84.72"/>
</g>
<!-- Node34 -->
<g id="node34" class="node">
<title>Node34</title>
<g id="a_node34"><a xlink:title=" ">
<polygon fill="white" stroke="#bfbfbf" points="518.5,-62 518.5,-81 649.5,-81 649.5,-62 518.5,-62"/>
<text text-anchor="middle" x="584" y="-69" font-family="Helvetica,sans-Serif" font-size="10.00">AMReX_PhysBCFunct.H</text>
</a>
</g>
</g>
<!-- Node32&#45;&gt;Node34 -->
<g id="edge58" class="edge">
<title>Node32&#45;&gt;Node34</title>
<path fill="none" stroke="midnightblue" d="M745.3,-128.87C712.69,-117.47 655.12,-97.35 618.3,-84.49"/>
<polygon fill="midnightblue" stroke="midnightblue" points="619.1,-81.06 608.51,-81.06 616.79,-87.67 619.1,-81.06"/>
</g>
<!-- Node35&#45;&gt;Node2 -->
<g id="edge63" class="edge">
<title>Node35&#45;&gt;Node2</title>
<path fill="none" stroke="midnightblue" d="M1359.27,-195.73C1286.32,-186.99 1174.31,-172.25 1078,-154 952.28,-130.17 919.9,-125.89 798,-87 762.85,-75.79 756.57,-65.8 721,-56 630.17,-30.97 519.13,-18.55 465.32,-13.63"/>
<polygon fill="midnightblue" stroke="midnightblue" points="465.31,-10.12 455.04,-12.72 464.69,-17.09 465.31,-10.12"/>
</g>
<!-- Node35&#45;&gt;Node7 -->
<g id="edge64" class="edge">
<title>Node35&#45;&gt;Node7</title>
<path fill="none" stroke="midnightblue" d="M1514.76,-200.2C1723.17,-188.67 2281.22,-157.64 2321,-154 2335.03,-152.72 2349.99,-151.05 2364.31,-149.31"/>
<polygon fill="midnightblue" stroke="midnightblue" points="2365.12,-152.73 2374.61,-148.03 2364.26,-145.79 2365.12,-152.73"/>
</g>
<!-- Node35&#45;&gt;Node12 -->
<g id="edge65" class="edge">
<title>Node35&#45;&gt;Node12</title>
<path fill="none" stroke="midnightblue" d="M1514.75,-199.75C1622.65,-192.64 1823.75,-177.49 1994,-154 2002.43,-152.84 2011.34,-151.39 2020,-149.86"/>
<polygon fill="midnightblue" stroke="midnightblue" points="2020.8,-153.28 2030.02,-148.05 2019.55,-146.39 2020.8,-153.28"/>
</g>
<!-- Node35&#45;&gt;Node21 -->
<g id="edge68" class="edge">
<title>Node35&#45;&gt;Node21</title>
<path fill="none" stroke="midnightblue" d="M1432.85,-190.08C1423.24,-159.52 1396.33,-88.42 1346,-56 1334.75,-48.75 1180.8,-31.53 1077.04,-20.61"/>
<polygon fill="midnightblue" stroke="midnightblue" points="1077.16,-17.11 1066.85,-19.54 1076.43,-24.07 1077.16,-17.11"/>
</g>
<!-- Node35&#45;&gt;Node28 -->
<g id="edge69" class="edge">
<title>Node35&#45;&gt;Node28</title>
<path fill="none" stroke="midnightblue" d="M1439.89,-190.37C1444.79,-166.4 1454.74,-117.75 1460.2,-91.06"/>
<polygon fill="midnightblue" stroke="midnightblue" points="1463.67,-91.6 1462.24,-81.1 1456.81,-90.19 1463.67,-91.6"/>
</g>
<!-- Node36 -->
<g id="node36" class="node">
<title>Node36</title>
<g id="a_node36"><a xlink:href="_p_d_e_fields_8_h.html" target="_top" xlink:title=" ">
<polygon fill="white" stroke="black" points="1215.5,-123.5 1215.5,-153.5 1370.5,-153.5 1370.5,-123.5 1215.5,-123.5"/>
<text text-anchor="start" x="1223.5" y="-141.5" font-family="Helvetica,sans-Serif" font-size="10.00">amr&#45;wind/equation_systems</text>
<text text-anchor="middle" x="1293" y="-130.5" font-family="Helvetica,sans-Serif" font-size="10.00">/PDEFields.H</text>
</a>
</g>
</g>
<!-- Node35&#45;&gt;Node36 -->
<g id="edge66" class="edge">
<title>Node35&#45;&gt;Node36</title>
<path fill="none" stroke="midnightblue" d="M1405.75,-190.4C1384.53,-180.81 1356.25,-168.05 1333.32,-157.7"/>
<polygon fill="midnightblue" stroke="midnightblue" points="1334.74,-154.5 1324.18,-153.58 1331.86,-160.88 1334.74,-154.5"/>
</g>
<!-- Node37 -->
<g id="node37" class="node">
<title>Node37</title>
<g id="a_node37"><a xlink:title=" ">
<polygon fill="white" stroke="#bfbfbf" points="1289,-62 1289,-81 1337,-81 1337,-62 1289,-62"/>
<text text-anchor="middle" x="1313" y="-69" font-family="Helvetica,sans-Serif" font-size="10.00">iosfwd</text>
</a>
</g>
</g>
<!-- Node36&#45;&gt;Node37 -->
<g id="edge67" class="edge">
<title>Node36&#45;&gt;Node37</title>
<path fill="none" stroke="midnightblue" d="M1297.34,-123.4C1300.27,-113.86 1304.17,-101.18 1307.35,-90.86"/>
<polygon fill="midnightblue" stroke="midnightblue" points="1310.73,-91.78 1310.32,-81.19 1304.04,-89.72 1310.73,-91.78"/>
</g>
<!-- Node38&#45;&gt;Node7 -->
<g id="edge71" class="edge">
<title>Node38&#45;&gt;Node7</title>
<path fill="none" stroke="midnightblue" d="M2269.5,-195.87C2303.3,-184.42 2363.1,-164.18 2401.08,-151.32"/>
<polygon fill="midnightblue" stroke="midnightblue" points="2402.35,-154.59 2410.7,-148.06 2400.11,-147.96 2402.35,-154.59"/>
</g>
<!-- Node38&#45;&gt;Node12 -->
<g id="edge72" class="edge">
<title>Node38&#45;&gt;Node12</title>
<path fill="none" stroke="midnightblue" d="M2221.16,-195.87C2191.13,-184.52 2138.22,-164.52 2104.16,-151.65"/>
<polygon fill="midnightblue" stroke="midnightblue" points="2105.25,-148.32 2094.66,-148.06 2102.78,-154.87 2105.25,-148.32"/>
</g>
<!-- Node38&#45;&gt;Node23 -->
<g id="edge73" class="edge">
<title>Node38&#45;&gt;Node23</title>
<path fill="none" stroke="midnightblue" d="M2312.61,-198.16C2381.15,-190.69 2480.7,-176.37 2512,-154 2550.01,-126.84 2582.44,-89.62 2550,-56 2508.03,-12.51 1603.09,-10.54 1350.79,-10.84"/>
<polygon fill="midnightblue" stroke="midnightblue" points="1350.67,-7.34 1340.68,-10.86 1350.68,-14.34 1350.67,-7.34"/>
</g>
<!-- Node39 -->
<g id="node39" class="node">
<title>Node39</title>
<g id="a_node39"><a xlink:title=" ">
<polygon fill="white" stroke="#bfbfbf" points="2197.5,-129 2197.5,-148 2312.5,-148 2312.5,-129 2197.5,-129"/>
<text text-anchor="middle" x="2255" y="-136" font-family="Helvetica,sans-Serif" font-size="10.00">AMReX_Geometry.H</text>
</a>
</g>
</g>
<!-- Node38&#45;&gt;Node39 -->
<g id="edge74" class="edge">
<title>Node38&#45;&gt;Node39</title>
<path fill="none" stroke="midnightblue" d="M2245.48,-195.73C2247.1,-186.18 2249.73,-170.62 2251.82,-158.28"/>
<polygon fill="midnightblue" stroke="midnightblue" points="2255.32,-158.57 2253.54,-148.13 2248.42,-157.4 2255.32,-158.57"/>
</g>
<!-- Node40&#45;&gt;Node7 -->
<g id="edge77" class="edge">
<title>Node40&#45;&gt;Node7</title>
<path fill="none" stroke="midnightblue" d="M2129.51,-195.94C2194.02,-184.06 2310.5,-162.61 2379.8,-149.85"/>
<polygon fill="midnightblue" stroke="midnightblue" points="2380.47,-153.28 2389.67,-148.03 2379.2,-146.4 2380.47,-153.28"/>
</g>
<!-- Node40&#45;&gt;Node12 -->
<g id="edge76" class="edge">
<title>Node40&#45;&gt;Node12</title>
<path fill="none" stroke="midnightblue" d="M2081.52,-195.73C2079.9,-186.18 2077.27,-170.62 2075.18,-158.28"/>
<polygon fill="midnightblue" stroke="midnightblue" points="2078.58,-157.4 2073.46,-148.13 2071.68,-158.57 2078.58,-157.4"/>
</g>
<!-- Node40&#45;&gt;Node23 -->
<g id="edge79" class="edge">
<title>Node40&#45;&gt;Node23</title>
<path fill="none" stroke="midnightblue" d="M2094.84,-195.76C2108.17,-185.84 2130.4,-169.09 2149,-154 2157.87,-146.8 2222.23,-97.38 2227,-87 2232.75,-74.48 2236.51,-65.97 2227,-56 2196.79,-24.31 1558.73,-14.15 1350.84,-11.67"/>
<polygon fill="midnightblue" stroke="midnightblue" points="1350.73,-8.17 1340.69,-11.56 1350.65,-15.17 1350.73,-8.17"/>
</g>
<!-- Node40&#45;&gt;Node25 -->
<g id="edge78" class="edge">
<title>Node40&#45;&gt;Node25</title>
<path fill="none" stroke="midnightblue" d="M2008.76,-199.04C1913.35,-191.5 1742.75,-176.26 1598,-154 1590.56,-152.86 1582.73,-151.46 1575.09,-149.98"/>
<polygon fill="midnightblue" stroke="midnightblue" points="1575.69,-146.53 1565.2,-148.01 1574.32,-153.4 1575.69,-146.53"/>
</g>
<!-- Node40&#45;&gt;Node39 -->
<g id="edge80" class="edge">
<title>Node40&#45;&gt;Node39</title>
<path fill="none" stroke="midnightblue" d="M2105.84,-195.87C2135.87,-184.52 2188.78,-164.52 2222.84,-151.65"/>
<polygon fill="midnightblue" stroke="midnightblue" points="2224.22,-154.87 2232.34,-148.06 2221.75,-148.32 2224.22,-154.87"/>
</g>
<!-- Node41&#45;&gt;Node2 -->
<g id="edge84" class="edge">
<title>Node41&#45;&gt;Node2</title>
<path fill="none" stroke="midnightblue" d="M141.83,-58.83C146.61,-57.84 151.39,-56.88 156,-56 244.2,-39.16 348.97,-23.24 400.74,-15.65"/>
<polygon fill="midnightblue" stroke="midnightblue" points="401.28,-19.11 410.67,-14.2 400.26,-12.18 401.28,-19.11"/>
</g>
<!-- Node41&#45;&gt;Node13 -->
<g id="edge86" class="edge">
<title>Node41&#45;&gt;Node13</title>
<path fill="none" stroke="midnightblue" d="M141.6,-66.08C267.73,-55.26 591.14,-27.54 724.81,-16.07"/>
<polygon fill="midnightblue" stroke="midnightblue" points="725.2,-19.55 734.87,-15.21 724.6,-12.58 725.2,-19.55"/>
</g>
<!-- Node42 -->
<g id="node42" class="node">
<title>Node42</title>
<g id="a_node42"><a xlink:title=" ">
<polygon fill="white" stroke="#bfbfbf" points="0,-0.5 0,-19.5 50,-19.5 50,-0.5 0,-0.5"/>
<text text-anchor="middle" x="25" y="-7.5" font-family="Helvetica,sans-Serif" font-size="10.00">chrono</text>
</a>
</g>
</g>
<!-- Node41&#45;&gt;Node42 -->
<g id="edge82" class="edge">
<title>Node41&#45;&gt;Node42</title>
<path fill="none" stroke="midnightblue" d="M74.6,-56.4C64.76,-47.4 52.01,-35.72 41.89,-26.47"/>
<polygon fill="midnightblue" stroke="midnightblue" points="44.2,-23.83 34.46,-19.66 39.47,-28.99 44.2,-23.83"/>
</g>
<!-- Node43 -->
<g id="node43" class="node">
<title>Node43</title>
<g id="a_node43"><a xlink:title=" ">
<polygon fill="white" stroke="#bfbfbf" points="68,-0.5 68,-19.5 112,-19.5 112,-0.5 68,-0.5"/>
<text text-anchor="middle" x="90" y="-7.5" font-family="Helvetica,sans-Serif" font-size="10.00">ctime</text>
</a>
</g>
</g>
<!-- Node41&#45;&gt;Node43 -->
<g id="edge83" class="edge">
<title>Node41&#45;&gt;Node43</title>
<path fill="none" stroke="midnightblue" d="M90,-56.4C90,-48.47 90,-38.46 90,-29.86"/>
<polygon fill="midnightblue" stroke="midnightblue" points="93.5,-29.66 90,-19.66 86.5,-29.66 93.5,-29.66"/>
</g>
<!-- Node44 -->
<g id="node44" class="node">
<title>Node44</title>
<g id="a_node44"><a xlink:title=" ">
<polygon fill="white" stroke="#bfbfbf" points="130,-0.5 130,-19.5 186,-19.5 186,-0.5 130,-0.5"/>
<text text-anchor="middle" x="158" y="-7.5" font-family="Helvetica,sans-Serif" font-size="10.00">sstream</text>
</a>
</g>
</g>
<!-- Node41&#45;&gt;Node44 -->
<g id="edge85" class="edge">
<title>Node41&#45;&gt;Node44</title>
<path fill="none" stroke="midnightblue" d="M106.12,-56.4C116.4,-47.4 129.75,-35.72 140.33,-26.47"/>
<polygon fill="midnightblue" stroke="midnightblue" points="142.88,-28.88 148.11,-19.66 138.27,-23.61 142.88,-28.88"/>
</g>
</g>
</svg>
