<?xml version="1.0" encoding="UTF-8" standalone="no"?>
<!DOCTYPE svg PUBLIC "-//W3C//DTD SVG 1.1//EN"
 "http://www.w3.org/Graphics/SVG/1.1/DTD/svg11.dtd">
<!-- Generated by graphviz version 2.43.0 (0)
 -->
<!-- Title: DerivedQtyDefs.H Pages: 1 -->
<!--zoomable 397 -->
<svg id="main" version="1.1" xmlns="http://www.w3.org/2000/svg" xmlns:xlink="http://www.w3.org/1999/xlink" xml:space="preserve" onload="init(evt)">
<style type="text/css"><![CDATA[
.edge:hover path { stroke: red; }
.edge:hover polygon { stroke: red; fill: red; }
]]></style>
<script type="text/javascript"><![CDATA[
var edges = document.getElementsByTagName('g');
if (edges && edges.length) {
  for (var i=0;i<edges.length;i++) {
    if (edges[i].id.substr(0,4)=='edge') {
      edges[i].setAttribute('class','edge');
    }
  }
}
]]></script>
        <defs>
                <circle id="rim" cx="0" cy="0" r="7"/>
                <circle id="rim2" cx="0" cy="0" r="3.5"/>
                <g id="zoomPlus">
                        <use xlink:href="#rim" fill="#404040">
                                <set attributeName="fill" to="#808080" begin="zoomplus.mouseover" end="zoomplus.mouseout"/>
                        </use>
                        <path d="M-4,0h8M0,-4v8" fill="none" stroke="white" stroke-width="1.5" pointer-events="none"/>
                </g>
                <g id="zoomMin">
                        <use xlink:href="#rim" fill="#404040">
                                <set attributeName="fill" to="#808080" begin="zoomminus.mouseover" end="zoomminus.mouseout"/>
                        </use>
                        <path d="M-4,0h8" fill="none" stroke="white" stroke-width="1.5" pointer-events="none"/>
                </g>
                <g id="dirArrow">
                        <path fill="none" stroke="white" stroke-width="1.5" d="M0,-3.0v7 M-2.5,-0.5L0,-3.0L2.5,-0.5"/>
                </g>
               <g id="resetDef">
                       <use xlink:href="#rim2" fill="#404040">
                               <set attributeName="fill" to="#808080" begin="reset.mouseover" end="reset.mouseout"/>
                       </use>
               </g>
        </defs>

<script type="text/javascript">
var viewWidth = 2766;
var viewHeight = 397;
var sectionId = 'dynsection-0';
</script>
<script xlink:href="svgpan.js"/>
<svg id="graph" class="graph">
<g id="viewport">
<title>DerivedQtyDefs.H</title>
<polygon fill="white" stroke="transparent" points="-4,4 -4,-393 2762,-393 2762,4 -4,4"/>
<!-- Node1 -->
<g id="node1" class="node">
<title>Node1</title>
<g id="a_node1"><a xlink:title=" ">
<polygon fill="#bfbfbf" stroke="black" points="1970.5,-369.5 1970.5,-388.5 2075.5,-388.5 2075.5,-369.5 1970.5,-369.5"/>
<text text-anchor="middle" x="2023" y="-376.5" font-family="Helvetica,sans-Serif" font-size="10.00">DerivedQtyDefs.H</text>
</a>
</g>
</g>
<!-- Node2 -->
<g id="node2" class="node">
<title>Node2</title>
<g id="a_node2"><a xlink:href="_derived_quantity_8_h.html" target="_top" xlink:title=" ">
<polygon fill="white" stroke="black" points="1968.5,-302.5 1968.5,-332.5 2077.5,-332.5 2077.5,-302.5 1968.5,-302.5"/>
<text text-anchor="start" x="1976.5" y="-320.5" font-family="Helvetica,sans-Serif" font-size="10.00">amr&#45;wind/utilities</text>
<text text-anchor="middle" x="2023" y="-309.5" font-family="Helvetica,sans-Serif" font-size="10.00">/DerivedQuantity.H</text>
</a>
</g>
</g>
<!-- Node1&#45;&gt;Node2 -->
<g id="edge1" class="edge">
<title>Node1&#45;&gt;Node2</title>
<path fill="none" stroke="midnightblue" d="M2023,-369.48C2023,-362.47 2023,-352.19 2023,-342.7"/>
<polygon fill="midnightblue" stroke="midnightblue" points="2026.5,-342.52 2023,-332.52 2019.5,-342.52 2026.5,-342.52"/>
</g>
<!-- Node3 -->
<g id="node3" class="node">
<title>Node3</title>
<g id="a_node3"><a xlink:title=" ">
<polygon fill="white" stroke="#bfbfbf" points="799,-0.5 799,-19.5 843,-19.5 843,-0.5 799,-0.5"/>
<text text-anchor="middle" x="821" y="-7.5" font-family="Helvetica,sans-Serif" font-size="10.00">string</text>
</a>
</g>
</g>
<!-- Node2&#45;&gt;Node3 -->
<g id="edge2" class="edge">
<title>Node2&#45;&gt;Node3</title>
<path fill="none" stroke="midnightblue" d="M1968.31,-316.52C1662.16,-316.02 170.68,-305.24 60,-143 52.24,-131.62 51.71,-123.01 60,-112 73.56,-93.99 232.82,-60.02 255,-56 455.88,-19.55 702.19,-12.62 788.94,-11.31"/>
<polygon fill="midnightblue" stroke="midnightblue" points="788.99,-14.81 798.94,-11.17 788.9,-7.81 788.99,-14.81"/>
</g>
<!-- Node4 -->
<g id="node4" class="node">
<title>Node4</title>
<g id="a_node4"><a xlink:title=" ">
<polygon fill="white" stroke="#bfbfbf" points="1926.5,-56.5 1926.5,-75.5 2019.5,-75.5 2019.5,-56.5 1926.5,-56.5"/>
<text text-anchor="middle" x="1973" y="-63.5" font-family="Helvetica,sans-Serif" font-size="10.00">unordered_map</text>
</a>
</g>
</g>
<!-- Node2&#45;&gt;Node4 -->
<g id="edge3" class="edge">
<title>Node2&#45;&gt;Node4</title>
<path fill="none" stroke="midnightblue" d="M2070.22,-302.44C2163.65,-272.34 2356.94,-197.44 2283,-112 2274.77,-102.49 2116.67,-83.24 2029.51,-73.28"/>
<polygon fill="midnightblue" stroke="midnightblue" points="2029.84,-69.8 2019.51,-72.14 2029.05,-76.75 2029.84,-69.8"/>
</g>
<!-- Node5 -->
<g id="node5" class="node">
<title>Node5</title>
<g id="a_node5"><a xlink:title=" ">
<polygon fill="white" stroke="#bfbfbf" points="2330.5,-246.5 2330.5,-265.5 2377.5,-265.5 2377.5,-246.5 2330.5,-246.5"/>
<text text-anchor="middle" x="2354" y="-253.5" font-family="Helvetica,sans-Serif" font-size="10.00">vector</text>
</a>
</g>
</g>
<!-- Node2&#45;&gt;Node5 -->
<g id="edge4" class="edge">
<title>Node2&#45;&gt;Node5</title>
<path fill="none" stroke="midnightblue" d="M2077.73,-308.1C2136.73,-298.81 2233.31,-282.9 2316,-266 2317.45,-265.7 2318.94,-265.39 2320.43,-265.07"/>
<polygon fill="midnightblue" stroke="midnightblue" points="2321.34,-268.45 2330.33,-262.84 2319.81,-261.62 2321.34,-268.45"/>
</g>
<!-- Node6 -->
<g id="node6" class="node">
<title>Node6</title>
<g id="a_node6"><a xlink:href="_factory_8_h.html" target="_top" xlink:title=" ">
<polygon fill="white" stroke="black" points="2006,-118 2006,-137 2140,-137 2140,-118 2006,-118"/>
<text text-anchor="middle" x="2073" y="-125" font-family="Helvetica,sans-Serif" font-size="10.00">amr&#45;wind/core/Factory.H</text>
</a>
</g>
</g>
<!-- Node2&#45;&gt;Node6 -->
<g id="edge5" class="edge">
<title>Node2&#45;&gt;Node6</title>
<path fill="none" stroke="midnightblue" d="M2063.96,-302.43C2102.78,-286.65 2158.77,-256.94 2184,-210 2190.52,-197.86 2191.46,-190.59 2184,-179 2171.53,-159.63 2149.6,-147.6 2128.51,-140.17"/>
<polygon fill="midnightblue" stroke="midnightblue" points="2129.51,-136.81 2118.91,-137.07 2127.36,-143.48 2129.51,-136.81"/>
</g>
<!-- Node11 -->
<g id="node11" class="node">
<title>Node11</title>
<g id="a_node11"><a xlink:href="_coll_mgr_8_h.html" target="_top" xlink:title=" ">
<polygon fill="white" stroke="black" points="1812.5,-118 1812.5,-137 1949.5,-137 1949.5,-118 1812.5,-118"/>
<text text-anchor="middle" x="1881" y="-125" font-family="Helvetica,sans-Serif" font-size="10.00">amr&#45;wind/core/CollMgr.H</text>
</a>
</g>
</g>
<!-- Node2&#45;&gt;Node11 -->
<g id="edge11" class="edge">
<title>Node2&#45;&gt;Node11</title>
<path fill="none" stroke="midnightblue" d="M1982.04,-302.43C1943.22,-286.65 1887.23,-256.94 1862,-210 1851.08,-189.67 1861.02,-163.2 1870.14,-146.03"/>
<polygon fill="midnightblue" stroke="midnightblue" points="1873.32,-147.53 1875.26,-137.11 1867.25,-144.04 1873.32,-147.53"/>
</g>
<!-- Node13 -->
<g id="node13" class="node">
<title>Node13</title>
<g id="a_node13"><a xlink:href="_c_f_d_sim_8_h.html" target="_top" xlink:title=" ">
<polygon fill="white" stroke="black" points="1699,-246.5 1699,-265.5 1815,-265.5 1815,-246.5 1699,-246.5"/>
<text text-anchor="middle" x="1757" y="-253.5" font-family="Helvetica,sans-Serif" font-size="10.00">amr&#45;wind/CFDSim.H</text>
</a>
</g>
</g>
<!-- Node2&#45;&gt;Node13 -->
<g id="edge16" class="edge">
<title>Node2&#45;&gt;Node13</title>
<path fill="none" stroke="midnightblue" d="M1968.21,-304.24C1920.28,-293.52 1851.32,-278.1 1805.39,-267.82"/>
<polygon fill="midnightblue" stroke="midnightblue" points="1805.91,-264.35 1795.39,-265.59 1804.38,-271.18 1805.91,-264.35"/>
</g>
<!-- Node6&#45;&gt;Node4 -->
<g id="edge7" class="edge">
<title>Node6&#45;&gt;Node4</title>
<path fill="none" stroke="midnightblue" d="M2058.67,-117.98C2042.34,-108.25 2015.4,-92.23 1996.09,-80.74"/>
<polygon fill="midnightblue" stroke="midnightblue" points="1997.68,-77.61 1987.3,-75.51 1994.11,-83.63 1997.68,-77.61"/>
</g>
<!-- Node7 -->
<g id="node7" class="node">
<title>Node7</title>
<g id="a_node7"><a xlink:title=" ">
<polygon fill="white" stroke="#bfbfbf" points="1774,-56.5 1774,-75.5 1832,-75.5 1832,-56.5 1774,-56.5"/>
<text text-anchor="middle" x="1803" y="-63.5" font-family="Helvetica,sans-Serif" font-size="10.00">memory</text>
</a>
</g>
</g>
<!-- Node6&#45;&gt;Node7 -->
<g id="edge6" class="edge">
<title>Node6&#45;&gt;Node7</title>
<path fill="none" stroke="midnightblue" d="M2034.32,-117.98C1983.16,-106.7 1893.5,-86.94 1842.13,-75.62"/>
<polygon fill="midnightblue" stroke="midnightblue" points="1842.6,-72.14 1832.08,-73.41 1841.09,-78.98 1842.6,-72.14"/>
</g>
<!-- Node8 -->
<g id="node8" class="node">
<title>Node8</title>
<g id="a_node8"><a xlink:title=" ">
<polygon fill="white" stroke="#bfbfbf" points="2076,-56.5 2076,-75.5 2136,-75.5 2136,-56.5 2076,-56.5"/>
<text text-anchor="middle" x="2106" y="-63.5" font-family="Helvetica,sans-Serif" font-size="10.00">iostream</text>
</a>
</g>
</g>
<!-- Node6&#45;&gt;Node8 -->
<g id="edge8" class="edge">
<title>Node6&#45;&gt;Node8</title>
<path fill="none" stroke="midnightblue" d="M2077.73,-117.98C2082.58,-109.23 2090.27,-95.37 2096.4,-84.31"/>
<polygon fill="midnightblue" stroke="midnightblue" points="2099.49,-85.95 2101.28,-75.51 2093.37,-82.56 2099.49,-85.95"/>
</g>
<!-- Node9 -->
<g id="node9" class="node">
<title>Node9</title>
<g id="a_node9"><a xlink:title=" ">
<polygon fill="white" stroke="#bfbfbf" points="2154,-56.5 2154,-75.5 2244,-75.5 2244,-56.5 2154,-56.5"/>
<text text-anchor="middle" x="2199" y="-63.5" font-family="Helvetica,sans-Serif" font-size="10.00">AMReX_Print.H</text>
</a>
</g>
</g>
<!-- Node6&#45;&gt;Node9 -->
<g id="edge9" class="edge">
<title>Node6&#45;&gt;Node9</title>
<path fill="none" stroke="midnightblue" d="M2091.05,-117.98C2112.2,-107.99 2147.44,-91.35 2171.88,-79.81"/>
<polygon fill="midnightblue" stroke="midnightblue" points="2173.43,-82.94 2180.98,-75.51 2170.44,-76.61 2173.43,-82.94"/>
</g>
<!-- Node10 -->
<g id="node10" class="node">
<title>Node10</title>
<g id="a_node10"><a xlink:title=" ">
<polygon fill="white" stroke="#bfbfbf" points="2262,-56.5 2262,-75.5 2324,-75.5 2324,-56.5 2262,-56.5"/>
<text text-anchor="middle" x="2293" y="-63.5" font-family="Helvetica,sans-Serif" font-size="10.00">AMReX.H</text>
</a>
</g>
</g>
<!-- Node6&#45;&gt;Node10 -->
<g id="edge10" class="edge">
<title>Node6&#45;&gt;Node10</title>
<path fill="none" stroke="midnightblue" d="M2104.52,-117.98C2143.35,-107.47 2209.4,-89.61 2252.1,-78.06"/>
<polygon fill="midnightblue" stroke="midnightblue" points="2253.15,-81.4 2261.89,-75.41 2251.33,-74.65 2253.15,-81.4"/>
</g>
<!-- Node11&#45;&gt;Node3 -->
<g id="edge12" class="edge">
<title>Node11&#45;&gt;Node3</title>
<path fill="none" stroke="midnightblue" d="M1878.94,-117.64C1874.79,-102.03 1863.81,-69.95 1841,-56 1761.87,-7.6 1099.66,-24.24 1007,-20 953.06,-17.53 890.34,-14.45 853.25,-12.61"/>
<polygon fill="midnightblue" stroke="midnightblue" points="853.21,-9.11 843.04,-12.1 852.86,-16.1 853.21,-9.11"/>
</g>
<!-- Node11&#45;&gt;Node4 -->
<g id="edge14" class="edge">
<title>Node11&#45;&gt;Node4</title>
<path fill="none" stroke="midnightblue" d="M1894.18,-117.98C1909.07,-108.34 1933.54,-92.52 1951.27,-81.05"/>
<polygon fill="midnightblue" stroke="midnightblue" points="1953.35,-83.88 1959.84,-75.51 1949.55,-78 1953.35,-83.88"/>
</g>
<!-- Node11&#45;&gt;Node7 -->
<g id="edge13" class="edge">
<title>Node11&#45;&gt;Node7</title>
<path fill="none" stroke="midnightblue" d="M1869.82,-117.98C1857.43,-108.52 1837.21,-93.1 1822.25,-81.69"/>
<polygon fill="midnightblue" stroke="midnightblue" points="1824.23,-78.79 1814.15,-75.51 1819.98,-84.36 1824.23,-78.79"/>
</g>
<!-- Node12 -->
<g id="node12" class="node">
<title>Node12</title>
<g id="a_node12"><a xlink:title=" ">
<polygon fill="white" stroke="#bfbfbf" points="1016,-0.5 1016,-19.5 1114,-19.5 1114,-0.5 1016,-0.5"/>
<text text-anchor="middle" x="1065" y="-7.5" font-family="Helvetica,sans-Serif" font-size="10.00">AMReX_Vector.H</text>
</a>
</g>
</g>
<!-- Node11&#45;&gt;Node12 -->
<g id="edge15" class="edge">
<title>Node11&#45;&gt;Node12</title>
<path fill="none" stroke="midnightblue" d="M1883.32,-117.6C1886.65,-102.52 1890.7,-71.99 1874,-56 1847,-30.14 1306.78,-16.2 1124.48,-12.21"/>
<polygon fill="midnightblue" stroke="midnightblue" points="1124.35,-8.71 1114.28,-11.99 1124.2,-15.71 1124.35,-8.71"/>
</g>
<!-- Node14 -->
<g id="node14" class="node">
<title>Node14</title>
<g id="a_node14"><a xlink:title=" ">
<polygon fill="white" stroke="#bfbfbf" points="69,-118 69,-137 179,-137 179,-118 69,-118"/>
<text text-anchor="middle" x="124" y="-125" font-family="Helvetica,sans-Serif" font-size="10.00">AMReX_AmrCore.H</text>
</a>
</g>
</g>
<!-- Node13&#45;&gt;Node14 -->
<g id="edge17" class="edge">
<title>Node13&#45;&gt;Node14</title>
<path fill="none" stroke="midnightblue" d="M1698.89,-254.32C1448.59,-251.24 469.03,-237.5 334,-210 264.41,-195.83 187.87,-160.75 149.26,-141.56"/>
<polygon fill="midnightblue" stroke="midnightblue" points="150.8,-138.41 140.29,-137.04 147.65,-144.66 150.8,-138.41"/>
</g>
<!-- Node15 -->
<g id="node15" class="node">
<title>Node15</title>
<g id="a_node15"><a xlink:href="_sim_time_8_h.html" target="_top" xlink:title=" ">
<polygon fill="white" stroke="black" points="2446,-185 2446,-204 2590,-204 2590,-185 2446,-185"/>
<text text-anchor="middle" x="2518" y="-192" font-family="Helvetica,sans-Serif" font-size="10.00">amr&#45;wind/core/SimTime.H</text>
</a>
</g>
</g>
<!-- Node13&#45;&gt;Node15 -->
<g id="edge18" class="edge">
<title>Node13&#45;&gt;Node15</title>
<path fill="none" stroke="midnightblue" d="M1815.14,-250.45C1949.21,-239.97 2280.44,-214.07 2435.48,-201.95"/>
<polygon fill="midnightblue" stroke="midnightblue" points="2436.18,-205.41 2445.88,-201.14 2435.64,-198.43 2436.18,-205.41"/>
</g>
<!-- Node19 -->
<g id="node19" class="node">
<title>Node19</title>
<g id="a_node19"><a xlink:href="_field_repo_8_h.html" target="_top" xlink:title=" ">
<polygon fill="white" stroke="black" points="343.5,-185 343.5,-204 492.5,-204 492.5,-185 343.5,-185"/>
<text text-anchor="middle" x="418" y="-192" font-family="Helvetica,sans-Serif" font-size="10.00">amr&#45;wind/core/FieldRepo.H</text>
</a>
</g>
</g>
<!-- Node13&#45;&gt;Node19 -->
<g id="edge22" class="edge">
<title>Node13&#45;&gt;Node19</title>
<path fill="none" stroke="midnightblue" d="M1698.6,-252.41C1486.11,-242.96 753.45,-210.41 502.84,-199.27"/>
<polygon fill="midnightblue" stroke="midnightblue" points="502.85,-195.77 492.7,-198.82 502.54,-202.76 502.85,-195.77"/>
</g>
<!-- Node35 -->
<g id="node35" class="node">
<title>Node35</title>
<g id="a_node35"><a xlink:href="_p_d_e_base_8_h.html" target="_top" xlink:title=" ">
<polygon fill="white" stroke="black" points="1188.5,-179.5 1188.5,-209.5 1343.5,-209.5 1343.5,-179.5 1188.5,-179.5"/>
<text text-anchor="start" x="1196.5" y="-197.5" font-family="Helvetica,sans-Serif" font-size="10.00">amr&#45;wind/equation_systems</text>
<text text-anchor="middle" x="1266" y="-186.5" font-family="Helvetica,sans-Serif" font-size="10.00">/PDEBase.H</text>
</a>
</g>
</g>
<!-- Node13&#45;&gt;Node35 -->
<g id="edge60" class="edge">
<title>Node13&#45;&gt;Node35</title>
<path fill="none" stroke="midnightblue" d="M1698.75,-247.94C1613.28,-237.58 1453.28,-218.19 1353.6,-206.12"/>
<polygon fill="midnightblue" stroke="midnightblue" points="1353.89,-202.63 1343.55,-204.9 1353.05,-209.57 1353.89,-202.63"/>
</g>
<!-- Node38 -->
<g id="node38" class="node">
<title>Node38</title>
<g id="a_node38"><a xlink:href="_physics_8_h.html" target="_top" xlink:title=" ">
<polygon fill="white" stroke="black" points="2037.5,-185 2037.5,-204 2174.5,-204 2174.5,-185 2037.5,-185"/>
<text text-anchor="middle" x="2106" y="-192" font-family="Helvetica,sans-Serif" font-size="10.00">amr&#45;wind/core/Physics.H</text>
</a>
</g>
</g>
<!-- Node13&#45;&gt;Node38 -->
<g id="edge68" class="edge">
<title>Node13&#45;&gt;Node38</title>
<path fill="none" stroke="midnightblue" d="M1810.27,-246.46C1864.96,-237.63 1952.49,-223.29 2028,-210 2035.45,-208.69 2043.3,-207.27 2051.02,-205.86"/>
<polygon fill="midnightblue" stroke="midnightblue" points="2051.87,-209.26 2061.07,-204.01 2050.6,-202.38 2051.87,-209.26"/>
</g>
<!-- Node40 -->
<g id="node40" class="node">
<title>Node40</title>
<g id="a_node40"><a xlink:href="_mesh_map_8_h.html" target="_top" xlink:title=" ">
<polygon fill="white" stroke="black" points="1871,-185 1871,-204 2019,-204 2019,-185 1871,-185"/>
<text text-anchor="middle" x="1945" y="-192" font-family="Helvetica,sans-Serif" font-size="10.00">amr&#45;wind/core/MeshMap.H</text>
</a>
</g>
</g>
<!-- Node13&#45;&gt;Node40 -->
<g id="edge73" class="edge">
<title>Node13&#45;&gt;Node40</title>
<path fill="none" stroke="midnightblue" d="M1783.94,-246.48C1816.6,-236.14 1871.82,-218.66 1908.34,-207.1"/>
<polygon fill="midnightblue" stroke="midnightblue" points="1909.64,-210.36 1918.11,-204.01 1907.52,-203.69 1909.64,-210.36"/>
</g>
<!-- Node16 -->
<g id="node16" class="node">
<title>Node16</title>
<g id="a_node16"><a xlink:title=" ">
<polygon fill="white" stroke="#bfbfbf" points="2666,-118 2666,-137 2758,-137 2758,-118 2666,-118"/>
<text text-anchor="middle" x="2712" y="-125" font-family="Helvetica,sans-Serif" font-size="10.00">AMReX_REAL.H</text>
</a>
</g>
</g>
<!-- Node15&#45;&gt;Node16 -->
<g id="edge19" class="edge">
<title>Node15&#45;&gt;Node16</title>
<path fill="none" stroke="midnightblue" d="M2543.76,-184.87C2577.92,-173.42 2638.34,-153.18 2676.71,-140.32"/>
<polygon fill="midnightblue" stroke="midnightblue" points="2678.07,-143.56 2686.44,-137.06 2675.85,-136.92 2678.07,-143.56"/>
</g>
<!-- Node17 -->
<g id="node17" class="node">
<title>Node17</title>
<g id="a_node17"><a xlink:title=" ">
<polygon fill="white" stroke="#bfbfbf" points="2380,-118 2380,-137 2514,-137 2514,-118 2380,-118"/>
<text text-anchor="middle" x="2447" y="-125" font-family="Helvetica,sans-Serif" font-size="10.00">AMReX_GpuQualifiers.H</text>
</a>
</g>
</g>
<!-- Node15&#45;&gt;Node17 -->
<g id="edge20" class="edge">
<title>Node15&#45;&gt;Node17</title>
<path fill="none" stroke="midnightblue" d="M2508.42,-184.73C2497.03,-174.31 2477.81,-156.71 2463.9,-143.97"/>
<polygon fill="midnightblue" stroke="midnightblue" points="2466.16,-141.3 2456.42,-137.13 2461.44,-146.46 2466.16,-141.3"/>
</g>
<!-- Node18 -->
<g id="node18" class="node">
<title>Node18</title>
<g id="a_node18"><a xlink:title=" ">
<polygon fill="white" stroke="#bfbfbf" points="2532,-118 2532,-137 2648,-137 2648,-118 2532,-118"/>
<text text-anchor="middle" x="2590" y="-125" font-family="Helvetica,sans-Serif" font-size="10.00">AMReX_Extension.H</text>
</a>
</g>
</g>
<!-- Node15&#45;&gt;Node18 -->
<g id="edge21" class="edge">
<title>Node15&#45;&gt;Node18</title>
<path fill="none" stroke="midnightblue" d="M2527.71,-184.73C2539.26,-174.31 2558.75,-156.71 2572.86,-143.97"/>
<polygon fill="midnightblue" stroke="midnightblue" points="2575.37,-146.43 2580.44,-137.13 2570.68,-141.23 2575.37,-146.43"/>
</g>
<!-- Node19&#45;&gt;Node3 -->
<g id="edge23" class="edge">
<title>Node19&#45;&gt;Node3</title>
<path fill="none" stroke="midnightblue" d="M394.87,-184.86C342.04,-163.94 220.69,-108.41 269,-56 286.72,-36.78 672.73,-17.74 788.48,-12.44"/>
<polygon fill="midnightblue" stroke="midnightblue" points="788.98,-15.92 798.81,-11.98 788.67,-8.93 788.98,-15.92"/>
</g>
<!-- Node19&#45;&gt;Node4 -->
<g id="edge24" class="edge">
<title>Node19&#45;&gt;Node4</title>
<path fill="none" stroke="midnightblue" d="M492.54,-191.89C765.79,-185.83 1699.81,-163.69 1760,-143 1782.28,-135.34 1781.7,-122.07 1803,-112 1838.89,-95.03 1882.19,-83.69 1916.1,-76.63"/>
<polygon fill="midnightblue" stroke="midnightblue" points="1917.2,-79.99 1926.31,-74.58 1915.82,-73.12 1917.2,-79.99"/>
</g>
<!-- Node19&#45;&gt;Node14 -->
<g id="edge57" class="edge">
<title>Node19&#45;&gt;Node14</title>
<path fill="none" stroke="midnightblue" d="M379.26,-184.94C326.16,-173.2 230.77,-152.11 172.84,-139.3"/>
<polygon fill="midnightblue" stroke="midnightblue" points="173.34,-135.82 162.82,-137.08 171.83,-142.66 173.34,-135.82"/>
</g>
<!-- Node20 -->
<g id="node20" class="node">
<title>Node20</title>
<g id="a_node20"><a xlink:href="_field_desc_types_8_h.html" target="_top" xlink:title=" ">
<polygon fill="white" stroke="black" points="368,-0.5 368,-19.5 544,-19.5 544,-0.5 368,-0.5"/>
<text text-anchor="middle" x="456" y="-7.5" font-family="Helvetica,sans-Serif" font-size="10.00">amr&#45;wind/core/FieldDescTypes.H</text>
</a>
</g>
</g>
<!-- Node19&#45;&gt;Node20 -->
<g id="edge25" class="edge">
<title>Node19&#45;&gt;Node20</title>
<path fill="none" stroke="midnightblue" d="M360.68,-184.96C330.51,-177.98 294.57,-165.42 269,-143 237.91,-115.73 209.85,-88.04 236,-56 251.77,-36.67 306.75,-25.43 357.79,-19.01"/>
<polygon fill="midnightblue" stroke="midnightblue" points="358.43,-22.46 367.94,-17.79 357.59,-15.51 358.43,-22.46"/>
</g>
<!-- Node21 -->
<g id="node21" class="node">
<title>Node21</title>
<g id="a_node21"><a xlink:href="_field_utils_8_h.html" target="_top" xlink:title=" ">
<polygon fill="white" stroke="black" points="0,-56.5 0,-75.5 146,-75.5 146,-56.5 0,-56.5"/>
<text text-anchor="middle" x="73" y="-63.5" font-family="Helvetica,sans-Serif" font-size="10.00">amr&#45;wind/core/FieldUtils.H</text>
</a>
</g>
</g>
<!-- Node19&#45;&gt;Node21 -->
<g id="edge26" class="edge">
<title>Node19&#45;&gt;Node21</title>
<path fill="none" stroke="midnightblue" d="M367.45,-184.99C328.8,-177.28 274.88,-163.88 231,-143 209.73,-132.88 208.69,-123.27 188,-112 163.07,-98.42 133.17,-86.85 110.1,-78.84"/>
<polygon fill="midnightblue" stroke="midnightblue" points="110.94,-75.43 100.35,-75.53 108.69,-82.06 110.94,-75.43"/>
</g>
<!-- Node22 -->
<g id="node22" class="node">
<title>Node22</title>
<g id="a_node22"><a xlink:title=" ">
<polygon fill="white" stroke="#bfbfbf" points="1653.5,-0.5 1653.5,-19.5 1762.5,-19.5 1762.5,-0.5 1653.5,-0.5"/>
<text text-anchor="middle" x="1708" y="-7.5" font-family="Helvetica,sans-Serif" font-size="10.00">AMReX_MultiFab.H</text>
</a>
</g>
</g>
<!-- Node19&#45;&gt;Node22 -->
<g id="edge58" class="edge">
<title>Node19&#45;&gt;Node22</title>
<path fill="none" stroke="midnightblue" d="M492.75,-193.5C710.97,-192.97 1344.41,-187.52 1546,-143 1622.48,-126.11 1665.4,-141.07 1709,-76 1718.02,-62.54 1716.61,-43.72 1713.63,-29.8"/>
<polygon fill="midnightblue" stroke="midnightblue" points="1716.95,-28.69 1711.07,-19.88 1710.18,-30.43 1716.95,-28.69"/>
</g>
<!-- Node24 -->
<g id="node24" class="node">
<title>Node24</title>
<g id="a_node24"><a xlink:href="_field_8_h.html" target="_top" xlink:title=" ">
<polygon fill="white" stroke="black" points="1413,-118 1413,-137 1537,-137 1537,-118 1413,-118"/>
<text text-anchor="middle" x="1475" y="-125" font-family="Helvetica,sans-Serif" font-size="10.00">amr&#45;wind/core/Field.H</text>
</a>
</g>
</g>
<!-- Node19&#45;&gt;Node24 -->
<g id="edge30" class="edge">
<title>Node19&#45;&gt;Node24</title>
<path fill="none" stroke="midnightblue" d="M492.75,-188.9C687.81,-176.91 1210.43,-144.77 1402.71,-132.95"/>
<polygon fill="midnightblue" stroke="midnightblue" points="1402.94,-136.44 1412.71,-132.33 1402.51,-129.45 1402.94,-136.44"/>
</g>
<!-- Node30 -->
<g id="node30" class="node">
<title>Node30</title>
<g id="a_node30"><a xlink:href="_int_field_8_h.html" target="_top" xlink:title=" ">
<polygon fill="white" stroke="black" points="349.5,-118 349.5,-137 486.5,-137 486.5,-118 349.5,-118"/>
<text text-anchor="middle" x="418" y="-125" font-family="Helvetica,sans-Serif" font-size="10.00">amr&#45;wind/core/IntField.H</text>
</a>
</g>
</g>
<!-- Node19&#45;&gt;Node30 -->
<g id="edge45" class="edge">
<title>Node19&#45;&gt;Node30</title>
<path fill="none" stroke="midnightblue" d="M418,-184.73C418,-175.18 418,-159.62 418,-147.28"/>
<polygon fill="midnightblue" stroke="midnightblue" points="421.5,-147.13 418,-137.13 414.5,-147.13 421.5,-147.13"/>
</g>
<!-- Node31 -->
<g id="node31" class="node">
<title>Node31</title>
<g id="a_node31"><a xlink:title=" ">
<polygon fill="white" stroke="#bfbfbf" points="278,-56.5 278,-75.5 390,-75.5 390,-56.5 278,-56.5"/>
<text text-anchor="middle" x="334" y="-63.5" font-family="Helvetica,sans-Serif" font-size="10.00">AMReX_iMultiFab.H</text>
</a>
</g>
</g>
<!-- Node19&#45;&gt;Node31 -->
<g id="edge59" class="edge">
<title>Node19&#45;&gt;Node31</title>
<path fill="none" stroke="midnightblue" d="M394.22,-184.91C376.06,-177 352.14,-163.37 340,-143 329.65,-125.63 329.51,-101.93 331.09,-85.64"/>
<polygon fill="midnightblue" stroke="midnightblue" points="334.56,-86.07 332.35,-75.71 327.62,-85.19 334.56,-86.07"/>
</g>
<!-- Node32 -->
<g id="node32" class="node">
<title>Node32</title>
<g id="a_node32"><a xlink:href="_scratch_field_8_h.html" target="_top" xlink:title=" ">
<polygon fill="white" stroke="black" points="661,-118 661,-137 821,-137 821,-118 661,-118"/>
<text text-anchor="middle" x="741" y="-125" font-family="Helvetica,sans-Serif" font-size="10.00">amr&#45;wind/core/ScratchField.H</text>
</a>
</g>
</g>
<!-- Node19&#45;&gt;Node32 -->
<g id="edge49" class="edge">
<title>Node19&#45;&gt;Node32</title>
<path fill="none" stroke="midnightblue" d="M460.56,-184.94C519.34,-173.11 625.3,-151.78 688.79,-139.01"/>
<polygon fill="midnightblue" stroke="midnightblue" points="689.49,-142.44 698.6,-137.03 688.11,-135.57 689.49,-142.44"/>
</g>
<!-- Node21&#45;&gt;Node20 -->
<g id="edge27" class="edge">
<title>Node21&#45;&gt;Node20</title>
<path fill="none" stroke="midnightblue" d="M133.69,-56.44C202.18,-46.79 313.44,-31.1 385.67,-20.92"/>
<polygon fill="midnightblue" stroke="midnightblue" points="386.18,-24.38 395.6,-19.52 385.21,-17.45 386.18,-24.38"/>
</g>
<!-- Node21&#45;&gt;Node22 -->
<g id="edge28" class="edge">
<title>Node21&#45;&gt;Node22</title>
<path fill="none" stroke="midnightblue" d="M146.05,-61.39C182.91,-59.64 228.32,-57.57 269,-56 799.57,-35.52 1440.47,-18.04 1643.25,-12.69"/>
<polygon fill="midnightblue" stroke="midnightblue" points="1643.52,-16.18 1653.43,-12.42 1643.34,-9.18 1643.52,-16.18"/>
</g>
<!-- Node23 -->
<g id="node23" class="node">
<title>Node23</title>
<g id="a_node23"><a xlink:title=" ">
<polygon fill="white" stroke="#bfbfbf" points="11,-0.5 11,-19.5 135,-19.5 135,-0.5 11,-0.5"/>
<text text-anchor="middle" x="73" y="-7.5" font-family="Helvetica,sans-Serif" font-size="10.00">AMReX_Interpolater.H</text>
</a>
</g>
</g>
<!-- Node21&#45;&gt;Node23 -->
<g id="edge29" class="edge">
<title>Node21&#45;&gt;Node23</title>
<path fill="none" stroke="midnightblue" d="M73,-56.08C73,-49.01 73,-38.86 73,-29.99"/>
<polygon fill="midnightblue" stroke="midnightblue" points="76.5,-29.75 73,-19.75 69.5,-29.75 76.5,-29.75"/>
</g>
<!-- Node24&#45;&gt;Node3 -->
<g id="edge31" class="edge">
<title>Node24&#45;&gt;Node3</title>
<path fill="none" stroke="midnightblue" d="M1459.69,-117.98C1426.66,-99.63 1351.13,-57.84 1345,-56 1297.97,-41.9 959.99,-19.72 853.23,-13"/>
<polygon fill="midnightblue" stroke="midnightblue" points="853.27,-9.49 843.07,-12.36 852.83,-16.48 853.27,-9.49"/>
</g>
<!-- Node24&#45;&gt;Node4 -->
<g id="edge33" class="edge">
<title>Node24&#45;&gt;Node4</title>
<path fill="none" stroke="midnightblue" d="M1537.07,-119.08C1634.58,-107.43 1822.22,-85.01 1916.3,-73.77"/>
<polygon fill="midnightblue" stroke="midnightblue" points="1916.96,-77.22 1926.48,-72.56 1916.13,-70.27 1916.96,-77.22"/>
</g>
<!-- Node24&#45;&gt;Node7 -->
<g id="edge32" class="edge">
<title>Node24&#45;&gt;Node7</title>
<path fill="none" stroke="midnightblue" d="M1521.99,-117.98C1586.97,-106.19 1703.06,-85.13 1763.69,-74.13"/>
<polygon fill="midnightblue" stroke="midnightblue" points="1764.42,-77.56 1773.63,-72.33 1763.17,-70.67 1764.42,-77.56"/>
</g>
<!-- Node24&#45;&gt;Node20 -->
<g id="edge39" class="edge">
<title>Node24&#45;&gt;Node20</title>
<path fill="none" stroke="midnightblue" d="M1412.79,-123.09C1298.85,-116.35 1061.07,-99.88 982,-76 963.73,-70.48 962.3,-61.42 944,-56 873.39,-35.06 675.08,-21.86 554.1,-15.51"/>
<polygon fill="midnightblue" stroke="midnightblue" points="554.25,-12.02 544.08,-14.99 553.89,-19.01 554.25,-12.02"/>
</g>
<!-- Node24&#45;&gt;Node22 -->
<g id="edge35" class="edge">
<title>Node24&#45;&gt;Node22</title>
<path fill="none" stroke="midnightblue" d="M1537.21,-118.68C1592,-110.58 1666.36,-96.26 1688,-76 1700.65,-64.16 1705.37,-44.53 1707.09,-29.93"/>
<polygon fill="midnightblue" stroke="midnightblue" points="1710.61,-29.8 1707.93,-19.56 1703.64,-29.24 1710.61,-29.8"/>
</g>
<!-- Node25 -->
<g id="node25" class="node">
<title>Node25</title>
<g id="a_node25"><a xlink:title=" ">
<polygon fill="white" stroke="#bfbfbf" points="1393,-56.5 1393,-75.5 1457,-75.5 1457,-56.5 1393,-56.5"/>
<text text-anchor="middle" x="1425" y="-63.5" font-family="Helvetica,sans-Serif" font-size="10.00">algorithm</text>
</a>
</g>
</g>
<!-- Node24&#45;&gt;Node25 -->
<g id="edge34" class="edge">
<title>Node24&#45;&gt;Node25</title>
<path fill="none" stroke="midnightblue" d="M1467.84,-117.98C1460.26,-108.96 1448.13,-94.52 1438.71,-83.31"/>
<polygon fill="midnightblue" stroke="midnightblue" points="1441.26,-80.91 1432.15,-75.51 1435.9,-85.42 1441.26,-80.91"/>
</g>
<!-- Node26 -->
<g id="node26" class="node">
<title>Node26</title>
<g id="a_node26"><a xlink:title=" ">
<polygon fill="white" stroke="#bfbfbf" points="1475.5,-56.5 1475.5,-75.5 1574.5,-75.5 1574.5,-56.5 1475.5,-56.5"/>
<text text-anchor="middle" x="1525" y="-63.5" font-family="Helvetica,sans-Serif" font-size="10.00">AMReX_BCRec.H</text>
</a>
</g>
</g>
<!-- Node24&#45;&gt;Node26 -->
<g id="edge36" class="edge">
<title>Node24&#45;&gt;Node26</title>
<path fill="none" stroke="midnightblue" d="M1482.16,-117.98C1489.74,-108.96 1501.87,-94.52 1511.29,-83.31"/>
<polygon fill="midnightblue" stroke="midnightblue" points="1514.1,-85.42 1517.85,-75.51 1508.74,-80.91 1514.1,-85.42"/>
</g>
<!-- Node27 -->
<g id="node27" class="node">
<title>Node27</title>
<g id="a_node27"><a xlink:title=" ">
<polygon fill="white" stroke="#bfbfbf" points="1592.5,-56.5 1592.5,-75.5 1679.5,-75.5 1679.5,-56.5 1592.5,-56.5"/>
<text text-anchor="middle" x="1636" y="-63.5" font-family="Helvetica,sans-Serif" font-size="10.00">AMReX_Gpu.H</text>
</a>
</g>
</g>
<!-- Node24&#45;&gt;Node27 -->
<g id="edge37" class="edge">
<title>Node24&#45;&gt;Node27</title>
<path fill="none" stroke="midnightblue" d="M1498.07,-117.98C1525.68,-107.77 1572.12,-90.61 1603.4,-79.05"/>
<polygon fill="midnightblue" stroke="midnightblue" points="1604.81,-82.26 1612.98,-75.51 1602.38,-75.69 1604.81,-82.26"/>
</g>
<!-- Node28 -->
<g id="node28" class="node">
<title>Node28</title>
<g id="a_node28"><a xlink:href="incflo__enums_8_h.html" target="_top" xlink:title=" ">
<polygon fill="white" stroke="black" points="1195.5,-56.5 1195.5,-75.5 1336.5,-75.5 1336.5,-56.5 1195.5,-56.5"/>
<text text-anchor="middle" x="1266" y="-63.5" font-family="Helvetica,sans-Serif" font-size="10.00">amr&#45;wind/incflo_enums.H</text>
</a>
</g>
</g>
<!-- Node24&#45;&gt;Node28 -->
<g id="edge38" class="edge">
<title>Node24&#45;&gt;Node28</title>
<path fill="none" stroke="midnightblue" d="M1445.06,-117.98C1408.43,-107.55 1346.3,-89.86 1305.72,-78.31"/>
<polygon fill="midnightblue" stroke="midnightblue" points="1306.47,-74.88 1295.89,-75.51 1304.55,-81.61 1306.47,-74.88"/>
</g>
<!-- Node29 -->
<g id="node29" class="node">
<title>Node29</title>
<g id="a_node29"><a xlink:href="_view_field_8_h.html" target="_top" xlink:title=" ">
<polygon fill="white" stroke="black" points="991,-56.5 991,-75.5 1139,-75.5 1139,-56.5 991,-56.5"/>
<text text-anchor="middle" x="1065" y="-63.5" font-family="Helvetica,sans-Serif" font-size="10.00">amr&#45;wind/core/ViewField.H</text>
</a>
</g>
</g>
<!-- Node24&#45;&gt;Node29 -->
<g id="edge40" class="edge">
<title>Node24&#45;&gt;Node29</title>
<path fill="none" stroke="midnightblue" d="M1416.26,-117.98C1341.67,-107.15 1213.17,-88.5 1133.99,-77.01"/>
<polygon fill="midnightblue" stroke="midnightblue" points="1134.03,-73.48 1123.63,-75.51 1133.03,-80.41 1134.03,-73.48"/>
</g>
<!-- Node29&#45;&gt;Node3 -->
<g id="edge41" class="edge">
<title>Node29&#45;&gt;Node3</title>
<path fill="none" stroke="midnightblue" d="M1026.34,-56.44C978.44,-45.84 897.72,-27.98 853.09,-18.1"/>
<polygon fill="midnightblue" stroke="midnightblue" points="853.6,-14.63 843.08,-15.89 852.09,-21.47 853.6,-14.63"/>
</g>
<!-- Node29&#45;&gt;Node12 -->
<g id="edge44" class="edge">
<title>Node29&#45;&gt;Node12</title>
<path fill="none" stroke="midnightblue" d="M1065,-56.08C1065,-49.01 1065,-38.86 1065,-29.99"/>
<polygon fill="midnightblue" stroke="midnightblue" points="1068.5,-29.75 1065,-19.75 1061.5,-29.75 1068.5,-29.75"/>
</g>
<!-- Node29&#45;&gt;Node20 -->
<g id="edge42" class="edge">
<title>Node29&#45;&gt;Node20</title>
<path fill="none" stroke="midnightblue" d="M990.59,-57.31C985.99,-56.86 981.43,-56.42 977,-56 829.82,-42.12 659.1,-27.69 554.32,-19.03"/>
<polygon fill="midnightblue" stroke="midnightblue" points="554.33,-15.52 544.07,-18.18 553.75,-22.49 554.33,-15.52"/>
</g>
<!-- Node29&#45;&gt;Node22 -->
<g id="edge43" class="edge">
<title>Node29&#45;&gt;Node22</title>
<path fill="none" stroke="midnightblue" d="M1139.41,-57.28C1144.01,-56.84 1148.56,-56.41 1153,-56 1330.25,-39.75 1539.62,-23.6 1643.23,-15.81"/>
<polygon fill="midnightblue" stroke="midnightblue" points="1643.51,-19.3 1653.22,-15.06 1642.98,-12.32 1643.51,-19.3"/>
</g>
<!-- Node30&#45;&gt;Node3 -->
<g id="edge46" class="edge">
<title>Node30&#45;&gt;Node3</title>
<path fill="none" stroke="midnightblue" d="M430.95,-117.79C454.02,-102.71 504.21,-71.83 551,-56 633.79,-27.99 736.98,-17 788.53,-13.03"/>
<polygon fill="midnightblue" stroke="midnightblue" points="789,-16.51 798.72,-12.29 788.49,-9.52 789,-16.51"/>
</g>
<!-- Node30&#45;&gt;Node20 -->
<g id="edge47" class="edge">
<title>Node30&#45;&gt;Node20</title>
<path fill="none" stroke="midnightblue" d="M420.86,-117.82C427.02,-99.09 441.67,-54.55 449.98,-29.29"/>
<polygon fill="midnightblue" stroke="midnightblue" points="453.31,-30.37 453.11,-19.78 446.66,-28.19 453.31,-30.37"/>
</g>
<!-- Node30&#45;&gt;Node31 -->
<g id="edge48" class="edge">
<title>Node30&#45;&gt;Node31</title>
<path fill="none" stroke="midnightblue" d="M405.96,-117.98C392.49,-108.43 370.43,-92.81 354.28,-81.37"/>
<polygon fill="midnightblue" stroke="midnightblue" points="356.2,-78.43 346.01,-75.51 352.15,-84.15 356.2,-78.43"/>
</g>
<!-- Node32&#45;&gt;Node3 -->
<g id="edge50" class="edge">
<title>Node32&#45;&gt;Node3</title>
<path fill="none" stroke="midnightblue" d="M747.01,-117.82C760.16,-98.84 791.67,-53.35 809.03,-28.29"/>
<polygon fill="midnightblue" stroke="midnightblue" points="812.1,-30 814.92,-19.78 806.35,-26.01 812.1,-30"/>
</g>
<!-- Node32&#45;&gt;Node12 -->
<g id="edge55" class="edge">
<title>Node32&#45;&gt;Node12</title>
<path fill="none" stroke="midnightblue" d="M754.89,-117.93C779.07,-103.32 830.86,-73.51 878,-56 919.49,-40.59 968.14,-29.07 1005.42,-21.55"/>
<polygon fill="midnightblue" stroke="midnightblue" points="1006.49,-24.91 1015.62,-19.53 1005.13,-18.04 1006.49,-24.91"/>
</g>
<!-- Node32&#45;&gt;Node20 -->
<g id="edge52" class="edge">
<title>Node32&#45;&gt;Node20</title>
<path fill="none" stroke="midnightblue" d="M690.59,-117.97C651.35,-110.18 596.14,-96.7 551,-76 522.12,-62.76 492.47,-40.89 474.15,-26.22"/>
<polygon fill="midnightblue" stroke="midnightblue" points="476.07,-23.28 466.11,-19.67 471.65,-28.7 476.07,-23.28"/>
</g>
<!-- Node32&#45;&gt;Node22 -->
<g id="edge54" class="edge">
<title>Node32&#45;&gt;Node22</title>
<path fill="none" stroke="midnightblue" d="M821.33,-119.98C922.11,-111.21 1088.89,-94.54 1148,-76 1166.21,-70.29 1167.69,-61.37 1186,-56 1269.97,-31.38 1522.55,-18.35 1642.89,-13.39"/>
<polygon fill="midnightblue" stroke="midnightblue" points="1643.21,-16.88 1653.06,-12.98 1642.93,-9.89 1643.21,-16.88"/>
</g>
<!-- Node32&#45;&gt;Node29 -->
<g id="edge53" class="edge">
<title>Node32&#45;&gt;Node29</title>
<path fill="none" stroke="midnightblue" d="M787.42,-117.98C845.77,-107.26 945.84,-88.88 1008.55,-77.37"/>
<polygon fill="midnightblue" stroke="midnightblue" points="1009.46,-80.76 1018.66,-75.51 1008.2,-73.87 1009.46,-80.76"/>
</g>
<!-- Node33 -->
<g id="node33" class="node">
<title>Node33</title>
<g id="a_node33"><a xlink:title=" ">
<polygon fill="white" stroke="#bfbfbf" points="709.5,-56.5 709.5,-75.5 754.5,-75.5 754.5,-56.5 709.5,-56.5"/>
<text text-anchor="middle" x="732" y="-63.5" font-family="Helvetica,sans-Serif" font-size="10.00">utility</text>
</a>
</g>
</g>
<!-- Node32&#45;&gt;Node33 -->
<g id="edge51" class="edge">
<title>Node32&#45;&gt;Node33</title>
<path fill="none" stroke="midnightblue" d="M739.71,-117.98C738.44,-109.58 736.46,-96.48 734.82,-85.66"/>
<polygon fill="midnightblue" stroke="midnightblue" points="738.24,-84.87 733.29,-75.51 731.32,-85.92 738.24,-84.87"/>
</g>
<!-- Node34 -->
<g id="node34" class="node">
<title>Node34</title>
<g id="a_node34"><a xlink:title=" ">
<polygon fill="white" stroke="#bfbfbf" points="560.5,-56.5 560.5,-75.5 691.5,-75.5 691.5,-56.5 560.5,-56.5"/>
<text text-anchor="middle" x="626" y="-63.5" font-family="Helvetica,sans-Serif" font-size="10.00">AMReX_PhysBCFunct.H</text>
</a>
</g>
</g>
<!-- Node32&#45;&gt;Node34 -->
<g id="edge56" class="edge">
<title>Node32&#45;&gt;Node34</title>
<path fill="none" stroke="midnightblue" d="M724.52,-117.98C705.39,-108.08 673.63,-91.64 651.35,-80.12"/>
<polygon fill="midnightblue" stroke="midnightblue" points="652.94,-77 642.45,-75.51 649.72,-83.21 652.94,-77"/>
</g>
<!-- Node35&#45;&gt;Node3 -->
<g id="edge61" class="edge">
<title>Node35&#45;&gt;Node3</title>
<path fill="none" stroke="midnightblue" d="M1188.44,-189.15C1128.33,-183.65 1043.94,-171.19 975,-143 926.5,-123.17 917.12,-110.85 878,-76 861.27,-61.1 844.67,-41.47 833.73,-27.7"/>
<polygon fill="midnightblue" stroke="midnightblue" points="836.33,-25.34 827.42,-19.6 830.81,-29.64 836.33,-25.34"/>
</g>
<!-- Node35&#45;&gt;Node6 -->
<g id="edge62" class="edge">
<title>Node35&#45;&gt;Node6</title>
<path fill="none" stroke="midnightblue" d="M1343.69,-189.17C1471.84,-181.72 1735.5,-165.13 1958,-143 1971.62,-141.65 1986.11,-139.99 2000.06,-138.28"/>
<polygon fill="midnightblue" stroke="midnightblue" points="2000.61,-141.74 2010.1,-137.04 1999.74,-134.8 2000.61,-141.74"/>
</g>
<!-- Node35&#45;&gt;Node11 -->
<g id="edge63" class="edge">
<title>Node35&#45;&gt;Node11</title>
<path fill="none" stroke="midnightblue" d="M1343.75,-188.04C1447.57,-180.3 1637.09,-164.66 1798,-143 1807.05,-141.78 1816.62,-140.3 1825.92,-138.74"/>
<polygon fill="midnightblue" stroke="midnightblue" points="1826.6,-142.18 1835.87,-137.05 1825.42,-135.28 1826.6,-142.18"/>
</g>
<!-- Node35&#45;&gt;Node20 -->
<g id="edge66" class="edge">
<title>Node35&#45;&gt;Node20</title>
<path fill="none" stroke="midnightblue" d="M1188.36,-190.68C1046.51,-184.93 750.98,-170.08 652,-143 586.24,-125.01 568.4,-117.1 514,-76 495.79,-62.24 478.89,-42.11 468.09,-27.9"/>
<polygon fill="midnightblue" stroke="midnightblue" points="470.67,-25.51 461.91,-19.55 465.04,-29.67 470.67,-25.51"/>
</g>
<!-- Node35&#45;&gt;Node28 -->
<g id="edge67" class="edge">
<title>Node35&#45;&gt;Node28</title>
<path fill="none" stroke="midnightblue" d="M1266,-179.48C1266,-156.72 1266,-111.7 1266,-86.06"/>
<polygon fill="midnightblue" stroke="midnightblue" points="1269.5,-85.79 1266,-75.79 1262.5,-85.79 1269.5,-85.79"/>
</g>
<!-- Node36 -->
<g id="node36" class="node">
<title>Node36</title>
<g id="a_node36"><a xlink:href="_p_d_e_fields_8_h.html" target="_top" xlink:title=" ">
<polygon fill="white" stroke="black" points="984.5,-112.5 984.5,-142.5 1139.5,-142.5 1139.5,-112.5 984.5,-112.5"/>
<text text-anchor="start" x="992.5" y="-130.5" font-family="Helvetica,sans-Serif" font-size="10.00">amr&#45;wind/equation_systems</text>
<text text-anchor="middle" x="1062" y="-119.5" font-family="Helvetica,sans-Serif" font-size="10.00">/PDEFields.H</text>
</a>
</g>
</g>
<!-- Node35&#45;&gt;Node36 -->
<g id="edge64" class="edge">
<title>Node35&#45;&gt;Node36</title>
<path fill="none" stroke="midnightblue" d="M1221.99,-179.48C1190.86,-169.56 1148.94,-156.2 1115.82,-145.65"/>
<polygon fill="midnightblue" stroke="midnightblue" points="1116.88,-142.31 1106.29,-142.61 1114.75,-148.98 1116.88,-142.31"/>
</g>
<!-- Node37 -->
<g id="node37" class="node">
<title>Node37</title>
<g id="a_node37"><a xlink:title=" ">
<polygon fill="white" stroke="#bfbfbf" points="887,-56.5 887,-75.5 935,-75.5 935,-56.5 887,-56.5"/>
<text text-anchor="middle" x="911" y="-63.5" font-family="Helvetica,sans-Serif" font-size="10.00">iosfwd</text>
</a>
</g>
</g>
<!-- Node36&#45;&gt;Node37 -->
<g id="edge65" class="edge">
<title>Node36&#45;&gt;Node37</title>
<path fill="none" stroke="midnightblue" d="M1026.22,-112.4C1000.77,-102.37 966.9,-89.03 942.48,-79.4"/>
<polygon fill="midnightblue" stroke="midnightblue" points="943.56,-76.07 932.97,-75.66 940.99,-82.58 943.56,-76.07"/>
</g>
<!-- Node38&#45;&gt;Node6 -->
<g id="edge69" class="edge">
<title>Node38&#45;&gt;Node6</title>
<path fill="none" stroke="midnightblue" d="M2101.55,-184.73C2096.55,-174.89 2088.31,-158.66 2081.97,-146.16"/>
<polygon fill="midnightblue" stroke="midnightblue" points="2085.03,-144.46 2077.38,-137.13 2078.79,-147.63 2085.03,-144.46"/>
</g>
<!-- Node38&#45;&gt;Node11 -->
<g id="edge70" class="edge">
<title>Node38&#45;&gt;Node11</title>
<path fill="none" stroke="midnightblue" d="M2076.12,-184.87C2036.09,-173.3 1964.94,-152.75 1920.51,-139.91"/>
<polygon fill="midnightblue" stroke="midnightblue" points="1921.22,-136.48 1910.64,-137.06 1919.28,-143.2 1921.22,-136.48"/>
</g>
<!-- Node38&#45;&gt;Node22 -->
<g id="edge71" class="edge">
<title>Node38&#45;&gt;Node22</title>
<path fill="none" stroke="midnightblue" d="M2149.26,-184.93C2230.88,-167.01 2394.13,-121.69 2333,-56 2295.42,-15.62 1925.01,-10.98 1772.8,-10.79"/>
<polygon fill="midnightblue" stroke="midnightblue" points="1772.66,-7.29 1762.66,-10.79 1772.66,-14.29 1772.66,-7.29"/>
</g>
<!-- Node39 -->
<g id="node39" class="node">
<title>Node39</title>
<g id="a_node39"><a xlink:title=" ">
<polygon fill="white" stroke="#bfbfbf" points="2158.5,-118 2158.5,-137 2273.5,-137 2273.5,-118 2158.5,-118"/>
<text text-anchor="middle" x="2216" y="-125" font-family="Helvetica,sans-Serif" font-size="10.00">AMReX_Geometry.H</text>
</a>
</g>
</g>
<!-- Node38&#45;&gt;Node39 -->
<g id="edge72" class="edge">
<title>Node38&#45;&gt;Node39</title>
<path fill="none" stroke="midnightblue" d="M2120.84,-184.73C2139.31,-173.82 2171.07,-155.05 2192.78,-142.22"/>
<polygon fill="midnightblue" stroke="midnightblue" points="2194.57,-145.23 2201.4,-137.13 2191.01,-139.2 2194.57,-145.23"/>
</g>
<!-- Node40&#45;&gt;Node6 -->
<g id="edge75" class="edge">
<title>Node40&#45;&gt;Node6</title>
<path fill="none" stroke="midnightblue" d="M1962,-184.87C1983.71,-173.84 2021.49,-154.66 2046.87,-141.77"/>
<polygon fill="midnightblue" stroke="midnightblue" points="2048.6,-144.82 2055.93,-137.17 2045.43,-138.57 2048.6,-144.82"/>
</g>
<!-- Node40&#45;&gt;Node11 -->
<g id="edge74" class="edge">
<title>Node40&#45;&gt;Node11</title>
<path fill="none" stroke="midnightblue" d="M1936.37,-184.73C1926.2,-174.4 1909.1,-157.04 1896.59,-144.33"/>
<polygon fill="midnightblue" stroke="midnightblue" points="1899,-141.8 1889.49,-137.13 1894.02,-146.71 1899,-141.8"/>
</g>
<!-- Node40&#45;&gt;Node22 -->
<g id="edge77" class="edge">
<title>Node40&#45;&gt;Node22</title>
<path fill="none" stroke="midnightblue" d="M1950.07,-184.66C1958.95,-169.4 1978.17,-137.32 1997,-112 2009.6,-95.06 2020.65,-95.79 2028,-76 2031.09,-67.67 2033.83,-62.71 2028,-56 1995.63,-18.76 1856.65,-11.45 1772.85,-10.52"/>
<polygon fill="midnightblue" stroke="midnightblue" points="1772.7,-7.02 1762.67,-10.44 1772.64,-14.02 1772.7,-7.02"/>
</g>
<!-- Node40&#45;&gt;Node24 -->
<g id="edge76" class="edge">
<title>Node40&#45;&gt;Node24</title>
<path fill="none" stroke="midnightblue" d="M1883.07,-184.94C1796.22,-172.92 1638.59,-151.12 1546.74,-138.42"/>
<polygon fill="midnightblue" stroke="midnightblue" points="1547.08,-134.93 1536.69,-137.03 1546.12,-141.87 1547.08,-134.93"/>
</g>
<!-- Node40&#45;&gt;Node39 -->
<g id="edge78" class="edge">
<title>Node40&#45;&gt;Node39</title>
<path fill="none" stroke="midnightblue" d="M1980.71,-184.94C2029.45,-173.24 2116.86,-152.28 2170.32,-139.46"/>
<polygon fill="midnightblue" stroke="midnightblue" points="2171.31,-142.82 2180.21,-137.08 2169.67,-136.01 2171.31,-142.82"/>
</g>
</g>
</svg>
        <g id="navigator" transform="translate(0 0)" fill="#404254">
                <rect fill="#f2f5e9" fill-opacity="0.5" stroke="#606060" stroke-width=".5" x="0" y="0" width="60" height="60"/>
                <use id="zoomplus" xlink:href="#zoomPlus" x="17" y="9" onmousedown="handleZoom(evt,'in')"/>
                <use id="zoomminus" xlink:href="#zoomMin" x="42" y="9" onmousedown="handleZoom(evt,'out')"/>
                <use id="reset" xlink:href="#resetDef" x="30" y="36" onmousedown="handleReset()"/>
                <g id="arrowUp" xlink:href="#dirArrow" transform="translate(30 24)" onmousedown="handlePan(0,-1)">
                  <use xlink:href="#rim" fill="#404040">
                        <set attributeName="fill" to="#808080" begin="arrowUp.mouseover" end="arrowUp.mouseout"/>
                  </use>
                  <path fill="none" stroke="white" stroke-width="1.5" d="M0,-3.0v7 M-2.5,-0.5L0,-3.0L2.5,-0.5"/>
                </g>
                <g id="arrowRight" xlink:href="#dirArrow" transform="rotate(90) translate(36 -43)" onmousedown="handlePan(1,0)">
                  <use xlink:href="#rim" fill="#404040">
                        <set attributeName="fill" to="#808080" begin="arrowRight.mouseover" end="arrowRight.mouseout"/>
                  </use>
                  <path fill="none" stroke="white" stroke-width="1.5" d="M0,-3.0v7 M-2.5,-0.5L0,-3.0L2.5,-0.5"/>
                </g>
                <g id="arrowDown" xlink:href="#dirArrow" transform="rotate(180) translate(-30 -48)" onmousedown="handlePan(0,1)">
                  <use xlink:href="#rim" fill="#404040">
                        <set attributeName="fill" to="#808080" begin="arrowDown.mouseover" end="arrowDown.mouseout"/>
                  </use>
                  <path fill="none" stroke="white" stroke-width="1.5" d="M0,-3.0v7 M-2.5,-0.5L0,-3.0L2.5,-0.5"/>
                </g>
                <g id="arrowLeft" xlink:href="#dirArrow" transform="rotate(270) translate(-36 17)" onmousedown="handlePan(-1,0)">
                  <use xlink:href="#rim" fill="#404040">
                        <set attributeName="fill" to="#808080" begin="arrowLeft.mouseover" end="arrowLeft.mouseout"/>
                  </use>
                  <path fill="none" stroke="white" stroke-width="1.5" d="M0,-3.0v7 M-2.5,-0.5L0,-3.0L2.5,-0.5"/>
                </g>
        </g>
        <svg viewBox="0 0 15 15" width="100%" height="30px" preserveAspectRatio="xMaxYMin meet">
         <g id="arrow_out" transform="scale(0.3 0.3)">
          <a xlink:href="_derived_qty_defs_8_h__incl_org.svg" target="_base">
           <rect id="button" ry="5" rx="5" y="6" x="6" height="38" width="38"
                fill="#f2f5e9" fill-opacity="0.5" stroke="#606060" stroke-width="1.0"/>
           <path id="arrow"
             d="M 11.500037,31.436501 C 11.940474,20.09759 22.043105,11.32322 32.158766,21.979434 L 37.068811,17.246167 C 37.068811,17.246167 37.088388,32 37.088388,32 L 22.160133,31.978069 C 22.160133,31.978069 26.997745,27.140456 26.997745,27.140456 C 18.528582,18.264221 13.291696,25.230495 11.500037,31.436501 z"
             style="fill:#404040;"/>
          </a>
         </g>
        </svg>
</svg>
