<?xml version="1.0" encoding="UTF-8" standalone="no"?>
<!DOCTYPE svg PUBLIC "-//W3C//DTD SVG 1.1//EN"
 "http://www.w3.org/Graphics/SVG/1.1/DTD/svg11.dtd">
<!-- Generated by graphviz version 2.43.0 (0)
 -->
<!-- Title: Factory.H Pages: 1 -->
<svg width="3273pt" height="308pt"
 viewBox="0.00 0.00 3273.00 308.00" xmlns="http://www.w3.org/2000/svg" xmlns:xlink="http://www.w3.org/1999/xlink">
<g id="graph0" class="graph" transform="scale(1 1) rotate(0) translate(4 304)">
<title>Factory.H</title>
<polygon fill="white" stroke="transparent" points="-4,4 -4,-304 3269,-304 3269,4 -4,4"/>
<!-- Node1 -->
<g id="node1" class="node">
<title>Node1</title>
<g id="a_node1"><a xlink:title=" ">
<polygon fill="#bfbfbf" stroke="black" points="2168.5,-280.5 2168.5,-299.5 2229.5,-299.5 2229.5,-280.5 2168.5,-280.5"/>
<text text-anchor="middle" x="2199" y="-287.5" font-family="Helvetica,sans-Serif" font-size="10.00">Factory.H</text>
</a>
</g>
</g>
<!-- Node2 -->
<g id="node2" class="node">
<title>Node2</title>
<g id="a_node2"><a xlink:href="_p_d_e_base_8_h.html" target="_top" xlink:title=" ">
<polygon fill="white" stroke="black" points="367.5,-224.5 367.5,-243.5 438.5,-243.5 438.5,-224.5 367.5,-224.5"/>
<text text-anchor="middle" x="403" y="-231.5" font-family="Helvetica,sans-Serif" font-size="10.00">PDEBase.H</text>
</a>
</g>
</g>
<!-- Node1&#45;&gt;Node2 -->
<g id="edge1" class="edge">
<title>Node1&#45;&gt;Node2</title>
<path fill="none" stroke="midnightblue" d="M2158.28,-288.87C1969.8,-288.06 1163.16,-282.43 503,-244 481.6,-242.75 457.67,-240.63 438.6,-238.75"/>
<polygon fill="midnightblue" stroke="midnightblue" points="2158.29,-292.37 2168.31,-288.91 2158.32,-285.37 2158.29,-292.37"/>
</g>
<!-- Node62 -->
<g id="node5" class="node">
<title>Node62</title>
<g id="a_node5"><a xlink:href="_a_b_l_stats_base_8_h.html" target="_top" xlink:title=" ">
<polygon fill="white" stroke="red" points="695.5,-112.5 695.5,-131.5 790.5,-131.5 790.5,-112.5 695.5,-112.5"/>
<text text-anchor="middle" x="743" y="-119.5" font-family="Helvetica,sans-Serif" font-size="10.00">ABLStatsBase.H</text>
</a>
</g>
</g>
<!-- Node1&#45;&gt;Node62 -->
<g id="edge60" class="edge">
<title>Node1&#45;&gt;Node62</title>
<path fill="none" stroke="midnightblue" d="M2158.3,-288.83C1916.69,-287.72 679.04,-280.28 608,-244 573.44,-226.35 541.16,-198.62 565,-168 573.22,-157.44 647.31,-141.36 697.28,-131.55"/>
<polygon fill="midnightblue" stroke="midnightblue" points="2158.39,-292.33 2168.4,-288.88 2158.42,-285.33 2158.39,-292.33"/>
</g>
<!-- Node137 -->
<g id="node15" class="node">
<title>Node137</title>
<g id="a_node15"><a xlink:href="_derived_quantity_8_h.html" target="_top" xlink:title=" ">
<polygon fill="white" stroke="red" points="809,-112.5 809,-131.5 915,-131.5 915,-112.5 809,-112.5"/>
<text text-anchor="middle" x="862" y="-119.5" font-family="Helvetica,sans-Serif" font-size="10.00">DerivedQuantity.H</text>
</a>
</g>
</g>
<!-- Node1&#45;&gt;Node137 -->
<g id="edge72" class="edge">
<title>Node1&#45;&gt;Node137</title>
<path fill="none" stroke="midnightblue" d="M2158.22,-289.11C2002.44,-289.17 1430.03,-286.34 961,-244 787.91,-228.38 687.75,-319.39 574,-188 568.18,-181.28 568.22,-174.75 574,-168 575.91,-165.77 726.27,-143.14 808.94,-130.85"/>
<polygon fill="midnightblue" stroke="midnightblue" points="2158.3,-292.61 2168.3,-289.1 2158.29,-285.61 2158.3,-292.61"/>
</g>
<!-- Node189 -->
<g id="node21" class="node">
<title>Node189</title>
<g id="a_node21"><a xlink:href="_physics_8_h.html" target="_top" xlink:title=" ">
<polygon fill="white" stroke="red" points="1430,-224.5 1430,-243.5 1494,-243.5 1494,-224.5 1430,-224.5"/>
<text text-anchor="middle" x="1462" y="-231.5" font-family="Helvetica,sans-Serif" font-size="10.00">Physics.H</text>
</a>
</g>
</g>
<!-- Node1&#45;&gt;Node189 -->
<g id="edge26" class="edge">
<title>Node1&#45;&gt;Node189</title>
<path fill="none" stroke="midnightblue" d="M2158.18,-286.01C2026.2,-276.34 1612.71,-246.04 1494.1,-237.35"/>
<polygon fill="midnightblue" stroke="midnightblue" points="2158.04,-289.51 2168.27,-286.75 2158.55,-282.53 2158.04,-289.51"/>
</g>
<!-- Node207 -->
<g id="node33" class="node">
<title>Node207</title>
<g id="a_node33"><a xlink:href="_mesh_map_8_h.html" target="_top" xlink:title=" ">
<polygon fill="white" stroke="red" points="970,-224.5 970,-243.5 1044,-243.5 1044,-224.5 970,-224.5"/>
<text text-anchor="middle" x="1007" y="-231.5" font-family="Helvetica,sans-Serif" font-size="10.00">MeshMap.H</text>
</a>
</g>
</g>
<!-- Node1&#45;&gt;Node207 -->
<g id="edge46" class="edge">
<title>Node1&#45;&gt;Node207</title>
<path fill="none" stroke="midnightblue" d="M2158.26,-287.15C1974.05,-278.81 1220.35,-244.67 1044.02,-236.68"/>
<polygon fill="midnightblue" stroke="midnightblue" points="2158.19,-290.65 2168.34,-287.61 2158.51,-283.66 2158.19,-290.65"/>
</g>
<!-- Node212 -->
<g id="node34" class="node">
<title>Node212</title>
<g id="a_node34"><a xlink:href="_turbulence_model_8_h.html" target="_top" xlink:title=" ">
<polygon fill="white" stroke="red" points="1710,-224.5 1710,-243.5 1820,-243.5 1820,-224.5 1710,-224.5"/>
<text text-anchor="middle" x="1765" y="-231.5" font-family="Helvetica,sans-Serif" font-size="10.00">TurbulenceModel.H</text>
</a>
</g>
</g>
<!-- Node1&#45;&gt;Node212 -->
<g id="edge48" class="edge">
<title>Node1&#45;&gt;Node212</title>
<path fill="none" stroke="midnightblue" d="M2158.07,-284.23C2089.96,-276.24 1949.06,-259.5 1830,-244 1826.84,-243.59 1823.59,-243.16 1820.31,-242.72"/>
<polygon fill="midnightblue" stroke="midnightblue" points="2158.02,-287.75 2168.36,-285.43 2158.84,-280.79 2158.02,-287.75"/>
</g>
<!-- Node213 -->
<g id="node35" class="node">
<title>Node213</title>
<g id="a_node35"><a xlink:href="_post_processing_8_h.html" target="_top" xlink:title=" ">
<polygon fill="white" stroke="red" points="1838.5,-224.5 1838.5,-243.5 1939.5,-243.5 1939.5,-224.5 1838.5,-224.5"/>
<text text-anchor="middle" x="1889" y="-231.5" font-family="Helvetica,sans-Serif" font-size="10.00">PostProcessing.H</text>
</a>
</g>
</g>
<!-- Node1&#45;&gt;Node213 -->
<g id="edge51" class="edge">
<title>Node1&#45;&gt;Node213</title>
<path fill="none" stroke="midnightblue" d="M2158.4,-281.93C2101.71,-272.05 1998.96,-254.15 1938.06,-243.55"/>
<polygon fill="midnightblue" stroke="midnightblue" points="2157.98,-285.41 2168.43,-283.67 2159.18,-278.51 2157.98,-285.41"/>
</g>
<!-- Node215 -->
<g id="node36" class="node">
<title>Node215</title>
<g id="a_node36"><a xlink:href="_time_averaging_8_h.html" target="_top" xlink:title=" ">
<polygon fill="white" stroke="red" points="2152.5,-168.5 2152.5,-187.5 2253.5,-187.5 2253.5,-168.5 2152.5,-168.5"/>
<text text-anchor="middle" x="2203" y="-175.5" font-family="Helvetica,sans-Serif" font-size="10.00">TimeAveraging.H</text>
</a>
</g>
</g>
<!-- Node1&#45;&gt;Node215 -->
<g id="edge71" class="edge">
<title>Node1&#45;&gt;Node215</title>
<path fill="none" stroke="midnightblue" d="M2157.94,-289.56C2084.27,-289.17 1941.47,-281.28 1988,-224 1998.35,-211.25 2092.11,-195.29 2152.35,-186.2"/>
<polygon fill="midnightblue" stroke="midnightblue" points="2158.28,-293.06 2168.28,-289.57 2158.28,-286.06 2158.28,-293.06"/>
</g>
<!-- Node218 -->
<g id="node37" class="node">
<title>Node218</title>
<g id="a_node37"><a xlink:href="_overset_manager_8_h.html" target="_top" xlink:title=" ">
<polygon fill="white" stroke="red" points="2362.5,-56.5 2362.5,-75.5 2469.5,-75.5 2469.5,-56.5 2362.5,-56.5"/>
<text text-anchor="middle" x="2416" y="-63.5" font-family="Helvetica,sans-Serif" font-size="10.00">OversetManager.H</text>
</a>
</g>
</g>
<!-- Node1&#45;&gt;Node218 -->
<g id="edge55" class="edge">
<title>Node1&#45;&gt;Node218</title>
<path fill="none" stroke="midnightblue" d="M2239.93,-289.34C2376.5,-290.05 2810.25,-288.73 2852,-244 2967.6,-120.16 2609.81,-80.81 2469.73,-70.33"/>
<polygon fill="midnightblue" stroke="midnightblue" points="2239.9,-285.84 2229.88,-289.28 2239.86,-292.84 2239.9,-285.84"/>
</g>
<!-- Node220 -->
<g id="node38" class="node">
<title>Node220</title>
<g id="a_node38"><a xlink:href="_ext_solver_8_h.html" target="_top" xlink:title=" ">
<polygon fill="white" stroke="red" points="1996.5,-224.5 1996.5,-243.5 2069.5,-243.5 2069.5,-224.5 1996.5,-224.5"/>
<text text-anchor="middle" x="2033" y="-231.5" font-family="Helvetica,sans-Serif" font-size="10.00">ExtSolver.H</text>
</a>
</g>
</g>
<!-- Node1&#45;&gt;Node220 -->
<g id="edge57" class="edge">
<title>Node1&#45;&gt;Node220</title>
<path fill="none" stroke="midnightblue" d="M2163.05,-277.3C2131.77,-267.13 2087.18,-252.62 2059.18,-243.52"/>
<polygon fill="midnightblue" stroke="midnightblue" points="2162.1,-280.68 2172.7,-280.44 2164.27,-274.02 2162.1,-280.68"/>
</g>
<!-- Node223 -->
<g id="node39" class="node">
<title>Node223</title>
<g id="a_node39"><a xlink:href="_density_source_8_h.html" target="_top" xlink:title=" ">
<polygon fill="white" stroke="red" points="2088,-224.5 2088,-243.5 2186,-243.5 2186,-224.5 2088,-224.5"/>
<text text-anchor="middle" x="2137" y="-231.5" font-family="Helvetica,sans-Serif" font-size="10.00">DensitySource.H</text>
</a>
</g>
</g>
<!-- Node1&#45;&gt;Node223 -->
<g id="edge58" class="edge">
<title>Node1&#45;&gt;Node223</title>
<path fill="none" stroke="midnightblue" d="M2181.25,-273.54C2170.19,-263.91 2156.37,-251.87 2147.14,-243.83"/>
<polygon fill="midnightblue" stroke="midnightblue" points="2179.2,-276.4 2189.04,-280.32 2183.8,-271.12 2179.2,-276.4"/>
</g>
<!-- Node224 -->
<g id="node40" class="node">
<title>Node224</title>
<g id="a_node40"><a xlink:href="_momentum_source_8_h.html" target="_top" xlink:title=" ">
<polygon fill="white" stroke="red" points="2204,-224.5 2204,-243.5 2320,-243.5 2320,-224.5 2204,-224.5"/>
<text text-anchor="middle" x="2262" y="-231.5" font-family="Helvetica,sans-Serif" font-size="10.00">MomentumSource.H</text>
</a>
</g>
</g>
<!-- Node1&#45;&gt;Node224 -->
<g id="edge59" class="edge">
<title>Node1&#45;&gt;Node224</title>
<path fill="none" stroke="midnightblue" d="M2217.04,-273.54C2228.27,-263.91 2242.32,-251.87 2251.69,-243.83"/>
<polygon fill="midnightblue" stroke="midnightblue" points="2214.44,-271.16 2209.12,-280.32 2218.99,-276.47 2214.44,-271.16"/>
</g>
<!-- Node235 -->
<g id="node41" class="node">
<title>Node235</title>
<g id="a_node41"><a xlink:href="_source_term_8_h.html" target="_top" xlink:title=" ">
<polygon fill="white" stroke="red" points="2338,-224.5 2338,-243.5 2422,-243.5 2422,-224.5 2338,-224.5"/>
<text text-anchor="middle" x="2380" y="-231.5" font-family="Helvetica,sans-Serif" font-size="10.00">SourceTerm.H</text>
</a>
</g>
</g>
<!-- Node1&#45;&gt;Node235 -->
<g id="edge61" class="edge">
<title>Node1&#45;&gt;Node235</title>
<path fill="none" stroke="midnightblue" d="M2237.32,-277.57C2271.46,-267.38 2320.66,-252.7 2351.45,-243.52"/>
<polygon fill="midnightblue" stroke="midnightblue" points="2236.26,-274.23 2227.68,-280.44 2238.26,-280.94 2236.26,-274.23"/>
</g>
<!-- Node236 -->
<g id="node42" class="node">
<title>Node236</title>
<g id="a_node42"><a xlink:href="_s_d_r_source_8_h.html" target="_top" xlink:title=" ">
<polygon fill="white" stroke="red" points="2440,-224.5 2440,-243.5 2520,-243.5 2520,-224.5 2440,-224.5"/>
<text text-anchor="middle" x="2480" y="-231.5" font-family="Helvetica,sans-Serif" font-size="10.00">SDRSource.H</text>
</a>
</g>
</g>
<!-- Node1&#45;&gt;Node236 -->
<g id="edge62" class="edge">
<title>Node1&#45;&gt;Node236</title>
<path fill="none" stroke="midnightblue" d="M2239.76,-281.17C2293.31,-270.88 2386.78,-252.91 2439.96,-242.69"/>
<polygon fill="midnightblue" stroke="midnightblue" points="2238.77,-277.79 2229.61,-283.12 2240.09,-284.67 2238.77,-277.79"/>
</g>
<!-- Node238 -->
<g id="node43" class="node">
<title>Node238</title>
<g id="a_node43"><a xlink:href="_temperature_source_8_h.html" target="_top" xlink:title=" ">
<polygon fill="white" stroke="red" points="2538,-224.5 2538,-243.5 2660,-243.5 2660,-224.5 2538,-224.5"/>
<text text-anchor="middle" x="2599" y="-231.5" font-family="Helvetica,sans-Serif" font-size="10.00">TemperatureSource.H</text>
</a>
</g>
</g>
<!-- Node1&#45;&gt;Node238 -->
<g id="edge63" class="edge">
<title>Node1&#45;&gt;Node238</title>
<path fill="none" stroke="midnightblue" d="M2239.98,-283.47C2310.51,-273.95 2455.2,-254.41 2537.74,-243.27"/>
<polygon fill="midnightblue" stroke="midnightblue" points="2239.16,-280.05 2229.72,-284.85 2240.1,-286.98 2239.16,-280.05"/>
</g>
<!-- Node239 -->
<g id="node44" class="node">
<title>Node239</title>
<g id="a_node44"><a xlink:href="_t_k_e_source_8_h.html" target="_top" xlink:title=" ">
<polygon fill="white" stroke="red" points="2678.5,-224.5 2678.5,-243.5 2757.5,-243.5 2757.5,-224.5 2678.5,-224.5"/>
<text text-anchor="middle" x="2718" y="-231.5" font-family="Helvetica,sans-Serif" font-size="10.00">TKESource.H</text>
</a>
</g>
</g>
<!-- Node1&#45;&gt;Node239 -->
<g id="edge64" class="edge">
<title>Node1&#45;&gt;Node239</title>
<path fill="none" stroke="midnightblue" d="M2239.98,-286.27C2321.79,-280.56 2511.08,-266.02 2669,-244 2672.08,-243.57 2675.27,-243.08 2678.47,-242.56"/>
<polygon fill="midnightblue" stroke="midnightblue" points="2239.36,-282.8 2229.62,-286.99 2239.84,-289.79 2239.36,-282.8"/>
</g>
<!-- Node98 -->
<g id="node45" class="node">
<title>Node98</title>
<g id="a_node45"><a xlink:href="_i_b_model_8_h.html" target="_top" xlink:title=" ">
<polygon fill="white" stroke="red" points="2775.5,-224.5 2775.5,-243.5 2842.5,-243.5 2842.5,-224.5 2775.5,-224.5"/>
<text text-anchor="middle" x="2809" y="-231.5" font-family="Helvetica,sans-Serif" font-size="10.00">IBModel.H</text>
</a>
</g>
</g>
<!-- Node1&#45;&gt;Node98 -->
<g id="edge65" class="edge">
<title>Node1&#45;&gt;Node98</title>
<path fill="none" stroke="midnightblue" d="M2239.81,-287.62C2333.44,-284.04 2570.73,-272.68 2767,-244 2769.66,-243.61 2772.4,-243.15 2775.14,-242.66"/>
<polygon fill="midnightblue" stroke="midnightblue" points="2239.5,-284.13 2229.64,-288 2239.76,-291.12 2239.5,-284.13"/>
</g>
<!-- Node243 -->
<g id="node46" class="node">
<title>Node243</title>
<g id="a_node46"><a xlink:href="_refinement_criteria_8_h.html" target="_top" xlink:title=" ">
<polygon fill="white" stroke="red" points="2592.5,-56.5 2592.5,-75.5 2711.5,-75.5 2711.5,-56.5 2592.5,-56.5"/>
<text text-anchor="middle" x="2652" y="-63.5" font-family="Helvetica,sans-Serif" font-size="10.00">RefinementCriteria.H</text>
</a>
</g>
</g>
<!-- Node1&#45;&gt;Node243 -->
<g id="edge66" class="edge">
<title>Node1&#45;&gt;Node243</title>
<path fill="none" stroke="midnightblue" d="M2240.03,-289.17C2379.06,-289.36 2826.22,-286.63 2873,-244 2898.14,-221.09 2898.59,-197.69 2882,-168 2848.23,-107.56 2767.9,-83.24 2711.74,-73.49"/>
<polygon fill="midnightblue" stroke="midnightblue" points="2239.82,-285.67 2229.81,-289.15 2239.8,-292.67 2239.82,-285.67"/>
</g>
<!-- Node258 -->
<g id="node47" class="node">
<title>Node258</title>
<g id="a_node47"><a xlink:href="_u_d_f_8_h.html" target="_top" xlink:title=" ">
<polygon fill="white" stroke="red" points="1644.5,-224.5 1644.5,-243.5 1691.5,-243.5 1691.5,-224.5 1644.5,-224.5"/>
<text text-anchor="middle" x="1668" y="-231.5" font-family="Helvetica,sans-Serif" font-size="10.00">UDF.H</text>
</a>
</g>
</g>
<!-- Node1&#45;&gt;Node258 -->
<g id="edge68" class="edge">
<title>Node1&#45;&gt;Node258</title>
<path fill="none" stroke="midnightblue" d="M2158.39,-287.75C2073.05,-284.6 1869.13,-274.28 1701,-244 1697.96,-243.45 1694.79,-242.76 1691.68,-241.99"/>
<polygon fill="midnightblue" stroke="midnightblue" points="2158.32,-291.25 2168.43,-288.11 2158.57,-284.26 2158.32,-291.25"/>
</g>
<!-- Node260 -->
<g id="node48" class="node">
<title>Node260</title>
<g id="a_node48"><a xlink:href="_transport_model_8_h.html" target="_top" xlink:title=" ">
<polygon fill="white" stroke="red" points="2937,-224.5 2937,-243.5 3039,-243.5 3039,-224.5 2937,-224.5"/>
<text text-anchor="middle" x="2988" y="-231.5" font-family="Helvetica,sans-Serif" font-size="10.00">TransportModel.H</text>
</a>
</g>
</g>
<!-- Node1&#45;&gt;Node260 -->
<g id="edge70" class="edge">
<title>Node1&#45;&gt;Node260</title>
<path fill="none" stroke="midnightblue" d="M2239.8,-287.55C2350.12,-283.38 2663.52,-269.99 2923,-244 2927.53,-243.55 2932.24,-243.01 2936.95,-242.44"/>
<polygon fill="midnightblue" stroke="midnightblue" points="2239.63,-284.05 2229.76,-287.92 2239.89,-291.04 2239.63,-284.05"/>
</g>
<!-- Node262 -->
<g id="node49" class="node">
<title>Node262</title>
<g id="a_node49"><a xlink:href="_sampler_base_8_h.html" target="_top" xlink:title=" ">
<polygon fill="white" stroke="red" points="3057,-224.5 3057,-243.5 3149,-243.5 3149,-224.5 3057,-224.5"/>
<text text-anchor="middle" x="3103" y="-231.5" font-family="Helvetica,sans-Serif" font-size="10.00">SamplerBase.H</text>
</a>
</g>
</g>
<!-- Node1&#45;&gt;Node262 -->
<g id="edge73" class="edge">
<title>Node1&#45;&gt;Node262</title>
<path fill="none" stroke="midnightblue" d="M2239.6,-288.42C2362.04,-286.33 2738.22,-277.45 3048,-244 3050.89,-243.69 3053.85,-243.33 3056.84,-242.93"/>
<polygon fill="midnightblue" stroke="midnightblue" points="2239.5,-284.92 2229.55,-288.59 2239.61,-291.92 2239.5,-284.92"/>
</g>
<!-- Node169 -->
<g id="node50" class="node">
<title>Node169</title>
<g id="a_node50"><a xlink:href="_actuator_model_8_h.html" target="_top" xlink:title=" ">
<polygon fill="white" stroke="red" points="3167,-224.5 3167,-243.5 3265,-243.5 3265,-224.5 3167,-224.5"/>
<text text-anchor="middle" x="3216" y="-231.5" font-family="Helvetica,sans-Serif" font-size="10.00">ActuatorModel.H</text>
</a>
</g>
</g>
<!-- Node1&#45;&gt;Node169 -->
<g id="edge74" class="edge">
<title>Node1&#45;&gt;Node169</title>
<path fill="none" stroke="midnightblue" d="M2239.85,-288.65C2372.57,-287.16 2803.59,-279.71 3158,-244 3160.94,-243.7 3163.96,-243.36 3167,-242.98"/>
<polygon fill="midnightblue" stroke="midnightblue" points="2239.69,-285.15 2229.73,-288.75 2239.76,-292.15 2239.69,-285.15"/>
</g>
<!-- Node3 -->
<g id="node3" class="node">
<title>Node3</title>
<g id="a_node3"><a xlink:href="_c_f_d_sim_8_h.html" target="_top" xlink:title=" ">
<polygon fill="white" stroke="red" points="583,-168.5 583,-187.5 649,-187.5 649,-168.5 583,-168.5"/>
<text text-anchor="middle" x="616" y="-175.5" font-family="Helvetica,sans-Serif" font-size="10.00">CFDSim.H</text>
</a>
</g>
</g>
<!-- Node2&#45;&gt;Node3 -->
<g id="edge2" class="edge">
<title>Node2&#45;&gt;Node3</title>
<path fill="none" stroke="midnightblue" d="M446.58,-221.95C486.94,-211.72 546.09,-196.72 582.76,-187.43"/>
<polygon fill="midnightblue" stroke="midnightblue" points="445.58,-218.59 436.75,-224.44 447.3,-225.38 445.58,-218.59"/>
</g>
<!-- Node35 -->
<g id="node4" class="node">
<title>Node35</title>
<g id="a_node4"><a xlink:href="_p_d_e_8_h.html" target="_top" xlink:title=" ">
<polygon fill="white" stroke="red" points="406.5,-112.5 406.5,-131.5 453.5,-131.5 453.5,-112.5 406.5,-112.5"/>
<text text-anchor="middle" x="430" y="-119.5" font-family="Helvetica,sans-Serif" font-size="10.00">PDE.H</text>
</a>
</g>
</g>
<!-- Node2&#45;&gt;Node35 -->
<g id="edge15" class="edge">
<title>Node2&#45;&gt;Node35</title>
<path fill="none" stroke="midnightblue" d="M407.58,-214.35C413.49,-190.25 423.54,-149.31 427.89,-131.59"/>
<polygon fill="midnightblue" stroke="midnightblue" points="404.1,-213.82 405.12,-224.37 410.9,-215.49 404.1,-213.82"/>
</g>
<!-- Node8 -->
<g id="node7" class="node">
<title>Node8</title>
<g id="a_node7"><a xlink:href="incflo_8cpp.html" target="_top" xlink:title=" ">
<polygon fill="white" stroke="black" points="2073.5,-0.5 2073.5,-19.5 2136.5,-19.5 2136.5,-0.5 2073.5,-0.5"/>
<text text-anchor="middle" x="2105" y="-7.5" font-family="Helvetica,sans-Serif" font-size="10.00">incflo.cpp</text>
</a>
</g>
</g>
<!-- Node2&#45;&gt;Node8 -->
<g id="edge17" class="edge">
<title>Node2&#45;&gt;Node8</title>
<path fill="none" stroke="midnightblue" d="M357.33,-228.26C264.97,-217.04 70.39,-184.23 139,-112 208.55,-38.79 1825.79,-14.67 2073.34,-11.4"/>
<polygon fill="midnightblue" stroke="midnightblue" points="356.93,-231.73 367.27,-229.43 357.74,-224.78 356.93,-231.73"/>
</g>
<!-- Node85 -->
<g id="node8" class="node">
<title>Node85</title>
<g id="a_node8"><a xlink:href="_p_d_e_base_8cpp.html" target="_top" xlink:title=" ">
<polygon fill="white" stroke="black" points="472,-112.5 472,-131.5 552,-131.5 552,-112.5 472,-112.5"/>
<text text-anchor="middle" x="512" y="-119.5" font-family="Helvetica,sans-Serif" font-size="10.00">PDEBase.cpp</text>
</a>
</g>
</g>
<!-- Node2&#45;&gt;Node85 -->
<g id="edge16" class="edge">
<title>Node2&#45;&gt;Node85</title>
<path fill="none" stroke="midnightblue" d="M417.82,-217.06C430.26,-203.78 448.58,-184.45 465,-168 477.93,-155.05 493.32,-140.47 502.87,-131.51"/>
<polygon fill="midnightblue" stroke="midnightblue" points="415.17,-214.77 410.91,-224.47 420.29,-219.55 415.17,-214.77"/>
</g>
<!-- Node102 -->
<g id="node10" class="node">
<title>Node102</title>
<g id="a_node10"><a xlink:href="_tioga_interface_8cpp.html" target="_top" xlink:title=" ">
<polygon fill="white" stroke="black" points="570.5,-112.5 570.5,-131.5 677.5,-131.5 677.5,-112.5 570.5,-112.5"/>
<text text-anchor="middle" x="624" y="-119.5" font-family="Helvetica,sans-Serif" font-size="10.00">TiogaInterface.cpp</text>
</a>
</g>
</g>
<!-- Node2&#45;&gt;Node102 -->
<g id="edge19" class="edge">
<title>Node2&#45;&gt;Node102</title>
<path fill="none" stroke="midnightblue" d="M422.64,-218.37C442.26,-204.21 473.65,-182.77 503,-168 533.63,-152.59 570.87,-139.52 595.88,-131.51"/>
<polygon fill="midnightblue" stroke="midnightblue" points="420.51,-215.59 414.5,-224.31 424.64,-221.24 420.51,-215.59"/>
</g>
<!-- Node9 -->
<g id="node16" class="node">
<title>Node9</title>
<g id="a_node16"><a xlink:href="incflo__advance_8cpp.html" target="_top" xlink:title=" ">
<polygon fill="white" stroke="black" points="1948,-168.5 1948,-187.5 2058,-187.5 2058,-168.5 1948,-168.5"/>
<text text-anchor="middle" x="2003" y="-175.5" font-family="Helvetica,sans-Serif" font-size="10.00">incflo_advance.cpp</text>
</a>
</g>
</g>
<!-- Node2&#45;&gt;Node9 -->
<g id="edge18" class="edge">
<title>Node2&#45;&gt;Node9</title>
<path fill="none" stroke="midnightblue" d="M448.82,-232.34C671.09,-229.04 1638.55,-213.45 1939,-188 1941.91,-187.75 1944.88,-187.46 1947.89,-187.14"/>
<polygon fill="midnightblue" stroke="midnightblue" points="448.45,-228.85 438.51,-232.49 448.56,-235.85 448.45,-228.85"/>
</g>
<!-- Node51 -->
<g id="node17" class="node">
<title>Node51</title>
<g id="a_node17"><a xlink:href="_one_eq_ksgs_8cpp.html" target="_top" xlink:title=" ">
<polygon fill="white" stroke="black" points="0,-168.5 0,-187.5 92,-187.5 92,-168.5 0,-168.5"/>
<text text-anchor="middle" x="46" y="-175.5" font-family="Helvetica,sans-Serif" font-size="10.00">OneEqKsgs.cpp</text>
</a>
</g>
</g>
<!-- Node2&#45;&gt;Node51 -->
<g id="edge20" class="edge">
<title>Node2&#45;&gt;Node51</title>
<path fill="none" stroke="midnightblue" d="M357.44,-226.11C289.16,-215.78 160.99,-196.39 92.29,-186"/>
<polygon fill="midnightblue" stroke="midnightblue" points="357.05,-229.59 367.46,-227.62 358.1,-222.67 357.05,-229.59"/>
</g>
<!-- Node45 -->
<g id="node18" class="node">
<title>Node45</title>
<g id="a_node18"><a xlink:href="_k_omega_s_s_t_i_8_h.html" target="_top" xlink:title=" ">
<polygon fill="white" stroke="black" points="247.5,-168.5 247.5,-187.5 336.5,-187.5 336.5,-168.5 247.5,-168.5"/>
<text text-anchor="middle" x="292" y="-175.5" font-family="Helvetica,sans-Serif" font-size="10.00">KOmegaSSTI.H</text>
</a>
</g>
</g>
<!-- Node2&#45;&gt;Node45 -->
<g id="edge21" class="edge">
<title>Node2&#45;&gt;Node45</title>
<path fill="none" stroke="midnightblue" d="M375.99,-219.86C355.41,-209.85 327.66,-196.35 309.79,-187.65"/>
<polygon fill="midnightblue" stroke="midnightblue" points="374.64,-223.1 385.17,-224.32 377.7,-216.8 374.64,-223.1"/>
</g>
<!-- Node46 -->
<g id="node19" class="node">
<title>Node46</title>
<g id="a_node19"><a xlink:href="_k_omega_s_s_t_8cpp.html" target="_top" xlink:title=" ">
<polygon fill="white" stroke="black" points="148.5,-112.5 148.5,-131.5 243.5,-131.5 243.5,-112.5 148.5,-112.5"/>
<text text-anchor="middle" x="196" y="-119.5" font-family="Helvetica,sans-Serif" font-size="10.00">KOmegaSST.cpp</text>
</a>
</g>
</g>
<!-- Node2&#45;&gt;Node46 -->
<g id="edge24" class="edge">
<title>Node2&#45;&gt;Node46</title>
<path fill="none" stroke="midnightblue" d="M357.25,-229.19C322.09,-224.32 273.82,-213.23 239,-188 218.62,-173.23 205.16,-145.61 199.32,-131.61"/>
<polygon fill="midnightblue" stroke="midnightblue" points="356.89,-232.67 367.25,-230.46 357.77,-225.73 356.89,-232.67"/>
</g>
<!-- Node47 -->
<g id="node20" class="node">
<title>Node47</title>
<g id="a_node20"><a xlink:href="_k_omega_s_s_t_i_d_d_e_s_8cpp.html" target="_top" xlink:title=" ">
<polygon fill="white" stroke="black" points="262,-112.5 262,-131.5 388,-131.5 388,-112.5 262,-112.5"/>
<text text-anchor="middle" x="325" y="-119.5" font-family="Helvetica,sans-Serif" font-size="10.00">KOmegaSSTIDDES.cpp</text>
</a>
</g>
</g>
<!-- Node2&#45;&gt;Node47 -->
<g id="edge25" class="edge">
<title>Node2&#45;&gt;Node47</title>
<path fill="none" stroke="midnightblue" d="M390.92,-215.96C374.01,-192.12 343.94,-149.71 331.09,-131.59"/>
<polygon fill="midnightblue" stroke="midnightblue" points="388.24,-218.24 396.88,-224.37 393.95,-214.19 388.24,-218.24"/>
</g>
<!-- Node3&#45;&gt;Node35 -->
<g id="edge3" class="edge">
<title>Node3&#45;&gt;Node35</title>
<path fill="none" stroke="midnightblue" d="M576.52,-165.54C539.28,-154.73 484.68,-138.88 453.73,-129.89"/>
<polygon fill="midnightblue" stroke="midnightblue" points="575.95,-169.02 586.53,-168.44 577.9,-162.29 575.95,-169.02"/>
</g>
<!-- Node3&#45;&gt;Node62 -->
<g id="edge4" class="edge">
<title>Node3&#45;&gt;Node62</title>
<path fill="none" stroke="midnightblue" d="M645.39,-164.5C669.2,-154.38 702.11,-140.39 722.97,-131.52"/>
<polygon fill="midnightblue" stroke="midnightblue" points="643.96,-161.31 636.12,-168.44 646.7,-167.75 643.96,-161.31"/>
</g>
<!-- Node3&#45;&gt;Node85 -->
<g id="edge7" class="edge">
<title>Node3&#45;&gt;Node85</title>
<path fill="none" stroke="midnightblue" d="M590.17,-163.59C570.94,-153.61 545.26,-140.27 528.67,-131.65"/>
<polygon fill="midnightblue" stroke="midnightblue" points="588.8,-166.82 599.29,-168.32 592.03,-160.61 588.8,-166.82"/>
</g>
<!-- Node100 -->
<g id="node9" class="node">
<title>Node100</title>
<g id="a_node9"><a xlink:href="_convecting_taylor_vortex_8_h.html" target="_top" xlink:title=" ">
<polygon fill="white" stroke="red" points="1458.5,-112.5 1458.5,-131.5 1601.5,-131.5 1601.5,-112.5 1458.5,-112.5"/>
<text text-anchor="middle" x="1530" y="-119.5" font-family="Helvetica,sans-Serif" font-size="10.00">ConvectingTaylorVortex.H</text>
</a>
</g>
</g>
<!-- Node3&#45;&gt;Node100 -->
<g id="edge8" class="edge">
<title>Node3&#45;&gt;Node100</title>
<path fill="none" stroke="midnightblue" d="M659.36,-168.21C1007.67,-124.69 1099.62,-158.17 1445,-132 1449.29,-131.67 1453.7,-131.31 1458.15,-130.91"/>
<polygon fill="midnightblue" stroke="midnightblue" points="658.73,-164.77 649.25,-169.49 659.6,-171.71 658.73,-164.77"/>
</g>
<!-- Node3&#45;&gt;Node102 -->
<g id="edge9" class="edge">
<title>Node3&#45;&gt;Node102</title>
<path fill="none" stroke="midnightblue" d="M618.8,-158.1C620.13,-149.14 621.65,-138.86 622.7,-131.75"/>
<polygon fill="midnightblue" stroke="midnightblue" points="615.32,-157.68 617.32,-168.08 622.25,-158.7 615.32,-157.68"/>
</g>
<!-- Node103 -->
<g id="node11" class="node">
<title>Node103</title>
<g id="a_node11"><a xlink:href="_channel_flow_8_h.html" target="_top" xlink:title=" ">
<polygon fill="white" stroke="red" points="959.5,-112.5 959.5,-131.5 1048.5,-131.5 1048.5,-112.5 959.5,-112.5"/>
<text text-anchor="middle" x="1004" y="-119.5" font-family="Helvetica,sans-Serif" font-size="10.00">ChannelFlow.H</text>
</a>
</g>
</g>
<!-- Node3&#45;&gt;Node103 -->
<g id="edge10" class="edge">
<title>Node3&#45;&gt;Node103</title>
<path fill="none" stroke="midnightblue" d="M659.26,-168.11C730.96,-156.49 883.24,-137.65 959.26,-128.4"/>
<polygon fill="midnightblue" stroke="midnightblue" points="658.58,-164.68 649.29,-169.77 659.73,-171.58 658.58,-164.68"/>
</g>
<!-- Node105 -->
<g id="node12" class="node">
<title>Node105</title>
<g id="a_node12"><a xlink:href="_ekman_spiral_8_h.html" target="_top" xlink:title=" ">
<polygon fill="white" stroke="red" points="1106.5,-112.5 1106.5,-131.5 1195.5,-131.5 1195.5,-112.5 1106.5,-112.5"/>
<text text-anchor="middle" x="1151" y="-119.5" font-family="Helvetica,sans-Serif" font-size="10.00">EkmanSpiral.H</text>
</a>
</g>
</g>
<!-- Node3&#45;&gt;Node105 -->
<g id="edge11" class="edge">
<title>Node3&#45;&gt;Node105</title>
<path fill="none" stroke="midnightblue" d="M659.2,-168.16C836.79,-141.96 883.92,-148.28 1058,-132 1073.67,-130.54 1090.81,-128.89 1106.07,-127.41"/>
<polygon fill="midnightblue" stroke="midnightblue" points="658.64,-164.7 649.27,-169.64 659.67,-171.63 658.64,-164.7"/>
</g>
<!-- Node108 -->
<g id="node13" class="node">
<title>Node108</title>
<g id="a_node13"><a xlink:href="_hybrid_r_a_n_s_l_e_s_a_b_l_8_h.html" target="_top" xlink:title=" ">
<polygon fill="white" stroke="red" points="1233.5,-112.5 1233.5,-131.5 1356.5,-131.5 1356.5,-112.5 1233.5,-112.5"/>
<text text-anchor="middle" x="1295" y="-119.5" font-family="Helvetica,sans-Serif" font-size="10.00">HybridRANSLESABL.H</text>
</a>
</g>
</g>
<!-- Node3&#45;&gt;Node108 -->
<g id="edge12" class="edge">
<title>Node3&#45;&gt;Node108</title>
<path fill="none" stroke="midnightblue" d="M659.43,-168.17C901.69,-135.47 965.95,-151.83 1205,-132 1214.08,-131.25 1223.66,-130.37 1233.05,-129.47"/>
<polygon fill="midnightblue" stroke="midnightblue" points="658.69,-164.74 649.25,-169.56 659.64,-171.67 658.69,-164.74"/>
</g>
<!-- Node110 -->
<g id="node14" class="node">
<title>Node110</title>
<g id="a_node14"><a xlink:href="_m_m_s_8_h.html" target="_top" xlink:title=" ">
<polygon fill="white" stroke="red" points="1384.5,-112.5 1384.5,-131.5 1435.5,-131.5 1435.5,-112.5 1384.5,-112.5"/>
<text text-anchor="middle" x="1410" y="-119.5" font-family="Helvetica,sans-Serif" font-size="10.00">MMS.H</text>
</a>
</g>
</g>
<!-- Node3&#45;&gt;Node110 -->
<g id="edge13" class="edge">
<title>Node3&#45;&gt;Node110</title>
<path fill="none" stroke="midnightblue" d="M659.54,-168.19C972.84,-128.59 1057.23,-171.21 1366,-132 1371.88,-131.25 1378.14,-130.16 1384.05,-128.98"/>
<polygon fill="midnightblue" stroke="midnightblue" points="658.72,-164.76 649.25,-169.51 659.61,-171.71 658.72,-164.76"/>
</g>
<!-- Node3&#45;&gt;Node137 -->
<g id="edge14" class="edge">
<title>Node3&#45;&gt;Node137</title>
<path fill="none" stroke="midnightblue" d="M659.2,-167.52C705.46,-157.36 778.23,-141.39 822.87,-131.59"/>
<polygon fill="midnightblue" stroke="midnightblue" points="658.19,-164.15 649.18,-169.72 659.69,-170.99 658.19,-164.15"/>
</g>
<!-- Node59 -->
<g id="node6" class="node">
<title>Node59</title>
<g id="a_node6"><a xlink:href="_a_b_l_8_h.html" target="_top" xlink:title=" ">
<polygon fill="white" stroke="red" points="1610,-56.5 1610,-75.5 1656,-75.5 1656,-56.5 1610,-56.5"/>
<text text-anchor="middle" x="1633" y="-63.5" font-family="Helvetica,sans-Serif" font-size="10.00">ABL.H</text>
</a>
</g>
</g>
<!-- Node62&#45;&gt;Node59 -->
<g id="edge5" class="edge">
<title>Node62&#45;&gt;Node59</title>
<path fill="none" stroke="midnightblue" d="M800.68,-112.05C1127.74,-78.03 1512.37,-69.17 1609.74,-67.38"/>
<polygon fill="midnightblue" stroke="midnightblue" points="800.12,-108.59 790.54,-113.12 800.85,-115.56 800.12,-108.59"/>
</g>
<!-- Node59&#45;&gt;Node8 -->
<g id="edge6" class="edge">
<title>Node59&#45;&gt;Node8</title>
<path fill="none" stroke="midnightblue" d="M1666.2,-61.2C1753.36,-51.23 1987.87,-24.4 2073.3,-14.63"/>
<polygon fill="midnightblue" stroke="midnightblue" points="1665.62,-57.74 1656.09,-62.36 1666.42,-64.7 1665.62,-57.74"/>
</g>
<!-- Node45&#45;&gt;Node46 -->
<g id="edge22" class="edge">
<title>Node45&#45;&gt;Node46</title>
<path fill="none" stroke="midnightblue" d="M267.43,-163.18C249.76,-153.24 226.49,-140.15 211.39,-131.65"/>
<polygon fill="midnightblue" stroke="midnightblue" points="266.14,-166.47 276.58,-168.32 269.58,-160.37 266.14,-166.47"/>
</g>
<!-- Node45&#45;&gt;Node47 -->
<g id="edge23" class="edge">
<title>Node45&#45;&gt;Node47</title>
<path fill="none" stroke="midnightblue" d="M302.83,-159.27C308.47,-150.05 315.12,-139.17 319.65,-131.75"/>
<polygon fill="midnightblue" stroke="midnightblue" points="299.68,-157.73 297.45,-168.08 305.65,-161.38 299.68,-157.73"/>
</g>
<!-- Node189&#45;&gt;Node3 -->
<g id="edge27" class="edge">
<title>Node189&#45;&gt;Node3</title>
<path fill="none" stroke="midnightblue" d="M1419.48,-232.86C1299.44,-231.99 947.9,-226.11 659,-188 655.82,-187.58 652.53,-187.06 649.25,-186.47"/>
<polygon fill="midnightblue" stroke="midnightblue" points="1419.69,-236.36 1429.71,-232.93 1419.73,-229.36 1419.69,-236.36"/>
</g>
<!-- Node189&#45;&gt;Node59 -->
<g id="edge28" class="edge">
<title>Node189&#45;&gt;Node59</title>
<path fill="none" stroke="midnightblue" d="M1500.64,-221.04C1521.03,-213.57 1545.74,-202.57 1565,-188 1590.69,-168.57 1595.36,-160.16 1611,-132 1621.41,-113.25 1628.06,-88.73 1631.09,-75.83"/>
<polygon fill="midnightblue" stroke="midnightblue" points="1499.29,-217.81 1491.02,-224.43 1501.62,-224.41 1499.29,-217.81"/>
</g>
<!-- Node189&#45;&gt;Node100 -->
<g id="edge31" class="edge">
<title>Node189&#45;&gt;Node100</title>
<path fill="none" stroke="midnightblue" d="M1504.21,-221.75C1521.2,-214.92 1539.1,-204.27 1549,-188 1560.12,-169.72 1545.83,-144.58 1536.63,-131.57"/>
<polygon fill="midnightblue" stroke="midnightblue" points="1502.56,-218.62 1494.37,-225.34 1504.97,-225.2 1502.56,-218.62"/>
</g>
<!-- Node189&#45;&gt;Node103 -->
<g id="edge35" class="edge">
<title>Node189&#45;&gt;Node103</title>
<path fill="none" stroke="midnightblue" d="M1456.28,-214.18C1450.63,-199.05 1440.43,-178.63 1424,-168 1416.17,-162.93 1155.39,-137.49 1048.76,-127.26"/>
<polygon fill="midnightblue" stroke="midnightblue" points="1453.1,-215.68 1459.61,-224.04 1459.73,-213.45 1453.1,-215.68"/>
</g>
<!-- Node189&#45;&gt;Node105 -->
<g id="edge36" class="edge">
<title>Node189&#45;&gt;Node105</title>
<path fill="none" stroke="midnightblue" d="M1466.24,-214.19C1468.31,-199.69 1468.32,-180.13 1457,-168 1452.56,-163.25 1279.57,-139.91 1195.69,-128.85"/>
<polygon fill="midnightblue" stroke="midnightblue" points="1462.79,-213.61 1464.41,-224.08 1469.67,-214.89 1462.79,-213.61"/>
</g>
<!-- Node189&#45;&gt;Node108 -->
<g id="edge38" class="edge">
<title>Node189&#45;&gt;Node108</title>
<path fill="none" stroke="midnightblue" d="M1479.83,-217.01C1493.1,-203.16 1507.03,-183.04 1495,-168 1485.79,-156.48 1404.66,-141.02 1348.61,-131.54"/>
<polygon fill="midnightblue" stroke="midnightblue" points="1477.01,-214.87 1472.28,-224.35 1481.89,-219.88 1477.01,-214.87"/>
</g>
<!-- Node189&#45;&gt;Node110 -->
<g id="edge39" class="edge">
<title>Node189&#45;&gt;Node110</title>
<path fill="none" stroke="midnightblue" d="M1494.15,-220.17C1519.28,-208.18 1547.69,-189.01 1533,-168 1521.6,-151.69 1468.31,-136.65 1435.73,-128.77"/>
<polygon fill="midnightblue" stroke="midnightblue" points="1492.45,-217.1 1484.77,-224.41 1495.33,-223.48 1492.45,-217.1"/>
</g>
<!-- Node189&#45;&gt;Node9 -->
<g id="edge33" class="edge">
<title>Node189&#45;&gt;Node9</title>
<path fill="none" stroke="midnightblue" d="M1504.24,-229.67C1587.53,-222.95 1778.77,-206.81 1939,-188 1941.9,-187.66 1944.87,-187.3 1947.86,-186.92"/>
<polygon fill="midnightblue" stroke="midnightblue" points="1503.84,-226.19 1494.16,-230.48 1504.4,-233.16 1503.84,-226.19"/>
</g>
<!-- Node190 -->
<g id="node22" class="node">
<title>Node190</title>
<g id="a_node22"><a xlink:href="_actuator_8_h.html" target="_top" xlink:title=" ">
<polygon fill="white" stroke="red" points="1661,-168.5 1661,-187.5 1729,-187.5 1729,-168.5 1661,-168.5"/>
<text text-anchor="middle" x="1695" y="-175.5" font-family="Helvetica,sans-Serif" font-size="10.00">Actuator.H</text>
</a>
</g>
</g>
<!-- Node189&#45;&gt;Node190 -->
<g id="edge29" class="edge">
<title>Node189&#45;&gt;Node190</title>
<path fill="none" stroke="midnightblue" d="M1504.42,-223.17C1549.39,-212.75 1619.51,-196.5 1660.99,-186.88"/>
<polygon fill="midnightblue" stroke="midnightblue" points="1503.35,-219.82 1494.4,-225.49 1504.93,-226.64 1503.35,-219.82"/>
</g>
<!-- Node192 -->
<g id="node23" class="node">
<title>Node192</title>
<g id="a_node23"><a xlink:href="_multi_phase_8_h.html" target="_top" xlink:title=" ">
<polygon fill="white" stroke="red" points="1747.5,-168.5 1747.5,-187.5 1828.5,-187.5 1828.5,-168.5 1747.5,-168.5"/>
<text text-anchor="middle" x="1788" y="-175.5" font-family="Helvetica,sans-Serif" font-size="10.00">MultiPhase.H</text>
</a>
</g>
</g>
<!-- Node189&#45;&gt;Node192 -->
<g id="edge30" class="edge">
<title>Node189&#45;&gt;Node192</title>
<path fill="none" stroke="midnightblue" d="M1504.25,-226.33C1558.44,-217.73 1655.29,-202.19 1738,-188 1741.04,-187.48 1744.19,-186.93 1747.35,-186.37"/>
<polygon fill="midnightblue" stroke="midnightblue" points="1503.65,-222.88 1494.32,-227.91 1504.75,-229.8 1503.65,-222.88"/>
</g>
<!-- Node195 -->
<g id="node24" class="node">
<title>Node195</title>
<g id="a_node24"><a xlink:href="_i_b_8_h.html" target="_top" xlink:title=" ">
<polygon fill="white" stroke="red" points="667.5,-168.5 667.5,-187.5 704.5,-187.5 704.5,-168.5 667.5,-168.5"/>
<text text-anchor="middle" x="686" y="-175.5" font-family="Helvetica,sans-Serif" font-size="10.00">IB.H</text>
</a>
</g>
</g>
<!-- Node189&#45;&gt;Node195 -->
<g id="edge32" class="edge">
<title>Node189&#45;&gt;Node195</title>
<path fill="none" stroke="midnightblue" d="M1419.58,-231.85C1282.27,-227.89 850.92,-213.7 714,-188 710.89,-187.42 707.64,-186.59 704.51,-185.67"/>
<polygon fill="midnightblue" stroke="midnightblue" points="1419.61,-235.35 1429.7,-232.13 1419.81,-228.35 1419.61,-235.35"/>
</g>
<!-- Node196 -->
<g id="node25" class="node">
<title>Node196</title>
<g id="a_node25"><a xlink:href="_boussinesq_bubble_8_h.html" target="_top" xlink:title=" ">
<polygon fill="white" stroke="red" points="723,-168.5 723,-187.5 839,-187.5 839,-168.5 723,-168.5"/>
<text text-anchor="middle" x="781" y="-175.5" font-family="Helvetica,sans-Serif" font-size="10.00">BoussinesqBubble.H</text>
</a>
</g>
</g>
<!-- Node189&#45;&gt;Node196 -->
<g id="edge34" class="edge">
<title>Node189&#45;&gt;Node196</title>
<path fill="none" stroke="midnightblue" d="M1419.43,-230.73C1319.62,-225.23 1062.8,-209.98 849,-188 845.8,-187.67 842.52,-187.31 839.21,-186.93"/>
<polygon fill="midnightblue" stroke="midnightblue" points="1419.53,-234.24 1429.71,-231.29 1419.91,-227.25 1419.53,-234.24"/>
</g>
<!-- Node197 -->
<g id="node26" class="node">
<title>Node197</title>
<g id="a_node26"><a xlink:href="_free_stream_8_h.html" target="_top" xlink:title=" ">
<polygon fill="white" stroke="red" points="1846.5,-168.5 1846.5,-187.5 1929.5,-187.5 1929.5,-168.5 1846.5,-168.5"/>
<text text-anchor="middle" x="1888" y="-175.5" font-family="Helvetica,sans-Serif" font-size="10.00">FreeStream.H</text>
</a>
</g>
</g>
<!-- Node189&#45;&gt;Node197 -->
<g id="edge37" class="edge">
<title>Node189&#45;&gt;Node197</title>
<path fill="none" stroke="midnightblue" d="M1504.42,-228.75C1574.18,-221.57 1717.4,-206.05 1838,-188 1840.7,-187.6 1843.49,-187.16 1846.29,-186.7"/>
<polygon fill="midnightblue" stroke="midnightblue" points="1503.87,-225.29 1494.28,-229.79 1504.58,-232.25 1503.87,-225.29"/>
</g>
<!-- Node198 -->
<g id="node27" class="node">
<title>Node198</title>
<g id="a_node27"><a xlink:href="_dam_break_8_h.html" target="_top" xlink:title=" ">
<polygon fill="white" stroke="red" points="857.5,-168.5 857.5,-187.5 936.5,-187.5 936.5,-168.5 857.5,-168.5"/>
<text text-anchor="middle" x="897" y="-175.5" font-family="Helvetica,sans-Serif" font-size="10.00">DamBreak.H</text>
</a>
</g>
</g>
<!-- Node189&#45;&gt;Node198 -->
<g id="edge40" class="edge">
<title>Node189&#45;&gt;Node198</title>
<path fill="none" stroke="midnightblue" d="M1419.73,-230.67C1331.44,-225.51 1121.12,-211.66 946,-188 942.91,-187.58 939.73,-187.11 936.53,-186.59"/>
<polygon fill="midnightblue" stroke="midnightblue" points="1419.69,-234.18 1429.88,-231.26 1420.1,-227.19 1419.69,-234.18"/>
</g>
<!-- Node199 -->
<g id="node28" class="node">
<title>Node199</title>
<g id="a_node28"><a xlink:href="_rain_drop_8_h.html" target="_top" xlink:title=" ">
<polygon fill="white" stroke="red" points="955,-168.5 955,-187.5 1027,-187.5 1027,-168.5 955,-168.5"/>
<text text-anchor="middle" x="991" y="-175.5" font-family="Helvetica,sans-Serif" font-size="10.00">RainDrop.H</text>
</a>
</g>
</g>
<!-- Node189&#45;&gt;Node199 -->
<g id="edge41" class="edge">
<title>Node189&#45;&gt;Node199</title>
<path fill="none" stroke="midnightblue" d="M1419.69,-229.76C1343.09,-223.61 1176.45,-208.98 1037,-188 1033.78,-187.52 1030.45,-186.96 1027.11,-186.38"/>
<polygon fill="midnightblue" stroke="midnightblue" points="1419.64,-233.26 1429.89,-230.57 1420.2,-226.29 1419.64,-233.26"/>
</g>
<!-- Node200 -->
<g id="node29" class="node">
<title>Node200</title>
<g id="a_node29"><a xlink:href="_sloshing_tank_8_h.html" target="_top" xlink:title=" ">
<polygon fill="white" stroke="red" points="1045.5,-168.5 1045.5,-187.5 1136.5,-187.5 1136.5,-168.5 1045.5,-168.5"/>
<text text-anchor="middle" x="1091" y="-175.5" font-family="Helvetica,sans-Serif" font-size="10.00">SloshingTank.H</text>
</a>
</g>
</g>
<!-- Node189&#45;&gt;Node200 -->
<g id="edge42" class="edge">
<title>Node189&#45;&gt;Node200</title>
<path fill="none" stroke="midnightblue" d="M1419.7,-227.26C1359.05,-218.97 1243.87,-202.97 1146,-188 1142.94,-187.53 1139.78,-187.04 1136.61,-186.54"/>
<polygon fill="midnightblue" stroke="midnightblue" points="1419.29,-230.74 1429.67,-228.62 1420.23,-223.8 1419.29,-230.74"/>
</g>
<!-- Node201 -->
<g id="node30" class="node">
<title>Node201</title>
<g id="a_node30"><a xlink:href="_vortex_patch_8_h.html" target="_top" xlink:title=" ">
<polygon fill="white" stroke="red" points="1154.5,-168.5 1154.5,-187.5 1239.5,-187.5 1239.5,-168.5 1154.5,-168.5"/>
<text text-anchor="middle" x="1197" y="-175.5" font-family="Helvetica,sans-Serif" font-size="10.00">VortexPatch.H</text>
</a>
</g>
</g>
<!-- Node189&#45;&gt;Node201 -->
<g id="edge43" class="edge">
<title>Node189&#45;&gt;Node201</title>
<path fill="none" stroke="midnightblue" d="M1419.7,-224.38C1370.13,-214.28 1288.49,-197.64 1239.03,-187.56"/>
<polygon fill="midnightblue" stroke="midnightblue" points="1419.27,-227.87 1429.77,-226.43 1420.67,-221.01 1419.27,-227.87"/>
</g>
<!-- Node202 -->
<g id="node31" class="node">
<title>Node202</title>
<g id="a_node31"><a xlink:href="_n_w_b_8_h.html" target="_top" xlink:title=" ">
<polygon fill="white" stroke="red" points="1257.5,-168.5 1257.5,-187.5 1308.5,-187.5 1308.5,-168.5 1257.5,-168.5"/>
<text text-anchor="middle" x="1283" y="-175.5" font-family="Helvetica,sans-Serif" font-size="10.00">NWB.H</text>
</a>
</g>
</g>
<!-- Node189&#45;&gt;Node202 -->
<g id="edge44" class="edge">
<title>Node189&#45;&gt;Node202</title>
<path fill="none" stroke="midnightblue" d="M1423.84,-221.49C1389.1,-211.01 1338.76,-195.82 1308.62,-186.73"/>
<polygon fill="midnightblue" stroke="midnightblue" points="1423.05,-224.91 1433.64,-224.44 1425.07,-218.2 1423.05,-224.91"/>
</g>
<!-- Node203 -->
<g id="node32" class="node">
<title>Node203</title>
<g id="a_node32"><a xlink:href="_zalesak_disk_8_h.html" target="_top" xlink:title=" ">
<polygon fill="white" stroke="red" points="1327,-168.5 1327,-187.5 1415,-187.5 1415,-168.5 1327,-168.5"/>
<text text-anchor="middle" x="1371" y="-175.5" font-family="Helvetica,sans-Serif" font-size="10.00">ZalesakDisk.H</text>
</a>
</g>
</g>
<!-- Node189&#45;&gt;Node203 -->
<g id="edge45" class="edge">
<title>Node189&#45;&gt;Node203</title>
<path fill="none" stroke="midnightblue" d="M1438.71,-219.18C1421.96,-209.24 1399.9,-196.15 1385.58,-187.65"/>
<polygon fill="midnightblue" stroke="midnightblue" points="1436.99,-222.23 1447.38,-224.32 1440.57,-216.21 1436.99,-222.23"/>
</g>
<!-- Node207&#45;&gt;Node3 -->
<g id="edge47" class="edge">
<title>Node207&#45;&gt;Node3</title>
<path fill="none" stroke="midnightblue" d="M959.52,-228.04C892.37,-220.77 765.91,-206.07 659,-188 655.84,-187.47 652.56,-186.87 649.29,-186.23"/>
<polygon fill="midnightblue" stroke="midnightblue" points="959.46,-231.56 969.78,-229.15 960.21,-224.6 959.46,-231.56"/>
</g>
<!-- Node212&#45;&gt;Node8 -->
<g id="edge49" class="edge">
<title>Node212&#45;&gt;Node8</title>
<path fill="none" stroke="midnightblue" d="M1830.15,-223.76C1918.28,-211.19 2064.84,-190.03 2067,-188 2116.28,-141.76 2109.59,-48.34 2106.18,-19.61"/>
<polygon fill="midnightblue" stroke="midnightblue" points="1829.64,-220.29 1820.24,-225.17 1830.63,-227.22 1829.64,-220.29"/>
</g>
<!-- Node212&#45;&gt;Node9 -->
<g id="edge50" class="edge">
<title>Node212&#45;&gt;Node9</title>
<path fill="none" stroke="midnightblue" d="M1812.52,-222.22C1857.5,-212.01 1924.1,-196.9 1965.46,-187.52"/>
<polygon fill="midnightblue" stroke="midnightblue" points="1811.69,-218.82 1802.71,-224.44 1813.24,-225.64 1811.69,-218.82"/>
</g>
<!-- Node213&#45;&gt;Node8 -->
<g id="edge52" class="edge">
<title>Node213&#45;&gt;Node8</title>
<path fill="none" stroke="midnightblue" d="M1949.65,-223.95C2008.49,-214.56 2090.3,-199.65 2100,-188 2142.1,-137.45 2117.31,-47.73 2108.04,-19.65"/>
<polygon fill="midnightblue" stroke="midnightblue" points="1949.02,-220.5 1939.69,-225.52 1950.11,-227.42 1949.02,-220.5"/>
</g>
<!-- Node213&#45;&gt;Node9 -->
<g id="edge53" class="edge">
<title>Node213&#45;&gt;Node9</title>
<path fill="none" stroke="midnightblue" d="M1916.24,-220.1C1937.54,-210.01 1966.54,-196.27 1985.02,-187.52"/>
<polygon fill="midnightblue" stroke="midnightblue" points="1914.6,-217 1907.06,-224.44 1917.6,-223.33 1914.6,-217"/>
</g>
<!-- Node213&#45;&gt;Node215 -->
<g id="edge54" class="edge">
<title>Node213&#45;&gt;Node215</title>
<path fill="none" stroke="midnightblue" d="M1948.73,-222.73C2008.07,-212.52 2097.99,-197.06 2153.48,-187.52"/>
<polygon fill="midnightblue" stroke="midnightblue" points="1948.02,-219.3 1938.75,-224.44 1949.2,-226.2 1948.02,-219.3"/>
</g>
<!-- Node218&#45;&gt;Node8 -->
<g id="edge56" class="edge">
<title>Node218&#45;&gt;Node8</title>
<path fill="none" stroke="midnightblue" d="M2356.54,-54.67C2290.99,-43.29 2188.02,-25.41 2136.52,-16.47"/>
<polygon fill="midnightblue" stroke="midnightblue" points="2356.27,-58.18 2366.72,-56.44 2357.47,-51.28 2356.27,-58.18"/>
</g>
<!-- Node243&#45;&gt;Node8 -->
<g id="edge67" class="edge">
<title>Node243&#45;&gt;Node8</title>
<path fill="none" stroke="midnightblue" d="M2582.27,-58.12C2462.56,-46.3 2222.54,-22.6 2136.55,-14.11"/>
<polygon fill="midnightblue" stroke="midnightblue" points="2582.12,-61.62 2592.42,-59.12 2582.81,-54.65 2582.12,-61.62"/>
</g>
<!-- Node258&#45;&gt;Node197 -->
<g id="edge69" class="edge">
<title>Node258&#45;&gt;Node197</title>
<path fill="none" stroke="midnightblue" d="M1701.79,-223.86C1759.44,-209.13 1815.3,-195.89 1851.02,-187.55"/>
<polygon fill="midnightblue" stroke="midnightblue" points="1700.59,-220.55 1691.77,-226.43 1702.33,-227.33 1700.59,-220.55"/>
</g>
</g>
</svg>
