<?xml version="1.0" encoding="UTF-8" standalone="no"?>
<!DOCTYPE svg PUBLIC "-//W3C//DTD SVG 1.1//EN"
 "http://www.w3.org/Graphics/SVG/1.1/DTD/svg11.dtd">
<!-- Generated by graphviz version 2.43.0 (0)
 -->
<!-- Title: FieldNorms.H Pages: 1 -->
<!--zoomable 330 -->
<svg id="main" version="1.1" xmlns="http://www.w3.org/2000/svg" xmlns:xlink="http://www.w3.org/1999/xlink" xml:space="preserve" onload="init(evt)">
<style type="text/css"><![CDATA[
.edge:hover path { stroke: red; }
.edge:hover polygon { stroke: red; fill: red; }
]]></style>
<script type="text/javascript"><![CDATA[
var edges = document.getElementsByTagName('g');
if (edges && edges.length) {
  for (var i=0;i<edges.length;i++) {
    if (edges[i].id.substr(0,4)=='edge') {
      edges[i].setAttribute('class','edge');
    }
  }
}
]]></script>
        <defs>
                <circle id="rim" cx="0" cy="0" r="7"/>
                <circle id="rim2" cx="0" cy="0" r="3.5"/>
                <g id="zoomPlus">
                        <use xlink:href="#rim" fill="#404040">
                                <set attributeName="fill" to="#808080" begin="zoomplus.mouseover" end="zoomplus.mouseout"/>
                        </use>
                        <path d="M-4,0h8M0,-4v8" fill="none" stroke="white" stroke-width="1.5" pointer-events="none"/>
                </g>
                <g id="zoomMin">
                        <use xlink:href="#rim" fill="#404040">
                                <set attributeName="fill" to="#808080" begin="zoomminus.mouseover" end="zoomminus.mouseout"/>
                        </use>
                        <path d="M-4,0h8" fill="none" stroke="white" stroke-width="1.5" pointer-events="none"/>
                </g>
                <g id="dirArrow">
                        <path fill="none" stroke="white" stroke-width="1.5" d="M0,-3.0v7 M-2.5,-0.5L0,-3.0L2.5,-0.5"/>
                </g>
               <g id="resetDef">
                       <use xlink:href="#rim2" fill="#404040">
                               <set attributeName="fill" to="#808080" begin="reset.mouseover" end="reset.mouseout"/>
                       </use>
               </g>
        </defs>

<script type="text/javascript">
var viewWidth = 2674;
var viewHeight = 330;
var sectionId = 'dynsection-0';
</script>
<script xlink:href="svgpan.js"/>
<svg id="graph" class="graph">
<g id="viewport">
<title>FieldNorms.H</title>
<polygon fill="white" stroke="transparent" points="-4,4 -4,-326 2669.59,-326 2669.59,4 -4,4"/>
<!-- Node1 -->
<g id="node1" class="node">
<title>Node1</title>
<g id="a_node1"><a xlink:title=" ">
<polygon fill="#bfbfbf" stroke="black" points="1982.5,-302.5 1982.5,-321.5 2065.5,-321.5 2065.5,-302.5 1982.5,-302.5"/>
<text text-anchor="middle" x="2024" y="-309.5" font-family="Helvetica,sans-Serif" font-size="10.00">FieldNorms.H</text>
</a>
</g>
</g>
<!-- Node2 -->
<g id="node2" class="node">
<title>Node2</title>
<g id="a_node2"><a xlink:href="_c_f_d_sim_8_h.html" target="_top" xlink:title=" ">
<polygon fill="white" stroke="black" points="1923,-246.5 1923,-265.5 2039,-265.5 2039,-246.5 1923,-246.5"/>
<text text-anchor="middle" x="1981" y="-253.5" font-family="Helvetica,sans-Serif" font-size="10.00">amr&#45;wind/CFDSim.H</text>
</a>
</g>
</g>
<!-- Node1&#45;&gt;Node2 -->
<g id="edge1" class="edge">
<title>Node1&#45;&gt;Node2</title>
<path fill="none" stroke="midnightblue" d="M2016.9,-302.08C2010.76,-294.38 2001.73,-283.03 1994.26,-273.65"/>
<polygon fill="midnightblue" stroke="midnightblue" points="1996.94,-271.39 1987.97,-265.75 1991.46,-275.75 1996.94,-271.39"/>
</g>
<!-- Node39 -->
<g id="node39" class="node">
<title>Node39</title>
<g id="a_node39"><a xlink:href="_post_processing_8_h.html" target="_top" xlink:title=" ">
<polygon fill="white" stroke="black" points="2491,-179.5 2491,-209.5 2595,-209.5 2595,-179.5 2491,-179.5"/>
<text text-anchor="start" x="2499" y="-197.5" font-family="Helvetica,sans-Serif" font-size="10.00">amr&#45;wind/utilities</text>
<text text-anchor="middle" x="2543" y="-186.5" font-family="Helvetica,sans-Serif" font-size="10.00">/PostProcessing.H</text>
</a>
</g>
</g>
<!-- Node1&#45;&gt;Node39 -->
<g id="edge73" class="edge">
<title>Node1&#45;&gt;Node39</title>
<path fill="none" stroke="midnightblue" d="M2062.27,-302.49C2140.4,-285.13 2323.92,-244.33 2478,-210 2478.91,-209.8 2479.83,-209.59 2480.76,-209.38"/>
<polygon fill="midnightblue" stroke="midnightblue" points="2481.85,-212.73 2490.85,-207.14 2480.33,-205.9 2481.85,-212.73"/>
</g>
<!-- Node3 -->
<g id="node3" class="node">
<title>Node3</title>
<g id="a_node3"><a xlink:title=" ">
<polygon fill="white" stroke="#bfbfbf" points="1132,-118 1132,-137 1242,-137 1242,-118 1132,-118"/>
<text text-anchor="middle" x="1187" y="-125" font-family="Helvetica,sans-Serif" font-size="10.00">AMReX_AmrCore.H</text>
</a>
</g>
</g>
<!-- Node2&#45;&gt;Node3 -->
<g id="edge2" class="edge">
<title>Node2&#45;&gt;Node3</title>
<path fill="none" stroke="midnightblue" d="M1922.56,-247.06C1799.11,-230.05 1502.84,-187.97 1256,-143 1249.45,-141.81 1242.56,-140.46 1235.78,-139.09"/>
<polygon fill="midnightblue" stroke="midnightblue" points="1236.47,-135.66 1225.97,-137.07 1235.06,-142.52 1236.47,-135.66"/>
</g>
<!-- Node4 -->
<g id="node4" class="node">
<title>Node4</title>
<g id="a_node4"><a xlink:href="_sim_time_8_h.html" target="_top" xlink:title=" ">
<polygon fill="white" stroke="black" points="199,-185 199,-204 343,-204 343,-185 199,-185"/>
<text text-anchor="middle" x="271" y="-192" font-family="Helvetica,sans-Serif" font-size="10.00">amr&#45;wind/core/SimTime.H</text>
</a>
</g>
</g>
<!-- Node2&#45;&gt;Node4 -->
<g id="edge3" class="edge">
<title>Node2&#45;&gt;Node4</title>
<path fill="none" stroke="midnightblue" d="M1922.63,-252.97C1667.67,-244.1 651.11,-208.73 353.35,-198.37"/>
<polygon fill="midnightblue" stroke="midnightblue" points="353.18,-194.86 343.06,-198.01 352.94,-201.85 353.18,-194.86"/>
</g>
<!-- Node8 -->
<g id="node8" class="node">
<title>Node8</title>
<g id="a_node8"><a xlink:href="_field_repo_8_h.html" target="_top" xlink:title=" ">
<polygon fill="white" stroke="black" points="1029.5,-185 1029.5,-204 1178.5,-204 1178.5,-185 1029.5,-185"/>
<text text-anchor="middle" x="1104" y="-192" font-family="Helvetica,sans-Serif" font-size="10.00">amr&#45;wind/core/FieldRepo.H</text>
</a>
</g>
</g>
<!-- Node2&#45;&gt;Node8 -->
<g id="edge7" class="edge">
<title>Node2&#45;&gt;Node8</title>
<path fill="none" stroke="midnightblue" d="M1922.78,-251.05C1771.54,-240.79 1365.72,-213.26 1188.62,-201.24"/>
<polygon fill="midnightblue" stroke="midnightblue" points="1188.78,-197.74 1178.56,-200.56 1188.3,-204.73 1188.78,-197.74"/>
</g>
<!-- Node28 -->
<g id="node28" class="node">
<title>Node28</title>
<g id="a_node28"><a xlink:href="_p_d_e_base_8_h.html" target="_top" xlink:title=" ">
<polygon fill="white" stroke="black" points="1903.5,-179.5 1903.5,-209.5 2058.5,-209.5 2058.5,-179.5 1903.5,-179.5"/>
<text text-anchor="start" x="1911.5" y="-197.5" font-family="Helvetica,sans-Serif" font-size="10.00">amr&#45;wind/equation_systems</text>
<text text-anchor="middle" x="1981" y="-186.5" font-family="Helvetica,sans-Serif" font-size="10.00">/PDEBase.H</text>
</a>
</g>
</g>
<!-- Node2&#45;&gt;Node28 -->
<g id="edge45" class="edge">
<title>Node2&#45;&gt;Node28</title>
<path fill="none" stroke="midnightblue" d="M1981,-246.48C1981,-239.47 1981,-229.19 1981,-219.7"/>
<polygon fill="midnightblue" stroke="midnightblue" points="1984.5,-219.52 1981,-209.52 1977.5,-219.52 1984.5,-219.52"/>
</g>
<!-- Node36 -->
<g id="node36" class="node">
<title>Node36</title>
<g id="a_node36"><a xlink:href="_physics_8_h.html" target="_top" xlink:title=" ">
<polygon fill="white" stroke="black" points="2331.5,-185 2331.5,-204 2468.5,-204 2468.5,-185 2331.5,-185"/>
<text text-anchor="middle" x="2400" y="-192" font-family="Helvetica,sans-Serif" font-size="10.00">amr&#45;wind/core/Physics.H</text>
</a>
</g>
</g>
<!-- Node2&#45;&gt;Node36 -->
<g id="edge62" class="edge">
<title>Node2&#45;&gt;Node36</title>
<path fill="none" stroke="midnightblue" d="M2039.19,-247.53C2105.17,-238.95 2215.93,-224.22 2311,-210 2320.1,-208.64 2329.7,-207.14 2339.11,-205.64"/>
<polygon fill="midnightblue" stroke="midnightblue" points="2339.89,-209.06 2349.21,-204.01 2338.78,-202.14 2339.89,-209.06"/>
</g>
<!-- Node38 -->
<g id="node38" class="node">
<title>Node38</title>
<g id="a_node38"><a xlink:href="_mesh_map_8_h.html" target="_top" xlink:title=" ">
<polygon fill="white" stroke="black" points="2154,-185 2154,-204 2302,-204 2302,-185 2154,-185"/>
<text text-anchor="middle" x="2228" y="-192" font-family="Helvetica,sans-Serif" font-size="10.00">amr&#45;wind/core/MeshMap.H</text>
</a>
</g>
</g>
<!-- Node2&#45;&gt;Node38 -->
<g id="edge67" class="edge">
<title>Node2&#45;&gt;Node38</title>
<path fill="none" stroke="midnightblue" d="M2016.39,-246.48C2060.23,-235.92 2134.97,-217.91 2182.88,-206.37"/>
<polygon fill="midnightblue" stroke="midnightblue" points="2183.77,-209.75 2192.68,-204.01 2182.13,-202.95 2183.77,-209.75"/>
</g>
<!-- Node5 -->
<g id="node5" class="node">
<title>Node5</title>
<g id="a_node5"><a xlink:title=" ">
<polygon fill="white" stroke="#bfbfbf" points="286,-118 286,-137 378,-137 378,-118 286,-118"/>
<text text-anchor="middle" x="332" y="-125" font-family="Helvetica,sans-Serif" font-size="10.00">AMReX_REAL.H</text>
</a>
</g>
</g>
<!-- Node4&#45;&gt;Node5 -->
<g id="edge4" class="edge">
<title>Node4&#45;&gt;Node5</title>
<path fill="none" stroke="midnightblue" d="M279.23,-184.73C288.83,-174.5 304.91,-157.36 316.8,-144.69"/>
<polygon fill="midnightblue" stroke="midnightblue" points="319.61,-146.81 323.9,-137.13 314.51,-142.02 319.61,-146.81"/>
</g>
<!-- Node6 -->
<g id="node6" class="node">
<title>Node6</title>
<g id="a_node6"><a xlink:title=" ">
<polygon fill="white" stroke="#bfbfbf" points="0,-118 0,-137 134,-137 134,-118 0,-118"/>
<text text-anchor="middle" x="67" y="-125" font-family="Helvetica,sans-Serif" font-size="10.00">AMReX_GpuQualifiers.H</text>
</a>
</g>
</g>
<!-- Node4&#45;&gt;Node6 -->
<g id="edge5" class="edge">
<title>Node4&#45;&gt;Node6</title>
<path fill="none" stroke="midnightblue" d="M243.91,-184.87C207.84,-173.38 143.92,-153.01 103.59,-140.16"/>
<polygon fill="midnightblue" stroke="midnightblue" points="104.47,-136.76 93.88,-137.06 102.34,-143.43 104.47,-136.76"/>
</g>
<!-- Node7 -->
<g id="node7" class="node">
<title>Node7</title>
<g id="a_node7"><a xlink:title=" ">
<polygon fill="white" stroke="#bfbfbf" points="152,-118 152,-137 268,-137 268,-118 152,-118"/>
<text text-anchor="middle" x="210" y="-125" font-family="Helvetica,sans-Serif" font-size="10.00">AMReX_Extension.H</text>
</a>
</g>
</g>
<!-- Node4&#45;&gt;Node7 -->
<g id="edge6" class="edge">
<title>Node4&#45;&gt;Node7</title>
<path fill="none" stroke="midnightblue" d="M262.77,-184.73C253.17,-174.5 237.09,-157.36 225.2,-144.69"/>
<polygon fill="midnightblue" stroke="midnightblue" points="227.49,-142.02 218.1,-137.13 222.39,-146.81 227.49,-142.02"/>
</g>
<!-- Node8&#45;&gt;Node3 -->
<g id="edge42" class="edge">
<title>Node8&#45;&gt;Node3</title>
<path fill="none" stroke="midnightblue" d="M1115.19,-184.73C1128.63,-174.21 1151.4,-156.38 1167.7,-143.62"/>
<polygon fill="midnightblue" stroke="midnightblue" points="1170.27,-146.05 1175.98,-137.13 1165.95,-140.54 1170.27,-146.05"/>
</g>
<!-- Node9 -->
<g id="node9" class="node">
<title>Node9</title>
<g id="a_node9"><a xlink:title=" ">
<polygon fill="white" stroke="#bfbfbf" points="1158,-0.5 1158,-19.5 1202,-19.5 1202,-0.5 1158,-0.5"/>
<text text-anchor="middle" x="1180" y="-7.5" font-family="Helvetica,sans-Serif" font-size="10.00">string</text>
</a>
</g>
</g>
<!-- Node8&#45;&gt;Node9 -->
<g id="edge8" class="edge">
<title>Node8&#45;&gt;Node9</title>
<path fill="none" stroke="midnightblue" d="M1105.21,-184.69C1107.49,-169.47 1113.09,-137.45 1123,-112 1135.12,-80.88 1155.46,-47.69 1168.28,-28.17"/>
<polygon fill="midnightblue" stroke="midnightblue" points="1171.26,-30.02 1173.91,-19.76 1165.44,-26.13 1171.26,-30.02"/>
</g>
<!-- Node10 -->
<g id="node10" class="node">
<title>Node10</title>
<g id="a_node10"><a xlink:title=" ">
<polygon fill="white" stroke="#bfbfbf" points="2095.5,-56.5 2095.5,-75.5 2188.5,-75.5 2188.5,-56.5 2095.5,-56.5"/>
<text text-anchor="middle" x="2142" y="-63.5" font-family="Helvetica,sans-Serif" font-size="10.00">unordered_map</text>
</a>
</g>
</g>
<!-- Node8&#45;&gt;Node10 -->
<g id="edge9" class="edge">
<title>Node8&#45;&gt;Node10</title>
<path fill="none" stroke="midnightblue" d="M1178.8,-191.49C1347.2,-186.5 1751.7,-171.83 1885,-143 1923.08,-134.76 1929.85,-123.76 1967,-112 2009.33,-98.6 2058.34,-86.26 2093.71,-77.91"/>
<polygon fill="midnightblue" stroke="midnightblue" points="2094.83,-81.24 2103.77,-75.55 2093.23,-74.43 2094.83,-81.24"/>
</g>
<!-- Node11 -->
<g id="node11" class="node">
<title>Node11</title>
<g id="a_node11"><a xlink:href="_field_desc_types_8_h.html" target="_top" xlink:title=" ">
<polygon fill="white" stroke="black" points="708,-0.5 708,-19.5 884,-19.5 884,-0.5 708,-0.5"/>
<text text-anchor="middle" x="796" y="-7.5" font-family="Helvetica,sans-Serif" font-size="10.00">amr&#45;wind/core/FieldDescTypes.H</text>
</a>
</g>
</g>
<!-- Node8&#45;&gt;Node11 -->
<g id="edge10" class="edge">
<title>Node8&#45;&gt;Node11</title>
<path fill="none" stroke="midnightblue" d="M1029.19,-192.18C949.28,-188.86 819.83,-177.95 714,-143 656,-123.84 624.92,-128.68 594,-76 589.5,-68.33 588.44,-62.94 594,-56 607.71,-38.9 654.25,-27.87 699.2,-21.02"/>
<polygon fill="midnightblue" stroke="midnightblue" points="699.96,-24.45 709.35,-19.54 698.95,-17.52 699.96,-24.45"/>
</g>
<!-- Node12 -->
<g id="node12" class="node">
<title>Node12</title>
<g id="a_node12"><a xlink:href="_field_utils_8_h.html" target="_top" xlink:title=" ">
<polygon fill="white" stroke="black" points="603,-56.5 603,-75.5 749,-75.5 749,-56.5 603,-56.5"/>
<text text-anchor="middle" x="676" y="-63.5" font-family="Helvetica,sans-Serif" font-size="10.00">amr&#45;wind/core/FieldUtils.H</text>
</a>
</g>
</g>
<!-- Node8&#45;&gt;Node12 -->
<g id="edge11" class="edge">
<title>Node8&#45;&gt;Node12</title>
<path fill="none" stroke="midnightblue" d="M1029.29,-187.38C943.61,-179.51 809.05,-164.26 763,-143 732.96,-129.13 705.5,-101.57 689.77,-83.72"/>
<polygon fill="midnightblue" stroke="midnightblue" points="692.2,-81.17 683.04,-75.85 686.88,-85.72 692.2,-81.17"/>
</g>
<!-- Node13 -->
<g id="node13" class="node">
<title>Node13</title>
<g id="a_node13"><a xlink:title=" ">
<polygon fill="white" stroke="#bfbfbf" points="1748.5,-0.5 1748.5,-19.5 1857.5,-19.5 1857.5,-0.5 1748.5,-0.5"/>
<text text-anchor="middle" x="1803" y="-7.5" font-family="Helvetica,sans-Serif" font-size="10.00">AMReX_MultiFab.H</text>
</a>
</g>
</g>
<!-- Node8&#45;&gt;Node13 -->
<g id="edge43" class="edge">
<title>Node8&#45;&gt;Node13</title>
<path fill="none" stroke="midnightblue" d="M1178.87,-192.45C1299.44,-189.67 1543.67,-179.59 1747,-143 1773.72,-138.19 1965.64,-97.67 1982,-76 2014.8,-32.54 1931.32,-18.1 1867.59,-13.32"/>
<polygon fill="midnightblue" stroke="midnightblue" points="1867.77,-9.83 1857.55,-12.64 1867.29,-16.81 1867.77,-9.83"/>
</g>
<!-- Node15 -->
<g id="node15" class="node">
<title>Node15</title>
<g id="a_node15"><a xlink:href="_field_8_h.html" target="_top" xlink:title=" ">
<polygon fill="white" stroke="black" points="1614,-118 1614,-137 1738,-137 1738,-118 1614,-118"/>
<text text-anchor="middle" x="1676" y="-125" font-family="Helvetica,sans-Serif" font-size="10.00">amr&#45;wind/core/Field.H</text>
</a>
</g>
</g>
<!-- Node8&#45;&gt;Node15 -->
<g id="edge15" class="edge">
<title>Node8&#45;&gt;Node15</title>
<path fill="none" stroke="midnightblue" d="M1178.78,-185C1289.23,-172.45 1494.64,-149.11 1603.67,-136.72"/>
<polygon fill="midnightblue" stroke="midnightblue" points="1604.37,-140.16 1613.91,-135.56 1603.58,-133.21 1604.37,-140.16"/>
</g>
<!-- Node23 -->
<g id="node23" class="node">
<title>Node23</title>
<g id="a_node23"><a xlink:href="_int_field_8_h.html" target="_top" xlink:title=" ">
<polygon fill="white" stroke="black" points="434.5,-118 434.5,-137 571.5,-137 571.5,-118 434.5,-118"/>
<text text-anchor="middle" x="503" y="-125" font-family="Helvetica,sans-Serif" font-size="10.00">amr&#45;wind/core/IntField.H</text>
</a>
</g>
</g>
<!-- Node8&#45;&gt;Node23 -->
<g id="edge30" class="edge">
<title>Node8&#45;&gt;Node23</title>
<path fill="none" stroke="midnightblue" d="M1029.16,-187.99C928.27,-180.16 743.13,-164.35 586,-143 576.95,-141.77 567.38,-140.28 558.08,-138.72"/>
<polygon fill="midnightblue" stroke="midnightblue" points="558.58,-135.26 548.13,-137.02 557.4,-142.16 558.58,-135.26"/>
</g>
<!-- Node24 -->
<g id="node24" class="node">
<title>Node24</title>
<g id="a_node24"><a xlink:title=" ">
<polygon fill="white" stroke="#bfbfbf" points="356,-56.5 356,-75.5 468,-75.5 468,-56.5 356,-56.5"/>
<text text-anchor="middle" x="412" y="-63.5" font-family="Helvetica,sans-Serif" font-size="10.00">AMReX_iMultiFab.H</text>
</a>
</g>
</g>
<!-- Node8&#45;&gt;Node24 -->
<g id="edge44" class="edge">
<title>Node8&#45;&gt;Node24</title>
<path fill="none" stroke="midnightblue" d="M1029.36,-192.99C862.44,-191.15 470.11,-182.59 426,-143 410.27,-128.89 408.6,-103.37 409.64,-85.83"/>
<polygon fill="midnightblue" stroke="midnightblue" points="413.14,-85.93 410.59,-75.65 406.17,-85.28 413.14,-85.93"/>
</g>
<!-- Node25 -->
<g id="node25" class="node">
<title>Node25</title>
<g id="a_node25"><a xlink:href="_scratch_field_8_h.html" target="_top" xlink:title=" ">
<polygon fill="white" stroke="black" points="916,-118 916,-137 1076,-137 1076,-118 916,-118"/>
<text text-anchor="middle" x="996" y="-125" font-family="Helvetica,sans-Serif" font-size="10.00">amr&#45;wind/core/ScratchField.H</text>
</a>
</g>
</g>
<!-- Node8&#45;&gt;Node25 -->
<g id="edge34" class="edge">
<title>Node8&#45;&gt;Node25</title>
<path fill="none" stroke="midnightblue" d="M1089.43,-184.73C1071.38,-173.87 1040.39,-155.22 1019.08,-142.39"/>
<polygon fill="midnightblue" stroke="midnightblue" points="1020.71,-139.29 1010.33,-137.13 1017.1,-145.28 1020.71,-139.29"/>
</g>
<!-- Node12&#45;&gt;Node11 -->
<g id="edge12" class="edge">
<title>Node12&#45;&gt;Node11</title>
<path fill="none" stroke="midnightblue" d="M695.01,-56.44C714.59,-47.64 745.31,-33.81 767.73,-23.72"/>
<polygon fill="midnightblue" stroke="midnightblue" points="769.39,-26.81 777.07,-19.52 766.52,-20.43 769.39,-26.81"/>
</g>
<!-- Node12&#45;&gt;Node13 -->
<g id="edge13" class="edge">
<title>Node12&#45;&gt;Node13</title>
<path fill="none" stroke="midnightblue" d="M749.21,-60.7C776.18,-59.16 806.97,-57.44 835,-56 1174.98,-38.48 1582.29,-20.54 1738.07,-13.79"/>
<polygon fill="midnightblue" stroke="midnightblue" points="1738.57,-17.27 1748.41,-13.34 1738.27,-10.28 1738.57,-17.27"/>
</g>
<!-- Node14 -->
<g id="node14" class="node">
<title>Node14</title>
<g id="a_node14"><a xlink:title=" ">
<polygon fill="white" stroke="#bfbfbf" points="566,-0.5 566,-19.5 690,-19.5 690,-0.5 566,-0.5"/>
<text text-anchor="middle" x="628" y="-7.5" font-family="Helvetica,sans-Serif" font-size="10.00">AMReX_Interpolater.H</text>
</a>
</g>
</g>
<!-- Node12&#45;&gt;Node14 -->
<g id="edge14" class="edge">
<title>Node12&#45;&gt;Node14</title>
<path fill="none" stroke="midnightblue" d="M668.07,-56.08C661.15,-48.3 650.93,-36.8 642.55,-27.37"/>
<polygon fill="midnightblue" stroke="midnightblue" points="645.04,-24.9 635.78,-19.75 639.81,-29.55 645.04,-24.9"/>
</g>
<!-- Node15&#45;&gt;Node9 -->
<g id="edge16" class="edge">
<title>Node15&#45;&gt;Node9</title>
<path fill="none" stroke="midnightblue" d="M1639.12,-117.91C1545.6,-96.13 1300.34,-39.02 1212.16,-18.49"/>
<polygon fill="midnightblue" stroke="midnightblue" points="1212.74,-15.03 1202.21,-16.17 1211.15,-21.85 1212.74,-15.03"/>
</g>
<!-- Node15&#45;&gt;Node10 -->
<g id="edge18" class="edge">
<title>Node15&#45;&gt;Node10</title>
<path fill="none" stroke="midnightblue" d="M1738.26,-119.55C1816.65,-110.65 1955.69,-94.31 2085.17,-76.07"/>
<polygon fill="midnightblue" stroke="midnightblue" points="2085.86,-79.51 2095.27,-74.64 2084.88,-72.58 2085.86,-79.51"/>
</g>
<!-- Node15&#45;&gt;Node11 -->
<g id="edge24" class="edge">
<title>Node15&#45;&gt;Node11</title>
<path fill="none" stroke="midnightblue" d="M1613.75,-121C1522.55,-112.69 1347.37,-95.8 1199,-76 1075.64,-59.53 931.88,-35.07 853.76,-21.33"/>
<polygon fill="midnightblue" stroke="midnightblue" points="854.1,-17.84 843.64,-19.55 852.88,-24.73 854.1,-17.84"/>
</g>
<!-- Node15&#45;&gt;Node13 -->
<g id="edge20" class="edge">
<title>Node15&#45;&gt;Node13</title>
<path fill="none" stroke="midnightblue" d="M1712.09,-117.94C1735.69,-110.57 1765.47,-97.6 1784,-76 1795.11,-63.04 1799.73,-43.88 1801.65,-29.71"/>
<polygon fill="midnightblue" stroke="midnightblue" points="1805.14,-29.94 1802.68,-19.64 1798.18,-29.23 1805.14,-29.94"/>
</g>
<!-- Node16 -->
<g id="node16" class="node">
<title>Node16</title>
<g id="a_node16"><a xlink:title=" ">
<polygon fill="white" stroke="#bfbfbf" points="2283,-56.5 2283,-75.5 2341,-75.5 2341,-56.5 2283,-56.5"/>
<text text-anchor="middle" x="2312" y="-63.5" font-family="Helvetica,sans-Serif" font-size="10.00">memory</text>
</a>
</g>
</g>
<!-- Node15&#45;&gt;Node16 -->
<g id="edge17" class="edge">
<title>Node15&#45;&gt;Node16</title>
<path fill="none" stroke="midnightblue" d="M1738.14,-120.69C1868.21,-108.52 2165.94,-80.66 2272.87,-70.66"/>
<polygon fill="midnightblue" stroke="midnightblue" points="2273.27,-74.14 2282.9,-69.72 2272.62,-67.17 2273.27,-74.14"/>
</g>
<!-- Node17 -->
<g id="node17" class="node">
<title>Node17</title>
<g id="a_node17"><a xlink:title=" ">
<polygon fill="white" stroke="#bfbfbf" points="1488,-56.5 1488,-75.5 1552,-75.5 1552,-56.5 1488,-56.5"/>
<text text-anchor="middle" x="1520" y="-63.5" font-family="Helvetica,sans-Serif" font-size="10.00">algorithm</text>
</a>
</g>
</g>
<!-- Node15&#45;&gt;Node17 -->
<g id="edge19" class="edge">
<title>Node15&#45;&gt;Node17</title>
<path fill="none" stroke="midnightblue" d="M1653.65,-117.98C1627.01,-107.81 1582.29,-90.76 1551.99,-79.2"/>
<polygon fill="midnightblue" stroke="midnightblue" points="1552.9,-75.8 1542.31,-75.51 1550.41,-82.34 1552.9,-75.8"/>
</g>
<!-- Node18 -->
<g id="node18" class="node">
<title>Node18</title>
<g id="a_node18"><a xlink:title=" ">
<polygon fill="white" stroke="#bfbfbf" points="1570.5,-56.5 1570.5,-75.5 1669.5,-75.5 1669.5,-56.5 1570.5,-56.5"/>
<text text-anchor="middle" x="1620" y="-63.5" font-family="Helvetica,sans-Serif" font-size="10.00">AMReX_BCRec.H</text>
</a>
</g>
</g>
<!-- Node15&#45;&gt;Node18 -->
<g id="edge21" class="edge">
<title>Node15&#45;&gt;Node18</title>
<path fill="none" stroke="midnightblue" d="M1667.98,-117.98C1659.41,-108.87 1645.64,-94.24 1635.04,-82.98"/>
<polygon fill="midnightblue" stroke="midnightblue" points="1637.41,-80.39 1628.01,-75.51 1632.31,-85.19 1637.41,-80.39"/>
</g>
<!-- Node19 -->
<g id="node19" class="node">
<title>Node19</title>
<g id="a_node19"><a xlink:title=" ">
<polygon fill="white" stroke="#bfbfbf" points="1687.5,-56.5 1687.5,-75.5 1774.5,-75.5 1774.5,-56.5 1687.5,-56.5"/>
<text text-anchor="middle" x="1731" y="-63.5" font-family="Helvetica,sans-Serif" font-size="10.00">AMReX_Gpu.H</text>
</a>
</g>
</g>
<!-- Node15&#45;&gt;Node19 -->
<g id="edge22" class="edge">
<title>Node15&#45;&gt;Node19</title>
<path fill="none" stroke="midnightblue" d="M1683.88,-117.98C1692.29,-108.87 1705.82,-94.24 1716.23,-82.98"/>
<polygon fill="midnightblue" stroke="midnightblue" points="1718.92,-85.23 1723.13,-75.51 1713.78,-80.48 1718.92,-85.23"/>
</g>
<!-- Node20 -->
<g id="node20" class="node">
<title>Node20</title>
<g id="a_node20"><a xlink:href="incflo__enums_8_h.html" target="_top" xlink:title=" ">
<polygon fill="white" stroke="black" points="1831.5,-56.5 1831.5,-75.5 1972.5,-75.5 1972.5,-56.5 1831.5,-56.5"/>
<text text-anchor="middle" x="1902" y="-63.5" font-family="Helvetica,sans-Serif" font-size="10.00">amr&#45;wind/incflo_enums.H</text>
</a>
</g>
</g>
<!-- Node15&#45;&gt;Node20 -->
<g id="edge23" class="edge">
<title>Node15&#45;&gt;Node20</title>
<path fill="none" stroke="midnightblue" d="M1708.38,-117.98C1748.24,-107.48 1816.02,-89.64 1859.89,-78.09"/>
<polygon fill="midnightblue" stroke="midnightblue" points="1860.9,-81.44 1869.68,-75.51 1859.12,-74.67 1860.9,-81.44"/>
</g>
<!-- Node21 -->
<g id="node21" class="node">
<title>Node21</title>
<g id="a_node21"><a xlink:href="_view_field_8_h.html" target="_top" xlink:title=" ">
<polygon fill="white" stroke="black" points="1208,-56.5 1208,-75.5 1356,-75.5 1356,-56.5 1208,-56.5"/>
<text text-anchor="middle" x="1282" y="-63.5" font-family="Helvetica,sans-Serif" font-size="10.00">amr&#45;wind/core/ViewField.H</text>
</a>
</g>
</g>
<!-- Node15&#45;&gt;Node21 -->
<g id="edge25" class="edge">
<title>Node15&#45;&gt;Node21</title>
<path fill="none" stroke="midnightblue" d="M1619.55,-117.98C1547.87,-107.15 1424.39,-88.5 1348.3,-77.01"/>
<polygon fill="midnightblue" stroke="midnightblue" points="1348.76,-73.54 1338.35,-75.51 1347.71,-80.46 1348.76,-73.54"/>
</g>
<!-- Node21&#45;&gt;Node9 -->
<g id="edge26" class="edge">
<title>Node21&#45;&gt;Node9</title>
<path fill="none" stroke="midnightblue" d="M1265.61,-56.32C1249.33,-47.7 1224.13,-34.36 1205.28,-24.39"/>
<polygon fill="midnightblue" stroke="midnightblue" points="1206.82,-21.24 1196.35,-19.65 1203.55,-27.43 1206.82,-21.24"/>
</g>
<!-- Node21&#45;&gt;Node11 -->
<g id="edge27" class="edge">
<title>Node21&#45;&gt;Node11</title>
<path fill="none" stroke="midnightblue" d="M1207.92,-56.77C1120.59,-47.07 975.63,-30.96 883.02,-20.67"/>
<polygon fill="midnightblue" stroke="midnightblue" points="883.16,-17.16 872.83,-19.54 882.38,-24.12 883.16,-17.16"/>
</g>
<!-- Node21&#45;&gt;Node13 -->
<g id="edge28" class="edge">
<title>Node21&#45;&gt;Node13</title>
<path fill="none" stroke="midnightblue" d="M1356.09,-57.32C1458.39,-46.72 1641.21,-27.77 1738.29,-17.71"/>
<polygon fill="midnightblue" stroke="midnightblue" points="1738.68,-21.19 1748.26,-16.67 1737.96,-14.22 1738.68,-21.19"/>
</g>
<!-- Node22 -->
<g id="node22" class="node">
<title>Node22</title>
<g id="a_node22"><a xlink:title=" ">
<polygon fill="white" stroke="#bfbfbf" points="1335,-0.5 1335,-19.5 1433,-19.5 1433,-0.5 1335,-0.5"/>
<text text-anchor="middle" x="1384" y="-7.5" font-family="Helvetica,sans-Serif" font-size="10.00">AMReX_Vector.H</text>
</a>
</g>
</g>
<!-- Node21&#45;&gt;Node22 -->
<g id="edge29" class="edge">
<title>Node21&#45;&gt;Node22</title>
<path fill="none" stroke="midnightblue" d="M1298.39,-56.32C1314.67,-47.7 1339.87,-34.36 1358.72,-24.39"/>
<polygon fill="midnightblue" stroke="midnightblue" points="1360.45,-27.43 1367.65,-19.65 1357.18,-21.24 1360.45,-27.43"/>
</g>
<!-- Node23&#45;&gt;Node9 -->
<g id="edge31" class="edge">
<title>Node23&#45;&gt;Node9</title>
<path fill="none" stroke="midnightblue" d="M510.73,-117.83C525.26,-102.22 558.38,-69.73 594,-56 645.77,-36.05 1032.51,-17.52 1147.71,-12.39"/>
<polygon fill="midnightblue" stroke="midnightblue" points="1148.16,-15.88 1157.99,-11.94 1147.85,-8.89 1148.16,-15.88"/>
</g>
<!-- Node23&#45;&gt;Node11 -->
<g id="edge32" class="edge">
<title>Node23&#45;&gt;Node11</title>
<path fill="none" stroke="midnightblue" d="M502.71,-117.59C502.74,-102.48 505.16,-71.93 523,-56 536.86,-43.62 633.69,-29.77 708.13,-20.75"/>
<polygon fill="midnightblue" stroke="midnightblue" points="708.97,-24.17 718.48,-19.51 708.13,-17.22 708.97,-24.17"/>
</g>
<!-- Node23&#45;&gt;Node24 -->
<g id="edge33" class="edge">
<title>Node23&#45;&gt;Node24</title>
<path fill="none" stroke="midnightblue" d="M489.96,-117.98C475.23,-108.34 451.03,-92.52 433.49,-81.05"/>
<polygon fill="midnightblue" stroke="midnightblue" points="435.3,-78.05 425.01,-75.51 431.47,-83.91 435.3,-78.05"/>
</g>
<!-- Node25&#45;&gt;Node9 -->
<g id="edge35" class="edge">
<title>Node25&#45;&gt;Node9</title>
<path fill="none" stroke="midnightblue" d="M1006.27,-117.82C1023.1,-103.82 1057.9,-75.84 1090,-56 1109.69,-43.83 1133.1,-32.21 1151.11,-23.82"/>
<polygon fill="midnightblue" stroke="midnightblue" points="1152.87,-26.87 1160.5,-19.52 1149.95,-20.5 1152.87,-26.87"/>
</g>
<!-- Node25&#45;&gt;Node11 -->
<g id="edge37" class="edge">
<title>Node25&#45;&gt;Node11</title>
<path fill="none" stroke="midnightblue" d="M934.49,-117.99C902.2,-111.03 863.54,-98.48 835,-76 819.53,-63.81 808.82,-43.66 802.59,-29.02"/>
<polygon fill="midnightblue" stroke="midnightblue" points="805.77,-27.54 798.84,-19.52 799.26,-30.11 805.77,-27.54"/>
</g>
<!-- Node25&#45;&gt;Node13 -->
<g id="edge39" class="edge">
<title>Node25&#45;&gt;Node13</title>
<path fill="none" stroke="midnightblue" d="M1066.9,-117.99C1161.91,-106.47 1325.51,-86.17 1385,-76 1427.1,-68.8 1436.93,-63.39 1479,-56 1568.46,-40.29 1672.61,-26.65 1738.17,-18.62"/>
<polygon fill="midnightblue" stroke="midnightblue" points="1738.85,-22.06 1748.35,-17.38 1738,-15.11 1738.85,-22.06"/>
</g>
<!-- Node25&#45;&gt;Node21 -->
<g id="edge38" class="edge">
<title>Node25&#45;&gt;Node21</title>
<path fill="none" stroke="midnightblue" d="M1036.98,-117.98C1088.16,-107.33 1175.73,-89.11 1231.14,-77.58"/>
<polygon fill="midnightblue" stroke="midnightblue" points="1232.02,-80.97 1241.1,-75.51 1230.6,-74.12 1232.02,-80.97"/>
</g>
<!-- Node25&#45;&gt;Node22 -->
<g id="edge40" class="edge">
<title>Node25&#45;&gt;Node22</title>
<path fill="none" stroke="midnightblue" d="M1065.38,-117.97C1170.69,-104.88 1359.36,-80.86 1365,-76 1378.2,-64.63 1382.49,-44.63 1383.75,-29.81"/>
<polygon fill="midnightblue" stroke="midnightblue" points="1387.25,-29.87 1384.23,-19.72 1380.26,-29.54 1387.25,-29.87"/>
</g>
<!-- Node26 -->
<g id="node26" class="node">
<title>Node26</title>
<g id="a_node26"><a xlink:title=" ">
<polygon fill="white" stroke="#bfbfbf" points="843.5,-56.5 843.5,-75.5 888.5,-75.5 888.5,-56.5 843.5,-56.5"/>
<text text-anchor="middle" x="866" y="-63.5" font-family="Helvetica,sans-Serif" font-size="10.00">utility</text>
</a>
</g>
</g>
<!-- Node25&#45;&gt;Node26 -->
<g id="edge36" class="edge">
<title>Node25&#45;&gt;Node26</title>
<path fill="none" stroke="midnightblue" d="M977.37,-117.98C955.56,-107.99 919.2,-91.35 893.98,-79.81"/>
<polygon fill="midnightblue" stroke="midnightblue" points="895.14,-76.49 884.59,-75.51 892.23,-82.85 895.14,-76.49"/>
</g>
<!-- Node27 -->
<g id="node27" class="node">
<title>Node27</title>
<g id="a_node27"><a xlink:title=" ">
<polygon fill="white" stroke="#bfbfbf" points="906.5,-56.5 906.5,-75.5 1037.5,-75.5 1037.5,-56.5 906.5,-56.5"/>
<text text-anchor="middle" x="972" y="-63.5" font-family="Helvetica,sans-Serif" font-size="10.00">AMReX_PhysBCFunct.H</text>
</a>
</g>
</g>
<!-- Node25&#45;&gt;Node27 -->
<g id="edge41" class="edge">
<title>Node25&#45;&gt;Node27</title>
<path fill="none" stroke="midnightblue" d="M992.56,-117.98C989.1,-109.4 983.67,-95.93 979.25,-84.98"/>
<polygon fill="midnightblue" stroke="midnightblue" points="982.42,-83.47 975.43,-75.51 975.93,-86.09 982.42,-83.47"/>
</g>
<!-- Node28&#45;&gt;Node9 -->
<g id="edge46" class="edge">
<title>Node28&#45;&gt;Node9</title>
<path fill="none" stroke="midnightblue" d="M1903.18,-192.25C1726.51,-187.8 1302.4,-167.61 1199,-76 1185.96,-64.44 1181.65,-44.48 1180.33,-29.72"/>
<polygon fill="midnightblue" stroke="midnightblue" points="1183.82,-29.48 1179.81,-19.67 1176.83,-29.84 1183.82,-29.48"/>
</g>
<!-- Node28&#45;&gt;Node11 -->
<g id="edge60" class="edge">
<title>Node28&#45;&gt;Node11</title>
<path fill="none" stroke="midnightblue" d="M1903.38,-192.38C1672.5,-188.69 1000.27,-175.27 907,-143 858.52,-126.22 842.12,-118.24 813,-76 803.58,-62.35 799.38,-43.81 797.51,-30.02"/>
<polygon fill="midnightblue" stroke="midnightblue" points="800.96,-29.35 796.42,-19.77 794,-30.09 800.96,-29.35"/>
</g>
<!-- Node28&#45;&gt;Node20 -->
<g id="edge61" class="edge">
<title>Node28&#45;&gt;Node20</title>
<path fill="none" stroke="midnightblue" d="M1972.24,-179.48C1957.71,-156.21 1928.64,-109.66 1912.84,-84.36"/>
<polygon fill="midnightblue" stroke="midnightblue" points="1915.75,-82.42 1907.49,-75.79 1909.82,-86.12 1915.75,-82.42"/>
</g>
<!-- Node29 -->
<g id="node29" class="node">
<title>Node29</title>
<g id="a_node29"><a xlink:href="_factory_8_h.html" target="_top" xlink:title=" ">
<polygon fill="white" stroke="black" points="2476,-118 2476,-137 2610,-137 2610,-118 2476,-118"/>
<text text-anchor="middle" x="2543" y="-125" font-family="Helvetica,sans-Serif" font-size="10.00">amr&#45;wind/core/Factory.H</text>
</a>
</g>
</g>
<!-- Node28&#45;&gt;Node29 -->
<g id="edge47" class="edge">
<title>Node28&#45;&gt;Node29</title>
<path fill="none" stroke="midnightblue" d="M2058.76,-186.23C2175.45,-175.19 2390.31,-154.28 2467,-143 2475.03,-141.82 2483.5,-140.39 2491.77,-138.89"/>
<polygon fill="midnightblue" stroke="midnightblue" points="2492.5,-142.31 2501.69,-137.04 2491.22,-135.43 2492.5,-142.31"/>
</g>
<!-- Node33 -->
<g id="node33" class="node">
<title>Node33</title>
<g id="a_node33"><a xlink:href="_coll_mgr_8_h.html" target="_top" xlink:title=" ">
<polygon fill="white" stroke="black" points="2148.5,-118 2148.5,-137 2285.5,-137 2285.5,-118 2148.5,-118"/>
<text text-anchor="middle" x="2217" y="-125" font-family="Helvetica,sans-Serif" font-size="10.00">amr&#45;wind/core/CollMgr.H</text>
</a>
</g>
</g>
<!-- Node28&#45;&gt;Node33 -->
<g id="edge53" class="edge">
<title>Node28&#45;&gt;Node33</title>
<path fill="none" stroke="midnightblue" d="M2031.92,-179.48C2075.14,-167.57 2136.34,-150.72 2176.34,-139.7"/>
<polygon fill="midnightblue" stroke="midnightblue" points="2177.32,-143.06 2186.03,-137.03 2175.46,-136.31 2177.32,-143.06"/>
</g>
<!-- Node34 -->
<g id="node34" class="node">
<title>Node34</title>
<g id="a_node34"><a xlink:href="_p_d_e_fields_8_h.html" target="_top" xlink:title=" ">
<polygon fill="white" stroke="black" points="1975.5,-112.5 1975.5,-142.5 2130.5,-142.5 2130.5,-112.5 1975.5,-112.5"/>
<text text-anchor="start" x="1983.5" y="-130.5" font-family="Helvetica,sans-Serif" font-size="10.00">amr&#45;wind/equation_systems</text>
<text text-anchor="middle" x="2053" y="-119.5" font-family="Helvetica,sans-Serif" font-size="10.00">/PDEFields.H</text>
</a>
</g>
</g>
<!-- Node28&#45;&gt;Node34 -->
<g id="edge58" class="edge">
<title>Node28&#45;&gt;Node34</title>
<path fill="none" stroke="midnightblue" d="M1996.62,-179.4C2006.34,-170.62 2019.01,-159.18 2029.88,-149.37"/>
<polygon fill="midnightblue" stroke="midnightblue" points="2032.33,-151.88 2037.41,-142.58 2027.64,-146.68 2032.33,-151.88"/>
</g>
<!-- Node29&#45;&gt;Node10 -->
<g id="edge49" class="edge">
<title>Node29&#45;&gt;Node10</title>
<path fill="none" stroke="midnightblue" d="M2500.46,-117.99C2489.57,-115.92 2477.87,-113.79 2467,-112 2373.23,-96.57 2263.66,-82.14 2198.7,-73.96"/>
<polygon fill="midnightblue" stroke="midnightblue" points="2199.02,-70.47 2188.67,-72.7 2198.15,-77.42 2199.02,-70.47"/>
</g>
<!-- Node29&#45;&gt;Node16 -->
<g id="edge48" class="edge">
<title>Node29&#45;&gt;Node16</title>
<path fill="none" stroke="midnightblue" d="M2509.9,-117.98C2467.89,-107.15 2395.53,-88.51 2350.91,-77.02"/>
<polygon fill="midnightblue" stroke="midnightblue" points="2351.58,-73.58 2341.02,-74.47 2349.83,-80.36 2351.58,-73.58"/>
</g>
<!-- Node30 -->
<g id="node30" class="node">
<title>Node30</title>
<g id="a_node30"><a xlink:title=" ">
<polygon fill="white" stroke="#bfbfbf" points="2397,-56.5 2397,-75.5 2457,-75.5 2457,-56.5 2397,-56.5"/>
<text text-anchor="middle" x="2427" y="-63.5" font-family="Helvetica,sans-Serif" font-size="10.00">iostream</text>
</a>
</g>
</g>
<!-- Node29&#45;&gt;Node30 -->
<g id="edge50" class="edge">
<title>Node29&#45;&gt;Node30</title>
<path fill="none" stroke="midnightblue" d="M2526.38,-117.98C2507.08,-108.08 2475.04,-91.64 2452.57,-80.12"/>
<polygon fill="midnightblue" stroke="midnightblue" points="2454.08,-76.96 2443.59,-75.51 2450.89,-83.19 2454.08,-76.96"/>
</g>
<!-- Node31 -->
<g id="node31" class="node">
<title>Node31</title>
<g id="a_node31"><a xlink:title=" ">
<polygon fill="white" stroke="#bfbfbf" points="2475,-56.5 2475,-75.5 2565,-75.5 2565,-56.5 2475,-56.5"/>
<text text-anchor="middle" x="2520" y="-63.5" font-family="Helvetica,sans-Serif" font-size="10.00">AMReX_Print.H</text>
</a>
</g>
</g>
<!-- Node29&#45;&gt;Node31 -->
<g id="edge51" class="edge">
<title>Node29&#45;&gt;Node31</title>
<path fill="none" stroke="midnightblue" d="M2539.7,-117.98C2536.39,-109.4 2531.18,-95.93 2526.95,-84.98"/>
<polygon fill="midnightblue" stroke="midnightblue" points="2530.16,-83.57 2523.29,-75.51 2523.63,-86.1 2530.16,-83.57"/>
</g>
<!-- Node32 -->
<g id="node32" class="node">
<title>Node32</title>
<g id="a_node32"><a xlink:title=" ">
<polygon fill="white" stroke="#bfbfbf" points="2583,-56.5 2583,-75.5 2645,-75.5 2645,-56.5 2583,-56.5"/>
<text text-anchor="middle" x="2614" y="-63.5" font-family="Helvetica,sans-Serif" font-size="10.00">AMReX.H</text>
</a>
</g>
</g>
<!-- Node29&#45;&gt;Node32 -->
<g id="edge52" class="edge">
<title>Node29&#45;&gt;Node32</title>
<path fill="none" stroke="midnightblue" d="M2553.17,-117.98C2564.35,-108.61 2582.52,-93.38 2596.09,-82.01"/>
<polygon fill="midnightblue" stroke="midnightblue" points="2598.43,-84.61 2603.85,-75.51 2593.93,-79.25 2598.43,-84.61"/>
</g>
<!-- Node33&#45;&gt;Node9 -->
<g id="edge54" class="edge">
<title>Node33&#45;&gt;Node9</title>
<path fill="none" stroke="midnightblue" d="M2217.61,-117.86C2218.17,-102.59 2216.81,-71.04 2198,-56 2160.13,-25.72 1374.42,-22.49 1326,-20 1286.92,-17.99 1242,-15.14 1212.42,-13.19"/>
<polygon fill="midnightblue" stroke="midnightblue" points="1212.46,-9.68 1202.25,-12.51 1212,-16.67 1212.46,-9.68"/>
</g>
<!-- Node33&#45;&gt;Node10 -->
<g id="edge56" class="edge">
<title>Node33&#45;&gt;Node10</title>
<path fill="none" stroke="midnightblue" d="M2206.25,-117.98C2194.45,-108.61 2175.26,-93.38 2160.92,-82.01"/>
<polygon fill="midnightblue" stroke="midnightblue" points="2162.74,-78.98 2152.73,-75.51 2158.38,-84.47 2162.74,-78.98"/>
</g>
<!-- Node33&#45;&gt;Node16 -->
<g id="edge55" class="edge">
<title>Node33&#45;&gt;Node16</title>
<path fill="none" stroke="midnightblue" d="M2230.61,-117.98C2246.06,-108.3 2271.49,-92.37 2289.82,-80.89"/>
<polygon fill="midnightblue" stroke="midnightblue" points="2291.8,-83.78 2298.41,-75.51 2288.08,-77.85 2291.8,-83.78"/>
</g>
<!-- Node33&#45;&gt;Node22 -->
<g id="edge57" class="edge">
<title>Node33&#45;&gt;Node22</title>
<path fill="none" stroke="midnightblue" d="M2222.86,-117.82C2232.03,-103.06 2247.14,-73.02 2231,-56 2217.44,-41.7 1633.67,-19.83 1443.33,-13.06"/>
<polygon fill="midnightblue" stroke="midnightblue" points="1443.34,-9.56 1433.23,-12.71 1443.1,-16.56 1443.34,-9.56"/>
</g>
<!-- Node35 -->
<g id="node35" class="node">
<title>Node35</title>
<g id="a_node35"><a xlink:title=" ">
<polygon fill="white" stroke="#bfbfbf" points="2029,-56.5 2029,-75.5 2077,-75.5 2077,-56.5 2029,-56.5"/>
<text text-anchor="middle" x="2053" y="-63.5" font-family="Helvetica,sans-Serif" font-size="10.00">iosfwd</text>
</a>
</g>
</g>
<!-- Node34&#45;&gt;Node35 -->
<g id="edge59" class="edge">
<title>Node34&#45;&gt;Node35</title>
<path fill="none" stroke="midnightblue" d="M2053,-112.4C2053,-104.47 2053,-94.46 2053,-85.86"/>
<polygon fill="midnightblue" stroke="midnightblue" points="2056.5,-85.66 2053,-75.66 2049.5,-85.66 2056.5,-85.66"/>
</g>
<!-- Node36&#45;&gt;Node13 -->
<g id="edge65" class="edge">
<title>Node36&#45;&gt;Node13</title>
<path fill="none" stroke="midnightblue" d="M2446.3,-184.96C2506.44,-173.54 2605.38,-153.53 2619,-143 2651.98,-117.51 2682.68,-86.24 2654,-56 2627.04,-27.58 2062,-15.38 1867.84,-12.02"/>
<polygon fill="midnightblue" stroke="midnightblue" points="1867.84,-8.52 1857.78,-11.85 1867.72,-15.52 1867.84,-8.52"/>
</g>
<!-- Node36&#45;&gt;Node29 -->
<g id="edge63" class="edge">
<title>Node36&#45;&gt;Node29</title>
<path fill="none" stroke="midnightblue" d="M2418.99,-184.87C2443.46,-173.75 2486.2,-154.32 2514.56,-141.43"/>
<polygon fill="midnightblue" stroke="midnightblue" points="2516.28,-144.49 2523.93,-137.17 2513.38,-138.12 2516.28,-144.49"/>
</g>
<!-- Node36&#45;&gt;Node33 -->
<g id="edge64" class="edge">
<title>Node36&#45;&gt;Node33</title>
<path fill="none" stroke="midnightblue" d="M2375.7,-184.87C2343.62,-173.47 2286.97,-153.35 2250.75,-140.49"/>
<polygon fill="midnightblue" stroke="midnightblue" points="2251.7,-137.11 2241.11,-137.06 2249.36,-143.71 2251.7,-137.11"/>
</g>
<!-- Node37 -->
<g id="node37" class="node">
<title>Node37</title>
<g id="a_node37"><a xlink:title=" ">
<polygon fill="white" stroke="#bfbfbf" points="2342.5,-118 2342.5,-137 2457.5,-137 2457.5,-118 2342.5,-118"/>
<text text-anchor="middle" x="2400" y="-125" font-family="Helvetica,sans-Serif" font-size="10.00">AMReX_Geometry.H</text>
</a>
</g>
</g>
<!-- Node36&#45;&gt;Node37 -->
<g id="edge66" class="edge">
<title>Node36&#45;&gt;Node37</title>
<path fill="none" stroke="midnightblue" d="M2400,-184.73C2400,-175.18 2400,-159.62 2400,-147.28"/>
<polygon fill="midnightblue" stroke="midnightblue" points="2403.5,-147.13 2400,-137.13 2396.5,-147.13 2403.5,-147.13"/>
</g>
<!-- Node38&#45;&gt;Node13 -->
<g id="edge71" class="edge">
<title>Node38&#45;&gt;Node13</title>
<path fill="none" stroke="midnightblue" d="M2241.32,-184.86C2255.39,-175.42 2277.87,-159.44 2295,-143 2328.01,-111.33 2380.99,-89.65 2350,-56 2317.92,-21.17 2005.87,-13.3 1867.97,-11.52"/>
<polygon fill="midnightblue" stroke="midnightblue" points="1867.99,-8.02 1857.95,-11.4 1867.91,-15.02 1867.99,-8.02"/>
</g>
<!-- Node38&#45;&gt;Node15 -->
<g id="edge70" class="edge">
<title>Node38&#45;&gt;Node15</title>
<path fill="none" stroke="midnightblue" d="M2155.55,-184.97C2049.72,-172.51 1853.97,-149.46 1748.25,-137.01"/>
<polygon fill="midnightblue" stroke="midnightblue" points="1748.65,-133.53 1738.31,-135.84 1747.83,-140.48 1748.65,-133.53"/>
</g>
<!-- Node38&#45;&gt;Node29 -->
<g id="edge69" class="edge">
<title>Node38&#45;&gt;Node29</title>
<path fill="none" stroke="midnightblue" d="M2269.5,-184.94C2326.71,-173.13 2429.74,-151.87 2491.7,-139.09"/>
<polygon fill="midnightblue" stroke="midnightblue" points="2492.57,-142.48 2501.65,-137.03 2491.15,-135.62 2492.57,-142.48"/>
</g>
<!-- Node38&#45;&gt;Node33 -->
<g id="edge68" class="edge">
<title>Node38&#45;&gt;Node33</title>
<path fill="none" stroke="midnightblue" d="M2226.52,-184.73C2224.9,-175.18 2222.27,-159.62 2220.18,-147.28"/>
<polygon fill="midnightblue" stroke="midnightblue" points="2223.58,-146.4 2218.46,-137.13 2216.68,-147.57 2223.58,-146.4"/>
</g>
<!-- Node38&#45;&gt;Node37 -->
<g id="edge72" class="edge">
<title>Node38&#45;&gt;Node37</title>
<path fill="none" stroke="midnightblue" d="M2250.84,-184.87C2280.87,-173.52 2333.78,-153.52 2367.84,-140.65"/>
<polygon fill="midnightblue" stroke="midnightblue" points="2369.22,-143.87 2377.34,-137.06 2366.75,-137.32 2369.22,-143.87"/>
</g>
<!-- Node39&#45;&gt;Node16 -->
<g id="edge74" class="edge">
<title>Node39&#45;&gt;Node16</title>
<path fill="none" stroke="midnightblue" d="M2572.36,-179.37C2601.81,-163.35 2640,-136.3 2619,-112 2614.64,-106.95 2432.88,-82.73 2351.13,-72.06"/>
<polygon fill="midnightblue" stroke="midnightblue" points="2351.58,-68.59 2341.21,-70.77 2350.67,-75.53 2351.58,-68.59"/>
</g>
<!-- Node39&#45;&gt;Node29 -->
<g id="edge75" class="edge">
<title>Node39&#45;&gt;Node29</title>
<path fill="none" stroke="midnightblue" d="M2543,-179.4C2543,-170.06 2543,-157.71 2543,-147.52"/>
<polygon fill="midnightblue" stroke="midnightblue" points="2546.5,-147.19 2543,-137.19 2539.5,-147.19 2546.5,-147.19"/>
</g>
</g>
</svg>
        <g id="navigator" transform="translate(0 0)" fill="#404254">
                <rect fill="#f2f5e9" fill-opacity="0.5" stroke="#606060" stroke-width=".5" x="0" y="0" width="60" height="60"/>
                <use id="zoomplus" xlink:href="#zoomPlus" x="17" y="9" onmousedown="handleZoom(evt,'in')"/>
                <use id="zoomminus" xlink:href="#zoomMin" x="42" y="9" onmousedown="handleZoom(evt,'out')"/>
                <use id="reset" xlink:href="#resetDef" x="30" y="36" onmousedown="handleReset()"/>
                <g id="arrowUp" xlink:href="#dirArrow" transform="translate(30 24)" onmousedown="handlePan(0,-1)">
                  <use xlink:href="#rim" fill="#404040">
                        <set attributeName="fill" to="#808080" begin="arrowUp.mouseover" end="arrowUp.mouseout"/>
                  </use>
                  <path fill="none" stroke="white" stroke-width="1.5" d="M0,-3.0v7 M-2.5,-0.5L0,-3.0L2.5,-0.5"/>
                </g>
                <g id="arrowRight" xlink:href="#dirArrow" transform="rotate(90) translate(36 -43)" onmousedown="handlePan(1,0)">
                  <use xlink:href="#rim" fill="#404040">
                        <set attributeName="fill" to="#808080" begin="arrowRight.mouseover" end="arrowRight.mouseout"/>
                  </use>
                  <path fill="none" stroke="white" stroke-width="1.5" d="M0,-3.0v7 M-2.5,-0.5L0,-3.0L2.5,-0.5"/>
                </g>
                <g id="arrowDown" xlink:href="#dirArrow" transform="rotate(180) translate(-30 -48)" onmousedown="handlePan(0,1)">
                  <use xlink:href="#rim" fill="#404040">
                        <set attributeName="fill" to="#808080" begin="arrowDown.mouseover" end="arrowDown.mouseout"/>
                  </use>
                  <path fill="none" stroke="white" stroke-width="1.5" d="M0,-3.0v7 M-2.5,-0.5L0,-3.0L2.5,-0.5"/>
                </g>
                <g id="arrowLeft" xlink:href="#dirArrow" transform="rotate(270) translate(-36 17)" onmousedown="handlePan(-1,0)">
                  <use xlink:href="#rim" fill="#404040">
                        <set attributeName="fill" to="#808080" begin="arrowLeft.mouseover" end="arrowLeft.mouseout"/>
                  </use>
                  <path fill="none" stroke="white" stroke-width="1.5" d="M0,-3.0v7 M-2.5,-0.5L0,-3.0L2.5,-0.5"/>
                </g>
        </g>
        <svg viewBox="0 0 15 15" width="100%" height="30px" preserveAspectRatio="xMaxYMin meet">
         <g id="arrow_out" transform="scale(0.3 0.3)">
          <a xlink:href="_field_norms_8_h__incl_org.svg" target="_base">
           <rect id="button" ry="5" rx="5" y="6" x="6" height="38" width="38"
                fill="#f2f5e9" fill-opacity="0.5" stroke="#606060" stroke-width="1.0"/>
           <path id="arrow"
             d="M 11.500037,31.436501 C 11.940474,20.09759 22.043105,11.32322 32.158766,21.979434 L 37.068811,17.246167 C 37.068811,17.246167 37.088388,32 37.088388,32 L 22.160133,31.978069 C 22.160133,31.978069 26.997745,27.140456 26.997745,27.140456 C 18.528582,18.264221 13.291696,25.230495 11.500037,31.436501 z"
             style="fill:#404040;"/>
          </a>
         </g>
        </svg>
</svg>
