<?xml version="1.0" encoding="UTF-8" standalone="no"?>
<!DOCTYPE svg PUBLIC "-//W3C//DTD SVG 1.1//EN"
 "http://www.w3.org/Graphics/SVG/1.1/DTD/svg11.dtd">
<!-- Generated by graphviz version 2.43.0 (0)
 -->
<!-- Title: Field.H Pages: 1 -->
<svg width="3826pt" height="252pt"
 viewBox="0.00 0.00 3826.39 252.00" xmlns="http://www.w3.org/2000/svg" xmlns:xlink="http://www.w3.org/1999/xlink">
<g id="graph0" class="graph" transform="scale(1 1) rotate(0) translate(4 248)">
<title>Field.H</title>
<polygon fill="white" stroke="transparent" points="-4,4 -4,-248 3822.39,-248 3822.39,4 -4,4"/>
<!-- Node1 -->
<g id="node1" class="node">
<title>Node1</title>
<g id="a_node1"><a xlink:title=" ">
<polygon fill="#bfbfbf" stroke="black" points="1994.89,-224.5 1994.89,-243.5 2044.89,-243.5 2044.89,-224.5 1994.89,-224.5"/>
<text text-anchor="middle" x="2019.89" y="-231.5" font-family="Helvetica,sans-Serif" font-size="10.00">Field.H</text>
</a>
</g>
</g>
<!-- Node2 -->
<g id="node2" class="node">
<title>Node2</title>
<g id="a_node2"><a xlink:href="_b_c_interface_8_h.html" target="_top" xlink:title=" ">
<polygon fill="white" stroke="black" points="6.89,-168.5 6.89,-187.5 90.89,-187.5 90.89,-168.5 6.89,-168.5"/>
<text text-anchor="middle" x="48.89" y="-175.5" font-family="Helvetica,sans-Serif" font-size="10.00">BCInterface.H</text>
</a>
</g>
</g>
<!-- Node1&#45;&gt;Node2 -->
<g id="edge1" class="edge">
<title>Node1&#45;&gt;Node2</title>
<path fill="none" stroke="midnightblue" d="M1984.86,-232.73C1758.26,-230.9 496.89,-219.42 112.89,-188 105.84,-187.42 98.39,-186.59 91.16,-185.65"/>
<polygon fill="midnightblue" stroke="midnightblue" points="1984.84,-236.23 1994.86,-232.81 1984.89,-229.23 1984.84,-236.23"/>
</g>
<!-- Node4 -->
<g id="node4" class="node">
<title>Node4</title>
<g id="a_node4"><a xlink:href="_field_8cpp.html" target="_top" xlink:title=" ">
<polygon fill="white" stroke="black" points="91.89,-112.5 91.89,-131.5 151.89,-131.5 151.89,-112.5 91.89,-112.5"/>
<text text-anchor="middle" x="121.89" y="-119.5" font-family="Helvetica,sans-Serif" font-size="10.00">Field.cpp</text>
</a>
</g>
</g>
<!-- Node1&#45;&gt;Node4 -->
<g id="edge46" class="edge">
<title>Node1&#45;&gt;Node4</title>
<path fill="none" stroke="midnightblue" d="M1984.6,-232.68C1730.54,-230.28 189.39,-214.68 149.89,-188 130.75,-175.07 124.62,-146.08 122.71,-131.59"/>
<polygon fill="midnightblue" stroke="midnightblue" points="1984.71,-236.18 1994.74,-232.77 1984.78,-229.18 1984.71,-236.18"/>
</g>
<!-- Node15 -->
<g id="node6" class="node">
<title>Node15</title>
<g id="a_node6"><a xlink:href="_field_repo_8_h.html" target="_top" xlink:title=" ">
<polygon fill="white" stroke="red" points="931.39,-168.5 931.39,-187.5 1006.39,-187.5 1006.39,-168.5 931.39,-168.5"/>
<text text-anchor="middle" x="968.89" y="-175.5" font-family="Helvetica,sans-Serif" font-size="10.00">FieldRepo.H</text>
</a>
</g>
</g>
<!-- Node1&#45;&gt;Node15 -->
<g id="edge5" class="edge">
<title>Node1&#45;&gt;Node15</title>
<path fill="none" stroke="midnightblue" d="M1984.46,-231.18C1824.52,-222.96 1170.58,-189.36 1006.41,-180.93"/>
<polygon fill="midnightblue" stroke="midnightblue" points="1984.52,-234.69 1994.69,-231.71 1984.88,-227.7 1984.52,-234.69"/>
</g>
<!-- Node72 -->
<g id="node10" class="node">
<title>Node72</title>
<g id="a_node10"><a xlink:href="_field_plane_averaging_8_h.html" target="_top" xlink:title=" ">
<polygon fill="white" stroke="red" points="2316.89,-56.5 2316.89,-75.5 2442.89,-75.5 2442.89,-56.5 2316.89,-56.5"/>
<text text-anchor="middle" x="2379.89" y="-63.5" font-family="Helvetica,sans-Serif" font-size="10.00">FieldPlaneAveraging.H</text>
</a>
</g>
</g>
<!-- Node1&#45;&gt;Node72 -->
<g id="edge50" class="edge">
<title>Node1&#45;&gt;Node72</title>
<path fill="none" stroke="midnightblue" d="M2039.57,-218.46C2059.23,-204.37 2090.64,-182.98 2119.89,-168 2201.34,-126.27 2304.24,-91.11 2352.52,-75.56"/>
<polygon fill="midnightblue" stroke="midnightblue" points="2037.46,-215.67 2031.42,-224.37 2041.57,-221.34 2037.46,-215.67"/>
</g>
<!-- Node75 -->
<g id="node11" class="node">
<title>Node75</title>
<g id="a_node11"><a xlink:href="_second_moment_averaging_8_h.html" target="_top" xlink:title=" ">
<polygon fill="white" stroke="red" points="1729.89,-0.5 1729.89,-19.5 1881.89,-19.5 1881.89,-0.5 1729.89,-0.5"/>
<text text-anchor="middle" x="1805.89" y="-7.5" font-family="Helvetica,sans-Serif" font-size="10.00">SecondMomentAveraging.H</text>
</a>
</g>
</g>
<!-- Node1&#45;&gt;Node75 -->
<g id="edge75" class="edge">
<title>Node1&#45;&gt;Node75</title>
<path fill="none" stroke="midnightblue" d="M1984.45,-233.64C1926.55,-233.42 1809.19,-227.56 1719.89,-188 1671.08,-166.38 1676.01,-132.89 1626.89,-112 1564.9,-85.64 1370.61,-126.38 1325.89,-76 1319.99,-69.35 1319.9,-62.57 1325.89,-56 1352.5,-26.78 1601.13,-16.18 1729.68,-12.63"/>
<polygon fill="midnightblue" stroke="midnightblue" points="1984.55,-237.14 1994.55,-233.63 1984.54,-230.14 1984.55,-237.14"/>
</g>
<!-- Node77 -->
<g id="node12" class="node">
<title>Node77</title>
<g id="a_node12"><a xlink:href="_third_moment_averaging_8_h.html" target="_top" xlink:title=" ">
<polygon fill="white" stroke="red" points="2354.39,-0.5 2354.39,-19.5 2495.39,-19.5 2495.39,-0.5 2354.39,-0.5"/>
<text text-anchor="middle" x="2424.89" y="-7.5" font-family="Helvetica,sans-Serif" font-size="10.00">ThirdMomentAveraging.H</text>
</a>
</g>
</g>
<!-- Node1&#45;&gt;Node77 -->
<g id="edge76" class="edge">
<title>Node1&#45;&gt;Node77</title>
<path fill="none" stroke="midnightblue" d="M2047.89,-220.29C2067.13,-211.45 2093.19,-199.29 2115.89,-188 2132.98,-179.5 2136.25,-175.29 2153.89,-168 2281.99,-115.05 2369.59,-187.54 2451.89,-76 2465.09,-58.1 2445.88,-32.8 2433.66,-19.67"/>
<polygon fill="midnightblue" stroke="midnightblue" points="2046.41,-217.12 2038.77,-224.46 2049.32,-223.48 2046.41,-217.12"/>
</g>
<!-- Node79 -->
<g id="node13" class="node">
<title>Node79</title>
<g id="a_node13"><a xlink:href="_a_b_l_boundary_plane_8_h.html" target="_top" xlink:title=" ">
<polygon fill="white" stroke="red" points="1451.39,-56.5 1451.39,-75.5 1570.39,-75.5 1570.39,-56.5 1451.39,-56.5"/>
<text text-anchor="middle" x="1510.89" y="-63.5" font-family="Helvetica,sans-Serif" font-size="10.00">ABLBoundaryPlane.H</text>
</a>
</g>
</g>
<!-- Node1&#45;&gt;Node79 -->
<g id="edge51" class="edge">
<title>Node1&#45;&gt;Node79</title>
<path fill="none" stroke="midnightblue" d="M1984.63,-229.64C1925.38,-223.48 1808.89,-209.07 1773.89,-188 1737.01,-165.81 1750.34,-134.87 1713.89,-112 1690.19,-97.13 1620.77,-83.77 1569.68,-75.54"/>
<polygon fill="midnightblue" stroke="midnightblue" points="1984.35,-233.12 1994.65,-230.65 1985.06,-226.16 1984.35,-233.12"/>
</g>
<!-- Node106 -->
<g id="node14" class="node">
<title>Node106</title>
<g id="a_node14"><a xlink:href="_convecting_taylor_vortex_8_h.html" target="_top" xlink:title=" ">
<polygon fill="white" stroke="red" points="1588.39,-56.5 1588.39,-75.5 1731.39,-75.5 1731.39,-56.5 1588.39,-56.5"/>
<text text-anchor="middle" x="1659.89" y="-63.5" font-family="Helvetica,sans-Serif" font-size="10.00">ConvectingTaylorVortex.H</text>
</a>
</g>
</g>
<!-- Node1&#45;&gt;Node106 -->
<g id="edge53" class="edge">
<title>Node1&#45;&gt;Node106</title>
<path fill="none" stroke="midnightblue" d="M1984.52,-229.53C1929.03,-223.5 1824.75,-209.62 1794.89,-188 1763.45,-165.24 1780.14,-138.61 1751.89,-112 1733.51,-94.69 1707.21,-82.74 1687.44,-75.53"/>
<polygon fill="midnightblue" stroke="midnightblue" points="1984.3,-233.03 1994.61,-230.6 1985.03,-226.06 1984.3,-233.03"/>
</g>
<!-- Node109 -->
<g id="node15" class="node">
<title>Node109</title>
<g id="a_node15"><a xlink:href="_channel_flow_8_h.html" target="_top" xlink:title=" ">
<polygon fill="white" stroke="red" points="1749.39,-56.5 1749.39,-75.5 1838.39,-75.5 1838.39,-56.5 1749.39,-56.5"/>
<text text-anchor="middle" x="1793.89" y="-63.5" font-family="Helvetica,sans-Serif" font-size="10.00">ChannelFlow.H</text>
</a>
</g>
</g>
<!-- Node1&#45;&gt;Node109 -->
<g id="edge55" class="edge">
<title>Node1&#45;&gt;Node109</title>
<path fill="none" stroke="midnightblue" d="M2002.86,-217.27C1971.68,-188.6 1906.27,-129.25 1880.89,-112 1859.09,-97.19 1831.79,-83.81 1813.65,-75.57"/>
<polygon fill="midnightblue" stroke="midnightblue" points="2000.62,-219.96 2010.35,-224.16 2005.37,-214.81 2000.62,-219.96"/>
</g>
<!-- Node111 -->
<g id="node16" class="node">
<title>Node111</title>
<g id="a_node16"><a xlink:href="_ekman_spiral_8_h.html" target="_top" xlink:title=" ">
<polygon fill="white" stroke="red" points="1856.39,-56.5 1856.39,-75.5 1945.39,-75.5 1945.39,-56.5 1856.39,-56.5"/>
<text text-anchor="middle" x="1900.89" y="-63.5" font-family="Helvetica,sans-Serif" font-size="10.00">EkmanSpiral.H</text>
</a>
</g>
</g>
<!-- Node1&#45;&gt;Node111 -->
<g id="edge56" class="edge">
<title>Node1&#45;&gt;Node111</title>
<path fill="none" stroke="midnightblue" d="M2007.53,-215.76C1982.32,-180.59 1925.75,-101.68 1907.03,-75.57"/>
<polygon fill="midnightblue" stroke="midnightblue" points="2004.82,-217.99 2013.49,-224.08 2010.51,-213.91 2004.82,-217.99"/>
</g>
<!-- Node114 -->
<g id="node17" class="node">
<title>Node114</title>
<g id="a_node17"><a xlink:href="_hybrid_r_a_n_s_l_e_s_a_b_l_8_h.html" target="_top" xlink:title=" ">
<polygon fill="white" stroke="red" points="1963.39,-56.5 1963.39,-75.5 2086.39,-75.5 2086.39,-56.5 1963.39,-56.5"/>
<text text-anchor="middle" x="2024.89" y="-63.5" font-family="Helvetica,sans-Serif" font-size="10.00">HybridRANSLESABL.H</text>
</a>
</g>
</g>
<!-- Node1&#45;&gt;Node114 -->
<g id="edge58" class="edge">
<title>Node1&#45;&gt;Node114</title>
<path fill="none" stroke="midnightblue" d="M2012.83,-214.74C2010.08,-206.67 2007.26,-197 2005.89,-188 2000.81,-154.61 1999.19,-145.11 2005.89,-112 2008.58,-98.7 2015.33,-84.45 2020.01,-75.63"/>
<polygon fill="midnightblue" stroke="midnightblue" points="2009.58,-216.02 2016.29,-224.22 2016.15,-213.63 2009.58,-216.02"/>
</g>
<!-- Node116 -->
<g id="node18" class="node">
<title>Node116</title>
<g id="a_node18"><a xlink:href="_m_m_s_8_h.html" target="_top" xlink:title=" ">
<polygon fill="white" stroke="red" points="2104.39,-56.5 2104.39,-75.5 2155.39,-75.5 2155.39,-56.5 2104.39,-56.5"/>
<text text-anchor="middle" x="2129.89" y="-63.5" font-family="Helvetica,sans-Serif" font-size="10.00">MMS.H</text>
</a>
</g>
</g>
<!-- Node1&#45;&gt;Node116 -->
<g id="edge59" class="edge">
<title>Node1&#45;&gt;Node116</title>
<path fill="none" stroke="midnightblue" d="M2018.85,-214.17C2018.4,-188.53 2021.19,-142.34 2043.89,-112 2058.63,-92.3 2084.53,-80.43 2104.06,-73.87"/>
<polygon fill="midnightblue" stroke="midnightblue" points="2015.36,-214.51 2019.22,-224.38 2022.35,-214.26 2015.36,-214.51"/>
</g>
<!-- Node126 -->
<g id="node19" class="node">
<title>Node126</title>
<g id="a_node19"><a xlink:href="_synthetic_turbulence_8_h.html" target="_top" xlink:title=" ">
<polygon fill="white" stroke="red" points="2173.39,-56.5 2173.39,-75.5 2298.39,-75.5 2298.39,-56.5 2173.39,-56.5"/>
<text text-anchor="middle" x="2235.89" y="-63.5" font-family="Helvetica,sans-Serif" font-size="10.00">SyntheticTurbulence.H</text>
</a>
</g>
</g>
<!-- Node1&#45;&gt;Node126 -->
<g id="edge66" class="edge">
<title>Node1&#45;&gt;Node126</title>
<path fill="none" stroke="midnightblue" d="M2027.1,-214.84C2039.41,-184.67 2064.8,-126.13 2081.89,-112 2098.85,-97.98 2153.54,-84.12 2192.92,-75.57"/>
<polygon fill="midnightblue" stroke="midnightblue" points="2023.81,-213.63 2023.32,-224.21 2030.31,-216.24 2023.81,-213.63"/>
</g>
<!-- Node140 -->
<g id="node20" class="node">
<title>Node140</title>
<g id="a_node20"><a xlink:href="_re_averaging_8cpp.html" target="_top" xlink:title=" ">
<polygon fill="white" stroke="black" points="1334.89,-56.5 1334.89,-75.5 1432.89,-75.5 1432.89,-56.5 1334.89,-56.5"/>
<text text-anchor="middle" x="1383.89" y="-63.5" font-family="Helvetica,sans-Serif" font-size="10.00">ReAveraging.cpp</text>
</a>
</g>
</g>
<!-- Node1&#45;&gt;Node140 -->
<g id="edge72" class="edge">
<title>Node1&#45;&gt;Node140</title>
<path fill="none" stroke="midnightblue" d="M1984.49,-229.91C1920.68,-223.89 1789.26,-209.27 1748.89,-188 1707.46,-166.16 1717.45,-133.59 1675.89,-112 1582.51,-63.49 1545.88,-92.07 1441.89,-76 1438.97,-75.55 1435.97,-75.08 1432.94,-74.62"/>
<polygon fill="midnightblue" stroke="midnightblue" points="1984.21,-233.4 1994.49,-230.84 1984.85,-226.43 1984.21,-233.4"/>
</g>
<!-- Node141 -->
<g id="node21" class="node">
<title>Node141</title>
<g id="a_node21"><a xlink:href="_reynolds_stress_8cpp.html" target="_top" xlink:title=" ">
<polygon fill="white" stroke="black" points="1166.89,-56.5 1166.89,-75.5 1278.89,-75.5 1278.89,-56.5 1166.89,-56.5"/>
<text text-anchor="middle" x="1222.89" y="-63.5" font-family="Helvetica,sans-Serif" font-size="10.00">ReynoldsStress.cpp</text>
</a>
</g>
</g>
<!-- Node1&#45;&gt;Node141 -->
<g id="edge73" class="edge">
<title>Node1&#45;&gt;Node141</title>
<path fill="none" stroke="midnightblue" d="M1984.68,-232.71C1902.84,-231.41 1702.59,-224.48 1647.89,-188 1615.6,-166.47 1637.24,-133.44 1604.89,-112 1546.72,-73.44 1362.17,-84.45 1292.89,-76 1288.39,-75.45 1283.73,-74.87 1279.04,-74.29"/>
<polygon fill="midnightblue" stroke="midnightblue" points="1984.69,-236.21 1994.74,-232.85 1984.79,-229.21 1984.69,-236.21"/>
</g>
<!-- Node206 -->
<g id="node27" class="node">
<title>Node206</title>
<g id="a_node27"><a xlink:href="_view_field_8cpp.html" target="_top" xlink:title=" ">
<polygon fill="white" stroke="black" points="1185.89,-112.5 1185.89,-131.5 1269.89,-131.5 1269.89,-112.5 1185.89,-112.5"/>
<text text-anchor="middle" x="1227.89" y="-119.5" font-family="Helvetica,sans-Serif" font-size="10.00">ViewField.cpp</text>
</a>
</g>
</g>
<!-- Node1&#45;&gt;Node206 -->
<g id="edge48" class="edge">
<title>Node1&#45;&gt;Node206</title>
<path fill="none" stroke="midnightblue" d="M1984.78,-232.52C1896.1,-230.82 1656.19,-223.05 1459.89,-188 1382.68,-174.22 1294.12,-145.75 1252.25,-131.51"/>
<polygon fill="midnightblue" stroke="midnightblue" points="1984.77,-236.02 1994.83,-232.7 1984.89,-229.03 1984.77,-236.02"/>
</g>
<!-- Node244 -->
<g id="node30" class="node">
<title>Node244</title>
<g id="a_node30"><a xlink:href="_linear_profile_8cpp.html" target="_top" xlink:title=" ">
<polygon fill="white" stroke="black" points="1287.89,-112.5 1287.89,-131.5 1385.89,-131.5 1385.89,-112.5 1287.89,-112.5"/>
<text text-anchor="middle" x="1336.89" y="-119.5" font-family="Helvetica,sans-Serif" font-size="10.00">LinearProfile.cpp</text>
</a>
</g>
</g>
<!-- Node1&#45;&gt;Node244 -->
<g id="edge68" class="edge">
<title>Node1&#45;&gt;Node244</title>
<path fill="none" stroke="midnightblue" d="M1984.58,-232.4C1904.13,-230.46 1701.38,-222.27 1535.89,-188 1469.16,-174.18 1393.43,-145.74 1357.67,-131.5"/>
<polygon fill="midnightblue" stroke="midnightblue" points="1984.59,-235.9 1994.66,-232.63 1984.74,-228.91 1984.59,-235.9"/>
</g>
<!-- Node46 -->
<g id="node31" class="node">
<title>Node46</title>
<g id="a_node31"><a xlink:href="_power_law_profile_8cpp.html" target="_top" xlink:title=" ">
<polygon fill="white" stroke="black" points="1404.39,-112.5 1404.39,-131.5 1521.39,-131.5 1521.39,-112.5 1404.39,-112.5"/>
<text text-anchor="middle" x="1462.89" y="-119.5" font-family="Helvetica,sans-Serif" font-size="10.00">PowerLawProfile.cpp</text>
</a>
</g>
</g>
<!-- Node1&#45;&gt;Node46 -->
<g id="edge69" class="edge">
<title>Node1&#45;&gt;Node46</title>
<path fill="none" stroke="midnightblue" d="M1984.45,-233.84C1909.26,-234.64 1728.9,-231.41 1585.89,-188 1542.44,-174.81 1496.47,-145.94 1475.12,-131.53"/>
<polygon fill="midnightblue" stroke="midnightblue" points="1984.82,-237.33 1994.77,-233.69 1984.72,-230.33 1984.82,-237.33"/>
</g>
<!-- Node245 -->
<g id="node32" class="node">
<title>Node245</title>
<g id="a_node32"><a xlink:href="_u_d_f_8cpp.html" target="_top" xlink:title=" ">
<polygon fill="white" stroke="black" points="1539.89,-112.5 1539.89,-131.5 1595.89,-131.5 1595.89,-112.5 1539.89,-112.5"/>
<text text-anchor="middle" x="1567.89" y="-119.5" font-family="Helvetica,sans-Serif" font-size="10.00">UDF.cpp</text>
</a>
</g>
</g>
<!-- Node1&#45;&gt;Node245 -->
<g id="edge70" class="edge">
<title>Node1&#45;&gt;Node245</title>
<path fill="none" stroke="midnightblue" d="M1984.62,-232.94C1897.05,-232.21 1672.25,-226.51 1609.89,-188 1588.4,-174.73 1575.82,-145.89 1570.66,-131.51"/>
<polygon fill="midnightblue" stroke="midnightblue" points="1984.82,-236.44 1994.84,-233.01 1984.87,-229.44 1984.82,-236.44"/>
</g>
<!-- Node251 -->
<g id="node33" class="node">
<title>Node251</title>
<g id="a_node33"><a xlink:href="_field_b_c_ops_8_h.html" target="_top" xlink:title=" ">
<polygon fill="white" stroke="red" points="287.39,-168.5 287.39,-187.5 370.39,-187.5 370.39,-168.5 287.39,-168.5"/>
<text text-anchor="middle" x="328.89" y="-175.5" font-family="Helvetica,sans-Serif" font-size="10.00">FieldBCOps.H</text>
</a>
</g>
</g>
<!-- Node1&#45;&gt;Node251 -->
<g id="edge37" class="edge">
<title>Node1&#45;&gt;Node251</title>
<path fill="none" stroke="midnightblue" d="M1984.43,-231.87C1766.16,-224.9 606.4,-187.86 370.71,-180.34"/>
<polygon fill="midnightblue" stroke="midnightblue" points="1984.57,-235.37 1994.67,-232.19 1984.79,-228.38 1984.57,-235.37"/>
</g>
<!-- Node252 -->
<g id="node34" class="node">
<title>Node252</title>
<g id="a_node34"><a xlink:href="_field_fill_patch_ops_8_h.html" target="_top" xlink:title=" ">
<polygon fill="white" stroke="red" points="158.89,-168.5 158.89,-187.5 268.89,-187.5 268.89,-168.5 158.89,-168.5"/>
<text text-anchor="middle" x="213.89" y="-175.5" font-family="Helvetica,sans-Serif" font-size="10.00">FieldFillPatchOps.H</text>
</a>
</g>
</g>
<!-- Node1&#45;&gt;Node252 -->
<g id="edge41" class="edge">
<title>Node1&#45;&gt;Node252</title>
<path fill="none" stroke="midnightblue" d="M1984.58,-232.64C1768.89,-230.34 626.82,-216.95 277.89,-188 274.98,-187.76 272,-187.47 269,-187.16"/>
<polygon fill="midnightblue" stroke="midnightblue" points="1984.66,-236.14 1994.7,-232.74 1984.74,-229.14 1984.66,-236.14"/>
</g>
<!-- Node253 -->
<g id="node35" class="node">
<title>Node253</title>
<g id="a_node35"><a xlink:href="_mesh_map_8_h.html" target="_top" xlink:title=" ">
<polygon fill="white" stroke="red" points="1803.89,-168.5 1803.89,-187.5 1877.89,-187.5 1877.89,-168.5 1803.89,-168.5"/>
<text text-anchor="middle" x="1840.89" y="-175.5" font-family="Helvetica,sans-Serif" font-size="10.00">MeshMap.H</text>
</a>
</g>
</g>
<!-- Node1&#45;&gt;Node253 -->
<g id="edge44" class="edge">
<title>Node1&#45;&gt;Node253</title>
<path fill="none" stroke="midnightblue" d="M1984.71,-222.39C1950.94,-212.2 1900.57,-197 1869.28,-187.56"/>
<polygon fill="midnightblue" stroke="midnightblue" points="1984.04,-225.84 1994.62,-225.38 1986.06,-219.14 1984.04,-225.84"/>
</g>
<!-- Node258 -->
<g id="node36" class="node">
<title>Node258</title>
<g id="a_node36"><a xlink:href="field__ops_8_h.html" target="_top" xlink:title=" ">
<polygon fill="white" stroke="red" points="2162.39,-168.5 2162.39,-187.5 2233.39,-187.5 2233.39,-168.5 2162.39,-168.5"/>
<text text-anchor="middle" x="2197.89" y="-175.5" font-family="Helvetica,sans-Serif" font-size="10.00">field_ops.H</text>
</a>
</g>
</g>
<!-- Node1&#45;&gt;Node258 -->
<g id="edge47" class="edge">
<title>Node1&#45;&gt;Node258</title>
<path fill="none" stroke="midnightblue" d="M2054.87,-222.39C2088.45,-212.2 2138.54,-197 2169.66,-187.56"/>
<polygon fill="midnightblue" stroke="midnightblue" points="2053.57,-219.13 2045.01,-225.38 2055.6,-225.82 2053.57,-219.13"/>
</g>
<!-- Node259 -->
<g id="node37" class="node">
<title>Node259</title>
<g id="a_node37"><a xlink:href="_a_b_l_field_init_8_h.html" target="_top" xlink:title=" ">
<polygon fill="white" stroke="red" points="2251.39,-168.5 2251.39,-187.5 2336.39,-187.5 2336.39,-168.5 2251.39,-168.5"/>
<text text-anchor="middle" x="2293.89" y="-175.5" font-family="Helvetica,sans-Serif" font-size="10.00">ABLFieldInit.H</text>
</a>
</g>
</g>
<!-- Node1&#45;&gt;Node259 -->
<g id="edge49" class="edge">
<title>Node1&#45;&gt;Node259</title>
<path fill="none" stroke="midnightblue" d="M2055.23,-226.03C2105.48,-216.13 2197.42,-198.01 2251.34,-187.39"/>
<polygon fill="midnightblue" stroke="midnightblue" points="2054.31,-222.65 2045.17,-228.02 2055.66,-229.52 2054.31,-222.65"/>
</g>
<!-- Node261 -->
<g id="node38" class="node">
<title>Node261</title>
<g id="a_node38"><a xlink:href="_multi_phase_8_h.html" target="_top" xlink:title=" ">
<polygon fill="white" stroke="red" points="2354.39,-168.5 2354.39,-187.5 2435.39,-187.5 2435.39,-168.5 2354.39,-168.5"/>
<text text-anchor="middle" x="2394.89" y="-175.5" font-family="Helvetica,sans-Serif" font-size="10.00">MultiPhase.H</text>
</a>
</g>
</g>
<!-- Node1&#45;&gt;Node261 -->
<g id="edge52" class="edge">
<title>Node1&#45;&gt;Node261</title>
<path fill="none" stroke="midnightblue" d="M2054.93,-228.68C2114.73,-221.2 2240.26,-204.98 2345.89,-188 2348.62,-187.56 2351.44,-187.09 2354.27,-186.6"/>
<polygon fill="midnightblue" stroke="midnightblue" points="2054.38,-225.22 2044.89,-229.93 2055.25,-232.17 2054.38,-225.22"/>
</g>
<!-- Node262 -->
<g id="node39" class="node">
<title>Node262</title>
<g id="a_node39"><a xlink:href="_boussinesq_bubble_8_h.html" target="_top" xlink:title=" ">
<polygon fill="white" stroke="red" points="2453.89,-168.5 2453.89,-187.5 2569.89,-187.5 2569.89,-168.5 2453.89,-168.5"/>
<text text-anchor="middle" x="2511.89" y="-175.5" font-family="Helvetica,sans-Serif" font-size="10.00">BoussinesqBubble.H</text>
</a>
</g>
</g>
<!-- Node1&#45;&gt;Node262 -->
<g id="edge54" class="edge">
<title>Node1&#45;&gt;Node262</title>
<path fill="none" stroke="midnightblue" d="M2055.34,-229.59C2128.31,-222.48 2300.6,-205.33 2444.89,-188 2447.8,-187.65 2450.78,-187.28 2453.8,-186.9"/>
<polygon fill="midnightblue" stroke="midnightblue" points="2054.92,-226.11 2045.31,-230.56 2055.6,-233.08 2054.92,-226.11"/>
</g>
<!-- Node263 -->
<g id="node40" class="node">
<title>Node263</title>
<g id="a_node40"><a xlink:href="_free_stream_8_h.html" target="_top" xlink:title=" ">
<polygon fill="white" stroke="red" points="2588.39,-168.5 2588.39,-187.5 2671.39,-187.5 2671.39,-168.5 2588.39,-168.5"/>
<text text-anchor="middle" x="2629.89" y="-175.5" font-family="Helvetica,sans-Serif" font-size="10.00">FreeStream.H</text>
</a>
</g>
</g>
<!-- Node1&#45;&gt;Node263 -->
<g id="edge57" class="edge">
<title>Node1&#45;&gt;Node263</title>
<path fill="none" stroke="midnightblue" d="M2055.07,-231.32C2143.42,-226.86 2381.69,-213.28 2578.89,-188 2581.92,-187.61 2585.05,-187.17 2588.19,-186.69"/>
<polygon fill="midnightblue" stroke="midnightblue" points="2054.86,-227.83 2045.05,-231.82 2055.21,-234.82 2054.86,-227.83"/>
</g>
<!-- Node264 -->
<g id="node41" class="node">
<title>Node264</title>
<g id="a_node41"><a xlink:href="_dam_break_8_h.html" target="_top" xlink:title=" ">
<polygon fill="white" stroke="red" points="2689.39,-168.5 2689.39,-187.5 2768.39,-187.5 2768.39,-168.5 2689.39,-168.5"/>
<text text-anchor="middle" x="2728.89" y="-175.5" font-family="Helvetica,sans-Serif" font-size="10.00">DamBreak.H</text>
</a>
</g>
</g>
<!-- Node1&#45;&gt;Node264 -->
<g id="edge60" class="edge">
<title>Node1&#45;&gt;Node264</title>
<path fill="none" stroke="midnightblue" d="M2054.93,-232.06C2153.73,-229.11 2442.82,-218.32 2680.89,-188 2683.58,-187.66 2686.35,-187.26 2689.13,-186.83"/>
<polygon fill="midnightblue" stroke="midnightblue" points="2054.8,-228.56 2044.9,-232.35 2055,-235.56 2054.8,-228.56"/>
</g>
<!-- Node265 -->
<g id="node42" class="node">
<title>Node265</title>
<g id="a_node42"><a xlink:href="_rain_drop_8_h.html" target="_top" xlink:title=" ">
<polygon fill="white" stroke="red" points="2786.89,-168.5 2786.89,-187.5 2858.89,-187.5 2858.89,-168.5 2786.89,-168.5"/>
<text text-anchor="middle" x="2822.89" y="-175.5" font-family="Helvetica,sans-Serif" font-size="10.00">RainDrop.H</text>
</a>
</g>
</g>
<!-- Node1&#45;&gt;Node265 -->
<g id="edge61" class="edge">
<title>Node1&#45;&gt;Node265</title>
<path fill="none" stroke="midnightblue" d="M2055.26,-232.63C2163.73,-231.14 2501.1,-223.72 2777.89,-188 2780.73,-187.63 2783.67,-187.19 2786.61,-186.7"/>
<polygon fill="midnightblue" stroke="midnightblue" points="2055.15,-229.13 2045.2,-232.76 2055.24,-236.13 2055.15,-229.13"/>
</g>
<!-- Node266 -->
<g id="node43" class="node">
<title>Node266</title>
<g id="a_node43"><a xlink:href="_sloshing_tank_8_h.html" target="_top" xlink:title=" ">
<polygon fill="white" stroke="red" points="2877.39,-168.5 2877.39,-187.5 2968.39,-187.5 2968.39,-168.5 2877.39,-168.5"/>
<text text-anchor="middle" x="2922.89" y="-175.5" font-family="Helvetica,sans-Serif" font-size="10.00">SloshingTank.H</text>
</a>
</g>
</g>
<!-- Node1&#45;&gt;Node266 -->
<g id="edge62" class="edge">
<title>Node1&#45;&gt;Node266</title>
<path fill="none" stroke="midnightblue" d="M2055.04,-232.51C2171.28,-230.59 2553.76,-221.93 2867.89,-188 2870.97,-187.67 2874.13,-187.28 2877.32,-186.85"/>
<polygon fill="midnightblue" stroke="midnightblue" points="2054.88,-229.01 2044.94,-232.67 2055,-236.01 2054.88,-229.01"/>
</g>
<!-- Node267 -->
<g id="node44" class="node">
<title>Node267</title>
<g id="a_node44"><a xlink:href="_vortex_patch_8_h.html" target="_top" xlink:title=" ">
<polygon fill="white" stroke="red" points="2986.39,-168.5 2986.39,-187.5 3071.39,-187.5 3071.39,-168.5 2986.39,-168.5"/>
<text text-anchor="middle" x="3028.89" y="-175.5" font-family="Helvetica,sans-Serif" font-size="10.00">VortexPatch.H</text>
</a>
</g>
</g>
<!-- Node1&#45;&gt;Node267 -->
<g id="edge63" class="edge">
<title>Node1&#45;&gt;Node267</title>
<path fill="none" stroke="midnightblue" d="M2055.36,-232.96C2181.41,-232.49 2619.32,-227.9 2977.89,-188 2980.66,-187.69 2983.51,-187.33 2986.37,-186.92"/>
<polygon fill="midnightblue" stroke="midnightblue" points="2055.13,-229.47 2045.15,-233 2055.16,-236.47 2055.13,-229.47"/>
</g>
<!-- Node268 -->
<g id="node45" class="node">
<title>Node268</title>
<g id="a_node45"><a xlink:href="_zalesak_disk_8_h.html" target="_top" xlink:title=" ">
<polygon fill="white" stroke="red" points="3089.89,-168.5 3089.89,-187.5 3177.89,-187.5 3177.89,-168.5 3089.89,-168.5"/>
<text text-anchor="middle" x="3133.89" y="-175.5" font-family="Helvetica,sans-Serif" font-size="10.00">ZalesakDisk.H</text>
</a>
</g>
</g>
<!-- Node1&#45;&gt;Node268 -->
<g id="edge64" class="edge">
<title>Node1&#45;&gt;Node268</title>
<path fill="none" stroke="midnightblue" d="M2055.13,-233.11C2189.14,-233.19 2679.68,-230.4 3080.89,-188 3083.77,-187.7 3086.72,-187.33 3089.7,-186.93"/>
<polygon fill="midnightblue" stroke="midnightblue" points="2055.04,-229.61 2045.04,-233.1 2055.03,-236.61 2055.04,-229.61"/>
</g>
<!-- Node269 -->
<g id="node46" class="node">
<title>Node269</title>
<g id="a_node46"><a xlink:href="_rayleigh_taylor_8_h.html" target="_top" xlink:title=" ">
<polygon fill="white" stroke="red" points="3195.89,-168.5 3195.89,-187.5 3293.89,-187.5 3293.89,-168.5 3195.89,-168.5"/>
<text text-anchor="middle" x="3244.89" y="-175.5" font-family="Helvetica,sans-Serif" font-size="10.00">RayleighTaylor.H</text>
</a>
</g>
</g>
<!-- Node1&#45;&gt;Node269 -->
<g id="edge65" class="edge">
<title>Node1&#45;&gt;Node269</title>
<path fill="none" stroke="midnightblue" d="M2055.31,-233.12C2197.66,-233.3 2741.87,-230.96 3186.89,-188 3189.73,-187.73 3192.64,-187.4 3195.58,-187.05"/>
<polygon fill="midnightblue" stroke="midnightblue" points="2055.01,-229.62 2045.01,-233.1 2055,-236.62 2055.01,-229.62"/>
</g>
<!-- Node270 -->
<g id="node47" class="node">
<title>Node270</title>
<g id="a_node47"><a xlink:href="_taylor_green_vortex_8_h.html" target="_top" xlink:title=" ">
<polygon fill="white" stroke="red" points="3312.39,-168.5 3312.39,-187.5 3429.39,-187.5 3429.39,-168.5 3312.39,-168.5"/>
<text text-anchor="middle" x="3370.89" y="-175.5" font-family="Helvetica,sans-Serif" font-size="10.00">TaylorGreenVortex.H</text>
</a>
</g>
</g>
<!-- Node1&#45;&gt;Node270 -->
<g id="edge67" class="edge">
<title>Node1&#45;&gt;Node270</title>
<path fill="none" stroke="midnightblue" d="M2055.34,-233.01C2206.17,-232.78 2809.44,-229.21 3302.89,-188 3305.97,-187.74 3309.13,-187.44 3312.32,-187.12"/>
<polygon fill="midnightblue" stroke="midnightblue" points="2055.26,-229.51 2045.26,-233.02 2055.27,-236.51 2055.26,-229.51"/>
</g>
<!-- Node271 -->
<g id="node48" class="node">
<title>Node271</title>
<g id="a_node48"><a xlink:href="_vortex_ring_8_h.html" target="_top" xlink:title=" ">
<polygon fill="white" stroke="red" points="3447.89,-168.5 3447.89,-187.5 3527.89,-187.5 3527.89,-168.5 3447.89,-168.5"/>
<text text-anchor="middle" x="3487.89" y="-175.5" font-family="Helvetica,sans-Serif" font-size="10.00">VortexRing.H</text>
</a>
</g>
</g>
<!-- Node1&#45;&gt;Node271 -->
<g id="edge71" class="edge">
<title>Node1&#45;&gt;Node271</title>
<path fill="none" stroke="midnightblue" d="M2055.05,-232.6C2245.83,-230.33 3158.52,-218.02 3438.89,-188 3441.81,-187.69 3444.82,-187.3 3447.85,-186.86"/>
<polygon fill="midnightblue" stroke="midnightblue" points="2054.97,-229.1 2045.01,-232.72 2055.05,-236.1 2054.97,-229.1"/>
</g>
<!-- Node272 -->
<g id="node49" class="node">
<title>Node272</title>
<g id="a_node49"><a xlink:href="_sampling_container_8cpp.html" target="_top" xlink:title=" ">
<polygon fill="white" stroke="black" points="3546.39,-168.5 3546.39,-187.5 3675.39,-187.5 3675.39,-168.5 3546.39,-168.5"/>
<text text-anchor="middle" x="3610.89" y="-175.5" font-family="Helvetica,sans-Serif" font-size="10.00">SamplingContainer.cpp</text>
</a>
</g>
</g>
<!-- Node1&#45;&gt;Node272 -->
<g id="edge74" class="edge">
<title>Node1&#45;&gt;Node272</title>
<path fill="none" stroke="midnightblue" d="M2055.1,-233.14C2221.49,-233.57 2945.58,-232.63 3536.89,-188 3539.99,-187.77 3543.15,-187.5 3546.35,-187.2"/>
<polygon fill="midnightblue" stroke="midnightblue" points="2054.96,-229.64 2044.95,-233.11 2054.94,-236.64 2054.96,-229.64"/>
</g>
<!-- Node273 -->
<g id="node50" class="node">
<title>Node273</title>
<g id="a_node50"><a xlink:href="_actuator_container_8cpp.html" target="_top" xlink:title=" ">
<polygon fill="white" stroke="black" points="3693.39,-168.5 3693.39,-187.5 3818.39,-187.5 3818.39,-168.5 3693.39,-168.5"/>
<text text-anchor="middle" x="3755.89" y="-175.5" font-family="Helvetica,sans-Serif" font-size="10.00">ActuatorContainer.cpp</text>
</a>
</g>
</g>
<!-- Node1&#45;&gt;Node273 -->
<g id="edge77" class="edge">
<title>Node1&#45;&gt;Node273</title>
<path fill="none" stroke="midnightblue" d="M2055.4,-233.34C2231.88,-234.77 3032.2,-238.06 3684.89,-188 3687.61,-187.79 3690.4,-187.55 3693.2,-187.29"/>
<polygon fill="midnightblue" stroke="midnightblue" points="2055.4,-229.84 2045.37,-233.26 2055.34,-236.84 2055.4,-229.84"/>
</g>
<!-- Node3 -->
<g id="node3" class="node">
<title>Node3</title>
<g id="a_node3"><a xlink:href="_b_c_interface_8cpp.html" target="_top" xlink:title=" ">
<polygon fill="white" stroke="black" points="282.89,-56.5 282.89,-75.5 376.89,-75.5 376.89,-56.5 282.89,-56.5"/>
<text text-anchor="middle" x="329.89" y="-63.5" font-family="Helvetica,sans-Serif" font-size="10.00">BCInterface.cpp</text>
</a>
</g>
</g>
<!-- Node2&#45;&gt;Node3 -->
<g id="edge2" class="edge">
<title>Node2&#45;&gt;Node3</title>
<path fill="none" stroke="midnightblue" d="M27.45,-162.21C10.21,-148.54 -9.03,-127.98 4.89,-112 40.34,-71.3 201.39,-66.2 282.67,-66.29"/>
<polygon fill="midnightblue" stroke="midnightblue" points="25.5,-165.12 35.6,-168.32 29.7,-159.52 25.5,-165.12"/>
</g>
<!-- Node2&#45;&gt;Node4 -->
<g id="edge3" class="edge">
<title>Node2&#45;&gt;Node4</title>
<path fill="none" stroke="midnightblue" d="M69.03,-162.1C82.17,-152.38 98.87,-140.03 109.95,-131.83"/>
<polygon fill="midnightblue" stroke="midnightblue" points="66.58,-159.56 60.62,-168.32 70.74,-165.19 66.58,-159.56"/>
</g>
<!-- Node5 -->
<g id="node5" class="node">
<title>Node5</title>
<g id="a_node5"><a xlink:href="_b_c_ops_8_h.html" target="_top" xlink:title=" ">
<polygon fill="white" stroke="red" points="14.39,-112.5 14.39,-131.5 73.39,-131.5 73.39,-112.5 14.39,-112.5"/>
<text text-anchor="middle" x="43.89" y="-119.5" font-family="Helvetica,sans-Serif" font-size="10.00">BCOps.H</text>
</a>
</g>
</g>
<!-- Node2&#45;&gt;Node5 -->
<g id="edge4" class="edge">
<title>Node2&#45;&gt;Node5</title>
<path fill="none" stroke="midnightblue" d="M47.14,-158.1C46.31,-149.14 45.36,-138.86 44.7,-131.75"/>
<polygon fill="midnightblue" stroke="midnightblue" points="43.66,-158.45 48.06,-168.08 50.63,-157.8 43.66,-158.45"/>
</g>
<!-- Node15&#45;&gt;Node3 -->
<g id="edge6" class="edge">
<title>Node15&#45;&gt;Node3</title>
<path fill="none" stroke="midnightblue" d="M921.11,-175.96C806.92,-172.99 521.03,-162.64 430.89,-132 411.84,-125.52 364.11,-91.87 341.77,-75.7"/>
<polygon fill="midnightblue" stroke="midnightblue" points="921.2,-179.46 931.29,-176.21 921.38,-172.46 921.2,-179.46"/>
</g>
<!-- Node15&#45;&gt;Node4 -->
<g id="edge25" class="edge">
<title>Node15&#45;&gt;Node4</title>
<path fill="none" stroke="midnightblue" d="M921.18,-177.18C795.88,-177.05 447.37,-172.73 160.89,-132 158,-131.59 155.01,-131.07 152.03,-130.49"/>
<polygon fill="midnightblue" stroke="midnightblue" points="921.21,-180.68 931.21,-177.18 921.21,-173.68 921.21,-180.68"/>
</g>
<!-- Node16 -->
<g id="node7" class="node">
<title>Node16</title>
<g id="a_node7"><a xlink:href="_fixed_gradient_b_c_8_h.html" target="_top" xlink:title=" ">
<polygon fill="white" stroke="red" points="275.89,-112.5 275.89,-131.5 383.89,-131.5 383.89,-112.5 275.89,-112.5"/>
<text text-anchor="middle" x="329.89" y="-119.5" font-family="Helvetica,sans-Serif" font-size="10.00">FixedGradientBC.H</text>
</a>
</g>
</g>
<!-- Node15&#45;&gt;Node16 -->
<g id="edge7" class="edge">
<title>Node15&#45;&gt;Node16</title>
<path fill="none" stroke="midnightblue" d="M920.87,-174.08C822.56,-167.9 591.34,-152.41 397.89,-132 393.39,-131.53 388.73,-130.99 384.05,-130.43"/>
<polygon fill="midnightblue" stroke="midnightblue" points="920.88,-177.58 931.07,-174.71 921.31,-170.6 920.88,-177.58"/>
</g>
<!-- Node18 -->
<g id="node8" class="node">
<title>Node18</title>
<g id="a_node8"><a xlink:href="velocity__bcs_8_h.html" target="_top" xlink:title=" ">
<polygon fill="white" stroke="red" points="169.89,-112.5 169.89,-131.5 257.89,-131.5 257.89,-112.5 169.89,-112.5"/>
<text text-anchor="middle" x="213.89" y="-119.5" font-family="Helvetica,sans-Serif" font-size="10.00">velocity_bcs.H</text>
</a>
</g>
</g>
<!-- Node15&#45;&gt;Node18 -->
<g id="edge9" class="edge">
<title>Node15&#45;&gt;Node18</title>
<path fill="none" stroke="midnightblue" d="M920.98,-175.65C807.18,-172.07 511.85,-160.57 266.89,-132 264.01,-131.66 261.06,-131.28 258.09,-130.86"/>
<polygon fill="midnightblue" stroke="midnightblue" points="920.99,-179.15 931.1,-175.96 921.21,-172.16 920.99,-179.15"/>
</g>
<!-- Node19 -->
<g id="node9" class="node">
<title>Node19</title>
<g id="a_node9"><a xlink:href="_c_f_d_sim_8_h.html" target="_top" xlink:title=" ">
<polygon fill="white" stroke="red" points="1805.89,-112.5 1805.89,-131.5 1871.89,-131.5 1871.89,-112.5 1805.89,-112.5"/>
<text text-anchor="middle" x="1838.89" y="-119.5" font-family="Helvetica,sans-Serif" font-size="10.00">CFDSim.H</text>
</a>
</g>
</g>
<!-- Node15&#45;&gt;Node19 -->
<g id="edge10" class="edge">
<title>Node15&#45;&gt;Node19</title>
<path fill="none" stroke="midnightblue" d="M1016.84,-174.02C1174.09,-164.26 1671.68,-133.38 1805.49,-125.07"/>
<polygon fill="midnightblue" stroke="midnightblue" points="1016.31,-170.55 1006.55,-174.66 1016.75,-177.54 1016.31,-170.55"/>
</g>
<!-- Node15&#45;&gt;Node140 -->
<g id="edge35" class="edge">
<title>Node15&#45;&gt;Node140</title>
<path fill="none" stroke="midnightblue" d="M1016.31,-167.47C1050.92,-159.79 1098.63,-147.69 1138.89,-132 1156.67,-125.07 1158.96,-118.53 1176.89,-112 1229.24,-92.93 1292.13,-80.67 1334.74,-73.84"/>
<polygon fill="midnightblue" stroke="midnightblue" points="1015.49,-164.06 1006.47,-169.61 1016.98,-170.9 1015.49,-164.06"/>
</g>
<!-- Node15&#45;&gt;Node141 -->
<g id="edge36" class="edge">
<title>Node15&#45;&gt;Node141</title>
<path fill="none" stroke="midnightblue" d="M984.33,-161.46C999.87,-146.68 1025.15,-124.85 1050.89,-112 1087.48,-93.73 1132.27,-82.32 1166.97,-75.56"/>
<polygon fill="midnightblue" stroke="midnightblue" points="981.87,-158.98 977.15,-168.46 986.75,-163.99 981.87,-158.98"/>
</g>
<!-- Node195 -->
<g id="node22" class="node">
<title>Node195</title>
<g id="a_node22"><a xlink:href="_godunov_8_h.html" target="_top" xlink:title=" ">
<polygon fill="white" stroke="red" points="1059.89,-112.5 1059.89,-131.5 1129.89,-131.5 1129.89,-112.5 1059.89,-112.5"/>
<text text-anchor="middle" x="1094.89" y="-119.5" font-family="Helvetica,sans-Serif" font-size="10.00">Godunov.H</text>
</a>
</g>
</g>
<!-- Node15&#45;&gt;Node195 -->
<g id="edge23" class="edge">
<title>Node15&#45;&gt;Node195</title>
<path fill="none" stroke="midnightblue" d="M998.05,-164.5C1021.67,-154.38 1054.32,-140.39 1075.02,-131.52"/>
<polygon fill="midnightblue" stroke="midnightblue" points="996.67,-161.29 988.85,-168.44 999.42,-167.72 996.67,-161.29"/>
</g>
<!-- Node201 -->
<g id="node23" class="node">
<title>Node201</title>
<g id="a_node23"><a xlink:href="_m_o_l_8_h.html" target="_top" xlink:title=" ">
<polygon fill="white" stroke="red" points="440.39,-112.5 440.39,-131.5 489.39,-131.5 489.39,-112.5 440.39,-112.5"/>
<text text-anchor="middle" x="464.89" y="-119.5" font-family="Helvetica,sans-Serif" font-size="10.00">MOL.H</text>
</a>
</g>
</g>
<!-- Node15&#45;&gt;Node201 -->
<g id="edge24" class="edge">
<title>Node15&#45;&gt;Node201</title>
<path fill="none" stroke="midnightblue" d="M921.18,-175.14C835.7,-171.21 651.09,-160 497.89,-132 495.2,-131.51 492.41,-130.9 489.65,-130.24"/>
<polygon fill="midnightblue" stroke="midnightblue" points="921.2,-178.64 931.34,-175.59 921.51,-171.65 921.2,-178.64"/>
</g>
<!-- Node203 -->
<g id="node24" class="node">
<title>Node203</title>
<g id="a_node24"><a xlink:href="_field_repo_8cpp.html" target="_top" xlink:title=" ">
<polygon fill="white" stroke="black" points="507.39,-112.5 507.39,-131.5 592.39,-131.5 592.39,-112.5 507.39,-112.5"/>
<text text-anchor="middle" x="549.89" y="-119.5" font-family="Helvetica,sans-Serif" font-size="10.00">FieldRepo.cpp</text>
</a>
</g>
</g>
<!-- Node15&#45;&gt;Node203 -->
<g id="edge26" class="edge">
<title>Node15&#45;&gt;Node203</title>
<path fill="none" stroke="midnightblue" d="M920.87,-171.95C850.51,-164.36 715.33,-149.08 600.89,-132 598.13,-131.59 595.3,-131.14 592.44,-130.68"/>
<polygon fill="midnightblue" stroke="midnightblue" points="920.87,-175.47 931.19,-173.06 921.62,-168.51 920.87,-175.47"/>
</g>
<!-- Node204 -->
<g id="node25" class="node">
<title>Node204</title>
<g id="a_node25"><a xlink:href="_int_field_8cpp.html" target="_top" xlink:title=" ">
<polygon fill="white" stroke="black" points="610.39,-112.5 610.39,-131.5 683.39,-131.5 683.39,-112.5 610.39,-112.5"/>
<text text-anchor="middle" x="646.89" y="-119.5" font-family="Helvetica,sans-Serif" font-size="10.00">IntField.cpp</text>
</a>
</g>
</g>
<!-- Node15&#45;&gt;Node204 -->
<g id="edge27" class="edge">
<title>Node15&#45;&gt;Node204</title>
<path fill="none" stroke="midnightblue" d="M921.16,-169.69C866.08,-161.14 772.8,-146.33 692.89,-132 689.84,-131.45 686.69,-130.87 683.53,-130.28"/>
<polygon fill="midnightblue" stroke="midnightblue" points="920.91,-173.19 931.33,-171.26 921.98,-166.27 920.91,-173.19"/>
</g>
<!-- Node205 -->
<g id="node26" class="node">
<title>Node205</title>
<g id="a_node26"><a xlink:href="_scratch_field_8cpp.html" target="_top" xlink:title=" ">
<polygon fill="white" stroke="black" points="701.89,-112.5 701.89,-131.5 797.89,-131.5 797.89,-112.5 701.89,-112.5"/>
<text text-anchor="middle" x="749.89" y="-119.5" font-family="Helvetica,sans-Serif" font-size="10.00">ScratchField.cpp</text>
</a>
</g>
</g>
<!-- Node15&#45;&gt;Node205 -->
<g id="edge28" class="edge">
<title>Node15&#45;&gt;Node205</title>
<path fill="none" stroke="midnightblue" d="M924.37,-166.02C883,-155.82 822.25,-140.84 784.43,-131.52"/>
<polygon fill="midnightblue" stroke="midnightblue" points="923.64,-169.45 934.19,-168.44 925.32,-162.65 923.64,-169.45"/>
</g>
<!-- Node15&#45;&gt;Node206 -->
<g id="edge29" class="edge">
<title>Node15&#45;&gt;Node206</title>
<path fill="none" stroke="midnightblue" d="M1016.55,-167.06C1065.36,-156.89 1140.46,-141.23 1186.76,-131.58"/>
<polygon fill="midnightblue" stroke="midnightblue" points="1015.62,-163.68 1006.55,-169.15 1017.05,-170.53 1015.62,-163.68"/>
</g>
<!-- Node207 -->
<g id="node28" class="node">
<title>Node207</title>
<g id="a_node28"><a xlink:href="field__algebra_8cpp.html" target="_top" xlink:title=" ">
<polygon fill="white" stroke="black" points="815.89,-112.5 815.89,-131.5 915.89,-131.5 915.89,-112.5 815.89,-112.5"/>
<text text-anchor="middle" x="865.89" y="-119.5" font-family="Helvetica,sans-Serif" font-size="10.00">field_algebra.cpp</text>
</a>
</g>
</g>
<!-- Node15&#45;&gt;Node207 -->
<g id="edge30" class="edge">
<title>Node15&#45;&gt;Node207</title>
<path fill="none" stroke="midnightblue" d="M943.31,-163.59C924.27,-153.61 898.82,-140.27 882.4,-131.65"/>
<polygon fill="midnightblue" stroke="midnightblue" points="941.86,-166.78 952.34,-168.32 945.11,-160.58 941.86,-166.78"/>
</g>
<!-- Node208 -->
<g id="node29" class="node">
<title>Node208</title>
<g id="a_node29"><a xlink:href="diffusion_8_h.html" target="_top" xlink:title=" ">
<polygon fill="white" stroke="red" points="934.39,-112.5 934.39,-131.5 1003.39,-131.5 1003.39,-112.5 934.39,-112.5"/>
<text text-anchor="middle" x="968.89" y="-119.5" font-family="Helvetica,sans-Serif" font-size="10.00">diffusion.H</text>
</a>
</g>
</g>
<!-- Node15&#45;&gt;Node208 -->
<g id="edge31" class="edge">
<title>Node15&#45;&gt;Node208</title>
<path fill="none" stroke="midnightblue" d="M968.89,-157.8C968.89,-148.91 968.89,-138.78 968.89,-131.75"/>
<polygon fill="midnightblue" stroke="midnightblue" points="965.39,-158.08 968.89,-168.08 972.39,-158.08 965.39,-158.08"/>
</g>
<!-- Node15&#45;&gt;Node244 -->
<g id="edge32" class="edge">
<title>Node15&#45;&gt;Node244</title>
<path fill="none" stroke="midnightblue" d="M1016.68,-170.21C1077.59,-161.52 1186.11,-145.93 1278.89,-132 1281.81,-131.56 1284.82,-131.11 1287.85,-130.64"/>
<polygon fill="midnightblue" stroke="midnightblue" points="1016.01,-166.77 1006.6,-171.65 1017,-173.7 1016.01,-166.77"/>
</g>
<!-- Node15&#45;&gt;Node46 -->
<g id="edge33" class="edge">
<title>Node15&#45;&gt;Node46</title>
<path fill="none" stroke="midnightblue" d="M1016.64,-172.37C1095.48,-164.63 1257.78,-148.31 1394.89,-132 1397.96,-131.63 1401.11,-131.25 1404.3,-130.85"/>
<polygon fill="midnightblue" stroke="midnightblue" points="1016.15,-168.9 1006.54,-173.36 1016.83,-175.87 1016.15,-168.9"/>
</g>
<!-- Node15&#45;&gt;Node245 -->
<g id="edge34" class="edge">
<title>Node15&#45;&gt;Node245</title>
<path fill="none" stroke="midnightblue" d="M1016.74,-175.73C1114.11,-172.57 1342.07,-162.33 1530.89,-132 1533.76,-131.54 1536.74,-130.97 1539.7,-130.34"/>
<polygon fill="midnightblue" stroke="midnightblue" points="1016.51,-172.23 1006.62,-176.04 1016.73,-179.23 1016.51,-172.23"/>
</g>
<!-- Node16&#45;&gt;Node3 -->
<g id="edge8" class="edge">
<title>Node16&#45;&gt;Node3</title>
<path fill="none" stroke="midnightblue" d="M329.89,-101.8C329.89,-92.91 329.89,-82.78 329.89,-75.75"/>
<polygon fill="midnightblue" stroke="midnightblue" points="326.39,-102.08 329.89,-112.08 333.39,-102.08 326.39,-102.08"/>
</g>
<!-- Node19&#45;&gt;Node72 -->
<g id="edge11" class="edge">
<title>Node19&#45;&gt;Node72</title>
<path fill="none" stroke="midnightblue" d="M1881.92,-117.29C1964.56,-110.06 2151.17,-93.31 2307.89,-76 2310.77,-75.68 2313.71,-75.35 2316.68,-75"/>
<polygon fill="midnightblue" stroke="midnightblue" points="1881.56,-113.81 1871.9,-118.16 1882.17,-120.78 1881.56,-113.81"/>
</g>
<!-- Node19&#45;&gt;Node79 -->
<g id="edge14" class="edge">
<title>Node19&#45;&gt;Node79</title>
<path fill="none" stroke="midnightblue" d="M1795.72,-113.89C1735.68,-104.01 1627.1,-86.13 1562.74,-75.54"/>
<polygon fill="midnightblue" stroke="midnightblue" points="1795.2,-117.35 1805.63,-115.53 1796.33,-110.45 1795.2,-117.35"/>
</g>
<!-- Node19&#45;&gt;Node106 -->
<g id="edge15" class="edge">
<title>Node19&#45;&gt;Node106</title>
<path fill="none" stroke="midnightblue" d="M1800.56,-109.44C1766.81,-99.26 1718.44,-84.66 1688.12,-75.52"/>
<polygon fill="midnightblue" stroke="midnightblue" points="1799.94,-112.91 1810.53,-112.44 1801.96,-106.2 1799.94,-112.91"/>
</g>
<!-- Node19&#45;&gt;Node109 -->
<g id="edge16" class="edge">
<title>Node19&#45;&gt;Node109</title>
<path fill="none" stroke="midnightblue" d="M1824.84,-104.14C1817,-94.74 1807.56,-83.4 1801.18,-75.75"/>
<polygon fill="midnightblue" stroke="midnightblue" points="1822.37,-106.64 1831.46,-112.08 1827.74,-102.16 1822.37,-106.64"/>
</g>
<!-- Node19&#45;&gt;Node111 -->
<g id="edge17" class="edge">
<title>Node19&#45;&gt;Node111</title>
<path fill="none" stroke="midnightblue" d="M1856.64,-105.54C1867.7,-95.91 1881.52,-83.87 1890.75,-75.83"/>
<polygon fill="midnightblue" stroke="midnightblue" points="1854.09,-103.12 1848.85,-112.32 1858.69,-108.4 1854.09,-103.12"/>
</g>
<!-- Node19&#45;&gt;Node114 -->
<g id="edge18" class="edge">
<title>Node19&#45;&gt;Node114</title>
<path fill="none" stroke="midnightblue" d="M1878.27,-109.57C1913.35,-99.38 1963.91,-84.7 1995.55,-75.52"/>
<polygon fill="midnightblue" stroke="midnightblue" points="1876.99,-106.29 1868.36,-112.44 1878.94,-113.02 1876.99,-106.29"/>
</g>
<!-- Node19&#45;&gt;Node116 -->
<g id="edge19" class="edge">
<title>Node19&#45;&gt;Node116</title>
<path fill="none" stroke="midnightblue" d="M1881.97,-114.61C1933.2,-106.74 2021.18,-92.4 2095.89,-76 2098.63,-75.4 2101.49,-74.72 2104.33,-74.02"/>
<polygon fill="midnightblue" stroke="midnightblue" points="1881.28,-111.17 1871.93,-116.14 1882.34,-118.09 1881.28,-111.17"/>
</g>
<!-- Node19&#45;&gt;Node126 -->
<g id="edge20" class="edge">
<title>Node19&#45;&gt;Node126</title>
<path fill="none" stroke="midnightblue" d="M1882.34,-115.09C1952.77,-105.51 2092.12,-86.55 2173.26,-75.52"/>
<polygon fill="midnightblue" stroke="midnightblue" points="1881.49,-111.67 1872.05,-116.49 1882.43,-118.61 1881.49,-111.67"/>
</g>
<!-- Node19&#45;&gt;Node140 -->
<g id="edge21" class="edge">
<title>Node19&#45;&gt;Node140</title>
<path fill="none" stroke="midnightblue" d="M1795.43,-116.66C1722.33,-109.24 1570.16,-93.21 1441.89,-76 1438.96,-75.61 1435.95,-75.19 1432.92,-74.75"/>
<polygon fill="midnightblue" stroke="midnightblue" points="1795.33,-120.17 1805.63,-117.7 1796.04,-113.21 1795.33,-120.17"/>
</g>
<!-- Node19&#45;&gt;Node141 -->
<g id="edge22" class="edge">
<title>Node19&#45;&gt;Node141</title>
<path fill="none" stroke="midnightblue" d="M1795.8,-117.22C1686.93,-107.68 1400.85,-82.6 1279.07,-71.92"/>
<polygon fill="midnightblue" stroke="midnightblue" points="1795.5,-120.71 1805.77,-118.1 1796.11,-113.74 1795.5,-120.71"/>
</g>
<!-- Node72&#45;&gt;Node75 -->
<g id="edge12" class="edge">
<title>Node72&#45;&gt;Node75</title>
<path fill="none" stroke="midnightblue" d="M2306.38,-55.87C2149.6,-39.19 1978.41,-24.76 1882.09,-17"/>
<polygon fill="midnightblue" stroke="midnightblue" points="2306.37,-59.39 2316.69,-56.97 2307.12,-52.43 2306.37,-59.39"/>
</g>
<!-- Node72&#45;&gt;Node77 -->
<g id="edge13" class="edge">
<title>Node72&#45;&gt;Node77</title>
<path fill="none" stroke="midnightblue" d="M2393.94,-48.14C2401.78,-38.74 2411.22,-27.4 2417.6,-19.75"/>
<polygon fill="midnightblue" stroke="midnightblue" points="2391.03,-46.16 2387.32,-56.08 2396.41,-50.64 2391.03,-46.16"/>
</g>
<!-- Node251&#45;&gt;Node4 -->
<g id="edge40" class="edge">
<title>Node251&#45;&gt;Node4</title>
<path fill="none" stroke="midnightblue" d="M286.36,-165.91C246.39,-155.48 187.58,-140.14 152.18,-130.9"/>
<polygon fill="midnightblue" stroke="midnightblue" points="285.53,-169.31 296.09,-168.44 287.3,-162.53 285.53,-169.31"/>
</g>
<!-- Node251&#45;&gt;Node16 -->
<g id="edge38" class="edge">
<title>Node251&#45;&gt;Node16</title>
<path fill="none" stroke="midnightblue" d="M329.24,-157.8C329.41,-148.91 329.6,-138.78 329.73,-131.75"/>
<polygon fill="midnightblue" stroke="midnightblue" points="325.74,-158.02 329.05,-168.08 332.74,-158.15 325.74,-158.02"/>
</g>
<!-- Node251&#45;&gt;Node18 -->
<g id="edge39" class="edge">
<title>Node251&#45;&gt;Node18</title>
<path fill="none" stroke="midnightblue" d="M301.41,-164.1C279.92,-154.01 250.67,-140.27 232.03,-131.52"/>
<polygon fill="midnightblue" stroke="midnightblue" points="300.13,-167.36 310.67,-168.44 303.1,-161.02 300.13,-167.36"/>
</g>
<!-- Node252&#45;&gt;Node4 -->
<g id="edge43" class="edge">
<title>Node252&#45;&gt;Node4</title>
<path fill="none" stroke="midnightblue" d="M190.34,-163.18C173.41,-153.24 151.11,-140.15 136.63,-131.65"/>
<polygon fill="midnightblue" stroke="midnightblue" points="188.71,-166.28 199.11,-168.32 192.25,-160.24 188.71,-166.28"/>
</g>
<!-- Node252&#45;&gt;Node18 -->
<g id="edge42" class="edge">
<title>Node252&#45;&gt;Node18</title>
<path fill="none" stroke="midnightblue" d="M213.89,-157.8C213.89,-148.91 213.89,-138.78 213.89,-131.75"/>
<polygon fill="midnightblue" stroke="midnightblue" points="210.39,-158.08 213.89,-168.08 217.39,-158.08 210.39,-158.08"/>
</g>
<!-- Node253&#45;&gt;Node19 -->
<g id="edge45" class="edge">
<title>Node253&#45;&gt;Node19</title>
<path fill="none" stroke="midnightblue" d="M1840.18,-157.8C1839.85,-148.91 1839.47,-138.78 1839.21,-131.75"/>
<polygon fill="midnightblue" stroke="midnightblue" points="1836.69,-158.22 1840.56,-168.08 1843.69,-157.96 1836.69,-158.22"/>
</g>
</g>
</svg>
