<?xml version="1.0" encoding="UTF-8" standalone="no"?>
<!DOCTYPE svg PUBLIC "-//W3C//DTD SVG 1.1//EN"
 "http://www.w3.org/Graphics/SVG/1.1/DTD/svg11.dtd">
<!-- Generated by graphviz version 2.43.0 (0)
 -->
<!-- Title: FieldPlaneAveraging.cpp Pages: 1 -->
<svg width="2710pt" height="408pt"
 viewBox="0.00 0.00 2709.51 408.00" xmlns="http://www.w3.org/2000/svg" xmlns:xlink="http://www.w3.org/1999/xlink">
<g id="graph0" class="graph" transform="scale(1 1) rotate(0) translate(4 404)">
<title>FieldPlaneAveraging.cpp</title>
<polygon fill="white" stroke="transparent" points="-4,4 -4,-404 2705.51,-404 2705.51,4 -4,4"/>
<!-- Node1 -->
<g id="node1" class="node">
<title>Node1</title>
<g id="a_node1"><a xlink:title=" ">
<polygon fill="#bfbfbf" stroke="black" points="2328,-380.5 2328,-399.5 2464,-399.5 2464,-380.5 2328,-380.5"/>
<text text-anchor="middle" x="2396" y="-387.5" font-family="Helvetica,sans-Serif" font-size="10.00">FieldPlaneAveraging.cpp</text>
</a>
</g>
</g>
<!-- Node2 -->
<g id="node2" class="node">
<title>Node2</title>
<g id="a_node2"><a xlink:href="_field_plane_averaging_8_h.html" target="_top" xlink:title=" ">
<polygon fill="white" stroke="black" points="2215.5,-313.5 2215.5,-343.5 2344.5,-343.5 2344.5,-313.5 2215.5,-313.5"/>
<text text-anchor="start" x="2223.5" y="-331.5" font-family="Helvetica,sans-Serif" font-size="10.00">amr&#45;wind/utilities</text>
<text text-anchor="middle" x="2280" y="-320.5" font-family="Helvetica,sans-Serif" font-size="10.00">/FieldPlaneAveraging.H</text>
</a>
</g>
</g>
<!-- Node1&#45;&gt;Node2 -->
<g id="edge1" class="edge">
<title>Node1&#45;&gt;Node2</title>
<path fill="none" stroke="midnightblue" d="M2379.38,-380.48C2363.01,-372.08 2337.46,-358.97 2316.37,-348.15"/>
<polygon fill="midnightblue" stroke="midnightblue" points="2317.83,-344.97 2307.34,-343.52 2314.64,-351.2 2317.83,-344.97"/>
</g>
<!-- Node21 -->
<g id="node21" class="node">
<title>Node21</title>
<g id="a_node21"><a xlink:title=" ">
<polygon fill="white" stroke="#bfbfbf" points="2618,-56.5 2618,-75.5 2682,-75.5 2682,-56.5 2618,-56.5"/>
<text text-anchor="middle" x="2650" y="-63.5" font-family="Helvetica,sans-Serif" font-size="10.00">algorithm</text>
</a>
</g>
</g>
<!-- Node1&#45;&gt;Node21 -->
<g id="edge79" class="edge">
<title>Node1&#45;&gt;Node21</title>
<path fill="none" stroke="midnightblue" d="M2456.42,-380.47C2521.25,-367.51 2615,-336.05 2615,-262.5 2615,-262.5 2615,-262.5 2615,-193.5 2615,-153.6 2631.37,-109.11 2641.72,-84.96"/>
<polygon fill="midnightblue" stroke="midnightblue" points="2644.99,-86.23 2645.85,-75.67 2638.59,-83.39 2644.99,-86.23"/>
</g>
<!-- Node3 -->
<g id="node3" class="node">
<title>Node3</title>
<g id="a_node3"><a xlink:href="_direction_selector_8_h.html" target="_top" xlink:title=" ">
<polygon fill="white" stroke="black" points="2382.5,-246.5 2382.5,-276.5 2495.5,-276.5 2495.5,-246.5 2382.5,-246.5"/>
<text text-anchor="start" x="2390.5" y="-264.5" font-family="Helvetica,sans-Serif" font-size="10.00">amr&#45;wind/utilities</text>
<text text-anchor="middle" x="2439" y="-253.5" font-family="Helvetica,sans-Serif" font-size="10.00">/DirectionSelector.H</text>
</a>
</g>
</g>
<!-- Node2&#45;&gt;Node3 -->
<g id="edge2" class="edge">
<title>Node2&#45;&gt;Node3</title>
<path fill="none" stroke="midnightblue" d="M2314.5,-313.4C2338.15,-303.73 2369.72,-290.82 2395.15,-280.43"/>
<polygon fill="midnightblue" stroke="midnightblue" points="2396.63,-283.6 2404.57,-276.58 2393.99,-277.12 2396.63,-283.6"/>
</g>
<!-- Node6 -->
<g id="node6" class="node">
<title>Node6</title>
<g id="a_node6"><a xlink:href="_c_f_d_sim_8_h.html" target="_top" xlink:title=" ">
<polygon fill="white" stroke="black" points="1522,-252 1522,-271 1638,-271 1638,-252 1522,-252"/>
<text text-anchor="middle" x="1580" y="-259" font-family="Helvetica,sans-Serif" font-size="10.00">amr&#45;wind/CFDSim.H</text>
</a>
</g>
</g>
<!-- Node2&#45;&gt;Node6 -->
<g id="edge5" class="edge">
<title>Node2&#45;&gt;Node6</title>
<path fill="none" stroke="midnightblue" d="M2215.4,-321.5C2083.45,-309.25 1784.07,-281.45 1648.72,-268.88"/>
<polygon fill="midnightblue" stroke="midnightblue" points="1648.76,-265.37 1638.48,-267.93 1648.11,-272.34 1648.76,-265.37"/>
</g>
<!-- Node8 -->
<g id="node8" class="node">
<title>Node8</title>
<g id="a_node8"><a xlink:href="_sim_time_8_h.html" target="_top" xlink:title=" ">
<polygon fill="white" stroke="black" points="239,-185 239,-204 383,-204 383,-185 239,-185"/>
<text text-anchor="middle" x="311" y="-192" font-family="Helvetica,sans-Serif" font-size="10.00">amr&#45;wind/core/SimTime.H</text>
</a>
</g>
</g>
<!-- Node2&#45;&gt;Node8 -->
<g id="edge78" class="edge">
<title>Node2&#45;&gt;Node8</title>
<path fill="none" stroke="midnightblue" d="M2215.35,-323.29C2083.35,-314.67 1773.31,-294.39 1513,-277 1091.93,-248.86 587.94,-214.45 393.29,-201.14"/>
<polygon fill="midnightblue" stroke="midnightblue" points="393.36,-197.63 383.14,-200.44 392.88,-204.62 393.36,-197.63"/>
</g>
<!-- Node19 -->
<g id="node19" class="node">
<title>Node19</title>
<g id="a_node19"><a xlink:href="_field_8_h.html" target="_top" xlink:title=" ">
<polygon fill="white" stroke="black" points="2218,-118 2218,-137 2342,-137 2342,-118 2218,-118"/>
<text text-anchor="middle" x="2280" y="-125" font-family="Helvetica,sans-Serif" font-size="10.00">amr&#45;wind/core/Field.H</text>
</a>
</g>
</g>
<!-- Node2&#45;&gt;Node19 -->
<g id="edge77" class="edge">
<title>Node2&#45;&gt;Node19</title>
<path fill="none" stroke="midnightblue" d="M2280,-313.19C2280,-277.99 2280,-187.17 2280,-147.51"/>
<polygon fill="midnightblue" stroke="midnightblue" points="2283.5,-147.36 2280,-137.36 2276.5,-147.36 2283.5,-147.36"/>
</g>
<!-- Node4 -->
<g id="node4" class="node">
<title>Node4</title>
<g id="a_node4"><a xlink:title=" ">
<polygon fill="white" stroke="#bfbfbf" points="2467,-185 2467,-204 2553,-204 2553,-185 2467,-185"/>
<text text-anchor="middle" x="2510" y="-192" font-family="Helvetica,sans-Serif" font-size="10.00">AMReX_Box.H</text>
</a>
</g>
</g>
<!-- Node3&#45;&gt;Node4 -->
<g id="edge3" class="edge">
<title>Node3&#45;&gt;Node4</title>
<path fill="none" stroke="midnightblue" d="M2454.41,-246.4C2465.81,-235.96 2481.33,-221.75 2493.07,-211"/>
<polygon fill="midnightblue" stroke="midnightblue" points="2495.49,-213.53 2500.5,-204.19 2490.76,-208.37 2495.49,-213.53"/>
</g>
<!-- Node5 -->
<g id="node5" class="node">
<title>Node5</title>
<g id="a_node5"><a xlink:title=" ">
<polygon fill="white" stroke="#bfbfbf" points="2512.5,-56.5 2512.5,-75.5 2599.5,-75.5 2599.5,-56.5 2512.5,-56.5"/>
<text text-anchor="middle" x="2556" y="-63.5" font-family="Helvetica,sans-Serif" font-size="10.00">AMReX_Gpu.H</text>
</a>
</g>
</g>
<!-- Node3&#45;&gt;Node5 -->
<g id="edge4" class="edge">
<title>Node3&#45;&gt;Node5</title>
<path fill="none" stroke="midnightblue" d="M2440.21,-246.23C2442.1,-229.37 2446.79,-200.85 2458,-179 2478.28,-139.45 2515.56,-102.48 2537.83,-82.48"/>
<polygon fill="midnightblue" stroke="midnightblue" points="2540.37,-84.91 2545.57,-75.68 2535.75,-79.66 2540.37,-84.91"/>
</g>
<!-- Node7 -->
<g id="node7" class="node">
<title>Node7</title>
<g id="a_node7"><a xlink:title=" ">
<polygon fill="white" stroke="#bfbfbf" points="1213,-118 1213,-137 1323,-137 1323,-118 1213,-118"/>
<text text-anchor="middle" x="1268" y="-125" font-family="Helvetica,sans-Serif" font-size="10.00">AMReX_AmrCore.H</text>
</a>
</g>
</g>
<!-- Node6&#45;&gt;Node7 -->
<g id="edge6" class="edge">
<title>Node6&#45;&gt;Node7</title>
<path fill="none" stroke="midnightblue" d="M1559.53,-251.84C1505.74,-229.08 1360.24,-167.53 1297.48,-140.97"/>
<polygon fill="midnightblue" stroke="midnightblue" points="1298.71,-137.69 1288.14,-137.02 1295.99,-144.14 1298.71,-137.69"/>
</g>
<!-- Node6&#45;&gt;Node8 -->
<g id="edge7" class="edge">
<title>Node6&#45;&gt;Node8</title>
<path fill="none" stroke="midnightblue" d="M1521.76,-257.52C1317.33,-247.05 632.02,-211.94 393.6,-199.73"/>
<polygon fill="midnightblue" stroke="midnightblue" points="393.43,-196.22 383.27,-199.2 393.07,-203.21 393.43,-196.22"/>
</g>
<!-- Node12 -->
<g id="node12" class="node">
<title>Node12</title>
<g id="a_node12"><a xlink:href="_field_repo_8_h.html" target="_top" xlink:title=" ">
<polygon fill="white" stroke="black" points="964.5,-185 964.5,-204 1113.5,-204 1113.5,-185 964.5,-185"/>
<text text-anchor="middle" x="1039" y="-192" font-family="Helvetica,sans-Serif" font-size="10.00">amr&#45;wind/core/FieldRepo.H</text>
</a>
</g>
</g>
<!-- Node6&#45;&gt;Node12 -->
<g id="edge11" class="edge">
<title>Node6&#45;&gt;Node12</title>
<path fill="none" stroke="midnightblue" d="M1521.85,-253.51C1424.99,-241.88 1230.39,-218.5 1120.11,-205.24"/>
<polygon fill="midnightblue" stroke="midnightblue" points="1120.38,-201.75 1110.03,-204.03 1119.54,-208.7 1120.38,-201.75"/>
</g>
<!-- Node31 -->
<g id="node31" class="node">
<title>Node31</title>
<g id="a_node31"><a xlink:href="_p_d_e_base_8_h.html" target="_top" xlink:title=" ">
<polygon fill="white" stroke="black" points="1502.5,-179.5 1502.5,-209.5 1657.5,-209.5 1657.5,-179.5 1502.5,-179.5"/>
<text text-anchor="start" x="1510.5" y="-197.5" font-family="Helvetica,sans-Serif" font-size="10.00">amr&#45;wind/equation_systems</text>
<text text-anchor="middle" x="1580" y="-186.5" font-family="Helvetica,sans-Serif" font-size="10.00">/PDEBase.H</text>
</a>
</g>
</g>
<!-- Node6&#45;&gt;Node31 -->
<g id="edge49" class="edge">
<title>Node6&#45;&gt;Node31</title>
<path fill="none" stroke="midnightblue" d="M1580,-251.73C1580,-243.54 1580,-230.92 1580,-219.71"/>
<polygon fill="midnightblue" stroke="midnightblue" points="1583.5,-219.59 1580,-209.59 1576.5,-219.59 1583.5,-219.59"/>
</g>
<!-- Node39 -->
<g id="node39" class="node">
<title>Node39</title>
<g id="a_node39"><a xlink:href="_physics_8_h.html" target="_top" xlink:title=" ">
<polygon fill="white" stroke="black" points="1708.5,-185 1708.5,-204 1845.5,-204 1845.5,-185 1708.5,-185"/>
<text text-anchor="middle" x="1777" y="-192" font-family="Helvetica,sans-Serif" font-size="10.00">amr&#45;wind/core/Physics.H</text>
</a>
</g>
</g>
<!-- Node6&#45;&gt;Node39 -->
<g id="edge66" class="edge">
<title>Node6&#45;&gt;Node39</title>
<path fill="none" stroke="midnightblue" d="M1606.16,-251.87C1640.84,-240.42 1702.2,-220.18 1741.17,-207.32"/>
<polygon fill="midnightblue" stroke="midnightblue" points="1742.65,-210.52 1751.05,-204.06 1740.45,-203.87 1742.65,-210.52"/>
</g>
<!-- Node41 -->
<g id="node41" class="node">
<title>Node41</title>
<g id="a_node41"><a xlink:href="_mesh_map_8_h.html" target="_top" xlink:title=" ">
<polygon fill="white" stroke="black" points="1952,-185 1952,-204 2100,-204 2100,-185 1952,-185"/>
<text text-anchor="middle" x="2026" y="-192" font-family="Helvetica,sans-Serif" font-size="10.00">amr&#45;wind/core/MeshMap.H</text>
</a>
</g>
</g>
<!-- Node6&#45;&gt;Node41 -->
<g id="edge71" class="edge">
<title>Node6&#45;&gt;Node41</title>
<path fill="none" stroke="midnightblue" d="M1638.31,-252C1720.41,-240.04 1869.82,-218.26 1957.24,-205.52"/>
<polygon fill="midnightblue" stroke="midnightblue" points="1957.93,-208.96 1967.32,-204.05 1956.92,-202.03 1957.93,-208.96"/>
</g>
<!-- Node9 -->
<g id="node9" class="node">
<title>Node9</title>
<g id="a_node9"><a xlink:title=" ">
<polygon fill="white" stroke="#bfbfbf" points="134,-118 134,-137 226,-137 226,-118 134,-118"/>
<text text-anchor="middle" x="180" y="-125" font-family="Helvetica,sans-Serif" font-size="10.00">AMReX_REAL.H</text>
</a>
</g>
</g>
<!-- Node8&#45;&gt;Node9 -->
<g id="edge8" class="edge">
<title>Node8&#45;&gt;Node9</title>
<path fill="none" stroke="midnightblue" d="M293.6,-184.87C271.39,-173.84 232.71,-154.66 206.74,-141.77"/>
<polygon fill="midnightblue" stroke="midnightblue" points="207.98,-138.48 197.47,-137.17 204.87,-144.75 207.98,-138.48"/>
</g>
<!-- Node10 -->
<g id="node10" class="node">
<title>Node10</title>
<g id="a_node10"><a xlink:title=" ">
<polygon fill="white" stroke="#bfbfbf" points="244,-118 244,-137 378,-137 378,-118 244,-118"/>
<text text-anchor="middle" x="311" y="-125" font-family="Helvetica,sans-Serif" font-size="10.00">AMReX_GpuQualifiers.H</text>
</a>
</g>
</g>
<!-- Node8&#45;&gt;Node10 -->
<g id="edge9" class="edge">
<title>Node8&#45;&gt;Node10</title>
<path fill="none" stroke="midnightblue" d="M311,-184.73C311,-175.18 311,-159.62 311,-147.28"/>
<polygon fill="midnightblue" stroke="midnightblue" points="314.5,-147.13 311,-137.13 307.5,-147.13 314.5,-147.13"/>
</g>
<!-- Node11 -->
<g id="node11" class="node">
<title>Node11</title>
<g id="a_node11"><a xlink:title=" ">
<polygon fill="white" stroke="#bfbfbf" points="0,-118 0,-137 116,-137 116,-118 0,-118"/>
<text text-anchor="middle" x="58" y="-125" font-family="Helvetica,sans-Serif" font-size="10.00">AMReX_Extension.H</text>
</a>
</g>
</g>
<!-- Node8&#45;&gt;Node11 -->
<g id="edge10" class="edge">
<title>Node8&#45;&gt;Node11</title>
<path fill="none" stroke="midnightblue" d="M277.66,-184.94C232.35,-173.29 151.24,-152.45 101.27,-139.62"/>
<polygon fill="midnightblue" stroke="midnightblue" points="101.97,-136.18 91.41,-137.08 100.22,-142.96 101.97,-136.18"/>
</g>
<!-- Node12&#45;&gt;Node7 -->
<g id="edge46" class="edge">
<title>Node12&#45;&gt;Node7</title>
<path fill="none" stroke="midnightblue" d="M1069.41,-184.87C1110.24,-173.28 1182.87,-152.66 1228.07,-139.83"/>
<polygon fill="midnightblue" stroke="midnightblue" points="1229.17,-143.16 1237.83,-137.06 1227.25,-136.43 1229.17,-143.16"/>
</g>
<!-- Node13 -->
<g id="node13" class="node">
<title>Node13</title>
<g id="a_node13"><a xlink:title=" ">
<polygon fill="white" stroke="#bfbfbf" points="1435,-0.5 1435,-19.5 1479,-19.5 1479,-0.5 1435,-0.5"/>
<text text-anchor="middle" x="1457" y="-7.5" font-family="Helvetica,sans-Serif" font-size="10.00">string</text>
</a>
</g>
</g>
<!-- Node12&#45;&gt;Node13 -->
<g id="edge12" class="edge">
<title>Node12&#45;&gt;Node13</title>
<path fill="none" stroke="midnightblue" d="M1056.82,-184.98C1075.35,-175.76 1104.83,-160.07 1128,-143 1144.2,-131.06 1144.47,-123.48 1161,-112 1262.01,-41.83 1302.68,-49.85 1422,-20 1422.91,-19.77 1423.82,-19.54 1424.75,-19.31"/>
<polygon fill="midnightblue" stroke="midnightblue" points="1425.96,-22.61 1434.79,-16.76 1424.24,-15.83 1425.96,-22.61"/>
</g>
<!-- Node14 -->
<g id="node14" class="node">
<title>Node14</title>
<g id="a_node14"><a xlink:title=" ">
<polygon fill="white" stroke="#bfbfbf" points="1857.5,-56.5 1857.5,-75.5 1950.5,-75.5 1950.5,-56.5 1857.5,-56.5"/>
<text text-anchor="middle" x="1904" y="-63.5" font-family="Helvetica,sans-Serif" font-size="10.00">unordered_map</text>
</a>
</g>
</g>
<!-- Node12&#45;&gt;Node14 -->
<g id="edge13" class="edge">
<title>Node12&#45;&gt;Node14</title>
<path fill="none" stroke="midnightblue" d="M1064.56,-184.89C1089.81,-175.93 1129.16,-160.75 1161,-143 1181.58,-131.53 1181.79,-119.86 1204,-112 1336.21,-65.2 1689.86,-90.26 1847.22,-75.88"/>
<polygon fill="midnightblue" stroke="midnightblue" points="1847.69,-79.35 1857.3,-74.88 1847,-72.39 1847.69,-79.35"/>
</g>
<!-- Node15 -->
<g id="node15" class="node">
<title>Node15</title>
<g id="a_node15"><a xlink:href="_field_desc_types_8_h.html" target="_top" xlink:title=" ">
<polygon fill="white" stroke="black" points="726,-0.5 726,-19.5 902,-19.5 902,-0.5 726,-0.5"/>
<text text-anchor="middle" x="814" y="-7.5" font-family="Helvetica,sans-Serif" font-size="10.00">amr&#45;wind/core/FieldDescTypes.H</text>
</a>
</g>
</g>
<!-- Node12&#45;&gt;Node15 -->
<g id="edge14" class="edge">
<title>Node12&#45;&gt;Node15</title>
<path fill="none" stroke="midnightblue" d="M964.32,-191.91C813.73,-186.82 483.02,-165.46 425,-76 420.16,-68.54 419.09,-62.64 425,-56 444.08,-34.59 607,-21.85 715.86,-15.66"/>
<polygon fill="midnightblue" stroke="midnightblue" points="716.1,-19.15 725.89,-15.1 715.71,-12.16 716.1,-19.15"/>
</g>
<!-- Node16 -->
<g id="node16" class="node">
<title>Node16</title>
<g id="a_node16"><a xlink:href="_field_utils_8_h.html" target="_top" xlink:title=" ">
<polygon fill="white" stroke="black" points="434,-56.5 434,-75.5 580,-75.5 580,-56.5 434,-56.5"/>
<text text-anchor="middle" x="507" y="-63.5" font-family="Helvetica,sans-Serif" font-size="10.00">amr&#45;wind/core/FieldUtils.H</text>
</a>
</g>
</g>
<!-- Node12&#45;&gt;Node16 -->
<g id="edge15" class="edge">
<title>Node12&#45;&gt;Node16</title>
<path fill="none" stroke="midnightblue" d="M964.21,-192.2C883.58,-188.91 752.35,-178.03 645,-143 600.11,-128.35 553,-98.89 527.09,-81.27"/>
<polygon fill="midnightblue" stroke="midnightblue" points="529.06,-78.37 518.84,-75.57 525.08,-84.13 529.06,-78.37"/>
</g>
<!-- Node17 -->
<g id="node17" class="node">
<title>Node17</title>
<g id="a_node17"><a xlink:title=" ">
<polygon fill="white" stroke="#bfbfbf" points="1304.5,-0.5 1304.5,-19.5 1413.5,-19.5 1413.5,-0.5 1304.5,-0.5"/>
<text text-anchor="middle" x="1359" y="-7.5" font-family="Helvetica,sans-Serif" font-size="10.00">AMReX_MultiFab.H</text>
</a>
</g>
</g>
<!-- Node12&#45;&gt;Node17 -->
<g id="edge47" class="edge">
<title>Node12&#45;&gt;Node17</title>
<path fill="none" stroke="midnightblue" d="M1017.38,-184.87C967.35,-163.75 851.37,-107.41 898,-56 924.09,-27.24 1173.16,-16.26 1293.95,-12.61"/>
<polygon fill="midnightblue" stroke="midnightblue" points="1294.28,-16.1 1304.17,-12.3 1294.07,-9.1 1294.28,-16.1"/>
</g>
<!-- Node12&#45;&gt;Node19 -->
<g id="edge19" class="edge">
<title>Node12&#45;&gt;Node19</title>
<path fill="none" stroke="midnightblue" d="M1113.85,-191.16C1333.18,-184.17 1971.98,-162.64 2180,-143 2192.4,-141.83 2205.62,-140.19 2218.24,-138.44"/>
<polygon fill="midnightblue" stroke="midnightblue" points="2218.81,-141.89 2228.22,-137.01 2217.82,-134.96 2218.81,-141.89"/>
</g>
<!-- Node26 -->
<g id="node26" class="node">
<title>Node26</title>
<g id="a_node26"><a xlink:href="_int_field_8_h.html" target="_top" xlink:title=" ">
<polygon fill="white" stroke="black" points="669.5,-118 669.5,-137 806.5,-137 806.5,-118 669.5,-118"/>
<text text-anchor="middle" x="738" y="-125" font-family="Helvetica,sans-Serif" font-size="10.00">amr&#45;wind/core/IntField.H</text>
</a>
</g>
</g>
<!-- Node12&#45;&gt;Node26 -->
<g id="edge34" class="edge">
<title>Node12&#45;&gt;Node26</title>
<path fill="none" stroke="midnightblue" d="M999.34,-184.94C944.86,-173.17 846.91,-152.02 787.63,-139.22"/>
<polygon fill="midnightblue" stroke="midnightblue" points="788.26,-135.77 777.75,-137.08 786.78,-142.62 788.26,-135.77"/>
</g>
<!-- Node27 -->
<g id="node27" class="node">
<title>Node27</title>
<g id="a_node27"><a xlink:title=" ">
<polygon fill="white" stroke="#bfbfbf" points="598,-56.5 598,-75.5 710,-75.5 710,-56.5 598,-56.5"/>
<text text-anchor="middle" x="654" y="-63.5" font-family="Helvetica,sans-Serif" font-size="10.00">AMReX_iMultiFab.H</text>
</a>
</g>
</g>
<!-- Node12&#45;&gt;Node27 -->
<g id="edge48" class="edge">
<title>Node12&#45;&gt;Node27</title>
<path fill="none" stroke="midnightblue" d="M964.13,-194.22C865.65,-193.44 700.35,-185.58 660,-143 645.74,-127.95 646.68,-102.85 649.57,-85.65"/>
<polygon fill="midnightblue" stroke="midnightblue" points="653.03,-86.16 651.6,-75.66 646.18,-84.76 653.03,-86.16"/>
</g>
<!-- Node28 -->
<g id="node28" class="node">
<title>Node28</title>
<g id="a_node28"><a xlink:href="_scratch_field_8_h.html" target="_top" xlink:title=" ">
<polygon fill="white" stroke="black" points="959,-118 959,-137 1119,-137 1119,-118 959,-118"/>
<text text-anchor="middle" x="1039" y="-125" font-family="Helvetica,sans-Serif" font-size="10.00">amr&#45;wind/core/ScratchField.H</text>
</a>
</g>
</g>
<!-- Node12&#45;&gt;Node28 -->
<g id="edge38" class="edge">
<title>Node12&#45;&gt;Node28</title>
<path fill="none" stroke="midnightblue" d="M1039,-184.73C1039,-175.18 1039,-159.62 1039,-147.28"/>
<polygon fill="midnightblue" stroke="midnightblue" points="1042.5,-147.13 1039,-137.13 1035.5,-147.13 1042.5,-147.13"/>
</g>
<!-- Node16&#45;&gt;Node15 -->
<g id="edge16" class="edge">
<title>Node16&#45;&gt;Node15</title>
<path fill="none" stroke="midnightblue" d="M555.65,-56.44C609.87,-46.9 697.55,-31.48 755.48,-21.29"/>
<polygon fill="midnightblue" stroke="midnightblue" points="756.34,-24.7 765.58,-19.52 755.13,-17.8 756.34,-24.7"/>
</g>
<!-- Node16&#45;&gt;Node17 -->
<g id="edge17" class="edge">
<title>Node16&#45;&gt;Node17</title>
<path fill="none" stroke="midnightblue" d="M580.3,-56.77C583.24,-56.5 586.15,-56.24 589,-56 849.81,-34.08 1161.22,-19.4 1293.93,-13.68"/>
<polygon fill="midnightblue" stroke="midnightblue" points="1294.48,-17.16 1304.32,-13.24 1294.18,-10.17 1294.48,-17.16"/>
</g>
<!-- Node18 -->
<g id="node18" class="node">
<title>Node18</title>
<g id="a_node18"><a xlink:title=" ">
<polygon fill="white" stroke="#bfbfbf" points="445,-0.5 445,-19.5 569,-19.5 569,-0.5 445,-0.5"/>
<text text-anchor="middle" x="507" y="-7.5" font-family="Helvetica,sans-Serif" font-size="10.00">AMReX_Interpolater.H</text>
</a>
</g>
</g>
<!-- Node16&#45;&gt;Node18 -->
<g id="edge18" class="edge">
<title>Node16&#45;&gt;Node18</title>
<path fill="none" stroke="midnightblue" d="M507,-56.08C507,-49.01 507,-38.86 507,-29.99"/>
<polygon fill="midnightblue" stroke="midnightblue" points="510.5,-29.75 507,-19.75 503.5,-29.75 510.5,-29.75"/>
</g>
<!-- Node19&#45;&gt;Node5 -->
<g id="edge26" class="edge">
<title>Node19&#45;&gt;Node5</title>
<path fill="none" stroke="midnightblue" d="M2319.54,-117.98C2368.83,-107.35 2453.09,-89.18 2506.59,-77.65"/>
<polygon fill="midnightblue" stroke="midnightblue" points="2507.49,-81.04 2516.53,-75.51 2506.02,-74.2 2507.49,-81.04"/>
</g>
<!-- Node19&#45;&gt;Node13 -->
<g id="edge20" class="edge">
<title>Node19&#45;&gt;Node13</title>
<path fill="none" stroke="midnightblue" d="M2297.52,-117.86C2322.66,-104.39 2363.79,-77.68 2343,-56 2311.41,-23.06 1595.8,-27.27 1489.26,-19.21"/>
<polygon fill="midnightblue" stroke="midnightblue" points="1489.52,-15.72 1479.2,-18.14 1488.78,-22.68 1489.52,-15.72"/>
</g>
<!-- Node19&#45;&gt;Node14 -->
<g id="edge22" class="edge">
<title>Node19&#45;&gt;Node14</title>
<path fill="none" stroke="midnightblue" d="M2226.13,-117.98C2155.68,-106.83 2032.8,-87.38 1960.89,-76"/>
<polygon fill="midnightblue" stroke="midnightblue" points="1961.08,-72.49 1950.66,-74.38 1959.99,-79.4 1961.08,-72.49"/>
</g>
<!-- Node19&#45;&gt;Node15 -->
<g id="edge28" class="edge">
<title>Node19&#45;&gt;Node15</title>
<path fill="none" stroke="midnightblue" d="M2282.07,-117.52C2284.98,-102.31 2288.17,-71.6 2271,-56 2258.4,-44.56 1237.74,-20.56 912.43,-13.2"/>
<polygon fill="midnightblue" stroke="midnightblue" points="912.16,-9.69 902.08,-12.96 912,-16.69 912.16,-9.69"/>
</g>
<!-- Node19&#45;&gt;Node17 -->
<g id="edge24" class="edge">
<title>Node19&#45;&gt;Node17</title>
<path fill="none" stroke="midnightblue" d="M2287.93,-117.95C2300.5,-103.38 2321.91,-73.61 2305,-56 2271.16,-20.74 1474.69,-24.26 1426,-20 1425.25,-19.93 1424.5,-19.87 1423.75,-19.8"/>
<polygon fill="midnightblue" stroke="midnightblue" points="1424.1,-16.32 1413.8,-18.78 1423.39,-23.28 1424.1,-16.32"/>
</g>
<!-- Node20 -->
<g id="node20" class="node">
<title>Node20</title>
<g id="a_node20"><a xlink:title=" ">
<polygon fill="white" stroke="#bfbfbf" points="2007,-56.5 2007,-75.5 2065,-75.5 2065,-56.5 2007,-56.5"/>
<text text-anchor="middle" x="2036" y="-63.5" font-family="Helvetica,sans-Serif" font-size="10.00">memory</text>
</a>
</g>
</g>
<!-- Node19&#45;&gt;Node20 -->
<g id="edge21" class="edge">
<title>Node19&#45;&gt;Node20</title>
<path fill="none" stroke="midnightblue" d="M2245.04,-117.98C2199.99,-106.99 2121.88,-87.94 2074.96,-76.5"/>
<polygon fill="midnightblue" stroke="midnightblue" points="2075.71,-73.08 2065.17,-74.11 2074.05,-79.88 2075.71,-73.08"/>
</g>
<!-- Node19&#45;&gt;Node21 -->
<g id="edge23" class="edge">
<title>Node19&#45;&gt;Node21</title>
<path fill="none" stroke="midnightblue" d="M2342.15,-118.03C2408.25,-108.77 2515.78,-92.97 2608,-76 2608.1,-75.98 2608.2,-75.96 2608.3,-75.94"/>
<polygon fill="midnightblue" stroke="midnightblue" points="2608.79,-79.42 2617.93,-74.07 2607.45,-72.54 2608.79,-79.42"/>
</g>
<!-- Node22 -->
<g id="node22" class="node">
<title>Node22</title>
<g id="a_node22"><a xlink:title=" ">
<polygon fill="white" stroke="#bfbfbf" points="2395.5,-56.5 2395.5,-75.5 2494.5,-75.5 2494.5,-56.5 2395.5,-56.5"/>
<text text-anchor="middle" x="2445" y="-63.5" font-family="Helvetica,sans-Serif" font-size="10.00">AMReX_BCRec.H</text>
</a>
</g>
</g>
<!-- Node19&#45;&gt;Node22 -->
<g id="edge25" class="edge">
<title>Node19&#45;&gt;Node22</title>
<path fill="none" stroke="midnightblue" d="M2303.64,-117.98C2331.94,-107.77 2379.53,-90.61 2411.59,-79.05"/>
<polygon fill="midnightblue" stroke="midnightblue" points="2413.18,-82.19 2421.4,-75.51 2410.81,-75.61 2413.18,-82.19"/>
</g>
<!-- Node23 -->
<g id="node23" class="node">
<title>Node23</title>
<g id="a_node23"><a xlink:href="incflo__enums_8_h.html" target="_top" xlink:title=" ">
<polygon fill="white" stroke="black" points="2121.5,-56.5 2121.5,-75.5 2262.5,-75.5 2262.5,-56.5 2121.5,-56.5"/>
<text text-anchor="middle" x="2192" y="-63.5" font-family="Helvetica,sans-Serif" font-size="10.00">amr&#45;wind/incflo_enums.H</text>
</a>
</g>
</g>
<!-- Node19&#45;&gt;Node23 -->
<g id="edge27" class="edge">
<title>Node19&#45;&gt;Node23</title>
<path fill="none" stroke="midnightblue" d="M2267.39,-117.98C2253.28,-108.43 2230.17,-92.81 2213.25,-81.37"/>
<polygon fill="midnightblue" stroke="midnightblue" points="2214.83,-78.21 2204.58,-75.51 2210.91,-84.01 2214.83,-78.21"/>
</g>
<!-- Node24 -->
<g id="node24" class="node">
<title>Node24</title>
<g id="a_node24"><a xlink:href="_view_field_8_h.html" target="_top" xlink:title=" ">
<polygon fill="white" stroke="black" points="1387,-56.5 1387,-75.5 1535,-75.5 1535,-56.5 1387,-56.5"/>
<text text-anchor="middle" x="1461" y="-63.5" font-family="Helvetica,sans-Serif" font-size="10.00">amr&#45;wind/core/ViewField.H</text>
</a>
</g>
</g>
<!-- Node19&#45;&gt;Node24 -->
<g id="edge29" class="edge">
<title>Node19&#45;&gt;Node24</title>
<path fill="none" stroke="midnightblue" d="M2227.17,-117.99C2211.97,-115.78 2195.36,-113.57 2180,-112 1915.13,-84.87 1847.66,-93.88 1582,-76 1570.18,-75.2 1557.71,-74.32 1545.45,-73.43"/>
<polygon fill="midnightblue" stroke="midnightblue" points="1545.45,-69.93 1535.22,-72.69 1544.94,-76.91 1545.45,-69.93"/>
</g>
<!-- Node24&#45;&gt;Node13 -->
<g id="edge30" class="edge">
<title>Node24&#45;&gt;Node13</title>
<path fill="none" stroke="midnightblue" d="M1460.34,-56.08C1459.82,-49.01 1459.06,-38.86 1458.41,-29.99"/>
<polygon fill="midnightblue" stroke="midnightblue" points="1461.88,-29.47 1457.65,-19.75 1454.9,-29.98 1461.88,-29.47"/>
</g>
<!-- Node24&#45;&gt;Node15 -->
<g id="edge31" class="edge">
<title>Node24&#45;&gt;Node15</title>
<path fill="none" stroke="midnightblue" d="M1386.78,-58.81C1269.76,-49.04 1042.3,-30.05 911.99,-19.18"/>
<polygon fill="midnightblue" stroke="midnightblue" points="912.26,-15.69 902.01,-18.35 911.68,-22.66 912.26,-15.69"/>
</g>
<!-- Node24&#45;&gt;Node17 -->
<g id="edge32" class="edge">
<title>Node24&#45;&gt;Node17</title>
<path fill="none" stroke="midnightblue" d="M1444.61,-56.32C1428.33,-47.7 1403.13,-34.36 1384.28,-24.39"/>
<polygon fill="midnightblue" stroke="midnightblue" points="1385.82,-21.24 1375.35,-19.65 1382.55,-27.43 1385.82,-21.24"/>
</g>
<!-- Node25 -->
<g id="node25" class="node">
<title>Node25</title>
<g id="a_node25"><a xlink:title=" ">
<polygon fill="white" stroke="#bfbfbf" points="1497,-0.5 1497,-19.5 1595,-19.5 1595,-0.5 1497,-0.5"/>
<text text-anchor="middle" x="1546" y="-7.5" font-family="Helvetica,sans-Serif" font-size="10.00">AMReX_Vector.H</text>
</a>
</g>
</g>
<!-- Node24&#45;&gt;Node25 -->
<g id="edge33" class="edge">
<title>Node24&#45;&gt;Node25</title>
<path fill="none" stroke="midnightblue" d="M1474.66,-56.32C1487.92,-47.9 1508.27,-34.97 1523.85,-25.07"/>
<polygon fill="midnightblue" stroke="midnightblue" points="1525.81,-27.97 1532.38,-19.65 1522.06,-22.06 1525.81,-27.97"/>
</g>
<!-- Node26&#45;&gt;Node13 -->
<g id="edge35" class="edge">
<title>Node26&#45;&gt;Node13</title>
<path fill="none" stroke="midnightblue" d="M753.93,-117.88C783.49,-102.36 849.29,-70.02 909,-56 1131.51,-3.77 1196.39,-56.61 1422,-20 1422.92,-19.85 1423.85,-19.69 1424.79,-19.51"/>
<polygon fill="midnightblue" stroke="midnightblue" points="1425.88,-22.86 1434.91,-17.33 1424.4,-16.02 1425.88,-22.86"/>
</g>
<!-- Node26&#45;&gt;Node15 -->
<g id="edge36" class="edge">
<title>Node26&#45;&gt;Node15</title>
<path fill="none" stroke="midnightblue" d="M739.47,-117.59C742.13,-103.52 748.71,-75.73 762,-56 769.92,-44.24 781.68,-33.71 792.02,-25.8"/>
<polygon fill="midnightblue" stroke="midnightblue" points="794.23,-28.51 800.25,-19.79 790.1,-22.86 794.23,-28.51"/>
</g>
<!-- Node26&#45;&gt;Node27 -->
<g id="edge37" class="edge">
<title>Node26&#45;&gt;Node27</title>
<path fill="none" stroke="midnightblue" d="M725.96,-117.98C712.49,-108.43 690.43,-92.81 674.28,-81.37"/>
<polygon fill="midnightblue" stroke="midnightblue" points="676.2,-78.43 666.01,-75.51 672.15,-84.15 676.2,-78.43"/>
</g>
<!-- Node28&#45;&gt;Node13 -->
<g id="edge39" class="edge">
<title>Node28&#45;&gt;Node13</title>
<path fill="none" stroke="midnightblue" d="M1052.68,-117.99C1080.23,-101 1141.72,-63.84 1165,-56 1274.31,-19.21 1308.86,-42.4 1422,-20 1422.92,-19.82 1423.84,-19.63 1424.78,-19.43"/>
<polygon fill="midnightblue" stroke="midnightblue" points="1425.92,-22.76 1434.87,-17.09 1424.34,-15.94 1425.92,-22.76"/>
</g>
<!-- Node28&#45;&gt;Node15 -->
<g id="edge41" class="edge">
<title>Node28&#45;&gt;Node15</title>
<path fill="none" stroke="midnightblue" d="M989.18,-117.93C955.4,-110.53 910.75,-97.53 876,-76 855.8,-63.48 837.68,-42.84 826.32,-28.18"/>
<polygon fill="midnightblue" stroke="midnightblue" points="828.96,-25.86 820.17,-19.95 823.35,-30.05 828.96,-25.86"/>
</g>
<!-- Node28&#45;&gt;Node17 -->
<g id="edge43" class="edge">
<title>Node28&#45;&gt;Node17</title>
<path fill="none" stroke="midnightblue" d="M990.19,-117.92C942.42,-107.5 880.66,-87.32 909,-56 934.34,-28 1175.75,-16.67 1294.16,-12.77"/>
<polygon fill="midnightblue" stroke="midnightblue" points="1294.3,-16.27 1304.19,-12.45 1294.08,-9.27 1294.3,-16.27"/>
</g>
<!-- Node28&#45;&gt;Node24 -->
<g id="edge42" class="edge">
<title>Node28&#45;&gt;Node24</title>
<path fill="none" stroke="midnightblue" d="M1099.46,-117.98C1176.39,-107.13 1309.04,-88.43 1390.49,-76.94"/>
<polygon fill="midnightblue" stroke="midnightblue" points="1391.24,-80.37 1400.65,-75.51 1390.26,-73.44 1391.24,-80.37"/>
</g>
<!-- Node28&#45;&gt;Node25 -->
<g id="edge44" class="edge">
<title>Node28&#45;&gt;Node25</title>
<path fill="none" stroke="midnightblue" d="M1063.76,-117.93C1106.3,-103.47 1196.2,-74.03 1274,-56 1294.32,-51.29 1413.06,-32.13 1486.78,-20.39"/>
<polygon fill="midnightblue" stroke="midnightblue" points="1487.55,-23.81 1496.87,-18.78 1486.45,-16.9 1487.55,-23.81"/>
</g>
<!-- Node29 -->
<g id="node29" class="node">
<title>Node29</title>
<g id="a_node29"><a xlink:title=" ">
<polygon fill="white" stroke="#bfbfbf" points="918.5,-56.5 918.5,-75.5 963.5,-75.5 963.5,-56.5 918.5,-56.5"/>
<text text-anchor="middle" x="941" y="-63.5" font-family="Helvetica,sans-Serif" font-size="10.00">utility</text>
</a>
</g>
</g>
<!-- Node28&#45;&gt;Node29 -->
<g id="edge40" class="edge">
<title>Node28&#45;&gt;Node29</title>
<path fill="none" stroke="midnightblue" d="M1024.96,-117.98C1008.95,-108.25 982.55,-92.23 963.63,-80.74"/>
<polygon fill="midnightblue" stroke="midnightblue" points="965.38,-77.71 955.01,-75.51 961.75,-83.69 965.38,-77.71"/>
</g>
<!-- Node30 -->
<g id="node30" class="node">
<title>Node30</title>
<g id="a_node30"><a xlink:title=" ">
<polygon fill="white" stroke="#bfbfbf" points="981.5,-56.5 981.5,-75.5 1112.5,-75.5 1112.5,-56.5 981.5,-56.5"/>
<text text-anchor="middle" x="1047" y="-63.5" font-family="Helvetica,sans-Serif" font-size="10.00">AMReX_PhysBCFunct.H</text>
</a>
</g>
</g>
<!-- Node28&#45;&gt;Node30 -->
<g id="edge45" class="edge">
<title>Node28&#45;&gt;Node30</title>
<path fill="none" stroke="midnightblue" d="M1040.15,-117.98C1041.27,-109.58 1043.04,-96.48 1044.49,-85.66"/>
<polygon fill="midnightblue" stroke="midnightblue" points="1047.99,-85.89 1045.86,-75.51 1041.05,-84.95 1047.99,-85.89"/>
</g>
<!-- Node31&#45;&gt;Node13 -->
<g id="edge50" class="edge">
<title>Node31&#45;&gt;Node13</title>
<path fill="none" stroke="midnightblue" d="M1579.94,-179.37C1579.1,-152.46 1573.75,-93.19 1544,-56 1536.27,-46.34 1509.23,-33.13 1487.33,-23.52"/>
<polygon fill="midnightblue" stroke="midnightblue" points="1488.59,-20.25 1478.02,-19.51 1485.82,-26.68 1488.59,-20.25"/>
</g>
<!-- Node31&#45;&gt;Node15 -->
<g id="edge64" class="edge">
<title>Node31&#45;&gt;Node15</title>
<path fill="none" stroke="midnightblue" d="M1502.31,-183.36C1461.42,-175.94 1411.32,-163.48 1370,-143 1350.47,-133.32 1351.41,-121.91 1332,-112 1245.58,-67.9 1216.04,-75.51 1121,-56 1046.4,-40.68 960.56,-28.56 898.65,-20.77"/>
<polygon fill="midnightblue" stroke="midnightblue" points="898.9,-17.28 888.54,-19.51 898.03,-24.22 898.9,-17.28"/>
</g>
<!-- Node31&#45;&gt;Node23 -->
<g id="edge65" class="edge">
<title>Node31&#45;&gt;Node23</title>
<path fill="none" stroke="midnightblue" d="M1657.77,-183.96C1671.5,-182.3 1685.67,-180.59 1699,-179 1836.29,-162.64 1880.32,-196.05 2008,-143 2028.45,-134.5 2027.42,-122.35 2047,-112 2076.39,-96.46 2112.02,-85.31 2140.6,-78"/>
<polygon fill="midnightblue" stroke="midnightblue" points="2141.53,-81.37 2150.4,-75.57 2139.85,-74.58 2141.53,-81.37"/>
</g>
<!-- Node32 -->
<g id="node32" class="node">
<title>Node32</title>
<g id="a_node32"><a xlink:href="_factory_8_h.html" target="_top" xlink:title=" ">
<polygon fill="white" stroke="black" points="1710,-118 1710,-137 1844,-137 1844,-118 1710,-118"/>
<text text-anchor="middle" x="1777" y="-125" font-family="Helvetica,sans-Serif" font-size="10.00">amr&#45;wind/core/Factory.H</text>
</a>
</g>
</g>
<!-- Node31&#45;&gt;Node32 -->
<g id="edge51" class="edge">
<title>Node31&#45;&gt;Node32</title>
<path fill="none" stroke="midnightblue" d="M1622.75,-179.4C1658.23,-167.69 1708.11,-151.23 1741.44,-140.23"/>
<polygon fill="midnightblue" stroke="midnightblue" points="1742.82,-143.46 1751.22,-137.01 1740.62,-136.82 1742.82,-143.46"/>
</g>
<!-- Node36 -->
<g id="node36" class="node">
<title>Node36</title>
<g id="a_node36"><a xlink:href="_coll_mgr_8_h.html" target="_top" xlink:title=" ">
<polygon fill="white" stroke="black" points="1862.5,-118 1862.5,-137 1999.5,-137 1999.5,-118 1862.5,-118"/>
<text text-anchor="middle" x="1931" y="-125" font-family="Helvetica,sans-Serif" font-size="10.00">amr&#45;wind/core/CollMgr.H</text>
</a>
</g>
</g>
<!-- Node31&#45;&gt;Node36 -->
<g id="edge57" class="edge">
<title>Node31&#45;&gt;Node36</title>
<path fill="none" stroke="midnightblue" d="M1655.91,-179.48C1710.69,-169.35 1786.41,-155.35 1853,-143 1860.17,-141.67 1867.71,-140.27 1875.16,-138.89"/>
<polygon fill="midnightblue" stroke="midnightblue" points="1876.03,-142.29 1885.22,-137.02 1874.75,-135.4 1876.03,-142.29"/>
</g>
<!-- Node37 -->
<g id="node37" class="node">
<title>Node37</title>
<g id="a_node37"><a xlink:href="_p_d_e_fields_8_h.html" target="_top" xlink:title=" ">
<polygon fill="white" stroke="black" points="1379.5,-112.5 1379.5,-142.5 1534.5,-142.5 1534.5,-112.5 1379.5,-112.5"/>
<text text-anchor="start" x="1387.5" y="-130.5" font-family="Helvetica,sans-Serif" font-size="10.00">amr&#45;wind/equation_systems</text>
<text text-anchor="middle" x="1457" y="-119.5" font-family="Helvetica,sans-Serif" font-size="10.00">/PDEFields.H</text>
</a>
</g>
</g>
<!-- Node31&#45;&gt;Node37 -->
<g id="edge62" class="edge">
<title>Node31&#45;&gt;Node37</title>
<path fill="none" stroke="midnightblue" d="M1553.31,-179.4C1535.5,-169.98 1511.88,-157.5 1492.49,-147.26"/>
<polygon fill="midnightblue" stroke="midnightblue" points="1494.11,-144.15 1483.64,-142.58 1490.84,-150.34 1494.11,-144.15"/>
</g>
<!-- Node32&#45;&gt;Node14 -->
<g id="edge53" class="edge">
<title>Node32&#45;&gt;Node14</title>
<path fill="none" stroke="midnightblue" d="M1795.2,-117.98C1816.51,-107.99 1852.03,-91.35 1876.66,-79.81"/>
<polygon fill="midnightblue" stroke="midnightblue" points="1878.27,-82.92 1885.84,-75.51 1875.3,-76.58 1878.27,-82.92"/>
</g>
<!-- Node32&#45;&gt;Node20 -->
<g id="edge52" class="edge">
<title>Node32&#45;&gt;Node20</title>
<path fill="none" stroke="midnightblue" d="M1814.11,-117.98C1862.69,-106.82 1947.46,-87.34 1996.97,-75.97"/>
<polygon fill="midnightblue" stroke="midnightblue" points="1998.01,-79.32 2006.97,-73.67 1996.44,-72.5 1998.01,-79.32"/>
</g>
<!-- Node33 -->
<g id="node33" class="node">
<title>Node33</title>
<g id="a_node33"><a xlink:title=" ">
<polygon fill="white" stroke="#bfbfbf" points="1671,-56.5 1671,-75.5 1731,-75.5 1731,-56.5 1671,-56.5"/>
<text text-anchor="middle" x="1701" y="-63.5" font-family="Helvetica,sans-Serif" font-size="10.00">iostream</text>
</a>
</g>
</g>
<!-- Node32&#45;&gt;Node33 -->
<g id="edge54" class="edge">
<title>Node32&#45;&gt;Node33</title>
<path fill="none" stroke="midnightblue" d="M1766.11,-117.98C1754.03,-108.52 1734.33,-93.1 1719.76,-81.69"/>
<polygon fill="midnightblue" stroke="midnightblue" points="1721.9,-78.92 1711.87,-75.51 1717.59,-84.43 1721.9,-78.92"/>
</g>
<!-- Node34 -->
<g id="node34" class="node">
<title>Node34</title>
<g id="a_node34"><a xlink:title=" ">
<polygon fill="white" stroke="#bfbfbf" points="1749,-56.5 1749,-75.5 1839,-75.5 1839,-56.5 1749,-56.5"/>
<text text-anchor="middle" x="1794" y="-63.5" font-family="Helvetica,sans-Serif" font-size="10.00">AMReX_Print.H</text>
</a>
</g>
</g>
<!-- Node32&#45;&gt;Node34 -->
<g id="edge55" class="edge">
<title>Node32&#45;&gt;Node34</title>
<path fill="none" stroke="midnightblue" d="M1779.44,-117.98C1781.86,-109.49 1785.66,-96.2 1788.77,-85.32"/>
<polygon fill="midnightblue" stroke="midnightblue" points="1792.19,-86.09 1791.57,-75.51 1785.46,-84.16 1792.19,-86.09"/>
</g>
<!-- Node35 -->
<g id="node35" class="node">
<title>Node35</title>
<g id="a_node35"><a xlink:title=" ">
<polygon fill="white" stroke="#bfbfbf" points="1591,-56.5 1591,-75.5 1653,-75.5 1653,-56.5 1591,-56.5"/>
<text text-anchor="middle" x="1622" y="-63.5" font-family="Helvetica,sans-Serif" font-size="10.00">AMReX.H</text>
</a>
</g>
</g>
<!-- Node32&#45;&gt;Node35 -->
<g id="edge56" class="edge">
<title>Node32&#45;&gt;Node35</title>
<path fill="none" stroke="midnightblue" d="M1754.79,-117.98C1728.32,-107.81 1683.89,-90.76 1653.78,-79.2"/>
<polygon fill="midnightblue" stroke="midnightblue" points="1654.76,-75.83 1644.17,-75.51 1652.25,-82.36 1654.76,-75.83"/>
</g>
<!-- Node36&#45;&gt;Node13 -->
<g id="edge58" class="edge">
<title>Node36&#45;&gt;Node13</title>
<path fill="none" stroke="midnightblue" d="M1939.87,-117.6C1953.32,-103.04 1975.65,-73.97 1959,-56 1924.93,-19.23 1573.41,-28.4 1489.26,-19.44"/>
<polygon fill="midnightblue" stroke="midnightblue" points="1489.61,-15.95 1479.22,-18.05 1488.64,-22.89 1489.61,-15.95"/>
</g>
<!-- Node36&#45;&gt;Node14 -->
<g id="edge60" class="edge">
<title>Node36&#45;&gt;Node14</title>
<path fill="none" stroke="midnightblue" d="M1927.13,-117.98C1923.2,-109.32 1917,-95.65 1912.01,-84.65"/>
<polygon fill="midnightblue" stroke="midnightblue" points="1915.18,-83.17 1907.86,-75.51 1908.81,-86.06 1915.18,-83.17"/>
</g>
<!-- Node36&#45;&gt;Node20 -->
<g id="edge59" class="edge">
<title>Node36&#45;&gt;Node20</title>
<path fill="none" stroke="midnightblue" d="M1946.04,-117.98C1963.28,-108.21 1991.74,-92.08 2012.03,-80.58"/>
<polygon fill="midnightblue" stroke="midnightblue" points="2014.01,-83.48 2020.98,-75.51 2010.56,-77.39 2014.01,-83.48"/>
</g>
<!-- Node36&#45;&gt;Node25 -->
<g id="edge61" class="edge">
<title>Node36&#45;&gt;Node25</title>
<path fill="none" stroke="midnightblue" d="M1970.41,-117.95C2008.36,-108.82 2061.76,-93.3 2074,-76 2079.13,-68.74 2080.01,-62.55 2074,-56 2042.83,-22.07 1737.13,-13.68 1605.64,-11.64"/>
<polygon fill="midnightblue" stroke="midnightblue" points="1605.39,-8.14 1595.34,-11.49 1605.29,-15.14 1605.39,-8.14"/>
</g>
<!-- Node38 -->
<g id="node38" class="node">
<title>Node38</title>
<g id="a_node38"><a xlink:title=" ">
<polygon fill="white" stroke="#bfbfbf" points="1283,-56.5 1283,-75.5 1331,-75.5 1331,-56.5 1283,-56.5"/>
<text text-anchor="middle" x="1307" y="-63.5" font-family="Helvetica,sans-Serif" font-size="10.00">iosfwd</text>
</a>
</g>
</g>
<!-- Node37&#45;&gt;Node38 -->
<g id="edge63" class="edge">
<title>Node37&#45;&gt;Node38</title>
<path fill="none" stroke="midnightblue" d="M1421.45,-112.4C1396.17,-102.37 1362.53,-89.03 1338.27,-79.4"/>
<polygon fill="midnightblue" stroke="midnightblue" points="1339.41,-76.09 1328.83,-75.66 1336.83,-82.6 1339.41,-76.09"/>
</g>
<!-- Node39&#45;&gt;Node17 -->
<g id="edge69" class="edge">
<title>Node39&#45;&gt;Node17</title>
<path fill="none" stroke="midnightblue" d="M1755.34,-184.97C1714.37,-169.06 1622.49,-134.43 1543,-112 1470.76,-91.62 1432.89,-127.2 1378,-76 1365.38,-64.23 1360.99,-44.59 1359.53,-29.98"/>
<polygon fill="midnightblue" stroke="midnightblue" points="1363,-29.34 1358.9,-19.58 1356.01,-29.77 1363,-29.34"/>
</g>
<!-- Node39&#45;&gt;Node32 -->
<g id="edge67" class="edge">
<title>Node39&#45;&gt;Node32</title>
<path fill="none" stroke="midnightblue" d="M1777,-184.73C1777,-175.18 1777,-159.62 1777,-147.28"/>
<polygon fill="midnightblue" stroke="midnightblue" points="1780.5,-147.13 1777,-137.13 1773.5,-147.13 1780.5,-147.13"/>
</g>
<!-- Node39&#45;&gt;Node36 -->
<g id="edge68" class="edge">
<title>Node39&#45;&gt;Node36</title>
<path fill="none" stroke="midnightblue" d="M1797.45,-184.87C1824.03,-173.65 1870.64,-153.98 1901.17,-141.09"/>
<polygon fill="midnightblue" stroke="midnightblue" points="1902.61,-144.28 1910.47,-137.17 1899.89,-137.83 1902.61,-144.28"/>
</g>
<!-- Node40 -->
<g id="node40" class="node">
<title>Node40</title>
<g id="a_node40"><a xlink:title=" ">
<polygon fill="white" stroke="#bfbfbf" points="2056.5,-118 2056.5,-137 2171.5,-137 2171.5,-118 2056.5,-118"/>
<text text-anchor="middle" x="2114" y="-125" font-family="Helvetica,sans-Serif" font-size="10.00">AMReX_Geometry.H</text>
</a>
</g>
</g>
<!-- Node39&#45;&gt;Node40 -->
<g id="edge70" class="edge">
<title>Node39&#45;&gt;Node40</title>
<path fill="none" stroke="midnightblue" d="M1822.51,-184.98C1875.33,-175.05 1965.02,-158.09 2042,-143 2048.56,-141.71 2055.45,-140.35 2062.26,-138.99"/>
<polygon fill="midnightblue" stroke="midnightblue" points="2063.02,-142.41 2072.13,-137.01 2061.64,-135.54 2063.02,-142.41"/>
</g>
<!-- Node41&#45;&gt;Node17 -->
<g id="edge75" class="edge">
<title>Node41&#45;&gt;Node17</title>
<path fill="none" stroke="midnightblue" d="M2100.14,-189.88C2290.53,-179.27 2775.89,-143.34 2691,-56 2642,-5.58 1496.08,-25.69 1426,-20 1425.25,-19.94 1424.5,-19.88 1423.75,-19.81"/>
<polygon fill="midnightblue" stroke="midnightblue" points="1424.09,-16.33 1413.8,-18.84 1423.41,-23.29 1424.09,-16.33"/>
</g>
<!-- Node41&#45;&gt;Node19 -->
<g id="edge74" class="edge">
<title>Node41&#45;&gt;Node19</title>
<path fill="none" stroke="midnightblue" d="M2059.47,-184.94C2104.96,-173.29 2186.4,-152.45 2236.56,-139.62"/>
<polygon fill="midnightblue" stroke="midnightblue" points="2237.64,-142.95 2246.46,-137.08 2235.9,-136.17 2237.64,-142.95"/>
</g>
<!-- Node41&#45;&gt;Node32 -->
<g id="edge73" class="edge">
<title>Node41&#45;&gt;Node32</title>
<path fill="none" stroke="midnightblue" d="M1993.19,-184.94C1948.59,-173.29 1868.76,-152.45 1819.59,-139.62"/>
<polygon fill="midnightblue" stroke="midnightblue" points="1820.44,-136.22 1809.88,-137.08 1818.67,-143 1820.44,-136.22"/>
</g>
<!-- Node41&#45;&gt;Node36 -->
<g id="edge72" class="edge">
<title>Node41&#45;&gt;Node36</title>
<path fill="none" stroke="midnightblue" d="M2013.19,-184.73C1997.52,-174.01 1970.78,-155.72 1952.07,-142.91"/>
<polygon fill="midnightblue" stroke="midnightblue" points="1953.84,-139.89 1943.61,-137.13 1949.89,-145.66 1953.84,-139.89"/>
</g>
<!-- Node41&#45;&gt;Node40 -->
<g id="edge76" class="edge">
<title>Node41&#45;&gt;Node40</title>
<path fill="none" stroke="midnightblue" d="M2037.87,-184.73C2052.25,-174.11 2076.7,-156.05 2094.01,-143.26"/>
<polygon fill="midnightblue" stroke="midnightblue" points="2096.36,-145.88 2102.32,-137.13 2092.2,-140.25 2096.36,-145.88"/>
</g>
</g>
</svg>
