<?xml version="1.0" encoding="UTF-8" standalone="no"?>
<!DOCTYPE svg PUBLIC "-//W3C//DTD SVG 1.1//EN"
 "http://www.w3.org/Graphics/SVG/1.1/DTD/svg11.dtd">
<!-- Generated by graphviz version 2.43.0 (0)
 -->
<!-- Title: FieldRepo.cpp Pages: 1 -->
<!--zoomable 252 -->
<svg id="main" version="1.1" xmlns="http://www.w3.org/2000/svg" xmlns:xlink="http://www.w3.org/1999/xlink" xml:space="preserve" onload="init(evt)">
<style type="text/css"><![CDATA[
.edge:hover path { stroke: red; }
.edge:hover polygon { stroke: red; fill: red; }
]]></style>
<script type="text/javascript"><![CDATA[
var edges = document.getElementsByTagName('g');
if (edges && edges.length) {
  for (var i=0;i<edges.length;i++) {
    if (edges[i].id.substr(0,4)=='edge') {
      edges[i].setAttribute('class','edge');
    }
  }
}
]]></script>
        <defs>
                <circle id="rim" cx="0" cy="0" r="7"/>
                <circle id="rim2" cx="0" cy="0" r="3.5"/>
                <g id="zoomPlus">
                        <use xlink:href="#rim" fill="#404040">
                                <set attributeName="fill" to="#808080" begin="zoomplus.mouseover" end="zoomplus.mouseout"/>
                        </use>
                        <path d="M-4,0h8M0,-4v8" fill="none" stroke="white" stroke-width="1.5" pointer-events="none"/>
                </g>
                <g id="zoomMin">
                        <use xlink:href="#rim" fill="#404040">
                                <set attributeName="fill" to="#808080" begin="zoomminus.mouseover" end="zoomminus.mouseout"/>
                        </use>
                        <path d="M-4,0h8" fill="none" stroke="white" stroke-width="1.5" pointer-events="none"/>
                </g>
                <g id="dirArrow">
                        <path fill="none" stroke="white" stroke-width="1.5" d="M0,-3.0v7 M-2.5,-0.5L0,-3.0L2.5,-0.5"/>
                </g>
               <g id="resetDef">
                       <use xlink:href="#rim2" fill="#404040">
                               <set attributeName="fill" to="#808080" begin="reset.mouseover" end="reset.mouseout"/>
                       </use>
               </g>
        </defs>

<script type="text/javascript">
var viewWidth = 1702;
var viewHeight = 252;
var sectionId = 'dynsection-0';
</script>
<script xlink:href="svgpan.js"/>
<svg id="graph" class="graph">
<g id="viewport">
<title>FieldRepo.cpp</title>
<polygon fill="white" stroke="transparent" points="-4,4 -4,-248 1698.07,-248 1698.07,4 -4,4"/>
<!-- Node1 -->
<g id="node1" class="node">
<title>Node1</title>
<g id="a_node1"><a xlink:title=" ">
<polygon fill="#bfbfbf" stroke="black" points="581.5,-224.5 581.5,-243.5 666.5,-243.5 666.5,-224.5 581.5,-224.5"/>
<text text-anchor="middle" x="624" y="-231.5" font-family="Helvetica,sans-Serif" font-size="10.00">FieldRepo.cpp</text>
</a>
</g>
</g>
<!-- Node2 -->
<g id="node2" class="node">
<title>Node2</title>
<g id="a_node2"><a xlink:title=" ">
<polygon fill="white" stroke="#bfbfbf" points="202,-56.5 202,-75.5 260,-75.5 260,-56.5 202,-56.5"/>
<text text-anchor="middle" x="231" y="-63.5" font-family="Helvetica,sans-Serif" font-size="10.00">memory</text>
</a>
</g>
</g>
<!-- Node1&#45;&gt;Node2 -->
<g id="edge1" class="edge">
<title>Node1&#45;&gt;Node2</title>
<path fill="none" stroke="midnightblue" d="M603.7,-224.42C539.02,-197.1 337.54,-112 260.95,-79.65"/>
<polygon fill="midnightblue" stroke="midnightblue" points="261.99,-76.29 251.42,-75.62 259.27,-82.74 261.99,-76.29"/>
</g>
<!-- Node3 -->
<g id="node3" class="node">
<title>Node3</title>
<g id="a_node3"><a xlink:href="_field_repo_8_h.html" target="_top" xlink:title=" ">
<polygon fill="white" stroke="black" points="865.5,-168.5 865.5,-187.5 1014.5,-187.5 1014.5,-168.5 865.5,-168.5"/>
<text text-anchor="middle" x="940" y="-175.5" font-family="Helvetica,sans-Serif" font-size="10.00">amr&#45;wind/core/FieldRepo.H</text>
</a>
</g>
</g>
<!-- Node1&#45;&gt;Node3 -->
<g id="edge2" class="edge">
<title>Node1&#45;&gt;Node3</title>
<path fill="none" stroke="midnightblue" d="M666.62,-225.72C721.59,-216.32 817.55,-199.93 879.91,-189.27"/>
<polygon fill="midnightblue" stroke="midnightblue" points="880.73,-192.68 890,-187.54 879.55,-185.78 880.73,-192.68"/>
</g>
<!-- Node4 -->
<g id="node4" class="node">
<title>Node4</title>
<g id="a_node4"><a xlink:title=" ">
<polygon fill="white" stroke="#bfbfbf" points="1404,-0.5 1404,-19.5 1448,-19.5 1448,-0.5 1404,-0.5"/>
<text text-anchor="middle" x="1426" y="-7.5" font-family="Helvetica,sans-Serif" font-size="10.00">string</text>
</a>
</g>
</g>
<!-- Node3&#45;&gt;Node4 -->
<g id="edge3" class="edge">
<title>Node3&#45;&gt;Node4</title>
<path fill="none" stroke="midnightblue" d="M1014.74,-174.95C1157.63,-170.48 1464.48,-158.12 1567,-132 1625.21,-117.17 1657.5,-126.51 1690,-76 1694.81,-68.52 1695.73,-62.79 1690,-56 1660.73,-21.32 1522.6,-13.36 1458.64,-11.54"/>
<polygon fill="midnightblue" stroke="midnightblue" points="1458.41,-8.03 1448.32,-11.28 1458.23,-15.03 1458.41,-8.03"/>
</g>
<!-- Node5 -->
<g id="node5" class="node">
<title>Node5</title>
<g id="a_node5"><a xlink:title=" ">
<polygon fill="white" stroke="#bfbfbf" points="278.5,-56.5 278.5,-75.5 371.5,-75.5 371.5,-56.5 278.5,-56.5"/>
<text text-anchor="middle" x="325" y="-63.5" font-family="Helvetica,sans-Serif" font-size="10.00">unordered_map</text>
</a>
</g>
</g>
<!-- Node3&#45;&gt;Node5 -->
<g id="edge4" class="edge">
<title>Node3&#45;&gt;Node5</title>
<path fill="none" stroke="midnightblue" d="M865.38,-169.31C796.26,-161.67 690.77,-148.69 600,-132 516.37,-116.62 419.92,-92.27 366.35,-78.15"/>
<polygon fill="midnightblue" stroke="midnightblue" points="367.1,-74.73 356.54,-75.55 365.31,-81.49 367.1,-74.73"/>
</g>
<!-- Node6 -->
<g id="node6" class="node">
<title>Node6</title>
<g id="a_node6"><a xlink:href="_field_desc_types_8_h.html" target="_top" xlink:title=" ">
<polygon fill="white" stroke="black" points="501,-0.5 501,-19.5 677,-19.5 677,-0.5 501,-0.5"/>
<text text-anchor="middle" x="589" y="-7.5" font-family="Helvetica,sans-Serif" font-size="10.00">amr&#45;wind/core/FieldDescTypes.H</text>
</a>
</g>
</g>
<!-- Node3&#45;&gt;Node6 -->
<g id="edge5" class="edge">
<title>Node3&#45;&gt;Node6</title>
<path fill="none" stroke="midnightblue" d="M865.36,-172.53C684.75,-160.93 235.82,-127.19 193,-76 153.18,-28.39 360.61,-15.57 490.42,-12.17"/>
<polygon fill="midnightblue" stroke="midnightblue" points="490.87,-15.66 500.79,-11.91 490.7,-8.66 490.87,-15.66"/>
</g>
<!-- Node7 -->
<g id="node7" class="node">
<title>Node7</title>
<g id="a_node7"><a xlink:href="_field_utils_8_h.html" target="_top" xlink:title=" ">
<polygon fill="white" stroke="black" points="0,-56.5 0,-75.5 146,-75.5 146,-56.5 0,-56.5"/>
<text text-anchor="middle" x="73" y="-63.5" font-family="Helvetica,sans-Serif" font-size="10.00">amr&#45;wind/core/FieldUtils.H</text>
</a>
</g>
</g>
<!-- Node3&#45;&gt;Node7 -->
<g id="edge6" class="edge">
<title>Node3&#45;&gt;Node7</title>
<path fill="none" stroke="midnightblue" d="M865.24,-175.14C682.83,-170.24 225.07,-155.73 160,-132 131.64,-121.66 104.73,-98.83 88.54,-83.18"/>
<polygon fill="midnightblue" stroke="midnightblue" points="90.65,-80.34 81.11,-75.75 85.71,-85.29 90.65,-80.34"/>
</g>
<!-- Node8 -->
<g id="node8" class="node">
<title>Node8</title>
<g id="a_node8"><a xlink:title=" ">
<polygon fill="white" stroke="#bfbfbf" points="885.5,-0.5 885.5,-19.5 994.5,-19.5 994.5,-0.5 885.5,-0.5"/>
<text text-anchor="middle" x="940" y="-7.5" font-family="Helvetica,sans-Serif" font-size="10.00">AMReX_MultiFab.H</text>
</a>
</g>
</g>
<!-- Node3&#45;&gt;Node8 -->
<g id="edge38" class="edge">
<title>Node3&#45;&gt;Node8</title>
<path fill="none" stroke="midnightblue" d="M940,-168.08C940,-141.95 940,-65.21 940,-29.58"/>
<polygon fill="midnightblue" stroke="midnightblue" points="943.5,-29.57 940,-19.57 936.5,-29.57 943.5,-29.57"/>
</g>
<!-- Node10 -->
<g id="node10" class="node">
<title>Node10</title>
<g id="a_node10"><a xlink:href="_field_8_h.html" target="_top" xlink:title=" ">
<polygon fill="white" stroke="black" points="609,-112.5 609,-131.5 733,-131.5 733,-112.5 609,-112.5"/>
<text text-anchor="middle" x="671" y="-119.5" font-family="Helvetica,sans-Serif" font-size="10.00">amr&#45;wind/core/Field.H</text>
</a>
</g>
</g>
<!-- Node3&#45;&gt;Node10 -->
<g id="edge10" class="edge">
<title>Node3&#45;&gt;Node10</title>
<path fill="none" stroke="midnightblue" d="M897.38,-168.44C850.25,-158.98 774.31,-143.74 723.54,-133.55"/>
<polygon fill="midnightblue" stroke="midnightblue" points="723.92,-130.05 713.42,-131.52 722.54,-136.92 723.92,-130.05"/>
</g>
<!-- Node17 -->
<g id="node17" class="node">
<title>Node17</title>
<g id="a_node17"><a xlink:href="_int_field_8_h.html" target="_top" xlink:title=" ">
<polygon fill="white" stroke="black" points="1031.5,-112.5 1031.5,-131.5 1168.5,-131.5 1168.5,-112.5 1031.5,-112.5"/>
<text text-anchor="middle" x="1100" y="-119.5" font-family="Helvetica,sans-Serif" font-size="10.00">amr&#45;wind/core/IntField.H</text>
</a>
</g>
</g>
<!-- Node3&#45;&gt;Node17 -->
<g id="edge25" class="edge">
<title>Node3&#45;&gt;Node17</title>
<path fill="none" stroke="midnightblue" d="M965.35,-168.44C992.27,-159.36 1035,-144.94 1065.09,-134.78"/>
<polygon fill="midnightblue" stroke="midnightblue" points="1066.41,-138.03 1074.77,-131.52 1064.17,-131.4 1066.41,-138.03"/>
</g>
<!-- Node18 -->
<g id="node18" class="node">
<title>Node18</title>
<g id="a_node18"><a xlink:title=" ">
<polygon fill="white" stroke="#bfbfbf" points="968,-56.5 968,-75.5 1080,-75.5 1080,-56.5 968,-56.5"/>
<text text-anchor="middle" x="1024" y="-63.5" font-family="Helvetica,sans-Serif" font-size="10.00">AMReX_iMultiFab.H</text>
</a>
</g>
</g>
<!-- Node3&#45;&gt;Node18 -->
<g id="edge39" class="edge">
<title>Node3&#45;&gt;Node18</title>
<path fill="none" stroke="midnightblue" d="M946.59,-168.37C960.52,-150.14 993.13,-107.43 1011.27,-83.68"/>
<polygon fill="midnightblue" stroke="midnightblue" points="1014.15,-85.66 1017.44,-75.59 1008.59,-81.41 1014.15,-85.66"/>
</g>
<!-- Node19 -->
<g id="node19" class="node">
<title>Node19</title>
<g id="a_node19"><a xlink:href="_scratch_field_8_h.html" target="_top" xlink:title=" ">
<polygon fill="white" stroke="black" points="1270,-112.5 1270,-131.5 1430,-131.5 1430,-112.5 1270,-112.5"/>
<text text-anchor="middle" x="1350" y="-119.5" font-family="Helvetica,sans-Serif" font-size="10.00">amr&#45;wind/core/ScratchField.H</text>
</a>
</g>
</g>
<!-- Node3&#45;&gt;Node19 -->
<g id="edge29" class="edge">
<title>Node3&#45;&gt;Node19</title>
<path fill="none" stroke="midnightblue" d="M1004.97,-168.44C1078.44,-158.77 1197.88,-143.04 1275.19,-132.85"/>
<polygon fill="midnightblue" stroke="midnightblue" points="1275.88,-136.29 1285.34,-131.52 1274.97,-129.35 1275.88,-136.29"/>
</g>
<!-- Node22 -->
<g id="node22" class="node">
<title>Node22</title>
<g id="a_node22"><a xlink:title=" ">
<polygon fill="white" stroke="#bfbfbf" points="1448,-112.5 1448,-131.5 1558,-131.5 1558,-112.5 1448,-112.5"/>
<text text-anchor="middle" x="1503" y="-119.5" font-family="Helvetica,sans-Serif" font-size="10.00">AMReX_AmrCore.H</text>
</a>
</g>
</g>
<!-- Node3&#45;&gt;Node22 -->
<g id="edge37" class="edge">
<title>Node3&#45;&gt;Node22</title>
<path fill="none" stroke="midnightblue" d="M1014.51,-171.44C1110.06,-164.06 1281.1,-149.96 1437.58,-132.11"/>
<polygon fill="midnightblue" stroke="midnightblue" points="1438.33,-135.55 1447.86,-130.93 1437.53,-128.59 1438.33,-135.55"/>
</g>
<!-- Node7&#45;&gt;Node6 -->
<g id="edge7" class="edge">
<title>Node7&#45;&gt;Node6</title>
<path fill="none" stroke="midnightblue" d="M146.11,-57.35C238.44,-47.69 397.32,-31.06 497.58,-20.57"/>
<polygon fill="midnightblue" stroke="midnightblue" points="498.12,-24.03 507.7,-19.51 497.39,-17.07 498.12,-24.03"/>
</g>
<!-- Node7&#45;&gt;Node8 -->
<g id="edge8" class="edge">
<title>Node7&#45;&gt;Node8</title>
<path fill="none" stroke="midnightblue" d="M146.28,-59.33C161.71,-58.19 177.89,-57.02 193,-56 445.1,-38.95 745.29,-21.84 875,-14.59"/>
<polygon fill="midnightblue" stroke="midnightblue" points="875.37,-18.08 885.16,-14.03 874.98,-11.09 875.37,-18.08"/>
</g>
<!-- Node9 -->
<g id="node9" class="node">
<title>Node9</title>
<g id="a_node9"><a xlink:title=" ">
<polygon fill="white" stroke="#bfbfbf" points="11,-0.5 11,-19.5 135,-19.5 135,-0.5 11,-0.5"/>
<text text-anchor="middle" x="73" y="-7.5" font-family="Helvetica,sans-Serif" font-size="10.00">AMReX_Interpolater.H</text>
</a>
</g>
</g>
<!-- Node7&#45;&gt;Node9 -->
<g id="edge9" class="edge">
<title>Node7&#45;&gt;Node9</title>
<path fill="none" stroke="midnightblue" d="M73,-56.08C73,-49.01 73,-38.86 73,-29.99"/>
<polygon fill="midnightblue" stroke="midnightblue" points="76.5,-29.75 73,-19.75 69.5,-29.75 76.5,-29.75"/>
</g>
<!-- Node10&#45;&gt;Node2 -->
<g id="edge12" class="edge">
<title>Node10&#45;&gt;Node2</title>
<path fill="none" stroke="midnightblue" d="M608.69,-116.38C531.48,-110.13 395.75,-97.43 270.53,-76.08"/>
<polygon fill="midnightblue" stroke="midnightblue" points="270.84,-72.58 260.39,-74.33 269.64,-79.48 270.84,-72.58"/>
</g>
<!-- Node10&#45;&gt;Node4 -->
<g id="edge11" class="edge">
<title>Node10&#45;&gt;Node4</title>
<path fill="none" stroke="midnightblue" d="M733.09,-118.63C886.57,-112.5 1275.46,-95.28 1331,-76 1361.5,-65.41 1391.34,-42.3 1409.21,-26.69"/>
<polygon fill="midnightblue" stroke="midnightblue" points="1411.87,-29 1416.97,-19.71 1407.19,-23.8 1411.87,-29"/>
</g>
<!-- Node10&#45;&gt;Node5 -->
<g id="edge13" class="edge">
<title>Node10&#45;&gt;Node5</title>
<path fill="none" stroke="midnightblue" d="M616.18,-112.44C552.05,-102.44 446.45,-85.95 381.58,-75.83"/>
<polygon fill="midnightblue" stroke="midnightblue" points="381.95,-72.35 371.53,-74.26 380.87,-79.26 381.95,-72.35"/>
</g>
<!-- Node10&#45;&gt;Node6 -->
<g id="edge19" class="edge">
<title>Node10&#45;&gt;Node6</title>
<path fill="none" stroke="midnightblue" d="M608.84,-118.75C542.21,-114.87 442.75,-104.37 419,-76 391.94,-43.68 439.25,-27.39 490.76,-19.21"/>
<polygon fill="midnightblue" stroke="midnightblue" points="491.38,-22.65 500.75,-17.72 490.35,-15.73 491.38,-22.65"/>
</g>
<!-- Node10&#45;&gt;Node8 -->
<g id="edge15" class="edge">
<title>Node10&#45;&gt;Node8</title>
<path fill="none" stroke="midnightblue" d="M733.31,-117.93C777.38,-113.4 836.49,-102.43 882,-76 902.14,-64.3 919.05,-43.15 929.31,-28.15"/>
<polygon fill="midnightblue" stroke="midnightblue" points="932.26,-30.04 934.82,-19.75 926.41,-26.2 932.26,-30.04"/>
</g>
<!-- Node11 -->
<g id="node11" class="node">
<title>Node11</title>
<g id="a_node11"><a xlink:title=" ">
<polygon fill="white" stroke="#bfbfbf" points="428,-56.5 428,-75.5 492,-75.5 492,-56.5 428,-56.5"/>
<text text-anchor="middle" x="460" y="-63.5" font-family="Helvetica,sans-Serif" font-size="10.00">algorithm</text>
</a>
</g>
</g>
<!-- Node10&#45;&gt;Node11 -->
<g id="edge14" class="edge">
<title>Node10&#45;&gt;Node11</title>
<path fill="none" stroke="midnightblue" d="M637.57,-112.44C600.9,-103.06 541.99,-87.98 502.17,-77.79"/>
<polygon fill="midnightblue" stroke="midnightblue" points="502.79,-74.34 492.24,-75.25 501.06,-81.12 502.79,-74.34"/>
</g>
<!-- Node12 -->
<g id="node12" class="node">
<title>Node12</title>
<g id="a_node12"><a xlink:title=" ">
<polygon fill="white" stroke="#bfbfbf" points="510.5,-56.5 510.5,-75.5 609.5,-75.5 609.5,-56.5 510.5,-56.5"/>
<text text-anchor="middle" x="560" y="-63.5" font-family="Helvetica,sans-Serif" font-size="10.00">AMReX_BCRec.H</text>
</a>
</g>
</g>
<!-- Node10&#45;&gt;Node12 -->
<g id="edge16" class="edge">
<title>Node10&#45;&gt;Node12</title>
<path fill="none" stroke="midnightblue" d="M653.17,-112.32C635.28,-103.62 607.52,-90.12 586.95,-80.11"/>
<polygon fill="midnightblue" stroke="midnightblue" points="588.31,-76.88 577.79,-75.65 585.25,-83.18 588.31,-76.88"/>
</g>
<!-- Node13 -->
<g id="node13" class="node">
<title>Node13</title>
<g id="a_node13"><a xlink:title=" ">
<polygon fill="white" stroke="#bfbfbf" points="627.5,-56.5 627.5,-75.5 714.5,-75.5 714.5,-56.5 627.5,-56.5"/>
<text text-anchor="middle" x="671" y="-63.5" font-family="Helvetica,sans-Serif" font-size="10.00">AMReX_Gpu.H</text>
</a>
</g>
</g>
<!-- Node10&#45;&gt;Node13 -->
<g id="edge17" class="edge">
<title>Node10&#45;&gt;Node13</title>
<path fill="none" stroke="midnightblue" d="M671,-112.08C671,-105.01 671,-94.86 671,-85.99"/>
<polygon fill="midnightblue" stroke="midnightblue" points="674.5,-85.75 671,-75.75 667.5,-85.75 674.5,-85.75"/>
</g>
<!-- Node14 -->
<g id="node14" class="node">
<title>Node14</title>
<g id="a_node14"><a xlink:href="incflo__enums_8_h.html" target="_top" xlink:title=" ">
<polygon fill="white" stroke="black" points="732.5,-56.5 732.5,-75.5 873.5,-75.5 873.5,-56.5 732.5,-56.5"/>
<text text-anchor="middle" x="803" y="-63.5" font-family="Helvetica,sans-Serif" font-size="10.00">amr&#45;wind/incflo_enums.H</text>
</a>
</g>
</g>
<!-- Node10&#45;&gt;Node14 -->
<g id="edge18" class="edge">
<title>Node10&#45;&gt;Node14</title>
<path fill="none" stroke="midnightblue" d="M691.92,-112.44C713.74,-103.52 748.15,-89.44 772.89,-79.32"/>
<polygon fill="midnightblue" stroke="midnightblue" points="774.25,-82.54 782.18,-75.52 771.6,-76.06 774.25,-82.54"/>
</g>
<!-- Node15 -->
<g id="node15" class="node">
<title>Node15</title>
<g id="a_node15"><a xlink:href="_view_field_8_h.html" target="_top" xlink:title=" ">
<polygon fill="white" stroke="black" points="1174,-56.5 1174,-75.5 1322,-75.5 1322,-56.5 1174,-56.5"/>
<text text-anchor="middle" x="1248" y="-63.5" font-family="Helvetica,sans-Serif" font-size="10.00">amr&#45;wind/core/ViewField.H</text>
</a>
</g>
</g>
<!-- Node10&#45;&gt;Node15 -->
<g id="edge20" class="edge">
<title>Node10&#45;&gt;Node15</title>
<path fill="none" stroke="midnightblue" d="M733.02,-115.2C836.96,-105.47 1046.42,-85.87 1163.65,-74.89"/>
<polygon fill="midnightblue" stroke="midnightblue" points="1164.03,-78.37 1173.66,-73.96 1163.37,-71.4 1164.03,-78.37"/>
</g>
<!-- Node15&#45;&gt;Node4 -->
<g id="edge21" class="edge">
<title>Node15&#45;&gt;Node4</title>
<path fill="none" stroke="midnightblue" d="M1276.2,-56.44C1308.28,-46.71 1360.52,-30.86 1394.07,-20.69"/>
<polygon fill="midnightblue" stroke="midnightblue" points="1395.28,-23.98 1403.83,-17.73 1393.25,-17.28 1395.28,-23.98"/>
</g>
<!-- Node15&#45;&gt;Node6 -->
<g id="edge22" class="edge">
<title>Node15&#45;&gt;Node6</title>
<path fill="none" stroke="midnightblue" d="M1173.59,-57.27C1169,-56.83 1164.44,-56.4 1160,-56 994.17,-40.99 800.98,-26.36 687.18,-18.04"/>
<polygon fill="midnightblue" stroke="midnightblue" points="687.32,-14.54 677.09,-17.3 686.81,-21.52 687.32,-14.54"/>
</g>
<!-- Node15&#45;&gt;Node8 -->
<g id="edge23" class="edge">
<title>Node15&#45;&gt;Node8</title>
<path fill="none" stroke="midnightblue" d="M1199.2,-56.44C1144.79,-46.9 1056.83,-31.48 998.71,-21.29"/>
<polygon fill="midnightblue" stroke="midnightblue" points="999.03,-17.8 988.58,-19.52 997.82,-24.69 999.03,-17.8"/>
</g>
<!-- Node16 -->
<g id="node16" class="node">
<title>Node16</title>
<g id="a_node16"><a xlink:title=" ">
<polygon fill="white" stroke="#bfbfbf" points="1243,-0.5 1243,-19.5 1341,-19.5 1341,-0.5 1243,-0.5"/>
<text text-anchor="middle" x="1292" y="-7.5" font-family="Helvetica,sans-Serif" font-size="10.00">AMReX_Vector.H</text>
</a>
</g>
</g>
<!-- Node15&#45;&gt;Node16 -->
<g id="edge24" class="edge">
<title>Node15&#45;&gt;Node16</title>
<path fill="none" stroke="midnightblue" d="M1255.27,-56.08C1261.54,-48.38 1270.79,-37.03 1278.43,-27.65"/>
<polygon fill="midnightblue" stroke="midnightblue" points="1281.27,-29.71 1284.87,-19.75 1275.84,-25.29 1281.27,-29.71"/>
</g>
<!-- Node17&#45;&gt;Node4 -->
<g id="edge26" class="edge">
<title>Node17&#45;&gt;Node4</title>
<path fill="none" stroke="midnightblue" d="M1168.54,-118.75C1246.4,-114.85 1367.19,-104.29 1402,-76 1415.84,-64.75 1421.7,-44.74 1424.18,-29.88"/>
<polygon fill="midnightblue" stroke="midnightblue" points="1427.68,-30.12 1425.49,-19.76 1420.73,-29.22 1427.68,-30.12"/>
</g>
<!-- Node17&#45;&gt;Node6 -->
<g id="edge27" class="edge">
<title>Node17&#45;&gt;Node6</title>
<path fill="none" stroke="midnightblue" d="M1101.49,-112.32C1103.35,-98.22 1104.63,-70.46 1089,-56 1060.19,-29.35 824.4,-17.92 687.16,-13.49"/>
<polygon fill="midnightblue" stroke="midnightblue" points="687.15,-9.99 677.04,-13.17 686.93,-16.99 687.15,-9.99"/>
</g>
<!-- Node17&#45;&gt;Node18 -->
<g id="edge28" class="edge">
<title>Node17&#45;&gt;Node18</title>
<path fill="none" stroke="midnightblue" d="M1087.79,-112.32C1076.22,-104.11 1058.62,-91.6 1044.84,-81.81"/>
<polygon fill="midnightblue" stroke="midnightblue" points="1046.61,-78.77 1036.43,-75.83 1042.56,-84.48 1046.61,-78.77"/>
</g>
<!-- Node19&#45;&gt;Node4 -->
<g id="edge30" class="edge">
<title>Node19&#45;&gt;Node4</title>
<path fill="none" stroke="midnightblue" d="M1430.39,-112.48C1523.73,-102.21 1666.02,-85.17 1674,-76 1679.84,-69.3 1679.7,-62.82 1674,-56 1646.88,-23.52 1519.21,-14.43 1458.38,-11.93"/>
<polygon fill="midnightblue" stroke="midnightblue" points="1458.31,-8.42 1448.18,-11.55 1458.05,-15.42 1458.31,-8.42"/>
</g>
<!-- Node19&#45;&gt;Node6 -->
<g id="edge32" class="edge">
<title>Node19&#45;&gt;Node6</title>
<path fill="none" stroke="midnightblue" d="M1309.62,-112.45C1271.92,-104.17 1214.24,-90.74 1165,-76 1139.68,-68.42 1134.82,-61.63 1109,-56 964.63,-24.52 793.19,-14.89 687.75,-12.04"/>
<polygon fill="midnightblue" stroke="midnightblue" points="687.52,-8.53 677.43,-11.78 687.34,-15.53 687.52,-8.53"/>
</g>
<!-- Node19&#45;&gt;Node8 -->
<g id="edge34" class="edge">
<title>Node19&#45;&gt;Node8</title>
<path fill="none" stroke="midnightblue" d="M1350.27,-112.24C1350.17,-98.02 1347.72,-70.1 1331,-56 1283.07,-15.59 1102.95,-9.99 1004.78,-10.06"/>
<polygon fill="midnightblue" stroke="midnightblue" points="1004.66,-6.56 994.67,-10.09 1004.68,-13.56 1004.66,-6.56"/>
</g>
<!-- Node19&#45;&gt;Node15 -->
<g id="edge33" class="edge">
<title>Node19&#45;&gt;Node15</title>
<path fill="none" stroke="midnightblue" d="M1333.61,-112.32C1317.33,-103.7 1292.13,-90.36 1273.28,-80.39"/>
<polygon fill="midnightblue" stroke="midnightblue" points="1274.82,-77.24 1264.35,-75.65 1271.55,-83.43 1274.82,-77.24"/>
</g>
<!-- Node19&#45;&gt;Node16 -->
<g id="edge35" class="edge">
<title>Node19&#45;&gt;Node16</title>
<path fill="none" stroke="midnightblue" d="M1425.27,-112.48C1513.98,-102.08 1650.4,-84.79 1658,-76 1663.81,-69.28 1663.89,-62.66 1658,-56 1647.95,-44.64 1452.25,-25.44 1351.24,-16.23"/>
<polygon fill="midnightblue" stroke="midnightblue" points="1351.45,-12.74 1341.18,-15.32 1350.82,-19.71 1351.45,-12.74"/>
</g>
<!-- Node20 -->
<g id="node20" class="node">
<title>Node20</title>
<g id="a_node20"><a xlink:title=" ">
<polygon fill="white" stroke="#bfbfbf" points="1454.5,-56.5 1454.5,-75.5 1499.5,-75.5 1499.5,-56.5 1454.5,-56.5"/>
<text text-anchor="middle" x="1477" y="-63.5" font-family="Helvetica,sans-Serif" font-size="10.00">utility</text>
</a>
</g>
</g>
<!-- Node19&#45;&gt;Node20 -->
<g id="edge31" class="edge">
<title>Node19&#45;&gt;Node20</title>
<path fill="none" stroke="midnightblue" d="M1370.12,-112.44C1391.02,-103.56 1423.93,-89.56 1447.72,-79.45"/>
<polygon fill="midnightblue" stroke="midnightblue" points="1449.14,-82.65 1456.97,-75.52 1446.4,-76.21 1449.14,-82.65"/>
</g>
<!-- Node21 -->
<g id="node21" class="node">
<title>Node21</title>
<g id="a_node21"><a xlink:title=" ">
<polygon fill="white" stroke="#bfbfbf" points="1517.5,-56.5 1517.5,-75.5 1648.5,-75.5 1648.5,-56.5 1517.5,-56.5"/>
<text text-anchor="middle" x="1583" y="-63.5" font-family="Helvetica,sans-Serif" font-size="10.00">AMReX_PhysBCFunct.H</text>
</a>
</g>
</g>
<!-- Node19&#45;&gt;Node21 -->
<g id="edge36" class="edge">
<title>Node19&#45;&gt;Node21</title>
<path fill="none" stroke="midnightblue" d="M1386.92,-112.44C1427.4,-103.06 1492.42,-87.99 1536.38,-77.8"/>
<polygon fill="midnightblue" stroke="midnightblue" points="1537.3,-81.18 1546.25,-75.52 1535.72,-74.36 1537.3,-81.18"/>
</g>
</g>
</svg>
        <g id="navigator" transform="translate(0 0)" fill="#404254">
                <rect fill="#f2f5e9" fill-opacity="0.5" stroke="#606060" stroke-width=".5" x="0" y="0" width="60" height="60"/>
                <use id="zoomplus" xlink:href="#zoomPlus" x="17" y="9" onmousedown="handleZoom(evt,'in')"/>
                <use id="zoomminus" xlink:href="#zoomMin" x="42" y="9" onmousedown="handleZoom(evt,'out')"/>
                <use id="reset" xlink:href="#resetDef" x="30" y="36" onmousedown="handleReset()"/>
                <g id="arrowUp" xlink:href="#dirArrow" transform="translate(30 24)" onmousedown="handlePan(0,-1)">
                  <use xlink:href="#rim" fill="#404040">
                        <set attributeName="fill" to="#808080" begin="arrowUp.mouseover" end="arrowUp.mouseout"/>
                  </use>
                  <path fill="none" stroke="white" stroke-width="1.5" d="M0,-3.0v7 M-2.5,-0.5L0,-3.0L2.5,-0.5"/>
                </g>
                <g id="arrowRight" xlink:href="#dirArrow" transform="rotate(90) translate(36 -43)" onmousedown="handlePan(1,0)">
                  <use xlink:href="#rim" fill="#404040">
                        <set attributeName="fill" to="#808080" begin="arrowRight.mouseover" end="arrowRight.mouseout"/>
                  </use>
                  <path fill="none" stroke="white" stroke-width="1.5" d="M0,-3.0v7 M-2.5,-0.5L0,-3.0L2.5,-0.5"/>
                </g>
                <g id="arrowDown" xlink:href="#dirArrow" transform="rotate(180) translate(-30 -48)" onmousedown="handlePan(0,1)">
                  <use xlink:href="#rim" fill="#404040">
                        <set attributeName="fill" to="#808080" begin="arrowDown.mouseover" end="arrowDown.mouseout"/>
                  </use>
                  <path fill="none" stroke="white" stroke-width="1.5" d="M0,-3.0v7 M-2.5,-0.5L0,-3.0L2.5,-0.5"/>
                </g>
                <g id="arrowLeft" xlink:href="#dirArrow" transform="rotate(270) translate(-36 17)" onmousedown="handlePan(-1,0)">
                  <use xlink:href="#rim" fill="#404040">
                        <set attributeName="fill" to="#808080" begin="arrowLeft.mouseover" end="arrowLeft.mouseout"/>
                  </use>
                  <path fill="none" stroke="white" stroke-width="1.5" d="M0,-3.0v7 M-2.5,-0.5L0,-3.0L2.5,-0.5"/>
                </g>
        </g>
        <svg viewBox="0 0 15 15" width="100%" height="30px" preserveAspectRatio="xMaxYMin meet">
         <g id="arrow_out" transform="scale(0.3 0.3)">
          <a xlink:href="_field_repo_8cpp__incl_org.svg" target="_base">
           <rect id="button" ry="5" rx="5" y="6" x="6" height="38" width="38"
                fill="#f2f5e9" fill-opacity="0.5" stroke="#606060" stroke-width="1.0"/>
           <path id="arrow"
             d="M 11.500037,31.436501 C 11.940474,20.09759 22.043105,11.32322 32.158766,21.979434 L 37.068811,17.246167 C 37.068811,17.246167 37.088388,32 37.088388,32 L 22.160133,31.978069 C 22.160133,31.978069 26.997745,27.140456 26.997745,27.140456 C 18.528582,18.264221 13.291696,25.230495 11.500037,31.436501 z"
             style="fill:#404040;"/>
          </a>
         </g>
        </svg>
</svg>
