<?xml version="1.0" encoding="UTF-8" standalone="no"?>
<!DOCTYPE svg PUBLIC "-//W3C//DTD SVG 1.1//EN"
 "http://www.w3.org/Graphics/SVG/1.1/DTD/svg11.dtd">
<!-- Generated by graphviz version 2.43.0 (0)
 -->
<!-- Title: FieldRepo.H Pages: 1 -->
<!--zoomable 196 -->
<svg id="main" version="1.1" xmlns="http://www.w3.org/2000/svg" xmlns:xlink="http://www.w3.org/1999/xlink" xml:space="preserve" onload="init(evt)">
<style type="text/css"><![CDATA[
.edge:hover path { stroke: red; }
.edge:hover polygon { stroke: red; fill: red; }
]]></style>
<script type="text/javascript"><![CDATA[
var edges = document.getElementsByTagName('g');
if (edges && edges.length) {
  for (var i=0;i<edges.length;i++) {
    if (edges[i].id.substr(0,4)=='edge') {
      edges[i].setAttribute('class','edge');
    }
  }
}
]]></script>
        <defs>
                <circle id="rim" cx="0" cy="0" r="7"/>
                <circle id="rim2" cx="0" cy="0" r="3.5"/>
                <g id="zoomPlus">
                        <use xlink:href="#rim" fill="#404040">
                                <set attributeName="fill" to="#808080" begin="zoomplus.mouseover" end="zoomplus.mouseout"/>
                        </use>
                        <path d="M-4,0h8M0,-4v8" fill="none" stroke="white" stroke-width="1.5" pointer-events="none"/>
                </g>
                <g id="zoomMin">
                        <use xlink:href="#rim" fill="#404040">
                                <set attributeName="fill" to="#808080" begin="zoomminus.mouseover" end="zoomminus.mouseout"/>
                        </use>
                        <path d="M-4,0h8" fill="none" stroke="white" stroke-width="1.5" pointer-events="none"/>
                </g>
                <g id="dirArrow">
                        <path fill="none" stroke="white" stroke-width="1.5" d="M0,-3.0v7 M-2.5,-0.5L0,-3.0L2.5,-0.5"/>
                </g>
               <g id="resetDef">
                       <use xlink:href="#rim2" fill="#404040">
                               <set attributeName="fill" to="#808080" begin="reset.mouseover" end="reset.mouseout"/>
                       </use>
               </g>
        </defs>

<script type="text/javascript">
var viewWidth = 1876;
var viewHeight = 196;
var sectionId = 'dynsection-0';
</script>
<script xlink:href="svgpan.js"/>
<svg id="graph" class="graph">
<g id="viewport">
<title>FieldRepo.H</title>
<polygon fill="white" stroke="transparent" points="-4,4 -4,-192 1872.45,-192 1872.45,4 -4,4"/>
<!-- Node1 -->
<g id="node1" class="node">
<title>Node1</title>
<g id="a_node1"><a xlink:title=" ">
<polygon fill="#bfbfbf" stroke="black" points="913.95,-168.5 913.95,-187.5 988.95,-187.5 988.95,-168.5 913.95,-168.5"/>
<text text-anchor="middle" x="951.45" y="-175.5" font-family="Helvetica,sans-Serif" font-size="10.00">FieldRepo.H</text>
</a>
</g>
</g>
<!-- Node2 -->
<g id="node2" class="node">
<title>Node2</title>
<g id="a_node2"><a xlink:title=" ">
<polygon fill="white" stroke="#bfbfbf" points="1418.45,-0.5 1418.45,-19.5 1462.45,-19.5 1462.45,-0.5 1418.45,-0.5"/>
<text text-anchor="middle" x="1440.45" y="-7.5" font-family="Helvetica,sans-Serif" font-size="10.00">string</text>
</a>
</g>
</g>
<!-- Node1&#45;&gt;Node2 -->
<g id="edge1" class="edge">
<title>Node1&#45;&gt;Node2</title>
<path fill="none" stroke="midnightblue" d="M989.08,-174.98C1136.05,-166.7 1665.45,-133.06 1711.45,-76 1717.03,-69.08 1717.2,-62.78 1711.45,-56 1681.14,-20.24 1537.61,-12.87 1472.59,-11.37"/>
<polygon fill="midnightblue" stroke="midnightblue" points="1472.57,-7.87 1462.5,-11.17 1472.43,-14.87 1472.57,-7.87"/>
</g>
<!-- Node3 -->
<g id="node3" class="node">
<title>Node3</title>
<g id="a_node3"><a xlink:title=" ">
<polygon fill="white" stroke="#bfbfbf" points="177.95,-56.5 177.95,-75.5 270.95,-75.5 270.95,-56.5 177.95,-56.5"/>
<text text-anchor="middle" x="224.45" y="-63.5" font-family="Helvetica,sans-Serif" font-size="10.00">unordered_map</text>
</a>
</g>
</g>
<!-- Node1&#45;&gt;Node3 -->
<g id="edge2" class="edge">
<title>Node1&#45;&gt;Node3</title>
<path fill="none" stroke="midnightblue" d="M913.64,-172.1C852.7,-164.14 729.01,-147.69 624.45,-132 501.93,-113.62 358.7,-89.77 281.22,-76.67"/>
<polygon fill="midnightblue" stroke="midnightblue" points="281.64,-73.19 271.19,-74.97 280.47,-80.09 281.64,-73.19"/>
</g>
<!-- Node4 -->
<g id="node4" class="node">
<title>Node4</title>
<g id="a_node4"><a xlink:href="_field_desc_types_8_h.html" target="_top" xlink:title=" ">
<polygon fill="white" stroke="black" points="439.45,-0.5 439.45,-19.5 615.45,-19.5 615.45,-0.5 439.45,-0.5"/>
<text text-anchor="middle" x="527.45" y="-7.5" font-family="Helvetica,sans-Serif" font-size="10.00">amr&#45;wind/core/FieldDescTypes.H</text>
</a>
</g>
</g>
<!-- Node1&#45;&gt;Node4 -->
<g id="edge3" class="edge">
<title>Node1&#45;&gt;Node4</title>
<path fill="none" stroke="midnightblue" d="M913.86,-175.97C745.29,-170.95 64.64,-146.43 4.45,-76 -1.33,-69.24 -1.56,-62.55 4.45,-56 32.52,-25.41 285.69,-15.57 429.23,-12.43"/>
<polygon fill="midnightblue" stroke="midnightblue" points="429.45,-15.93 439.37,-12.22 429.3,-8.93 429.45,-15.93"/>
</g>
<!-- Node5 -->
<g id="node5" class="node">
<title>Node5</title>
<g id="a_node5"><a xlink:href="_field_utils_8_h.html" target="_top" xlink:title=" ">
<polygon fill="white" stroke="black" points="13.45,-56.5 13.45,-75.5 159.45,-75.5 159.45,-56.5 13.45,-56.5"/>
<text text-anchor="middle" x="86.45" y="-63.5" font-family="Helvetica,sans-Serif" font-size="10.00">amr&#45;wind/core/FieldUtils.H</text>
</a>
</g>
</g>
<!-- Node1&#45;&gt;Node5 -->
<g id="edge4" class="edge">
<title>Node1&#45;&gt;Node5</title>
<path fill="none" stroke="midnightblue" d="M913.86,-173.99C836.27,-167.6 652.76,-151.68 499.45,-132 372.59,-115.72 224.69,-91.05 144.83,-77.26"/>
<polygon fill="midnightblue" stroke="midnightblue" points="145.41,-73.81 134.96,-75.55 144.21,-80.71 145.41,-73.81"/>
</g>
<!-- Node6 -->
<g id="node6" class="node">
<title>Node6</title>
<g id="a_node6"><a xlink:title=" ">
<polygon fill="white" stroke="#bfbfbf" points="861.95,-0.5 861.95,-19.5 970.95,-19.5 970.95,-0.5 861.95,-0.5"/>
<text text-anchor="middle" x="916.45" y="-7.5" font-family="Helvetica,sans-Serif" font-size="10.00">AMReX_MultiFab.H</text>
</a>
</g>
</g>
<!-- Node1&#45;&gt;Node6 -->
<g id="edge36" class="edge">
<title>Node1&#45;&gt;Node6</title>
<path fill="none" stroke="midnightblue" d="M949.57,-168.08C944.06,-141.95 927.88,-65.21 920.37,-29.58"/>
<polygon fill="midnightblue" stroke="midnightblue" points="923.74,-28.63 918.26,-19.57 916.89,-30.08 923.74,-28.63"/>
</g>
<!-- Node8 -->
<g id="node8" class="node">
<title>Node8</title>
<g id="a_node8"><a xlink:href="_field_8_h.html" target="_top" xlink:title=" ">
<polygon fill="white" stroke="black" points="633.45,-112.5 633.45,-131.5 757.45,-131.5 757.45,-112.5 633.45,-112.5"/>
<text text-anchor="middle" x="695.45" y="-119.5" font-family="Helvetica,sans-Serif" font-size="10.00">amr&#45;wind/core/Field.H</text>
</a>
</g>
</g>
<!-- Node1&#45;&gt;Node8 -->
<g id="edge8" class="edge">
<title>Node1&#45;&gt;Node8</title>
<path fill="none" stroke="midnightblue" d="M913.68,-169.03C869.17,-159.65 795.07,-144.01 745.74,-133.61"/>
<polygon fill="midnightblue" stroke="midnightblue" points="746.42,-130.18 735.92,-131.54 744.98,-137.02 746.42,-130.18"/>
</g>
<!-- Node16 -->
<g id="node16" class="node">
<title>Node16</title>
<g id="a_node16"><a xlink:href="_int_field_8_h.html" target="_top" xlink:title=" ">
<polygon fill="white" stroke="black" points="1007.95,-112.5 1007.95,-131.5 1144.95,-131.5 1144.95,-112.5 1007.95,-112.5"/>
<text text-anchor="middle" x="1076.45" y="-119.5" font-family="Helvetica,sans-Serif" font-size="10.00">amr&#45;wind/core/IntField.H</text>
</a>
</g>
</g>
<!-- Node1&#45;&gt;Node16 -->
<g id="edge23" class="edge">
<title>Node1&#45;&gt;Node16</title>
<path fill="none" stroke="midnightblue" d="M971.26,-168.44C991.74,-159.6 1023.93,-145.69 1047.31,-135.59"/>
<polygon fill="midnightblue" stroke="midnightblue" points="1048.94,-138.7 1056.73,-131.52 1046.17,-132.27 1048.94,-138.7"/>
</g>
<!-- Node17 -->
<g id="node17" class="node">
<title>Node17</title>
<g id="a_node17"><a xlink:title=" ">
<polygon fill="white" stroke="#bfbfbf" points="944.45,-56.5 944.45,-75.5 1056.45,-75.5 1056.45,-56.5 944.45,-56.5"/>
<text text-anchor="middle" x="1000.45" y="-63.5" font-family="Helvetica,sans-Serif" font-size="10.00">AMReX_iMultiFab.H</text>
</a>
</g>
</g>
<!-- Node1&#45;&gt;Node17 -->
<g id="edge37" class="edge">
<title>Node1&#45;&gt;Node17</title>
<path fill="none" stroke="midnightblue" d="M955.29,-168.37C963.27,-150.46 981.77,-108.92 992.45,-84.95"/>
<polygon fill="midnightblue" stroke="midnightblue" points="995.75,-86.15 996.62,-75.59 989.36,-83.3 995.75,-86.15"/>
</g>
<!-- Node18 -->
<g id="node18" class="node">
<title>Node18</title>
<g id="a_node18"><a xlink:href="_scratch_field_8_h.html" target="_top" xlink:title=" ">
<polygon fill="white" stroke="black" points="1284.45,-112.5 1284.45,-131.5 1444.45,-131.5 1444.45,-112.5 1284.45,-112.5"/>
<text text-anchor="middle" x="1364.45" y="-119.5" font-family="Helvetica,sans-Serif" font-size="10.00">amr&#45;wind/core/ScratchField.H</text>
</a>
</g>
</g>
<!-- Node1&#45;&gt;Node18 -->
<g id="edge27" class="edge">
<title>Node1&#45;&gt;Node18</title>
<path fill="none" stroke="midnightblue" d="M989.19,-172.06C1057.07,-163.19 1200.89,-144.39 1289.45,-132.81"/>
<polygon fill="midnightblue" stroke="midnightblue" points="1289.97,-136.27 1299.44,-131.5 1289.07,-129.33 1289.97,-136.27"/>
</g>
<!-- Node21 -->
<g id="node21" class="node">
<title>Node21</title>
<g id="a_node21"><a xlink:title=" ">
<polygon fill="white" stroke="#bfbfbf" points="1758.45,-112.5 1758.45,-131.5 1868.45,-131.5 1868.45,-112.5 1758.45,-112.5"/>
<text text-anchor="middle" x="1813.45" y="-119.5" font-family="Helvetica,sans-Serif" font-size="10.00">AMReX_AmrCore.H</text>
</a>
</g>
</g>
<!-- Node1&#45;&gt;Node21 -->
<g id="edge35" class="edge">
<title>Node1&#45;&gt;Node21</title>
<path fill="none" stroke="midnightblue" d="M989.08,-175.84C1103.06,-172.12 1454.41,-159.11 1744.45,-132 1745.56,-131.9 1746.68,-131.79 1747.81,-131.68"/>
<polygon fill="midnightblue" stroke="midnightblue" points="1748.55,-135.12 1758.13,-130.58 1747.81,-128.16 1748.55,-135.12"/>
</g>
<!-- Node5&#45;&gt;Node4 -->
<g id="edge5" class="edge">
<title>Node5&#45;&gt;Node4</title>
<path fill="none" stroke="midnightblue" d="M156.33,-56.44C235.6,-46.74 364.62,-30.94 447.74,-20.76"/>
<polygon fill="midnightblue" stroke="midnightblue" points="448.4,-24.21 457.9,-19.52 447.55,-17.26 448.4,-24.21"/>
</g>
<!-- Node5&#45;&gt;Node6 -->
<g id="edge6" class="edge">
<title>Node5&#45;&gt;Node6</title>
<path fill="none" stroke="midnightblue" d="M159.75,-56.77C162.69,-56.5 165.59,-56.24 168.45,-56 420.87,-34.57 722.07,-19.7 851.79,-13.82"/>
<polygon fill="midnightblue" stroke="midnightblue" points="852.12,-17.31 861.95,-13.36 851.8,-10.31 852.12,-17.31"/>
</g>
<!-- Node7 -->
<g id="node7" class="node">
<title>Node7</title>
<g id="a_node7"><a xlink:title=" ">
<polygon fill="white" stroke="#bfbfbf" points="24.45,-0.5 24.45,-19.5 148.45,-19.5 148.45,-0.5 24.45,-0.5"/>
<text text-anchor="middle" x="86.45" y="-7.5" font-family="Helvetica,sans-Serif" font-size="10.00">AMReX_Interpolater.H</text>
</a>
</g>
</g>
<!-- Node5&#45;&gt;Node7 -->
<g id="edge7" class="edge">
<title>Node5&#45;&gt;Node7</title>
<path fill="none" stroke="midnightblue" d="M86.45,-56.08C86.45,-49.01 86.45,-38.86 86.45,-29.99"/>
<polygon fill="midnightblue" stroke="midnightblue" points="89.95,-29.75 86.45,-19.75 82.95,-29.75 89.95,-29.75"/>
</g>
<!-- Node8&#45;&gt;Node2 -->
<g id="edge9" class="edge">
<title>Node8&#45;&gt;Node2</title>
<path fill="none" stroke="midnightblue" d="M757.49,-119.42C891.68,-115.52 1205.05,-103.68 1307.45,-76 1348.99,-64.77 1393.09,-40.43 1418.62,-24.92"/>
<polygon fill="midnightblue" stroke="midnightblue" points="1420.49,-27.89 1427.15,-19.65 1416.81,-21.93 1420.49,-27.89"/>
</g>
<!-- Node8&#45;&gt;Node3 -->
<g id="edge11" class="edge">
<title>Node8&#45;&gt;Node3</title>
<path fill="none" stroke="midnightblue" d="M633.2,-114.89C552.78,-106.84 408.5,-91.82 285.45,-76 283.99,-75.81 282.51,-75.62 281.02,-75.42"/>
<polygon fill="midnightblue" stroke="midnightblue" points="281.43,-71.94 271.05,-74.06 280.48,-78.88 281.43,-71.94"/>
</g>
<!-- Node8&#45;&gt;Node4 -->
<g id="edge17" class="edge">
<title>Node8&#45;&gt;Node4</title>
<path fill="none" stroke="midnightblue" d="M633.32,-118.02C531.66,-112.51 338.96,-99.11 318.45,-76 280.82,-33.61 358,-18.55 428.97,-13.37"/>
<polygon fill="midnightblue" stroke="midnightblue" points="429.64,-16.83 439.38,-12.67 429.17,-9.84 429.64,-16.83"/>
</g>
<!-- Node8&#45;&gt;Node6 -->
<g id="edge13" class="edge">
<title>Node8&#45;&gt;Node6</title>
<path fill="none" stroke="midnightblue" d="M757.67,-112.45C789.58,-106 828.02,-94.9 858.45,-76 878.05,-63.82 894.89,-43.07 905.3,-28.29"/>
<polygon fill="midnightblue" stroke="midnightblue" points="908.48,-29.84 911.17,-19.59 902.67,-25.92 908.48,-29.84"/>
</g>
<!-- Node9 -->
<g id="node9" class="node">
<title>Node9</title>
<g id="a_node9"><a xlink:title=" ">
<polygon fill="white" stroke="#bfbfbf" points="487.45,-56.5 487.45,-75.5 545.45,-75.5 545.45,-56.5 487.45,-56.5"/>
<text text-anchor="middle" x="516.45" y="-63.5" font-family="Helvetica,sans-Serif" font-size="10.00">memory</text>
</a>
</g>
</g>
<!-- Node8&#45;&gt;Node9 -->
<g id="edge10" class="edge">
<title>Node8&#45;&gt;Node9</title>
<path fill="none" stroke="midnightblue" d="M667.09,-112.44C636.71,-103.28 588.34,-88.69 554.63,-78.52"/>
<polygon fill="midnightblue" stroke="midnightblue" points="555.26,-75.05 544.68,-75.52 553.24,-81.76 555.26,-75.05"/>
</g>
<!-- Node10 -->
<g id="node10" class="node">
<title>Node10</title>
<g id="a_node10"><a xlink:title=" ">
<polygon fill="white" stroke="#bfbfbf" points="563.45,-56.5 563.45,-75.5 627.45,-75.5 627.45,-56.5 563.45,-56.5"/>
<text text-anchor="middle" x="595.45" y="-63.5" font-family="Helvetica,sans-Serif" font-size="10.00">algorithm</text>
</a>
</g>
</g>
<!-- Node8&#45;&gt;Node10 -->
<g id="edge12" class="edge">
<title>Node8&#45;&gt;Node10</title>
<path fill="none" stroke="midnightblue" d="M679.38,-112.32C663.49,-103.74 638.94,-90.49 620.49,-80.52"/>
<polygon fill="midnightblue" stroke="midnightblue" points="621.94,-77.33 611.48,-75.65 618.61,-83.49 621.94,-77.33"/>
</g>
<!-- Node11 -->
<g id="node11" class="node">
<title>Node11</title>
<g id="a_node11"><a xlink:title=" ">
<polygon fill="white" stroke="#bfbfbf" points="645.95,-56.5 645.95,-75.5 744.95,-75.5 744.95,-56.5 645.95,-56.5"/>
<text text-anchor="middle" x="695.45" y="-63.5" font-family="Helvetica,sans-Serif" font-size="10.00">AMReX_BCRec.H</text>
</a>
</g>
</g>
<!-- Node8&#45;&gt;Node11 -->
<g id="edge14" class="edge">
<title>Node8&#45;&gt;Node11</title>
<path fill="none" stroke="midnightblue" d="M695.45,-112.08C695.45,-105.01 695.45,-94.86 695.45,-85.99"/>
<polygon fill="midnightblue" stroke="midnightblue" points="698.95,-85.75 695.45,-75.75 691.95,-85.75 698.95,-85.75"/>
</g>
<!-- Node12 -->
<g id="node12" class="node">
<title>Node12</title>
<g id="a_node12"><a xlink:title=" ">
<polygon fill="white" stroke="#bfbfbf" points="762.95,-56.5 762.95,-75.5 849.95,-75.5 849.95,-56.5 762.95,-56.5"/>
<text text-anchor="middle" x="806.45" y="-63.5" font-family="Helvetica,sans-Serif" font-size="10.00">AMReX_Gpu.H</text>
</a>
</g>
</g>
<!-- Node8&#45;&gt;Node12 -->
<g id="edge15" class="edge">
<title>Node8&#45;&gt;Node12</title>
<path fill="none" stroke="midnightblue" d="M713.28,-112.32C731.16,-103.62 758.92,-90.12 779.49,-80.11"/>
<polygon fill="midnightblue" stroke="midnightblue" points="781.2,-83.18 788.66,-75.65 778.14,-76.88 781.2,-83.18"/>
</g>
<!-- Node13 -->
<g id="node13" class="node">
<title>Node13</title>
<g id="a_node13"><a xlink:href="incflo__enums_8_h.html" target="_top" xlink:title=" ">
<polygon fill="white" stroke="black" points="327.95,-56.5 327.95,-75.5 468.95,-75.5 468.95,-56.5 327.95,-56.5"/>
<text text-anchor="middle" x="398.45" y="-63.5" font-family="Helvetica,sans-Serif" font-size="10.00">amr&#45;wind/incflo_enums.H</text>
</a>
</g>
</g>
<!-- Node8&#45;&gt;Node13 -->
<g id="edge16" class="edge">
<title>Node8&#45;&gt;Node13</title>
<path fill="none" stroke="midnightblue" d="M648.39,-112.44C596.03,-102.92 511.46,-87.55 455.41,-77.36"/>
<polygon fill="midnightblue" stroke="midnightblue" points="455.75,-73.86 445.29,-75.52 454.5,-80.75 455.75,-73.86"/>
</g>
<!-- Node14 -->
<g id="node14" class="node">
<title>Node14</title>
<g id="a_node14"><a xlink:href="_view_field_8_h.html" target="_top" xlink:title=" ">
<polygon fill="white" stroke="black" points="1150.45,-56.5 1150.45,-75.5 1298.45,-75.5 1298.45,-56.5 1150.45,-56.5"/>
<text text-anchor="middle" x="1224.45" y="-63.5" font-family="Helvetica,sans-Serif" font-size="10.00">amr&#45;wind/core/ViewField.H</text>
</a>
</g>
</g>
<!-- Node8&#45;&gt;Node14 -->
<g id="edge18" class="edge">
<title>Node8&#45;&gt;Node14</title>
<path fill="none" stroke="midnightblue" d="M757.69,-114.65C852.54,-104.96 1033.47,-86.49 1140.07,-75.61"/>
<polygon fill="midnightblue" stroke="midnightblue" points="1140.55,-79.08 1150.15,-74.58 1139.84,-72.12 1140.55,-79.08"/>
</g>
<!-- Node14&#45;&gt;Node2 -->
<g id="edge19" class="edge">
<title>Node14&#45;&gt;Node2</title>
<path fill="none" stroke="midnightblue" d="M1258.67,-56.44C1299.82,-46.16 1368.33,-29.03 1408.46,-19"/>
<polygon fill="midnightblue" stroke="midnightblue" points="1409.4,-22.37 1418.25,-16.55 1407.7,-15.58 1409.4,-22.37"/>
</g>
<!-- Node14&#45;&gt;Node4 -->
<g id="edge20" class="edge">
<title>Node14&#45;&gt;Node4</title>
<path fill="none" stroke="midnightblue" d="M1150.05,-57.24C1145.45,-56.81 1140.89,-56.39 1136.45,-56 956.48,-40.15 746.26,-25.46 625.81,-17.41"/>
<polygon fill="midnightblue" stroke="midnightblue" points="625.72,-13.9 615.5,-16.73 625.25,-20.88 625.72,-13.9"/>
</g>
<!-- Node14&#45;&gt;Node6 -->
<g id="edge21" class="edge">
<title>Node14&#45;&gt;Node6</title>
<path fill="none" stroke="midnightblue" d="M1175.65,-56.44C1121.24,-46.9 1033.28,-31.48 975.16,-21.29"/>
<polygon fill="midnightblue" stroke="midnightblue" points="975.48,-17.8 965.02,-19.52 974.27,-24.69 975.48,-17.8"/>
</g>
<!-- Node15 -->
<g id="node15" class="node">
<title>Node15</title>
<g id="a_node15"><a xlink:title=" ">
<polygon fill="white" stroke="#bfbfbf" points="1238.45,-0.5 1238.45,-19.5 1336.45,-19.5 1336.45,-0.5 1238.45,-0.5"/>
<text text-anchor="middle" x="1287.45" y="-7.5" font-family="Helvetica,sans-Serif" font-size="10.00">AMReX_Vector.H</text>
</a>
</g>
</g>
<!-- Node14&#45;&gt;Node15 -->
<g id="edge22" class="edge">
<title>Node14&#45;&gt;Node15</title>
<path fill="none" stroke="midnightblue" d="M1234.57,-56.32C1243.98,-48.26 1258.19,-36.08 1269.52,-26.37"/>
<polygon fill="midnightblue" stroke="midnightblue" points="1271.83,-29 1277.14,-19.83 1267.27,-23.68 1271.83,-29"/>
</g>
<!-- Node16&#45;&gt;Node2 -->
<g id="edge24" class="edge">
<title>Node16&#45;&gt;Node2</title>
<path fill="none" stroke="midnightblue" d="M1144.96,-115.97C1221.21,-109.47 1338.92,-96.5 1378.45,-76 1399.77,-64.94 1417.88,-43.66 1428.92,-28.46"/>
<polygon fill="midnightblue" stroke="midnightblue" points="1432.02,-30.14 1434.85,-19.93 1426.27,-26.14 1432.02,-30.14"/>
</g>
<!-- Node16&#45;&gt;Node4 -->
<g id="edge25" class="edge">
<title>Node16&#45;&gt;Node4</title>
<path fill="none" stroke="midnightblue" d="M1077.95,-112.31C1079.83,-98.19 1081.12,-70.41 1065.45,-56 1033.88,-26.98 772.57,-16.46 626.08,-12.81"/>
<polygon fill="midnightblue" stroke="midnightblue" points="625.82,-9.31 615.73,-12.56 625.65,-16.3 625.82,-9.31"/>
</g>
<!-- Node16&#45;&gt;Node17 -->
<g id="edge26" class="edge">
<title>Node16&#45;&gt;Node17</title>
<path fill="none" stroke="midnightblue" d="M1064.24,-112.32C1052.67,-104.11 1035.07,-91.6 1021.29,-81.81"/>
<polygon fill="midnightblue" stroke="midnightblue" points="1023.06,-78.77 1012.88,-75.83 1019.01,-84.48 1023.06,-78.77"/>
</g>
<!-- Node18&#45;&gt;Node2 -->
<g id="edge28" class="edge">
<title>Node18&#45;&gt;Node2</title>
<path fill="none" stroke="midnightblue" d="M1444.68,-117.09C1507.87,-112.12 1588.65,-100.96 1609.45,-76 1648.36,-29.29 1532.04,-16.06 1472.81,-12.38"/>
<polygon fill="midnightblue" stroke="midnightblue" points="1472.99,-8.89 1462.81,-11.82 1472.6,-15.87 1472.99,-8.89"/>
</g>
<!-- Node18&#45;&gt;Node4 -->
<g id="edge30" class="edge">
<title>Node18&#45;&gt;Node4</title>
<path fill="none" stroke="midnightblue" d="M1311.22,-112.48C1265.72,-104.67 1198.72,-91.92 1141.45,-76 1115.99,-68.92 1111.29,-61.55 1085.45,-56 926.96,-21.93 738.13,-13.15 625.76,-11.17"/>
<polygon fill="midnightblue" stroke="midnightblue" points="625.52,-7.67 615.47,-11.01 625.41,-14.67 625.52,-7.67"/>
</g>
<!-- Node18&#45;&gt;Node6 -->
<g id="edge32" class="edge">
<title>Node18&#45;&gt;Node6</title>
<path fill="none" stroke="midnightblue" d="M1359.81,-112.45C1351.47,-98.01 1332.44,-69.1 1307.45,-56 1252.27,-27.08 1077.3,-16.53 981.2,-12.85"/>
<polygon fill="midnightblue" stroke="midnightblue" points="981.15,-9.34 971.02,-12.47 980.89,-16.34 981.15,-9.34"/>
</g>
<!-- Node18&#45;&gt;Node14 -->
<g id="edge31" class="edge">
<title>Node18&#45;&gt;Node14</title>
<path fill="none" stroke="midnightblue" d="M1342.27,-112.44C1319.02,-103.48 1282.3,-89.31 1256.03,-79.18"/>
<polygon fill="midnightblue" stroke="midnightblue" points="1257.12,-75.85 1246.53,-75.52 1254.6,-82.38 1257.12,-75.85"/>
</g>
<!-- Node18&#45;&gt;Node15 -->
<g id="edge33" class="edge">
<title>Node18&#45;&gt;Node15</title>
<path fill="none" stroke="midnightblue" d="M1362.74,-112.34C1359.83,-99.23 1353,-73.94 1340.45,-56 1332.23,-44.25 1320.24,-33.72 1309.73,-25.81"/>
<polygon fill="midnightblue" stroke="midnightblue" points="1311.54,-22.79 1301.38,-19.8 1307.46,-28.48 1311.54,-22.79"/>
</g>
<!-- Node19 -->
<g id="node19" class="node">
<title>Node19</title>
<g id="a_node19"><a xlink:title=" ">
<polygon fill="white" stroke="#bfbfbf" points="1656.95,-56.5 1656.95,-75.5 1701.95,-75.5 1701.95,-56.5 1656.95,-56.5"/>
<text text-anchor="middle" x="1679.45" y="-63.5" font-family="Helvetica,sans-Serif" font-size="10.00">utility</text>
</a>
</g>
</g>
<!-- Node18&#45;&gt;Node19 -->
<g id="edge29" class="edge">
<title>Node18&#45;&gt;Node19</title>
<path fill="none" stroke="midnightblue" d="M1425.71,-112.49C1482.2,-104.31 1568.29,-91 1642.45,-76 1643.91,-75.71 1645.39,-75.39 1646.89,-75.07"/>
<polygon fill="midnightblue" stroke="midnightblue" points="1647.84,-78.44 1656.81,-72.8 1646.28,-71.62 1647.84,-78.44"/>
</g>
<!-- Node20 -->
<g id="node20" class="node">
<title>Node20</title>
<g id="a_node20"><a xlink:title=" ">
<polygon fill="white" stroke="#bfbfbf" points="1468.95,-56.5 1468.95,-75.5 1599.95,-75.5 1599.95,-56.5 1468.95,-56.5"/>
<text text-anchor="middle" x="1534.45" y="-63.5" font-family="Helvetica,sans-Serif" font-size="10.00">AMReX_PhysBCFunct.H</text>
</a>
</g>
</g>
<!-- Node18&#45;&gt;Node20 -->
<g id="edge34" class="edge">
<title>Node18&#45;&gt;Node20</title>
<path fill="none" stroke="midnightblue" d="M1391.39,-112.44C1420.11,-103.32 1465.78,-88.81 1497.77,-78.65"/>
<polygon fill="midnightblue" stroke="midnightblue" points="1499.17,-81.88 1507.64,-75.52 1497.05,-75.21 1499.17,-81.88"/>
</g>
</g>
</svg>
        <g id="navigator" transform="translate(0 0)" fill="#404254">
                <rect fill="#f2f5e9" fill-opacity="0.5" stroke="#606060" stroke-width=".5" x="0" y="0" width="60" height="60"/>
                <use id="zoomplus" xlink:href="#zoomPlus" x="17" y="9" onmousedown="handleZoom(evt,'in')"/>
                <use id="zoomminus" xlink:href="#zoomMin" x="42" y="9" onmousedown="handleZoom(evt,'out')"/>
                <use id="reset" xlink:href="#resetDef" x="30" y="36" onmousedown="handleReset()"/>
                <g id="arrowUp" xlink:href="#dirArrow" transform="translate(30 24)" onmousedown="handlePan(0,-1)">
                  <use xlink:href="#rim" fill="#404040">
                        <set attributeName="fill" to="#808080" begin="arrowUp.mouseover" end="arrowUp.mouseout"/>
                  </use>
                  <path fill="none" stroke="white" stroke-width="1.5" d="M0,-3.0v7 M-2.5,-0.5L0,-3.0L2.5,-0.5"/>
                </g>
                <g id="arrowRight" xlink:href="#dirArrow" transform="rotate(90) translate(36 -43)" onmousedown="handlePan(1,0)">
                  <use xlink:href="#rim" fill="#404040">
                        <set attributeName="fill" to="#808080" begin="arrowRight.mouseover" end="arrowRight.mouseout"/>
                  </use>
                  <path fill="none" stroke="white" stroke-width="1.5" d="M0,-3.0v7 M-2.5,-0.5L0,-3.0L2.5,-0.5"/>
                </g>
                <g id="arrowDown" xlink:href="#dirArrow" transform="rotate(180) translate(-30 -48)" onmousedown="handlePan(0,1)">
                  <use xlink:href="#rim" fill="#404040">
                        <set attributeName="fill" to="#808080" begin="arrowDown.mouseover" end="arrowDown.mouseout"/>
                  </use>
                  <path fill="none" stroke="white" stroke-width="1.5" d="M0,-3.0v7 M-2.5,-0.5L0,-3.0L2.5,-0.5"/>
                </g>
                <g id="arrowLeft" xlink:href="#dirArrow" transform="rotate(270) translate(-36 17)" onmousedown="handlePan(-1,0)">
                  <use xlink:href="#rim" fill="#404040">
                        <set attributeName="fill" to="#808080" begin="arrowLeft.mouseover" end="arrowLeft.mouseout"/>
                  </use>
                  <path fill="none" stroke="white" stroke-width="1.5" d="M0,-3.0v7 M-2.5,-0.5L0,-3.0L2.5,-0.5"/>
                </g>
        </g>
        <svg viewBox="0 0 15 15" width="100%" height="30px" preserveAspectRatio="xMaxYMin meet">
         <g id="arrow_out" transform="scale(0.3 0.3)">
          <a xlink:href="_field_repo_8_h__incl_org.svg" target="_base">
           <rect id="button" ry="5" rx="5" y="6" x="6" height="38" width="38"
                fill="#f2f5e9" fill-opacity="0.5" stroke="#606060" stroke-width="1.0"/>
           <path id="arrow"
             d="M 11.500037,31.436501 C 11.940474,20.09759 22.043105,11.32322 32.158766,21.979434 L 37.068811,17.246167 C 37.068811,17.246167 37.088388,32 37.088388,32 L 22.160133,31.978069 C 22.160133,31.978069 26.997745,27.140456 26.997745,27.140456 C 18.528582,18.264221 13.291696,25.230495 11.500037,31.436501 z"
             style="fill:#404040;"/>
          </a>
         </g>
        </svg>
</svg>
