<?xml version="1.0" encoding="UTF-8" standalone="no"?>
<!DOCTYPE svg PUBLIC "-//W3C//DTD SVG 1.1//EN"
 "http://www.w3.org/Graphics/SVG/1.1/DTD/svg11.dtd">
<!-- Generated by graphviz version 2.43.0 (0)
 -->
<!-- Title: Field.cpp Pages: 1 -->
<svg width="2310pt" height="263pt"
 viewBox="0.00 0.00 2310.35 263.00" xmlns="http://www.w3.org/2000/svg" xmlns:xlink="http://www.w3.org/1999/xlink">
<g id="graph0" class="graph" transform="scale(1 1) rotate(0) translate(4 259)">
<title>Field.cpp</title>
<polygon fill="white" stroke="transparent" points="-4,4 -4,-259 2306.35,-259 2306.35,4 -4,4"/>
<!-- Node1 -->
<g id="node1" class="node">
<title>Node1</title>
<g id="a_node1"><a xlink:title=" ">
<polygon fill="#bfbfbf" stroke="black" points="1339.85,-235.5 1339.85,-254.5 1399.85,-254.5 1399.85,-235.5 1339.85,-235.5"/>
<text text-anchor="middle" x="1369.85" y="-242.5" font-family="Helvetica,sans-Serif" font-size="10.00">Field.cpp</text>
</a>
</g>
</g>
<!-- Node2 -->
<g id="node2" class="node">
<title>Node2</title>
<g id="a_node2"><a xlink:title=" ">
<polygon fill="white" stroke="#bfbfbf" points="537.35,-56.5 537.35,-75.5 582.35,-75.5 582.35,-56.5 537.35,-56.5"/>
<text text-anchor="middle" x="559.85" y="-63.5" font-family="Helvetica,sans-Serif" font-size="10.00">utility</text>
</a>
</g>
</g>
<!-- Node1&#45;&gt;Node2 -->
<g id="edge1" class="edge">
<title>Node1&#45;&gt;Node2</title>
<path fill="none" stroke="midnightblue" d="M1339.56,-244.35C1203.03,-245.65 648.99,-247.86 590.85,-199 557.6,-171.06 556.18,-114.82 557.97,-85.6"/>
<polygon fill="midnightblue" stroke="midnightblue" points="561.47,-85.76 558.79,-75.51 554.49,-85.2 561.47,-85.76"/>
</g>
<!-- Node3 -->
<g id="node3" class="node">
<title>Node3</title>
<g id="a_node3"><a xlink:href="_field_8_h.html" target="_top" xlink:title=" ">
<polygon fill="white" stroke="black" points="1307.85,-112.5 1307.85,-131.5 1431.85,-131.5 1431.85,-112.5 1307.85,-112.5"/>
<text text-anchor="middle" x="1369.85" y="-119.5" font-family="Helvetica,sans-Serif" font-size="10.00">amr&#45;wind/core/Field.H</text>
</a>
</g>
</g>
<!-- Node1&#45;&gt;Node3 -->
<g id="edge2" class="edge">
<title>Node1&#45;&gt;Node3</title>
<path fill="none" stroke="midnightblue" d="M1369.85,-235.3C1369.85,-215.85 1369.85,-168.49 1369.85,-141.9"/>
<polygon fill="midnightblue" stroke="midnightblue" points="1373.35,-141.62 1369.85,-131.62 1366.35,-141.62 1373.35,-141.62"/>
</g>
<!-- Node15 -->
<g id="node15" class="node">
<title>Node15</title>
<g id="a_node15"><a xlink:href="_field_repo_8_h.html" target="_top" xlink:title=" ">
<polygon fill="white" stroke="black" points="600.35,-174 600.35,-193 749.35,-193 749.35,-174 600.35,-174"/>
<text text-anchor="middle" x="674.85" y="-181" font-family="Helvetica,sans-Serif" font-size="10.00">amr&#45;wind/core/FieldRepo.H</text>
</a>
</g>
</g>
<!-- Node1&#45;&gt;Node15 -->
<g id="edge17" class="edge">
<title>Node1&#45;&gt;Node15</title>
<path fill="none" stroke="midnightblue" d="M1339.54,-241.41C1239.13,-232.81 914.96,-205.06 759.52,-191.75"/>
<polygon fill="midnightblue" stroke="midnightblue" points="759.79,-188.26 749.53,-190.89 759.19,-195.23 759.79,-188.26"/>
</g>
<!-- Node23 -->
<g id="node23" class="node">
<title>Node23</title>
<g id="a_node23"><a xlink:href="_field_fill_patch_ops_8_h.html" target="_top" xlink:title=" ">
<polygon fill="white" stroke="black" points="1060.85,-168.5 1060.85,-198.5 1214.85,-198.5 1214.85,-168.5 1060.85,-168.5"/>
<text text-anchor="start" x="1068.85" y="-186.5" font-family="Helvetica,sans-Serif" font-size="10.00">amr&#45;wind/core/FieldFillPatch</text>
<text text-anchor="middle" x="1137.85" y="-175.5" font-family="Helvetica,sans-Serif" font-size="10.00">Ops.H</text>
</a>
</g>
</g>
<!-- Node1&#45;&gt;Node23 -->
<g id="edge41" class="edge">
<title>Node1&#45;&gt;Node23</title>
<path fill="none" stroke="midnightblue" d="M1339.52,-236.22C1304.92,-227.35 1247.35,-212.58 1202.55,-201.09"/>
<polygon fill="midnightblue" stroke="midnightblue" points="1203.18,-197.64 1192.62,-198.55 1201.44,-204.42 1203.18,-197.64"/>
</g>
<!-- Node24 -->
<g id="node24" class="node">
<title>Node24</title>
<g id="a_node24"><a xlink:href="_sim_time_8_h.html" target="_top" xlink:title=" ">
<polygon fill="white" stroke="black" points="1580.85,-112.5 1580.85,-131.5 1724.85,-131.5 1724.85,-112.5 1580.85,-112.5"/>
<text text-anchor="middle" x="1652.85" y="-119.5" font-family="Helvetica,sans-Serif" font-size="10.00">amr&#45;wind/core/SimTime.H</text>
</a>
</g>
</g>
<!-- Node1&#45;&gt;Node24 -->
<g id="edge61" class="edge">
<title>Node1&#45;&gt;Node24</title>
<path fill="none" stroke="midnightblue" d="M1377.97,-235.47C1393.5,-219.68 1429.15,-185.86 1465.85,-168 1500.69,-151.04 1542.37,-140.21 1577.53,-133.44"/>
<polygon fill="midnightblue" stroke="midnightblue" points="1578.54,-136.81 1587.74,-131.55 1577.27,-129.93 1578.54,-136.81"/>
</g>
<!-- Node29 -->
<g id="node29" class="node">
<title>Node29</title>
<g id="a_node29"><a xlink:href="_field_b_c_ops_8_h.html" target="_top" xlink:title=" ">
<polygon fill="white" stroke="black" points="1474.85,-174 1474.85,-193 1630.85,-193 1630.85,-174 1474.85,-174"/>
<text text-anchor="middle" x="1552.85" y="-181" font-family="Helvetica,sans-Serif" font-size="10.00">amr&#45;wind/core/FieldBCOps.H</text>
</a>
</g>
</g>
<!-- Node1&#45;&gt;Node29 -->
<g id="edge54" class="edge">
<title>Node1&#45;&gt;Node29</title>
<path fill="none" stroke="midnightblue" d="M1396.07,-235.48C1427.87,-225.14 1481.61,-207.66 1517.17,-196.1"/>
<polygon fill="midnightblue" stroke="midnightblue" points="1518.25,-199.43 1526.68,-193.01 1516.09,-192.77 1518.25,-199.43"/>
</g>
<!-- Node32 -->
<g id="node32" class="node">
<title>Node32</title>
<g id="a_node32"><a xlink:href="_b_c_interface_8_h.html" target="_top" xlink:title=" ">
<polygon fill="white" stroke="black" points="1976.35,-168.5 1976.35,-198.5 2143.35,-198.5 2143.35,-168.5 1976.35,-168.5"/>
<text text-anchor="start" x="1984.35" y="-186.5" font-family="Helvetica,sans-Serif" font-size="10.00">amr&#45;wind/boundary_conditions</text>
<text text-anchor="middle" x="2059.85" y="-175.5" font-family="Helvetica,sans-Serif" font-size="10.00">/BCInterface.H</text>
</a>
</g>
</g>
<!-- Node1&#45;&gt;Node32 -->
<g id="edge62" class="edge">
<title>Node1&#45;&gt;Node32</title>
<path fill="none" stroke="midnightblue" d="M1399.94,-241.41C1497.6,-232.98 1808.45,-206.18 1966.16,-192.58"/>
<polygon fill="midnightblue" stroke="midnightblue" points="1966.66,-196.05 1976.32,-191.7 1966.05,-189.08 1966.66,-196.05"/>
</g>
<!-- Node4 -->
<g id="node4" class="node">
<title>Node4</title>
<g id="a_node4"><a xlink:title=" ">
<polygon fill="white" stroke="#bfbfbf" points="206.85,-0.5 206.85,-19.5 250.85,-19.5 250.85,-0.5 206.85,-0.5"/>
<text text-anchor="middle" x="228.85" y="-7.5" font-family="Helvetica,sans-Serif" font-size="10.00">string</text>
</a>
</g>
</g>
<!-- Node3&#45;&gt;Node4 -->
<g id="edge3" class="edge">
<title>Node3&#45;&gt;Node4</title>
<path fill="none" stroke="midnightblue" d="M1344.91,-112.43C1321.49,-104.08 1285.68,-90.55 1255.85,-76 1240.09,-68.31 1238.67,-60.93 1221.85,-56 1022.1,2.54 493.01,-40.27 285.85,-20 277.72,-19.2 268.98,-18 260.85,-16.73"/>
<polygon fill="midnightblue" stroke="midnightblue" points="261.4,-13.28 250.97,-15.12 260.27,-20.19 261.4,-13.28"/>
</g>
<!-- Node5 -->
<g id="node5" class="node">
<title>Node5</title>
<g id="a_node5"><a xlink:title=" ">
<polygon fill="white" stroke="#bfbfbf" points="1345.85,-56.5 1345.85,-75.5 1403.85,-75.5 1403.85,-56.5 1345.85,-56.5"/>
<text text-anchor="middle" x="1374.85" y="-63.5" font-family="Helvetica,sans-Serif" font-size="10.00">memory</text>
</a>
</g>
</g>
<!-- Node3&#45;&gt;Node5 -->
<g id="edge4" class="edge">
<title>Node3&#45;&gt;Node5</title>
<path fill="none" stroke="midnightblue" d="M1370.68,-112.08C1371.33,-105.01 1372.27,-94.86 1373.09,-85.99"/>
<polygon fill="midnightblue" stroke="midnightblue" points="1376.6,-86.03 1374.04,-75.75 1369.63,-85.39 1376.6,-86.03"/>
</g>
<!-- Node6 -->
<g id="node6" class="node">
<title>Node6</title>
<g id="a_node6"><a xlink:title=" ">
<polygon fill="white" stroke="#bfbfbf" points="1120.35,-56.5 1120.35,-75.5 1213.35,-75.5 1213.35,-56.5 1120.35,-56.5"/>
<text text-anchor="middle" x="1166.85" y="-63.5" font-family="Helvetica,sans-Serif" font-size="10.00">unordered_map</text>
</a>
</g>
</g>
<!-- Node3&#45;&gt;Node6 -->
<g id="edge5" class="edge">
<title>Node3&#45;&gt;Node6</title>
<path fill="none" stroke="midnightblue" d="M1337.68,-112.44C1302.79,-103.16 1246.96,-88.31 1208.68,-78.13"/>
<polygon fill="midnightblue" stroke="midnightblue" points="1209.43,-74.7 1198.87,-75.52 1207.63,-81.47 1209.43,-74.7"/>
</g>
<!-- Node7 -->
<g id="node7" class="node">
<title>Node7</title>
<g id="a_node7"><a xlink:title=" ">
<polygon fill="white" stroke="#bfbfbf" points="1421.85,-56.5 1421.85,-75.5 1485.85,-75.5 1485.85,-56.5 1421.85,-56.5"/>
<text text-anchor="middle" x="1453.85" y="-63.5" font-family="Helvetica,sans-Serif" font-size="10.00">algorithm</text>
</a>
</g>
</g>
<!-- Node3&#45;&gt;Node7 -->
<g id="edge6" class="edge">
<title>Node3&#45;&gt;Node7</title>
<path fill="none" stroke="midnightblue" d="M1383.35,-112.32C1396.45,-103.9 1416.56,-90.97 1431.96,-81.07"/>
<polygon fill="midnightblue" stroke="midnightblue" points="1433.87,-84.01 1440.39,-75.65 1430.08,-78.12 1433.87,-84.01"/>
</g>
<!-- Node8 -->
<g id="node8" class="node">
<title>Node8</title>
<g id="a_node8"><a xlink:title=" ">
<polygon fill="white" stroke="#bfbfbf" points="580.35,-0.5 580.35,-19.5 689.35,-19.5 689.35,-0.5 580.35,-0.5"/>
<text text-anchor="middle" x="634.85" y="-7.5" font-family="Helvetica,sans-Serif" font-size="10.00">AMReX_MultiFab.H</text>
</a>
</g>
</g>
<!-- Node3&#45;&gt;Node8 -->
<g id="edge7" class="edge">
<title>Node3&#45;&gt;Node8</title>
<path fill="none" stroke="midnightblue" d="M1355.76,-112.5C1327.68,-95.62 1266.53,-59.24 1255.85,-56 1147.12,-23.04 859.14,-28.59 745.85,-20 730.97,-18.87 714.97,-17.61 699.88,-16.39"/>
<polygon fill="midnightblue" stroke="midnightblue" points="699.86,-12.87 689.61,-15.55 699.29,-19.85 699.86,-12.87"/>
</g>
<!-- Node9 -->
<g id="node9" class="node">
<title>Node9</title>
<g id="a_node9"><a xlink:title=" ">
<polygon fill="white" stroke="#bfbfbf" points="1504.35,-56.5 1504.35,-75.5 1603.35,-75.5 1603.35,-56.5 1504.35,-56.5"/>
<text text-anchor="middle" x="1553.85" y="-63.5" font-family="Helvetica,sans-Serif" font-size="10.00">AMReX_BCRec.H</text>
</a>
</g>
</g>
<!-- Node3&#45;&gt;Node9 -->
<g id="edge8" class="edge">
<title>Node3&#45;&gt;Node9</title>
<path fill="none" stroke="midnightblue" d="M1399.01,-112.44C1430.36,-103.24 1480.38,-88.56 1515.05,-78.39"/>
<polygon fill="midnightblue" stroke="midnightblue" points="1516.22,-81.69 1524.83,-75.52 1514.25,-74.97 1516.22,-81.69"/>
</g>
<!-- Node10 -->
<g id="node10" class="node">
<title>Node10</title>
<g id="a_node10"><a xlink:title=" ">
<polygon fill="white" stroke="#bfbfbf" points="1621.35,-56.5 1621.35,-75.5 1708.35,-75.5 1708.35,-56.5 1621.35,-56.5"/>
<text text-anchor="middle" x="1664.85" y="-63.5" font-family="Helvetica,sans-Serif" font-size="10.00">AMReX_Gpu.H</text>
</a>
</g>
</g>
<!-- Node3&#45;&gt;Node10 -->
<g id="edge9" class="edge">
<title>Node3&#45;&gt;Node10</title>
<path fill="none" stroke="midnightblue" d="M1416.59,-112.44C1469.51,-102.76 1555.58,-87 1611.19,-76.82"/>
<polygon fill="midnightblue" stroke="midnightblue" points="1612,-80.23 1621.21,-74.99 1610.74,-73.35 1612,-80.23"/>
</g>
<!-- Node11 -->
<g id="node11" class="node">
<title>Node11</title>
<g id="a_node11"><a xlink:href="incflo__enums_8_h.html" target="_top" xlink:title=" ">
<polygon fill="white" stroke="black" points="2161.35,-56.5 2161.35,-75.5 2302.35,-75.5 2302.35,-56.5 2161.35,-56.5"/>
<text text-anchor="middle" x="2231.85" y="-63.5" font-family="Helvetica,sans-Serif" font-size="10.00">amr&#45;wind/incflo_enums.H</text>
</a>
</g>
</g>
<!-- Node3&#45;&gt;Node11 -->
<g id="edge10" class="edge">
<title>Node3&#45;&gt;Node11</title>
<path fill="none" stroke="midnightblue" d="M1432.09,-117.57C1559.89,-110.44 1861.13,-93.28 2113.85,-76 2125.78,-75.18 2138.39,-74.27 2150.74,-73.35"/>
<polygon fill="midnightblue" stroke="midnightblue" points="2151.33,-76.82 2161.04,-72.58 2150.81,-69.84 2151.33,-76.82"/>
</g>
<!-- Node12 -->
<g id="node12" class="node">
<title>Node12</title>
<g id="a_node12"><a xlink:href="_field_desc_types_8_h.html" target="_top" xlink:title=" ">
<polygon fill="white" stroke="black" points="754.85,-0.5 754.85,-19.5 930.85,-19.5 930.85,-0.5 754.85,-0.5"/>
<text text-anchor="middle" x="842.85" y="-7.5" font-family="Helvetica,sans-Serif" font-size="10.00">amr&#45;wind/core/FieldDescTypes.H</text>
</a>
</g>
</g>
<!-- Node3&#45;&gt;Node12 -->
<g id="edge11" class="edge">
<title>Node3&#45;&gt;Node12</title>
<path fill="none" stroke="midnightblue" d="M1362.97,-112.39C1350.78,-97.86 1323.87,-68.82 1293.85,-56 1232.47,-29.8 1054.42,-18.56 941.26,-13.96"/>
<polygon fill="midnightblue" stroke="midnightblue" points="941.32,-10.46 931.19,-13.56 941.05,-17.46 941.32,-10.46"/>
</g>
<!-- Node13 -->
<g id="node13" class="node">
<title>Node13</title>
<g id="a_node13"><a xlink:href="_view_field_8_h.html" target="_top" xlink:title=" ">
<polygon fill="white" stroke="black" points="294.85,-56.5 294.85,-75.5 442.85,-75.5 442.85,-56.5 294.85,-56.5"/>
<text text-anchor="middle" x="368.85" y="-63.5" font-family="Helvetica,sans-Serif" font-size="10.00">amr&#45;wind/core/ViewField.H</text>
</a>
</g>
</g>
<!-- Node3&#45;&gt;Node13 -->
<g id="edge12" class="edge">
<title>Node3&#45;&gt;Node13</title>
<path fill="none" stroke="midnightblue" d="M1307.8,-115.82C1290.66,-114.47 1272.04,-113.1 1254.85,-112 932,-91.38 850.9,-93.14 527.85,-76 503.57,-74.71 477.21,-73.25 453.06,-71.88"/>
<polygon fill="midnightblue" stroke="midnightblue" points="453.04,-68.37 442.86,-71.3 452.65,-75.36 453.04,-68.37"/>
</g>
<!-- Node13&#45;&gt;Node4 -->
<g id="edge13" class="edge">
<title>Node13&#45;&gt;Node4</title>
<path fill="none" stroke="midnightblue" d="M346.67,-56.44C323.42,-47.48 286.7,-33.31 260.43,-23.18"/>
<polygon fill="midnightblue" stroke="midnightblue" points="261.52,-19.85 250.93,-19.52 259,-26.38 261.52,-19.85"/>
</g>
<!-- Node13&#45;&gt;Node8 -->
<g id="edge15" class="edge">
<title>Node13&#45;&gt;Node8</title>
<path fill="none" stroke="midnightblue" d="M411,-56.44C457.6,-46.98 532.69,-31.74 582.89,-21.55"/>
<polygon fill="midnightblue" stroke="midnightblue" points="583.79,-24.94 592.9,-19.52 582.4,-18.08 583.79,-24.94"/>
</g>
<!-- Node13&#45;&gt;Node12 -->
<g id="edge14" class="edge">
<title>Node13&#45;&gt;Node12</title>
<path fill="none" stroke="midnightblue" d="M442.91,-56.56C528.28,-46.84 668.31,-30.88 758,-20.67"/>
<polygon fill="midnightblue" stroke="midnightblue" points="758.6,-24.12 768.14,-19.51 757.8,-17.17 758.6,-24.12"/>
</g>
<!-- Node14 -->
<g id="node14" class="node">
<title>Node14</title>
<g id="a_node14"><a xlink:title=" ">
<polygon fill="white" stroke="#bfbfbf" points="294.85,-0.5 294.85,-19.5 392.85,-19.5 392.85,-0.5 294.85,-0.5"/>
<text text-anchor="middle" x="343.85" y="-7.5" font-family="Helvetica,sans-Serif" font-size="10.00">AMReX_Vector.H</text>
</a>
</g>
</g>
<!-- Node13&#45;&gt;Node14 -->
<g id="edge16" class="edge">
<title>Node13&#45;&gt;Node14</title>
<path fill="none" stroke="midnightblue" d="M364.72,-56.08C361.34,-48.77 356.43,-38.18 352.23,-29.1"/>
<polygon fill="midnightblue" stroke="midnightblue" points="355.28,-27.36 347.9,-19.75 348.93,-30.3 355.28,-27.36"/>
</g>
<!-- Node15&#45;&gt;Node3 -->
<g id="edge25" class="edge">
<title>Node15&#45;&gt;Node3</title>
<path fill="none" stroke="midnightblue" d="M749.56,-176.1C884.01,-164.59 1165.06,-140.53 1297.66,-129.18"/>
<polygon fill="midnightblue" stroke="midnightblue" points="1298.05,-132.66 1307.72,-128.32 1297.46,-125.68 1298.05,-132.66"/>
</g>
<!-- Node15&#45;&gt;Node4 -->
<g id="edge18" class="edge">
<title>Node15&#45;&gt;Node4</title>
<path fill="none" stroke="midnightblue" d="M600.34,-180.88C463.53,-177.12 177.78,-165.41 84.85,-132 43.66,-117.19 24.17,-114.76 3.85,-76 -0.28,-68.13 -1.79,-62.87 3.85,-56 27.87,-26.7 140.44,-16.09 196.69,-12.58"/>
<polygon fill="midnightblue" stroke="midnightblue" points="197.05,-16.07 206.83,-11.99 196.64,-9.08 197.05,-16.07"/>
</g>
<!-- Node15&#45;&gt;Node6 -->
<g id="edge19" class="edge">
<title>Node15&#45;&gt;Node6</title>
<path fill="none" stroke="midnightblue" d="M707.01,-173.92C739.16,-164.94 789.75,-149.69 831.85,-132 849.44,-124.61 851.71,-117.94 869.85,-112 969.76,-79.29 1001.95,-91.8 1110.1,-76.06"/>
<polygon fill="midnightblue" stroke="midnightblue" points="1110.74,-79.5 1120.1,-74.55 1109.7,-72.58 1110.74,-79.5"/>
</g>
<!-- Node15&#45;&gt;Node8 -->
<g id="edge39" class="edge">
<title>Node15&#45;&gt;Node8</title>
<path fill="none" stroke="midnightblue" d="M665.04,-174C655.24,-164.79 640.81,-149.11 634.85,-132 622.81,-97.4 627.17,-53.79 631.18,-29.5"/>
<polygon fill="midnightblue" stroke="midnightblue" points="634.65,-30 632.99,-19.53 627.76,-28.75 634.65,-30"/>
</g>
<!-- Node15&#45;&gt;Node12 -->
<g id="edge20" class="edge">
<title>Node15&#45;&gt;Node12</title>
<path fill="none" stroke="midnightblue" d="M671.79,-173.6C667.59,-160 661.27,-133.4 667.85,-112 676.68,-83.25 681.83,-74.11 705.85,-56 727.82,-39.44 756.18,-28.8 781.39,-22.06"/>
<polygon fill="midnightblue" stroke="midnightblue" points="782.4,-25.41 791.24,-19.57 780.69,-18.62 782.4,-25.41"/>
</g>
<!-- Node16 -->
<g id="node16" class="node">
<title>Node16</title>
<g id="a_node16"><a xlink:href="_field_utils_8_h.html" target="_top" xlink:title=" ">
<polygon fill="white" stroke="black" points="676.85,-112.5 676.85,-131.5 822.85,-131.5 822.85,-112.5 676.85,-112.5"/>
<text text-anchor="middle" x="749.85" y="-119.5" font-family="Helvetica,sans-Serif" font-size="10.00">amr&#45;wind/core/FieldUtils.H</text>
</a>
</g>
</g>
<!-- Node15&#45;&gt;Node16 -->
<g id="edge21" class="edge">
<title>Node15&#45;&gt;Node16</title>
<path fill="none" stroke="midnightblue" d="M685.6,-173.98C697.4,-164.61 716.59,-149.38 730.93,-138.01"/>
<polygon fill="midnightblue" stroke="midnightblue" points="733.47,-140.47 739.12,-131.51 729.11,-134.98 733.47,-140.47"/>
</g>
<!-- Node18 -->
<g id="node18" class="node">
<title>Node18</title>
<g id="a_node18"><a xlink:href="_int_field_8_h.html" target="_top" xlink:title=" ">
<polygon fill="white" stroke="black" points="116.35,-112.5 116.35,-131.5 253.35,-131.5 253.35,-112.5 116.35,-112.5"/>
<text text-anchor="middle" x="184.85" y="-119.5" font-family="Helvetica,sans-Serif" font-size="10.00">amr&#45;wind/core/IntField.H</text>
</a>
</g>
</g>
<!-- Node15&#45;&gt;Node18 -->
<g id="edge26" class="edge">
<title>Node15&#45;&gt;Node18</title>
<path fill="none" stroke="midnightblue" d="M604.64,-173.98C514.39,-163.02 358.09,-144.04 263.79,-132.59"/>
<polygon fill="midnightblue" stroke="midnightblue" points="264.09,-129.1 253.74,-131.37 263.24,-136.05 264.09,-129.1"/>
</g>
<!-- Node19 -->
<g id="node19" class="node">
<title>Node19</title>
<g id="a_node19"><a xlink:title=" ">
<polygon fill="white" stroke="#bfbfbf" points="12.85,-56.5 12.85,-75.5 124.85,-75.5 124.85,-56.5 12.85,-56.5"/>
<text text-anchor="middle" x="68.85" y="-63.5" font-family="Helvetica,sans-Serif" font-size="10.00">AMReX_iMultiFab.H</text>
</a>
</g>
</g>
<!-- Node15&#45;&gt;Node19 -->
<g id="edge40" class="edge">
<title>Node15&#45;&gt;Node19</title>
<path fill="none" stroke="midnightblue" d="M600.13,-179.66C455.44,-173.6 147.58,-157.83 106.85,-132 90.15,-121.41 79.92,-100.64 74.34,-85.41"/>
<polygon fill="midnightblue" stroke="midnightblue" points="77.54,-83.93 71.08,-75.54 70.89,-86.13 77.54,-83.93"/>
</g>
<!-- Node20 -->
<g id="node20" class="node">
<title>Node20</title>
<g id="a_node20"><a xlink:href="_scratch_field_8_h.html" target="_top" xlink:title=" ">
<polygon fill="white" stroke="black" points="384.85,-112.5 384.85,-131.5 544.85,-131.5 544.85,-112.5 384.85,-112.5"/>
<text text-anchor="middle" x="464.85" y="-119.5" font-family="Helvetica,sans-Serif" font-size="10.00">amr&#45;wind/core/ScratchField.H</text>
</a>
</g>
</g>
<!-- Node15&#45;&gt;Node20 -->
<g id="edge30" class="edge">
<title>Node15&#45;&gt;Node20</title>
<path fill="none" stroke="midnightblue" d="M644.76,-173.98C607.96,-163.55 545.54,-145.86 504.76,-134.31"/>
<polygon fill="midnightblue" stroke="midnightblue" points="505.46,-130.87 494.88,-131.51 503.55,-137.6 505.46,-130.87"/>
</g>
<!-- Node22 -->
<g id="node22" class="node">
<title>Node22</title>
<g id="a_node22"><a xlink:title=" ">
<polygon fill="white" stroke="#bfbfbf" points="878.85,-112.5 878.85,-131.5 988.85,-131.5 988.85,-112.5 878.85,-112.5"/>
<text text-anchor="middle" x="933.85" y="-119.5" font-family="Helvetica,sans-Serif" font-size="10.00">AMReX_AmrCore.H</text>
</a>
</g>
</g>
<!-- Node15&#45;&gt;Node22 -->
<g id="edge38" class="edge">
<title>Node15&#45;&gt;Node22</title>
<path fill="none" stroke="midnightblue" d="M711.96,-173.98C758.02,-163.39 836.62,-145.34 886.85,-133.8"/>
<polygon fill="midnightblue" stroke="midnightblue" points="887.85,-137.16 896.81,-131.51 886.28,-130.34 887.85,-137.16"/>
</g>
<!-- Node16&#45;&gt;Node8 -->
<g id="edge23" class="edge">
<title>Node16&#45;&gt;Node8</title>
<path fill="none" stroke="midnightblue" d="M740.83,-112.37C721.51,-93.89 675.93,-50.29 651.31,-26.74"/>
<polygon fill="midnightblue" stroke="midnightblue" points="653.48,-23.97 643.83,-19.59 648.64,-29.03 653.48,-23.97"/>
</g>
<!-- Node16&#45;&gt;Node12 -->
<g id="edge22" class="edge">
<title>Node16&#45;&gt;Node12</title>
<path fill="none" stroke="midnightblue" d="M792.92,-112.49C813.25,-106.07 835.67,-94.99 847.85,-76 856.62,-62.32 853.98,-43.53 849.97,-29.67"/>
<polygon fill="midnightblue" stroke="midnightblue" points="853.15,-28.17 846.65,-19.81 846.52,-30.4 853.15,-28.17"/>
</g>
<!-- Node17 -->
<g id="node17" class="node">
<title>Node17</title>
<g id="a_node17"><a xlink:title=" ">
<polygon fill="white" stroke="#bfbfbf" points="714.85,-56.5 714.85,-75.5 838.85,-75.5 838.85,-56.5 714.85,-56.5"/>
<text text-anchor="middle" x="776.85" y="-63.5" font-family="Helvetica,sans-Serif" font-size="10.00">AMReX_Interpolater.H</text>
</a>
</g>
</g>
<!-- Node16&#45;&gt;Node17 -->
<g id="edge24" class="edge">
<title>Node16&#45;&gt;Node17</title>
<path fill="none" stroke="midnightblue" d="M754.31,-112.08C758,-104.69 763.37,-93.95 767.94,-84.81"/>
<polygon fill="midnightblue" stroke="midnightblue" points="771.13,-86.26 772.47,-75.75 764.87,-83.13 771.13,-86.26"/>
</g>
<!-- Node18&#45;&gt;Node4 -->
<g id="edge27" class="edge">
<title>Node18&#45;&gt;Node4</title>
<path fill="none" stroke="midnightblue" d="M180.9,-112.14C175.75,-99.19 168.34,-74.61 176.85,-56 182.63,-43.36 193.9,-32.91 204.48,-25.27"/>
<polygon fill="midnightblue" stroke="midnightblue" points="206.7,-28 213.07,-19.53 202.81,-22.18 206.7,-28"/>
</g>
<!-- Node18&#45;&gt;Node12 -->
<g id="edge28" class="edge">
<title>Node18&#45;&gt;Node12</title>
<path fill="none" stroke="midnightblue" d="M194.58,-112.34C211.65,-97.73 248.72,-68.56 285.85,-56 307.16,-48.79 590.01,-28.4 744.21,-17.72"/>
<polygon fill="midnightblue" stroke="midnightblue" points="744.89,-21.18 754.63,-17 744.41,-14.2 744.89,-21.18"/>
</g>
<!-- Node18&#45;&gt;Node19 -->
<g id="edge29" class="edge">
<title>Node18&#45;&gt;Node19</title>
<path fill="none" stroke="midnightblue" d="M166.47,-112.44C147.63,-103.68 118.12,-89.94 96.47,-79.86"/>
<polygon fill="midnightblue" stroke="midnightblue" points="97.69,-76.56 87.14,-75.52 94.73,-82.91 97.69,-76.56"/>
</g>
<!-- Node20&#45;&gt;Node2 -->
<g id="edge32" class="edge">
<title>Node20&#45;&gt;Node2</title>
<path fill="none" stroke="midnightblue" d="M480.11,-112.32C495.07,-103.82 518.1,-90.73 535.58,-80.8"/>
<polygon fill="midnightblue" stroke="midnightblue" points="537.66,-83.64 544.62,-75.65 534.2,-77.55 537.66,-83.64"/>
</g>
<!-- Node20&#45;&gt;Node4 -->
<g id="edge31" class="edge">
<title>Node20&#45;&gt;Node4</title>
<path fill="none" stroke="midnightblue" d="M384.52,-113.93C349.53,-107.89 309.4,-96.69 277.85,-76 259.99,-64.29 246.14,-43.75 237.79,-28.89"/>
<polygon fill="midnightblue" stroke="midnightblue" points="240.69,-26.88 232.91,-19.69 234.5,-30.16 240.69,-26.88"/>
</g>
<!-- Node20&#45;&gt;Node8 -->
<g id="edge35" class="edge">
<title>Node20&#45;&gt;Node8</title>
<path fill="none" stroke="midnightblue" d="M466.57,-112.06C469.72,-98.11 477.73,-71.16 494.85,-56 515.78,-37.47 544.42,-26.55 570.35,-20.14"/>
<polygon fill="midnightblue" stroke="midnightblue" points="571.17,-23.54 580.13,-17.89 569.6,-16.72 571.17,-23.54"/>
</g>
<!-- Node20&#45;&gt;Node12 -->
<g id="edge33" class="edge">
<title>Node20&#45;&gt;Node12</title>
<path fill="none" stroke="midnightblue" d="M470.56,-112.06C480.35,-97.57 501.81,-69.28 527.85,-56 564.71,-37.21 666.26,-25 744.19,-18.11"/>
<polygon fill="midnightblue" stroke="midnightblue" points="744.88,-21.56 754.54,-17.21 744.27,-14.59 744.88,-21.56"/>
</g>
<!-- Node20&#45;&gt;Node13 -->
<g id="edge34" class="edge">
<title>Node20&#45;&gt;Node13</title>
<path fill="none" stroke="midnightblue" d="M449.43,-112.32C434.31,-103.82 411.03,-90.73 393.38,-80.8"/>
<polygon fill="midnightblue" stroke="midnightblue" points="394.67,-77.51 384.24,-75.65 391.24,-83.61 394.67,-77.51"/>
</g>
<!-- Node20&#45;&gt;Node14 -->
<g id="edge36" class="edge">
<title>Node20&#45;&gt;Node14</title>
<path fill="none" stroke="midnightblue" d="M395.92,-112.47C351.51,-105.4 299.59,-93.63 285.85,-76 271.37,-57.42 295.97,-37.39 317.47,-24.55"/>
<polygon fill="midnightblue" stroke="midnightblue" points="319.39,-27.49 326.37,-19.51 315.94,-21.39 319.39,-27.49"/>
</g>
<!-- Node21 -->
<g id="node21" class="node">
<title>Node21</title>
<g id="a_node21"><a xlink:title=" ">
<polygon fill="white" stroke="#bfbfbf" points="971.35,-56.5 971.35,-75.5 1102.35,-75.5 1102.35,-56.5 971.35,-56.5"/>
<text text-anchor="middle" x="1036.85" y="-63.5" font-family="Helvetica,sans-Serif" font-size="10.00">AMReX_PhysBCFunct.H</text>
</a>
</g>
</g>
<!-- Node20&#45;&gt;Node21 -->
<g id="edge37" class="edge">
<title>Node20&#45;&gt;Node21</title>
<path fill="none" stroke="midnightblue" d="M544.99,-113.43C655.34,-103.02 852.69,-84.39 960.83,-74.18"/>
<polygon fill="midnightblue" stroke="midnightblue" points="961.39,-77.64 971.01,-73.22 960.73,-70.67 961.39,-77.64"/>
</g>
<!-- Node23&#45;&gt;Node3 -->
<g id="edge42" class="edge">
<title>Node23&#45;&gt;Node3</title>
<path fill="none" stroke="midnightblue" d="M1192.54,-168.47C1233.61,-157.94 1289.08,-143.72 1326.97,-134"/>
<polygon fill="midnightblue" stroke="midnightblue" points="1327.87,-137.38 1336.68,-131.51 1326.13,-130.6 1327.87,-137.38"/>
</g>
<!-- Node23&#45;&gt;Node8 -->
<g id="edge50" class="edge">
<title>Node23&#45;&gt;Node8</title>
<path fill="none" stroke="midnightblue" d="M1105.58,-168.33C1084.12,-158.65 1055.46,-145.22 1030.85,-132 1015.74,-123.88 1013.28,-119.48 997.85,-112 933.81,-80.98 916.18,-75.85 847.85,-56 797.28,-41.31 738.66,-29.28 695.74,-21.37"/>
<polygon fill="midnightblue" stroke="midnightblue" points="696.19,-17.89 685.73,-19.54 694.94,-24.78 696.19,-17.89"/>
</g>
<!-- Node23&#45;&gt;Node12 -->
<g id="edge47" class="edge">
<title>Node23&#45;&gt;Node12</title>
<path fill="none" stroke="midnightblue" d="M1117.73,-168.36C1096.51,-153.65 1061.91,-130.27 1030.85,-112 1001.04,-94.46 992.36,-92.29 961.85,-76 928.85,-58.38 890.97,-37.59 866.98,-24.35"/>
<polygon fill="midnightblue" stroke="midnightblue" points="868.65,-21.28 858.2,-19.51 865.26,-27.41 868.65,-21.28"/>
</g>
<!-- Node23&#45;&gt;Node16 -->
<g id="edge48" class="edge">
<title>Node23&#45;&gt;Node16</title>
<path fill="none" stroke="midnightblue" d="M1060.73,-170.67C989.05,-159.68 883.43,-143.48 815.63,-133.09"/>
<polygon fill="midnightblue" stroke="midnightblue" points="815.91,-129.59 805.5,-131.53 814.85,-136.51 815.91,-129.59"/>
</g>
<!-- Node23&#45;&gt;Node21 -->
<g id="edge52" class="edge">
<title>Node23&#45;&gt;Node21</title>
<path fill="none" stroke="midnightblue" d="M1125.47,-168.34C1106.69,-146.86 1071.1,-106.17 1051.22,-83.43"/>
<polygon fill="midnightblue" stroke="midnightblue" points="1053.65,-80.89 1044.43,-75.67 1048.38,-85.5 1053.65,-80.89"/>
</g>
<!-- Node23&#45;&gt;Node22 -->
<g id="edge49" class="edge">
<title>Node23&#45;&gt;Node22</title>
<path fill="none" stroke="midnightblue" d="M1089.76,-168.47C1054.11,-158.08 1006.12,-144.08 972.84,-134.37"/>
<polygon fill="midnightblue" stroke="midnightblue" points="973.59,-130.95 963.01,-131.51 971.63,-137.67 973.59,-130.95"/>
</g>
<!-- Node23&#45;&gt;Node24 -->
<g id="edge43" class="edge">
<title>Node23&#45;&gt;Node24</title>
<path fill="none" stroke="midnightblue" d="M1214.95,-173.59C1310.48,-162.56 1472.58,-143.83 1570.49,-132.52"/>
<polygon fill="midnightblue" stroke="midnightblue" points="1571.1,-135.97 1580.63,-131.34 1570.3,-129.01 1571.1,-135.97"/>
</g>
<!-- Node25 -->
<g id="node25" class="node">
<title>Node25</title>
<g id="a_node25"><a xlink:title=" ">
<polygon fill="white" stroke="#bfbfbf" points="1726.85,-56.5 1726.85,-75.5 1818.85,-75.5 1818.85,-56.5 1726.85,-56.5"/>
<text text-anchor="middle" x="1772.85" y="-63.5" font-family="Helvetica,sans-Serif" font-size="10.00">AMReX_REAL.H</text>
</a>
</g>
</g>
<!-- Node23&#45;&gt;Node25 -->
<g id="edge51" class="edge">
<title>Node23&#45;&gt;Node25</title>
<path fill="none" stroke="midnightblue" d="M1214.85,-170.28C1276.16,-160.4 1364.1,-145.91 1440.85,-132 1540.28,-113.98 1656.01,-90.83 1721.23,-77.57"/>
<polygon fill="midnightblue" stroke="midnightblue" points="1722.15,-80.96 1731.25,-75.53 1720.76,-74.1 1722.15,-80.96"/>
</g>
<!-- Node28 -->
<g id="node28" class="node">
<title>Node28</title>
<g id="a_node28"><a xlink:title=" ">
<polygon fill="white" stroke="#bfbfbf" points="1121.35,-112.5 1121.35,-131.5 1246.35,-131.5 1246.35,-112.5 1121.35,-112.5"/>
<text text-anchor="middle" x="1183.85" y="-119.5" font-family="Helvetica,sans-Serif" font-size="10.00">AMReX_FillPatchUtil.H</text>
</a>
</g>
</g>
<!-- Node23&#45;&gt;Node28 -->
<g id="edge53" class="edge">
<title>Node23&#45;&gt;Node28</title>
<path fill="none" stroke="midnightblue" d="M1148.75,-168.4C1155.44,-159.75 1164.03,-148.64 1171.03,-139.58"/>
<polygon fill="midnightblue" stroke="midnightblue" points="1173.81,-141.71 1177.16,-131.66 1168.27,-137.43 1173.81,-141.71"/>
</g>
<!-- Node24&#45;&gt;Node25 -->
<g id="edge44" class="edge">
<title>Node24&#45;&gt;Node25</title>
<path fill="none" stroke="midnightblue" d="M1671.86,-112.44C1691.44,-103.64 1722.16,-89.81 1744.58,-79.72"/>
<polygon fill="midnightblue" stroke="midnightblue" points="1746.24,-82.81 1753.92,-75.52 1743.37,-76.43 1746.24,-82.81"/>
</g>
<!-- Node26 -->
<g id="node26" class="node">
<title>Node26</title>
<g id="a_node26"><a xlink:title=" ">
<polygon fill="white" stroke="#bfbfbf" points="1836.85,-56.5 1836.85,-75.5 1970.85,-75.5 1970.85,-56.5 1836.85,-56.5"/>
<text text-anchor="middle" x="1903.85" y="-63.5" font-family="Helvetica,sans-Serif" font-size="10.00">AMReX_GpuQualifiers.H</text>
</a>
</g>
</g>
<!-- Node24&#45;&gt;Node26 -->
<g id="edge45" class="edge">
<title>Node24&#45;&gt;Node26</title>
<path fill="none" stroke="midnightblue" d="M1692.62,-112.44C1736.41,-103.02 1806.86,-87.87 1854.23,-77.68"/>
<polygon fill="midnightblue" stroke="midnightblue" points="1855.22,-81.04 1864.26,-75.52 1853.75,-74.2 1855.22,-81.04"/>
</g>
<!-- Node27 -->
<g id="node27" class="node">
<title>Node27</title>
<g id="a_node27"><a xlink:title=" ">
<polygon fill="white" stroke="#bfbfbf" points="1988.85,-56.5 1988.85,-75.5 2104.85,-75.5 2104.85,-56.5 1988.85,-56.5"/>
<text text-anchor="middle" x="2046.85" y="-63.5" font-family="Helvetica,sans-Serif" font-size="10.00">AMReX_Extension.H</text>
</a>
</g>
</g>
<!-- Node24&#45;&gt;Node27 -->
<g id="edge46" class="edge">
<title>Node24&#45;&gt;Node27</title>
<path fill="none" stroke="midnightblue" d="M1715.28,-112.44C1786.99,-102.62 1904.25,-86.54 1978.4,-76.38"/>
<polygon fill="midnightblue" stroke="midnightblue" points="1979.13,-79.81 1988.56,-74.99 1978.18,-72.88 1979.13,-79.81"/>
</g>
<!-- Node29&#45;&gt;Node3 -->
<g id="edge56" class="edge">
<title>Node29&#45;&gt;Node3</title>
<path fill="none" stroke="midnightblue" d="M1526.63,-173.98C1494.83,-163.64 1441.08,-146.16 1405.53,-134.6"/>
<polygon fill="midnightblue" stroke="midnightblue" points="1406.61,-131.27 1396.02,-131.51 1404.45,-137.93 1406.61,-131.27"/>
</g>
<!-- Node29&#45;&gt;Node10 -->
<g id="edge57" class="edge">
<title>Node29&#45;&gt;Node10</title>
<path fill="none" stroke="midnightblue" d="M1552.96,-173.64C1553.6,-159.15 1556.81,-130.16 1571.85,-112 1584.59,-96.61 1603.85,-86.1 1621.54,-79.13"/>
<polygon fill="midnightblue" stroke="midnightblue" points="1622.97,-82.33 1631.16,-75.61 1620.56,-75.76 1622.97,-82.33"/>
</g>
<!-- Node29&#45;&gt;Node12 -->
<g id="edge55" class="edge">
<title>Node29&#45;&gt;Node12</title>
<path fill="none" stroke="midnightblue" d="M1592.08,-173.98C1629.25,-165.33 1686.3,-150.6 1733.85,-132 1751.99,-124.9 1754.18,-117.56 1772.85,-112 1920.04,-68.15 2220.51,-166.51 2113.85,-56 2073.31,-14 1232.28,-10.68 941.07,-10.8"/>
<polygon fill="midnightblue" stroke="midnightblue" points="940.94,-7.3 930.94,-10.8 940.95,-14.3 940.94,-7.3"/>
</g>
<!-- Node29&#45;&gt;Node21 -->
<g id="edge60" class="edge">
<title>Node29&#45;&gt;Node21</title>
<path fill="none" stroke="midnightblue" d="M1488.93,-173.97C1436.93,-166.04 1362.08,-152.36 1298.85,-132 1278.4,-125.42 1275.27,-118.66 1254.85,-112 1206.1,-96.11 1149.34,-84.61 1105.95,-77.21"/>
<polygon fill="midnightblue" stroke="midnightblue" points="1106.51,-73.75 1096.07,-75.55 1105.35,-80.66 1106.51,-73.75"/>
</g>
<!-- Node30 -->
<g id="node30" class="node">
<title>Node30</title>
<g id="a_node30"><a xlink:title=" ">
<polygon fill="white" stroke="#bfbfbf" points="1781.35,-112.5 1781.35,-131.5 1898.35,-131.5 1898.35,-112.5 1781.35,-112.5"/>
<text text-anchor="middle" x="1839.85" y="-119.5" font-family="Helvetica,sans-Serif" font-size="10.00">AMReX_FArrayBox.H</text>
</a>
</g>
</g>
<!-- Node29&#45;&gt;Node30 -->
<g id="edge58" class="edge">
<title>Node29&#45;&gt;Node30</title>
<path fill="none" stroke="midnightblue" d="M1593.97,-173.98C1645.33,-163.33 1733.21,-145.11 1788.81,-133.58"/>
<polygon fill="midnightblue" stroke="midnightblue" points="1789.72,-136.97 1798.81,-131.51 1788.3,-130.11 1789.72,-136.97"/>
</g>
<!-- Node31 -->
<g id="node31" class="node">
<title>Node31</title>
<g id="a_node31"><a xlink:title=" ">
<polygon fill="white" stroke="#bfbfbf" points="1916.35,-112.5 1916.35,-131.5 2031.35,-131.5 2031.35,-112.5 1916.35,-112.5"/>
<text text-anchor="middle" x="1973.85" y="-119.5" font-family="Helvetica,sans-Serif" font-size="10.00">AMReX_Geometry.H</text>
</a>
</g>
</g>
<!-- Node29&#45;&gt;Node31 -->
<g id="edge59" class="edge">
<title>Node29&#45;&gt;Node31</title>
<path fill="none" stroke="midnightblue" d="M1613.17,-173.98C1690.79,-163 1825.26,-144 1906.26,-132.55"/>
<polygon fill="midnightblue" stroke="midnightblue" points="1906.93,-135.99 1916.35,-131.13 1905.95,-129.06 1906.93,-135.99"/>
</g>
<!-- Node32&#45;&gt;Node2 -->
<g id="edge66" class="edge">
<title>Node32&#45;&gt;Node2</title>
<path fill="none" stroke="midnightblue" d="M2060.59,-168.49C2060.6,-152.05 2057.78,-125.34 2040.85,-112 1982.57,-66.09 779.97,-79.28 705.85,-76 666.99,-74.28 622.35,-71.39 592.78,-69.36"/>
<polygon fill="midnightblue" stroke="midnightblue" points="592.82,-65.85 582.6,-68.65 592.33,-72.83 592.82,-65.85"/>
</g>
<!-- Node32&#45;&gt;Node3 -->
<g id="edge63" class="edge">
<title>Node32&#45;&gt;Node3</title>
<path fill="none" stroke="midnightblue" d="M1976.28,-175.29C1839.69,-163.51 1570.96,-140.34 1442.1,-129.23"/>
<polygon fill="midnightblue" stroke="midnightblue" points="1442.21,-125.73 1431.94,-128.35 1441.61,-132.7 1442.21,-125.73"/>
</g>
<!-- Node32&#45;&gt;Node11 -->
<g id="edge64" class="edge">
<title>Node32&#45;&gt;Node11</title>
<path fill="none" stroke="midnightblue" d="M2143.37,-170.38C2168.56,-162.99 2194.39,-151.11 2212.85,-132 2224.71,-119.72 2229.23,-100.47 2230.92,-86.09"/>
<polygon fill="midnightblue" stroke="midnightblue" points="2234.43,-86.09 2231.75,-75.84 2227.45,-85.52 2234.43,-86.09"/>
</g>
<!-- Node33 -->
<g id="node33" class="node">
<title>Node33</title>
<g id="a_node33"><a xlink:title=" ">
<polygon fill="white" stroke="#bfbfbf" points="2087.85,-112.5 2087.85,-131.5 2203.85,-131.5 2203.85,-112.5 2087.85,-112.5"/>
<text text-anchor="middle" x="2145.85" y="-119.5" font-family="Helvetica,sans-Serif" font-size="10.00">AMReX_BC_TYPES.H</text>
</a>
</g>
</g>
<!-- Node32&#45;&gt;Node33 -->
<g id="edge65" class="edge">
<title>Node32&#45;&gt;Node33</title>
<path fill="none" stroke="midnightblue" d="M2080.23,-168.4C2093.76,-159.04 2111.46,-146.79 2125.07,-137.38"/>
<polygon fill="midnightblue" stroke="midnightblue" points="2127.1,-140.23 2133.34,-131.66 2123.12,-134.47 2127.1,-140.23"/>
</g>
</g>
</svg>
