<?xml version="1.0" encoding="UTF-8" standalone="no"?>
<!DOCTYPE svg PUBLIC "-//W3C//DTD SVG 1.1//EN"
 "http://www.w3.org/Graphics/SVG/1.1/DTD/svg11.dtd">
<!-- Generated by graphviz version 2.43.0 (0)
 -->
<!-- Title: FieldPlaneAveraging.H Pages: 1 -->
<!--zoomable 341 -->
<svg id="main" version="1.1" xmlns="http://www.w3.org/2000/svg" xmlns:xlink="http://www.w3.org/1999/xlink" xml:space="preserve" onload="init(evt)">
<style type="text/css"><![CDATA[
.edge:hover path { stroke: red; }
.edge:hover polygon { stroke: red; fill: red; }
]]></style>
<script type="text/javascript"><![CDATA[
var edges = document.getElementsByTagName('g');
if (edges && edges.length) {
  for (var i=0;i<edges.length;i++) {
    if (edges[i].id.substr(0,4)=='edge') {
      edges[i].setAttribute('class','edge');
    }
  }
}
]]></script>
        <defs>
                <circle id="rim" cx="0" cy="0" r="7"/>
                <circle id="rim2" cx="0" cy="0" r="3.5"/>
                <g id="zoomPlus">
                        <use xlink:href="#rim" fill="#404040">
                                <set attributeName="fill" to="#808080" begin="zoomplus.mouseover" end="zoomplus.mouseout"/>
                        </use>
                        <path d="M-4,0h8M0,-4v8" fill="none" stroke="white" stroke-width="1.5" pointer-events="none"/>
                </g>
                <g id="zoomMin">
                        <use xlink:href="#rim" fill="#404040">
                                <set attributeName="fill" to="#808080" begin="zoomminus.mouseover" end="zoomminus.mouseout"/>
                        </use>
                        <path d="M-4,0h8" fill="none" stroke="white" stroke-width="1.5" pointer-events="none"/>
                </g>
                <g id="dirArrow">
                        <path fill="none" stroke="white" stroke-width="1.5" d="M0,-3.0v7 M-2.5,-0.5L0,-3.0L2.5,-0.5"/>
                </g>
               <g id="resetDef">
                       <use xlink:href="#rim2" fill="#404040">
                               <set attributeName="fill" to="#808080" begin="reset.mouseover" end="reset.mouseout"/>
                       </use>
               </g>
        </defs>

<script type="text/javascript">
var viewWidth = 2856;
var viewHeight = 341;
var sectionId = 'dynsection-0';
</script>
<script xlink:href="svgpan.js"/>
<svg id="graph" class="graph">
<g id="viewport">
<title>FieldPlaneAveraging.H</title>
<polygon fill="white" stroke="transparent" points="-4,4 -4,-337 2851.5,-337 2851.5,4 -4,4"/>
<!-- Node1 -->
<g id="node1" class="node">
<title>Node1</title>
<g id="a_node1"><a xlink:title=" ">
<polygon fill="#bfbfbf" stroke="black" points="709,-313.5 709,-332.5 835,-332.5 835,-313.5 709,-313.5"/>
<text text-anchor="middle" x="772" y="-320.5" font-family="Helvetica,sans-Serif" font-size="10.00">FieldPlaneAveraging.H</text>
</a>
</g>
</g>
<!-- Node2 -->
<g id="node2" class="node">
<title>Node2</title>
<g id="a_node2"><a xlink:href="_direction_selector_8_h.html" target="_top" xlink:title=" ">
<polygon fill="white" stroke="black" points="57.5,-246.5 57.5,-276.5 170.5,-276.5 170.5,-246.5 57.5,-246.5"/>
<text text-anchor="start" x="65.5" y="-264.5" font-family="Helvetica,sans-Serif" font-size="10.00">amr&#45;wind/utilities</text>
<text text-anchor="middle" x="114" y="-253.5" font-family="Helvetica,sans-Serif" font-size="10.00">/DirectionSelector.H</text>
</a>
</g>
</g>
<!-- Node1&#45;&gt;Node2 -->
<g id="edge1" class="edge">
<title>Node1&#45;&gt;Node2</title>
<path fill="none" stroke="midnightblue" d="M708.91,-316.29C584.42,-305.04 308.21,-280.06 180.79,-268.54"/>
<polygon fill="midnightblue" stroke="midnightblue" points="181.04,-265.05 170.77,-267.63 180.41,-272.02 181.04,-265.05"/>
</g>
<!-- Node5 -->
<g id="node5" class="node">
<title>Node5</title>
<g id="a_node5"><a xlink:href="_c_f_d_sim_8_h.html" target="_top" xlink:title=" ">
<polygon fill="white" stroke="black" points="847,-252 847,-271 963,-271 963,-252 847,-252"/>
<text text-anchor="middle" x="905" y="-259" font-family="Helvetica,sans-Serif" font-size="10.00">amr&#45;wind/CFDSim.H</text>
</a>
</g>
</g>
<!-- Node1&#45;&gt;Node5 -->
<g id="edge4" class="edge">
<title>Node1&#45;&gt;Node5</title>
<path fill="none" stroke="midnightblue" d="M791.06,-313.48C813.47,-303.45 850.91,-286.7 876.71,-275.15"/>
<polygon fill="midnightblue" stroke="midnightblue" points="878.28,-278.29 885.98,-271.01 875.42,-271.9 878.28,-278.29"/>
</g>
<!-- Node7 -->
<g id="node7" class="node">
<title>Node7</title>
<g id="a_node7"><a xlink:href="_sim_time_8_h.html" target="_top" xlink:title=" ">
<polygon fill="white" stroke="black" points="402,-185 402,-204 546,-204 546,-185 402,-185"/>
<text text-anchor="middle" x="474" y="-192" font-family="Helvetica,sans-Serif" font-size="10.00">amr&#45;wind/core/SimTime.H</text>
</a>
</g>
</g>
<!-- Node1&#45;&gt;Node7 -->
<g id="edge77" class="edge">
<title>Node1&#45;&gt;Node7</title>
<path fill="none" stroke="midnightblue" d="M751.52,-313.31C699.82,-291.36 563.91,-233.67 503.58,-208.06"/>
<polygon fill="midnightblue" stroke="midnightblue" points="504.8,-204.77 494.23,-204.09 502.07,-211.22 504.8,-204.77"/>
</g>
<!-- Node18 -->
<g id="node18" class="node">
<title>Node18</title>
<g id="a_node18"><a xlink:href="_field_8_h.html" target="_top" xlink:title=" ">
<polygon fill="white" stroke="black" points="1193,-118 1193,-137 1317,-137 1317,-118 1193,-118"/>
<text text-anchor="middle" x="1255" y="-125" font-family="Helvetica,sans-Serif" font-size="10.00">amr&#45;wind/core/Field.H</text>
</a>
</g>
</g>
<!-- Node1&#45;&gt;Node18 -->
<g id="edge76" class="edge">
<title>Node1&#45;&gt;Node18</title>
<path fill="none" stroke="midnightblue" d="M827.87,-313.47C868.61,-306.29 924.73,-294.38 972,-277 1074.56,-239.3 1186.8,-171.72 1233.13,-142.55"/>
<polygon fill="midnightblue" stroke="midnightblue" points="1235.18,-145.4 1241.75,-137.09 1231.43,-139.49 1235.18,-145.4"/>
</g>
<!-- Node3 -->
<g id="node3" class="node">
<title>Node3</title>
<g id="a_node3"><a xlink:title=" ">
<polygon fill="white" stroke="#bfbfbf" points="0,-185 0,-204 86,-204 86,-185 0,-185"/>
<text text-anchor="middle" x="43" y="-192" font-family="Helvetica,sans-Serif" font-size="10.00">AMReX_Box.H</text>
</a>
</g>
</g>
<!-- Node2&#45;&gt;Node3 -->
<g id="edge2" class="edge">
<title>Node2&#45;&gt;Node3</title>
<path fill="none" stroke="midnightblue" d="M98.59,-246.4C87.19,-235.96 71.67,-221.75 59.93,-211"/>
<polygon fill="midnightblue" stroke="midnightblue" points="62.24,-208.37 52.5,-204.19 57.51,-213.53 62.24,-208.37"/>
</g>
<!-- Node4 -->
<g id="node4" class="node">
<title>Node4</title>
<g id="a_node4"><a xlink:title=" ">
<polygon fill="white" stroke="#bfbfbf" points="562.5,-56.5 562.5,-75.5 649.5,-75.5 649.5,-56.5 562.5,-56.5"/>
<text text-anchor="middle" x="606" y="-63.5" font-family="Helvetica,sans-Serif" font-size="10.00">AMReX_Gpu.H</text>
</a>
</g>
</g>
<!-- Node2&#45;&gt;Node4 -->
<g id="edge3" class="edge">
<title>Node2&#45;&gt;Node4</title>
<path fill="none" stroke="midnightblue" d="M110.67,-246.12C104.72,-216.28 96.05,-147.44 133,-112 165.15,-81.16 474.09,-81.78 552.23,-75.7"/>
<polygon fill="midnightblue" stroke="midnightblue" points="552.76,-79.16 562.37,-74.7 552.08,-72.2 552.76,-79.16"/>
</g>
<!-- Node6 -->
<g id="node6" class="node">
<title>Node6</title>
<g id="a_node6"><a xlink:title=" ">
<polygon fill="white" stroke="#bfbfbf" points="2248,-118 2248,-137 2358,-137 2358,-118 2248,-118"/>
<text text-anchor="middle" x="2303" y="-125" font-family="Helvetica,sans-Serif" font-size="10.00">AMReX_AmrCore.H</text>
</a>
</g>
</g>
<!-- Node5&#45;&gt;Node6 -->
<g id="edge5" class="edge">
<title>Node5&#45;&gt;Node6</title>
<path fill="none" stroke="midnightblue" d="M963.08,-259.79C1111.01,-257.46 1513.81,-247.86 1847,-210 1996.96,-192.96 2172.12,-157.1 2254.94,-139.18"/>
<polygon fill="midnightblue" stroke="midnightblue" points="2255.78,-142.57 2264.81,-137.03 2254.29,-135.73 2255.78,-142.57"/>
</g>
<!-- Node5&#45;&gt;Node7 -->
<g id="edge6" class="edge">
<title>Node5&#45;&gt;Node7</title>
<path fill="none" stroke="midnightblue" d="M848.21,-251.94C768.81,-239.96 624.89,-218.26 540.55,-205.54"/>
<polygon fill="midnightblue" stroke="midnightblue" points="540.98,-202.06 530.57,-204.03 539.94,-208.98 540.98,-202.06"/>
</g>
<!-- Node11 -->
<g id="node11" class="node">
<title>Node11</title>
<g id="a_node11"><a xlink:href="_field_repo_8_h.html" target="_top" xlink:title=" ">
<polygon fill="white" stroke="black" points="1688.5,-185 1688.5,-204 1837.5,-204 1837.5,-185 1688.5,-185"/>
<text text-anchor="middle" x="1763" y="-192" font-family="Helvetica,sans-Serif" font-size="10.00">amr&#45;wind/core/FieldRepo.H</text>
</a>
</g>
</g>
<!-- Node5&#45;&gt;Node11 -->
<g id="edge10" class="edge">
<title>Node5&#45;&gt;Node11</title>
<path fill="none" stroke="midnightblue" d="M963.3,-256.08C1111.78,-244.84 1504.68,-215.07 1678.38,-201.91"/>
<polygon fill="midnightblue" stroke="midnightblue" points="1678.79,-205.39 1688.49,-201.14 1678.26,-198.41 1678.79,-205.39"/>
</g>
<!-- Node30 -->
<g id="node30" class="node">
<title>Node30</title>
<g id="a_node30"><a xlink:href="_p_d_e_base_8_h.html" target="_top" xlink:title=" ">
<polygon fill="white" stroke="black" points="2308.5,-179.5 2308.5,-209.5 2463.5,-209.5 2463.5,-179.5 2308.5,-179.5"/>
<text text-anchor="start" x="2316.5" y="-197.5" font-family="Helvetica,sans-Serif" font-size="10.00">amr&#45;wind/equation_systems</text>
<text text-anchor="middle" x="2386" y="-186.5" font-family="Helvetica,sans-Serif" font-size="10.00">/PDEBase.H</text>
</a>
</g>
</g>
<!-- Node5&#45;&gt;Node30 -->
<g id="edge48" class="edge">
<title>Node5&#45;&gt;Node30</title>
<path fill="none" stroke="midnightblue" d="M963.12,-258.14C1134.91,-251.12 1655.35,-229.69 2087,-210 2158.04,-206.76 2238.56,-202.84 2298.13,-199.89"/>
<polygon fill="midnightblue" stroke="midnightblue" points="2298.44,-203.38 2308.25,-199.39 2298.09,-196.39 2298.44,-203.38"/>
</g>
<!-- Node38 -->
<g id="node38" class="node">
<title>Node38</title>
<g id="a_node38"><a xlink:href="_physics_8_h.html" target="_top" xlink:title=" ">
<polygon fill="white" stroke="black" points="675.5,-185 675.5,-204 812.5,-204 812.5,-185 675.5,-185"/>
<text text-anchor="middle" x="744" y="-192" font-family="Helvetica,sans-Serif" font-size="10.00">amr&#45;wind/core/Physics.H</text>
</a>
</g>
</g>
<!-- Node5&#45;&gt;Node38 -->
<g id="edge65" class="edge">
<title>Node5&#45;&gt;Node38</title>
<path fill="none" stroke="midnightblue" d="M883.62,-251.87C855.64,-240.57 806.41,-220.7 774.51,-207.82"/>
<polygon fill="midnightblue" stroke="midnightblue" points="775.79,-204.56 765.21,-204.06 773.17,-211.05 775.79,-204.56"/>
</g>
<!-- Node40 -->
<g id="node40" class="node">
<title>Node40</title>
<g id="a_node40"><a xlink:href="_mesh_map_8_h.html" target="_top" xlink:title=" ">
<polygon fill="white" stroke="black" points="831,-185 831,-204 979,-204 979,-185 831,-185"/>
<text text-anchor="middle" x="905" y="-192" font-family="Helvetica,sans-Serif" font-size="10.00">amr&#45;wind/core/MeshMap.H</text>
</a>
</g>
</g>
<!-- Node5&#45;&gt;Node40 -->
<g id="edge70" class="edge">
<title>Node5&#45;&gt;Node40</title>
<path fill="none" stroke="midnightblue" d="M905,-251.73C905,-242.18 905,-226.62 905,-214.28"/>
<polygon fill="midnightblue" stroke="midnightblue" points="908.5,-214.13 905,-204.13 901.5,-214.13 908.5,-214.13"/>
</g>
<!-- Node8 -->
<g id="node8" class="node">
<title>Node8</title>
<g id="a_node8"><a xlink:title=" ">
<polygon fill="white" stroke="#bfbfbf" points="428,-118 428,-137 520,-137 520,-118 428,-118"/>
<text text-anchor="middle" x="474" y="-125" font-family="Helvetica,sans-Serif" font-size="10.00">AMReX_REAL.H</text>
</a>
</g>
</g>
<!-- Node7&#45;&gt;Node8 -->
<g id="edge7" class="edge">
<title>Node7&#45;&gt;Node8</title>
<path fill="none" stroke="midnightblue" d="M474,-184.73C474,-175.18 474,-159.62 474,-147.28"/>
<polygon fill="midnightblue" stroke="midnightblue" points="477.5,-147.13 474,-137.13 470.5,-147.13 477.5,-147.13"/>
</g>
<!-- Node9 -->
<g id="node9" class="node">
<title>Node9</title>
<g id="a_node9"><a xlink:title=" ">
<polygon fill="white" stroke="#bfbfbf" points="142,-118 142,-137 276,-137 276,-118 142,-118"/>
<text text-anchor="middle" x="209" y="-125" font-family="Helvetica,sans-Serif" font-size="10.00">AMReX_GpuQualifiers.H</text>
</a>
</g>
</g>
<!-- Node7&#45;&gt;Node9 -->
<g id="edge8" class="edge">
<title>Node7&#45;&gt;Node9</title>
<path fill="none" stroke="midnightblue" d="M439.08,-184.94C391.52,-173.27 306.3,-152.37 254,-139.54"/>
<polygon fill="midnightblue" stroke="midnightblue" points="254.54,-136.07 243.99,-137.08 252.87,-142.86 254.54,-136.07"/>
</g>
<!-- Node10 -->
<g id="node10" class="node">
<title>Node10</title>
<g id="a_node10"><a xlink:title=" ">
<polygon fill="white" stroke="#bfbfbf" points="294,-118 294,-137 410,-137 410,-118 294,-118"/>
<text text-anchor="middle" x="352" y="-125" font-family="Helvetica,sans-Serif" font-size="10.00">AMReX_Extension.H</text>
</a>
</g>
</g>
<!-- Node7&#45;&gt;Node10 -->
<g id="edge9" class="edge">
<title>Node7&#45;&gt;Node10</title>
<path fill="none" stroke="midnightblue" d="M457.8,-184.87C437.2,-173.89 401.41,-154.82 377.22,-141.94"/>
<polygon fill="midnightblue" stroke="midnightblue" points="378.74,-138.78 368.27,-137.17 375.45,-144.96 378.74,-138.78"/>
</g>
<!-- Node11&#45;&gt;Node6 -->
<g id="edge45" class="edge">
<title>Node11&#45;&gt;Node6</title>
<path fill="none" stroke="midnightblue" d="M1837.54,-187.83C1930.65,-180.22 2094.69,-165.05 2234,-143 2241.15,-141.87 2248.68,-140.49 2256.02,-139.03"/>
<polygon fill="midnightblue" stroke="midnightblue" points="2256.79,-142.45 2265.88,-137.01 2255.39,-135.59 2256.79,-142.45"/>
</g>
<!-- Node12 -->
<g id="node12" class="node">
<title>Node12</title>
<g id="a_node12"><a xlink:title=" ">
<polygon fill="white" stroke="#bfbfbf" points="1633,-0.5 1633,-19.5 1677,-19.5 1677,-0.5 1633,-0.5"/>
<text text-anchor="middle" x="1655" y="-7.5" font-family="Helvetica,sans-Serif" font-size="10.00">string</text>
</a>
</g>
</g>
<!-- Node11&#45;&gt;Node12 -->
<g id="edge11" class="edge">
<title>Node11&#45;&gt;Node12</title>
<path fill="none" stroke="midnightblue" d="M1734.66,-184.93C1714.41,-177.28 1688.32,-163.98 1674,-143 1650.48,-108.53 1650.66,-57.16 1652.83,-29.78"/>
<polygon fill="midnightblue" stroke="midnightblue" points="1656.33,-29.92 1653.81,-19.63 1649.36,-29.24 1656.33,-29.92"/>
</g>
<!-- Node13 -->
<g id="node13" class="node">
<title>Node13</title>
<g id="a_node13"><a xlink:title=" ">
<polygon fill="white" stroke="#bfbfbf" points="1016.5,-56.5 1016.5,-75.5 1109.5,-75.5 1109.5,-56.5 1016.5,-56.5"/>
<text text-anchor="middle" x="1063" y="-63.5" font-family="Helvetica,sans-Serif" font-size="10.00">unordered_map</text>
</a>
</g>
</g>
<!-- Node11&#45;&gt;Node13 -->
<g id="edge12" class="edge">
<title>Node11&#45;&gt;Node13</title>
<path fill="none" stroke="midnightblue" d="M1688.43,-191.35C1553.78,-186.74 1275.53,-173.73 1184,-143 1143.72,-129.48 1103.18,-100.03 1080.76,-82.02"/>
<polygon fill="midnightblue" stroke="midnightblue" points="1082.78,-79.15 1072.83,-75.52 1078.34,-84.57 1082.78,-79.15"/>
</g>
<!-- Node14 -->
<g id="node14" class="node">
<title>Node14</title>
<g id="a_node14"><a xlink:href="_field_desc_types_8_h.html" target="_top" xlink:title=" ">
<polygon fill="white" stroke="black" points="2138,-0.5 2138,-19.5 2314,-19.5 2314,-0.5 2138,-0.5"/>
<text text-anchor="middle" x="2226" y="-7.5" font-family="Helvetica,sans-Serif" font-size="10.00">amr&#45;wind/core/FieldDescTypes.H</text>
</a>
</g>
</g>
<!-- Node11&#45;&gt;Node14 -->
<g id="edge13" class="edge">
<title>Node11&#45;&gt;Node14</title>
<path fill="none" stroke="midnightblue" d="M1806.93,-184.99C1818.62,-182.87 1831.27,-180.72 1843,-179 1984.6,-158.23 2033.09,-203.06 2163,-143 2181.27,-134.55 2177.99,-120.98 2196,-112 2280.36,-69.96 2344.27,-148.08 2405,-76 2434.29,-41.23 2380.48,-25.06 2324.39,-17.54"/>
<polygon fill="midnightblue" stroke="midnightblue" points="2324.63,-14.04 2314.28,-16.28 2323.77,-20.99 2324.63,-14.04"/>
</g>
<!-- Node15 -->
<g id="node15" class="node">
<title>Node15</title>
<g id="a_node15"><a xlink:href="_field_utils_8_h.html" target="_top" xlink:title=" ">
<polygon fill="white" stroke="black" points="2490,-56.5 2490,-75.5 2636,-75.5 2636,-56.5 2490,-56.5"/>
<text text-anchor="middle" x="2563" y="-63.5" font-family="Helvetica,sans-Serif" font-size="10.00">amr&#45;wind/core/FieldUtils.H</text>
</a>
</g>
</g>
<!-- Node11&#45;&gt;Node15 -->
<g id="edge14" class="edge">
<title>Node11&#45;&gt;Node15</title>
<path fill="none" stroke="midnightblue" d="M1837.6,-189.34C1943.71,-182.65 2132.42,-167.69 2196,-143 2217.96,-134.47 2217.13,-120.77 2239,-112 2260.92,-103.21 2391.14,-86.85 2479.67,-76.46"/>
<polygon fill="midnightblue" stroke="midnightblue" points="2480.19,-79.92 2489.72,-75.29 2479.38,-72.97 2480.19,-79.92"/>
</g>
<!-- Node16 -->
<g id="node16" class="node">
<title>Node16</title>
<g id="a_node16"><a xlink:title=" ">
<polygon fill="white" stroke="#bfbfbf" points="1320.5,-0.5 1320.5,-19.5 1429.5,-19.5 1429.5,-0.5 1320.5,-0.5"/>
<text text-anchor="middle" x="1375" y="-7.5" font-family="Helvetica,sans-Serif" font-size="10.00">AMReX_MultiFab.H</text>
</a>
</g>
</g>
<!-- Node11&#45;&gt;Node16 -->
<g id="edge46" class="edge">
<title>Node11&#45;&gt;Node16</title>
<path fill="none" stroke="midnightblue" d="M1688.2,-186.48C1609.12,-175.43 1484.98,-147.25 1405,-76 1391.39,-63.88 1383.53,-44.32 1379.3,-29.82"/>
<polygon fill="midnightblue" stroke="midnightblue" points="1382.63,-28.72 1376.73,-19.92 1375.85,-30.48 1382.63,-28.72"/>
</g>
<!-- Node11&#45;&gt;Node18 -->
<g id="edge18" class="edge">
<title>Node11&#45;&gt;Node18</title>
<path fill="none" stroke="midnightblue" d="M1693.25,-184.97C1613.06,-175.12 1477.47,-158.28 1361,-143 1349.82,-141.53 1337.98,-139.95 1326.42,-138.38"/>
<polygon fill="midnightblue" stroke="midnightblue" points="1326.74,-134.89 1316.36,-137.01 1325.8,-141.83 1326.74,-134.89"/>
</g>
<!-- Node25 -->
<g id="node25" class="node">
<title>Node25</title>
<g id="a_node25"><a xlink:href="_int_field_8_h.html" target="_top" xlink:title=" ">
<polygon fill="white" stroke="black" points="2016.5,-118 2016.5,-137 2153.5,-137 2153.5,-118 2016.5,-118"/>
<text text-anchor="middle" x="2085" y="-125" font-family="Helvetica,sans-Serif" font-size="10.00">amr&#45;wind/core/IntField.H</text>
</a>
</g>
</g>
<!-- Node11&#45;&gt;Node25 -->
<g id="edge33" class="edge">
<title>Node11&#45;&gt;Node25</title>
<path fill="none" stroke="midnightblue" d="M1805.43,-184.94C1863.91,-173.13 1969.22,-151.87 2032.56,-139.09"/>
<polygon fill="midnightblue" stroke="midnightblue" points="2033.63,-142.44 2042.74,-137.03 2032.24,-135.58 2033.63,-142.44"/>
</g>
<!-- Node26 -->
<g id="node26" class="node">
<title>Node26</title>
<g id="a_node26"><a xlink:title=" ">
<polygon fill="white" stroke="#bfbfbf" points="2048,-56.5 2048,-75.5 2160,-75.5 2160,-56.5 2048,-56.5"/>
<text text-anchor="middle" x="2104" y="-63.5" font-family="Helvetica,sans-Serif" font-size="10.00">AMReX_iMultiFab.H</text>
</a>
</g>
</g>
<!-- Node11&#45;&gt;Node26 -->
<g id="edge47" class="edge">
<title>Node11&#45;&gt;Node26</title>
<path fill="none" stroke="midnightblue" d="M1786.17,-184.9C1845.46,-162.91 2002.84,-104.53 2071.36,-79.11"/>
<polygon fill="midnightblue" stroke="midnightblue" points="2072.64,-82.37 2080.8,-75.61 2070.2,-75.8 2072.64,-82.37"/>
</g>
<!-- Node27 -->
<g id="node27" class="node">
<title>Node27</title>
<g id="a_node27"><a xlink:href="_scratch_field_8_h.html" target="_top" xlink:title=" ">
<polygon fill="white" stroke="black" points="1683,-118 1683,-137 1843,-137 1843,-118 1683,-118"/>
<text text-anchor="middle" x="1763" y="-125" font-family="Helvetica,sans-Serif" font-size="10.00">amr&#45;wind/core/ScratchField.H</text>
</a>
</g>
</g>
<!-- Node11&#45;&gt;Node27 -->
<g id="edge37" class="edge">
<title>Node11&#45;&gt;Node27</title>
<path fill="none" stroke="midnightblue" d="M1763,-184.73C1763,-175.18 1763,-159.62 1763,-147.28"/>
<polygon fill="midnightblue" stroke="midnightblue" points="1766.5,-147.13 1763,-137.13 1759.5,-147.13 1766.5,-147.13"/>
</g>
<!-- Node15&#45;&gt;Node14 -->
<g id="edge15" class="edge">
<title>Node15&#45;&gt;Node14</title>
<path fill="none" stroke="midnightblue" d="M2509.6,-56.44C2449.7,-46.85 2352.63,-31.29 2289.05,-21.1"/>
<polygon fill="midnightblue" stroke="midnightblue" points="2289.58,-17.64 2279.15,-19.52 2288.47,-24.55 2289.58,-17.64"/>
</g>
<!-- Node15&#45;&gt;Node16 -->
<g id="edge16" class="edge">
<title>Node15&#45;&gt;Node16</title>
<path fill="none" stroke="midnightblue" d="M2489.86,-60.54C2463.16,-58.99 2432.72,-57.32 2405,-56 1983.84,-36.01 1877.49,-51.02 1457,-20 1451.47,-19.59 1445.73,-19.1 1439.97,-18.56"/>
<polygon fill="midnightblue" stroke="midnightblue" points="1439.94,-15.04 1429.64,-17.55 1439.25,-22.01 1439.94,-15.04"/>
</g>
<!-- Node17 -->
<g id="node17" class="node">
<title>Node17</title>
<g id="a_node17"><a xlink:title=" ">
<polygon fill="white" stroke="#bfbfbf" points="2501,-0.5 2501,-19.5 2625,-19.5 2625,-0.5 2501,-0.5"/>
<text text-anchor="middle" x="2563" y="-7.5" font-family="Helvetica,sans-Serif" font-size="10.00">AMReX_Interpolater.H</text>
</a>
</g>
</g>
<!-- Node15&#45;&gt;Node17 -->
<g id="edge17" class="edge">
<title>Node15&#45;&gt;Node17</title>
<path fill="none" stroke="midnightblue" d="M2563,-56.08C2563,-49.01 2563,-38.86 2563,-29.99"/>
<polygon fill="midnightblue" stroke="midnightblue" points="2566.5,-29.75 2563,-19.75 2559.5,-29.75 2566.5,-29.75"/>
</g>
<!-- Node18&#45;&gt;Node4 -->
<g id="edge25" class="edge">
<title>Node18&#45;&gt;Node4</title>
<path fill="none" stroke="midnightblue" d="M1192.79,-121.89C1065.58,-112.37 778.46,-90.3 659.9,-75.98"/>
<polygon fill="midnightblue" stroke="midnightblue" points="659.98,-72.47 649.63,-74.71 659.12,-79.41 659.98,-72.47"/>
</g>
<!-- Node18&#45;&gt;Node12 -->
<g id="edge19" class="edge">
<title>Node18&#45;&gt;Node12</title>
<path fill="none" stroke="midnightblue" d="M1317.3,-122.48C1402.67,-116.1 1550.82,-101.69 1598,-76 1618.3,-64.95 1634.81,-43.66 1644.74,-28.46"/>
<polygon fill="midnightblue" stroke="midnightblue" points="1647.74,-30.27 1650.05,-19.93 1641.79,-26.57 1647.74,-30.27"/>
</g>
<!-- Node18&#45;&gt;Node13 -->
<g id="edge21" class="edge">
<title>Node18&#45;&gt;Node13</title>
<path fill="none" stroke="midnightblue" d="M1227.49,-117.98C1194.13,-107.64 1137.74,-90.16 1100.44,-78.6"/>
<polygon fill="midnightblue" stroke="midnightblue" points="1101.05,-75.13 1090.46,-75.51 1098.97,-81.81 1101.05,-75.13"/>
</g>
<!-- Node18&#45;&gt;Node14 -->
<g id="edge27" class="edge">
<title>Node18&#45;&gt;Node14</title>
<path fill="none" stroke="midnightblue" d="M1315.39,-117.95C1414.28,-104.09 1616.95,-76.21 1789,-56 1905.15,-42.36 2038.95,-28.91 2127.57,-20.32"/>
<polygon fill="midnightblue" stroke="midnightblue" points="2128,-23.8 2137.62,-19.35 2127.33,-16.83 2128,-23.8"/>
</g>
<!-- Node18&#45;&gt;Node16 -->
<g id="edge23" class="edge">
<title>Node18&#45;&gt;Node16</title>
<path fill="none" stroke="midnightblue" d="M1255.05,-117.59C1255.59,-103.02 1258.68,-73.92 1274,-56 1287.55,-40.16 1307.77,-29.66 1326.57,-22.82"/>
<polygon fill="midnightblue" stroke="midnightblue" points="1327.87,-26.08 1336.23,-19.57 1325.63,-19.44 1327.87,-26.08"/>
</g>
<!-- Node19 -->
<g id="node19" class="node">
<title>Node19</title>
<g id="a_node19"><a xlink:title=" ">
<polygon fill="white" stroke="#bfbfbf" points="940,-56.5 940,-75.5 998,-75.5 998,-56.5 940,-56.5"/>
<text text-anchor="middle" x="969" y="-63.5" font-family="Helvetica,sans-Serif" font-size="10.00">memory</text>
</a>
</g>
</g>
<!-- Node18&#45;&gt;Node19 -->
<g id="edge20" class="edge">
<title>Node18&#45;&gt;Node19</title>
<path fill="none" stroke="midnightblue" d="M1211.01,-117.98C1163.4,-108.66 1085,-93.03 1007.91,-76.15"/>
<polygon fill="midnightblue" stroke="midnightblue" points="1008.54,-72.7 998.02,-73.97 1007.04,-79.54 1008.54,-72.7"/>
</g>
<!-- Node20 -->
<g id="node20" class="node">
<title>Node20</title>
<g id="a_node20"><a xlink:title=" ">
<polygon fill="white" stroke="#bfbfbf" points="1283,-56.5 1283,-75.5 1347,-75.5 1347,-56.5 1283,-56.5"/>
<text text-anchor="middle" x="1315" y="-63.5" font-family="Helvetica,sans-Serif" font-size="10.00">algorithm</text>
</a>
</g>
</g>
<!-- Node18&#45;&gt;Node20 -->
<g id="edge22" class="edge">
<title>Node18&#45;&gt;Node20</title>
<path fill="none" stroke="midnightblue" d="M1263.6,-117.98C1272.86,-108.78 1287.82,-93.96 1299.21,-82.66"/>
<polygon fill="midnightblue" stroke="midnightblue" points="1301.78,-85.04 1306.42,-75.51 1296.85,-80.07 1301.78,-85.04"/>
</g>
<!-- Node21 -->
<g id="node21" class="node">
<title>Node21</title>
<g id="a_node21"><a xlink:title=" ">
<polygon fill="white" stroke="#bfbfbf" points="1127.5,-56.5 1127.5,-75.5 1226.5,-75.5 1226.5,-56.5 1127.5,-56.5"/>
<text text-anchor="middle" x="1177" y="-63.5" font-family="Helvetica,sans-Serif" font-size="10.00">AMReX_BCRec.H</text>
</a>
</g>
</g>
<!-- Node18&#45;&gt;Node21 -->
<g id="edge24" class="edge">
<title>Node18&#45;&gt;Node21</title>
<path fill="none" stroke="midnightblue" d="M1243.82,-117.98C1231.43,-108.52 1211.21,-93.1 1196.25,-81.69"/>
<polygon fill="midnightblue" stroke="midnightblue" points="1198.23,-78.79 1188.15,-75.51 1193.98,-84.36 1198.23,-78.79"/>
</g>
<!-- Node22 -->
<g id="node22" class="node">
<title>Node22</title>
<g id="a_node22"><a xlink:href="incflo__enums_8_h.html" target="_top" xlink:title=" ">
<polygon fill="white" stroke="black" points="2254.5,-56.5 2254.5,-75.5 2395.5,-75.5 2395.5,-56.5 2254.5,-56.5"/>
<text text-anchor="middle" x="2325" y="-63.5" font-family="Helvetica,sans-Serif" font-size="10.00">amr&#45;wind/incflo_enums.H</text>
</a>
</g>
</g>
<!-- Node18&#45;&gt;Node22 -->
<g id="edge26" class="edge">
<title>Node18&#45;&gt;Node22</title>
<path fill="none" stroke="midnightblue" d="M1317.06,-123.12C1464.71,-115.08 1848.49,-94.1 2169,-76 2193.41,-74.62 2219.97,-73.1 2244.14,-71.7"/>
<polygon fill="midnightblue" stroke="midnightblue" points="2244.55,-75.18 2254.33,-71.11 2244.15,-68.2 2244.55,-75.18"/>
</g>
<!-- Node23 -->
<g id="node23" class="node">
<title>Node23</title>
<g id="a_node23"><a xlink:href="_view_field_8_h.html" target="_top" xlink:title=" ">
<polygon fill="white" stroke="black" points="1441,-56.5 1441,-75.5 1589,-75.5 1589,-56.5 1441,-56.5"/>
<text text-anchor="middle" x="1515" y="-63.5" font-family="Helvetica,sans-Serif" font-size="10.00">amr&#45;wind/core/ViewField.H</text>
</a>
</g>
</g>
<!-- Node18&#45;&gt;Node23 -->
<g id="edge28" class="edge">
<title>Node18&#45;&gt;Node23</title>
<path fill="none" stroke="midnightblue" d="M1292.25,-117.98C1338.49,-107.39 1417.4,-89.34 1467.82,-77.8"/>
<polygon fill="midnightblue" stroke="midnightblue" points="1468.85,-81.15 1477.82,-75.51 1467.29,-74.33 1468.85,-81.15"/>
</g>
<!-- Node23&#45;&gt;Node12 -->
<g id="edge29" class="edge">
<title>Node23&#45;&gt;Node12</title>
<path fill="none" stroke="midnightblue" d="M1537.18,-56.44C1560.43,-47.48 1597.15,-33.31 1623.42,-23.18"/>
<polygon fill="midnightblue" stroke="midnightblue" points="1624.85,-26.38 1632.92,-19.52 1622.33,-19.85 1624.85,-26.38"/>
</g>
<!-- Node23&#45;&gt;Node14 -->
<g id="edge30" class="edge">
<title>Node23&#45;&gt;Node14</title>
<path fill="none" stroke="midnightblue" d="M1589.08,-59.37C1717.94,-49.59 1983.36,-29.43 2127.55,-18.48"/>
<polygon fill="midnightblue" stroke="midnightblue" points="2128.01,-21.95 2137.71,-17.71 2127.48,-14.97 2128.01,-21.95"/>
</g>
<!-- Node23&#45;&gt;Node16 -->
<g id="edge31" class="edge">
<title>Node23&#45;&gt;Node16</title>
<path fill="none" stroke="midnightblue" d="M1492.82,-56.44C1469.57,-47.48 1432.85,-33.31 1406.58,-23.18"/>
<polygon fill="midnightblue" stroke="midnightblue" points="1407.67,-19.85 1397.08,-19.52 1405.15,-26.38 1407.67,-19.85"/>
</g>
<!-- Node24 -->
<g id="node24" class="node">
<title>Node24</title>
<g id="a_node24"><a xlink:title=" ">
<polygon fill="white" stroke="#bfbfbf" points="1466,-0.5 1466,-19.5 1564,-19.5 1564,-0.5 1466,-0.5"/>
<text text-anchor="middle" x="1515" y="-7.5" font-family="Helvetica,sans-Serif" font-size="10.00">AMReX_Vector.H</text>
</a>
</g>
</g>
<!-- Node23&#45;&gt;Node24 -->
<g id="edge32" class="edge">
<title>Node23&#45;&gt;Node24</title>
<path fill="none" stroke="midnightblue" d="M1515,-56.08C1515,-49.01 1515,-38.86 1515,-29.99"/>
<polygon fill="midnightblue" stroke="midnightblue" points="1518.5,-29.75 1515,-19.75 1511.5,-29.75 1518.5,-29.75"/>
</g>
<!-- Node25&#45;&gt;Node12 -->
<g id="edge34" class="edge">
<title>Node25&#45;&gt;Node12</title>
<path fill="none" stroke="midnightblue" d="M2109.75,-117.92C2142.06,-105.45 2191.96,-81.06 2169,-56 2136.42,-20.44 1794.92,-12.86 1687.29,-11.35"/>
<polygon fill="midnightblue" stroke="midnightblue" points="1687.1,-7.85 1677.05,-11.22 1687.01,-14.85 1687.1,-7.85"/>
</g>
<!-- Node25&#45;&gt;Node14 -->
<g id="edge35" class="edge">
<title>Node25&#45;&gt;Node14</title>
<path fill="none" stroke="midnightblue" d="M2124.66,-117.93C2149.81,-110.63 2181.38,-97.76 2202,-76 2214.01,-63.32 2220.12,-44.12 2223.16,-29.87"/>
<polygon fill="midnightblue" stroke="midnightblue" points="2226.65,-30.18 2224.99,-19.72 2219.77,-28.94 2226.65,-30.18"/>
</g>
<!-- Node25&#45;&gt;Node26 -->
<g id="edge36" class="edge">
<title>Node25&#45;&gt;Node26</title>
<path fill="none" stroke="midnightblue" d="M2087.72,-117.98C2090.43,-109.49 2094.67,-96.2 2098.15,-85.32"/>
<polygon fill="midnightblue" stroke="midnightblue" points="2101.57,-86.1 2101.28,-75.51 2094.91,-83.97 2101.57,-86.1"/>
</g>
<!-- Node27&#45;&gt;Node12 -->
<g id="edge38" class="edge">
<title>Node27&#45;&gt;Node12</title>
<path fill="none" stroke="midnightblue" d="M1756.93,-117.83C1747.13,-104.1 1726.9,-76.76 1707,-56 1696.8,-45.36 1684.35,-34.52 1674.19,-26.15"/>
<polygon fill="midnightblue" stroke="midnightblue" points="1676.26,-23.32 1666.29,-19.75 1671.86,-28.76 1676.26,-23.32"/>
</g>
<!-- Node27&#45;&gt;Node14 -->
<g id="edge40" class="edge">
<title>Node27&#45;&gt;Node14</title>
<path fill="none" stroke="midnightblue" d="M1825.94,-117.99C1874.69,-110.25 1943.4,-96.82 2001,-76 2018.95,-69.51 2021.14,-62.73 2039,-56 2080.13,-40.5 2128.4,-29.05 2165.6,-21.57"/>
<polygon fill="midnightblue" stroke="midnightblue" points="2166.64,-24.93 2175.78,-19.57 2165.29,-18.06 2166.64,-24.93"/>
</g>
<!-- Node27&#45;&gt;Node16 -->
<g id="edge42" class="edge">
<title>Node27&#45;&gt;Node16</title>
<path fill="none" stroke="midnightblue" d="M1682.82,-120.59C1599.03,-113.32 1474,-99.01 1432,-76 1411.72,-64.89 1395.21,-43.62 1385.28,-28.44"/>
<polygon fill="midnightblue" stroke="midnightblue" points="1388.22,-26.55 1379.96,-19.91 1382.28,-30.25 1388.22,-26.55"/>
</g>
<!-- Node27&#45;&gt;Node23 -->
<g id="edge41" class="edge">
<title>Node27&#45;&gt;Node23</title>
<path fill="none" stroke="midnightblue" d="M1727.47,-117.98C1683.45,-107.42 1608.41,-89.41 1560.3,-77.87"/>
<polygon fill="midnightblue" stroke="midnightblue" points="1561.01,-74.44 1550.47,-75.51 1559.37,-81.25 1561.01,-74.44"/>
</g>
<!-- Node27&#45;&gt;Node24 -->
<g id="edge43" class="edge">
<title>Node27&#45;&gt;Node24</title>
<path fill="none" stroke="midnightblue" d="M1744.36,-117.82C1701.08,-97.66 1593.58,-47.6 1542.63,-23.87"/>
<polygon fill="midnightblue" stroke="midnightblue" points="1544.06,-20.67 1533.52,-19.62 1541.11,-27.02 1544.06,-20.67"/>
</g>
<!-- Node28 -->
<g id="node28" class="node">
<title>Node28</title>
<g id="a_node28"><a xlink:title=" ">
<polygon fill="white" stroke="#bfbfbf" points="1946.5,-56.5 1946.5,-75.5 1991.5,-75.5 1991.5,-56.5 1946.5,-56.5"/>
<text text-anchor="middle" x="1969" y="-63.5" font-family="Helvetica,sans-Serif" font-size="10.00">utility</text>
</a>
</g>
</g>
<!-- Node27&#45;&gt;Node28 -->
<g id="edge39" class="edge">
<title>Node27&#45;&gt;Node28</title>
<path fill="none" stroke="midnightblue" d="M1792.73,-117.94C1825.65,-108.45 1880.54,-92.62 1936.58,-76.41"/>
<polygon fill="midnightblue" stroke="midnightblue" points="1937.68,-79.73 1946.31,-73.59 1935.74,-73.01 1937.68,-79.73"/>
</g>
<!-- Node29 -->
<g id="node29" class="node">
<title>Node29</title>
<g id="a_node29"><a xlink:title=" ">
<polygon fill="white" stroke="#bfbfbf" points="1797.5,-56.5 1797.5,-75.5 1928.5,-75.5 1928.5,-56.5 1797.5,-56.5"/>
<text text-anchor="middle" x="1863" y="-63.5" font-family="Helvetica,sans-Serif" font-size="10.00">AMReX_PhysBCFunct.H</text>
</a>
</g>
</g>
<!-- Node27&#45;&gt;Node29 -->
<g id="edge44" class="edge">
<title>Node27&#45;&gt;Node29</title>
<path fill="none" stroke="midnightblue" d="M1777.33,-117.98C1793.66,-108.25 1820.6,-92.23 1839.91,-80.74"/>
<polygon fill="midnightblue" stroke="midnightblue" points="1841.89,-83.63 1848.7,-75.51 1838.32,-77.61 1841.89,-83.63"/>
</g>
<!-- Node30&#45;&gt;Node12 -->
<g id="edge49" class="edge">
<title>Node30&#45;&gt;Node12</title>
<path fill="none" stroke="midnightblue" d="M2394.44,-179.2C2409.61,-151.45 2437.05,-90.03 2405,-56 2380.02,-29.48 1827.35,-14.97 1687.12,-11.71"/>
<polygon fill="midnightblue" stroke="midnightblue" points="1687.09,-8.21 1677.02,-11.48 1686.93,-15.21 1687.09,-8.21"/>
</g>
<!-- Node30&#45;&gt;Node14 -->
<g id="edge63" class="edge">
<title>Node30&#45;&gt;Node14</title>
<path fill="none" stroke="midnightblue" d="M2463.61,-181.14C2560.01,-162.65 2704.88,-122.65 2645,-56 2623.95,-32.57 2441.57,-20.3 2324.47,-14.77"/>
<polygon fill="midnightblue" stroke="midnightblue" points="2324.55,-11.27 2314.4,-14.31 2324.23,-18.27 2324.55,-11.27"/>
</g>
<!-- Node30&#45;&gt;Node22 -->
<g id="edge64" class="edge">
<title>Node30&#45;&gt;Node22</title>
<path fill="none" stroke="midnightblue" d="M2384.94,-179.47C2383.19,-162.58 2378.62,-133.79 2367,-112 2361.05,-100.85 2351.64,-90.4 2343.24,-82.39"/>
<polygon fill="midnightblue" stroke="midnightblue" points="2345.39,-79.62 2335.63,-75.5 2340.69,-84.81 2345.39,-79.62"/>
</g>
<!-- Node31 -->
<g id="node31" class="node">
<title>Node31</title>
<g id="a_node31"><a xlink:href="_factory_8_h.html" target="_top" xlink:title=" ">
<polygon fill="white" stroke="black" points="710,-118 710,-137 844,-137 844,-118 710,-118"/>
<text text-anchor="middle" x="777" y="-125" font-family="Helvetica,sans-Serif" font-size="10.00">amr&#45;wind/core/Factory.H</text>
</a>
</g>
</g>
<!-- Node30&#45;&gt;Node31 -->
<g id="edge50" class="edge">
<title>Node30&#45;&gt;Node31</title>
<path fill="none" stroke="midnightblue" d="M2308.26,-191.3C2021.52,-183.12 1032.4,-154.36 891,-143 876.38,-141.83 860.75,-140.13 845.9,-138.31"/>
<polygon fill="midnightblue" stroke="midnightblue" points="846.12,-134.81 835.77,-137.03 845.25,-141.75 846.12,-134.81"/>
</g>
<!-- Node35 -->
<g id="node35" class="node">
<title>Node35</title>
<g id="a_node35"><a xlink:href="_coll_mgr_8_h.html" target="_top" xlink:title=" ">
<polygon fill="white" stroke="black" points="900.5,-118 900.5,-137 1037.5,-137 1037.5,-118 900.5,-118"/>
<text text-anchor="middle" x="969" y="-125" font-family="Helvetica,sans-Serif" font-size="10.00">amr&#45;wind/core/CollMgr.H</text>
</a>
</g>
</g>
<!-- Node30&#45;&gt;Node35 -->
<g id="edge56" class="edge">
<title>Node30&#45;&gt;Node35</title>
<path fill="none" stroke="midnightblue" d="M2308.27,-190.92C2116.99,-184.41 1608.14,-166.21 1184,-143 1138.89,-140.53 1088.49,-137.17 1047.84,-134.3"/>
<polygon fill="midnightblue" stroke="midnightblue" points="1047.94,-130.8 1037.72,-133.58 1047.45,-137.78 1047.94,-130.8"/>
</g>
<!-- Node36 -->
<g id="node36" class="node">
<title>Node36</title>
<g id="a_node36"><a xlink:href="_p_d_e_fields_8_h.html" target="_top" xlink:title=" ">
<polygon fill="white" stroke="black" points="2692.5,-112.5 2692.5,-142.5 2847.5,-142.5 2847.5,-112.5 2692.5,-112.5"/>
<text text-anchor="start" x="2700.5" y="-130.5" font-family="Helvetica,sans-Serif" font-size="10.00">amr&#45;wind/equation_systems</text>
<text text-anchor="middle" x="2770" y="-119.5" font-family="Helvetica,sans-Serif" font-size="10.00">/PDEFields.H</text>
</a>
</g>
</g>
<!-- Node30&#45;&gt;Node36 -->
<g id="edge61" class="edge">
<title>Node30&#45;&gt;Node36</title>
<path fill="none" stroke="midnightblue" d="M2463.71,-180.35C2527.08,-169.62 2616.56,-154.47 2682.45,-143.32"/>
<polygon fill="midnightblue" stroke="midnightblue" points="2683.13,-146.75 2692.41,-141.63 2681.96,-139.85 2683.13,-146.75"/>
</g>
<!-- Node31&#45;&gt;Node13 -->
<g id="edge52" class="edge">
<title>Node31&#45;&gt;Node13</title>
<path fill="none" stroke="midnightblue" d="M817.98,-117.98C869.16,-107.33 956.73,-89.11 1012.14,-77.58"/>
<polygon fill="midnightblue" stroke="midnightblue" points="1013.02,-80.97 1022.1,-75.51 1011.6,-74.12 1013.02,-80.97"/>
</g>
<!-- Node31&#45;&gt;Node19 -->
<g id="edge51" class="edge">
<title>Node31&#45;&gt;Node19</title>
<path fill="none" stroke="midnightblue" d="M804.51,-117.98C837.87,-107.64 894.26,-90.16 931.56,-78.6"/>
<polygon fill="midnightblue" stroke="midnightblue" points="933.03,-81.81 941.54,-75.51 930.95,-75.13 933.03,-81.81"/>
</g>
<!-- Node32 -->
<g id="node32" class="node">
<title>Node32</title>
<g id="a_node32"><a xlink:title=" ">
<polygon fill="white" stroke="#bfbfbf" points="748,-56.5 748,-75.5 808,-75.5 808,-56.5 748,-56.5"/>
<text text-anchor="middle" x="778" y="-63.5" font-family="Helvetica,sans-Serif" font-size="10.00">iostream</text>
</a>
</g>
</g>
<!-- Node31&#45;&gt;Node32 -->
<g id="edge53" class="edge">
<title>Node31&#45;&gt;Node32</title>
<path fill="none" stroke="midnightblue" d="M777.14,-117.98C777.28,-109.58 777.5,-96.48 777.69,-85.66"/>
<polygon fill="midnightblue" stroke="midnightblue" points="781.19,-85.57 777.86,-75.51 774.19,-85.45 781.19,-85.57"/>
</g>
<!-- Node33 -->
<g id="node33" class="node">
<title>Node33</title>
<g id="a_node33"><a xlink:title=" ">
<polygon fill="white" stroke="#bfbfbf" points="454,-56.5 454,-75.5 544,-75.5 544,-56.5 454,-56.5"/>
<text text-anchor="middle" x="499" y="-63.5" font-family="Helvetica,sans-Serif" font-size="10.00">AMReX_Print.H</text>
</a>
</g>
</g>
<!-- Node31&#45;&gt;Node33 -->
<g id="edge54" class="edge">
<title>Node31&#45;&gt;Node33</title>
<path fill="none" stroke="midnightblue" d="M737.17,-117.98C687.52,-107.35 602.65,-89.18 548.77,-77.65"/>
<polygon fill="midnightblue" stroke="midnightblue" points="549.27,-74.18 538.76,-75.51 547.8,-81.02 549.27,-74.18"/>
</g>
<!-- Node34 -->
<g id="node34" class="node">
<title>Node34</title>
<g id="a_node34"><a xlink:title=" ">
<polygon fill="white" stroke="#bfbfbf" points="668,-56.5 668,-75.5 730,-75.5 730,-56.5 668,-56.5"/>
<text text-anchor="middle" x="699" y="-63.5" font-family="Helvetica,sans-Serif" font-size="10.00">AMReX.H</text>
</a>
</g>
</g>
<!-- Node31&#45;&gt;Node34 -->
<g id="edge55" class="edge">
<title>Node31&#45;&gt;Node34</title>
<path fill="none" stroke="midnightblue" d="M765.82,-117.98C753.43,-108.52 733.21,-93.1 718.25,-81.69"/>
<polygon fill="midnightblue" stroke="midnightblue" points="720.23,-78.79 710.15,-75.51 715.98,-84.36 720.23,-78.79"/>
</g>
<!-- Node35&#45;&gt;Node12 -->
<g id="edge57" class="edge">
<title>Node35&#45;&gt;Node12</title>
<path fill="none" stroke="midnightblue" d="M958.04,-117.78C941.34,-103.49 913.23,-74.79 931,-56 980.08,-4.09 1501.8,-25.9 1573,-20 1589.31,-18.65 1607.4,-16.71 1622.42,-14.98"/>
<polygon fill="midnightblue" stroke="midnightblue" points="1623.23,-18.41 1632.76,-13.77 1622.42,-11.46 1623.23,-18.41"/>
</g>
<!-- Node35&#45;&gt;Node13 -->
<g id="edge59" class="edge">
<title>Node35&#45;&gt;Node13</title>
<path fill="none" stroke="midnightblue" d="M982.47,-117.98C997.68,-108.34 1022.69,-92.52 1040.8,-81.05"/>
<polygon fill="midnightblue" stroke="midnightblue" points="1042.98,-83.81 1049.56,-75.51 1039.24,-77.9 1042.98,-83.81"/>
</g>
<!-- Node35&#45;&gt;Node19 -->
<g id="edge58" class="edge">
<title>Node35&#45;&gt;Node19</title>
<path fill="none" stroke="midnightblue" d="M969,-117.98C969,-109.58 969,-96.48 969,-85.66"/>
<polygon fill="midnightblue" stroke="midnightblue" points="972.5,-85.51 969,-75.51 965.5,-85.51 972.5,-85.51"/>
</g>
<!-- Node35&#45;&gt;Node24 -->
<g id="edge60" class="edge">
<title>Node35&#45;&gt;Node24</title>
<path fill="none" stroke="midnightblue" d="M948.76,-117.8C920.91,-104.7 876.52,-78.96 898,-56 939.08,-12.09 1378.12,-25.49 1438,-20 1443.75,-19.47 1449.74,-18.87 1455.72,-18.23"/>
<polygon fill="midnightblue" stroke="midnightblue" points="1456.19,-21.7 1465.75,-17.13 1455.42,-14.74 1456.19,-21.7"/>
</g>
<!-- Node37 -->
<g id="node37" class="node">
<title>Node37</title>
<g id="a_node37"><a xlink:title=" ">
<polygon fill="white" stroke="#bfbfbf" points="2746,-56.5 2746,-75.5 2794,-75.5 2794,-56.5 2746,-56.5"/>
<text text-anchor="middle" x="2770" y="-63.5" font-family="Helvetica,sans-Serif" font-size="10.00">iosfwd</text>
</a>
</g>
</g>
<!-- Node36&#45;&gt;Node37 -->
<g id="edge62" class="edge">
<title>Node36&#45;&gt;Node37</title>
<path fill="none" stroke="midnightblue" d="M2770,-112.4C2770,-104.47 2770,-94.46 2770,-85.86"/>
<polygon fill="midnightblue" stroke="midnightblue" points="2773.5,-85.66 2770,-75.66 2766.5,-85.66 2773.5,-85.66"/>
</g>
<!-- Node38&#45;&gt;Node16 -->
<g id="edge68" class="edge">
<title>Node38&#45;&gt;Node16</title>
<path fill="none" stroke="midnightblue" d="M694.28,-184.95C657.64,-177.33 607.37,-164.07 567,-143 547.68,-132.91 547.64,-123.29 529,-112 490.62,-88.75 414.05,-88.48 445,-56 474.81,-24.71 1104.01,-14.29 1310.21,-11.71"/>
<polygon fill="midnightblue" stroke="midnightblue" points="1310.33,-15.21 1320.28,-11.59 1310.24,-8.21 1310.33,-15.21"/>
</g>
<!-- Node38&#45;&gt;Node31 -->
<g id="edge66" class="edge">
<title>Node38&#45;&gt;Node31</title>
<path fill="none" stroke="midnightblue" d="M748.45,-184.73C753.45,-174.89 761.69,-158.66 768.03,-146.16"/>
<polygon fill="midnightblue" stroke="midnightblue" points="771.21,-147.63 772.62,-137.13 764.97,-144.46 771.21,-147.63"/>
</g>
<!-- Node38&#45;&gt;Node35 -->
<g id="edge67" class="edge">
<title>Node38&#45;&gt;Node35</title>
<path fill="none" stroke="midnightblue" d="M773.88,-184.87C813.91,-173.3 885.06,-152.75 929.49,-139.91"/>
<polygon fill="midnightblue" stroke="midnightblue" points="930.72,-143.2 939.36,-137.06 928.78,-136.48 930.72,-143.2"/>
</g>
<!-- Node39 -->
<g id="node39" class="node">
<title>Node39</title>
<g id="a_node39"><a xlink:title=" ">
<polygon fill="white" stroke="#bfbfbf" points="576.5,-118 576.5,-137 691.5,-137 691.5,-118 576.5,-118"/>
<text text-anchor="middle" x="634" y="-125" font-family="Helvetica,sans-Serif" font-size="10.00">AMReX_Geometry.H</text>
</a>
</g>
</g>
<!-- Node38&#45;&gt;Node39 -->
<g id="edge69" class="edge">
<title>Node38&#45;&gt;Node39</title>
<path fill="none" stroke="midnightblue" d="M729.16,-184.73C710.69,-173.82 678.93,-155.05 657.22,-142.22"/>
<polygon fill="midnightblue" stroke="midnightblue" points="658.99,-139.2 648.6,-137.13 655.43,-145.23 658.99,-139.2"/>
</g>
<!-- Node40&#45;&gt;Node16 -->
<g id="edge74" class="edge">
<title>Node40&#45;&gt;Node16</title>
<path fill="none" stroke="midnightblue" d="M899.97,-184.71C886.93,-160.62 855.32,-92.94 889,-56 916.83,-25.47 1184.3,-15.34 1310.14,-12.25"/>
<polygon fill="midnightblue" stroke="midnightblue" points="1310.5,-15.74 1320.41,-12 1310.33,-8.74 1310.5,-15.74"/>
</g>
<!-- Node40&#45;&gt;Node18 -->
<g id="edge73" class="edge">
<title>Node40&#45;&gt;Node18</title>
<path fill="none" stroke="midnightblue" d="M951.12,-184.94C1014.94,-173.08 1130.1,-151.7 1198.85,-138.93"/>
<polygon fill="midnightblue" stroke="midnightblue" points="1199.87,-142.3 1209.06,-137.03 1198.59,-135.42 1199.87,-142.3"/>
</g>
<!-- Node40&#45;&gt;Node31 -->
<g id="edge72" class="edge">
<title>Node40&#45;&gt;Node31</title>
<path fill="none" stroke="midnightblue" d="M888,-184.87C866.29,-173.84 828.51,-154.66 803.13,-141.77"/>
<polygon fill="midnightblue" stroke="midnightblue" points="804.57,-138.57 794.07,-137.17 801.4,-144.82 804.57,-138.57"/>
</g>
<!-- Node40&#45;&gt;Node35 -->
<g id="edge71" class="edge">
<title>Node40&#45;&gt;Node35</title>
<path fill="none" stroke="midnightblue" d="M913.63,-184.73C923.8,-174.4 940.9,-157.04 953.41,-144.33"/>
<polygon fill="midnightblue" stroke="midnightblue" points="955.98,-146.71 960.51,-137.13 951,-141.8 955.98,-146.71"/>
</g>
<!-- Node40&#45;&gt;Node39 -->
<g id="edge75" class="edge">
<title>Node40&#45;&gt;Node39</title>
<path fill="none" stroke="midnightblue" d="M869.29,-184.94C820.55,-173.24 733.14,-152.28 679.68,-139.46"/>
<polygon fill="midnightblue" stroke="midnightblue" points="680.33,-136.01 669.79,-137.08 678.69,-142.82 680.33,-136.01"/>
</g>
</g>
</svg>
        <g id="navigator" transform="translate(0 0)" fill="#404254">
                <rect fill="#f2f5e9" fill-opacity="0.5" stroke="#606060" stroke-width=".5" x="0" y="0" width="60" height="60"/>
                <use id="zoomplus" xlink:href="#zoomPlus" x="17" y="9" onmousedown="handleZoom(evt,'in')"/>
                <use id="zoomminus" xlink:href="#zoomMin" x="42" y="9" onmousedown="handleZoom(evt,'out')"/>
                <use id="reset" xlink:href="#resetDef" x="30" y="36" onmousedown="handleReset()"/>
                <g id="arrowUp" xlink:href="#dirArrow" transform="translate(30 24)" onmousedown="handlePan(0,-1)">
                  <use xlink:href="#rim" fill="#404040">
                        <set attributeName="fill" to="#808080" begin="arrowUp.mouseover" end="arrowUp.mouseout"/>
                  </use>
                  <path fill="none" stroke="white" stroke-width="1.5" d="M0,-3.0v7 M-2.5,-0.5L0,-3.0L2.5,-0.5"/>
                </g>
                <g id="arrowRight" xlink:href="#dirArrow" transform="rotate(90) translate(36 -43)" onmousedown="handlePan(1,0)">
                  <use xlink:href="#rim" fill="#404040">
                        <set attributeName="fill" to="#808080" begin="arrowRight.mouseover" end="arrowRight.mouseout"/>
                  </use>
                  <path fill="none" stroke="white" stroke-width="1.5" d="M0,-3.0v7 M-2.5,-0.5L0,-3.0L2.5,-0.5"/>
                </g>
                <g id="arrowDown" xlink:href="#dirArrow" transform="rotate(180) translate(-30 -48)" onmousedown="handlePan(0,1)">
                  <use xlink:href="#rim" fill="#404040">
                        <set attributeName="fill" to="#808080" begin="arrowDown.mouseover" end="arrowDown.mouseout"/>
                  </use>
                  <path fill="none" stroke="white" stroke-width="1.5" d="M0,-3.0v7 M-2.5,-0.5L0,-3.0L2.5,-0.5"/>
                </g>
                <g id="arrowLeft" xlink:href="#dirArrow" transform="rotate(270) translate(-36 17)" onmousedown="handlePan(-1,0)">
                  <use xlink:href="#rim" fill="#404040">
                        <set attributeName="fill" to="#808080" begin="arrowLeft.mouseover" end="arrowLeft.mouseout"/>
                  </use>
                  <path fill="none" stroke="white" stroke-width="1.5" d="M0,-3.0v7 M-2.5,-0.5L0,-3.0L2.5,-0.5"/>
                </g>
        </g>
        <svg viewBox="0 0 15 15" width="100%" height="30px" preserveAspectRatio="xMaxYMin meet">
         <g id="arrow_out" transform="scale(0.3 0.3)">
          <a xlink:href="_field_plane_averaging_8_h__incl_org.svg" target="_base">
           <rect id="button" ry="5" rx="5" y="6" x="6" height="38" width="38"
                fill="#f2f5e9" fill-opacity="0.5" stroke="#606060" stroke-width="1.0"/>
           <path id="arrow"
             d="M 11.500037,31.436501 C 11.940474,20.09759 22.043105,11.32322 32.158766,21.979434 L 37.068811,17.246167 C 37.068811,17.246167 37.088388,32 37.088388,32 L 22.160133,31.978069 C 22.160133,31.978069 26.997745,27.140456 26.997745,27.140456 C 18.528582,18.264221 13.291696,25.230495 11.500037,31.436501 z"
             style="fill:#404040;"/>
          </a>
         </g>
        </svg>
</svg>
