<?xml version="1.0" encoding="UTF-8" standalone="no"?>
<!DOCTYPE svg PUBLIC "-//W3C//DTD SVG 1.1//EN"
 "http://www.w3.org/Graphics/SVG/1.1/DTD/svg11.dtd">
<!-- Generated by graphviz version 2.43.0 (0)
 -->
<!-- Title: FixedGradientBC.cpp Pages: 1 -->
<svg width="2208pt" height="319pt"
 viewBox="0.00 0.00 2207.50 319.00" xmlns="http://www.w3.org/2000/svg" xmlns:xlink="http://www.w3.org/1999/xlink">
<g id="graph0" class="graph" transform="scale(1 1) rotate(0) translate(4 315)">
<title>FixedGradientBC.cpp</title>
<polygon fill="white" stroke="transparent" points="-4,4 -4,-315 2203.5,-315 2203.5,4 -4,4"/>
<!-- Node1 -->
<g id="node1" class="node">
<title>Node1</title>
<g id="a_node1"><a xlink:title=" ">
<polygon fill="#bfbfbf" stroke="black" points="1790,-291.5 1790,-310.5 1908,-310.5 1908,-291.5 1790,-291.5"/>
<text text-anchor="middle" x="1849" y="-298.5" font-family="Helvetica,sans-Serif" font-size="10.00">FixedGradientBC.cpp</text>
</a>
</g>
</g>
<!-- Node2 -->
<g id="node2" class="node">
<title>Node2</title>
<g id="a_node2"><a xlink:href="_fixed_gradient_b_c_8_h.html" target="_top" xlink:title=" ">
<polygon fill="white" stroke="black" points="1765.5,-224.5 1765.5,-254.5 1932.5,-254.5 1932.5,-224.5 1765.5,-224.5"/>
<text text-anchor="start" x="1773.5" y="-242.5" font-family="Helvetica,sans-Serif" font-size="10.00">amr&#45;wind/boundary_conditions</text>
<text text-anchor="middle" x="1849" y="-231.5" font-family="Helvetica,sans-Serif" font-size="10.00">/FixedGradientBC.H</text>
</a>
</g>
</g>
<!-- Node1&#45;&gt;Node2 -->
<g id="edge1" class="edge">
<title>Node1&#45;&gt;Node2</title>
<path fill="none" stroke="midnightblue" d="M1849,-291.48C1849,-284.47 1849,-274.19 1849,-264.7"/>
<polygon fill="midnightblue" stroke="midnightblue" points="1852.5,-264.52 1849,-254.52 1845.5,-264.52 1852.5,-264.52"/>
</g>
<!-- Node3 -->
<g id="node3" class="node">
<title>Node3</title>
<g id="a_node3"><a xlink:href="_field_b_c_ops_8_h.html" target="_top" xlink:title=" ">
<polygon fill="white" stroke="black" points="1771,-168.5 1771,-187.5 1927,-187.5 1927,-168.5 1771,-168.5"/>
<text text-anchor="middle" x="1849" y="-175.5" font-family="Helvetica,sans-Serif" font-size="10.00">amr&#45;wind/core/FieldBCOps.H</text>
</a>
</g>
</g>
<!-- Node2&#45;&gt;Node3 -->
<g id="edge2" class="edge">
<title>Node2&#45;&gt;Node3</title>
<path fill="none" stroke="midnightblue" d="M1849,-224.4C1849,-216.47 1849,-206.46 1849,-197.86"/>
<polygon fill="midnightblue" stroke="midnightblue" points="1852.5,-197.66 1849,-187.66 1845.5,-197.66 1852.5,-197.66"/>
</g>
<!-- Node19 -->
<g id="node19" class="node">
<title>Node19</title>
<g id="a_node19"><a xlink:href="_field_repo_8_h.html" target="_top" xlink:title=" ">
<polygon fill="white" stroke="black" points="509.5,-168.5 509.5,-187.5 658.5,-187.5 658.5,-168.5 509.5,-168.5"/>
<text text-anchor="middle" x="584" y="-175.5" font-family="Helvetica,sans-Serif" font-size="10.00">amr&#45;wind/core/FieldRepo.H</text>
</a>
</g>
</g>
<!-- Node2&#45;&gt;Node19 -->
<g id="edge23" class="edge">
<title>Node2&#45;&gt;Node19</title>
<path fill="none" stroke="midnightblue" d="M1765.02,-234.55C1535.43,-223.75 899.08,-193.82 668.67,-182.98"/>
<polygon fill="midnightblue" stroke="midnightblue" points="668.82,-179.49 658.67,-182.51 668.49,-186.48 668.82,-179.49"/>
</g>
<!-- Node27 -->
<g id="node27" class="node">
<title>Node27</title>
<g id="a_node27"><a xlink:title=" ">
<polygon fill="white" stroke="#bfbfbf" points="1945,-168.5 1945,-187.5 2067,-187.5 2067,-168.5 1945,-168.5"/>
<text text-anchor="middle" x="2006" y="-175.5" font-family="Helvetica,sans-Serif" font-size="10.00">AMReX_Orientation.H</text>
</a>
</g>
</g>
<!-- Node2&#45;&gt;Node27 -->
<g id="edge47" class="edge">
<title>Node2&#45;&gt;Node27</title>
<path fill="none" stroke="midnightblue" d="M1886.21,-224.4C1912.78,-214.33 1948.19,-200.91 1973.61,-191.28"/>
<polygon fill="midnightblue" stroke="midnightblue" points="1975.04,-194.47 1983.16,-187.66 1972.56,-187.93 1975.04,-194.47"/>
</g>
<!-- Node4 -->
<g id="node4" class="node">
<title>Node4</title>
<g id="a_node4"><a xlink:href="_field_desc_types_8_h.html" target="_top" xlink:title=" ">
<polygon fill="white" stroke="black" points="598,-0.5 598,-19.5 774,-19.5 774,-0.5 598,-0.5"/>
<text text-anchor="middle" x="686" y="-7.5" font-family="Helvetica,sans-Serif" font-size="10.00">amr&#45;wind/core/FieldDescTypes.H</text>
</a>
</g>
</g>
<!-- Node3&#45;&gt;Node4 -->
<g id="edge3" class="edge">
<title>Node3&#45;&gt;Node4</title>
<path fill="none" stroke="midnightblue" d="M1858.7,-168.21C1881.57,-146.49 1934.55,-89.61 1902,-56 1860.17,-12.8 911.32,-23.1 784.14,-19.79"/>
<polygon fill="midnightblue" stroke="midnightblue" points="784.14,-16.29 774.01,-19.4 783.87,-23.28 784.14,-16.29"/>
</g>
<!-- Node5 -->
<g id="node5" class="node">
<title>Node5</title>
<g id="a_node5"><a xlink:href="_field_8_h.html" target="_top" xlink:title=" ">
<polygon fill="white" stroke="black" points="1310,-112.5 1310,-131.5 1434,-131.5 1434,-112.5 1310,-112.5"/>
<text text-anchor="middle" x="1372" y="-119.5" font-family="Helvetica,sans-Serif" font-size="10.00">amr&#45;wind/core/Field.H</text>
</a>
</g>
</g>
<!-- Node3&#45;&gt;Node5 -->
<g id="edge4" class="edge">
<title>Node3&#45;&gt;Node5</title>
<path fill="none" stroke="midnightblue" d="M1773.68,-168.47C1683.31,-158.24 1532.89,-141.21 1444.01,-131.15"/>
<polygon fill="midnightblue" stroke="midnightblue" points="1444.35,-127.67 1434.02,-130.02 1443.56,-134.62 1444.35,-127.67"/>
</g>
<!-- Node12 -->
<g id="node12" class="node">
<title>Node12</title>
<g id="a_node12"><a xlink:title=" ">
<polygon fill="white" stroke="#bfbfbf" points="1805.5,-56.5 1805.5,-75.5 1892.5,-75.5 1892.5,-56.5 1805.5,-56.5"/>
<text text-anchor="middle" x="1849" y="-63.5" font-family="Helvetica,sans-Serif" font-size="10.00">AMReX_Gpu.H</text>
</a>
</g>
</g>
<!-- Node3&#45;&gt;Node12 -->
<g id="edge19" class="edge">
<title>Node3&#45;&gt;Node12</title>
<path fill="none" stroke="midnightblue" d="M1849,-168.37C1849,-150.62 1849,-109.67 1849,-85.6"/>
<polygon fill="midnightblue" stroke="midnightblue" points="1852.5,-85.59 1849,-75.59 1845.5,-85.59 1852.5,-85.59"/>
</g>
<!-- Node16 -->
<g id="node16" class="node">
<title>Node16</title>
<g id="a_node16"><a xlink:title=" ">
<polygon fill="white" stroke="#bfbfbf" points="1949.5,-112.5 1949.5,-131.5 2066.5,-131.5 2066.5,-112.5 1949.5,-112.5"/>
<text text-anchor="middle" x="2008" y="-119.5" font-family="Helvetica,sans-Serif" font-size="10.00">AMReX_FArrayBox.H</text>
</a>
</g>
</g>
<!-- Node3&#45;&gt;Node16 -->
<g id="edge20" class="edge">
<title>Node3&#45;&gt;Node16</title>
<path fill="none" stroke="midnightblue" d="M1874.19,-168.44C1900.94,-159.36 1943.4,-144.94 1973.31,-134.78"/>
<polygon fill="midnightblue" stroke="midnightblue" points="1974.58,-138.05 1982.92,-131.52 1972.33,-131.42 1974.58,-138.05"/>
</g>
<!-- Node17 -->
<g id="node17" class="node">
<title>Node17</title>
<g id="a_node17"><a xlink:title=" ">
<polygon fill="white" stroke="#bfbfbf" points="2084.5,-112.5 2084.5,-131.5 2199.5,-131.5 2199.5,-112.5 2084.5,-112.5"/>
<text text-anchor="middle" x="2142" y="-119.5" font-family="Helvetica,sans-Serif" font-size="10.00">AMReX_Geometry.H</text>
</a>
</g>
</g>
<!-- Node3&#45;&gt;Node17 -->
<g id="edge21" class="edge">
<title>Node3&#45;&gt;Node17</title>
<path fill="none" stroke="midnightblue" d="M1895.43,-168.44C1947.08,-158.92 2030.51,-143.55 2085.81,-133.36"/>
<polygon fill="midnightblue" stroke="midnightblue" points="2086.59,-136.77 2095.79,-131.52 2085.32,-129.89 2086.59,-136.77"/>
</g>
<!-- Node18 -->
<g id="node18" class="node">
<title>Node18</title>
<g id="a_node18"><a xlink:title=" ">
<polygon fill="white" stroke="#bfbfbf" points="956.5,-56.5 956.5,-75.5 1087.5,-75.5 1087.5,-56.5 956.5,-56.5"/>
<text text-anchor="middle" x="1022" y="-63.5" font-family="Helvetica,sans-Serif" font-size="10.00">AMReX_PhysBCFunct.H</text>
</a>
</g>
</g>
<!-- Node3&#45;&gt;Node18 -->
<g id="edge22" class="edge">
<title>Node3&#45;&gt;Node18</title>
<path fill="none" stroke="midnightblue" d="M1770.98,-174.2C1664.31,-169.56 1467.22,-158.04 1301,-132 1214.91,-118.51 1115.97,-93.04 1062.1,-78.31"/>
<polygon fill="midnightblue" stroke="midnightblue" points="1062.83,-74.88 1052.26,-75.6 1060.97,-81.63 1062.83,-74.88"/>
</g>
<!-- Node5&#45;&gt;Node4 -->
<g id="edge13" class="edge">
<title>Node5&#45;&gt;Node4</title>
<path fill="none" stroke="midnightblue" d="M1361.26,-112.28C1341.04,-96.07 1297.77,-62.36 1280,-56 1178.59,-19.71 908.67,-28.58 784.17,-20.01"/>
<polygon fill="midnightblue" stroke="midnightblue" points="784.26,-16.51 774.02,-19.25 783.73,-23.49 784.26,-16.51"/>
</g>
<!-- Node6 -->
<g id="node6" class="node">
<title>Node6</title>
<g id="a_node6"><a xlink:title=" ">
<polygon fill="white" stroke="#bfbfbf" points="908,-0.5 908,-19.5 952,-19.5 952,-0.5 908,-0.5"/>
<text text-anchor="middle" x="930" y="-7.5" font-family="Helvetica,sans-Serif" font-size="10.00">string</text>
</a>
</g>
</g>
<!-- Node5&#45;&gt;Node6 -->
<g id="edge5" class="edge">
<title>Node5&#45;&gt;Node6</title>
<path fill="none" stroke="midnightblue" d="M1367.73,-112.46C1360.01,-98.03 1342.25,-69.14 1318,-56 1256.8,-22.84 1044.26,-13.93 962.45,-11.69"/>
<polygon fill="midnightblue" stroke="midnightblue" points="962.33,-8.19 952.24,-11.43 962.15,-15.19 962.33,-8.19"/>
</g>
<!-- Node7 -->
<g id="node7" class="node">
<title>Node7</title>
<g id="a_node7"><a xlink:title=" ">
<polygon fill="white" stroke="#bfbfbf" points="1729,-56.5 1729,-75.5 1787,-75.5 1787,-56.5 1729,-56.5"/>
<text text-anchor="middle" x="1758" y="-63.5" font-family="Helvetica,sans-Serif" font-size="10.00">memory</text>
</a>
</g>
</g>
<!-- Node5&#45;&gt;Node7 -->
<g id="edge6" class="edge">
<title>Node5&#45;&gt;Node7</title>
<path fill="none" stroke="midnightblue" d="M1434.22,-114.93C1501.9,-107.88 1613.43,-94.97 1718.46,-76.12"/>
<polygon fill="midnightblue" stroke="midnightblue" points="1719.39,-79.51 1728.61,-74.28 1718.14,-72.62 1719.39,-79.51"/>
</g>
<!-- Node8 -->
<g id="node8" class="node">
<title>Node8</title>
<g id="a_node8"><a xlink:title=" ">
<polygon fill="white" stroke="#bfbfbf" points="1144.5,-56.5 1144.5,-75.5 1237.5,-75.5 1237.5,-56.5 1144.5,-56.5"/>
<text text-anchor="middle" x="1191" y="-63.5" font-family="Helvetica,sans-Serif" font-size="10.00">unordered_map</text>
</a>
</g>
</g>
<!-- Node5&#45;&gt;Node8 -->
<g id="edge7" class="edge">
<title>Node5&#45;&gt;Node8</title>
<path fill="none" stroke="midnightblue" d="M1343.32,-112.44C1312.47,-103.24 1263.27,-88.56 1229.17,-78.39"/>
<polygon fill="midnightblue" stroke="midnightblue" points="1230.13,-75.02 1219.55,-75.52 1228.13,-81.73 1230.13,-75.02"/>
</g>
<!-- Node9 -->
<g id="node9" class="node">
<title>Node9</title>
<g id="a_node9"><a xlink:title=" ">
<polygon fill="white" stroke="#bfbfbf" points="1370,-56.5 1370,-75.5 1434,-75.5 1434,-56.5 1370,-56.5"/>
<text text-anchor="middle" x="1402" y="-63.5" font-family="Helvetica,sans-Serif" font-size="10.00">algorithm</text>
</a>
</g>
</g>
<!-- Node5&#45;&gt;Node9 -->
<g id="edge8" class="edge">
<title>Node5&#45;&gt;Node9</title>
<path fill="none" stroke="midnightblue" d="M1376.95,-112.08C1381.1,-104.61 1387.15,-93.72 1392.27,-84.52"/>
<polygon fill="midnightblue" stroke="midnightblue" points="1395.34,-86.19 1397.14,-75.75 1389.22,-82.79 1395.34,-86.19"/>
</g>
<!-- Node10 -->
<g id="node10" class="node">
<title>Node10</title>
<g id="a_node10"><a xlink:title=" ">
<polygon fill="white" stroke="#bfbfbf" points="470.5,-0.5 470.5,-19.5 579.5,-19.5 579.5,-0.5 470.5,-0.5"/>
<text text-anchor="middle" x="525" y="-7.5" font-family="Helvetica,sans-Serif" font-size="10.00">AMReX_MultiFab.H</text>
</a>
</g>
</g>
<!-- Node5&#45;&gt;Node10 -->
<g id="edge9" class="edge">
<title>Node5&#45;&gt;Node10</title>
<path fill="none" stroke="midnightblue" d="M1353.46,-112.45C1334.73,-103.68 1305.06,-89.47 1280,-76 1264.56,-67.7 1262.78,-61.07 1246,-56 1109.03,-14.64 750.38,-33.34 590.05,-19.94"/>
<polygon fill="midnightblue" stroke="midnightblue" points="590.05,-16.43 579.78,-19.01 589.42,-23.4 590.05,-16.43"/>
</g>
<!-- Node11 -->
<g id="node11" class="node">
<title>Node11</title>
<g id="a_node11"><a xlink:title=" ">
<polygon fill="white" stroke="#bfbfbf" points="1452.5,-56.5 1452.5,-75.5 1551.5,-75.5 1551.5,-56.5 1452.5,-56.5"/>
<text text-anchor="middle" x="1502" y="-63.5" font-family="Helvetica,sans-Serif" font-size="10.00">AMReX_BCRec.H</text>
</a>
</g>
</g>
<!-- Node5&#45;&gt;Node11 -->
<g id="edge10" class="edge">
<title>Node5&#45;&gt;Node11</title>
<path fill="none" stroke="midnightblue" d="M1392.6,-112.44C1413.99,-103.56 1447.68,-89.56 1472.02,-79.45"/>
<polygon fill="midnightblue" stroke="midnightblue" points="1473.61,-82.58 1481.5,-75.52 1470.92,-76.12 1473.61,-82.58"/>
</g>
<!-- Node5&#45;&gt;Node12 -->
<g id="edge11" class="edge">
<title>Node5&#45;&gt;Node12</title>
<path fill="none" stroke="midnightblue" d="M1434.29,-115.62C1515.07,-108.36 1660.53,-94.37 1795.27,-76.02"/>
<polygon fill="midnightblue" stroke="midnightblue" points="1795.93,-79.46 1805.36,-74.63 1794.98,-72.53 1795.93,-79.46"/>
</g>
<!-- Node13 -->
<g id="node13" class="node">
<title>Node13</title>
<g id="a_node13"><a xlink:href="incflo__enums_8_h.html" target="_top" xlink:title=" ">
<polygon fill="white" stroke="black" points="1569.5,-56.5 1569.5,-75.5 1710.5,-75.5 1710.5,-56.5 1569.5,-56.5"/>
<text text-anchor="middle" x="1640" y="-63.5" font-family="Helvetica,sans-Serif" font-size="10.00">amr&#45;wind/incflo_enums.H</text>
</a>
</g>
</g>
<!-- Node5&#45;&gt;Node13 -->
<g id="edge12" class="edge">
<title>Node5&#45;&gt;Node13</title>
<path fill="none" stroke="midnightblue" d="M1414.47,-112.44C1461.41,-102.98 1537.08,-87.74 1587.65,-77.55"/>
<polygon fill="midnightblue" stroke="midnightblue" points="1588.62,-80.92 1597.73,-75.52 1587.24,-74.06 1588.62,-80.92"/>
</g>
<!-- Node14 -->
<g id="node14" class="node">
<title>Node14</title>
<g id="a_node14"><a xlink:href="_view_field_8_h.html" target="_top" xlink:title=" ">
<polygon fill="white" stroke="black" points="714,-56.5 714,-75.5 862,-75.5 862,-56.5 714,-56.5"/>
<text text-anchor="middle" x="788" y="-63.5" font-family="Helvetica,sans-Serif" font-size="10.00">amr&#45;wind/core/ViewField.H</text>
</a>
</g>
</g>
<!-- Node5&#45;&gt;Node14 -->
<g id="edge14" class="edge">
<title>Node5&#45;&gt;Node14</title>
<path fill="none" stroke="midnightblue" d="M1309.78,-115.25C1204.54,-105.52 991.31,-85.8 872.6,-74.82"/>
<polygon fill="midnightblue" stroke="midnightblue" points="872.74,-71.32 862.46,-73.89 872.1,-78.29 872.74,-71.32"/>
</g>
<!-- Node14&#45;&gt;Node4 -->
<g id="edge16" class="edge">
<title>Node14&#45;&gt;Node4</title>
<path fill="none" stroke="midnightblue" d="M771.61,-56.32C755.33,-47.7 730.13,-34.36 711.28,-24.39"/>
<polygon fill="midnightblue" stroke="midnightblue" points="712.82,-21.24 702.35,-19.65 709.55,-27.43 712.82,-21.24"/>
</g>
<!-- Node14&#45;&gt;Node6 -->
<g id="edge15" class="edge">
<title>Node14&#45;&gt;Node6</title>
<path fill="none" stroke="midnightblue" d="M810.5,-56.44C834.08,-47.48 871.32,-33.31 897.96,-23.18"/>
<polygon fill="midnightblue" stroke="midnightblue" points="899.5,-26.34 907.6,-19.52 897.01,-19.8 899.5,-26.34"/>
</g>
<!-- Node14&#45;&gt;Node10 -->
<g id="edge17" class="edge">
<title>Node14&#45;&gt;Node10</title>
<path fill="none" stroke="midnightblue" d="M746.33,-56.44C700.25,-46.98 626,-31.74 576.37,-21.55"/>
<polygon fill="midnightblue" stroke="midnightblue" points="576.98,-18.1 566.48,-19.52 575.57,-24.96 576.98,-18.1"/>
</g>
<!-- Node15 -->
<g id="node15" class="node">
<title>Node15</title>
<g id="a_node15"><a xlink:title=" ">
<polygon fill="white" stroke="#bfbfbf" points="792,-0.5 792,-19.5 890,-19.5 890,-0.5 792,-0.5"/>
<text text-anchor="middle" x="841" y="-7.5" font-family="Helvetica,sans-Serif" font-size="10.00">AMReX_Vector.H</text>
</a>
</g>
</g>
<!-- Node14&#45;&gt;Node15 -->
<g id="edge18" class="edge">
<title>Node14&#45;&gt;Node15</title>
<path fill="none" stroke="midnightblue" d="M796.75,-56.08C804.47,-48.22 815.9,-36.57 825.22,-27.08"/>
<polygon fill="midnightblue" stroke="midnightblue" points="827.9,-29.34 832.41,-19.75 822.91,-24.44 827.9,-29.34"/>
</g>
<!-- Node19&#45;&gt;Node4 -->
<g id="edge26" class="edge">
<title>Node19&#45;&gt;Node4</title>
<path fill="none" stroke="midnightblue" d="M582.94,-168.44C580.77,-147.23 577.98,-91.43 603,-56 613.67,-40.89 631.06,-30.36 647.18,-23.3"/>
<polygon fill="midnightblue" stroke="midnightblue" points="648.5,-26.54 656.46,-19.54 645.87,-20.05 648.5,-26.54"/>
</g>
<!-- Node19&#45;&gt;Node5 -->
<g id="edge31" class="edge">
<title>Node19&#45;&gt;Node5</title>
<path fill="none" stroke="midnightblue" d="M658.84,-171.87C810.04,-161.51 1150.16,-138.2 1299.43,-127.97"/>
<polygon fill="midnightblue" stroke="midnightblue" points="1300.11,-131.43 1309.85,-127.26 1299.63,-124.45 1300.11,-131.43"/>
</g>
<!-- Node19&#45;&gt;Node6 -->
<g id="edge24" class="edge">
<title>Node19&#45;&gt;Node6</title>
<path fill="none" stroke="midnightblue" d="M658.74,-173.59C787.34,-165.96 1041.89,-142.64 1096,-76 1133.56,-29.74 1020.75,-16.3 962.49,-12.48"/>
<polygon fill="midnightblue" stroke="midnightblue" points="962.49,-8.97 952.3,-11.87 962.07,-15.96 962.49,-8.97"/>
</g>
<!-- Node19&#45;&gt;Node8 -->
<g id="edge25" class="edge">
<title>Node19&#45;&gt;Node8</title>
<path fill="none" stroke="midnightblue" d="M658.7,-177.4C788.31,-177.02 1048.79,-171.2 1130,-132 1151.7,-121.53 1169.57,-99.75 1180.24,-84.3"/>
<polygon fill="midnightblue" stroke="midnightblue" points="1183.35,-85.92 1185.92,-75.65 1177.5,-82.08 1183.35,-85.92"/>
</g>
<!-- Node19&#45;&gt;Node10 -->
<g id="edge45" class="edge">
<title>Node19&#45;&gt;Node10</title>
<path fill="none" stroke="midnightblue" d="M509.25,-170.7C398.19,-159.57 198.22,-132.09 157,-76 151.74,-68.84 151.11,-62.66 157,-56 176.72,-33.72 359.93,-20.15 460.17,-14.33"/>
<polygon fill="midnightblue" stroke="midnightblue" points="460.41,-17.82 470.2,-13.76 460.01,-10.83 460.41,-17.82"/>
</g>
<!-- Node20 -->
<g id="node20" class="node">
<title>Node20</title>
<g id="a_node20"><a xlink:href="_field_utils_8_h.html" target="_top" xlink:title=" ">
<polygon fill="white" stroke="black" points="166,-56.5 166,-75.5 312,-75.5 312,-56.5 166,-56.5"/>
<text text-anchor="middle" x="239" y="-63.5" font-family="Helvetica,sans-Serif" font-size="10.00">amr&#45;wind/core/FieldUtils.H</text>
</a>
</g>
</g>
<!-- Node19&#45;&gt;Node20 -->
<g id="edge27" class="edge">
<title>Node19&#45;&gt;Node20</title>
<path fill="none" stroke="midnightblue" d="M536.96,-168.43C497.49,-160.67 439.88,-148.01 391,-132 345.91,-117.23 295.67,-94.43 265.74,-80.13"/>
<polygon fill="midnightblue" stroke="midnightblue" points="266.93,-76.82 256.4,-75.63 263.89,-83.13 266.93,-76.82"/>
</g>
<!-- Node22 -->
<g id="node22" class="node">
<title>Node22</title>
<g id="a_node22"><a xlink:href="_int_field_8_h.html" target="_top" xlink:title=" ">
<polygon fill="white" stroke="black" points="417.5,-112.5 417.5,-131.5 554.5,-131.5 554.5,-112.5 417.5,-112.5"/>
<text text-anchor="middle" x="486" y="-119.5" font-family="Helvetica,sans-Serif" font-size="10.00">amr&#45;wind/core/IntField.H</text>
</a>
</g>
</g>
<!-- Node19&#45;&gt;Node22 -->
<g id="edge32" class="edge">
<title>Node19&#45;&gt;Node22</title>
<path fill="none" stroke="midnightblue" d="M568.25,-168.32C552.68,-159.74 528.62,-146.49 510.54,-136.52"/>
<polygon fill="midnightblue" stroke="midnightblue" points="512.15,-133.42 501.71,-131.65 508.78,-139.55 512.15,-133.42"/>
</g>
<!-- Node23 -->
<g id="node23" class="node">
<title>Node23</title>
<g id="a_node23"><a xlink:title=" ">
<polygon fill="white" stroke="#bfbfbf" points="330,-56.5 330,-75.5 442,-75.5 442,-56.5 330,-56.5"/>
<text text-anchor="middle" x="386" y="-63.5" font-family="Helvetica,sans-Serif" font-size="10.00">AMReX_iMultiFab.H</text>
</a>
</g>
</g>
<!-- Node19&#45;&gt;Node23 -->
<g id="edge46" class="edge">
<title>Node19&#45;&gt;Node23</title>
<path fill="none" stroke="midnightblue" d="M509.06,-173.86C474.49,-168.74 435.18,-157.19 408,-132 395.05,-120 389.72,-100.1 387.53,-85.48"/>
<polygon fill="midnightblue" stroke="midnightblue" points="391.01,-85.08 386.39,-75.54 384.05,-85.88 391.01,-85.08"/>
</g>
<!-- Node24 -->
<g id="node24" class="node">
<title>Node24</title>
<g id="a_node24"><a xlink:href="_scratch_field_8_h.html" target="_top" xlink:title=" ">
<polygon fill="white" stroke="black" points="660,-112.5 660,-131.5 820,-131.5 820,-112.5 660,-112.5"/>
<text text-anchor="middle" x="740" y="-119.5" font-family="Helvetica,sans-Serif" font-size="10.00">amr&#45;wind/core/ScratchField.H</text>
</a>
</g>
</g>
<!-- Node19&#45;&gt;Node24 -->
<g id="edge36" class="edge">
<title>Node19&#45;&gt;Node24</title>
<path fill="none" stroke="midnightblue" d="M608.72,-168.44C634.85,-159.4 676.26,-145.06 705.58,-134.92"/>
<polygon fill="midnightblue" stroke="midnightblue" points="707.09,-138.1 715.4,-131.52 704.8,-131.48 707.09,-138.1"/>
</g>
<!-- Node26 -->
<g id="node26" class="node">
<title>Node26</title>
<g id="a_node26"><a xlink:title=" ">
<polygon fill="white" stroke="#bfbfbf" points="0,-112.5 0,-131.5 110,-131.5 110,-112.5 0,-112.5"/>
<text text-anchor="middle" x="55" y="-119.5" font-family="Helvetica,sans-Serif" font-size="10.00">AMReX_AmrCore.H</text>
</a>
</g>
</g>
<!-- Node19&#45;&gt;Node26 -->
<g id="edge44" class="edge">
<title>Node19&#45;&gt;Node26</title>
<path fill="none" stroke="midnightblue" d="M509.43,-170.45C418.38,-162.28 259.73,-147.49 124,-132 122.89,-131.87 121.77,-131.74 120.64,-131.61"/>
<polygon fill="midnightblue" stroke="midnightblue" points="120.69,-128.09 110.34,-130.38 119.85,-135.04 120.69,-128.09"/>
</g>
<!-- Node20&#45;&gt;Node4 -->
<g id="edge28" class="edge">
<title>Node20&#45;&gt;Node4</title>
<path fill="none" stroke="midnightblue" d="M309.83,-56.44C390.26,-46.73 521.22,-30.91 605.47,-20.73"/>
<polygon fill="midnightblue" stroke="midnightblue" points="605.99,-24.19 615.5,-19.52 605.16,-17.24 605.99,-24.19"/>
</g>
<!-- Node20&#45;&gt;Node10 -->
<g id="edge29" class="edge">
<title>Node20&#45;&gt;Node10</title>
<path fill="none" stroke="midnightblue" d="M284.32,-56.44C334.63,-46.94 415.84,-31.61 469.81,-21.42"/>
<polygon fill="midnightblue" stroke="midnightblue" points="470.72,-24.81 479.89,-19.52 469.42,-17.93 470.72,-24.81"/>
</g>
<!-- Node21 -->
<g id="node21" class="node">
<title>Node21</title>
<g id="a_node21"><a xlink:title=" ">
<polygon fill="white" stroke="#bfbfbf" points="177,-0.5 177,-19.5 301,-19.5 301,-0.5 177,-0.5"/>
<text text-anchor="middle" x="239" y="-7.5" font-family="Helvetica,sans-Serif" font-size="10.00">AMReX_Interpolater.H</text>
</a>
</g>
</g>
<!-- Node20&#45;&gt;Node21 -->
<g id="edge30" class="edge">
<title>Node20&#45;&gt;Node21</title>
<path fill="none" stroke="midnightblue" d="M239,-56.08C239,-49.01 239,-38.86 239,-29.99"/>
<polygon fill="midnightblue" stroke="midnightblue" points="242.5,-29.75 239,-19.75 235.5,-29.75 242.5,-29.75"/>
</g>
<!-- Node22&#45;&gt;Node4 -->
<g id="edge34" class="edge">
<title>Node22&#45;&gt;Node4</title>
<path fill="none" stroke="midnightblue" d="M484.23,-112.16C482.01,-98.34 480.03,-71.57 494,-56 508.78,-39.54 557.56,-28.23 602.25,-21.07"/>
<polygon fill="midnightblue" stroke="midnightblue" points="602.96,-24.5 612.3,-19.51 601.89,-17.58 602.96,-24.5"/>
</g>
<!-- Node22&#45;&gt;Node6 -->
<g id="edge33" class="edge">
<title>Node22&#45;&gt;Node6</title>
<path fill="none" stroke="midnightblue" d="M497.91,-112.3C518.29,-97.92 561.67,-69.42 603,-56 725.97,-16.06 767.15,-45.07 897.78,-19.92"/>
<polygon fill="midnightblue" stroke="midnightblue" points="898.64,-23.31 907.76,-17.92 897.26,-16.45 898.64,-23.31"/>
</g>
<!-- Node22&#45;&gt;Node23 -->
<g id="edge35" class="edge">
<title>Node22&#45;&gt;Node23</title>
<path fill="none" stroke="midnightblue" d="M469.93,-112.32C454.04,-103.74 429.49,-90.49 411.04,-80.52"/>
<polygon fill="midnightblue" stroke="midnightblue" points="412.49,-77.33 402.03,-75.65 409.16,-83.49 412.49,-77.33"/>
</g>
<!-- Node24&#45;&gt;Node4 -->
<g id="edge39" class="edge">
<title>Node24&#45;&gt;Node4</title>
<path fill="none" stroke="midnightblue" d="M731.67,-112.39C723.78,-103.8 712.12,-89.92 705,-76 697.47,-61.28 692.48,-43.12 689.51,-29.74"/>
<polygon fill="midnightblue" stroke="midnightblue" points="692.91,-28.9 687.48,-19.8 686.06,-30.3 692.91,-28.9"/>
</g>
<!-- Node24&#45;&gt;Node6 -->
<g id="edge37" class="edge">
<title>Node24&#45;&gt;Node6</title>
<path fill="none" stroke="midnightblue" d="M800.96,-112.42C829.56,-106.04 862.81,-95 888,-76 904.06,-63.89 915.69,-43.72 922.59,-29.06"/>
<polygon fill="midnightblue" stroke="midnightblue" points="925.95,-30.11 926.77,-19.55 919.54,-27.29 925.95,-30.11"/>
</g>
<!-- Node24&#45;&gt;Node10 -->
<g id="edge41" class="edge">
<title>Node24&#45;&gt;Node10</title>
<path fill="none" stroke="midnightblue" d="M701.19,-112.43C672.85,-105.19 634.09,-93.23 603,-76 579.06,-62.73 555.47,-41.65 540.61,-27.11"/>
<polygon fill="midnightblue" stroke="midnightblue" points="542.85,-24.4 533.31,-19.8 537.9,-29.35 542.85,-24.4"/>
</g>
<!-- Node24&#45;&gt;Node14 -->
<g id="edge40" class="edge">
<title>Node24&#45;&gt;Node14</title>
<path fill="none" stroke="midnightblue" d="M747.93,-112.08C754.85,-104.3 765.07,-92.8 773.45,-83.37"/>
<polygon fill="midnightblue" stroke="midnightblue" points="776.19,-85.55 780.22,-75.75 770.96,-80.9 776.19,-85.55"/>
</g>
<!-- Node24&#45;&gt;Node15 -->
<g id="edge42" class="edge">
<title>Node24&#45;&gt;Node15</title>
<path fill="none" stroke="midnightblue" d="M813.15,-112.46C835.36,-106.04 857.45,-94.99 871,-76 881.99,-60.61 869.32,-40.55 857.23,-26.82"/>
<polygon fill="midnightblue" stroke="midnightblue" points="859.77,-24.41 850.37,-19.54 854.68,-29.21 859.77,-24.41"/>
</g>
<!-- Node24&#45;&gt;Node18 -->
<g id="edge43" class="edge">
<title>Node24&#45;&gt;Node18</title>
<path fill="none" stroke="midnightblue" d="M784.68,-112.44C834.29,-102.94 914.36,-87.61 967.59,-77.42"/>
<polygon fill="midnightblue" stroke="midnightblue" points="968.36,-80.83 977.53,-75.52 967.05,-73.96 968.36,-80.83"/>
</g>
<!-- Node25 -->
<g id="node25" class="node">
<title>Node25</title>
<g id="a_node25"><a xlink:title=" ">
<polygon fill="white" stroke="#bfbfbf" points="612.5,-56.5 612.5,-75.5 657.5,-75.5 657.5,-56.5 612.5,-56.5"/>
<text text-anchor="middle" x="635" y="-63.5" font-family="Helvetica,sans-Serif" font-size="10.00">utility</text>
</a>
</g>
</g>
<!-- Node24&#45;&gt;Node25 -->
<g id="edge38" class="edge">
<title>Node24&#45;&gt;Node25</title>
<path fill="none" stroke="midnightblue" d="M723.13,-112.32C706.29,-103.66 680.19,-90.24 660.76,-80.25"/>
<polygon fill="midnightblue" stroke="midnightblue" points="662.32,-77.12 651.83,-75.65 659.12,-83.34 662.32,-77.12"/>
</g>
</g>
</svg>
