<?xml version="1.0" encoding="UTF-8" standalone="no"?>
<!DOCTYPE svg PUBLIC "-//W3C//DTD SVG 1.1//EN"
 "http://www.w3.org/Graphics/SVG/1.1/DTD/svg11.dtd">
<!-- Generated by graphviz version 2.43.0 (0)
 -->
<!-- Title: FreeStream.cpp Pages: 1 -->
<svg width="2531pt" height="330pt"
 viewBox="0.00 0.00 2530.91 330.00" xmlns="http://www.w3.org/2000/svg" xmlns:xlink="http://www.w3.org/1999/xlink">
<g id="graph0" class="graph" transform="scale(1 1) rotate(0) translate(4 326)">
<title>FreeStream.cpp</title>
<polygon fill="white" stroke="transparent" points="-4,4 -4,-326 2526.91,-326 2526.91,4 -4,4"/>
<!-- Node1 -->
<g id="node1" class="node">
<title>Node1</title>
<g id="a_node1"><a xlink:title=" ">
<polygon fill="#bfbfbf" stroke="black" points="744.91,-302.5 744.91,-321.5 837.91,-321.5 837.91,-302.5 744.91,-302.5"/>
<text text-anchor="middle" x="791.41" y="-309.5" font-family="Helvetica,sans-Serif" font-size="10.00">FreeStream.cpp</text>
</a>
</g>
</g>
<!-- Node2 -->
<g id="node2" class="node">
<title>Node2</title>
<g id="a_node2"><a xlink:href="_free_stream_8_h.html" target="_top" xlink:title=" ">
<polygon fill="white" stroke="black" points="195.91,-246.5 195.91,-265.5 368.91,-265.5 368.91,-246.5 195.91,-246.5"/>
<text text-anchor="middle" x="282.41" y="-253.5" font-family="Helvetica,sans-Serif" font-size="10.00">amr&#45;wind/physics/FreeStream.H</text>
</a>
</g>
</g>
<!-- Node1&#45;&gt;Node2 -->
<g id="edge1" class="edge">
<title>Node1&#45;&gt;Node2</title>
<path fill="none" stroke="midnightblue" d="M744.9,-306.06C660.65,-297.13 481.47,-278.12 372.53,-266.56"/>
<polygon fill="midnightblue" stroke="midnightblue" points="372.85,-263.07 362.54,-265.5 372.11,-270.04 372.85,-263.07"/>
</g>
<!-- Node22 -->
<g id="node22" class="node">
<title>Node22</title>
<g id="a_node22"><a xlink:href="_u_d_f_8_h.html" target="_top" xlink:title=" ">
<polygon fill="white" stroke="black" points="293.91,-179.5 293.91,-209.5 420.91,-209.5 420.91,-179.5 293.91,-179.5"/>
<text text-anchor="start" x="301.91" y="-197.5" font-family="Helvetica,sans-Serif" font-size="10.00">amr&#45;wind/physics/udfs</text>
<text text-anchor="middle" x="357.41" y="-186.5" font-family="Helvetica,sans-Serif" font-size="10.00">/UDF.H</text>
</a>
</g>
</g>
<!-- Node1&#45;&gt;Node22 -->
<g id="edge86" class="edge">
<title>Node1&#45;&gt;Node22</title>
<path fill="none" stroke="midnightblue" d="M759.15,-302.41C687.5,-283.35 514.08,-237.19 420.24,-212.22"/>
<polygon fill="midnightblue" stroke="midnightblue" points="420.87,-208.77 410.3,-209.58 419.07,-215.53 420.87,-208.77"/>
</g>
<!-- Node23 -->
<g id="node23" class="node">
<title>Node23</title>
<g id="a_node23"><a xlink:href="_c_f_d_sim_8_h.html" target="_top" xlink:title=" ">
<polygon fill="white" stroke="black" points="733.41,-246.5 733.41,-265.5 849.41,-265.5 849.41,-246.5 733.41,-246.5"/>
<text text-anchor="middle" x="791.41" y="-253.5" font-family="Helvetica,sans-Serif" font-size="10.00">amr&#45;wind/CFDSim.H</text>
</a>
</g>
</g>
<!-- Node1&#45;&gt;Node23 -->
<g id="edge36" class="edge">
<title>Node1&#45;&gt;Node23</title>
<path fill="none" stroke="midnightblue" d="M791.41,-302.08C791.41,-295.01 791.41,-284.86 791.41,-275.99"/>
<polygon fill="midnightblue" stroke="midnightblue" points="794.92,-275.75 791.41,-265.75 787.92,-275.75 794.92,-275.75"/>
</g>
<!-- Node41 -->
<g id="node41" class="node">
<title>Node41</title>
<g id="a_node41"><a xlink:title=" ">
<polygon fill="white" stroke="#bfbfbf" points="867.91,-246.5 867.91,-265.5 986.91,-265.5 986.91,-246.5 867.91,-246.5"/>
<text text-anchor="middle" x="927.41" y="-253.5" font-family="Helvetica,sans-Serif" font-size="10.00">AMReX_ParmParse.H</text>
</a>
</g>
</g>
<!-- Node1&#45;&gt;Node41 -->
<g id="edge81" class="edge">
<title>Node1&#45;&gt;Node41</title>
<path fill="none" stroke="midnightblue" d="M812.96,-302.44C835.45,-293.52 870.9,-279.44 896.39,-269.32"/>
<polygon fill="midnightblue" stroke="midnightblue" points="897.96,-272.46 905.97,-265.52 895.38,-265.95 897.96,-272.46"/>
</g>
<!-- Node42 -->
<g id="node42" class="node">
<title>Node42</title>
<g id="a_node42"><a xlink:href="trig__ops_8_h.html" target="_top" xlink:title=" ">
<polygon fill="white" stroke="black" points="1626.91,-179.5 1626.91,-209.5 1729.91,-209.5 1729.91,-179.5 1626.91,-179.5"/>
<text text-anchor="start" x="1634.91" y="-197.5" font-family="Helvetica,sans-Serif" font-size="10.00">amr&#45;wind/utilities</text>
<text text-anchor="middle" x="1678.41" y="-186.5" font-family="Helvetica,sans-Serif" font-size="10.00">/trig_ops.H</text>
</a>
</g>
</g>
<!-- Node1&#45;&gt;Node42 -->
<g id="edge82" class="edge">
<title>Node1&#45;&gt;Node42</title>
<path fill="none" stroke="midnightblue" d="M838.33,-307.19C963.5,-296.6 1315.77,-264.14 1616.56,-210.22"/>
<polygon fill="midnightblue" stroke="midnightblue" points="1617.57,-213.6 1626.78,-208.38 1616.32,-206.71 1617.57,-213.6"/>
</g>
<!-- Node3 -->
<g id="node3" class="node">
<title>Node3</title>
<g id="a_node3"><a xlink:href="_physics_8_h.html" target="_top" xlink:title=" ">
<polygon fill="white" stroke="black" points="138.91,-185 138.91,-204 275.91,-204 275.91,-185 138.91,-185"/>
<text text-anchor="middle" x="207.41" y="-192" font-family="Helvetica,sans-Serif" font-size="10.00">amr&#45;wind/core/Physics.H</text>
</a>
</g>
</g>
<!-- Node2&#45;&gt;Node3 -->
<g id="edge2" class="edge">
<title>Node2&#45;&gt;Node3</title>
<path fill="none" stroke="midnightblue" d="M271.67,-246.48C259.86,-237.11 240.67,-221.88 226.33,-210.51"/>
<polygon fill="midnightblue" stroke="midnightblue" points="228.15,-207.48 218.14,-204.01 223.8,-212.97 228.15,-207.48"/>
</g>
<!-- Node5 -->
<g id="node5" class="node">
<title>Node5</title>
<g id="a_node5"><a xlink:title=" ">
<polygon fill="white" stroke="#bfbfbf" points="367.41,-56.5 367.41,-75.5 425.41,-75.5 425.41,-56.5 367.41,-56.5"/>
<text text-anchor="middle" x="396.41" y="-63.5" font-family="Helvetica,sans-Serif" font-size="10.00">memory</text>
</a>
</g>
</g>
<!-- Node2&#45;&gt;Node5 -->
<g id="edge35" class="edge">
<title>Node2&#45;&gt;Node5</title>
<path fill="none" stroke="midnightblue" d="M195.65,-251.74C128.56,-247.18 43.52,-236.24 21.41,-210 -6.65,-176.69 -7.49,-144.58 21.41,-112 21.76,-111.61 261.04,-83.1 357.15,-71.67"/>
<polygon fill="midnightblue" stroke="midnightblue" points="357.82,-75.11 367.33,-70.46 356.99,-68.16 357.82,-75.11"/>
</g>
<!-- Node6 -->
<g id="node6" class="node">
<title>Node6</title>
<g id="a_node6"><a xlink:title=" ">
<polygon fill="white" stroke="#bfbfbf" points="443.91,-56.5 443.91,-75.5 536.91,-75.5 536.91,-56.5 443.91,-56.5"/>
<text text-anchor="middle" x="490.41" y="-63.5" font-family="Helvetica,sans-Serif" font-size="10.00">unordered_map</text>
</a>
</g>
</g>
<!-- Node2&#45;&gt;Node6 -->
<g id="edge34" class="edge">
<title>Node2&#45;&gt;Node6</title>
<path fill="none" stroke="midnightblue" d="M241.49,-246.49C160.45,-227.94 -7.45,-180 54.41,-112 81.45,-82.28 360.49,-81.38 433.5,-75.73"/>
<polygon fill="midnightblue" stroke="midnightblue" points="434.08,-79.19 443.7,-74.74 433.4,-72.23 434.08,-79.19"/>
</g>
<!-- Node15 -->
<g id="node15" class="node">
<title>Node15</title>
<g id="a_node15"><a xlink:href="_field_8_h.html" target="_top" xlink:title=" ">
<polygon fill="white" stroke="black" points="1219.41,-118 1219.41,-137 1343.41,-137 1343.41,-118 1219.41,-118"/>
<text text-anchor="middle" x="1281.41" y="-125" font-family="Helvetica,sans-Serif" font-size="10.00">amr&#45;wind/core/Field.H</text>
</a>
</g>
</g>
<!-- Node2&#45;&gt;Node15 -->
<g id="edge16" class="edge">
<title>Node2&#45;&gt;Node15</title>
<path fill="none" stroke="midnightblue" d="M369.24,-251.66C484.6,-246.46 694.57,-234.41 872.41,-210 1005.66,-191.71 1160.89,-157.05 1236.04,-139.41"/>
<polygon fill="midnightblue" stroke="midnightblue" points="1237.17,-142.74 1246.1,-137.04 1235.56,-135.92 1237.17,-142.74"/>
</g>
<!-- Node2&#45;&gt;Node22 -->
<g id="edge31" class="edge">
<title>Node2&#45;&gt;Node22</title>
<path fill="none" stroke="midnightblue" d="M293.16,-246.48C303.22,-238.49 318.65,-226.25 331.86,-215.77"/>
<polygon fill="midnightblue" stroke="midnightblue" points="334.08,-218.48 339.74,-209.52 329.73,-213 334.08,-218.48"/>
</g>
<!-- Node4 -->
<g id="node4" class="node">
<title>Node4</title>
<g id="a_node4"><a xlink:href="_factory_8_h.html" target="_top" xlink:title=" ">
<polygon fill="white" stroke="black" points="197.41,-118 197.41,-137 331.41,-137 331.41,-118 197.41,-118"/>
<text text-anchor="middle" x="264.41" y="-125" font-family="Helvetica,sans-Serif" font-size="10.00">amr&#45;wind/core/Factory.H</text>
</a>
</g>
</g>
<!-- Node3&#45;&gt;Node4 -->
<g id="edge3" class="edge">
<title>Node3&#45;&gt;Node4</title>
<path fill="none" stroke="midnightblue" d="M215.1,-184.73C224.08,-174.5 239.1,-157.36 250.22,-144.69"/>
<polygon fill="midnightblue" stroke="midnightblue" points="252.89,-146.95 256.85,-137.13 247.62,-142.34 252.89,-146.95"/>
</g>
<!-- Node10 -->
<g id="node10" class="node">
<title>Node10</title>
<g id="a_node10"><a xlink:href="_coll_mgr_8_h.html" target="_top" xlink:title=" ">
<polygon fill="white" stroke="black" points="387.91,-118 387.91,-137 524.91,-137 524.91,-118 387.91,-118"/>
<text text-anchor="middle" x="456.41" y="-125" font-family="Helvetica,sans-Serif" font-size="10.00">amr&#45;wind/core/CollMgr.H</text>
</a>
</g>
</g>
<!-- Node3&#45;&gt;Node10 -->
<g id="edge9" class="edge">
<title>Node3&#45;&gt;Node10</title>
<path fill="none" stroke="midnightblue" d="M240.22,-184.94C284.82,-173.29 364.65,-152.45 413.83,-139.62"/>
<polygon fill="midnightblue" stroke="midnightblue" points="414.74,-143 423.53,-137.08 412.97,-136.22 414.74,-143"/>
</g>
<!-- Node13 -->
<g id="node13" class="node">
<title>Node13</title>
<g id="a_node13"><a xlink:title=" ">
<polygon fill="white" stroke="#bfbfbf" points="730.91,-0.5 730.91,-19.5 839.91,-19.5 839.91,-0.5 730.91,-0.5"/>
<text text-anchor="middle" x="785.41" y="-7.5" font-family="Helvetica,sans-Serif" font-size="10.00">AMReX_MultiFab.H</text>
</a>
</g>
</g>
<!-- Node3&#45;&gt;Node13 -->
<g id="edge14" class="edge">
<title>Node3&#45;&gt;Node13</title>
<path fill="none" stroke="midnightblue" d="M138.83,-188.62C107.77,-182.57 73.75,-169.75 54.41,-143 31.76,-111.67 27.93,-84.17 54.41,-56 77.07,-31.9 545.95,-17.25 720.61,-12.61"/>
<polygon fill="midnightblue" stroke="midnightblue" points="720.78,-16.1 730.69,-12.34 720.6,-9.1 720.78,-16.1"/>
</g>
<!-- Node14 -->
<g id="node14" class="node">
<title>Node14</title>
<g id="a_node14"><a xlink:title=" ">
<polygon fill="white" stroke="#bfbfbf" points="63.91,-118 63.91,-137 178.91,-137 178.91,-118 63.91,-118"/>
<text text-anchor="middle" x="121.41" y="-125" font-family="Helvetica,sans-Serif" font-size="10.00">AMReX_Geometry.H</text>
</a>
</g>
</g>
<!-- Node3&#45;&gt;Node14 -->
<g id="edge15" class="edge">
<title>Node3&#45;&gt;Node14</title>
<path fill="none" stroke="midnightblue" d="M195.82,-184.73C181.76,-174.11 157.86,-156.05 140.95,-143.26"/>
<polygon fill="midnightblue" stroke="midnightblue" points="142.92,-140.36 132.83,-137.13 138.7,-145.95 142.92,-140.36"/>
</g>
<!-- Node4&#45;&gt;Node5 -->
<g id="edge4" class="edge">
<title>Node4&#45;&gt;Node5</title>
<path fill="none" stroke="midnightblue" d="M283.33,-117.98C305.58,-107.95 342.73,-91.2 368.34,-79.65"/>
<polygon fill="midnightblue" stroke="midnightblue" points="369.86,-82.81 377.54,-75.51 366.98,-76.43 369.86,-82.81"/>
</g>
<!-- Node4&#45;&gt;Node6 -->
<g id="edge5" class="edge">
<title>Node4&#45;&gt;Node6</title>
<path fill="none" stroke="midnightblue" d="M296.8,-117.98C336.65,-107.48 404.43,-89.64 448.3,-78.09"/>
<polygon fill="midnightblue" stroke="midnightblue" points="449.32,-81.44 458.09,-75.51 447.53,-74.67 449.32,-81.44"/>
</g>
<!-- Node7 -->
<g id="node7" class="node">
<title>Node7</title>
<g id="a_node7"><a xlink:title=" ">
<polygon fill="white" stroke="#bfbfbf" points="63.41,-56.5 63.41,-75.5 123.41,-75.5 123.41,-56.5 63.41,-56.5"/>
<text text-anchor="middle" x="93.41" y="-63.5" font-family="Helvetica,sans-Serif" font-size="10.00">iostream</text>
</a>
</g>
</g>
<!-- Node4&#45;&gt;Node7 -->
<g id="edge6" class="edge">
<title>Node4&#45;&gt;Node7</title>
<path fill="none" stroke="midnightblue" d="M239.91,-117.98C210.46,-107.72 160.84,-90.46 127.61,-78.9"/>
<polygon fill="midnightblue" stroke="midnightblue" points="128.46,-75.49 117.87,-75.51 126.16,-82.1 128.46,-75.49"/>
</g>
<!-- Node8 -->
<g id="node8" class="node">
<title>Node8</title>
<g id="a_node8"><a xlink:title=" ">
<polygon fill="white" stroke="#bfbfbf" points="141.41,-56.5 141.41,-75.5 231.41,-75.5 231.41,-56.5 141.41,-56.5"/>
<text text-anchor="middle" x="186.41" y="-63.5" font-family="Helvetica,sans-Serif" font-size="10.00">AMReX_Print.H</text>
</a>
</g>
</g>
<!-- Node4&#45;&gt;Node8 -->
<g id="edge7" class="edge">
<title>Node4&#45;&gt;Node8</title>
<path fill="none" stroke="midnightblue" d="M253.24,-117.98C240.84,-108.52 220.63,-93.1 205.67,-81.69"/>
<polygon fill="midnightblue" stroke="midnightblue" points="207.64,-78.79 197.57,-75.51 203.4,-84.36 207.64,-78.79"/>
</g>
<!-- Node9 -->
<g id="node9" class="node">
<title>Node9</title>
<g id="a_node9"><a xlink:title=" ">
<polygon fill="white" stroke="#bfbfbf" points="249.41,-56.5 249.41,-75.5 311.41,-75.5 311.41,-56.5 249.41,-56.5"/>
<text text-anchor="middle" x="280.41" y="-63.5" font-family="Helvetica,sans-Serif" font-size="10.00">AMReX.H</text>
</a>
</g>
</g>
<!-- Node4&#45;&gt;Node9 -->
<g id="edge8" class="edge">
<title>Node4&#45;&gt;Node9</title>
<path fill="none" stroke="midnightblue" d="M266.71,-117.98C268.99,-109.49 272.56,-96.2 275.49,-85.32"/>
<polygon fill="midnightblue" stroke="midnightblue" points="278.91,-86.07 278.13,-75.51 272.15,-84.26 278.91,-86.07"/>
</g>
<!-- Node10&#45;&gt;Node5 -->
<g id="edge11" class="edge">
<title>Node10&#45;&gt;Node5</title>
<path fill="none" stroke="midnightblue" d="M447.82,-117.98C438.55,-108.78 423.6,-93.96 412.2,-82.66"/>
<polygon fill="midnightblue" stroke="midnightblue" points="414.56,-80.07 405,-75.51 409.63,-85.04 414.56,-80.07"/>
</g>
<!-- Node10&#45;&gt;Node6 -->
<g id="edge12" class="edge">
<title>Node10&#45;&gt;Node6</title>
<path fill="none" stroke="midnightblue" d="M461.29,-117.98C466.29,-109.23 474.2,-95.37 480.52,-84.31"/>
<polygon fill="midnightblue" stroke="midnightblue" points="483.63,-85.93 485.55,-75.51 477.55,-82.46 483.63,-85.93"/>
</g>
<!-- Node11 -->
<g id="node11" class="node">
<title>Node11</title>
<g id="a_node11"><a xlink:title=" ">
<polygon fill="white" stroke="#bfbfbf" points="1469.41,-0.5 1469.41,-19.5 1513.41,-19.5 1513.41,-0.5 1469.41,-0.5"/>
<text text-anchor="middle" x="1491.41" y="-7.5" font-family="Helvetica,sans-Serif" font-size="10.00">string</text>
</a>
</g>
</g>
<!-- Node10&#45;&gt;Node11 -->
<g id="edge10" class="edge">
<title>Node10&#45;&gt;Node11</title>
<path fill="none" stroke="midnightblue" d="M484.6,-117.93C515.81,-108.29 567.51,-91.91 611.41,-76 633.92,-67.84 638.04,-61.16 661.41,-56 740.21,-38.6 1314.93,-17.25 1458.82,-12.14"/>
<polygon fill="midnightblue" stroke="midnightblue" points="1459.3,-15.62 1469.17,-11.77 1459.06,-8.63 1459.3,-15.62"/>
</g>
<!-- Node12 -->
<g id="node12" class="node">
<title>Node12</title>
<g id="a_node12"><a xlink:title=" ">
<polygon fill="white" stroke="#bfbfbf" points="1076.41,-0.5 1076.41,-19.5 1174.41,-19.5 1174.41,-0.5 1076.41,-0.5"/>
<text text-anchor="middle" x="1125.41" y="-7.5" font-family="Helvetica,sans-Serif" font-size="10.00">AMReX_Vector.H</text>
</a>
</g>
</g>
<!-- Node10&#45;&gt;Node12 -->
<g id="edge13" class="edge">
<title>Node10&#45;&gt;Node12</title>
<path fill="none" stroke="midnightblue" d="M472.37,-118C501.98,-102.67 567.85,-70.61 627.41,-56 782.43,-17.97 971.65,-11.35 1065.99,-10.65"/>
<polygon fill="midnightblue" stroke="midnightblue" points="1066.21,-14.15 1076.19,-10.59 1066.17,-7.15 1066.21,-14.15"/>
</g>
<!-- Node15&#45;&gt;Node5 -->
<g id="edge18" class="edge">
<title>Node15&#45;&gt;Node5</title>
<path fill="none" stroke="midnightblue" d="M1219.35,-121.26C1183.45,-118.33 1137.4,-114.72 1096.41,-112 806.15,-92.72 728.46,-116.68 435.76,-75.75"/>
<polygon fill="midnightblue" stroke="midnightblue" points="436.09,-72.26 425.7,-74.33 435.11,-79.19 436.09,-72.26"/>
</g>
<!-- Node15&#45;&gt;Node6 -->
<g id="edge19" class="edge">
<title>Node15&#45;&gt;Node6</title>
<path fill="none" stroke="midnightblue" d="M1219.32,-120.23C1191.8,-117.53 1159,-114.45 1129.41,-112 914.46,-94.18 658.45,-77.53 546.96,-70.51"/>
<polygon fill="midnightblue" stroke="midnightblue" points="547.15,-67.01 536.95,-69.88 546.71,-74 547.15,-67.01"/>
</g>
<!-- Node15&#45;&gt;Node11 -->
<g id="edge17" class="edge">
<title>Node15&#45;&gt;Node11</title>
<path fill="none" stroke="midnightblue" d="M1279.53,-117.87C1276.88,-103.17 1273.93,-73.22 1289.41,-56 1311.73,-31.18 1408.04,-18.68 1459.2,-13.7"/>
<polygon fill="midnightblue" stroke="midnightblue" points="1459.76,-17.16 1469.39,-12.75 1459.1,-10.19 1459.76,-17.16"/>
</g>
<!-- Node15&#45;&gt;Node13 -->
<g id="edge21" class="edge">
<title>Node15&#45;&gt;Node13</title>
<path fill="none" stroke="midnightblue" d="M1240.52,-117.93C1229.19,-115.76 1216.86,-113.6 1205.41,-112 1116.81,-99.6 873.53,-132.81 804.41,-76 790.95,-64.93 786.71,-44.89 785.52,-29.98"/>
<polygon fill="midnightblue" stroke="midnightblue" points="789.01,-29.66 785.11,-19.81 782.02,-29.94 789.01,-29.66"/>
</g>
<!-- Node16 -->
<g id="node16" class="node">
<title>Node16</title>
<g id="a_node16"><a xlink:title=" ">
<polygon fill="white" stroke="#bfbfbf" points="813.41,-56.5 813.41,-75.5 877.41,-75.5 877.41,-56.5 813.41,-56.5"/>
<text text-anchor="middle" x="845.41" y="-63.5" font-family="Helvetica,sans-Serif" font-size="10.00">algorithm</text>
</a>
</g>
</g>
<!-- Node15&#45;&gt;Node16 -->
<g id="edge20" class="edge">
<title>Node15&#45;&gt;Node16</title>
<path fill="none" stroke="midnightblue" d="M1239.7,-117.95C1228.59,-115.84 1216.57,-113.69 1205.41,-112 1064.79,-90.66 1027.79,-98.93 887.41,-76 887.31,-75.98 887.21,-75.97 887.11,-75.95"/>
<polygon fill="midnightblue" stroke="midnightblue" points="887.92,-72.54 877.46,-74.21 886.68,-79.43 887.92,-72.54"/>
</g>
<!-- Node17 -->
<g id="node17" class="node">
<title>Node17</title>
<g id="a_node17"><a xlink:title=" ">
<polygon fill="white" stroke="#bfbfbf" points="895.91,-56.5 895.91,-75.5 994.91,-75.5 994.91,-56.5 895.91,-56.5"/>
<text text-anchor="middle" x="945.41" y="-63.5" font-family="Helvetica,sans-Serif" font-size="10.00">AMReX_BCRec.H</text>
</a>
</g>
</g>
<!-- Node15&#45;&gt;Node17 -->
<g id="edge22" class="edge">
<title>Node15&#45;&gt;Node17</title>
<path fill="none" stroke="midnightblue" d="M1237.23,-117.94C1226.81,-115.95 1215.72,-113.88 1205.41,-112 1136.96,-99.55 1058.22,-86.03 1005.49,-77.1"/>
<polygon fill="midnightblue" stroke="midnightblue" points="1005.75,-73.59 995.3,-75.37 1004.58,-80.49 1005.75,-73.59"/>
</g>
<!-- Node18 -->
<g id="node18" class="node">
<title>Node18</title>
<g id="a_node18"><a xlink:title=" ">
<polygon fill="white" stroke="#bfbfbf" points="669.91,-56.5 669.91,-75.5 756.91,-75.5 756.91,-56.5 669.91,-56.5"/>
<text text-anchor="middle" x="713.41" y="-63.5" font-family="Helvetica,sans-Serif" font-size="10.00">AMReX_Gpu.H</text>
</a>
</g>
</g>
<!-- Node15&#45;&gt;Node18 -->
<g id="edge23" class="edge">
<title>Node15&#45;&gt;Node18</title>
<path fill="none" stroke="midnightblue" d="M1240.92,-117.95C1229.48,-115.76 1216.99,-113.58 1205.41,-112 1013.64,-85.83 963.61,-98.85 771.41,-76 769.96,-75.83 768.49,-75.65 767,-75.46"/>
<polygon fill="midnightblue" stroke="midnightblue" points="767.45,-71.99 757.07,-74.12 766.52,-78.92 767.45,-71.99"/>
</g>
<!-- Node19 -->
<g id="node19" class="node">
<title>Node19</title>
<g id="a_node19"><a xlink:href="incflo__enums_8_h.html" target="_top" xlink:title=" ">
<polygon fill="white" stroke="black" points="1582.91,-56.5 1582.91,-75.5 1723.91,-75.5 1723.91,-56.5 1582.91,-56.5"/>
<text text-anchor="middle" x="1653.41" y="-63.5" font-family="Helvetica,sans-Serif" font-size="10.00">amr&#45;wind/incflo_enums.H</text>
</a>
</g>
</g>
<!-- Node15&#45;&gt;Node19 -->
<g id="edge24" class="edge">
<title>Node15&#45;&gt;Node19</title>
<path fill="none" stroke="midnightblue" d="M1321.15,-118C1331.32,-115.93 1342.26,-113.8 1352.41,-112 1429.8,-98.32 1518.85,-85.35 1579.91,-76.88"/>
<polygon fill="midnightblue" stroke="midnightblue" points="1580.41,-80.34 1589.84,-75.51 1579.45,-73.41 1580.41,-80.34"/>
</g>
<!-- Node20 -->
<g id="node20" class="node">
<title>Node20</title>
<g id="a_node20"><a xlink:href="_field_desc_types_8_h.html" target="_top" xlink:title=" ">
<polygon fill="white" stroke="black" points="1931.41,-0.5 1931.41,-19.5 2107.41,-19.5 2107.41,-0.5 1931.41,-0.5"/>
<text text-anchor="middle" x="2019.41" y="-7.5" font-family="Helvetica,sans-Serif" font-size="10.00">amr&#45;wind/core/FieldDescTypes.H</text>
</a>
</g>
</g>
<!-- Node15&#45;&gt;Node20 -->
<g id="edge25" class="edge">
<title>Node15&#45;&gt;Node20</title>
<path fill="none" stroke="midnightblue" d="M1283.75,-117.68C1288.37,-102.12 1300.32,-70.13 1323.41,-56 1373.09,-25.61 1741.2,-15.48 1921.06,-12.32"/>
<polygon fill="midnightblue" stroke="midnightblue" points="1921.38,-15.82 1931.32,-12.15 1921.26,-8.82 1921.38,-15.82"/>
</g>
<!-- Node21 -->
<g id="node21" class="node">
<title>Node21</title>
<g id="a_node21"><a xlink:href="_view_field_8_h.html" target="_top" xlink:title=" ">
<polygon fill="white" stroke="black" points="1051.41,-56.5 1051.41,-75.5 1199.41,-75.5 1199.41,-56.5 1051.41,-56.5"/>
<text text-anchor="middle" x="1125.41" y="-63.5" font-family="Helvetica,sans-Serif" font-size="10.00">amr&#45;wind/core/ViewField.H</text>
</a>
</g>
</g>
<!-- Node15&#45;&gt;Node21 -->
<g id="edge26" class="edge">
<title>Node15&#45;&gt;Node21</title>
<path fill="none" stroke="midnightblue" d="M1259.06,-117.98C1232.42,-107.81 1187.7,-90.76 1157.4,-79.2"/>
<polygon fill="midnightblue" stroke="midnightblue" points="1158.32,-75.8 1147.72,-75.51 1155.82,-82.34 1158.32,-75.8"/>
</g>
<!-- Node21&#45;&gt;Node11 -->
<g id="edge27" class="edge">
<title>Node21&#45;&gt;Node11</title>
<path fill="none" stroke="midnightblue" d="M1183.41,-56.44C1261.34,-44.95 1397.21,-24.9 1459.08,-15.77"/>
<polygon fill="midnightblue" stroke="midnightblue" points="1459.66,-19.22 1469.04,-14.3 1458.64,-12.3 1459.66,-19.22"/>
</g>
<!-- Node21&#45;&gt;Node12 -->
<g id="edge30" class="edge">
<title>Node21&#45;&gt;Node12</title>
<path fill="none" stroke="midnightblue" d="M1125.41,-56.08C1125.41,-49.01 1125.41,-38.86 1125.41,-29.99"/>
<polygon fill="midnightblue" stroke="midnightblue" points="1128.92,-29.75 1125.41,-19.75 1121.92,-29.75 1128.92,-29.75"/>
</g>
<!-- Node21&#45;&gt;Node13 -->
<g id="edge29" class="edge">
<title>Node21&#45;&gt;Node13</title>
<path fill="none" stroke="midnightblue" d="M1071.54,-56.44C1011.11,-46.85 913.18,-31.29 849.03,-21.1"/>
<polygon fill="midnightblue" stroke="midnightblue" points="849.46,-17.63 839.04,-19.52 848.36,-24.54 849.46,-17.63"/>
</g>
<!-- Node21&#45;&gt;Node20 -->
<g id="edge28" class="edge">
<title>Node21&#45;&gt;Node20</title>
<path fill="none" stroke="midnightblue" d="M1199.72,-60.51C1360.51,-50.8 1740.74,-27.83 1921.15,-16.94"/>
<polygon fill="midnightblue" stroke="midnightblue" points="1921.39,-20.43 1931.16,-16.33 1920.97,-13.44 1921.39,-20.43"/>
</g>
<!-- Node22&#45;&gt;Node4 -->
<g id="edge32" class="edge">
<title>Node22&#45;&gt;Node4</title>
<path fill="none" stroke="midnightblue" d="M337.24,-179.4C321.78,-168.6 300.55,-153.76 285,-142.89"/>
<polygon fill="midnightblue" stroke="midnightblue" points="286.79,-139.87 276.59,-137.01 282.78,-145.6 286.79,-139.87"/>
</g>
<!-- Node22&#45;&gt;Node18 -->
<g id="edge33" class="edge">
<title>Node22&#45;&gt;Node18</title>
<path fill="none" stroke="midnightblue" d="M416.36,-179.41C459.45,-168.6 513.81,-153.76 534.41,-143 553.74,-132.91 553.25,-122.38 572.41,-112 600.89,-96.57 635.5,-85.43 663.3,-78.09"/>
<polygon fill="midnightblue" stroke="midnightblue" points="664.39,-81.42 673.21,-75.56 662.66,-74.64 664.39,-81.42"/>
</g>
<!-- Node23&#45;&gt;Node3 -->
<g id="edge74" class="edge">
<title>Node23&#45;&gt;Node3</title>
<path fill="none" stroke="midnightblue" d="M733.16,-251.63C638.81,-245.76 446.84,-232.13 285.41,-210 276.98,-208.84 268.07,-207.4 259.41,-205.88"/>
<polygon fill="midnightblue" stroke="midnightblue" points="259.86,-202.4 249.4,-204.06 258.61,-209.29 259.86,-202.4"/>
</g>
<!-- Node24 -->
<g id="node24" class="node">
<title>Node24</title>
<g id="a_node24"><a xlink:title=" ">
<polygon fill="white" stroke="#bfbfbf" points="977.41,-118 977.41,-137 1087.41,-137 1087.41,-118 977.41,-118"/>
<text text-anchor="middle" x="1032.41" y="-125" font-family="Helvetica,sans-Serif" font-size="10.00">AMReX_AmrCore.H</text>
</a>
</g>
</g>
<!-- Node23&#45;&gt;Node24 -->
<g id="edge37" class="edge">
<title>Node23&#45;&gt;Node24</title>
<path fill="none" stroke="midnightblue" d="M807.98,-246.31C849.35,-224.59 957.44,-167.85 1006.97,-141.86"/>
<polygon fill="midnightblue" stroke="midnightblue" points="1008.83,-144.84 1016.05,-137.09 1005.57,-138.64 1008.83,-144.84"/>
</g>
<!-- Node25 -->
<g id="node25" class="node">
<title>Node25</title>
<g id="a_node25"><a xlink:href="_sim_time_8_h.html" target="_top" xlink:title=" ">
<polygon fill="white" stroke="black" points="719.41,-185 719.41,-204 863.41,-204 863.41,-185 719.41,-185"/>
<text text-anchor="middle" x="791.41" y="-192" font-family="Helvetica,sans-Serif" font-size="10.00">amr&#45;wind/core/SimTime.H</text>
</a>
</g>
</g>
<!-- Node23&#45;&gt;Node25 -->
<g id="edge38" class="edge">
<title>Node23&#45;&gt;Node25</title>
<path fill="none" stroke="midnightblue" d="M791.41,-246.48C791.41,-238.08 791.41,-224.98 791.41,-214.16"/>
<polygon fill="midnightblue" stroke="midnightblue" points="794.92,-214.01 791.41,-204.01 787.92,-214.01 794.92,-214.01"/>
</g>
<!-- Node29 -->
<g id="node29" class="node">
<title>Node29</title>
<g id="a_node29"><a xlink:href="_field_repo_8_h.html" target="_top" xlink:title=" ">
<polygon fill="white" stroke="black" points="1286.91,-185 1286.91,-204 1435.91,-204 1435.91,-185 1286.91,-185"/>
<text text-anchor="middle" x="1361.41" y="-192" font-family="Helvetica,sans-Serif" font-size="10.00">amr&#45;wind/core/FieldRepo.H</text>
</a>
</g>
</g>
<!-- Node23&#45;&gt;Node29 -->
<g id="edge42" class="edge">
<title>Node23&#45;&gt;Node29</title>
<path fill="none" stroke="midnightblue" d="M849.64,-247.17C852.94,-246.77 856.22,-246.37 859.41,-246 1005.99,-228.93 1177.04,-212.46 1276.88,-203.19"/>
<polygon fill="midnightblue" stroke="midnightblue" points="1277.28,-206.67 1286.91,-202.26 1276.63,-199.7 1277.28,-206.67"/>
</g>
<!-- Node37 -->
<g id="node37" class="node">
<title>Node37</title>
<g id="a_node37"><a xlink:href="_p_d_e_base_8_h.html" target="_top" xlink:title=" ">
<polygon fill="white" stroke="black" points="1453.91,-179.5 1453.91,-209.5 1608.91,-209.5 1608.91,-179.5 1453.91,-179.5"/>
<text text-anchor="start" x="1461.91" y="-197.5" font-family="Helvetica,sans-Serif" font-size="10.00">amr&#45;wind/equation_systems</text>
<text text-anchor="middle" x="1531.41" y="-186.5" font-family="Helvetica,sans-Serif" font-size="10.00">/PDEBase.H</text>
</a>
</g>
</g>
<!-- Node23&#45;&gt;Node37 -->
<g id="edge66" class="edge">
<title>Node23&#45;&gt;Node37</title>
<path fill="none" stroke="midnightblue" d="M849.62,-247.02C852.93,-246.65 856.21,-246.31 859.41,-246 1115.84,-221.19 1184.45,-239.26 1443.56,-210.14"/>
<polygon fill="midnightblue" stroke="midnightblue" points="1444.11,-213.6 1453.65,-208.99 1443.32,-206.64 1444.11,-213.6"/>
</g>
<!-- Node40 -->
<g id="node40" class="node">
<title>Node40</title>
<g id="a_node40"><a xlink:href="_mesh_map_8_h.html" target="_top" xlink:title=" ">
<polygon fill="white" stroke="black" points="439.41,-185 439.41,-204 587.41,-204 587.41,-185 439.41,-185"/>
<text text-anchor="middle" x="513.41" y="-192" font-family="Helvetica,sans-Serif" font-size="10.00">amr&#45;wind/core/MeshMap.H</text>
</a>
</g>
</g>
<!-- Node23&#45;&gt;Node40 -->
<g id="edge75" class="edge">
<title>Node23&#45;&gt;Node40</title>
<path fill="none" stroke="midnightblue" d="M751.58,-246.48C701.94,-235.85 617.07,-217.68 563.19,-206.15"/>
<polygon fill="midnightblue" stroke="midnightblue" points="563.68,-202.68 553.17,-204.01 562.22,-209.52 563.68,-202.68"/>
</g>
<!-- Node26 -->
<g id="node26" class="node">
<title>Node26</title>
<g id="a_node26"><a xlink:title=" ">
<polygon fill="white" stroke="#bfbfbf" points="867.41,-118 867.41,-137 959.41,-137 959.41,-118 867.41,-118"/>
<text text-anchor="middle" x="913.41" y="-125" font-family="Helvetica,sans-Serif" font-size="10.00">AMReX_REAL.H</text>
</a>
</g>
</g>
<!-- Node25&#45;&gt;Node26 -->
<g id="edge39" class="edge">
<title>Node25&#45;&gt;Node26</title>
<path fill="none" stroke="midnightblue" d="M807.62,-184.87C828.22,-173.89 864.01,-154.82 888.19,-141.94"/>
<polygon fill="midnightblue" stroke="midnightblue" points="889.97,-144.96 897.15,-137.17 886.68,-138.78 889.97,-144.96"/>
</g>
<!-- Node27 -->
<g id="node27" class="node">
<title>Node27</title>
<g id="a_node27"><a xlink:title=" ">
<polygon fill="white" stroke="#bfbfbf" points="581.41,-118 581.41,-137 715.41,-137 715.41,-118 581.41,-118"/>
<text text-anchor="middle" x="648.41" y="-125" font-family="Helvetica,sans-Serif" font-size="10.00">AMReX_GpuQualifiers.H</text>
</a>
</g>
</g>
<!-- Node25&#45;&gt;Node27 -->
<g id="edge40" class="edge">
<title>Node25&#45;&gt;Node27</title>
<path fill="none" stroke="midnightblue" d="M772.43,-184.87C747.96,-173.75 705.21,-154.32 676.86,-141.43"/>
<polygon fill="midnightblue" stroke="midnightblue" points="678.03,-138.12 667.48,-137.17 675.14,-144.49 678.03,-138.12"/>
</g>
<!-- Node28 -->
<g id="node28" class="node">
<title>Node28</title>
<g id="a_node28"><a xlink:title=" ">
<polygon fill="white" stroke="#bfbfbf" points="733.41,-118 733.41,-137 849.41,-137 849.41,-118 733.41,-118"/>
<text text-anchor="middle" x="791.41" y="-125" font-family="Helvetica,sans-Serif" font-size="10.00">AMReX_Extension.H</text>
</a>
</g>
</g>
<!-- Node25&#45;&gt;Node28 -->
<g id="edge41" class="edge">
<title>Node25&#45;&gt;Node28</title>
<path fill="none" stroke="midnightblue" d="M791.41,-184.73C791.41,-175.18 791.41,-159.62 791.41,-147.28"/>
<polygon fill="midnightblue" stroke="midnightblue" points="794.92,-147.13 791.41,-137.13 787.92,-147.13 794.92,-147.13"/>
</g>
<!-- Node29&#45;&gt;Node6 -->
<g id="edge44" class="edge">
<title>Node29&#45;&gt;Node6</title>
<path fill="none" stroke="midnightblue" d="M1291.86,-185C1246.91,-177.76 1187.96,-164.92 1139.41,-143 1117.94,-133.3 1118.58,-119.97 1096.41,-112 982.2,-70.92 672.11,-88.87 551.41,-76 549.95,-75.84 548.47,-75.68 546.97,-75.51"/>
<polygon fill="midnightblue" stroke="midnightblue" points="547.35,-72.03 536.99,-74.27 546.49,-78.97 547.35,-72.03"/>
</g>
<!-- Node29&#45;&gt;Node11 -->
<g id="edge43" class="edge">
<title>Node29&#45;&gt;Node11</title>
<path fill="none" stroke="midnightblue" d="M1412.76,-184.96C1505.61,-168.34 1695.37,-128.62 1733.41,-76 1738.62,-68.8 1739.1,-62.84 1733.41,-56 1707.07,-24.3 1583,-14.82 1523.46,-12.08"/>
<polygon fill="midnightblue" stroke="midnightblue" points="1523.6,-8.58 1513.46,-11.65 1523.31,-15.57 1523.6,-8.58"/>
</g>
<!-- Node29&#45;&gt;Node13 -->
<g id="edge64" class="edge">
<title>Node29&#45;&gt;Node13</title>
<path fill="none" stroke="midnightblue" d="M1300.25,-184.94C1260.7,-177.66 1209.03,-164.81 1167.41,-143 1148.71,-133.2 1150.91,-120.1 1131.41,-112 1034.68,-71.82 732.6,-152.85 661.41,-76 636.9,-49.53 682.5,-31.9 725.15,-21.76"/>
<polygon fill="midnightblue" stroke="midnightblue" points="726.05,-25.15 735.03,-19.53 724.51,-18.32 726.05,-25.15"/>
</g>
<!-- Node29&#45;&gt;Node15 -->
<g id="edge50" class="edge">
<title>Node29&#45;&gt;Node15</title>
<path fill="none" stroke="midnightblue" d="M1350.63,-184.73C1337.67,-174.21 1315.73,-156.38 1300.02,-143.62"/>
<polygon fill="midnightblue" stroke="midnightblue" points="1302,-140.72 1292.03,-137.13 1297.59,-146.15 1302,-140.72"/>
</g>
<!-- Node29&#45;&gt;Node20 -->
<g id="edge45" class="edge">
<title>Node29&#45;&gt;Node20</title>
<path fill="none" stroke="midnightblue" d="M1405.76,-184.96C1418.52,-182.75 1432.48,-180.55 1445.41,-179 1504.24,-171.95 1930.8,-179.57 1977.41,-143 2012.33,-115.61 2018.73,-59.14 2019.59,-29.73"/>
<polygon fill="midnightblue" stroke="midnightblue" points="2023.09,-29.61 2019.69,-19.58 2016.09,-29.54 2023.09,-29.61"/>
</g>
<!-- Node29&#45;&gt;Node24 -->
<g id="edge63" class="edge">
<title>Node29&#45;&gt;Node24</title>
<path fill="none" stroke="midnightblue" d="M1316.28,-184.95C1264.39,-175.07 1176.68,-158.22 1101.41,-143 1095.27,-141.76 1088.83,-140.43 1082.45,-139.11"/>
<polygon fill="midnightblue" stroke="midnightblue" points="1083.03,-135.65 1072.53,-137.04 1081.6,-142.51 1083.03,-135.65"/>
</g>
<!-- Node30 -->
<g id="node30" class="node">
<title>Node30</title>
<g id="a_node30"><a xlink:href="_field_utils_8_h.html" target="_top" xlink:title=" ">
<polygon fill="white" stroke="black" points="2100.41,-56.5 2100.41,-75.5 2246.41,-75.5 2246.41,-56.5 2100.41,-56.5"/>
<text text-anchor="middle" x="2173.41" y="-63.5" font-family="Helvetica,sans-Serif" font-size="10.00">amr&#45;wind/core/FieldUtils.H</text>
</a>
</g>
</g>
<!-- Node29&#45;&gt;Node30 -->
<g id="edge46" class="edge">
<title>Node29&#45;&gt;Node30</title>
<path fill="none" stroke="midnightblue" d="M1405.31,-184.94C1418.19,-182.7 1432.33,-180.49 1445.41,-179 1587.17,-162.84 1954.3,-196.85 2086.41,-143 2117.38,-130.38 2144.91,-101.96 2160.35,-83.68"/>
<polygon fill="midnightblue" stroke="midnightblue" points="2163.31,-85.59 2166.92,-75.63 2157.88,-81.16 2163.31,-85.59"/>
</g>
<!-- Node32 -->
<g id="node32" class="node">
<title>Node32</title>
<g id="a_node32"><a xlink:href="_int_field_8_h.html" target="_top" xlink:title=" ">
<polygon fill="white" stroke="black" points="1830.91,-118 1830.91,-137 1967.91,-137 1967.91,-118 1830.91,-118"/>
<text text-anchor="middle" x="1899.41" y="-125" font-family="Helvetica,sans-Serif" font-size="10.00">amr&#45;wind/core/IntField.H</text>
</a>
</g>
</g>
<!-- Node29&#45;&gt;Node32 -->
<g id="edge51" class="edge">
<title>Node29&#45;&gt;Node32</title>
<path fill="none" stroke="midnightblue" d="M1407.55,-185C1419.83,-182.88 1433.1,-180.73 1445.41,-179 1592.84,-158.33 1630.51,-159.86 1778.41,-143 1792.03,-141.45 1806.51,-139.75 1820.53,-138.09"/>
<polygon fill="midnightblue" stroke="midnightblue" points="1821.13,-141.54 1830.64,-136.88 1820.3,-134.59 1821.13,-141.54"/>
</g>
<!-- Node33 -->
<g id="node33" class="node">
<title>Node33</title>
<g id="a_node33"><a xlink:title=" ">
<polygon fill="white" stroke="#bfbfbf" points="1818.41,-56.5 1818.41,-75.5 1930.41,-75.5 1930.41,-56.5 1818.41,-56.5"/>
<text text-anchor="middle" x="1874.41" y="-63.5" font-family="Helvetica,sans-Serif" font-size="10.00">AMReX_iMultiFab.H</text>
</a>
</g>
</g>
<!-- Node29&#45;&gt;Node33 -->
<g id="edge65" class="edge">
<title>Node29&#45;&gt;Node33</title>
<path fill="none" stroke="midnightblue" d="M1408.44,-184.96C1420.48,-182.89 1433.41,-180.77 1445.41,-179 1576.09,-159.76 1614.98,-184.38 1740.41,-143 1784.07,-128.6 1829.52,-99.27 1854.66,-81.56"/>
<polygon fill="midnightblue" stroke="midnightblue" points="1856.88,-84.27 1862.97,-75.6 1852.8,-78.58 1856.88,-84.27"/>
</g>
<!-- Node34 -->
<g id="node34" class="node">
<title>Node34</title>
<g id="a_node34"><a xlink:href="_scratch_field_8_h.html" target="_top" xlink:title=" ">
<polygon fill="white" stroke="black" points="1361.41,-118 1361.41,-137 1521.41,-137 1521.41,-118 1361.41,-118"/>
<text text-anchor="middle" x="1441.41" y="-125" font-family="Helvetica,sans-Serif" font-size="10.00">amr&#45;wind/core/ScratchField.H</text>
</a>
</g>
</g>
<!-- Node29&#45;&gt;Node34 -->
<g id="edge55" class="edge">
<title>Node29&#45;&gt;Node34</title>
<path fill="none" stroke="midnightblue" d="M1372.2,-184.73C1385.16,-174.21 1407.1,-156.38 1422.81,-143.62"/>
<polygon fill="midnightblue" stroke="midnightblue" points="1425.24,-146.15 1430.8,-137.13 1420.83,-140.72 1425.24,-146.15"/>
</g>
<!-- Node30&#45;&gt;Node13 -->
<g id="edge48" class="edge">
<title>Node30&#45;&gt;Node13</title>
<path fill="none" stroke="midnightblue" d="M2100.26,-62.15C1857.42,-52.71 1080.42,-22.48 850.25,-13.52"/>
<polygon fill="midnightblue" stroke="midnightblue" points="850.16,-10.02 840.03,-13.12 849.89,-17.01 850.16,-10.02"/>
</g>
<!-- Node30&#45;&gt;Node20 -->
<g id="edge47" class="edge">
<title>Node30&#45;&gt;Node20</title>
<path fill="none" stroke="midnightblue" d="M2149.01,-56.44C2123.22,-47.4 2082.34,-33.06 2053.4,-22.92"/>
<polygon fill="midnightblue" stroke="midnightblue" points="2054.3,-19.52 2043.7,-19.52 2051.98,-26.13 2054.3,-19.52"/>
</g>
<!-- Node31 -->
<g id="node31" class="node">
<title>Node31</title>
<g id="a_node31"><a xlink:title=" ">
<polygon fill="white" stroke="#bfbfbf" points="2125.41,-0.5 2125.41,-19.5 2249.41,-19.5 2249.41,-0.5 2125.41,-0.5"/>
<text text-anchor="middle" x="2187.41" y="-7.5" font-family="Helvetica,sans-Serif" font-size="10.00">AMReX_Interpolater.H</text>
</a>
</g>
</g>
<!-- Node30&#45;&gt;Node31 -->
<g id="edge49" class="edge">
<title>Node30&#45;&gt;Node31</title>
<path fill="none" stroke="midnightblue" d="M2175.73,-56.08C2177.58,-48.93 2180.25,-38.64 2182.57,-29.69"/>
<polygon fill="midnightblue" stroke="midnightblue" points="2186.02,-30.31 2185.15,-19.75 2179.25,-28.55 2186.02,-30.31"/>
</g>
<!-- Node32&#45;&gt;Node11 -->
<g id="edge52" class="edge">
<title>Node32&#45;&gt;Node11</title>
<path fill="none" stroke="midnightblue" d="M1910.69,-117.92C1927.9,-103.83 1956.97,-75.41 1939.41,-56 1911.58,-25.23 1621.83,-14.55 1523.7,-11.8"/>
<polygon fill="midnightblue" stroke="midnightblue" points="1523.59,-8.29 1513.5,-11.52 1523.4,-15.29 1523.59,-8.29"/>
</g>
<!-- Node32&#45;&gt;Node20 -->
<g id="edge53" class="edge">
<title>Node32&#45;&gt;Node20</title>
<path fill="none" stroke="midnightblue" d="M1914.79,-117.97C1930.39,-108.86 1954.69,-93.36 1972.41,-76 1987.13,-61.59 2000.53,-42.14 2009.22,-28.28"/>
<polygon fill="midnightblue" stroke="midnightblue" points="2012.23,-30.07 2014.44,-19.71 2006.25,-26.43 2012.23,-30.07"/>
</g>
<!-- Node32&#45;&gt;Node33 -->
<g id="edge54" class="edge">
<title>Node32&#45;&gt;Node33</title>
<path fill="none" stroke="midnightblue" d="M1895.83,-117.98C1892.23,-109.4 1886.57,-95.93 1881.97,-84.98"/>
<polygon fill="midnightblue" stroke="midnightblue" points="1885.09,-83.37 1877.99,-75.51 1878.64,-86.08 1885.09,-83.37"/>
</g>
<!-- Node34&#45;&gt;Node11 -->
<g id="edge56" class="edge">
<title>Node34&#45;&gt;Node11</title>
<path fill="none" stroke="midnightblue" d="M1447.65,-117.95C1454.51,-108.21 1465.49,-91.61 1472.41,-76 1479.12,-60.89 1484.19,-42.76 1487.4,-29.5"/>
<polygon fill="midnightblue" stroke="midnightblue" points="1490.83,-30.2 1489.65,-19.67 1484.01,-28.63 1490.83,-30.2"/>
</g>
<!-- Node34&#45;&gt;Node12 -->
<g id="edge61" class="edge">
<title>Node34&#45;&gt;Node12</title>
<path fill="none" stroke="midnightblue" d="M1417.92,-117.91C1362.39,-97.62 1222.89,-46.63 1158.7,-23.16"/>
<polygon fill="midnightblue" stroke="midnightblue" points="1159.66,-19.79 1149.06,-19.64 1157.25,-26.36 1159.66,-19.79"/>
</g>
<!-- Node34&#45;&gt;Node13 -->
<g id="edge60" class="edge">
<title>Node34&#45;&gt;Node13</title>
<path fill="none" stroke="midnightblue" d="M1391.58,-117.97C1378.83,-115.9 1365.13,-113.77 1352.41,-112 1215.04,-92.84 1174.92,-117 1042.41,-76 1024.18,-70.36 1022.38,-62.43 1004.41,-56 954.07,-37.99 894.48,-26.33 850.19,-19.4"/>
<polygon fill="midnightblue" stroke="midnightblue" points="850.54,-15.92 840.12,-17.87 849.48,-22.84 850.54,-15.92"/>
</g>
<!-- Node34&#45;&gt;Node20 -->
<g id="edge58" class="edge">
<title>Node34&#45;&gt;Node20</title>
<path fill="none" stroke="midnightblue" d="M1499.32,-117.99C1558.44,-108.95 1652.73,-93.56 1733.41,-76 1767.54,-68.57 1775.44,-64.11 1809.41,-56 1862.8,-43.26 1924.22,-30.3 1966.79,-21.57"/>
<polygon fill="midnightblue" stroke="midnightblue" points="1967.55,-24.99 1976.65,-19.56 1966.15,-18.13 1967.55,-24.99"/>
</g>
<!-- Node34&#45;&gt;Node21 -->
<g id="edge59" class="edge">
<title>Node34&#45;&gt;Node21</title>
<path fill="none" stroke="midnightblue" d="M1396.14,-117.98C1339.24,-107.26 1241.63,-88.88 1180.47,-77.37"/>
<polygon fill="midnightblue" stroke="midnightblue" points="1181.08,-73.92 1170.61,-75.51 1179.79,-80.8 1181.08,-73.92"/>
</g>
<!-- Node35 -->
<g id="node35" class="node">
<title>Node35</title>
<g id="a_node35"><a xlink:title=" ">
<polygon fill="white" stroke="#bfbfbf" points="1519.91,-56.5 1519.91,-75.5 1564.91,-75.5 1564.91,-56.5 1519.91,-56.5"/>
<text text-anchor="middle" x="1542.41" y="-63.5" font-family="Helvetica,sans-Serif" font-size="10.00">utility</text>
</a>
</g>
</g>
<!-- Node34&#45;&gt;Node35 -->
<g id="edge57" class="edge">
<title>Node34&#45;&gt;Node35</title>
<path fill="none" stroke="midnightblue" d="M1455.89,-117.98C1472.39,-108.25 1499.59,-92.23 1519.1,-80.74"/>
<polygon fill="midnightblue" stroke="midnightblue" points="1521.13,-83.6 1527.97,-75.51 1517.58,-77.57 1521.13,-83.6"/>
</g>
<!-- Node36 -->
<g id="node36" class="node">
<title>Node36</title>
<g id="a_node36"><a xlink:title=" ">
<polygon fill="white" stroke="#bfbfbf" points="1331.91,-56.5 1331.91,-75.5 1462.91,-75.5 1462.91,-56.5 1331.91,-56.5"/>
<text text-anchor="middle" x="1397.41" y="-63.5" font-family="Helvetica,sans-Serif" font-size="10.00">AMReX_PhysBCFunct.H</text>
</a>
</g>
</g>
<!-- Node34&#45;&gt;Node36 -->
<g id="edge62" class="edge">
<title>Node34&#45;&gt;Node36</title>
<path fill="none" stroke="midnightblue" d="M1435.11,-117.98C1428.51,-109.05 1417.98,-94.81 1409.72,-83.64"/>
<polygon fill="midnightblue" stroke="midnightblue" points="1412.47,-81.47 1403.71,-75.51 1406.84,-85.63 1412.47,-81.47"/>
</g>
<!-- Node37&#45;&gt;Node4 -->
<g id="edge68" class="edge">
<title>Node37&#45;&gt;Node4</title>
<path fill="none" stroke="midnightblue" d="M1453.66,-179.91C1450.88,-179.58 1448.13,-179.27 1445.41,-179 973.75,-131.49 851.96,-180.69 379.41,-143 364.66,-141.82 348.9,-140.13 333.92,-138.31"/>
<polygon fill="midnightblue" stroke="midnightblue" points="334.06,-134.79 323.7,-137.03 333.19,-141.74 334.06,-134.79"/>
</g>
<!-- Node37&#45;&gt;Node10 -->
<g id="edge69" class="edge">
<title>Node37&#45;&gt;Node10</title>
<path fill="none" stroke="midnightblue" d="M1453.66,-179.94C1450.88,-179.6 1448.13,-179.28 1445.41,-179 1059.19,-138.64 959.41,-175.11 572.41,-143 557.71,-141.78 541.99,-140.08 527.04,-138.28"/>
<polygon fill="midnightblue" stroke="midnightblue" points="527.18,-134.77 516.82,-137.02 526.32,-141.72 527.18,-134.77"/>
</g>
<!-- Node37&#45;&gt;Node11 -->
<g id="edge67" class="edge">
<title>Node37&#45;&gt;Node11</title>
<path fill="none" stroke="midnightblue" d="M1609.17,-180.28C1612.29,-179.83 1615.38,-179.4 1618.41,-179 1658.15,-173.7 1950.52,-172.73 1977.41,-143 1986.66,-132.78 1979.98,-125.54 1977.41,-112 1972.44,-85.73 1976.76,-72.11 1955.41,-56 1921.06,-30.07 1623.35,-16.16 1523.73,-12.2"/>
<polygon fill="midnightblue" stroke="midnightblue" points="1523.78,-8.7 1513.65,-11.81 1523.51,-15.69 1523.78,-8.7"/>
</g>
<!-- Node37&#45;&gt;Node19 -->
<g id="edge73" class="edge">
<title>Node37&#45;&gt;Node19</title>
<path fill="none" stroke="midnightblue" d="M1544.94,-179.48C1567.78,-155.8 1613.86,-108.02 1637.95,-83.04"/>
<polygon fill="midnightblue" stroke="midnightblue" points="1640.52,-85.42 1644.94,-75.79 1635.48,-80.56 1640.52,-85.42"/>
</g>
<!-- Node37&#45;&gt;Node20 -->
<g id="edge72" class="edge">
<title>Node37&#45;&gt;Node20</title>
<path fill="none" stroke="midnightblue" d="M1609.15,-180.17C1612.28,-179.75 1615.37,-179.36 1618.41,-179 1760.81,-162.09 2180.21,-198.09 2255.41,-76 2260.08,-68.43 2261.08,-62.85 2255.41,-56 2245.21,-43.66 2162.36,-29.94 2097.67,-20.93"/>
<polygon fill="midnightblue" stroke="midnightblue" points="2097.84,-17.42 2087.45,-19.52 2096.88,-24.35 2097.84,-17.42"/>
</g>
<!-- Node38 -->
<g id="node38" class="node">
<title>Node38</title>
<g id="a_node38"><a xlink:href="_p_d_e_fields_8_h.html" target="_top" xlink:title=" ">
<polygon fill="white" stroke="black" points="2302.91,-112.5 2302.91,-142.5 2457.91,-142.5 2457.91,-112.5 2302.91,-112.5"/>
<text text-anchor="start" x="2310.91" y="-130.5" font-family="Helvetica,sans-Serif" font-size="10.00">amr&#45;wind/equation_systems</text>
<text text-anchor="middle" x="2380.41" y="-119.5" font-family="Helvetica,sans-Serif" font-size="10.00">/PDEFields.H</text>
</a>
</g>
</g>
<!-- Node37&#45;&gt;Node38 -->
<g id="edge70" class="edge">
<title>Node37&#45;&gt;Node38</title>
<path fill="none" stroke="midnightblue" d="M1609.14,-180.1C1612.27,-179.71 1615.37,-179.33 1618.41,-179 1914.84,-146.44 1991.85,-174.25 2288.41,-143 2289.73,-142.86 2291.05,-142.72 2292.38,-142.57"/>
<polygon fill="midnightblue" stroke="midnightblue" points="2293.18,-146 2302.69,-141.32 2292.34,-139.05 2293.18,-146"/>
</g>
<!-- Node39 -->
<g id="node39" class="node">
<title>Node39</title>
<g id="a_node39"><a xlink:title=" ">
<polygon fill="white" stroke="#bfbfbf" points="2356.41,-56.5 2356.41,-75.5 2404.41,-75.5 2404.41,-56.5 2356.41,-56.5"/>
<text text-anchor="middle" x="2380.41" y="-63.5" font-family="Helvetica,sans-Serif" font-size="10.00">iosfwd</text>
</a>
</g>
</g>
<!-- Node38&#45;&gt;Node39 -->
<g id="edge71" class="edge">
<title>Node38&#45;&gt;Node39</title>
<path fill="none" stroke="midnightblue" d="M2380.41,-112.4C2380.41,-104.47 2380.41,-94.46 2380.41,-85.86"/>
<polygon fill="midnightblue" stroke="midnightblue" points="2383.92,-85.66 2380.41,-75.66 2376.92,-85.66 2383.92,-85.66"/>
</g>
<!-- Node40&#45;&gt;Node4 -->
<g id="edge77" class="edge">
<title>Node40&#45;&gt;Node4</title>
<path fill="none" stroke="midnightblue" d="M480.61,-184.94C436.01,-173.29 356.18,-152.45 307,-139.62"/>
<polygon fill="midnightblue" stroke="midnightblue" points="307.86,-136.22 297.3,-137.08 306.09,-143 307.86,-136.22"/>
</g>
<!-- Node40&#45;&gt;Node10 -->
<g id="edge76" class="edge">
<title>Node40&#45;&gt;Node10</title>
<path fill="none" stroke="midnightblue" d="M505.73,-184.73C496.75,-174.5 481.73,-157.36 470.61,-144.69"/>
<polygon fill="midnightblue" stroke="midnightblue" points="473.21,-142.34 463.98,-137.13 467.94,-146.95 473.21,-142.34"/>
</g>
<!-- Node40&#45;&gt;Node13 -->
<g id="edge79" class="edge">
<title>Node40&#45;&gt;Node13</title>
<path fill="none" stroke="midnightblue" d="M460.16,-184.94C432.69,-177.96 400.59,-165.41 379.41,-143 352.1,-114.09 331.8,-85.56 358.41,-56 382.17,-29.61 607.14,-17.57 720.62,-13.14"/>
<polygon fill="midnightblue" stroke="midnightblue" points="721.05,-16.63 730.91,-12.75 720.78,-9.64 721.05,-16.63"/>
</g>
<!-- Node40&#45;&gt;Node14 -->
<g id="edge80" class="edge">
<title>Node40&#45;&gt;Node14</title>
<path fill="none" stroke="midnightblue" d="M465.61,-184.94C454.09,-182.93 441.82,-180.84 430.41,-179 323.07,-161.64 295.39,-162.51 188.41,-143 182.11,-141.85 175.5,-140.54 168.99,-139.2"/>
<polygon fill="midnightblue" stroke="midnightblue" points="169.4,-135.71 158.89,-137.06 167.95,-142.56 169.4,-135.71"/>
</g>
<!-- Node40&#45;&gt;Node15 -->
<g id="edge78" class="edge">
<title>Node40&#45;&gt;Node15</title>
<path fill="none" stroke="midnightblue" d="M587.75,-187.21C735.26,-174.72 1063.28,-146.96 1209.11,-134.62"/>
<polygon fill="midnightblue" stroke="midnightblue" points="1209.62,-138.09 1219.29,-133.76 1209.03,-131.11 1209.62,-138.09"/>
</g>
<!-- Node42&#45;&gt;Node18 -->
<g id="edge85" class="edge">
<title>Node42&#45;&gt;Node18</title>
<path fill="none" stroke="midnightblue" d="M1626.8,-180.51C1623.97,-179.96 1621.16,-179.45 1618.41,-179 1438.78,-149.54 1381.02,-206.5 1210.41,-143 1188.34,-134.78 1189.47,-120.29 1167.41,-112 1008.2,-52.17 955.5,-94.41 786.41,-76 780.17,-75.32 773.62,-74.57 767.13,-73.8"/>
<polygon fill="midnightblue" stroke="midnightblue" points="767.36,-70.3 757.01,-72.58 766.52,-77.25 767.36,-70.3"/>
</g>
<!-- Node42&#45;&gt;Node26 -->
<g id="edge84" class="edge">
<title>Node42&#45;&gt;Node26</title>
<path fill="none" stroke="midnightblue" d="M1626.82,-180.4C1623.99,-179.88 1621.17,-179.41 1618.41,-179 1332.17,-136.84 1254.21,-188.11 968.41,-143 962.87,-142.12 957.07,-140.92 951.41,-139.58"/>
<polygon fill="midnightblue" stroke="midnightblue" points="952,-136.12 941.44,-137.06 950.28,-142.91 952,-136.12"/>
</g>
<!-- Node43 -->
<g id="node43" class="node">
<title>Node43</title>
<g id="a_node43"><a xlink:title=" ">
<polygon fill="white" stroke="#bfbfbf" points="2475.91,-118 2475.91,-137 2522.91,-137 2522.91,-118 2475.91,-118"/>
<text text-anchor="middle" x="2499.41" y="-125" font-family="Helvetica,sans-Serif" font-size="10.00">cmath</text>
</a>
</g>
</g>
<!-- Node42&#45;&gt;Node43 -->
<g id="edge83" class="edge">
<title>Node42&#45;&gt;Node43</title>
<path fill="none" stroke="midnightblue" d="M1729.96,-192.62C1882.03,-189.64 2326.92,-178.08 2467.41,-143 2469.63,-142.45 2471.87,-141.75 2474.1,-140.95"/>
<polygon fill="midnightblue" stroke="midnightblue" points="2475.64,-144.11 2483.55,-137.05 2472.97,-137.64 2475.64,-144.11"/>
</g>
</g>
</svg>
