<?xml version="1.0" encoding="UTF-8" standalone="no"?>
<!DOCTYPE svg PUBLIC "-//W3C//DTD SVG 1.1//EN"
 "http://www.w3.org/Graphics/SVG/1.1/DTD/svg11.dtd">
<!-- Generated by graphviz version 2.43.0 (0)
 -->
<!-- Title: FreeSurface.H Pages: 1 -->
<!--zoomable 330 -->
<svg id="main" version="1.1" xmlns="http://www.w3.org/2000/svg" xmlns:xlink="http://www.w3.org/1999/xlink" xml:space="preserve" onload="init(evt)">
<style type="text/css"><![CDATA[
.edge:hover path { stroke: red; }
.edge:hover polygon { stroke: red; fill: red; }
]]></style>
<script type="text/javascript"><![CDATA[
var edges = document.getElementsByTagName('g');
if (edges && edges.length) {
  for (var i=0;i<edges.length;i++) {
    if (edges[i].id.substr(0,4)=='edge') {
      edges[i].setAttribute('class','edge');
    }
  }
}
]]></script>
        <defs>
                <circle id="rim" cx="0" cy="0" r="7"/>
                <circle id="rim2" cx="0" cy="0" r="3.5"/>
                <g id="zoomPlus">
                        <use xlink:href="#rim" fill="#404040">
                                <set attributeName="fill" to="#808080" begin="zoomplus.mouseover" end="zoomplus.mouseout"/>
                        </use>
                        <path d="M-4,0h8M0,-4v8" fill="none" stroke="white" stroke-width="1.5" pointer-events="none"/>
                </g>
                <g id="zoomMin">
                        <use xlink:href="#rim" fill="#404040">
                                <set attributeName="fill" to="#808080" begin="zoomminus.mouseover" end="zoomminus.mouseout"/>
                        </use>
                        <path d="M-4,0h8" fill="none" stroke="white" stroke-width="1.5" pointer-events="none"/>
                </g>
                <g id="dirArrow">
                        <path fill="none" stroke="white" stroke-width="1.5" d="M0,-3.0v7 M-2.5,-0.5L0,-3.0L2.5,-0.5"/>
                </g>
               <g id="resetDef">
                       <use xlink:href="#rim2" fill="#404040">
                               <set attributeName="fill" to="#808080" begin="reset.mouseover" end="reset.mouseout"/>
                       </use>
               </g>
        </defs>

<script type="text/javascript">
var viewWidth = 2822;
var viewHeight = 330;
var sectionId = 'dynsection-0';
</script>
<script xlink:href="svgpan.js"/>
<svg id="graph" class="graph">
<g id="viewport">
<title>FreeSurface.H</title>
<polygon fill="white" stroke="transparent" points="-4,4 -4,-326 2818.31,-326 2818.31,4 -4,4"/>
<!-- Node1 -->
<g id="node1" class="node">
<title>Node1</title>
<g id="a_node1"><a xlink:title=" ">
<polygon fill="#bfbfbf" stroke="black" points="394.81,-302.5 394.81,-321.5 479.81,-321.5 479.81,-302.5 394.81,-302.5"/>
<text text-anchor="middle" x="437.31" y="-309.5" font-family="Helvetica,sans-Serif" font-size="10.00">FreeSurface.H</text>
</a>
</g>
</g>
<!-- Node2 -->
<g id="node2" class="node">
<title>Node2</title>
<g id="a_node2"><a xlink:title=" ">
<polygon fill="white" stroke="#bfbfbf" points="404.31,-56.5 404.31,-75.5 462.31,-75.5 462.31,-56.5 404.31,-56.5"/>
<text text-anchor="middle" x="433.31" y="-63.5" font-family="Helvetica,sans-Serif" font-size="10.00">memory</text>
</a>
</g>
</g>
<!-- Node1&#45;&gt;Node2 -->
<g id="edge1" class="edge">
<title>Node1&#45;&gt;Node2</title>
<path fill="none" stroke="midnightblue" d="M394.66,-306.5C267.77,-291.58 -91.57,-237.4 22.31,-112 48.78,-82.86 321.82,-82.73 393.59,-75.68"/>
<polygon fill="midnightblue" stroke="midnightblue" points="394.45,-79.1 403.94,-74.38 393.58,-72.15 394.45,-79.1"/>
</g>
<!-- Node3 -->
<g id="node3" class="node">
<title>Node3</title>
<g id="a_node3"><a xlink:href="_c_f_d_sim_8_h.html" target="_top" xlink:title=" ">
<polygon fill="white" stroke="black" points="914.31,-246.5 914.31,-265.5 1030.31,-265.5 1030.31,-246.5 914.31,-246.5"/>
<text text-anchor="middle" x="972.31" y="-253.5" font-family="Helvetica,sans-Serif" font-size="10.00">amr&#45;wind/CFDSim.H</text>
</a>
</g>
</g>
<!-- Node1&#45;&gt;Node3 -->
<g id="edge2" class="edge">
<title>Node1&#45;&gt;Node3</title>
<path fill="none" stroke="midnightblue" d="M480.19,-306.67C572.76,-297.33 792,-275.2 903.96,-263.9"/>
<polygon fill="midnightblue" stroke="midnightblue" points="904.52,-267.36 914.12,-262.87 903.82,-260.4 904.52,-267.36"/>
</g>
<!-- Node39 -->
<g id="node39" class="node">
<title>Node39</title>
<g id="a_node39"><a xlink:href="_post_processing_8_h.html" target="_top" xlink:title=" ">
<polygon fill="white" stroke="black" points="385.31,-179.5 385.31,-209.5 489.31,-209.5 489.31,-179.5 385.31,-179.5"/>
<text text-anchor="start" x="393.31" y="-197.5" font-family="Helvetica,sans-Serif" font-size="10.00">amr&#45;wind/utilities</text>
<text text-anchor="middle" x="437.31" y="-186.5" font-family="Helvetica,sans-Serif" font-size="10.00">/PostProcessing.H</text>
</a>
</g>
</g>
<!-- Node1&#45;&gt;Node39 -->
<g id="edge74" class="edge">
<title>Node1&#45;&gt;Node39</title>
<path fill="none" stroke="midnightblue" d="M437.31,-302.32C437.31,-284.97 437.31,-245.46 437.31,-219.66"/>
<polygon fill="midnightblue" stroke="midnightblue" points="440.81,-219.55 437.31,-209.55 433.81,-219.55 440.81,-219.55"/>
</g>
<!-- Node4 -->
<g id="node4" class="node">
<title>Node4</title>
<g id="a_node4"><a xlink:title=" ">
<polygon fill="white" stroke="#bfbfbf" points="2308.31,-118 2308.31,-137 2418.31,-137 2418.31,-118 2308.31,-118"/>
<text text-anchor="middle" x="2363.31" y="-125" font-family="Helvetica,sans-Serif" font-size="10.00">AMReX_AmrCore.H</text>
</a>
</g>
</g>
<!-- Node3&#45;&gt;Node4 -->
<g id="edge3" class="edge">
<title>Node3&#45;&gt;Node4</title>
<path fill="none" stroke="midnightblue" d="M1030.58,-255.03C1180.4,-254.5 1591.04,-249.27 1930.31,-210 2072.67,-193.52 2238.55,-157.52 2317.3,-139.39"/>
<polygon fill="midnightblue" stroke="midnightblue" points="2318.42,-142.72 2327.37,-137.06 2316.84,-135.9 2318.42,-142.72"/>
</g>
<!-- Node5 -->
<g id="node5" class="node">
<title>Node5</title>
<g id="a_node5"><a xlink:href="_sim_time_8_h.html" target="_top" xlink:title=" ">
<polygon fill="white" stroke="black" points="2483.31,-185 2483.31,-204 2627.31,-204 2627.31,-185 2483.31,-185"/>
<text text-anchor="middle" x="2555.31" y="-192" font-family="Helvetica,sans-Serif" font-size="10.00">amr&#45;wind/core/SimTime.H</text>
</a>
</g>
</g>
<!-- Node3&#45;&gt;Node5 -->
<g id="edge4" class="edge">
<title>Node3&#45;&gt;Node5</title>
<path fill="none" stroke="midnightblue" d="M1030.41,-252.86C1204.55,-246.44 1737.44,-226.76 2179.31,-210 2280.52,-206.16 2397.05,-201.65 2473.22,-198.7"/>
<polygon fill="midnightblue" stroke="midnightblue" points="2473.38,-202.19 2483.23,-198.31 2473.11,-195.2 2473.38,-202.19"/>
</g>
<!-- Node9 -->
<g id="node9" class="node">
<title>Node9</title>
<g id="a_node9"><a xlink:href="_field_repo_8_h.html" target="_top" xlink:title=" ">
<polygon fill="white" stroke="black" points="1771.81,-185 1771.81,-204 1920.81,-204 1920.81,-185 1771.81,-185"/>
<text text-anchor="middle" x="1846.31" y="-192" font-family="Helvetica,sans-Serif" font-size="10.00">amr&#45;wind/core/FieldRepo.H</text>
</a>
</g>
</g>
<!-- Node3&#45;&gt;Node9 -->
<g id="edge8" class="edge">
<title>Node3&#45;&gt;Node9</title>
<path fill="none" stroke="midnightblue" d="M1030.34,-251.05C1180.96,-240.8 1584.99,-213.29 1761.66,-201.26"/>
<polygon fill="midnightblue" stroke="midnightblue" points="1761.95,-204.75 1771.69,-200.58 1761.47,-197.77 1761.95,-204.75"/>
</g>
<!-- Node28 -->
<g id="node28" class="node">
<title>Node28</title>
<g id="a_node28"><a xlink:href="_p_d_e_base_8_h.html" target="_top" xlink:title=" ">
<polygon fill="white" stroke="black" points="560.81,-179.5 560.81,-209.5 715.81,-209.5 715.81,-179.5 560.81,-179.5"/>
<text text-anchor="start" x="568.81" y="-197.5" font-family="Helvetica,sans-Serif" font-size="10.00">amr&#45;wind/equation_systems</text>
<text text-anchor="middle" x="638.31" y="-186.5" font-family="Helvetica,sans-Serif" font-size="10.00">/PDEBase.H</text>
</a>
</g>
</g>
<!-- Node3&#45;&gt;Node28 -->
<g id="edge46" class="edge">
<title>Node3&#45;&gt;Node28</title>
<path fill="none" stroke="midnightblue" d="M924.46,-246.48C872.84,-237.28 789.52,-222.44 726.07,-211.13"/>
<polygon fill="midnightblue" stroke="midnightblue" points="726.53,-207.66 716.07,-209.35 725.3,-214.55 726.53,-207.66"/>
</g>
<!-- Node36 -->
<g id="node36" class="node">
<title>Node36</title>
<g id="a_node36"><a xlink:href="_physics_8_h.html" target="_top" xlink:title=" ">
<polygon fill="white" stroke="black" points="742.81,-185 742.81,-204 879.81,-204 879.81,-185 742.81,-185"/>
<text text-anchor="middle" x="811.31" y="-192" font-family="Helvetica,sans-Serif" font-size="10.00">amr&#45;wind/core/Physics.H</text>
</a>
</g>
</g>
<!-- Node3&#45;&gt;Node36 -->
<g id="edge63" class="edge">
<title>Node3&#45;&gt;Node36</title>
<path fill="none" stroke="midnightblue" d="M949.25,-246.48C921.63,-236.27 875.19,-219.11 843.92,-207.55"/>
<polygon fill="midnightblue" stroke="midnightblue" points="844.93,-204.19 834.34,-204.01 842.51,-210.76 844.93,-204.19"/>
</g>
<!-- Node38 -->
<g id="node38" class="node">
<title>Node38</title>
<g id="a_node38"><a xlink:href="_mesh_map_8_h.html" target="_top" xlink:title=" ">
<polygon fill="white" stroke="black" points="898.31,-185 898.31,-204 1046.31,-204 1046.31,-185 898.31,-185"/>
<text text-anchor="middle" x="972.31" y="-192" font-family="Helvetica,sans-Serif" font-size="10.00">amr&#45;wind/core/MeshMap.H</text>
</a>
</g>
</g>
<!-- Node3&#45;&gt;Node38 -->
<g id="edge68" class="edge">
<title>Node3&#45;&gt;Node38</title>
<path fill="none" stroke="midnightblue" d="M972.31,-246.48C972.31,-238.08 972.31,-224.98 972.31,-214.16"/>
<polygon fill="midnightblue" stroke="midnightblue" points="975.81,-214.01 972.31,-204.01 968.81,-214.01 975.81,-214.01"/>
</g>
<!-- Node6 -->
<g id="node6" class="node">
<title>Node6</title>
<g id="a_node6"><a xlink:title=" ">
<polygon fill="white" stroke="#bfbfbf" points="2570.31,-118 2570.31,-137 2662.31,-137 2662.31,-118 2570.31,-118"/>
<text text-anchor="middle" x="2616.31" y="-125" font-family="Helvetica,sans-Serif" font-size="10.00">AMReX_REAL.H</text>
</a>
</g>
</g>
<!-- Node5&#45;&gt;Node6 -->
<g id="edge5" class="edge">
<title>Node5&#45;&gt;Node6</title>
<path fill="none" stroke="midnightblue" d="M2563.54,-184.73C2573.14,-174.5 2589.23,-157.36 2601.12,-144.69"/>
<polygon fill="midnightblue" stroke="midnightblue" points="2603.93,-146.81 2608.22,-137.13 2598.82,-142.02 2603.93,-146.81"/>
</g>
<!-- Node7 -->
<g id="node7" class="node">
<title>Node7</title>
<g id="a_node7"><a xlink:title=" ">
<polygon fill="white" stroke="#bfbfbf" points="2680.31,-118 2680.31,-137 2814.31,-137 2814.31,-118 2680.31,-118"/>
<text text-anchor="middle" x="2747.31" y="-125" font-family="Helvetica,sans-Serif" font-size="10.00">AMReX_GpuQualifiers.H</text>
</a>
</g>
</g>
<!-- Node5&#45;&gt;Node7 -->
<g id="edge6" class="edge">
<title>Node5&#45;&gt;Node7</title>
<path fill="none" stroke="midnightblue" d="M2580.81,-184.87C2614.61,-173.42 2674.41,-153.18 2712.39,-140.32"/>
<polygon fill="midnightblue" stroke="midnightblue" points="2713.67,-143.59 2722.02,-137.06 2711.42,-136.96 2713.67,-143.59"/>
</g>
<!-- Node8 -->
<g id="node8" class="node">
<title>Node8</title>
<g id="a_node8"><a xlink:title=" ">
<polygon fill="white" stroke="#bfbfbf" points="2436.31,-118 2436.31,-137 2552.31,-137 2552.31,-118 2436.31,-118"/>
<text text-anchor="middle" x="2494.31" y="-125" font-family="Helvetica,sans-Serif" font-size="10.00">AMReX_Extension.H</text>
</a>
</g>
</g>
<!-- Node5&#45;&gt;Node8 -->
<g id="edge7" class="edge">
<title>Node5&#45;&gt;Node8</title>
<path fill="none" stroke="midnightblue" d="M2547.09,-184.73C2537.48,-174.5 2521.4,-157.36 2509.51,-144.69"/>
<polygon fill="midnightblue" stroke="midnightblue" points="2511.81,-142.02 2502.41,-137.13 2506.7,-146.81 2511.81,-142.02"/>
</g>
<!-- Node9&#45;&gt;Node4 -->
<g id="edge43" class="edge">
<title>Node9&#45;&gt;Node4</title>
<path fill="none" stroke="midnightblue" d="M1921.12,-187.25C2010.31,-179.3 2163.72,-164.03 2294.31,-143 2301.22,-141.89 2308.47,-140.55 2315.58,-139.14"/>
<polygon fill="midnightblue" stroke="midnightblue" points="2316.74,-142.48 2325.83,-137.05 2315.34,-135.62 2316.74,-142.48"/>
</g>
<!-- Node10 -->
<g id="node10" class="node">
<title>Node10</title>
<g id="a_node10"><a xlink:title=" ">
<polygon fill="white" stroke="#bfbfbf" points="931.31,-0.5 931.31,-19.5 975.31,-19.5 975.31,-0.5 931.31,-0.5"/>
<text text-anchor="middle" x="953.31" y="-7.5" font-family="Helvetica,sans-Serif" font-size="10.00">string</text>
</a>
</g>
</g>
<!-- Node9&#45;&gt;Node10 -->
<g id="edge9" class="edge">
<title>Node9&#45;&gt;Node10</title>
<path fill="none" stroke="midnightblue" d="M1771.75,-191.75C1565.01,-186.56 997.79,-169.91 968.31,-143 937.04,-114.44 942.91,-58.94 948.73,-29.84"/>
<polygon fill="midnightblue" stroke="midnightblue" points="952.22,-30.29 950.96,-19.77 945.38,-28.78 952.22,-30.29"/>
</g>
<!-- Node11 -->
<g id="node11" class="node">
<title>Node11</title>
<g id="a_node11"><a xlink:title=" ">
<polygon fill="white" stroke="#bfbfbf" points="634.81,-56.5 634.81,-75.5 727.81,-75.5 727.81,-56.5 634.81,-56.5"/>
<text text-anchor="middle" x="681.31" y="-63.5" font-family="Helvetica,sans-Serif" font-size="10.00">unordered_map</text>
</a>
</g>
</g>
<!-- Node9&#45;&gt;Node11 -->
<g id="edge10" class="edge">
<title>Node9&#45;&gt;Node11</title>
<path fill="none" stroke="midnightblue" d="M1771.58,-191.78C1567.28,-186.76 1009.5,-170.65 931.31,-143 909.1,-135.15 909.83,-121.59 888.31,-112 861.86,-100.21 789.61,-85.89 737.92,-76.62"/>
<polygon fill="midnightblue" stroke="midnightblue" points="738.33,-73.14 727.88,-74.84 737.11,-80.03 738.33,-73.14"/>
</g>
<!-- Node12 -->
<g id="node12" class="node">
<title>Node12</title>
<g id="a_node12"><a xlink:href="_field_desc_types_8_h.html" target="_top" xlink:title=" ">
<polygon fill="white" stroke="black" points="1706.31,-0.5 1706.31,-19.5 1882.31,-19.5 1882.31,-0.5 1706.31,-0.5"/>
<text text-anchor="middle" x="1794.31" y="-7.5" font-family="Helvetica,sans-Serif" font-size="10.00">amr&#45;wind/core/FieldDescTypes.H</text>
</a>
</g>
</g>
<!-- Node9&#45;&gt;Node12 -->
<g id="edge11" class="edge">
<title>Node9&#45;&gt;Node12</title>
<path fill="none" stroke="midnightblue" d="M1891.1,-184.99C1902.56,-182.92 1914.88,-180.79 1926.31,-179 1986.77,-169.54 2158.97,-189.01 2199.31,-143 2208.4,-132.64 2201.11,-125.66 2199.31,-112 2195.95,-86.45 2203.82,-72.83 2184.31,-56 2162.63,-37.29 2001.31,-23.75 1893.05,-16.66"/>
<polygon fill="midnightblue" stroke="midnightblue" points="1892.95,-13.14 1882.75,-15.99 1892.5,-20.13 1892.95,-13.14"/>
</g>
<!-- Node13 -->
<g id="node13" class="node">
<title>Node13</title>
<g id="a_node13"><a xlink:href="_field_utils_8_h.html" target="_top" xlink:title=" ">
<polygon fill="white" stroke="black" points="2289.31,-56.5 2289.31,-75.5 2435.31,-75.5 2435.31,-56.5 2289.31,-56.5"/>
<text text-anchor="middle" x="2362.31" y="-63.5" font-family="Helvetica,sans-Serif" font-size="10.00">amr&#45;wind/core/FieldUtils.H</text>
</a>
</g>
</g>
<!-- Node9&#45;&gt;Node13 -->
<g id="edge12" class="edge">
<title>Node9&#45;&gt;Node13</title>
<path fill="none" stroke="midnightblue" d="M1921.18,-188.75C2022.37,-181.57 2196.97,-166.26 2256.31,-143 2278.25,-134.4 2280.17,-125.74 2299.31,-112 2313.55,-101.78 2329.62,-90.3 2341.97,-81.5"/>
<polygon fill="midnightblue" stroke="midnightblue" points="2344.12,-84.27 2350.23,-75.61 2340.05,-78.57 2344.12,-84.27"/>
</g>
<!-- Node14 -->
<g id="node14" class="node">
<title>Node14</title>
<g id="a_node14"><a xlink:title=" ">
<polygon fill="white" stroke="#bfbfbf" points="1578.81,-0.5 1578.81,-19.5 1687.81,-19.5 1687.81,-0.5 1578.81,-0.5"/>
<text text-anchor="middle" x="1633.31" y="-7.5" font-family="Helvetica,sans-Serif" font-size="10.00">AMReX_MultiFab.H</text>
</a>
</g>
</g>
<!-- Node9&#45;&gt;Node14 -->
<g id="edge44" class="edge">
<title>Node9&#45;&gt;Node14</title>
<path fill="none" stroke="midnightblue" d="M1892.71,-185C1933.29,-176.77 1993.37,-162.65 2043.31,-143 2105.62,-118.48 2211.81,-105.13 2166.31,-56 2132.4,-19.38 1782.85,-25.02 1698.22,-19.76"/>
<polygon fill="midnightblue" stroke="midnightblue" points="1698.35,-16.25 1688.1,-18.94 1697.78,-23.23 1698.35,-16.25"/>
</g>
<!-- Node16 -->
<g id="node16" class="node">
<title>Node16</title>
<g id="a_node16"><a xlink:href="_field_8_h.html" target="_top" xlink:title=" ">
<polygon fill="white" stroke="black" points="977.31,-118 977.31,-137 1101.31,-137 1101.31,-118 977.31,-118"/>
<text text-anchor="middle" x="1039.31" y="-125" font-family="Helvetica,sans-Serif" font-size="10.00">amr&#45;wind/core/Field.H</text>
</a>
</g>
</g>
<!-- Node9&#45;&gt;Node16 -->
<g id="edge16" class="edge">
<title>Node9&#45;&gt;Node16</title>
<path fill="none" stroke="midnightblue" d="M1771.48,-187.47C1616.88,-175.02 1263.99,-146.6 1111.6,-134.32"/>
<polygon fill="midnightblue" stroke="midnightblue" points="1111.67,-130.82 1101.42,-133.5 1111.1,-137.79 1111.67,-130.82"/>
</g>
<!-- Node23 -->
<g id="node23" class="node">
<title>Node23</title>
<g id="a_node23"><a xlink:href="_int_field_8_h.html" target="_top" xlink:title=" ">
<polygon fill="white" stroke="black" points="1680.81,-118 1680.81,-137 1817.81,-137 1817.81,-118 1680.81,-118"/>
<text text-anchor="middle" x="1749.31" y="-125" font-family="Helvetica,sans-Serif" font-size="10.00">amr&#45;wind/core/IntField.H</text>
</a>
</g>
</g>
<!-- Node9&#45;&gt;Node23 -->
<g id="edge31" class="edge">
<title>Node9&#45;&gt;Node23</title>
<path fill="none" stroke="midnightblue" d="M1833.23,-184.73C1817.16,-173.96 1789.68,-155.55 1770.56,-142.74"/>
<polygon fill="midnightblue" stroke="midnightblue" points="1772.44,-139.79 1762.19,-137.13 1768.55,-145.6 1772.44,-139.79"/>
</g>
<!-- Node24 -->
<g id="node24" class="node">
<title>Node24</title>
<g id="a_node24"><a xlink:title=" ">
<polygon fill="white" stroke="#bfbfbf" points="1756.31,-56.5 1756.31,-75.5 1868.31,-75.5 1868.31,-56.5 1756.31,-56.5"/>
<text text-anchor="middle" x="1812.31" y="-63.5" font-family="Helvetica,sans-Serif" font-size="10.00">AMReX_iMultiFab.H</text>
</a>
</g>
</g>
<!-- Node9&#45;&gt;Node24 -->
<g id="edge45" class="edge">
<title>Node9&#45;&gt;Node24</title>
<path fill="none" stroke="midnightblue" d="M1844.58,-184.87C1841.51,-169.92 1834.74,-138.28 1827.31,-112 1824.79,-103.07 1821.59,-93.29 1818.78,-85.13"/>
<polygon fill="midnightblue" stroke="midnightblue" points="1822.04,-83.83 1815.43,-75.55 1815.43,-86.15 1822.04,-83.83"/>
</g>
<!-- Node25 -->
<g id="node25" class="node">
<title>Node25</title>
<g id="a_node25"><a xlink:href="_scratch_field_8_h.html" target="_top" xlink:title=" ">
<polygon fill="white" stroke="black" points="1874.31,-118 1874.31,-137 2034.31,-137 2034.31,-118 1874.31,-118"/>
<text text-anchor="middle" x="1954.31" y="-125" font-family="Helvetica,sans-Serif" font-size="10.00">amr&#45;wind/core/ScratchField.H</text>
</a>
</g>
</g>
<!-- Node9&#45;&gt;Node25 -->
<g id="edge35" class="edge">
<title>Node9&#45;&gt;Node25</title>
<path fill="none" stroke="midnightblue" d="M1860.88,-184.73C1878.94,-173.87 1909.92,-155.22 1931.23,-142.39"/>
<polygon fill="midnightblue" stroke="midnightblue" points="1933.22,-145.28 1939.98,-137.13 1929.61,-139.29 1933.22,-145.28"/>
</g>
<!-- Node13&#45;&gt;Node12 -->
<g id="edge13" class="edge">
<title>Node13&#45;&gt;Node12</title>
<path fill="none" stroke="midnightblue" d="M2289.22,-57.39C2284.51,-56.91 2279.85,-56.45 2275.31,-56 2142.9,-42.96 1989.9,-28.8 1892.66,-19.92"/>
<polygon fill="midnightblue" stroke="midnightblue" points="1892.83,-16.42 1882.55,-18.99 1892.19,-23.39 1892.83,-16.42"/>
</g>
<!-- Node13&#45;&gt;Node14 -->
<g id="edge14" class="edge">
<title>Node13&#45;&gt;Node14</title>
<path fill="none" stroke="midnightblue" d="M2289.29,-60.73C2145.16,-52.19 1827.65,-32.81 1698.19,-19.99"/>
<polygon fill="midnightblue" stroke="midnightblue" points="1698.4,-16.5 1688.1,-18.97 1697.69,-23.46 1698.4,-16.5"/>
</g>
<!-- Node15 -->
<g id="node15" class="node">
<title>Node15</title>
<g id="a_node15"><a xlink:title=" ">
<polygon fill="white" stroke="#bfbfbf" points="2300.31,-0.5 2300.31,-19.5 2424.31,-19.5 2424.31,-0.5 2300.31,-0.5"/>
<text text-anchor="middle" x="2362.31" y="-7.5" font-family="Helvetica,sans-Serif" font-size="10.00">AMReX_Interpolater.H</text>
</a>
</g>
</g>
<!-- Node13&#45;&gt;Node15 -->
<g id="edge15" class="edge">
<title>Node13&#45;&gt;Node15</title>
<path fill="none" stroke="midnightblue" d="M2362.31,-56.08C2362.31,-49.01 2362.31,-38.86 2362.31,-29.99"/>
<polygon fill="midnightblue" stroke="midnightblue" points="2365.81,-29.75 2362.31,-19.75 2358.81,-29.75 2365.81,-29.75"/>
</g>
<!-- Node16&#45;&gt;Node2 -->
<g id="edge18" class="edge">
<title>Node16&#45;&gt;Node2</title>
<path fill="none" stroke="midnightblue" d="M977.25,-120.4C949.97,-117.76 917.56,-114.67 888.31,-112 706.32,-95.41 656.71,-105.16 472.7,-76.01"/>
<polygon fill="midnightblue" stroke="midnightblue" points="473.12,-72.53 462.69,-74.41 472.01,-79.44 473.12,-72.53"/>
</g>
<!-- Node16&#45;&gt;Node10 -->
<g id="edge17" class="edge">
<title>Node16&#45;&gt;Node10</title>
<path fill="none" stroke="midnightblue" d="M1022.54,-117.96C1007.29,-109.36 985.23,-94.69 972.31,-76 962.81,-62.25 958,-43.72 955.61,-29.96"/>
<polygon fill="midnightblue" stroke="midnightblue" points="959.02,-29.13 954.11,-19.74 952.1,-30.14 959.02,-29.13"/>
</g>
<!-- Node16&#45;&gt;Node11 -->
<g id="edge19" class="edge">
<title>Node16&#45;&gt;Node11</title>
<path fill="none" stroke="midnightblue" d="M988.02,-117.98C921.82,-106.97 806.98,-87.89 738.18,-76.45"/>
<polygon fill="midnightblue" stroke="midnightblue" points="738.39,-72.94 727.96,-74.75 737.25,-79.84 738.39,-72.94"/>
</g>
<!-- Node16&#45;&gt;Node12 -->
<g id="edge25" class="edge">
<title>Node16&#45;&gt;Node12</title>
<path fill="none" stroke="midnightblue" d="M1101.36,-123.69C1198.28,-118.55 1391.2,-105.36 1552.31,-76 1626.68,-62.45 1711.58,-37.35 1758.45,-22.62"/>
<polygon fill="midnightblue" stroke="midnightblue" points="1759.66,-25.91 1768.14,-19.55 1757.55,-19.24 1759.66,-25.91"/>
</g>
<!-- Node16&#45;&gt;Node14 -->
<g id="edge21" class="edge">
<title>Node16&#45;&gt;Node14</title>
<path fill="none" stroke="midnightblue" d="M1101.7,-123.13C1213.44,-116.57 1443.14,-100.53 1519.31,-76 1538.12,-69.95 1583.75,-42.27 1611.24,-25.04"/>
<polygon fill="midnightblue" stroke="midnightblue" points="1613.21,-27.94 1619.8,-19.65 1609.48,-22.02 1613.21,-27.94"/>
</g>
<!-- Node17 -->
<g id="node17" class="node">
<title>Node17</title>
<g id="a_node17"><a xlink:title=" ">
<polygon fill="white" stroke="#bfbfbf" points="981.31,-56.5 981.31,-75.5 1045.31,-75.5 1045.31,-56.5 981.31,-56.5"/>
<text text-anchor="middle" x="1013.31" y="-63.5" font-family="Helvetica,sans-Serif" font-size="10.00">algorithm</text>
</a>
</g>
</g>
<!-- Node16&#45;&gt;Node17 -->
<g id="edge20" class="edge">
<title>Node16&#45;&gt;Node17</title>
<path fill="none" stroke="midnightblue" d="M1035.59,-117.98C1031.84,-109.4 1025.95,-95.93 1021.17,-84.98"/>
<polygon fill="midnightblue" stroke="midnightblue" points="1024.24,-83.27 1017.03,-75.51 1017.83,-86.07 1024.24,-83.27"/>
</g>
<!-- Node18 -->
<g id="node18" class="node">
<title>Node18</title>
<g id="a_node18"><a xlink:title=" ">
<polygon fill="white" stroke="#bfbfbf" points="1063.81,-56.5 1063.81,-75.5 1162.81,-75.5 1162.81,-56.5 1063.81,-56.5"/>
<text text-anchor="middle" x="1113.31" y="-63.5" font-family="Helvetica,sans-Serif" font-size="10.00">AMReX_BCRec.H</text>
</a>
</g>
</g>
<!-- Node16&#45;&gt;Node18 -->
<g id="edge22" class="edge">
<title>Node16&#45;&gt;Node18</title>
<path fill="none" stroke="midnightblue" d="M1049.92,-117.98C1061.57,-108.61 1080.5,-93.38 1094.65,-82.01"/>
<polygon fill="midnightblue" stroke="midnightblue" points="1097.13,-84.5 1102.73,-75.51 1092.75,-79.05 1097.13,-84.5"/>
</g>
<!-- Node19 -->
<g id="node19" class="node">
<title>Node19</title>
<g id="a_node19"><a xlink:title=" ">
<polygon fill="white" stroke="#bfbfbf" points="1180.81,-56.5 1180.81,-75.5 1267.81,-75.5 1267.81,-56.5 1180.81,-56.5"/>
<text text-anchor="middle" x="1224.31" y="-63.5" font-family="Helvetica,sans-Serif" font-size="10.00">AMReX_Gpu.H</text>
</a>
</g>
</g>
<!-- Node16&#45;&gt;Node19 -->
<g id="edge23" class="edge">
<title>Node16&#45;&gt;Node19</title>
<path fill="none" stroke="midnightblue" d="M1065.82,-117.98C1097.97,-107.64 1152.3,-90.16 1188.24,-78.6"/>
<polygon fill="midnightblue" stroke="midnightblue" points="1189.41,-81.9 1197.86,-75.51 1187.27,-75.24 1189.41,-81.9"/>
</g>
<!-- Node20 -->
<g id="node20" class="node">
<title>Node20</title>
<g id="a_node20"><a xlink:href="incflo__enums_8_h.html" target="_top" xlink:title=" ">
<polygon fill="white" stroke="black" points="745.81,-56.5 745.81,-75.5 886.81,-75.5 886.81,-56.5 745.81,-56.5"/>
<text text-anchor="middle" x="816.31" y="-63.5" font-family="Helvetica,sans-Serif" font-size="10.00">amr&#45;wind/incflo_enums.H</text>
</a>
</g>
</g>
<!-- Node16&#45;&gt;Node20 -->
<g id="edge24" class="edge">
<title>Node16&#45;&gt;Node20</title>
<path fill="none" stroke="midnightblue" d="M1007.36,-117.98C968.12,-107.5 901.44,-89.71 858.14,-78.16"/>
<polygon fill="midnightblue" stroke="midnightblue" points="858.77,-74.71 848.21,-75.51 856.97,-81.47 858.77,-74.71"/>
</g>
<!-- Node21 -->
<g id="node21" class="node">
<title>Node21</title>
<g id="a_node21"><a xlink:href="_view_field_8_h.html" target="_top" xlink:title=" ">
<polygon fill="white" stroke="black" points="1362.31,-56.5 1362.31,-75.5 1510.31,-75.5 1510.31,-56.5 1362.31,-56.5"/>
<text text-anchor="middle" x="1436.31" y="-63.5" font-family="Helvetica,sans-Serif" font-size="10.00">amr&#45;wind/core/ViewField.H</text>
</a>
</g>
</g>
<!-- Node16&#45;&gt;Node21 -->
<g id="edge26" class="edge">
<title>Node16&#45;&gt;Node21</title>
<path fill="none" stroke="midnightblue" d="M1096.19,-117.98C1168.42,-107.15 1292.85,-88.5 1369.51,-77.01"/>
<polygon fill="midnightblue" stroke="midnightblue" points="1370.17,-80.45 1379.54,-75.51 1369.13,-73.53 1370.17,-80.45"/>
</g>
<!-- Node21&#45;&gt;Node10 -->
<g id="edge27" class="edge">
<title>Node21&#45;&gt;Node10</title>
<path fill="none" stroke="midnightblue" d="M1362.17,-56.71C1255.08,-44.74 1061.63,-23.11 985.41,-14.59"/>
<polygon fill="midnightblue" stroke="midnightblue" points="985.79,-11.11 975.46,-13.48 985.01,-18.07 985.79,-11.11"/>
</g>
<!-- Node21&#45;&gt;Node12 -->
<g id="edge28" class="edge">
<title>Node21&#45;&gt;Node12</title>
<path fill="none" stroke="midnightblue" d="M1493.04,-56.44C1556.8,-46.83 1660.21,-31.23 1727.75,-21.04"/>
<polygon fill="midnightblue" stroke="midnightblue" points="1728.49,-24.47 1737.85,-19.52 1727.44,-17.55 1728.49,-24.47"/>
</g>
<!-- Node21&#45;&gt;Node14 -->
<g id="edge29" class="edge">
<title>Node21&#45;&gt;Node14</title>
<path fill="none" stroke="midnightblue" d="M1467.53,-56.44C1501.25,-47.2 1555.11,-32.44 1592.25,-22.26"/>
<polygon fill="midnightblue" stroke="midnightblue" points="1593.53,-25.54 1602.25,-19.52 1591.68,-18.78 1593.53,-25.54"/>
</g>
<!-- Node22 -->
<g id="node22" class="node">
<title>Node22</title>
<g id="a_node22"><a xlink:title=" ">
<polygon fill="white" stroke="#bfbfbf" points="1387.31,-0.5 1387.31,-19.5 1485.31,-19.5 1485.31,-0.5 1387.31,-0.5"/>
<text text-anchor="middle" x="1436.31" y="-7.5" font-family="Helvetica,sans-Serif" font-size="10.00">AMReX_Vector.H</text>
</a>
</g>
</g>
<!-- Node21&#45;&gt;Node22 -->
<g id="edge30" class="edge">
<title>Node21&#45;&gt;Node22</title>
<path fill="none" stroke="midnightblue" d="M1436.31,-56.08C1436.31,-49.01 1436.31,-38.86 1436.31,-29.99"/>
<polygon fill="midnightblue" stroke="midnightblue" points="1439.81,-29.75 1436.31,-19.75 1432.81,-29.75 1439.81,-29.75"/>
</g>
<!-- Node23&#45;&gt;Node10 -->
<g id="edge32" class="edge">
<title>Node23&#45;&gt;Node10</title>
<path fill="none" stroke="midnightblue" d="M1680.77,-125.11C1594.97,-121.85 1444.23,-111.13 1320.31,-76 1300.04,-70.25 1297.53,-61.96 1277.31,-56 1173.47,-25.39 1044.62,-15.41 985.59,-12.32"/>
<polygon fill="midnightblue" stroke="midnightblue" points="985.56,-8.81 975.4,-11.81 985.21,-15.8 985.56,-8.81"/>
</g>
<!-- Node23&#45;&gt;Node12 -->
<g id="edge33" class="edge">
<title>Node23&#45;&gt;Node12</title>
<path fill="none" stroke="midnightblue" d="M1746.83,-117.82C1743.37,-104.08 1738.47,-76.72 1747.31,-56 1752.46,-43.95 1762.6,-33.58 1772.14,-25.84"/>
<polygon fill="midnightblue" stroke="midnightblue" points="1774.35,-28.55 1780.24,-19.74 1770.14,-22.96 1774.35,-28.55"/>
</g>
<!-- Node23&#45;&gt;Node24 -->
<g id="edge34" class="edge">
<title>Node23&#45;&gt;Node24</title>
<path fill="none" stroke="midnightblue" d="M1758.34,-117.98C1768.07,-108.78 1783.77,-93.96 1795.74,-82.66"/>
<polygon fill="midnightblue" stroke="midnightblue" points="1798.44,-84.92 1803.3,-75.51 1793.63,-79.83 1798.44,-84.92"/>
</g>
<!-- Node25&#45;&gt;Node10 -->
<g id="edge36" class="edge">
<title>Node25&#45;&gt;Node10</title>
<path fill="none" stroke="midnightblue" d="M1883.83,-117.97C1865.45,-115.88 1845.65,-113.74 1827.31,-112 1616.99,-92.01 1557.22,-131.3 1353.31,-76 1333.75,-70.69 1331.75,-61.78 1312.31,-56 1195.65,-21.28 1049.89,-13.34 985.94,-11.53"/>
<polygon fill="midnightblue" stroke="midnightblue" points="985.77,-8.02 975.69,-11.27 985.6,-15.02 985.77,-8.02"/>
</g>
<!-- Node25&#45;&gt;Node12 -->
<g id="edge38" class="edge">
<title>Node25&#45;&gt;Node12</title>
<path fill="none" stroke="midnightblue" d="M2034.52,-124.08C2110.84,-118.96 2208.25,-103.31 2166.31,-56 2148.38,-35.77 1996.92,-22.84 1892.88,-16.26"/>
<polygon fill="midnightblue" stroke="midnightblue" points="1892.84,-12.75 1882.65,-15.62 1892.41,-19.74 1892.84,-12.75"/>
</g>
<!-- Node25&#45;&gt;Node14 -->
<g id="edge40" class="edge">
<title>Node25&#45;&gt;Node14</title>
<path fill="none" stroke="midnightblue" d="M1951.6,-117.89C1946.32,-102.66 1933.14,-71.18 1910.31,-56 1901.52,-50.15 1777.47,-31.57 1698.39,-20.19"/>
<polygon fill="midnightblue" stroke="midnightblue" points="1698.42,-16.66 1688.02,-18.71 1697.42,-23.59 1698.42,-16.66"/>
</g>
<!-- Node25&#45;&gt;Node21 -->
<g id="edge39" class="edge">
<title>Node25&#45;&gt;Node21</title>
<path fill="none" stroke="midnightblue" d="M1880.1,-117.98C1784.9,-107.04 1620.19,-88.12 1520.44,-76.66"/>
<polygon fill="midnightblue" stroke="midnightblue" points="1520.73,-73.17 1510.39,-75.51 1519.93,-80.13 1520.73,-73.17"/>
</g>
<!-- Node25&#45;&gt;Node22 -->
<g id="edge41" class="edge">
<title>Node25&#45;&gt;Node22</title>
<path fill="none" stroke="midnightblue" d="M1947.87,-117.67C1935.93,-102.1 1908.74,-70.09 1877.31,-56 1843.27,-40.73 1607.69,-22.77 1495.49,-14.96"/>
<polygon fill="midnightblue" stroke="midnightblue" points="1495.57,-11.46 1485.35,-14.26 1495.08,-18.44 1495.57,-11.46"/>
</g>
<!-- Node26 -->
<g id="node26" class="node">
<title>Node26</title>
<g id="a_node26"><a xlink:title=" ">
<polygon fill="white" stroke="#bfbfbf" points="2111.81,-56.5 2111.81,-75.5 2156.81,-75.5 2156.81,-56.5 2111.81,-56.5"/>
<text text-anchor="middle" x="2134.31" y="-63.5" font-family="Helvetica,sans-Serif" font-size="10.00">utility</text>
</a>
</g>
</g>
<!-- Node25&#45;&gt;Node26 -->
<g id="edge37" class="edge">
<title>Node25&#45;&gt;Node26</title>
<path fill="none" stroke="midnightblue" d="M1980.1,-117.98C2012.22,-107.36 2067.1,-89.22 2101.99,-77.68"/>
<polygon fill="midnightblue" stroke="midnightblue" points="2103.3,-80.94 2111.7,-74.47 2101.11,-74.29 2103.3,-80.94"/>
</g>
<!-- Node27 -->
<g id="node27" class="node">
<title>Node27</title>
<g id="a_node27"><a xlink:title=" ">
<polygon fill="white" stroke="#bfbfbf" points="1962.81,-56.5 1962.81,-75.5 2093.81,-75.5 2093.81,-56.5 1962.81,-56.5"/>
<text text-anchor="middle" x="2028.31" y="-63.5" font-family="Helvetica,sans-Serif" font-size="10.00">AMReX_PhysBCFunct.H</text>
</a>
</g>
</g>
<!-- Node25&#45;&gt;Node27 -->
<g id="edge42" class="edge">
<title>Node25&#45;&gt;Node27</title>
<path fill="none" stroke="midnightblue" d="M1964.92,-117.98C1976.57,-108.61 1995.5,-93.38 2009.65,-82.01"/>
<polygon fill="midnightblue" stroke="midnightblue" points="2012.13,-84.5 2017.73,-75.51 2007.75,-79.05 2012.13,-84.5"/>
</g>
<!-- Node28&#45;&gt;Node10 -->
<g id="edge47" class="edge">
<title>Node28&#45;&gt;Node10</title>
<path fill="none" stroke="midnightblue" d="M560.74,-182.22C423.21,-160.66 155.7,-110.83 207.31,-56 232.13,-29.65 780.69,-15.04 920.91,-11.73"/>
<polygon fill="midnightblue" stroke="midnightblue" points="921.1,-15.23 931.02,-11.49 920.94,-8.23 921.1,-15.23"/>
</g>
<!-- Node28&#45;&gt;Node12 -->
<g id="edge61" class="edge">
<title>Node28&#45;&gt;Node12</title>
<path fill="none" stroke="midnightblue" d="M716.07,-181.39C722.24,-180.54 728.38,-179.73 734.31,-179 1122.95,-131.08 1228.56,-167.43 1609.31,-76 1665.59,-62.49 1728.72,-38.25 1764.77,-23.5"/>
<polygon fill="midnightblue" stroke="midnightblue" points="1766.29,-26.66 1774.19,-19.61 1763.61,-20.19 1766.29,-26.66"/>
</g>
<!-- Node28&#45;&gt;Node20 -->
<g id="edge62" class="edge">
<title>Node28&#45;&gt;Node20</title>
<path fill="none" stroke="midnightblue" d="M660.87,-179.37C676.39,-169.49 697.36,-155.82 715.31,-143 733.62,-129.93 737.37,-125.57 755.31,-112 768.87,-101.75 784.26,-90.4 796.2,-81.66"/>
<polygon fill="midnightblue" stroke="midnightblue" points="798.55,-84.27 804.56,-75.54 794.42,-78.62 798.55,-84.27"/>
</g>
<!-- Node29 -->
<g id="node29" class="node">
<title>Node29</title>
<g id="a_node29"><a xlink:href="_factory_8_h.html" target="_top" xlink:title=" ">
<polygon fill="white" stroke="black" points="417.31,-118 417.31,-137 551.31,-137 551.31,-118 417.31,-118"/>
<text text-anchor="middle" x="484.31" y="-125" font-family="Helvetica,sans-Serif" font-size="10.00">amr&#45;wind/core/Factory.H</text>
</a>
</g>
</g>
<!-- Node28&#45;&gt;Node29 -->
<g id="edge48" class="edge">
<title>Node28&#45;&gt;Node29</title>
<path fill="none" stroke="midnightblue" d="M604.9,-179.4C577.76,-167.94 539.85,-151.94 513.82,-140.95"/>
<polygon fill="midnightblue" stroke="midnightblue" points="515.04,-137.67 504.47,-137.01 512.32,-144.12 515.04,-137.67"/>
</g>
<!-- Node33 -->
<g id="node33" class="node">
<title>Node33</title>
<g id="a_node33"><a xlink:href="_coll_mgr_8_h.html" target="_top" xlink:title=" ">
<polygon fill="white" stroke="black" points="569.81,-118 569.81,-137 706.81,-137 706.81,-118 569.81,-118"/>
<text text-anchor="middle" x="638.31" y="-125" font-family="Helvetica,sans-Serif" font-size="10.00">amr&#45;wind/core/CollMgr.H</text>
</a>
</g>
</g>
<!-- Node28&#45;&gt;Node33 -->
<g id="edge54" class="edge">
<title>Node28&#45;&gt;Node33</title>
<path fill="none" stroke="midnightblue" d="M638.31,-179.4C638.31,-170.06 638.31,-157.71 638.31,-147.52"/>
<polygon fill="midnightblue" stroke="midnightblue" points="641.81,-147.19 638.31,-137.19 634.81,-147.19 641.81,-147.19"/>
</g>
<!-- Node34 -->
<g id="node34" class="node">
<title>Node34</title>
<g id="a_node34"><a xlink:href="_p_d_e_fields_8_h.html" target="_top" xlink:title=" ">
<polygon fill="white" stroke="black" points="31.81,-112.5 31.81,-142.5 186.81,-142.5 186.81,-112.5 31.81,-112.5"/>
<text text-anchor="start" x="39.81" y="-130.5" font-family="Helvetica,sans-Serif" font-size="10.00">amr&#45;wind/equation_systems</text>
<text text-anchor="middle" x="109.31" y="-119.5" font-family="Helvetica,sans-Serif" font-size="10.00">/PDEFields.H</text>
</a>
</g>
</g>
<!-- Node28&#45;&gt;Node34 -->
<g id="edge59" class="edge">
<title>Node28&#45;&gt;Node34</title>
<path fill="none" stroke="midnightblue" d="M560.44,-185.48C472.94,-176.24 326.74,-160.12 201.31,-143 200.01,-142.82 198.69,-142.64 197.37,-142.46"/>
<polygon fill="midnightblue" stroke="midnightblue" points="197.48,-138.94 187.08,-140.99 196.49,-145.87 197.48,-138.94"/>
</g>
<!-- Node29&#45;&gt;Node2 -->
<g id="edge49" class="edge">
<title>Node29&#45;&gt;Node2</title>
<path fill="none" stroke="midnightblue" d="M477.01,-117.98C469.28,-108.96 456.91,-94.52 447.3,-83.31"/>
<polygon fill="midnightblue" stroke="midnightblue" points="449.77,-80.82 440.61,-75.51 444.46,-85.38 449.77,-80.82"/>
</g>
<!-- Node29&#45;&gt;Node11 -->
<g id="edge50" class="edge">
<title>Node29&#45;&gt;Node11</title>
<path fill="none" stroke="midnightblue" d="M512.54,-117.98C546.92,-107.59 605.12,-90.01 643.39,-78.45"/>
<polygon fill="midnightblue" stroke="midnightblue" points="644.58,-81.75 653.14,-75.51 642.56,-75.05 644.58,-81.75"/>
</g>
<!-- Node30 -->
<g id="node30" class="node">
<title>Node30</title>
<g id="a_node30"><a xlink:title=" ">
<polygon fill="white" stroke="#bfbfbf" points="480.31,-56.5 480.31,-75.5 540.31,-75.5 540.31,-56.5 480.31,-56.5"/>
<text text-anchor="middle" x="510.31" y="-63.5" font-family="Helvetica,sans-Serif" font-size="10.00">iostream</text>
</a>
</g>
</g>
<!-- Node29&#45;&gt;Node30 -->
<g id="edge51" class="edge">
<title>Node29&#45;&gt;Node30</title>
<path fill="none" stroke="midnightblue" d="M488.04,-117.98C491.79,-109.4 497.67,-95.93 502.46,-84.98"/>
<polygon fill="midnightblue" stroke="midnightblue" points="505.8,-86.07 506.6,-75.51 499.38,-83.27 505.8,-86.07"/>
</g>
<!-- Node31 -->
<g id="node31" class="node">
<title>Node31</title>
<g id="a_node31"><a xlink:title=" ">
<polygon fill="white" stroke="#bfbfbf" points="296.31,-56.5 296.31,-75.5 386.31,-75.5 386.31,-56.5 296.31,-56.5"/>
<text text-anchor="middle" x="341.31" y="-63.5" font-family="Helvetica,sans-Serif" font-size="10.00">AMReX_Print.H</text>
</a>
</g>
</g>
<!-- Node29&#45;&gt;Node31 -->
<g id="edge52" class="edge">
<title>Node29&#45;&gt;Node31</title>
<path fill="none" stroke="midnightblue" d="M463.83,-117.98C439.51,-107.86 398.77,-90.9 371,-79.35"/>
<polygon fill="midnightblue" stroke="midnightblue" points="372.34,-76.12 361.76,-75.51 369.65,-82.58 372.34,-76.12"/>
</g>
<!-- Node32 -->
<g id="node32" class="node">
<title>Node32</title>
<g id="a_node32"><a xlink:title=" ">
<polygon fill="white" stroke="#bfbfbf" points="216.31,-56.5 216.31,-75.5 278.31,-75.5 278.31,-56.5 216.31,-56.5"/>
<text text-anchor="middle" x="247.31" y="-63.5" font-family="Helvetica,sans-Serif" font-size="10.00">AMReX.H</text>
</a>
</g>
</g>
<!-- Node29&#45;&gt;Node32 -->
<g id="edge53" class="edge">
<title>Node29&#45;&gt;Node32</title>
<path fill="none" stroke="midnightblue" d="M450.36,-117.98C407.64,-107.25 334.33,-88.85 288.47,-77.33"/>
<polygon fill="midnightblue" stroke="midnightblue" points="289.11,-73.89 278.56,-74.85 287.41,-80.67 289.11,-73.89"/>
</g>
<!-- Node33&#45;&gt;Node2 -->
<g id="edge56" class="edge">
<title>Node33&#45;&gt;Node2</title>
<path fill="none" stroke="midnightblue" d="M608.94,-117.98C573.02,-107.55 512.08,-89.86 472.27,-78.31"/>
<polygon fill="midnightblue" stroke="midnightblue" points="473.21,-74.94 462.63,-75.51 471.26,-81.66 473.21,-74.94"/>
</g>
<!-- Node33&#45;&gt;Node10 -->
<g id="edge55" class="edge">
<title>Node33&#45;&gt;Node10</title>
<path fill="none" stroke="midnightblue" d="M625.53,-117.92C606.41,-104.06 574.42,-76.27 592.31,-56 613.96,-31.48 836.93,-17.18 921.25,-12.61"/>
<polygon fill="midnightblue" stroke="midnightblue" points="921.48,-16.11 931.28,-12.08 921.11,-9.12 921.48,-16.11"/>
</g>
<!-- Node33&#45;&gt;Node11 -->
<g id="edge57" class="edge">
<title>Node33&#45;&gt;Node11</title>
<path fill="none" stroke="midnightblue" d="M644.48,-117.98C650.93,-109.05 661.22,-94.81 669.29,-83.64"/>
<polygon fill="midnightblue" stroke="midnightblue" points="672.14,-85.66 675.17,-75.51 666.47,-81.56 672.14,-85.66"/>
</g>
<!-- Node33&#45;&gt;Node22 -->
<g id="edge58" class="edge">
<title>Node33&#45;&gt;Node22</title>
<path fill="none" stroke="midnightblue" d="M632.65,-117.82C623.78,-103.05 609.23,-73 625.31,-56 651.09,-28.76 1194.12,-15.72 1376.89,-12.09"/>
<polygon fill="midnightblue" stroke="midnightblue" points="1377.19,-15.58 1387.12,-11.89 1377.05,-8.58 1377.19,-15.58"/>
</g>
<!-- Node35 -->
<g id="node35" class="node">
<title>Node35</title>
<g id="a_node35"><a xlink:title=" ">
<polygon fill="white" stroke="#bfbfbf" points="85.31,-56.5 85.31,-75.5 133.31,-75.5 133.31,-56.5 85.31,-56.5"/>
<text text-anchor="middle" x="109.31" y="-63.5" font-family="Helvetica,sans-Serif" font-size="10.00">iosfwd</text>
</a>
</g>
</g>
<!-- Node34&#45;&gt;Node35 -->
<g id="edge60" class="edge">
<title>Node34&#45;&gt;Node35</title>
<path fill="none" stroke="midnightblue" d="M109.31,-112.4C109.31,-104.47 109.31,-94.46 109.31,-85.86"/>
<polygon fill="midnightblue" stroke="midnightblue" points="112.81,-85.66 109.31,-75.66 105.81,-85.66 112.81,-85.66"/>
</g>
<!-- Node36&#45;&gt;Node14 -->
<g id="edge66" class="edge">
<title>Node36&#45;&gt;Node14</title>
<path fill="none" stroke="midnightblue" d="M855.82,-184.99C866.76,-182.96 878.45,-180.85 889.31,-179 1183.27,-128.86 1279.45,-196.28 1552.31,-76 1578.45,-64.48 1603.25,-42.33 1618.36,-27.12"/>
<polygon fill="midnightblue" stroke="midnightblue" points="1620.92,-29.51 1625.34,-19.89 1615.88,-24.65 1620.92,-29.51"/>
</g>
<!-- Node36&#45;&gt;Node29 -->
<g id="edge64" class="edge">
<title>Node36&#45;&gt;Node29</title>
<path fill="none" stroke="midnightblue" d="M768.23,-184.94C708.72,-173.11 601.45,-151.78 537.17,-139.01"/>
<polygon fill="midnightblue" stroke="midnightblue" points="537.73,-135.55 527.24,-137.03 536.36,-142.41 537.73,-135.55"/>
</g>
<!-- Node36&#45;&gt;Node33 -->
<g id="edge65" class="edge">
<title>Node36&#45;&gt;Node33</title>
<path fill="none" stroke="midnightblue" d="M788.34,-184.87C758.14,-173.52 704.92,-153.52 670.66,-140.65"/>
<polygon fill="midnightblue" stroke="midnightblue" points="671.7,-137.3 661.11,-137.06 669.24,-143.86 671.7,-137.3"/>
</g>
<!-- Node37 -->
<g id="node37" class="node">
<title>Node37</title>
<g id="a_node37"><a xlink:title=" ">
<polygon fill="white" stroke="#bfbfbf" points="763.81,-118 763.81,-137 878.81,-137 878.81,-118 763.81,-118"/>
<text text-anchor="middle" x="821.31" y="-125" font-family="Helvetica,sans-Serif" font-size="10.00">AMReX_Geometry.H</text>
</a>
</g>
</g>
<!-- Node36&#45;&gt;Node37 -->
<g id="edge67" class="edge">
<title>Node36&#45;&gt;Node37</title>
<path fill="none" stroke="midnightblue" d="M812.66,-184.73C814.13,-175.18 816.53,-159.62 818.42,-147.28"/>
<polygon fill="midnightblue" stroke="midnightblue" points="821.93,-147.54 819.99,-137.13 815.01,-146.48 821.93,-147.54"/>
</g>
<!-- Node38&#45;&gt;Node14 -->
<g id="edge72" class="edge">
<title>Node38&#45;&gt;Node14</title>
<path fill="none" stroke="midnightblue" d="M1046.48,-191.3C1200.71,-186.18 1545.43,-171.66 1590.31,-143 1628.14,-118.85 1633.69,-59.99 1633.9,-29.7"/>
<polygon fill="midnightblue" stroke="midnightblue" points="1637.4,-29.57 1633.78,-19.62 1630.4,-29.66 1637.4,-29.57"/>
</g>
<!-- Node38&#45;&gt;Node16 -->
<g id="edge71" class="edge">
<title>Node38&#45;&gt;Node16</title>
<path fill="none" stroke="midnightblue" d="M981.35,-184.73C992,-174.4 1009.9,-157.04 1023,-144.33"/>
<polygon fill="midnightblue" stroke="midnightblue" points="1025.68,-146.6 1030.42,-137.13 1020.81,-141.58 1025.68,-146.6"/>
</g>
<!-- Node38&#45;&gt;Node29 -->
<g id="edge70" class="edge">
<title>Node38&#45;&gt;Node29</title>
<path fill="none" stroke="midnightblue" d="M926.73,-185C914.6,-182.88 901.48,-180.73 889.31,-179 743.68,-158.33 705.79,-164.8 560.31,-143 552.29,-141.8 543.81,-140.35 535.55,-138.85"/>
<polygon fill="midnightblue" stroke="midnightblue" points="536.1,-135.39 525.63,-137 534.82,-142.27 536.1,-135.39"/>
</g>
<!-- Node38&#45;&gt;Node33 -->
<g id="edge69" class="edge">
<title>Node38&#45;&gt;Node33</title>
<path fill="none" stroke="midnightblue" d="M928.31,-184.94C867.52,-173.11 757.96,-151.78 692.3,-139.01"/>
<polygon fill="midnightblue" stroke="midnightblue" points="692.64,-135.51 682.15,-137.03 691.3,-142.38 692.64,-135.51"/>
</g>
<!-- Node38&#45;&gt;Node37 -->
<g id="edge73" class="edge">
<title>Node38&#45;&gt;Node37</title>
<path fill="none" stroke="midnightblue" d="M952.26,-184.87C926.32,-173.7 880.89,-154.15 850.96,-141.26"/>
<polygon fill="midnightblue" stroke="midnightblue" points="852.02,-137.91 841.45,-137.17 849.25,-144.34 852.02,-137.91"/>
</g>
<!-- Node39&#45;&gt;Node2 -->
<g id="edge75" class="edge">
<title>Node39&#45;&gt;Node2</title>
<path fill="none" stroke="midnightblue" d="M426.51,-179.37C419.82,-169.71 411.86,-156.29 408.31,-143 404.76,-129.69 404.86,-125.34 408.31,-112 410.86,-102.18 416.07,-92.21 421.07,-84.17"/>
<polygon fill="midnightblue" stroke="midnightblue" points="424.06,-85.99 426.69,-75.73 418.23,-82.11 424.06,-85.99"/>
</g>
<!-- Node39&#45;&gt;Node29 -->
<g id="edge76" class="edge">
<title>Node39&#45;&gt;Node29</title>
<path fill="none" stroke="midnightblue" d="M447.51,-179.4C454.7,-169.46 464.35,-156.11 471.97,-145.57"/>
<polygon fill="midnightblue" stroke="midnightblue" points="475,-147.35 478.03,-137.19 469.33,-143.25 475,-147.35"/>
</g>
</g>
</svg>
        <g id="navigator" transform="translate(0 0)" fill="#404254">
                <rect fill="#f2f5e9" fill-opacity="0.5" stroke="#606060" stroke-width=".5" x="0" y="0" width="60" height="60"/>
                <use id="zoomplus" xlink:href="#zoomPlus" x="17" y="9" onmousedown="handleZoom(evt,'in')"/>
                <use id="zoomminus" xlink:href="#zoomMin" x="42" y="9" onmousedown="handleZoom(evt,'out')"/>
                <use id="reset" xlink:href="#resetDef" x="30" y="36" onmousedown="handleReset()"/>
                <g id="arrowUp" xlink:href="#dirArrow" transform="translate(30 24)" onmousedown="handlePan(0,-1)">
                  <use xlink:href="#rim" fill="#404040">
                        <set attributeName="fill" to="#808080" begin="arrowUp.mouseover" end="arrowUp.mouseout"/>
                  </use>
                  <path fill="none" stroke="white" stroke-width="1.5" d="M0,-3.0v7 M-2.5,-0.5L0,-3.0L2.5,-0.5"/>
                </g>
                <g id="arrowRight" xlink:href="#dirArrow" transform="rotate(90) translate(36 -43)" onmousedown="handlePan(1,0)">
                  <use xlink:href="#rim" fill="#404040">
                        <set attributeName="fill" to="#808080" begin="arrowRight.mouseover" end="arrowRight.mouseout"/>
                  </use>
                  <path fill="none" stroke="white" stroke-width="1.5" d="M0,-3.0v7 M-2.5,-0.5L0,-3.0L2.5,-0.5"/>
                </g>
                <g id="arrowDown" xlink:href="#dirArrow" transform="rotate(180) translate(-30 -48)" onmousedown="handlePan(0,1)">
                  <use xlink:href="#rim" fill="#404040">
                        <set attributeName="fill" to="#808080" begin="arrowDown.mouseover" end="arrowDown.mouseout"/>
                  </use>
                  <path fill="none" stroke="white" stroke-width="1.5" d="M0,-3.0v7 M-2.5,-0.5L0,-3.0L2.5,-0.5"/>
                </g>
                <g id="arrowLeft" xlink:href="#dirArrow" transform="rotate(270) translate(-36 17)" onmousedown="handlePan(-1,0)">
                  <use xlink:href="#rim" fill="#404040">
                        <set attributeName="fill" to="#808080" begin="arrowLeft.mouseover" end="arrowLeft.mouseout"/>
                  </use>
                  <path fill="none" stroke="white" stroke-width="1.5" d="M0,-3.0v7 M-2.5,-0.5L0,-3.0L2.5,-0.5"/>
                </g>
        </g>
        <svg viewBox="0 0 15 15" width="100%" height="30px" preserveAspectRatio="xMaxYMin meet">
         <g id="arrow_out" transform="scale(0.3 0.3)">
          <a xlink:href="_free_surface_8_h__incl_org.svg" target="_base">
           <rect id="button" ry="5" rx="5" y="6" x="6" height="38" width="38"
                fill="#f2f5e9" fill-opacity="0.5" stroke="#606060" stroke-width="1.0"/>
           <path id="arrow"
             d="M 11.500037,31.436501 C 11.940474,20.09759 22.043105,11.32322 32.158766,21.979434 L 37.068811,17.246167 C 37.068811,17.246167 37.088388,32 37.088388,32 L 22.160133,31.978069 C 22.160133,31.978069 26.997745,27.140456 26.997745,27.140456 C 18.528582,18.264221 13.291696,25.230495 11.500037,31.436501 z"
             style="fill:#404040;"/>
          </a>
         </g>
        </svg>
</svg>
