<?xml version="1.0" encoding="UTF-8" standalone="no"?>
<!DOCTYPE svg PUBLIC "-//W3C//DTD SVG 1.1//EN"
 "http://www.w3.org/Graphics/SVG/1.1/DTD/svg11.dtd">
<!-- Generated by graphviz version 2.43.0 (0)
 -->
<!-- Title: GravityForcing.cpp Pages: 1 -->
<svg width="2956pt" height="408pt"
 viewBox="0.00 0.00 2955.67 408.00" xmlns="http://www.w3.org/2000/svg" xmlns:xlink="http://www.w3.org/1999/xlink">
<g id="graph0" class="graph" transform="scale(1 1) rotate(0) translate(4 404)">
<title>GravityForcing.cpp</title>
<polygon fill="white" stroke="transparent" points="-4,4 -4,-404 2951.67,-404 2951.67,4 -4,4"/>
<!-- Node1 -->
<g id="node1" class="node">
<title>Node1</title>
<g id="a_node1"><a xlink:title=" ">
<polygon fill="#bfbfbf" stroke="black" points="374.67,-380.5 374.67,-399.5 482.67,-399.5 482.67,-380.5 374.67,-380.5"/>
<text text-anchor="middle" x="428.67" y="-387.5" font-family="Helvetica,sans-Serif" font-size="10.00">GravityForcing.cpp</text>
</a>
</g>
</g>
<!-- Node2 -->
<g id="node2" class="node">
<title>Node2</title>
<g id="a_node2"><a xlink:href="_gravity_forcing_8_h.html" target="_top" xlink:title=" ">
<polygon fill="white" stroke="black" points="270.17,-313.5 270.17,-343.5 463.17,-343.5 463.17,-313.5 270.17,-313.5"/>
<text text-anchor="start" x="278.17" y="-331.5" font-family="Helvetica,sans-Serif" font-size="10.00">amr&#45;wind/equation_systems</text>
<text text-anchor="middle" x="366.67" y="-320.5" font-family="Helvetica,sans-Serif" font-size="10.00">/icns/source_terms/GravityForcing.H</text>
</a>
</g>
</g>
<!-- Node1&#45;&gt;Node2 -->
<g id="edge1" class="edge">
<title>Node1&#45;&gt;Node2</title>
<path fill="none" stroke="midnightblue" d="M419.78,-380.48C411.7,-372.72 399.43,-360.94 388.72,-350.66"/>
<polygon fill="midnightblue" stroke="midnightblue" points="390.92,-347.92 381.28,-343.52 386.07,-352.97 390.92,-347.92"/>
</g>
<!-- Node7 -->
<g id="node7" class="node">
<title>Node7</title>
<g id="a_node7"><a xlink:href="_field_utils_8_h.html" target="_top" xlink:title=" ">
<polygon fill="white" stroke="black" points="81.67,-118 81.67,-137 227.67,-137 227.67,-118 81.67,-118"/>
<text text-anchor="middle" x="154.67" y="-125" font-family="Helvetica,sans-Serif" font-size="10.00">amr&#45;wind/core/FieldUtils.H</text>
</a>
</g>
</g>
<!-- Node1&#45;&gt;Node7 -->
<g id="edge81" class="edge">
<title>Node1&#45;&gt;Node7</title>
<path fill="none" stroke="midnightblue" d="M374.62,-385.94C338.83,-381.38 292.75,-370.35 260.67,-344 196.04,-290.91 167.61,-188.69 158.33,-146.95"/>
<polygon fill="midnightblue" stroke="midnightblue" points="161.74,-146.13 156.25,-137.07 154.89,-147.58 161.74,-146.13"/>
</g>
<!-- Node29 -->
<g id="node29" class="node">
<title>Node29</title>
<g id="a_node29"><a xlink:href="_c_f_d_sim_8_h.html" target="_top" xlink:title=" ">
<polygon fill="white" stroke="black" points="1576.67,-252 1576.67,-271 1692.67,-271 1692.67,-252 1576.67,-252"/>
<text text-anchor="middle" x="1634.67" y="-259" font-family="Helvetica,sans-Serif" font-size="10.00">amr&#45;wind/CFDSim.H</text>
</a>
</g>
</g>
<!-- Node1&#45;&gt;Node29 -->
<g id="edge51" class="edge">
<title>Node1&#45;&gt;Node29</title>
<path fill="none" stroke="midnightblue" d="M437.55,-380.22C457.06,-361.02 502.64,-316.74 511.67,-313 608.76,-272.73 1337.77,-264.47 1566.34,-262.87"/>
<polygon fill="midnightblue" stroke="midnightblue" points="1566.54,-266.37 1576.52,-262.8 1566.49,-259.37 1566.54,-266.37"/>
</g>
<!-- Node41 -->
<g id="node41" class="node">
<title>Node41</title>
<g id="a_node41"><a xlink:title=" ">
<polygon fill="white" stroke="#bfbfbf" points="520.17,-319 520.17,-338 639.17,-338 639.17,-319 520.17,-319"/>
<text text-anchor="middle" x="579.67" y="-326" font-family="Helvetica,sans-Serif" font-size="10.00">AMReX_ParmParse.H</text>
</a>
</g>
</g>
<!-- Node1&#45;&gt;Node41 -->
<g id="edge82" class="edge">
<title>Node1&#45;&gt;Node41</title>
<path fill="none" stroke="midnightblue" d="M450.3,-380.48C476.09,-370.31 519.38,-353.26 548.71,-341.7"/>
<polygon fill="midnightblue" stroke="midnightblue" points="550.05,-344.93 558.07,-338.01 547.49,-338.42 550.05,-344.93"/>
</g>
<!-- Node3 -->
<g id="node3" class="node">
<title>Node3</title>
<g id="a_node3"><a xlink:href="_field_repo_8_h.html" target="_top" xlink:title=" ">
<polygon fill="white" stroke="black" points="468.17,-185 468.17,-204 617.17,-204 617.17,-185 468.17,-185"/>
<text text-anchor="middle" x="542.67" y="-192" font-family="Helvetica,sans-Serif" font-size="10.00">amr&#45;wind/core/FieldRepo.H</text>
</a>
</g>
</g>
<!-- Node2&#45;&gt;Node3 -->
<g id="edge2" class="edge">
<title>Node2&#45;&gt;Node3</title>
<path fill="none" stroke="midnightblue" d="M385.5,-313.37C419.04,-288.22 488.79,-235.91 522.95,-210.29"/>
<polygon fill="midnightblue" stroke="midnightblue" points="525.3,-212.9 531.2,-204.1 521.1,-207.3 525.3,-212.9"/>
</g>
<!-- Node24 -->
<g id="node24" class="node">
<title>Node24</title>
<g id="a_node24"><a xlink:href="_momentum_source_8_h.html" target="_top" xlink:title=" ">
<polygon fill="white" stroke="black" points="240.17,-246.5 240.17,-276.5 395.17,-276.5 395.17,-246.5 240.17,-246.5"/>
<text text-anchor="start" x="248.17" y="-264.5" font-family="Helvetica,sans-Serif" font-size="10.00">amr&#45;wind/equation_systems</text>
<text text-anchor="middle" x="317.67" y="-253.5" font-family="Helvetica,sans-Serif" font-size="10.00">/icns/MomentumSource.H</text>
</a>
</g>
</g>
<!-- Node2&#45;&gt;Node24 -->
<g id="edge40" class="edge">
<title>Node2&#45;&gt;Node24</title>
<path fill="none" stroke="midnightblue" d="M356.04,-313.4C349.74,-305.05 341.63,-294.29 334.49,-284.81"/>
<polygon fill="midnightblue" stroke="midnightblue" points="337.09,-282.45 328.28,-276.58 331.5,-286.67 337.09,-282.45"/>
</g>
<!-- Node4 -->
<g id="node4" class="node">
<title>Node4</title>
<g id="a_node4"><a xlink:title=" ">
<polygon fill="white" stroke="#bfbfbf" points="1166.67,-0.5 1166.67,-19.5 1210.67,-19.5 1210.67,-0.5 1166.67,-0.5"/>
<text text-anchor="middle" x="1188.67" y="-7.5" font-family="Helvetica,sans-Serif" font-size="10.00">string</text>
</a>
</g>
</g>
<!-- Node3&#45;&gt;Node4 -->
<g id="edge3" class="edge">
<title>Node3&#45;&gt;Node4</title>
<path fill="none" stroke="midnightblue" d="M617.37,-189.55C729.31,-181.14 944.9,-155.17 1108.67,-76 1133.95,-63.78 1158.3,-42.11 1173.36,-27.18"/>
<polygon fill="midnightblue" stroke="midnightblue" points="1176.21,-29.26 1180.72,-19.67 1171.22,-24.36 1176.21,-29.26"/>
</g>
<!-- Node5 -->
<g id="node5" class="node">
<title>Node5</title>
<g id="a_node5"><a xlink:title=" ">
<polygon fill="white" stroke="#bfbfbf" points="1592.17,-56.5 1592.17,-75.5 1685.17,-75.5 1685.17,-56.5 1592.17,-56.5"/>
<text text-anchor="middle" x="1638.67" y="-63.5" font-family="Helvetica,sans-Serif" font-size="10.00">unordered_map</text>
</a>
</g>
</g>
<!-- Node3&#45;&gt;Node5 -->
<g id="edge4" class="edge">
<title>Node3&#45;&gt;Node5</title>
<path fill="none" stroke="midnightblue" d="M617.44,-191.86C765.4,-187.94 1090.36,-175.78 1196.67,-143 1223.11,-134.85 1224.38,-120.66 1250.67,-112 1310.81,-92.18 1489.68,-77.33 1582.05,-70.75"/>
<polygon fill="midnightblue" stroke="midnightblue" points="1582.34,-74.24 1592.07,-70.04 1581.85,-67.25 1582.34,-74.24"/>
</g>
<!-- Node6 -->
<g id="node6" class="node">
<title>Node6</title>
<g id="a_node6"><a xlink:href="_field_desc_types_8_h.html" target="_top" xlink:title=" ">
<polygon fill="white" stroke="black" points="430.67,-0.5 430.67,-19.5 606.67,-19.5 606.67,-0.5 430.67,-0.5"/>
<text text-anchor="middle" x="518.67" y="-7.5" font-family="Helvetica,sans-Serif" font-size="10.00">amr&#45;wind/core/FieldDescTypes.H</text>
</a>
</g>
</g>
<!-- Node3&#45;&gt;Node6 -->
<g id="edge5" class="edge">
<title>Node3&#45;&gt;Node6</title>
<path fill="none" stroke="midnightblue" d="M468.03,-185.76C431.72,-179.04 389.04,-166.47 356.67,-143 327.83,-122.09 322.87,-110.13 312.67,-76 310.12,-67.48 307.09,-62.92 312.67,-56 326.73,-38.53 374.51,-27.48 420.52,-20.7"/>
<polygon fill="midnightblue" stroke="midnightblue" points="421.19,-24.14 430.6,-19.27 420.21,-17.21 421.19,-24.14"/>
</g>
<!-- Node3&#45;&gt;Node7 -->
<g id="edge6" class="edge">
<title>Node3&#45;&gt;Node7</title>
<path fill="none" stroke="midnightblue" d="M491.54,-184.94C420.35,-173.01 291.56,-151.43 215.51,-138.69"/>
<polygon fill="midnightblue" stroke="midnightblue" points="216.04,-135.23 205.6,-137.03 214.88,-142.14 216.04,-135.23"/>
</g>
<!-- Node8 -->
<g id="node8" class="node">
<title>Node8</title>
<g id="a_node8"><a xlink:title=" ">
<polygon fill="white" stroke="#bfbfbf" points="769.17,-0.5 769.17,-19.5 878.17,-19.5 878.17,-0.5 769.17,-0.5"/>
<text text-anchor="middle" x="823.67" y="-7.5" font-family="Helvetica,sans-Serif" font-size="10.00">AMReX_MultiFab.H</text>
</a>
</g>
</g>
<!-- Node3&#45;&gt;Node8 -->
<g id="edge38" class="edge">
<title>Node3&#45;&gt;Node8</title>
<path fill="none" stroke="midnightblue" d="M545.12,-184.75C552.5,-160.17 576.87,-90.11 623.67,-56 662.72,-27.53 716.63,-16.6 758.63,-12.62"/>
<polygon fill="midnightblue" stroke="midnightblue" points="759.09,-16.09 768.76,-11.77 758.51,-9.11 759.09,-16.09"/>
</g>
<!-- Node10 -->
<g id="node10" class="node">
<title>Node10</title>
<g id="a_node10"><a xlink:href="_field_8_h.html" target="_top" xlink:title=" ">
<polygon fill="white" stroke="black" points="1389.67,-118 1389.67,-137 1513.67,-137 1513.67,-118 1389.67,-118"/>
<text text-anchor="middle" x="1451.67" y="-125" font-family="Helvetica,sans-Serif" font-size="10.00">amr&#45;wind/core/Field.H</text>
</a>
</g>
</g>
<!-- Node3&#45;&gt;Node10 -->
<g id="edge10" class="edge">
<title>Node3&#45;&gt;Node10</title>
<path fill="none" stroke="midnightblue" d="M617.36,-192.38C763.92,-189.44 1099.26,-179.02 1378.67,-143 1386.87,-141.94 1395.53,-140.51 1403.91,-138.95"/>
<polygon fill="midnightblue" stroke="midnightblue" points="1404.79,-142.35 1413.94,-137.01 1403.46,-135.47 1404.79,-142.35"/>
</g>
<!-- Node18 -->
<g id="node18" class="node">
<title>Node18</title>
<g id="a_node18"><a xlink:href="_int_field_8_h.html" target="_top" xlink:title=" ">
<polygon fill="white" stroke="black" points="377.17,-118 377.17,-137 514.17,-137 514.17,-118 377.17,-118"/>
<text text-anchor="middle" x="445.67" y="-125" font-family="Helvetica,sans-Serif" font-size="10.00">amr&#45;wind/core/IntField.H</text>
</a>
</g>
</g>
<!-- Node3&#45;&gt;Node18 -->
<g id="edge25" class="edge">
<title>Node3&#45;&gt;Node18</title>
<path fill="none" stroke="midnightblue" d="M529.59,-184.73C513.51,-173.96 486.03,-155.55 466.92,-142.74"/>
<polygon fill="midnightblue" stroke="midnightblue" points="468.8,-139.79 458.54,-137.13 464.9,-145.6 468.8,-139.79"/>
</g>
<!-- Node19 -->
<g id="node19" class="node">
<title>Node19</title>
<g id="a_node19"><a xlink:title=" ">
<polygon fill="white" stroke="#bfbfbf" points="321.67,-56.5 321.67,-75.5 433.67,-75.5 433.67,-56.5 321.67,-56.5"/>
<text text-anchor="middle" x="377.67" y="-63.5" font-family="Helvetica,sans-Serif" font-size="10.00">AMReX_iMultiFab.H</text>
</a>
</g>
</g>
<!-- Node3&#45;&gt;Node19 -->
<g id="edge39" class="edge">
<title>Node3&#45;&gt;Node19</title>
<path fill="none" stroke="midnightblue" d="M487.54,-184.94C441.88,-176.59 382.21,-162.33 367.67,-143 355.08,-126.27 361.74,-101.39 368.75,-84.71"/>
<polygon fill="midnightblue" stroke="midnightblue" points="371.97,-86.07 372.99,-75.52 365.62,-83.14 371.97,-86.07"/>
</g>
<!-- Node20 -->
<g id="node20" class="node">
<title>Node20</title>
<g id="a_node20"><a xlink:href="_scratch_field_8_h.html" target="_top" xlink:title=" ">
<polygon fill="white" stroke="black" points="637.67,-118 637.67,-137 797.67,-137 797.67,-118 637.67,-118"/>
<text text-anchor="middle" x="717.67" y="-125" font-family="Helvetica,sans-Serif" font-size="10.00">amr&#45;wind/core/ScratchField.H</text>
</a>
</g>
</g>
<!-- Node3&#45;&gt;Node20 -->
<g id="edge29" class="edge">
<title>Node3&#45;&gt;Node20</title>
<path fill="none" stroke="midnightblue" d="M565.91,-184.87C596.45,-173.52 650.29,-153.52 684.95,-140.65"/>
<polygon fill="midnightblue" stroke="midnightblue" points="686.46,-143.83 694.61,-137.06 684.02,-137.26 686.46,-143.83"/>
</g>
<!-- Node23 -->
<g id="node23" class="node">
<title>Node23</title>
<g id="a_node23"><a xlink:title=" ">
<polygon fill="white" stroke="#bfbfbf" points="1259.67,-118 1259.67,-137 1369.67,-137 1369.67,-118 1259.67,-118"/>
<text text-anchor="middle" x="1314.67" y="-125" font-family="Helvetica,sans-Serif" font-size="10.00">AMReX_AmrCore.H</text>
</a>
</g>
</g>
<!-- Node3&#45;&gt;Node23 -->
<g id="edge37" class="edge">
<title>Node3&#45;&gt;Node23</title>
<path fill="none" stroke="midnightblue" d="M617.21,-191.15C745.34,-186.43 1015.43,-173.52 1241.67,-143 1249.68,-141.92 1258.13,-140.5 1266.34,-138.97"/>
<polygon fill="midnightblue" stroke="midnightblue" points="1267.02,-142.41 1276.17,-137.07 1265.69,-135.53 1267.02,-142.41"/>
</g>
<!-- Node7&#45;&gt;Node6 -->
<g id="edge7" class="edge">
<title>Node7&#45;&gt;Node6</title>
<path fill="none" stroke="midnightblue" d="M157.95,-117.82C164.25,-102.5 179.56,-70.87 203.67,-56 238.99,-34.21 341.36,-22.5 419.91,-16.54"/>
<polygon fill="midnightblue" stroke="midnightblue" points="420.62,-20 430.34,-15.77 420.11,-13.02 420.62,-20"/>
</g>
<!-- Node7&#45;&gt;Node8 -->
<g id="edge8" class="edge">
<title>Node7&#45;&gt;Node8</title>
<path fill="none" stroke="midnightblue" d="M161.97,-117.83C175.72,-102.22 207.17,-69.74 241.67,-56 288.68,-37.27 616.67,-20.37 758.53,-13.85"/>
<polygon fill="midnightblue" stroke="midnightblue" points="758.99,-17.33 768.82,-13.38 758.68,-10.34 758.99,-17.33"/>
</g>
<!-- Node9 -->
<g id="node9" class="node">
<title>Node9</title>
<g id="a_node9"><a xlink:title=" ">
<polygon fill="white" stroke="#bfbfbf" points="27.67,-56.5 27.67,-75.5 151.67,-75.5 151.67,-56.5 27.67,-56.5"/>
<text text-anchor="middle" x="89.67" y="-63.5" font-family="Helvetica,sans-Serif" font-size="10.00">AMReX_Interpolater.H</text>
</a>
</g>
</g>
<!-- Node7&#45;&gt;Node9 -->
<g id="edge9" class="edge">
<title>Node7&#45;&gt;Node9</title>
<path fill="none" stroke="midnightblue" d="M145.35,-117.98C135.22,-108.7 118.8,-93.67 106.42,-82.33"/>
<polygon fill="midnightblue" stroke="midnightblue" points="108.7,-79.68 98.96,-75.51 103.98,-84.84 108.7,-79.68"/>
</g>
<!-- Node10&#45;&gt;Node4 -->
<g id="edge11" class="edge">
<title>Node10&#45;&gt;Node4</title>
<path fill="none" stroke="midnightblue" d="M1467.08,-117.8C1489.19,-104.26 1525.29,-77.45 1506.67,-56 1469.9,-13.67 1294.65,-10.08 1221.19,-10.48"/>
<polygon fill="midnightblue" stroke="midnightblue" points="1221.09,-6.98 1211.12,-10.57 1221.14,-13.98 1221.09,-6.98"/>
</g>
<!-- Node10&#45;&gt;Node5 -->
<g id="edge13" class="edge">
<title>Node10&#45;&gt;Node5</title>
<path fill="none" stroke="midnightblue" d="M1478.46,-117.98C1510.95,-107.64 1565.88,-90.16 1602.2,-78.6"/>
<polygon fill="midnightblue" stroke="midnightblue" points="1603.46,-81.88 1611.92,-75.51 1601.33,-75.21 1603.46,-81.88"/>
</g>
<!-- Node10&#45;&gt;Node6 -->
<g id="edge19" class="edge">
<title>Node10&#45;&gt;Node6</title>
<path fill="none" stroke="midnightblue" d="M1413.17,-117.93C1402.08,-115.71 1389.94,-113.52 1378.67,-112 1160.07,-82.46 1095.75,-136.65 883.67,-76 865.32,-70.75 863.84,-61.83 845.67,-56 771.06,-32.05 682.87,-20.85 616.88,-15.61"/>
<polygon fill="midnightblue" stroke="midnightblue" points="617.14,-12.12 606.9,-14.85 616.61,-19.1 617.14,-12.12"/>
</g>
<!-- Node10&#45;&gt;Node8 -->
<g id="edge15" class="edge">
<title>Node10&#45;&gt;Node8</title>
<path fill="none" stroke="midnightblue" d="M1409.23,-117.95C1399.21,-115.97 1388.57,-113.88 1378.67,-112 1197.75,-77.57 983.17,-39.23 881.99,-21.3"/>
<polygon fill="midnightblue" stroke="midnightblue" points="882.43,-17.82 871.97,-19.52 881.21,-24.71 882.43,-17.82"/>
</g>
<!-- Node11 -->
<g id="node11" class="node">
<title>Node11</title>
<g id="a_node11"><a xlink:title=" ">
<polygon fill="white" stroke="#bfbfbf" points="1781.67,-56.5 1781.67,-75.5 1839.67,-75.5 1839.67,-56.5 1781.67,-56.5"/>
<text text-anchor="middle" x="1810.67" y="-63.5" font-family="Helvetica,sans-Serif" font-size="10.00">memory</text>
</a>
</g>
</g>
<!-- Node10&#45;&gt;Node11 -->
<g id="edge12" class="edge">
<title>Node10&#45;&gt;Node11</title>
<path fill="none" stroke="midnightblue" d="M1513.75,-118.17C1576.38,-109.44 1676.03,-94.67 1771.18,-76.18"/>
<polygon fill="midnightblue" stroke="midnightblue" points="1772.12,-79.56 1781.26,-74.2 1770.77,-72.69 1772.12,-79.56"/>
</g>
<!-- Node12 -->
<g id="node12" class="node">
<title>Node12</title>
<g id="a_node12"><a xlink:title=" ">
<polygon fill="white" stroke="#bfbfbf" points="1210.67,-56.5 1210.67,-75.5 1274.67,-75.5 1274.67,-56.5 1210.67,-56.5"/>
<text text-anchor="middle" x="1242.67" y="-63.5" font-family="Helvetica,sans-Serif" font-size="10.00">algorithm</text>
</a>
</g>
</g>
<!-- Node10&#45;&gt;Node12 -->
<g id="edge14" class="edge">
<title>Node10&#45;&gt;Node12</title>
<path fill="none" stroke="midnightblue" d="M1421.72,-117.98C1385.1,-107.55 1322.97,-89.86 1282.38,-78.31"/>
<polygon fill="midnightblue" stroke="midnightblue" points="1283.13,-74.88 1272.56,-75.51 1281.22,-81.61 1283.13,-74.88"/>
</g>
<!-- Node13 -->
<g id="node13" class="node">
<title>Node13</title>
<g id="a_node13"><a xlink:title=" ">
<polygon fill="white" stroke="#bfbfbf" points="1293.17,-56.5 1293.17,-75.5 1392.17,-75.5 1392.17,-56.5 1293.17,-56.5"/>
<text text-anchor="middle" x="1342.67" y="-63.5" font-family="Helvetica,sans-Serif" font-size="10.00">AMReX_BCRec.H</text>
</a>
</g>
</g>
<!-- Node10&#45;&gt;Node13 -->
<g id="edge16" class="edge">
<title>Node10&#45;&gt;Node13</title>
<path fill="none" stroke="midnightblue" d="M1436.05,-117.98C1418.08,-108.17 1388.35,-91.93 1367.26,-80.42"/>
<polygon fill="midnightblue" stroke="midnightblue" points="1368.71,-77.23 1358.26,-75.51 1365.36,-83.37 1368.71,-77.23"/>
</g>
<!-- Node14 -->
<g id="node14" class="node">
<title>Node14</title>
<g id="a_node14"><a xlink:title=" ">
<polygon fill="white" stroke="#bfbfbf" points="1410.17,-56.5 1410.17,-75.5 1497.17,-75.5 1497.17,-56.5 1410.17,-56.5"/>
<text text-anchor="middle" x="1453.67" y="-63.5" font-family="Helvetica,sans-Serif" font-size="10.00">AMReX_Gpu.H</text>
</a>
</g>
</g>
<!-- Node10&#45;&gt;Node14 -->
<g id="edge17" class="edge">
<title>Node10&#45;&gt;Node14</title>
<path fill="none" stroke="midnightblue" d="M1451.95,-117.98C1452.24,-109.58 1452.68,-96.48 1453.04,-85.66"/>
<polygon fill="midnightblue" stroke="midnightblue" points="1456.54,-85.62 1453.38,-75.51 1449.55,-85.39 1456.54,-85.62"/>
</g>
<!-- Node15 -->
<g id="node15" class="node">
<title>Node15</title>
<g id="a_node15"><a xlink:href="incflo__enums_8_h.html" target="_top" xlink:title=" ">
<polygon fill="white" stroke="black" points="2084.17,-56.5 2084.17,-75.5 2225.17,-75.5 2225.17,-56.5 2084.17,-56.5"/>
<text text-anchor="middle" x="2154.67" y="-63.5" font-family="Helvetica,sans-Serif" font-size="10.00">amr&#45;wind/incflo_enums.H</text>
</a>
</g>
</g>
<!-- Node10&#45;&gt;Node15 -->
<g id="edge18" class="edge">
<title>Node10&#45;&gt;Node15</title>
<path fill="none" stroke="midnightblue" d="M1513.76,-119.81C1538.32,-117.24 1566.81,-114.36 1592.67,-112 1683.81,-103.67 1941.68,-83.5 2074.06,-73.23"/>
<polygon fill="midnightblue" stroke="midnightblue" points="2074.45,-76.71 2084.15,-72.45 2073.91,-69.73 2074.45,-76.71"/>
</g>
<!-- Node16 -->
<g id="node16" class="node">
<title>Node16</title>
<g id="a_node16"><a xlink:href="_view_field_8_h.html" target="_top" xlink:title=" ">
<polygon fill="white" stroke="black" points="892.67,-56.5 892.67,-75.5 1040.67,-75.5 1040.67,-56.5 892.67,-56.5"/>
<text text-anchor="middle" x="966.67" y="-63.5" font-family="Helvetica,sans-Serif" font-size="10.00">amr&#45;wind/core/ViewField.H</text>
</a>
</g>
</g>
<!-- Node10&#45;&gt;Node16 -->
<g id="edge20" class="edge">
<title>Node10&#45;&gt;Node16</title>
<path fill="none" stroke="midnightblue" d="M1412,-117.97C1401.22,-115.83 1389.52,-113.67 1378.67,-112 1347.2,-107.17 1162.34,-87.51 1051.21,-75.83"/>
<polygon fill="midnightblue" stroke="midnightblue" points="1051.34,-72.33 1041.03,-74.77 1050.61,-79.29 1051.34,-72.33"/>
</g>
<!-- Node16&#45;&gt;Node4 -->
<g id="edge21" class="edge">
<title>Node16&#45;&gt;Node4</title>
<path fill="none" stroke="midnightblue" d="M1005.59,-56.44C1042.17,-48.26 1098.67,-35.28 1156.34,-20.25"/>
<polygon fill="midnightblue" stroke="midnightblue" points="1157.57,-23.55 1166.35,-17.63 1155.79,-16.78 1157.57,-23.55"/>
</g>
<!-- Node16&#45;&gt;Node6 -->
<g id="edge22" class="edge">
<title>Node16&#45;&gt;Node6</title>
<path fill="none" stroke="midnightblue" d="M895.68,-56.44C815.07,-46.73 683.82,-30.91 599.38,-20.73"/>
<polygon fill="midnightblue" stroke="midnightblue" points="599.67,-17.24 589.32,-19.52 598.83,-24.19 599.67,-17.24"/>
</g>
<!-- Node16&#45;&gt;Node8 -->
<g id="edge23" class="edge">
<title>Node16&#45;&gt;Node8</title>
<path fill="none" stroke="midnightblue" d="M944.01,-56.44C920.27,-47.48 882.76,-33.31 855.93,-23.18"/>
<polygon fill="midnightblue" stroke="midnightblue" points="856.81,-19.77 846.22,-19.52 854.34,-26.32 856.81,-19.77"/>
</g>
<!-- Node17 -->
<g id="node17" class="node">
<title>Node17</title>
<g id="a_node17"><a xlink:title=" ">
<polygon fill="white" stroke="#bfbfbf" points="1050.67,-0.5 1050.67,-19.5 1148.67,-19.5 1148.67,-0.5 1050.67,-0.5"/>
<text text-anchor="middle" x="1099.67" y="-7.5" font-family="Helvetica,sans-Serif" font-size="10.00">AMReX_Vector.H</text>
</a>
</g>
</g>
<!-- Node16&#45;&gt;Node17 -->
<g id="edge24" class="edge">
<title>Node16&#45;&gt;Node17</title>
<path fill="none" stroke="midnightblue" d="M987.74,-56.44C1009.73,-47.52 1044.4,-33.44 1069.33,-23.32"/>
<polygon fill="midnightblue" stroke="midnightblue" points="1070.74,-26.52 1078.69,-19.52 1068.11,-20.04 1070.74,-26.52"/>
</g>
<!-- Node18&#45;&gt;Node4 -->
<g id="edge26" class="edge">
<title>Node18&#45;&gt;Node4</title>
<path fill="none" stroke="midnightblue" d="M463.29,-117.9C495.98,-102.41 568.6,-70.12 633.67,-56 858.57,-7.2 925.92,-59.26 1156.42,-19.82"/>
<polygon fill="midnightblue" stroke="midnightblue" points="1157.2,-23.24 1166.45,-18.07 1156,-16.34 1157.2,-23.24"/>
</g>
<!-- Node18&#45;&gt;Node6 -->
<g id="edge27" class="edge">
<title>Node18&#45;&gt;Node6</title>
<path fill="none" stroke="midnightblue" d="M450.27,-117.62C457.4,-104.06 471.75,-77.5 485.67,-56 491.85,-46.44 499.31,-36.18 505.57,-27.87"/>
<polygon fill="midnightblue" stroke="midnightblue" points="508.49,-29.82 511.78,-19.75 502.93,-25.57 508.49,-29.82"/>
</g>
<!-- Node18&#45;&gt;Node19 -->
<g id="edge28" class="edge">
<title>Node18&#45;&gt;Node19</title>
<path fill="none" stroke="midnightblue" d="M435.92,-117.98C425.32,-108.7 408.15,-93.67 395.19,-82.33"/>
<polygon fill="midnightblue" stroke="midnightblue" points="397.22,-79.46 387.39,-75.51 392.61,-84.73 397.22,-79.46"/>
</g>
<!-- Node20&#45;&gt;Node4 -->
<g id="edge30" class="edge">
<title>Node20&#45;&gt;Node4</title>
<path fill="none" stroke="midnightblue" d="M797.76,-123.64C871.23,-119.05 982.21,-107.09 1073.67,-76 1109.35,-63.87 1146.62,-40.52 1168.73,-25.36"/>
<polygon fill="midnightblue" stroke="midnightblue" points="1170.76,-28.21 1176.96,-19.61 1166.75,-22.47 1170.76,-28.21"/>
</g>
<!-- Node20&#45;&gt;Node6 -->
<g id="edge32" class="edge">
<title>Node20&#45;&gt;Node6</title>
<path fill="none" stroke="midnightblue" d="M700.86,-117.87C681.92,-108.05 650.3,-91.38 623.67,-76 594.56,-59.19 561.72,-38.59 540.63,-25.14"/>
<polygon fill="midnightblue" stroke="midnightblue" points="542.41,-22.12 532.1,-19.68 538.64,-28.02 542.41,-22.12"/>
</g>
<!-- Node20&#45;&gt;Node8 -->
<g id="edge34" class="edge">
<title>Node20&#45;&gt;Node8</title>
<path fill="none" stroke="midnightblue" d="M692.37,-117.95C660.65,-105.88 612.82,-82.36 633.67,-56 649.18,-36.39 709.89,-24.44 758.57,-17.83"/>
<polygon fill="midnightblue" stroke="midnightblue" points="759.29,-21.27 768.76,-16.5 758.39,-14.32 759.29,-21.27"/>
</g>
<!-- Node20&#45;&gt;Node16 -->
<g id="edge33" class="edge">
<title>Node20&#45;&gt;Node16</title>
<path fill="none" stroke="midnightblue" d="M753.34,-117.98C797.53,-107.42 872.88,-89.41 921.18,-77.87"/>
<polygon fill="midnightblue" stroke="midnightblue" points="922.15,-81.24 931.06,-75.51 920.52,-74.43 922.15,-81.24"/>
</g>
<!-- Node20&#45;&gt;Node17 -->
<g id="edge35" class="edge">
<title>Node20&#45;&gt;Node17</title>
<path fill="none" stroke="midnightblue" d="M797.99,-121.16C882.3,-114.35 1008.24,-100.44 1049.67,-76 1068.38,-64.96 1082.55,-43.99 1090.94,-28.85"/>
<polygon fill="midnightblue" stroke="midnightblue" points="1094.09,-30.39 1095.61,-19.9 1087.88,-27.15 1094.09,-30.39"/>
</g>
<!-- Node21 -->
<g id="node21" class="node">
<title>Node21</title>
<g id="a_node21"><a xlink:title=" ">
<polygon fill="white" stroke="#bfbfbf" points="642.17,-56.5 642.17,-75.5 687.17,-75.5 687.17,-56.5 642.17,-56.5"/>
<text text-anchor="middle" x="664.67" y="-63.5" font-family="Helvetica,sans-Serif" font-size="10.00">utility</text>
</a>
</g>
</g>
<!-- Node20&#45;&gt;Node21 -->
<g id="edge31" class="edge">
<title>Node20&#45;&gt;Node21</title>
<path fill="none" stroke="midnightblue" d="M710.07,-117.98C701.97,-108.87 688.93,-94.24 678.9,-82.98"/>
<polygon fill="midnightblue" stroke="midnightblue" points="681.51,-80.65 672.25,-75.51 676.28,-85.3 681.51,-80.65"/>
</g>
<!-- Node22 -->
<g id="node22" class="node">
<title>Node22</title>
<g id="a_node22"><a xlink:title=" ">
<polygon fill="white" stroke="#bfbfbf" points="705.17,-56.5 705.17,-75.5 836.17,-75.5 836.17,-56.5 705.17,-56.5"/>
<text text-anchor="middle" x="770.67" y="-63.5" font-family="Helvetica,sans-Serif" font-size="10.00">AMReX_PhysBCFunct.H</text>
</a>
</g>
</g>
<!-- Node20&#45;&gt;Node22 -->
<g id="edge36" class="edge">
<title>Node20&#45;&gt;Node22</title>
<path fill="none" stroke="midnightblue" d="M725.26,-117.98C733.37,-108.87 746.4,-94.24 756.43,-82.98"/>
<polygon fill="midnightblue" stroke="midnightblue" points="759.05,-85.3 763.09,-75.51 753.82,-80.65 759.05,-85.3"/>
</g>
<!-- Node24&#45;&gt;Node3 -->
<g id="edge49" class="edge">
<title>Node24&#45;&gt;Node3</title>
<path fill="none" stroke="midnightblue" d="M366.21,-246.48C407.24,-234.62 465.27,-217.86 503.42,-206.84"/>
<polygon fill="midnightblue" stroke="midnightblue" points="504.51,-210.17 513.15,-204.03 502.57,-203.44 504.51,-210.17"/>
</g>
<!-- Node24&#45;&gt;Node6 -->
<g id="edge47" class="edge">
<title>Node24&#45;&gt;Node6</title>
<path fill="none" stroke="midnightblue" d="M259.9,-246.4C151.61,-217.43 -63.86,-146.29 18.67,-56 45.18,-26.99 282.52,-16.52 420.46,-12.87"/>
<polygon fill="midnightblue" stroke="midnightblue" points="420.71,-16.36 430.62,-12.61 420.53,-9.36 420.71,-16.36"/>
</g>
<!-- Node24&#45;&gt;Node7 -->
<g id="edge48" class="edge">
<title>Node24&#45;&gt;Node7</title>
<path fill="none" stroke="midnightblue" d="M294.36,-246.43C278.95,-236.79 258.56,-223.37 241.67,-210 215.17,-189.02 187.08,-161.65 170.21,-144.57"/>
<polygon fill="midnightblue" stroke="midnightblue" points="172.38,-141.79 162.89,-137.09 167.38,-146.69 172.38,-141.79"/>
</g>
<!-- Node24&#45;&gt;Node8 -->
<g id="edge50" class="edge">
<title>Node24&#45;&gt;Node8</title>
<path fill="none" stroke="midnightblue" d="M311.52,-246.32C296.6,-209.49 263.26,-109.95 312.67,-56 327.54,-39.76 624.63,-21.74 758.84,-14.4"/>
<polygon fill="midnightblue" stroke="midnightblue" points="759.2,-17.88 768.99,-13.84 758.82,-10.89 759.2,-17.88"/>
</g>
<!-- Node25 -->
<g id="node25" class="node">
<title>Node25</title>
<g id="a_node25"><a xlink:href="_factory_8_h.html" target="_top" xlink:title=" ">
<polygon fill="white" stroke="black" points="1738.67,-118 1738.67,-137 1872.67,-137 1872.67,-118 1738.67,-118"/>
<text text-anchor="middle" x="1805.67" y="-125" font-family="Helvetica,sans-Serif" font-size="10.00">amr&#45;wind/core/Factory.H</text>
</a>
</g>
</g>
<!-- Node24&#45;&gt;Node25 -->
<g id="edge41" class="edge">
<title>Node24&#45;&gt;Node25</title>
<path fill="none" stroke="midnightblue" d="M395.32,-260.84C671.39,-261.63 1595.5,-260.44 1717.67,-210 1726.41,-206.39 1767.02,-166.9 1789.9,-144.24"/>
<polygon fill="midnightblue" stroke="midnightblue" points="1792.54,-146.55 1797.17,-137.01 1787.61,-141.58 1792.54,-146.55"/>
</g>
<!-- Node25&#45;&gt;Node5 -->
<g id="edge43" class="edge">
<title>Node25&#45;&gt;Node5</title>
<path fill="none" stroke="midnightblue" d="M1781.74,-117.98C1752.97,-107.72 1704.51,-90.46 1672.07,-78.9"/>
<polygon fill="midnightblue" stroke="midnightblue" points="1673.14,-75.57 1662.55,-75.51 1670.8,-82.16 1673.14,-75.57"/>
</g>
<!-- Node25&#45;&gt;Node11 -->
<g id="edge42" class="edge">
<title>Node25&#45;&gt;Node11</title>
<path fill="none" stroke="midnightblue" d="M1806.38,-117.98C1807.09,-109.58 1808.19,-96.48 1809.1,-85.66"/>
<polygon fill="midnightblue" stroke="midnightblue" points="1812.6,-85.77 1809.95,-75.51 1805.63,-85.18 1812.6,-85.77"/>
</g>
<!-- Node26 -->
<g id="node26" class="node">
<title>Node26</title>
<g id="a_node26"><a xlink:title=" ">
<polygon fill="white" stroke="#bfbfbf" points="1703.67,-56.5 1703.67,-75.5 1763.67,-75.5 1763.67,-56.5 1703.67,-56.5"/>
<text text-anchor="middle" x="1733.67" y="-63.5" font-family="Helvetica,sans-Serif" font-size="10.00">iostream</text>
</a>
</g>
</g>
<!-- Node25&#45;&gt;Node26 -->
<g id="edge44" class="edge">
<title>Node25&#45;&gt;Node26</title>
<path fill="none" stroke="midnightblue" d="M1795.35,-117.98C1784.02,-108.61 1765.59,-93.38 1751.83,-82.01"/>
<polygon fill="midnightblue" stroke="midnightblue" points="1753.9,-79.18 1743.96,-75.51 1749.44,-84.58 1753.9,-79.18"/>
</g>
<!-- Node27 -->
<g id="node27" class="node">
<title>Node27</title>
<g id="a_node27"><a xlink:title=" ">
<polygon fill="white" stroke="#bfbfbf" points="1857.67,-56.5 1857.67,-75.5 1947.67,-75.5 1947.67,-56.5 1857.67,-56.5"/>
<text text-anchor="middle" x="1902.67" y="-63.5" font-family="Helvetica,sans-Serif" font-size="10.00">AMReX_Print.H</text>
</a>
</g>
</g>
<!-- Node25&#45;&gt;Node27 -->
<g id="edge45" class="edge">
<title>Node25&#45;&gt;Node27</title>
<path fill="none" stroke="midnightblue" d="M1819.57,-117.98C1835.34,-108.3 1861.3,-92.37 1880.02,-80.89"/>
<polygon fill="midnightblue" stroke="midnightblue" points="1882.1,-83.72 1888.8,-75.51 1878.44,-77.75 1882.1,-83.72"/>
</g>
<!-- Node28 -->
<g id="node28" class="node">
<title>Node28</title>
<g id="a_node28"><a xlink:title=" ">
<polygon fill="white" stroke="#bfbfbf" points="1965.67,-56.5 1965.67,-75.5 2027.67,-75.5 2027.67,-56.5 1965.67,-56.5"/>
<text text-anchor="middle" x="1996.67" y="-63.5" font-family="Helvetica,sans-Serif" font-size="10.00">AMReX.H</text>
</a>
</g>
</g>
<!-- Node25&#45;&gt;Node28 -->
<g id="edge46" class="edge">
<title>Node25&#45;&gt;Node28</title>
<path fill="none" stroke="midnightblue" d="M1833.03,-117.98C1866.22,-107.64 1922.32,-90.16 1959.42,-78.6"/>
<polygon fill="midnightblue" stroke="midnightblue" points="1960.85,-81.82 1969.35,-75.51 1958.76,-75.14 1960.85,-81.82"/>
</g>
<!-- Node29&#45;&gt;Node3 -->
<g id="edge57" class="edge">
<title>Node29&#45;&gt;Node3</title>
<path fill="none" stroke="midnightblue" d="M1576.34,-257.03C1395.01,-246.23 840.54,-213.23 627.38,-200.54"/>
<polygon fill="midnightblue" stroke="midnightblue" points="627.38,-197.04 617.19,-199.94 626.96,-204.02 627.38,-197.04"/>
</g>
<!-- Node29&#45;&gt;Node23 -->
<g id="edge52" class="edge">
<title>Node29&#45;&gt;Node23</title>
<path fill="none" stroke="midnightblue" d="M1613.67,-251.84C1558.5,-229.08 1409.27,-167.53 1344.9,-140.97"/>
<polygon fill="midnightblue" stroke="midnightblue" points="1345.9,-137.6 1335.32,-137.02 1343.23,-144.07 1345.9,-137.6"/>
</g>
<!-- Node30 -->
<g id="node30" class="node">
<title>Node30</title>
<g id="a_node30"><a xlink:href="_sim_time_8_h.html" target="_top" xlink:title=" ">
<polygon fill="white" stroke="black" points="2616.67,-185 2616.67,-204 2760.67,-204 2760.67,-185 2616.67,-185"/>
<text text-anchor="middle" x="2688.67" y="-192" font-family="Helvetica,sans-Serif" font-size="10.00">amr&#45;wind/core/SimTime.H</text>
</a>
</g>
</g>
<!-- Node29&#45;&gt;Node30 -->
<g id="edge53" class="edge">
<title>Node29&#45;&gt;Node30</title>
<path fill="none" stroke="midnightblue" d="M1692.84,-256.91C1869.6,-246.01 2400.84,-213.25 2606.29,-200.58"/>
<polygon fill="midnightblue" stroke="midnightblue" points="2606.65,-204.06 2616.41,-199.96 2606.22,-197.08 2606.65,-204.06"/>
</g>
<!-- Node34 -->
<g id="node34" class="node">
<title>Node34</title>
<g id="a_node34"><a xlink:href="_p_d_e_base_8_h.html" target="_top" xlink:title=" ">
<polygon fill="white" stroke="black" points="2138.17,-179.5 2138.17,-209.5 2293.17,-209.5 2293.17,-179.5 2138.17,-179.5"/>
<text text-anchor="start" x="2146.17" y="-197.5" font-family="Helvetica,sans-Serif" font-size="10.00">amr&#45;wind/equation_systems</text>
<text text-anchor="middle" x="2215.67" y="-186.5" font-family="Helvetica,sans-Serif" font-size="10.00">/PDEBase.H</text>
</a>
</g>
</g>
<!-- Node29&#45;&gt;Node34 -->
<g id="edge58" class="edge">
<title>Node29&#45;&gt;Node34</title>
<path fill="none" stroke="midnightblue" d="M1692.77,-254C1794.98,-242.57 2007.48,-218.79 2127.74,-205.34"/>
<polygon fill="midnightblue" stroke="midnightblue" points="2128.47,-208.78 2138.02,-204.19 2127.69,-201.82 2128.47,-208.78"/>
</g>
<!-- Node38 -->
<g id="node38" class="node">
<title>Node38</title>
<g id="a_node38"><a xlink:href="_physics_8_h.html" target="_top" xlink:title=" ">
<polygon fill="white" stroke="black" points="1765.17,-185 1765.17,-204 1902.17,-204 1902.17,-185 1765.17,-185"/>
<text text-anchor="middle" x="1833.67" y="-192" font-family="Helvetica,sans-Serif" font-size="10.00">amr&#45;wind/core/Physics.H</text>
</a>
</g>
</g>
<!-- Node29&#45;&gt;Node38 -->
<g id="edge70" class="edge">
<title>Node29&#45;&gt;Node38</title>
<path fill="none" stroke="midnightblue" d="M1661.09,-251.87C1696.2,-240.4 1758.37,-220.09 1797.72,-207.24"/>
<polygon fill="midnightblue" stroke="midnightblue" points="1799.03,-210.5 1807.45,-204.06 1796.86,-203.84 1799.03,-210.5"/>
</g>
<!-- Node40 -->
<g id="node40" class="node">
<title>Node40</title>
<g id="a_node40"><a xlink:href="_mesh_map_8_h.html" target="_top" xlink:title=" ">
<polygon fill="white" stroke="black" points="1560.67,-185 1560.67,-204 1708.67,-204 1708.67,-185 1560.67,-185"/>
<text text-anchor="middle" x="1634.67" y="-192" font-family="Helvetica,sans-Serif" font-size="10.00">amr&#45;wind/core/MeshMap.H</text>
</a>
</g>
</g>
<!-- Node29&#45;&gt;Node40 -->
<g id="edge75" class="edge">
<title>Node29&#45;&gt;Node40</title>
<path fill="none" stroke="midnightblue" d="M1634.67,-251.73C1634.67,-242.18 1634.67,-226.62 1634.67,-214.28"/>
<polygon fill="midnightblue" stroke="midnightblue" points="1638.17,-214.13 1634.67,-204.13 1631.17,-214.13 1638.17,-214.13"/>
</g>
<!-- Node31 -->
<g id="node31" class="node">
<title>Node31</title>
<g id="a_node31"><a xlink:title=" ">
<polygon fill="white" stroke="#bfbfbf" points="2703.67,-118 2703.67,-137 2795.67,-137 2795.67,-118 2703.67,-118"/>
<text text-anchor="middle" x="2749.67" y="-125" font-family="Helvetica,sans-Serif" font-size="10.00">AMReX_REAL.H</text>
</a>
</g>
</g>
<!-- Node30&#45;&gt;Node31 -->
<g id="edge54" class="edge">
<title>Node30&#45;&gt;Node31</title>
<path fill="none" stroke="midnightblue" d="M2696.89,-184.73C2706.5,-174.5 2722.58,-157.36 2734.47,-144.69"/>
<polygon fill="midnightblue" stroke="midnightblue" points="2737.28,-146.81 2741.57,-137.13 2732.18,-142.02 2737.28,-146.81"/>
</g>
<!-- Node32 -->
<g id="node32" class="node">
<title>Node32</title>
<g id="a_node32"><a xlink:title=" ">
<polygon fill="white" stroke="#bfbfbf" points="2813.67,-118 2813.67,-137 2947.67,-137 2947.67,-118 2813.67,-118"/>
<text text-anchor="middle" x="2880.67" y="-125" font-family="Helvetica,sans-Serif" font-size="10.00">AMReX_GpuQualifiers.H</text>
</a>
</g>
</g>
<!-- Node30&#45;&gt;Node32 -->
<g id="edge55" class="edge">
<title>Node30&#45;&gt;Node32</title>
<path fill="none" stroke="midnightblue" d="M2714.16,-184.87C2747.97,-173.42 2807.76,-153.18 2845.75,-140.32"/>
<polygon fill="midnightblue" stroke="midnightblue" points="2847.02,-143.59 2855.37,-137.06 2844.78,-136.96 2847.02,-143.59"/>
</g>
<!-- Node33 -->
<g id="node33" class="node">
<title>Node33</title>
<g id="a_node33"><a xlink:title=" ">
<polygon fill="white" stroke="#bfbfbf" points="2569.67,-118 2569.67,-137 2685.67,-137 2685.67,-118 2569.67,-118"/>
<text text-anchor="middle" x="2627.67" y="-125" font-family="Helvetica,sans-Serif" font-size="10.00">AMReX_Extension.H</text>
</a>
</g>
</g>
<!-- Node30&#45;&gt;Node33 -->
<g id="edge56" class="edge">
<title>Node30&#45;&gt;Node33</title>
<path fill="none" stroke="midnightblue" d="M2680.44,-184.73C2670.84,-174.5 2654.76,-157.36 2642.86,-144.69"/>
<polygon fill="midnightblue" stroke="midnightblue" points="2645.16,-142.02 2635.76,-137.13 2640.05,-146.81 2645.16,-142.02"/>
</g>
<!-- Node34&#45;&gt;Node4 -->
<g id="edge59" class="edge">
<title>Node34&#45;&gt;Node4</title>
<path fill="none" stroke="midnightblue" d="M2236.96,-179.38C2248.39,-170.46 2261.39,-157.84 2267.67,-143 2282.89,-106.99 2284.76,-80.96 2254.67,-56 2213.91,-22.19 1395.13,-12.87 1221.03,-11.27"/>
<polygon fill="midnightblue" stroke="midnightblue" points="1220.99,-7.77 1210.96,-11.18 1220.93,-14.77 1220.99,-7.77"/>
</g>
<!-- Node34&#45;&gt;Node6 -->
<g id="edge68" class="edge">
<title>Node34&#45;&gt;Node6</title>
<path fill="none" stroke="midnightblue" d="M2224.22,-179.1C2239.57,-151.17 2267.32,-89.46 2234.67,-56 2206.06,-26.69 801.6,-21.26 760.67,-20 713.4,-18.54 660.94,-16.63 616.99,-14.94"/>
<polygon fill="midnightblue" stroke="midnightblue" points="617.01,-11.44 606.88,-14.55 616.74,-18.43 617.01,-11.44"/>
</g>
<!-- Node34&#45;&gt;Node15 -->
<g id="edge69" class="edge">
<title>Node34&#45;&gt;Node15</title>
<path fill="none" stroke="midnightblue" d="M2208.91,-179.48C2197.78,-156.41 2175.63,-110.48 2163.36,-85.03"/>
<polygon fill="midnightblue" stroke="midnightblue" points="2166.4,-83.28 2158.91,-75.79 2160.1,-86.32 2166.4,-83.28"/>
</g>
<!-- Node34&#45;&gt;Node25 -->
<g id="edge60" class="edge">
<title>Node34&#45;&gt;Node25</title>
<path fill="none" stroke="midnightblue" d="M2138.16,-182.54C2070.59,-172.8 1970,-157.84 1882.67,-143 1875.21,-141.73 1867.35,-140.33 1859.63,-138.91"/>
<polygon fill="midnightblue" stroke="midnightblue" points="1860.07,-135.44 1849.6,-137.05 1858.79,-142.32 1860.07,-135.44"/>
</g>
<!-- Node35 -->
<g id="node35" class="node">
<title>Node35</title>
<g id="a_node35"><a xlink:href="_coll_mgr_8_h.html" target="_top" xlink:title=" ">
<polygon fill="white" stroke="black" points="1891.17,-118 1891.17,-137 2028.17,-137 2028.17,-118 1891.17,-118"/>
<text text-anchor="middle" x="1959.67" y="-125" font-family="Helvetica,sans-Serif" font-size="10.00">amr&#45;wind/core/CollMgr.H</text>
</a>
</g>
</g>
<!-- Node34&#45;&gt;Node35 -->
<g id="edge61" class="edge">
<title>Node34&#45;&gt;Node35</title>
<path fill="none" stroke="midnightblue" d="M2160.43,-179.48C2113.35,-167.52 2046.6,-150.57 2003.22,-139.56"/>
<polygon fill="midnightblue" stroke="midnightblue" points="2003.81,-136.1 1993.26,-137.03 2002.09,-142.88 2003.81,-136.1"/>
</g>
<!-- Node36 -->
<g id="node36" class="node">
<title>Node36</title>
<g id="a_node36"><a xlink:href="_p_d_e_fields_8_h.html" target="_top" xlink:title=" ">
<polygon fill="white" stroke="black" points="2396.17,-112.5 2396.17,-142.5 2551.17,-142.5 2551.17,-112.5 2396.17,-112.5"/>
<text text-anchor="start" x="2404.17" y="-130.5" font-family="Helvetica,sans-Serif" font-size="10.00">amr&#45;wind/equation_systems</text>
<text text-anchor="middle" x="2473.67" y="-119.5" font-family="Helvetica,sans-Serif" font-size="10.00">/PDEFields.H</text>
</a>
</g>
</g>
<!-- Node34&#45;&gt;Node36 -->
<g id="edge66" class="edge">
<title>Node34&#45;&gt;Node36</title>
<path fill="none" stroke="midnightblue" d="M2271.33,-179.48C2311.38,-169.39 2365.54,-155.74 2407.75,-145.11"/>
<polygon fill="midnightblue" stroke="midnightblue" points="2408.82,-148.45 2417.66,-142.61 2407.11,-141.66 2408.82,-148.45"/>
</g>
<!-- Node35&#45;&gt;Node4 -->
<g id="edge62" class="edge">
<title>Node35&#45;&gt;Node4</title>
<path fill="none" stroke="midnightblue" d="M2028.17,-123.64C2100.91,-119 2208.88,-106.95 2234.67,-76 2240.36,-69.17 2240.82,-62.42 2234.67,-56 2198.76,-18.51 1393.84,-12.1 1221.12,-11.15"/>
<polygon fill="midnightblue" stroke="midnightblue" points="1221.13,-7.65 1211.11,-11.1 1221.09,-14.65 1221.13,-7.65"/>
</g>
<!-- Node35&#45;&gt;Node5 -->
<g id="edge64" class="edge">
<title>Node35&#45;&gt;Node5</title>
<path fill="none" stroke="midnightblue" d="M1913.89,-117.98C1903.31,-116.02 1892.1,-113.93 1881.67,-112 1817.67,-100.13 1744.18,-86.52 1694.93,-77.41"/>
<polygon fill="midnightblue" stroke="midnightblue" points="1695.27,-73.91 1684.8,-75.53 1694,-80.79 1695.27,-73.91"/>
</g>
<!-- Node35&#45;&gt;Node11 -->
<g id="edge63" class="edge">
<title>Node35&#45;&gt;Node11</title>
<path fill="none" stroke="midnightblue" d="M1938.32,-117.98C1912.98,-107.86 1870.53,-90.9 1841.6,-79.35"/>
<polygon fill="midnightblue" stroke="midnightblue" points="1842.56,-75.97 1831.98,-75.51 1839.96,-82.47 1842.56,-75.97"/>
</g>
<!-- Node35&#45;&gt;Node17 -->
<g id="edge65" class="edge">
<title>Node35&#45;&gt;Node17</title>
<path fill="none" stroke="midnightblue" d="M1981.47,-117.99C2011.49,-105.11 2059.39,-79.67 2036.67,-56 2004.14,-22.12 1267.37,-24.5 1158.99,-19.67"/>
<polygon fill="midnightblue" stroke="midnightblue" points="1159.18,-16.17 1148.98,-19.04 1158.74,-23.16 1159.18,-16.17"/>
</g>
<!-- Node37 -->
<g id="node37" class="node">
<title>Node37</title>
<g id="a_node37"><a xlink:title=" ">
<polygon fill="white" stroke="#bfbfbf" points="2449.67,-56.5 2449.67,-75.5 2497.67,-75.5 2497.67,-56.5 2449.67,-56.5"/>
<text text-anchor="middle" x="2473.67" y="-63.5" font-family="Helvetica,sans-Serif" font-size="10.00">iosfwd</text>
</a>
</g>
</g>
<!-- Node36&#45;&gt;Node37 -->
<g id="edge67" class="edge">
<title>Node36&#45;&gt;Node37</title>
<path fill="none" stroke="midnightblue" d="M2473.67,-112.4C2473.67,-104.47 2473.67,-94.46 2473.67,-85.86"/>
<polygon fill="midnightblue" stroke="midnightblue" points="2477.17,-85.66 2473.67,-75.66 2470.17,-85.66 2477.17,-85.66"/>
</g>
<!-- Node38&#45;&gt;Node8 -->
<g id="edge73" class="edge">
<title>Node38&#45;&gt;Node8</title>
<path fill="none" stroke="midnightblue" d="M1902.24,-191.61C2041.51,-185.58 2336.01,-160.45 2234.67,-56 2211.58,-32.21 1074.8,-21.18 1041.67,-20 990.15,-18.16 931.8,-15.73 888.44,-13.86"/>
<polygon fill="midnightblue" stroke="midnightblue" points="888.45,-10.36 878.31,-13.42 888.15,-17.35 888.45,-10.36"/>
</g>
<!-- Node38&#45;&gt;Node25 -->
<g id="edge71" class="edge">
<title>Node38&#45;&gt;Node25</title>
<path fill="none" stroke="midnightblue" d="M1829.89,-184.73C1825.69,-174.99 1818.8,-158.98 1813.43,-146.53"/>
<polygon fill="midnightblue" stroke="midnightblue" points="1816.55,-144.93 1809.38,-137.13 1810.13,-147.7 1816.55,-144.93"/>
</g>
<!-- Node38&#45;&gt;Node35 -->
<g id="edge72" class="edge">
<title>Node38&#45;&gt;Node35</title>
<path fill="none" stroke="midnightblue" d="M1850.4,-184.87C1871.77,-173.84 1908.97,-154.66 1933.95,-141.77"/>
<polygon fill="midnightblue" stroke="midnightblue" points="1935.58,-144.86 1942.87,-137.17 1932.37,-138.64 1935.58,-144.86"/>
</g>
<!-- Node39 -->
<g id="node39" class="node">
<title>Node39</title>
<g id="a_node39"><a xlink:title=" ">
<polygon fill="white" stroke="#bfbfbf" points="1601.17,-118 1601.17,-137 1716.17,-137 1716.17,-118 1601.17,-118"/>
<text text-anchor="middle" x="1658.67" y="-125" font-family="Helvetica,sans-Serif" font-size="10.00">AMReX_Geometry.H</text>
</a>
</g>
</g>
<!-- Node38&#45;&gt;Node39 -->
<g id="edge74" class="edge">
<title>Node38&#45;&gt;Node39</title>
<path fill="none" stroke="midnightblue" d="M1810.43,-184.87C1779.88,-173.52 1726.04,-153.52 1691.38,-140.65"/>
<polygon fill="midnightblue" stroke="midnightblue" points="1692.32,-137.26 1681.72,-137.06 1689.88,-143.83 1692.32,-137.26"/>
</g>
<!-- Node40&#45;&gt;Node8 -->
<g id="edge79" class="edge">
<title>Node40&#45;&gt;Node8</title>
<path fill="none" stroke="midnightblue" d="M1627.09,-184.63C1602.02,-155.39 1522.5,-63.52 1506.67,-56 1479.02,-42.87 1053.36,-21.72 888.34,-13.97"/>
<polygon fill="midnightblue" stroke="midnightblue" points="888.48,-10.47 878.33,-13.5 888.15,-17.46 888.48,-10.47"/>
</g>
<!-- Node40&#45;&gt;Node10 -->
<g id="edge78" class="edge">
<title>Node40&#45;&gt;Node10</title>
<path fill="none" stroke="midnightblue" d="M1610.37,-184.87C1578.28,-173.47 1521.64,-153.35 1485.42,-140.49"/>
<polygon fill="midnightblue" stroke="midnightblue" points="1486.37,-137.11 1475.78,-137.06 1484.03,-143.71 1486.37,-137.11"/>
</g>
<!-- Node40&#45;&gt;Node25 -->
<g id="edge77" class="edge">
<title>Node40&#45;&gt;Node25</title>
<path fill="none" stroke="midnightblue" d="M1657.37,-184.87C1687.23,-173.52 1739.83,-153.52 1773.7,-140.65"/>
<polygon fill="midnightblue" stroke="midnightblue" points="1775.03,-143.89 1783.14,-137.06 1772.55,-137.35 1775.03,-143.89"/>
</g>
<!-- Node40&#45;&gt;Node35 -->
<g id="edge76" class="edge">
<title>Node40&#45;&gt;Node35</title>
<path fill="none" stroke="midnightblue" d="M1677.49,-184.94C1736.64,-173.11 1843.25,-151.78 1907.14,-139.01"/>
<polygon fill="midnightblue" stroke="midnightblue" points="1907.89,-142.43 1917.01,-137.03 1906.52,-135.56 1907.89,-142.43"/>
</g>
<!-- Node40&#45;&gt;Node39 -->
<g id="edge80" class="edge">
<title>Node40&#45;&gt;Node39</title>
<path fill="none" stroke="midnightblue" d="M1637.9,-184.73C1641.5,-174.99 1647.41,-158.98 1652.01,-146.53"/>
<polygon fill="midnightblue" stroke="midnightblue" points="1655.3,-147.72 1655.48,-137.13 1648.73,-145.3 1655.3,-147.72"/>
</g>
</g>
</svg>
