<?xml version="1.0" encoding="UTF-8" standalone="no"?>
<!DOCTYPE svg PUBLIC "-//W3C//DTD SVG 1.1//EN"
 "http://www.w3.org/Graphics/SVG/1.1/DTD/svg11.dtd">
<!-- Generated by graphviz version 2.43.0 (0)
 -->
<!-- Title: IB.H Pages: 1 -->
<svg width="2168pt" height="252pt"
 viewBox="0.00 0.00 2167.97 252.00" xmlns="http://www.w3.org/2000/svg" xmlns:xlink="http://www.w3.org/1999/xlink">
<g id="graph0" class="graph" transform="scale(1 1) rotate(0) translate(4 248)">
<title>IB.H</title>
<polygon fill="white" stroke="transparent" points="-4,4 -4,-248 2163.97,-248 2163.97,4 -4,4"/>
<!-- Node1 -->
<g id="node1" class="node">
<title>Node1</title>
<g id="a_node1"><a xlink:title=" ">
<polygon fill="#bfbfbf" stroke="black" points="932.5,-224.5 932.5,-243.5 969.5,-243.5 969.5,-224.5 932.5,-224.5"/>
<text text-anchor="middle" x="951" y="-231.5" font-family="Helvetica,sans-Serif" font-size="10.00">IB.H</text>
</a>
</g>
</g>
<!-- Node2 -->
<g id="node2" class="node">
<title>Node2</title>
<g id="a_node2"><a xlink:href="_physics_8_h.html" target="_top" xlink:title=" ">
<polygon fill="white" stroke="black" points="270.5,-168.5 270.5,-187.5 407.5,-187.5 407.5,-168.5 270.5,-168.5"/>
<text text-anchor="middle" x="339" y="-175.5" font-family="Helvetica,sans-Serif" font-size="10.00">amr&#45;wind/core/Physics.H</text>
</a>
</g>
</g>
<!-- Node1&#45;&gt;Node2 -->
<g id="edge1" class="edge">
<title>Node1&#45;&gt;Node2</title>
<path fill="none" stroke="midnightblue" d="M932.35,-231.35C855.47,-224.57 560.45,-198.54 417.52,-185.93"/>
<polygon fill="midnightblue" stroke="midnightblue" points="417.77,-182.44 407.5,-185.04 417.15,-189.41 417.77,-182.44"/>
</g>
<!-- Node14 -->
<g id="node14" class="node">
<title>Node14</title>
<g id="a_node14"><a xlink:href="_field_repo_8_h.html" target="_top" xlink:title=" ">
<polygon fill="white" stroke="black" points="1538.5,-168.5 1538.5,-187.5 1687.5,-187.5 1687.5,-168.5 1538.5,-168.5"/>
<text text-anchor="middle" x="1613" y="-175.5" font-family="Helvetica,sans-Serif" font-size="10.00">amr&#45;wind/core/FieldRepo.H</text>
</a>
</g>
</g>
<!-- Node1&#45;&gt;Node14 -->
<g id="edge15" class="edge">
<title>Node1&#45;&gt;Node14</title>
<path fill="none" stroke="midnightblue" d="M969.75,-231.47C1050.66,-224.87 1372.91,-198.58 1528.32,-185.91"/>
<polygon fill="midnightblue" stroke="midnightblue" points="1528.63,-189.39 1538.31,-185.09 1528.06,-182.42 1528.63,-189.39"/>
</g>
<!-- Node3 -->
<g id="node3" class="node">
<title>Node3</title>
<g id="a_node3"><a xlink:href="_factory_8_h.html" target="_top" xlink:title=" ">
<polygon fill="white" stroke="black" points="43,-112.5 43,-131.5 177,-131.5 177,-112.5 43,-112.5"/>
<text text-anchor="middle" x="110" y="-119.5" font-family="Helvetica,sans-Serif" font-size="10.00">amr&#45;wind/core/Factory.H</text>
</a>
</g>
</g>
<!-- Node2&#45;&gt;Node3 -->
<g id="edge2" class="edge">
<title>Node2&#45;&gt;Node3</title>
<path fill="none" stroke="midnightblue" d="M302.71,-168.44C263.02,-159.08 199.29,-144.06 156.09,-133.87"/>
<polygon fill="midnightblue" stroke="midnightblue" points="156.65,-130.41 146.12,-131.52 155.05,-137.22 156.65,-130.41"/>
</g>
<!-- Node9 -->
<g id="node9" class="node">
<title>Node9</title>
<g id="a_node9"><a xlink:href="_coll_mgr_8_h.html" target="_top" xlink:title=" ">
<polygon fill="white" stroke="black" points="551.5,-112.5 551.5,-131.5 688.5,-131.5 688.5,-112.5 551.5,-112.5"/>
<text text-anchor="middle" x="620" y="-119.5" font-family="Helvetica,sans-Serif" font-size="10.00">amr&#45;wind/core/CollMgr.H</text>
</a>
</g>
</g>
<!-- Node2&#45;&gt;Node9 -->
<g id="edge8" class="edge">
<title>Node2&#45;&gt;Node9</title>
<path fill="none" stroke="midnightblue" d="M383.53,-168.44C432.96,-158.94 512.75,-143.61 565.78,-133.42"/>
<polygon fill="midnightblue" stroke="midnightblue" points="566.52,-136.84 575.68,-131.52 565.2,-129.97 566.52,-136.84"/>
</g>
<!-- Node12 -->
<g id="node12" class="node">
<title>Node12</title>
<g id="a_node12"><a xlink:title=" ">
<polygon fill="white" stroke="#bfbfbf" points="680.5,-0.5 680.5,-19.5 789.5,-19.5 789.5,-0.5 680.5,-0.5"/>
<text text-anchor="middle" x="735" y="-7.5" font-family="Helvetica,sans-Serif" font-size="10.00">AMReX_MultiFab.H</text>
</a>
</g>
</g>
<!-- Node2&#45;&gt;Node12 -->
<g id="edge13" class="edge">
<title>Node2&#45;&gt;Node12</title>
<path fill="none" stroke="midnightblue" d="M336.46,-168.28C329.43,-143.36 311.2,-72.52 326,-56 348.51,-30.87 560.51,-18.33 670.08,-13.48"/>
<polygon fill="midnightblue" stroke="midnightblue" points="670.52,-16.96 680.36,-13.03 670.22,-9.97 670.52,-16.96"/>
</g>
<!-- Node13 -->
<g id="node13" class="node">
<title>Node13</title>
<g id="a_node13"><a xlink:title=" ">
<polygon fill="white" stroke="#bfbfbf" points="195.5,-112.5 195.5,-131.5 310.5,-131.5 310.5,-112.5 195.5,-112.5"/>
<text text-anchor="middle" x="253" y="-119.5" font-family="Helvetica,sans-Serif" font-size="10.00">AMReX_Geometry.H</text>
</a>
</g>
</g>
<!-- Node2&#45;&gt;Node13 -->
<g id="edge14" class="edge">
<title>Node2&#45;&gt;Node13</title>
<path fill="none" stroke="midnightblue" d="M325.18,-168.32C311.77,-159.9 291.18,-146.97 275.41,-137.07"/>
<polygon fill="midnightblue" stroke="midnightblue" points="277.11,-134.01 266.78,-131.65 273.39,-139.94 277.11,-134.01"/>
</g>
<!-- Node4 -->
<g id="node4" class="node">
<title>Node4</title>
<g id="a_node4"><a xlink:title=" ">
<polygon fill="white" stroke="#bfbfbf" points="611,-56.5 611,-75.5 669,-75.5 669,-56.5 611,-56.5"/>
<text text-anchor="middle" x="640" y="-63.5" font-family="Helvetica,sans-Serif" font-size="10.00">memory</text>
</a>
</g>
</g>
<!-- Node3&#45;&gt;Node4 -->
<g id="edge3" class="edge">
<title>Node3&#45;&gt;Node4</title>
<path fill="none" stroke="midnightblue" d="M177.12,-112.94C180.12,-112.61 183.09,-112.3 186,-112 366.93,-93.44 416.4,-104.48 600.68,-75.8"/>
<polygon fill="midnightblue" stroke="midnightblue" points="601.36,-79.24 610.7,-74.23 600.28,-72.32 601.36,-79.24"/>
</g>
<!-- Node5 -->
<g id="node5" class="node">
<title>Node5</title>
<g id="a_node5"><a xlink:title=" ">
<polygon fill="white" stroke="#bfbfbf" points="499.5,-56.5 499.5,-75.5 592.5,-75.5 592.5,-56.5 499.5,-56.5"/>
<text text-anchor="middle" x="546" y="-63.5" font-family="Helvetica,sans-Serif" font-size="10.00">unordered_map</text>
</a>
</g>
</g>
<!-- Node3&#45;&gt;Node5 -->
<g id="edge4" class="edge">
<title>Node3&#45;&gt;Node5</title>
<path fill="none" stroke="midnightblue" d="M177.39,-113.02C274.3,-101.55 445.47,-81.28 489.22,-75.92"/>
<polygon fill="midnightblue" stroke="midnightblue" points="489.79,-79.38 499.27,-74.66 488.91,-72.44 489.79,-79.38"/>
</g>
<!-- Node6 -->
<g id="node6" class="node">
<title>Node6</title>
<g id="a_node6"><a xlink:title=" ">
<polygon fill="white" stroke="#bfbfbf" points="80,-56.5 80,-75.5 140,-75.5 140,-56.5 80,-56.5"/>
<text text-anchor="middle" x="110" y="-63.5" font-family="Helvetica,sans-Serif" font-size="10.00">iostream</text>
</a>
</g>
</g>
<!-- Node3&#45;&gt;Node6 -->
<g id="edge5" class="edge">
<title>Node3&#45;&gt;Node6</title>
<path fill="none" stroke="midnightblue" d="M110,-112.08C110,-105.01 110,-94.86 110,-85.99"/>
<polygon fill="midnightblue" stroke="midnightblue" points="113.5,-85.75 110,-75.75 106.5,-85.75 113.5,-85.75"/>
</g>
<!-- Node7 -->
<g id="node7" class="node">
<title>Node7</title>
<g id="a_node7"><a xlink:title=" ">
<polygon fill="white" stroke="#bfbfbf" points="158,-56.5 158,-75.5 248,-75.5 248,-56.5 158,-56.5"/>
<text text-anchor="middle" x="203" y="-63.5" font-family="Helvetica,sans-Serif" font-size="10.00">AMReX_Print.H</text>
</a>
</g>
</g>
<!-- Node3&#45;&gt;Node7 -->
<g id="edge6" class="edge">
<title>Node3&#45;&gt;Node7</title>
<path fill="none" stroke="midnightblue" d="M124.94,-112.32C139.59,-103.82 162.13,-90.73 179.24,-80.8"/>
<polygon fill="midnightblue" stroke="midnightblue" points="181.2,-83.7 188.1,-75.65 177.69,-77.65 181.2,-83.7"/>
</g>
<!-- Node8 -->
<g id="node8" class="node">
<title>Node8</title>
<g id="a_node8"><a xlink:title=" ">
<polygon fill="white" stroke="#bfbfbf" points="0,-56.5 0,-75.5 62,-75.5 62,-56.5 0,-56.5"/>
<text text-anchor="middle" x="31" y="-63.5" font-family="Helvetica,sans-Serif" font-size="10.00">AMReX.H</text>
</a>
</g>
</g>
<!-- Node3&#45;&gt;Node8 -->
<g id="edge7" class="edge">
<title>Node3&#45;&gt;Node8</title>
<path fill="none" stroke="midnightblue" d="M97.31,-112.32C85.1,-103.98 66.42,-91.21 52,-81.35"/>
<polygon fill="midnightblue" stroke="midnightblue" points="53.89,-78.41 43.66,-75.65 49.94,-84.19 53.89,-78.41"/>
</g>
<!-- Node9&#45;&gt;Node4 -->
<g id="edge10" class="edge">
<title>Node9&#45;&gt;Node4</title>
<path fill="none" stroke="midnightblue" d="M623.3,-112.08C625.98,-104.85 629.85,-94.41 633.19,-85.4"/>
<polygon fill="midnightblue" stroke="midnightblue" points="636.57,-86.34 636.76,-75.75 630,-83.91 636.57,-86.34"/>
</g>
<!-- Node9&#45;&gt;Node5 -->
<g id="edge11" class="edge">
<title>Node9&#45;&gt;Node5</title>
<path fill="none" stroke="midnightblue" d="M608.11,-112.32C596.85,-104.11 579.71,-91.6 566.29,-81.81"/>
<polygon fill="midnightblue" stroke="midnightblue" points="568.25,-78.9 558.11,-75.83 564.12,-84.56 568.25,-78.9"/>
</g>
<!-- Node10 -->
<g id="node10" class="node">
<title>Node10</title>
<g id="a_node10"><a xlink:title=" ">
<polygon fill="white" stroke="#bfbfbf" points="1784,-0.5 1784,-19.5 1828,-19.5 1828,-0.5 1784,-0.5"/>
<text text-anchor="middle" x="1806" y="-7.5" font-family="Helvetica,sans-Serif" font-size="10.00">string</text>
</a>
</g>
</g>
<!-- Node9&#45;&gt;Node10 -->
<g id="edge9" class="edge">
<title>Node9&#45;&gt;Node10</title>
<path fill="none" stroke="midnightblue" d="M688.55,-119.42C881.89,-114.69 1422.45,-99.51 1499,-76 1515.39,-70.96 1515.91,-61.94 1532,-56 1575.92,-39.78 1710.96,-22.26 1773.54,-14.76"/>
<polygon fill="midnightblue" stroke="midnightblue" points="1774.13,-18.21 1783.64,-13.56 1773.3,-11.26 1774.13,-18.21"/>
</g>
<!-- Node11 -->
<g id="node11" class="node">
<title>Node11</title>
<g id="a_node11"><a xlink:title=" ">
<polygon fill="white" stroke="#bfbfbf" points="1367,-0.5 1367,-19.5 1465,-19.5 1465,-0.5 1367,-0.5"/>
<text text-anchor="middle" x="1416" y="-7.5" font-family="Helvetica,sans-Serif" font-size="10.00">AMReX_Vector.H</text>
</a>
</g>
</g>
<!-- Node9&#45;&gt;Node11 -->
<g id="edge12" class="edge">
<title>Node9&#45;&gt;Node11</title>
<path fill="none" stroke="midnightblue" d="M637.55,-112.41C668.1,-97.91 733.39,-68.9 792,-56 898.61,-32.53 1222.53,-18.17 1356.76,-13.09"/>
<polygon fill="midnightblue" stroke="midnightblue" points="1356.99,-16.58 1366.85,-12.71 1356.73,-9.59 1356.99,-16.58"/>
</g>
<!-- Node14&#45;&gt;Node5 -->
<g id="edge17" class="edge">
<title>Node14&#45;&gt;Node5</title>
<path fill="none" stroke="midnightblue" d="M1538.34,-176.66C1300.86,-175.23 576.43,-167.91 542,-132 530.29,-119.79 533.64,-99.64 538.44,-85"/>
<polygon fill="midnightblue" stroke="midnightblue" points="541.77,-86.11 542,-75.52 535.21,-83.65 541.77,-86.11"/>
</g>
<!-- Node14&#45;&gt;Node10 -->
<g id="edge16" class="edge">
<title>Node14&#45;&gt;Node10</title>
<path fill="none" stroke="midnightblue" d="M1687.75,-176.13C1826.55,-173.74 2112.84,-164.83 2143,-132 2232.78,-34.28 1938.5,-15.39 1838.24,-11.82"/>
<polygon fill="midnightblue" stroke="midnightblue" points="1838.2,-8.31 1828.09,-11.48 1837.97,-15.31 1838.2,-8.31"/>
</g>
<!-- Node14&#45;&gt;Node12 -->
<g id="edge51" class="edge">
<title>Node14&#45;&gt;Node12</title>
<path fill="none" stroke="midnightblue" d="M1538.18,-174.46C1426.44,-169.95 1209.53,-158.39 1027,-132 909.15,-114.96 858,-150.36 765,-76 750.61,-64.5 742.83,-44.52 738.82,-29.75"/>
<polygon fill="midnightblue" stroke="midnightblue" points="742.15,-28.61 736.45,-19.68 735.34,-30.22 742.15,-28.61"/>
</g>
<!-- Node15 -->
<g id="node15" class="node">
<title>Node15</title>
<g id="a_node15"><a xlink:href="_field_desc_types_8_h.html" target="_top" xlink:title=" ">
<polygon fill="white" stroke="black" points="1513,-0.5 1513,-19.5 1689,-19.5 1689,-0.5 1513,-0.5"/>
<text text-anchor="middle" x="1601" y="-7.5" font-family="Helvetica,sans-Serif" font-size="10.00">amr&#45;wind/core/FieldDescTypes.H</text>
</a>
</g>
</g>
<!-- Node14&#45;&gt;Node15 -->
<g id="edge18" class="edge">
<title>Node14&#45;&gt;Node15</title>
<path fill="none" stroke="midnightblue" d="M1683.86,-168.5C1737.85,-160.9 1806.74,-148.42 1830,-132 1860.23,-110.66 1887.86,-84.29 1864,-56 1842.87,-30.95 1764.76,-19.84 1699.11,-14.92"/>
<polygon fill="midnightblue" stroke="midnightblue" points="1699.33,-11.43 1689.11,-14.21 1698.83,-18.41 1699.33,-11.43"/>
</g>
<!-- Node16 -->
<g id="node16" class="node">
<title>Node16</title>
<g id="a_node16"><a xlink:href="_field_utils_8_h.html" target="_top" xlink:title=" ">
<polygon fill="white" stroke="black" points="335,-56.5 335,-75.5 481,-75.5 481,-56.5 335,-56.5"/>
<text text-anchor="middle" x="408" y="-63.5" font-family="Helvetica,sans-Serif" font-size="10.00">amr&#45;wind/core/FieldUtils.H</text>
</a>
</g>
</g>
<!-- Node14&#45;&gt;Node16 -->
<g id="edge19" class="edge">
<title>Node14&#45;&gt;Node16</title>
<path fill="none" stroke="midnightblue" d="M1538.25,-175.8C1309.3,-171.86 627.42,-158.05 531,-132 492.1,-121.49 451.65,-97.07 428.21,-81.33"/>
<polygon fill="midnightblue" stroke="midnightblue" points="430.04,-78.35 419.81,-75.58 426.08,-84.12 430.04,-78.35"/>
</g>
<!-- Node18 -->
<g id="node18" class="node">
<title>Node18</title>
<g id="a_node18"><a xlink:href="_field_8_h.html" target="_top" xlink:title=" ">
<polygon fill="white" stroke="black" points="1036,-112.5 1036,-131.5 1160,-131.5 1160,-112.5 1036,-112.5"/>
<text text-anchor="middle" x="1098" y="-119.5" font-family="Helvetica,sans-Serif" font-size="10.00">amr&#45;wind/core/Field.H</text>
</a>
</g>
</g>
<!-- Node14&#45;&gt;Node18 -->
<g id="edge23" class="edge">
<title>Node14&#45;&gt;Node18</title>
<path fill="none" stroke="midnightblue" d="M1538.39,-169.18C1439.85,-158.84 1267.46,-140.77 1170.16,-130.57"/>
<polygon fill="midnightblue" stroke="midnightblue" points="1170.43,-127.08 1160.12,-129.51 1169.7,-134.04 1170.43,-127.08"/>
</g>
<!-- Node24 -->
<g id="node24" class="node">
<title>Node24</title>
<g id="a_node24"><a xlink:href="_int_field_8_h.html" target="_top" xlink:title=" ">
<polygon fill="white" stroke="black" points="1996.5,-112.5 1996.5,-131.5 2133.5,-131.5 2133.5,-112.5 1996.5,-112.5"/>
<text text-anchor="middle" x="2065" y="-119.5" font-family="Helvetica,sans-Serif" font-size="10.00">amr&#45;wind/core/IntField.H</text>
</a>
</g>
</g>
<!-- Node14&#45;&gt;Node24 -->
<g id="edge38" class="edge">
<title>Node14&#45;&gt;Node24</title>
<path fill="none" stroke="midnightblue" d="M1684.62,-168.44C1766.79,-158.63 1901.11,-142.58 1986.18,-132.42"/>
<polygon fill="midnightblue" stroke="midnightblue" points="1986.79,-135.87 1996.31,-131.21 1985.96,-128.92 1986.79,-135.87"/>
</g>
<!-- Node25 -->
<g id="node25" class="node">
<title>Node25</title>
<g id="a_node25"><a xlink:title=" ">
<polygon fill="white" stroke="#bfbfbf" points="1949,-56.5 1949,-75.5 2061,-75.5 2061,-56.5 1949,-56.5"/>
<text text-anchor="middle" x="2005" y="-63.5" font-family="Helvetica,sans-Serif" font-size="10.00">AMReX_iMultiFab.H</text>
</a>
</g>
</g>
<!-- Node14&#45;&gt;Node25 -->
<g id="edge52" class="edge">
<title>Node14&#45;&gt;Node25</title>
<path fill="none" stroke="midnightblue" d="M1687.62,-171.77C1768.74,-165.18 1892.49,-152.2 1935,-132 1958.29,-120.93 1979.11,-99.33 1991.87,-84.07"/>
<polygon fill="midnightblue" stroke="midnightblue" points="1994.87,-85.94 1998.41,-75.95 1989.41,-81.55 1994.87,-85.94"/>
</g>
<!-- Node26 -->
<g id="node26" class="node">
<title>Node26</title>
<g id="a_node26"><a xlink:href="_scratch_field_8_h.html" target="_top" xlink:title=" ">
<polygon fill="white" stroke="black" points="1533,-112.5 1533,-131.5 1693,-131.5 1693,-112.5 1533,-112.5"/>
<text text-anchor="middle" x="1613" y="-119.5" font-family="Helvetica,sans-Serif" font-size="10.00">amr&#45;wind/core/ScratchField.H</text>
</a>
</g>
</g>
<!-- Node14&#45;&gt;Node26 -->
<g id="edge42" class="edge">
<title>Node14&#45;&gt;Node26</title>
<path fill="none" stroke="midnightblue" d="M1613,-168.08C1613,-161.01 1613,-150.86 1613,-141.99"/>
<polygon fill="midnightblue" stroke="midnightblue" points="1616.5,-141.75 1613,-131.75 1609.5,-141.75 1616.5,-141.75"/>
</g>
<!-- Node29 -->
<g id="node29" class="node">
<title>Node29</title>
<g id="a_node29"><a xlink:title=" ">
<polygon fill="white" stroke="#bfbfbf" points="1711,-112.5 1711,-131.5 1821,-131.5 1821,-112.5 1711,-112.5"/>
<text text-anchor="middle" x="1766" y="-119.5" font-family="Helvetica,sans-Serif" font-size="10.00">AMReX_AmrCore.H</text>
</a>
</g>
</g>
<!-- Node14&#45;&gt;Node29 -->
<g id="edge50" class="edge">
<title>Node14&#45;&gt;Node29</title>
<path fill="none" stroke="midnightblue" d="M1637.24,-168.44C1662.87,-159.4 1703.49,-145.06 1732.24,-134.92"/>
<polygon fill="midnightblue" stroke="midnightblue" points="1733.61,-138.15 1741.87,-131.52 1731.28,-131.54 1733.61,-138.15"/>
</g>
<!-- Node16&#45;&gt;Node12 -->
<g id="edge21" class="edge">
<title>Node16&#45;&gt;Node12</title>
<path fill="none" stroke="midnightblue" d="M459.81,-56.44C517.82,-46.87 611.74,-31.36 673.44,-21.17"/>
<polygon fill="midnightblue" stroke="midnightblue" points="674.13,-24.6 683.43,-19.52 672.99,-17.69 674.13,-24.6"/>
</g>
<!-- Node16&#45;&gt;Node15 -->
<g id="edge20" class="edge">
<title>Node16&#45;&gt;Node15</title>
<path fill="none" stroke="midnightblue" d="M481.29,-56.69C484.23,-56.44 487.14,-56.21 490,-56 926.46,-24.11 1037,-43.47 1474,-20 1483.34,-19.5 1493.06,-18.92 1502.78,-18.3"/>
<polygon fill="midnightblue" stroke="midnightblue" points="1503.14,-21.78 1512.89,-17.64 1502.68,-14.79 1503.14,-21.78"/>
</g>
<!-- Node17 -->
<g id="node17" class="node">
<title>Node17</title>
<g id="a_node17"><a xlink:title=" ">
<polygon fill="white" stroke="#bfbfbf" points="346,-0.5 346,-19.5 470,-19.5 470,-0.5 346,-0.5"/>
<text text-anchor="middle" x="408" y="-7.5" font-family="Helvetica,sans-Serif" font-size="10.00">AMReX_Interpolater.H</text>
</a>
</g>
</g>
<!-- Node16&#45;&gt;Node17 -->
<g id="edge22" class="edge">
<title>Node16&#45;&gt;Node17</title>
<path fill="none" stroke="midnightblue" d="M408,-56.08C408,-49.01 408,-38.86 408,-29.99"/>
<polygon fill="midnightblue" stroke="midnightblue" points="411.5,-29.75 408,-19.75 404.5,-29.75 411.5,-29.75"/>
</g>
<!-- Node18&#45;&gt;Node4 -->
<g id="edge25" class="edge">
<title>Node18&#45;&gt;Node4</title>
<path fill="none" stroke="midnightblue" d="M1035.76,-113.66C939.9,-102.36 758.92,-81.02 679.29,-71.63"/>
<polygon fill="midnightblue" stroke="midnightblue" points="679.53,-68.14 669.19,-70.44 678.71,-75.09 679.53,-68.14"/>
</g>
<!-- Node18&#45;&gt;Node5 -->
<g id="edge26" class="edge">
<title>Node18&#45;&gt;Node5</title>
<path fill="none" stroke="midnightblue" d="M1035.99,-116.75C943.88,-110.14 765.23,-96.14 602.89,-76.03"/>
<polygon fill="midnightblue" stroke="midnightblue" points="603.07,-72.52 592.72,-74.75 602.21,-79.47 603.07,-72.52"/>
</g>
<!-- Node18&#45;&gt;Node10 -->
<g id="edge24" class="edge">
<title>Node18&#45;&gt;Node10</title>
<path fill="none" stroke="midnightblue" d="M1160.15,-117.1C1244.72,-111.21 1400.56,-98.31 1532,-76 1620.61,-60.96 1723.25,-34 1774.08,-20"/>
<polygon fill="midnightblue" stroke="midnightblue" points="1775.12,-23.34 1783.83,-17.3 1773.25,-16.6 1775.12,-23.34"/>
</g>
<!-- Node18&#45;&gt;Node12 -->
<g id="edge28" class="edge">
<title>Node18&#45;&gt;Node12</title>
<path fill="none" stroke="midnightblue" d="M1035.89,-116.93C958.92,-111.02 832.91,-98.27 792,-76 771.69,-64.95 755.19,-43.66 745.26,-28.46"/>
<polygon fill="midnightblue" stroke="midnightblue" points="748.21,-26.57 739.95,-19.93 742.26,-30.27 748.21,-26.57"/>
</g>
<!-- Node18&#45;&gt;Node15 -->
<g id="edge32" class="edge">
<title>Node18&#45;&gt;Node15</title>
<path fill="none" stroke="midnightblue" d="M1128.24,-112.45C1187.05,-95.84 1312.85,-60.47 1333,-56 1398.88,-41.4 1474.81,-29.07 1528.98,-21.02"/>
<polygon fill="midnightblue" stroke="midnightblue" points="1529.8,-24.44 1539.18,-19.52 1528.78,-17.52 1529.8,-24.44"/>
</g>
<!-- Node19 -->
<g id="node19" class="node">
<title>Node19</title>
<g id="a_node19"><a xlink:title=" ">
<polygon fill="white" stroke="#bfbfbf" points="1066,-56.5 1066,-75.5 1130,-75.5 1130,-56.5 1066,-56.5"/>
<text text-anchor="middle" x="1098" y="-63.5" font-family="Helvetica,sans-Serif" font-size="10.00">algorithm</text>
</a>
</g>
</g>
<!-- Node18&#45;&gt;Node19 -->
<g id="edge27" class="edge">
<title>Node18&#45;&gt;Node19</title>
<path fill="none" stroke="midnightblue" d="M1098,-112.08C1098,-105.01 1098,-94.86 1098,-85.99"/>
<polygon fill="midnightblue" stroke="midnightblue" points="1101.5,-85.75 1098,-75.75 1094.5,-85.75 1101.5,-85.75"/>
</g>
<!-- Node20 -->
<g id="node20" class="node">
<title>Node20</title>
<g id="a_node20"><a xlink:title=" ">
<polygon fill="white" stroke="#bfbfbf" points="1148.5,-56.5 1148.5,-75.5 1247.5,-75.5 1247.5,-56.5 1148.5,-56.5"/>
<text text-anchor="middle" x="1198" y="-63.5" font-family="Helvetica,sans-Serif" font-size="10.00">AMReX_BCRec.H</text>
</a>
</g>
</g>
<!-- Node18&#45;&gt;Node20 -->
<g id="edge29" class="edge">
<title>Node18&#45;&gt;Node20</title>
<path fill="none" stroke="midnightblue" d="M1114.07,-112.32C1129.96,-103.74 1154.51,-90.49 1172.96,-80.52"/>
<polygon fill="midnightblue" stroke="midnightblue" points="1174.84,-83.49 1181.97,-75.65 1171.51,-77.33 1174.84,-83.49"/>
</g>
<!-- Node21 -->
<g id="node21" class="node">
<title>Node21</title>
<g id="a_node21"><a xlink:title=" ">
<polygon fill="white" stroke="#bfbfbf" points="801.5,-56.5 801.5,-75.5 888.5,-75.5 888.5,-56.5 801.5,-56.5"/>
<text text-anchor="middle" x="845" y="-63.5" font-family="Helvetica,sans-Serif" font-size="10.00">AMReX_Gpu.H</text>
</a>
</g>
</g>
<!-- Node18&#45;&gt;Node21 -->
<g id="edge30" class="edge">
<title>Node18&#45;&gt;Node21</title>
<path fill="none" stroke="midnightblue" d="M1057.91,-112.44C1013.68,-103 942.46,-87.8 894.72,-77.61"/>
<polygon fill="midnightblue" stroke="midnightblue" points="895.41,-74.18 884.9,-75.52 893.95,-81.03 895.41,-74.18"/>
</g>
<!-- Node22 -->
<g id="node22" class="node">
<title>Node22</title>
<g id="a_node22"><a xlink:href="incflo__enums_8_h.html" target="_top" xlink:title=" ">
<polygon fill="white" stroke="black" points="906.5,-56.5 906.5,-75.5 1047.5,-75.5 1047.5,-56.5 906.5,-56.5"/>
<text text-anchor="middle" x="977" y="-63.5" font-family="Helvetica,sans-Serif" font-size="10.00">amr&#45;wind/incflo_enums.H</text>
</a>
</g>
</g>
<!-- Node18&#45;&gt;Node22 -->
<g id="edge31" class="edge">
<title>Node18&#45;&gt;Node22</title>
<path fill="none" stroke="midnightblue" d="M1078.83,-112.44C1059.09,-103.64 1028.11,-89.81 1005.51,-79.72"/>
<polygon fill="midnightblue" stroke="midnightblue" points="1006.64,-76.4 996.08,-75.52 1003.79,-82.79 1006.64,-76.4"/>
</g>
<!-- Node23 -->
<g id="node23" class="node">
<title>Node23</title>
<g id="a_node23"><a xlink:href="_view_field_8_h.html" target="_top" xlink:title=" ">
<polygon fill="white" stroke="black" points="1342,-56.5 1342,-75.5 1490,-75.5 1490,-56.5 1342,-56.5"/>
<text text-anchor="middle" x="1416" y="-63.5" font-family="Helvetica,sans-Serif" font-size="10.00">amr&#45;wind/core/ViewField.H</text>
</a>
</g>
</g>
<!-- Node18&#45;&gt;Node23 -->
<g id="edge33" class="edge">
<title>Node18&#45;&gt;Node23</title>
<path fill="none" stroke="midnightblue" d="M1148.39,-112.44C1204.68,-102.89 1295.75,-87.42 1355.76,-77.23"/>
<polygon fill="midnightblue" stroke="midnightblue" points="1356.57,-80.64 1365.85,-75.52 1355.4,-73.74 1356.57,-80.64"/>
</g>
<!-- Node23&#45;&gt;Node10 -->
<g id="edge34" class="edge">
<title>Node23&#45;&gt;Node10</title>
<path fill="none" stroke="midnightblue" d="M1477.8,-56.44C1561.82,-44.81 1709.06,-24.42 1773.85,-15.45"/>
<polygon fill="midnightblue" stroke="midnightblue" points="1774.46,-18.9 1783.88,-14.06 1773.5,-11.97 1774.46,-18.9"/>
</g>
<!-- Node23&#45;&gt;Node11 -->
<g id="edge37" class="edge">
<title>Node23&#45;&gt;Node11</title>
<path fill="none" stroke="midnightblue" d="M1416,-56.08C1416,-49.01 1416,-38.86 1416,-29.99"/>
<polygon fill="midnightblue" stroke="midnightblue" points="1419.5,-29.75 1416,-19.75 1412.5,-29.75 1419.5,-29.75"/>
</g>
<!-- Node23&#45;&gt;Node12 -->
<g id="edge36" class="edge">
<title>Node23&#45;&gt;Node12</title>
<path fill="none" stroke="midnightblue" d="M1341.82,-59.12C1207.7,-48.48 927.02,-26.23 799.96,-16.15"/>
<polygon fill="midnightblue" stroke="midnightblue" points="799.86,-12.63 789.61,-15.33 799.31,-19.61 799.86,-12.63"/>
</g>
<!-- Node23&#45;&gt;Node15 -->
<g id="edge35" class="edge">
<title>Node23&#45;&gt;Node15</title>
<path fill="none" stroke="midnightblue" d="M1445.31,-56.44C1476.84,-47.24 1527.13,-32.56 1561.99,-22.39"/>
<polygon fill="midnightblue" stroke="midnightblue" points="1563.2,-25.68 1571.82,-19.52 1561.24,-18.96 1563.2,-25.68"/>
</g>
<!-- Node24&#45;&gt;Node10 -->
<g id="edge39" class="edge">
<title>Node24&#45;&gt;Node10</title>
<path fill="none" stroke="midnightblue" d="M2076.58,-112.37C2092.76,-99.28 2118.51,-74.04 2103,-56 2069.19,-16.68 1908.69,-11.3 1838.73,-10.85"/>
<polygon fill="midnightblue" stroke="midnightblue" points="1838.32,-7.35 1828.31,-10.81 1838.3,-14.35 1838.32,-7.35"/>
</g>
<!-- Node24&#45;&gt;Node15 -->
<g id="edge40" class="edge">
<title>Node24&#45;&gt;Node15</title>
<path fill="none" stroke="midnightblue" d="M2069.29,-112.12C2075.29,-98.25 2084,-71.41 2070,-56 2057.69,-42.46 1833.39,-25.86 1699.51,-17.09"/>
<polygon fill="midnightblue" stroke="midnightblue" points="1699.44,-13.58 1689.23,-16.42 1698.99,-20.57 1699.44,-13.58"/>
</g>
<!-- Node24&#45;&gt;Node25 -->
<g id="edge41" class="edge">
<title>Node24&#45;&gt;Node25</title>
<path fill="none" stroke="midnightblue" d="M2055.36,-112.32C2046.49,-104.34 2033.13,-92.31 2022.39,-82.65"/>
<polygon fill="midnightblue" stroke="midnightblue" points="2024.59,-79.92 2014.82,-75.83 2019.91,-85.13 2024.59,-79.92"/>
</g>
<!-- Node26&#45;&gt;Node10 -->
<g id="edge43" class="edge">
<title>Node26&#45;&gt;Node10</title>
<path fill="none" stroke="midnightblue" d="M1687.62,-112.49C1757.43,-103.76 1852.64,-89.58 1864,-76 1879.18,-57.85 1854.15,-37.61 1832.38,-24.61"/>
<polygon fill="midnightblue" stroke="midnightblue" points="1834.11,-21.57 1823.68,-19.68 1830.65,-27.66 1834.11,-21.57"/>
</g>
<!-- Node26&#45;&gt;Node11 -->
<g id="edge48" class="edge">
<title>Node26&#45;&gt;Node11</title>
<path fill="none" stroke="midnightblue" d="M1598.3,-112.48C1576.64,-99.97 1534.84,-75.93 1499,-56 1479.6,-45.21 1457.5,-33.25 1440.98,-24.37"/>
<polygon fill="midnightblue" stroke="midnightblue" points="1442.43,-21.17 1431.97,-19.53 1439.12,-27.34 1442.43,-21.17"/>
</g>
<!-- Node26&#45;&gt;Node12 -->
<g id="edge47" class="edge">
<title>Node26&#45;&gt;Node12</title>
<path fill="none" stroke="midnightblue" d="M1548.73,-112.5C1491.76,-104.53 1406.46,-91.53 1333,-76 1298.83,-68.78 1291.41,-61.97 1257,-56 1094.05,-27.75 899.26,-16.93 800.05,-13.03"/>
<polygon fill="midnightblue" stroke="midnightblue" points="800.01,-9.53 789.88,-12.64 799.74,-16.52 800.01,-9.53"/>
</g>
<!-- Node26&#45;&gt;Node15 -->
<g id="edge45" class="edge">
<title>Node26&#45;&gt;Node15</title>
<path fill="none" stroke="midnightblue" d="M1612.54,-112.15C1611.83,-99.62 1610.32,-76.01 1608,-56 1606.98,-47.25 1605.53,-37.6 1604.21,-29.48"/>
<polygon fill="midnightblue" stroke="midnightblue" points="1607.65,-28.88 1602.54,-19.6 1600.75,-30.04 1607.65,-28.88"/>
</g>
<!-- Node26&#45;&gt;Node23 -->
<g id="edge46" class="edge">
<title>Node26&#45;&gt;Node23</title>
<path fill="none" stroke="midnightblue" d="M1581.78,-112.44C1548.07,-103.2 1494.2,-88.44 1457.07,-78.26"/>
<polygon fill="midnightblue" stroke="midnightblue" points="1457.64,-74.78 1447.07,-75.52 1455.79,-81.54 1457.64,-74.78"/>
</g>
<!-- Node27 -->
<g id="node27" class="node">
<title>Node27</title>
<g id="a_node27"><a xlink:title=" ">
<polygon fill="white" stroke="#bfbfbf" points="1660.5,-56.5 1660.5,-75.5 1705.5,-75.5 1705.5,-56.5 1660.5,-56.5"/>
<text text-anchor="middle" x="1683" y="-63.5" font-family="Helvetica,sans-Serif" font-size="10.00">utility</text>
</a>
</g>
</g>
<!-- Node26&#45;&gt;Node27 -->
<g id="edge44" class="edge">
<title>Node26&#45;&gt;Node27</title>
<path fill="none" stroke="midnightblue" d="M1624.25,-112.32C1634.8,-104.18 1650.8,-91.84 1663.44,-82.09"/>
<polygon fill="midnightblue" stroke="midnightblue" points="1665.77,-84.71 1671.55,-75.83 1661.49,-79.17 1665.77,-84.71"/>
</g>
<!-- Node28 -->
<g id="node28" class="node">
<title>Node28</title>
<g id="a_node28"><a xlink:title=" ">
<polygon fill="white" stroke="#bfbfbf" points="1723.5,-56.5 1723.5,-75.5 1854.5,-75.5 1854.5,-56.5 1723.5,-56.5"/>
<text text-anchor="middle" x="1789" y="-63.5" font-family="Helvetica,sans-Serif" font-size="10.00">AMReX_PhysBCFunct.H</text>
</a>
</g>
</g>
<!-- Node26&#45;&gt;Node28 -->
<g id="edge49" class="edge">
<title>Node26&#45;&gt;Node28</title>
<path fill="none" stroke="midnightblue" d="M1640.89,-112.44C1670.75,-103.28 1718.31,-88.69 1751.46,-78.52"/>
<polygon fill="midnightblue" stroke="midnightblue" points="1752.71,-81.8 1761.24,-75.52 1750.66,-75.1 1752.71,-81.8"/>
</g>
</g>
</svg>
