<?xml version="1.0" encoding="UTF-8" standalone="no"?>
<!DOCTYPE svg PUBLIC "-//W3C//DTD SVG 1.1//EN"
 "http://www.w3.org/Graphics/SVG/1.1/DTD/svg11.dtd">
<!-- Generated by graphviz version 2.43.0 (0)
 -->
<!-- Title: IntField.cpp Pages: 1 -->
<svg width="1668pt" height="252pt"
 viewBox="0.00 0.00 1668.01 252.00" xmlns="http://www.w3.org/2000/svg" xmlns:xlink="http://www.w3.org/1999/xlink">
<g id="graph0" class="graph" transform="scale(1 1) rotate(0) translate(4 248)">
<title>IntField.cpp</title>
<polygon fill="white" stroke="transparent" points="-4,4 -4,-248 1664.01,-248 1664.01,4 -4,4"/>
<!-- Node1 -->
<g id="node1" class="node">
<title>Node1</title>
<g id="a_node1"><a xlink:title=" ">
<polygon fill="#bfbfbf" stroke="black" points="374.73,-224.5 374.73,-243.5 447.73,-243.5 447.73,-224.5 374.73,-224.5"/>
<text text-anchor="middle" x="411.23" y="-231.5" font-family="Helvetica,sans-Serif" font-size="10.00">IntField.cpp</text>
</a>
</g>
</g>
<!-- Node2 -->
<g id="node2" class="node">
<title>Node2</title>
<g id="a_node2"><a xlink:title=" ">
<polygon fill="white" stroke="#bfbfbf" points="1169.73,-56.5 1169.73,-75.5 1214.73,-75.5 1214.73,-56.5 1169.73,-56.5"/>
<text text-anchor="middle" x="1192.23" y="-63.5" font-family="Helvetica,sans-Serif" font-size="10.00">utility</text>
</a>
</g>
</g>
<!-- Node1&#45;&gt;Node2 -->
<g id="edge1" class="edge">
<title>Node1&#45;&gt;Node2</title>
<path fill="none" stroke="midnightblue" d="M447.89,-227.95C538.32,-215.16 779.01,-179.14 976.23,-132 1042.21,-116.23 1117.79,-92.04 1159.78,-78.05"/>
<polygon fill="midnightblue" stroke="midnightblue" points="1161.08,-81.3 1169.45,-74.8 1158.86,-74.66 1161.08,-81.3"/>
</g>
<!-- Node3 -->
<g id="node3" class="node">
<title>Node3</title>
<g id="a_node3"><a xlink:href="_int_field_8_h.html" target="_top" xlink:title=" ">
<polygon fill="white" stroke="black" points="57.73,-112.5 57.73,-131.5 194.73,-131.5 194.73,-112.5 57.73,-112.5"/>
<text text-anchor="middle" x="126.23" y="-119.5" font-family="Helvetica,sans-Serif" font-size="10.00">amr&#45;wind/core/IntField.H</text>
</a>
</g>
</g>
<!-- Node1&#45;&gt;Node3 -->
<g id="edge2" class="edge">
<title>Node1&#45;&gt;Node3</title>
<path fill="none" stroke="midnightblue" d="M388.87,-224.37C338.51,-204.93 216.07,-157.67 157.91,-135.23"/>
<polygon fill="midnightblue" stroke="midnightblue" points="159.08,-131.93 148.49,-131.59 156.56,-138.46 159.08,-131.93"/>
</g>
<!-- Node7 -->
<g id="node7" class="node">
<title>Node7</title>
<g id="a_node7"><a xlink:href="_field_repo_8_h.html" target="_top" xlink:title=" ">
<polygon fill="white" stroke="black" points="336.73,-168.5 336.73,-187.5 485.73,-187.5 485.73,-168.5 336.73,-168.5"/>
<text text-anchor="middle" x="411.23" y="-175.5" font-family="Helvetica,sans-Serif" font-size="10.00">amr&#45;wind/core/FieldRepo.H</text>
</a>
</g>
</g>
<!-- Node1&#45;&gt;Node7 -->
<g id="edge6" class="edge">
<title>Node1&#45;&gt;Node7</title>
<path fill="none" stroke="midnightblue" d="M411.23,-224.08C411.23,-217.01 411.23,-206.86 411.23,-197.99"/>
<polygon fill="midnightblue" stroke="midnightblue" points="414.73,-197.75 411.23,-187.75 407.73,-197.75 414.73,-197.75"/>
</g>
<!-- Node4 -->
<g id="node4" class="node">
<title>Node4</title>
<g id="a_node4"><a xlink:title=" ">
<polygon fill="white" stroke="#bfbfbf" points="1323.23,-0.5 1323.23,-19.5 1367.23,-19.5 1367.23,-0.5 1323.23,-0.5"/>
<text text-anchor="middle" x="1345.23" y="-7.5" font-family="Helvetica,sans-Serif" font-size="10.00">string</text>
</a>
</g>
</g>
<!-- Node3&#45;&gt;Node4 -->
<g id="edge3" class="edge">
<title>Node3&#45;&gt;Node4</title>
<path fill="none" stroke="midnightblue" d="M106.74,-112.47C81.07,-100.14 41.39,-76.55 61.23,-56 72.45,-44.38 1115.5,-16.92 1313.12,-11.82"/>
<polygon fill="midnightblue" stroke="midnightblue" points="1313.25,-15.32 1323.16,-11.56 1313.07,-8.32 1313.25,-15.32"/>
</g>
<!-- Node5 -->
<g id="node5" class="node">
<title>Node5</title>
<g id="a_node5"><a xlink:href="_field_desc_types_8_h.html" target="_top" xlink:title=" ">
<polygon fill="white" stroke="black" points="395.23,-0.5 395.23,-19.5 571.23,-19.5 571.23,-0.5 395.23,-0.5"/>
<text text-anchor="middle" x="483.23" y="-7.5" font-family="Helvetica,sans-Serif" font-size="10.00">amr&#45;wind/core/FieldDescTypes.H</text>
</a>
</g>
</g>
<!-- Node3&#45;&gt;Node5 -->
<g id="edge4" class="edge">
<title>Node3&#45;&gt;Node5</title>
<path fill="none" stroke="midnightblue" d="M91.94,-112.44C55.2,-101.71 5.07,-81.57 28.23,-56 40.07,-42.93 254.81,-26.32 384.99,-17.38"/>
<polygon fill="midnightblue" stroke="midnightblue" points="385.25,-20.87 394.99,-16.7 384.78,-13.89 385.25,-20.87"/>
</g>
<!-- Node6 -->
<g id="node6" class="node">
<title>Node6</title>
<g id="a_node6"><a xlink:title=" ">
<polygon fill="white" stroke="#bfbfbf" points="70.23,-56.5 70.23,-75.5 182.23,-75.5 182.23,-56.5 70.23,-56.5"/>
<text text-anchor="middle" x="126.23" y="-63.5" font-family="Helvetica,sans-Serif" font-size="10.00">AMReX_iMultiFab.H</text>
</a>
</g>
</g>
<!-- Node3&#45;&gt;Node6 -->
<g id="edge5" class="edge">
<title>Node3&#45;&gt;Node6</title>
<path fill="none" stroke="midnightblue" d="M126.23,-112.08C126.23,-105.01 126.23,-94.86 126.23,-85.99"/>
<polygon fill="midnightblue" stroke="midnightblue" points="129.73,-85.75 126.23,-75.75 122.73,-85.75 129.73,-85.75"/>
</g>
<!-- Node7&#45;&gt;Node3 -->
<g id="edge29" class="edge">
<title>Node7&#45;&gt;Node3</title>
<path fill="none" stroke="midnightblue" d="M366.07,-168.44C315.94,-158.94 235.01,-143.61 181.23,-133.42"/>
<polygon fill="midnightblue" stroke="midnightblue" points="181.66,-129.94 171.18,-131.52 180.35,-136.82 181.66,-129.94"/>
</g>
<!-- Node7&#45;&gt;Node4 -->
<g id="edge7" class="edge">
<title>Node7&#45;&gt;Node4</title>
<path fill="none" stroke="midnightblue" d="M486.01,-176.56C696.82,-174.91 1293.05,-167.15 1485.23,-132 1563.07,-117.76 1607.91,-140.15 1654.23,-76 1659.44,-68.79 1660.05,-62.72 1654.23,-56 1636.28,-35.24 1453.31,-19.16 1377.68,-13.35"/>
<polygon fill="midnightblue" stroke="midnightblue" points="1377.57,-9.83 1367.33,-12.57 1377.04,-16.81 1377.57,-9.83"/>
</g>
<!-- Node7&#45;&gt;Node5 -->
<g id="edge9" class="edge">
<title>Node7&#45;&gt;Node5</title>
<path fill="none" stroke="midnightblue" d="M336.52,-177.14C198.66,-175 -73.52,-158.18 19.23,-56 25.32,-49.29 250.26,-29.92 384.67,-18.91"/>
<polygon fill="midnightblue" stroke="midnightblue" points="385.3,-22.37 394.98,-18.06 384.73,-15.39 385.3,-22.37"/>
</g>
<!-- Node7&#45;&gt;Node6 -->
<g id="edge40" class="edge">
<title>Node7&#45;&gt;Node6</title>
<path fill="none" stroke="midnightblue" d="M388.87,-168.37C338.51,-148.93 216.07,-101.67 157.91,-79.23"/>
<polygon fill="midnightblue" stroke="midnightblue" points="159.08,-75.93 148.49,-75.59 156.56,-82.46 159.08,-75.93"/>
</g>
<!-- Node8 -->
<g id="node8" class="node">
<title>Node8</title>
<g id="a_node8"><a xlink:title=" ">
<polygon fill="white" stroke="#bfbfbf" points="402.73,-56.5 402.73,-75.5 495.73,-75.5 495.73,-56.5 402.73,-56.5"/>
<text text-anchor="middle" x="449.23" y="-63.5" font-family="Helvetica,sans-Serif" font-size="10.00">unordered_map</text>
</a>
</g>
</g>
<!-- Node7&#45;&gt;Node8 -->
<g id="edge8" class="edge">
<title>Node7&#45;&gt;Node8</title>
<path fill="none" stroke="midnightblue" d="M414.21,-168.37C420.37,-150.54 434.62,-109.3 442.92,-85.27"/>
<polygon fill="midnightblue" stroke="midnightblue" points="446.31,-86.19 446.26,-75.59 439.69,-83.9 446.31,-86.19"/>
</g>
<!-- Node9 -->
<g id="node9" class="node">
<title>Node9</title>
<g id="a_node9"><a xlink:href="_field_utils_8_h.html" target="_top" xlink:title=" ">
<polygon fill="white" stroke="black" points="200.23,-56.5 200.23,-75.5 346.23,-75.5 346.23,-56.5 200.23,-56.5"/>
<text text-anchor="middle" x="273.23" y="-63.5" font-family="Helvetica,sans-Serif" font-size="10.00">amr&#45;wind/core/FieldUtils.H</text>
</a>
</g>
</g>
<!-- Node7&#45;&gt;Node9 -->
<g id="edge10" class="edge">
<title>Node7&#45;&gt;Node9</title>
<path fill="none" stroke="midnightblue" d="M400.4,-168.37C376.92,-149.65 321.09,-105.15 291.84,-81.83"/>
<polygon fill="midnightblue" stroke="midnightblue" points="294.01,-79.09 284.01,-75.59 289.65,-84.56 294.01,-79.09"/>
</g>
<!-- Node10 -->
<g id="node10" class="node">
<title>Node10</title>
<g id="a_node10"><a xlink:title=" ">
<polygon fill="white" stroke="#bfbfbf" points="772.73,-0.5 772.73,-19.5 881.73,-19.5 881.73,-0.5 772.73,-0.5"/>
<text text-anchor="middle" x="827.23" y="-7.5" font-family="Helvetica,sans-Serif" font-size="10.00">AMReX_MultiFab.H</text>
</a>
</g>
</g>
<!-- Node7&#45;&gt;Node10 -->
<g id="edge39" class="edge">
<title>Node7&#45;&gt;Node10</title>
<path fill="none" stroke="midnightblue" d="M406.01,-168.35C393.53,-146.46 365.11,-88.3 394.23,-56 418.39,-29.2 647.5,-17.34 762.31,-13.05"/>
<polygon fill="midnightblue" stroke="midnightblue" points="762.52,-16.54 772.39,-12.68 762.26,-9.55 762.52,-16.54"/>
</g>
<!-- Node12 -->
<g id="node12" class="node">
<title>Node12</title>
<g id="a_node12"><a xlink:href="_field_8_h.html" target="_top" xlink:title=" ">
<polygon fill="white" stroke="black" points="715.23,-112.5 715.23,-131.5 839.23,-131.5 839.23,-112.5 715.23,-112.5"/>
<text text-anchor="middle" x="777.23" y="-119.5" font-family="Helvetica,sans-Serif" font-size="10.00">amr&#45;wind/core/Field.H</text>
</a>
</g>
</g>
<!-- Node7&#45;&gt;Node12 -->
<g id="edge14" class="edge">
<title>Node7&#45;&gt;Node12</title>
<path fill="none" stroke="midnightblue" d="M469.23,-168.44C534.55,-158.81 640.57,-143.16 709.6,-132.98"/>
<polygon fill="midnightblue" stroke="midnightblue" points="710.13,-136.44 719.51,-131.52 709.11,-129.51 710.13,-136.44"/>
</g>
<!-- Node20 -->
<g id="node20" class="node">
<title>Node20</title>
<g id="a_node20"><a xlink:href="_scratch_field_8_h.html" target="_top" xlink:title=" ">
<polygon fill="white" stroke="black" points="1316.23,-112.5 1316.23,-131.5 1476.23,-131.5 1476.23,-112.5 1316.23,-112.5"/>
<text text-anchor="middle" x="1396.23" y="-119.5" font-family="Helvetica,sans-Serif" font-size="10.00">amr&#45;wind/core/ScratchField.H</text>
</a>
</g>
</g>
<!-- Node7&#45;&gt;Node20 -->
<g id="edge30" class="edge">
<title>Node7&#45;&gt;Node20</title>
<path fill="none" stroke="midnightblue" d="M486.08,-172.9C664.26,-163.13 1113.13,-138.52 1305.94,-127.95"/>
<polygon fill="midnightblue" stroke="midnightblue" points="1306.24,-131.44 1316.04,-127.4 1305.86,-124.45 1306.24,-131.44"/>
</g>
<!-- Node22 -->
<g id="node22" class="node">
<title>Node22</title>
<g id="a_node22"><a xlink:title=" ">
<polygon fill="white" stroke="#bfbfbf" points="857.23,-112.5 857.23,-131.5 967.23,-131.5 967.23,-112.5 857.23,-112.5"/>
<text text-anchor="middle" x="912.23" y="-119.5" font-family="Helvetica,sans-Serif" font-size="10.00">AMReX_AmrCore.H</text>
</a>
</g>
</g>
<!-- Node7&#45;&gt;Node22 -->
<g id="edge38" class="edge">
<title>Node7&#45;&gt;Node22</title>
<path fill="none" stroke="midnightblue" d="M485.94,-170.16C570.9,-162.18 714.03,-148.17 847.12,-132.1"/>
<polygon fill="midnightblue" stroke="midnightblue" points="847.59,-135.57 857.09,-130.89 846.74,-128.62 847.59,-135.57"/>
</g>
<!-- Node9&#45;&gt;Node5 -->
<g id="edge11" class="edge">
<title>Node9&#45;&gt;Node5</title>
<path fill="none" stroke="midnightblue" d="M306.51,-56.44C342.68,-47.14 400.61,-32.25 440.21,-22.06"/>
<polygon fill="midnightblue" stroke="midnightblue" points="441.3,-25.4 450.11,-19.52 439.56,-18.62 441.3,-25.4"/>
</g>
<!-- Node9&#45;&gt;Node10 -->
<g id="edge12" class="edge">
<title>Node9&#45;&gt;Node10</title>
<path fill="none" stroke="midnightblue" d="M346.33,-57.4C351.03,-56.92 355.7,-56.45 360.23,-56 503.83,-41.65 672.34,-25.61 762.51,-17.09"/>
<polygon fill="midnightblue" stroke="midnightblue" points="762.95,-20.57 772.58,-16.14 762.29,-13.6 762.95,-20.57"/>
</g>
<!-- Node11 -->
<g id="node11" class="node">
<title>Node11</title>
<g id="a_node11"><a xlink:title=" ">
<polygon fill="white" stroke="#bfbfbf" points="211.23,-0.5 211.23,-19.5 335.23,-19.5 335.23,-0.5 211.23,-0.5"/>
<text text-anchor="middle" x="273.23" y="-7.5" font-family="Helvetica,sans-Serif" font-size="10.00">AMReX_Interpolater.H</text>
</a>
</g>
</g>
<!-- Node9&#45;&gt;Node11 -->
<g id="edge13" class="edge">
<title>Node9&#45;&gt;Node11</title>
<path fill="none" stroke="midnightblue" d="M273.23,-56.08C273.23,-49.01 273.23,-38.86 273.23,-29.99"/>
<polygon fill="midnightblue" stroke="midnightblue" points="276.73,-29.75 273.23,-19.75 269.73,-29.75 276.73,-29.75"/>
</g>
<!-- Node12&#45;&gt;Node4 -->
<g id="edge15" class="edge">
<title>Node12&#45;&gt;Node4</title>
<path fill="none" stroke="midnightblue" d="M839.36,-113.03C937.79,-100.39 1118.88,-77.04 1122.23,-76 1140.83,-70.21 1142.98,-62.8 1161.23,-56 1212.84,-36.76 1275.67,-23.44 1312.95,-16.52"/>
<polygon fill="midnightblue" stroke="midnightblue" points="1313.99,-19.89 1323.21,-14.66 1312.75,-13 1313.99,-19.89"/>
</g>
<!-- Node12&#45;&gt;Node5 -->
<g id="edge23" class="edge">
<title>Node12&#45;&gt;Node5</title>
<path fill="none" stroke="midnightblue" d="M715.07,-119.36C665.99,-115.71 597.18,-105.2 544.23,-76 523.36,-64.49 505.52,-43.3 494.62,-28.24"/>
<polygon fill="midnightblue" stroke="midnightblue" points="497.34,-26.03 488.77,-19.8 491.59,-30.02 497.34,-26.03"/>
</g>
<!-- Node12&#45;&gt;Node8 -->
<g id="edge17" class="edge">
<title>Node12&#45;&gt;Node8</title>
<path fill="none" stroke="midnightblue" d="M725.26,-112.44C665.46,-102.6 567.58,-86.48 505.87,-76.33"/>
<polygon fill="midnightblue" stroke="midnightblue" points="506.35,-72.86 495.92,-74.69 505.22,-79.76 506.35,-72.86"/>
</g>
<!-- Node12&#45;&gt;Node10 -->
<g id="edge19" class="edge">
<title>Node12&#45;&gt;Node10</title>
<path fill="none" stroke="midnightblue" d="M784.55,-112.22C791.5,-103.51 801.8,-89.54 808.23,-76 815.33,-61.07 820.36,-42.93 823.46,-29.61"/>
<polygon fill="midnightblue" stroke="midnightblue" points="826.9,-30.25 825.61,-19.73 820.06,-28.76 826.9,-30.25"/>
</g>
<!-- Node13 -->
<g id="node13" class="node">
<title>Node13</title>
<g id="a_node13"><a xlink:title=" ">
<polygon fill="white" stroke="#bfbfbf" points="855.23,-56.5 855.23,-75.5 913.23,-75.5 913.23,-56.5 855.23,-56.5"/>
<text text-anchor="middle" x="884.23" y="-63.5" font-family="Helvetica,sans-Serif" font-size="10.00">memory</text>
</a>
</g>
</g>
<!-- Node12&#45;&gt;Node13 -->
<g id="edge16" class="edge">
<title>Node12&#45;&gt;Node13</title>
<path fill="none" stroke="midnightblue" d="M794.42,-112.32C811.58,-103.66 838.18,-90.24 857.98,-80.25"/>
<polygon fill="midnightblue" stroke="midnightblue" points="859.73,-83.28 867.08,-75.65 856.58,-77.04 859.73,-83.28"/>
</g>
<!-- Node14 -->
<g id="node14" class="node">
<title>Node14</title>
<g id="a_node14"><a xlink:title=" ">
<polygon fill="white" stroke="#bfbfbf" points="931.23,-56.5 931.23,-75.5 995.23,-75.5 995.23,-56.5 931.23,-56.5"/>
<text text-anchor="middle" x="963.23" y="-63.5" font-family="Helvetica,sans-Serif" font-size="10.00">algorithm</text>
</a>
</g>
</g>
<!-- Node12&#45;&gt;Node14 -->
<g id="edge18" class="edge">
<title>Node12&#45;&gt;Node14</title>
<path fill="none" stroke="midnightblue" d="M806.7,-112.44C838.4,-103.24 888.96,-88.56 924.01,-78.39"/>
<polygon fill="midnightblue" stroke="midnightblue" points="925.27,-81.67 933.9,-75.52 923.32,-74.94 925.27,-81.67"/>
</g>
<!-- Node15 -->
<g id="node15" class="node">
<title>Node15</title>
<g id="a_node15"><a xlink:title=" ">
<polygon fill="white" stroke="#bfbfbf" points="1013.73,-56.5 1013.73,-75.5 1112.73,-75.5 1112.73,-56.5 1013.73,-56.5"/>
<text text-anchor="middle" x="1063.23" y="-63.5" font-family="Helvetica,sans-Serif" font-size="10.00">AMReX_BCRec.H</text>
</a>
</g>
</g>
<!-- Node12&#45;&gt;Node15 -->
<g id="edge20" class="edge">
<title>Node12&#45;&gt;Node15</title>
<path fill="none" stroke="midnightblue" d="M822.55,-112.44C872.86,-102.94 954.07,-87.61 1008.05,-77.42"/>
<polygon fill="midnightblue" stroke="midnightblue" points="1008.95,-80.81 1018.13,-75.52 1007.65,-73.93 1008.95,-80.81"/>
</g>
<!-- Node16 -->
<g id="node16" class="node">
<title>Node16</title>
<g id="a_node16"><a xlink:title=" ">
<polygon fill="white" stroke="#bfbfbf" points="552.73,-56.5 552.73,-75.5 639.73,-75.5 639.73,-56.5 552.73,-56.5"/>
<text text-anchor="middle" x="596.23" y="-63.5" font-family="Helvetica,sans-Serif" font-size="10.00">AMReX_Gpu.H</text>
</a>
</g>
</g>
<!-- Node12&#45;&gt;Node16 -->
<g id="edge21" class="edge">
<title>Node12&#45;&gt;Node16</title>
<path fill="none" stroke="midnightblue" d="M748.55,-112.44C717.71,-103.24 668.5,-88.56 634.4,-78.39"/>
<polygon fill="midnightblue" stroke="midnightblue" points="635.36,-75.02 624.78,-75.52 633.36,-81.73 635.36,-75.02"/>
</g>
<!-- Node17 -->
<g id="node17" class="node">
<title>Node17</title>
<g id="a_node17"><a xlink:href="incflo__enums_8_h.html" target="_top" xlink:title=" ">
<polygon fill="white" stroke="black" points="657.73,-56.5 657.73,-75.5 798.73,-75.5 798.73,-56.5 657.73,-56.5"/>
<text text-anchor="middle" x="728.23" y="-63.5" font-family="Helvetica,sans-Serif" font-size="10.00">amr&#45;wind/incflo_enums.H</text>
</a>
</g>
</g>
<!-- Node12&#45;&gt;Node17 -->
<g id="edge22" class="edge">
<title>Node12&#45;&gt;Node17</title>
<path fill="none" stroke="midnightblue" d="M769.14,-112.08C762.08,-104.3 751.64,-92.8 743.08,-83.37"/>
<polygon fill="midnightblue" stroke="midnightblue" points="745.48,-80.8 736.17,-75.75 740.3,-85.51 745.48,-80.8"/>
</g>
<!-- Node18 -->
<g id="node18" class="node">
<title>Node18</title>
<g id="a_node18"><a xlink:href="_view_field_8_h.html" target="_top" xlink:title=" ">
<polygon fill="white" stroke="black" points="1271.23,-56.5 1271.23,-75.5 1419.23,-75.5 1419.23,-56.5 1271.23,-56.5"/>
<text text-anchor="middle" x="1345.23" y="-63.5" font-family="Helvetica,sans-Serif" font-size="10.00">amr&#45;wind/core/ViewField.H</text>
</a>
</g>
</g>
<!-- Node12&#45;&gt;Node18 -->
<g id="edge24" class="edge">
<title>Node12&#45;&gt;Node18</title>
<path fill="none" stroke="midnightblue" d="M839.56,-112.97C842.49,-112.63 845.39,-112.31 848.23,-112 992.98,-96.28 1161.86,-81.81 1260.81,-73.72"/>
<polygon fill="midnightblue" stroke="midnightblue" points="1261.37,-77.18 1271.05,-72.88 1260.8,-70.21 1261.37,-77.18"/>
</g>
<!-- Node18&#45;&gt;Node4 -->
<g id="edge25" class="edge">
<title>Node18&#45;&gt;Node4</title>
<path fill="none" stroke="midnightblue" d="M1345.23,-56.08C1345.23,-49.01 1345.23,-38.86 1345.23,-29.99"/>
<polygon fill="midnightblue" stroke="midnightblue" points="1348.73,-29.75 1345.23,-19.75 1341.73,-29.75 1348.73,-29.75"/>
</g>
<!-- Node18&#45;&gt;Node5 -->
<g id="edge26" class="edge">
<title>Node18&#45;&gt;Node5</title>
<path fill="none" stroke="midnightblue" d="M1270.84,-57.16C1266.23,-56.75 1261.67,-56.36 1257.23,-56 1014.67,-36.55 728.7,-22.13 581.6,-15.34"/>
<polygon fill="midnightblue" stroke="midnightblue" points="581.4,-11.82 571.25,-14.86 581.07,-18.81 581.4,-11.82"/>
</g>
<!-- Node18&#45;&gt;Node10 -->
<g id="edge27" class="edge">
<title>Node18&#45;&gt;Node10</title>
<path fill="none" stroke="midnightblue" d="M1271.02,-57.26C1169.39,-46.67 988.58,-27.82 892.1,-17.76"/>
<polygon fill="midnightblue" stroke="midnightblue" points="892.21,-14.25 881.9,-16.7 891.48,-21.22 892.21,-14.25"/>
</g>
<!-- Node19 -->
<g id="node19" class="node">
<title>Node19</title>
<g id="a_node19"><a xlink:title=" ">
<polygon fill="white" stroke="#bfbfbf" points="1504.23,-0.5 1504.23,-19.5 1602.23,-19.5 1602.23,-0.5 1504.23,-0.5"/>
<text text-anchor="middle" x="1553.23" y="-7.5" font-family="Helvetica,sans-Serif" font-size="10.00">AMReX_Vector.H</text>
</a>
</g>
</g>
<!-- Node18&#45;&gt;Node19 -->
<g id="edge28" class="edge">
<title>Node18&#45;&gt;Node19</title>
<path fill="none" stroke="midnightblue" d="M1378.19,-56.44C1414.02,-47.14 1471.4,-32.25 1510.62,-22.06"/>
<polygon fill="midnightblue" stroke="midnightblue" points="1511.63,-25.42 1520.43,-19.52 1509.87,-18.64 1511.63,-25.42"/>
</g>
<!-- Node20&#45;&gt;Node2 -->
<g id="edge32" class="edge">
<title>Node20&#45;&gt;Node2</title>
<path fill="none" stroke="midnightblue" d="M1363.91,-112.44C1325.91,-102.39 1263.2,-85.79 1225.01,-75.68"/>
<polygon fill="midnightblue" stroke="midnightblue" points="1225.49,-72.18 1214.93,-73.01 1223.7,-78.95 1225.49,-72.18"/>
</g>
<!-- Node20&#45;&gt;Node4 -->
<g id="edge31" class="edge">
<title>Node20&#45;&gt;Node4</title>
<path fill="none" stroke="midnightblue" d="M1416.8,-112.32C1441.25,-100.71 1476.92,-78.91 1461.23,-56 1442.51,-28.66 1404.57,-17.93 1377.17,-13.72"/>
<polygon fill="midnightblue" stroke="midnightblue" points="1377.62,-10.24 1367.25,-12.4 1376.7,-17.18 1377.62,-10.24"/>
</g>
<!-- Node20&#45;&gt;Node5 -->
<g id="edge33" class="edge">
<title>Node20&#45;&gt;Node5</title>
<path fill="none" stroke="midnightblue" d="M1366.45,-112.5C1338.95,-104.3 1297.2,-90.96 1262.23,-76 1244.69,-68.49 1242.61,-61.14 1224.23,-56 1163.98,-39.16 768.81,-21.98 581.46,-14.66"/>
<polygon fill="midnightblue" stroke="midnightblue" points="581.46,-11.16 571.34,-14.27 581.19,-18.15 581.46,-11.16"/>
</g>
<!-- Node20&#45;&gt;Node10 -->
<g id="edge35" class="edge">
<title>Node20&#45;&gt;Node10</title>
<path fill="none" stroke="midnightblue" d="M1406.14,-112.49C1420.56,-99.12 1443.97,-72.97 1428.23,-56 1392.35,-17.33 1040.06,-11.66 892.12,-11"/>
<polygon fill="midnightblue" stroke="midnightblue" points="891.85,-7.49 881.83,-10.96 891.82,-14.49 891.85,-7.49"/>
</g>
<!-- Node20&#45;&gt;Node18 -->
<g id="edge34" class="edge">
<title>Node20&#45;&gt;Node18</title>
<path fill="none" stroke="midnightblue" d="M1387.81,-112.08C1380.38,-104.22 1369.38,-92.57 1360.42,-83.08"/>
<polygon fill="midnightblue" stroke="midnightblue" points="1362.91,-80.62 1353.5,-75.75 1357.82,-85.42 1362.91,-80.62"/>
</g>
<!-- Node20&#45;&gt;Node19 -->
<g id="edge36" class="edge">
<title>Node20&#45;&gt;Node19</title>
<path fill="none" stroke="midnightblue" d="M1476.39,-117.98C1543.49,-113.57 1631.78,-102.71 1654.23,-76 1674.65,-51.71 1635.1,-33.33 1599.66,-22.41"/>
<polygon fill="midnightblue" stroke="midnightblue" points="1600.41,-18.99 1589.83,-19.53 1598.44,-25.7 1600.41,-18.99"/>
</g>
<!-- Node21 -->
<g id="node21" class="node">
<title>Node21</title>
<g id="a_node21"><a xlink:title=" ">
<polygon fill="white" stroke="#bfbfbf" points="1513.73,-56.5 1513.73,-75.5 1644.73,-75.5 1644.73,-56.5 1513.73,-56.5"/>
<text text-anchor="middle" x="1579.23" y="-63.5" font-family="Helvetica,sans-Serif" font-size="10.00">AMReX_PhysBCFunct.H</text>
</a>
</g>
</g>
<!-- Node20&#45;&gt;Node21 -->
<g id="edge37" class="edge">
<title>Node20&#45;&gt;Node21</title>
<path fill="none" stroke="midnightblue" d="M1425.23,-112.44C1456.42,-103.24 1506.16,-88.56 1540.64,-78.39"/>
<polygon fill="midnightblue" stroke="midnightblue" points="1541.77,-81.7 1550.37,-75.52 1539.79,-74.99 1541.77,-81.7"/>
</g>
</g>
</svg>
