<?xml version="1.0" encoding="UTF-8" standalone="no"?>
<!DOCTYPE svg PUBLIC "-//W3C//DTD SVG 1.1//EN"
 "http://www.w3.org/Graphics/SVG/1.1/DTD/svg11.dtd">
<!-- Generated by graphviz version 2.43.0 (0)
 -->
<!-- Title: KsgsM84Src.cpp Pages: 1 -->
<svg width="3006pt" height="408pt"
 viewBox="0.00 0.00 3005.69 408.00" xmlns="http://www.w3.org/2000/svg" xmlns:xlink="http://www.w3.org/1999/xlink">
<g id="graph0" class="graph" transform="scale(1 1) rotate(0) translate(4 404)">
<title>KsgsM84Src.cpp</title>
<polygon fill="white" stroke="transparent" points="-4,4 -4,-404 3001.69,-404 3001.69,4 -4,4"/>
<!-- Node1 -->
<g id="node1" class="node">
<title>Node1</title>
<g id="a_node1"><a xlink:title=" ">
<polygon fill="#bfbfbf" stroke="black" points="1487.69,-380.5 1487.69,-399.5 1583.69,-399.5 1583.69,-380.5 1487.69,-380.5"/>
<text text-anchor="middle" x="1535.69" y="-387.5" font-family="Helvetica,sans-Serif" font-size="10.00">KsgsM84Src.cpp</text>
</a>
</g>
</g>
<!-- Node2 -->
<g id="node2" class="node">
<title>Node2</title>
<g id="a_node2"><a xlink:title=" ">
<polygon fill="white" stroke="#bfbfbf" points="1249.69,-319 1249.69,-338 1371.69,-338 1371.69,-319 1249.69,-319"/>
<text text-anchor="middle" x="1310.69" y="-326" font-family="Helvetica,sans-Serif" font-size="10.00">AMReX_Orientation.H</text>
</a>
</g>
</g>
<!-- Node1&#45;&gt;Node2 -->
<g id="edge1" class="edge">
<title>Node1&#45;&gt;Node2</title>
<path fill="none" stroke="midnightblue" d="M1503.45,-380.48C1463.77,-369.98 1396.29,-352.14 1352.61,-340.59"/>
<polygon fill="midnightblue" stroke="midnightblue" points="1353.43,-337.18 1342.87,-338.01 1351.64,-343.95 1353.43,-337.18"/>
</g>
<!-- Node3 -->
<g id="node3" class="node">
<title>Node3</title>
<g id="a_node3"><a xlink:href="_ksgs_m84_src_8_h.html" target="_top" xlink:title=" ">
<polygon fill="white" stroke="black" points="1389.69,-313.5 1389.69,-343.5 1565.69,-343.5 1565.69,-313.5 1389.69,-313.5"/>
<text text-anchor="start" x="1397.69" y="-331.5" font-family="Helvetica,sans-Serif" font-size="10.00">amr&#45;wind/equation_systems</text>
<text text-anchor="middle" x="1477.69" y="-320.5" font-family="Helvetica,sans-Serif" font-size="10.00">/tke/source_terms/KsgsM84Src.H</text>
</a>
</g>
</g>
<!-- Node1&#45;&gt;Node3 -->
<g id="edge2" class="edge">
<title>Node1&#45;&gt;Node3</title>
<path fill="none" stroke="midnightblue" d="M1527.38,-380.48C1519.89,-372.79 1508.56,-361.17 1498.61,-350.96"/>
<polygon fill="midnightblue" stroke="midnightblue" points="1500.84,-348.24 1491.36,-343.52 1495.83,-353.13 1500.84,-348.24"/>
</g>
<!-- Node30 -->
<g id="node30" class="node">
<title>Node30</title>
<g id="a_node30"><a xlink:href="_c_f_d_sim_8_h.html" target="_top" xlink:title=" ">
<polygon fill="white" stroke="black" points="1762.69,-252 1762.69,-271 1878.69,-271 1878.69,-252 1762.69,-252"/>
<text text-anchor="middle" x="1820.69" y="-259" font-family="Helvetica,sans-Serif" font-size="10.00">amr&#45;wind/CFDSim.H</text>
</a>
</g>
</g>
<!-- Node1&#45;&gt;Node30 -->
<g id="edge51" class="edge">
<title>Node1&#45;&gt;Node30</title>
<path fill="none" stroke="midnightblue" d="M1555.28,-380.31C1604.61,-358.41 1734.17,-300.9 1792.04,-275.21"/>
<polygon fill="midnightblue" stroke="midnightblue" points="1793.62,-278.34 1801.34,-271.09 1790.78,-271.95 1793.62,-278.34"/>
</g>
<!-- Node42 -->
<g id="node42" class="node">
<title>Node42</title>
<g id="a_node42"><a xlink:href="_turbulence_model_8_h.html" target="_top" xlink:title=" ">
<polygon fill="white" stroke="black" points="1534.69,-179.5 1534.69,-209.5 1652.69,-209.5 1652.69,-179.5 1534.69,-179.5"/>
<text text-anchor="start" x="1542.69" y="-197.5" font-family="Helvetica,sans-Serif" font-size="10.00">amr&#45;wind/turbulence</text>
<text text-anchor="middle" x="1593.69" y="-186.5" font-family="Helvetica,sans-Serif" font-size="10.00">/TurbulenceModel.H</text>
</a>
</g>
</g>
<!-- Node1&#45;&gt;Node42 -->
<g id="edge81" class="edge">
<title>Node1&#45;&gt;Node42</title>
<path fill="none" stroke="midnightblue" d="M1546.23,-380.18C1555.39,-371.87 1568.19,-358.53 1574.69,-344 1592.93,-303.22 1595.24,-250.25 1594.79,-219.85"/>
<polygon fill="midnightblue" stroke="midnightblue" points="1598.29,-219.64 1594.53,-209.73 1591.29,-219.82 1598.29,-219.64"/>
</g>
<!-- Node4 -->
<g id="node4" class="node">
<title>Node4</title>
<g id="a_node4"><a xlink:href="_t_k_e_source_8_h.html" target="_top" xlink:title=" ">
<polygon fill="white" stroke="black" points="497.19,-246.5 497.19,-276.5 652.19,-276.5 652.19,-246.5 497.19,-246.5"/>
<text text-anchor="start" x="505.19" y="-264.5" font-family="Helvetica,sans-Serif" font-size="10.00">amr&#45;wind/equation_systems</text>
<text text-anchor="middle" x="574.69" y="-253.5" font-family="Helvetica,sans-Serif" font-size="10.00">/tke/TKESource.H</text>
</a>
</g>
</g>
<!-- Node3&#45;&gt;Node4 -->
<g id="edge3" class="edge">
<title>Node3&#45;&gt;Node4</title>
<path fill="none" stroke="midnightblue" d="M1389.44,-313.98C1386.49,-313.63 1383.57,-313.3 1380.69,-313 1120.46,-285.45 811.25,-271.23 662.81,-265.54"/>
<polygon fill="midnightblue" stroke="midnightblue" points="662.53,-262.03 652.4,-265.15 662.26,-269.03 662.53,-262.03"/>
</g>
<!-- Node5 -->
<g id="node5" class="node">
<title>Node5</title>
<g id="a_node5"><a xlink:href="_factory_8_h.html" target="_top" xlink:title=" ">
<polygon fill="white" stroke="black" points="1753.69,-118 1753.69,-137 1887.69,-137 1887.69,-118 1753.69,-118"/>
<text text-anchor="middle" x="1820.69" y="-125" font-family="Helvetica,sans-Serif" font-size="10.00">amr&#45;wind/core/Factory.H</text>
</a>
</g>
</g>
<!-- Node4&#45;&gt;Node5 -->
<g id="edge4" class="edge">
<title>Node4&#45;&gt;Node5</title>
<path fill="none" stroke="midnightblue" d="M652.25,-261.15C867.85,-262.3 1471.02,-260.73 1661.69,-210 1689.34,-202.64 1759.73,-163.55 1796.89,-142.3"/>
<polygon fill="midnightblue" stroke="midnightblue" points="1799.07,-145.08 1806,-137.06 1795.58,-139.01 1799.07,-145.08"/>
</g>
<!-- Node11 -->
<g id="node11" class="node">
<title>Node11</title>
<g id="a_node11"><a xlink:href="_field_desc_types_8_h.html" target="_top" xlink:title=" ">
<polygon fill="white" stroke="black" points="498.69,-0.5 498.69,-19.5 674.69,-19.5 674.69,-0.5 498.69,-0.5"/>
<text text-anchor="middle" x="586.69" y="-7.5" font-family="Helvetica,sans-Serif" font-size="10.00">amr&#45;wind/core/FieldDescTypes.H</text>
</a>
</g>
</g>
<!-- Node4&#45;&gt;Node11 -->
<g id="edge10" class="edge">
<title>Node4&#45;&gt;Node11</title>
<path fill="none" stroke="midnightblue" d="M497.13,-258.9C355.16,-255.17 65.2,-243.5 34.69,-210 -11.4,-159.4 -11.7,-106.33 34.69,-56 64.73,-23.41 337.86,-14.42 488.32,-11.94"/>
<polygon fill="midnightblue" stroke="midnightblue" points="488.55,-15.44 498.5,-11.78 488.44,-8.44 488.55,-15.44"/>
</g>
<!-- Node12 -->
<g id="node12" class="node">
<title>Node12</title>
<g id="a_node12"><a xlink:href="_field_utils_8_h.html" target="_top" xlink:title=" ">
<polygon fill="white" stroke="black" points="142.69,-118 142.69,-137 288.69,-137 288.69,-118 142.69,-118"/>
<text text-anchor="middle" x="215.69" y="-125" font-family="Helvetica,sans-Serif" font-size="10.00">amr&#45;wind/core/FieldUtils.H</text>
</a>
</g>
</g>
<!-- Node4&#45;&gt;Node12 -->
<g id="edge11" class="edge">
<title>Node4&#45;&gt;Node12</title>
<path fill="none" stroke="midnightblue" d="M536.61,-246.5C465.89,-220.5 315.42,-165.17 248.71,-140.64"/>
<polygon fill="midnightblue" stroke="midnightblue" points="249.72,-137.28 239.12,-137.12 247.3,-143.85 249.72,-137.28"/>
</g>
<!-- Node13 -->
<g id="node13" class="node">
<title>Node13</title>
<g id="a_node13"><a xlink:title=" ">
<polygon fill="white" stroke="#bfbfbf" points="840.19,-0.5 840.19,-19.5 949.19,-19.5 949.19,-0.5 840.19,-0.5"/>
<text text-anchor="middle" x="894.69" y="-7.5" font-family="Helvetica,sans-Serif" font-size="10.00">AMReX_MultiFab.H</text>
</a>
</g>
</g>
<!-- Node4&#45;&gt;Node13 -->
<g id="edge50" class="edge">
<title>Node4&#45;&gt;Node13</title>
<path fill="none" stroke="midnightblue" d="M497.02,-255.47C324.84,-241.7 -63.65,-194.68 67.69,-56 74.23,-49.09 636.21,-22.8 829.92,-13.94"/>
<polygon fill="midnightblue" stroke="midnightblue" points="830.13,-17.43 839.96,-13.48 829.81,-10.44 830.13,-17.43"/>
</g>
<!-- Node15 -->
<g id="node15" class="node">
<title>Node15</title>
<g id="a_node15"><a xlink:href="_field_repo_8_h.html" target="_top" xlink:title=" ">
<polygon fill="white" stroke="black" points="584.19,-185 584.19,-204 733.19,-204 733.19,-185 584.19,-185"/>
<text text-anchor="middle" x="658.69" y="-192" font-family="Helvetica,sans-Serif" font-size="10.00">amr&#45;wind/core/FieldRepo.H</text>
</a>
</g>
</g>
<!-- Node4&#45;&gt;Node15 -->
<g id="edge15" class="edge">
<title>Node4&#45;&gt;Node15</title>
<path fill="none" stroke="midnightblue" d="M592.92,-246.4C606.66,-235.76 625.47,-221.2 639.46,-210.38"/>
<polygon fill="midnightblue" stroke="midnightblue" points="641.69,-213.08 647.45,-204.19 637.4,-207.55 641.69,-213.08"/>
</g>
<!-- Node6 -->
<g id="node6" class="node">
<title>Node6</title>
<g id="a_node6"><a xlink:title=" ">
<polygon fill="white" stroke="#bfbfbf" points="1753.69,-56.5 1753.69,-75.5 1811.69,-75.5 1811.69,-56.5 1753.69,-56.5"/>
<text text-anchor="middle" x="1782.69" y="-63.5" font-family="Helvetica,sans-Serif" font-size="10.00">memory</text>
</a>
</g>
</g>
<!-- Node5&#45;&gt;Node6 -->
<g id="edge5" class="edge">
<title>Node5&#45;&gt;Node6</title>
<path fill="none" stroke="midnightblue" d="M1815.24,-117.98C1809.6,-109.14 1800.63,-95.09 1793.53,-83.98"/>
<polygon fill="midnightblue" stroke="midnightblue" points="1796.46,-82.05 1788.12,-75.51 1790.56,-85.82 1796.46,-82.05"/>
</g>
<!-- Node7 -->
<g id="node7" class="node">
<title>Node7</title>
<g id="a_node7"><a xlink:title=" ">
<polygon fill="white" stroke="#bfbfbf" points="1604.19,-56.5 1604.19,-75.5 1697.19,-75.5 1697.19,-56.5 1604.19,-56.5"/>
<text text-anchor="middle" x="1650.69" y="-63.5" font-family="Helvetica,sans-Serif" font-size="10.00">unordered_map</text>
</a>
</g>
</g>
<!-- Node5&#45;&gt;Node7 -->
<g id="edge6" class="edge">
<title>Node5&#45;&gt;Node7</title>
<path fill="none" stroke="midnightblue" d="M1796.33,-117.98C1767.04,-107.72 1717.72,-90.46 1684.69,-78.9"/>
<polygon fill="midnightblue" stroke="midnightblue" points="1685.6,-75.51 1675,-75.51 1683.28,-82.12 1685.6,-75.51"/>
</g>
<!-- Node8 -->
<g id="node8" class="node">
<title>Node8</title>
<g id="a_node8"><a xlink:title=" ">
<polygon fill="white" stroke="#bfbfbf" points="2017.69,-56.5 2017.69,-75.5 2077.69,-75.5 2077.69,-56.5 2017.69,-56.5"/>
<text text-anchor="middle" x="2047.69" y="-63.5" font-family="Helvetica,sans-Serif" font-size="10.00">iostream</text>
</a>
</g>
</g>
<!-- Node5&#45;&gt;Node8 -->
<g id="edge7" class="edge">
<title>Node5&#45;&gt;Node8</title>
<path fill="none" stroke="midnightblue" d="M1853.21,-117.98C1893.93,-107.3 1963.66,-89.03 2007.62,-77.5"/>
<polygon fill="midnightblue" stroke="midnightblue" points="2008.62,-80.86 2017.4,-74.94 2006.84,-74.09 2008.62,-80.86"/>
</g>
<!-- Node9 -->
<g id="node9" class="node">
<title>Node9</title>
<g id="a_node9"><a xlink:title=" ">
<polygon fill="white" stroke="#bfbfbf" points="1909.69,-56.5 1909.69,-75.5 1999.69,-75.5 1999.69,-56.5 1909.69,-56.5"/>
<text text-anchor="middle" x="1954.69" y="-63.5" font-family="Helvetica,sans-Serif" font-size="10.00">AMReX_Print.H</text>
</a>
</g>
</g>
<!-- Node5&#45;&gt;Node9 -->
<g id="edge8" class="edge">
<title>Node5&#45;&gt;Node9</title>
<path fill="none" stroke="midnightblue" d="M1839.89,-117.98C1862.48,-107.95 1900.19,-91.2 1926.19,-79.65"/>
<polygon fill="midnightblue" stroke="midnightblue" points="1927.81,-82.77 1935.53,-75.51 1924.97,-76.37 1927.81,-82.77"/>
</g>
<!-- Node10 -->
<g id="node10" class="node">
<title>Node10</title>
<g id="a_node10"><a xlink:title=" ">
<polygon fill="white" stroke="#bfbfbf" points="1829.69,-56.5 1829.69,-75.5 1891.69,-75.5 1891.69,-56.5 1829.69,-56.5"/>
<text text-anchor="middle" x="1860.69" y="-63.5" font-family="Helvetica,sans-Serif" font-size="10.00">AMReX.H</text>
</a>
</g>
</g>
<!-- Node5&#45;&gt;Node10 -->
<g id="edge9" class="edge">
<title>Node5&#45;&gt;Node10</title>
<path fill="none" stroke="midnightblue" d="M1826.42,-117.98C1832.36,-109.14 1841.81,-95.09 1849.28,-83.98"/>
<polygon fill="midnightblue" stroke="midnightblue" points="1852.29,-85.76 1854.97,-75.51 1846.48,-81.86 1852.29,-85.76"/>
</g>
<!-- Node12&#45;&gt;Node11 -->
<g id="edge12" class="edge">
<title>Node12&#45;&gt;Node11</title>
<path fill="none" stroke="midnightblue" d="M217.51,-117.86C221.21,-102.6 231.17,-71.06 252.69,-56 289.71,-30.09 403.66,-19.06 488.22,-14.39"/>
<polygon fill="midnightblue" stroke="midnightblue" points="488.58,-17.88 498.38,-13.85 488.21,-10.89 488.58,-17.88"/>
</g>
<!-- Node12&#45;&gt;Node13 -->
<g id="edge13" class="edge">
<title>Node12&#45;&gt;Node13</title>
<path fill="none" stroke="midnightblue" d="M225.73,-117.85C244.49,-102.27 286.75,-69.83 328.69,-56 375.27,-40.64 691.5,-21.96 829.97,-14.41"/>
<polygon fill="midnightblue" stroke="midnightblue" points="830.23,-17.9 840.03,-13.87 829.85,-10.91 830.23,-17.9"/>
</g>
<!-- Node14 -->
<g id="node14" class="node">
<title>Node14</title>
<g id="a_node14"><a xlink:title=" ">
<polygon fill="white" stroke="#bfbfbf" points="76.69,-56.5 76.69,-75.5 200.69,-75.5 200.69,-56.5 76.69,-56.5"/>
<text text-anchor="middle" x="138.69" y="-63.5" font-family="Helvetica,sans-Serif" font-size="10.00">AMReX_Interpolater.H</text>
</a>
</g>
</g>
<!-- Node12&#45;&gt;Node14 -->
<g id="edge14" class="edge">
<title>Node12&#45;&gt;Node14</title>
<path fill="none" stroke="midnightblue" d="M204.66,-117.98C192.42,-108.52 172.46,-93.1 157.7,-81.69"/>
<polygon fill="midnightblue" stroke="midnightblue" points="159.75,-78.85 149.7,-75.51 155.47,-84.39 159.75,-78.85"/>
</g>
<!-- Node15&#45;&gt;Node7 -->
<g id="edge17" class="edge">
<title>Node15&#45;&gt;Node7</title>
<path fill="none" stroke="midnightblue" d="M733.44,-191.43C920.67,-185.89 1399.54,-169.31 1466.69,-143 1486.98,-135.05 1485.47,-122.29 1504.69,-112 1533.97,-96.32 1569.54,-85.21 1598.24,-77.95"/>
<polygon fill="midnightblue" stroke="midnightblue" points="1599.21,-81.32 1608.09,-75.55 1597.54,-74.52 1599.21,-81.32"/>
</g>
<!-- Node15&#45;&gt;Node11 -->
<g id="edge18" class="edge">
<title>Node15&#45;&gt;Node11</title>
<path fill="none" stroke="midnightblue" d="M602.14,-184.96C577.07,-178.06 549.87,-165.57 534.69,-143 513.11,-110.91 518.62,-91.17 534.69,-56 540.47,-43.36 551.74,-32.91 562.32,-25.27"/>
<polygon fill="midnightblue" stroke="midnightblue" points="564.54,-28 570.91,-19.53 560.65,-22.18 564.54,-28"/>
</g>
<!-- Node15&#45;&gt;Node12 -->
<g id="edge19" class="edge">
<title>Node15&#45;&gt;Node12</title>
<path fill="none" stroke="midnightblue" d="M592.71,-185C520.25,-175.49 400.51,-159.28 297.69,-143 289.48,-141.7 280.82,-140.25 272.33,-138.79"/>
<polygon fill="midnightblue" stroke="midnightblue" points="272.92,-135.34 262.47,-137.07 271.72,-142.24 272.92,-135.34"/>
</g>
<!-- Node15&#45;&gt;Node13 -->
<g id="edge48" class="edge">
<title>Node15&#45;&gt;Node13</title>
<path fill="none" stroke="midnightblue" d="M649.82,-184.74C627.16,-161.3 571.24,-96.22 605.69,-56 633.92,-23.03 753.33,-14.03 829.55,-11.68"/>
<polygon fill="midnightblue" stroke="midnightblue" points="830.1,-15.17 840,-11.4 829.91,-8.17 830.1,-15.17"/>
</g>
<!-- Node16 -->
<g id="node16" class="node">
<title>Node16</title>
<g id="a_node16"><a xlink:title=" ">
<polygon fill="white" stroke="#bfbfbf" points="1215.69,-0.5 1215.69,-19.5 1259.69,-19.5 1259.69,-0.5 1215.69,-0.5"/>
<text text-anchor="middle" x="1237.69" y="-7.5" font-family="Helvetica,sans-Serif" font-size="10.00">string</text>
</a>
</g>
</g>
<!-- Node15&#45;&gt;Node16 -->
<g id="edge16" class="edge">
<title>Node15&#45;&gt;Node16</title>
<path fill="none" stroke="midnightblue" d="M733.3,-192.39C841.3,-187.53 1043.87,-165.98 1186.69,-76 1205.21,-64.33 1219.77,-43.48 1228.51,-28.54"/>
<polygon fill="midnightblue" stroke="midnightblue" points="1231.61,-30.17 1233.4,-19.73 1225.49,-26.78 1231.61,-30.17"/>
</g>
<!-- Node17 -->
<g id="node17" class="node">
<title>Node17</title>
<g id="a_node17"><a xlink:href="_field_8_h.html" target="_top" xlink:title=" ">
<polygon fill="white" stroke="black" points="1333.69,-118 1333.69,-137 1457.69,-137 1457.69,-118 1333.69,-118"/>
<text text-anchor="middle" x="1395.69" y="-125" font-family="Helvetica,sans-Serif" font-size="10.00">amr&#45;wind/core/Field.H</text>
</a>
</g>
</g>
<!-- Node15&#45;&gt;Node17 -->
<g id="edge20" class="edge">
<title>Node15&#45;&gt;Node17</title>
<path fill="none" stroke="midnightblue" d="M733.3,-187.33C844.82,-178.06 1061.57,-159.82 1245.69,-143 1271.11,-140.68 1298.94,-138.02 1323.65,-135.62"/>
<polygon fill="midnightblue" stroke="midnightblue" points="1324.06,-139.1 1333.67,-134.64 1323.38,-132.13 1324.06,-139.1"/>
</g>
<!-- Node24 -->
<g id="node24" class="node">
<title>Node24</title>
<g id="a_node24"><a xlink:href="_int_field_8_h.html" target="_top" xlink:title=" ">
<polygon fill="white" stroke="black" points="307.19,-118 307.19,-137 444.19,-137 444.19,-118 307.19,-118"/>
<text text-anchor="middle" x="375.69" y="-125" font-family="Helvetica,sans-Serif" font-size="10.00">amr&#45;wind/core/IntField.H</text>
</a>
</g>
</g>
<!-- Node15&#45;&gt;Node24 -->
<g id="edge35" class="edge">
<title>Node15&#45;&gt;Node24</title>
<path fill="none" stroke="midnightblue" d="M621.4,-184.94C570.39,-173.22 478.84,-152.19 423.04,-139.38"/>
<polygon fill="midnightblue" stroke="midnightblue" points="423.59,-135.91 413.06,-137.08 422.02,-142.73 423.59,-135.91"/>
</g>
<!-- Node25 -->
<g id="node25" class="node">
<title>Node25</title>
<g id="a_node25"><a xlink:title=" ">
<polygon fill="white" stroke="#bfbfbf" points="370.69,-56.5 370.69,-75.5 482.69,-75.5 482.69,-56.5 370.69,-56.5"/>
<text text-anchor="middle" x="426.69" y="-63.5" font-family="Helvetica,sans-Serif" font-size="10.00">AMReX_iMultiFab.H</text>
</a>
</g>
</g>
<!-- Node15&#45;&gt;Node25 -->
<g id="edge49" class="edge">
<title>Node15&#45;&gt;Node25</title>
<path fill="none" stroke="midnightblue" d="M608.69,-184.98C575.11,-177.63 530.92,-164.67 496.69,-143 472.26,-127.54 450.85,-101.43 438.34,-84.2"/>
<polygon fill="midnightblue" stroke="midnightblue" points="440.95,-81.83 432.34,-75.67 435.23,-85.86 440.95,-81.83"/>
</g>
<!-- Node26 -->
<g id="node26" class="node">
<title>Node26</title>
<g id="a_node26"><a xlink:href="_scratch_field_8_h.html" target="_top" xlink:title=" ">
<polygon fill="white" stroke="black" points="687.69,-118 687.69,-137 847.69,-137 847.69,-118 687.69,-118"/>
<text text-anchor="middle" x="767.69" y="-125" font-family="Helvetica,sans-Serif" font-size="10.00">amr&#45;wind/core/ScratchField.H</text>
</a>
</g>
</g>
<!-- Node15&#45;&gt;Node26 -->
<g id="edge39" class="edge">
<title>Node15&#45;&gt;Node26</title>
<path fill="none" stroke="midnightblue" d="M673.39,-184.73C691.61,-173.87 722.89,-155.22 744.39,-142.39"/>
<polygon fill="midnightblue" stroke="midnightblue" points="746.43,-145.26 753.22,-137.13 742.84,-139.24 746.43,-145.26"/>
</g>
<!-- Node29 -->
<g id="node29" class="node">
<title>Node29</title>
<g id="a_node29"><a xlink:title=" ">
<polygon fill="white" stroke="#bfbfbf" points="1513.69,-118 1513.69,-137 1623.69,-137 1623.69,-118 1513.69,-118"/>
<text text-anchor="middle" x="1568.69" y="-125" font-family="Helvetica,sans-Serif" font-size="10.00">AMReX_AmrCore.H</text>
</a>
</g>
</g>
<!-- Node15&#45;&gt;Node29 -->
<g id="edge47" class="edge">
<title>Node15&#45;&gt;Node29</title>
<path fill="none" stroke="midnightblue" d="M733.29,-192.7C880.5,-190.3 1218.45,-180.79 1499.69,-143 1507.28,-141.98 1515.28,-140.59 1523.04,-139.08"/>
<polygon fill="midnightblue" stroke="midnightblue" points="1523.95,-142.46 1533.05,-137.03 1522.55,-135.61 1523.95,-142.46"/>
</g>
<!-- Node17&#45;&gt;Node6 -->
<g id="edge22" class="edge">
<title>Node17&#45;&gt;Node6</title>
<path fill="none" stroke="midnightblue" d="M1451.14,-117.98C1530.46,-105.78 1674.36,-83.66 1743.51,-73.02"/>
<polygon fill="midnightblue" stroke="midnightblue" points="1744.2,-76.46 1753.55,-71.48 1743.14,-69.54 1744.2,-76.46"/>
</g>
<!-- Node17&#45;&gt;Node7 -->
<g id="edge23" class="edge">
<title>Node17&#45;&gt;Node7</title>
<path fill="none" stroke="midnightblue" d="M1432.22,-117.98C1477.58,-107.39 1554.96,-89.34 1604.42,-77.8"/>
<polygon fill="midnightblue" stroke="midnightblue" points="1605.28,-81.19 1614.22,-75.51 1603.69,-74.37 1605.28,-81.19"/>
</g>
<!-- Node17&#45;&gt;Node11 -->
<g id="edge29" class="edge">
<title>Node17&#45;&gt;Node11</title>
<path fill="none" stroke="midnightblue" d="M1333.4,-125.39C1244.14,-122.52 1075.32,-112.28 936.69,-76 914.73,-70.25 911.54,-62.16 889.69,-56 822.68,-37.1 744.95,-25.76 685.01,-19.19"/>
<polygon fill="midnightblue" stroke="midnightblue" points="685.1,-15.69 674.79,-18.1 684.36,-22.65 685.1,-15.69"/>
</g>
<!-- Node17&#45;&gt;Node13 -->
<g id="edge25" class="edge">
<title>Node17&#45;&gt;Node13</title>
<path fill="none" stroke="midnightblue" d="M1333.58,-123.55C1231.77,-117.97 1034.32,-103.88 970.69,-76 945.46,-64.95 922.32,-42.64 908.36,-27.26"/>
<polygon fill="midnightblue" stroke="midnightblue" points="910.82,-24.76 901.6,-19.55 905.56,-29.38 910.82,-24.76"/>
</g>
<!-- Node17&#45;&gt;Node16 -->
<g id="edge21" class="edge">
<title>Node17&#45;&gt;Node16</title>
<path fill="none" stroke="midnightblue" d="M1442.9,-117.96C1485.06,-109.26 1542.17,-94.44 1555.69,-76 1560.94,-68.83 1561.52,-62.71 1555.69,-56 1518.93,-13.67 1343.67,-10.08 1270.21,-10.48"/>
<polygon fill="midnightblue" stroke="midnightblue" points="1270.11,-6.98 1260.14,-10.57 1270.17,-13.98 1270.11,-6.98"/>
</g>
<!-- Node18 -->
<g id="node18" class="node">
<title>Node18</title>
<g id="a_node18"><a xlink:title=" ">
<polygon fill="white" stroke="#bfbfbf" points="1365.69,-56.5 1365.69,-75.5 1429.69,-75.5 1429.69,-56.5 1365.69,-56.5"/>
<text text-anchor="middle" x="1397.69" y="-63.5" font-family="Helvetica,sans-Serif" font-size="10.00">algorithm</text>
</a>
</g>
</g>
<!-- Node17&#45;&gt;Node18 -->
<g id="edge24" class="edge">
<title>Node17&#45;&gt;Node18</title>
<path fill="none" stroke="midnightblue" d="M1395.98,-117.98C1396.26,-109.58 1396.7,-96.48 1397.06,-85.66"/>
<polygon fill="midnightblue" stroke="midnightblue" points="1400.56,-85.62 1397.4,-75.51 1393.57,-85.39 1400.56,-85.62"/>
</g>
<!-- Node19 -->
<g id="node19" class="node">
<title>Node19</title>
<g id="a_node19"><a xlink:title=" ">
<polygon fill="white" stroke="#bfbfbf" points="1448.19,-56.5 1448.19,-75.5 1547.19,-75.5 1547.19,-56.5 1448.19,-56.5"/>
<text text-anchor="middle" x="1497.69" y="-63.5" font-family="Helvetica,sans-Serif" font-size="10.00">AMReX_BCRec.H</text>
</a>
</g>
</g>
<!-- Node17&#45;&gt;Node19 -->
<g id="edge26" class="edge">
<title>Node17&#45;&gt;Node19</title>
<path fill="none" stroke="midnightblue" d="M1410.3,-117.98C1427.04,-108.21 1454.69,-92.08 1474.41,-80.58"/>
<polygon fill="midnightblue" stroke="midnightblue" points="1476.23,-83.57 1483.1,-75.51 1472.7,-77.52 1476.23,-83.57"/>
</g>
<!-- Node20 -->
<g id="node20" class="node">
<title>Node20</title>
<g id="a_node20"><a xlink:title=" ">
<polygon fill="white" stroke="#bfbfbf" points="1260.19,-56.5 1260.19,-75.5 1347.19,-75.5 1347.19,-56.5 1260.19,-56.5"/>
<text text-anchor="middle" x="1303.69" y="-63.5" font-family="Helvetica,sans-Serif" font-size="10.00">AMReX_Gpu.H</text>
</a>
</g>
</g>
<!-- Node17&#45;&gt;Node20 -->
<g id="edge27" class="edge">
<title>Node17&#45;&gt;Node20</title>
<path fill="none" stroke="midnightblue" d="M1382.51,-117.98C1367.61,-108.34 1343.14,-92.52 1325.42,-81.05"/>
<polygon fill="midnightblue" stroke="midnightblue" points="1327.14,-78 1316.85,-75.51 1323.34,-83.88 1327.14,-78"/>
</g>
<!-- Node21 -->
<g id="node21" class="node">
<title>Node21</title>
<g id="a_node21"><a xlink:href="incflo__enums_8_h.html" target="_top" xlink:title=" ">
<polygon fill="white" stroke="black" points="2096.19,-56.5 2096.19,-75.5 2237.19,-75.5 2237.19,-56.5 2096.19,-56.5"/>
<text text-anchor="middle" x="2166.69" y="-63.5" font-family="Helvetica,sans-Serif" font-size="10.00">amr&#45;wind/incflo_enums.H</text>
</a>
</g>
</g>
<!-- Node17&#45;&gt;Node21 -->
<g id="edge28" class="edge">
<title>Node17&#45;&gt;Node21</title>
<path fill="none" stroke="midnightblue" d="M1453.87,-117.99C1470.27,-115.8 1488.16,-113.61 1504.69,-112 1759.36,-87.22 1826.8,-98.21 2085.95,-76.02"/>
<polygon fill="midnightblue" stroke="midnightblue" points="2086.38,-79.49 2096.04,-75.14 2085.77,-72.52 2086.38,-79.49"/>
</g>
<!-- Node22 -->
<g id="node22" class="node">
<title>Node22</title>
<g id="a_node22"><a xlink:href="_view_field_8_h.html" target="_top" xlink:title=" ">
<polygon fill="white" stroke="black" points="979.69,-56.5 979.69,-75.5 1127.69,-75.5 1127.69,-56.5 979.69,-56.5"/>
<text text-anchor="middle" x="1053.69" y="-63.5" font-family="Helvetica,sans-Serif" font-size="10.00">amr&#45;wind/core/ViewField.H</text>
</a>
</g>
</g>
<!-- Node17&#45;&gt;Node22 -->
<g id="edge30" class="edge">
<title>Node17&#45;&gt;Node22</title>
<path fill="none" stroke="midnightblue" d="M1346.69,-117.98C1284.85,-107.22 1178.59,-88.73 1112.46,-77.22"/>
<polygon fill="midnightblue" stroke="midnightblue" points="1113.05,-73.77 1102.6,-75.51 1111.85,-80.67 1113.05,-73.77"/>
</g>
<!-- Node22&#45;&gt;Node11 -->
<g id="edge32" class="edge">
<title>Node22&#45;&gt;Node11</title>
<path fill="none" stroke="midnightblue" d="M979.95,-56.47C895.8,-46.74 758.48,-30.86 670.39,-20.68"/>
<polygon fill="midnightblue" stroke="midnightblue" points="670.76,-17.2 660.43,-19.53 669.96,-24.15 670.76,-17.2"/>
</g>
<!-- Node22&#45;&gt;Node13 -->
<g id="edge33" class="edge">
<title>Node22&#45;&gt;Node13</title>
<path fill="none" stroke="midnightblue" d="M1028.49,-56.44C1001.75,-47.36 959.29,-32.94 929.38,-22.78"/>
<polygon fill="midnightblue" stroke="midnightblue" points="930.36,-19.42 919.77,-19.52 928.11,-26.05 930.36,-19.42"/>
</g>
<!-- Node22&#45;&gt;Node16 -->
<g id="edge31" class="edge">
<title>Node22&#45;&gt;Node16</title>
<path fill="none" stroke="midnightblue" d="M1082.84,-56.44C1116.42,-46.59 1171.37,-30.46 1205.99,-20.3"/>
<polygon fill="midnightblue" stroke="midnightblue" points="1206.99,-23.66 1215.6,-17.48 1205.02,-16.94 1206.99,-23.66"/>
</g>
<!-- Node23 -->
<g id="node23" class="node">
<title>Node23</title>
<g id="a_node23"><a xlink:title=" ">
<polygon fill="white" stroke="#bfbfbf" points="1099.69,-0.5 1099.69,-19.5 1197.69,-19.5 1197.69,-0.5 1099.69,-0.5"/>
<text text-anchor="middle" x="1148.69" y="-7.5" font-family="Helvetica,sans-Serif" font-size="10.00">AMReX_Vector.H</text>
</a>
</g>
</g>
<!-- Node22&#45;&gt;Node23 -->
<g id="edge34" class="edge">
<title>Node22&#45;&gt;Node23</title>
<path fill="none" stroke="midnightblue" d="M1068.95,-56.32C1083.91,-47.82 1106.94,-34.73 1124.42,-24.8"/>
<polygon fill="midnightblue" stroke="midnightblue" points="1126.5,-27.64 1133.46,-19.65 1123.04,-21.55 1126.5,-27.64"/>
</g>
<!-- Node24&#45;&gt;Node11 -->
<g id="edge37" class="edge">
<title>Node24&#45;&gt;Node11</title>
<path fill="none" stroke="midnightblue" d="M362.49,-117.82C343.17,-104.07 311.27,-76.72 328.69,-56 349.17,-31.64 424.42,-20.46 488.41,-15.34"/>
<polygon fill="midnightblue" stroke="midnightblue" points="488.86,-18.81 498.57,-14.57 488.33,-11.83 488.86,-18.81"/>
</g>
<!-- Node24&#45;&gt;Node16 -->
<g id="edge36" class="edge">
<title>Node24&#45;&gt;Node16</title>
<path fill="none" stroke="midnightblue" d="M369.81,-117.81C360.62,-103.02 345.46,-72.94 361.69,-56 392.9,-23.43 1100.15,-27.23 1205.53,-19.21"/>
<polygon fill="midnightblue" stroke="midnightblue" points="1205.92,-22.69 1215.48,-18.14 1205.17,-15.73 1205.92,-22.69"/>
</g>
<!-- Node24&#45;&gt;Node25 -->
<g id="edge38" class="edge">
<title>Node24&#45;&gt;Node25</title>
<path fill="none" stroke="midnightblue" d="M383,-117.98C390.72,-108.96 403.1,-94.52 412.71,-83.31"/>
<polygon fill="midnightblue" stroke="midnightblue" points="415.54,-85.38 419.4,-75.51 410.23,-80.82 415.54,-85.38"/>
</g>
<!-- Node26&#45;&gt;Node11 -->
<g id="edge42" class="edge">
<title>Node26&#45;&gt;Node11</title>
<path fill="none" stroke="midnightblue" d="M689.38,-117.94C659.7,-111 627.78,-98.49 605.69,-76 593.73,-63.82 589.22,-44.55 587.56,-30.15"/>
<polygon fill="midnightblue" stroke="midnightblue" points="591.03,-29.57 586.75,-19.87 584.05,-30.11 591.03,-29.57"/>
</g>
<!-- Node26&#45;&gt;Node13 -->
<g id="edge44" class="edge">
<title>Node26&#45;&gt;Node13</title>
<path fill="none" stroke="midnightblue" d="M777.23,-117.82C798.56,-98.42 850.34,-51.33 877.47,-26.66"/>
<polygon fill="midnightblue" stroke="midnightblue" points="879.99,-29.1 885.03,-19.78 875.28,-23.92 879.99,-29.1"/>
</g>
<!-- Node26&#45;&gt;Node16 -->
<g id="edge40" class="edge">
<title>Node26&#45;&gt;Node16</title>
<path fill="none" stroke="midnightblue" d="M848.02,-121.2C945.27,-113.9 1102.73,-98.98 1156.69,-76 1183.25,-64.69 1208.26,-42.1 1223.28,-26.77"/>
<polygon fill="midnightblue" stroke="midnightblue" points="1225.83,-29.17 1230.18,-19.51 1220.76,-24.35 1225.83,-29.17"/>
</g>
<!-- Node26&#45;&gt;Node22 -->
<g id="edge43" class="edge">
<title>Node26&#45;&gt;Node22</title>
<path fill="none" stroke="midnightblue" d="M808.67,-117.98C859.85,-107.33 947.42,-89.11 1002.83,-77.58"/>
<polygon fill="midnightblue" stroke="midnightblue" points="1003.71,-80.97 1012.79,-75.51 1002.28,-74.12 1003.71,-80.97"/>
</g>
<!-- Node26&#45;&gt;Node23 -->
<g id="edge45" class="edge">
<title>Node26&#45;&gt;Node23</title>
<path fill="none" stroke="midnightblue" d="M847.81,-126.16C943.72,-123.99 1096.46,-114.39 1136.69,-76 1148.99,-64.26 1151.07,-44.32 1150.64,-29.62"/>
<polygon fill="midnightblue" stroke="midnightblue" points="1154.13,-29.35 1149.95,-19.62 1147.15,-29.83 1154.13,-29.35"/>
</g>
<!-- Node27 -->
<g id="node27" class="node">
<title>Node27</title>
<g id="a_node27"><a xlink:title=" ">
<polygon fill="white" stroke="#bfbfbf" points="764.19,-56.5 764.19,-75.5 809.19,-75.5 809.19,-56.5 764.19,-56.5"/>
<text text-anchor="middle" x="786.69" y="-63.5" font-family="Helvetica,sans-Serif" font-size="10.00">utility</text>
</a>
</g>
</g>
<!-- Node26&#45;&gt;Node27 -->
<g id="edge41" class="edge">
<title>Node26&#45;&gt;Node27</title>
<path fill="none" stroke="midnightblue" d="M770.41,-117.98C773.12,-109.49 777.36,-96.2 780.84,-85.32"/>
<polygon fill="midnightblue" stroke="midnightblue" points="784.26,-86.1 783.97,-75.51 777.6,-83.97 784.26,-86.1"/>
</g>
<!-- Node28 -->
<g id="node28" class="node">
<title>Node28</title>
<g id="a_node28"><a xlink:title=" ">
<polygon fill="white" stroke="#bfbfbf" points="615.19,-56.5 615.19,-75.5 746.19,-75.5 746.19,-56.5 615.19,-56.5"/>
<text text-anchor="middle" x="680.69" y="-63.5" font-family="Helvetica,sans-Serif" font-size="10.00">AMReX_PhysBCFunct.H</text>
</a>
</g>
</g>
<!-- Node26&#45;&gt;Node28 -->
<g id="edge46" class="edge">
<title>Node26&#45;&gt;Node28</title>
<path fill="none" stroke="midnightblue" d="M755.22,-117.98C741.27,-108.43 718.42,-92.81 701.7,-81.37"/>
<polygon fill="midnightblue" stroke="midnightblue" points="703.36,-78.27 693.13,-75.51 699.41,-84.04 703.36,-78.27"/>
</g>
<!-- Node30&#45;&gt;Node15 -->
<g id="edge57" class="edge">
<title>Node30&#45;&gt;Node15</title>
<path fill="none" stroke="midnightblue" d="M1762.67,-257.25C1572.54,-246.62 967.71,-212.79 743.43,-200.24"/>
<polygon fill="midnightblue" stroke="midnightblue" points="743.55,-196.74 733.37,-199.68 743.15,-203.73 743.55,-196.74"/>
</g>
<!-- Node30&#45;&gt;Node29 -->
<g id="edge52" class="edge">
<title>Node30&#45;&gt;Node29</title>
<path fill="none" stroke="midnightblue" d="M1804.15,-251.84C1761.16,-229.32 1645.6,-168.79 1594.08,-141.8"/>
<polygon fill="midnightblue" stroke="midnightblue" points="1595.44,-138.56 1584.96,-137.02 1592.19,-144.76 1595.44,-138.56"/>
</g>
<!-- Node31 -->
<g id="node31" class="node">
<title>Node31</title>
<g id="a_node31"><a xlink:href="_sim_time_8_h.html" target="_top" xlink:title=" ">
<polygon fill="white" stroke="black" points="2658.69,-185 2658.69,-204 2802.69,-204 2802.69,-185 2658.69,-185"/>
<text text-anchor="middle" x="2730.69" y="-192" font-family="Helvetica,sans-Serif" font-size="10.00">amr&#45;wind/core/SimTime.H</text>
</a>
</g>
</g>
<!-- Node30&#45;&gt;Node31 -->
<g id="edge53" class="edge">
<title>Node30&#45;&gt;Node31</title>
<path fill="none" stroke="midnightblue" d="M1879,-256.34C2035.79,-245.14 2466.82,-214.35 2648.36,-201.38"/>
<polygon fill="midnightblue" stroke="midnightblue" points="2648.66,-204.87 2658.39,-200.66 2648.16,-197.89 2648.66,-204.87"/>
</g>
<!-- Node35 -->
<g id="node35" class="node">
<title>Node35</title>
<g id="a_node35"><a xlink:href="_p_d_e_base_8_h.html" target="_top" xlink:title=" ">
<polygon fill="white" stroke="black" points="2165.19,-179.5 2165.19,-209.5 2320.19,-209.5 2320.19,-179.5 2165.19,-179.5"/>
<text text-anchor="start" x="2173.19" y="-197.5" font-family="Helvetica,sans-Serif" font-size="10.00">amr&#45;wind/equation_systems</text>
<text text-anchor="middle" x="2242.69" y="-186.5" font-family="Helvetica,sans-Serif" font-size="10.00">/PDEBase.H</text>
</a>
</g>
</g>
<!-- Node30&#45;&gt;Node35 -->
<g id="edge58" class="edge">
<title>Node30&#45;&gt;Node35</title>
<path fill="none" stroke="midnightblue" d="M1876.29,-251.94C1947.37,-240.99 2071.25,-221.91 2155.07,-209"/>
<polygon fill="midnightblue" stroke="midnightblue" points="2155.74,-212.43 2165.09,-207.45 2154.67,-205.52 2155.74,-212.43"/>
</g>
<!-- Node39 -->
<g id="node39" class="node">
<title>Node39</title>
<g id="a_node39"><a xlink:href="_physics_8_h.html" target="_top" xlink:title=" ">
<polygon fill="white" stroke="black" points="1913.19,-185 1913.19,-204 2050.19,-204 2050.19,-185 1913.19,-185"/>
<text text-anchor="middle" x="1981.69" y="-192" font-family="Helvetica,sans-Serif" font-size="10.00">amr&#45;wind/core/Physics.H</text>
</a>
</g>
</g>
<!-- Node30&#45;&gt;Node39 -->
<g id="edge70" class="edge">
<title>Node30&#45;&gt;Node39</title>
<path fill="none" stroke="midnightblue" d="M1842.07,-251.87C1870.05,-240.57 1919.28,-220.7 1951.18,-207.82"/>
<polygon fill="midnightblue" stroke="midnightblue" points="1952.51,-211.05 1960.48,-204.06 1949.89,-204.56 1952.51,-211.05"/>
</g>
<!-- Node41 -->
<g id="node41" class="node">
<title>Node41</title>
<g id="a_node41"><a xlink:href="_mesh_map_8_h.html" target="_top" xlink:title=" ">
<polygon fill="white" stroke="black" points="1746.69,-185 1746.69,-204 1894.69,-204 1894.69,-185 1746.69,-185"/>
<text text-anchor="middle" x="1820.69" y="-192" font-family="Helvetica,sans-Serif" font-size="10.00">amr&#45;wind/core/MeshMap.H</text>
</a>
</g>
</g>
<!-- Node30&#45;&gt;Node41 -->
<g id="edge75" class="edge">
<title>Node30&#45;&gt;Node41</title>
<path fill="none" stroke="midnightblue" d="M1820.69,-251.73C1820.69,-242.18 1820.69,-226.62 1820.69,-214.28"/>
<polygon fill="midnightblue" stroke="midnightblue" points="1824.19,-214.13 1820.69,-204.13 1817.19,-214.13 1824.19,-214.13"/>
</g>
<!-- Node32 -->
<g id="node32" class="node">
<title>Node32</title>
<g id="a_node32"><a xlink:title=" ">
<polygon fill="white" stroke="#bfbfbf" points="2619.69,-118 2619.69,-137 2711.69,-137 2711.69,-118 2619.69,-118"/>
<text text-anchor="middle" x="2665.69" y="-125" font-family="Helvetica,sans-Serif" font-size="10.00">AMReX_REAL.H</text>
</a>
</g>
</g>
<!-- Node31&#45;&gt;Node32 -->
<g id="edge54" class="edge">
<title>Node31&#45;&gt;Node32</title>
<path fill="none" stroke="midnightblue" d="M2721.92,-184.73C2711.59,-174.4 2694.23,-157.04 2681.52,-144.33"/>
<polygon fill="midnightblue" stroke="midnightblue" points="2683.86,-141.72 2674.32,-137.13 2678.91,-146.67 2683.86,-141.72"/>
</g>
<!-- Node33 -->
<g id="node33" class="node">
<title>Node33</title>
<g id="a_node33"><a xlink:title=" ">
<polygon fill="white" stroke="#bfbfbf" points="2729.69,-118 2729.69,-137 2863.69,-137 2863.69,-118 2729.69,-118"/>
<text text-anchor="middle" x="2796.69" y="-125" font-family="Helvetica,sans-Serif" font-size="10.00">AMReX_GpuQualifiers.H</text>
</a>
</g>
</g>
<!-- Node31&#45;&gt;Node33 -->
<g id="edge55" class="edge">
<title>Node31&#45;&gt;Node33</title>
<path fill="none" stroke="midnightblue" d="M2739.59,-184.73C2750.08,-174.4 2767.71,-157.04 2780.61,-144.33"/>
<polygon fill="midnightblue" stroke="midnightblue" points="2783.26,-146.64 2787.93,-137.13 2778.35,-141.65 2783.26,-146.64"/>
</g>
<!-- Node34 -->
<g id="node34" class="node">
<title>Node34</title>
<g id="a_node34"><a xlink:title=" ">
<polygon fill="white" stroke="#bfbfbf" points="2881.69,-118 2881.69,-137 2997.69,-137 2997.69,-118 2881.69,-118"/>
<text text-anchor="middle" x="2939.69" y="-125" font-family="Helvetica,sans-Serif" font-size="10.00">AMReX_Extension.H</text>
</a>
</g>
</g>
<!-- Node31&#45;&gt;Node34 -->
<g id="edge56" class="edge">
<title>Node31&#45;&gt;Node34</title>
<path fill="none" stroke="midnightblue" d="M2758.44,-184.87C2795.47,-173.35 2861.16,-152.92 2902.46,-140.08"/>
<polygon fill="midnightblue" stroke="midnightblue" points="2903.64,-143.38 2912.15,-137.06 2901.57,-136.69 2903.64,-143.38"/>
</g>
<!-- Node35&#45;&gt;Node5 -->
<g id="edge60" class="edge">
<title>Node35&#45;&gt;Node5</title>
<path fill="none" stroke="midnightblue" d="M2165.13,-183.07C2095.12,-173.43 1989.34,-158.33 1897.69,-143 1890.05,-141.72 1882,-140.29 1874.09,-138.85"/>
<polygon fill="midnightblue" stroke="midnightblue" points="1874.68,-135.4 1864.21,-137.02 1873.4,-142.28 1874.68,-135.4"/>
</g>
<!-- Node35&#45;&gt;Node11 -->
<g id="edge68" class="edge">
<title>Node35&#45;&gt;Node11</title>
<path fill="none" stroke="midnightblue" d="M2248.8,-179.48C2259.86,-151.67 2279.2,-89.35 2246.69,-56 2219.22,-27.83 870.02,-21.23 830.69,-20 782.73,-18.51 729.49,-16.57 685,-14.88"/>
<polygon fill="midnightblue" stroke="midnightblue" points="684.9,-11.38 674.77,-14.49 684.63,-18.37 684.9,-11.38"/>
</g>
<!-- Node35&#45;&gt;Node16 -->
<g id="edge59" class="edge">
<title>Node35&#45;&gt;Node16</title>
<path fill="none" stroke="midnightblue" d="M2273.99,-179.44C2325.43,-154.55 2418.03,-101.09 2374.69,-56 2335.41,-15.13 1452.3,-11.37 1270.31,-11.03"/>
<polygon fill="midnightblue" stroke="midnightblue" points="1270.05,-7.53 1260.05,-11.02 1270.04,-14.53 1270.05,-7.53"/>
</g>
<!-- Node35&#45;&gt;Node21 -->
<g id="edge69" class="edge">
<title>Node35&#45;&gt;Node21</title>
<path fill="none" stroke="midnightblue" d="M2234.27,-179.48C2220.34,-156.31 2192.57,-110.07 2177.32,-84.69"/>
<polygon fill="midnightblue" stroke="midnightblue" points="2180.12,-82.56 2171.97,-75.79 2174.12,-86.16 2180.12,-82.56"/>
</g>
<!-- Node36 -->
<g id="node36" class="node">
<title>Node36</title>
<g id="a_node36"><a xlink:href="_coll_mgr_8_h.html" target="_top" xlink:title=" ">
<polygon fill="white" stroke="black" points="2039.19,-118 2039.19,-137 2176.19,-137 2176.19,-118 2039.19,-118"/>
<text text-anchor="middle" x="2107.69" y="-125" font-family="Helvetica,sans-Serif" font-size="10.00">amr&#45;wind/core/CollMgr.H</text>
</a>
</g>
</g>
<!-- Node35&#45;&gt;Node36 -->
<g id="edge61" class="edge">
<title>Node35&#45;&gt;Node36</title>
<path fill="none" stroke="midnightblue" d="M2213.4,-179.4C2189.92,-168.09 2157.25,-152.36 2134.46,-141.39"/>
<polygon fill="midnightblue" stroke="midnightblue" points="2135.89,-138.19 2125.36,-137.01 2132.85,-144.5 2135.89,-138.19"/>
</g>
<!-- Node37 -->
<g id="node37" class="node">
<title>Node37</title>
<g id="a_node37"><a xlink:href="_p_d_e_fields_8_h.html" target="_top" xlink:title=" ">
<polygon fill="white" stroke="black" points="2446.19,-112.5 2446.19,-142.5 2601.19,-142.5 2601.19,-112.5 2446.19,-112.5"/>
<text text-anchor="start" x="2454.19" y="-130.5" font-family="Helvetica,sans-Serif" font-size="10.00">amr&#45;wind/equation_systems</text>
<text text-anchor="middle" x="2523.69" y="-119.5" font-family="Helvetica,sans-Serif" font-size="10.00">/PDEFields.H</text>
</a>
</g>
</g>
<!-- Node35&#45;&gt;Node37 -->
<g id="edge66" class="edge">
<title>Node35&#45;&gt;Node37</title>
<path fill="none" stroke="midnightblue" d="M2303.32,-179.48C2347.21,-169.32 2406.67,-155.57 2452.77,-144.91"/>
<polygon fill="midnightblue" stroke="midnightblue" points="2453.73,-148.27 2462.69,-142.61 2452.15,-141.45 2453.73,-148.27"/>
</g>
<!-- Node36&#45;&gt;Node6 -->
<g id="edge63" class="edge">
<title>Node36&#45;&gt;Node6</title>
<path fill="none" stroke="midnightblue" d="M2062.92,-117.94C2052.36,-115.96 2041.13,-113.88 2030.69,-112 1940.58,-95.79 1915.15,-94.96 1821.58,-76.08"/>
<polygon fill="midnightblue" stroke="midnightblue" points="1822.19,-72.63 1811.69,-74.07 1820.8,-79.49 1822.19,-72.63"/>
</g>
<!-- Node36&#45;&gt;Node7 -->
<g id="edge64" class="edge">
<title>Node36&#45;&gt;Node7</title>
<path fill="none" stroke="midnightblue" d="M2065.01,-117.93C2053.87,-115.83 2041.85,-113.71 2030.69,-112 1916.39,-94.49 1781.84,-79.99 1707.43,-72.5"/>
<polygon fill="midnightblue" stroke="midnightblue" points="1707.63,-69 1697.33,-71.49 1706.93,-75.97 1707.63,-69"/>
</g>
<!-- Node36&#45;&gt;Node16 -->
<g id="edge62" class="edge">
<title>Node36&#45;&gt;Node16</title>
<path fill="none" stroke="midnightblue" d="M2176.57,-126.89C2267.83,-125.23 2411.19,-113.78 2355.69,-56 2317.12,-15.84 1450.57,-11.52 1270.34,-11.06"/>
<polygon fill="midnightblue" stroke="midnightblue" points="1270.18,-7.56 1260.17,-11.03 1270.16,-14.56 1270.18,-7.56"/>
</g>
<!-- Node36&#45;&gt;Node23 -->
<g id="edge65" class="edge">
<title>Node36&#45;&gt;Node23</title>
<path fill="none" stroke="midnightblue" d="M2161.53,-117.91C2212.6,-107.63 2277.33,-87.72 2246.69,-56 2207.93,-15.88 1329.38,-24.73 1208.16,-19.67"/>
<polygon fill="midnightblue" stroke="midnightblue" points="1208.19,-16.17 1198,-19.06 1207.77,-23.16 1208.19,-16.17"/>
</g>
<!-- Node38 -->
<g id="node38" class="node">
<title>Node38</title>
<g id="a_node38"><a xlink:title=" ">
<polygon fill="white" stroke="#bfbfbf" points="2499.69,-56.5 2499.69,-75.5 2547.69,-75.5 2547.69,-56.5 2499.69,-56.5"/>
<text text-anchor="middle" x="2523.69" y="-63.5" font-family="Helvetica,sans-Serif" font-size="10.00">iosfwd</text>
</a>
</g>
</g>
<!-- Node37&#45;&gt;Node38 -->
<g id="edge67" class="edge">
<title>Node37&#45;&gt;Node38</title>
<path fill="none" stroke="midnightblue" d="M2523.69,-112.4C2523.69,-104.47 2523.69,-94.46 2523.69,-85.86"/>
<polygon fill="midnightblue" stroke="midnightblue" points="2527.19,-85.66 2523.69,-75.66 2520.19,-85.66 2527.19,-85.66"/>
</g>
<!-- Node39&#45;&gt;Node5 -->
<g id="edge71" class="edge">
<title>Node39&#45;&gt;Node5</title>
<path fill="none" stroke="midnightblue" d="M1960.31,-184.87C1932.33,-173.57 1883.1,-153.7 1851.2,-140.82"/>
<polygon fill="midnightblue" stroke="midnightblue" points="1852.48,-137.56 1841.9,-137.06 1849.86,-144.05 1852.48,-137.56"/>
</g>
<!-- Node39&#45;&gt;Node13 -->
<g id="edge73" class="edge">
<title>Node39&#45;&gt;Node13</title>
<path fill="none" stroke="midnightblue" d="M2038.73,-184.96C2135.59,-168.31 2315.32,-126.8 2246.69,-56 2201.97,-9.86 1154.89,-22.47 1090.69,-20 1047.13,-18.32 998.14,-16.07 960.04,-14.24"/>
<polygon fill="midnightblue" stroke="midnightblue" points="959.75,-10.72 949.6,-13.74 959.41,-17.72 959.75,-10.72"/>
</g>
<!-- Node39&#45;&gt;Node36 -->
<g id="edge72" class="edge">
<title>Node39&#45;&gt;Node36</title>
<path fill="none" stroke="midnightblue" d="M1998.42,-184.87C2019.79,-173.84 2056.99,-154.66 2081.97,-141.77"/>
<polygon fill="midnightblue" stroke="midnightblue" points="2083.61,-144.86 2090.89,-137.17 2080.4,-138.64 2083.61,-144.86"/>
</g>
<!-- Node40 -->
<g id="node40" class="node">
<title>Node40</title>
<g id="a_node40"><a xlink:title=" ">
<polygon fill="white" stroke="#bfbfbf" points="1906.19,-118 1906.19,-137 2021.19,-137 2021.19,-118 1906.19,-118"/>
<text text-anchor="middle" x="1963.69" y="-125" font-family="Helvetica,sans-Serif" font-size="10.00">AMReX_Geometry.H</text>
</a>
</g>
</g>
<!-- Node39&#45;&gt;Node40 -->
<g id="edge74" class="edge">
<title>Node39&#45;&gt;Node40</title>
<path fill="none" stroke="midnightblue" d="M1979.26,-184.73C1976.59,-175.09 1972.22,-159.3 1968.79,-146.91"/>
<polygon fill="midnightblue" stroke="midnightblue" points="1972.12,-145.83 1966.08,-137.13 1965.37,-147.7 1972.12,-145.83"/>
</g>
<!-- Node41&#45;&gt;Node5 -->
<g id="edge77" class="edge">
<title>Node41&#45;&gt;Node5</title>
<path fill="none" stroke="midnightblue" d="M1820.69,-184.73C1820.69,-175.18 1820.69,-159.62 1820.69,-147.28"/>
<polygon fill="midnightblue" stroke="midnightblue" points="1824.19,-147.13 1820.69,-137.13 1817.19,-147.13 1824.19,-147.13"/>
</g>
<!-- Node41&#45;&gt;Node13 -->
<g id="edge79" class="edge">
<title>Node41&#45;&gt;Node13</title>
<path fill="none" stroke="midnightblue" d="M1801.9,-184.9C1785,-176.36 1760.47,-161.81 1744.69,-143 1717.57,-110.68 1741.34,-80.07 1706.69,-56 1699.03,-50.68 1150.51,-23.47 959.45,-14.14"/>
<polygon fill="midnightblue" stroke="midnightblue" points="959.43,-10.64 949.27,-13.65 959.09,-17.63 959.43,-10.64"/>
</g>
<!-- Node41&#45;&gt;Node17 -->
<g id="edge78" class="edge">
<title>Node41&#45;&gt;Node17</title>
<path fill="none" stroke="midnightblue" d="M1764.69,-184.94C1686.47,-172.97 1544.77,-151.3 1461.57,-138.58"/>
<polygon fill="midnightblue" stroke="midnightblue" points="1461.89,-135.08 1451.47,-137.03 1460.83,-142 1461.89,-135.08"/>
</g>
<!-- Node41&#45;&gt;Node36 -->
<g id="edge76" class="edge">
<title>Node41&#45;&gt;Node36</title>
<path fill="none" stroke="midnightblue" d="M1858.5,-184.94C1910.34,-173.2 2003.46,-152.11 2060.02,-139.3"/>
<polygon fill="midnightblue" stroke="midnightblue" points="2060.81,-142.71 2069.79,-137.08 2059.26,-135.88 2060.81,-142.71"/>
</g>
<!-- Node41&#45;&gt;Node40 -->
<g id="edge80" class="edge">
<title>Node41&#45;&gt;Node40</title>
<path fill="none" stroke="midnightblue" d="M1839.68,-184.87C1864.14,-173.75 1906.89,-154.32 1935.25,-141.43"/>
<polygon fill="midnightblue" stroke="midnightblue" points="1936.97,-144.49 1944.62,-137.17 1934.07,-138.12 1936.97,-144.49"/>
</g>
<!-- Node42&#45;&gt;Node5 -->
<g id="edge83" class="edge">
<title>Node42&#45;&gt;Node5</title>
<path fill="none" stroke="midnightblue" d="M1642.67,-179.48C1684.06,-167.62 1742.61,-150.86 1781.09,-139.84"/>
<polygon fill="midnightblue" stroke="midnightblue" points="1782.25,-143.15 1790.9,-137.03 1780.33,-136.42 1782.25,-143.15"/>
</g>
<!-- Node42&#45;&gt;Node7 -->
<g id="edge82" class="edge">
<title>Node42&#45;&gt;Node7</title>
<path fill="none" stroke="midnightblue" d="M1607.46,-179.15C1615.91,-169.61 1626.3,-156.4 1632.69,-143 1641.43,-124.68 1646.1,-101.81 1648.47,-85.96"/>
<polygon fill="midnightblue" stroke="midnightblue" points="1651.97,-86.21 1649.82,-75.83 1645.03,-85.28 1651.97,-86.21"/>
</g>
<!-- Node42&#45;&gt;Node11 -->
<g id="edge84" class="edge">
<title>Node42&#45;&gt;Node11</title>
<path fill="none" stroke="midnightblue" d="M1534.41,-185.76C1412.78,-169.41 1126.5,-128.5 889.69,-76 857.26,-68.81 850.01,-63.63 817.69,-56 759.89,-42.37 693.27,-29.71 646.47,-21.31"/>
<polygon fill="midnightblue" stroke="midnightblue" points="646.96,-17.85 636.5,-19.54 645.73,-24.74 646.96,-17.85"/>
</g>
</g>
</svg>
