<?xml version="1.0" encoding="UTF-8" standalone="no"?>
<!DOCTYPE svg PUBLIC "-//W3C//DTD SVG 1.1//EN"
 "http://www.w3.org/Graphics/SVG/1.1/DTD/svg11.dtd">
<!-- Generated by graphviz version 2.43.0 (0)
 -->
<!-- Title: LaminarModel.H Pages: 1 -->
<svg width="2742pt" height="397pt"
 viewBox="0.00 0.00 2742.04 397.00" xmlns="http://www.w3.org/2000/svg" xmlns:xlink="http://www.w3.org/1999/xlink">
<g id="graph0" class="graph" transform="scale(1 1) rotate(0) translate(4 393)">
<title>LaminarModel.H</title>
<polygon fill="white" stroke="transparent" points="-4,4 -4,-393 2738.04,-393 2738.04,4 -4,4"/>
<!-- Node1 -->
<g id="node1" class="node">
<title>Node1</title>
<g id="a_node1"><a xlink:title=" ">
<polygon fill="#bfbfbf" stroke="black" points="1536.5,-369.5 1536.5,-388.5 1633.5,-388.5 1633.5,-369.5 1536.5,-369.5"/>
<text text-anchor="middle" x="1585" y="-376.5" font-family="Helvetica,sans-Serif" font-size="10.00">LaminarModel.H</text>
</a>
</g>
</g>
<!-- Node2 -->
<g id="node2" class="node">
<title>Node2</title>
<g id="a_node2"><a xlink:href="_turb_model_8_h.html" target="_top" xlink:title=" ">
<polygon fill="white" stroke="black" points="1526,-302.5 1526,-332.5 1644,-332.5 1644,-302.5 1526,-302.5"/>
<text text-anchor="start" x="1534" y="-320.5" font-family="Helvetica,sans-Serif" font-size="10.00">amr&#45;wind/turbulence</text>
<text text-anchor="middle" x="1585" y="-309.5" font-family="Helvetica,sans-Serif" font-size="10.00">/TurbModel.H</text>
</a>
</g>
</g>
<!-- Node1&#45;&gt;Node2 -->
<g id="edge1" class="edge">
<title>Node1&#45;&gt;Node2</title>
<path fill="none" stroke="midnightblue" d="M1585,-369.48C1585,-362.47 1585,-352.19 1585,-342.7"/>
<polygon fill="midnightblue" stroke="midnightblue" points="1588.5,-342.52 1585,-332.52 1581.5,-342.52 1588.5,-342.52"/>
</g>
<!-- Node3 -->
<g id="node3" class="node">
<title>Node3</title>
<g id="a_node3"><a xlink:href="_turbulence_model_8_h.html" target="_top" xlink:title=" ">
<polygon fill="white" stroke="black" points="1940,-179.5 1940,-209.5 2058,-209.5 2058,-179.5 1940,-179.5"/>
<text text-anchor="start" x="1948" y="-197.5" font-family="Helvetica,sans-Serif" font-size="10.00">amr&#45;wind/turbulence</text>
<text text-anchor="middle" x="1999" y="-186.5" font-family="Helvetica,sans-Serif" font-size="10.00">/TurbulenceModel.H</text>
</a>
</g>
</g>
<!-- Node2&#45;&gt;Node3 -->
<g id="edge2" class="edge">
<title>Node2&#45;&gt;Node3</title>
<path fill="none" stroke="midnightblue" d="M1633.3,-302.38C1709.96,-279.98 1859.18,-236.36 1941.33,-212.36"/>
<polygon fill="midnightblue" stroke="midnightblue" points="1942.39,-215.69 1951.01,-209.53 1940.43,-208.97 1942.39,-215.69"/>
</g>
<!-- Node11 -->
<g id="node11" class="node">
<title>Node11</title>
<g id="a_node11"><a xlink:href="_c_f_d_sim_8_h.html" target="_top" xlink:title=" ">
<polygon fill="white" stroke="black" points="1484,-246.5 1484,-265.5 1600,-265.5 1600,-246.5 1484,-246.5"/>
<text text-anchor="middle" x="1542" y="-253.5" font-family="Helvetica,sans-Serif" font-size="10.00">amr&#45;wind/CFDSim.H</text>
</a>
</g>
</g>
<!-- Node2&#45;&gt;Node11 -->
<g id="edge11" class="edge">
<title>Node2&#45;&gt;Node11</title>
<path fill="none" stroke="midnightblue" d="M1574.81,-302.4C1568.63,-293.84 1560.7,-282.87 1554.18,-273.86"/>
<polygon fill="midnightblue" stroke="midnightblue" points="1556.95,-271.71 1548.26,-265.66 1551.28,-275.81 1556.95,-271.71"/>
</g>
<!-- Node4 -->
<g id="node4" class="node">
<title>Node4</title>
<g id="a_node4"><a xlink:title=" ">
<polygon fill="white" stroke="#bfbfbf" points="2132.5,-56.5 2132.5,-75.5 2225.5,-75.5 2225.5,-56.5 2132.5,-56.5"/>
<text text-anchor="middle" x="2179" y="-63.5" font-family="Helvetica,sans-Serif" font-size="10.00">unordered_map</text>
</a>
</g>
</g>
<!-- Node3&#45;&gt;Node4 -->
<g id="edge3" class="edge">
<title>Node3&#45;&gt;Node4</title>
<path fill="none" stroke="midnightblue" d="M2018.95,-179.48C2053.23,-155.39 2123,-106.35 2158,-81.76"/>
<polygon fill="midnightblue" stroke="midnightblue" points="2160.33,-84.4 2166.49,-75.79 2156.3,-78.67 2160.33,-84.4"/>
</g>
<!-- Node5 -->
<g id="node5" class="node">
<title>Node5</title>
<g id="a_node5"><a xlink:href="_factory_8_h.html" target="_top" xlink:title=" ">
<polygon fill="white" stroke="black" points="2406,-118 2406,-137 2540,-137 2540,-118 2406,-118"/>
<text text-anchor="middle" x="2473" y="-125" font-family="Helvetica,sans-Serif" font-size="10.00">amr&#45;wind/core/Factory.H</text>
</a>
</g>
</g>
<!-- Node3&#45;&gt;Node5 -->
<g id="edge4" class="edge">
<title>Node3&#45;&gt;Node5</title>
<path fill="none" stroke="midnightblue" d="M2058.05,-186.83C2135.05,-177.93 2273.86,-161.15 2392,-143 2400.32,-141.72 2409.11,-140.26 2417.7,-138.77"/>
<polygon fill="midnightblue" stroke="midnightblue" points="2418.41,-142.2 2427.65,-137.02 2417.2,-135.31 2418.41,-142.2"/>
</g>
<!-- Node10 -->
<g id="node10" class="node">
<title>Node10</title>
<g id="a_node10"><a xlink:href="_field_desc_types_8_h.html" target="_top" xlink:title=" ">
<polygon fill="white" stroke="black" points="764,-0.5 764,-19.5 940,-19.5 940,-0.5 764,-0.5"/>
<text text-anchor="middle" x="852" y="-7.5" font-family="Helvetica,sans-Serif" font-size="10.00">amr&#45;wind/core/FieldDescTypes.H</text>
</a>
</g>
</g>
<!-- Node3&#45;&gt;Node10 -->
<g id="edge10" class="edge">
<title>Node3&#45;&gt;Node10</title>
<path fill="none" stroke="midnightblue" d="M1939.85,-192C1832.39,-188.5 1598.23,-177.28 1404,-143 1331.22,-130.16 1154.99,-72.74 1083,-56 1024.98,-42.5 958.12,-29.78 911.31,-21.33"/>
<polygon fill="midnightblue" stroke="midnightblue" points="911.8,-17.87 901.34,-19.54 910.56,-24.76 911.8,-17.87"/>
</g>
<!-- Node5&#45;&gt;Node4 -->
<g id="edge6" class="edge">
<title>Node5&#45;&gt;Node4</title>
<path fill="none" stroke="midnightblue" d="M2430.88,-117.98C2378.15,-107.3 2287.87,-89.03 2230.93,-77.51"/>
<polygon fill="midnightblue" stroke="midnightblue" points="2231.54,-74.06 2221.04,-75.51 2230.15,-80.92 2231.54,-74.06"/>
</g>
<!-- Node6 -->
<g id="node6" class="node">
<title>Node6</title>
<g id="a_node6"><a xlink:title=" ">
<polygon fill="white" stroke="#bfbfbf" points="2320,-56.5 2320,-75.5 2378,-75.5 2378,-56.5 2320,-56.5"/>
<text text-anchor="middle" x="2349" y="-63.5" font-family="Helvetica,sans-Serif" font-size="10.00">memory</text>
</a>
</g>
</g>
<!-- Node5&#45;&gt;Node6 -->
<g id="edge5" class="edge">
<title>Node5&#45;&gt;Node6</title>
<path fill="none" stroke="midnightblue" d="M2455.23,-117.98C2434.52,-108.03 2400.05,-91.49 2376.01,-79.96"/>
<polygon fill="midnightblue" stroke="midnightblue" points="2377.26,-76.68 2366.73,-75.51 2374.23,-82.99 2377.26,-76.68"/>
</g>
<!-- Node7 -->
<g id="node7" class="node">
<title>Node7</title>
<g id="a_node7"><a xlink:title=" ">
<polygon fill="white" stroke="#bfbfbf" points="2514,-56.5 2514,-75.5 2574,-75.5 2574,-56.5 2514,-56.5"/>
<text text-anchor="middle" x="2544" y="-63.5" font-family="Helvetica,sans-Serif" font-size="10.00">iostream</text>
</a>
</g>
</g>
<!-- Node5&#45;&gt;Node7 -->
<g id="edge7" class="edge">
<title>Node5&#45;&gt;Node7</title>
<path fill="none" stroke="midnightblue" d="M2483.17,-117.98C2494.35,-108.61 2512.52,-93.38 2526.09,-82.01"/>
<polygon fill="midnightblue" stroke="midnightblue" points="2528.43,-84.61 2533.85,-75.51 2523.93,-79.25 2528.43,-84.61"/>
</g>
<!-- Node8 -->
<g id="node8" class="node">
<title>Node8</title>
<g id="a_node8"><a xlink:title=" ">
<polygon fill="white" stroke="#bfbfbf" points="2592,-56.5 2592,-75.5 2682,-75.5 2682,-56.5 2592,-56.5"/>
<text text-anchor="middle" x="2637" y="-63.5" font-family="Helvetica,sans-Serif" font-size="10.00">AMReX_Print.H</text>
</a>
</g>
</g>
<!-- Node5&#45;&gt;Node8 -->
<g id="edge8" class="edge">
<title>Node5&#45;&gt;Node8</title>
<path fill="none" stroke="midnightblue" d="M2496.5,-117.98C2524.63,-107.77 2571.93,-90.61 2603.79,-79.05"/>
<polygon fill="midnightblue" stroke="midnightblue" points="2605.34,-82.21 2613.55,-75.51 2602.95,-75.63 2605.34,-82.21"/>
</g>
<!-- Node9 -->
<g id="node9" class="node">
<title>Node9</title>
<g id="a_node9"><a xlink:title=" ">
<polygon fill="white" stroke="#bfbfbf" points="2434,-56.5 2434,-75.5 2496,-75.5 2496,-56.5 2434,-56.5"/>
<text text-anchor="middle" x="2465" y="-63.5" font-family="Helvetica,sans-Serif" font-size="10.00">AMReX.H</text>
</a>
</g>
</g>
<!-- Node5&#45;&gt;Node9 -->
<g id="edge9" class="edge">
<title>Node5&#45;&gt;Node9</title>
<path fill="none" stroke="midnightblue" d="M2471.85,-117.98C2470.73,-109.58 2468.96,-96.48 2467.51,-85.66"/>
<polygon fill="midnightblue" stroke="midnightblue" points="2470.95,-84.95 2466.14,-75.51 2464.01,-85.89 2470.95,-84.95"/>
</g>
<!-- Node12 -->
<g id="node12" class="node">
<title>Node12</title>
<g id="a_node12"><a xlink:title=" ">
<polygon fill="white" stroke="#bfbfbf" points="1157,-118 1157,-137 1267,-137 1267,-118 1157,-118"/>
<text text-anchor="middle" x="1212" y="-125" font-family="Helvetica,sans-Serif" font-size="10.00">AMReX_AmrCore.H</text>
</a>
</g>
</g>
<!-- Node11&#45;&gt;Node12 -->
<g id="edge12" class="edge">
<title>Node11&#45;&gt;Node12</title>
<path fill="none" stroke="midnightblue" d="M1519.58,-246.4C1462.31,-224.45 1310.53,-166.27 1244,-140.77"/>
<polygon fill="midnightblue" stroke="midnightblue" points="1245.04,-137.42 1234.45,-137.11 1242.54,-143.95 1245.04,-137.42"/>
</g>
<!-- Node13 -->
<g id="node13" class="node">
<title>Node13</title>
<g id="a_node13"><a xlink:href="_sim_time_8_h.html" target="_top" xlink:title=" ">
<polygon fill="white" stroke="black" points="174,-185 174,-204 318,-204 318,-185 174,-185"/>
<text text-anchor="middle" x="246" y="-192" font-family="Helvetica,sans-Serif" font-size="10.00">amr&#45;wind/core/SimTime.H</text>
</a>
</g>
</g>
<!-- Node11&#45;&gt;Node13 -->
<g id="edge13" class="edge">
<title>Node11&#45;&gt;Node13</title>
<path fill="none" stroke="midnightblue" d="M1483.8,-252.33C1276.1,-242.79 570.87,-210.41 328.56,-199.29"/>
<polygon fill="midnightblue" stroke="midnightblue" points="328.55,-195.79 318.4,-198.82 328.23,-202.78 328.55,-195.79"/>
</g>
<!-- Node17 -->
<g id="node17" class="node">
<title>Node17</title>
<g id="a_node17"><a xlink:href="_field_repo_8_h.html" target="_top" xlink:title=" ">
<polygon fill="white" stroke="black" points="1054.5,-185 1054.5,-204 1203.5,-204 1203.5,-185 1054.5,-185"/>
<text text-anchor="middle" x="1129" y="-192" font-family="Helvetica,sans-Serif" font-size="10.00">amr&#45;wind/core/FieldRepo.H</text>
</a>
</g>
</g>
<!-- Node11&#45;&gt;Node17 -->
<g id="edge17" class="edge">
<title>Node11&#45;&gt;Node17</title>
<path fill="none" stroke="midnightblue" d="M1483.7,-246.6C1408.54,-235.77 1278.01,-216.97 1197.98,-205.44"/>
<polygon fill="midnightblue" stroke="midnightblue" points="1198.4,-201.96 1188,-204 1197.4,-208.89 1198.4,-201.96"/>
</g>
<!-- Node34 -->
<g id="node34" class="node">
<title>Node34</title>
<g id="a_node34"><a xlink:href="_p_d_e_base_8_h.html" target="_top" xlink:title=" ">
<polygon fill="white" stroke="black" points="1464.5,-179.5 1464.5,-209.5 1619.5,-209.5 1619.5,-179.5 1464.5,-179.5"/>
<text text-anchor="start" x="1472.5" y="-197.5" font-family="Helvetica,sans-Serif" font-size="10.00">amr&#45;wind/equation_systems</text>
<text text-anchor="middle" x="1542" y="-186.5" font-family="Helvetica,sans-Serif" font-size="10.00">/PDEBase.H</text>
</a>
</g>
</g>
<!-- Node11&#45;&gt;Node34 -->
<g id="edge55" class="edge">
<title>Node11&#45;&gt;Node34</title>
<path fill="none" stroke="midnightblue" d="M1542,-246.48C1542,-239.47 1542,-229.19 1542,-219.7"/>
<polygon fill="midnightblue" stroke="midnightblue" points="1545.5,-219.52 1542,-209.52 1538.5,-219.52 1545.5,-219.52"/>
</g>
<!-- Node38 -->
<g id="node38" class="node">
<title>Node38</title>
<g id="a_node38"><a xlink:href="_physics_8_h.html" target="_top" xlink:title=" ">
<polygon fill="white" stroke="black" points="2404.5,-185 2404.5,-204 2541.5,-204 2541.5,-185 2404.5,-185"/>
<text text-anchor="middle" x="2473" y="-192" font-family="Helvetica,sans-Serif" font-size="10.00">amr&#45;wind/core/Physics.H</text>
</a>
</g>
</g>
<!-- Node11&#45;&gt;Node38 -->
<g id="edge67" class="edge">
<title>Node11&#45;&gt;Node38</title>
<path fill="none" stroke="midnightblue" d="M1600.25,-253.86C1736.7,-250.75 2087.52,-240.24 2379,-210 2390.31,-208.83 2402.33,-207.24 2413.86,-205.54"/>
<polygon fill="midnightblue" stroke="midnightblue" points="2414.48,-208.98 2423.85,-204.02 2413.43,-202.06 2414.48,-208.98"/>
</g>
<!-- Node40 -->
<g id="node40" class="node">
<title>Node40</title>
<g id="a_node40"><a xlink:href="_mesh_map_8_h.html" target="_top" xlink:title=" ">
<polygon fill="white" stroke="black" points="2222,-185 2222,-204 2370,-204 2370,-185 2222,-185"/>
<text text-anchor="middle" x="2296" y="-192" font-family="Helvetica,sans-Serif" font-size="10.00">amr&#45;wind/core/MeshMap.H</text>
</a>
</g>
</g>
<!-- Node11&#45;&gt;Node40 -->
<g id="edge72" class="edge">
<title>Node11&#45;&gt;Node40</title>
<path fill="none" stroke="midnightblue" d="M1600.23,-250.41C1732.67,-239.95 2056.97,-214.36 2211.48,-202.17"/>
<polygon fill="midnightblue" stroke="midnightblue" points="2212.16,-205.63 2221.86,-201.35 2211.61,-198.65 2212.16,-205.63"/>
</g>
<!-- Node14 -->
<g id="node14" class="node">
<title>Node14</title>
<g id="a_node14"><a xlink:title=" ">
<polygon fill="white" stroke="#bfbfbf" points="134,-118 134,-137 226,-137 226,-118 134,-118"/>
<text text-anchor="middle" x="180" y="-125" font-family="Helvetica,sans-Serif" font-size="10.00">AMReX_REAL.H</text>
</a>
</g>
</g>
<!-- Node13&#45;&gt;Node14 -->
<g id="edge14" class="edge">
<title>Node13&#45;&gt;Node14</title>
<path fill="none" stroke="midnightblue" d="M237.1,-184.73C226.61,-174.4 208.98,-157.04 196.08,-144.33"/>
<polygon fill="midnightblue" stroke="midnightblue" points="198.34,-141.65 188.76,-137.13 193.43,-146.64 198.34,-141.65"/>
</g>
<!-- Node15 -->
<g id="node15" class="node">
<title>Node15</title>
<g id="a_node15"><a xlink:title=" ">
<polygon fill="white" stroke="#bfbfbf" points="244,-118 244,-137 378,-137 378,-118 244,-118"/>
<text text-anchor="middle" x="311" y="-125" font-family="Helvetica,sans-Serif" font-size="10.00">AMReX_GpuQualifiers.H</text>
</a>
</g>
</g>
<!-- Node13&#45;&gt;Node15 -->
<g id="edge15" class="edge">
<title>Node13&#45;&gt;Node15</title>
<path fill="none" stroke="midnightblue" d="M254.77,-184.73C265.1,-174.4 282.46,-157.04 295.17,-144.33"/>
<polygon fill="midnightblue" stroke="midnightblue" points="297.78,-146.67 302.37,-137.13 292.83,-141.72 297.78,-146.67"/>
</g>
<!-- Node16 -->
<g id="node16" class="node">
<title>Node16</title>
<g id="a_node16"><a xlink:title=" ">
<polygon fill="white" stroke="#bfbfbf" points="0,-118 0,-137 116,-137 116,-118 0,-118"/>
<text text-anchor="middle" x="58" y="-125" font-family="Helvetica,sans-Serif" font-size="10.00">AMReX_Extension.H</text>
</a>
</g>
</g>
<!-- Node13&#45;&gt;Node16 -->
<g id="edge16" class="edge">
<title>Node13&#45;&gt;Node16</title>
<path fill="none" stroke="midnightblue" d="M221.04,-184.87C188.08,-173.47 129.88,-153.35 92.67,-140.49"/>
<polygon fill="midnightblue" stroke="midnightblue" points="93.36,-137.02 82.77,-137.06 91.08,-143.64 93.36,-137.02"/>
</g>
<!-- Node17&#45;&gt;Node4 -->
<g id="edge19" class="edge">
<title>Node17&#45;&gt;Node4</title>
<path fill="none" stroke="midnightblue" d="M1203.78,-189.92C1391.12,-180.79 1870.69,-156.43 1942,-143 2018.39,-128.61 2104.45,-96.92 2148.87,-79.34"/>
<polygon fill="midnightblue" stroke="midnightblue" points="2150.22,-82.57 2158.21,-75.61 2147.63,-76.07 2150.22,-82.57"/>
</g>
<!-- Node17&#45;&gt;Node10 -->
<g id="edge20" class="edge">
<title>Node17&#45;&gt;Node10</title>
<path fill="none" stroke="midnightblue" d="M1054.49,-193.42C910.14,-192.3 597.94,-184.94 500,-143 458.91,-125.4 443.26,-116.8 425,-76 421.37,-67.89 419.05,-62.61 425,-56 427.75,-52.95 629.06,-32.77 754.25,-20.5"/>
<polygon fill="midnightblue" stroke="midnightblue" points="754.64,-23.98 764.25,-19.52 753.96,-17.01 754.64,-23.98"/>
</g>
<!-- Node17&#45;&gt;Node12 -->
<g id="edge52" class="edge">
<title>Node17&#45;&gt;Node12</title>
<path fill="none" stroke="midnightblue" d="M1140.19,-184.73C1153.63,-174.21 1176.4,-156.38 1192.7,-143.62"/>
<polygon fill="midnightblue" stroke="midnightblue" points="1195.27,-146.05 1200.98,-137.13 1190.95,-140.54 1195.27,-146.05"/>
</g>
<!-- Node18 -->
<g id="node18" class="node">
<title>Node18</title>
<g id="a_node18"><a xlink:title=" ">
<polygon fill="white" stroke="#bfbfbf" points="1157,-0.5 1157,-19.5 1201,-19.5 1201,-0.5 1157,-0.5"/>
<text text-anchor="middle" x="1179" y="-7.5" font-family="Helvetica,sans-Serif" font-size="10.00">string</text>
</a>
</g>
</g>
<!-- Node17&#45;&gt;Node18 -->
<g id="edge18" class="edge">
<title>Node17&#45;&gt;Node18</title>
<path fill="none" stroke="midnightblue" d="M1130.81,-184.89C1134,-169.97 1140.93,-138.38 1148,-112 1154.73,-86.88 1157.36,-80.86 1165,-56 1167.71,-47.19 1170.74,-37.42 1173.29,-29.24"/>
<polygon fill="midnightblue" stroke="midnightblue" points="1176.66,-30.21 1176.3,-19.62 1169.98,-28.12 1176.66,-30.21"/>
</g>
<!-- Node19 -->
<g id="node19" class="node">
<title>Node19</title>
<g id="a_node19"><a xlink:href="_field_utils_8_h.html" target="_top" xlink:title=" ">
<polygon fill="white" stroke="black" points="640,-56.5 640,-75.5 786,-75.5 786,-56.5 640,-56.5"/>
<text text-anchor="middle" x="713" y="-63.5" font-family="Helvetica,sans-Serif" font-size="10.00">amr&#45;wind/core/FieldUtils.H</text>
</a>
</g>
</g>
<!-- Node17&#45;&gt;Node19 -->
<g id="edge21" class="edge">
<title>Node17&#45;&gt;Node19</title>
<path fill="none" stroke="midnightblue" d="M1054.37,-193.78C985.37,-191.37 881.48,-180.88 800,-143 769.99,-129.05 742.52,-101.51 726.79,-83.69"/>
<polygon fill="midnightblue" stroke="midnightblue" points="729.21,-81.14 720.05,-75.83 723.9,-85.7 729.21,-81.14"/>
</g>
<!-- Node20 -->
<g id="node20" class="node">
<title>Node20</title>
<g id="a_node20"><a xlink:title=" ">
<polygon fill="white" stroke="#bfbfbf" points="2049.5,-0.5 2049.5,-19.5 2158.5,-19.5 2158.5,-0.5 2049.5,-0.5"/>
<text text-anchor="middle" x="2104" y="-7.5" font-family="Helvetica,sans-Serif" font-size="10.00">AMReX_MultiFab.H</text>
</a>
</g>
</g>
<!-- Node17&#45;&gt;Node20 -->
<g id="edge53" class="edge">
<title>Node17&#45;&gt;Node20</title>
<path fill="none" stroke="midnightblue" d="M1203.77,-190.08C1269.84,-187.07 1368.82,-182.63 1455,-179 1505.22,-176.88 2317.73,-171.69 2359,-143 2392.36,-119.82 2413.37,-86.9 2387,-56 2359.55,-23.84 2243.75,-14.55 2169.06,-11.93"/>
<polygon fill="midnightblue" stroke="midnightblue" points="2168.91,-8.43 2158.8,-11.61 2168.68,-15.42 2168.91,-8.43"/>
</g>
<!-- Node22 -->
<g id="node22" class="node">
<title>Node22</title>
<g id="a_node22"><a xlink:href="_field_8_h.html" target="_top" xlink:title=" ">
<polygon fill="white" stroke="black" points="1809,-118 1809,-137 1933,-137 1933,-118 1809,-118"/>
<text text-anchor="middle" x="1871" y="-125" font-family="Helvetica,sans-Serif" font-size="10.00">amr&#45;wind/core/Field.H</text>
</a>
</g>
</g>
<!-- Node17&#45;&gt;Node22 -->
<g id="edge25" class="edge">
<title>Node17&#45;&gt;Node22</title>
<path fill="none" stroke="midnightblue" d="M1203.54,-186.97C1346.51,-174.45 1657.54,-147.2 1798.71,-134.83"/>
<polygon fill="midnightblue" stroke="midnightblue" points="1799.33,-138.29 1808.99,-133.93 1798.72,-131.32 1799.33,-138.29"/>
</g>
<!-- Node29 -->
<g id="node29" class="node">
<title>Node29</title>
<g id="a_node29"><a xlink:href="_int_field_8_h.html" target="_top" xlink:title=" ">
<polygon fill="white" stroke="black" points="537.5,-118 537.5,-137 674.5,-137 674.5,-118 537.5,-118"/>
<text text-anchor="middle" x="606" y="-125" font-family="Helvetica,sans-Serif" font-size="10.00">amr&#45;wind/core/IntField.H</text>
</a>
</g>
</g>
<!-- Node17&#45;&gt;Node29 -->
<g id="edge40" class="edge">
<title>Node17&#45;&gt;Node29</title>
<path fill="none" stroke="midnightblue" d="M1060.36,-184.97C963.4,-172.92 786.81,-150.97 684.68,-138.28"/>
<polygon fill="midnightblue" stroke="midnightblue" points="685.08,-134.8 674.73,-137.04 684.22,-141.75 685.08,-134.8"/>
</g>
<!-- Node30 -->
<g id="node30" class="node">
<title>Node30</title>
<g id="a_node30"><a xlink:title=" ">
<polygon fill="white" stroke="#bfbfbf" points="434,-56.5 434,-75.5 546,-75.5 546,-56.5 434,-56.5"/>
<text text-anchor="middle" x="490" y="-63.5" font-family="Helvetica,sans-Serif" font-size="10.00">AMReX_iMultiFab.H</text>
</a>
</g>
</g>
<!-- Node17&#45;&gt;Node30 -->
<g id="edge54" class="edge">
<title>Node17&#45;&gt;Node30</title>
<path fill="none" stroke="midnightblue" d="M1054.46,-191.29C903.16,-186.22 570.67,-171.91 528,-143 508.58,-129.84 498.63,-103.71 493.87,-85.8"/>
<polygon fill="midnightblue" stroke="midnightblue" points="497.24,-84.83 491.54,-75.9 490.42,-86.43 497.24,-84.83"/>
</g>
<!-- Node31 -->
<g id="node31" class="node">
<title>Node31</title>
<g id="a_node31"><a xlink:href="_scratch_field_8_h.html" target="_top" xlink:title=" ">
<polygon fill="white" stroke="black" points="941,-118 941,-137 1101,-137 1101,-118 941,-118"/>
<text text-anchor="middle" x="1021" y="-125" font-family="Helvetica,sans-Serif" font-size="10.00">amr&#45;wind/core/ScratchField.H</text>
</a>
</g>
</g>
<!-- Node17&#45;&gt;Node31 -->
<g id="edge44" class="edge">
<title>Node17&#45;&gt;Node31</title>
<path fill="none" stroke="midnightblue" d="M1114.43,-184.73C1096.38,-173.87 1065.39,-155.22 1044.08,-142.39"/>
<polygon fill="midnightblue" stroke="midnightblue" points="1045.71,-139.29 1035.33,-137.13 1042.1,-145.28 1045.71,-139.29"/>
</g>
<!-- Node19&#45;&gt;Node10 -->
<g id="edge22" class="edge">
<title>Node19&#45;&gt;Node10</title>
<path fill="none" stroke="midnightblue" d="M735.02,-56.44C758.1,-47.48 794.56,-33.31 820.64,-23.18"/>
<polygon fill="midnightblue" stroke="midnightblue" points="822.02,-26.4 830.08,-19.52 819.49,-19.88 822.02,-26.4"/>
</g>
<!-- Node19&#45;&gt;Node20 -->
<g id="edge23" class="edge">
<title>Node19&#45;&gt;Node20</title>
<path fill="none" stroke="midnightblue" d="M786.14,-60.52C812.84,-58.97 843.28,-57.3 871,-56 1317.78,-35.12 1856.01,-18.37 2039.28,-12.9"/>
<polygon fill="midnightblue" stroke="midnightblue" points="2039.4,-16.39 2049.29,-12.6 2039.19,-9.4 2039.4,-16.39"/>
</g>
<!-- Node21 -->
<g id="node21" class="node">
<title>Node21</title>
<g id="a_node21"><a xlink:title=" ">
<polygon fill="white" stroke="#bfbfbf" points="622,-0.5 622,-19.5 746,-19.5 746,-0.5 622,-0.5"/>
<text text-anchor="middle" x="684" y="-7.5" font-family="Helvetica,sans-Serif" font-size="10.00">AMReX_Interpolater.H</text>
</a>
</g>
</g>
<!-- Node19&#45;&gt;Node21 -->
<g id="edge24" class="edge">
<title>Node19&#45;&gt;Node21</title>
<path fill="none" stroke="midnightblue" d="M708.21,-56.08C704.24,-48.69 698.47,-37.95 693.57,-28.81"/>
<polygon fill="midnightblue" stroke="midnightblue" points="696.51,-26.91 688.7,-19.75 690.35,-30.22 696.51,-26.91"/>
</g>
<!-- Node22&#45;&gt;Node4 -->
<g id="edge28" class="edge">
<title>Node22&#45;&gt;Node4</title>
<path fill="none" stroke="midnightblue" d="M1915.13,-117.98C1970.48,-107.28 2065.34,-88.96 2124.97,-77.44"/>
<polygon fill="midnightblue" stroke="midnightblue" points="2125.8,-80.84 2134.95,-75.51 2124.47,-73.97 2125.8,-80.84"/>
</g>
<!-- Node22&#45;&gt;Node6 -->
<g id="edge27" class="edge">
<title>Node22&#45;&gt;Node6</title>
<path fill="none" stroke="midnightblue" d="M1933,-118.78C2032.93,-106.34 2226.77,-82.21 2309.76,-71.88"/>
<polygon fill="midnightblue" stroke="midnightblue" points="2310.29,-75.35 2319.78,-70.64 2309.42,-68.4 2310.29,-75.35"/>
</g>
<!-- Node22&#45;&gt;Node10 -->
<g id="edge34" class="edge">
<title>Node22&#45;&gt;Node10</title>
<path fill="none" stroke="midnightblue" d="M1808.79,-123.09C1694.85,-116.35 1457.07,-99.88 1378,-76 1359.73,-70.48 1358.3,-61.42 1340,-56 1269.39,-35.06 1071.08,-21.86 950.1,-15.51"/>
<polygon fill="midnightblue" stroke="midnightblue" points="950.25,-12.02 940.08,-14.99 949.89,-19.01 950.25,-12.02"/>
</g>
<!-- Node22&#45;&gt;Node18 -->
<g id="edge26" class="edge">
<title>Node22&#45;&gt;Node18</title>
<path fill="none" stroke="midnightblue" d="M1855.62,-117.99C1822.07,-99.43 1745.06,-56.91 1742,-56 1691.08,-40.81 1322.76,-19.08 1211.04,-12.78"/>
<polygon fill="midnightblue" stroke="midnightblue" points="1211.23,-9.28 1201.05,-12.22 1210.84,-16.27 1211.23,-9.28"/>
</g>
<!-- Node22&#45;&gt;Node20 -->
<g id="edge30" class="edge">
<title>Node22&#45;&gt;Node20</title>
<path fill="none" stroke="midnightblue" d="M1933.03,-118.86C1988.18,-110.85 2063.33,-96.56 2085,-76 2097.52,-64.12 2101.93,-44.5 2103.41,-29.92"/>
<polygon fill="midnightblue" stroke="midnightblue" points="2106.93,-29.75 2104.07,-19.55 2099.94,-29.3 2106.93,-29.75"/>
</g>
<!-- Node23 -->
<g id="node23" class="node">
<title>Node23</title>
<g id="a_node23"><a xlink:title=" ">
<polygon fill="white" stroke="#bfbfbf" points="1789,-56.5 1789,-75.5 1853,-75.5 1853,-56.5 1789,-56.5"/>
<text text-anchor="middle" x="1821" y="-63.5" font-family="Helvetica,sans-Serif" font-size="10.00">algorithm</text>
</a>
</g>
</g>
<!-- Node22&#45;&gt;Node23 -->
<g id="edge29" class="edge">
<title>Node22&#45;&gt;Node23</title>
<path fill="none" stroke="midnightblue" d="M1863.84,-117.98C1856.26,-108.96 1844.13,-94.52 1834.71,-83.31"/>
<polygon fill="midnightblue" stroke="midnightblue" points="1837.26,-80.91 1828.15,-75.51 1831.9,-85.42 1837.26,-80.91"/>
</g>
<!-- Node24 -->
<g id="node24" class="node">
<title>Node24</title>
<g id="a_node24"><a xlink:title=" ">
<polygon fill="white" stroke="#bfbfbf" points="1871.5,-56.5 1871.5,-75.5 1970.5,-75.5 1970.5,-56.5 1871.5,-56.5"/>
<text text-anchor="middle" x="1921" y="-63.5" font-family="Helvetica,sans-Serif" font-size="10.00">AMReX_BCRec.H</text>
</a>
</g>
</g>
<!-- Node22&#45;&gt;Node24 -->
<g id="edge31" class="edge">
<title>Node22&#45;&gt;Node24</title>
<path fill="none" stroke="midnightblue" d="M1878.16,-117.98C1885.74,-108.96 1897.87,-94.52 1907.29,-83.31"/>
<polygon fill="midnightblue" stroke="midnightblue" points="1910.1,-85.42 1913.85,-75.51 1904.74,-80.91 1910.1,-85.42"/>
</g>
<!-- Node25 -->
<g id="node25" class="node">
<title>Node25</title>
<g id="a_node25"><a xlink:title=" ">
<polygon fill="white" stroke="#bfbfbf" points="1988.5,-56.5 1988.5,-75.5 2075.5,-75.5 2075.5,-56.5 1988.5,-56.5"/>
<text text-anchor="middle" x="2032" y="-63.5" font-family="Helvetica,sans-Serif" font-size="10.00">AMReX_Gpu.H</text>
</a>
</g>
</g>
<!-- Node22&#45;&gt;Node25 -->
<g id="edge32" class="edge">
<title>Node22&#45;&gt;Node25</title>
<path fill="none" stroke="midnightblue" d="M1894.07,-117.98C1921.68,-107.77 1968.12,-90.61 1999.4,-79.05"/>
<polygon fill="midnightblue" stroke="midnightblue" points="2000.81,-82.26 2008.98,-75.51 1998.38,-75.69 2000.81,-82.26"/>
</g>
<!-- Node26 -->
<g id="node26" class="node">
<title>Node26</title>
<g id="a_node26"><a xlink:href="incflo__enums_8_h.html" target="_top" xlink:title=" ">
<polygon fill="white" stroke="black" points="1591.5,-56.5 1591.5,-75.5 1732.5,-75.5 1732.5,-56.5 1591.5,-56.5"/>
<text text-anchor="middle" x="1662" y="-63.5" font-family="Helvetica,sans-Serif" font-size="10.00">amr&#45;wind/incflo_enums.H</text>
</a>
</g>
</g>
<!-- Node22&#45;&gt;Node26 -->
<g id="edge33" class="edge">
<title>Node22&#45;&gt;Node26</title>
<path fill="none" stroke="midnightblue" d="M1841.06,-117.98C1804.43,-107.55 1742.3,-89.86 1701.72,-78.31"/>
<polygon fill="midnightblue" stroke="midnightblue" points="1702.47,-74.88 1691.89,-75.51 1700.55,-81.61 1702.47,-74.88"/>
</g>
<!-- Node27 -->
<g id="node27" class="node">
<title>Node27</title>
<g id="a_node27"><a xlink:href="_view_field_8_h.html" target="_top" xlink:title=" ">
<polygon fill="white" stroke="black" points="1387,-56.5 1387,-75.5 1535,-75.5 1535,-56.5 1387,-56.5"/>
<text text-anchor="middle" x="1461" y="-63.5" font-family="Helvetica,sans-Serif" font-size="10.00">amr&#45;wind/core/ViewField.H</text>
</a>
</g>
</g>
<!-- Node22&#45;&gt;Node27 -->
<g id="edge35" class="edge">
<title>Node22&#45;&gt;Node27</title>
<path fill="none" stroke="midnightblue" d="M1812.26,-117.98C1737.67,-107.15 1609.17,-88.5 1529.99,-77.01"/>
<polygon fill="midnightblue" stroke="midnightblue" points="1530.03,-73.48 1519.63,-75.51 1529.03,-80.41 1530.03,-73.48"/>
</g>
<!-- Node27&#45;&gt;Node10 -->
<g id="edge37" class="edge">
<title>Node27&#45;&gt;Node10</title>
<path fill="none" stroke="midnightblue" d="M1386.59,-57.31C1381.99,-56.86 1377.43,-56.42 1373,-56 1225.82,-42.12 1055.1,-27.69 950.32,-19.03"/>
<polygon fill="midnightblue" stroke="midnightblue" points="950.33,-15.52 940.07,-18.18 949.75,-22.49 950.33,-15.52"/>
</g>
<!-- Node27&#45;&gt;Node18 -->
<g id="edge36" class="edge">
<title>Node27&#45;&gt;Node18</title>
<path fill="none" stroke="midnightblue" d="M1416.32,-56.44C1359.19,-45.5 1261.66,-26.83 1211.26,-17.18"/>
<polygon fill="midnightblue" stroke="midnightblue" points="1211.73,-13.7 1201.26,-15.26 1210.42,-20.58 1211.73,-13.7"/>
</g>
<!-- Node27&#45;&gt;Node20 -->
<g id="edge38" class="edge">
<title>Node27&#45;&gt;Node20</title>
<path fill="none" stroke="midnightblue" d="M1535.41,-57.28C1540.01,-56.84 1544.56,-56.41 1549,-56 1726.25,-39.75 1935.62,-23.6 2039.23,-15.81"/>
<polygon fill="midnightblue" stroke="midnightblue" points="2039.51,-19.3 2049.22,-15.06 2038.98,-12.32 2039.51,-19.3"/>
</g>
<!-- Node28 -->
<g id="node28" class="node">
<title>Node28</title>
<g id="a_node28"><a xlink:title=" ">
<polygon fill="white" stroke="#bfbfbf" points="1412,-0.5 1412,-19.5 1510,-19.5 1510,-0.5 1412,-0.5"/>
<text text-anchor="middle" x="1461" y="-7.5" font-family="Helvetica,sans-Serif" font-size="10.00">AMReX_Vector.H</text>
</a>
</g>
</g>
<!-- Node27&#45;&gt;Node28 -->
<g id="edge39" class="edge">
<title>Node27&#45;&gt;Node28</title>
<path fill="none" stroke="midnightblue" d="M1461,-56.08C1461,-49.01 1461,-38.86 1461,-29.99"/>
<polygon fill="midnightblue" stroke="midnightblue" points="1464.5,-29.75 1461,-19.75 1457.5,-29.75 1464.5,-29.75"/>
</g>
<!-- Node29&#45;&gt;Node10 -->
<g id="edge42" class="edge">
<title>Node29&#45;&gt;Node10</title>
<path fill="none" stroke="midnightblue" d="M601.46,-117.98C594.41,-103.45 583.12,-73.75 598,-56 608.94,-42.96 696.46,-29.54 765.75,-20.79"/>
<polygon fill="midnightblue" stroke="midnightblue" points="766.34,-24.24 775.83,-19.53 765.47,-17.29 766.34,-24.24"/>
</g>
<!-- Node29&#45;&gt;Node18 -->
<g id="edge41" class="edge">
<title>Node29&#45;&gt;Node18</title>
<path fill="none" stroke="midnightblue" d="M606.23,-117.86C607.15,-102.59 611.45,-71.05 631,-56 651.54,-40.19 1031.85,-18.81 1146.53,-12.69"/>
<polygon fill="midnightblue" stroke="midnightblue" points="1146.98,-16.18 1156.78,-12.15 1146.61,-9.19 1146.98,-16.18"/>
</g>
<!-- Node29&#45;&gt;Node30 -->
<g id="edge43" class="edge">
<title>Node29&#45;&gt;Node30</title>
<path fill="none" stroke="midnightblue" d="M589.38,-117.98C570.08,-108.08 538.04,-91.64 515.57,-80.12"/>
<polygon fill="midnightblue" stroke="midnightblue" points="517.08,-76.96 506.59,-75.51 513.89,-83.19 517.08,-76.96"/>
</g>
<!-- Node31&#45;&gt;Node10 -->
<g id="edge47" class="edge">
<title>Node31&#45;&gt;Node10</title>
<path fill="none" stroke="midnightblue" d="M953.77,-117.98C924.82,-111.08 892.7,-98.59 871,-76 859.18,-63.69 854.65,-44.43 852.95,-30.07"/>
<polygon fill="midnightblue" stroke="midnightblue" points="856.42,-29.51 852.11,-19.83 849.44,-30.08 856.42,-29.51"/>
</g>
<!-- Node31&#45;&gt;Node18 -->
<g id="edge45" class="edge">
<title>Node31&#45;&gt;Node18</title>
<path fill="none" stroke="midnightblue" d="M1032.88,-117.82C1059.75,-98.17 1125.5,-50.11 1158.87,-25.72"/>
<polygon fill="midnightblue" stroke="midnightblue" points="1160.98,-28.51 1166.99,-19.78 1156.85,-22.86 1160.98,-28.51"/>
</g>
<!-- Node31&#45;&gt;Node20 -->
<g id="edge49" class="edge">
<title>Node31&#45;&gt;Node20</title>
<path fill="none" stroke="midnightblue" d="M1093.17,-117.97C1111.08,-115.93 1130.23,-113.82 1148,-112 1323.8,-93.98 1374.53,-126.12 1544,-76 1562.3,-70.59 1563.69,-61.37 1582,-56 1665.97,-31.38 1918.55,-18.35 2038.89,-13.39"/>
<polygon fill="midnightblue" stroke="midnightblue" points="2039.21,-16.88 2049.06,-12.98 2038.93,-9.89 2039.21,-16.88"/>
</g>
<!-- Node31&#45;&gt;Node27 -->
<g id="edge48" class="edge">
<title>Node31&#45;&gt;Node27</title>
<path fill="none" stroke="midnightblue" d="M1084.04,-117.98C1164.42,-107.11 1303.12,-88.35 1388,-76.87"/>
<polygon fill="midnightblue" stroke="midnightblue" points="1388.63,-80.32 1398.08,-75.51 1387.7,-73.38 1388.63,-80.32"/>
</g>
<!-- Node31&#45;&gt;Node28 -->
<g id="edge50" class="edge">
<title>Node31&#45;&gt;Node28</title>
<path fill="none" stroke="midnightblue" d="M1050.51,-117.91C1097.62,-104.28 1192.79,-77.08 1274,-56 1321.47,-43.68 1376.03,-30.68 1413.91,-21.84"/>
<polygon fill="midnightblue" stroke="midnightblue" points="1414.7,-25.25 1423.65,-19.58 1413.12,-18.43 1414.7,-25.25"/>
</g>
<!-- Node32 -->
<g id="node32" class="node">
<title>Node32</title>
<g id="a_node32"><a xlink:title=" ">
<polygon fill="white" stroke="#bfbfbf" points="880.5,-56.5 880.5,-75.5 925.5,-75.5 925.5,-56.5 880.5,-56.5"/>
<text text-anchor="middle" x="903" y="-63.5" font-family="Helvetica,sans-Serif" font-size="10.00">utility</text>
</a>
</g>
</g>
<!-- Node31&#45;&gt;Node32 -->
<g id="edge46" class="edge">
<title>Node31&#45;&gt;Node32</title>
<path fill="none" stroke="midnightblue" d="M1004.09,-117.98C984.47,-108.08 951.87,-91.64 929.01,-80.12"/>
<polygon fill="midnightblue" stroke="midnightblue" points="930.38,-76.89 919.88,-75.51 927.23,-83.14 930.38,-76.89"/>
</g>
<!-- Node33 -->
<g id="node33" class="node">
<title>Node33</title>
<g id="a_node33"><a xlink:title=" ">
<polygon fill="white" stroke="#bfbfbf" points="943.5,-56.5 943.5,-75.5 1074.5,-75.5 1074.5,-56.5 943.5,-56.5"/>
<text text-anchor="middle" x="1009" y="-63.5" font-family="Helvetica,sans-Serif" font-size="10.00">AMReX_PhysBCFunct.H</text>
</a>
</g>
</g>
<!-- Node31&#45;&gt;Node33 -->
<g id="edge51" class="edge">
<title>Node31&#45;&gt;Node33</title>
<path fill="none" stroke="midnightblue" d="M1019.28,-117.98C1017.57,-109.49 1014.89,-96.2 1012.7,-85.32"/>
<polygon fill="midnightblue" stroke="midnightblue" points="1016.12,-84.62 1010.72,-75.51 1009.26,-86 1016.12,-84.62"/>
</g>
<!-- Node34&#45;&gt;Node5 -->
<g id="edge57" class="edge">
<title>Node34&#45;&gt;Node5</title>
<path fill="none" stroke="midnightblue" d="M1619.71,-190.06C1800.22,-181.87 2243.73,-160.61 2392,-143 2401.27,-141.9 2411.09,-140.41 2420.57,-138.81"/>
<polygon fill="midnightblue" stroke="midnightblue" points="2421.43,-142.22 2430.68,-137.05 2420.23,-135.32 2421.43,-142.22"/>
</g>
<!-- Node34&#45;&gt;Node10 -->
<g id="edge65" class="edge">
<title>Node34&#45;&gt;Node10</title>
<path fill="none" stroke="midnightblue" d="M1464.49,-189.81C1311.18,-182.12 979.85,-163.37 932,-143 890.57,-125.36 875.78,-116.45 856,-76 848.94,-61.56 848.49,-43.11 849.48,-29.56"/>
<polygon fill="midnightblue" stroke="midnightblue" points="852.97,-29.83 850.54,-19.52 846.01,-29.1 852.97,-29.83"/>
</g>
<!-- Node34&#45;&gt;Node18 -->
<g id="edge56" class="edge">
<title>Node34&#45;&gt;Node18</title>
<path fill="none" stroke="midnightblue" d="M1499.49,-179.49C1471.92,-170.02 1435.42,-156.78 1404,-143 1344.47,-116.89 1329.82,-109.31 1274,-76 1247.18,-60 1217.71,-39.32 1198.82,-25.63"/>
<polygon fill="midnightblue" stroke="midnightblue" points="1200.83,-22.76 1190.69,-19.7 1196.7,-28.42 1200.83,-22.76"/>
</g>
<!-- Node34&#45;&gt;Node26 -->
<g id="edge66" class="edge">
<title>Node34&#45;&gt;Node26</title>
<path fill="none" stroke="midnightblue" d="M1555.3,-179.48C1577.67,-155.9 1622.7,-108.43 1646.48,-83.36"/>
<polygon fill="midnightblue" stroke="midnightblue" points="1649.32,-85.45 1653.66,-75.79 1644.24,-80.63 1649.32,-85.45"/>
</g>
<!-- Node35 -->
<g id="node35" class="node">
<title>Node35</title>
<g id="a_node35"><a xlink:href="_coll_mgr_8_h.html" target="_top" xlink:title=" ">
<polygon fill="white" stroke="black" points="2212.5,-118 2212.5,-137 2349.5,-137 2349.5,-118 2212.5,-118"/>
<text text-anchor="middle" x="2281" y="-125" font-family="Helvetica,sans-Serif" font-size="10.00">amr&#45;wind/core/CollMgr.H</text>
</a>
</g>
</g>
<!-- Node34&#45;&gt;Node35 -->
<g id="edge58" class="edge">
<title>Node34&#45;&gt;Node35</title>
<path fill="none" stroke="midnightblue" d="M1619.69,-186.67C1761.37,-174.2 2060.2,-147.92 2202.49,-135.41"/>
<polygon fill="midnightblue" stroke="midnightblue" points="2202.8,-138.89 2212.46,-134.53 2202.19,-131.92 2202.8,-138.89"/>
</g>
<!-- Node36 -->
<g id="node36" class="node">
<title>Node36</title>
<g id="a_node36"><a xlink:href="_p_d_e_fields_8_h.html" target="_top" xlink:title=" ">
<polygon fill="white" stroke="black" points="1413.5,-112.5 1413.5,-142.5 1568.5,-142.5 1568.5,-112.5 1413.5,-112.5"/>
<text text-anchor="start" x="1421.5" y="-130.5" font-family="Helvetica,sans-Serif" font-size="10.00">amr&#45;wind/equation_systems</text>
<text text-anchor="middle" x="1491" y="-119.5" font-family="Helvetica,sans-Serif" font-size="10.00">/PDEFields.H</text>
</a>
</g>
</g>
<!-- Node34&#45;&gt;Node36 -->
<g id="edge63" class="edge">
<title>Node34&#45;&gt;Node36</title>
<path fill="none" stroke="midnightblue" d="M1530.93,-179.4C1524.32,-170.96 1515.77,-160.07 1508.28,-150.52"/>
<polygon fill="midnightblue" stroke="midnightblue" points="1510.97,-148.28 1502.04,-142.58 1505.46,-152.6 1510.97,-148.28"/>
</g>
<!-- Node35&#45;&gt;Node4 -->
<g id="edge61" class="edge">
<title>Node35&#45;&gt;Node4</title>
<path fill="none" stroke="midnightblue" d="M2266.39,-117.98C2249.65,-108.21 2222,-92.08 2202.28,-80.58"/>
<polygon fill="midnightblue" stroke="midnightblue" points="2203.99,-77.52 2193.59,-75.51 2200.46,-83.57 2203.99,-77.52"/>
</g>
<!-- Node35&#45;&gt;Node6 -->
<g id="edge60" class="edge">
<title>Node35&#45;&gt;Node6</title>
<path fill="none" stroke="midnightblue" d="M2290.74,-117.98C2301.35,-108.7 2318.52,-93.67 2331.48,-82.33"/>
<polygon fill="midnightblue" stroke="midnightblue" points="2334.05,-84.73 2339.28,-75.51 2329.44,-79.46 2334.05,-84.73"/>
</g>
<!-- Node35&#45;&gt;Node18 -->
<g id="edge59" class="edge">
<title>Node35&#45;&gt;Node18</title>
<path fill="none" stroke="midnightblue" d="M2278.3,-117.84C2272.92,-102.26 2259.26,-69.81 2235,-56 2232.15,-54.38 1388.88,-19.63 1211.5,-12.34"/>
<polygon fill="midnightblue" stroke="midnightblue" points="1211.61,-8.84 1201.48,-11.92 1211.33,-15.83 1211.61,-8.84"/>
</g>
<!-- Node35&#45;&gt;Node28 -->
<g id="edge62" class="edge">
<title>Node35&#45;&gt;Node28</title>
<path fill="none" stroke="midnightblue" d="M2282.39,-117.97C2284.31,-102.89 2285.75,-71.63 2268,-56 2240.01,-31.35 1701.83,-16.6 1520.25,-12.32"/>
<polygon fill="midnightblue" stroke="midnightblue" points="1520.16,-8.81 1510.08,-12.08 1520,-15.81 1520.16,-8.81"/>
</g>
<!-- Node37 -->
<g id="node37" class="node">
<title>Node37</title>
<g id="a_node37"><a xlink:title=" ">
<polygon fill="white" stroke="#bfbfbf" points="1283,-56.5 1283,-75.5 1331,-75.5 1331,-56.5 1283,-56.5"/>
<text text-anchor="middle" x="1307" y="-63.5" font-family="Helvetica,sans-Serif" font-size="10.00">iosfwd</text>
</a>
</g>
</g>
<!-- Node36&#45;&gt;Node37 -->
<g id="edge64" class="edge">
<title>Node36&#45;&gt;Node37</title>
<path fill="none" stroke="midnightblue" d="M1447.39,-112.4C1414.74,-101.84 1370.72,-87.6 1340.73,-77.91"/>
<polygon fill="midnightblue" stroke="midnightblue" points="1341.73,-74.55 1331.13,-74.8 1339.57,-81.21 1341.73,-74.55"/>
</g>
<!-- Node38&#45;&gt;Node5 -->
<g id="edge68" class="edge">
<title>Node38&#45;&gt;Node5</title>
<path fill="none" stroke="midnightblue" d="M2473,-184.73C2473,-175.18 2473,-159.62 2473,-147.28"/>
<polygon fill="midnightblue" stroke="midnightblue" points="2476.5,-147.13 2473,-137.13 2469.5,-147.13 2476.5,-147.13"/>
</g>
<!-- Node38&#45;&gt;Node20 -->
<g id="edge70" class="edge">
<title>Node38&#45;&gt;Node20</title>
<path fill="none" stroke="midnightblue" d="M2541.77,-189.54C2609.37,-184.04 2705.7,-171.35 2729,-143 2746.95,-121.17 2709.79,-57.34 2708,-56 2665.63,-24.24 2316.04,-14.6 2168.89,-11.93"/>
<polygon fill="midnightblue" stroke="midnightblue" points="2168.71,-8.43 2158.65,-11.75 2168.59,-15.43 2168.71,-8.43"/>
</g>
<!-- Node38&#45;&gt;Node35 -->
<g id="edge69" class="edge">
<title>Node38&#45;&gt;Node35</title>
<path fill="none" stroke="midnightblue" d="M2447.5,-184.87C2413.7,-173.42 2353.9,-153.18 2315.92,-140.32"/>
<polygon fill="midnightblue" stroke="midnightblue" points="2316.89,-136.96 2306.3,-137.06 2314.65,-143.59 2316.89,-136.96"/>
</g>
<!-- Node39 -->
<g id="node39" class="node">
<title>Node39</title>
<g id="a_node39"><a xlink:title=" ">
<polygon fill="white" stroke="#bfbfbf" points="2604.5,-118 2604.5,-137 2719.5,-137 2719.5,-118 2604.5,-118"/>
<text text-anchor="middle" x="2662" y="-125" font-family="Helvetica,sans-Serif" font-size="10.00">AMReX_Geometry.H</text>
</a>
</g>
</g>
<!-- Node38&#45;&gt;Node39 -->
<g id="edge71" class="edge">
<title>Node38&#45;&gt;Node39</title>
<path fill="none" stroke="midnightblue" d="M2498.1,-184.87C2531.37,-173.42 2590.24,-153.18 2627.62,-140.32"/>
<polygon fill="midnightblue" stroke="midnightblue" points="2628.78,-143.63 2637.1,-137.06 2626.5,-137.01 2628.78,-143.63"/>
</g>
<!-- Node40&#45;&gt;Node5 -->
<g id="edge74" class="edge">
<title>Node40&#45;&gt;Node5</title>
<path fill="none" stroke="midnightblue" d="M2319.5,-184.87C2350.4,-173.52 2404.86,-153.52 2439.91,-140.65"/>
<polygon fill="midnightblue" stroke="midnightblue" points="2441.5,-143.8 2449.68,-137.06 2439.09,-137.23 2441.5,-143.8"/>
</g>
<!-- Node40&#45;&gt;Node20 -->
<g id="edge76" class="edge">
<title>Node40&#45;&gt;Node20</title>
<path fill="none" stroke="midnightblue" d="M2351.39,-185C2414.66,-174.84 2513.94,-157.41 2549,-143 2572.14,-133.49 2573.72,-123.39 2596,-112 2639.64,-89.69 2724.31,-91.96 2691,-56 2656.09,-18.31 2313.97,-12.07 2168.7,-11.12"/>
<polygon fill="midnightblue" stroke="midnightblue" points="2168.61,-7.62 2158.59,-11.06 2168.57,-14.62 2168.61,-7.62"/>
</g>
<!-- Node40&#45;&gt;Node22 -->
<g id="edge75" class="edge">
<title>Node40&#45;&gt;Node22</title>
<path fill="none" stroke="midnightblue" d="M2240,-184.94C2161.78,-172.97 2020.08,-151.3 1936.88,-138.58"/>
<polygon fill="midnightblue" stroke="midnightblue" points="1937.2,-135.08 1926.78,-137.03 1936.14,-142 1937.2,-135.08"/>
</g>
<!-- Node40&#45;&gt;Node35 -->
<g id="edge73" class="edge">
<title>Node40&#45;&gt;Node35</title>
<path fill="none" stroke="midnightblue" d="M2293.98,-184.73C2291.75,-175.09 2288.11,-159.3 2285.25,-146.91"/>
<polygon fill="midnightblue" stroke="midnightblue" points="2288.65,-146.08 2282.99,-137.13 2281.83,-147.66 2288.65,-146.08"/>
</g>
<!-- Node40&#45;&gt;Node39 -->
<g id="edge77" class="edge">
<title>Node40&#45;&gt;Node39</title>
<path fill="none" stroke="midnightblue" d="M2348.39,-184.97C2407.26,-175.27 2505.62,-158.74 2590,-143 2596.65,-141.76 2603.64,-140.41 2610.54,-139.05"/>
<polygon fill="midnightblue" stroke="midnightblue" points="2611.41,-142.44 2620.54,-137.06 2610.05,-135.58 2611.41,-142.44"/>
</g>
</g>
</svg>
