<?xml version="1.0" encoding="UTF-8" standalone="no"?>
<!DOCTYPE svg PUBLIC "-//W3C//DTD SVG 1.1//EN"
 "http://www.w3.org/Graphics/SVG/1.1/DTD/svg11.dtd">
<!-- Generated by graphviz version 2.43.0 (0)
 -->
<!-- Title: LinearProfile.cpp Pages: 1 -->
<svg width="1900pt" height="263pt"
 viewBox="0.00 0.00 1899.50 263.00" xmlns="http://www.w3.org/2000/svg" xmlns:xlink="http://www.w3.org/1999/xlink">
<g id="graph0" class="graph" transform="scale(1 1) rotate(0) translate(4 259)">
<title>LinearProfile.cpp</title>
<polygon fill="white" stroke="transparent" points="-4,4 -4,-259 1895.5,-259 1895.5,4 -4,4"/>
<!-- Node1 -->
<g id="node1" class="node">
<title>Node1</title>
<g id="a_node1"><a xlink:title=" ">
<polygon fill="#bfbfbf" stroke="black" points="704.5,-235.5 704.5,-254.5 802.5,-254.5 802.5,-235.5 704.5,-235.5"/>
<text text-anchor="middle" x="753.5" y="-242.5" font-family="Helvetica,sans-Serif" font-size="10.00">LinearProfile.cpp</text>
</a>
</g>
</g>
<!-- Node2 -->
<g id="node2" class="node">
<title>Node2</title>
<g id="a_node2"><a xlink:href="_linear_profile_8_h.html" target="_top" xlink:title=" ">
<polygon fill="white" stroke="black" points="344,-168.5 344,-198.5 471,-198.5 471,-168.5 344,-168.5"/>
<text text-anchor="start" x="352" y="-186.5" font-family="Helvetica,sans-Serif" font-size="10.00">amr&#45;wind/physics/udfs</text>
<text text-anchor="middle" x="407.5" y="-175.5" font-family="Helvetica,sans-Serif" font-size="10.00">/LinearProfile.H</text>
</a>
</g>
</g>
<!-- Node1&#45;&gt;Node2 -->
<g id="edge1" class="edge">
<title>Node1&#45;&gt;Node2</title>
<path fill="none" stroke="midnightblue" d="M704.29,-235.54C646.09,-225.53 548.62,-208.77 481.34,-197.2"/>
<polygon fill="midnightblue" stroke="midnightblue" points="481.68,-193.71 471.23,-195.46 480.49,-200.6 481.68,-193.71"/>
</g>
<!-- Node5 -->
<g id="node5" class="node">
<title>Node5</title>
<g id="a_node5"><a xlink:href="_field_8_h.html" target="_top" xlink:title=" ">
<polygon fill="white" stroke="black" points="436.5,-112.5 436.5,-131.5 560.5,-131.5 560.5,-112.5 436.5,-112.5"/>
<text text-anchor="middle" x="498.5" y="-119.5" font-family="Helvetica,sans-Serif" font-size="10.00">amr&#45;wind/core/Field.H</text>
</a>
</g>
</g>
<!-- Node1&#45;&gt;Node5 -->
<g id="edge4" class="edge">
<title>Node1&#45;&gt;Node5</title>
<path fill="none" stroke="midnightblue" d="M735.57,-235.49C691.6,-214.63 578.2,-160.82 525.8,-135.95"/>
<polygon fill="midnightblue" stroke="midnightblue" points="527.29,-132.79 516.75,-131.66 524.29,-139.11 527.29,-132.79"/>
</g>
<!-- Node16 -->
<g id="node16" class="node">
<title>Node16</title>
<g id="a_node16"><a xlink:href="_field_repo_8_h.html" target="_top" xlink:title=" ">
<polygon fill="white" stroke="black" points="819,-174 819,-193 968,-193 968,-174 819,-174"/>
<text text-anchor="middle" x="893.5" y="-181" font-family="Helvetica,sans-Serif" font-size="10.00">amr&#45;wind/core/FieldRepo.H</text>
</a>
</g>
</g>
<!-- Node1&#45;&gt;Node16 -->
<g id="edge19" class="edge">
<title>Node1&#45;&gt;Node16</title>
<path fill="none" stroke="midnightblue" d="M773.56,-235.48C797.26,-225.4 836.91,-208.55 864.08,-197"/>
<polygon fill="midnightblue" stroke="midnightblue" points="865.64,-200.14 873.48,-193.01 862.91,-193.7 865.64,-200.14"/>
</g>
<!-- Node25 -->
<g id="node25" class="node">
<title>Node25</title>
<g id="a_node25"><a xlink:title=" ">
<polygon fill="white" stroke="#bfbfbf" points="986,-174 986,-193 1105,-193 1105,-174 986,-174"/>
<text text-anchor="middle" x="1045.5" y="-181" font-family="Helvetica,sans-Serif" font-size="10.00">AMReX_ParmParse.H</text>
</a>
</g>
</g>
<!-- Node1&#45;&gt;Node25 -->
<g id="edge43" class="edge">
<title>Node1&#45;&gt;Node25</title>
<path fill="none" stroke="midnightblue" d="M796.27,-235.47C841.18,-226.5 913.83,-211.91 976.5,-199 982.56,-197.75 988.91,-196.43 995.21,-195.12"/>
<polygon fill="midnightblue" stroke="midnightblue" points="995.94,-198.54 1005.01,-193.06 994.51,-191.69 995.94,-198.54"/>
</g>
<!-- Node3 -->
<g id="node3" class="node">
<title>Node3</title>
<g id="a_node3"><a xlink:title=" ">
<polygon fill="white" stroke="#bfbfbf" points="264,-112.5 264,-131.5 379,-131.5 379,-112.5 264,-112.5"/>
<text text-anchor="middle" x="321.5" y="-119.5" font-family="Helvetica,sans-Serif" font-size="10.00">AMReX_Geometry.H</text>
</a>
</g>
</g>
<!-- Node2&#45;&gt;Node3 -->
<g id="edge2" class="edge">
<title>Node2&#45;&gt;Node3</title>
<path fill="none" stroke="midnightblue" d="M387.12,-168.4C373.59,-159.04 355.89,-146.79 342.28,-137.38"/>
<polygon fill="midnightblue" stroke="midnightblue" points="344.23,-134.47 334.01,-131.66 340.25,-140.23 344.23,-134.47"/>
</g>
<!-- Node4 -->
<g id="node4" class="node">
<title>Node4</title>
<g id="a_node4"><a xlink:title=" ">
<polygon fill="white" stroke="#bfbfbf" points="0,-56.5 0,-75.5 87,-75.5 87,-56.5 0,-56.5"/>
<text text-anchor="middle" x="43.5" y="-63.5" font-family="Helvetica,sans-Serif" font-size="10.00">AMReX_Gpu.H</text>
</a>
</g>
</g>
<!-- Node2&#45;&gt;Node4 -->
<g id="edge3" class="edge">
<title>Node2&#45;&gt;Node4</title>
<path fill="none" stroke="midnightblue" d="M407.8,-168.46C407.31,-152.24 403.82,-125.99 387.5,-112 340.16,-71.41 175.95,-84.2 97.22,-75.83"/>
<polygon fill="midnightblue" stroke="midnightblue" points="97.51,-72.34 87.15,-74.57 96.64,-79.29 97.51,-72.34"/>
</g>
<!-- Node5&#45;&gt;Node4 -->
<g id="edge11" class="edge">
<title>Node5&#45;&gt;Node4</title>
<path fill="none" stroke="midnightblue" d="M436.31,-113.7C431.3,-113.12 426.31,-112.55 421.5,-112 280.35,-95.93 242.12,-96.15 97.3,-76.04"/>
<polygon fill="midnightblue" stroke="midnightblue" points="97.53,-72.53 87.14,-74.62 96.56,-79.47 97.53,-72.53"/>
</g>
<!-- Node6 -->
<g id="node6" class="node">
<title>Node6</title>
<g id="a_node6"><a xlink:title=" ">
<polygon fill="white" stroke="#bfbfbf" points="792.5,-0.5 792.5,-19.5 836.5,-19.5 836.5,-0.5 792.5,-0.5"/>
<text text-anchor="middle" x="814.5" y="-7.5" font-family="Helvetica,sans-Serif" font-size="10.00">string</text>
</a>
</g>
</g>
<!-- Node5&#45;&gt;Node6 -->
<g id="edge5" class="edge">
<title>Node5&#45;&gt;Node6</title>
<path fill="none" stroke="midnightblue" d="M494.29,-112.2C488.4,-98.42 479.83,-71.71 493.5,-56 530.72,-13.2 708.36,-9.9 782.2,-10.43"/>
<polygon fill="midnightblue" stroke="midnightblue" points="782.28,-13.93 792.31,-10.54 782.35,-6.93 782.28,-13.93"/>
</g>
<!-- Node7 -->
<g id="node7" class="node">
<title>Node7</title>
<g id="a_node7"><a xlink:title=" ">
<polygon fill="white" stroke="#bfbfbf" points="502.5,-56.5 502.5,-75.5 560.5,-75.5 560.5,-56.5 502.5,-56.5"/>
<text text-anchor="middle" x="531.5" y="-63.5" font-family="Helvetica,sans-Serif" font-size="10.00">memory</text>
</a>
</g>
</g>
<!-- Node5&#45;&gt;Node7 -->
<g id="edge6" class="edge">
<title>Node5&#45;&gt;Node7</title>
<path fill="none" stroke="midnightblue" d="M503.95,-112.08C508.51,-104.61 515.17,-93.72 520.79,-84.52"/>
<polygon fill="midnightblue" stroke="midnightblue" points="523.92,-86.11 526.15,-75.75 517.95,-82.46 523.92,-86.11"/>
</g>
<!-- Node8 -->
<g id="node8" class="node">
<title>Node8</title>
<g id="a_node8"><a xlink:title=" ">
<polygon fill="white" stroke="#bfbfbf" points="693,-56.5 693,-75.5 786,-75.5 786,-56.5 693,-56.5"/>
<text text-anchor="middle" x="739.5" y="-63.5" font-family="Helvetica,sans-Serif" font-size="10.00">unordered_map</text>
</a>
</g>
</g>
<!-- Node5&#45;&gt;Node8 -->
<g id="edge7" class="edge">
<title>Node5&#45;&gt;Node8</title>
<path fill="none" stroke="midnightblue" d="M536.69,-112.44C578.64,-103.04 646.09,-87.93 691.57,-77.74"/>
<polygon fill="midnightblue" stroke="midnightblue" points="692.5,-81.12 701.49,-75.52 690.97,-74.29 692.5,-81.12"/>
</g>
<!-- Node9 -->
<g id="node9" class="node">
<title>Node9</title>
<g id="a_node9"><a xlink:title=" ">
<polygon fill="white" stroke="#bfbfbf" points="105.5,-56.5 105.5,-75.5 169.5,-75.5 169.5,-56.5 105.5,-56.5"/>
<text text-anchor="middle" x="137.5" y="-63.5" font-family="Helvetica,sans-Serif" font-size="10.00">algorithm</text>
</a>
</g>
</g>
<!-- Node5&#45;&gt;Node9 -->
<g id="edge8" class="edge">
<title>Node5&#45;&gt;Node9</title>
<path fill="none" stroke="midnightblue" d="M436.33,-113.69C373.9,-106.02 274.74,-92.96 179.75,-76.11"/>
<polygon fill="midnightblue" stroke="midnightblue" points="180.14,-72.63 169.68,-74.31 178.91,-79.52 180.14,-72.63"/>
</g>
<!-- Node10 -->
<g id="node10" class="node">
<title>Node10</title>
<g id="a_node10"><a xlink:title=" ">
<polygon fill="white" stroke="#bfbfbf" points="1480,-0.5 1480,-19.5 1589,-19.5 1589,-0.5 1480,-0.5"/>
<text text-anchor="middle" x="1534.5" y="-7.5" font-family="Helvetica,sans-Serif" font-size="10.00">AMReX_MultiFab.H</text>
</a>
</g>
</g>
<!-- Node5&#45;&gt;Node10 -->
<g id="edge9" class="edge">
<title>Node5&#45;&gt;Node10</title>
<path fill="none" stroke="midnightblue" d="M527.53,-112.5C555.85,-104 600.02,-90.18 637.5,-76 658.35,-68.11 661.8,-61.11 683.5,-56 721.57,-47.03 1277.51,-22.17 1469.7,-13.79"/>
<polygon fill="midnightblue" stroke="midnightblue" points="1470.1,-17.28 1479.94,-13.35 1469.8,-10.29 1470.1,-17.28"/>
</g>
<!-- Node11 -->
<g id="node11" class="node">
<title>Node11</title>
<g id="a_node11"><a xlink:title=" ">
<polygon fill="white" stroke="#bfbfbf" points="188,-56.5 188,-75.5 287,-75.5 287,-56.5 188,-56.5"/>
<text text-anchor="middle" x="237.5" y="-63.5" font-family="Helvetica,sans-Serif" font-size="10.00">AMReX_BCRec.H</text>
</a>
</g>
</g>
<!-- Node5&#45;&gt;Node11 -->
<g id="edge10" class="edge">
<title>Node5&#45;&gt;Node11</title>
<path fill="none" stroke="midnightblue" d="M457.14,-112.44C411.42,-102.98 337.74,-87.74 288.48,-77.55"/>
<polygon fill="midnightblue" stroke="midnightblue" points="289.16,-74.12 278.66,-75.52 287.75,-80.97 289.16,-74.12"/>
</g>
<!-- Node12 -->
<g id="node12" class="node">
<title>Node12</title>
<g id="a_node12"><a xlink:href="incflo__enums_8_h.html" target="_top" xlink:title=" ">
<polygon fill="white" stroke="black" points="305,-56.5 305,-75.5 446,-75.5 446,-56.5 305,-56.5"/>
<text text-anchor="middle" x="375.5" y="-63.5" font-family="Helvetica,sans-Serif" font-size="10.00">amr&#45;wind/incflo_enums.H</text>
</a>
</g>
</g>
<!-- Node5&#45;&gt;Node12 -->
<g id="edge12" class="edge">
<title>Node5&#45;&gt;Node12</title>
<path fill="none" stroke="midnightblue" d="M479.01,-112.44C458.86,-103.6 427.18,-89.69 404.17,-79.59"/>
<polygon fill="midnightblue" stroke="midnightblue" points="405.46,-76.33 394.9,-75.52 402.65,-82.74 405.46,-76.33"/>
</g>
<!-- Node13 -->
<g id="node13" class="node">
<title>Node13</title>
<g id="a_node13"><a xlink:href="_field_desc_types_8_h.html" target="_top" xlink:title=" ">
<polygon fill="white" stroke="black" points="989.5,-0.5 989.5,-19.5 1165.5,-19.5 1165.5,-0.5 989.5,-0.5"/>
<text text-anchor="middle" x="1077.5" y="-7.5" font-family="Helvetica,sans-Serif" font-size="10.00">amr&#45;wind/core/FieldDescTypes.H</text>
</a>
</g>
</g>
<!-- Node5&#45;&gt;Node13 -->
<g id="edge13" class="edge">
<title>Node5&#45;&gt;Node13</title>
<path fill="none" stroke="midnightblue" d="M514.35,-112.32C541.4,-97.97 598.56,-69.51 650.5,-56 760.83,-27.29 891.74,-16.82 979.26,-13.05"/>
<polygon fill="midnightblue" stroke="midnightblue" points="979.6,-16.54 989.45,-12.63 979.31,-9.54 979.6,-16.54"/>
</g>
<!-- Node14 -->
<g id="node14" class="node">
<title>Node14</title>
<g id="a_node14"><a xlink:href="_view_field_8_h.html" target="_top" xlink:title=" ">
<polygon fill="white" stroke="black" points="1124.5,-56.5 1124.5,-75.5 1272.5,-75.5 1272.5,-56.5 1124.5,-56.5"/>
<text text-anchor="middle" x="1198.5" y="-63.5" font-family="Helvetica,sans-Serif" font-size="10.00">amr&#45;wind/core/ViewField.H</text>
</a>
</g>
</g>
<!-- Node5&#45;&gt;Node14 -->
<g id="edge14" class="edge">
<title>Node5&#45;&gt;Node14</title>
<path fill="none" stroke="midnightblue" d="M560.62,-116.21C686.5,-106.5 971.8,-84.49 1114.27,-73.5"/>
<polygon fill="midnightblue" stroke="midnightblue" points="1114.58,-76.98 1124.28,-72.73 1114.04,-70.01 1114.58,-76.98"/>
</g>
<!-- Node14&#45;&gt;Node6 -->
<g id="edge15" class="edge">
<title>Node14&#45;&gt;Node6</title>
<path fill="none" stroke="midnightblue" d="M1137.65,-56.44C1055.12,-44.84 910.65,-24.52 846.62,-15.52"/>
<polygon fill="midnightblue" stroke="midnightblue" points="847.09,-12.05 836.7,-14.12 846.11,-18.98 847.09,-12.05"/>
</g>
<!-- Node14&#45;&gt;Node10 -->
<g id="edge17" class="edge">
<title>Node14&#45;&gt;Node10</title>
<path fill="none" stroke="midnightblue" d="M1251.74,-56.44C1311.46,-46.85 1408.24,-31.29 1471.63,-21.1"/>
<polygon fill="midnightblue" stroke="midnightblue" points="1472.19,-24.56 1481.51,-19.52 1471.08,-17.65 1472.19,-24.56"/>
</g>
<!-- Node14&#45;&gt;Node13 -->
<g id="edge16" class="edge">
<title>Node14&#45;&gt;Node13</title>
<path fill="none" stroke="midnightblue" d="M1179.33,-56.44C1159.59,-47.64 1128.61,-33.81 1106.01,-23.72"/>
<polygon fill="midnightblue" stroke="midnightblue" points="1107.14,-20.4 1096.58,-19.52 1104.29,-26.79 1107.14,-20.4"/>
</g>
<!-- Node15 -->
<g id="node15" class="node">
<title>Node15</title>
<g id="a_node15"><a xlink:title=" ">
<polygon fill="white" stroke="#bfbfbf" points="1208.5,-0.5 1208.5,-19.5 1306.5,-19.5 1306.5,-0.5 1208.5,-0.5"/>
<text text-anchor="middle" x="1257.5" y="-7.5" font-family="Helvetica,sans-Serif" font-size="10.00">AMReX_Vector.H</text>
</a>
</g>
</g>
<!-- Node14&#45;&gt;Node15 -->
<g id="edge18" class="edge">
<title>Node14&#45;&gt;Node15</title>
<path fill="none" stroke="midnightblue" d="M1207.98,-56.32C1216.7,-48.34 1229.84,-36.31 1240.4,-26.65"/>
<polygon fill="midnightblue" stroke="midnightblue" points="1242.83,-29.17 1247.85,-19.83 1238.11,-24 1242.83,-29.17"/>
</g>
<!-- Node16&#45;&gt;Node5 -->
<g id="edge27" class="edge">
<title>Node16&#45;&gt;Node5</title>
<path fill="none" stroke="midnightblue" d="M836.91,-173.98C765.04,-163.15 641.25,-144.5 564.97,-133.01"/>
<polygon fill="midnightblue" stroke="midnightblue" points="565.4,-129.54 554.99,-131.51 564.36,-136.46 565.4,-129.54"/>
</g>
<!-- Node16&#45;&gt;Node6 -->
<g id="edge20" class="edge">
<title>Node16&#45;&gt;Node6</title>
<path fill="none" stroke="midnightblue" d="M839.23,-173.91C786.78,-162.21 711.29,-135.44 683.5,-76 664.04,-34.37 737.58,-19.12 782.34,-13.75"/>
<polygon fill="midnightblue" stroke="midnightblue" points="782.93,-17.21 792.49,-12.64 782.17,-10.25 782.93,-17.21"/>
</g>
<!-- Node16&#45;&gt;Node8 -->
<g id="edge21" class="edge">
<title>Node16&#45;&gt;Node8</title>
<path fill="none" stroke="midnightblue" d="M850.03,-173.96C823.33,-166.75 790.03,-153.96 767.5,-132 754.6,-119.42 747.29,-99.93 743.4,-85.57"/>
<polygon fill="midnightblue" stroke="midnightblue" points="746.79,-84.7 741.06,-75.79 739.98,-86.33 746.79,-84.7"/>
</g>
<!-- Node16&#45;&gt;Node10 -->
<g id="edge41" class="edge">
<title>Node16&#45;&gt;Node10</title>
<path fill="none" stroke="midnightblue" d="M938.19,-173.94C950.56,-171.78 964.02,-169.61 976.5,-168 1144.78,-146.27 1625.01,-205.63 1734.5,-76 1740.24,-69.21 1740.05,-62.94 1734.5,-56 1725.83,-45.16 1653.42,-30.82 1598.2,-21.27"/>
<polygon fill="midnightblue" stroke="midnightblue" points="1598.56,-17.78 1588.11,-19.54 1597.38,-24.68 1598.56,-17.78"/>
</g>
<!-- Node16&#45;&gt;Node13 -->
<g id="edge22" class="edge">
<title>Node16&#45;&gt;Node13</title>
<path fill="none" stroke="midnightblue" d="M902.62,-174C931.75,-146.85 1022.79,-62 1060.68,-26.67"/>
<polygon fill="midnightblue" stroke="midnightblue" points="1063.39,-28.93 1068.32,-19.56 1058.62,-23.81 1063.39,-28.93"/>
</g>
<!-- Node17 -->
<g id="node17" class="node">
<title>Node17</title>
<g id="a_node17"><a xlink:href="_field_utils_8_h.html" target="_top" xlink:title=" ">
<polygon fill="white" stroke="black" points="1579.5,-56.5 1579.5,-75.5 1725.5,-75.5 1725.5,-56.5 1579.5,-56.5"/>
<text text-anchor="middle" x="1652.5" y="-63.5" font-family="Helvetica,sans-Serif" font-size="10.00">amr&#45;wind/core/FieldUtils.H</text>
</a>
</g>
</g>
<!-- Node16&#45;&gt;Node17 -->
<g id="edge23" class="edge">
<title>Node16&#45;&gt;Node17</title>
<path fill="none" stroke="midnightblue" d="M938.64,-173.99C950.89,-171.85 964.18,-169.69 976.5,-168 1136.69,-146.07 1178.67,-156.42 1338.5,-132 1435,-117.26 1546.63,-92.21 1607.38,-77.9"/>
<polygon fill="midnightblue" stroke="midnightblue" points="1608.48,-81.23 1617.4,-75.52 1606.86,-74.42 1608.48,-81.23"/>
</g>
<!-- Node19 -->
<g id="node19" class="node">
<title>Node19</title>
<g id="a_node19"><a xlink:href="_int_field_8_h.html" target="_top" xlink:title=" ">
<polygon fill="white" stroke="black" points="777,-112.5 777,-131.5 914,-131.5 914,-112.5 777,-112.5"/>
<text text-anchor="middle" x="845.5" y="-119.5" font-family="Helvetica,sans-Serif" font-size="10.00">amr&#45;wind/core/IntField.H</text>
</a>
</g>
</g>
<!-- Node16&#45;&gt;Node19 -->
<g id="edge28" class="edge">
<title>Node16&#45;&gt;Node19</title>
<path fill="none" stroke="midnightblue" d="M886.62,-173.98C879.35,-164.96 867.7,-150.52 858.66,-139.31"/>
<polygon fill="midnightblue" stroke="midnightblue" points="861.37,-137.09 852.36,-131.51 855.92,-141.49 861.37,-137.09"/>
</g>
<!-- Node20 -->
<g id="node20" class="node">
<title>Node20</title>
<g id="a_node20"><a xlink:title=" ">
<polygon fill="white" stroke="#bfbfbf" points="880.5,-56.5 880.5,-75.5 992.5,-75.5 992.5,-56.5 880.5,-56.5"/>
<text text-anchor="middle" x="936.5" y="-63.5" font-family="Helvetica,sans-Serif" font-size="10.00">AMReX_iMultiFab.H</text>
</a>
</g>
</g>
<!-- Node16&#45;&gt;Node20 -->
<g id="edge42" class="edge">
<title>Node16&#45;&gt;Node20</title>
<path fill="none" stroke="midnightblue" d="M899.5,-173.97C906.08,-164.25 916.48,-147.67 922.5,-132 928.26,-117 931.9,-99.09 934.02,-85.87"/>
<polygon fill="midnightblue" stroke="midnightblue" points="937.53,-86.06 935.5,-75.66 930.6,-85.05 937.53,-86.06"/>
</g>
<!-- Node21 -->
<g id="node21" class="node">
<title>Node21</title>
<g id="a_node21"><a xlink:href="_scratch_field_8_h.html" target="_top" xlink:title=" ">
<polygon fill="white" stroke="black" points="1169.5,-112.5 1169.5,-131.5 1329.5,-131.5 1329.5,-112.5 1169.5,-112.5"/>
<text text-anchor="middle" x="1249.5" y="-119.5" font-family="Helvetica,sans-Serif" font-size="10.00">amr&#45;wind/core/ScratchField.H</text>
</a>
</g>
</g>
<!-- Node16&#45;&gt;Node21 -->
<g id="edge32" class="edge">
<title>Node16&#45;&gt;Node21</title>
<path fill="none" stroke="midnightblue" d="M941.76,-173.99C953.15,-172 965.25,-169.91 976.5,-168 1048.61,-155.76 1131.53,-142.16 1186.88,-133.15"/>
<polygon fill="midnightblue" stroke="midnightblue" points="1187.58,-136.58 1196.88,-131.52 1186.45,-129.67 1187.58,-136.58"/>
</g>
<!-- Node24 -->
<g id="node24" class="node">
<title>Node24</title>
<g id="a_node24"><a xlink:title=" ">
<polygon fill="white" stroke="#bfbfbf" points="1781.5,-112.5 1781.5,-131.5 1891.5,-131.5 1891.5,-112.5 1781.5,-112.5"/>
<text text-anchor="middle" x="1836.5" y="-119.5" font-family="Helvetica,sans-Serif" font-size="10.00">AMReX_AmrCore.H</text>
</a>
</g>
</g>
<!-- Node16&#45;&gt;Node24 -->
<g id="edge40" class="edge">
<title>Node16&#45;&gt;Node24</title>
<path fill="none" stroke="midnightblue" d="M936.43,-173.93C949.27,-171.65 963.41,-169.44 976.5,-168 1326.32,-129.64 1416.93,-162.79 1767.5,-132 1768.61,-131.9 1769.74,-131.8 1770.87,-131.69"/>
<polygon fill="midnightblue" stroke="midnightblue" points="1771.59,-135.14 1781.18,-130.63 1770.88,-128.17 1771.59,-135.14"/>
</g>
<!-- Node17&#45;&gt;Node10 -->
<g id="edge25" class="edge">
<title>Node17&#45;&gt;Node10</title>
<path fill="none" stroke="midnightblue" d="M1633.8,-56.44C1614.56,-47.64 1584.35,-33.81 1562.3,-23.72"/>
<polygon fill="midnightblue" stroke="midnightblue" points="1563.66,-20.5 1553.11,-19.52 1560.75,-26.86 1563.66,-20.5"/>
</g>
<!-- Node17&#45;&gt;Node13 -->
<g id="edge24" class="edge">
<title>Node17&#45;&gt;Node13</title>
<path fill="none" stroke="midnightblue" d="M1579.38,-58.13C1476.91,-48.51 1290.32,-30.99 1175.78,-20.23"/>
<polygon fill="midnightblue" stroke="midnightblue" points="1175.9,-16.73 1165.62,-19.28 1175.24,-23.69 1175.9,-16.73"/>
</g>
<!-- Node18 -->
<g id="node18" class="node">
<title>Node18</title>
<g id="a_node18"><a xlink:title=" ">
<polygon fill="white" stroke="#bfbfbf" points="1607.5,-0.5 1607.5,-19.5 1731.5,-19.5 1731.5,-0.5 1607.5,-0.5"/>
<text text-anchor="middle" x="1669.5" y="-7.5" font-family="Helvetica,sans-Serif" font-size="10.00">AMReX_Interpolater.H</text>
</a>
</g>
</g>
<!-- Node17&#45;&gt;Node18 -->
<g id="edge26" class="edge">
<title>Node17&#45;&gt;Node18</title>
<path fill="none" stroke="midnightblue" d="M1655.31,-56.08C1657.58,-48.85 1660.87,-38.41 1663.71,-29.4"/>
<polygon fill="midnightblue" stroke="midnightblue" points="1667.08,-30.34 1666.75,-19.75 1660.4,-28.24 1667.08,-30.34"/>
</g>
<!-- Node19&#45;&gt;Node6 -->
<g id="edge29" class="edge">
<title>Node19&#45;&gt;Node6</title>
<path fill="none" stroke="midnightblue" d="M843.07,-112.37C838.04,-94.54 826.42,-53.3 819.65,-29.27"/>
<polygon fill="midnightblue" stroke="midnightblue" points="823,-28.27 816.92,-19.59 816.27,-30.17 823,-28.27"/>
</g>
<!-- Node19&#45;&gt;Node13 -->
<g id="edge30" class="edge">
<title>Node19&#45;&gt;Node13</title>
<path fill="none" stroke="midnightblue" d="M846.4,-112.36C848.34,-98.3 854.25,-70.61 871.5,-56 890.32,-40.06 946.38,-28.44 995.27,-21"/>
<polygon fill="midnightblue" stroke="midnightblue" points="995.88,-24.45 1005.26,-19.52 994.86,-17.52 995.88,-24.45"/>
</g>
<!-- Node19&#45;&gt;Node20 -->
<g id="edge31" class="edge">
<title>Node19&#45;&gt;Node20</title>
<path fill="none" stroke="midnightblue" d="M860.12,-112.32C874.45,-103.82 896.51,-90.73 913.25,-80.8"/>
<polygon fill="midnightblue" stroke="midnightblue" points="915.1,-83.77 921.92,-75.65 911.53,-77.75 915.1,-83.77"/>
</g>
<!-- Node21&#45;&gt;Node6 -->
<g id="edge33" class="edge">
<title>Node21&#45;&gt;Node6</title>
<path fill="none" stroke="midnightblue" d="M1217.84,-112.48C1170.75,-99.87 1079.42,-75.58 1001.5,-56 947.18,-42.35 883.77,-27.27 846.49,-18.49"/>
<polygon fill="midnightblue" stroke="midnightblue" points="847.24,-15.07 836.7,-16.19 845.63,-21.89 847.24,-15.07"/>
</g>
<!-- Node21&#45;&gt;Node10 -->
<g id="edge37" class="edge">
<title>Node21&#45;&gt;Node10</title>
<path fill="none" stroke="midnightblue" d="M1329.69,-119.28C1403.85,-115.82 1506.4,-105.64 1532.5,-76 1543.44,-63.58 1542.5,-44.06 1539.71,-29.65"/>
<polygon fill="midnightblue" stroke="midnightblue" points="1543.09,-28.75 1537.37,-19.83 1536.28,-30.37 1543.09,-28.75"/>
</g>
<!-- Node21&#45;&gt;Node13 -->
<g id="edge35" class="edge">
<title>Node21&#45;&gt;Node13</title>
<path fill="none" stroke="midnightblue" d="M1196.88,-112.45C1170.25,-106 1138.73,-94.89 1115.5,-76 1100.49,-63.79 1090.13,-43.96 1084.06,-29.41"/>
<polygon fill="midnightblue" stroke="midnightblue" points="1087.27,-28 1080.4,-19.93 1080.74,-30.52 1087.27,-28"/>
</g>
<!-- Node21&#45;&gt;Node14 -->
<g id="edge36" class="edge">
<title>Node21&#45;&gt;Node14</title>
<path fill="none" stroke="midnightblue" d="M1241.08,-112.08C1233.65,-104.22 1222.65,-92.57 1213.69,-83.08"/>
<polygon fill="midnightblue" stroke="midnightblue" points="1216.18,-80.62 1206.76,-75.75 1211.09,-85.42 1216.18,-80.62"/>
</g>
<!-- Node21&#45;&gt;Node15 -->
<g id="edge38" class="edge">
<title>Node21&#45;&gt;Node15</title>
<path fill="none" stroke="midnightblue" d="M1258.25,-112.29C1266.06,-103.84 1276.95,-90.25 1281.5,-76 1286.74,-59.59 1278.6,-41.19 1270.42,-28.17"/>
<polygon fill="midnightblue" stroke="midnightblue" points="1273.18,-26.01 1264.64,-19.74 1267.41,-29.97 1273.18,-26.01"/>
</g>
<!-- Node22 -->
<g id="node22" class="node">
<title>Node22</title>
<g id="a_node22"><a xlink:title=" ">
<polygon fill="white" stroke="#bfbfbf" points="1329,-56.5 1329,-75.5 1374,-75.5 1374,-56.5 1329,-56.5"/>
<text text-anchor="middle" x="1351.5" y="-63.5" font-family="Helvetica,sans-Serif" font-size="10.00">utility</text>
</a>
</g>
</g>
<!-- Node21&#45;&gt;Node22 -->
<g id="edge34" class="edge">
<title>Node21&#45;&gt;Node22</title>
<path fill="none" stroke="midnightblue" d="M1265.89,-112.32C1282.17,-103.7 1307.37,-90.36 1326.22,-80.39"/>
<polygon fill="midnightblue" stroke="midnightblue" points="1327.95,-83.43 1335.15,-75.65 1324.68,-77.24 1327.95,-83.43"/>
</g>
<!-- Node23 -->
<g id="node23" class="node">
<title>Node23</title>
<g id="a_node23"><a xlink:title=" ">
<polygon fill="white" stroke="#bfbfbf" points="1392,-56.5 1392,-75.5 1523,-75.5 1523,-56.5 1392,-56.5"/>
<text text-anchor="middle" x="1457.5" y="-63.5" font-family="Helvetica,sans-Serif" font-size="10.00">AMReX_PhysBCFunct.H</text>
</a>
</g>
</g>
<!-- Node21&#45;&gt;Node23 -->
<g id="edge39" class="edge">
<title>Node21&#45;&gt;Node23</title>
<path fill="none" stroke="midnightblue" d="M1282.46,-112.44C1318.29,-103.14 1375.66,-88.25 1414.89,-78.06"/>
<polygon fill="midnightblue" stroke="midnightblue" points="1415.9,-81.42 1424.7,-75.52 1414.14,-74.64 1415.9,-81.42"/>
</g>
</g>
</svg>
