<?xml version="1.0" encoding="UTF-8" standalone="no"?>
<!DOCTYPE svg PUBLIC "-//W3C//DTD SVG 1.1//EN"
 "http://www.w3.org/Graphics/SVG/1.1/DTD/svg11.dtd">
<!-- Generated by graphviz version 2.43.0 (0)
 -->
<!-- Title: MeshMap.H Pages: 1 -->
<svg width="4536pt" height="252pt"
 viewBox="0.00 0.00 4536.00 252.00" xmlns="http://www.w3.org/2000/svg" xmlns:xlink="http://www.w3.org/1999/xlink">
<g id="graph0" class="graph" transform="scale(1 1) rotate(0) translate(4 248)">
<title>MeshMap.H</title>
<polygon fill="white" stroke="transparent" points="-4,4 -4,-248 4532,-248 4532,4 -4,4"/>
<!-- Node1 -->
<g id="node1" class="node">
<title>Node1</title>
<g id="a_node1"><a xlink:title=" ">
<polygon fill="#bfbfbf" stroke="black" points="2378,-224.5 2378,-243.5 2452,-243.5 2452,-224.5 2378,-224.5"/>
<text text-anchor="middle" x="2415" y="-231.5" font-family="Helvetica,sans-Serif" font-size="10.00">MeshMap.H</text>
</a>
</g>
</g>
<!-- Node2 -->
<g id="node2" class="node">
<title>Node2</title>
<g id="a_node2"><a xlink:href="_c_f_d_sim_8_h.html" target="_top" xlink:title=" ">
<polygon fill="white" stroke="red" points="2329,-168.5 2329,-187.5 2395,-187.5 2395,-168.5 2329,-168.5"/>
<text text-anchor="middle" x="2362" y="-175.5" font-family="Helvetica,sans-Serif" font-size="10.00">CFDSim.H</text>
</a>
</g>
</g>
<!-- Node1&#45;&gt;Node2 -->
<g id="edge1" class="edge">
<title>Node1&#45;&gt;Node2</title>
<path fill="none" stroke="midnightblue" d="M2399.02,-216.72C2389.68,-207.2 2378.25,-195.56 2370.59,-187.75"/>
<polygon fill="midnightblue" stroke="midnightblue" points="2396.75,-219.4 2406.25,-224.08 2401.74,-214.49 2396.75,-219.4"/>
</g>
<!-- Node4 -->
<g id="node4" class="node">
<title>Node4</title>
<g id="a_node4"><a xlink:href="_mesh_map_8cpp.html" target="_top" xlink:title=" ">
<polygon fill="white" stroke="black" points="0,-112.5 0,-131.5 84,-131.5 84,-112.5 0,-112.5"/>
<text text-anchor="middle" x="42" y="-119.5" font-family="Helvetica,sans-Serif" font-size="10.00">MeshMap.cpp</text>
</a>
</g>
</g>
<!-- Node1&#45;&gt;Node4 -->
<g id="edge57" class="edge">
<title>Node1&#45;&gt;Node4</title>
<path fill="none" stroke="midnightblue" d="M2367.81,-233.24C2126.23,-234.01 1004.01,-231.76 93,-132 90.14,-131.69 87.2,-131.31 84.24,-130.89"/>
<polygon fill="midnightblue" stroke="midnightblue" points="2368.01,-236.74 2377.99,-233.21 2367.98,-229.74 2368.01,-236.74"/>
</g>
<!-- Node188 -->
<g id="node49" class="node">
<title>Node188</title>
<g id="a_node49"><a xlink:href="_channel_flow_map_8_h.html" target="_top" xlink:title=" ">
<polygon fill="white" stroke="red" points="2413.5,-168.5 2413.5,-187.5 2524.5,-187.5 2524.5,-168.5 2413.5,-168.5"/>
<text text-anchor="middle" x="2469" y="-175.5" font-family="Helvetica,sans-Serif" font-size="10.00">ChannelFlowMap.H</text>
</a>
</g>
</g>
<!-- Node1&#45;&gt;Node188 -->
<g id="edge58" class="edge">
<title>Node1&#45;&gt;Node188</title>
<path fill="none" stroke="midnightblue" d="M2431,-217C2440.57,-207.43 2452.36,-195.64 2460.25,-187.75"/>
<polygon fill="midnightblue" stroke="midnightblue" points="2428.51,-214.54 2423.92,-224.08 2433.46,-219.49 2428.51,-214.54"/>
</g>
<!-- Node190 -->
<g id="node50" class="node">
<title>Node190</title>
<g id="a_node50"><a xlink:href="_constant_map_8_h.html" target="_top" xlink:title=" ">
<polygon fill="white" stroke="red" points="2543,-168.5 2543,-187.5 2635,-187.5 2635,-168.5 2543,-168.5"/>
<text text-anchor="middle" x="2589" y="-175.5" font-family="Helvetica,sans-Serif" font-size="10.00">ConstantMap.H</text>
</a>
</g>
</g>
<!-- Node1&#45;&gt;Node190 -->
<g id="edge59" class="edge">
<title>Node1&#45;&gt;Node190</title>
<path fill="none" stroke="midnightblue" d="M2452.26,-221.44C2485.07,-211.26 2532.08,-196.66 2561.56,-187.52"/>
<polygon fill="midnightblue" stroke="midnightblue" points="2451.08,-218.14 2442.57,-224.44 2453.16,-224.82 2451.08,-218.14"/>
</g>
<!-- Node3 -->
<g id="node3" class="node">
<title>Node3</title>
<g id="a_node3"><a xlink:href="_c_f_d_sim_8cpp.html" target="_top" xlink:title=" ">
<polygon fill="white" stroke="black" points="102,-112.5 102,-131.5 178,-131.5 178,-112.5 102,-112.5"/>
<text text-anchor="middle" x="140" y="-119.5" font-family="Helvetica,sans-Serif" font-size="10.00">CFDSim.cpp</text>
</a>
</g>
</g>
<!-- Node2&#45;&gt;Node3 -->
<g id="edge2" class="edge">
<title>Node2&#45;&gt;Node3</title>
<path fill="none" stroke="midnightblue" d="M2318.68,-176.54C2031.43,-173.46 406.02,-155.07 187,-132 184.11,-131.7 181.13,-131.31 178.14,-130.86"/>
<polygon fill="midnightblue" stroke="midnightblue" points="2318.68,-180.04 2328.72,-176.65 2318.75,-173.04 2318.68,-180.04"/>
</g>
<!-- Node2&#45;&gt;Node4 -->
<g id="edge3" class="edge">
<title>Node2&#45;&gt;Node4</title>
<path fill="none" stroke="midnightblue" d="M2318.7,-176.55C2024.36,-173.4 322.14,-154.35 93,-132 90.14,-131.72 87.19,-131.37 84.23,-130.97"/>
<polygon fill="midnightblue" stroke="midnightblue" points="2318.93,-180.05 2328.96,-176.65 2319,-173.05 2318.93,-180.05"/>
</g>
<!-- Node5 -->
<g id="node5" class="node">
<title>Node5</title>
<g id="a_node5"><a xlink:href="incflo_8_h.html" target="_top" xlink:title=" ">
<polygon fill="white" stroke="red" points="196.5,-112.5 196.5,-131.5 249.5,-131.5 249.5,-112.5 196.5,-112.5"/>
<text text-anchor="middle" x="223" y="-119.5" font-family="Helvetica,sans-Serif" font-size="10.00">incflo.H</text>
</a>
</g>
</g>
<!-- Node2&#45;&gt;Node5 -->
<g id="edge4" class="edge">
<title>Node2&#45;&gt;Node5</title>
<path fill="none" stroke="midnightblue" d="M2318.78,-176.67C2037.2,-174.47 468.73,-160.95 258,-132 255.27,-131.62 252.44,-131.11 249.63,-130.52"/>
<polygon fill="midnightblue" stroke="midnightblue" points="2318.97,-180.18 2328.99,-176.75 2319.02,-173.18 2318.97,-180.18"/>
</g>
<!-- Node17 -->
<g id="node6" class="node">
<title>Node17</title>
<g id="a_node6"><a xlink:href="_p_d_e_ops_8_h.html" target="_top" xlink:title=" ">
<polygon fill="white" stroke="red" points="267.5,-112.5 267.5,-131.5 332.5,-131.5 332.5,-112.5 267.5,-112.5"/>
<text text-anchor="middle" x="300" y="-119.5" font-family="Helvetica,sans-Serif" font-size="10.00">PDEOps.H</text>
</a>
</g>
</g>
<!-- Node2&#45;&gt;Node17 -->
<g id="edge5" class="edge">
<title>Node2&#45;&gt;Node17</title>
<path fill="none" stroke="midnightblue" d="M2318.56,-177.02C2062.58,-176.97 748.35,-174.61 347,-132 342.29,-131.5 337.35,-130.78 332.51,-129.95"/>
<polygon fill="midnightblue" stroke="midnightblue" points="2318.93,-180.52 2328.93,-177.02 2318.93,-173.52 2318.93,-180.52"/>
</g>
<!-- Node34 -->
<g id="node7" class="node">
<title>Node34</title>
<g id="a_node7"><a xlink:href="_p_d_e_8_h.html" target="_top" xlink:title=" ">
<polygon fill="white" stroke="red" points="307.5,-56.5 307.5,-75.5 354.5,-75.5 354.5,-56.5 307.5,-56.5"/>
<text text-anchor="middle" x="331" y="-63.5" font-family="Helvetica,sans-Serif" font-size="10.00">PDE.H</text>
</a>
</g>
</g>
<!-- Node2&#45;&gt;Node34 -->
<g id="edge7" class="edge">
<title>Node2&#45;&gt;Node34</title>
<path fill="none" stroke="midnightblue" d="M2318.43,-176.53C2031.63,-173.41 424.63,-154.88 380,-132 356.36,-119.88 341.01,-90.51 334.53,-75.76"/>
<polygon fill="midnightblue" stroke="midnightblue" points="2318.8,-180.04 2328.83,-176.65 2318.87,-173.04 2318.8,-180.04"/>
</g>
<!-- Node56 -->
<g id="node8" class="node">
<title>Node56</title>
<g id="a_node8"><a xlink:href="_a_b_l_forcing_8cpp.html" target="_top" xlink:title=" ">
<polygon fill="white" stroke="black" points="389.5,-112.5 389.5,-131.5 480.5,-131.5 480.5,-112.5 389.5,-112.5"/>
<text text-anchor="middle" x="435" y="-119.5" font-family="Helvetica,sans-Serif" font-size="10.00">ABLForcing.cpp</text>
</a>
</g>
</g>
<!-- Node2&#45;&gt;Node56 -->
<g id="edge8" class="edge">
<title>Node2&#45;&gt;Node56</title>
<path fill="none" stroke="midnightblue" d="M2318.71,-176.69C2074.43,-174.84 866,-164.17 495,-132 490.38,-131.6 485.58,-131.07 480.79,-130.47"/>
<polygon fill="midnightblue" stroke="midnightblue" points="2318.94,-180.19 2328.96,-176.77 2318.99,-173.19 2318.94,-180.19"/>
</g>
<!-- Node57 -->
<g id="node9" class="node">
<title>Node57</title>
<g id="a_node9"><a xlink:href="_a_b_l_wall_function_8_h.html" target="_top" xlink:title=" ">
<polygon fill="white" stroke="red" points="584.5,-56.5 584.5,-75.5 691.5,-75.5 691.5,-56.5 584.5,-56.5"/>
<text text-anchor="middle" x="638" y="-63.5" font-family="Helvetica,sans-Serif" font-size="10.00">ABLWallFunction.H</text>
</a>
</g>
</g>
<!-- Node2&#45;&gt;Node57 -->
<g id="edge9" class="edge">
<title>Node2&#45;&gt;Node57</title>
<path fill="none" stroke="midnightblue" d="M2318.53,-176.74C2047.27,-175.03 597.58,-164.38 566,-132 545.19,-110.66 587.57,-87.76 615.72,-75.65"/>
<polygon fill="midnightblue" stroke="midnightblue" points="2318.74,-180.24 2328.76,-176.81 2318.78,-173.24 2318.74,-180.24"/>
</g>
<!-- Node61 -->
<g id="node10" class="node">
<title>Node61</title>
<g id="a_node10"><a xlink:href="_a_b_l_stats_base_8_h.html" target="_top" xlink:title=" ">
<polygon fill="white" stroke="red" points="506.5,-0.5 506.5,-19.5 601.5,-19.5 601.5,-0.5 506.5,-0.5"/>
<text text-anchor="middle" x="554" y="-7.5" font-family="Helvetica,sans-Serif" font-size="10.00">ABLStatsBase.H</text>
</a>
</g>
</g>
<!-- Node2&#45;&gt;Node61 -->
<g id="edge15" class="edge">
<title>Node2&#45;&gt;Node61</title>
<path fill="none" stroke="midnightblue" d="M2318.75,-176.74C2047.32,-175 589.16,-164.16 557,-132 526.39,-101.39 543.1,-41.69 550.8,-19.54"/>
<polygon fill="midnightblue" stroke="midnightblue" points="2318.97,-180.24 2328.99,-176.8 2319.01,-173.24 2318.97,-180.24"/>
</g>
<!-- Node64 -->
<g id="node11" class="node">
<title>Node64</title>
<g id="a_node11"><a xlink:href="_boussinesq_bubble_8cpp.html" target="_top" xlink:title=" ">
<polygon fill="white" stroke="black" points="620,-0.5 620,-19.5 746,-19.5 746,-0.5 620,-0.5"/>
<text text-anchor="middle" x="683" y="-7.5" font-family="Helvetica,sans-Serif" font-size="10.00">BoussinesqBubble.cpp</text>
</a>
</g>
</g>
<!-- Node2&#45;&gt;Node64 -->
<g id="edge34" class="edge">
<title>Node2&#45;&gt;Node64</title>
<path fill="none" stroke="midnightblue" d="M2318.6,-177.01C2068.18,-176.93 816.68,-174.38 748,-132 726.59,-118.79 696.32,-45.16 686.33,-19.68"/>
<polygon fill="midnightblue" stroke="midnightblue" points="2318.76,-180.51 2328.76,-177.01 2318.76,-173.51 2318.76,-180.51"/>
</g>
<!-- Node65 -->
<g id="node12" class="node">
<title>Node65</title>
<g id="a_node12"><a xlink:href="_field_plane_averaging_8_h.html" target="_top" xlink:title=" ">
<polygon fill="white" stroke="red" points="575,-112.5 575,-131.5 701,-131.5 701,-112.5 575,-112.5"/>
<text text-anchor="middle" x="638" y="-119.5" font-family="Helvetica,sans-Serif" font-size="10.00">FieldPlaneAveraging.H</text>
</a>
</g>
</g>
<!-- Node2&#45;&gt;Node65 -->
<g id="edge12" class="edge">
<title>Node2&#45;&gt;Node65</title>
<path fill="none" stroke="midnightblue" d="M2318.75,-177.23C2129.01,-177.95 1351.33,-177.79 715,-132 710.57,-131.68 706,-131.3 701.41,-130.86"/>
<polygon fill="midnightblue" stroke="midnightblue" points="2318.89,-180.73 2328.88,-177.19 2318.87,-173.73 2318.89,-180.73"/>
</g>
<!-- Node72 -->
<g id="node13" class="node">
<title>Node72</title>
<g id="a_node13"><a xlink:href="_a_b_l_boundary_plane_8_h.html" target="_top" xlink:title=" ">
<polygon fill="white" stroke="red" points="757.5,-112.5 757.5,-131.5 876.5,-131.5 876.5,-112.5 757.5,-112.5"/>
<text text-anchor="middle" x="817" y="-119.5" font-family="Helvetica,sans-Serif" font-size="10.00">ABLBoundaryPlane.H</text>
</a>
</g>
</g>
<!-- Node2&#45;&gt;Node72 -->
<g id="edge14" class="edge">
<title>Node2&#45;&gt;Node72</title>
<path fill="none" stroke="midnightblue" d="M2318.71,-177.25C2141.1,-177.93 1451.04,-177.35 886,-132 882.99,-131.76 879.91,-131.48 876.8,-131.17"/>
<polygon fill="midnightblue" stroke="midnightblue" points="2318.96,-180.75 2328.94,-177.2 2318.93,-173.75 2318.96,-180.75"/>
</g>
<!-- Node59 -->
<g id="node14" class="node">
<title>Node59</title>
<g id="a_node14"><a xlink:href="_a_b_l_mean_boussinesq_8cpp.html" target="_top" xlink:title=" ">
<polygon fill="white" stroke="black" points="895,-112.5 895,-131.5 1033,-131.5 1033,-112.5 895,-112.5"/>
<text text-anchor="middle" x="964" y="-119.5" font-family="Helvetica,sans-Serif" font-size="10.00">ABLMeanBoussinesq.cpp</text>
</a>
</g>
</g>
<!-- Node2&#45;&gt;Node59 -->
<g id="edge16" class="edge">
<title>Node2&#45;&gt;Node59</title>
<path fill="none" stroke="midnightblue" d="M2318.5,-176.79C2152.45,-175.73 1542.64,-169.36 1042,-132 1039.15,-131.79 1036.23,-131.55 1033.29,-131.29"/>
<polygon fill="midnightblue" stroke="midnightblue" points="2318.77,-180.29 2328.79,-176.86 2318.81,-173.29 2318.77,-180.29"/>
</g>
<!-- Node76 -->
<g id="node15" class="node">
<title>Node76</title>
<g id="a_node15"><a xlink:href="_actuator_forcing_8cpp.html" target="_top" xlink:title=" ">
<polygon fill="white" stroke="black" points="1051.5,-112.5 1051.5,-131.5 1164.5,-131.5 1164.5,-112.5 1051.5,-112.5"/>
<text text-anchor="middle" x="1108" y="-119.5" font-family="Helvetica,sans-Serif" font-size="10.00">ActuatorForcing.cpp</text>
</a>
</g>
</g>
<!-- Node2&#45;&gt;Node76 -->
<g id="edge17" class="edge">
<title>Node2&#45;&gt;Node76</title>
<path fill="none" stroke="midnightblue" d="M2318.78,-176.89C2163.62,-176.15 1620.23,-170.78 1174,-132 1171,-131.74 1167.94,-131.44 1164.84,-131.11"/>
<polygon fill="midnightblue" stroke="midnightblue" points="2318.84,-180.39 2328.86,-176.93 2318.87,-173.39 2318.84,-180.39"/>
</g>
<!-- Node77 -->
<g id="node16" class="node">
<title>Node77</title>
<g id="a_node16"><a xlink:href="_body_force_8cpp.html" target="_top" xlink:title=" ">
<polygon fill="white" stroke="black" points="1183,-112.5 1183,-131.5 1271,-131.5 1271,-112.5 1183,-112.5"/>
<text text-anchor="middle" x="1227" y="-119.5" font-family="Helvetica,sans-Serif" font-size="10.00">BodyForce.cpp</text>
</a>
</g>
</g>
<!-- Node2&#45;&gt;Node77 -->
<g id="edge18" class="edge">
<title>Node2&#45;&gt;Node77</title>
<path fill="none" stroke="midnightblue" d="M2318.3,-177.16C2171.36,-177.29 1681.76,-174.29 1280,-132 1277.12,-131.7 1274.16,-131.34 1271.19,-130.93"/>
<polygon fill="midnightblue" stroke="midnightblue" points="2318.69,-180.66 2328.68,-177.15 2318.68,-173.66 2318.69,-180.66"/>
</g>
<!-- Node78 -->
<g id="node17" class="node">
<title>Node78</title>
<g id="a_node17"><a xlink:href="_boussinesq_buoyancy_8cpp.html" target="_top" xlink:title=" ">
<polygon fill="white" stroke="black" points="1289.5,-112.5 1289.5,-131.5 1428.5,-131.5 1428.5,-112.5 1289.5,-112.5"/>
<text text-anchor="middle" x="1359" y="-119.5" font-family="Helvetica,sans-Serif" font-size="10.00">BoussinesqBuoyancy.cpp</text>
</a>
</g>
</g>
<!-- Node2&#45;&gt;Node78 -->
<g id="edge19" class="edge">
<title>Node2&#45;&gt;Node78</title>
<path fill="none" stroke="midnightblue" d="M2318.63,-175.91C2186.28,-172.37 1775.95,-159.77 1437,-132 1434.28,-131.78 1431.51,-131.53 1428.72,-131.28"/>
<polygon fill="midnightblue" stroke="midnightblue" points="2318.68,-179.41 2328.76,-176.18 2318.86,-172.42 2318.68,-179.41"/>
</g>
<!-- Node79 -->
<g id="node18" class="node">
<title>Node79</title>
<g id="a_node18"><a xlink:href="_coriolis_forcing_8cpp.html" target="_top" xlink:title=" ">
<polygon fill="white" stroke="black" points="1446.5,-112.5 1446.5,-131.5 1555.5,-131.5 1555.5,-112.5 1446.5,-112.5"/>
<text text-anchor="middle" x="1501" y="-119.5" font-family="Helvetica,sans-Serif" font-size="10.00">CoriolisForcing.cpp</text>
</a>
</g>
</g>
<!-- Node2&#45;&gt;Node79 -->
<g id="edge20" class="edge">
<title>Node2&#45;&gt;Node79</title>
<path fill="none" stroke="midnightblue" d="M2318.6,-175.86C2198.42,-172.41 1851.17,-160.56 1564,-132 1561.25,-131.73 1558.44,-131.42 1555.6,-131.09"/>
<polygon fill="midnightblue" stroke="midnightblue" points="2318.76,-179.36 2328.85,-176.15 2318.96,-172.37 2318.76,-179.36"/>
</g>
<!-- Node80 -->
<g id="node19" class="node">
<title>Node80</title>
<g id="a_node19"><a xlink:href="_density_buoyancy_8cpp.html" target="_top" xlink:title=" ">
<polygon fill="white" stroke="black" points="1573.5,-112.5 1573.5,-131.5 1694.5,-131.5 1694.5,-112.5 1573.5,-112.5"/>
<text text-anchor="middle" x="1634" y="-119.5" font-family="Helvetica,sans-Serif" font-size="10.00">DensityBuoyancy.cpp</text>
</a>
</g>
</g>
<!-- Node2&#45;&gt;Node80 -->
<g id="edge21" class="edge">
<title>Node2&#45;&gt;Node80</title>
<path fill="none" stroke="midnightblue" d="M2318.41,-174.95C2212.71,-169.79 1934.41,-154.97 1703,-132 1700.24,-131.73 1697.41,-131.43 1694.56,-131.11"/>
<polygon fill="midnightblue" stroke="midnightblue" points="2318.52,-178.46 2328.68,-175.45 2318.86,-171.47 2318.52,-178.46"/>
</g>
<!-- Node81 -->
<g id="node20" class="node">
<title>Node81</title>
<g id="a_node20"><a xlink:href="_geostrophic_forcing_8cpp.html" target="_top" xlink:title=" ">
<polygon fill="white" stroke="black" points="1712.5,-112.5 1712.5,-131.5 1843.5,-131.5 1843.5,-112.5 1712.5,-112.5"/>
<text text-anchor="middle" x="1778" y="-119.5" font-family="Helvetica,sans-Serif" font-size="10.00">GeostrophicForcing.cpp</text>
</a>
</g>
</g>
<!-- Node2&#45;&gt;Node81 -->
<g id="edge22" class="edge">
<title>Node2&#45;&gt;Node81</title>
<path fill="none" stroke="midnightblue" d="M2318.8,-173.64C2230.98,-166.71 2025.33,-149.95 1853,-132 1850,-131.69 1846.93,-131.36 1843.84,-131.02"/>
<polygon fill="midnightblue" stroke="midnightblue" points="2318.67,-177.14 2328.92,-174.44 2319.22,-170.16 2318.67,-177.14"/>
</g>
<!-- Node82 -->
<g id="node21" class="node">
<title>Node82</title>
<g id="a_node21"><a xlink:href="_gravity_forcing_8cpp.html" target="_top" xlink:title=" ">
<polygon fill="white" stroke="black" points="1862,-112.5 1862,-131.5 1970,-131.5 1970,-112.5 1862,-112.5"/>
<text text-anchor="middle" x="1916" y="-119.5" font-family="Helvetica,sans-Serif" font-size="10.00">GravityForcing.cpp</text>
</a>
</g>
</g>
<!-- Node2&#45;&gt;Node82 -->
<g id="edge23" class="edge">
<title>Node2&#45;&gt;Node82</title>
<path fill="none" stroke="midnightblue" d="M2318.58,-172.26C2247.52,-164.41 2101.98,-148.01 1979,-132 1976.15,-131.63 1973.23,-131.24 1970.28,-130.84"/>
<polygon fill="midnightblue" stroke="midnightblue" points="2318.6,-175.78 2328.92,-173.39 2319.37,-168.82 2318.6,-175.78"/>
</g>
<!-- Node83 -->
<g id="node22" class="node">
<title>Node83</title>
<g id="a_node22"><a xlink:href="_synth_turb_forcing_8cpp.html" target="_top" xlink:title=" ">
<polygon fill="white" stroke="black" points="1988,-112.5 1988,-131.5 2108,-131.5 2108,-112.5 1988,-112.5"/>
<text text-anchor="middle" x="2048" y="-119.5" font-family="Helvetica,sans-Serif" font-size="10.00">SynthTurbForcing.cpp</text>
</a>
</g>
</g>
<!-- Node2&#45;&gt;Node83 -->
<g id="edge24" class="edge">
<title>Node2&#45;&gt;Node83</title>
<path fill="none" stroke="midnightblue" d="M2319.08,-169.62C2261.24,-159.67 2158.51,-142 2097.48,-131.51"/>
<polygon fill="midnightblue" stroke="midnightblue" points="2318.54,-173.08 2328.99,-171.32 2319.73,-166.18 2318.54,-173.08"/>
</g>
<!-- Node84 -->
<g id="node23" class="node">
<title>Node84</title>
<g id="a_node23"><a xlink:href="_p_d_e_base_8cpp.html" target="_top" xlink:title=" ">
<polygon fill="white" stroke="black" points="2126,-112.5 2126,-131.5 2206,-131.5 2206,-112.5 2126,-112.5"/>
<text text-anchor="middle" x="2166" y="-119.5" font-family="Helvetica,sans-Serif" font-size="10.00">PDEBase.cpp</text>
</a>
</g>
</g>
<!-- Node2&#45;&gt;Node84 -->
<g id="edge25" class="edge">
<title>Node2&#45;&gt;Node84</title>
<path fill="none" stroke="midnightblue" d="M2320.98,-165.7C2283.99,-155.51 2230.4,-140.74 2196.91,-131.52"/>
<polygon fill="midnightblue" stroke="midnightblue" points="2320.37,-169.16 2330.94,-168.44 2322.23,-162.41 2320.37,-169.16"/>
</g>
<!-- Node85 -->
<g id="node24" class="node">
<title>Node85</title>
<g id="a_node24"><a xlink:href="_s_d_r_src_8cpp.html" target="_top" xlink:title=" ">
<polygon fill="white" stroke="black" points="2224,-112.5 2224,-131.5 2296,-131.5 2296,-112.5 2224,-112.5"/>
<text text-anchor="middle" x="2260" y="-119.5" font-family="Helvetica,sans-Serif" font-size="10.00">SDRSrc.cpp</text>
</a>
</g>
</g>
<!-- Node2&#45;&gt;Node85 -->
<g id="edge26" class="edge">
<title>Node2&#45;&gt;Node85</title>
<path fill="none" stroke="midnightblue" d="M2336.67,-163.59C2317.81,-153.61 2292.62,-140.27 2276.35,-131.65"/>
<polygon fill="midnightblue" stroke="midnightblue" points="2335.14,-166.74 2345.61,-168.32 2338.41,-160.55 2335.14,-166.74"/>
</g>
<!-- Node86 -->
<g id="node25" class="node">
<title>Node86</title>
<g id="a_node25"><a xlink:href="_ksgs_m84_src_8cpp.html" target="_top" xlink:title=" ">
<polygon fill="white" stroke="black" points="2314,-112.5 2314,-131.5 2410,-131.5 2410,-112.5 2314,-112.5"/>
<text text-anchor="middle" x="2362" y="-119.5" font-family="Helvetica,sans-Serif" font-size="10.00">KsgsM84Src.cpp</text>
</a>
</g>
</g>
<!-- Node2&#45;&gt;Node86 -->
<g id="edge27" class="edge">
<title>Node2&#45;&gt;Node86</title>
<path fill="none" stroke="midnightblue" d="M2362,-157.8C2362,-148.91 2362,-138.78 2362,-131.75"/>
<polygon fill="midnightblue" stroke="midnightblue" points="2358.5,-158.08 2362,-168.08 2365.5,-158.08 2358.5,-158.08"/>
</g>
<!-- Node87 -->
<g id="node26" class="node">
<title>Node87</title>
<g id="a_node26"><a xlink:href="_kw_s_s_t_src_8cpp.html" target="_top" xlink:title=" ">
<polygon fill="white" stroke="black" points="2428.5,-112.5 2428.5,-131.5 2513.5,-131.5 2513.5,-112.5 2428.5,-112.5"/>
<text text-anchor="middle" x="2471" y="-119.5" font-family="Helvetica,sans-Serif" font-size="10.00">KwSSTSrc.cpp</text>
</a>
</g>
</g>
<!-- Node2&#45;&gt;Node87 -->
<g id="edge28" class="edge">
<title>Node2&#45;&gt;Node87</title>
<path fill="none" stroke="midnightblue" d="M2388.52,-163.86C2408.73,-153.85 2435.99,-140.35 2453.53,-131.65"/>
<polygon fill="midnightblue" stroke="midnightblue" points="2386.92,-160.75 2379.51,-168.32 2390.03,-167.02 2386.92,-160.75"/>
</g>
<!-- Node88 -->
<g id="node27" class="node">
<title>Node88</title>
<g id="a_node27"><a xlink:href="_i_b_ops_8_h.html" target="_top" xlink:title=" ">
<polygon fill="white" stroke="red" points="2532,-112.5 2532,-131.5 2588,-131.5 2588,-112.5 2532,-112.5"/>
<text text-anchor="middle" x="2560" y="-119.5" font-family="Helvetica,sans-Serif" font-size="10.00">IBOps.H</text>
</a>
</g>
</g>
<!-- Node2&#45;&gt;Node88 -->
<g id="edge29" class="edge">
<title>Node2&#45;&gt;Node88</title>
<path fill="none" stroke="midnightblue" d="M2403.26,-165.75C2441.83,-155.23 2498.39,-139.8 2531.97,-130.64"/>
<polygon fill="midnightblue" stroke="midnightblue" points="2402.1,-162.44 2393.37,-168.44 2403.94,-169.19 2402.1,-162.44"/>
</g>
<!-- Node99 -->
<g id="node28" class="node">
<title>Node99</title>
<g id="a_node28"><a xlink:href="_convecting_taylor_vortex_8_h.html" target="_top" xlink:title=" ">
<polygon fill="white" stroke="red" points="2606.5,-112.5 2606.5,-131.5 2749.5,-131.5 2749.5,-112.5 2606.5,-112.5"/>
<text text-anchor="middle" x="2678" y="-119.5" font-family="Helvetica,sans-Serif" font-size="10.00">ConvectingTaylorVortex.H</text>
</a>
</g>
</g>
<!-- Node2&#45;&gt;Node99 -->
<g id="edge30" class="edge">
<title>Node2&#45;&gt;Node99</title>
<path fill="none" stroke="midnightblue" d="M2405.72,-167.74C2485.91,-152.72 2567.95,-139.67 2621.18,-131.51"/>
<polygon fill="midnightblue" stroke="midnightblue" points="2404.62,-164.39 2395.44,-169.68 2405.92,-171.27 2404.62,-164.39"/>
</g>
<!-- Node100 -->
<g id="node29" class="node">
<title>Node100</title>
<g id="a_node29"><a xlink:href="_convecting_taylor_vortex_8cpp.html" target="_top" xlink:title=" ">
<polygon fill="white" stroke="black" points="2652,-56.5 2652,-75.5 2804,-75.5 2804,-56.5 2652,-56.5"/>
<text text-anchor="middle" x="2728" y="-63.5" font-family="Helvetica,sans-Serif" font-size="10.00">ConvectingTaylorVortex.cpp</text>
</a>
</g>
</g>
<!-- Node2&#45;&gt;Node100 -->
<g id="edge38" class="edge">
<title>Node2&#45;&gt;Node100</title>
<path fill="none" stroke="midnightblue" d="M2405.33,-168.18C2497.99,-158.1 2706.91,-188.55 2758,-132 2773.33,-115.03 2751.13,-88.88 2737.42,-75.51"/>
<polygon fill="midnightblue" stroke="midnightblue" points="2404.86,-164.71 2395.41,-169.5 2405.78,-171.65 2404.86,-164.71"/>
</g>
<!-- Node98 -->
<g id="node30" class="node">
<title>Node98</title>
<g id="a_node30"><a xlink:href="_i_b_8cpp.html" target="_top" xlink:title=" ">
<polygon fill="white" stroke="black" points="2806.5,-112.5 2806.5,-131.5 2853.5,-131.5 2853.5,-112.5 2806.5,-112.5"/>
<text text-anchor="middle" x="2830" y="-119.5" font-family="Helvetica,sans-Serif" font-size="10.00">IB.cpp</text>
</a>
</g>
</g>
<!-- Node2&#45;&gt;Node98 -->
<g id="edge32" class="edge">
<title>Node2&#45;&gt;Node98</title>
<path fill="none" stroke="midnightblue" d="M2405.53,-167.94C2576.99,-142.49 2624.35,-159.49 2792,-132 2796.68,-131.23 2801.65,-130.21 2806.39,-129.13"/>
<polygon fill="midnightblue" stroke="midnightblue" points="2404.77,-164.51 2395.4,-169.47 2405.82,-171.43 2404.77,-164.51"/>
</g>
<!-- Node101 -->
<g id="node31" class="node">
<title>Node101</title>
<g id="a_node31"><a xlink:href="_tioga_interface_8cpp.html" target="_top" xlink:title=" ">
<polygon fill="white" stroke="black" points="2871.5,-112.5 2871.5,-131.5 2978.5,-131.5 2978.5,-112.5 2871.5,-112.5"/>
<text text-anchor="middle" x="2925" y="-119.5" font-family="Helvetica,sans-Serif" font-size="10.00">TiogaInterface.cpp</text>
</a>
</g>
</g>
<!-- Node2&#45;&gt;Node101 -->
<g id="edge33" class="edge">
<title>Node2&#45;&gt;Node101</title>
<path fill="none" stroke="midnightblue" d="M2405.46,-167.97C2607.79,-139.05 2662.32,-154.09 2862,-132 2865.07,-131.66 2868.23,-131.29 2871.41,-130.89"/>
<polygon fill="midnightblue" stroke="midnightblue" points="2404.79,-164.53 2395.4,-169.43 2405.8,-171.46 2404.79,-164.53"/>
</g>
<!-- Node102 -->
<g id="node32" class="node">
<title>Node102</title>
<g id="a_node32"><a xlink:href="_channel_flow_8_h.html" target="_top" xlink:title=" ">
<polygon fill="white" stroke="black" points="2996.5,-112.5 2996.5,-131.5 3085.5,-131.5 3085.5,-112.5 2996.5,-112.5"/>
<text text-anchor="middle" x="3041" y="-119.5" font-family="Helvetica,sans-Serif" font-size="10.00">ChannelFlow.H</text>
</a>
</g>
</g>
<!-- Node2&#45;&gt;Node102 -->
<g id="edge35" class="edge">
<title>Node2&#45;&gt;Node102</title>
<path fill="none" stroke="midnightblue" d="M2405.42,-168.01C2662.95,-133.42 2732.34,-161.01 2987,-132 2990.02,-131.66 2993.13,-131.26 2996.26,-130.82"/>
<polygon fill="midnightblue" stroke="midnightblue" points="2404.83,-164.56 2395.39,-169.37 2405.77,-171.49 2404.83,-164.56"/>
</g>
<!-- Node103 -->
<g id="node33" class="node">
<title>Node103</title>
<g id="a_node33"><a xlink:href="_channel_flow_8cpp.html" target="_top" xlink:title=" ">
<polygon fill="white" stroke="black" points="3005.5,-56.5 3005.5,-75.5 3104.5,-75.5 3104.5,-56.5 3005.5,-56.5"/>
<text text-anchor="middle" x="3055" y="-63.5" font-family="Helvetica,sans-Serif" font-size="10.00">ChannelFlow.cpp</text>
</a>
</g>
</g>
<!-- Node2&#45;&gt;Node103 -->
<g id="edge37" class="edge">
<title>Node2&#45;&gt;Node103</title>
<path fill="none" stroke="midnightblue" d="M2405.37,-168.34C2516.8,-159.81 3042.9,-185.83 3094,-132 3110.58,-114.53 3083.53,-88.82 3066.75,-75.58"/>
<polygon fill="midnightblue" stroke="midnightblue" points="2404.99,-164.86 2395.39,-169.35 2405.69,-171.82 2404.99,-164.86"/>
</g>
<!-- Node104 -->
<g id="node34" class="node">
<title>Node104</title>
<g id="a_node34"><a xlink:href="_ekman_spiral_8_h.html" target="_top" xlink:title=" ">
<polygon fill="white" stroke="black" points="3142.5,-112.5 3142.5,-131.5 3231.5,-131.5 3231.5,-112.5 3142.5,-112.5"/>
<text text-anchor="middle" x="3187" y="-119.5" font-family="Helvetica,sans-Serif" font-size="10.00">EkmanSpiral.H</text>
</a>
</g>
</g>
<!-- Node2&#45;&gt;Node104 -->
<g id="edge39" class="edge">
<title>Node2&#45;&gt;Node104</title>
<path fill="none" stroke="midnightblue" d="M2405.4,-168.03C2725.19,-126.89 2810.74,-164 3128,-132 3132.64,-131.53 3137.47,-130.95 3142.28,-130.31"/>
<polygon fill="midnightblue" stroke="midnightblue" points="2404.85,-164.58 2395.39,-169.34 2405.75,-171.52 2404.85,-164.58"/>
</g>
<!-- Node105 -->
<g id="node35" class="node">
<title>Node105</title>
<g id="a_node35"><a xlink:href="_ekman_spiral_8cpp.html" target="_top" xlink:title=" ">
<polygon fill="white" stroke="black" points="3174,-56.5 3174,-75.5 3272,-75.5 3272,-56.5 3174,-56.5"/>
<text text-anchor="middle" x="3223" y="-63.5" font-family="Helvetica,sans-Serif" font-size="10.00">EkmanSpiral.cpp</text>
</a>
</g>
</g>
<!-- Node2&#45;&gt;Node105 -->
<g id="edge41" class="edge">
<title>Node2&#45;&gt;Node105</title>
<path fill="none" stroke="midnightblue" d="M2405.57,-168.48C2511.05,-162.33 3209.16,-164.19 3240,-132 3254.85,-116.5 3239.57,-89.7 3229.8,-75.85"/>
<polygon fill="midnightblue" stroke="midnightblue" points="2405.06,-165.01 2395.38,-169.32 2405.64,-171.99 2405.06,-165.01"/>
</g>
<!-- Node106 -->
<g id="node36" class="node">
<title>Node106</title>
<g id="a_node36"><a xlink:href="_free_stream_8cpp.html" target="_top" xlink:title=" ">
<polygon fill="white" stroke="black" points="3288.5,-112.5 3288.5,-131.5 3381.5,-131.5 3381.5,-112.5 3288.5,-112.5"/>
<text text-anchor="middle" x="3335" y="-119.5" font-family="Helvetica,sans-Serif" font-size="10.00">FreeStream.cpp</text>
</a>
</g>
</g>
<!-- Node2&#45;&gt;Node106 -->
<g id="edge42" class="edge">
<title>Node2&#45;&gt;Node106</title>
<path fill="none" stroke="midnightblue" d="M2405.38,-168.05C2789.66,-120.11 2892,-167.98 3274,-132 3278.69,-131.56 3283.57,-131 3288.43,-130.38"/>
<polygon fill="midnightblue" stroke="midnightblue" points="2404.87,-164.59 2395.38,-169.31 2405.74,-171.53 2404.87,-164.59"/>
</g>
<!-- Node107 -->
<g id="node37" class="node">
<title>Node107</title>
<g id="a_node37"><a xlink:href="_hybrid_r_a_n_s_l_e_s_a_b_l_8_h.html" target="_top" xlink:title=" ">
<polygon fill="white" stroke="black" points="3399.5,-112.5 3399.5,-131.5 3522.5,-131.5 3522.5,-112.5 3399.5,-112.5"/>
<text text-anchor="middle" x="3461" y="-119.5" font-family="Helvetica,sans-Serif" font-size="10.00">HybridRANSLESABL.H</text>
</a>
</g>
</g>
<!-- Node2&#45;&gt;Node107 -->
<g id="edge43" class="edge">
<title>Node2&#45;&gt;Node107</title>
<path fill="none" stroke="midnightblue" d="M2405.4,-168.06C2840.9,-114.66 2956.24,-167.34 3390,-132 3393.1,-131.75 3396.26,-131.46 3399.46,-131.14"/>
<polygon fill="midnightblue" stroke="midnightblue" points="2404.88,-164.6 2395.38,-169.3 2405.74,-171.54 2404.88,-164.6"/>
</g>
<!-- Node108 -->
<g id="node38" class="node">
<title>Node108</title>
<g id="a_node38"><a xlink:href="_hybrid_r_a_n_s_l_e_s_a_b_l_8cpp.html" target="_top" xlink:title=" ">
<polygon fill="white" stroke="black" points="3408.5,-56.5 3408.5,-75.5 3541.5,-75.5 3541.5,-56.5 3408.5,-56.5"/>
<text text-anchor="middle" x="3475" y="-63.5" font-family="Helvetica,sans-Serif" font-size="10.00">HybridRANSLESABL.cpp</text>
</a>
</g>
</g>
<!-- Node2&#45;&gt;Node108 -->
<g id="edge45" class="edge">
<title>Node2&#45;&gt;Node108</title>
<path fill="none" stroke="midnightblue" d="M2405.5,-168.48C2532.92,-161.44 3488.86,-175.5 3531,-132 3549.65,-112.74 3514.39,-88.43 3491.81,-75.69"/>
<polygon fill="midnightblue" stroke="midnightblue" points="2405.07,-165 2395.38,-169.28 2405.62,-171.98 2405.07,-165"/>
</g>
<!-- Node109 -->
<g id="node39" class="node">
<title>Node109</title>
<g id="a_node39"><a xlink:href="_m_m_s_8_h.html" target="_top" xlink:title=" ">
<polygon fill="white" stroke="black" points="3579.5,-112.5 3579.5,-131.5 3630.5,-131.5 3630.5,-112.5 3579.5,-112.5"/>
<text text-anchor="middle" x="3605" y="-119.5" font-family="Helvetica,sans-Serif" font-size="10.00">MMS.H</text>
</a>
</g>
</g>
<!-- Node2&#45;&gt;Node109 -->
<g id="edge46" class="edge">
<title>Node2&#45;&gt;Node109</title>
<path fill="none" stroke="midnightblue" d="M2405.63,-168.04C2918.28,-106.86 3056.23,-196.53 3565,-132 3569.66,-131.41 3574.58,-130.52 3579.31,-129.54"/>
<polygon fill="midnightblue" stroke="midnightblue" points="2404.89,-164.61 2395.38,-169.28 2405.73,-171.56 2404.89,-164.61"/>
</g>
<!-- Node110 -->
<g id="node40" class="node">
<title>Node110</title>
<g id="a_node40"><a xlink:href="_m_m_s_8cpp.html" target="_top" xlink:title=" ">
<polygon fill="white" stroke="black" points="3601.5,-56.5 3601.5,-75.5 3662.5,-75.5 3662.5,-56.5 3601.5,-56.5"/>
<text text-anchor="middle" x="3632" y="-63.5" font-family="Helvetica,sans-Serif" font-size="10.00">MMS.cpp</text>
</a>
</g>
</g>
<!-- Node2&#45;&gt;Node110 -->
<g id="edge48" class="edge">
<title>Node2&#45;&gt;Node110</title>
<path fill="none" stroke="midnightblue" d="M2405.56,-168.47C2541.04,-161.05 3592.67,-179.7 3639,-132 3653.71,-116.86 3643.35,-89.41 3636.58,-75.53"/>
<polygon fill="midnightblue" stroke="midnightblue" points="2405.07,-165 2395.38,-169.27 2405.62,-171.98 2405.07,-165"/>
</g>
<!-- Node111 -->
<g id="node41" class="node">
<title>Node111</title>
<g id="a_node41"><a xlink:href="_m_m_s_forcing_8cpp.html" target="_top" xlink:title=" ">
<polygon fill="white" stroke="black" points="3687,-112.5 3687,-131.5 3783,-131.5 3783,-112.5 3687,-112.5"/>
<text text-anchor="middle" x="3735" y="-119.5" font-family="Helvetica,sans-Serif" font-size="10.00">MMSForcing.cpp</text>
</a>
</g>
</g>
<!-- Node2&#45;&gt;Node111 -->
<g id="edge49" class="edge">
<title>Node2&#45;&gt;Node111</title>
<path fill="none" stroke="midnightblue" d="M2405.33,-168.08C2965.92,-101.54 3114.16,-180.32 3673,-132 3677.55,-131.61 3682.28,-131.1 3687,-130.53"/>
<polygon fill="midnightblue" stroke="midnightblue" points="2404.89,-164.61 2395.38,-169.27 2405.72,-171.56 2404.89,-164.61"/>
</g>
<!-- Node112 -->
<g id="node42" class="node">
<title>Node112</title>
<g id="a_node42"><a xlink:href="_dam_break_8cpp.html" target="_top" xlink:title=" ">
<polygon fill="white" stroke="black" points="3801.5,-112.5 3801.5,-131.5 3890.5,-131.5 3890.5,-112.5 3801.5,-112.5"/>
<text text-anchor="middle" x="3846" y="-119.5" font-family="Helvetica,sans-Serif" font-size="10.00">DamBreak.cpp</text>
</a>
</g>
</g>
<!-- Node2&#45;&gt;Node112 -->
<g id="edge50" class="edge">
<title>Node2&#45;&gt;Node112</title>
<path fill="none" stroke="midnightblue" d="M2405.35,-168.08C3018.51,-96.06 3181.02,-190.55 3792,-132 3795.03,-131.71 3798.14,-131.35 3801.27,-130.95"/>
<polygon fill="midnightblue" stroke="midnightblue" points="2404.9,-164.61 2395.38,-169.26 2405.72,-171.56 2404.9,-164.61"/>
</g>
<!-- Node32 -->
<g id="node43" class="node">
<title>Node32</title>
<g id="a_node43"><a xlink:href="_multi_phase_8cpp.html" target="_top" xlink:title=" ">
<polygon fill="white" stroke="black" points="3908.5,-112.5 3908.5,-131.5 3999.5,-131.5 3999.5,-112.5 3908.5,-112.5"/>
<text text-anchor="middle" x="3954" y="-119.5" font-family="Helvetica,sans-Serif" font-size="10.00">MultiPhase.cpp</text>
</a>
</g>
</g>
<!-- Node2&#45;&gt;Node32 -->
<g id="edge51" class="edge">
<title>Node2&#45;&gt;Node32</title>
<path fill="none" stroke="midnightblue" d="M2405.63,-168.05C3066.28,-91.05 3241.29,-194.5 3900,-132 3902.74,-131.74 3905.56,-131.42 3908.39,-131.07"/>
<polygon fill="midnightblue" stroke="midnightblue" points="2404.9,-164.62 2395.38,-169.26 2405.72,-171.57 2404.9,-164.62"/>
</g>
<!-- Node113 -->
<g id="node44" class="node">
<title>Node113</title>
<g id="a_node44"><a xlink:href="_rain_drop_8cpp.html" target="_top" xlink:title=" ">
<polygon fill="white" stroke="black" points="4018,-112.5 4018,-131.5 4100,-131.5 4100,-112.5 4018,-112.5"/>
<text text-anchor="middle" x="4059" y="-119.5" font-family="Helvetica,sans-Serif" font-size="10.00">RainDrop.cpp</text>
</a>
</g>
</g>
<!-- Node2&#45;&gt;Node113 -->
<g id="edge52" class="edge">
<title>Node2&#45;&gt;Node113</title>
<path fill="none" stroke="midnightblue" d="M2405.32,-168.09C3114.4,-85.98 3302.36,-203.09 4009,-132 4011.9,-131.71 4014.88,-131.34 4017.87,-130.93"/>
<polygon fill="midnightblue" stroke="midnightblue" points="2404.9,-164.62 2395.38,-169.25 2405.71,-171.57 2404.9,-164.62"/>
</g>
<!-- Node114 -->
<g id="node45" class="node">
<title>Node114</title>
<g id="a_node45"><a xlink:href="_sloshing_tank_8cpp.html" target="_top" xlink:title=" ">
<polygon fill="white" stroke="black" points="4118.5,-112.5 4118.5,-131.5 4219.5,-131.5 4219.5,-112.5 4118.5,-112.5"/>
<text text-anchor="middle" x="4169" y="-119.5" font-family="Helvetica,sans-Serif" font-size="10.00">SloshingTank.cpp</text>
</a>
</g>
</g>
<!-- Node2&#45;&gt;Node114 -->
<g id="edge53" class="edge">
<title>Node2&#45;&gt;Node114</title>
<path fill="none" stroke="midnightblue" d="M2405.38,-168.09C3158.59,-81.22 3357.11,-196.07 4109,-132 4112.04,-131.74 4115.17,-131.42 4118.31,-131.07"/>
<polygon fill="midnightblue" stroke="midnightblue" points="2404.9,-164.62 2395.38,-169.25 2405.71,-171.57 2404.9,-164.62"/>
</g>
<!-- Node115 -->
<g id="node46" class="node">
<title>Node115</title>
<g id="a_node46"><a xlink:href="_vortex_patch_8cpp.html" target="_top" xlink:title=" ">
<polygon fill="white" stroke="black" points="4237.5,-112.5 4237.5,-131.5 4332.5,-131.5 4332.5,-112.5 4237.5,-112.5"/>
<text text-anchor="middle" x="4285" y="-119.5" font-family="Helvetica,sans-Serif" font-size="10.00">VortexPatch.cpp</text>
</a>
</g>
</g>
<!-- Node2&#45;&gt;Node115 -->
<g id="edge54" class="edge">
<title>Node2&#45;&gt;Node115</title>
<path fill="none" stroke="midnightblue" d="M2405.49,-168.08C3211.63,-75.66 3424.33,-204.24 4229,-132 4231.75,-131.75 4234.56,-131.45 4237.4,-131.11"/>
<polygon fill="midnightblue" stroke="midnightblue" points="2404.91,-164.62 2395.37,-169.25 2405.71,-171.58 2404.91,-164.62"/>
</g>
<!-- Node116 -->
<g id="node47" class="node">
<title>Node116</title>
<g id="a_node47"><a xlink:href="_n_w_b_8cpp.html" target="_top" xlink:title=" ">
<polygon fill="white" stroke="black" points="4350.5,-112.5 4350.5,-131.5 4411.5,-131.5 4411.5,-112.5 4350.5,-112.5"/>
<text text-anchor="middle" x="4381" y="-119.5" font-family="Helvetica,sans-Serif" font-size="10.00">NWB.cpp</text>
</a>
</g>
</g>
<!-- Node2&#45;&gt;Node116 -->
<g id="edge55" class="edge">
<title>Node2&#45;&gt;Node116</title>
<path fill="none" stroke="midnightblue" d="M2405.4,-168.11C2848.25,-119.64 3917.73,-184.31 4342,-132 4344.76,-131.66 4347.61,-131.21 4350.45,-130.68"/>
<polygon fill="midnightblue" stroke="midnightblue" points="2404.92,-164.64 2395.37,-169.24 2405.7,-171.6 2404.92,-164.64"/>
</g>
<!-- Node117 -->
<g id="node48" class="node">
<title>Node117</title>
<g id="a_node48"><a xlink:href="_zalesak_disk_8cpp.html" target="_top" xlink:title=" ">
<polygon fill="white" stroke="black" points="4430,-112.5 4430,-131.5 4528,-131.5 4528,-112.5 4430,-112.5"/>
<text text-anchor="middle" x="4479" y="-119.5" font-family="Helvetica,sans-Serif" font-size="10.00">ZalesakDisk.cpp</text>
</a>
</g>
</g>
<!-- Node2&#45;&gt;Node117 -->
<g id="edge56" class="edge">
<title>Node2&#45;&gt;Node117</title>
<path fill="none" stroke="midnightblue" d="M2405.46,-168.1C2865.8,-117.58 3977.63,-170.18 4421,-132 4423.84,-131.76 4426.76,-131.46 4429.69,-131.12"/>
<polygon fill="midnightblue" stroke="midnightblue" points="2404.92,-164.64 2395.37,-169.24 2405.7,-171.6 2404.92,-164.64"/>
</g>
<!-- Node17&#45;&gt;Node34 -->
<g id="edge6" class="edge">
<title>Node17&#45;&gt;Node34</title>
<path fill="none" stroke="midnightblue" d="M310.18,-103.27C315.47,-94.05 321.72,-83.17 325.98,-75.75"/>
<polygon fill="midnightblue" stroke="midnightblue" points="307.06,-101.67 305.12,-112.08 313.13,-105.15 307.06,-101.67"/>
</g>
<!-- Node57&#45;&gt;Node61 -->
<g id="edge10" class="edge">
<title>Node57&#45;&gt;Node61</title>
<path fill="none" stroke="midnightblue" d="M616.07,-50.9C600.66,-41 580.55,-28.07 567.46,-19.65"/>
<polygon fill="midnightblue" stroke="midnightblue" points="614.2,-53.86 624.5,-56.32 617.98,-47.97 614.2,-53.86"/>
</g>
<!-- Node57&#45;&gt;Node64 -->
<g id="edge11" class="edge">
<title>Node57&#45;&gt;Node64</title>
<path fill="none" stroke="midnightblue" d="M652.05,-48.14C659.89,-38.74 669.33,-27.4 675.71,-19.75"/>
<polygon fill="midnightblue" stroke="midnightblue" points="649.14,-46.16 645.43,-56.08 654.52,-50.64 649.14,-46.16"/>
</g>
<!-- Node65&#45;&gt;Node57 -->
<g id="edge13" class="edge">
<title>Node65&#45;&gt;Node57</title>
<path fill="none" stroke="midnightblue" d="M638,-101.8C638,-92.91 638,-82.78 638,-75.75"/>
<polygon fill="midnightblue" stroke="midnightblue" points="634.5,-102.08 638,-112.08 641.5,-102.08 634.5,-102.08"/>
</g>
<!-- Node99&#45;&gt;Node100 -->
<g id="edge31" class="edge">
<title>Node99&#45;&gt;Node100</title>
<path fill="none" stroke="midnightblue" d="M2693.08,-104.72C2701.89,-95.2 2712.67,-83.56 2719.9,-75.75"/>
<polygon fill="midnightblue" stroke="midnightblue" points="2690.48,-102.37 2686.26,-112.08 2695.62,-107.12 2690.48,-102.37"/>
</g>
<!-- Node102&#45;&gt;Node103 -->
<g id="edge36" class="edge">
<title>Node102&#45;&gt;Node103</title>
<path fill="none" stroke="midnightblue" d="M3045.82,-102.4C3048.17,-93.36 3050.87,-82.94 3052.73,-75.75"/>
<polygon fill="midnightblue" stroke="midnightblue" points="3042.43,-101.52 3043.31,-112.08 3049.21,-103.28 3042.43,-101.52"/>
</g>
<!-- Node104&#45;&gt;Node105 -->
<g id="edge40" class="edge">
<title>Node104&#45;&gt;Node105</title>
<path fill="none" stroke="midnightblue" d="M3198.62,-103.57C3204.82,-94.27 3212.17,-83.25 3217.17,-75.75"/>
<polygon fill="midnightblue" stroke="midnightblue" points="3195.58,-101.82 3192.94,-112.08 3201.4,-105.7 3195.58,-101.82"/>
</g>
<!-- Node107&#45;&gt;Node108 -->
<g id="edge44" class="edge">
<title>Node107&#45;&gt;Node108</title>
<path fill="none" stroke="midnightblue" d="M3465.82,-102.4C3468.17,-93.36 3470.87,-82.94 3472.73,-75.75"/>
<polygon fill="midnightblue" stroke="midnightblue" points="3462.43,-101.52 3463.31,-112.08 3469.21,-103.28 3462.43,-101.52"/>
</g>
<!-- Node109&#45;&gt;Node110 -->
<g id="edge47" class="edge">
<title>Node109&#45;&gt;Node110</title>
<path fill="none" stroke="midnightblue" d="M3614.01,-102.98C3618.59,-93.82 3623.95,-83.09 3627.62,-75.75"/>
<polygon fill="midnightblue" stroke="midnightblue" points="3610.8,-101.57 3609.46,-112.08 3617.06,-104.7 3610.8,-101.57"/>
</g>
</g>
</svg>
