<?xml version="1.0" encoding="UTF-8" standalone="no"?>
<!DOCTYPE svg PUBLIC "-//W3C//DTD SVG 1.1//EN"
 "http://www.w3.org/Graphics/SVG/1.1/DTD/svg11.dtd">
<!-- Generated by graphviz version 2.43.0 (0)
 -->
<!-- Title: MeshMap.cpp Pages: 1 -->
<!--zoomable 330 -->
<svg id="main" version="1.1" xmlns="http://www.w3.org/2000/svg" xmlns:xlink="http://www.w3.org/1999/xlink" xml:space="preserve" onload="init(evt)">
<style type="text/css"><![CDATA[
.edge:hover path { stroke: red; }
.edge:hover polygon { stroke: red; fill: red; }
]]></style>
<script type="text/javascript"><![CDATA[
var edges = document.getElementsByTagName('g');
if (edges && edges.length) {
  for (var i=0;i<edges.length;i++) {
    if (edges[i].id.substr(0,4)=='edge') {
      edges[i].setAttribute('class','edge');
    }
  }
}
]]></script>
        <defs>
                <circle id="rim" cx="0" cy="0" r="7"/>
                <circle id="rim2" cx="0" cy="0" r="3.5"/>
                <g id="zoomPlus">
                        <use xlink:href="#rim" fill="#404040">
                                <set attributeName="fill" to="#808080" begin="zoomplus.mouseover" end="zoomplus.mouseout"/>
                        </use>
                        <path d="M-4,0h8M0,-4v8" fill="none" stroke="white" stroke-width="1.5" pointer-events="none"/>
                </g>
                <g id="zoomMin">
                        <use xlink:href="#rim" fill="#404040">
                                <set attributeName="fill" to="#808080" begin="zoomminus.mouseover" end="zoomminus.mouseout"/>
                        </use>
                        <path d="M-4,0h8" fill="none" stroke="white" stroke-width="1.5" pointer-events="none"/>
                </g>
                <g id="dirArrow">
                        <path fill="none" stroke="white" stroke-width="1.5" d="M0,-3.0v7 M-2.5,-0.5L0,-3.0L2.5,-0.5"/>
                </g>
               <g id="resetDef">
                       <use xlink:href="#rim2" fill="#404040">
                               <set attributeName="fill" to="#808080" begin="reset.mouseover" end="reset.mouseout"/>
                       </use>
               </g>
        </defs>

<script type="text/javascript">
var viewWidth = 2691;
var viewHeight = 330;
var sectionId = 'dynsection-0';
</script>
<script xlink:href="svgpan.js"/>
<svg id="graph" class="graph">
<g id="viewport">
<title>MeshMap.cpp</title>
<polygon fill="white" stroke="transparent" points="-4,4 -4,-326 2687.5,-326 2687.5,4 -4,4"/>
<!-- Node1 -->
<g id="node1" class="node">
<title>Node1</title>
<g id="a_node1"><a xlink:title=" ">
<polygon fill="#bfbfbf" stroke="black" points="1694,-302.5 1694,-321.5 1778,-321.5 1778,-302.5 1694,-302.5"/>
<text text-anchor="middle" x="1736" y="-309.5" font-family="Helvetica,sans-Serif" font-size="10.00">MeshMap.cpp</text>
</a>
</g>
</g>
<!-- Node2 -->
<g id="node2" class="node">
<title>Node2</title>
<g id="a_node2"><a xlink:href="_mesh_map_8_h.html" target="_top" xlink:title=" ">
<polygon fill="white" stroke="black" points="1705,-185 1705,-204 1853,-204 1853,-185 1705,-185"/>
<text text-anchor="middle" x="1779" y="-192" font-family="Helvetica,sans-Serif" font-size="10.00">amr&#45;wind/core/MeshMap.H</text>
</a>
</g>
</g>
<!-- Node1&#45;&gt;Node2 -->
<g id="edge1" class="edge">
<title>Node1&#45;&gt;Node2</title>
<path fill="none" stroke="midnightblue" d="M1741.4,-302.32C1746.72,-293.46 1754.79,-279.17 1760,-266 1766.69,-249.07 1771.86,-228.95 1775.1,-214.55"/>
<polygon fill="midnightblue" stroke="midnightblue" points="1778.6,-214.9 1777.28,-204.39 1771.76,-213.43 1778.6,-214.9"/>
</g>
<!-- Node21 -->
<g id="node21" class="node">
<title>Node21</title>
<g id="a_node21"><a xlink:href="_c_f_d_sim_8_h.html" target="_top" xlink:title=" ">
<polygon fill="white" stroke="black" points="1635,-246.5 1635,-265.5 1751,-265.5 1751,-246.5 1635,-246.5"/>
<text text-anchor="middle" x="1693" y="-253.5" font-family="Helvetica,sans-Serif" font-size="10.00">amr&#45;wind/CFDSim.H</text>
</a>
</g>
</g>
<!-- Node1&#45;&gt;Node21 -->
<g id="edge30" class="edge">
<title>Node1&#45;&gt;Node21</title>
<path fill="none" stroke="midnightblue" d="M1728.9,-302.08C1722.76,-294.38 1713.73,-283.03 1706.26,-273.65"/>
<polygon fill="midnightblue" stroke="midnightblue" points="1708.94,-271.39 1699.97,-265.75 1703.46,-275.75 1708.94,-271.39"/>
</g>
<!-- Node3 -->
<g id="node3" class="node">
<title>Node3</title>
<g id="a_node3"><a xlink:href="_coll_mgr_8_h.html" target="_top" xlink:title=" ">
<polygon fill="white" stroke="black" points="2098.5,-118 2098.5,-137 2235.5,-137 2235.5,-118 2098.5,-118"/>
<text text-anchor="middle" x="2167" y="-125" font-family="Helvetica,sans-Serif" font-size="10.00">amr&#45;wind/core/CollMgr.H</text>
</a>
</g>
</g>
<!-- Node2&#45;&gt;Node3 -->
<g id="edge2" class="edge">
<title>Node2&#45;&gt;Node3</title>
<path fill="none" stroke="midnightblue" d="M1830.12,-184.94C1901.32,-173.01 2030.11,-151.43 2106.16,-138.69"/>
<polygon fill="midnightblue" stroke="midnightblue" points="2106.79,-142.14 2116.07,-137.03 2105.63,-135.23 2106.79,-142.14"/>
</g>
<!-- Node8 -->
<g id="node8" class="node">
<title>Node8</title>
<g id="a_node8"><a xlink:href="_factory_8_h.html" target="_top" xlink:title=" ">
<polygon fill="white" stroke="black" points="2254,-118 2254,-137 2388,-137 2388,-118 2254,-118"/>
<text text-anchor="middle" x="2321" y="-125" font-family="Helvetica,sans-Serif" font-size="10.00">amr&#45;wind/core/Factory.H</text>
</a>
</g>
</g>
<!-- Node2&#45;&gt;Node8 -->
<g id="edge7" class="edge">
<title>Node2&#45;&gt;Node8</title>
<path fill="none" stroke="midnightblue" d="M1853.11,-185.02C1870.76,-183.02 1889.55,-180.92 1907,-179 2057.17,-162.5 2095.56,-165.17 2245,-143 2253.03,-141.81 2261.5,-140.37 2269.76,-138.87"/>
<polygon fill="midnightblue" stroke="midnightblue" points="2270.5,-142.29 2279.69,-137.02 2269.22,-135.41 2270.5,-142.29"/>
</g>
<!-- Node12 -->
<g id="node12" class="node">
<title>Node12</title>
<g id="a_node12"><a xlink:href="_field_8_h.html" target="_top" xlink:title=" ">
<polygon fill="white" stroke="black" points="1676,-118 1676,-137 1800,-137 1800,-118 1676,-118"/>
<text text-anchor="middle" x="1738" y="-125" font-family="Helvetica,sans-Serif" font-size="10.00">amr&#45;wind/core/Field.H</text>
</a>
</g>
</g>
<!-- Node2&#45;&gt;Node12 -->
<g id="edge13" class="edge">
<title>Node2&#45;&gt;Node12</title>
<path fill="none" stroke="midnightblue" d="M1773.47,-184.73C1767.2,-174.79 1756.82,-158.34 1748.91,-145.79"/>
<polygon fill="midnightblue" stroke="midnightblue" points="1751.74,-143.72 1743.44,-137.13 1745.82,-147.45 1751.74,-143.72"/>
</g>
<!-- Node14 -->
<g id="node14" class="node">
<title>Node14</title>
<g id="a_node14"><a xlink:title=" ">
<polygon fill="white" stroke="#bfbfbf" points="1069.5,-0.5 1069.5,-19.5 1178.5,-19.5 1178.5,-0.5 1069.5,-0.5"/>
<text text-anchor="middle" x="1124" y="-7.5" font-family="Helvetica,sans-Serif" font-size="10.00">AMReX_MultiFab.H</text>
</a>
</g>
</g>
<!-- Node2&#45;&gt;Node14 -->
<g id="edge28" class="edge">
<title>Node2&#45;&gt;Node14</title>
<path fill="none" stroke="midnightblue" d="M1704.83,-191.29C1555.16,-186.26 1227.68,-172.03 1186,-143 1147.67,-116.3 1132.38,-59.52 1126.84,-29.89"/>
<polygon fill="midnightblue" stroke="midnightblue" points="1130.23,-28.94 1125.11,-19.66 1123.32,-30.1 1130.23,-28.94"/>
</g>
<!-- Node20 -->
<g id="node20" class="node">
<title>Node20</title>
<g id="a_node20"><a xlink:title=" ">
<polygon fill="white" stroke="#bfbfbf" points="1926.5,-118 1926.5,-137 2041.5,-137 2041.5,-118 1926.5,-118"/>
<text text-anchor="middle" x="1984" y="-125" font-family="Helvetica,sans-Serif" font-size="10.00">AMReX_Geometry.H</text>
</a>
</g>
</g>
<!-- Node2&#45;&gt;Node20 -->
<g id="edge29" class="edge">
<title>Node2&#45;&gt;Node20</title>
<path fill="none" stroke="midnightblue" d="M1806.22,-184.87C1842.47,-173.38 1906.7,-153.01 1947.23,-140.16"/>
<polygon fill="midnightblue" stroke="midnightblue" points="1948.52,-143.42 1956.99,-137.06 1946.4,-136.75 1948.52,-143.42"/>
</g>
<!-- Node4 -->
<g id="node4" class="node">
<title>Node4</title>
<g id="a_node4"><a xlink:title=" ">
<polygon fill="white" stroke="#bfbfbf" points="1839,-0.5 1839,-19.5 1883,-19.5 1883,-0.5 1839,-0.5"/>
<text text-anchor="middle" x="1861" y="-7.5" font-family="Helvetica,sans-Serif" font-size="10.00">string</text>
</a>
</g>
</g>
<!-- Node3&#45;&gt;Node4 -->
<g id="edge3" class="edge">
<title>Node3&#45;&gt;Node4</title>
<path fill="none" stroke="midnightblue" d="M2203.5,-117.93C2239.67,-108.62 2291.32,-92.8 2303,-76 2308.07,-68.7 2308.96,-62.6 2303,-56 2275.59,-25.66 1990.32,-14.71 1893.18,-11.84"/>
<polygon fill="midnightblue" stroke="midnightblue" points="1893.17,-8.34 1883.08,-11.55 1892.97,-15.34 1893.17,-8.34"/>
</g>
<!-- Node5 -->
<g id="node5" class="node">
<title>Node5</title>
<g id="a_node5"><a xlink:title=" ">
<polygon fill="white" stroke="#bfbfbf" points="2236,-56.5 2236,-75.5 2294,-75.5 2294,-56.5 2236,-56.5"/>
<text text-anchor="middle" x="2265" y="-63.5" font-family="Helvetica,sans-Serif" font-size="10.00">memory</text>
</a>
</g>
</g>
<!-- Node3&#45;&gt;Node5 -->
<g id="edge4" class="edge">
<title>Node3&#45;&gt;Node5</title>
<path fill="none" stroke="midnightblue" d="M2181.04,-117.98C2197.05,-108.25 2223.45,-92.23 2242.37,-80.74"/>
<polygon fill="midnightblue" stroke="midnightblue" points="2244.25,-83.69 2250.99,-75.51 2240.62,-77.71 2244.25,-83.69"/>
</g>
<!-- Node6 -->
<g id="node6" class="node">
<title>Node6</title>
<g id="a_node6"><a xlink:title=" ">
<polygon fill="white" stroke="#bfbfbf" points="2086.5,-56.5 2086.5,-75.5 2179.5,-75.5 2179.5,-56.5 2086.5,-56.5"/>
<text text-anchor="middle" x="2133" y="-63.5" font-family="Helvetica,sans-Serif" font-size="10.00">unordered_map</text>
</a>
</g>
</g>
<!-- Node3&#45;&gt;Node6 -->
<g id="edge5" class="edge">
<title>Node3&#45;&gt;Node6</title>
<path fill="none" stroke="midnightblue" d="M2162.13,-117.98C2157.13,-109.23 2149.21,-95.37 2142.89,-84.31"/>
<polygon fill="midnightblue" stroke="midnightblue" points="2145.86,-82.46 2137.86,-75.51 2139.78,-85.93 2145.86,-82.46"/>
</g>
<!-- Node7 -->
<g id="node7" class="node">
<title>Node7</title>
<g id="a_node7"><a xlink:title=" ">
<polygon fill="white" stroke="#bfbfbf" points="1291,-0.5 1291,-19.5 1389,-19.5 1389,-0.5 1291,-0.5"/>
<text text-anchor="middle" x="1340" y="-7.5" font-family="Helvetica,sans-Serif" font-size="10.00">AMReX_Vector.H</text>
</a>
</g>
</g>
<!-- Node3&#45;&gt;Node7 -->
<g id="edge6" class="edge">
<title>Node3&#45;&gt;Node7</title>
<path fill="none" stroke="midnightblue" d="M2174.34,-117.92C2185.95,-103.31 2205.59,-73.49 2189,-56 2161.85,-27.37 1587.71,-15.17 1399.31,-11.93"/>
<polygon fill="midnightblue" stroke="midnightblue" points="1399.1,-8.43 1389.04,-11.76 1398.98,-15.43 1399.1,-8.43"/>
</g>
<!-- Node8&#45;&gt;Node5 -->
<g id="edge8" class="edge">
<title>Node8&#45;&gt;Node5</title>
<path fill="none" stroke="midnightblue" d="M2312.98,-117.98C2304.41,-108.87 2290.64,-94.24 2280.04,-82.98"/>
<polygon fill="midnightblue" stroke="midnightblue" points="2282.41,-80.39 2273.01,-75.51 2277.31,-85.19 2282.41,-80.39"/>
</g>
<!-- Node8&#45;&gt;Node6 -->
<g id="edge9" class="edge">
<title>Node8&#45;&gt;Node6</title>
<path fill="none" stroke="midnightblue" d="M2294.06,-117.98C2261.4,-107.64 2206.18,-90.16 2169.66,-78.6"/>
<polygon fill="midnightblue" stroke="midnightblue" points="2170.48,-75.19 2159.89,-75.51 2168.36,-81.86 2170.48,-75.19"/>
</g>
<!-- Node9 -->
<g id="node9" class="node">
<title>Node9</title>
<g id="a_node9"><a xlink:title=" ">
<polygon fill="white" stroke="#bfbfbf" points="2350,-56.5 2350,-75.5 2410,-75.5 2410,-56.5 2350,-56.5"/>
<text text-anchor="middle" x="2380" y="-63.5" font-family="Helvetica,sans-Serif" font-size="10.00">iostream</text>
</a>
</g>
</g>
<!-- Node8&#45;&gt;Node9 -->
<g id="edge10" class="edge">
<title>Node8&#45;&gt;Node9</title>
<path fill="none" stroke="midnightblue" d="M2329.45,-117.98C2338.57,-108.78 2353.27,-93.96 2364.48,-82.66"/>
<polygon fill="midnightblue" stroke="midnightblue" points="2367.01,-85.07 2371.56,-75.51 2362.04,-80.15 2367.01,-85.07"/>
</g>
<!-- Node10 -->
<g id="node10" class="node">
<title>Node10</title>
<g id="a_node10"><a xlink:title=" ">
<polygon fill="white" stroke="#bfbfbf" points="2428,-56.5 2428,-75.5 2518,-75.5 2518,-56.5 2428,-56.5"/>
<text text-anchor="middle" x="2473" y="-63.5" font-family="Helvetica,sans-Serif" font-size="10.00">AMReX_Print.H</text>
</a>
</g>
</g>
<!-- Node8&#45;&gt;Node10 -->
<g id="edge11" class="edge">
<title>Node8&#45;&gt;Node10</title>
<path fill="none" stroke="midnightblue" d="M2342.78,-117.98C2368.74,-107.81 2412.31,-90.76 2441.83,-79.2"/>
<polygon fill="midnightblue" stroke="midnightblue" points="2443.23,-82.41 2451.26,-75.51 2440.67,-75.9 2443.23,-82.41"/>
</g>
<!-- Node11 -->
<g id="node11" class="node">
<title>Node11</title>
<g id="a_node11"><a xlink:title=" ">
<polygon fill="white" stroke="#bfbfbf" points="2536,-56.5 2536,-75.5 2598,-75.5 2598,-56.5 2536,-56.5"/>
<text text-anchor="middle" x="2567" y="-63.5" font-family="Helvetica,sans-Serif" font-size="10.00">AMReX.H</text>
</a>
</g>
</g>
<!-- Node8&#45;&gt;Node11 -->
<g id="edge12" class="edge">
<title>Node8&#45;&gt;Node11</title>
<path fill="none" stroke="midnightblue" d="M2356.25,-117.98C2401.05,-107.14 2478.27,-88.46 2525.77,-76.97"/>
<polygon fill="midnightblue" stroke="midnightblue" points="2526.82,-80.32 2535.72,-74.57 2525.17,-73.52 2526.82,-80.32"/>
</g>
<!-- Node12&#45;&gt;Node4 -->
<g id="edge14" class="edge">
<title>Node12&#45;&gt;Node4</title>
<path fill="none" stroke="midnightblue" d="M1772.03,-117.85C1794.88,-110.37 1823.99,-97.31 1842,-76 1853.02,-62.96 1857.65,-43.81 1859.59,-29.66"/>
<polygon fill="midnightblue" stroke="midnightblue" points="1863.09,-29.92 1860.65,-19.61 1856.13,-29.19 1863.09,-29.92"/>
</g>
<!-- Node12&#45;&gt;Node5 -->
<g id="edge15" class="edge">
<title>Node12&#45;&gt;Node5</title>
<path fill="none" stroke="midnightblue" d="M1800.02,-119.68C1886.98,-110.09 2050.07,-92 2189,-76 2200.94,-74.62 2213.94,-73.1 2225.75,-71.7"/>
<polygon fill="midnightblue" stroke="midnightblue" points="2226.26,-75.16 2235.77,-70.51 2225.43,-68.21 2226.26,-75.16"/>
</g>
<!-- Node12&#45;&gt;Node6 -->
<g id="edge16" class="edge">
<title>Node12&#45;&gt;Node6</title>
<path fill="none" stroke="midnightblue" d="M1797.31,-117.96C1863.07,-108.43 1972.57,-92.39 2076.46,-76.22"/>
<polygon fill="midnightblue" stroke="midnightblue" points="2077.16,-79.66 2086.5,-74.66 2076.08,-72.74 2077.16,-79.66"/>
</g>
<!-- Node13 -->
<g id="node13" class="node">
<title>Node13</title>
<g id="a_node13"><a xlink:title=" ">
<polygon fill="white" stroke="#bfbfbf" points="1769,-56.5 1769,-75.5 1833,-75.5 1833,-56.5 1769,-56.5"/>
<text text-anchor="middle" x="1801" y="-63.5" font-family="Helvetica,sans-Serif" font-size="10.00">algorithm</text>
</a>
</g>
</g>
<!-- Node12&#45;&gt;Node13 -->
<g id="edge17" class="edge">
<title>Node12&#45;&gt;Node13</title>
<path fill="none" stroke="midnightblue" d="M1747.03,-117.98C1756.76,-108.78 1772.46,-93.96 1784.42,-82.66"/>
<polygon fill="midnightblue" stroke="midnightblue" points="1787.12,-84.92 1791.99,-75.51 1782.32,-79.83 1787.12,-84.92"/>
</g>
<!-- Node12&#45;&gt;Node14 -->
<g id="edge18" class="edge">
<title>Node12&#45;&gt;Node14</title>
<path fill="none" stroke="midnightblue" d="M1703.67,-117.98C1645.96,-103.84 1525.74,-75.2 1423,-56 1342.76,-41 1249.68,-27.62 1188.96,-19.43"/>
<polygon fill="midnightblue" stroke="midnightblue" points="1189.13,-15.92 1178.76,-18.06 1188.2,-22.86 1189.13,-15.92"/>
</g>
<!-- Node15 -->
<g id="node15" class="node">
<title>Node15</title>
<g id="a_node15"><a xlink:title=" ">
<polygon fill="white" stroke="#bfbfbf" points="1546.5,-56.5 1546.5,-75.5 1645.5,-75.5 1645.5,-56.5 1546.5,-56.5"/>
<text text-anchor="middle" x="1596" y="-63.5" font-family="Helvetica,sans-Serif" font-size="10.00">AMReX_BCRec.H</text>
</a>
</g>
</g>
<!-- Node12&#45;&gt;Node15 -->
<g id="edge19" class="edge">
<title>Node12&#45;&gt;Node15</title>
<path fill="none" stroke="midnightblue" d="M1717.65,-117.98C1693.61,-107.9 1653.4,-91.05 1625.84,-79.5"/>
<polygon fill="midnightblue" stroke="midnightblue" points="1626.88,-76.15 1616.31,-75.51 1624.18,-82.6 1626.88,-76.15"/>
</g>
<!-- Node16 -->
<g id="node16" class="node">
<title>Node16</title>
<g id="a_node16"><a xlink:title=" ">
<polygon fill="white" stroke="#bfbfbf" points="1663.5,-56.5 1663.5,-75.5 1750.5,-75.5 1750.5,-56.5 1663.5,-56.5"/>
<text text-anchor="middle" x="1707" y="-63.5" font-family="Helvetica,sans-Serif" font-size="10.00">AMReX_Gpu.H</text>
</a>
</g>
</g>
<!-- Node12&#45;&gt;Node16 -->
<g id="edge20" class="edge">
<title>Node12&#45;&gt;Node16</title>
<path fill="none" stroke="midnightblue" d="M1733.56,-117.98C1729.05,-109.32 1721.93,-95.65 1716.19,-84.65"/>
<polygon fill="midnightblue" stroke="midnightblue" points="1719.16,-82.76 1711.43,-75.51 1712.95,-85.99 1719.16,-82.76"/>
</g>
<!-- Node17 -->
<g id="node17" class="node">
<title>Node17</title>
<g id="a_node17"><a xlink:href="incflo__enums_8_h.html" target="_top" xlink:title=" ">
<polygon fill="white" stroke="black" points="1927.5,-56.5 1927.5,-75.5 2068.5,-75.5 2068.5,-56.5 1927.5,-56.5"/>
<text text-anchor="middle" x="1998" y="-63.5" font-family="Helvetica,sans-Serif" font-size="10.00">amr&#45;wind/incflo_enums.H</text>
</a>
</g>
</g>
<!-- Node12&#45;&gt;Node17 -->
<g id="edge21" class="edge">
<title>Node12&#45;&gt;Node17</title>
<path fill="none" stroke="midnightblue" d="M1775.25,-117.98C1821.49,-107.39 1900.4,-89.34 1950.82,-77.8"/>
<polygon fill="midnightblue" stroke="midnightblue" points="1951.85,-81.15 1960.82,-75.51 1950.29,-74.33 1951.85,-81.15"/>
</g>
<!-- Node18 -->
<g id="node18" class="node">
<title>Node18</title>
<g id="a_node18"><a xlink:href="_field_desc_types_8_h.html" target="_top" xlink:title=" ">
<polygon fill="white" stroke="black" points="709,-0.5 709,-19.5 885,-19.5 885,-0.5 709,-0.5"/>
<text text-anchor="middle" x="797" y="-7.5" font-family="Helvetica,sans-Serif" font-size="10.00">amr&#45;wind/core/FieldDescTypes.H</text>
</a>
</g>
</g>
<!-- Node12&#45;&gt;Node18 -->
<g id="edge22" class="edge">
<title>Node12&#45;&gt;Node18</title>
<path fill="none" stroke="midnightblue" d="M1675.65,-120.67C1583.87,-111.93 1407.01,-94.47 1257,-76 1116.33,-58.68 952.03,-34.51 862.83,-21.06"/>
<polygon fill="midnightblue" stroke="midnightblue" points="863.27,-17.58 852.85,-19.55 862.22,-24.5 863.27,-17.58"/>
</g>
<!-- Node19 -->
<g id="node19" class="node">
<title>Node19</title>
<g id="a_node19"><a xlink:href="_view_field_8_h.html" target="_top" xlink:title=" ">
<polygon fill="white" stroke="black" points="1266,-56.5 1266,-75.5 1414,-75.5 1414,-56.5 1266,-56.5"/>
<text text-anchor="middle" x="1340" y="-63.5" font-family="Helvetica,sans-Serif" font-size="10.00">amr&#45;wind/core/ViewField.H</text>
</a>
</g>
</g>
<!-- Node12&#45;&gt;Node19 -->
<g id="edge23" class="edge">
<title>Node12&#45;&gt;Node19</title>
<path fill="none" stroke="midnightblue" d="M1680.98,-117.98C1608.57,-107.15 1483.83,-88.5 1406.97,-77.01"/>
<polygon fill="midnightblue" stroke="midnightblue" points="1407.33,-73.53 1396.92,-75.51 1406.29,-80.45 1407.33,-73.53"/>
</g>
<!-- Node19&#45;&gt;Node4 -->
<g id="edge24" class="edge">
<title>Node19&#45;&gt;Node4</title>
<path fill="none" stroke="midnightblue" d="M1414.09,-57.32C1529.42,-45.37 1747.1,-22.81 1828.87,-14.33"/>
<polygon fill="midnightblue" stroke="midnightblue" points="1829.24,-17.81 1838.82,-13.3 1828.52,-10.85 1829.24,-17.81"/>
</g>
<!-- Node19&#45;&gt;Node7 -->
<g id="edge27" class="edge">
<title>Node19&#45;&gt;Node7</title>
<path fill="none" stroke="midnightblue" d="M1340,-56.08C1340,-49.01 1340,-38.86 1340,-29.99"/>
<polygon fill="midnightblue" stroke="midnightblue" points="1343.5,-29.75 1340,-19.75 1336.5,-29.75 1343.5,-29.75"/>
</g>
<!-- Node19&#45;&gt;Node14 -->
<g id="edge26" class="edge">
<title>Node19&#45;&gt;Node14</title>
<path fill="none" stroke="midnightblue" d="M1305.77,-56.44C1268.49,-47.12 1208.73,-32.18 1167.99,-22"/>
<polygon fill="midnightblue" stroke="midnightblue" points="1168.62,-18.55 1158.07,-19.52 1166.92,-25.34 1168.62,-18.55"/>
</g>
<!-- Node19&#45;&gt;Node18 -->
<g id="edge25" class="edge">
<title>Node19&#45;&gt;Node18</title>
<path fill="none" stroke="midnightblue" d="M1265.58,-57.37C1260.99,-56.91 1256.43,-56.45 1252,-56 1128.68,-43.6 986.52,-29.58 894.38,-20.54"/>
<polygon fill="midnightblue" stroke="midnightblue" points="894.53,-17.03 884.24,-19.54 893.85,-24 894.53,-17.03"/>
</g>
<!-- Node21&#45;&gt;Node2 -->
<g id="edge73" class="edge">
<title>Node21&#45;&gt;Node2</title>
<path fill="none" stroke="midnightblue" d="M1705.32,-246.48C1719.12,-236.93 1741.7,-221.31 1758.23,-209.87"/>
<polygon fill="midnightblue" stroke="midnightblue" points="1760.47,-212.58 1766.7,-204.01 1756.49,-206.82 1760.47,-212.58"/>
</g>
<!-- Node22 -->
<g id="node22" class="node">
<title>Node22</title>
<g id="a_node22"><a xlink:title=" ">
<polygon fill="white" stroke="#bfbfbf" points="396,-118 396,-137 506,-137 506,-118 396,-118"/>
<text text-anchor="middle" x="451" y="-125" font-family="Helvetica,sans-Serif" font-size="10.00">AMReX_AmrCore.H</text>
</a>
</g>
</g>
<!-- Node21&#45;&gt;Node22 -->
<g id="edge31" class="edge">
<title>Node21&#45;&gt;Node22</title>
<path fill="none" stroke="midnightblue" d="M1634.75,-254.68C1447.85,-253.3 864.75,-246.14 680,-210 604.66,-195.26 520.76,-160.32 478.51,-141.32"/>
<polygon fill="midnightblue" stroke="midnightblue" points="479.72,-138.03 469.17,-137.08 476.83,-144.41 479.72,-138.03"/>
</g>
<!-- Node23 -->
<g id="node23" class="node">
<title>Node23</title>
<g id="a_node23"><a xlink:href="_sim_time_8_h.html" target="_top" xlink:title=" ">
<polygon fill="white" stroke="black" points="174,-185 174,-204 318,-204 318,-185 174,-185"/>
<text text-anchor="middle" x="246" y="-192" font-family="Helvetica,sans-Serif" font-size="10.00">amr&#45;wind/core/SimTime.H</text>
</a>
</g>
</g>
<!-- Node21&#45;&gt;Node23 -->
<g id="edge32" class="edge">
<title>Node21&#45;&gt;Node23</title>
<path fill="none" stroke="midnightblue" d="M1634.81,-252.87C1466.88,-246.68 966.93,-228.01 552,-210 476.12,-206.71 389.68,-202.58 328.07,-199.57"/>
<polygon fill="midnightblue" stroke="midnightblue" points="328.18,-196.07 318.02,-199.07 327.84,-203.06 328.18,-196.07"/>
</g>
<!-- Node27 -->
<g id="node27" class="node">
<title>Node27</title>
<g id="a_node27"><a xlink:href="_field_repo_8_h.html" target="_top" xlink:title=" ">
<polygon fill="white" stroke="black" points="689.5,-185 689.5,-204 838.5,-204 838.5,-185 689.5,-185"/>
<text text-anchor="middle" x="764" y="-192" font-family="Helvetica,sans-Serif" font-size="10.00">amr&#45;wind/core/FieldRepo.H</text>
</a>
</g>
</g>
<!-- Node21&#45;&gt;Node27 -->
<g id="edge36" class="edge">
<title>Node21&#45;&gt;Node27</title>
<path fill="none" stroke="midnightblue" d="M1634.89,-251.28C1476.23,-241.12 1035.15,-212.87 848.81,-200.93"/>
<polygon fill="midnightblue" stroke="midnightblue" points="848.99,-197.44 838.79,-200.29 848.55,-204.42 848.99,-197.44"/>
</g>
<!-- Node35 -->
<g id="node35" class="node">
<title>Node35</title>
<g id="a_node35"><a xlink:href="_p_d_e_base_8_h.html" target="_top" xlink:title=" ">
<polygon fill="white" stroke="black" points="2089.5,-179.5 2089.5,-209.5 2244.5,-209.5 2244.5,-179.5 2089.5,-179.5"/>
<text text-anchor="start" x="2097.5" y="-197.5" font-family="Helvetica,sans-Serif" font-size="10.00">amr&#45;wind/equation_systems</text>
<text text-anchor="middle" x="2167" y="-186.5" font-family="Helvetica,sans-Serif" font-size="10.00">/PDEBase.H</text>
</a>
</g>
</g>
<!-- Node21&#45;&gt;Node35 -->
<g id="edge60" class="edge">
<title>Node21&#45;&gt;Node35</title>
<path fill="none" stroke="midnightblue" d="M1751.19,-248.19C1823.94,-239.62 1952.24,-224.27 2062,-210 2067.67,-209.26 2073.51,-208.49 2079.4,-207.7"/>
<polygon fill="midnightblue" stroke="midnightblue" points="2079.88,-211.17 2089.32,-206.37 2078.94,-204.23 2079.88,-211.17"/>
</g>
<!-- Node38 -->
<g id="node38" class="node">
<title>Node38</title>
<g id="a_node38"><a xlink:href="_physics_8_h.html" target="_top" xlink:title=" ">
<polygon fill="white" stroke="black" points="1915.5,-185 1915.5,-204 2052.5,-204 2052.5,-185 1915.5,-185"/>
<text text-anchor="middle" x="1984" y="-192" font-family="Helvetica,sans-Serif" font-size="10.00">amr&#45;wind/core/Physics.H</text>
</a>
</g>
</g>
<!-- Node21&#45;&gt;Node38 -->
<g id="edge68" class="edge">
<title>Node21&#45;&gt;Node38</title>
<path fill="none" stroke="midnightblue" d="M1734.69,-246.48C1786.77,-235.83 1875.87,-217.61 1932.25,-206.08"/>
<polygon fill="midnightblue" stroke="midnightblue" points="1933.29,-209.44 1942.38,-204.01 1931.89,-202.58 1933.29,-209.44"/>
</g>
<!-- Node24 -->
<g id="node24" class="node">
<title>Node24</title>
<g id="a_node24"><a xlink:title=" ">
<polygon fill="white" stroke="#bfbfbf" points="134,-118 134,-137 226,-137 226,-118 134,-118"/>
<text text-anchor="middle" x="180" y="-125" font-family="Helvetica,sans-Serif" font-size="10.00">AMReX_REAL.H</text>
</a>
</g>
</g>
<!-- Node23&#45;&gt;Node24 -->
<g id="edge33" class="edge">
<title>Node23&#45;&gt;Node24</title>
<path fill="none" stroke="midnightblue" d="M237.1,-184.73C226.61,-174.4 208.98,-157.04 196.08,-144.33"/>
<polygon fill="midnightblue" stroke="midnightblue" points="198.34,-141.65 188.76,-137.13 193.43,-146.64 198.34,-141.65"/>
</g>
<!-- Node25 -->
<g id="node25" class="node">
<title>Node25</title>
<g id="a_node25"><a xlink:title=" ">
<polygon fill="white" stroke="#bfbfbf" points="244,-118 244,-137 378,-137 378,-118 244,-118"/>
<text text-anchor="middle" x="311" y="-125" font-family="Helvetica,sans-Serif" font-size="10.00">AMReX_GpuQualifiers.H</text>
</a>
</g>
</g>
<!-- Node23&#45;&gt;Node25 -->
<g id="edge34" class="edge">
<title>Node23&#45;&gt;Node25</title>
<path fill="none" stroke="midnightblue" d="M254.77,-184.73C265.1,-174.4 282.46,-157.04 295.17,-144.33"/>
<polygon fill="midnightblue" stroke="midnightblue" points="297.78,-146.67 302.37,-137.13 292.83,-141.72 297.78,-146.67"/>
</g>
<!-- Node26 -->
<g id="node26" class="node">
<title>Node26</title>
<g id="a_node26"><a xlink:title=" ">
<polygon fill="white" stroke="#bfbfbf" points="0,-118 0,-137 116,-137 116,-118 0,-118"/>
<text text-anchor="middle" x="58" y="-125" font-family="Helvetica,sans-Serif" font-size="10.00">AMReX_Extension.H</text>
</a>
</g>
</g>
<!-- Node23&#45;&gt;Node26 -->
<g id="edge35" class="edge">
<title>Node23&#45;&gt;Node26</title>
<path fill="none" stroke="midnightblue" d="M221.04,-184.87C188.08,-173.47 129.88,-153.35 92.67,-140.49"/>
<polygon fill="midnightblue" stroke="midnightblue" points="93.36,-137.02 82.77,-137.06 91.08,-143.64 93.36,-137.02"/>
</g>
<!-- Node27&#45;&gt;Node4 -->
<g id="edge37" class="edge">
<title>Node27&#45;&gt;Node4</title>
<path fill="none" stroke="midnightblue" d="M838.83,-193.47C1063.77,-192.89 1723.64,-187.39 1809,-143 1842.44,-125.61 1848.79,-111.66 1861,-76 1866.09,-61.14 1865.64,-43.22 1864.18,-29.96"/>
<polygon fill="midnightblue" stroke="midnightblue" points="1867.59,-29.12 1862.74,-19.7 1860.66,-30.09 1867.59,-29.12"/>
</g>
<!-- Node27&#45;&gt;Node6 -->
<g id="edge38" class="edge">
<title>Node27&#45;&gt;Node6</title>
<path fill="none" stroke="midnightblue" d="M838.79,-192.52C1072.1,-189.14 1776.75,-176.27 1874,-143 1896.63,-135.26 1896.06,-121.54 1918,-112 1932.53,-105.69 2018.75,-88.61 2077.49,-77.41"/>
<polygon fill="midnightblue" stroke="midnightblue" points="2078.22,-80.83 2087.39,-75.52 2076.92,-73.95 2078.22,-80.83"/>
</g>
<!-- Node27&#45;&gt;Node12 -->
<g id="edge44" class="edge">
<title>Node27&#45;&gt;Node12</title>
<path fill="none" stroke="midnightblue" d="M838.81,-188.51C1021.03,-176.35 1486.05,-145.31 1665.67,-133.33"/>
<polygon fill="midnightblue" stroke="midnightblue" points="1666.06,-136.81 1675.8,-132.65 1665.59,-129.82 1666.06,-136.81"/>
</g>
<!-- Node27&#45;&gt;Node14 -->
<g id="edge58" class="edge">
<title>Node27&#45;&gt;Node14</title>
<path fill="none" stroke="midnightblue" d="M741.97,-184.86C723.17,-176.54 696.48,-162.37 679,-143 651.5,-112.52 620.37,-86.36 648,-56 661.67,-40.98 932.61,-22.63 1059.49,-14.81"/>
<polygon fill="midnightblue" stroke="midnightblue" points="1059.7,-18.31 1069.47,-14.2 1059.28,-11.32 1059.7,-18.31"/>
</g>
<!-- Node27&#45;&gt;Node18 -->
<g id="edge39" class="edge">
<title>Node27&#45;&gt;Node18</title>
<path fill="none" stroke="midnightblue" d="M689.42,-186.42C661.39,-179.71 632.19,-166.97 615,-143 606.97,-131.8 612.23,-125.5 615,-112 620.44,-85.47 618.67,-73.89 639,-56 658.01,-39.27 682.83,-28.74 707.15,-22.11"/>
<polygon fill="midnightblue" stroke="midnightblue" points="708.32,-25.42 717.16,-19.58 706.61,-18.63 708.32,-25.42"/>
</g>
<!-- Node27&#45;&gt;Node22 -->
<g id="edge57" class="edge">
<title>Node27&#45;&gt;Node22</title>
<path fill="none" stroke="midnightblue" d="M722.55,-184.96C673.99,-174.95 591.14,-157.84 520,-143 513.94,-141.74 507.59,-140.41 501.29,-139.09"/>
<polygon fill="midnightblue" stroke="midnightblue" points="502,-135.66 491.49,-137.03 500.56,-142.51 502,-135.66"/>
</g>
<!-- Node28 -->
<g id="node28" class="node">
<title>Node28</title>
<g id="a_node28"><a xlink:href="_field_utils_8_h.html" target="_top" xlink:title=" ">
<polygon fill="white" stroke="black" points="379,-56.5 379,-75.5 525,-75.5 525,-56.5 379,-56.5"/>
<text text-anchor="middle" x="452" y="-63.5" font-family="Helvetica,sans-Serif" font-size="10.00">amr&#45;wind/core/FieldUtils.H</text>
</a>
</g>
</g>
<!-- Node27&#45;&gt;Node28 -->
<g id="edge40" class="edge">
<title>Node27&#45;&gt;Node28</title>
<path fill="none" stroke="midnightblue" d="M703.36,-184.94C661.21,-177.5 604.47,-164.45 558,-143 536.61,-133.12 534.14,-125.74 515,-112 500.76,-101.78 484.69,-90.3 472.34,-81.5"/>
<polygon fill="midnightblue" stroke="midnightblue" points="474.26,-78.57 464.09,-75.61 470.2,-84.27 474.26,-78.57"/>
</g>
<!-- Node30 -->
<g id="node30" class="node">
<title>Node30</title>
<g id="a_node30"><a xlink:href="_int_field_8_h.html" target="_top" xlink:title=" ">
<polygon fill="white" stroke="black" points="695.5,-118 695.5,-137 832.5,-137 832.5,-118 695.5,-118"/>
<text text-anchor="middle" x="764" y="-125" font-family="Helvetica,sans-Serif" font-size="10.00">amr&#45;wind/core/IntField.H</text>
</a>
</g>
</g>
<!-- Node27&#45;&gt;Node30 -->
<g id="edge45" class="edge">
<title>Node27&#45;&gt;Node30</title>
<path fill="none" stroke="midnightblue" d="M764,-184.73C764,-175.18 764,-159.62 764,-147.28"/>
<polygon fill="midnightblue" stroke="midnightblue" points="767.5,-147.13 764,-137.13 760.5,-147.13 767.5,-147.13"/>
</g>
<!-- Node31 -->
<g id="node31" class="node">
<title>Node31</title>
<g id="a_node31"><a xlink:title=" ">
<polygon fill="white" stroke="#bfbfbf" points="657,-56.5 657,-75.5 769,-75.5 769,-56.5 657,-56.5"/>
<text text-anchor="middle" x="713" y="-63.5" font-family="Helvetica,sans-Serif" font-size="10.00">AMReX_iMultiFab.H</text>
</a>
</g>
</g>
<!-- Node27&#45;&gt;Node31 -->
<g id="edge59" class="edge">
<title>Node27&#45;&gt;Node31</title>
<path fill="none" stroke="midnightblue" d="M739.03,-184.84C720.72,-177.02 697.18,-163.55 686,-143 675.6,-123.87 687.79,-99.95 698.97,-84.1"/>
<polygon fill="midnightblue" stroke="midnightblue" points="702.01,-85.89 705.26,-75.81 696.43,-81.66 702.01,-85.89"/>
</g>
<!-- Node32 -->
<g id="node32" class="node">
<title>Node32</title>
<g id="a_node32"><a xlink:href="_scratch_field_8_h.html" target="_top" xlink:title=" ">
<polygon fill="white" stroke="black" points="936,-118 936,-137 1096,-137 1096,-118 936,-118"/>
<text text-anchor="middle" x="1016" y="-125" font-family="Helvetica,sans-Serif" font-size="10.00">amr&#45;wind/core/ScratchField.H</text>
</a>
</g>
</g>
<!-- Node27&#45;&gt;Node32 -->
<g id="edge49" class="edge">
<title>Node27&#45;&gt;Node32</title>
<path fill="none" stroke="midnightblue" d="M797.2,-184.94C842.34,-173.29 923.13,-152.45 972.9,-139.62"/>
<polygon fill="midnightblue" stroke="midnightblue" points="973.91,-142.97 982.72,-137.08 972.17,-136.19 973.91,-142.97"/>
</g>
<!-- Node28&#45;&gt;Node14 -->
<g id="edge42" class="edge">
<title>Node28&#45;&gt;Node14</title>
<path fill="none" stroke="midnightblue" d="M525.2,-59.12C657.21,-48.51 933.14,-26.34 1058.96,-16.23"/>
<polygon fill="midnightblue" stroke="midnightblue" points="1059.52,-19.69 1069.21,-15.4 1058.96,-12.72 1059.52,-19.69"/>
</g>
<!-- Node28&#45;&gt;Node18 -->
<g id="edge41" class="edge">
<title>Node28&#45;&gt;Node18</title>
<path fill="none" stroke="midnightblue" d="M506.67,-56.44C567.99,-46.85 667.36,-31.29 732.45,-21.1"/>
<polygon fill="midnightblue" stroke="midnightblue" points="733.25,-24.52 742.59,-19.52 732.17,-17.61 733.25,-24.52"/>
</g>
<!-- Node29 -->
<g id="node29" class="node">
<title>Node29</title>
<g id="a_node29"><a xlink:title=" ">
<polygon fill="white" stroke="#bfbfbf" points="390,-0.5 390,-19.5 514,-19.5 514,-0.5 390,-0.5"/>
<text text-anchor="middle" x="452" y="-7.5" font-family="Helvetica,sans-Serif" font-size="10.00">AMReX_Interpolater.H</text>
</a>
</g>
</g>
<!-- Node28&#45;&gt;Node29 -->
<g id="edge43" class="edge">
<title>Node28&#45;&gt;Node29</title>
<path fill="none" stroke="midnightblue" d="M452,-56.08C452,-49.01 452,-38.86 452,-29.99"/>
<polygon fill="midnightblue" stroke="midnightblue" points="455.5,-29.75 452,-19.75 448.5,-29.75 455.5,-29.75"/>
</g>
<!-- Node30&#45;&gt;Node4 -->
<g id="edge46" class="edge">
<title>Node30&#45;&gt;Node4</title>
<path fill="none" stroke="midnightblue" d="M832.58,-120.15C861.69,-117.52 895.99,-114.5 927,-112 1037.15,-103.1 1317.71,-109.57 1423,-76 1439.34,-70.79 1439.76,-61.52 1456,-56 1525.06,-32.52 1745.65,-17.67 1828.84,-12.78"/>
<polygon fill="midnightblue" stroke="midnightblue" points="1829.18,-16.27 1838.96,-12.19 1828.78,-9.28 1829.18,-16.27"/>
</g>
<!-- Node30&#45;&gt;Node18 -->
<g id="edge47" class="edge">
<title>Node30&#45;&gt;Node18</title>
<path fill="none" stroke="midnightblue" d="M721.66,-117.94C679.71,-107.48 624.82,-87.22 648,-56 660.59,-39.05 679.37,-28.26 699.39,-21.44"/>
<polygon fill="midnightblue" stroke="midnightblue" points="700.45,-24.77 708.98,-18.49 698.39,-18.08 700.45,-24.77"/>
</g>
<!-- Node30&#45;&gt;Node31 -->
<g id="edge48" class="edge">
<title>Node30&#45;&gt;Node31</title>
<path fill="none" stroke="midnightblue" d="M756.69,-117.98C748.97,-108.96 736.59,-94.52 726.98,-83.31"/>
<polygon fill="midnightblue" stroke="midnightblue" points="729.46,-80.82 720.29,-75.51 724.14,-85.38 729.46,-80.82"/>
</g>
<!-- Node32&#45;&gt;Node4 -->
<g id="edge50" class="edge">
<title>Node32&#45;&gt;Node4</title>
<path fill="none" stroke="midnightblue" d="M1096.34,-120.38C1184.89,-112.92 1331.33,-98.45 1456,-76 1492.49,-69.43 1500.59,-63 1537,-56 1643.05,-35.6 1770.33,-20.68 1828.78,-14.35"/>
<polygon fill="midnightblue" stroke="midnightblue" points="1829.3,-17.81 1838.87,-13.27 1828.55,-10.85 1829.3,-17.81"/>
</g>
<!-- Node32&#45;&gt;Node7 -->
<g id="edge55" class="edge">
<title>Node32&#45;&gt;Node7</title>
<path fill="none" stroke="midnightblue" d="M1040.09,-117.91C1097.14,-97.57 1240.64,-46.42 1306.28,-23.02"/>
<polygon fill="midnightblue" stroke="midnightblue" points="1307.51,-26.3 1315.75,-19.64 1305.16,-19.7 1307.51,-26.3"/>
</g>
<!-- Node32&#45;&gt;Node14 -->
<g id="edge54" class="edge">
<title>Node32&#45;&gt;Node14</title>
<path fill="none" stroke="midnightblue" d="M1024.99,-117.7C1035.11,-107.73 1051.97,-90.92 1066,-76 1081.3,-59.73 1098.24,-40.6 1109.85,-27.33"/>
<polygon fill="midnightblue" stroke="midnightblue" points="1112.7,-29.38 1116.63,-19.54 1107.42,-24.78 1112.7,-29.38"/>
</g>
<!-- Node32&#45;&gt;Node18 -->
<g id="edge52" class="edge">
<title>Node32&#45;&gt;Node18</title>
<path fill="none" stroke="midnightblue" d="M964.36,-117.93C930.89,-110.63 887.47,-97.76 854,-76 834.8,-63.52 818.24,-42.82 807.99,-28.14"/>
<polygon fill="midnightblue" stroke="midnightblue" points="810.68,-25.87 802.2,-19.51 804.87,-29.76 810.68,-25.87"/>
</g>
<!-- Node32&#45;&gt;Node19 -->
<g id="edge53" class="edge">
<title>Node32&#45;&gt;Node19</title>
<path fill="none" stroke="midnightblue" d="M1062.42,-117.98C1120.77,-107.26 1220.84,-88.88 1283.55,-77.37"/>
<polygon fill="midnightblue" stroke="midnightblue" points="1284.46,-80.76 1293.66,-75.51 1283.2,-73.87 1284.46,-80.76"/>
</g>
<!-- Node33 -->
<g id="node33" class="node">
<title>Node33</title>
<g id="a_node33"><a xlink:title=" ">
<polygon fill="white" stroke="#bfbfbf" points="1012.5,-56.5 1012.5,-75.5 1057.5,-75.5 1057.5,-56.5 1012.5,-56.5"/>
<text text-anchor="middle" x="1035" y="-63.5" font-family="Helvetica,sans-Serif" font-size="10.00">utility</text>
</a>
</g>
</g>
<!-- Node32&#45;&gt;Node33 -->
<g id="edge51" class="edge">
<title>Node32&#45;&gt;Node33</title>
<path fill="none" stroke="midnightblue" d="M1018.72,-117.98C1021.43,-109.49 1025.67,-96.2 1029.15,-85.32"/>
<polygon fill="midnightblue" stroke="midnightblue" points="1032.57,-86.1 1032.28,-75.51 1025.91,-83.97 1032.57,-86.1"/>
</g>
<!-- Node34 -->
<g id="node34" class="node">
<title>Node34</title>
<g id="a_node34"><a xlink:title=" ">
<polygon fill="white" stroke="#bfbfbf" points="863.5,-56.5 863.5,-75.5 994.5,-75.5 994.5,-56.5 863.5,-56.5"/>
<text text-anchor="middle" x="929" y="-63.5" font-family="Helvetica,sans-Serif" font-size="10.00">AMReX_PhysBCFunct.H</text>
</a>
</g>
</g>
<!-- Node32&#45;&gt;Node34 -->
<g id="edge56" class="edge">
<title>Node32&#45;&gt;Node34</title>
<path fill="none" stroke="midnightblue" d="M1003.54,-117.98C989.58,-108.43 966.74,-92.81 950.01,-81.37"/>
<polygon fill="midnightblue" stroke="midnightblue" points="951.67,-78.27 941.44,-75.51 947.72,-84.04 951.67,-78.27"/>
</g>
<!-- Node35&#45;&gt;Node3 -->
<g id="edge63" class="edge">
<title>Node35&#45;&gt;Node3</title>
<path fill="none" stroke="midnightblue" d="M2167,-179.4C2167,-170.06 2167,-157.71 2167,-147.52"/>
<polygon fill="midnightblue" stroke="midnightblue" points="2170.5,-147.19 2167,-137.19 2163.5,-147.19 2170.5,-147.19"/>
</g>
<!-- Node35&#45;&gt;Node4 -->
<g id="edge61" class="edge">
<title>Node35&#45;&gt;Node4</title>
<path fill="none" stroke="midnightblue" d="M2244.81,-190.59C2353.16,-185.52 2543.12,-172.62 2605,-143 2649.27,-121.81 2706.73,-91.65 2673,-56 2645.75,-27.2 2041.14,-14.3 1893.37,-11.56"/>
<polygon fill="midnightblue" stroke="midnightblue" points="1893.21,-8.06 1883.15,-11.38 1893.08,-15.06 1893.21,-8.06"/>
</g>
<!-- Node35&#45;&gt;Node8 -->
<g id="edge62" class="edge">
<title>Node35&#45;&gt;Node8</title>
<path fill="none" stroke="midnightblue" d="M2200.42,-179.4C2227.56,-167.94 2265.47,-151.94 2291.5,-140.95"/>
<polygon fill="midnightblue" stroke="midnightblue" points="2292.99,-144.12 2300.84,-137.01 2290.27,-137.67 2292.99,-144.12"/>
</g>
<!-- Node35&#45;&gt;Node17 -->
<g id="edge67" class="edge">
<title>Node35&#45;&gt;Node17</title>
<path fill="none" stroke="midnightblue" d="M2143.98,-179.34C2128.44,-169.55 2107.63,-156 2090,-143 2075.51,-132.31 2038.29,-101.11 2015.88,-82.17"/>
<polygon fill="midnightblue" stroke="midnightblue" points="2017.99,-79.37 2008.1,-75.58 2013.47,-84.71 2017.99,-79.37"/>
</g>
<!-- Node35&#45;&gt;Node18 -->
<g id="edge66" class="edge">
<title>Node35&#45;&gt;Node18</title>
<path fill="none" stroke="midnightblue" d="M2089.41,-181.85C2080.19,-180.74 2070.89,-179.75 2062,-179 1936.28,-168.36 1047.12,-181.61 927,-143 876.07,-126.63 861.73,-116.69 827,-76 815.41,-62.42 807.39,-43.62 802.57,-29.73"/>
<polygon fill="midnightblue" stroke="midnightblue" points="805.78,-28.29 799.39,-19.84 799.12,-30.43 805.78,-28.29"/>
</g>
<!-- Node36 -->
<g id="node36" class="node">
<title>Node36</title>
<g id="a_node36"><a xlink:href="_p_d_e_fields_8_h.html" target="_top" xlink:title=" ">
<polygon fill="white" stroke="black" points="2440.5,-112.5 2440.5,-142.5 2595.5,-142.5 2595.5,-112.5 2440.5,-112.5"/>
<text text-anchor="start" x="2448.5" y="-130.5" font-family="Helvetica,sans-Serif" font-size="10.00">amr&#45;wind/equation_systems</text>
<text text-anchor="middle" x="2518" y="-119.5" font-family="Helvetica,sans-Serif" font-size="10.00">/PDEFields.H</text>
</a>
</g>
</g>
<!-- Node35&#45;&gt;Node36 -->
<g id="edge64" class="edge">
<title>Node35&#45;&gt;Node36</title>
<path fill="none" stroke="midnightblue" d="M2242.73,-179.48C2298.45,-169.16 2374.27,-155.12 2432.23,-144.38"/>
<polygon fill="midnightblue" stroke="midnightblue" points="2432.91,-147.82 2442.1,-142.55 2431.63,-140.93 2432.91,-147.82"/>
</g>
<!-- Node37 -->
<g id="node37" class="node">
<title>Node37</title>
<g id="a_node37"><a xlink:title=" ">
<polygon fill="white" stroke="#bfbfbf" points="2616,-56.5 2616,-75.5 2664,-75.5 2664,-56.5 2616,-56.5"/>
<text text-anchor="middle" x="2640" y="-63.5" font-family="Helvetica,sans-Serif" font-size="10.00">iosfwd</text>
</a>
</g>
</g>
<!-- Node36&#45;&gt;Node37 -->
<g id="edge65" class="edge">
<title>Node36&#45;&gt;Node37</title>
<path fill="none" stroke="midnightblue" d="M2546.91,-112.4C2567.02,-102.59 2593.62,-89.62 2613.24,-80.05"/>
<polygon fill="midnightblue" stroke="midnightblue" points="2614.79,-83.19 2622.25,-75.66 2611.73,-76.9 2614.79,-83.19"/>
</g>
<!-- Node38&#45;&gt;Node3 -->
<g id="edge70" class="edge">
<title>Node38&#45;&gt;Node3</title>
<path fill="none" stroke="midnightblue" d="M2008.3,-184.87C2040.38,-173.47 2097.03,-153.35 2133.25,-140.49"/>
<polygon fill="midnightblue" stroke="midnightblue" points="2134.64,-143.71 2142.89,-137.06 2132.3,-137.11 2134.64,-143.71"/>
</g>
<!-- Node38&#45;&gt;Node8 -->
<g id="edge69" class="edge">
<title>Node38&#45;&gt;Node8</title>
<path fill="none" stroke="midnightblue" d="M2028.4,-184.94C2089.86,-173.08 2200.74,-151.7 2266.94,-138.93"/>
<polygon fill="midnightblue" stroke="midnightblue" points="2267.61,-142.36 2276.77,-137.03 2266.28,-135.49 2267.61,-142.36"/>
</g>
<!-- Node38&#45;&gt;Node14 -->
<g id="edge71" class="edge">
<title>Node38&#45;&gt;Node14</title>
<path fill="none" stroke="midnightblue" d="M1915.29,-185.03C1758.72,-165.31 1379.59,-115.04 1257,-76 1216.43,-63.08 1172.68,-39.66 1146.84,-24.75"/>
<polygon fill="midnightblue" stroke="midnightblue" points="1148.58,-21.7 1138.18,-19.67 1145.04,-27.74 1148.58,-21.7"/>
</g>
<!-- Node38&#45;&gt;Node20 -->
<g id="edge72" class="edge">
<title>Node38&#45;&gt;Node20</title>
<path fill="none" stroke="midnightblue" d="M1984,-184.73C1984,-175.18 1984,-159.62 1984,-147.28"/>
<polygon fill="midnightblue" stroke="midnightblue" points="1987.5,-147.13 1984,-137.13 1980.5,-147.13 1987.5,-147.13"/>
</g>
</g>
</svg>
        <g id="navigator" transform="translate(0 0)" fill="#404254">
                <rect fill="#f2f5e9" fill-opacity="0.5" stroke="#606060" stroke-width=".5" x="0" y="0" width="60" height="60"/>
                <use id="zoomplus" xlink:href="#zoomPlus" x="17" y="9" onmousedown="handleZoom(evt,'in')"/>
                <use id="zoomminus" xlink:href="#zoomMin" x="42" y="9" onmousedown="handleZoom(evt,'out')"/>
                <use id="reset" xlink:href="#resetDef" x="30" y="36" onmousedown="handleReset()"/>
                <g id="arrowUp" xlink:href="#dirArrow" transform="translate(30 24)" onmousedown="handlePan(0,-1)">
                  <use xlink:href="#rim" fill="#404040">
                        <set attributeName="fill" to="#808080" begin="arrowUp.mouseover" end="arrowUp.mouseout"/>
                  </use>
                  <path fill="none" stroke="white" stroke-width="1.5" d="M0,-3.0v7 M-2.5,-0.5L0,-3.0L2.5,-0.5"/>
                </g>
                <g id="arrowRight" xlink:href="#dirArrow" transform="rotate(90) translate(36 -43)" onmousedown="handlePan(1,0)">
                  <use xlink:href="#rim" fill="#404040">
                        <set attributeName="fill" to="#808080" begin="arrowRight.mouseover" end="arrowRight.mouseout"/>
                  </use>
                  <path fill="none" stroke="white" stroke-width="1.5" d="M0,-3.0v7 M-2.5,-0.5L0,-3.0L2.5,-0.5"/>
                </g>
                <g id="arrowDown" xlink:href="#dirArrow" transform="rotate(180) translate(-30 -48)" onmousedown="handlePan(0,1)">
                  <use xlink:href="#rim" fill="#404040">
                        <set attributeName="fill" to="#808080" begin="arrowDown.mouseover" end="arrowDown.mouseout"/>
                  </use>
                  <path fill="none" stroke="white" stroke-width="1.5" d="M0,-3.0v7 M-2.5,-0.5L0,-3.0L2.5,-0.5"/>
                </g>
                <g id="arrowLeft" xlink:href="#dirArrow" transform="rotate(270) translate(-36 17)" onmousedown="handlePan(-1,0)">
                  <use xlink:href="#rim" fill="#404040">
                        <set attributeName="fill" to="#808080" begin="arrowLeft.mouseover" end="arrowLeft.mouseout"/>
                  </use>
                  <path fill="none" stroke="white" stroke-width="1.5" d="M0,-3.0v7 M-2.5,-0.5L0,-3.0L2.5,-0.5"/>
                </g>
        </g>
        <svg viewBox="0 0 15 15" width="100%" height="30px" preserveAspectRatio="xMaxYMin meet">
         <g id="arrow_out" transform="scale(0.3 0.3)">
          <a xlink:href="_mesh_map_8cpp__incl_org.svg" target="_base">
           <rect id="button" ry="5" rx="5" y="6" x="6" height="38" width="38"
                fill="#f2f5e9" fill-opacity="0.5" stroke="#606060" stroke-width="1.0"/>
           <path id="arrow"
             d="M 11.500037,31.436501 C 11.940474,20.09759 22.043105,11.32322 32.158766,21.979434 L 37.068811,17.246167 C 37.068811,17.246167 37.088388,32 37.088388,32 L 22.160133,31.978069 C 22.160133,31.978069 26.997745,27.140456 26.997745,27.140456 C 18.528582,18.264221 13.291696,25.230495 11.500037,31.436501 z"
             style="fill:#404040;"/>
          </a>
         </g>
        </svg>
</svg>
