<?xml version="1.0" encoding="UTF-8" standalone="no"?>
<!DOCTYPE svg PUBLIC "-//W3C//DTD SVG 1.1//EN"
 "http://www.w3.org/Graphics/SVG/1.1/DTD/svg11.dtd">
<!-- Generated by graphviz version 2.43.0 (0)
 -->
<!-- Title: MultiParser.H Pages: 1 -->
<svg width="1892pt" height="308pt"
 viewBox="0.00 0.00 1892.00 308.00" xmlns="http://www.w3.org/2000/svg" xmlns:xlink="http://www.w3.org/1999/xlink">
<g id="graph0" class="graph" transform="scale(1 1) rotate(0) translate(4 304)">
<title>MultiParser.H</title>
<polygon fill="white" stroke="transparent" points="-4,4 -4,-304 1888,-304 1888,4 -4,4"/>
<!-- Node1 -->
<g id="node1" class="node">
<title>Node1</title>
<g id="a_node1"><a xlink:title=" ">
<polygon fill="#bfbfbf" stroke="black" points="315.5,-280.5 315.5,-299.5 396.5,-299.5 396.5,-280.5 315.5,-280.5"/>
<text text-anchor="middle" x="356" y="-287.5" font-family="Helvetica,sans-Serif" font-size="10.00">MultiParser.H</text>
</a>
</g>
</g>
<!-- Node2 -->
<g id="node2" class="node">
<title>Node2</title>
<g id="a_node2"><a xlink:href="bluff__body__ops_8_h.html" target="_top" xlink:title=" ">
<polygon fill="white" stroke="black" points="219.5,-224.5 219.5,-243.5 320.5,-243.5 320.5,-224.5 219.5,-224.5"/>
<text text-anchor="middle" x="270" y="-231.5" font-family="Helvetica,sans-Serif" font-size="10.00">bluff_body_ops.H</text>
</a>
</g>
</g>
<!-- Node1&#45;&gt;Node2 -->
<g id="edge1" class="edge">
<title>Node1&#45;&gt;Node2</title>
<path fill="none" stroke="midnightblue" d="M333.55,-274.9C317.78,-265 297.19,-252.07 283.78,-243.65"/>
<polygon fill="midnightblue" stroke="midnightblue" points="331.85,-277.97 342.18,-280.32 335.57,-272.04 331.85,-277.97"/>
</g>
<!-- Node3 -->
<g id="node3" class="node">
<title>Node3</title>
<g id="a_node3"><a xlink:href="bluff__body__ops_8cpp.html" target="_top" xlink:title=" ">
<polygon fill="white" stroke="black" points="0,-168.5 0,-187.5 110,-187.5 110,-168.5 0,-168.5"/>
<text text-anchor="middle" x="55" y="-175.5" font-family="Helvetica,sans-Serif" font-size="10.00">bluff_body_ops.cpp</text>
</a>
</g>
</g>
<!-- Node1&#45;&gt;Node3 -->
<g id="edge9" class="edge">
<title>Node1&#45;&gt;Node3</title>
<path fill="none" stroke="midnightblue" d="M315.3,-277.62C285.81,-269.09 245.13,-256.74 210,-244 160.08,-225.89 102.8,-200.68 73.85,-187.61"/>
<polygon fill="midnightblue" stroke="midnightblue" points="314.65,-281.07 325.23,-280.47 316.58,-274.35 314.65,-281.07"/>
</g>
<!-- Node10 -->
<g id="node10" class="node">
<title>Node10</title>
<g id="a_node10"><a xlink:href="_i_b_model_8_h.html" target="_top" xlink:title=" ">
<polygon fill="white" stroke="black" points="322.5,-168.5 322.5,-187.5 389.5,-187.5 389.5,-168.5 322.5,-168.5"/>
<text text-anchor="middle" x="356" y="-175.5" font-family="Helvetica,sans-Serif" font-size="10.00">IBModel.H</text>
</a>
</g>
</g>
<!-- Node1&#45;&gt;Node10 -->
<g id="edge10" class="edge">
<title>Node1&#45;&gt;Node10</title>
<path fill="none" stroke="midnightblue" d="M356,-270.35C356,-246.25 356,-205.31 356,-187.59"/>
<polygon fill="midnightblue" stroke="midnightblue" points="352.5,-270.37 356,-280.37 359.5,-270.37 352.5,-270.37"/>
</g>
<!-- Node11 -->
<g id="node11" class="node">
<title>Node11</title>
<g id="a_node11"><a xlink:href="_i_b_8cpp.html" target="_top" xlink:title=" ">
<polygon fill="white" stroke="black" points="476.5,-112.5 476.5,-131.5 523.5,-131.5 523.5,-112.5 476.5,-112.5"/>
<text text-anchor="middle" x="500" y="-119.5" font-family="Helvetica,sans-Serif" font-size="10.00">IB.cpp</text>
</a>
</g>
</g>
<!-- Node1&#45;&gt;Node11 -->
<g id="edge15" class="edge">
<title>Node1&#45;&gt;Node11</title>
<path fill="none" stroke="midnightblue" d="M388.94,-276.4C423.41,-261.24 475.69,-232.16 499,-188 508.59,-169.83 505.05,-144.64 502.2,-131.6"/>
<polygon fill="midnightblue" stroke="midnightblue" points="387.14,-273.36 379.3,-280.49 389.87,-279.81 387.14,-273.36"/>
</g>
<!-- Node12 -->
<g id="node12" class="node">
<title>Node12</title>
<g id="a_node12"><a xlink:href="_act_parser_8_h.html" target="_top" xlink:title=" ">
<polygon fill="white" stroke="black" points="833,-224.5 833,-243.5 905,-243.5 905,-224.5 833,-224.5"/>
<text text-anchor="middle" x="869" y="-231.5" font-family="Helvetica,sans-Serif" font-size="10.00">ActParser.H</text>
</a>
</g>
</g>
<!-- Node1&#45;&gt;Node12 -->
<g id="edge16" class="edge">
<title>Node1&#45;&gt;Node12</title>
<path fill="none" stroke="midnightblue" d="M406.88,-283.64C510.36,-272.75 743.14,-248.25 832.82,-238.81"/>
<polygon fill="midnightblue" stroke="midnightblue" points="406.26,-280.19 396.68,-284.72 406.99,-287.15 406.26,-280.19"/>
</g>
<!-- Node2&#45;&gt;Node3 -->
<g id="edge2" class="edge">
<title>Node2&#45;&gt;Node3</title>
<path fill="none" stroke="midnightblue" d="M226.04,-221.96C185.43,-211.76 125.96,-196.82 88.91,-187.52"/>
<polygon fill="midnightblue" stroke="midnightblue" points="225.38,-225.4 235.93,-224.44 227.09,-218.61 225.38,-225.4"/>
</g>
<!-- Node4 -->
<g id="node4" class="node">
<title>Node4</title>
<g id="a_node4"><a xlink:href="box__ops_8_h.html" target="_top" xlink:title=" ">
<polygon fill="white" stroke="black" points="236,-168.5 236,-187.5 304,-187.5 304,-168.5 236,-168.5"/>
<text text-anchor="middle" x="270" y="-175.5" font-family="Helvetica,sans-Serif" font-size="10.00">box_ops.H</text>
</a>
</g>
</g>
<!-- Node2&#45;&gt;Node4 -->
<g id="edge3" class="edge">
<title>Node2&#45;&gt;Node4</title>
<path fill="none" stroke="midnightblue" d="M270,-213.8C270,-204.91 270,-194.78 270,-187.75"/>
<polygon fill="midnightblue" stroke="midnightblue" points="266.5,-214.08 270,-224.08 273.5,-214.08 266.5,-214.08"/>
</g>
<!-- Node6 -->
<g id="node6" class="node">
<title>Node6</title>
<g id="a_node6"><a xlink:href="cylinder__ops_8_h.html" target="_top" xlink:title=" ">
<polygon fill="white" stroke="black" points="128.5,-168.5 128.5,-187.5 217.5,-187.5 217.5,-168.5 128.5,-168.5"/>
<text text-anchor="middle" x="173" y="-175.5" font-family="Helvetica,sans-Serif" font-size="10.00">cylinder_ops.H</text>
</a>
</g>
</g>
<!-- Node2&#45;&gt;Node6 -->
<g id="edge5" class="edge">
<title>Node2&#45;&gt;Node6</title>
<path fill="none" stroke="midnightblue" d="M245.66,-219.45C227.76,-209.48 203.95,-196.23 188.55,-187.65"/>
<polygon fill="midnightblue" stroke="midnightblue" points="243.98,-222.52 254.42,-224.32 247.38,-216.4 243.98,-222.52"/>
</g>
<!-- Node8 -->
<g id="node8" class="node">
<title>Node8</title>
<g id="a_node8"><a xlink:href="sphere__ops_8_h.html" target="_top" xlink:title=" ">
<polygon fill="white" stroke="black" points="407.5,-168.5 407.5,-187.5 490.5,-187.5 490.5,-168.5 407.5,-168.5"/>
<text text-anchor="middle" x="449" y="-175.5" font-family="Helvetica,sans-Serif" font-size="10.00">sphere_ops.H</text>
</a>
</g>
</g>
<!-- Node2&#45;&gt;Node8 -->
<g id="edge7" class="edge">
<title>Node2&#45;&gt;Node8</title>
<path fill="none" stroke="midnightblue" d="M308.33,-221.44C342.08,-211.26 390.45,-196.66 420.77,-187.52"/>
<polygon fill="midnightblue" stroke="midnightblue" points="306.93,-218.2 298.36,-224.44 308.95,-224.91 306.93,-218.2"/>
</g>
<!-- Node5 -->
<g id="node5" class="node">
<title>Node5</title>
<g id="a_node5"><a xlink:href="_box_8cpp.html" target="_top" xlink:title=" ">
<polygon fill="white" stroke="black" points="280,-112.5 280,-131.5 336,-131.5 336,-112.5 280,-112.5"/>
<text text-anchor="middle" x="308" y="-119.5" font-family="Helvetica,sans-Serif" font-size="10.00">Box.cpp</text>
</a>
</g>
</g>
<!-- Node4&#45;&gt;Node5 -->
<g id="edge4" class="edge">
<title>Node4&#45;&gt;Node5</title>
<path fill="none" stroke="midnightblue" d="M282.06,-159.86C288.64,-150.5 296.51,-139.33 301.84,-131.75"/>
<polygon fill="midnightblue" stroke="midnightblue" points="279.17,-157.89 276.27,-168.08 284.89,-161.92 279.17,-157.89"/>
</g>
<!-- Node7 -->
<g id="node7" class="node">
<title>Node7</title>
<g id="a_node7"><a xlink:href="_cylinder_8cpp.html" target="_top" xlink:title=" ">
<polygon fill="white" stroke="black" points="140.5,-112.5 140.5,-131.5 217.5,-131.5 217.5,-112.5 140.5,-112.5"/>
<text text-anchor="middle" x="179" y="-119.5" font-family="Helvetica,sans-Serif" font-size="10.00">Cylinder.cpp</text>
</a>
</g>
</g>
<!-- Node6&#45;&gt;Node7 -->
<g id="edge6" class="edge">
<title>Node6&#45;&gt;Node7</title>
<path fill="none" stroke="midnightblue" d="M175.1,-158.1C176.1,-149.14 177.24,-138.86 178.03,-131.75"/>
<polygon fill="midnightblue" stroke="midnightblue" points="171.62,-157.76 173.99,-168.08 178.57,-158.53 171.62,-157.76"/>
</g>
<!-- Node9 -->
<g id="node9" class="node">
<title>Node9</title>
<g id="a_node9"><a xlink:href="_sphere_8cpp.html" target="_top" xlink:title=" ">
<polygon fill="white" stroke="black" points="376.5,-112.5 376.5,-131.5 447.5,-131.5 447.5,-112.5 376.5,-112.5"/>
<text text-anchor="middle" x="412" y="-119.5" font-family="Helvetica,sans-Serif" font-size="10.00">Sphere.cpp</text>
</a>
</g>
</g>
<!-- Node8&#45;&gt;Node9 -->
<g id="edge8" class="edge">
<title>Node8&#45;&gt;Node9</title>
<path fill="none" stroke="midnightblue" d="M437.05,-159.57C430.69,-150.27 423.13,-139.25 418,-131.75"/>
<polygon fill="midnightblue" stroke="midnightblue" points="434.35,-161.81 442.89,-168.08 440.13,-157.86 434.35,-161.81"/>
</g>
<!-- Node10&#45;&gt;Node5 -->
<g id="edge11" class="edge">
<title>Node10&#45;&gt;Node5</title>
<path fill="none" stroke="midnightblue" d="M341.27,-160.43C332.86,-150.97 322.65,-139.48 315.78,-131.75"/>
<polygon fill="midnightblue" stroke="midnightblue" points="338.81,-162.93 348.07,-168.08 344.05,-158.28 338.81,-162.93"/>
</g>
<!-- Node10&#45;&gt;Node7 -->
<g id="edge12" class="edge">
<title>Node10&#45;&gt;Node7</title>
<path fill="none" stroke="midnightblue" d="M318.1,-165.44C284.72,-155.26 236.9,-140.66 206.91,-131.52"/>
<polygon fill="midnightblue" stroke="midnightblue" points="317.37,-168.87 327.95,-168.44 319.41,-162.18 317.37,-168.87"/>
</g>
<!-- Node10&#45;&gt;Node9 -->
<g id="edge13" class="edge">
<title>Node10&#45;&gt;Node9</title>
<path fill="none" stroke="midnightblue" d="M372.33,-161.25C382.26,-151.67 394.59,-139.79 402.84,-131.83"/>
<polygon fill="midnightblue" stroke="midnightblue" points="369.77,-158.86 365,-168.32 374.63,-163.9 369.77,-158.86"/>
</g>
<!-- Node10&#45;&gt;Node11 -->
<g id="edge14" class="edge">
<title>Node10&#45;&gt;Node11</title>
<path fill="none" stroke="midnightblue" d="M388.25,-164.91C415.32,-154.75 453.32,-140.51 477.29,-131.52"/>
<polygon fill="midnightblue" stroke="midnightblue" points="386.95,-161.66 378.82,-168.44 389.41,-168.21 386.95,-161.66"/>
</g>
<!-- Node13 -->
<g id="node13" class="node">
<title>Node13</title>
<g id="a_node13"><a xlink:href="actuator__ops_8_h.html" target="_top" xlink:title=" ">
<polygon fill="white" stroke="black" points="979,-168.5 979,-187.5 1069,-187.5 1069,-168.5 979,-168.5"/>
<text text-anchor="middle" x="1024" y="-175.5" font-family="Helvetica,sans-Serif" font-size="10.00">actuator_ops.H</text>
</a>
</g>
</g>
<!-- Node12&#45;&gt;Node13 -->
<g id="edge17" class="edge">
<title>Node12&#45;&gt;Node13</title>
<path fill="none" stroke="midnightblue" d="M903.33,-221.04C932.5,-210.88 973.64,-196.55 999.55,-187.52"/>
<polygon fill="midnightblue" stroke="midnightblue" points="901.85,-217.85 893.56,-224.44 904.16,-224.46 901.85,-217.85"/>
</g>
<!-- Node15 -->
<g id="node15" class="node">
<title>Node15</title>
<g id="a_node15"><a xlink:href="_actuator_model_8_h.html" target="_top" xlink:title=" ">
<polygon fill="white" stroke="black" points="1126,-56.5 1126,-75.5 1224,-75.5 1224,-56.5 1126,-56.5"/>
<text text-anchor="middle" x="1175" y="-63.5" font-family="Helvetica,sans-Serif" font-size="10.00">ActuatorModel.H</text>
</a>
</g>
</g>
<!-- Node12&#45;&gt;Node15 -->
<g id="edge49" class="edge">
<title>Node12&#45;&gt;Node15</title>
<path fill="none" stroke="midnightblue" d="M915.25,-232.06C1038.4,-228.48 1369.4,-211.51 1436,-132 1441.71,-125.19 1441.73,-118.8 1436,-112 1409.45,-80.48 1292.12,-71.04 1224.15,-68.21"/>
<polygon fill="midnightblue" stroke="midnightblue" points="914.93,-228.57 905.03,-232.34 915.12,-235.56 914.93,-228.57"/>
</g>
<!-- Node16 -->
<g id="node16" class="node">
<title>Node16</title>
<g id="a_node16"><a xlink:href="_actuator_8cpp.html" target="_top" xlink:title=" ">
<polygon fill="white" stroke="black" points="543.5,-0.5 543.5,-19.5 620.5,-19.5 620.5,-0.5 543.5,-0.5"/>
<text text-anchor="middle" x="582" y="-7.5" font-family="Helvetica,sans-Serif" font-size="10.00">Actuator.cpp</text>
</a>
</g>
</g>
<!-- Node12&#45;&gt;Node16 -->
<g id="edge50" class="edge">
<title>Node12&#45;&gt;Node16</title>
<path fill="none" stroke="midnightblue" d="M822.72,-233.13C754.49,-230.46 629.27,-213.96 576,-132 552.73,-96.2 570.14,-41.09 578.34,-19.81"/>
<polygon fill="midnightblue" stroke="midnightblue" points="822.65,-236.63 832.76,-233.44 822.87,-229.63 822.65,-236.63"/>
</g>
<!-- Node25 -->
<g id="node25" class="node">
<title>Node25</title>
<g id="a_node25"><a xlink:href="uniform__ct__ops_8cpp.html" target="_top" xlink:title=" ">
<polygon fill="white" stroke="black" points="1437,-0.5 1437,-19.5 1549,-19.5 1549,-0.5 1437,-0.5"/>
<text text-anchor="middle" x="1493" y="-7.5" font-family="Helvetica,sans-Serif" font-size="10.00">uniform_ct_ops.cpp</text>
</a>
</g>
</g>
<!-- Node12&#45;&gt;Node25 -->
<g id="edge51" class="edge">
<title>Node12&#45;&gt;Node25</title>
<path fill="none" stroke="midnightblue" d="M915.3,-231.5C1021.51,-227.61 1279.89,-215.56 1362,-188 1406.66,-173.01 1422.73,-168.91 1452,-132 1480.11,-96.55 1489.46,-40.76 1492.09,-19.56"/>
<polygon fill="midnightblue" stroke="midnightblue" points="915.07,-228 905.2,-231.86 915.32,-235 915.07,-228"/>
</g>
<!-- Node31 -->
<g id="node31" class="node">
<title>Node31</title>
<g id="a_node31"><a xlink:href="wing__ops_8_h.html" target="_top" xlink:title=" ">
<polygon fill="white" stroke="black" points="865.5,-112.5 865.5,-131.5 938.5,-131.5 938.5,-112.5 865.5,-112.5"/>
<text text-anchor="middle" x="902" y="-119.5" font-family="Helvetica,sans-Serif" font-size="10.00">wing_ops.H</text>
</a>
</g>
</g>
<!-- Node12&#45;&gt;Node31 -->
<g id="edge55" class="edge">
<title>Node12&#45;&gt;Node31</title>
<path fill="none" stroke="midnightblue" d="M874.5,-214.67C881.71,-190.62 894.08,-149.39 899.42,-131.59"/>
<polygon fill="midnightblue" stroke="midnightblue" points="871.11,-213.78 871.59,-224.37 877.82,-215.8 871.11,-213.78"/>
</g>
<!-- Node33 -->
<g id="node33" class="node">
<title>Node33</title>
<g id="a_node33"><a xlink:href="wing__ops_8cpp.html" target="_top" xlink:title=" ">
<polygon fill="white" stroke="black" points="792.5,-56.5 792.5,-75.5 875.5,-75.5 875.5,-56.5 792.5,-56.5"/>
<text text-anchor="middle" x="834" y="-63.5" font-family="Helvetica,sans-Serif" font-size="10.00">wing_ops.cpp</text>
</a>
</g>
</g>
<!-- Node12&#45;&gt;Node33 -->
<g id="edge56" class="edge">
<title>Node12&#45;&gt;Node33</title>
<path fill="none" stroke="midnightblue" d="M864.98,-213.93C857.39,-177.92 841.22,-101.23 835.81,-75.57"/>
<polygon fill="midnightblue" stroke="midnightblue" points="861.63,-215.01 867.12,-224.08 868.48,-213.57 861.63,-215.01"/>
</g>
<!-- Node34 -->
<g id="node34" class="node">
<title>Node34</title>
<g id="a_node34"><a xlink:href="turbine__utils_8_h.html" target="_top" xlink:title=" ">
<polygon fill="white" stroke="black" points="711,-168.5 711,-187.5 799,-187.5 799,-168.5 711,-168.5"/>
<text text-anchor="middle" x="755" y="-175.5" font-family="Helvetica,sans-Serif" font-size="10.00">turbine_utils.H</text>
</a>
</g>
</g>
<!-- Node12&#45;&gt;Node34 -->
<g id="edge52" class="edge">
<title>Node12&#45;&gt;Node34</title>
<path fill="none" stroke="midnightblue" d="M841.76,-220.1C820.46,-210.01 791.46,-196.27 772.98,-187.52"/>
<polygon fill="midnightblue" stroke="midnightblue" points="840.4,-223.33 850.94,-224.44 843.4,-217 840.4,-223.33"/>
</g>
<!-- Node14 -->
<g id="node14" class="node">
<title>Node14</title>
<g id="a_node14"><a xlink:href="_act_src_line_op_8_h.html" target="_top" xlink:title=" ">
<polygon fill="white" stroke="black" points="1071,-112.5 1071,-131.5 1163,-131.5 1163,-112.5 1071,-112.5"/>
<text text-anchor="middle" x="1117" y="-119.5" font-family="Helvetica,sans-Serif" font-size="10.00">ActSrcLineOp.H</text>
</a>
</g>
</g>
<!-- Node13&#45;&gt;Node14 -->
<g id="edge18" class="edge">
<title>Node13&#45;&gt;Node14</title>
<path fill="none" stroke="midnightblue" d="M1047.81,-163.18C1064.92,-153.24 1087.47,-140.15 1102.1,-131.65"/>
<polygon fill="midnightblue" stroke="midnightblue" points="1045.83,-160.28 1038.94,-168.32 1049.35,-166.33 1045.83,-160.28"/>
</g>
<!-- Node13&#45;&gt;Node15 -->
<g id="edge25" class="edge">
<title>Node13&#45;&gt;Node15</title>
<path fill="none" stroke="midnightblue" d="M1030.74,-158.81C1036.92,-144.39 1047.33,-124.62 1062,-112 1083.21,-93.75 1112.74,-82.34 1136.29,-75.57"/>
<polygon fill="midnightblue" stroke="midnightblue" points="1027.46,-157.6 1027,-168.19 1033.96,-160.2 1027.46,-157.6"/>
</g>
<!-- Node21 -->
<g id="node21" class="node">
<title>Node21</title>
<g id="a_node21"><a xlink:href="_act_src_disk_op___turbine_8_h.html" target="_top" xlink:title=" ">
<polygon fill="white" stroke="black" points="1181,-112.5 1181,-131.5 1315,-131.5 1315,-112.5 1181,-112.5"/>
<text text-anchor="middle" x="1248" y="-119.5" font-family="Helvetica,sans-Serif" font-size="10.00">ActSrcDiskOp_Turbine.H</text>
</a>
</g>
</g>
<!-- Node13&#45;&gt;Node21 -->
<g id="edge26" class="edge">
<title>Node13&#45;&gt;Node21</title>
<path fill="none" stroke="midnightblue" d="M1069.26,-166.09C1111.58,-155.89 1173.91,-140.86 1212.67,-131.52"/>
<polygon fill="midnightblue" stroke="midnightblue" points="1068.39,-162.7 1059.49,-168.44 1070.04,-169.5 1068.39,-162.7"/>
</g>
<!-- Node22 -->
<g id="node22" class="node">
<title>Node22</title>
<g id="a_node22"><a xlink:href="_act_src_disk_op_8_h.html" target="_top" xlink:title=" ">
<polygon fill="white" stroke="black" points="1333.5,-112.5 1333.5,-131.5 1426.5,-131.5 1426.5,-112.5 1333.5,-112.5"/>
<text text-anchor="middle" x="1380" y="-119.5" font-family="Helvetica,sans-Serif" font-size="10.00">ActSrcDiskOp.H</text>
</a>
</g>
</g>
<!-- Node13&#45;&gt;Node22 -->
<g id="edge28" class="edge">
<title>Node13&#45;&gt;Node22</title>
<path fill="none" stroke="midnightblue" d="M1079.05,-168.92C1139.24,-160.04 1238.52,-145.28 1324,-132 1327.02,-131.53 1330.12,-131.04 1333.25,-130.55"/>
<polygon fill="midnightblue" stroke="midnightblue" points="1078.39,-165.48 1069,-170.4 1079.41,-172.4 1078.39,-165.48"/>
</g>
<!-- Node23 -->
<g id="node23" class="node">
<title>Node23</title>
<g id="a_node23"><a xlink:href="disk__ops_8_h.html" target="_top" xlink:title=" ">
<polygon fill="white" stroke="black" points="1646,-112.5 1646,-131.5 1716,-131.5 1716,-112.5 1646,-112.5"/>
<text text-anchor="middle" x="1681" y="-119.5" font-family="Helvetica,sans-Serif" font-size="10.00">disk_ops.H</text>
</a>
</g>
</g>
<!-- Node13&#45;&gt;Node23 -->
<g id="edge30" class="edge">
<title>Node13&#45;&gt;Node23</title>
<path fill="none" stroke="midnightblue" d="M1079.39,-172.45C1210.69,-161.66 1537.94,-134.76 1645.86,-125.89"/>
<polygon fill="midnightblue" stroke="midnightblue" points="1078.84,-168.98 1069.16,-173.29 1079.41,-175.96 1078.84,-168.98"/>
</g>
<!-- Node29 -->
<g id="node29" class="node">
<title>Node29</title>
<g id="a_node29"><a xlink:href="turbine__fast__ops_8_h.html" target="_top" xlink:title=" ">
<polygon fill="white" stroke="black" points="701,-112.5 701,-131.5 809,-131.5 809,-112.5 701,-112.5"/>
<text text-anchor="middle" x="755" y="-119.5" font-family="Helvetica,sans-Serif" font-size="10.00">turbine_fast_ops.H</text>
</a>
</g>
</g>
<!-- Node13&#45;&gt;Node29 -->
<g id="edge39" class="edge">
<title>Node13&#45;&gt;Node29</title>
<path fill="none" stroke="midnightblue" d="M971.56,-166.47C920.72,-156.27 844.56,-140.98 797.42,-131.52"/>
<polygon fill="midnightblue" stroke="midnightblue" points="970.88,-169.91 981.38,-168.44 972.26,-163.04 970.88,-169.91"/>
</g>
<!-- Node30 -->
<g id="node30" class="node">
<title>Node30</title>
<g id="a_node30"><a xlink:href="fixed__wing__ops_8_h.html" target="_top" xlink:title=" ">
<polygon fill="white" stroke="black" points="893.5,-56.5 893.5,-75.5 994.5,-75.5 994.5,-56.5 893.5,-56.5"/>
<text text-anchor="middle" x="944" y="-63.5" font-family="Helvetica,sans-Serif" font-size="10.00">fixed_wing_ops.H</text>
</a>
</g>
</g>
<!-- Node13&#45;&gt;Node30 -->
<g id="edge41" class="edge">
<title>Node13&#45;&gt;Node30</title>
<path fill="none" stroke="midnightblue" d="M1011.83,-160.27C994.54,-136.49 963.48,-93.79 950.25,-75.59"/>
<polygon fill="midnightblue" stroke="midnightblue" points="1009.01,-162.34 1017.72,-168.37 1014.67,-158.22 1009.01,-162.34"/>
</g>
<!-- Node13&#45;&gt;Node31 -->
<g id="edge43" class="edge">
<title>Node13&#45;&gt;Node31</title>
<path fill="none" stroke="midnightblue" d="M995.46,-164.37C972.61,-154.26 941.19,-140.35 921.24,-131.52"/>
<polygon fill="midnightblue" stroke="midnightblue" points="994.11,-167.6 1004.67,-168.44 996.94,-161.2 994.11,-167.6"/>
</g>
<!-- Node32 -->
<g id="node32" class="node">
<title>Node32</title>
<g id="a_node32"><a xlink:href="flat__plate__ops_8_h.html" target="_top" xlink:title=" ">
<polygon fill="white" stroke="black" points="1012.5,-56.5 1012.5,-75.5 1107.5,-75.5 1107.5,-56.5 1012.5,-56.5"/>
<text text-anchor="middle" x="1060" y="-63.5" font-family="Helvetica,sans-Serif" font-size="10.00">flat_plate_ops.H</text>
</a>
</g>
</g>
<!-- Node13&#45;&gt;Node32 -->
<g id="edge48" class="edge">
<title>Node13&#45;&gt;Node32</title>
<path fill="none" stroke="midnightblue" d="M1022.89,-158.04C1022.73,-144.78 1023.75,-126.85 1029,-112 1034,-97.87 1044.64,-84.04 1052.05,-75.52"/>
<polygon fill="midnightblue" stroke="midnightblue" points="1019.4,-158.43 1023.26,-168.29 1026.4,-158.17 1019.4,-158.43"/>
</g>
<!-- Node14&#45;&gt;Node15 -->
<g id="edge19" class="edge">
<title>Node14&#45;&gt;Node15</title>
<path fill="none" stroke="midnightblue" d="M1133.91,-105.25C1144.2,-95.67 1156.97,-83.79 1165.51,-75.83"/>
<polygon fill="midnightblue" stroke="midnightblue" points="1131.25,-102.95 1126.32,-112.32 1136.02,-108.07 1131.25,-102.95"/>
</g>
<!-- Node15&#45;&gt;Node16 -->
<g id="edge20" class="edge">
<title>Node15&#45;&gt;Node16</title>
<path fill="none" stroke="midnightblue" d="M1115.77,-56.06C923.42,-33.6 707.17,-18.84 620.62,-13.36"/>
<polygon fill="midnightblue" stroke="midnightblue" points="1115.44,-59.55 1125.78,-57.24 1116.26,-52.59 1115.44,-59.55"/>
</g>
<!-- Node17 -->
<g id="node17" class="node">
<title>Node17</title>
<g id="a_node17"><a xlink:href="_actuator_disk_8cpp.html" target="_top" xlink:title=" ">
<polygon fill="white" stroke="black" points="1567,-0.5 1567,-19.5 1667,-19.5 1667,-0.5 1567,-0.5"/>
<text text-anchor="middle" x="1617" y="-7.5" font-family="Helvetica,sans-Serif" font-size="10.00">ActuatorDisk.cpp</text>
</a>
</g>
</g>
<!-- Node15&#45;&gt;Node17 -->
<g id="edge21" class="edge">
<title>Node15&#45;&gt;Node17</title>
<path fill="none" stroke="midnightblue" d="M1234.27,-58.68C1309.61,-50.49 1443.62,-35.44 1558,-20 1560.88,-19.61 1563.83,-19.2 1566.8,-18.78"/>
<polygon fill="midnightblue" stroke="midnightblue" points="1233.6,-55.23 1224.04,-59.78 1234.36,-62.19 1233.6,-55.23"/>
</g>
<!-- Node18 -->
<g id="node18" class="node">
<title>Node18</title>
<g id="a_node18"><a xlink:href="_turbine_fast_8cpp.html" target="_top" xlink:title=" ">
<polygon fill="white" stroke="black" points="787,-0.5 787,-19.5 879,-19.5 879,-0.5 787,-0.5"/>
<text text-anchor="middle" x="833" y="-7.5" font-family="Helvetica,sans-Serif" font-size="10.00">TurbineFast.cpp</text>
</a>
</g>
</g>
<!-- Node15&#45;&gt;Node18 -->
<g id="edge22" class="edge">
<title>Node15&#45;&gt;Node18</title>
<path fill="none" stroke="midnightblue" d="M1115.99,-55.68C1048.82,-45.08 940.48,-27.97 879.17,-18.29"/>
<polygon fill="midnightblue" stroke="midnightblue" points="1115.58,-59.16 1126,-57.26 1116.67,-52.25 1115.58,-59.16"/>
</g>
<!-- Node19 -->
<g id="node19" class="node">
<title>Node19</title>
<g id="a_node19"><a xlink:href="_fixed_wing_8cpp.html" target="_top" xlink:title=" ">
<polygon fill="white" stroke="black" points="971.5,-0.5 971.5,-19.5 1058.5,-19.5 1058.5,-0.5 971.5,-0.5"/>
<text text-anchor="middle" x="1015" y="-7.5" font-family="Helvetica,sans-Serif" font-size="10.00">FixedWing.cpp</text>
</a>
</g>
</g>
<!-- Node15&#45;&gt;Node19 -->
<g id="edge23" class="edge">
<title>Node15&#45;&gt;Node19</title>
<path fill="none" stroke="midnightblue" d="M1139.95,-53.17C1109.83,-43 1067.1,-28.59 1040.23,-19.52"/>
<polygon fill="midnightblue" stroke="midnightblue" points="1139.05,-56.56 1149.65,-56.44 1141.29,-49.93 1139.05,-56.56"/>
</g>
<!-- Node20 -->
<g id="node20" class="node">
<title>Node20</title>
<g id="a_node20"><a xlink:href="_flat_plate_8cpp.html" target="_top" xlink:title=" ">
<polygon fill="white" stroke="black" points="1114,-0.5 1114,-19.5 1194,-19.5 1194,-0.5 1114,-0.5"/>
<text text-anchor="middle" x="1154" y="-7.5" font-family="Helvetica,sans-Serif" font-size="10.00">FlatPlate.cpp</text>
</a>
</g>
</g>
<!-- Node15&#45;&gt;Node20 -->
<g id="edge24" class="edge">
<title>Node15&#45;&gt;Node20</title>
<path fill="none" stroke="midnightblue" d="M1167.88,-46.69C1164.34,-37.59 1160.23,-27.01 1157.4,-19.75"/>
<polygon fill="midnightblue" stroke="midnightblue" points="1164.65,-48.03 1171.53,-56.08 1171.17,-45.49 1164.65,-48.03"/>
</g>
<!-- Node21&#45;&gt;Node15 -->
<g id="edge27" class="edge">
<title>Node21&#45;&gt;Node15</title>
<path fill="none" stroke="midnightblue" d="M1227.86,-106.1C1214.72,-96.38 1198.02,-84.03 1186.94,-75.83"/>
<polygon fill="midnightblue" stroke="midnightblue" points="1226.15,-109.19 1236.27,-112.32 1230.31,-103.56 1226.15,-109.19"/>
</g>
<!-- Node22&#45;&gt;Node15 -->
<g id="edge29" class="edge">
<title>Node22&#45;&gt;Node15</title>
<path fill="none" stroke="midnightblue" d="M1337.59,-109.83C1298.89,-99.63 1242.51,-84.78 1207.33,-75.52"/>
<polygon fill="midnightblue" stroke="midnightblue" points="1336.96,-113.28 1347.52,-112.44 1338.74,-106.51 1336.96,-113.28"/>
</g>
<!-- Node24 -->
<g id="node24" class="node">
<title>Node24</title>
<g id="a_node24"><a xlink:href="uniform__ct__ops_8_h.html" target="_top" xlink:title=" ">
<polygon fill="white" stroke="black" points="1521,-56.5 1521,-75.5 1623,-75.5 1623,-56.5 1521,-56.5"/>
<text text-anchor="middle" x="1572" y="-63.5" font-family="Helvetica,sans-Serif" font-size="10.00">uniform_ct_ops.H</text>
</a>
</g>
</g>
<!-- Node23&#45;&gt;Node24 -->
<g id="edge31" class="edge">
<title>Node23&#45;&gt;Node24</title>
<path fill="none" stroke="midnightblue" d="M1654.48,-107.86C1634.27,-97.85 1607.01,-84.35 1589.47,-75.65"/>
<polygon fill="midnightblue" stroke="midnightblue" points="1652.97,-111.02 1663.49,-112.32 1656.08,-104.75 1652.97,-111.02"/>
</g>
<!-- Node26 -->
<g id="node26" class="node">
<title>Node26</title>
<g id="a_node26"><a xlink:href="_joukowsky__ops_8_h.html" target="_top" xlink:title=" ">
<polygon fill="white" stroke="black" points="1739.5,-56.5 1739.5,-75.5 1840.5,-75.5 1840.5,-56.5 1739.5,-56.5"/>
<text text-anchor="middle" x="1790" y="-63.5" font-family="Helvetica,sans-Serif" font-size="10.00">Joukowsky_ops.H</text>
</a>
</g>
</g>
<!-- Node23&#45;&gt;Node26 -->
<g id="edge34" class="edge">
<title>Node23&#45;&gt;Node26</title>
<path fill="none" stroke="midnightblue" d="M1707.52,-107.86C1727.73,-97.85 1754.99,-84.35 1772.53,-75.65"/>
<polygon fill="midnightblue" stroke="midnightblue" points="1705.92,-104.75 1698.51,-112.32 1709.03,-111.02 1705.92,-104.75"/>
</g>
<!-- Node27 -->
<g id="node27" class="node">
<title>Node27</title>
<g id="a_node27"><a xlink:href="_joukowsky__ops_8cpp.html" target="_top" xlink:title=" ">
<polygon fill="white" stroke="black" points="1774,-0.5 1774,-19.5 1884,-19.5 1884,-0.5 1774,-0.5"/>
<text text-anchor="middle" x="1829" y="-7.5" font-family="Helvetica,sans-Serif" font-size="10.00">Joukowsky_ops.cpp</text>
</a>
</g>
</g>
<!-- Node23&#45;&gt;Node27 -->
<g id="edge38" class="edge">
<title>Node23&#45;&gt;Node27</title>
<path fill="none" stroke="midnightblue" d="M1726.27,-115.19C1771.04,-108.4 1834.98,-95.54 1850,-76 1863.15,-58.89 1846.99,-33.25 1836.55,-19.86"/>
<polygon fill="midnightblue" stroke="midnightblue" points="1725.58,-111.75 1716.19,-116.66 1726.59,-118.68 1725.58,-111.75"/>
</g>
<!-- Node28 -->
<g id="node28" class="node">
<title>Node28</title>
<g id="a_node28"><a xlink:href="disk__ops_8cpp.html" target="_top" xlink:title=" ">
<polygon fill="white" stroke="black" points="1641,-56.5 1641,-75.5 1721,-75.5 1721,-56.5 1641,-56.5"/>
<text text-anchor="middle" x="1681" y="-63.5" font-family="Helvetica,sans-Serif" font-size="10.00">disk_ops.cpp</text>
</a>
</g>
</g>
<!-- Node23&#45;&gt;Node28 -->
<g id="edge37" class="edge">
<title>Node23&#45;&gt;Node28</title>
<path fill="none" stroke="midnightblue" d="M1681,-101.8C1681,-92.91 1681,-82.78 1681,-75.75"/>
<polygon fill="midnightblue" stroke="midnightblue" points="1677.5,-102.08 1681,-112.08 1684.5,-102.08 1677.5,-102.08"/>
</g>
<!-- Node24&#45;&gt;Node17 -->
<g id="edge32" class="edge">
<title>Node24&#45;&gt;Node17</title>
<path fill="none" stroke="midnightblue" d="M1586.05,-48.14C1593.89,-38.74 1603.33,-27.4 1609.71,-19.75"/>
<polygon fill="midnightblue" stroke="midnightblue" points="1583.14,-46.16 1579.43,-56.08 1588.52,-50.64 1583.14,-46.16"/>
</g>
<!-- Node24&#45;&gt;Node25 -->
<g id="edge33" class="edge">
<title>Node24&#45;&gt;Node25</title>
<path fill="none" stroke="midnightblue" d="M1550.97,-50.62C1536.53,-40.76 1517.86,-27.99 1505.66,-19.65"/>
<polygon fill="midnightblue" stroke="midnightblue" points="1549.08,-53.57 1559.31,-56.32 1553.03,-47.79 1549.08,-53.57"/>
</g>
<!-- Node26&#45;&gt;Node17 -->
<g id="edge35" class="edge">
<title>Node26&#45;&gt;Node17</title>
<path fill="none" stroke="midnightblue" d="M1752.95,-53.44C1720.34,-43.26 1673.59,-28.66 1644.28,-19.52"/>
<polygon fill="midnightblue" stroke="midnightblue" points="1752,-56.8 1762.59,-56.44 1754.08,-50.12 1752,-56.8"/>
</g>
<!-- Node26&#45;&gt;Node27 -->
<g id="edge36" class="edge">
<title>Node26&#45;&gt;Node27</title>
<path fill="none" stroke="midnightblue" d="M1802.38,-47.86C1809.14,-38.5 1817.21,-27.33 1822.68,-19.75"/>
<polygon fill="midnightblue" stroke="midnightblue" points="1799.46,-45.93 1796.44,-56.08 1805.13,-50.03 1799.46,-45.93"/>
</g>
<!-- Node29&#45;&gt;Node18 -->
<g id="edge40" class="edge">
<title>Node29&#45;&gt;Node18</title>
<path fill="none" stroke="midnightblue" d="M760.5,-102.71C765.16,-89.04 772.71,-70.34 783,-56 793.48,-41.39 809.45,-28.07 820.51,-19.78"/>
<polygon fill="midnightblue" stroke="midnightblue" points="757.12,-101.81 757.4,-112.4 763.78,-103.95 757.12,-101.81"/>
</g>
<!-- Node30&#45;&gt;Node19 -->
<g id="edge42" class="edge">
<title>Node30&#45;&gt;Node19</title>
<path fill="none" stroke="midnightblue" d="M963.59,-50.1C976.37,-40.38 992.61,-28.03 1003.39,-19.83"/>
<polygon fill="midnightblue" stroke="midnightblue" points="961.25,-47.48 955.41,-56.32 965.49,-53.06 961.25,-47.48"/>
</g>
<!-- Node31&#45;&gt;Node30 -->
<g id="edge44" class="edge">
<title>Node31&#45;&gt;Node30</title>
<path fill="none" stroke="midnightblue" d="M915.11,-104.14C922.43,-94.74 931.24,-83.4 937.19,-75.75"/>
<polygon fill="midnightblue" stroke="midnightblue" points="912.31,-102.04 908.94,-112.08 917.84,-106.34 912.31,-102.04"/>
</g>
<!-- Node31&#45;&gt;Node32 -->
<g id="edge45" class="edge">
<title>Node31&#45;&gt;Node32</title>
<path fill="none" stroke="midnightblue" d="M936.61,-109.17C966.36,-99 1008.55,-84.59 1035.08,-75.52"/>
<polygon fill="midnightblue" stroke="midnightblue" points="935.37,-105.9 927.04,-112.44 937.63,-112.52 935.37,-105.9"/>
</g>
<!-- Node31&#45;&gt;Node33 -->
<g id="edge47" class="edge">
<title>Node31&#45;&gt;Node33</title>
<path fill="none" stroke="midnightblue" d="M883.24,-106.1C871,-96.38 855.44,-84.03 845.12,-75.83"/>
<polygon fill="midnightblue" stroke="midnightblue" points="881.07,-108.85 891.07,-112.32 885.42,-103.36 881.07,-108.85"/>
</g>
<!-- Node32&#45;&gt;Node20 -->
<g id="edge46" class="edge">
<title>Node32&#45;&gt;Node20</title>
<path fill="none" stroke="midnightblue" d="M1084.06,-51.18C1101.36,-41.24 1124.15,-28.15 1138.93,-19.65"/>
<polygon fill="midnightblue" stroke="midnightblue" points="1082.03,-48.31 1075.1,-56.32 1085.52,-54.38 1082.03,-48.31"/>
</g>
<!-- Node34&#45;&gt;Node29 -->
<g id="edge53" class="edge">
<title>Node34&#45;&gt;Node29</title>
<path fill="none" stroke="midnightblue" d="M755,-157.8C755,-148.91 755,-138.78 755,-131.75"/>
<polygon fill="midnightblue" stroke="midnightblue" points="751.5,-158.08 755,-168.08 758.5,-158.08 751.5,-158.08"/>
</g>
<!-- Node35 -->
<g id="node35" class="node">
<title>Node35</title>
<g id="a_node35"><a xlink:href="turbine__utils_8cpp.html" target="_top" xlink:title=" ">
<polygon fill="white" stroke="black" points="585,-112.5 585,-131.5 683,-131.5 683,-112.5 585,-112.5"/>
<text text-anchor="middle" x="634" y="-119.5" font-family="Helvetica,sans-Serif" font-size="10.00">turbine_utils.cpp</text>
</a>
</g>
</g>
<!-- Node34&#45;&gt;Node35 -->
<g id="edge54" class="edge">
<title>Node34&#45;&gt;Node35</title>
<path fill="none" stroke="midnightblue" d="M726.69,-164.37C704.03,-154.26 672.87,-140.35 653.08,-131.52"/>
<polygon fill="midnightblue" stroke="midnightblue" points="725.27,-167.56 735.83,-168.44 728.12,-161.17 725.27,-167.56"/>
</g>
</g>
</svg>
