<?xml version="1.0" encoding="UTF-8" standalone="no"?>
<!DOCTYPE svg PUBLIC "-//W3C//DTD SVG 1.1//EN"
 "http://www.w3.org/Graphics/SVG/1.1/DTD/svg11.dtd">
<!-- Generated by graphviz version 2.43.0 (0)
 -->
<!-- Title: NWB.cpp Pages: 1 -->
<svg width="2820pt" height="341pt"
 viewBox="0.00 0.00 2820.00 341.00" xmlns="http://www.w3.org/2000/svg" xmlns:xlink="http://www.w3.org/1999/xlink">
<g id="graph0" class="graph" transform="scale(1 1) rotate(0) translate(4 337)">
<title>NWB.cpp</title>
<polygon fill="white" stroke="transparent" points="-4,4 -4,-337 2816,-337 2816,4 -4,4"/>
<!-- Node1 -->
<g id="node1" class="node">
<title>Node1</title>
<g id="a_node1"><a xlink:title=" ">
<polygon fill="#bfbfbf" stroke="black" points="679,-313.5 679,-332.5 740,-332.5 740,-313.5 679,-313.5"/>
<text text-anchor="middle" x="709.5" y="-320.5" font-family="Helvetica,sans-Serif" font-size="10.00">NWB.cpp</text>
</a>
</g>
</g>
<!-- Node2 -->
<g id="node2" class="node">
<title>Node2</title>
<g id="a_node2"><a xlink:href="_multi_phase_8_h.html" target="_top" xlink:title=" ">
<polygon fill="white" stroke="black" points="629,-246.5 629,-276.5 790,-276.5 790,-246.5 629,-246.5"/>
<text text-anchor="start" x="637" y="-264.5" font-family="Helvetica,sans-Serif" font-size="10.00">amr&#45;wind/physics/multiphase</text>
<text text-anchor="middle" x="709.5" y="-253.5" font-family="Helvetica,sans-Serif" font-size="10.00">/MultiPhase.H</text>
</a>
</g>
</g>
<!-- Node1&#45;&gt;Node2 -->
<g id="edge1" class="edge">
<title>Node1&#45;&gt;Node2</title>
<path fill="none" stroke="midnightblue" d="M709.5,-313.48C709.5,-306.47 709.5,-296.19 709.5,-286.7"/>
<polygon fill="midnightblue" stroke="midnightblue" points="713,-286.52 709.5,-276.52 706,-286.52 713,-286.52"/>
</g>
<!-- Node22 -->
<g id="node22" class="node">
<title>Node22</title>
<g id="a_node22"><a xlink:href="_n_w_b_8_h.html" target="_top" xlink:title=" ">
<polygon fill="white" stroke="black" points="450,-246.5 450,-276.5 611,-276.5 611,-246.5 450,-246.5"/>
<text text-anchor="start" x="458" y="-264.5" font-family="Helvetica,sans-Serif" font-size="10.00">amr&#45;wind/physics/multiphase</text>
<text text-anchor="middle" x="530.5" y="-253.5" font-family="Helvetica,sans-Serif" font-size="10.00">/wave_basin/NWB.H</text>
</a>
</g>
</g>
<!-- Node1&#45;&gt;Node22 -->
<g id="edge31" class="edge">
<title>Node1&#45;&gt;Node22</title>
<path fill="none" stroke="midnightblue" d="M683.85,-313.48C657.46,-304.7 615.6,-290.79 582.28,-279.71"/>
<polygon fill="midnightblue" stroke="midnightblue" points="583.28,-276.36 572.69,-276.52 581.07,-283 583.28,-276.36"/>
</g>
<!-- Node27 -->
<g id="node27" class="node">
<title>Node27</title>
<g id="a_node27"><a xlink:href="trig__ops_8_h.html" target="_top" xlink:title=" ">
<polygon fill="white" stroke="black" points="61,-179.5 61,-209.5 164,-209.5 164,-179.5 61,-179.5"/>
<text text-anchor="start" x="69" y="-197.5" font-family="Helvetica,sans-Serif" font-size="10.00">amr&#45;wind/utilities</text>
<text text-anchor="middle" x="112.5" y="-186.5" font-family="Helvetica,sans-Serif" font-size="10.00">/trig_ops.H</text>
</a>
</g>
</g>
<!-- Node1&#45;&gt;Node27 -->
<g id="edge37" class="edge">
<title>Node1&#45;&gt;Node27</title>
<path fill="none" stroke="midnightblue" d="M678.7,-317.64C628.56,-310.37 526.27,-294.8 440.5,-277 346.64,-257.52 239.01,-229.71 173.4,-212.14"/>
<polygon fill="midnightblue" stroke="midnightblue" points="174.2,-208.73 163.63,-209.52 172.38,-215.49 174.2,-208.73"/>
</g>
<!-- Node29 -->
<g id="node29" class="node">
<title>Node29</title>
<g id="a_node29"><a xlink:href="_c_f_d_sim_8_h.html" target="_top" xlink:title=" ">
<polygon fill="white" stroke="black" points="808.5,-252 808.5,-271 924.5,-271 924.5,-252 808.5,-252"/>
<text text-anchor="middle" x="866.5" y="-259" font-family="Helvetica,sans-Serif" font-size="10.00">amr&#45;wind/CFDSim.H</text>
</a>
</g>
</g>
<!-- Node1&#45;&gt;Node29 -->
<g id="edge41" class="edge">
<title>Node1&#45;&gt;Node29</title>
<path fill="none" stroke="midnightblue" d="M731.99,-313.48C758.81,-303.31 803.82,-286.26 834.31,-274.7"/>
<polygon fill="midnightblue" stroke="midnightblue" points="835.94,-277.83 844.05,-271.01 833.46,-271.28 835.94,-277.83"/>
</g>
<!-- Node43 -->
<g id="node43" class="node">
<title>Node43</title>
<g id="a_node43"><a xlink:title=" ">
<polygon fill="white" stroke="#bfbfbf" points="943,-252 943,-271 1062,-271 1062,-252 943,-252"/>
<text text-anchor="middle" x="1002.5" y="-259" font-family="Helvetica,sans-Serif" font-size="10.00">AMReX_ParmParse.H</text>
</a>
</g>
</g>
<!-- Node1&#45;&gt;Node43 -->
<g id="edge83" class="edge">
<title>Node1&#45;&gt;Node43</title>
<path fill="none" stroke="midnightblue" d="M740.32,-315.9C783.52,-307.33 864.53,-291.17 933.5,-277 939.56,-275.75 945.91,-274.44 952.21,-273.12"/>
<polygon fill="midnightblue" stroke="midnightblue" points="952.94,-276.55 962.01,-271.07 951.51,-269.69 952.94,-276.55"/>
</g>
<!-- Node3 -->
<g id="node3" class="node">
<title>Node3</title>
<g id="a_node3"><a xlink:href="_physics_8_h.html" target="_top" xlink:title=" ">
<polygon fill="white" stroke="black" points="637,-185 637,-204 774,-204 774,-185 637,-185"/>
<text text-anchor="middle" x="705.5" y="-192" font-family="Helvetica,sans-Serif" font-size="10.00">amr&#45;wind/core/Physics.H</text>
</a>
</g>
</g>
<!-- Node2&#45;&gt;Node3 -->
<g id="edge2" class="edge">
<title>Node2&#45;&gt;Node3</title>
<path fill="none" stroke="midnightblue" d="M708.63,-246.4C708.05,-236.96 707.28,-224.45 706.65,-214.19"/>
<polygon fill="midnightblue" stroke="midnightblue" points="710.14,-213.96 706.04,-204.19 703.16,-214.39 710.14,-213.96"/>
</g>
<!-- Node15 -->
<g id="node15" class="node">
<title>Node15</title>
<g id="a_node15"><a xlink:href="_field_8_h.html" target="_top" xlink:title=" ">
<polygon fill="white" stroke="black" points="1183.5,-118 1183.5,-137 1307.5,-137 1307.5,-118 1183.5,-118"/>
<text text-anchor="middle" x="1245.5" y="-125" font-family="Helvetica,sans-Serif" font-size="10.00">amr&#45;wind/core/Field.H</text>
</a>
</g>
</g>
<!-- Node2&#45;&gt;Node15 -->
<g id="edge16" class="edge">
<title>Node2&#45;&gt;Node15</title>
<path fill="none" stroke="midnightblue" d="M781.96,-246.46C829.72,-236.91 893.54,-223.58 949.5,-210 1042.39,-187.46 1150.4,-156.5 1206.76,-139.98"/>
<polygon fill="midnightblue" stroke="midnightblue" points="1208.06,-143.25 1216.66,-137.07 1206.08,-136.54 1208.06,-143.25"/>
</g>
<!-- Node4 -->
<g id="node4" class="node">
<title>Node4</title>
<g id="a_node4"><a xlink:href="_factory_8_h.html" target="_top" xlink:title=" ">
<polygon fill="white" stroke="black" points="671.5,-118 671.5,-137 805.5,-137 805.5,-118 671.5,-118"/>
<text text-anchor="middle" x="738.5" y="-125" font-family="Helvetica,sans-Serif" font-size="10.00">amr&#45;wind/core/Factory.H</text>
</a>
</g>
</g>
<!-- Node3&#45;&gt;Node4 -->
<g id="edge3" class="edge">
<title>Node3&#45;&gt;Node4</title>
<path fill="none" stroke="midnightblue" d="M709.95,-184.73C714.95,-174.89 723.19,-158.66 729.53,-146.16"/>
<polygon fill="midnightblue" stroke="midnightblue" points="732.71,-147.63 734.12,-137.13 726.47,-144.46 732.71,-147.63"/>
</g>
<!-- Node10 -->
<g id="node10" class="node">
<title>Node10</title>
<g id="a_node10"><a xlink:href="_coll_mgr_8_h.html" target="_top" xlink:title=" ">
<polygon fill="white" stroke="black" points="862,-118 862,-137 999,-137 999,-118 862,-118"/>
<text text-anchor="middle" x="930.5" y="-125" font-family="Helvetica,sans-Serif" font-size="10.00">amr&#45;wind/core/CollMgr.H</text>
</a>
</g>
</g>
<!-- Node3&#45;&gt;Node10 -->
<g id="edge9" class="edge">
<title>Node3&#45;&gt;Node10</title>
<path fill="none" stroke="midnightblue" d="M735.38,-184.87C775.41,-173.3 846.56,-152.75 890.99,-139.91"/>
<polygon fill="midnightblue" stroke="midnightblue" points="892.22,-143.2 900.86,-137.06 890.28,-136.48 892.22,-143.2"/>
</g>
<!-- Node13 -->
<g id="node13" class="node">
<title>Node13</title>
<g id="a_node13"><a xlink:title=" ">
<polygon fill="white" stroke="#bfbfbf" points="1323,-0.5 1323,-19.5 1432,-19.5 1432,-0.5 1323,-0.5"/>
<text text-anchor="middle" x="1377.5" y="-7.5" font-family="Helvetica,sans-Serif" font-size="10.00">AMReX_MultiFab.H</text>
</a>
</g>
</g>
<!-- Node3&#45;&gt;Node13 -->
<g id="edge14" class="edge">
<title>Node3&#45;&gt;Node13</title>
<path fill="none" stroke="midnightblue" d="M636.86,-190.74C599.71,-185.57 555.93,-172.91 528.5,-143 502.07,-114.19 488.59,-84.36 515.5,-56 542.87,-27.17 1117.15,-15.22 1312.85,-11.97"/>
<polygon fill="midnightblue" stroke="midnightblue" points="1313.04,-15.47 1322.98,-11.8 1312.93,-8.47 1313.04,-15.47"/>
</g>
<!-- Node14 -->
<g id="node14" class="node">
<title>Node14</title>
<g id="a_node14"><a xlink:title=" ">
<polygon fill="white" stroke="#bfbfbf" points="538,-118 538,-137 653,-137 653,-118 538,-118"/>
<text text-anchor="middle" x="595.5" y="-125" font-family="Helvetica,sans-Serif" font-size="10.00">AMReX_Geometry.H</text>
</a>
</g>
</g>
<!-- Node3&#45;&gt;Node14 -->
<g id="edge15" class="edge">
<title>Node3&#45;&gt;Node14</title>
<path fill="none" stroke="midnightblue" d="M690.66,-184.73C672.19,-173.82 640.43,-155.05 618.72,-142.22"/>
<polygon fill="midnightblue" stroke="midnightblue" points="620.49,-139.2 610.1,-137.13 616.93,-145.23 620.49,-139.2"/>
</g>
<!-- Node5 -->
<g id="node5" class="node">
<title>Node5</title>
<g id="a_node5"><a xlink:title=" ">
<polygon fill="white" stroke="#bfbfbf" points="904.5,-56.5 904.5,-75.5 962.5,-75.5 962.5,-56.5 904.5,-56.5"/>
<text text-anchor="middle" x="933.5" y="-63.5" font-family="Helvetica,sans-Serif" font-size="10.00">memory</text>
</a>
</g>
</g>
<!-- Node4&#45;&gt;Node5 -->
<g id="edge4" class="edge">
<title>Node4&#45;&gt;Node5</title>
<path fill="none" stroke="midnightblue" d="M766.44,-117.98C800.47,-107.59 858.08,-90.01 895.96,-78.45"/>
<polygon fill="midnightblue" stroke="midnightblue" points="897.07,-81.78 905.61,-75.51 895.03,-75.08 897.07,-81.78"/>
</g>
<!-- Node6 -->
<g id="node6" class="node">
<title>Node6</title>
<g id="a_node6"><a xlink:title=" ">
<polygon fill="white" stroke="#bfbfbf" points="981,-56.5 981,-75.5 1074,-75.5 1074,-56.5 981,-56.5"/>
<text text-anchor="middle" x="1027.5" y="-63.5" font-family="Helvetica,sans-Serif" font-size="10.00">unordered_map</text>
</a>
</g>
</g>
<!-- Node4&#45;&gt;Node6 -->
<g id="edge5" class="edge">
<title>Node4&#45;&gt;Node6</title>
<path fill="none" stroke="midnightblue" d="M779.91,-117.98C831.63,-107.33 920.11,-89.11 976.11,-77.58"/>
<polygon fill="midnightblue" stroke="midnightblue" points="977.08,-80.95 986.17,-75.51 975.67,-74.1 977.08,-80.95"/>
</g>
<!-- Node7 -->
<g id="node7" class="node">
<title>Node7</title>
<g id="a_node7"><a xlink:title=" ">
<polygon fill="white" stroke="#bfbfbf" points="712.5,-56.5 712.5,-75.5 772.5,-75.5 772.5,-56.5 712.5,-56.5"/>
<text text-anchor="middle" x="742.5" y="-63.5" font-family="Helvetica,sans-Serif" font-size="10.00">iostream</text>
</a>
</g>
</g>
<!-- Node4&#45;&gt;Node7 -->
<g id="edge6" class="edge">
<title>Node4&#45;&gt;Node7</title>
<path fill="none" stroke="midnightblue" d="M739.07,-117.98C739.64,-109.58 740.52,-96.48 741.25,-85.66"/>
<polygon fill="midnightblue" stroke="midnightblue" points="744.75,-85.72 741.93,-75.51 737.76,-85.25 744.75,-85.72"/>
</g>
<!-- Node8 -->
<g id="node8" class="node">
<title>Node8</title>
<g id="a_node8"><a xlink:title=" ">
<polygon fill="white" stroke="#bfbfbf" points="524.5,-56.5 524.5,-75.5 614.5,-75.5 614.5,-56.5 524.5,-56.5"/>
<text text-anchor="middle" x="569.5" y="-63.5" font-family="Helvetica,sans-Serif" font-size="10.00">AMReX_Print.H</text>
</a>
</g>
</g>
<!-- Node4&#45;&gt;Node8 -->
<g id="edge7" class="edge">
<title>Node4&#45;&gt;Node8</title>
<path fill="none" stroke="midnightblue" d="M714.29,-117.98C685.17,-107.72 636.13,-90.46 603.3,-78.9"/>
<polygon fill="midnightblue" stroke="midnightblue" points="604.26,-75.53 593.67,-75.51 601.94,-82.13 604.26,-75.53"/>
</g>
<!-- Node9 -->
<g id="node9" class="node">
<title>Node9</title>
<g id="a_node9"><a xlink:title=" ">
<polygon fill="white" stroke="#bfbfbf" points="632.5,-56.5 632.5,-75.5 694.5,-75.5 694.5,-56.5 632.5,-56.5"/>
<text text-anchor="middle" x="663.5" y="-63.5" font-family="Helvetica,sans-Serif" font-size="10.00">AMReX.H</text>
</a>
</g>
</g>
<!-- Node4&#45;&gt;Node9 -->
<g id="edge8" class="edge">
<title>Node4&#45;&gt;Node9</title>
<path fill="none" stroke="midnightblue" d="M727.75,-117.98C715.95,-108.61 696.76,-93.38 682.42,-82.01"/>
<polygon fill="midnightblue" stroke="midnightblue" points="684.24,-78.98 674.23,-75.51 679.88,-84.47 684.24,-78.98"/>
</g>
<!-- Node10&#45;&gt;Node5 -->
<g id="edge11" class="edge">
<title>Node10&#45;&gt;Node5</title>
<path fill="none" stroke="midnightblue" d="M930.93,-117.98C931.35,-109.58 932.01,-96.48 932.56,-85.66"/>
<polygon fill="midnightblue" stroke="midnightblue" points="936.06,-85.67 933.07,-75.51 929.07,-85.32 936.06,-85.67"/>
</g>
<!-- Node10&#45;&gt;Node6 -->
<g id="edge12" class="edge">
<title>Node10&#45;&gt;Node6</title>
<path fill="none" stroke="midnightblue" d="M944.4,-117.98C960.17,-108.3 986.14,-92.37 1004.85,-80.89"/>
<polygon fill="midnightblue" stroke="midnightblue" points="1006.93,-83.72 1013.63,-75.51 1003.27,-77.75 1006.93,-83.72"/>
</g>
<!-- Node11 -->
<g id="node11" class="node">
<title>Node11</title>
<g id="a_node11"><a xlink:title=" ">
<polygon fill="white" stroke="#bfbfbf" points="1757.5,-0.5 1757.5,-19.5 1801.5,-19.5 1801.5,-0.5 1757.5,-0.5"/>
<text text-anchor="middle" x="1779.5" y="-7.5" font-family="Helvetica,sans-Serif" font-size="10.00">string</text>
</a>
</g>
</g>
<!-- Node10&#45;&gt;Node11 -->
<g id="edge10" class="edge">
<title>Node10&#45;&gt;Node11</title>
<path fill="none" stroke="midnightblue" d="M920.39,-117.92C904.65,-103.56 877.82,-74.45 895.5,-56 927.81,-22.27 1689.14,-25.7 1735.5,-20 1739.28,-19.54 1743.22,-18.92 1747.13,-18.23"/>
<polygon fill="midnightblue" stroke="midnightblue" points="1748.08,-21.61 1757.23,-16.27 1746.75,-14.74 1748.08,-21.61"/>
</g>
<!-- Node12 -->
<g id="node12" class="node">
<title>Node12</title>
<g id="a_node12"><a xlink:title=" ">
<polygon fill="white" stroke="#bfbfbf" points="1628.5,-0.5 1628.5,-19.5 1726.5,-19.5 1726.5,-0.5 1628.5,-0.5"/>
<text text-anchor="middle" x="1677.5" y="-7.5" font-family="Helvetica,sans-Serif" font-size="10.00">AMReX_Vector.H</text>
</a>
</g>
</g>
<!-- Node10&#45;&gt;Node12 -->
<g id="edge13" class="edge">
<title>Node10&#45;&gt;Node12</title>
<path fill="none" stroke="midnightblue" d="M911.41,-117.87C884.57,-104.63 841.23,-78.48 862.5,-56 875.49,-42.28 1432.84,-20.17 1618.23,-13.19"/>
<polygon fill="midnightblue" stroke="midnightblue" points="1618.48,-16.68 1628.34,-12.81 1618.22,-9.69 1618.48,-16.68"/>
</g>
<!-- Node15&#45;&gt;Node5 -->
<g id="edge18" class="edge">
<title>Node15&#45;&gt;Node5</title>
<path fill="none" stroke="midnightblue" d="M1195.56,-117.94C1142.81,-108.75 1056.98,-93.36 972.84,-75.99"/>
<polygon fill="midnightblue" stroke="midnightblue" points="973.36,-72.52 962.86,-73.92 971.94,-79.38 973.36,-72.52"/>
</g>
<!-- Node15&#45;&gt;Node6 -->
<g id="edge19" class="edge">
<title>Node15&#45;&gt;Node6</title>
<path fill="none" stroke="midnightblue" d="M1214.27,-117.98C1175.9,-107.5 1110.71,-89.71 1068.39,-78.16"/>
<polygon fill="midnightblue" stroke="midnightblue" points="1069.24,-74.77 1058.68,-75.51 1067.4,-81.52 1069.24,-74.77"/>
</g>
<!-- Node15&#45;&gt;Node11 -->
<g id="edge17" class="edge">
<title>Node15&#45;&gt;Node11</title>
<path fill="none" stroke="midnightblue" d="M1259.98,-117.8C1286.31,-102.44 1344.24,-70.75 1397.5,-56 1543.09,-15.68 1586.21,-43.16 1735.5,-20 1739.27,-19.42 1743.2,-18.73 1747.09,-17.99"/>
<polygon fill="midnightblue" stroke="midnightblue" points="1748.06,-21.37 1757.19,-15.99 1746.7,-14.5 1748.06,-21.37"/>
</g>
<!-- Node15&#45;&gt;Node13 -->
<g id="edge21" class="edge">
<title>Node15&#45;&gt;Node13</title>
<path fill="none" stroke="midnightblue" d="M1255.33,-117.79C1270.39,-104.45 1300.12,-78.16 1325.5,-56 1336.88,-46.06 1349.72,-34.95 1359.79,-26.26"/>
<polygon fill="midnightblue" stroke="midnightblue" points="1362.22,-28.78 1367.51,-19.6 1357.65,-23.48 1362.22,-28.78"/>
</g>
<!-- Node16 -->
<g id="node16" class="node">
<title>Node16</title>
<g id="a_node16"><a xlink:title=" ">
<polygon fill="white" stroke="#bfbfbf" points="1209.5,-56.5 1209.5,-75.5 1273.5,-75.5 1273.5,-56.5 1209.5,-56.5"/>
<text text-anchor="middle" x="1241.5" y="-63.5" font-family="Helvetica,sans-Serif" font-size="10.00">algorithm</text>
</a>
</g>
</g>
<!-- Node15&#45;&gt;Node16 -->
<g id="edge20" class="edge">
<title>Node15&#45;&gt;Node16</title>
<path fill="none" stroke="midnightblue" d="M1244.93,-117.98C1244.36,-109.58 1243.48,-96.48 1242.75,-85.66"/>
<polygon fill="midnightblue" stroke="midnightblue" points="1246.24,-85.25 1242.07,-75.51 1239.25,-85.72 1246.24,-85.25"/>
</g>
<!-- Node17 -->
<g id="node17" class="node">
<title>Node17</title>
<g id="a_node17"><a xlink:title=" ">
<polygon fill="white" stroke="#bfbfbf" points="1092,-56.5 1092,-75.5 1191,-75.5 1191,-56.5 1092,-56.5"/>
<text text-anchor="middle" x="1141.5" y="-63.5" font-family="Helvetica,sans-Serif" font-size="10.00">AMReX_BCRec.H</text>
</a>
</g>
</g>
<!-- Node15&#45;&gt;Node17 -->
<g id="edge22" class="edge">
<title>Node15&#45;&gt;Node17</title>
<path fill="none" stroke="midnightblue" d="M1230.6,-117.98C1213.53,-108.21 1185.34,-92.08 1165.24,-80.58"/>
<polygon fill="midnightblue" stroke="midnightblue" points="1166.79,-77.44 1156.37,-75.51 1163.31,-83.51 1166.79,-77.44"/>
</g>
<!-- Node18 -->
<g id="node18" class="node">
<title>Node18</title>
<g id="a_node18"><a xlink:title=" ">
<polygon fill="white" stroke="#bfbfbf" points="208,-56.5 208,-75.5 295,-75.5 295,-56.5 208,-56.5"/>
<text text-anchor="middle" x="251.5" y="-63.5" font-family="Helvetica,sans-Serif" font-size="10.00">AMReX_Gpu.H</text>
</a>
</g>
</g>
<!-- Node15&#45;&gt;Node18 -->
<g id="edge23" class="edge">
<title>Node15&#45;&gt;Node18</title>
<path fill="none" stroke="midnightblue" d="M1188.18,-117.98C1171.54,-115.75 1153.32,-113.54 1136.5,-112 973.76,-97.06 471.58,-75.92 305.47,-69.17"/>
<polygon fill="midnightblue" stroke="midnightblue" points="305.15,-65.65 295.02,-68.74 304.87,-72.64 305.15,-65.65"/>
</g>
<!-- Node19 -->
<g id="node19" class="node">
<title>Node19</title>
<g id="a_node19"><a xlink:href="incflo__enums_8_h.html" target="_top" xlink:title=" ">
<polygon fill="white" stroke="black" points="1406,-56.5 1406,-75.5 1547,-75.5 1547,-56.5 1406,-56.5"/>
<text text-anchor="middle" x="1476.5" y="-63.5" font-family="Helvetica,sans-Serif" font-size="10.00">amr&#45;wind/incflo_enums.H</text>
</a>
</g>
</g>
<!-- Node15&#45;&gt;Node19 -->
<g id="edge24" class="edge">
<title>Node15&#45;&gt;Node19</title>
<path fill="none" stroke="midnightblue" d="M1278.6,-117.98C1319.42,-107.46 1388.91,-89.56 1433.74,-78.01"/>
<polygon fill="midnightblue" stroke="midnightblue" points="1434.65,-81.39 1443.46,-75.51 1432.91,-74.61 1434.65,-81.39"/>
</g>
<!-- Node20 -->
<g id="node20" class="node">
<title>Node20</title>
<g id="a_node20"><a xlink:href="_field_desc_types_8_h.html" target="_top" xlink:title=" ">
<polygon fill="white" stroke="black" points="2228.5,-0.5 2228.5,-19.5 2404.5,-19.5 2404.5,-0.5 2228.5,-0.5"/>
<text text-anchor="middle" x="2316.5" y="-7.5" font-family="Helvetica,sans-Serif" font-size="10.00">amr&#45;wind/core/FieldDescTypes.H</text>
</a>
</g>
</g>
<!-- Node15&#45;&gt;Node20 -->
<g id="edge25" class="edge">
<title>Node15&#45;&gt;Node20</title>
<path fill="none" stroke="midnightblue" d="M1307.8,-121.04C1404.71,-112.41 1597.38,-94.65 1760.5,-76 1828.63,-68.21 1845.42,-64.25 1913.5,-56 2020.74,-43.01 2144.2,-29.42 2225.91,-20.62"/>
<polygon fill="midnightblue" stroke="midnightblue" points="2226.59,-24.07 2236.16,-19.52 2225.85,-17.11 2226.59,-24.07"/>
</g>
<!-- Node21 -->
<g id="node21" class="node">
<title>Node21</title>
<g id="a_node21"><a xlink:href="_view_field_8_h.html" target="_top" xlink:title=" ">
<polygon fill="white" stroke="black" points="1603.5,-56.5 1603.5,-75.5 1751.5,-75.5 1751.5,-56.5 1603.5,-56.5"/>
<text text-anchor="middle" x="1677.5" y="-63.5" font-family="Helvetica,sans-Serif" font-size="10.00">amr&#45;wind/core/ViewField.H</text>
</a>
</g>
</g>
<!-- Node15&#45;&gt;Node21 -->
<g id="edge26" class="edge">
<title>Node15&#45;&gt;Node21</title>
<path fill="none" stroke="midnightblue" d="M1307.4,-117.98C1386.23,-107.12 1522.21,-88.39 1605.57,-76.91"/>
<polygon fill="midnightblue" stroke="midnightblue" points="1606.29,-80.34 1615.72,-75.51 1605.34,-73.41 1606.29,-80.34"/>
</g>
<!-- Node21&#45;&gt;Node11 -->
<g id="edge27" class="edge">
<title>Node21&#45;&gt;Node11</title>
<path fill="none" stroke="midnightblue" d="M1693.89,-56.32C1710.17,-47.7 1735.37,-34.36 1754.22,-24.39"/>
<polygon fill="midnightblue" stroke="midnightblue" points="1755.95,-27.43 1763.15,-19.65 1752.68,-21.24 1755.95,-27.43"/>
</g>
<!-- Node21&#45;&gt;Node12 -->
<g id="edge30" class="edge">
<title>Node21&#45;&gt;Node12</title>
<path fill="none" stroke="midnightblue" d="M1677.5,-56.08C1677.5,-49.01 1677.5,-38.86 1677.5,-29.99"/>
<polygon fill="midnightblue" stroke="midnightblue" points="1681,-29.75 1677.5,-19.75 1674,-29.75 1681,-29.75"/>
</g>
<!-- Node21&#45;&gt;Node13 -->
<g id="edge29" class="edge">
<title>Node21&#45;&gt;Node13</title>
<path fill="none" stroke="midnightblue" d="M1629.96,-56.44C1576.97,-46.9 1491.3,-31.48 1434.68,-21.29"/>
<polygon fill="midnightblue" stroke="midnightblue" points="1435.28,-17.84 1424.81,-19.52 1434.04,-24.73 1435.28,-17.84"/>
</g>
<!-- Node21&#45;&gt;Node20 -->
<g id="edge28" class="edge">
<title>Node21&#45;&gt;Node20</title>
<path fill="none" stroke="midnightblue" d="M1751.74,-58.73C1867.09,-48.98 2089.44,-30.19 2218.06,-19.32"/>
<polygon fill="midnightblue" stroke="midnightblue" points="2218.63,-22.78 2228.3,-18.45 2218.04,-15.81 2218.63,-22.78"/>
</g>
<!-- Node22&#45;&gt;Node3 -->
<g id="edge32" class="edge">
<title>Node22&#45;&gt;Node3</title>
<path fill="none" stroke="midnightblue" d="M568.47,-246.4C599.72,-234.79 643.54,-218.51 673.14,-207.52"/>
<polygon fill="midnightblue" stroke="midnightblue" points="674.44,-210.77 682.6,-204.01 672,-204.21 674.44,-210.77"/>
</g>
<!-- Node23 -->
<g id="node23" class="node">
<title>Node23</title>
<g id="a_node23"><a xlink:href="_sim_time_8_h.html" target="_top" xlink:title=" ">
<polygon fill="white" stroke="black" points="351.5,-185 351.5,-204 495.5,-204 495.5,-185 351.5,-185"/>
<text text-anchor="middle" x="423.5" y="-192" font-family="Helvetica,sans-Serif" font-size="10.00">amr&#45;wind/core/SimTime.H</text>
</a>
</g>
</g>
<!-- Node22&#45;&gt;Node23 -->
<g id="edge33" class="edge">
<title>Node22&#45;&gt;Node23</title>
<path fill="none" stroke="midnightblue" d="M507.28,-246.4C489.17,-235.39 464.16,-220.2 446.19,-209.28"/>
<polygon fill="midnightblue" stroke="midnightblue" points="447.87,-206.21 437.5,-204.01 444.23,-212.19 447.87,-206.21"/>
</g>
<!-- Node24 -->
<g id="node24" class="node">
<title>Node24</title>
<g id="a_node24"><a xlink:title=" ">
<polygon fill="white" stroke="#bfbfbf" points="103.5,-118 103.5,-137 195.5,-137 195.5,-118 103.5,-118"/>
<text text-anchor="middle" x="149.5" y="-125" font-family="Helvetica,sans-Serif" font-size="10.00">AMReX_REAL.H</text>
</a>
</g>
</g>
<!-- Node23&#45;&gt;Node24 -->
<g id="edge34" class="edge">
<title>Node23&#45;&gt;Node24</title>
<path fill="none" stroke="midnightblue" d="M384.64,-184.92C340.8,-175.16 267.38,-158.53 204.5,-143 200.12,-141.92 195.55,-140.76 191.01,-139.59"/>
<polygon fill="midnightblue" stroke="midnightblue" points="191.72,-136.16 181.16,-137.03 189.95,-142.93 191.72,-136.16"/>
</g>
<!-- Node25 -->
<g id="node25" class="node">
<title>Node25</title>
<g id="a_node25"><a xlink:title=" ">
<polygon fill="white" stroke="#bfbfbf" points="213.5,-118 213.5,-137 347.5,-137 347.5,-118 213.5,-118"/>
<text text-anchor="middle" x="280.5" y="-125" font-family="Helvetica,sans-Serif" font-size="10.00">AMReX_GpuQualifiers.H</text>
</a>
</g>
</g>
<!-- Node23&#45;&gt;Node25 -->
<g id="edge35" class="edge">
<title>Node23&#45;&gt;Node25</title>
<path fill="none" stroke="midnightblue" d="M404.51,-184.87C380.04,-173.75 337.3,-154.32 308.94,-141.43"/>
<polygon fill="midnightblue" stroke="midnightblue" points="310.12,-138.12 299.57,-137.17 307.22,-144.49 310.12,-138.12"/>
</g>
<!-- Node26 -->
<g id="node26" class="node">
<title>Node26</title>
<g id="a_node26"><a xlink:title=" ">
<polygon fill="white" stroke="#bfbfbf" points="365.5,-118 365.5,-137 481.5,-137 481.5,-118 365.5,-118"/>
<text text-anchor="middle" x="423.5" y="-125" font-family="Helvetica,sans-Serif" font-size="10.00">AMReX_Extension.H</text>
</a>
</g>
</g>
<!-- Node23&#45;&gt;Node26 -->
<g id="edge36" class="edge">
<title>Node23&#45;&gt;Node26</title>
<path fill="none" stroke="midnightblue" d="M423.5,-184.73C423.5,-175.18 423.5,-159.62 423.5,-147.28"/>
<polygon fill="midnightblue" stroke="midnightblue" points="427,-147.13 423.5,-137.13 420,-147.13 427,-147.13"/>
</g>
<!-- Node27&#45;&gt;Node18 -->
<g id="edge40" class="edge">
<title>Node27&#45;&gt;Node18</title>
<path fill="none" stroke="midnightblue" d="M103.11,-179.36C92.78,-161.85 79.5,-131.9 94.5,-112 107.13,-95.25 157.6,-82.83 197.96,-75.33"/>
<polygon fill="midnightblue" stroke="midnightblue" points="198.75,-78.74 207.97,-73.53 197.51,-71.85 198.75,-78.74"/>
</g>
<!-- Node27&#45;&gt;Node24 -->
<g id="edge39" class="edge">
<title>Node27&#45;&gt;Node24</title>
<path fill="none" stroke="midnightblue" d="M120.53,-179.4C126.13,-169.56 133.63,-156.38 139.6,-145.89"/>
<polygon fill="midnightblue" stroke="midnightblue" points="142.65,-147.62 144.55,-137.19 136.56,-144.15 142.65,-147.62"/>
</g>
<!-- Node28 -->
<g id="node28" class="node">
<title>Node28</title>
<g id="a_node28"><a xlink:title=" ">
<polygon fill="white" stroke="#bfbfbf" points="0,-118 0,-137 47,-137 47,-118 0,-118"/>
<text text-anchor="middle" x="23.5" y="-125" font-family="Helvetica,sans-Serif" font-size="10.00">cmath</text>
</a>
</g>
</g>
<!-- Node27&#45;&gt;Node28 -->
<g id="edge38" class="edge">
<title>Node27&#45;&gt;Node28</title>
<path fill="none" stroke="midnightblue" d="M93.19,-179.4C78.54,-168.7 58.46,-154.03 43.62,-143.19"/>
<polygon fill="midnightblue" stroke="midnightblue" points="45.29,-140.08 35.15,-137.01 41.16,-145.73 45.29,-140.08"/>
</g>
<!-- Node29&#45;&gt;Node3 -->
<g id="edge76" class="edge">
<title>Node29&#45;&gt;Node3</title>
<path fill="none" stroke="midnightblue" d="M845.12,-251.87C817.14,-240.57 767.91,-220.7 736.01,-207.82"/>
<polygon fill="midnightblue" stroke="midnightblue" points="737.29,-204.56 726.71,-204.06 734.67,-211.05 737.29,-204.56"/>
</g>
<!-- Node29&#45;&gt;Node23 -->
<g id="edge43" class="edge">
<title>Node29&#45;&gt;Node23</title>
<path fill="none" stroke="midnightblue" d="M829.74,-251.99C819.95,-249.88 809.35,-247.72 799.5,-246 698.92,-228.39 582.25,-213.59 505.88,-204.65"/>
<polygon fill="midnightblue" stroke="midnightblue" points="506.18,-201.16 495.84,-203.48 505.37,-208.12 506.18,-201.16"/>
</g>
<!-- Node30 -->
<g id="node30" class="node">
<title>Node30</title>
<g id="a_node30"><a xlink:title=" ">
<polygon fill="white" stroke="#bfbfbf" points="1017.5,-118 1017.5,-137 1127.5,-137 1127.5,-118 1017.5,-118"/>
<text text-anchor="middle" x="1072.5" y="-125" font-family="Helvetica,sans-Serif" font-size="10.00">AMReX_AmrCore.H</text>
</a>
</g>
</g>
<!-- Node29&#45;&gt;Node30 -->
<g id="edge42" class="edge">
<title>Node29&#45;&gt;Node30</title>
<path fill="none" stroke="midnightblue" d="M881,-251.91C897.65,-241.99 925.72,-225.1 949.5,-210 985.55,-187.1 1026.8,-159.47 1051.2,-142.97"/>
<polygon fill="midnightblue" stroke="midnightblue" points="1053.36,-145.74 1059.68,-137.23 1049.44,-139.94 1053.36,-145.74"/>
</g>
<!-- Node31 -->
<g id="node31" class="node">
<title>Node31</title>
<g id="a_node31"><a xlink:href="_field_repo_8_h.html" target="_top" xlink:title=" ">
<polygon fill="white" stroke="black" points="1639,-185 1639,-204 1788,-204 1788,-185 1639,-185"/>
<text text-anchor="middle" x="1713.5" y="-192" font-family="Helvetica,sans-Serif" font-size="10.00">amr&#45;wind/core/FieldRepo.H</text>
</a>
</g>
</g>
<!-- Node29&#45;&gt;Node31 -->
<g id="edge44" class="edge">
<title>Node29&#45;&gt;Node31</title>
<path fill="none" stroke="midnightblue" d="M901.62,-251.99C912.14,-249.72 923.74,-247.49 934.5,-246 1185.4,-211.3 1485.14,-200.35 1628.69,-196.97"/>
<polygon fill="midnightblue" stroke="midnightblue" points="1628.84,-200.47 1638.75,-196.74 1628.67,-193.47 1628.84,-200.47"/>
</g>
<!-- Node39 -->
<g id="node39" class="node">
<title>Node39</title>
<g id="a_node39"><a xlink:href="_p_d_e_base_8_h.html" target="_top" xlink:title=" ">
<polygon fill="white" stroke="black" points="1806,-179.5 1806,-209.5 1961,-209.5 1961,-179.5 1806,-179.5"/>
<text text-anchor="start" x="1814" y="-197.5" font-family="Helvetica,sans-Serif" font-size="10.00">amr&#45;wind/equation_systems</text>
<text text-anchor="middle" x="1883.5" y="-186.5" font-family="Helvetica,sans-Serif" font-size="10.00">/PDEBase.H</text>
</a>
</g>
</g>
<!-- Node29&#45;&gt;Node39 -->
<g id="edge68" class="edge">
<title>Node29&#45;&gt;Node39</title>
<path fill="none" stroke="midnightblue" d="M900.9,-251.99C911.6,-249.66 923.48,-247.39 934.5,-246 1312,-198.22 1413.91,-249.08 1795.53,-210.12"/>
<polygon fill="midnightblue" stroke="midnightblue" points="1796.16,-213.57 1805.74,-209.06 1795.44,-206.61 1796.16,-213.57"/>
</g>
<!-- Node42 -->
<g id="node42" class="node">
<title>Node42</title>
<g id="a_node42"><a xlink:href="_mesh_map_8_h.html" target="_top" xlink:title=" ">
<polygon fill="white" stroke="black" points="792.5,-185 792.5,-204 940.5,-204 940.5,-185 792.5,-185"/>
<text text-anchor="middle" x="866.5" y="-192" font-family="Helvetica,sans-Serif" font-size="10.00">amr&#45;wind/core/MeshMap.H</text>
</a>
</g>
</g>
<!-- Node29&#45;&gt;Node42 -->
<g id="edge77" class="edge">
<title>Node29&#45;&gt;Node42</title>
<path fill="none" stroke="midnightblue" d="M866.5,-251.73C866.5,-242.18 866.5,-226.62 866.5,-214.28"/>
<polygon fill="midnightblue" stroke="midnightblue" points="870,-214.13 866.5,-204.13 863,-214.13 870,-214.13"/>
</g>
<!-- Node31&#45;&gt;Node6 -->
<g id="edge46" class="edge">
<title>Node31&#45;&gt;Node6</title>
<path fill="none" stroke="midnightblue" d="M1638.95,-191.85C1511.31,-188.15 1256.69,-176.67 1174.5,-143 1154.33,-134.74 1155.22,-123.17 1136.5,-112 1113.48,-98.26 1085.49,-86.81 1063.64,-78.89"/>
<polygon fill="midnightblue" stroke="midnightblue" points="1064.66,-75.54 1054.07,-75.51 1062.33,-82.14 1064.66,-75.54"/>
</g>
<!-- Node31&#45;&gt;Node11 -->
<g id="edge45" class="edge">
<title>Node31&#45;&gt;Node11</title>
<path fill="none" stroke="midnightblue" d="M1717.33,-184.77C1725.75,-165.4 1746.23,-117.33 1760.5,-76 1765.84,-60.55 1770.98,-42.7 1774.57,-29.62"/>
<polygon fill="midnightblue" stroke="midnightblue" points="1777.96,-30.48 1777.19,-19.92 1771.2,-28.66 1777.96,-30.48"/>
</g>
<!-- Node31&#45;&gt;Node13 -->
<g id="edge66" class="edge">
<title>Node31&#45;&gt;Node13</title>
<path fill="none" stroke="midnightblue" d="M1640.3,-184.99C1568.82,-172.88 1461.69,-143.99 1397.5,-76 1385.73,-63.54 1380.88,-44.3 1378.88,-29.99"/>
<polygon fill="midnightblue" stroke="midnightblue" points="1382.34,-29.37 1377.82,-19.78 1375.38,-30.09 1382.34,-29.37"/>
</g>
<!-- Node31&#45;&gt;Node15 -->
<g id="edge52" class="edge">
<title>Node31&#45;&gt;Node15</title>
<path fill="none" stroke="midnightblue" d="M1651.84,-184.94C1565.35,-172.92 1408.39,-151.12 1316.93,-138.42"/>
<polygon fill="midnightblue" stroke="midnightblue" points="1317.31,-134.94 1306.93,-137.03 1316.35,-141.87 1317.31,-134.94"/>
</g>
<!-- Node31&#45;&gt;Node20 -->
<g id="edge47" class="edge">
<title>Node31&#45;&gt;Node20</title>
<path fill="none" stroke="midnightblue" d="M1757.4,-184.99C1770.28,-182.75 1784.42,-180.53 1797.5,-179 1961.53,-159.83 2442.96,-214.12 2533.5,-76 2538.37,-68.57 2539.11,-62.89 2533.5,-56 2524.09,-44.43 2446.49,-30.37 2386.75,-21.08"/>
<polygon fill="midnightblue" stroke="midnightblue" points="2386.99,-17.58 2376.58,-19.52 2385.93,-24.5 2386.99,-17.58"/>
</g>
<!-- Node31&#45;&gt;Node30 -->
<g id="edge65" class="edge">
<title>Node31&#45;&gt;Node30</title>
<path fill="none" stroke="midnightblue" d="M1638.67,-189.74C1529.09,-183.6 1318.75,-169.35 1141.5,-143 1134.26,-141.92 1126.63,-140.56 1119.2,-139.1"/>
<polygon fill="midnightblue" stroke="midnightblue" points="1119.73,-135.64 1109.24,-137.07 1118.34,-142.49 1119.73,-135.64"/>
</g>
<!-- Node32 -->
<g id="node32" class="node">
<title>Node32</title>
<g id="a_node32"><a xlink:href="_field_utils_8_h.html" target="_top" xlink:title=" ">
<polygon fill="white" stroke="black" points="2378.5,-56.5 2378.5,-75.5 2524.5,-75.5 2524.5,-56.5 2378.5,-56.5"/>
<text text-anchor="middle" x="2451.5" y="-63.5" font-family="Helvetica,sans-Serif" font-size="10.00">amr&#45;wind/core/FieldUtils.H</text>
</a>
</g>
</g>
<!-- Node31&#45;&gt;Node32 -->
<g id="edge48" class="edge">
<title>Node31&#45;&gt;Node32</title>
<path fill="none" stroke="midnightblue" d="M1757.84,-184.96C1770.6,-182.74 1784.57,-180.54 1797.5,-179 1916.92,-164.75 2223.62,-181.66 2337.5,-143 2375.91,-129.96 2413.72,-100.58 2434.7,-82.4"/>
<polygon fill="midnightblue" stroke="midnightblue" points="2437.21,-84.86 2442.37,-75.6 2432.56,-79.62 2437.21,-84.86"/>
</g>
<!-- Node34 -->
<g id="node34" class="node">
<title>Node34</title>
<g id="a_node34"><a xlink:href="_int_field_8_h.html" target="_top" xlink:title=" ">
<polygon fill="white" stroke="black" points="2191,-118 2191,-137 2328,-137 2328,-118 2191,-118"/>
<text text-anchor="middle" x="2259.5" y="-125" font-family="Helvetica,sans-Serif" font-size="10.00">amr&#45;wind/core/IntField.H</text>
</a>
</g>
</g>
<!-- Node31&#45;&gt;Node34 -->
<g id="edge53" class="edge">
<title>Node31&#45;&gt;Node34</title>
<path fill="none" stroke="midnightblue" d="M1760.07,-184.93C1772.23,-182.84 1785.34,-180.71 1797.5,-179 1943.6,-158.44 1980.84,-159.05 2127.5,-143 2144.74,-141.11 2163.25,-139.08 2180.79,-137.16"/>
<polygon fill="midnightblue" stroke="midnightblue" points="2181.43,-140.61 2190.99,-136.04 2180.67,-133.65 2181.43,-140.61"/>
</g>
<!-- Node35 -->
<g id="node35" class="node">
<title>Node35</title>
<g id="a_node35"><a xlink:title=" ">
<polygon fill="white" stroke="#bfbfbf" points="2172.5,-56.5 2172.5,-75.5 2284.5,-75.5 2284.5,-56.5 2172.5,-56.5"/>
<text text-anchor="middle" x="2228.5" y="-63.5" font-family="Helvetica,sans-Serif" font-size="10.00">AMReX_iMultiFab.H</text>
</a>
</g>
</g>
<!-- Node31&#45;&gt;Node35 -->
<g id="edge67" class="edge">
<title>Node31&#45;&gt;Node35</title>
<path fill="none" stroke="midnightblue" d="M1762.79,-184.94C1774.19,-182.97 1786.26,-180.9 1797.5,-179 1893.89,-162.69 1919.85,-167.45 2014.5,-143 2081.86,-125.6 2158.03,-96.08 2198.86,-79.41"/>
<polygon fill="midnightblue" stroke="midnightblue" points="2200.3,-82.61 2208.22,-75.57 2197.64,-76.13 2200.3,-82.61"/>
</g>
<!-- Node36 -->
<g id="node36" class="node">
<title>Node36</title>
<g id="a_node36"><a xlink:href="_scratch_field_8_h.html" target="_top" xlink:title=" ">
<polygon fill="white" stroke="black" points="1845.5,-118 1845.5,-137 2005.5,-137 2005.5,-118 1845.5,-118"/>
<text text-anchor="middle" x="1925.5" y="-125" font-family="Helvetica,sans-Serif" font-size="10.00">amr&#45;wind/core/ScratchField.H</text>
</a>
</g>
</g>
<!-- Node31&#45;&gt;Node36 -->
<g id="edge57" class="edge">
<title>Node31&#45;&gt;Node36</title>
<path fill="none" stroke="midnightblue" d="M1741.65,-184.87C1779.29,-173.33 1846.13,-152.84 1888.01,-140"/>
<polygon fill="midnightblue" stroke="midnightblue" points="1889.03,-143.34 1897.57,-137.06 1886.98,-136.65 1889.03,-143.34"/>
</g>
<!-- Node32&#45;&gt;Node13 -->
<g id="edge50" class="edge">
<title>Node32&#45;&gt;Node13</title>
<path fill="none" stroke="midnightblue" d="M2378.35,-60.71C2351.65,-59.18 2321.21,-57.47 2293.5,-56 1974.42,-39.07 1592.7,-21.03 1442.63,-14.02"/>
<polygon fill="midnightblue" stroke="midnightblue" points="1442.38,-10.51 1432.23,-13.54 1442.05,-17.5 1442.38,-10.51"/>
</g>
<!-- Node32&#45;&gt;Node20 -->
<g id="edge49" class="edge">
<title>Node32&#45;&gt;Node20</title>
<path fill="none" stroke="midnightblue" d="M2430.11,-56.44C2407.79,-47.52 2372.6,-33.44 2347.29,-23.32"/>
<polygon fill="midnightblue" stroke="midnightblue" points="2348.38,-19.98 2337.79,-19.52 2345.78,-26.48 2348.38,-19.98"/>
</g>
<!-- Node33 -->
<g id="node33" class="node">
<title>Node33</title>
<g id="a_node33"><a xlink:title=" ">
<polygon fill="white" stroke="#bfbfbf" points="2422.5,-0.5 2422.5,-19.5 2546.5,-19.5 2546.5,-0.5 2422.5,-0.5"/>
<text text-anchor="middle" x="2484.5" y="-7.5" font-family="Helvetica,sans-Serif" font-size="10.00">AMReX_Interpolater.H</text>
</a>
</g>
</g>
<!-- Node32&#45;&gt;Node33 -->
<g id="edge51" class="edge">
<title>Node32&#45;&gt;Node33</title>
<path fill="none" stroke="midnightblue" d="M2456.95,-56.08C2461.51,-48.61 2468.17,-37.72 2473.79,-28.52"/>
<polygon fill="midnightblue" stroke="midnightblue" points="2476.92,-30.11 2479.15,-19.75 2470.95,-26.46 2476.92,-30.11"/>
</g>
<!-- Node34&#45;&gt;Node11 -->
<g id="edge54" class="edge">
<title>Node34&#45;&gt;Node11</title>
<path fill="none" stroke="midnightblue" d="M2269.57,-117.75C2284.89,-103.41 2310.57,-74.64 2293.5,-56 2260.92,-20.44 1919.42,-12.86 1811.79,-11.35"/>
<polygon fill="midnightblue" stroke="midnightblue" points="1811.6,-7.85 1801.55,-11.22 1811.51,-14.85 1811.6,-7.85"/>
</g>
<!-- Node34&#45;&gt;Node20 -->
<g id="edge55" class="edge">
<title>Node34&#45;&gt;Node20</title>
<path fill="none" stroke="midnightblue" d="M2279.12,-117.92C2295.14,-109.72 2316.69,-95.68 2326.5,-76 2333.73,-61.49 2329.86,-43.07 2324.98,-29.55"/>
<polygon fill="midnightblue" stroke="midnightblue" points="2328.07,-27.85 2321.05,-19.92 2321.59,-30.5 2328.07,-27.85"/>
</g>
<!-- Node34&#45;&gt;Node35 -->
<g id="edge56" class="edge">
<title>Node34&#45;&gt;Node35</title>
<path fill="none" stroke="midnightblue" d="M2255.06,-117.98C2250.55,-109.32 2243.43,-95.65 2237.69,-84.65"/>
<polygon fill="midnightblue" stroke="midnightblue" points="2240.66,-82.76 2232.93,-75.51 2234.45,-85.99 2240.66,-82.76"/>
</g>
<!-- Node36&#45;&gt;Node11 -->
<g id="edge58" class="edge">
<title>Node36&#45;&gt;Node11</title>
<path fill="none" stroke="midnightblue" d="M1914.53,-117.82C1889.79,-98.25 1829.45,-50.52 1798.5,-26.03"/>
<polygon fill="midnightblue" stroke="midnightblue" points="1800.62,-23.24 1790.6,-19.78 1796.27,-28.73 1800.62,-23.24"/>
</g>
<!-- Node36&#45;&gt;Node12 -->
<g id="edge63" class="edge">
<title>Node36&#45;&gt;Node12</title>
<path fill="none" stroke="midnightblue" d="M1906.86,-117.82C1863.58,-97.66 1756.08,-47.6 1705.13,-23.87"/>
<polygon fill="midnightblue" stroke="midnightblue" points="1706.56,-20.67 1696.02,-19.62 1703.61,-27.02 1706.56,-20.67"/>
</g>
<!-- Node36&#45;&gt;Node13 -->
<g id="edge62" class="edge">
<title>Node36&#45;&gt;Node13</title>
<path fill="none" stroke="midnightblue" d="M1845.19,-121.74C1777.06,-115.95 1677.46,-103.3 1594.5,-76 1576.37,-70.03 1574.33,-62.82 1556.5,-56 1516.73,-40.79 1470.02,-29.24 1434.29,-21.66"/>
<polygon fill="midnightblue" stroke="midnightblue" points="1434.55,-18.14 1424.04,-19.53 1433.12,-24.99 1434.55,-18.14"/>
</g>
<!-- Node36&#45;&gt;Node20 -->
<g id="edge60" class="edge">
<title>Node36&#45;&gt;Node20</title>
<path fill="none" stroke="midnightblue" d="M1972.13,-117.99C2013.29,-109.72 2074.5,-95.54 2125.5,-76 2143.32,-69.17 2145.81,-63.17 2163.5,-56 2198.31,-41.88 2239.19,-30.09 2269.94,-22.12"/>
<polygon fill="midnightblue" stroke="midnightblue" points="2271.13,-25.43 2279.95,-19.57 2269.4,-18.65 2271.13,-25.43"/>
</g>
<!-- Node36&#45;&gt;Node21 -->
<g id="edge61" class="edge">
<title>Node36&#45;&gt;Node21</title>
<path fill="none" stroke="midnightblue" d="M1889.97,-117.98C1845.95,-107.42 1770.91,-89.41 1722.8,-77.87"/>
<polygon fill="midnightblue" stroke="midnightblue" points="1723.51,-74.44 1712.97,-75.51 1721.87,-81.25 1723.51,-74.44"/>
</g>
<!-- Node37 -->
<g id="node37" class="node">
<title>Node37</title>
<g id="a_node37"><a xlink:title=" ">
<polygon fill="white" stroke="#bfbfbf" points="1922,-56.5 1922,-75.5 1967,-75.5 1967,-56.5 1922,-56.5"/>
<text text-anchor="middle" x="1944.5" y="-63.5" font-family="Helvetica,sans-Serif" font-size="10.00">utility</text>
</a>
</g>
</g>
<!-- Node36&#45;&gt;Node37 -->
<g id="edge59" class="edge">
<title>Node36&#45;&gt;Node37</title>
<path fill="none" stroke="midnightblue" d="M1928.22,-117.98C1930.93,-109.49 1935.17,-96.2 1938.65,-85.32"/>
<polygon fill="midnightblue" stroke="midnightblue" points="1942.07,-86.1 1941.78,-75.51 1935.41,-83.97 1942.07,-86.1"/>
</g>
<!-- Node38 -->
<g id="node38" class="node">
<title>Node38</title>
<g id="a_node38"><a xlink:title=" ">
<polygon fill="white" stroke="#bfbfbf" points="1985,-56.5 1985,-75.5 2116,-75.5 2116,-56.5 1985,-56.5"/>
<text text-anchor="middle" x="2050.5" y="-63.5" font-family="Helvetica,sans-Serif" font-size="10.00">AMReX_PhysBCFunct.H</text>
</a>
</g>
</g>
<!-- Node36&#45;&gt;Node38 -->
<g id="edge64" class="edge">
<title>Node36&#45;&gt;Node38</title>
<path fill="none" stroke="midnightblue" d="M1943.41,-117.98C1964.39,-107.99 1999.35,-91.35 2023.59,-79.81"/>
<polygon fill="midnightblue" stroke="midnightblue" points="2025.1,-82.97 2032.62,-75.51 2022.09,-76.65 2025.1,-82.97"/>
</g>
<!-- Node39&#45;&gt;Node4 -->
<g id="edge70" class="edge">
<title>Node39&#45;&gt;Node4</title>
<path fill="none" stroke="midnightblue" d="M1805.75,-179.93C1802.97,-179.59 1800.21,-179.28 1797.5,-179 1379.85,-136.01 1271.96,-177.29 853.5,-143 838.83,-141.8 823.16,-140.1 808.26,-138.29"/>
<polygon fill="midnightblue" stroke="midnightblue" points="808.44,-134.78 798.08,-137.02 807.57,-141.73 808.44,-134.78"/>
</g>
<!-- Node39&#45;&gt;Node10 -->
<g id="edge71" class="edge">
<title>Node39&#45;&gt;Node10</title>
<path fill="none" stroke="midnightblue" d="M1805.74,-179.95C1802.96,-179.61 1800.21,-179.29 1797.5,-179 1448.45,-141.75 1357.23,-183.17 1008.5,-143 999.36,-141.95 989.67,-140.46 980.35,-138.83"/>
<polygon fill="midnightblue" stroke="midnightblue" points="980.89,-135.37 970.42,-137.02 979.63,-142.25 980.89,-135.37"/>
</g>
<!-- Node39&#45;&gt;Node11 -->
<g id="edge69" class="edge">
<title>Node39&#45;&gt;Node11</title>
<path fill="none" stroke="midnightblue" d="M1961.3,-189.49C2150.69,-178.33 2614.42,-141.9 2533.5,-56 2508.39,-29.34 1952.77,-14.94 1811.79,-11.71"/>
<polygon fill="midnightblue" stroke="midnightblue" points="1811.71,-8.2 1801.63,-11.48 1811.55,-15.2 1811.71,-8.2"/>
</g>
<!-- Node39&#45;&gt;Node19 -->
<g id="edge75" class="edge">
<title>Node39&#45;&gt;Node19</title>
<path fill="none" stroke="midnightblue" d="M1838.39,-179.48C1757.44,-154.32 1589,-101.97 1513.96,-78.64"/>
<polygon fill="midnightblue" stroke="midnightblue" points="1514.6,-75.18 1504.01,-75.55 1512.52,-81.86 1514.6,-75.18"/>
</g>
<!-- Node39&#45;&gt;Node20 -->
<g id="edge74" class="edge">
<title>Node39&#45;&gt;Node20</title>
<path fill="none" stroke="midnightblue" d="M1961.19,-194.47C2133.22,-194.62 2536.47,-183.32 2604.5,-76 2609.26,-68.49 2610.28,-62.75 2604.5,-56 2597.67,-48.02 2478.5,-31.45 2395.62,-20.8"/>
<polygon fill="midnightblue" stroke="midnightblue" points="2395.81,-17.3 2385.45,-19.5 2394.92,-24.24 2395.81,-17.3"/>
</g>
<!-- Node40 -->
<g id="node40" class="node">
<title>Node40</title>
<g id="a_node40"><a xlink:href="_p_d_e_fields_8_h.html" target="_top" xlink:title=" ">
<polygon fill="white" stroke="black" points="2657,-112.5 2657,-142.5 2812,-142.5 2812,-112.5 2657,-112.5"/>
<text text-anchor="start" x="2665" y="-130.5" font-family="Helvetica,sans-Serif" font-size="10.00">amr&#45;wind/equation_systems</text>
<text text-anchor="middle" x="2734.5" y="-119.5" font-family="Helvetica,sans-Serif" font-size="10.00">/PDEFields.H</text>
</a>
</g>
</g>
<!-- Node39&#45;&gt;Node40 -->
<g id="edge72" class="edge">
<title>Node39&#45;&gt;Node40</title>
<path fill="none" stroke="midnightblue" d="M1961.01,-190.65C2098.57,-185.07 2394.29,-170.76 2642.5,-143 2643.81,-142.85 2645.13,-142.7 2646.46,-142.54"/>
<polygon fill="midnightblue" stroke="midnightblue" points="2647.28,-145.97 2656.77,-141.25 2646.41,-139.02 2647.28,-145.97"/>
</g>
<!-- Node41 -->
<g id="node41" class="node">
<title>Node41</title>
<g id="a_node41"><a xlink:title=" ">
<polygon fill="white" stroke="#bfbfbf" points="2710.5,-56.5 2710.5,-75.5 2758.5,-75.5 2758.5,-56.5 2710.5,-56.5"/>
<text text-anchor="middle" x="2734.5" y="-63.5" font-family="Helvetica,sans-Serif" font-size="10.00">iosfwd</text>
</a>
</g>
</g>
<!-- Node40&#45;&gt;Node41 -->
<g id="edge73" class="edge">
<title>Node40&#45;&gt;Node41</title>
<path fill="none" stroke="midnightblue" d="M2734.5,-112.4C2734.5,-104.47 2734.5,-94.46 2734.5,-85.86"/>
<polygon fill="midnightblue" stroke="midnightblue" points="2738,-85.66 2734.5,-75.66 2731,-85.66 2738,-85.66"/>
</g>
<!-- Node42&#45;&gt;Node4 -->
<g id="edge79" class="edge">
<title>Node42&#45;&gt;Node4</title>
<path fill="none" stroke="midnightblue" d="M849.5,-184.87C827.79,-173.84 790.01,-154.66 764.63,-141.77"/>
<polygon fill="midnightblue" stroke="midnightblue" points="766.07,-138.57 755.57,-137.17 762.9,-144.82 766.07,-138.57"/>
</g>
<!-- Node42&#45;&gt;Node10 -->
<g id="edge78" class="edge">
<title>Node42&#45;&gt;Node10</title>
<path fill="none" stroke="midnightblue" d="M875.13,-184.73C885.3,-174.4 902.4,-157.04 914.91,-144.33"/>
<polygon fill="midnightblue" stroke="midnightblue" points="917.48,-146.71 922.01,-137.13 912.5,-141.8 917.48,-146.71"/>
</g>
<!-- Node42&#45;&gt;Node13 -->
<g id="edge81" class="edge">
<title>Node42&#45;&gt;Node13</title>
<path fill="none" stroke="midnightblue" d="M861.65,-184.69C849.09,-160.56 818.75,-92.77 852.5,-56 883.06,-22.71 1179.24,-14 1312.78,-11.76"/>
<polygon fill="midnightblue" stroke="midnightblue" points="1312.93,-15.26 1322.87,-11.6 1312.82,-8.26 1312.93,-15.26"/>
</g>
<!-- Node42&#45;&gt;Node14 -->
<g id="edge82" class="edge">
<title>Node42&#45;&gt;Node14</title>
<path fill="none" stroke="midnightblue" d="M830.79,-184.94C782.05,-173.24 694.64,-152.28 641.18,-139.46"/>
<polygon fill="midnightblue" stroke="midnightblue" points="641.83,-136.01 631.29,-137.08 640.19,-142.82 641.83,-136.01"/>
</g>
<!-- Node42&#45;&gt;Node15 -->
<g id="edge80" class="edge">
<title>Node42&#45;&gt;Node15</title>
<path fill="none" stroke="midnightblue" d="M916.44,-184.94C985.84,-173.03 1111.27,-151.52 1185.61,-138.77"/>
<polygon fill="midnightblue" stroke="midnightblue" points="1186.49,-142.17 1195.75,-137.03 1185.31,-135.27 1186.49,-142.17"/>
</g>
</g>
</svg>
