<?xml version="1.0" encoding="UTF-8" standalone="no"?>
<!DOCTYPE svg PUBLIC "-//W3C//DTD SVG 1.1//EN"
 "http://www.w3.org/Graphics/SVG/1.1/DTD/svg11.dtd">
<!-- Generated by graphviz version 2.43.0 (0)
 -->
<!-- Title: PDEHelpers.H Pages: 1 -->
<!--zoomable 263 -->
<svg id="main" version="1.1" xmlns="http://www.w3.org/2000/svg" xmlns:xlink="http://www.w3.org/1999/xlink" xml:space="preserve" onload="init(evt)">
<style type="text/css"><![CDATA[
.edge:hover path { stroke: red; }
.edge:hover polygon { stroke: red; fill: red; }
]]></style>
<script type="text/javascript"><![CDATA[
var edges = document.getElementsByTagName('g');
if (edges && edges.length) {
  for (var i=0;i<edges.length;i++) {
    if (edges[i].id.substr(0,4)=='edge') {
      edges[i].setAttribute('class','edge');
    }
  }
}
]]></script>
        <defs>
                <circle id="rim" cx="0" cy="0" r="7"/>
                <circle id="rim2" cx="0" cy="0" r="3.5"/>
                <g id="zoomPlus">
                        <use xlink:href="#rim" fill="#404040">
                                <set attributeName="fill" to="#808080" begin="zoomplus.mouseover" end="zoomplus.mouseout"/>
                        </use>
                        <path d="M-4,0h8M0,-4v8" fill="none" stroke="white" stroke-width="1.5" pointer-events="none"/>
                </g>
                <g id="zoomMin">
                        <use xlink:href="#rim" fill="#404040">
                                <set attributeName="fill" to="#808080" begin="zoomminus.mouseover" end="zoomminus.mouseout"/>
                        </use>
                        <path d="M-4,0h8" fill="none" stroke="white" stroke-width="1.5" pointer-events="none"/>
                </g>
                <g id="dirArrow">
                        <path fill="none" stroke="white" stroke-width="1.5" d="M0,-3.0v7 M-2.5,-0.5L0,-3.0L2.5,-0.5"/>
                </g>
               <g id="resetDef">
                       <use xlink:href="#rim2" fill="#404040">
                               <set attributeName="fill" to="#808080" begin="reset.mouseover" end="reset.mouseout"/>
                       </use>
               </g>
        </defs>

<script type="text/javascript">
var viewWidth = 2530;
var viewHeight = 263;
var sectionId = 'dynsection-0';
</script>
<script xlink:href="svgpan.js"/>
<svg id="graph" class="graph">
<g id="viewport">
<title>PDEHelpers.H</title>
<polygon fill="white" stroke="transparent" points="-4,4 -4,-259 2525.75,-259 2525.75,4 -4,4"/>
<!-- Node1 -->
<g id="node1" class="node">
<title>Node1</title>
<g id="a_node1"><a xlink:title=" ">
<polygon fill="#bfbfbf" stroke="black" points="1765.75,-235.5 1765.75,-254.5 1849.75,-254.5 1849.75,-235.5 1765.75,-235.5"/>
<text text-anchor="middle" x="1807.75" y="-242.5" font-family="Helvetica,sans-Serif" font-size="10.00">PDEHelpers.H</text>
</a>
</g>
</g>
<!-- Node2 -->
<g id="node2" class="node">
<title>Node2</title>
<g id="a_node2"><a xlink:title=" ">
<polygon fill="white" stroke="#bfbfbf" points="181.75,-0.5 181.75,-19.5 225.75,-19.5 225.75,-0.5 181.75,-0.5"/>
<text text-anchor="middle" x="203.75" y="-7.5" font-family="Helvetica,sans-Serif" font-size="10.00">string</text>
</a>
</g>
</g>
<!-- Node1&#45;&gt;Node2 -->
<g id="edge1" class="edge">
<title>Node1&#45;&gt;Node2</title>
<path fill="none" stroke="midnightblue" d="M1765.72,-243.69C1512.43,-241.52 195.24,-225.75 44.75,-132 13.03,-112.24 -14.52,-85.25 8.75,-56 28.74,-30.87 121.53,-18.57 171.57,-13.67"/>
<polygon fill="midnightblue" stroke="midnightblue" points="171.92,-17.15 181.55,-12.74 171.27,-10.18 171.92,-17.15"/>
</g>
<!-- Node3 -->
<g id="node3" class="node">
<title>Node3</title>
<g id="a_node3"><a xlink:href="_p_d_e_fields_8_h.html" target="_top" xlink:title=" ">
<polygon fill="white" stroke="black" points="2273.25,-168.5 2273.25,-198.5 2428.25,-198.5 2428.25,-168.5 2273.25,-168.5"/>
<text text-anchor="start" x="2281.25" y="-186.5" font-family="Helvetica,sans-Serif" font-size="10.00">amr&#45;wind/equation_systems</text>
<text text-anchor="middle" x="2350.75" y="-175.5" font-family="Helvetica,sans-Serif" font-size="10.00">/PDEFields.H</text>
</a>
</g>
</g>
<!-- Node1&#45;&gt;Node3 -->
<g id="edge2" class="edge">
<title>Node1&#45;&gt;Node3</title>
<path fill="none" stroke="midnightblue" d="M1849.91,-239.38C1938.28,-229.7 2144.54,-207.1 2262.97,-194.12"/>
<polygon fill="midnightblue" stroke="midnightblue" points="2263.53,-197.58 2273.09,-193.01 2262.77,-190.62 2263.53,-197.58"/>
</g>
<!-- Node5 -->
<g id="node5" class="node">
<title>Node5</title>
<g id="a_node5"><a xlink:href="_sim_time_8_h.html" target="_top" xlink:title=" ">
<polygon fill="white" stroke="black" points="2042.75,-112.5 2042.75,-131.5 2186.75,-131.5 2186.75,-112.5 2042.75,-112.5"/>
<text text-anchor="middle" x="2114.75" y="-119.5" font-family="Helvetica,sans-Serif" font-size="10.00">amr&#45;wind/core/SimTime.H</text>
</a>
</g>
</g>
<!-- Node1&#45;&gt;Node5 -->
<g id="edge4" class="edge">
<title>Node1&#45;&gt;Node5</title>
<path fill="none" stroke="midnightblue" d="M1849.88,-240.6C1913.2,-234.84 2029.14,-221.52 2063.75,-199 2085.13,-185.09 2099.74,-158.75 2107.68,-141.03"/>
<polygon fill="midnightblue" stroke="midnightblue" points="2110.93,-142.33 2111.58,-131.76 2104.47,-139.62 2110.93,-142.33"/>
</g>
<!-- Node9 -->
<g id="node9" class="node">
<title>Node9</title>
<g id="a_node9"><a xlink:href="_field_repo_8_h.html" target="_top" xlink:title=" ">
<polygon fill="white" stroke="black" points="635.25,-174 635.25,-193 784.25,-193 784.25,-174 635.25,-174"/>
<text text-anchor="middle" x="709.75" y="-181" font-family="Helvetica,sans-Serif" font-size="10.00">amr&#45;wind/core/FieldRepo.H</text>
</a>
</g>
</g>
<!-- Node1&#45;&gt;Node9 -->
<g id="edge8" class="edge">
<title>Node1&#45;&gt;Node9</title>
<path fill="none" stroke="midnightblue" d="M1765.71,-241.72C1603.46,-232.93 1016.03,-201.1 794.81,-189.11"/>
<polygon fill="midnightblue" stroke="midnightblue" points="794.73,-185.6 784.55,-188.55 794.35,-192.59 794.73,-185.6"/>
</g>
<!-- Node29 -->
<g id="node29" class="node">
<title>Node29</title>
<g id="a_node29"><a xlink:href="_field_fill_patch_ops_8_h.html" target="_top" xlink:title=" ">
<polygon fill="white" stroke="black" points="1413.75,-168.5 1413.75,-198.5 1567.75,-198.5 1567.75,-168.5 1413.75,-168.5"/>
<text text-anchor="start" x="1421.75" y="-186.5" font-family="Helvetica,sans-Serif" font-size="10.00">amr&#45;wind/core/FieldFillPatch</text>
<text text-anchor="middle" x="1490.75" y="-175.5" font-family="Helvetica,sans-Serif" font-size="10.00">Ops.H</text>
</a>
</g>
</g>
<!-- Node1&#45;&gt;Node29 -->
<g id="edge46" class="edge">
<title>Node1&#45;&gt;Node29</title>
<path fill="none" stroke="midnightblue" d="M1765.65,-236.1C1717.39,-227.04 1637.05,-211.96 1575.64,-200.43"/>
<polygon fill="midnightblue" stroke="midnightblue" points="1576.05,-196.95 1565.57,-198.54 1574.76,-203.83 1576.05,-196.95"/>
</g>
<!-- Node31 -->
<g id="node31" class="node">
<title>Node31</title>
<g id="a_node31"><a xlink:href="_field_b_c_ops_8_h.html" target="_top" xlink:title=" ">
<polygon fill="white" stroke="black" points="1898.75,-174 1898.75,-193 2054.75,-193 2054.75,-174 1898.75,-174"/>
<text text-anchor="middle" x="1976.75" y="-181" font-family="Helvetica,sans-Serif" font-size="10.00">amr&#45;wind/core/FieldBCOps.H</text>
</a>
</g>
</g>
<!-- Node1&#45;&gt;Node31 -->
<g id="edge56" class="edge">
<title>Node1&#45;&gt;Node31</title>
<path fill="none" stroke="midnightblue" d="M1831.96,-235.48C1861.08,-225.22 1910.12,-207.96 1942.95,-196.4"/>
<polygon fill="midnightblue" stroke="midnightblue" points="1944.31,-199.63 1952.58,-193.01 1941.99,-193.03 1944.31,-199.63"/>
</g>
<!-- Node4 -->
<g id="node4" class="node">
<title>Node4</title>
<g id="a_node4"><a xlink:title=" ">
<polygon fill="white" stroke="#bfbfbf" points="2473.75,-112.5 2473.75,-131.5 2521.75,-131.5 2521.75,-112.5 2473.75,-112.5"/>
<text text-anchor="middle" x="2497.75" y="-119.5" font-family="Helvetica,sans-Serif" font-size="10.00">iosfwd</text>
</a>
</g>
</g>
<!-- Node3&#45;&gt;Node4 -->
<g id="edge3" class="edge">
<title>Node3&#45;&gt;Node4</title>
<path fill="none" stroke="midnightblue" d="M2385.59,-168.4C2410.25,-158.42 2443.03,-145.15 2466.78,-135.53"/>
<polygon fill="midnightblue" stroke="midnightblue" points="2468.4,-138.65 2476.36,-131.66 2465.78,-132.17 2468.4,-138.65"/>
</g>
<!-- Node6 -->
<g id="node6" class="node">
<title>Node6</title>
<g id="a_node6"><a xlink:title=" ">
<polygon fill="white" stroke="#bfbfbf" points="1899.75,-56.5 1899.75,-75.5 1991.75,-75.5 1991.75,-56.5 1899.75,-56.5"/>
<text text-anchor="middle" x="1945.75" y="-63.5" font-family="Helvetica,sans-Serif" font-size="10.00">AMReX_REAL.H</text>
</a>
</g>
</g>
<!-- Node5&#45;&gt;Node6 -->
<g id="edge5" class="edge">
<title>Node5&#45;&gt;Node6</title>
<path fill="none" stroke="midnightblue" d="M2087.97,-112.44C2059.42,-103.32 2014.02,-88.81 1982.21,-78.65"/>
<polygon fill="midnightblue" stroke="midnightblue" points="1982.99,-75.23 1972.4,-75.52 1980.86,-81.89 1982.99,-75.23"/>
</g>
<!-- Node7 -->
<g id="node7" class="node">
<title>Node7</title>
<g id="a_node7"><a xlink:title=" ">
<polygon fill="white" stroke="#bfbfbf" points="2047.75,-56.5 2047.75,-75.5 2181.75,-75.5 2181.75,-56.5 2047.75,-56.5"/>
<text text-anchor="middle" x="2114.75" y="-63.5" font-family="Helvetica,sans-Serif" font-size="10.00">AMReX_GpuQualifiers.H</text>
</a>
</g>
</g>
<!-- Node5&#45;&gt;Node7 -->
<g id="edge6" class="edge">
<title>Node5&#45;&gt;Node7</title>
<path fill="none" stroke="midnightblue" d="M2114.75,-112.08C2114.75,-105.01 2114.75,-94.86 2114.75,-85.99"/>
<polygon fill="midnightblue" stroke="midnightblue" points="2118.25,-85.75 2114.75,-75.75 2111.25,-85.75 2118.25,-85.75"/>
</g>
<!-- Node8 -->
<g id="node8" class="node">
<title>Node8</title>
<g id="a_node8"><a xlink:title=" ">
<polygon fill="white" stroke="#bfbfbf" points="2199.75,-56.5 2199.75,-75.5 2315.75,-75.5 2315.75,-56.5 2199.75,-56.5"/>
<text text-anchor="middle" x="2257.75" y="-63.5" font-family="Helvetica,sans-Serif" font-size="10.00">AMReX_Extension.H</text>
</a>
</g>
</g>
<!-- Node5&#45;&gt;Node8 -->
<g id="edge7" class="edge">
<title>Node5&#45;&gt;Node8</title>
<path fill="none" stroke="midnightblue" d="M2137.41,-112.44C2161.15,-103.48 2198.66,-89.31 2225.49,-79.18"/>
<polygon fill="midnightblue" stroke="midnightblue" points="2227.08,-82.32 2235.2,-75.52 2224.61,-75.77 2227.08,-82.32"/>
</g>
<!-- Node9&#45;&gt;Node2 -->
<g id="edge9" class="edge">
<title>Node9&#45;&gt;Node2</title>
<path fill="none" stroke="midnightblue" d="M635.22,-181.15C494.43,-177.8 194.8,-166.73 97.75,-132 56.54,-117.26 37.07,-114.76 16.75,-76 -14.27,-16.85 109.56,-10.04 171.02,-10.2"/>
<polygon fill="midnightblue" stroke="midnightblue" points="171.34,-13.7 181.37,-10.29 171.4,-6.7 171.34,-13.7"/>
</g>
<!-- Node10 -->
<g id="node10" class="node">
<title>Node10</title>
<g id="a_node10"><a xlink:title=" ">
<polygon fill="white" stroke="#bfbfbf" points="766.25,-56.5 766.25,-75.5 859.25,-75.5 859.25,-56.5 766.25,-56.5"/>
<text text-anchor="middle" x="812.75" y="-63.5" font-family="Helvetica,sans-Serif" font-size="10.00">unordered_map</text>
</a>
</g>
</g>
<!-- Node9&#45;&gt;Node10 -->
<g id="edge10" class="edge">
<title>Node9&#45;&gt;Node10</title>
<path fill="none" stroke="midnightblue" d="M716.11,-173.99C726.34,-160.47 747.26,-133.42 766.75,-112 775.96,-101.88 786.89,-91.14 795.78,-82.69"/>
<polygon fill="midnightblue" stroke="midnightblue" points="798.37,-85.06 803.27,-75.66 793.58,-79.95 798.37,-85.06"/>
</g>
<!-- Node11 -->
<g id="node11" class="node">
<title>Node11</title>
<g id="a_node11"><a xlink:href="_field_desc_types_8_h.html" target="_top" xlink:title=" ">
<polygon fill="white" stroke="black" points="592.75,-0.5 592.75,-19.5 768.75,-19.5 768.75,-0.5 592.75,-0.5"/>
<text text-anchor="middle" x="680.75" y="-7.5" font-family="Helvetica,sans-Serif" font-size="10.00">amr&#45;wind/core/FieldDescTypes.H</text>
</a>
</g>
</g>
<!-- Node9&#45;&gt;Node11 -->
<g id="edge11" class="edge">
<title>Node9&#45;&gt;Node11</title>
<path fill="none" stroke="midnightblue" d="M706.87,-173.66C703.71,-163.65 698.7,-146.81 695.75,-132 688.6,-96.14 684.27,-53.59 682.21,-29.7"/>
<polygon fill="midnightblue" stroke="midnightblue" points="685.68,-29.26 681.38,-19.58 678.71,-29.83 685.68,-29.26"/>
</g>
<!-- Node12 -->
<g id="node12" class="node">
<title>Node12</title>
<g id="a_node12"><a xlink:href="_field_utils_8_h.html" target="_top" xlink:title=" ">
<polygon fill="white" stroke="black" points="903.75,-112.5 903.75,-131.5 1049.75,-131.5 1049.75,-112.5 903.75,-112.5"/>
<text text-anchor="middle" x="976.75" y="-119.5" font-family="Helvetica,sans-Serif" font-size="10.00">amr&#45;wind/core/FieldUtils.H</text>
</a>
</g>
</g>
<!-- Node9&#45;&gt;Node12 -->
<g id="edge12" class="edge">
<title>Node9&#45;&gt;Node12</title>
<path fill="none" stroke="midnightblue" d="M748,-173.98C795.59,-163.37 876.86,-145.26 928.62,-133.72"/>
<polygon fill="midnightblue" stroke="midnightblue" points="929.57,-137.1 938.57,-131.51 928.04,-130.27 929.57,-137.1"/>
</g>
<!-- Node13 -->
<g id="node13" class="node">
<title>Node13</title>
<g id="a_node13"><a xlink:title=" ">
<polygon fill="white" stroke="#bfbfbf" points="890.25,-0.5 890.25,-19.5 999.25,-19.5 999.25,-0.5 890.25,-0.5"/>
<text text-anchor="middle" x="944.75" y="-7.5" font-family="Helvetica,sans-Serif" font-size="10.00">AMReX_MultiFab.H</text>
</a>
</g>
</g>
<!-- Node9&#45;&gt;Node13 -->
<g id="edge44" class="edge">
<title>Node9&#45;&gt;Node13</title>
<path fill="none" stroke="midnightblue" d="M710.27,-173.91C712.12,-151.02 720.45,-88.16 756.75,-56 775,-39.83 833.12,-27.51 879.96,-19.89"/>
<polygon fill="midnightblue" stroke="midnightblue" points="880.74,-23.31 890.07,-18.29 879.65,-16.4 880.74,-23.31"/>
</g>
<!-- Node15 -->
<g id="node15" class="node">
<title>Node15</title>
<g id="a_node15"><a xlink:href="_field_8_h.html" target="_top" xlink:title=" ">
<polygon fill="white" stroke="black" points="1259.75,-112.5 1259.75,-131.5 1383.75,-131.5 1383.75,-112.5 1259.75,-112.5"/>
<text text-anchor="middle" x="1321.75" y="-119.5" font-family="Helvetica,sans-Serif" font-size="10.00">amr&#45;wind/core/Field.H</text>
</a>
</g>
</g>
<!-- Node9&#45;&gt;Node15 -->
<g id="edge16" class="edge">
<title>Node9&#45;&gt;Node15</title>
<path fill="none" stroke="midnightblue" d="M784.51,-176.25C888.8,-167.36 1083.84,-150.12 1249.75,-132 1249.85,-131.99 1249.95,-131.98 1250.05,-131.97"/>
<polygon fill="midnightblue" stroke="midnightblue" points="1250.17,-135.48 1259.71,-130.88 1249.38,-128.52 1250.17,-135.48"/>
</g>
<!-- Node23 -->
<g id="node23" class="node">
<title>Node23</title>
<g id="a_node23"><a xlink:href="_int_field_8_h.html" target="_top" xlink:title=" ">
<polygon fill="white" stroke="black" points="129.25,-112.5 129.25,-131.5 266.25,-131.5 266.25,-112.5 129.25,-112.5"/>
<text text-anchor="middle" x="197.75" y="-119.5" font-family="Helvetica,sans-Serif" font-size="10.00">amr&#45;wind/core/IntField.H</text>
</a>
</g>
</g>
<!-- Node9&#45;&gt;Node23 -->
<g id="edge31" class="edge">
<title>Node9&#45;&gt;Node23</title>
<path fill="none" stroke="midnightblue" d="M636.39,-173.98C540.92,-162.88 374.73,-143.57 276.62,-132.17"/>
<polygon fill="midnightblue" stroke="midnightblue" points="276.8,-128.66 266.47,-130.99 275.99,-135.62 276.8,-128.66"/>
</g>
<!-- Node24 -->
<g id="node24" class="node">
<title>Node24</title>
<g id="a_node24"><a xlink:title=" ">
<polygon fill="white" stroke="#bfbfbf" points="25.75,-56.5 25.75,-75.5 137.75,-75.5 137.75,-56.5 25.75,-56.5"/>
<text text-anchor="middle" x="81.75" y="-63.5" font-family="Helvetica,sans-Serif" font-size="10.00">AMReX_iMultiFab.H</text>
</a>
</g>
</g>
<!-- Node9&#45;&gt;Node24 -->
<g id="edge45" class="edge">
<title>Node9&#45;&gt;Node24</title>
<path fill="none" stroke="midnightblue" d="M635.02,-179.92C485.97,-174.24 162.36,-158.93 119.75,-132 103.03,-121.44 92.8,-100.66 87.23,-85.43"/>
<polygon fill="midnightblue" stroke="midnightblue" points="90.43,-83.94 83.97,-75.54 83.78,-86.14 90.43,-83.94"/>
</g>
<!-- Node25 -->
<g id="node25" class="node">
<title>Node25</title>
<g id="a_node25"><a xlink:href="_scratch_field_8_h.html" target="_top" xlink:title=" ">
<polygon fill="white" stroke="black" points="390.75,-112.5 390.75,-131.5 550.75,-131.5 550.75,-112.5 390.75,-112.5"/>
<text text-anchor="middle" x="470.75" y="-119.5" font-family="Helvetica,sans-Serif" font-size="10.00">amr&#45;wind/core/ScratchField.H</text>
</a>
</g>
</g>
<!-- Node9&#45;&gt;Node25 -->
<g id="edge35" class="edge">
<title>Node9&#45;&gt;Node25</title>
<path fill="none" stroke="midnightblue" d="M675.51,-173.98C633.18,-163.44 561.07,-145.49 514.7,-133.94"/>
<polygon fill="midnightblue" stroke="midnightblue" points="515.48,-130.53 504.93,-131.51 513.79,-137.32 515.48,-130.53"/>
</g>
<!-- Node28 -->
<g id="node28" class="node">
<title>Node28</title>
<g id="a_node28"><a xlink:title=" ">
<polygon fill="white" stroke="#bfbfbf" points="775.75,-112.5 775.75,-131.5 885.75,-131.5 885.75,-112.5 775.75,-112.5"/>
<text text-anchor="middle" x="830.75" y="-119.5" font-family="Helvetica,sans-Serif" font-size="10.00">AMReX_AmrCore.H</text>
</a>
</g>
</g>
<!-- Node9&#45;&gt;Node28 -->
<g id="edge43" class="edge">
<title>Node9&#45;&gt;Node28</title>
<path fill="none" stroke="midnightblue" d="M727.09,-173.98C747.3,-164.03 780.94,-147.49 804.39,-135.96"/>
<polygon fill="midnightblue" stroke="midnightblue" points="806.02,-139.06 813.45,-131.51 802.93,-132.78 806.02,-139.06"/>
</g>
<!-- Node12&#45;&gt;Node11 -->
<g id="edge13" class="edge">
<title>Node12&#45;&gt;Node11</title>
<path fill="none" stroke="midnightblue" d="M918.7,-112.5C863.46,-103.81 784.73,-89.67 756.75,-76 732.27,-64.03 709.24,-42.31 695.09,-27.29"/>
<polygon fill="midnightblue" stroke="midnightblue" points="697.51,-24.76 688.18,-19.74 692.35,-29.48 697.51,-24.76"/>
</g>
<!-- Node12&#45;&gt;Node13 -->
<g id="edge14" class="edge">
<title>Node12&#45;&gt;Node13</title>
<path fill="none" stroke="midnightblue" d="M987.25,-112.16C1000.77,-99.64 1021.34,-76.04 1010.75,-56 1003.33,-41.95 989.33,-31.47 976.13,-24.17"/>
<polygon fill="midnightblue" stroke="midnightblue" points="977.71,-21.04 967.21,-19.62 974.53,-27.28 977.71,-21.04"/>
</g>
<!-- Node14 -->
<g id="node14" class="node">
<title>Node14</title>
<g id="a_node14"><a xlink:title=" ">
<polygon fill="white" stroke="#bfbfbf" points="877.75,-56.5 877.75,-75.5 1001.75,-75.5 1001.75,-56.5 877.75,-56.5"/>
<text text-anchor="middle" x="939.75" y="-63.5" font-family="Helvetica,sans-Serif" font-size="10.00">AMReX_Interpolater.H</text>
</a>
</g>
</g>
<!-- Node12&#45;&gt;Node14 -->
<g id="edge15" class="edge">
<title>Node12&#45;&gt;Node14</title>
<path fill="none" stroke="midnightblue" d="M970.64,-112.08C965.47,-104.53 957.9,-93.49 951.56,-84.23"/>
<polygon fill="midnightblue" stroke="midnightblue" points="954.29,-82.02 945.75,-75.75 948.51,-85.98 954.29,-82.02"/>
</g>
<!-- Node15&#45;&gt;Node2 -->
<g id="edge17" class="edge">
<title>Node15&#45;&gt;Node2</title>
<path fill="none" stroke="midnightblue" d="M1259.73,-112.93C1256.36,-112.59 1253.01,-112.28 1249.75,-112 890.23,-81.6 795.11,-132.45 438.75,-76 364.66,-64.26 280.55,-37.63 235.78,-22.35"/>
<polygon fill="midnightblue" stroke="midnightblue" points="236.66,-18.95 226.06,-19 234.37,-25.57 236.66,-18.95"/>
</g>
<!-- Node15&#45;&gt;Node10 -->
<g id="edge19" class="edge">
<title>Node15&#45;&gt;Node10</title>
<path fill="none" stroke="midnightblue" d="M1259.71,-113.12C1256.34,-112.73 1253.01,-112.36 1249.75,-112 1083.9,-93.8 1039.16,-97.36 869.49,-76.01"/>
<polygon fill="midnightblue" stroke="midnightblue" points="869.83,-72.53 859.47,-74.74 868.95,-79.47 869.83,-72.53"/>
</g>
<!-- Node15&#45;&gt;Node11 -->
<g id="edge25" class="edge">
<title>Node15&#45;&gt;Node11</title>
<path fill="none" stroke="midnightblue" d="M1271.14,-112.48C1230.86,-104.98 1173.37,-92.65 1124.75,-76 1104.81,-69.17 1102.04,-61.69 1081.75,-56 981.06,-27.75 861.46,-17.14 779.23,-13.21"/>
<polygon fill="midnightblue" stroke="midnightblue" points="779.28,-9.71 769.14,-12.75 778.97,-16.7 779.28,-9.71"/>
</g>
<!-- Node15&#45;&gt;Node13 -->
<g id="edge21" class="edge">
<title>Node15&#45;&gt;Node13</title>
<path fill="none" stroke="midnightblue" d="M1383.95,-117.93C1446.57,-113.38 1536.95,-102.33 1558.75,-76 1564.42,-69.15 1564.8,-62.51 1558.75,-56 1521.94,-16.39 1159.7,-11.28 1009.5,-10.88"/>
<polygon fill="midnightblue" stroke="midnightblue" points="1009.49,-7.38 999.48,-10.86 1009.48,-14.38 1009.49,-7.38"/>
</g>
<!-- Node16 -->
<g id="node16" class="node">
<title>Node16</title>
<g id="a_node16"><a xlink:title=" ">
<polygon fill="white" stroke="#bfbfbf" points="1133.75,-56.5 1133.75,-75.5 1191.75,-75.5 1191.75,-56.5 1133.75,-56.5"/>
<text text-anchor="middle" x="1162.75" y="-63.5" font-family="Helvetica,sans-Serif" font-size="10.00">memory</text>
</a>
</g>
</g>
<!-- Node15&#45;&gt;Node16 -->
<g id="edge18" class="edge">
<title>Node15&#45;&gt;Node16</title>
<path fill="none" stroke="midnightblue" d="M1296.56,-112.44C1269.81,-103.36 1227.35,-88.94 1197.44,-78.78"/>
<polygon fill="midnightblue" stroke="midnightblue" points="1198.42,-75.42 1187.83,-75.52 1196.17,-82.05 1198.42,-75.42"/>
</g>
<!-- Node17 -->
<g id="node17" class="node">
<title>Node17</title>
<g id="a_node17"><a xlink:title=" ">
<polygon fill="white" stroke="#bfbfbf" points="1209.75,-56.5 1209.75,-75.5 1273.75,-75.5 1273.75,-56.5 1209.75,-56.5"/>
<text text-anchor="middle" x="1241.75" y="-63.5" font-family="Helvetica,sans-Serif" font-size="10.00">algorithm</text>
</a>
</g>
</g>
<!-- Node15&#45;&gt;Node17 -->
<g id="edge20" class="edge">
<title>Node15&#45;&gt;Node17</title>
<path fill="none" stroke="midnightblue" d="M1308.9,-112.32C1296.53,-103.98 1277.62,-91.21 1263.01,-81.35"/>
<polygon fill="midnightblue" stroke="midnightblue" points="1264.82,-78.35 1254.57,-75.65 1260.9,-84.15 1264.82,-78.35"/>
</g>
<!-- Node18 -->
<g id="node18" class="node">
<title>Node18</title>
<g id="a_node18"><a xlink:title=" ">
<polygon fill="white" stroke="#bfbfbf" points="1292.25,-56.5 1292.25,-75.5 1391.25,-75.5 1391.25,-56.5 1292.25,-56.5"/>
<text text-anchor="middle" x="1341.75" y="-63.5" font-family="Helvetica,sans-Serif" font-size="10.00">AMReX_BCRec.H</text>
</a>
</g>
</g>
<!-- Node15&#45;&gt;Node18 -->
<g id="edge22" class="edge">
<title>Node15&#45;&gt;Node18</title>
<path fill="none" stroke="midnightblue" d="M1325.05,-112.08C1327.73,-104.85 1331.6,-94.41 1334.94,-85.4"/>
<polygon fill="midnightblue" stroke="midnightblue" points="1338.32,-86.34 1338.51,-75.75 1331.75,-83.91 1338.32,-86.34"/>
</g>
<!-- Node19 -->
<g id="node19" class="node">
<title>Node19</title>
<g id="a_node19"><a xlink:title=" ">
<polygon fill="white" stroke="#bfbfbf" points="1756.25,-56.5 1756.25,-75.5 1843.25,-75.5 1843.25,-56.5 1756.25,-56.5"/>
<text text-anchor="middle" x="1799.75" y="-63.5" font-family="Helvetica,sans-Serif" font-size="10.00">AMReX_Gpu.H</text>
</a>
</g>
</g>
<!-- Node15&#45;&gt;Node19 -->
<g id="edge23" class="edge">
<title>Node15&#45;&gt;Node19</title>
<path fill="none" stroke="midnightblue" d="M1383.84,-115.66C1464.72,-108.42 1610.77,-94.42 1745.98,-76.02"/>
<polygon fill="midnightblue" stroke="midnightblue" points="1746.68,-79.46 1756.11,-74.63 1745.73,-72.52 1746.68,-79.46"/>
</g>
<!-- Node20 -->
<g id="node20" class="node">
<title>Node20</title>
<g id="a_node20"><a xlink:href="incflo__enums_8_h.html" target="_top" xlink:title=" ">
<polygon fill="white" stroke="black" points="1409.25,-56.5 1409.25,-75.5 1550.25,-75.5 1550.25,-56.5 1409.25,-56.5"/>
<text text-anchor="middle" x="1479.75" y="-63.5" font-family="Helvetica,sans-Serif" font-size="10.00">amr&#45;wind/incflo_enums.H</text>
</a>
</g>
</g>
<!-- Node15&#45;&gt;Node20 -->
<g id="edge24" class="edge">
<title>Node15&#45;&gt;Node20</title>
<path fill="none" stroke="midnightblue" d="M1346.79,-112.44C1373.37,-103.36 1415.56,-88.94 1445.27,-78.78"/>
<polygon fill="midnightblue" stroke="midnightblue" points="1446.5,-82.06 1454.83,-75.52 1444.24,-75.44 1446.5,-82.06"/>
</g>
<!-- Node21 -->
<g id="node21" class="node">
<title>Node21</title>
<g id="a_node21"><a xlink:href="_view_field_8_h.html" target="_top" xlink:title=" ">
<polygon fill="white" stroke="black" points="447.75,-56.5 447.75,-75.5 595.75,-75.5 595.75,-56.5 447.75,-56.5"/>
<text text-anchor="middle" x="521.75" y="-63.5" font-family="Helvetica,sans-Serif" font-size="10.00">amr&#45;wind/core/ViewField.H</text>
</a>
</g>
</g>
<!-- Node15&#45;&gt;Node21 -->
<g id="edge26" class="edge">
<title>Node15&#45;&gt;Node21</title>
<path fill="none" stroke="midnightblue" d="M1259.72,-113C1256.35,-112.64 1253.01,-112.3 1249.75,-112 1017.2,-90.3 741.84,-76.51 606.08,-70.5"/>
<polygon fill="midnightblue" stroke="midnightblue" points="605.9,-66.98 595.75,-70.04 605.59,-73.98 605.9,-66.98"/>
</g>
<!-- Node21&#45;&gt;Node2 -->
<g id="edge27" class="edge">
<title>Node21&#45;&gt;Node2</title>
<path fill="none" stroke="midnightblue" d="M471.36,-56.44C405.22,-45.21 291.05,-25.82 235.69,-16.42"/>
<polygon fill="midnightblue" stroke="midnightblue" points="236.19,-12.96 225.75,-14.74 235.02,-19.86 236.19,-12.96"/>
</g>
<!-- Node21&#45;&gt;Node11 -->
<g id="edge28" class="edge">
<title>Node21&#45;&gt;Node11</title>
<path fill="none" stroke="midnightblue" d="M546.94,-56.44C573.69,-47.36 616.15,-32.94 646.05,-22.78"/>
<polygon fill="midnightblue" stroke="midnightblue" points="647.33,-26.05 655.67,-19.52 645.08,-19.42 647.33,-26.05"/>
</g>
<!-- Node21&#45;&gt;Node13 -->
<g id="edge29" class="edge">
<title>Node21&#45;&gt;Node13</title>
<path fill="none" stroke="midnightblue" d="M588.78,-56.44C668.59,-46.25 800.99,-29.35 879.85,-19.28"/>
<polygon fill="midnightblue" stroke="midnightblue" points="880.67,-22.71 890.14,-17.97 879.78,-15.77 880.67,-22.71"/>
</g>
<!-- Node22 -->
<g id="node22" class="node">
<title>Node22</title>
<g id="a_node22"><a xlink:title=" ">
<polygon fill="white" stroke="#bfbfbf" points="383.75,-0.5 383.75,-19.5 481.75,-19.5 481.75,-0.5 383.75,-0.5"/>
<text text-anchor="middle" x="432.75" y="-7.5" font-family="Helvetica,sans-Serif" font-size="10.00">AMReX_Vector.H</text>
</a>
</g>
</g>
<!-- Node21&#45;&gt;Node22 -->
<g id="edge30" class="edge">
<title>Node21&#45;&gt;Node22</title>
<path fill="none" stroke="midnightblue" d="M507.45,-56.32C493.57,-47.9 472.26,-34.97 455.95,-25.07"/>
<polygon fill="midnightblue" stroke="midnightblue" points="457.38,-21.85 447.01,-19.65 453.75,-27.83 457.38,-21.85"/>
</g>
<!-- Node23&#45;&gt;Node2 -->
<g id="edge32" class="edge">
<title>Node23&#45;&gt;Node2</title>
<path fill="none" stroke="midnightblue" d="M195.13,-112.15C191.76,-99.62 186.71,-76.01 189.75,-56 191.12,-47 193.94,-37.33 196.69,-29.26"/>
<polygon fill="midnightblue" stroke="midnightblue" points="200.01,-30.37 200.15,-19.78 193.44,-27.98 200.01,-30.37"/>
</g>
<!-- Node23&#45;&gt;Node11 -->
<g id="edge33" class="edge">
<title>Node23&#45;&gt;Node11</title>
<path fill="none" stroke="midnightblue" d="M203.1,-112.42C212.67,-97.94 234.2,-68.95 260.75,-56 288.94,-42.25 467.04,-26.78 582.08,-18.03"/>
<polygon fill="midnightblue" stroke="midnightblue" points="582.61,-21.5 592.32,-17.26 582.09,-14.52 582.61,-21.5"/>
</g>
<!-- Node23&#45;&gt;Node24 -->
<g id="edge34" class="edge">
<title>Node23&#45;&gt;Node24</title>
<path fill="none" stroke="midnightblue" d="M179.37,-112.44C160.53,-103.68 131.02,-89.94 109.37,-79.86"/>
<polygon fill="midnightblue" stroke="midnightblue" points="110.59,-76.56 100.04,-75.52 107.63,-82.91 110.59,-76.56"/>
</g>
<!-- Node25&#45;&gt;Node2 -->
<g id="edge36" class="edge">
<title>Node25&#45;&gt;Node2</title>
<path fill="none" stroke="midnightblue" d="M390.61,-115.85C349.51,-110.33 299.97,-99.03 260.75,-76 241,-64.4 224.55,-43.54 214.47,-28.58"/>
<polygon fill="midnightblue" stroke="midnightblue" points="217.15,-26.27 208.8,-19.75 211.26,-30.06 217.15,-26.27"/>
</g>
<!-- Node25&#45;&gt;Node11 -->
<g id="edge38" class="edge">
<title>Node25&#45;&gt;Node11</title>
<path fill="none" stroke="midnightblue" d="M460.61,-112.26C446.46,-99.03 424.12,-73.6 438.75,-56 457.24,-33.75 523.89,-22.45 582.56,-16.74"/>
<polygon fill="midnightblue" stroke="midnightblue" points="583.02,-20.21 592.66,-15.8 582.38,-13.24 583.02,-20.21"/>
</g>
<!-- Node25&#45;&gt;Node13 -->
<g id="edge40" class="edge">
<title>Node25&#45;&gt;Node13</title>
<path fill="none" stroke="midnightblue" d="M501.79,-112.49C549.37,-99.55 643.31,-74.51 723.75,-56 779.86,-43.09 844.43,-30.16 889.22,-21.5"/>
<polygon fill="midnightblue" stroke="midnightblue" points="890.16,-24.88 899.32,-19.55 888.83,-18.01 890.16,-24.88"/>
</g>
<!-- Node25&#45;&gt;Node21 -->
<g id="edge39" class="edge">
<title>Node25&#45;&gt;Node21</title>
<path fill="none" stroke="midnightblue" d="M479.17,-112.08C486.6,-104.22 497.6,-92.57 506.56,-83.08"/>
<polygon fill="midnightblue" stroke="midnightblue" points="509.16,-85.42 513.48,-75.75 504.07,-80.62 509.16,-85.42"/>
</g>
<!-- Node25&#45;&gt;Node22 -->
<g id="edge41" class="edge">
<title>Node25&#45;&gt;Node22</title>
<path fill="none" stroke="midnightblue" d="M448.94,-112.45C433.8,-105.22 414.79,-93.26 405.75,-76 397.38,-60.02 407.64,-40.85 417.84,-27.48"/>
<polygon fill="midnightblue" stroke="midnightblue" points="420.65,-29.57 424.32,-19.63 415.26,-25.11 420.65,-29.57"/>
</g>
<!-- Node26 -->
<g id="node26" class="node">
<title>Node26</title>
<g id="a_node26"><a xlink:title=" ">
<polygon fill="white" stroke="#bfbfbf" points="270.25,-56.5 270.25,-75.5 315.25,-75.5 315.25,-56.5 270.25,-56.5"/>
<text text-anchor="middle" x="292.75" y="-63.5" font-family="Helvetica,sans-Serif" font-size="10.00">utility</text>
</a>
</g>
</g>
<!-- Node25&#45;&gt;Node26 -->
<g id="edge37" class="edge">
<title>Node25&#45;&gt;Node26</title>
<path fill="none" stroke="midnightblue" d="M442.54,-112.44C410.65,-102.77 358.81,-87.04 325.24,-76.86"/>
<polygon fill="midnightblue" stroke="midnightblue" points="326.04,-73.44 315.46,-73.89 324.01,-80.14 326.04,-73.44"/>
</g>
<!-- Node27 -->
<g id="node27" class="node">
<title>Node27</title>
<g id="a_node27"><a xlink:title=" ">
<polygon fill="white" stroke="#bfbfbf" points="1607.25,-56.5 1607.25,-75.5 1738.25,-75.5 1738.25,-56.5 1607.25,-56.5"/>
<text text-anchor="middle" x="1672.75" y="-63.5" font-family="Helvetica,sans-Serif" font-size="10.00">AMReX_PhysBCFunct.H</text>
</a>
</g>
</g>
<!-- Node25&#45;&gt;Node27 -->
<g id="edge42" class="edge">
<title>Node25&#45;&gt;Node27</title>
<path fill="none" stroke="midnightblue" d="M550.99,-118.71C731.26,-113.34 1182.04,-98.65 1558.75,-76 1571.1,-75.26 1584.2,-74.34 1596.94,-73.38"/>
<polygon fill="midnightblue" stroke="midnightblue" points="1597.37,-76.86 1607.07,-72.61 1596.83,-69.88 1597.37,-76.86"/>
</g>
<!-- Node29&#45;&gt;Node5 -->
<g id="edge48" class="edge">
<title>Node29&#45;&gt;Node5</title>
<path fill="none" stroke="midnightblue" d="M1567.89,-175.14C1686.19,-163.86 1911.42,-142.39 2032.64,-130.83"/>
<polygon fill="midnightblue" stroke="midnightblue" points="2032.99,-134.31 2042.61,-129.88 2032.32,-127.34 2032.99,-134.31"/>
</g>
<!-- Node29&#45;&gt;Node6 -->
<g id="edge53" class="edge">
<title>Node29&#45;&gt;Node6</title>
<path fill="none" stroke="midnightblue" d="M1567.84,-178.03C1664.39,-171.47 1823.62,-157.19 1876.75,-132 1900.12,-120.92 1920.8,-98.95 1933.28,-83.63"/>
<polygon fill="midnightblue" stroke="midnightblue" points="1936.23,-85.54 1939.65,-75.52 1930.72,-81.23 1936.23,-85.54"/>
</g>
<!-- Node29&#45;&gt;Node11 -->
<g id="edge49" class="edge">
<title>Node29&#45;&gt;Node11</title>
<path fill="none" stroke="midnightblue" d="M1413.55,-177.23C1317.76,-169.84 1160.47,-154.73 1106.75,-132 1056.63,-110.8 1060.82,-77.32 1010.75,-56 970.15,-38.71 860.65,-26.04 778.85,-18.63"/>
<polygon fill="midnightblue" stroke="midnightblue" points="779.04,-15.13 768.76,-17.73 778.41,-22.1 779.04,-15.13"/>
</g>
<!-- Node29&#45;&gt;Node12 -->
<g id="edge50" class="edge">
<title>Node29&#45;&gt;Node12</title>
<path fill="none" stroke="midnightblue" d="M1413.52,-173.56C1318.51,-162.56 1157.84,-143.96 1060.11,-132.65"/>
<polygon fill="midnightblue" stroke="midnightblue" points="1060.31,-129.15 1049.97,-131.48 1059.5,-136.1 1060.31,-129.15"/>
</g>
<!-- Node29&#45;&gt;Node13 -->
<g id="edge52" class="edge">
<title>Node29&#45;&gt;Node13</title>
<path fill="none" stroke="midnightblue" d="M1567.91,-179.88C1698.31,-172.93 1939.95,-147.63 1852.75,-56 1823.74,-25.52 1212.76,-14.59 1009.71,-11.79"/>
<polygon fill="midnightblue" stroke="midnightblue" points="1009.54,-8.29 999.49,-11.66 1009.45,-15.29 1009.54,-8.29"/>
</g>
<!-- Node29&#45;&gt;Node15 -->
<g id="edge47" class="edge">
<title>Node29&#45;&gt;Node15</title>
<path fill="none" stroke="midnightblue" d="M1450.7,-168.4C1421.84,-158.24 1383.3,-144.67 1355.9,-135.02"/>
<polygon fill="midnightblue" stroke="midnightblue" points="1356.94,-131.68 1346.34,-131.66 1354.61,-138.28 1356.94,-131.68"/>
</g>
<!-- Node29&#45;&gt;Node27 -->
<g id="edge54" class="edge">
<title>Node29&#45;&gt;Node27</title>
<path fill="none" stroke="midnightblue" d="M1513.07,-168.34C1548.09,-146.11 1615.58,-103.28 1650.54,-81.09"/>
<polygon fill="midnightblue" stroke="midnightblue" points="1652.52,-83.98 1659.09,-75.67 1648.77,-78.07 1652.52,-83.98"/>
</g>
<!-- Node29&#45;&gt;Node28 -->
<g id="edge51" class="edge">
<title>Node29&#45;&gt;Node28</title>
<path fill="none" stroke="midnightblue" d="M1413.46,-177.32C1301.63,-169.52 1087.95,-153.47 895.88,-132.07"/>
<polygon fill="midnightblue" stroke="midnightblue" points="896.21,-128.59 885.88,-130.95 895.43,-135.54 896.21,-128.59"/>
</g>
<!-- Node30 -->
<g id="node30" class="node">
<title>Node30</title>
<g id="a_node30"><a xlink:title=" ">
<polygon fill="white" stroke="#bfbfbf" points="1116.25,-112.5 1116.25,-131.5 1241.25,-131.5 1241.25,-112.5 1116.25,-112.5"/>
<text text-anchor="middle" x="1178.75" y="-119.5" font-family="Helvetica,sans-Serif" font-size="10.00">AMReX_FillPatchUtil.H</text>
</a>
</g>
</g>
<!-- Node29&#45;&gt;Node30 -->
<g id="edge55" class="edge">
<title>Node29&#45;&gt;Node30</title>
<path fill="none" stroke="midnightblue" d="M1417.2,-168.47C1360.79,-157.72 1284.19,-143.11 1233.2,-133.38"/>
<polygon fill="midnightblue" stroke="midnightblue" points="1233.83,-129.94 1223.35,-131.51 1232.52,-136.82 1233.83,-129.94"/>
</g>
<!-- Node31&#45;&gt;Node11 -->
<g id="edge57" class="edge">
<title>Node31&#45;&gt;Node11</title>
<path fill="none" stroke="midnightblue" d="M1982.8,-173.69C1997.72,-150.83 2032.78,-89.08 2000.75,-56 1957.44,-11.28 942.96,-22.4 880.75,-20 847.69,-18.72 811.56,-17.15 779.21,-15.68"/>
<polygon fill="midnightblue" stroke="midnightblue" points="779,-12.17 768.85,-15.21 778.68,-19.16 779,-12.17"/>
</g>
<!-- Node31&#45;&gt;Node15 -->
<g id="edge58" class="edge">
<title>Node31&#45;&gt;Node15</title>
<path fill="none" stroke="midnightblue" d="M1898.72,-175.41C1770.86,-163.8 1518.59,-140.88 1394.36,-129.6"/>
<polygon fill="midnightblue" stroke="midnightblue" points="1394.46,-126.09 1384.19,-128.67 1393.83,-133.06 1394.46,-126.09"/>
</g>
<!-- Node31&#45;&gt;Node19 -->
<g id="edge59" class="edge">
<title>Node31&#45;&gt;Node19</title>
<path fill="none" stroke="midnightblue" d="M1971.26,-173.94C1961.52,-159.36 1939.84,-129.58 1914.75,-112 1893.11,-96.83 1865.65,-85.84 1842.99,-78.52"/>
<polygon fill="midnightblue" stroke="midnightblue" points="1843.86,-75.13 1833.28,-75.51 1841.79,-81.81 1843.86,-75.13"/>
</g>
<!-- Node31&#45;&gt;Node27 -->
<g id="edge62" class="edge">
<title>Node31&#45;&gt;Node27</title>
<path fill="none" stroke="midnightblue" d="M1953.9,-173.82C1900.4,-153.49 1766.88,-102.76 1705.08,-79.28"/>
<polygon fill="midnightblue" stroke="midnightblue" points="1706.04,-75.9 1695.45,-75.62 1703.55,-82.45 1706.04,-75.9"/>
</g>
<!-- Node32 -->
<g id="node32" class="node">
<title>Node32</title>
<g id="a_node32"><a xlink:title=" ">
<polygon fill="white" stroke="#bfbfbf" points="2338.25,-112.5 2338.25,-131.5 2455.25,-131.5 2455.25,-112.5 2338.25,-112.5"/>
<text text-anchor="middle" x="2396.75" y="-119.5" font-family="Helvetica,sans-Serif" font-size="10.00">AMReX_FArrayBox.H</text>
</a>
</g>
</g>
<!-- Node31&#45;&gt;Node32 -->
<g id="edge60" class="edge">
<title>Node31&#45;&gt;Node32</title>
<path fill="none" stroke="midnightblue" d="M2036.93,-173.98C2113.93,-163.07 2247.01,-144.21 2327.95,-132.75"/>
<polygon fill="midnightblue" stroke="midnightblue" points="2328.63,-136.19 2338.04,-131.32 2327.65,-129.25 2328.63,-136.19"/>
</g>
<!-- Node33 -->
<g id="node33" class="node">
<title>Node33</title>
<g id="a_node33"><a xlink:title=" ">
<polygon fill="white" stroke="#bfbfbf" points="2205.25,-112.5 2205.25,-131.5 2320.25,-131.5 2320.25,-112.5 2205.25,-112.5"/>
<text text-anchor="middle" x="2262.75" y="-119.5" font-family="Helvetica,sans-Serif" font-size="10.00">AMReX_Geometry.H</text>
</a>
</g>
</g>
<!-- Node31&#45;&gt;Node33 -->
<g id="edge61" class="edge">
<title>Node31&#45;&gt;Node33</title>
<path fill="none" stroke="midnightblue" d="M2017.73,-173.98C2068.91,-163.33 2156.48,-145.11 2211.89,-133.58"/>
<polygon fill="midnightblue" stroke="midnightblue" points="2212.77,-136.97 2221.85,-131.51 2211.35,-130.12 2212.77,-136.97"/>
</g>
</g>
</svg>
        <g id="navigator" transform="translate(0 0)" fill="#404254">
                <rect fill="#f2f5e9" fill-opacity="0.5" stroke="#606060" stroke-width=".5" x="0" y="0" width="60" height="60"/>
                <use id="zoomplus" xlink:href="#zoomPlus" x="17" y="9" onmousedown="handleZoom(evt,'in')"/>
                <use id="zoomminus" xlink:href="#zoomMin" x="42" y="9" onmousedown="handleZoom(evt,'out')"/>
                <use id="reset" xlink:href="#resetDef" x="30" y="36" onmousedown="handleReset()"/>
                <g id="arrowUp" xlink:href="#dirArrow" transform="translate(30 24)" onmousedown="handlePan(0,-1)">
                  <use xlink:href="#rim" fill="#404040">
                        <set attributeName="fill" to="#808080" begin="arrowUp.mouseover" end="arrowUp.mouseout"/>
                  </use>
                  <path fill="none" stroke="white" stroke-width="1.5" d="M0,-3.0v7 M-2.5,-0.5L0,-3.0L2.5,-0.5"/>
                </g>
                <g id="arrowRight" xlink:href="#dirArrow" transform="rotate(90) translate(36 -43)" onmousedown="handlePan(1,0)">
                  <use xlink:href="#rim" fill="#404040">
                        <set attributeName="fill" to="#808080" begin="arrowRight.mouseover" end="arrowRight.mouseout"/>
                  </use>
                  <path fill="none" stroke="white" stroke-width="1.5" d="M0,-3.0v7 M-2.5,-0.5L0,-3.0L2.5,-0.5"/>
                </g>
                <g id="arrowDown" xlink:href="#dirArrow" transform="rotate(180) translate(-30 -48)" onmousedown="handlePan(0,1)">
                  <use xlink:href="#rim" fill="#404040">
                        <set attributeName="fill" to="#808080" begin="arrowDown.mouseover" end="arrowDown.mouseout"/>
                  </use>
                  <path fill="none" stroke="white" stroke-width="1.5" d="M0,-3.0v7 M-2.5,-0.5L0,-3.0L2.5,-0.5"/>
                </g>
                <g id="arrowLeft" xlink:href="#dirArrow" transform="rotate(270) translate(-36 17)" onmousedown="handlePan(-1,0)">
                  <use xlink:href="#rim" fill="#404040">
                        <set attributeName="fill" to="#808080" begin="arrowLeft.mouseover" end="arrowLeft.mouseout"/>
                  </use>
                  <path fill="none" stroke="white" stroke-width="1.5" d="M0,-3.0v7 M-2.5,-0.5L0,-3.0L2.5,-0.5"/>
                </g>
        </g>
        <svg viewBox="0 0 15 15" width="100%" height="30px" preserveAspectRatio="xMaxYMin meet">
         <g id="arrow_out" transform="scale(0.3 0.3)">
          <a xlink:href="_p_d_e_helpers_8_h__incl_org.svg" target="_base">
           <rect id="button" ry="5" rx="5" y="6" x="6" height="38" width="38"
                fill="#f2f5e9" fill-opacity="0.5" stroke="#606060" stroke-width="1.0"/>
           <path id="arrow"
             d="M 11.500037,31.436501 C 11.940474,20.09759 22.043105,11.32322 32.158766,21.979434 L 37.068811,17.246167 C 37.068811,17.246167 37.088388,32 37.088388,32 L 22.160133,31.978069 C 22.160133,31.978069 26.997745,27.140456 26.997745,27.140456 C 18.528582,18.264221 13.291696,25.230495 11.500037,31.436501 z"
             style="fill:#404040;"/>
          </a>
         </g>
        </svg>
</svg>
