<?xml version="1.0" encoding="UTF-8" standalone="no"?>
<!DOCTYPE svg PUBLIC "-//W3C//DTD SVG 1.1//EN"
 "http://www.w3.org/Graphics/SVG/1.1/DTD/svg11.dtd">
<!-- Generated by graphviz version 2.43.0 (0)
 -->
<!-- Title: PDEBase.H Pages: 1 -->
<!--zoomable 252 -->
<svg id="main" version="1.1" xmlns="http://www.w3.org/2000/svg" xmlns:xlink="http://www.w3.org/1999/xlink" xml:space="preserve" onload="init(evt)">
<style type="text/css"><![CDATA[
.edge:hover path { stroke: red; }
.edge:hover polygon { stroke: red; fill: red; }
]]></style>
<script type="text/javascript"><![CDATA[
var edges = document.getElementsByTagName('g');
if (edges && edges.length) {
  for (var i=0;i<edges.length;i++) {
    if (edges[i].id.substr(0,4)=='edge') {
      edges[i].setAttribute('class','edge');
    }
  }
}
]]></script>
        <defs>
                <circle id="rim" cx="0" cy="0" r="7"/>
                <circle id="rim2" cx="0" cy="0" r="3.5"/>
                <g id="zoomPlus">
                        <use xlink:href="#rim" fill="#404040">
                                <set attributeName="fill" to="#808080" begin="zoomplus.mouseover" end="zoomplus.mouseout"/>
                        </use>
                        <path d="M-4,0h8M0,-4v8" fill="none" stroke="white" stroke-width="1.5" pointer-events="none"/>
                </g>
                <g id="zoomMin">
                        <use xlink:href="#rim" fill="#404040">
                                <set attributeName="fill" to="#808080" begin="zoomminus.mouseover" end="zoomminus.mouseout"/>
                        </use>
                        <path d="M-4,0h8" fill="none" stroke="white" stroke-width="1.5" pointer-events="none"/>
                </g>
                <g id="dirArrow">
                        <path fill="none" stroke="white" stroke-width="1.5" d="M0,-3.0v7 M-2.5,-0.5L0,-3.0L2.5,-0.5"/>
                </g>
               <g id="resetDef">
                       <use xlink:href="#rim2" fill="#404040">
                               <set attributeName="fill" to="#808080" begin="reset.mouseover" end="reset.mouseout"/>
                       </use>
               </g>
        </defs>

<script type="text/javascript">
var viewWidth = 4530;
var viewHeight = 252;
var sectionId = 'dynsection-1';
</script>
<script xlink:href="svgpan.js"/>
<svg id="graph" class="graph">
<g id="viewport">
<title>PDEBase.H</title>
<polygon fill="white" stroke="transparent" points="-4,4 -4,-248 4525.5,-248 4525.5,4 -4,4"/>
<!-- Node1 -->
<g id="node1" class="node">
<title>Node1</title>
<g id="a_node1"><a xlink:title=" ">
<polygon fill="#bfbfbf" stroke="black" points="4114,-224.5 4114,-243.5 4185,-243.5 4185,-224.5 4114,-224.5"/>
<text text-anchor="middle" x="4149.5" y="-231.5" font-family="Helvetica,sans-Serif" font-size="10.00">PDEBase.H</text>
</a>
</g>
</g>
<!-- Node2 -->
<g id="node2" class="node">
<title>Node2</title>
<g id="a_node2"><a xlink:href="_c_f_d_sim_8_h.html" target="_top" xlink:title=" ">
<polygon fill="white" stroke="red" points="2413.5,-168.5 2413.5,-187.5 2479.5,-187.5 2479.5,-168.5 2413.5,-168.5"/>
<text text-anchor="middle" x="2446.5" y="-175.5" font-family="Helvetica,sans-Serif" font-size="10.00">CFDSim.H</text>
</a>
</g>
</g>
<!-- Node1&#45;&gt;Node2 -->
<g id="edge1" class="edge">
<title>Node1&#45;&gt;Node2</title>
<path fill="none" stroke="midnightblue" d="M4103.9,-231.55C3857.9,-223.75 2692.18,-186.79 2479.76,-180.05"/>
<polygon fill="midnightblue" stroke="midnightblue" points="4103.82,-235.05 4113.93,-231.87 4104.05,-228.06 4103.82,-235.05"/>
</g>
<!-- Node7 -->
<g id="node6" class="node">
<title>Node7</title>
<g id="a_node6"><a xlink:href="incflo_8cpp.html" target="_top" xlink:title=" ">
<polygon fill="white" stroke="black" points="0,-56.5 0,-75.5 63,-75.5 63,-56.5 0,-56.5"/>
<text text-anchor="middle" x="31.5" y="-63.5" font-family="Helvetica,sans-Serif" font-size="10.00">incflo.cpp</text>
</a>
</g>
</g>
<!-- Node1&#45;&gt;Node7 -->
<g id="edge57" class="edge">
<title>Node1&#45;&gt;Node7</title>
<path fill="none" stroke="midnightblue" d="M4103.77,-232.92C3665.85,-232.11 228.42,-224.57 130.5,-188 94.46,-174.54 88.34,-162.19 64.5,-132 50.22,-113.92 39.57,-88.7 34.6,-75.62"/>
<polygon fill="midnightblue" stroke="midnightblue" points="4103.83,-236.42 4113.84,-232.94 4103.85,-229.42 4103.83,-236.42"/>
</g>
<!-- Node8 -->
<g id="node7" class="node">
<title>Node8</title>
<g id="a_node7"><a xlink:href="incflo__advance_8cpp.html" target="_top" xlink:title=" ">
<polygon fill="white" stroke="black" points="110.5,-56.5 110.5,-75.5 220.5,-75.5 220.5,-56.5 110.5,-56.5"/>
<text text-anchor="middle" x="165.5" y="-63.5" font-family="Helvetica,sans-Serif" font-size="10.00">incflo_advance.cpp</text>
</a>
</g>
</g>
<!-- Node1&#45;&gt;Node8 -->
<g id="edge58" class="edge">
<title>Node1&#45;&gt;Node8</title>
<path fill="none" stroke="midnightblue" d="M4103.59,-232.84C3748.62,-231.56 1436.85,-221.97 738.5,-188 590.37,-180.8 173.87,-241.18 73.5,-132 50.8,-107.31 99.8,-86.53 134.63,-75.5"/>
<polygon fill="midnightblue" stroke="midnightblue" points="4103.74,-236.34 4113.75,-232.88 4103.76,-229.34 4103.74,-236.34"/>
</g>
<!-- Node34 -->
<g id="node9" class="node">
<title>Node34</title>
<g id="a_node9"><a xlink:href="_p_d_e_8_h.html" target="_top" xlink:title=" ">
<polygon fill="white" stroke="red" points="3877,-56.5 3877,-75.5 3924,-75.5 3924,-56.5 3877,-56.5"/>
<text text-anchor="middle" x="3900.5" y="-63.5" font-family="Helvetica,sans-Serif" font-size="10.00">PDE.H</text>
</a>
</g>
</g>
<!-- Node1&#45;&gt;Node34 -->
<g id="edge55" class="edge">
<title>Node1&#45;&gt;Node34</title>
<path fill="none" stroke="midnightblue" d="M4159.7,-215.61C4176.35,-186.12 4206.19,-127.96 4192.5,-112 4157.85,-71.61 3987.53,-67.13 3924.24,-66.88"/>
<polygon fill="midnightblue" stroke="midnightblue" points="4156.59,-213.99 4154.64,-224.4 4162.66,-217.48 4156.59,-213.99"/>
</g>
<!-- Node84 -->
<g id="node25" class="node">
<title>Node84</title>
<g id="a_node25"><a xlink:href="_p_d_e_base_8cpp.html" target="_top" xlink:title=" ">
<polygon fill="white" stroke="black" points="82.5,-112.5 82.5,-131.5 162.5,-131.5 162.5,-112.5 82.5,-112.5"/>
<text text-anchor="middle" x="122.5" y="-119.5" font-family="Helvetica,sans-Serif" font-size="10.00">PDEBase.cpp</text>
</a>
</g>
</g>
<!-- Node1&#45;&gt;Node84 -->
<g id="edge56" class="edge">
<title>Node1&#45;&gt;Node84</title>
<path fill="none" stroke="midnightblue" d="M4103.7,-232.83C3716.7,-231.2 988,-216.82 171.5,-132 168.57,-131.7 165.56,-131.31 162.54,-130.88"/>
<polygon fill="midnightblue" stroke="midnightblue" points="4103.93,-236.33 4113.95,-232.87 4103.96,-229.33 4103.93,-236.33"/>
</g>
<!-- Node101 -->
<g id="node33" class="node">
<title>Node101</title>
<g id="a_node33"><a xlink:href="_tioga_interface_8cpp.html" target="_top" xlink:title=" ">
<polygon fill="white" stroke="black" points="4077,-112.5 4077,-131.5 4184,-131.5 4184,-112.5 4077,-112.5"/>
<text text-anchor="middle" x="4130.5" y="-119.5" font-family="Helvetica,sans-Serif" font-size="10.00">TiogaInterface.cpp</text>
</a>
</g>
</g>
<!-- Node1&#45;&gt;Node101 -->
<g id="edge59" class="edge">
<title>Node1&#45;&gt;Node101</title>
<path fill="none" stroke="midnightblue" d="M4146.28,-214.35C4142.12,-190.25 4135.04,-149.31 4131.98,-131.59"/>
<polygon fill="midnightblue" stroke="midnightblue" points="4142.86,-215.11 4148.01,-224.37 4149.76,-213.92 4142.86,-215.11"/>
</g>
<!-- Node50 -->
<g id="node47" class="node">
<title>Node50</title>
<g id="a_node47"><a xlink:href="_one_eq_ksgs_8cpp.html" target="_top" xlink:title=" ">
<polygon fill="white" stroke="black" points="4196.5,-168.5 4196.5,-187.5 4288.5,-187.5 4288.5,-168.5 4196.5,-168.5"/>
<text text-anchor="middle" x="4242.5" y="-175.5" font-family="Helvetica,sans-Serif" font-size="10.00">OneEqKsgs.cpp</text>
</a>
</g>
</g>
<!-- Node1&#45;&gt;Node50 -->
<g id="edge60" class="edge">
<title>Node1&#45;&gt;Node50</title>
<path fill="none" stroke="midnightblue" d="M4173.31,-219.18C4190.42,-209.24 4212.97,-196.15 4227.6,-187.65"/>
<polygon fill="midnightblue" stroke="midnightblue" points="4171.33,-216.28 4164.44,-224.32 4174.85,-222.33 4171.33,-216.28"/>
</g>
<!-- Node44 -->
<g id="node48" class="node">
<title>Node44</title>
<g id="a_node48"><a xlink:href="_k_omega_s_s_t_i_8_h.html" target="_top" xlink:title=" ">
<polygon fill="white" stroke="black" points="4345,-168.5 4345,-187.5 4434,-187.5 4434,-168.5 4345,-168.5"/>
<text text-anchor="middle" x="4389.5" y="-175.5" font-family="Helvetica,sans-Serif" font-size="10.00">KOmegaSSTI.H</text>
</a>
</g>
</g>
<!-- Node1&#45;&gt;Node44 -->
<g id="edge61" class="edge">
<title>Node1&#45;&gt;Node44</title>
<path fill="none" stroke="midnightblue" d="M4195.04,-222.75C4240.39,-212.55 4309.21,-197.07 4351.65,-187.52"/>
<polygon fill="midnightblue" stroke="midnightblue" points="4194.16,-219.36 4185.17,-224.97 4195.7,-226.19 4194.16,-219.36"/>
</g>
<!-- Node45 -->
<g id="node49" class="node">
<title>Node45</title>
<g id="a_node49"><a xlink:href="_k_omega_s_s_t_8cpp.html" target="_top" xlink:title=" ">
<polygon fill="white" stroke="black" points="4274,-112.5 4274,-131.5 4369,-131.5 4369,-112.5 4274,-112.5"/>
<text text-anchor="middle" x="4321.5" y="-119.5" font-family="Helvetica,sans-Serif" font-size="10.00">KOmegaSST.cpp</text>
</a>
</g>
</g>
<!-- Node1&#45;&gt;Node45 -->
<g id="edge64" class="edge">
<title>Node1&#45;&gt;Node45</title>
<path fill="none" stroke="midnightblue" d="M4195.13,-229.71C4227.45,-225.1 4269.82,-214.1 4297.5,-188 4313.6,-172.81 4318.96,-145.88 4320.69,-131.93"/>
<polygon fill="midnightblue" stroke="midnightblue" points="4194.5,-226.26 4185.02,-230.99 4195.38,-233.21 4194.5,-226.26"/>
</g>
<!-- Node46 -->
<g id="node50" class="node">
<title>Node46</title>
<g id="a_node50"><a xlink:href="_k_omega_s_s_t_i_d_d_e_s_8cpp.html" target="_top" xlink:title=" ">
<polygon fill="white" stroke="black" points="4395.5,-112.5 4395.5,-131.5 4521.5,-131.5 4521.5,-112.5 4395.5,-112.5"/>
<text text-anchor="middle" x="4458.5" y="-119.5" font-family="Helvetica,sans-Serif" font-size="10.00">KOmegaSSTIDDES.cpp</text>
</a>
</g>
</g>
<!-- Node1&#45;&gt;Node46 -->
<g id="edge65" class="edge">
<title>Node1&#45;&gt;Node46</title>
<path fill="none" stroke="midnightblue" d="M4195.41,-232.08C4268.9,-229.63 4408.28,-220.68 4443.5,-188 4459.29,-173.35 4460.05,-145.67 4459.29,-131.64"/>
<polygon fill="midnightblue" stroke="midnightblue" points="4194.96,-228.59 4185.07,-232.39 4195.17,-235.59 4194.96,-228.59"/>
</g>
<!-- Node3 -->
<g id="node3" class="node">
<title>Node3</title>
<g id="a_node3"><a xlink:href="_c_f_d_sim_8cpp.html" target="_top" xlink:title=" ">
<polygon fill="white" stroke="black" points="3610.5,-112.5 3610.5,-131.5 3686.5,-131.5 3686.5,-112.5 3610.5,-112.5"/>
<text text-anchor="middle" x="3648.5" y="-119.5" font-family="Helvetica,sans-Serif" font-size="10.00">CFDSim.cpp</text>
</a>
</g>
</g>
<!-- Node2&#45;&gt;Node3 -->
<g id="edge2" class="edge">
<title>Node2&#45;&gt;Node3</title>
<path fill="none" stroke="midnightblue" d="M2489.73,-176.19C2672.17,-172.62 3379.89,-157.39 3601.5,-132 3604.39,-131.67 3607.37,-131.26 3610.35,-130.8"/>
<polygon fill="midnightblue" stroke="midnightblue" points="2489.64,-172.69 2479.71,-176.38 2489.78,-179.69 2489.64,-172.69"/>
</g>
<!-- Node4 -->
<g id="node4" class="node">
<title>Node4</title>
<g id="a_node4"><a xlink:href="_mesh_map_8cpp.html" target="_top" xlink:title=" ">
<polygon fill="white" stroke="black" points="3704.5,-112.5 3704.5,-131.5 3788.5,-131.5 3788.5,-112.5 3704.5,-112.5"/>
<text text-anchor="middle" x="3746.5" y="-119.5" font-family="Helvetica,sans-Serif" font-size="10.00">MeshMap.cpp</text>
</a>
</g>
</g>
<!-- Node2&#45;&gt;Node4 -->
<g id="edge3" class="edge">
<title>Node2&#45;&gt;Node4</title>
<path fill="none" stroke="midnightblue" d="M2489.74,-176.25C2681.26,-172.79 3454.21,-157.51 3695.5,-132 3698.36,-131.7 3701.3,-131.33 3704.26,-130.92"/>
<polygon fill="midnightblue" stroke="midnightblue" points="2489.45,-172.75 2479.51,-176.43 2489.57,-179.75 2489.45,-172.75"/>
</g>
<!-- Node5 -->
<g id="node5" class="node">
<title>Node5</title>
<g id="a_node5"><a xlink:href="incflo_8_h.html" target="_top" xlink:title=" ">
<polygon fill="white" stroke="red" points="181,-112.5 181,-131.5 234,-131.5 234,-112.5 181,-112.5"/>
<text text-anchor="middle" x="207.5" y="-119.5" font-family="Helvetica,sans-Serif" font-size="10.00">incflo.H</text>
</a>
</g>
</g>
<!-- Node2&#45;&gt;Node5 -->
<g id="edge4" class="edge">
<title>Node2&#45;&gt;Node5</title>
<path fill="none" stroke="midnightblue" d="M2403.18,-176.62C2114.12,-174.04 469.62,-158.28 248.5,-132 243.87,-131.45 238.99,-130.61 234.28,-129.67"/>
<polygon fill="midnightblue" stroke="midnightblue" points="2403.24,-180.12 2413.27,-176.71 2403.3,-173.12 2403.24,-180.12"/>
</g>
<!-- Node17 -->
<g id="node8" class="node">
<title>Node17</title>
<g id="a_node8"><a xlink:href="_p_d_e_ops_8_h.html" target="_top" xlink:title=" ">
<polygon fill="white" stroke="red" points="3807,-112.5 3807,-131.5 3872,-131.5 3872,-112.5 3807,-112.5"/>
<text text-anchor="middle" x="3839.5" y="-119.5" font-family="Helvetica,sans-Serif" font-size="10.00">PDEOps.H</text>
</a>
</g>
</g>
<!-- Node2&#45;&gt;Node17 -->
<g id="edge7" class="edge">
<title>Node2&#45;&gt;Node17</title>
<path fill="none" stroke="midnightblue" d="M2489.67,-176.6C2690.61,-174.55 3535.48,-164.18 3797.5,-132 3800.46,-131.64 3803.52,-131.17 3806.58,-130.63"/>
<polygon fill="midnightblue" stroke="midnightblue" points="2489.48,-173.1 2479.51,-176.7 2489.55,-180.1 2489.48,-173.1"/>
</g>
<!-- Node2&#45;&gt;Node34 -->
<g id="edge9" class="edge">
<title>Node2&#45;&gt;Node34</title>
<path fill="none" stroke="midnightblue" d="M2489.91,-177.05C2723.63,-177.13 3823.88,-175.2 3880.5,-132 3897.96,-118.68 3900.61,-90.4 3900.75,-75.93"/>
<polygon fill="midnightblue" stroke="midnightblue" points="2489.75,-173.55 2479.75,-177.04 2489.75,-180.55 2489.75,-173.55"/>
</g>
<!-- Node56 -->
<g id="node10" class="node">
<title>Node56</title>
<g id="a_node10"><a xlink:href="_a_b_l_forcing_8cpp.html" target="_top" xlink:title=" ">
<polygon fill="white" stroke="black" points="3929,-112.5 3929,-131.5 4020,-131.5 4020,-112.5 3929,-112.5"/>
<text text-anchor="middle" x="3974.5" y="-119.5" font-family="Helvetica,sans-Serif" font-size="10.00">ABLForcing.cpp</text>
</a>
</g>
</g>
<!-- Node2&#45;&gt;Node56 -->
<g id="edge10" class="edge">
<title>Node2&#45;&gt;Node56</title>
<path fill="none" stroke="midnightblue" d="M2489.58,-176.37C2700.65,-173.17 3627.15,-157.86 3914.5,-132 3919.12,-131.58 3923.92,-131.05 3928.7,-130.44"/>
<polygon fill="midnightblue" stroke="midnightblue" points="2489.45,-172.87 2479.5,-176.52 2489.56,-179.87 2489.45,-172.87"/>
</g>
<!-- Node57 -->
<g id="node11" class="node">
<title>Node57</title>
<g id="a_node11"><a xlink:href="_a_b_l_wall_function_8_h.html" target="_top" xlink:title=" ">
<polygon fill="white" stroke="red" points="315,-56.5 315,-75.5 422,-75.5 422,-56.5 315,-56.5"/>
<text text-anchor="middle" x="368.5" y="-63.5" font-family="Helvetica,sans-Serif" font-size="10.00">ABLWallFunction.H</text>
</a>
</g>
</g>
<!-- Node2&#45;&gt;Node57 -->
<g id="edge11" class="edge">
<title>Node2&#45;&gt;Node57</title>
<path fill="none" stroke="midnightblue" d="M2403.35,-176.5C2103.23,-172.96 338.41,-151.32 319.5,-132 301.51,-113.62 333.86,-88.52 354.07,-75.55"/>
<polygon fill="midnightblue" stroke="midnightblue" points="2403.37,-180 2413.41,-176.62 2403.45,-173 2403.37,-180"/>
</g>
<!-- Node61 -->
<g id="node12" class="node">
<title>Node61</title>
<g id="a_node12"><a xlink:href="_a_b_l_stats_base_8_h.html" target="_top" xlink:title=" ">
<polygon fill="white" stroke="red" points="2204,-0.5 2204,-19.5 2299,-19.5 2299,-0.5 2204,-0.5"/>
<text text-anchor="middle" x="2251.5" y="-7.5" font-family="Helvetica,sans-Serif" font-size="10.00">ABLStatsBase.H</text>
</a>
</g>
</g>
<!-- Node2&#45;&gt;Node61 -->
<g id="edge17" class="edge">
<title>Node2&#45;&gt;Node61</title>
<path fill="none" stroke="midnightblue" d="M2489.84,-176.59C2741.13,-174.13 4000.92,-160.38 4028.5,-132 4034.7,-125.63 4032.93,-119.71 4028.5,-112 4003.9,-69.17 3980.01,-69.53 3932.5,-56 3771.93,-10.28 2556.14,-10.34 2299.13,-10.87"/>
<polygon fill="midnightblue" stroke="midnightblue" points="2489.61,-173.09 2479.64,-176.69 2489.67,-180.09 2489.61,-173.09"/>
</g>
<!-- Node64 -->
<g id="node13" class="node">
<title>Node64</title>
<g id="a_node13"><a xlink:href="_boussinesq_bubble_8cpp.html" target="_top" xlink:title=" ">
<polygon fill="white" stroke="black" points="263.5,-0.5 263.5,-19.5 389.5,-19.5 389.5,-0.5 263.5,-0.5"/>
<text text-anchor="middle" x="326.5" y="-7.5" font-family="Helvetica,sans-Serif" font-size="10.00">BoussinesqBubble.cpp</text>
</a>
</g>
</g>
<!-- Node2&#45;&gt;Node64 -->
<g id="edge36" class="edge">
<title>Node2&#45;&gt;Node64</title>
<path fill="none" stroke="midnightblue" d="M2403.15,-176.88C2103.45,-175.97 350.16,-169.05 310.5,-132 278.6,-102.2 308.4,-42.01 321.26,-19.63"/>
<polygon fill="midnightblue" stroke="midnightblue" points="2403.18,-180.38 2413.19,-176.91 2403.2,-173.38 2403.18,-180.38"/>
</g>
<!-- Node65 -->
<g id="node14" class="node">
<title>Node65</title>
<g id="a_node14"><a xlink:href="_field_plane_averaging_8_h.html" target="_top" xlink:title=" ">
<polygon fill="white" stroke="red" points="328.5,-112.5 328.5,-131.5 454.5,-131.5 454.5,-112.5 328.5,-112.5"/>
<text text-anchor="middle" x="391.5" y="-119.5" font-family="Helvetica,sans-Serif" font-size="10.00">FieldPlaneAveraging.H</text>
</a>
</g>
</g>
<!-- Node2&#45;&gt;Node65 -->
<g id="edge14" class="edge">
<title>Node2&#45;&gt;Node65</title>
<path fill="none" stroke="midnightblue" d="M2402.98,-176.62C2149.3,-174.28 859.2,-161.15 463.5,-132 460.61,-131.79 457.66,-131.54 454.68,-131.27"/>
<polygon fill="midnightblue" stroke="midnightblue" points="2403.23,-180.12 2413.26,-176.71 2403.29,-173.12 2403.23,-180.12"/>
</g>
<!-- Node72 -->
<g id="node15" class="node">
<title>Node72</title>
<g id="a_node15"><a xlink:href="_a_b_l_boundary_plane_8_h.html" target="_top" xlink:title=" ">
<polygon fill="white" stroke="red" points="473,-112.5 473,-131.5 592,-131.5 592,-112.5 473,-112.5"/>
<text text-anchor="middle" x="532.5" y="-119.5" font-family="Helvetica,sans-Serif" font-size="10.00">ABLBoundaryPlane.H</text>
</a>
</g>
</g>
<!-- Node2&#45;&gt;Node72 -->
<g id="edge16" class="edge">
<title>Node2&#45;&gt;Node72</title>
<path fill="none" stroke="midnightblue" d="M2402.95,-176.56C2159.81,-174.02 968.02,-160.29 601.5,-132 598.49,-131.77 595.41,-131.49 592.3,-131.19"/>
<polygon fill="midnightblue" stroke="midnightblue" points="2403.12,-180.06 2413.16,-176.67 2403.2,-173.06 2403.12,-180.06"/>
</g>
<!-- Node59 -->
<g id="node16" class="node">
<title>Node59</title>
<g id="a_node16"><a xlink:href="_a_b_l_mean_boussinesq_8cpp.html" target="_top" xlink:title=" ">
<polygon fill="white" stroke="black" points="610.5,-112.5 610.5,-131.5 748.5,-131.5 748.5,-112.5 610.5,-112.5"/>
<text text-anchor="middle" x="679.5" y="-119.5" font-family="Helvetica,sans-Serif" font-size="10.00">ABLMeanBoussinesq.cpp</text>
</a>
</g>
</g>
<!-- Node2&#45;&gt;Node59 -->
<g id="edge18" class="edge">
<title>Node2&#45;&gt;Node59</title>
<path fill="none" stroke="midnightblue" d="M2403.11,-177.25C2210.21,-178.07 1411.17,-178.33 757.5,-132 754.64,-131.8 751.73,-131.57 748.79,-131.32"/>
<polygon fill="midnightblue" stroke="midnightblue" points="2403.41,-180.75 2413.4,-177.2 2403.38,-173.75 2403.41,-180.75"/>
</g>
<!-- Node76 -->
<g id="node17" class="node">
<title>Node76</title>
<g id="a_node17"><a xlink:href="_actuator_forcing_8cpp.html" target="_top" xlink:title=" ">
<polygon fill="white" stroke="black" points="767,-112.5 767,-131.5 880,-131.5 880,-112.5 767,-112.5"/>
<text text-anchor="middle" x="823.5" y="-119.5" font-family="Helvetica,sans-Serif" font-size="10.00">ActuatorForcing.cpp</text>
</a>
</g>
</g>
<!-- Node2&#45;&gt;Node76 -->
<g id="edge19" class="edge">
<title>Node2&#45;&gt;Node76</title>
<path fill="none" stroke="midnightblue" d="M2403.31,-176.38C2184.37,-173.11 1195.6,-157.22 889.5,-132 886.5,-131.75 883.43,-131.46 880.34,-131.14"/>
<polygon fill="midnightblue" stroke="midnightblue" points="2403.39,-179.88 2413.44,-176.53 2403.49,-172.88 2403.39,-179.88"/>
</g>
<!-- Node77 -->
<g id="node18" class="node">
<title>Node77</title>
<g id="a_node18"><a xlink:href="_body_force_8cpp.html" target="_top" xlink:title=" ">
<polygon fill="white" stroke="black" points="898.5,-112.5 898.5,-131.5 986.5,-131.5 986.5,-112.5 898.5,-112.5"/>
<text text-anchor="middle" x="942.5" y="-119.5" font-family="Helvetica,sans-Serif" font-size="10.00">BodyForce.cpp</text>
</a>
</g>
</g>
<!-- Node2&#45;&gt;Node77 -->
<g id="edge20" class="edge">
<title>Node2&#45;&gt;Node77</title>
<path fill="none" stroke="midnightblue" d="M2403.23,-176.46C2193.24,-173.72 1278.96,-160.33 995.5,-132 992.62,-131.71 989.66,-131.36 986.68,-130.97"/>
<polygon fill="midnightblue" stroke="midnightblue" points="2403.21,-179.96 2413.26,-176.59 2403.3,-172.96 2403.21,-179.96"/>
</g>
<!-- Node78 -->
<g id="node19" class="node">
<title>Node78</title>
<g id="a_node19"><a xlink:href="_boussinesq_buoyancy_8cpp.html" target="_top" xlink:title=" ">
<polygon fill="white" stroke="black" points="1005,-112.5 1005,-131.5 1144,-131.5 1144,-112.5 1005,-112.5"/>
<text text-anchor="middle" x="1074.5" y="-119.5" font-family="Helvetica,sans-Serif" font-size="10.00">BoussinesqBuoyancy.cpp</text>
</a>
</g>
</g>
<!-- Node2&#45;&gt;Node78 -->
<g id="edge21" class="edge">
<title>Node2&#45;&gt;Node78</title>
<path fill="none" stroke="midnightblue" d="M2403.31,-176.75C2239.74,-175.55 1642.73,-168.75 1152.5,-132 1149.78,-131.8 1147.01,-131.57 1144.21,-131.32"/>
<polygon fill="midnightblue" stroke="midnightblue" points="2403.43,-180.25 2413.45,-176.82 2403.48,-173.25 2403.43,-180.25"/>
</g>
<!-- Node79 -->
<g id="node20" class="node">
<title>Node79</title>
<g id="a_node20"><a xlink:href="_coriolis_forcing_8cpp.html" target="_top" xlink:title=" ">
<polygon fill="white" stroke="black" points="1162,-112.5 1162,-131.5 1271,-131.5 1271,-112.5 1162,-112.5"/>
<text text-anchor="middle" x="1216.5" y="-119.5" font-family="Helvetica,sans-Serif" font-size="10.00">CoriolisForcing.cpp</text>
</a>
</g>
</g>
<!-- Node2&#45;&gt;Node79 -->
<g id="edge22" class="edge">
<title>Node2&#45;&gt;Node79</title>
<path fill="none" stroke="midnightblue" d="M2403.06,-176.94C2249.32,-176.39 1716.79,-171.56 1279.5,-132 1276.75,-131.75 1273.93,-131.47 1271.1,-131.15"/>
<polygon fill="midnightblue" stroke="midnightblue" points="2403.46,-180.44 2413.47,-176.97 2403.48,-173.44 2403.46,-180.44"/>
</g>
<!-- Node80 -->
<g id="node21" class="node">
<title>Node80</title>
<g id="a_node21"><a xlink:href="_density_buoyancy_8cpp.html" target="_top" xlink:title=" ">
<polygon fill="white" stroke="black" points="1289,-112.5 1289,-131.5 1410,-131.5 1410,-112.5 1289,-112.5"/>
<text text-anchor="middle" x="1349.5" y="-119.5" font-family="Helvetica,sans-Serif" font-size="10.00">DensityBuoyancy.cpp</text>
</a>
</g>
</g>
<!-- Node2&#45;&gt;Node80 -->
<g id="edge23" class="edge">
<title>Node2&#45;&gt;Node80</title>
<path fill="none" stroke="midnightblue" d="M2403.12,-176.43C2261.38,-174.3 1799.18,-165.1 1418.5,-132 1415.73,-131.76 1412.9,-131.49 1410.05,-131.2"/>
<polygon fill="midnightblue" stroke="midnightblue" points="2403.1,-179.93 2413.15,-176.58 2403.2,-172.94 2403.1,-179.93"/>
</g>
<!-- Node81 -->
<g id="node22" class="node">
<title>Node81</title>
<g id="a_node22"><a xlink:href="_geostrophic_forcing_8cpp.html" target="_top" xlink:title=" ">
<polygon fill="white" stroke="black" points="1428,-112.5 1428,-131.5 1559,-131.5 1559,-112.5 1428,-112.5"/>
<text text-anchor="middle" x="1493.5" y="-119.5" font-family="Helvetica,sans-Serif" font-size="10.00">GeostrophicForcing.cpp</text>
</a>
</g>
</g>
<!-- Node2&#45;&gt;Node81 -->
<g id="edge24" class="edge">
<title>Node2&#45;&gt;Node81</title>
<path fill="none" stroke="midnightblue" d="M2403.19,-175.83C2275.33,-172.14 1888.37,-159.36 1568.5,-132 1565.49,-131.74 1562.42,-131.46 1559.32,-131.16"/>
<polygon fill="midnightblue" stroke="midnightblue" points="2403.26,-179.33 2413.35,-176.12 2403.46,-172.33 2403.26,-179.33"/>
</g>
<!-- Node82 -->
<g id="node23" class="node">
<title>Node82</title>
<g id="a_node23"><a xlink:href="_gravity_forcing_8cpp.html" target="_top" xlink:title=" ">
<polygon fill="white" stroke="black" points="1577.5,-112.5 1577.5,-131.5 1685.5,-131.5 1685.5,-112.5 1577.5,-112.5"/>
<text text-anchor="middle" x="1631.5" y="-119.5" font-family="Helvetica,sans-Serif" font-size="10.00">GravityForcing.cpp</text>
</a>
</g>
</g>
<!-- Node2&#45;&gt;Node82 -->
<g id="edge25" class="edge">
<title>Node2&#45;&gt;Node82</title>
<path fill="none" stroke="midnightblue" d="M2403.25,-175.66C2287.88,-171.8 1963.28,-159.19 1694.5,-132 1691.64,-131.71 1688.71,-131.39 1685.76,-131.04"/>
<polygon fill="midnightblue" stroke="midnightblue" points="2403.33,-179.16 2413.44,-175.99 2403.56,-172.16 2403.33,-179.16"/>
</g>
<!-- Node83 -->
<g id="node24" class="node">
<title>Node83</title>
<g id="a_node24"><a xlink:href="_synth_turb_forcing_8cpp.html" target="_top" xlink:title=" ">
<polygon fill="white" stroke="black" points="1703.5,-112.5 1703.5,-131.5 1823.5,-131.5 1823.5,-112.5 1703.5,-112.5"/>
<text text-anchor="middle" x="1763.5" y="-119.5" font-family="Helvetica,sans-Serif" font-size="10.00">SynthTurbForcing.cpp</text>
</a>
</g>
</g>
<!-- Node2&#45;&gt;Node83 -->
<g id="edge26" class="edge">
<title>Node2&#45;&gt;Node83</title>
<path fill="none" stroke="midnightblue" d="M2403.45,-174.68C2303.19,-169.11 2046.37,-153.77 1832.5,-132 1829.62,-131.71 1826.67,-131.39 1823.69,-131.05"/>
<polygon fill="midnightblue" stroke="midnightblue" points="2403.32,-178.18 2413.5,-175.24 2403.7,-171.19 2403.32,-178.18"/>
</g>
<!-- Node2&#45;&gt;Node84 -->
<g id="edge27" class="edge">
<title>Node2&#45;&gt;Node84</title>
<path fill="none" stroke="midnightblue" d="M2403.08,-176.56C2107.95,-173.55 401.17,-155.21 171.5,-132 168.57,-131.7 165.56,-131.33 162.54,-130.9"/>
<polygon fill="midnightblue" stroke="midnightblue" points="2403.34,-180.07 2413.37,-176.67 2403.41,-173.07 2403.34,-180.07"/>
</g>
<!-- Node85 -->
<g id="node26" class="node">
<title>Node85</title>
<g id="a_node26"><a xlink:href="_s_d_r_src_8cpp.html" target="_top" xlink:title=" ">
<polygon fill="white" stroke="black" points="1841.5,-112.5 1841.5,-131.5 1913.5,-131.5 1913.5,-112.5 1841.5,-112.5"/>
<text text-anchor="middle" x="1877.5" y="-119.5" font-family="Helvetica,sans-Serif" font-size="10.00">SDRSrc.cpp</text>
</a>
</g>
</g>
<!-- Node2&#45;&gt;Node85 -->
<g id="edge28" class="edge">
<title>Node2&#45;&gt;Node85</title>
<path fill="none" stroke="midnightblue" d="M2403.15,-174.92C2313.21,-170.24 2099.88,-157.27 1922.5,-132 1919.66,-131.6 1916.73,-131.13 1913.79,-130.62"/>
<polygon fill="midnightblue" stroke="midnightblue" points="2403.08,-178.42 2413.25,-175.44 2403.44,-171.43 2403.08,-178.42"/>
</g>
<!-- Node86 -->
<g id="node27" class="node">
<title>Node86</title>
<g id="a_node27"><a xlink:href="_ksgs_m84_src_8cpp.html" target="_top" xlink:title=" ">
<polygon fill="white" stroke="black" points="1931.5,-112.5 1931.5,-131.5 2027.5,-131.5 2027.5,-112.5 1931.5,-112.5"/>
<text text-anchor="middle" x="1979.5" y="-119.5" font-family="Helvetica,sans-Serif" font-size="10.00">KsgsM84Src.cpp</text>
</a>
</g>
</g>
<!-- Node2&#45;&gt;Node86 -->
<g id="edge29" class="edge">
<title>Node2&#45;&gt;Node86</title>
<path fill="none" stroke="midnightblue" d="M2403.51,-172.96C2328.76,-165.78 2170.04,-149.86 2036.5,-132 2033.62,-131.61 2030.66,-131.2 2027.68,-130.77"/>
<polygon fill="midnightblue" stroke="midnightblue" points="2403.2,-176.44 2413.49,-173.91 2403.86,-169.47 2403.2,-176.44"/>
</g>
<!-- Node87 -->
<g id="node28" class="node">
<title>Node87</title>
<g id="a_node28"><a xlink:href="_kw_s_s_t_src_8cpp.html" target="_top" xlink:title=" ">
<polygon fill="white" stroke="black" points="2046,-112.5 2046,-131.5 2131,-131.5 2131,-112.5 2046,-112.5"/>
<text text-anchor="middle" x="2088.5" y="-119.5" font-family="Helvetica,sans-Serif" font-size="10.00">KwSSTSrc.cpp</text>
</a>
</g>
</g>
<!-- Node2&#45;&gt;Node87 -->
<g id="edge30" class="edge">
<title>Node2&#45;&gt;Node87</title>
<path fill="none" stroke="midnightblue" d="M2403.28,-171C2343.97,-162.68 2234.03,-146.97 2140.5,-132 2137.42,-131.51 2134.25,-130.99 2131.05,-130.46"/>
<polygon fill="midnightblue" stroke="midnightblue" points="2403.01,-174.49 2413.4,-172.41 2403.98,-167.56 2403.01,-174.49"/>
</g>
<!-- Node88 -->
<g id="node29" class="node">
<title>Node88</title>
<g id="a_node29"><a xlink:href="_i_b_ops_8_h.html" target="_top" xlink:title=" ">
<polygon fill="white" stroke="red" points="2149.5,-112.5 2149.5,-131.5 2205.5,-131.5 2205.5,-112.5 2149.5,-112.5"/>
<text text-anchor="middle" x="2177.5" y="-119.5" font-family="Helvetica,sans-Serif" font-size="10.00">IBOps.H</text>
</a>
</g>
</g>
<!-- Node2&#45;&gt;Node88 -->
<g id="edge31" class="edge">
<title>Node2&#45;&gt;Node88</title>
<path fill="none" stroke="midnightblue" d="M2403.53,-168.69C2357.85,-159.8 2283.52,-145.2 2219.5,-132 2214.97,-131.07 2210.17,-130.06 2205.5,-129.06"/>
<polygon fill="midnightblue" stroke="midnightblue" points="2402.9,-172.13 2413.39,-170.6 2404.24,-165.26 2402.9,-172.13"/>
</g>
<!-- Node99 -->
<g id="node30" class="node">
<title>Node99</title>
<g id="a_node30"><a xlink:href="_convecting_taylor_vortex_8_h.html" target="_top" xlink:title=" ">
<polygon fill="white" stroke="red" points="2262,-112.5 2262,-131.5 2405,-131.5 2405,-112.5 2262,-112.5"/>
<text text-anchor="middle" x="2333.5" y="-119.5" font-family="Helvetica,sans-Serif" font-size="10.00">ConvectingTaylorVortex.H</text>
</a>
</g>
</g>
<!-- Node2&#45;&gt;Node99 -->
<g id="edge32" class="edge">
<title>Node2&#45;&gt;Node99</title>
<path fill="none" stroke="midnightblue" d="M2419.5,-164.1C2398.39,-154.01 2369.64,-140.27 2351.32,-131.52"/>
<polygon fill="midnightblue" stroke="midnightblue" points="2418.06,-167.29 2428.59,-168.44 2421.08,-160.97 2418.06,-167.29"/>
</g>
<!-- Node100 -->
<g id="node31" class="node">
<title>Node100</title>
<g id="a_node31"><a xlink:href="_convecting_taylor_vortex_8cpp.html" target="_top" xlink:title=" ">
<polygon fill="white" stroke="black" points="2207.5,-56.5 2207.5,-75.5 2359.5,-75.5 2359.5,-56.5 2207.5,-56.5"/>
<text text-anchor="middle" x="2283.5" y="-63.5" font-family="Helvetica,sans-Serif" font-size="10.00">ConvectingTaylorVortex.cpp</text>
</a>
</g>
</g>
<!-- Node2&#45;&gt;Node100 -->
<g id="edge40" class="edge">
<title>Node2&#45;&gt;Node100</title>
<path fill="none" stroke="midnightblue" d="M2403.23,-173.13C2351.91,-167.54 2270.96,-155.24 2252.5,-132 2238.34,-114.18 2259.98,-88.85 2273.68,-75.69"/>
<polygon fill="midnightblue" stroke="midnightblue" points="2403.07,-176.63 2413.38,-174.19 2403.8,-169.67 2403.07,-176.63"/>
</g>
<!-- Node98 -->
<g id="node32" class="node">
<title>Node98</title>
<g id="a_node32"><a xlink:href="_i_b_8cpp.html" target="_top" xlink:title=" ">
<polygon fill="white" stroke="black" points="2423,-112.5 2423,-131.5 2470,-131.5 2470,-112.5 2423,-112.5"/>
<text text-anchor="middle" x="2446.5" y="-119.5" font-family="Helvetica,sans-Serif" font-size="10.00">IB.cpp</text>
</a>
</g>
</g>
<!-- Node2&#45;&gt;Node98 -->
<g id="edge34" class="edge">
<title>Node2&#45;&gt;Node98</title>
<path fill="none" stroke="midnightblue" d="M2446.5,-157.8C2446.5,-148.91 2446.5,-138.78 2446.5,-131.75"/>
<polygon fill="midnightblue" stroke="midnightblue" points="2443,-158.08 2446.5,-168.08 2450,-158.08 2443,-158.08"/>
</g>
<!-- Node2&#45;&gt;Node101 -->
<g id="edge35" class="edge">
<title>Node2&#45;&gt;Node101</title>
<path fill="none" stroke="midnightblue" d="M2489.89,-176.4C2714.19,-173.22 3744.07,-157.44 4062.5,-132 4067.13,-131.63 4071.93,-131.16 4076.73,-130.64"/>
<polygon fill="midnightblue" stroke="midnightblue" points="2489.77,-172.9 2479.82,-176.54 2489.87,-179.9 2489.77,-172.9"/>
</g>
<!-- Node102 -->
<g id="node34" class="node">
<title>Node102</title>
<g id="a_node34"><a xlink:href="_channel_flow_8_h.html" target="_top" xlink:title=" ">
<polygon fill="white" stroke="black" points="2527,-112.5 2527,-131.5 2616,-131.5 2616,-112.5 2527,-112.5"/>
<text text-anchor="middle" x="2571.5" y="-119.5" font-family="Helvetica,sans-Serif" font-size="10.00">ChannelFlow.H</text>
</a>
</g>
</g>
<!-- Node2&#45;&gt;Node102 -->
<g id="edge37" class="edge">
<title>Node2&#45;&gt;Node102</title>
<path fill="none" stroke="midnightblue" d="M2475.74,-164.37C2499.15,-154.26 2531.34,-140.35 2551.79,-131.52"/>
<polygon fill="midnightblue" stroke="midnightblue" points="2474.1,-161.26 2466.31,-168.44 2476.87,-167.69 2474.1,-161.26"/>
</g>
<!-- Node103 -->
<g id="node35" class="node">
<title>Node103</title>
<g id="a_node35"><a xlink:href="_channel_flow_8cpp.html" target="_top" xlink:title=" ">
<polygon fill="white" stroke="black" points="2463,-56.5 2463,-75.5 2562,-75.5 2562,-56.5 2463,-56.5"/>
<text text-anchor="middle" x="2512.5" y="-63.5" font-family="Helvetica,sans-Serif" font-size="10.00">ChannelFlow.cpp</text>
</a>
</g>
</g>
<!-- Node2&#45;&gt;Node103 -->
<g id="edge39" class="edge">
<title>Node2&#45;&gt;Node103</title>
<path fill="none" stroke="midnightblue" d="M2459.29,-160.17C2465.39,-151.87 2472.61,-141.6 2478.5,-132 2490.48,-112.46 2502.42,-88.26 2508.46,-75.62"/>
<polygon fill="midnightblue" stroke="midnightblue" points="2456.42,-158.17 2453.24,-168.28 2462.03,-162.36 2456.42,-158.17"/>
</g>
<!-- Node104 -->
<g id="node36" class="node">
<title>Node104</title>
<g id="a_node36"><a xlink:href="_ekman_spiral_8_h.html" target="_top" xlink:title=" ">
<polygon fill="white" stroke="black" points="2673,-112.5 2673,-131.5 2762,-131.5 2762,-112.5 2673,-112.5"/>
<text text-anchor="middle" x="2717.5" y="-119.5" font-family="Helvetica,sans-Serif" font-size="10.00">EkmanSpiral.H</text>
</a>
</g>
</g>
<!-- Node2&#45;&gt;Node104 -->
<g id="edge41" class="edge">
<title>Node2&#45;&gt;Node104</title>
<path fill="none" stroke="midnightblue" d="M2489.72,-168.39C2540.45,-158.28 2624.04,-141.62 2674.62,-131.55"/>
<polygon fill="midnightblue" stroke="midnightblue" points="2488.85,-164.99 2479.73,-170.38 2490.22,-171.86 2488.85,-164.99"/>
</g>
<!-- Node105 -->
<g id="node37" class="node">
<title>Node105</title>
<g id="a_node37"><a xlink:href="_ekman_spiral_8cpp.html" target="_top" xlink:title=" ">
<polygon fill="white" stroke="black" points="2631.5,-56.5 2631.5,-75.5 2729.5,-75.5 2729.5,-56.5 2631.5,-56.5"/>
<text text-anchor="middle" x="2680.5" y="-63.5" font-family="Helvetica,sans-Serif" font-size="10.00">EkmanSpiral.cpp</text>
</a>
</g>
</g>
<!-- Node2&#45;&gt;Node105 -->
<g id="edge43" class="edge">
<title>Node2&#45;&gt;Node105</title>
<path fill="none" stroke="midnightblue" d="M2489.87,-173.43C2527.79,-168.66 2583.11,-157.58 2624.5,-132 2648.07,-117.43 2666.95,-89.72 2675.51,-75.65"/>
<polygon fill="midnightblue" stroke="midnightblue" points="2489.19,-169.98 2479.66,-174.61 2490,-176.94 2489.19,-169.98"/>
</g>
<!-- Node106 -->
<g id="node38" class="node">
<title>Node106</title>
<g id="a_node38"><a xlink:href="_free_stream_8cpp.html" target="_top" xlink:title=" ">
<polygon fill="white" stroke="black" points="2780,-112.5 2780,-131.5 2873,-131.5 2873,-112.5 2780,-112.5"/>
<text text-anchor="middle" x="2826.5" y="-119.5" font-family="Helvetica,sans-Serif" font-size="10.00">FreeStream.cpp</text>
</a>
</g>
</g>
<!-- Node2&#45;&gt;Node106 -->
<g id="edge44" class="edge">
<title>Node2&#45;&gt;Node106</title>
<path fill="none" stroke="midnightblue" d="M2489.87,-171.28C2552.06,-163 2670.16,-147.03 2770.5,-132 2773.52,-131.55 2776.63,-131.07 2779.76,-130.59"/>
<polygon fill="midnightblue" stroke="midnightblue" points="2489.1,-167.85 2479.65,-172.63 2490.02,-174.79 2489.1,-167.85"/>
</g>
<!-- Node107 -->
<g id="node39" class="node">
<title>Node107</title>
<g id="a_node39"><a xlink:href="_hybrid_r_a_n_s_l_e_s_a_b_l_8_h.html" target="_top" xlink:title=" ">
<polygon fill="white" stroke="black" points="2930,-112.5 2930,-131.5 3053,-131.5 3053,-112.5 2930,-112.5"/>
<text text-anchor="middle" x="2991.5" y="-119.5" font-family="Helvetica,sans-Serif" font-size="10.00">HybridRANSLESABL.H</text>
</a>
</g>
</g>
<!-- Node2&#45;&gt;Node107 -->
<g id="edge45" class="edge">
<title>Node2&#45;&gt;Node107</title>
<path fill="none" stroke="midnightblue" d="M2489.53,-173.19C2572.15,-165.81 2758.73,-148.8 2915.5,-132 2920.12,-131.5 2924.9,-130.98 2929.71,-130.43"/>
<polygon fill="midnightblue" stroke="midnightblue" points="2489.15,-169.71 2479.5,-174.09 2489.78,-176.69 2489.15,-169.71"/>
</g>
<!-- Node108 -->
<g id="node40" class="node">
<title>Node108</title>
<g id="a_node40"><a xlink:href="_hybrid_r_a_n_s_l_e_s_a_b_l_8cpp.html" target="_top" xlink:title=" ">
<polygon fill="white" stroke="black" points="2867,-56.5 2867,-75.5 3000,-75.5 3000,-56.5 2867,-56.5"/>
<text text-anchor="middle" x="2933.5" y="-63.5" font-family="Helvetica,sans-Serif" font-size="10.00">HybridRANSLESABL.cpp</text>
</a>
</g>
</g>
<!-- Node2&#45;&gt;Node108 -->
<g id="edge47" class="edge">
<title>Node2&#45;&gt;Node108</title>
<path fill="none" stroke="midnightblue" d="M2489.92,-176.71C2586.28,-175.4 2814.77,-168.42 2881.5,-132 2905.35,-118.98 2922.21,-90.03 2929.49,-75.57"/>
<polygon fill="midnightblue" stroke="midnightblue" points="2489.61,-173.21 2479.66,-176.83 2489.7,-180.21 2489.61,-173.21"/>
</g>
<!-- Node109 -->
<g id="node41" class="node">
<title>Node109</title>
<g id="a_node41"><a xlink:href="_m_m_s_8_h.html" target="_top" xlink:title=" ">
<polygon fill="white" stroke="black" points="3110,-112.5 3110,-131.5 3161,-131.5 3161,-112.5 3110,-112.5"/>
<text text-anchor="middle" x="3135.5" y="-119.5" font-family="Helvetica,sans-Serif" font-size="10.00">MMS.H</text>
</a>
</g>
</g>
<!-- Node2&#45;&gt;Node109 -->
<g id="edge48" class="edge">
<title>Node2&#45;&gt;Node109</title>
<path fill="none" stroke="midnightblue" d="M2489.97,-176.26C2594.71,-174 2869.15,-165.12 3095.5,-132 3100.15,-131.32 3105.06,-130.39 3109.79,-129.39"/>
<polygon fill="midnightblue" stroke="midnightblue" points="2489.71,-172.77 2479.79,-176.48 2489.86,-179.77 2489.71,-172.77"/>
</g>
<!-- Node110 -->
<g id="node42" class="node">
<title>Node110</title>
<g id="a_node42"><a xlink:href="_m_m_s_8cpp.html" target="_top" xlink:title=" ">
<polygon fill="white" stroke="black" points="3078,-56.5 3078,-75.5 3139,-75.5 3139,-56.5 3078,-56.5"/>
<text text-anchor="middle" x="3108.5" y="-63.5" font-family="Helvetica,sans-Serif" font-size="10.00">MMS.cpp</text>
</a>
</g>
</g>
<!-- Node2&#45;&gt;Node110 -->
<g id="edge50" class="edge">
<title>Node2&#45;&gt;Node110</title>
<path fill="none" stroke="midnightblue" d="M2489.9,-175.93C2621.78,-172.39 3011.89,-159.68 3061.5,-132 3084.36,-119.24 3098.99,-90.17 3105.15,-75.62"/>
<polygon fill="midnightblue" stroke="midnightblue" points="2489.67,-172.44 2479.76,-176.2 2489.85,-179.43 2489.67,-172.44"/>
</g>
<!-- Node111 -->
<g id="node43" class="node">
<title>Node111</title>
<g id="a_node43"><a xlink:href="_m_m_s_forcing_8cpp.html" target="_top" xlink:title=" ">
<polygon fill="white" stroke="black" points="3179.5,-112.5 3179.5,-131.5 3275.5,-131.5 3275.5,-112.5 3179.5,-112.5"/>
<text text-anchor="middle" x="3227.5" y="-119.5" font-family="Helvetica,sans-Serif" font-size="10.00">MMSForcing.cpp</text>
</a>
</g>
</g>
<!-- Node2&#45;&gt;Node111 -->
<g id="edge51" class="edge">
<title>Node2&#45;&gt;Node111</title>
<path fill="none" stroke="midnightblue" d="M2490.01,-175.68C2602.62,-171.98 2912.72,-159.85 3169.5,-132 3172.74,-131.65 3176.08,-131.24 3179.44,-130.81"/>
<polygon fill="midnightblue" stroke="midnightblue" points="2489.62,-172.2 2479.74,-176.02 2489.85,-179.19 2489.62,-172.2"/>
</g>
<!-- Node112 -->
<g id="node44" class="node">
<title>Node112</title>
<g id="a_node44"><a xlink:href="_dam_break_8cpp.html" target="_top" xlink:title=" ">
<polygon fill="white" stroke="black" points="3294,-112.5 3294,-131.5 3383,-131.5 3383,-112.5 3294,-112.5"/>
<text text-anchor="middle" x="3338.5" y="-119.5" font-family="Helvetica,sans-Serif" font-size="10.00">DamBreak.cpp</text>
</a>
</g>
</g>
<!-- Node2&#45;&gt;Node112 -->
<g id="edge52" class="edge">
<title>Node2&#45;&gt;Node112</title>
<path fill="none" stroke="midnightblue" d="M2489.98,-176.37C2614.27,-174.21 2981.59,-165.27 3284.5,-132 3287.52,-131.67 3290.63,-131.28 3293.76,-130.85"/>
<polygon fill="midnightblue" stroke="midnightblue" points="2489.68,-172.88 2479.74,-176.55 2489.8,-179.88 2489.68,-172.88"/>
</g>
<!-- Node32 -->
<g id="node45" class="node">
<title>Node32</title>
<g id="a_node45"><a xlink:href="_multi_phase_8cpp.html" target="_top" xlink:title=" ">
<polygon fill="white" stroke="black" points="3401,-112.5 3401,-131.5 3492,-131.5 3492,-112.5 3401,-112.5"/>
<text text-anchor="middle" x="3446.5" y="-119.5" font-family="Helvetica,sans-Serif" font-size="10.00">MultiPhase.cpp</text>
</a>
</g>
</g>
<!-- Node2&#45;&gt;Node32 -->
<g id="edge53" class="edge">
<title>Node2&#45;&gt;Node32</title>
<path fill="none" stroke="midnightblue" d="M2489.95,-176.7C2624.36,-175.39 3045.19,-168.46 3391.5,-132 3394.58,-131.68 3397.75,-131.29 3400.94,-130.87"/>
<polygon fill="midnightblue" stroke="midnightblue" points="2489.63,-173.2 2479.66,-176.79 2489.7,-180.2 2489.63,-173.2"/>
</g>
<!-- Node113 -->
<g id="node46" class="node">
<title>Node113</title>
<g id="a_node46"><a xlink:href="_rain_drop_8cpp.html" target="_top" xlink:title=" ">
<polygon fill="white" stroke="black" points="3510.5,-112.5 3510.5,-131.5 3592.5,-131.5 3592.5,-112.5 3510.5,-112.5"/>
<text text-anchor="middle" x="3551.5" y="-119.5" font-family="Helvetica,sans-Serif" font-size="10.00">RainDrop.cpp</text>
</a>
</g>
</g>
<!-- Node2&#45;&gt;Node113 -->
<g id="edge54" class="edge">
<title>Node2&#45;&gt;Node113</title>
<path fill="none" stroke="midnightblue" d="M2490.06,-177.2C2634.42,-177.4 3110.16,-174.59 3500.5,-132 3503.72,-131.65 3507.04,-131.22 3510.37,-130.74"/>
<polygon fill="midnightblue" stroke="midnightblue" points="2489.86,-173.69 2479.85,-177.17 2489.84,-180.69 2489.86,-173.69"/>
</g>
<!-- Node5&#45;&gt;Node7 -->
<g id="edge5" class="edge">
<title>Node5&#45;&gt;Node7</title>
<path fill="none" stroke="midnightblue" d="M170.99,-109.8C137.8,-99.61 89.53,-84.81 59.36,-75.55"/>
<polygon fill="midnightblue" stroke="midnightblue" points="170.18,-113.21 180.77,-112.8 172.24,-106.52 170.18,-113.21"/>
</g>
<!-- Node5&#45;&gt;Node8 -->
<g id="edge6" class="edge">
<title>Node5&#45;&gt;Node8</title>
<path fill="none" stroke="midnightblue" d="M194.39,-104.14C187.07,-94.74 178.26,-83.4 172.31,-75.75"/>
<polygon fill="midnightblue" stroke="midnightblue" points="191.66,-106.34 200.56,-112.08 197.19,-102.04 191.66,-106.34"/>
</g>
<!-- Node17&#45;&gt;Node34 -->
<g id="edge8" class="edge">
<title>Node17&#45;&gt;Node34</title>
<path fill="none" stroke="midnightblue" d="M3856.97,-105.54C3867.84,-95.91 3881.44,-83.87 3890.52,-75.83"/>
<polygon fill="midnightblue" stroke="midnightblue" points="3854.47,-103.07 3849.3,-112.32 3859.11,-108.32 3854.47,-103.07"/>
</g>
<!-- Node57&#45;&gt;Node61 -->
<g id="edge12" class="edge">
<title>Node57&#45;&gt;Node61</title>
<path fill="none" stroke="midnightblue" d="M432.12,-63.18C725.8,-54.75 1946.93,-19.73 2203.91,-12.36"/>
<polygon fill="midnightblue" stroke="midnightblue" points="431.97,-59.68 422.07,-63.46 432.17,-66.68 431.97,-59.68"/>
</g>
<!-- Node57&#45;&gt;Node64 -->
<g id="edge13" class="edge">
<title>Node57&#45;&gt;Node64</title>
<path fill="none" stroke="midnightblue" d="M355.39,-48.14C348.07,-38.74 339.26,-27.4 333.31,-19.75"/>
<polygon fill="midnightblue" stroke="midnightblue" points="352.66,-50.34 361.56,-56.08 358.19,-46.04 352.66,-50.34"/>
</g>
<!-- Node65&#45;&gt;Node57 -->
<g id="edge15" class="edge">
<title>Node65&#45;&gt;Node57</title>
<path fill="none" stroke="midnightblue" d="M383.7,-102.69C379.82,-93.59 375.32,-83.01 372.23,-75.75"/>
<polygon fill="midnightblue" stroke="midnightblue" points="380.56,-104.25 387.7,-112.08 387,-101.51 380.56,-104.25"/>
</g>
<!-- Node99&#45;&gt;Node100 -->
<g id="edge33" class="edge">
<title>Node99&#45;&gt;Node100</title>
<path fill="none" stroke="midnightblue" d="M2318.42,-104.72C2309.61,-95.2 2298.83,-83.56 2291.6,-75.75"/>
<polygon fill="midnightblue" stroke="midnightblue" points="2315.88,-107.12 2325.24,-112.08 2321.02,-102.37 2315.88,-107.12"/>
</g>
<!-- Node102&#45;&gt;Node103 -->
<g id="edge38" class="edge">
<title>Node102&#45;&gt;Node103</title>
<path fill="none" stroke="midnightblue" d="M2554.61,-105.54C2544.09,-95.91 2530.93,-83.87 2522.15,-75.83"/>
<polygon fill="midnightblue" stroke="midnightblue" points="2552.28,-108.15 2562.02,-112.32 2557.01,-102.99 2552.28,-108.15"/>
</g>
<!-- Node104&#45;&gt;Node105 -->
<g id="edge42" class="edge">
<title>Node104&#45;&gt;Node105</title>
<path fill="none" stroke="midnightblue" d="M2705.55,-103.57C2699.19,-94.27 2691.63,-83.25 2686.5,-75.75"/>
<polygon fill="midnightblue" stroke="midnightblue" points="2702.85,-105.81 2711.39,-112.08 2708.63,-101.86 2702.85,-105.81"/>
</g>
<!-- Node107&#45;&gt;Node108 -->
<g id="edge46" class="edge">
<title>Node107&#45;&gt;Node108</title>
<path fill="none" stroke="midnightblue" d="M2974.59,-105.25C2964.3,-95.67 2951.53,-83.79 2942.99,-75.83"/>
<polygon fill="midnightblue" stroke="midnightblue" points="2972.48,-108.07 2982.18,-112.32 2977.25,-102.95 2972.48,-108.07"/>
</g>
<!-- Node109&#45;&gt;Node110 -->
<g id="edge49" class="edge">
<title>Node109&#45;&gt;Node110</title>
<path fill="none" stroke="midnightblue" d="M3126.49,-102.98C3121.91,-93.82 3116.55,-83.09 3112.88,-75.75"/>
<polygon fill="midnightblue" stroke="midnightblue" points="3123.44,-104.7 3131.04,-112.08 3129.7,-101.57 3123.44,-104.7"/>
</g>
<!-- Node44&#45;&gt;Node45 -->
<g id="edge62" class="edge">
<title>Node44&#45;&gt;Node45</title>
<path fill="none" stroke="midnightblue" d="M4370.74,-162.1C4358.5,-152.38 4342.94,-140.03 4332.62,-131.83"/>
<polygon fill="midnightblue" stroke="midnightblue" points="4368.57,-164.85 4378.57,-168.32 4372.92,-159.36 4368.57,-164.85"/>
</g>
<!-- Node44&#45;&gt;Node46 -->
<g id="edge63" class="edge">
<title>Node44&#45;&gt;Node46</title>
<path fill="none" stroke="midnightblue" d="M4408.54,-162.1C4420.96,-152.38 4436.74,-140.03 4447.21,-131.83"/>
<polygon fill="midnightblue" stroke="midnightblue" points="4406.3,-159.4 4400.59,-168.32 4410.62,-164.92 4406.3,-159.4"/>
</g>
</g>
</svg>
        <g id="navigator" transform="translate(0 0)" fill="#404254">
                <rect fill="#f2f5e9" fill-opacity="0.5" stroke="#606060" stroke-width=".5" x="0" y="0" width="60" height="60"/>
                <use id="zoomplus" xlink:href="#zoomPlus" x="17" y="9" onmousedown="handleZoom(evt,'in')"/>
                <use id="zoomminus" xlink:href="#zoomMin" x="42" y="9" onmousedown="handleZoom(evt,'out')"/>
                <use id="reset" xlink:href="#resetDef" x="30" y="36" onmousedown="handleReset()"/>
                <g id="arrowUp" xlink:href="#dirArrow" transform="translate(30 24)" onmousedown="handlePan(0,-1)">
                  <use xlink:href="#rim" fill="#404040">
                        <set attributeName="fill" to="#808080" begin="arrowUp.mouseover" end="arrowUp.mouseout"/>
                  </use>
                  <path fill="none" stroke="white" stroke-width="1.5" d="M0,-3.0v7 M-2.5,-0.5L0,-3.0L2.5,-0.5"/>
                </g>
                <g id="arrowRight" xlink:href="#dirArrow" transform="rotate(90) translate(36 -43)" onmousedown="handlePan(1,0)">
                  <use xlink:href="#rim" fill="#404040">
                        <set attributeName="fill" to="#808080" begin="arrowRight.mouseover" end="arrowRight.mouseout"/>
                  </use>
                  <path fill="none" stroke="white" stroke-width="1.5" d="M0,-3.0v7 M-2.5,-0.5L0,-3.0L2.5,-0.5"/>
                </g>
                <g id="arrowDown" xlink:href="#dirArrow" transform="rotate(180) translate(-30 -48)" onmousedown="handlePan(0,1)">
                  <use xlink:href="#rim" fill="#404040">
                        <set attributeName="fill" to="#808080" begin="arrowDown.mouseover" end="arrowDown.mouseout"/>
                  </use>
                  <path fill="none" stroke="white" stroke-width="1.5" d="M0,-3.0v7 M-2.5,-0.5L0,-3.0L2.5,-0.5"/>
                </g>
                <g id="arrowLeft" xlink:href="#dirArrow" transform="rotate(270) translate(-36 17)" onmousedown="handlePan(-1,0)">
                  <use xlink:href="#rim" fill="#404040">
                        <set attributeName="fill" to="#808080" begin="arrowLeft.mouseover" end="arrowLeft.mouseout"/>
                  </use>
                  <path fill="none" stroke="white" stroke-width="1.5" d="M0,-3.0v7 M-2.5,-0.5L0,-3.0L2.5,-0.5"/>
                </g>
        </g>
        <svg viewBox="0 0 15 15" width="100%" height="30px" preserveAspectRatio="xMaxYMin meet">
         <g id="arrow_out" transform="scale(0.3 0.3)">
          <a xlink:href="_p_d_e_base_8_h__dep__incl_org.svg" target="_base">
           <rect id="button" ry="5" rx="5" y="6" x="6" height="38" width="38"
                fill="#f2f5e9" fill-opacity="0.5" stroke="#606060" stroke-width="1.0"/>
           <path id="arrow"
             d="M 11.500037,31.436501 C 11.940474,20.09759 22.043105,11.32322 32.158766,21.979434 L 37.068811,17.246167 C 37.068811,17.246167 37.088388,32 37.088388,32 L 22.160133,31.978069 C 22.160133,31.978069 26.997745,27.140456 26.997745,27.140456 C 18.528582,18.264221 13.291696,25.230495 11.500037,31.436501 z"
             style="fill:#404040;"/>
          </a>
         </g>
        </svg>
</svg>
