<?xml version="1.0" encoding="UTF-8" standalone="no"?>
<!DOCTYPE svg PUBLIC "-//W3C//DTD SVG 1.1//EN"
 "http://www.w3.org/Graphics/SVG/1.1/DTD/svg11.dtd">
<!-- Generated by graphviz version 2.43.0 (0)
 -->
<!-- Title: Physics.H Pages: 1 -->
<svg width="3177pt" height="364pt"
 viewBox="0.00 0.00 3176.50 364.00" xmlns="http://www.w3.org/2000/svg" xmlns:xlink="http://www.w3.org/1999/xlink">
<g id="graph0" class="graph" transform="scale(1 1) rotate(0) translate(4 360)">
<title>Physics.H</title>
<polygon fill="white" stroke="transparent" points="-4,4 -4,-360 3172.5,-360 3172.5,4 -4,4"/>
<!-- Node1 -->
<g id="node1" class="node">
<title>Node1</title>
<g id="a_node1"><a xlink:title=" ">
<polygon fill="#bfbfbf" stroke="black" points="1638,-336.5 1638,-355.5 1702,-355.5 1702,-336.5 1638,-336.5"/>
<text text-anchor="middle" x="1670" y="-343.5" font-family="Helvetica,sans-Serif" font-size="10.00">Physics.H</text>
</a>
</g>
</g>
<!-- Node2 -->
<g id="node2" class="node">
<title>Node2</title>
<g id="a_node2"><a xlink:href="_c_f_d_sim_8_h.html" target="_top" xlink:title=" ">
<polygon fill="white" stroke="red" points="1386,-280.5 1386,-299.5 1452,-299.5 1452,-280.5 1386,-280.5"/>
<text text-anchor="middle" x="1419" y="-287.5" font-family="Helvetica,sans-Serif" font-size="10.00">CFDSim.H</text>
</a>
</g>
</g>
<!-- Node1&#45;&gt;Node2 -->
<g id="edge1" class="edge">
<title>Node1&#45;&gt;Node2</title>
<path fill="none" stroke="midnightblue" d="M1627.9,-335.94C1578.39,-325.29 1497.25,-307.84 1452.05,-298.11"/>
<polygon fill="midnightblue" stroke="midnightblue" points="1627.44,-339.42 1637.96,-338.11 1628.92,-332.58 1627.44,-339.42"/>
</g>
<!-- Node8 -->
<g id="node6" class="node">
<title>Node8</title>
<g id="a_node6"><a xlink:href="incflo__advance_8cpp.html" target="_top" xlink:title=" ">
<polygon fill="white" stroke="black" points="104,-168.5 104,-187.5 214,-187.5 214,-168.5 104,-168.5"/>
<text text-anchor="middle" x="159" y="-175.5" font-family="Helvetica,sans-Serif" font-size="10.00">incflo_advance.cpp</text>
</a>
</g>
</g>
<!-- Node1&#45;&gt;Node8 -->
<g id="edge51" class="edge">
<title>Node1&#45;&gt;Node8</title>
<path fill="none" stroke="midnightblue" d="M1627.71,-344.86C1432.63,-344 618.47,-338.16 367,-300 273.62,-285.83 221.03,-317.73 162,-244 149.01,-227.77 153.14,-201.29 156.5,-187.68"/>
<polygon fill="midnightblue" stroke="midnightblue" points="1627.83,-348.36 1637.84,-344.9 1627.85,-341.36 1627.83,-348.36"/>
</g>
<!-- Node13 -->
<g id="node7" class="node">
<title>Node13</title>
<g id="a_node7"><a xlink:href="init_8cpp.html" target="_top" xlink:title=" ">
<polygon fill="white" stroke="black" points="152.5,-0.5 152.5,-19.5 205.5,-19.5 205.5,-0.5 152.5,-0.5"/>
<text text-anchor="middle" x="179" y="-7.5" font-family="Helvetica,sans-Serif" font-size="10.00">init.cpp</text>
</a>
</g>
</g>
<!-- Node1&#45;&gt;Node13 -->
<g id="edge69" class="edge">
<title>Node1&#45;&gt;Node13</title>
<path fill="none" stroke="midnightblue" d="M1627.91,-344.93C1379.59,-344.37 114.27,-339.59 43,-300 12.72,-283.18 0,-269.64 0,-235 0,-235 0,-235 0,-121 0,-50.42 102.27,-23.69 152.2,-14.85"/>
<polygon fill="midnightblue" stroke="midnightblue" points="1627.97,-348.43 1637.97,-344.95 1627.98,-341.43 1627.97,-348.43"/>
</g>
<!-- Node15 -->
<g id="node8" class="node">
<title>Node15</title>
<g id="a_node8"><a xlink:href="io_8cpp.html" target="_top" xlink:title=" ">
<polygon fill="white" stroke="black" points="232,-168.5 232,-187.5 278,-187.5 278,-168.5 232,-168.5"/>
<text text-anchor="middle" x="255" y="-175.5" font-family="Helvetica,sans-Serif" font-size="10.00">io.cpp</text>
</a>
</g>
</g>
<!-- Node1&#45;&gt;Node15 -->
<g id="edge70" class="edge">
<title>Node1&#45;&gt;Node15</title>
<path fill="none" stroke="midnightblue" d="M1627.8,-343.79C1389.54,-336.73 221.49,-299.38 171,-244 148.51,-219.34 199.82,-197.06 231.81,-186.12"/>
<polygon fill="midnightblue" stroke="midnightblue" points="1627.7,-347.28 1637.8,-344.08 1627.91,-340.29 1627.7,-347.28"/>
</g>
<!-- Node58 -->
<g id="node13" class="node">
<title>Node58</title>
<g id="a_node13"><a xlink:href="_a_b_l_8_h.html" target="_top" xlink:title=" ">
<polygon fill="white" stroke="red" points="660,-56.5 660,-75.5 706,-75.5 706,-56.5 660,-56.5"/>
<text text-anchor="middle" x="683" y="-63.5" font-family="Helvetica,sans-Serif" font-size="10.00">ABL.H</text>
</a>
</g>
</g>
<!-- Node1&#45;&gt;Node58 -->
<g id="edge45" class="edge">
<title>Node1&#45;&gt;Node58</title>
<path fill="none" stroke="midnightblue" d="M1627.73,-344.61C1393.97,-342.35 267.74,-329.95 201,-300 138.47,-271.94 120.35,-251.67 95,-188 91.71,-179.74 89.27,-174.8 95,-168 132.42,-123.6 555.48,-79.49 659.84,-69.23"/>
<polygon fill="midnightblue" stroke="midnightblue" points="1627.83,-348.11 1637.86,-344.71 1627.9,-341.11 1627.83,-348.11"/>
</g>
<!-- Node99 -->
<g id="node31" class="node">
<title>Node99</title>
<g id="a_node31"><a xlink:href="_convecting_taylor_vortex_8_h.html" target="_top" xlink:title=" ">
<polygon fill="white" stroke="red" points="2458.5,-224.5 2458.5,-243.5 2601.5,-243.5 2601.5,-224.5 2458.5,-224.5"/>
<text text-anchor="middle" x="2530" y="-231.5" font-family="Helvetica,sans-Serif" font-size="10.00">ConvectingTaylorVortex.H</text>
</a>
</g>
</g>
<!-- Node1&#45;&gt;Node99 -->
<g id="edge49" class="edge">
<title>Node1&#45;&gt;Node99</title>
<path fill="none" stroke="midnightblue" d="M1627.54,-342.1C1566.33,-336.47 1464.74,-320.79 1504,-280 1540.44,-242.15 2396.61,-247.9 2449,-244 2452.1,-243.77 2455.27,-243.51 2458.47,-243.23"/>
<polygon fill="midnightblue" stroke="midnightblue" points="1627.46,-345.61 1637.72,-342.98 1628.06,-338.64 1627.46,-345.61"/>
</g>
<!-- Node102 -->
<g id="node32" class="node">
<title>Node102</title>
<g id="a_node32"><a xlink:href="_channel_flow_8_h.html" target="_top" xlink:title=" ">
<polygon fill="white" stroke="red" points="2619.5,-224.5 2619.5,-243.5 2708.5,-243.5 2708.5,-224.5 2619.5,-224.5"/>
<text text-anchor="middle" x="2664" y="-231.5" font-family="Helvetica,sans-Serif" font-size="10.00">ChannelFlow.H</text>
</a>
</g>
</g>
<!-- Node1&#45;&gt;Node102 -->
<g id="edge54" class="edge">
<title>Node1&#45;&gt;Node102</title>
<path fill="none" stroke="midnightblue" d="M1627.89,-338.52C1580.05,-329.52 1512.24,-310.78 1542,-280 1583.3,-237.28 2551.88,-249.99 2611,-244 2613.69,-243.73 2616.46,-243.4 2619.24,-243.04"/>
<polygon fill="midnightblue" stroke="midnightblue" points="1627.29,-341.97 1637.76,-340.29 1628.53,-335.08 1627.29,-341.97"/>
</g>
<!-- Node104 -->
<g id="node33" class="node">
<title>Node104</title>
<g id="a_node33"><a xlink:href="_ekman_spiral_8_h.html" target="_top" xlink:title=" ">
<polygon fill="white" stroke="red" points="2726.5,-224.5 2726.5,-243.5 2815.5,-243.5 2815.5,-224.5 2726.5,-224.5"/>
<text text-anchor="middle" x="2771" y="-231.5" font-family="Helvetica,sans-Serif" font-size="10.00">EkmanSpiral.H</text>
</a>
</g>
</g>
<!-- Node1&#45;&gt;Node104 -->
<g id="edge55" class="edge">
<title>Node1&#45;&gt;Node104</title>
<path fill="none" stroke="midnightblue" d="M1630.87,-333.21C1597.79,-321.37 1558.88,-301.8 1580,-280 1624.01,-234.57 2655.06,-250.31 2718,-244 2720.69,-243.73 2723.46,-243.41 2726.24,-243.04"/>
<polygon fill="midnightblue" stroke="midnightblue" points="1629.84,-336.56 1640.44,-336.48 1632.11,-329.93 1629.84,-336.56"/>
</g>
<!-- Node107 -->
<g id="node34" class="node">
<title>Node107</title>
<g id="a_node34"><a xlink:href="_hybrid_r_a_n_s_l_e_s_a_b_l_8_h.html" target="_top" xlink:title=" ">
<polygon fill="white" stroke="red" points="2833.5,-224.5 2833.5,-243.5 2956.5,-243.5 2956.5,-224.5 2833.5,-224.5"/>
<text text-anchor="middle" x="2895" y="-231.5" font-family="Helvetica,sans-Serif" font-size="10.00">HybridRANSLESABL.H</text>
</a>
</g>
</g>
<!-- Node1&#45;&gt;Node107 -->
<g id="edge57" class="edge">
<title>Node1&#45;&gt;Node107</title>
<path fill="none" stroke="midnightblue" d="M1645.85,-330.83C1625.53,-317.22 1602.13,-296.35 1618,-280 1664.72,-231.86 2758.12,-249.28 2825,-244 2827.69,-243.79 2830.43,-243.55 2833.2,-243.28"/>
<polygon fill="midnightblue" stroke="midnightblue" points="1644.22,-333.94 1654.53,-336.36 1647.98,-328.04 1644.22,-333.94"/>
</g>
<!-- Node109 -->
<g id="node35" class="node">
<title>Node109</title>
<g id="a_node35"><a xlink:href="_m_m_s_8_h.html" target="_top" xlink:title=" ">
<polygon fill="white" stroke="red" points="2974.5,-224.5 2974.5,-243.5 3025.5,-243.5 3025.5,-224.5 2974.5,-224.5"/>
<text text-anchor="middle" x="3000" y="-231.5" font-family="Helvetica,sans-Serif" font-size="10.00">MMS.H</text>
</a>
</g>
</g>
<!-- Node1&#45;&gt;Node109 -->
<g id="edge58" class="edge">
<title>Node1&#45;&gt;Node109</title>
<path fill="none" stroke="midnightblue" d="M1658.72,-327.45C1650.89,-312.85 1643.85,-292.49 1656,-280 1706.77,-227.82 2893.94,-254.38 2966,-244 2968.66,-243.62 2971.41,-243.1 2974.14,-242.51"/>
<polygon fill="midnightblue" stroke="midnightblue" points="1655.71,-329.23 1663.79,-336.08 1661.74,-325.68 1655.71,-329.23"/>
</g>
<!-- Node119 -->
<g id="node36" class="node">
<title>Node119</title>
<g id="a_node36"><a xlink:href="_synthetic_turbulence_8_h.html" target="_top" xlink:title=" ">
<polygon fill="white" stroke="red" points="3043.5,-224.5 3043.5,-243.5 3168.5,-243.5 3168.5,-224.5 3043.5,-224.5"/>
<text text-anchor="middle" x="3106" y="-231.5" font-family="Helvetica,sans-Serif" font-size="10.00">SyntheticTurbulence.H</text>
</a>
</g>
</g>
<!-- Node1&#45;&gt;Node119 -->
<g id="edge66" class="edge">
<title>Node1&#45;&gt;Node119</title>
<path fill="none" stroke="midnightblue" d="M1670.24,-325.76C1671.56,-310.7 1676.06,-290.58 1690,-280 1749.53,-234.79 2960.47,-249.71 3035,-244 3037.73,-243.79 3040.51,-243.55 3043.31,-243.29"/>
<polygon fill="midnightblue" stroke="midnightblue" points="1666.73,-325.9 1669.75,-336.06 1673.72,-326.24 1666.73,-325.9"/>
</g>
<!-- Node188 -->
<g id="node37" class="node">
<title>Node188</title>
<g id="a_node37"><a xlink:href="_actuator_8_h.html" target="_top" xlink:title=" ">
<polygon fill="white" stroke="red" points="785,-280.5 785,-299.5 853,-299.5 853,-280.5 785,-280.5"/>
<text text-anchor="middle" x="819" y="-287.5" font-family="Helvetica,sans-Serif" font-size="10.00">Actuator.H</text>
</a>
</g>
</g>
<!-- Node1&#45;&gt;Node188 -->
<g id="edge46" class="edge">
<title>Node1&#45;&gt;Node188</title>
<path fill="none" stroke="midnightblue" d="M1627.91,-342.33C1480.31,-332.96 987.81,-301.71 853.24,-293.17"/>
<polygon fill="midnightblue" stroke="midnightblue" points="1627.73,-345.83 1637.94,-342.97 1628.18,-338.84 1627.73,-345.83"/>
</g>
<!-- Node190 -->
<g id="node38" class="node">
<title>Node190</title>
<g id="a_node38"><a xlink:href="_multi_phase_8_h.html" target="_top" xlink:title=" ">
<polygon fill="white" stroke="red" points="1698.5,-280.5 1698.5,-299.5 1779.5,-299.5 1779.5,-280.5 1698.5,-280.5"/>
<text text-anchor="middle" x="1739" y="-287.5" font-family="Helvetica,sans-Serif" font-size="10.00">MultiPhase.H</text>
</a>
</g>
</g>
<!-- Node1&#45;&gt;Node190 -->
<g id="edge48" class="edge">
<title>Node1&#45;&gt;Node190</title>
<path fill="none" stroke="midnightblue" d="M1689.04,-330.1C1701.46,-320.38 1717.24,-308.03 1727.71,-299.83"/>
<polygon fill="midnightblue" stroke="midnightblue" points="1686.8,-327.4 1681.09,-336.32 1691.12,-332.92 1686.8,-327.4"/>
</g>
<!-- Node193 -->
<g id="node39" class="node">
<title>Node193</title>
<g id="a_node39"><a xlink:href="_i_b_8_h.html" target="_top" xlink:title=" ">
<polygon fill="white" stroke="red" points="1797.5,-280.5 1797.5,-299.5 1834.5,-299.5 1834.5,-280.5 1797.5,-280.5"/>
<text text-anchor="middle" x="1816" y="-287.5" font-family="Helvetica,sans-Serif" font-size="10.00">IB.H</text>
</a>
</g>
</g>
<!-- Node1&#45;&gt;Node193 -->
<g id="edge50" class="edge">
<title>Node1&#45;&gt;Node193</title>
<path fill="none" stroke="midnightblue" d="M1702.85,-332.85C1731.93,-322.1 1773.33,-306.78 1797.15,-297.97"/>
<polygon fill="midnightblue" stroke="midnightblue" points="1701.3,-329.69 1693.13,-336.44 1703.73,-336.26 1701.3,-329.69"/>
</g>
<!-- Node194 -->
<g id="node40" class="node">
<title>Node194</title>
<g id="a_node40"><a xlink:href="_boussinesq_bubble_8_h.html" target="_top" xlink:title=" ">
<polygon fill="white" stroke="red" points="61,-112.5 61,-131.5 177,-131.5 177,-112.5 61,-112.5"/>
<text text-anchor="middle" x="119" y="-119.5" font-family="Helvetica,sans-Serif" font-size="10.00">BoussinesqBubble.H</text>
</a>
</g>
</g>
<!-- Node1&#45;&gt;Node194 -->
<g id="edge52" class="edge">
<title>Node1&#45;&gt;Node194</title>
<path fill="none" stroke="midnightblue" d="M1627.58,-344.62C1376.02,-342.28 90.1,-328.9 62,-300 21.1,-257.94 36.42,-220.79 62,-168 70.03,-151.43 87.44,-139.13 100.92,-131.61"/>
<polygon fill="midnightblue" stroke="midnightblue" points="1627.74,-348.12 1637.77,-344.72 1627.8,-341.12 1627.74,-348.12"/>
</g>
<!-- Node195 -->
<g id="node41" class="node">
<title>Node195</title>
<g id="a_node41"><a xlink:href="_free_stream_8_h.html" target="_top" xlink:title=" ">
<polygon fill="white" stroke="red" points="1852.5,-280.5 1852.5,-299.5 1935.5,-299.5 1935.5,-280.5 1852.5,-280.5"/>
<text text-anchor="middle" x="1894" y="-287.5" font-family="Helvetica,sans-Serif" font-size="10.00">FreeStream.H</text>
</a>
</g>
</g>
<!-- Node1&#45;&gt;Node195 -->
<g id="edge56" class="edge">
<title>Node1&#45;&gt;Node195</title>
<path fill="none" stroke="midnightblue" d="M1712.08,-334.86C1754.39,-324.66 1818.89,-309.11 1858.64,-299.52"/>
<polygon fill="midnightblue" stroke="midnightblue" points="1710.99,-331.52 1702.09,-337.26 1712.64,-338.32 1710.99,-331.52"/>
</g>
<!-- Node196 -->
<g id="node42" class="node">
<title>Node196</title>
<g id="a_node42"><a xlink:href="_dam_break_8_h.html" target="_top" xlink:title=" ">
<polygon fill="white" stroke="red" points="1953.5,-280.5 1953.5,-299.5 2032.5,-299.5 2032.5,-280.5 1953.5,-280.5"/>
<text text-anchor="middle" x="1993" y="-287.5" font-family="Helvetica,sans-Serif" font-size="10.00">DamBreak.H</text>
</a>
</g>
</g>
<!-- Node1&#45;&gt;Node196 -->
<g id="edge59" class="edge">
<title>Node1&#45;&gt;Node196</title>
<path fill="none" stroke="midnightblue" d="M1712.11,-338.42C1766.12,-329.91 1862.63,-314.46 1945,-300 1947.76,-299.52 1950.6,-299.01 1953.46,-298.49"/>
<polygon fill="midnightblue" stroke="midnightblue" points="1711.55,-334.96 1702.22,-339.98 1712.64,-341.88 1711.55,-334.96"/>
</g>
<!-- Node197 -->
<g id="node43" class="node">
<title>Node197</title>
<g id="a_node43"><a xlink:href="_rain_drop_8_h.html" target="_top" xlink:title=" ">
<polygon fill="white" stroke="red" points="2051,-280.5 2051,-299.5 2123,-299.5 2123,-280.5 2051,-280.5"/>
<text text-anchor="middle" x="2087" y="-287.5" font-family="Helvetica,sans-Serif" font-size="10.00">RainDrop.H</text>
</a>
</g>
</g>
<!-- Node1&#45;&gt;Node197 -->
<g id="edge60" class="edge">
<title>Node1&#45;&gt;Node197</title>
<path fill="none" stroke="midnightblue" d="M1712.55,-340.93C1781.81,-334.06 1923.16,-319.04 2042,-300 2044.83,-299.55 2047.76,-299.04 2050.69,-298.51"/>
<polygon fill="midnightblue" stroke="midnightblue" points="1712.07,-337.46 1702.46,-341.92 1712.76,-344.43 1712.07,-337.46"/>
</g>
<!-- Node198 -->
<g id="node44" class="node">
<title>Node198</title>
<g id="a_node44"><a xlink:href="_sloshing_tank_8_h.html" target="_top" xlink:title=" ">
<polygon fill="white" stroke="red" points="2141.5,-280.5 2141.5,-299.5 2232.5,-299.5 2232.5,-280.5 2141.5,-280.5"/>
<text text-anchor="middle" x="2187" y="-287.5" font-family="Helvetica,sans-Serif" font-size="10.00">SloshingTank.H</text>
</a>
</g>
</g>
<!-- Node1&#45;&gt;Node198 -->
<g id="edge61" class="edge">
<title>Node1&#45;&gt;Node198</title>
<path fill="none" stroke="midnightblue" d="M1712.35,-341.8C1793.8,-335.45 1977.9,-320.09 2132,-300 2135.07,-299.6 2138.23,-299.16 2141.42,-298.69"/>
<polygon fill="midnightblue" stroke="midnightblue" points="1711.71,-338.34 1702.01,-342.6 1712.25,-345.32 1711.71,-338.34"/>
</g>
<!-- Node199 -->
<g id="node45" class="node">
<title>Node199</title>
<g id="a_node45"><a xlink:href="_vortex_patch_8_h.html" target="_top" xlink:title=" ">
<polygon fill="white" stroke="red" points="2250.5,-280.5 2250.5,-299.5 2335.5,-299.5 2335.5,-280.5 2250.5,-280.5"/>
<text text-anchor="middle" x="2293" y="-287.5" font-family="Helvetica,sans-Serif" font-size="10.00">VortexPatch.H</text>
</a>
</g>
</g>
<!-- Node1&#45;&gt;Node199 -->
<g id="edge62" class="edge">
<title>Node1&#45;&gt;Node199</title>
<path fill="none" stroke="midnightblue" d="M1712.11,-343.08C1806.98,-338.44 2044.61,-325.12 2242,-300 2244.76,-299.65 2247.61,-299.25 2250.47,-298.82"/>
<polygon fill="midnightblue" stroke="midnightblue" points="1711.87,-339.58 1702.05,-343.56 1712.21,-346.58 1711.87,-339.58"/>
</g>
<!-- Node200 -->
<g id="node46" class="node">
<title>Node200</title>
<g id="a_node46"><a xlink:href="_n_w_b_8_h.html" target="_top" xlink:title=" ">
<polygon fill="white" stroke="red" points="2353.5,-280.5 2353.5,-299.5 2404.5,-299.5 2404.5,-280.5 2353.5,-280.5"/>
<text text-anchor="middle" x="2379" y="-287.5" font-family="Helvetica,sans-Serif" font-size="10.00">NWB.H</text>
</a>
</g>
</g>
<!-- Node1&#45;&gt;Node200 -->
<g id="edge63" class="edge">
<title>Node1&#45;&gt;Node200</title>
<path fill="none" stroke="midnightblue" d="M1712.28,-344.99C1819.07,-344.36 2108.06,-338.89 2345,-300 2347.77,-299.55 2350.65,-298.96 2353.49,-298.31"/>
<polygon fill="midnightblue" stroke="midnightblue" points="1712.21,-341.49 1702.22,-345.04 1712.24,-348.49 1712.21,-341.49"/>
</g>
<!-- Node201 -->
<g id="node47" class="node">
<title>Node201</title>
<g id="a_node47"><a xlink:href="_zalesak_disk_8_h.html" target="_top" xlink:title=" ">
<polygon fill="white" stroke="red" points="2423,-280.5 2423,-299.5 2511,-299.5 2511,-280.5 2423,-280.5"/>
<text text-anchor="middle" x="2467" y="-287.5" font-family="Helvetica,sans-Serif" font-size="10.00">ZalesakDisk.H</text>
</a>
</g>
</g>
<!-- Node1&#45;&gt;Node201 -->
<g id="edge64" class="edge">
<title>Node1&#45;&gt;Node201</title>
<path fill="none" stroke="midnightblue" d="M1712.03,-344.04C1825.57,-341.12 2147.84,-330.56 2414,-300 2416.87,-299.67 2419.83,-299.29 2422.8,-298.87"/>
<polygon fill="midnightblue" stroke="midnightblue" points="1711.92,-340.55 1702.01,-344.3 1712.1,-347.54 1711.92,-340.55"/>
</g>
<!-- Node202 -->
<g id="node48" class="node">
<title>Node202</title>
<g id="a_node48"><a xlink:href="_rayleigh_taylor_8_h.html" target="_top" xlink:title=" ">
<polygon fill="white" stroke="red" points="2529,-280.5 2529,-299.5 2627,-299.5 2627,-280.5 2529,-280.5"/>
<text text-anchor="middle" x="2578" y="-287.5" font-family="Helvetica,sans-Serif" font-size="10.00">RayleighTaylor.H</text>
</a>
</g>
</g>
<!-- Node1&#45;&gt;Node202 -->
<g id="edge65" class="edge">
<title>Node1&#45;&gt;Node202</title>
<path fill="none" stroke="midnightblue" d="M1712.35,-344.27C1836.65,-341.81 2211.14,-332.06 2520,-300 2522.94,-299.69 2525.96,-299.34 2529,-298.96"/>
<polygon fill="midnightblue" stroke="midnightblue" points="1712.06,-340.78 1702.13,-344.47 1712.19,-347.77 1712.06,-340.78"/>
</g>
<!-- Node203 -->
<g id="node49" class="node">
<title>Node203</title>
<g id="a_node49"><a xlink:href="_taylor_green_vortex_8_h.html" target="_top" xlink:title=" ">
<polygon fill="white" stroke="red" points="2645.5,-280.5 2645.5,-299.5 2762.5,-299.5 2762.5,-280.5 2645.5,-280.5"/>
<text text-anchor="middle" x="2704" y="-287.5" font-family="Helvetica,sans-Serif" font-size="10.00">TaylorGreenVortex.H</text>
</a>
</g>
</g>
<!-- Node1&#45;&gt;Node203 -->
<g id="edge67" class="edge">
<title>Node1&#45;&gt;Node203</title>
<path fill="none" stroke="midnightblue" d="M1712.49,-344.31C1847.68,-341.84 2279.84,-331.81 2636,-300 2639.08,-299.72 2642.24,-299.41 2645.43,-299.07"/>
<polygon fill="midnightblue" stroke="midnightblue" points="1712.11,-340.82 1702.17,-344.49 1712.23,-347.81 1712.11,-340.82"/>
</g>
<!-- Node204 -->
<g id="node50" class="node">
<title>Node204</title>
<g id="a_node50"><a xlink:href="_vortex_ring_8_h.html" target="_top" xlink:title=" ">
<polygon fill="white" stroke="red" points="2781,-280.5 2781,-299.5 2861,-299.5 2861,-280.5 2781,-280.5"/>
<text text-anchor="middle" x="2821" y="-287.5" font-family="Helvetica,sans-Serif" font-size="10.00">VortexRing.H</text>
</a>
</g>
</g>
<!-- Node1&#45;&gt;Node204 -->
<g id="edge68" class="edge">
<title>Node1&#45;&gt;Node204</title>
<path fill="none" stroke="midnightblue" d="M1712.51,-345.41C1859.73,-346.38 2361.25,-345.88 2772,-300 2774.92,-299.67 2777.93,-299.28 2780.96,-298.83"/>
<polygon fill="midnightblue" stroke="midnightblue" points="1712.16,-341.91 1702.13,-345.34 1712.1,-348.91 1712.16,-341.91"/>
</g>
<!-- Node3 -->
<g id="node3" class="node">
<title>Node3</title>
<g id="a_node3"><a xlink:href="_c_f_d_sim_8cpp.html" target="_top" xlink:title=" ">
<polygon fill="white" stroke="black" points="383,-224.5 383,-243.5 459,-243.5 459,-224.5 383,-224.5"/>
<text text-anchor="middle" x="421" y="-231.5" font-family="Helvetica,sans-Serif" font-size="10.00">CFDSim.cpp</text>
</a>
</g>
</g>
<!-- Node2&#45;&gt;Node3 -->
<g id="edge2" class="edge">
<title>Node2&#45;&gt;Node3</title>
<path fill="none" stroke="midnightblue" d="M1375.23,-289.13C1239.83,-289.07 815.98,-285.34 468,-244 465.11,-243.66 462.14,-243.24 459.15,-242.77"/>
<polygon fill="midnightblue" stroke="midnightblue" points="1375.59,-292.63 1385.59,-289.13 1375.59,-285.63 1375.59,-292.63"/>
</g>
<!-- Node4 -->
<g id="node4" class="node">
<title>Node4</title>
<g id="a_node4"><a xlink:href="_mesh_map_8cpp.html" target="_top" xlink:title=" ">
<polygon fill="white" stroke="black" points="477,-224.5 477,-243.5 561,-243.5 561,-224.5 477,-224.5"/>
<text text-anchor="middle" x="519" y="-231.5" font-family="Helvetica,sans-Serif" font-size="10.00">MeshMap.cpp</text>
</a>
</g>
</g>
<!-- Node2&#45;&gt;Node4 -->
<g id="edge3" class="edge">
<title>Node2&#45;&gt;Node4</title>
<path fill="none" stroke="midnightblue" d="M1375.37,-288.56C1249.83,-286.89 877.08,-279.1 570,-244 567.14,-243.67 564.2,-243.29 561.24,-242.86"/>
<polygon fill="midnightblue" stroke="midnightblue" points="1375.66,-292.06 1385.71,-288.69 1375.75,-285.06 1375.66,-292.06"/>
</g>
<!-- Node5 -->
<g id="node5" class="node">
<title>Node5</title>
<g id="a_node5"><a xlink:href="incflo_8_h.html" target="_top" xlink:title=" ">
<polygon fill="white" stroke="red" points="311.5,-224.5 311.5,-243.5 364.5,-243.5 364.5,-224.5 311.5,-224.5"/>
<text text-anchor="middle" x="338" y="-231.5" font-family="Helvetica,sans-Serif" font-size="10.00">incflo.H</text>
</a>
</g>
</g>
<!-- Node2&#45;&gt;Node5 -->
<g id="edge4" class="edge">
<title>Node2&#45;&gt;Node5</title>
<path fill="none" stroke="midnightblue" d="M1375.74,-288.3C1204.27,-285.35 572.14,-272.73 374,-244 370.94,-243.56 367.76,-242.96 364.62,-242.29"/>
<polygon fill="midnightblue" stroke="midnightblue" points="1375.84,-291.8 1385.89,-288.47 1375.95,-284.8 1375.84,-291.8"/>
</g>
<!-- Node17 -->
<g id="node9" class="node">
<title>Node17</title>
<g id="a_node9"><a xlink:href="_p_d_e_ops_8_h.html" target="_top" xlink:title=" ">
<polygon fill="white" stroke="red" points="875.5,-224.5 875.5,-243.5 940.5,-243.5 940.5,-224.5 875.5,-224.5"/>
<text text-anchor="middle" x="908" y="-231.5" font-family="Helvetica,sans-Serif" font-size="10.00">PDEOps.H</text>
</a>
</g>
</g>
<!-- Node2&#45;&gt;Node17 -->
<g id="edge8" class="edge">
<title>Node2&#45;&gt;Node17</title>
<path fill="none" stroke="midnightblue" d="M1375.8,-286.53C1292.88,-281.41 1105.82,-268.09 950,-244 947.05,-243.54 944,-243.01 940.95,-242.44"/>
<polygon fill="midnightblue" stroke="midnightblue" points="1375.66,-290.03 1385.86,-287.14 1376.09,-283.04 1375.66,-290.03"/>
</g>
<!-- Node34 -->
<g id="node10" class="node">
<title>Node34</title>
<g id="a_node10"><a xlink:href="_p_d_e_8_h.html" target="_top" xlink:title=" ">
<polygon fill="white" stroke="red" points="861.5,-168.5 861.5,-187.5 908.5,-187.5 908.5,-168.5 861.5,-168.5"/>
<text text-anchor="middle" x="885" y="-175.5" font-family="Helvetica,sans-Serif" font-size="10.00">PDE.H</text>
</a>
</g>
</g>
<!-- Node2&#45;&gt;Node34 -->
<g id="edge10" class="edge">
<title>Node2&#45;&gt;Node34</title>
<path fill="none" stroke="midnightblue" d="M1375.4,-288.77C1250.86,-287.65 900.3,-281.2 866,-244 851.34,-228.1 867.57,-201.47 877.86,-187.76"/>
<polygon fill="midnightblue" stroke="midnightblue" points="1375.67,-292.27 1385.7,-288.85 1375.72,-285.27 1375.67,-292.27"/>
</g>
<!-- Node56 -->
<g id="node11" class="node">
<title>Node56</title>
<g id="a_node11"><a xlink:href="_a_b_l_forcing_8cpp.html" target="_top" xlink:title=" ">
<polygon fill="white" stroke="black" points="804.5,-0.5 804.5,-19.5 895.5,-19.5 895.5,-0.5 804.5,-0.5"/>
<text text-anchor="middle" x="850" y="-7.5" font-family="Helvetica,sans-Serif" font-size="10.00">ABLForcing.cpp</text>
</a>
</g>
</g>
<!-- Node2&#45;&gt;Node56 -->
<g id="edge11" class="edge">
<title>Node2&#45;&gt;Node56</title>
<path fill="none" stroke="midnightblue" d="M1375.4,-287.18C1301.36,-283.36 1154.99,-272.35 1113,-244 1085.27,-225.27 1075,-212.46 1075,-179 1075,-179 1075,-179 1075,-121 1075,-41.86 961.28,-19.65 895.53,-13.42"/>
<polygon fill="midnightblue" stroke="midnightblue" points="1375.62,-290.7 1385.78,-287.7 1375.97,-283.71 1375.62,-290.7"/>
</g>
<!-- Node57 -->
<g id="node12" class="node">
<title>Node57</title>
<g id="a_node12"><a xlink:href="_a_b_l_wall_function_8_h.html" target="_top" xlink:title=" ">
<polygon fill="white" stroke="red" points="635.5,-168.5 635.5,-187.5 742.5,-187.5 742.5,-168.5 635.5,-168.5"/>
<text text-anchor="middle" x="689" y="-175.5" font-family="Helvetica,sans-Serif" font-size="10.00">ABLWallFunction.H</text>
</a>
</g>
</g>
<!-- Node2&#45;&gt;Node57 -->
<g id="edge12" class="edge">
<title>Node2&#45;&gt;Node57</title>
<path fill="none" stroke="midnightblue" d="M1375.8,-287.77C1237.81,-283.6 813.37,-268.86 757,-244 728.91,-231.61 705.4,-202.36 694.9,-187.7"/>
<polygon fill="midnightblue" stroke="midnightblue" points="1375.89,-291.27 1385.99,-288.07 1376.1,-284.27 1375.89,-291.27"/>
</g>
<!-- Node59 -->
<g id="node14" class="node">
<title>Node59</title>
<g id="a_node14"><a xlink:href="_a_b_l_mean_boussinesq_8cpp.html" target="_top" xlink:title=" ">
<polygon fill="white" stroke="black" points="960,-0.5 960,-19.5 1098,-19.5 1098,-0.5 960,-0.5"/>
<text text-anchor="middle" x="1029" y="-7.5" font-family="Helvetica,sans-Serif" font-size="10.00">ABLMeanBoussinesq.cpp</text>
</a>
</g>
</g>
<!-- Node2&#45;&gt;Node59 -->
<g id="edge25" class="edge">
<title>Node2&#45;&gt;Node59</title>
<path fill="none" stroke="midnightblue" d="M1375.57,-287.75C1304.44,-284.81 1167.45,-275.15 1132,-244 1109.39,-224.13 1113,-209.1 1113,-179 1113,-179 1113,-179 1113,-121 1113,-90.2 1107.4,-80.69 1089,-56 1077.25,-40.24 1058.49,-27.41 1045.07,-19.54"/>
<polygon fill="midnightblue" stroke="midnightblue" points="1375.86,-291.26 1385.98,-288.15 1376.13,-284.26 1375.86,-291.26"/>
</g>
<!-- Node61 -->
<g id="node15" class="node">
<title>Node61</title>
<g id="a_node15"><a xlink:href="_a_b_l_stats_base_8_h.html" target="_top" xlink:title=" ">
<polygon fill="white" stroke="red" points="673.5,-112.5 673.5,-131.5 768.5,-131.5 768.5,-112.5 673.5,-112.5"/>
<text text-anchor="middle" x="721" y="-119.5" font-family="Helvetica,sans-Serif" font-size="10.00">ABLStatsBase.H</text>
</a>
</g>
</g>
<!-- Node2&#45;&gt;Node61 -->
<g id="edge24" class="edge">
<title>Node2&#45;&gt;Node61</title>
<path fill="none" stroke="midnightblue" d="M1375.63,-289.49C1258.11,-290.2 935.98,-287.98 841,-244 785.43,-218.27 741.27,-155.04 726.4,-131.77"/>
<polygon fill="midnightblue" stroke="midnightblue" points="1375.73,-292.99 1385.7,-289.41 1375.68,-285.99 1375.73,-292.99"/>
</g>
<!-- Node65 -->
<g id="node16" class="node">
<title>Node65</title>
<g id="a_node16"><a xlink:href="_field_plane_averaging_8_h.html" target="_top" xlink:title=" ">
<polygon fill="white" stroke="red" points="579,-224.5 579,-243.5 705,-243.5 705,-224.5 579,-224.5"/>
<text text-anchor="middle" x="642" y="-231.5" font-family="Helvetica,sans-Serif" font-size="10.00">FieldPlaneAveraging.H</text>
</a>
</g>
</g>
<!-- Node2&#45;&gt;Node65 -->
<g id="edge19" class="edge">
<title>Node2&#45;&gt;Node65</title>
<path fill="none" stroke="midnightblue" d="M1375.76,-287.01C1265.91,-281.77 967.2,-266.47 719,-244 714.44,-243.59 709.74,-243.13 705,-242.64"/>
<polygon fill="midnightblue" stroke="midnightblue" points="1375.64,-290.5 1385.8,-287.48 1375.97,-283.51 1375.64,-290.5"/>
</g>
<!-- Node72 -->
<g id="node17" class="node">
<title>Node72</title>
<g id="a_node17"><a xlink:href="_a_b_l_boundary_plane_8_h.html" target="_top" xlink:title=" ">
<polygon fill="white" stroke="red" points="786.5,-112.5 786.5,-131.5 905.5,-131.5 905.5,-112.5 786.5,-112.5"/>
<text text-anchor="middle" x="846" y="-119.5" font-family="Helvetica,sans-Serif" font-size="10.00">ABLBoundaryPlane.H</text>
</a>
</g>
</g>
<!-- Node2&#45;&gt;Node72 -->
<g id="edge22" class="edge">
<title>Node2&#45;&gt;Node72</title>
<path fill="none" stroke="midnightblue" d="M1375.66,-288.68C1250.27,-287.31 893.63,-280.24 857,-244 826.11,-213.44 837.81,-153.71 843.56,-131.55"/>
<polygon fill="midnightblue" stroke="midnightblue" points="1375.64,-292.18 1385.68,-288.78 1375.72,-285.18 1375.64,-292.18"/>
</g>
<!-- Node76 -->
<g id="node18" class="node">
<title>Node76</title>
<g id="a_node18"><a xlink:href="_actuator_forcing_8cpp.html" target="_top" xlink:title=" ">
<polygon fill="white" stroke="black" points="180.5,-224.5 180.5,-243.5 293.5,-243.5 293.5,-224.5 180.5,-224.5"/>
<text text-anchor="middle" x="237" y="-231.5" font-family="Helvetica,sans-Serif" font-size="10.00">ActuatorForcing.cpp</text>
</a>
</g>
</g>
<!-- Node2&#45;&gt;Node76 -->
<g id="edge26" class="edge">
<title>Node2&#45;&gt;Node76</title>
<path fill="none" stroke="midnightblue" d="M1375.41,-288.77C1225.7,-287.65 718.74,-281.16 302,-244 299.28,-243.76 296.49,-243.48 293.68,-243.18"/>
<polygon fill="midnightblue" stroke="midnightblue" points="1375.55,-292.27 1385.57,-288.84 1375.6,-285.27 1375.55,-292.27"/>
</g>
<!-- Node77 -->
<g id="node19" class="node">
<title>Node77</title>
<g id="a_node19"><a xlink:href="_body_force_8cpp.html" target="_top" xlink:title=" ">
<polygon fill="white" stroke="black" points="959,-224.5 959,-243.5 1047,-243.5 1047,-224.5 959,-224.5"/>
<text text-anchor="middle" x="1003" y="-231.5" font-family="Helvetica,sans-Serif" font-size="10.00">BodyForce.cpp</text>
</a>
</g>
</g>
<!-- Node2&#45;&gt;Node77 -->
<g id="edge27" class="edge">
<title>Node2&#45;&gt;Node77</title>
<path fill="none" stroke="midnightblue" d="M1375.66,-283.96C1308.28,-276.04 1174.35,-259.91 1061,-244 1056.56,-243.38 1051.93,-242.7 1047.31,-242.01"/>
<polygon fill="midnightblue" stroke="midnightblue" points="1375.55,-287.47 1385.89,-285.16 1376.36,-280.52 1375.55,-287.47"/>
</g>
<!-- Node78 -->
<g id="node20" class="node">
<title>Node78</title>
<g id="a_node20"><a xlink:href="_boussinesq_buoyancy_8cpp.html" target="_top" xlink:title=" ">
<polygon fill="white" stroke="black" points="1141.5,-224.5 1141.5,-243.5 1280.5,-243.5 1280.5,-224.5 1141.5,-224.5"/>
<text text-anchor="middle" x="1211" y="-231.5" font-family="Helvetica,sans-Serif" font-size="10.00">BoussinesqBuoyancy.cpp</text>
</a>
</g>
</g>
<!-- Node2&#45;&gt;Node78 -->
<g id="edge28" class="edge">
<title>Node2&#45;&gt;Node78</title>
<path fill="none" stroke="midnightblue" d="M1376.22,-277.89C1336.94,-267.7 1279.57,-252.8 1243.8,-243.52"/>
<polygon fill="midnightblue" stroke="midnightblue" points="1375.48,-281.32 1386.04,-280.44 1377.24,-274.54 1375.48,-281.32"/>
</g>
<!-- Node79 -->
<g id="node21" class="node">
<title>Node79</title>
<g id="a_node21"><a xlink:href="_coriolis_forcing_8cpp.html" target="_top" xlink:title=" ">
<polygon fill="white" stroke="black" points="1298.5,-224.5 1298.5,-243.5 1407.5,-243.5 1407.5,-224.5 1298.5,-224.5"/>
<text text-anchor="middle" x="1353" y="-231.5" font-family="Helvetica,sans-Serif" font-size="10.00">CoriolisForcing.cpp</text>
</a>
</g>
</g>
<!-- Node2&#45;&gt;Node79 -->
<g id="edge29" class="edge">
<title>Node2&#45;&gt;Node79</title>
<path fill="none" stroke="midnightblue" d="M1400.45,-273.82C1388.62,-264.15 1373.71,-251.95 1363.8,-243.83"/>
<polygon fill="midnightblue" stroke="midnightblue" points="1398.44,-276.7 1408.4,-280.32 1402.87,-271.28 1398.44,-276.7"/>
</g>
<!-- Node80 -->
<g id="node22" class="node">
<title>Node80</title>
<g id="a_node22"><a xlink:href="_density_buoyancy_8cpp.html" target="_top" xlink:title=" ">
<polygon fill="white" stroke="black" points="1425.5,-224.5 1425.5,-243.5 1546.5,-243.5 1546.5,-224.5 1425.5,-224.5"/>
<text text-anchor="middle" x="1486" y="-231.5" font-family="Helvetica,sans-Serif" font-size="10.00">DensityBuoyancy.cpp</text>
</a>
</g>
</g>
<!-- Node2&#45;&gt;Node80 -->
<g id="edge30" class="edge">
<title>Node2&#45;&gt;Node80</title>
<path fill="none" stroke="midnightblue" d="M1437.83,-273.82C1449.84,-264.15 1464.97,-251.95 1475.04,-243.83"/>
<polygon fill="midnightblue" stroke="midnightblue" points="1435.35,-271.32 1429.76,-280.32 1439.75,-276.77 1435.35,-271.32"/>
</g>
<!-- Node81 -->
<g id="node23" class="node">
<title>Node81</title>
<g id="a_node23"><a xlink:href="_geostrophic_forcing_8cpp.html" target="_top" xlink:title=" ">
<polygon fill="white" stroke="black" points="1564.5,-224.5 1564.5,-243.5 1695.5,-243.5 1695.5,-224.5 1564.5,-224.5"/>
<text text-anchor="middle" x="1630" y="-231.5" font-family="Helvetica,sans-Serif" font-size="10.00">GeostrophicForcing.cpp</text>
</a>
</g>
</g>
<!-- Node2&#45;&gt;Node81 -->
<g id="edge31" class="edge">
<title>Node2&#45;&gt;Node81</title>
<path fill="none" stroke="midnightblue" d="M1462.14,-277.96C1501.99,-267.76 1560.36,-252.82 1596.72,-243.52"/>
<polygon fill="midnightblue" stroke="midnightblue" points="1461.25,-274.57 1452.43,-280.44 1462.99,-281.35 1461.25,-274.57"/>
</g>
<!-- Node82 -->
<g id="node24" class="node">
<title>Node82</title>
<g id="a_node24"><a xlink:href="_gravity_forcing_8cpp.html" target="_top" xlink:title=" ">
<polygon fill="white" stroke="black" points="1714,-224.5 1714,-243.5 1822,-243.5 1822,-224.5 1714,-224.5"/>
<text text-anchor="middle" x="1768" y="-231.5" font-family="Helvetica,sans-Serif" font-size="10.00">GravityForcing.cpp</text>
</a>
</g>
</g>
<!-- Node2&#45;&gt;Node82 -->
<g id="edge32" class="edge">
<title>Node2&#45;&gt;Node82</title>
<path fill="none" stroke="midnightblue" d="M1462.15,-280.67C1463.45,-280.44 1464.73,-280.22 1466,-280 1512.51,-272.09 1640.35,-253.42 1713.93,-242.78"/>
<polygon fill="midnightblue" stroke="midnightblue" points="1461.31,-277.26 1452.09,-282.49 1462.56,-284.15 1461.31,-277.26"/>
</g>
<!-- Node83 -->
<g id="node25" class="node">
<title>Node83</title>
<g id="a_node25"><a xlink:href="_synth_turb_forcing_8cpp.html" target="_top" xlink:title=" ">
<polygon fill="white" stroke="black" points="1840,-224.5 1840,-243.5 1960,-243.5 1960,-224.5 1840,-224.5"/>
<text text-anchor="middle" x="1900" y="-231.5" font-family="Helvetica,sans-Serif" font-size="10.00">SynthTurbForcing.cpp</text>
</a>
</g>
</g>
<!-- Node2&#45;&gt;Node83 -->
<g id="edge33" class="edge">
<title>Node2&#45;&gt;Node83</title>
<path fill="none" stroke="midnightblue" d="M1462.14,-280.58C1463.44,-280.38 1464.73,-280.18 1466,-280 1627.33,-256.65 1669.05,-262.54 1831,-244 1833.88,-243.67 1836.83,-243.32 1839.8,-242.96"/>
<polygon fill="midnightblue" stroke="midnightblue" points="1461.34,-277.17 1452.06,-282.28 1462.5,-284.07 1461.34,-277.17"/>
</g>
<!-- Node84 -->
<g id="node26" class="node">
<title>Node84</title>
<g id="a_node26"><a xlink:href="_p_d_e_base_8cpp.html" target="_top" xlink:title=" ">
<polygon fill="white" stroke="black" points="1978,-224.5 1978,-243.5 2058,-243.5 2058,-224.5 1978,-224.5"/>
<text text-anchor="middle" x="2018" y="-231.5" font-family="Helvetica,sans-Serif" font-size="10.00">PDEBase.cpp</text>
</a>
</g>
</g>
<!-- Node2&#45;&gt;Node84 -->
<g id="edge34" class="edge">
<title>Node2&#45;&gt;Node84</title>
<path fill="none" stroke="midnightblue" d="M1462.13,-280.54C1463.43,-280.35 1464.73,-280.17 1466,-280 1688.23,-250.87 1746.66,-272.29 1969,-244 1971.92,-243.63 1974.92,-243.2 1977.94,-242.73"/>
<polygon fill="midnightblue" stroke="midnightblue" points="1461.36,-277.12 1452.04,-282.17 1462.48,-284.03 1461.36,-277.12"/>
</g>
<!-- Node85 -->
<g id="node27" class="node">
<title>Node85</title>
<g id="a_node27"><a xlink:href="_s_d_r_src_8cpp.html" target="_top" xlink:title=" ">
<polygon fill="white" stroke="black" points="2076,-224.5 2076,-243.5 2148,-243.5 2148,-224.5 2076,-224.5"/>
<text text-anchor="middle" x="2112" y="-231.5" font-family="Helvetica,sans-Serif" font-size="10.00">SDRSrc.cpp</text>
</a>
</g>
</g>
<!-- Node2&#45;&gt;Node85 -->
<g id="edge35" class="edge">
<title>Node2&#45;&gt;Node85</title>
<path fill="none" stroke="midnightblue" d="M1462.13,-280.52C1463.43,-280.33 1464.72,-280.16 1466,-280 1731.52,-246.77 1801.62,-278.32 2067,-244 2069.84,-243.63 2072.78,-243.19 2075.72,-242.7"/>
<polygon fill="midnightblue" stroke="midnightblue" points="1461.37,-277.09 1452.04,-282.12 1462.46,-284.01 1461.37,-277.09"/>
</g>
<!-- Node86 -->
<g id="node28" class="node">
<title>Node86</title>
<g id="a_node28"><a xlink:href="_ksgs_m84_src_8cpp.html" target="_top" xlink:title=" ">
<polygon fill="white" stroke="black" points="2166,-224.5 2166,-243.5 2262,-243.5 2262,-224.5 2166,-224.5"/>
<text text-anchor="middle" x="2214" y="-231.5" font-family="Helvetica,sans-Serif" font-size="10.00">KsgsM84Src.cpp</text>
</a>
</g>
</g>
<!-- Node2&#45;&gt;Node86 -->
<g id="edge36" class="edge">
<title>Node2&#45;&gt;Node86</title>
<path fill="none" stroke="midnightblue" d="M1462.13,-280.5C1463.43,-280.32 1464.72,-280.15 1466,-280 1771.29,-242.99 1851.14,-276.03 2157,-244 2159.89,-243.7 2162.86,-243.35 2165.84,-242.97"/>
<polygon fill="midnightblue" stroke="midnightblue" points="1461.37,-277.08 1452.03,-282.08 1462.46,-284 1461.37,-277.08"/>
</g>
<!-- Node87 -->
<g id="node29" class="node">
<title>Node87</title>
<g id="a_node29"><a xlink:href="_kw_s_s_t_src_8cpp.html" target="_top" xlink:title=" ">
<polygon fill="white" stroke="black" points="2280.5,-224.5 2280.5,-243.5 2365.5,-243.5 2365.5,-224.5 2280.5,-224.5"/>
<text text-anchor="middle" x="2323" y="-231.5" font-family="Helvetica,sans-Serif" font-size="10.00">KwSSTSrc.cpp</text>
</a>
</g>
</g>
<!-- Node2&#45;&gt;Node87 -->
<g id="edge37" class="edge">
<title>Node2&#45;&gt;Node87</title>
<path fill="none" stroke="midnightblue" d="M1462.13,-280.49C1463.43,-280.31 1464.72,-280.15 1466,-280 1821.69,-238.21 1914.95,-282.62 2271,-244 2274.1,-243.66 2277.29,-243.26 2280.49,-242.81"/>
<polygon fill="midnightblue" stroke="midnightblue" points="1461.38,-277.07 1452.03,-282.05 1462.45,-283.98 1461.38,-277.07"/>
</g>
<!-- Node88 -->
<g id="node30" class="node">
<title>Node88</title>
<g id="a_node30"><a xlink:href="_i_b_ops_8_h.html" target="_top" xlink:title=" ">
<polygon fill="white" stroke="red" points="2384,-224.5 2384,-243.5 2440,-243.5 2440,-224.5 2384,-224.5"/>
<text text-anchor="middle" x="2412" y="-231.5" font-family="Helvetica,sans-Serif" font-size="10.00">IBOps.H</text>
</a>
</g>
</g>
<!-- Node2&#45;&gt;Node88 -->
<g id="edge38" class="edge">
<title>Node2&#45;&gt;Node88</title>
<path fill="none" stroke="midnightblue" d="M1462.12,-280.48C1463.43,-280.31 1464.72,-280.15 1466,-280 1867.67,-233.85 1974.59,-300.06 2375,-244 2377.88,-243.6 2380.86,-243.07 2383.83,-242.46"/>
<polygon fill="midnightblue" stroke="midnightblue" points="1461.38,-277.06 1452.03,-282.03 1462.44,-283.98 1461.38,-277.06"/>
</g>
<!-- Node2&#45;&gt;Node99 -->
<g id="edge39" class="edge">
<title>Node2&#45;&gt;Node99</title>
<path fill="none" stroke="midnightblue" d="M1462.12,-280.48C1463.43,-280.3 1464.72,-280.14 1466,-280 1900.4,-230.75 2013,-276.16 2449,-244 2452.1,-243.77 2455.27,-243.51 2458.47,-243.24"/>
<polygon fill="midnightblue" stroke="midnightblue" points="1461.38,-277.05 1452.03,-282.02 1462.44,-283.97 1461.38,-277.05"/>
</g>
<!-- Node2&#45;&gt;Node102 -->
<g id="edge40" class="edge">
<title>Node2&#45;&gt;Node102</title>
<path fill="none" stroke="midnightblue" d="M1462,-283.83C1475.43,-282.38 1490.32,-280.95 1504,-280 1995.09,-246.06 2121.22,-293.32 2611,-244 2613.69,-243.73 2616.46,-243.4 2619.24,-243.04"/>
<polygon fill="midnightblue" stroke="midnightblue" points="1461.6,-280.35 1452.05,-284.93 1462.38,-287.31 1461.6,-280.35"/>
</g>
<!-- Node2&#45;&gt;Node104 -->
<g id="edge41" class="edge">
<title>Node2&#45;&gt;Node104</title>
<path fill="none" stroke="midnightblue" d="M1462.16,-285.39C1485.74,-283.53 1515.46,-281.38 1542,-280 2064.21,-252.91 2197.67,-295.89 2718,-244 2720.69,-243.73 2723.46,-243.41 2726.24,-243.05"/>
<polygon fill="midnightblue" stroke="midnightblue" points="1461.82,-281.91 1452.13,-286.19 1462.37,-288.89 1461.82,-281.91"/>
</g>
<!-- Node2&#45;&gt;Node107 -->
<g id="edge42" class="edge">
<title>Node2&#45;&gt;Node107</title>
<path fill="none" stroke="midnightblue" d="M1462.33,-286.26C1494.73,-284.29 1540.12,-281.69 1580,-280 2133.07,-256.55 2273.14,-287.35 2825,-244 2827.69,-243.79 2830.43,-243.55 2833.2,-243.28"/>
<polygon fill="midnightblue" stroke="midnightblue" points="1462.06,-282.77 1452.29,-286.88 1462.48,-289.76 1462.06,-282.77"/>
</g>
<!-- Node2&#45;&gt;Node109 -->
<g id="edge43" class="edge">
<title>Node2&#45;&gt;Node109</title>
<path fill="none" stroke="midnightblue" d="M1462.11,-286.82C1502.41,-284.84 1564.27,-281.93 1618,-280 1917.47,-269.23 2669.39,-286.63 2966,-244 2968.66,-243.62 2971.41,-243.1 2974.14,-242.51"/>
<polygon fill="midnightblue" stroke="midnightblue" points="1461.91,-283.33 1452.09,-287.32 1462.25,-290.32 1461.91,-283.33"/>
</g>
<!-- Node2&#45;&gt;Node119 -->
<g id="edge44" class="edge">
<title>Node2&#45;&gt;Node119</title>
<path fill="none" stroke="midnightblue" d="M1462.6,-287.19C1510.14,-285.25 1588.47,-282.16 1656,-280 2268.78,-260.37 2423.68,-290.61 3035,-244 3037.73,-243.79 3040.51,-243.55 3043.31,-243.29"/>
<polygon fill="midnightblue" stroke="midnightblue" points="1462.21,-283.7 1452.36,-287.61 1462.49,-290.7 1462.21,-283.7"/>
</g>
<!-- Node5&#45;&gt;Node8 -->
<g id="edge5" class="edge">
<title>Node5&#45;&gt;Node8</title>
<path fill="none" stroke="midnightblue" d="M301.27,-221.92C267.55,-211.75 218.29,-196.88 187.46,-187.59"/>
<polygon fill="midnightblue" stroke="midnightblue" points="300.62,-225.38 311.2,-224.92 302.64,-218.68 300.62,-225.38"/>
</g>
<!-- Node5&#45;&gt;Node13 -->
<g id="edge6" class="edge">
<title>Node5&#45;&gt;Node13</title>
<path fill="none" stroke="midnightblue" d="M325.83,-216C294.03,-171.6 209.28,-53.27 185.36,-19.88"/>
<polygon fill="midnightblue" stroke="midnightblue" points="323.1,-218.21 331.77,-224.3 328.79,-214.13 323.1,-218.21"/>
</g>
<!-- Node5&#45;&gt;Node15 -->
<g id="edge7" class="edge">
<title>Node5&#45;&gt;Node15</title>
<path fill="none" stroke="midnightblue" d="M315.9,-218.62C300.74,-208.76 281.12,-195.99 268.3,-187.65"/>
<polygon fill="midnightblue" stroke="midnightblue" points="314.37,-221.8 324.66,-224.32 318.19,-215.94 314.37,-221.8"/>
</g>
<!-- Node17&#45;&gt;Node34 -->
<g id="edge9" class="edge">
<title>Node17&#45;&gt;Node34</title>
<path fill="none" stroke="midnightblue" d="M900.2,-214.69C896.32,-205.59 891.82,-195.01 888.73,-187.75"/>
<polygon fill="midnightblue" stroke="midnightblue" points="897.06,-216.25 904.2,-224.08 903.5,-213.51 897.06,-216.25"/>
</g>
<!-- Node57&#45;&gt;Node58 -->
<g id="edge13" class="edge">
<title>Node57&#45;&gt;Node58</title>
<path fill="none" stroke="midnightblue" d="M676.76,-159.83C671.75,-151.79 666.55,-141.82 664,-132 658.75,-111.74 669.99,-88.23 677.32,-75.78"/>
<polygon fill="midnightblue" stroke="midnightblue" points="673.92,-161.89 682.37,-168.27 679.75,-158.01 673.92,-161.89"/>
</g>
<!-- Node57&#45;&gt;Node61 -->
<g id="edge17" class="edge">
<title>Node57&#45;&gt;Node61</title>
<path fill="none" stroke="midnightblue" d="M699.5,-159.27C704.97,-150.05 711.42,-139.17 715.81,-131.75"/>
<polygon fill="midnightblue" stroke="midnightblue" points="696.37,-157.7 694.28,-168.08 702.39,-161.26 696.37,-157.7"/>
</g>
<!-- Node58&#45;&gt;Node13 -->
<g id="edge16" class="edge">
<title>Node58&#45;&gt;Node13</title>
<path fill="none" stroke="midnightblue" d="M649.63,-61.42C555.76,-51.37 290.7,-22.97 205.63,-13.85"/>
<polygon fill="midnightblue" stroke="midnightblue" points="649.39,-64.92 659.7,-62.5 650.13,-57.96 649.39,-64.92"/>
</g>
<!-- Node58&#45;&gt;Node56 -->
<g id="edge14" class="edge">
<title>Node58&#45;&gt;Node56</title>
<path fill="none" stroke="midnightblue" d="M715.88,-54.37C747.45,-44.16 794.51,-28.94 823.68,-19.51"/>
<polygon fill="midnightblue" stroke="midnightblue" points="714.66,-51.08 706.22,-57.49 716.81,-57.75 714.66,-51.08"/>
</g>
<!-- Node58&#45;&gt;Node59 -->
<g id="edge15" class="edge">
<title>Node58&#45;&gt;Node59</title>
<path fill="none" stroke="midnightblue" d="M716.25,-59.81C775.94,-50.5 901.79,-30.85 974.33,-19.53"/>
<polygon fill="midnightblue" stroke="midnightblue" points="715.58,-56.37 706.24,-61.37 716.66,-63.29 715.58,-56.37"/>
</g>
<!-- Node61&#45;&gt;Node58 -->
<g id="edge18" class="edge">
<title>Node61&#45;&gt;Node58</title>
<path fill="none" stroke="midnightblue" d="M708.94,-103.86C702.36,-94.5 694.49,-83.33 689.16,-75.75"/>
<polygon fill="midnightblue" stroke="midnightblue" points="706.11,-105.92 714.73,-112.08 711.83,-101.89 706.11,-105.92"/>
</g>
<!-- Node65&#45;&gt;Node57 -->
<g id="edge20" class="edge">
<title>Node65&#45;&gt;Node57</title>
<path fill="none" stroke="midnightblue" d="M656.42,-216.43C664.66,-206.97 674.65,-195.48 681.38,-187.75"/>
<polygon fill="midnightblue" stroke="midnightblue" points="653.69,-214.24 649.76,-224.08 658.97,-218.84 653.69,-214.24"/>
</g>
<!-- Node65&#45;&gt;Node58 -->
<g id="edge21" class="edge">
<title>Node65&#45;&gt;Node58</title>
<path fill="none" stroke="midnightblue" d="M632.63,-214.88C627.07,-201.82 621.85,-183.79 626,-168 635.87,-130.42 663.26,-92.1 676.14,-75.51"/>
<polygon fill="midnightblue" stroke="midnightblue" points="629.56,-216.58 636.99,-224.15 635.9,-213.61 629.56,-216.58"/>
</g>
<!-- Node72&#45;&gt;Node58 -->
<g id="edge23" class="edge">
<title>Node72&#45;&gt;Node58</title>
<path fill="none" stroke="midnightblue" d="M810.4,-109.21C778.7,-98.7 733.25,-83.65 706.07,-74.64"/>
<polygon fill="midnightblue" stroke="midnightblue" points="809.58,-112.62 820.17,-112.44 811.78,-105.98 809.58,-112.62"/>
</g>
<!-- Node188&#45;&gt;Node76 -->
<g id="edge47" class="edge">
<title>Node188&#45;&gt;Node76</title>
<path fill="none" stroke="midnightblue" d="M774.7,-285.91C685.23,-279.49 476.61,-263.67 302,-244 299.28,-243.69 296.5,-243.37 293.7,-243.02"/>
<polygon fill="midnightblue" stroke="midnightblue" points="774.54,-289.4 784.76,-286.62 775.03,-282.42 774.54,-289.4"/>
</g>
<!-- Node194&#45;&gt;Node13 -->
<g id="edge53" class="edge">
<title>Node194&#45;&gt;Node13</title>
<path fill="none" stroke="midnightblue" d="M128.64,-103.32C141.71,-79.37 164.52,-37.55 174.31,-19.59"/>
<polygon fill="midnightblue" stroke="midnightblue" points="125.42,-101.91 123.71,-112.37 131.57,-105.27 125.42,-101.91"/>
</g>
</g>
</svg>
