<?xml version="1.0" encoding="UTF-8" standalone="no"?>
<!DOCTYPE svg PUBLIC "-//W3C//DTD SVG 1.1//EN"
 "http://www.w3.org/Graphics/SVG/1.1/DTD/svg11.dtd">
<!-- Generated by graphviz version 2.43.0 (0)
 -->
<!-- Title: RainDrop.cpp Pages: 1 -->
<!--zoomable 341 -->
<svg id="main" version="1.1" xmlns="http://www.w3.org/2000/svg" xmlns:xlink="http://www.w3.org/1999/xlink" xml:space="preserve" onload="init(evt)">
<style type="text/css"><![CDATA[
.edge:hover path { stroke: red; }
.edge:hover polygon { stroke: red; fill: red; }
]]></style>
<script type="text/javascript"><![CDATA[
var edges = document.getElementsByTagName('g');
if (edges && edges.length) {
  for (var i=0;i<edges.length;i++) {
    if (edges[i].id.substr(0,4)=='edge') {
      edges[i].setAttribute('class','edge');
    }
  }
}
]]></script>
        <defs>
                <circle id="rim" cx="0" cy="0" r="7"/>
                <circle id="rim2" cx="0" cy="0" r="3.5"/>
                <g id="zoomPlus">
                        <use xlink:href="#rim" fill="#404040">
                                <set attributeName="fill" to="#808080" begin="zoomplus.mouseover" end="zoomplus.mouseout"/>
                        </use>
                        <path d="M-4,0h8M0,-4v8" fill="none" stroke="white" stroke-width="1.5" pointer-events="none"/>
                </g>
                <g id="zoomMin">
                        <use xlink:href="#rim" fill="#404040">
                                <set attributeName="fill" to="#808080" begin="zoomminus.mouseover" end="zoomminus.mouseout"/>
                        </use>
                        <path d="M-4,0h8" fill="none" stroke="white" stroke-width="1.5" pointer-events="none"/>
                </g>
                <g id="dirArrow">
                        <path fill="none" stroke="white" stroke-width="1.5" d="M0,-3.0v7 M-2.5,-0.5L0,-3.0L2.5,-0.5"/>
                </g>
               <g id="resetDef">
                       <use xlink:href="#rim2" fill="#404040">
                               <set attributeName="fill" to="#808080" begin="reset.mouseover" end="reset.mouseout"/>
                       </use>
               </g>
        </defs>

<script type="text/javascript">
var viewWidth = 2320;
var viewHeight = 341;
var sectionId = 'dynsection-0';
</script>
<script xlink:href="svgpan.js"/>
<svg id="graph" class="graph">
<g id="viewport">
<title>RainDrop.cpp</title>
<polygon fill="white" stroke="transparent" points="-4,4 -4,-337 2316.21,-337 2316.21,4 -4,4"/>
<!-- Node1 -->
<g id="node1" class="node">
<title>Node1</title>
<g id="a_node1"><a xlink:title=" ">
<polygon fill="#bfbfbf" stroke="black" points="774.21,-313.5 774.21,-332.5 856.21,-332.5 856.21,-313.5 774.21,-313.5"/>
<text text-anchor="middle" x="815.21" y="-320.5" font-family="Helvetica,sans-Serif" font-size="10.00">RainDrop.cpp</text>
</a>
</g>
</g>
<!-- Node2 -->
<g id="node2" class="node">
<title>Node2</title>
<g id="a_node2"><a xlink:href="_rain_drop_8_h.html" target="_top" xlink:title=" ">
<polygon fill="white" stroke="black" points="477.71,-246.5 477.71,-276.5 638.71,-276.5 638.71,-246.5 477.71,-246.5"/>
<text text-anchor="start" x="485.71" y="-264.5" font-family="Helvetica,sans-Serif" font-size="10.00">amr&#45;wind/physics/multiphase</text>
<text text-anchor="middle" x="558.21" y="-253.5" font-family="Helvetica,sans-Serif" font-size="10.00">/RainDrop.H</text>
</a>
</g>
</g>
<!-- Node1&#45;&gt;Node2 -->
<g id="edge1" class="edge">
<title>Node1&#45;&gt;Node2</title>
<path fill="none" stroke="midnightblue" d="M778.39,-313.48C739.44,-304.46 677.03,-290.01 628.59,-278.79"/>
<polygon fill="midnightblue" stroke="midnightblue" points="629.32,-275.37 618.78,-276.52 627.74,-282.19 629.32,-275.37"/>
</g>
<!-- Node22 -->
<g id="node22" class="node">
<title>Node22</title>
<g id="a_node22"><a xlink:href="_multi_phase_8_h.html" target="_top" xlink:title=" ">
<polygon fill="white" stroke="black" points="656.71,-246.5 656.71,-276.5 817.71,-276.5 817.71,-246.5 656.71,-246.5"/>
<text text-anchor="start" x="664.71" y="-264.5" font-family="Helvetica,sans-Serif" font-size="10.00">amr&#45;wind/physics/multiphase</text>
<text text-anchor="middle" x="737.21" y="-253.5" font-family="Helvetica,sans-Serif" font-size="10.00">/MultiPhase.H</text>
</a>
</g>
</g>
<!-- Node1&#45;&gt;Node22 -->
<g id="edge31" class="edge">
<title>Node1&#45;&gt;Node22</title>
<path fill="none" stroke="midnightblue" d="M804.04,-313.48C793.57,-305.49 777.53,-293.25 763.79,-282.77"/>
<polygon fill="midnightblue" stroke="midnightblue" points="765.67,-279.81 755.6,-276.52 761.43,-285.37 765.67,-279.81"/>
</g>
<!-- Node23 -->
<g id="node23" class="node">
<title>Node23</title>
<g id="a_node23"><a xlink:href="_c_f_d_sim_8_h.html" target="_top" xlink:title=" ">
<polygon fill="white" stroke="black" points="836.21,-252 836.21,-271 952.21,-271 952.21,-252 836.21,-252"/>
<text text-anchor="middle" x="894.21" y="-259" font-family="Helvetica,sans-Serif" font-size="10.00">amr&#45;wind/CFDSim.H</text>
</a>
</g>
</g>
<!-- Node1&#45;&gt;Node23 -->
<g id="edge34" class="edge">
<title>Node1&#45;&gt;Node23</title>
<path fill="none" stroke="midnightblue" d="M826.53,-313.48C839.09,-304.02 859.57,-288.6 874.71,-277.19"/>
<polygon fill="midnightblue" stroke="midnightblue" points="877.03,-279.82 882.92,-271.01 872.82,-274.23 877.03,-279.82"/>
</g>
<!-- Node41 -->
<g id="node41" class="node">
<title>Node41</title>
<g id="a_node41"><a xlink:title=" ">
<polygon fill="white" stroke="#bfbfbf" points="970.71,-252 970.71,-271 1089.71,-271 1089.71,-252 970.71,-252"/>
<text text-anchor="middle" x="1030.21" y="-259" font-family="Helvetica,sans-Serif" font-size="10.00">AMReX_ParmParse.H</text>
</a>
</g>
</g>
<!-- Node1&#45;&gt;Node41 -->
<g id="edge79" class="edge">
<title>Node1&#45;&gt;Node41</title>
<path fill="none" stroke="midnightblue" d="M846.02,-313.48C883.78,-303.03 947.88,-285.29 989.62,-273.73"/>
<polygon fill="midnightblue" stroke="midnightblue" points="990.76,-277.05 999.47,-271.01 988.9,-270.3 990.76,-277.05"/>
</g>
<!-- Node3 -->
<g id="node3" class="node">
<title>Node3</title>
<g id="a_node3"><a xlink:href="_physics_8_h.html" target="_top" xlink:title=" ">
<polygon fill="white" stroke="black" points="325.71,-185 325.71,-204 462.71,-204 462.71,-185 325.71,-185"/>
<text text-anchor="middle" x="394.21" y="-192" font-family="Helvetica,sans-Serif" font-size="10.00">amr&#45;wind/core/Physics.H</text>
</a>
</g>
</g>
<!-- Node2&#45;&gt;Node3 -->
<g id="edge2" class="edge">
<title>Node2&#45;&gt;Node3</title>
<path fill="none" stroke="midnightblue" d="M522.63,-246.4C493.6,-234.89 453,-218.8 425.27,-207.81"/>
<polygon fill="midnightblue" stroke="midnightblue" points="426.26,-204.44 415.68,-204.01 423.68,-210.95 426.26,-204.44"/>
</g>
<!-- Node15 -->
<g id="node15" class="node">
<title>Node15</title>
<g id="a_node15"><a xlink:href="_field_8_h.html" target="_top" xlink:title=" ">
<polygon fill="white" stroke="black" points="840.21,-118 840.21,-137 964.21,-137 964.21,-118 840.21,-118"/>
<text text-anchor="middle" x="902.21" y="-125" font-family="Helvetica,sans-Serif" font-size="10.00">amr&#45;wind/core/Field.H</text>
</a>
</g>
</g>
<!-- Node2&#45;&gt;Node15 -->
<g id="edge16" class="edge">
<title>Node2&#45;&gt;Node15</title>
<path fill="none" stroke="midnightblue" d="M639.02,-246.66C707.4,-234.58 796.7,-217.8 812.21,-210 828.91,-201.6 865.67,-165.73 886.68,-144.47"/>
<polygon fill="midnightblue" stroke="midnightblue" points="889.37,-146.72 893.88,-137.13 884.38,-141.82 889.37,-146.72"/>
</g>
<!-- Node4 -->
<g id="node4" class="node">
<title>Node4</title>
<g id="a_node4"><a xlink:href="_factory_8_h.html" target="_top" xlink:title=" ">
<polygon fill="white" stroke="black" points="321.21,-118 321.21,-137 455.21,-137 455.21,-118 321.21,-118"/>
<text text-anchor="middle" x="388.21" y="-125" font-family="Helvetica,sans-Serif" font-size="10.00">amr&#45;wind/core/Factory.H</text>
</a>
</g>
</g>
<!-- Node3&#45;&gt;Node4 -->
<g id="edge3" class="edge">
<title>Node3&#45;&gt;Node4</title>
<path fill="none" stroke="midnightblue" d="M393.41,-184.73C392.52,-175.18 391.09,-159.62 389.95,-147.28"/>
<polygon fill="midnightblue" stroke="midnightblue" points="393.42,-146.76 389.01,-137.13 386.44,-147.41 393.42,-146.76"/>
</g>
<!-- Node10 -->
<g id="node10" class="node">
<title>Node10</title>
<g id="a_node10"><a xlink:href="_coll_mgr_8_h.html" target="_top" xlink:title=" ">
<polygon fill="white" stroke="black" points="473.71,-118 473.71,-137 610.71,-137 610.71,-118 473.71,-118"/>
<text text-anchor="middle" x="542.21" y="-125" font-family="Helvetica,sans-Serif" font-size="10.00">amr&#45;wind/core/CollMgr.H</text>
</a>
</g>
</g>
<!-- Node3&#45;&gt;Node10 -->
<g id="edge9" class="edge">
<title>Node3&#45;&gt;Node10</title>
<path fill="none" stroke="midnightblue" d="M413.87,-184.87C439.3,-173.7 483.82,-154.15 513.16,-141.26"/>
<polygon fill="midnightblue" stroke="midnightblue" points="514.73,-144.39 522.48,-137.17 511.92,-137.98 514.73,-144.39"/>
</g>
<!-- Node13 -->
<g id="node13" class="node">
<title>Node13</title>
<g id="a_node13"><a xlink:title=" ">
<polygon fill="white" stroke="#bfbfbf" points="1406.71,-0.5 1406.71,-19.5 1515.71,-19.5 1515.71,-0.5 1406.71,-0.5"/>
<text text-anchor="middle" x="1461.21" y="-7.5" font-family="Helvetica,sans-Serif" font-size="10.00">AMReX_MultiFab.H</text>
</a>
</g>
</g>
<!-- Node3&#45;&gt;Node13 -->
<g id="edge14" class="edge">
<title>Node3&#45;&gt;Node13</title>
<path fill="none" stroke="midnightblue" d="M325.41,-189.43C219.37,-182.45 25.97,-166.63 5.21,-143 -8.27,-127.65 8.71,-62.34 16.21,-56 73.18,-7.87 1251.11,-25.28 1396.43,-19.67"/>
<polygon fill="midnightblue" stroke="midnightblue" points="1396.65,-23.16 1406.45,-19.12 1396.27,-16.17 1396.65,-23.16"/>
</g>
<!-- Node14 -->
<g id="node14" class="node">
<title>Node14</title>
<g id="a_node14"><a xlink:title=" ">
<polygon fill="white" stroke="#bfbfbf" points="14.71,-118 14.71,-137 129.71,-137 129.71,-118 14.71,-118"/>
<text text-anchor="middle" x="72.21" y="-125" font-family="Helvetica,sans-Serif" font-size="10.00">AMReX_Geometry.H</text>
</a>
</g>
</g>
<!-- Node3&#45;&gt;Node14 -->
<g id="edge15" class="edge">
<title>Node3&#45;&gt;Node14</title>
<path fill="none" stroke="midnightblue" d="M349.3,-184.94C298.13,-175.12 212.05,-158.39 138.21,-143 132.48,-141.8 126.46,-140.52 120.5,-139.23"/>
<polygon fill="midnightblue" stroke="midnightblue" points="121.09,-135.78 110.57,-137.07 119.6,-142.62 121.09,-135.78"/>
</g>
<!-- Node5 -->
<g id="node5" class="node">
<title>Node5</title>
<g id="a_node5"><a xlink:title=" ">
<polygon fill="white" stroke="#bfbfbf" points="357.21,-56.5 357.21,-75.5 415.21,-75.5 415.21,-56.5 357.21,-56.5"/>
<text text-anchor="middle" x="386.21" y="-63.5" font-family="Helvetica,sans-Serif" font-size="10.00">memory</text>
</a>
</g>
</g>
<!-- Node4&#45;&gt;Node5 -->
<g id="edge4" class="edge">
<title>Node4&#45;&gt;Node5</title>
<path fill="none" stroke="midnightblue" d="M387.93,-117.98C387.65,-109.58 387.21,-96.48 386.84,-85.66"/>
<polygon fill="midnightblue" stroke="midnightblue" points="390.33,-85.39 386.5,-75.51 383.34,-85.62 390.33,-85.39"/>
</g>
<!-- Node6 -->
<g id="node6" class="node">
<title>Node6</title>
<g id="a_node6"><a xlink:title=" ">
<polygon fill="white" stroke="#bfbfbf" points="547.71,-56.5 547.71,-75.5 640.71,-75.5 640.71,-56.5 547.71,-56.5"/>
<text text-anchor="middle" x="594.21" y="-63.5" font-family="Helvetica,sans-Serif" font-size="10.00">unordered_map</text>
</a>
</g>
</g>
<!-- Node4&#45;&gt;Node6 -->
<g id="edge5" class="edge">
<title>Node4&#45;&gt;Node6</title>
<path fill="none" stroke="midnightblue" d="M417.73,-117.98C453.83,-107.55 515.06,-89.86 555.07,-78.31"/>
<polygon fill="midnightblue" stroke="midnightblue" points="556.12,-81.65 564.75,-75.51 554.18,-74.92 556.12,-81.65"/>
</g>
<!-- Node7 -->
<g id="node7" class="node">
<title>Node7</title>
<g id="a_node7"><a xlink:title=" ">
<polygon fill="white" stroke="#bfbfbf" points="279.21,-56.5 279.21,-75.5 339.21,-75.5 339.21,-56.5 279.21,-56.5"/>
<text text-anchor="middle" x="309.21" y="-63.5" font-family="Helvetica,sans-Serif" font-size="10.00">iostream</text>
</a>
</g>
</g>
<!-- Node4&#45;&gt;Node7 -->
<g id="edge6" class="edge">
<title>Node4&#45;&gt;Node7</title>
<path fill="none" stroke="midnightblue" d="M376.9,-117.98C364.34,-108.52 343.86,-93.1 328.71,-81.69"/>
<polygon fill="midnightblue" stroke="midnightblue" points="330.61,-78.73 320.51,-75.51 326.39,-84.32 330.61,-78.73"/>
</g>
<!-- Node8 -->
<g id="node8" class="node">
<title>Node8</title>
<g id="a_node8"><a xlink:title=" ">
<polygon fill="white" stroke="#bfbfbf" points="91.21,-56.5 91.21,-75.5 181.21,-75.5 181.21,-56.5 91.21,-56.5"/>
<text text-anchor="middle" x="136.21" y="-63.5" font-family="Helvetica,sans-Serif" font-size="10.00">AMReX_Print.H</text>
</a>
</g>
</g>
<!-- Node4&#45;&gt;Node8 -->
<g id="edge7" class="edge">
<title>Node4&#45;&gt;Node8</title>
<path fill="none" stroke="midnightblue" d="M352.11,-117.98C307.38,-107.42 231.13,-89.41 182.25,-77.87"/>
<polygon fill="midnightblue" stroke="midnightblue" points="182.79,-74.4 172.25,-75.51 181.18,-81.21 182.79,-74.4"/>
</g>
<!-- Node9 -->
<g id="node9" class="node">
<title>Node9</title>
<g id="a_node9"><a xlink:title=" ">
<polygon fill="white" stroke="#bfbfbf" points="199.21,-56.5 199.21,-75.5 261.21,-75.5 261.21,-56.5 199.21,-56.5"/>
<text text-anchor="middle" x="230.21" y="-63.5" font-family="Helvetica,sans-Serif" font-size="10.00">AMReX.H</text>
</a>
</g>
</g>
<!-- Node4&#45;&gt;Node9 -->
<g id="edge8" class="edge">
<title>Node4&#45;&gt;Node9</title>
<path fill="none" stroke="midnightblue" d="M365.58,-117.98C338.47,-107.77 292.9,-90.61 262.21,-79.05"/>
<polygon fill="midnightblue" stroke="midnightblue" points="263.4,-75.76 252.81,-75.51 260.93,-82.31 263.4,-75.76"/>
</g>
<!-- Node10&#45;&gt;Node5 -->
<g id="edge11" class="edge">
<title>Node10&#45;&gt;Node5</title>
<path fill="none" stroke="midnightblue" d="M519.86,-117.98C493.22,-107.81 448.5,-90.76 418.2,-79.2"/>
<polygon fill="midnightblue" stroke="midnightblue" points="419.11,-75.8 408.52,-75.51 416.62,-82.34 419.11,-75.8"/>
</g>
<!-- Node10&#45;&gt;Node6 -->
<g id="edge12" class="edge">
<title>Node10&#45;&gt;Node6</title>
<path fill="none" stroke="midnightblue" d="M549.66,-117.98C557.54,-108.96 570.16,-94.52 579.96,-83.31"/>
<polygon fill="midnightblue" stroke="midnightblue" points="582.83,-85.34 586.78,-75.51 577.56,-80.74 582.83,-85.34"/>
</g>
<!-- Node11 -->
<g id="node11" class="node">
<title>Node11</title>
<g id="a_node11"><a xlink:title=" ">
<polygon fill="white" stroke="#bfbfbf" points="1187.21,-0.5 1187.21,-19.5 1231.21,-19.5 1231.21,-0.5 1187.21,-0.5"/>
<text text-anchor="middle" x="1209.21" y="-7.5" font-family="Helvetica,sans-Serif" font-size="10.00">string</text>
</a>
</g>
</g>
<!-- Node10&#45;&gt;Node11 -->
<g id="edge10" class="edge">
<title>Node10&#45;&gt;Node11</title>
<path fill="none" stroke="midnightblue" d="M520.97,-117.96C491.72,-105.04 445.05,-79.55 467.21,-56 491.89,-29.78 1037.51,-15.08 1176.98,-11.74"/>
<polygon fill="midnightblue" stroke="midnightblue" points="1177.12,-15.23 1187.04,-11.5 1176.96,-8.24 1177.12,-15.23"/>
</g>
<!-- Node12 -->
<g id="node12" class="node">
<title>Node12</title>
<g id="a_node12"><a xlink:title=" ">
<polygon fill="white" stroke="#bfbfbf" points="1290.21,-0.5 1290.21,-19.5 1388.21,-19.5 1388.21,-0.5 1290.21,-0.5"/>
<text text-anchor="middle" x="1339.21" y="-7.5" font-family="Helvetica,sans-Serif" font-size="10.00">AMReX_Vector.H</text>
</a>
</g>
</g>
<!-- Node10&#45;&gt;Node12 -->
<g id="edge13" class="edge">
<title>Node10&#45;&gt;Node12</title>
<path fill="none" stroke="midnightblue" d="M538.33,-117.75C532.41,-102.89 523.35,-72.7 539.21,-56 566.07,-27.73 1201.32,-22.77 1240.21,-20 1253.05,-19.09 1266.81,-17.94 1279.86,-16.78"/>
<polygon fill="midnightblue" stroke="midnightblue" points="1280.51,-20.23 1290.15,-15.85 1279.87,-13.26 1280.51,-20.23"/>
</g>
<!-- Node15&#45;&gt;Node5 -->
<g id="edge18" class="edge">
<title>Node15&#45;&gt;Node5</title>
<path fill="none" stroke="midnightblue" d="M839.97,-119.32C732.32,-106.91 514.38,-81.78 425.39,-71.52"/>
<polygon fill="midnightblue" stroke="midnightblue" points="425.78,-68.04 415.44,-70.37 424.98,-74.99 425.78,-68.04"/>
</g>
<!-- Node15&#45;&gt;Node6 -->
<g id="edge19" class="edge">
<title>Node15&#45;&gt;Node6</title>
<path fill="none" stroke="midnightblue" d="M858.09,-117.98C802.74,-107.28 707.88,-88.96 648.24,-77.44"/>
<polygon fill="midnightblue" stroke="midnightblue" points="648.74,-73.97 638.26,-75.51 647.42,-80.84 648.74,-73.97"/>
</g>
<!-- Node15&#45;&gt;Node11 -->
<g id="edge17" class="edge">
<title>Node15&#45;&gt;Node11</title>
<path fill="none" stroke="midnightblue" d="M887.35,-117.95C865.55,-104.38 829.44,-77.26 848.21,-56 869.86,-31.48 1092.83,-17.18 1177.15,-12.61"/>
<polygon fill="midnightblue" stroke="midnightblue" points="1177.38,-16.11 1187.18,-12.08 1177.01,-9.12 1177.38,-16.11"/>
</g>
<!-- Node15&#45;&gt;Node13 -->
<g id="edge21" class="edge">
<title>Node15&#45;&gt;Node13</title>
<path fill="none" stroke="midnightblue" d="M945.15,-117.94C994.96,-107.97 1079.57,-90.98 1152.21,-76 1243.57,-57.16 1350,-34.65 1411.1,-21.67"/>
<polygon fill="midnightblue" stroke="midnightblue" points="1412.18,-25.02 1421.24,-19.52 1410.73,-18.17 1412.18,-25.02"/>
</g>
<!-- Node16 -->
<g id="node16" class="node">
<title>Node16</title>
<g id="a_node16"><a xlink:title=" ">
<polygon fill="white" stroke="#bfbfbf" points="1079.21,-56.5 1079.21,-75.5 1143.21,-75.5 1143.21,-56.5 1079.21,-56.5"/>
<text text-anchor="middle" x="1111.21" y="-63.5" font-family="Helvetica,sans-Serif" font-size="10.00">algorithm</text>
</a>
</g>
</g>
<!-- Node15&#45;&gt;Node16 -->
<g id="edge20" class="edge">
<title>Node15&#45;&gt;Node16</title>
<path fill="none" stroke="midnightblue" d="M932.16,-117.98C968.79,-107.55 1030.91,-89.86 1071.5,-78.31"/>
<polygon fill="midnightblue" stroke="midnightblue" points="1072.67,-81.61 1081.33,-75.51 1070.75,-74.88 1072.67,-81.61"/>
</g>
<!-- Node17 -->
<g id="node17" class="node">
<title>Node17</title>
<g id="a_node17"><a xlink:title=" ">
<polygon fill="white" stroke="#bfbfbf" points="856.71,-56.5 856.71,-75.5 955.71,-75.5 955.71,-56.5 856.71,-56.5"/>
<text text-anchor="middle" x="906.21" y="-63.5" font-family="Helvetica,sans-Serif" font-size="10.00">AMReX_BCRec.H</text>
</a>
</g>
</g>
<!-- Node15&#45;&gt;Node17 -->
<g id="edge22" class="edge">
<title>Node15&#45;&gt;Node17</title>
<path fill="none" stroke="midnightblue" d="M902.79,-117.98C903.35,-109.58 904.23,-96.48 904.96,-85.66"/>
<polygon fill="midnightblue" stroke="midnightblue" points="908.46,-85.72 905.64,-75.51 901.48,-85.25 908.46,-85.72"/>
</g>
<!-- Node18 -->
<g id="node18" class="node">
<title>Node18</title>
<g id="a_node18"><a xlink:title=" ">
<polygon fill="white" stroke="#bfbfbf" points="973.71,-56.5 973.71,-75.5 1060.71,-75.5 1060.71,-56.5 973.71,-56.5"/>
<text text-anchor="middle" x="1017.21" y="-63.5" font-family="Helvetica,sans-Serif" font-size="10.00">AMReX_Gpu.H</text>
</a>
</g>
</g>
<!-- Node15&#45;&gt;Node18 -->
<g id="edge23" class="edge">
<title>Node15&#45;&gt;Node18</title>
<path fill="none" stroke="midnightblue" d="M918.69,-117.98C937.82,-108.08 969.59,-91.64 991.87,-80.12"/>
<polygon fill="midnightblue" stroke="midnightblue" points="993.49,-83.21 1000.77,-75.51 990.28,-77 993.49,-83.21"/>
</g>
<!-- Node19 -->
<g id="node19" class="node">
<title>Node19</title>
<g id="a_node19"><a xlink:href="incflo__enums_8_h.html" target="_top" xlink:title=" ">
<polygon fill="white" stroke="black" points="658.71,-56.5 658.71,-75.5 799.71,-75.5 799.71,-56.5 658.71,-56.5"/>
<text text-anchor="middle" x="729.21" y="-63.5" font-family="Helvetica,sans-Serif" font-size="10.00">amr&#45;wind/incflo_enums.H</text>
</a>
</g>
</g>
<!-- Node15&#45;&gt;Node19 -->
<g id="edge24" class="edge">
<title>Node15&#45;&gt;Node19</title>
<path fill="none" stroke="midnightblue" d="M877.43,-117.98C847.62,-107.72 797.42,-90.46 763.81,-78.9"/>
<polygon fill="midnightblue" stroke="midnightblue" points="764.55,-75.45 753.95,-75.51 762.27,-82.07 764.55,-75.45"/>
</g>
<!-- Node20 -->
<g id="node20" class="node">
<title>Node20</title>
<g id="a_node20"><a xlink:href="_field_desc_types_8_h.html" target="_top" xlink:title=" ">
<polygon fill="white" stroke="black" points="1804.21,-0.5 1804.21,-19.5 1980.21,-19.5 1980.21,-0.5 1804.21,-0.5"/>
<text text-anchor="middle" x="1892.21" y="-7.5" font-family="Helvetica,sans-Serif" font-size="10.00">amr&#45;wind/core/FieldDescTypes.H</text>
</a>
</g>
</g>
<!-- Node15&#45;&gt;Node20 -->
<g id="edge25" class="edge">
<title>Node15&#45;&gt;Node20</title>
<path fill="none" stroke="midnightblue" d="M964.39,-122.03C1063.57,-114.56 1263.59,-98.17 1432.21,-76 1485.39,-69.01 1498.18,-63.95 1551.21,-56 1640.43,-42.62 1743.1,-29.36 1812.28,-20.74"/>
<polygon fill="midnightblue" stroke="midnightblue" points="1812.74,-24.21 1822.23,-19.5 1811.88,-17.26 1812.74,-24.21"/>
</g>
<!-- Node21 -->
<g id="node21" class="node">
<title>Node21</title>
<g id="a_node21"><a xlink:href="_view_field_8_h.html" target="_top" xlink:title=" ">
<polygon fill="white" stroke="black" points="1275.21,-56.5 1275.21,-75.5 1423.21,-75.5 1423.21,-56.5 1275.21,-56.5"/>
<text text-anchor="middle" x="1349.21" y="-63.5" font-family="Helvetica,sans-Serif" font-size="10.00">amr&#45;wind/core/ViewField.H</text>
</a>
</g>
</g>
<!-- Node15&#45;&gt;Node21 -->
<g id="edge26" class="edge">
<title>Node15&#45;&gt;Node21</title>
<path fill="none" stroke="midnightblue" d="M964.37,-118.23C1045.71,-107.4 1188.1,-88.45 1275,-76.88"/>
<polygon fill="midnightblue" stroke="midnightblue" points="1275.61,-80.33 1285.06,-75.54 1274.68,-73.39 1275.61,-80.33"/>
</g>
<!-- Node21&#45;&gt;Node11 -->
<g id="edge27" class="edge">
<title>Node21&#45;&gt;Node11</title>
<path fill="none" stroke="midnightblue" d="M1327.03,-56.44C1303.79,-47.48 1267.07,-33.31 1240.8,-23.18"/>
<polygon fill="midnightblue" stroke="midnightblue" points="1241.88,-19.85 1231.29,-19.52 1239.36,-26.38 1241.88,-19.85"/>
</g>
<!-- Node21&#45;&gt;Node12 -->
<g id="edge30" class="edge">
<title>Node21&#45;&gt;Node12</title>
<path fill="none" stroke="midnightblue" d="M1347.56,-56.08C1346.24,-48.93 1344.33,-38.64 1342.68,-29.69"/>
<polygon fill="midnightblue" stroke="midnightblue" points="1346.1,-28.95 1340.83,-19.75 1339.21,-30.22 1346.1,-28.95"/>
</g>
<!-- Node21&#45;&gt;Node13 -->
<g id="edge29" class="edge">
<title>Node21&#45;&gt;Node13</title>
<path fill="none" stroke="midnightblue" d="M1367.21,-56.32C1385.25,-47.62 1413.26,-34.12 1434.02,-24.11"/>
<polygon fill="midnightblue" stroke="midnightblue" points="1435.78,-27.15 1443.26,-19.65 1432.74,-20.84 1435.78,-27.15"/>
</g>
<!-- Node21&#45;&gt;Node20 -->
<g id="edge28" class="edge">
<title>Node21&#45;&gt;Node20</title>
<path fill="none" stroke="midnightblue" d="M1423.29,-57.63C1520.15,-48 1689.97,-31.11 1796.49,-20.52"/>
<polygon fill="midnightblue" stroke="midnightblue" points="1796.99,-23.99 1806.59,-19.51 1796.3,-17.02 1796.99,-23.99"/>
</g>
<!-- Node22&#45;&gt;Node3 -->
<g id="edge32" class="edge">
<title>Node22&#45;&gt;Node3</title>
<path fill="none" stroke="midnightblue" d="M663.21,-246.48C598.93,-234.29 507.28,-216.93 449.29,-205.94"/>
<polygon fill="midnightblue" stroke="midnightblue" points="449.7,-202.45 439.22,-204.03 448.39,-209.33 449.7,-202.45"/>
</g>
<!-- Node22&#45;&gt;Node15 -->
<g id="edge33" class="edge">
<title>Node22&#45;&gt;Node15</title>
<path fill="none" stroke="midnightblue" d="M788.11,-246.42C810.25,-238.42 835.39,-226.61 854.21,-210 873.98,-192.56 887.83,-164.95 895.41,-146.78"/>
<polygon fill="midnightblue" stroke="midnightblue" points="898.73,-147.91 899.15,-137.32 892.22,-145.34 898.73,-147.91"/>
</g>
<!-- Node23&#45;&gt;Node3 -->
<g id="edge72" class="edge">
<title>Node23&#45;&gt;Node3</title>
<path fill="none" stroke="midnightblue" d="M858.19,-251.93C848.2,-249.76 837.32,-247.6 827.21,-246 670.58,-221.19 629.2,-232.51 472.21,-210 463.88,-208.81 455.09,-207.36 446.52,-205.84"/>
<polygon fill="midnightblue" stroke="midnightblue" points="447.08,-202.38 436.61,-204.04 445.83,-209.27 447.08,-202.38"/>
</g>
<!-- Node24 -->
<g id="node24" class="node">
<title>Node24</title>
<g id="a_node24"><a xlink:title=" ">
<polygon fill="white" stroke="#bfbfbf" points="2202.21,-118 2202.21,-137 2312.21,-137 2312.21,-118 2202.21,-118"/>
<text text-anchor="middle" x="2257.21" y="-125" font-family="Helvetica,sans-Serif" font-size="10.00">AMReX_AmrCore.H</text>
</a>
</g>
</g>
<!-- Node23&#45;&gt;Node24 -->
<g id="edge35" class="edge">
<title>Node23&#45;&gt;Node24</title>
<path fill="none" stroke="midnightblue" d="M928.61,-251.94C939.31,-249.61 951.19,-247.36 962.21,-246 1420.81,-189.6 1545.93,-288.82 2001.21,-210 2085.53,-195.4 2180.46,-159.87 2227.5,-140.91"/>
<polygon fill="midnightblue" stroke="midnightblue" points="2228.85,-144.14 2236.79,-137.13 2226.21,-137.66 2228.85,-144.14"/>
</g>
<!-- Node25 -->
<g id="node25" class="node">
<title>Node25</title>
<g id="a_node25"><a xlink:href="_sim_time_8_h.html" target="_top" xlink:title=" ">
<polygon fill="white" stroke="black" points="1231.21,-185 1231.21,-204 1375.21,-204 1375.21,-185 1231.21,-185"/>
<text text-anchor="middle" x="1303.21" y="-192" font-family="Helvetica,sans-Serif" font-size="10.00">amr&#45;wind/core/SimTime.H</text>
</a>
</g>
</g>
<!-- Node23&#45;&gt;Node25 -->
<g id="edge36" class="edge">
<title>Node23&#45;&gt;Node25</title>
<path fill="none" stroke="midnightblue" d="M932.25,-251.95C942,-249.88 952.47,-247.76 962.21,-246 1053.01,-229.61 1158.12,-214.65 1227.37,-205.34"/>
<polygon fill="midnightblue" stroke="midnightblue" points="1227.88,-208.8 1237.32,-204 1226.95,-201.86 1227.88,-208.8"/>
</g>
<!-- Node29 -->
<g id="node29" class="node">
<title>Node29</title>
<g id="a_node29"><a xlink:href="_field_repo_8_h.html" target="_top" xlink:title=" ">
<polygon fill="white" stroke="black" points="1842.71,-185 1842.71,-204 1991.71,-204 1991.71,-185 1842.71,-185"/>
<text text-anchor="middle" x="1917.21" y="-192" font-family="Helvetica,sans-Serif" font-size="10.00">amr&#45;wind/core/FieldRepo.H</text>
</a>
</g>
</g>
<!-- Node23&#45;&gt;Node29 -->
<g id="edge40" class="edge">
<title>Node23&#45;&gt;Node29</title>
<path fill="none" stroke="midnightblue" d="M928.97,-251.99C939.58,-249.69 951.32,-247.44 962.21,-246 1129.16,-223.93 1631.14,-205.13 1832.39,-198.27"/>
<polygon fill="midnightblue" stroke="midnightblue" points="1832.74,-201.76 1842.62,-197.93 1832.5,-194.77 1832.74,-201.76"/>
</g>
<!-- Node37 -->
<g id="node37" class="node">
<title>Node37</title>
<g id="a_node37"><a xlink:href="_p_d_e_base_8_h.html" target="_top" xlink:title=" ">
<polygon fill="white" stroke="black" points="647.71,-179.5 647.71,-209.5 802.71,-209.5 802.71,-179.5 647.71,-179.5"/>
<text text-anchor="start" x="655.71" y="-197.5" font-family="Helvetica,sans-Serif" font-size="10.00">amr&#45;wind/equation_systems</text>
<text text-anchor="middle" x="725.21" y="-186.5" font-family="Helvetica,sans-Serif" font-size="10.00">/PDEBase.H</text>
</a>
</g>
</g>
<!-- Node23&#45;&gt;Node37 -->
<g id="edge64" class="edge">
<title>Node23&#45;&gt;Node37</title>
<path fill="none" stroke="midnightblue" d="M871.77,-251.87C846.19,-242.03 803.71,-225.69 771.05,-213.13"/>
<polygon fill="midnightblue" stroke="midnightblue" points="772.28,-209.85 761.69,-209.53 769.76,-216.38 772.28,-209.85"/>
</g>
<!-- Node40 -->
<g id="node40" class="node">
<title>Node40</title>
<g id="a_node40"><a xlink:href="_mesh_map_8_h.html" target="_top" xlink:title=" ">
<polygon fill="white" stroke="black" points="481.21,-185 481.21,-204 629.21,-204 629.21,-185 481.21,-185"/>
<text text-anchor="middle" x="555.21" y="-192" font-family="Helvetica,sans-Serif" font-size="10.00">amr&#45;wind/core/MeshMap.H</text>
</a>
</g>
</g>
<!-- Node23&#45;&gt;Node40 -->
<g id="edge73" class="edge">
<title>Node23&#45;&gt;Node40</title>
<path fill="none" stroke="midnightblue" d="M855.64,-251.95C846.34,-249.94 836.43,-247.85 827.21,-246 753.63,-231.21 668.52,-215.66 613.39,-205.79"/>
<polygon fill="midnightblue" stroke="midnightblue" points="613.91,-202.32 603.45,-204.01 612.68,-209.22 613.91,-202.32"/>
</g>
<!-- Node26 -->
<g id="node26" class="node">
<title>Node26</title>
<g id="a_node26"><a xlink:title=" ">
<polygon fill="white" stroke="#bfbfbf" points="1318.21,-118 1318.21,-137 1410.21,-137 1410.21,-118 1318.21,-118"/>
<text text-anchor="middle" x="1364.21" y="-125" font-family="Helvetica,sans-Serif" font-size="10.00">AMReX_REAL.H</text>
</a>
</g>
</g>
<!-- Node25&#45;&gt;Node26 -->
<g id="edge37" class="edge">
<title>Node25&#45;&gt;Node26</title>
<path fill="none" stroke="midnightblue" d="M1311.44,-184.73C1321.04,-174.5 1337.13,-157.36 1349.02,-144.69"/>
<polygon fill="midnightblue" stroke="midnightblue" points="1351.83,-146.81 1356.12,-137.13 1346.72,-142.02 1351.83,-146.81"/>
</g>
<!-- Node27 -->
<g id="node27" class="node">
<title>Node27</title>
<g id="a_node27"><a xlink:title=" ">
<polygon fill="white" stroke="#bfbfbf" points="1428.21,-118 1428.21,-137 1562.21,-137 1562.21,-118 1428.21,-118"/>
<text text-anchor="middle" x="1495.21" y="-125" font-family="Helvetica,sans-Serif" font-size="10.00">AMReX_GpuQualifiers.H</text>
</a>
</g>
</g>
<!-- Node25&#45;&gt;Node27 -->
<g id="edge38" class="edge">
<title>Node25&#45;&gt;Node27</title>
<path fill="none" stroke="midnightblue" d="M1328.71,-184.87C1362.51,-173.42 1422.31,-153.18 1460.29,-140.32"/>
<polygon fill="midnightblue" stroke="midnightblue" points="1461.57,-143.59 1469.92,-137.06 1459.32,-136.96 1461.57,-143.59"/>
</g>
<!-- Node28 -->
<g id="node28" class="node">
<title>Node28</title>
<g id="a_node28"><a xlink:title=" ">
<polygon fill="white" stroke="#bfbfbf" points="1184.21,-118 1184.21,-137 1300.21,-137 1300.21,-118 1184.21,-118"/>
<text text-anchor="middle" x="1242.21" y="-125" font-family="Helvetica,sans-Serif" font-size="10.00">AMReX_Extension.H</text>
</a>
</g>
</g>
<!-- Node25&#45;&gt;Node28 -->
<g id="edge39" class="edge">
<title>Node25&#45;&gt;Node28</title>
<path fill="none" stroke="midnightblue" d="M1294.99,-184.73C1285.38,-174.5 1269.3,-157.36 1257.41,-144.69"/>
<polygon fill="midnightblue" stroke="midnightblue" points="1259.71,-142.02 1250.31,-137.13 1254.6,-146.81 1259.71,-142.02"/>
</g>
<!-- Node29&#45;&gt;Node6 -->
<g id="edge42" class="edge">
<title>Node29&#45;&gt;Node6</title>
<path fill="none" stroke="midnightblue" d="M1842.68,-190.55C1779.69,-185.86 1688.18,-173.83 1614.21,-143 1592.47,-133.94 1593.49,-119.68 1571.21,-112 1380.59,-46.31 870.31,-94.72 651.13,-75.88"/>
<polygon fill="midnightblue" stroke="midnightblue" points="651.19,-72.38 640.91,-74.94 650.54,-79.35 651.19,-72.38"/>
</g>
<!-- Node29&#45;&gt;Node11 -->
<g id="edge41" class="edge">
<title>Node29&#45;&gt;Node11</title>
<path fill="none" stroke="midnightblue" d="M1842.59,-188.81C1786.79,-183.14 1709.7,-170.61 1647.21,-143 1626.32,-133.77 1627.49,-120.31 1606.21,-112 1529.47,-82.03 1303.76,-124.58 1237.21,-76 1222.51,-65.26 1215.44,-45.17 1212.1,-30.15"/>
<polygon fill="midnightblue" stroke="midnightblue" points="1215.47,-29.1 1210.21,-19.9 1208.58,-30.37 1215.47,-29.1"/>
</g>
<!-- Node29&#45;&gt;Node13 -->
<g id="edge62" class="edge">
<title>Node29&#45;&gt;Node13</title>
<path fill="none" stroke="midnightblue" d="M1943,-184.86C2000.4,-164.37 2129.83,-110.44 2079.21,-56 2060.58,-35.96 1681.24,-19.35 1526.29,-13.38"/>
<polygon fill="midnightblue" stroke="midnightblue" points="1526.1,-9.87 1515.97,-12.98 1525.83,-16.86 1526.1,-9.87"/>
</g>
<!-- Node29&#45;&gt;Node15 -->
<g id="edge48" class="edge">
<title>Node29&#45;&gt;Node15</title>
<path fill="none" stroke="midnightblue" d="M1842.58,-188.72C1654.09,-176.65 1160.67,-145.05 974.62,-133.14"/>
<polygon fill="midnightblue" stroke="midnightblue" points="974.6,-129.63 964.4,-132.48 974.15,-136.61 974.6,-129.63"/>
</g>
<!-- Node29&#45;&gt;Node20 -->
<g id="edge43" class="edge">
<title>Node29&#45;&gt;Node20</title>
<path fill="none" stroke="midnightblue" d="M1961.55,-184.98C2016.16,-174.04 2102.9,-155.03 2112.21,-143 2135.88,-112.42 2136.66,-85.96 2112.21,-56 2096.44,-36.67 2041.46,-25.43 1990.42,-19.01"/>
<polygon fill="midnightblue" stroke="midnightblue" points="1990.62,-15.51 1980.28,-17.79 1989.79,-22.46 1990.62,-15.51"/>
</g>
<!-- Node29&#45;&gt;Node24 -->
<g id="edge61" class="edge">
<title>Node29&#45;&gt;Node24</title>
<path fill="none" stroke="midnightblue" d="M1964.76,-184.98C2018.93,-175.2 2110.05,-158.49 2188.21,-143 2194.44,-141.77 2200.97,-140.44 2207.43,-139.1"/>
<polygon fill="midnightblue" stroke="midnightblue" points="2208.4,-142.48 2217.48,-137.01 2206.97,-135.62 2208.4,-142.48"/>
</g>
<!-- Node30 -->
<g id="node30" class="node">
<title>Node30</title>
<g id="a_node30"><a xlink:href="_field_utils_8_h.html" target="_top" xlink:title=" ">
<polygon fill="white" stroke="black" points="2164.21,-56.5 2164.21,-75.5 2310.21,-75.5 2310.21,-56.5 2164.21,-56.5"/>
<text text-anchor="middle" x="2237.21" y="-63.5" font-family="Helvetica,sans-Serif" font-size="10.00">amr&#45;wind/core/FieldUtils.H</text>
</a>
</g>
</g>
<!-- Node29&#45;&gt;Node30 -->
<g id="edge44" class="edge">
<title>Node29&#45;&gt;Node30</title>
<path fill="none" stroke="midnightblue" d="M1991.76,-186.99C2039.14,-180.58 2100.66,-167.91 2150.21,-143 2165.88,-135.13 2200.71,-102.57 2221.23,-82.71"/>
<polygon fill="midnightblue" stroke="midnightblue" points="2223.85,-85.05 2228.57,-75.56 2218.97,-80.03 2223.85,-85.05"/>
</g>
<!-- Node32 -->
<g id="node32" class="node">
<title>Node32</title>
<g id="a_node32"><a xlink:href="_int_field_8_h.html" target="_top" xlink:title=" ">
<polygon fill="white" stroke="black" points="1848.71,-118 1848.71,-137 1985.71,-137 1985.71,-118 1848.71,-118"/>
<text text-anchor="middle" x="1917.21" y="-125" font-family="Helvetica,sans-Serif" font-size="10.00">amr&#45;wind/core/IntField.H</text>
</a>
</g>
</g>
<!-- Node29&#45;&gt;Node32 -->
<g id="edge49" class="edge">
<title>Node29&#45;&gt;Node32</title>
<path fill="none" stroke="midnightblue" d="M1917.21,-184.73C1917.21,-175.18 1917.21,-159.62 1917.21,-147.28"/>
<polygon fill="midnightblue" stroke="midnightblue" points="1920.71,-147.13 1917.21,-137.13 1913.71,-147.13 1920.71,-147.13"/>
</g>
<!-- Node33 -->
<g id="node33" class="node">
<title>Node33</title>
<g id="a_node33"><a xlink:title=" ">
<polygon fill="white" stroke="#bfbfbf" points="1958.21,-56.5 1958.21,-75.5 2070.21,-75.5 2070.21,-56.5 1958.21,-56.5"/>
<text text-anchor="middle" x="2014.21" y="-63.5" font-family="Helvetica,sans-Serif" font-size="10.00">AMReX_iMultiFab.H</text>
</a>
</g>
</g>
<!-- Node29&#45;&gt;Node33 -->
<g id="edge63" class="edge">
<title>Node29&#45;&gt;Node33</title>
<path fill="none" stroke="midnightblue" d="M1938.67,-184.98C1956.46,-176.83 1981.05,-162.82 1995.21,-143 2007.3,-126.1 2011.72,-102.31 2013.33,-85.87"/>
<polygon fill="midnightblue" stroke="midnightblue" points="2016.83,-86.06 2014.05,-75.84 2009.84,-85.56 2016.83,-86.06"/>
</g>
<!-- Node34 -->
<g id="node34" class="node">
<title>Node34</title>
<g id="a_node34"><a xlink:href="_scratch_field_8_h.html" target="_top" xlink:title=" ">
<polygon fill="white" stroke="black" points="1656.21,-118 1656.21,-137 1816.21,-137 1816.21,-118 1656.21,-118"/>
<text text-anchor="middle" x="1736.21" y="-125" font-family="Helvetica,sans-Serif" font-size="10.00">amr&#45;wind/core/ScratchField.H</text>
</a>
</g>
</g>
<!-- Node29&#45;&gt;Node34 -->
<g id="edge53" class="edge">
<title>Node29&#45;&gt;Node34</title>
<path fill="none" stroke="midnightblue" d="M1893.18,-184.87C1861.45,-173.47 1805.42,-153.35 1769.59,-140.49"/>
<polygon fill="midnightblue" stroke="midnightblue" points="1770.66,-137.15 1760.06,-137.06 1768.29,-143.74 1770.66,-137.15"/>
</g>
<!-- Node30&#45;&gt;Node13 -->
<g id="edge46" class="edge">
<title>Node30&#45;&gt;Node13</title>
<path fill="none" stroke="midnightblue" d="M2164.18,-59.71C2147.13,-58.48 2129.03,-57.19 2112.21,-56 1897.75,-40.87 1643.51,-23.44 1526.32,-15.44"/>
<polygon fill="midnightblue" stroke="midnightblue" points="1526.3,-11.93 1516.09,-14.74 1525.83,-18.91 1526.3,-11.93"/>
</g>
<!-- Node30&#45;&gt;Node20 -->
<g id="edge45" class="edge">
<title>Node30&#45;&gt;Node20</title>
<path fill="none" stroke="midnightblue" d="M2182.55,-56.44C2121.23,-46.85 2021.85,-31.29 1956.77,-21.1"/>
<polygon fill="midnightblue" stroke="midnightblue" points="1957.05,-17.61 1946.62,-19.52 1955.96,-24.52 1957.05,-17.61"/>
</g>
<!-- Node31 -->
<g id="node31" class="node">
<title>Node31</title>
<g id="a_node31"><a xlink:title=" ">
<polygon fill="white" stroke="#bfbfbf" points="2175.21,-0.5 2175.21,-19.5 2299.21,-19.5 2299.21,-0.5 2175.21,-0.5"/>
<text text-anchor="middle" x="2237.21" y="-7.5" font-family="Helvetica,sans-Serif" font-size="10.00">AMReX_Interpolater.H</text>
</a>
</g>
</g>
<!-- Node30&#45;&gt;Node31 -->
<g id="edge47" class="edge">
<title>Node30&#45;&gt;Node31</title>
<path fill="none" stroke="midnightblue" d="M2237.21,-56.08C2237.21,-49.01 2237.21,-38.86 2237.21,-29.99"/>
<polygon fill="midnightblue" stroke="midnightblue" points="2240.71,-29.75 2237.21,-19.75 2233.71,-29.75 2240.71,-29.75"/>
</g>
<!-- Node32&#45;&gt;Node11 -->
<g id="edge50" class="edge">
<title>Node32&#45;&gt;Node11</title>
<path fill="none" stroke="midnightblue" d="M1906.46,-117.81C1886.4,-102.18 1841.3,-69.66 1797.21,-56 1577.62,12.03 1510.02,-42.27 1281.21,-20 1268.09,-18.72 1253.66,-16.99 1241.18,-15.38"/>
<polygon fill="midnightblue" stroke="midnightblue" points="1241.61,-11.9 1231.24,-14.07 1240.7,-18.84 1241.61,-11.9"/>
</g>
<!-- Node32&#45;&gt;Node20 -->
<g id="edge51" class="edge">
<title>Node32&#45;&gt;Node20</title>
<path fill="none" stroke="midnightblue" d="M1916.27,-117.74C1914.72,-104.33 1911.31,-77.96 1906.21,-56 1904.13,-47.02 1901.17,-37.23 1898.51,-29.08"/>
<polygon fill="midnightblue" stroke="midnightblue" points="1901.79,-27.88 1895.28,-19.52 1895.16,-30.12 1901.79,-27.88"/>
</g>
<!-- Node32&#45;&gt;Node33 -->
<g id="edge52" class="edge">
<title>Node32&#45;&gt;Node33</title>
<path fill="none" stroke="midnightblue" d="M1931.11,-117.98C1946.89,-108.3 1972.85,-92.37 1991.56,-80.89"/>
<polygon fill="midnightblue" stroke="midnightblue" points="1993.65,-83.72 2000.34,-75.51 1989.99,-77.75 1993.65,-83.72"/>
</g>
<!-- Node34&#45;&gt;Node11 -->
<g id="edge54" class="edge">
<title>Node34&#45;&gt;Node11</title>
<path fill="none" stroke="midnightblue" d="M1684.57,-117.99C1670.83,-115.87 1655.98,-113.72 1642.21,-112 1558.92,-101.6 1340.93,-114.25 1266.21,-76 1245.41,-65.35 1228.83,-43.61 1219.03,-28.21"/>
<polygon fill="midnightblue" stroke="midnightblue" points="1221.99,-26.35 1213.83,-19.6 1216,-29.97 1221.99,-26.35"/>
</g>
<!-- Node34&#45;&gt;Node12 -->
<g id="edge59" class="edge">
<title>Node34&#45;&gt;Node12</title>
<path fill="none" stroke="midnightblue" d="M1706.7,-117.91C1636.13,-97.38 1457.63,-45.45 1378.28,-22.36"/>
<polygon fill="midnightblue" stroke="midnightblue" points="1379.23,-19 1368.65,-19.56 1377.28,-25.72 1379.23,-19"/>
</g>
<!-- Node34&#45;&gt;Node13 -->
<g id="edge58" class="edge">
<title>Node34&#45;&gt;Node13</title>
<path fill="none" stroke="midnightblue" d="M1753.42,-117.79C1777.6,-104.45 1816.61,-78.17 1797.21,-56 1762.68,-16.54 1613.43,-10.21 1525.89,-10.01"/>
<polygon fill="midnightblue" stroke="midnightblue" points="1525.79,-6.51 1515.79,-10.01 1525.79,-13.51 1525.79,-6.51"/>
</g>
<!-- Node34&#45;&gt;Node20 -->
<g id="edge56" class="edge">
<title>Node34&#45;&gt;Node20</title>
<path fill="none" stroke="midnightblue" d="M1785.98,-117.92C1813.39,-110.86 1846.22,-98.25 1868.21,-76 1880.49,-63.58 1886.56,-44.34 1889.52,-30.01"/>
<polygon fill="midnightblue" stroke="midnightblue" points="1893.03,-30.25 1891.28,-19.8 1886.13,-29.06 1893.03,-30.25"/>
</g>
<!-- Node34&#45;&gt;Node21 -->
<g id="edge57" class="edge">
<title>Node34&#45;&gt;Node21</title>
<path fill="none" stroke="midnightblue" d="M1681.04,-117.98C1668.29,-116.02 1654.78,-113.93 1642.21,-112 1564.08,-99.97 1474.22,-86.18 1414.83,-77.07"/>
<polygon fill="midnightblue" stroke="midnightblue" points="1415.26,-73.59 1404.84,-75.53 1414.19,-80.51 1415.26,-73.59"/>
</g>
<!-- Node35 -->
<g id="node35" class="node">
<title>Node35</title>
<g id="a_node35"><a xlink:title=" ">
<polygon fill="white" stroke="#bfbfbf" points="1593.71,-56.5 1593.71,-75.5 1638.71,-75.5 1638.71,-56.5 1593.71,-56.5"/>
<text text-anchor="middle" x="1616.21" y="-63.5" font-family="Helvetica,sans-Serif" font-size="10.00">utility</text>
</a>
</g>
</g>
<!-- Node34&#45;&gt;Node35 -->
<g id="edge55" class="edge">
<title>Node34&#45;&gt;Node35</title>
<path fill="none" stroke="midnightblue" d="M1719.02,-117.98C1698.97,-108.03 1665.62,-91.49 1642.35,-79.96"/>
<polygon fill="midnightblue" stroke="midnightblue" points="1643.89,-76.82 1633.38,-75.51 1640.78,-83.09 1643.89,-76.82"/>
</g>
<!-- Node36 -->
<g id="node36" class="node">
<title>Node36</title>
<g id="a_node36"><a xlink:title=" ">
<polygon fill="white" stroke="#bfbfbf" points="1656.71,-56.5 1656.71,-75.5 1787.71,-75.5 1787.71,-56.5 1656.71,-56.5"/>
<text text-anchor="middle" x="1722.21" y="-63.5" font-family="Helvetica,sans-Serif" font-size="10.00">AMReX_PhysBCFunct.H</text>
</a>
</g>
</g>
<!-- Node34&#45;&gt;Node36 -->
<g id="edge60" class="edge">
<title>Node34&#45;&gt;Node36</title>
<path fill="none" stroke="midnightblue" d="M1734.21,-117.98C1732.21,-109.49 1729.09,-96.2 1726.53,-85.32"/>
<polygon fill="midnightblue" stroke="midnightblue" points="1729.91,-84.44 1724.22,-75.51 1723.1,-86.04 1729.91,-84.44"/>
</g>
<!-- Node37&#45;&gt;Node4 -->
<g id="edge66" class="edge">
<title>Node37&#45;&gt;Node4</title>
<path fill="none" stroke="midnightblue" d="M652.51,-179.48C589.35,-167.29 499.31,-149.93 442.33,-138.94"/>
<polygon fill="midnightblue" stroke="midnightblue" points="442.91,-135.49 432.43,-137.03 441.59,-142.36 442.91,-135.49"/>
</g>
<!-- Node37&#45;&gt;Node10 -->
<g id="edge67" class="edge">
<title>Node37&#45;&gt;Node10</title>
<path fill="none" stroke="midnightblue" d="M685.51,-179.4C652.69,-167.74 606.61,-151.37 575.65,-140.38"/>
<polygon fill="midnightblue" stroke="midnightblue" points="576.76,-137.06 566.16,-137.01 574.42,-143.65 576.76,-137.06"/>
</g>
<!-- Node37&#45;&gt;Node11 -->
<g id="edge65" class="edge">
<title>Node37&#45;&gt;Node11</title>
<path fill="none" stroke="midnightblue" d="M709.37,-179.21C689.55,-161.82 654.08,-132.26 620.21,-112 582.66,-89.53 509.32,-87.97 539.21,-56 583.12,-9.04 1048.75,-9.6 1176.79,-10.65"/>
<polygon fill="midnightblue" stroke="midnightblue" points="1177.08,-14.15 1187.11,-10.74 1177.14,-7.15 1177.08,-14.15"/>
</g>
<!-- Node37&#45;&gt;Node19 -->
<g id="edge71" class="edge">
<title>Node37&#45;&gt;Node19</title>
<path fill="none" stroke="midnightblue" d="M725.66,-179.48C726.38,-156.72 727.8,-111.7 728.61,-86.06"/>
<polygon fill="midnightblue" stroke="midnightblue" points="732.12,-85.89 728.94,-75.79 725.12,-85.67 732.12,-85.89"/>
</g>
<!-- Node37&#45;&gt;Node20 -->
<g id="edge70" class="edge">
<title>Node37&#45;&gt;Node20</title>
<path fill="none" stroke="midnightblue" d="M802.75,-185.44C873.26,-177.34 979.93,-163.16 1071.21,-143 1118.31,-132.6 1127.94,-121.54 1175.21,-112 1319.83,-82.81 1359.98,-101.95 1505.21,-76 1541.29,-69.55 1549.26,-63.11 1585.21,-56 1660.8,-41.05 1747.76,-28.76 1809.79,-20.82"/>
<polygon fill="midnightblue" stroke="midnightblue" points="1810.43,-24.27 1819.91,-19.54 1809.55,-17.32 1810.43,-24.27"/>
</g>
<!-- Node38 -->
<g id="node38" class="node">
<title>Node38</title>
<g id="a_node38"><a xlink:href="_p_d_e_fields_8_h.html" target="_top" xlink:title=" ">
<polygon fill="white" stroke="black" points="147.71,-112.5 147.71,-142.5 302.71,-142.5 302.71,-112.5 147.71,-112.5"/>
<text text-anchor="start" x="155.71" y="-130.5" font-family="Helvetica,sans-Serif" font-size="10.00">amr&#45;wind/equation_systems</text>
<text text-anchor="middle" x="225.21" y="-119.5" font-family="Helvetica,sans-Serif" font-size="10.00">/PDEFields.H</text>
</a>
</g>
</g>
<!-- Node37&#45;&gt;Node38 -->
<g id="edge68" class="edge">
<title>Node37&#45;&gt;Node38</title>
<path fill="none" stroke="midnightblue" d="M647.46,-180.32C644.34,-179.86 641.25,-179.42 638.21,-179 497.06,-159.46 458.33,-162.82 313.15,-143.08"/>
<polygon fill="midnightblue" stroke="midnightblue" points="313.35,-139.57 302.97,-141.68 312.4,-146.51 313.35,-139.57"/>
</g>
<!-- Node39 -->
<g id="node39" class="node">
<title>Node39</title>
<g id="a_node39"><a xlink:title=" ">
<polygon fill="white" stroke="#bfbfbf" points="25.21,-56.5 25.21,-75.5 73.21,-75.5 73.21,-56.5 25.21,-56.5"/>
<text text-anchor="middle" x="49.21" y="-63.5" font-family="Helvetica,sans-Serif" font-size="10.00">iosfwd</text>
</a>
</g>
</g>
<!-- Node38&#45;&gt;Node39 -->
<g id="edge69" class="edge">
<title>Node38&#45;&gt;Node39</title>
<path fill="none" stroke="midnightblue" d="M183.5,-112.4C152.77,-102.01 111.5,-88.06 82.86,-78.38"/>
<polygon fill="midnightblue" stroke="midnightblue" points="83.89,-75.03 73.3,-75.14 81.65,-81.66 83.89,-75.03"/>
</g>
<!-- Node40&#45;&gt;Node4 -->
<g id="edge75" class="edge">
<title>Node40&#45;&gt;Node4</title>
<path fill="none" stroke="midnightblue" d="M533.04,-184.87C504.01,-173.57 452.95,-153.7 419.86,-140.82"/>
<polygon fill="midnightblue" stroke="midnightblue" points="420.8,-137.43 410.22,-137.06 418.27,-143.95 420.8,-137.43"/>
</g>
<!-- Node40&#45;&gt;Node10 -->
<g id="edge74" class="edge">
<title>Node40&#45;&gt;Node10</title>
<path fill="none" stroke="midnightblue" d="M553.46,-184.73C551.55,-175.18 548.44,-159.62 545.97,-147.28"/>
<polygon fill="midnightblue" stroke="midnightblue" points="549.33,-146.25 543.94,-137.13 542.47,-147.62 549.33,-146.25"/>
</g>
<!-- Node40&#45;&gt;Node13 -->
<g id="edge77" class="edge">
<title>Node40&#45;&gt;Node13</title>
<path fill="none" stroke="midnightblue" d="M601.35,-184.99C613.63,-182.88 626.9,-180.72 639.21,-179 787.08,-158.29 825.46,-164.48 973.21,-143 1048.78,-132.01 1066.74,-123.6 1142.21,-112 1206.4,-102.14 1380.02,-114.64 1432.21,-76 1446.93,-65.1 1454.33,-45.03 1457.95,-30.07"/>
<polygon fill="midnightblue" stroke="midnightblue" points="1461.46,-30.35 1460.04,-19.85 1454.61,-28.95 1461.46,-30.35"/>
</g>
<!-- Node40&#45;&gt;Node14 -->
<g id="edge78" class="edge">
<title>Node40&#45;&gt;Node14</title>
<path fill="none" stroke="midnightblue" d="M509.08,-185C496.8,-182.88 483.52,-180.73 471.21,-179 323.79,-158.33 285.13,-167.01 138.21,-143 131.52,-141.91 124.49,-140.57 117.61,-139.15"/>
<polygon fill="midnightblue" stroke="midnightblue" points="118.21,-135.7 107.7,-137.04 116.75,-142.55 118.21,-135.7"/>
</g>
<!-- Node40&#45;&gt;Node15 -->
<g id="edge76" class="edge">
<title>Node40&#45;&gt;Node15</title>
<path fill="none" stroke="midnightblue" d="M600.94,-184.94C664.22,-173.08 778.38,-151.7 846.55,-138.93"/>
<polygon fill="midnightblue" stroke="midnightblue" points="847.48,-142.31 856.67,-137.03 846.19,-135.43 847.48,-142.31"/>
</g>
</g>
</svg>
        <g id="navigator" transform="translate(0 0)" fill="#404254">
                <rect fill="#f2f5e9" fill-opacity="0.5" stroke="#606060" stroke-width=".5" x="0" y="0" width="60" height="60"/>
                <use id="zoomplus" xlink:href="#zoomPlus" x="17" y="9" onmousedown="handleZoom(evt,'in')"/>
                <use id="zoomminus" xlink:href="#zoomMin" x="42" y="9" onmousedown="handleZoom(evt,'out')"/>
                <use id="reset" xlink:href="#resetDef" x="30" y="36" onmousedown="handleReset()"/>
                <g id="arrowUp" xlink:href="#dirArrow" transform="translate(30 24)" onmousedown="handlePan(0,-1)">
                  <use xlink:href="#rim" fill="#404040">
                        <set attributeName="fill" to="#808080" begin="arrowUp.mouseover" end="arrowUp.mouseout"/>
                  </use>
                  <path fill="none" stroke="white" stroke-width="1.5" d="M0,-3.0v7 M-2.5,-0.5L0,-3.0L2.5,-0.5"/>
                </g>
                <g id="arrowRight" xlink:href="#dirArrow" transform="rotate(90) translate(36 -43)" onmousedown="handlePan(1,0)">
                  <use xlink:href="#rim" fill="#404040">
                        <set attributeName="fill" to="#808080" begin="arrowRight.mouseover" end="arrowRight.mouseout"/>
                  </use>
                  <path fill="none" stroke="white" stroke-width="1.5" d="M0,-3.0v7 M-2.5,-0.5L0,-3.0L2.5,-0.5"/>
                </g>
                <g id="arrowDown" xlink:href="#dirArrow" transform="rotate(180) translate(-30 -48)" onmousedown="handlePan(0,1)">
                  <use xlink:href="#rim" fill="#404040">
                        <set attributeName="fill" to="#808080" begin="arrowDown.mouseover" end="arrowDown.mouseout"/>
                  </use>
                  <path fill="none" stroke="white" stroke-width="1.5" d="M0,-3.0v7 M-2.5,-0.5L0,-3.0L2.5,-0.5"/>
                </g>
                <g id="arrowLeft" xlink:href="#dirArrow" transform="rotate(270) translate(-36 17)" onmousedown="handlePan(-1,0)">
                  <use xlink:href="#rim" fill="#404040">
                        <set attributeName="fill" to="#808080" begin="arrowLeft.mouseover" end="arrowLeft.mouseout"/>
                  </use>
                  <path fill="none" stroke="white" stroke-width="1.5" d="M0,-3.0v7 M-2.5,-0.5L0,-3.0L2.5,-0.5"/>
                </g>
        </g>
        <svg viewBox="0 0 15 15" width="100%" height="30px" preserveAspectRatio="xMaxYMin meet">
         <g id="arrow_out" transform="scale(0.3 0.3)">
          <a xlink:href="_rain_drop_8cpp__incl_org.svg" target="_base">
           <rect id="button" ry="5" rx="5" y="6" x="6" height="38" width="38"
                fill="#f2f5e9" fill-opacity="0.5" stroke="#606060" stroke-width="1.0"/>
           <path id="arrow"
             d="M 11.500037,31.436501 C 11.940474,20.09759 22.043105,11.32322 32.158766,21.979434 L 37.068811,17.246167 C 37.068811,17.246167 37.088388,32 37.088388,32 L 22.160133,31.978069 C 22.160133,31.978069 26.997745,27.140456 26.997745,27.140456 C 18.528582,18.264221 13.291696,25.230495 11.500037,31.436501 z"
             style="fill:#404040;"/>
          </a>
         </g>
        </svg>
</svg>
