<?xml version="1.0" encoding="UTF-8" standalone="no"?>
<!DOCTYPE svg PUBLIC "-//W3C//DTD SVG 1.1//EN"
 "http://www.w3.org/Graphics/SVG/1.1/DTD/svg11.dtd">
<!-- Generated by graphviz version 2.43.0 (0)
 -->
<!-- Title: RefinementCriteria.cpp Pages: 1 -->
<!--zoomable 330 -->
<svg id="main" version="1.1" xmlns="http://www.w3.org/2000/svg" xmlns:xlink="http://www.w3.org/1999/xlink" xml:space="preserve" onload="init(evt)">
<style type="text/css"><![CDATA[
.edge:hover path { stroke: red; }
.edge:hover polygon { stroke: red; fill: red; }
]]></style>
<script type="text/javascript"><![CDATA[
var edges = document.getElementsByTagName('g');
if (edges && edges.length) {
  for (var i=0;i<edges.length;i++) {
    if (edges[i].id.substr(0,4)=='edge') {
      edges[i].setAttribute('class','edge');
    }
  }
}
]]></script>
        <defs>
                <circle id="rim" cx="0" cy="0" r="7"/>
                <circle id="rim2" cx="0" cy="0" r="3.5"/>
                <g id="zoomPlus">
                        <use xlink:href="#rim" fill="#404040">
                                <set attributeName="fill" to="#808080" begin="zoomplus.mouseover" end="zoomplus.mouseout"/>
                        </use>
                        <path d="M-4,0h8M0,-4v8" fill="none" stroke="white" stroke-width="1.5" pointer-events="none"/>
                </g>
                <g id="zoomMin">
                        <use xlink:href="#rim" fill="#404040">
                                <set attributeName="fill" to="#808080" begin="zoomminus.mouseover" end="zoomminus.mouseout"/>
                        </use>
                        <path d="M-4,0h8" fill="none" stroke="white" stroke-width="1.5" pointer-events="none"/>
                </g>
                <g id="dirArrow">
                        <path fill="none" stroke="white" stroke-width="1.5" d="M0,-3.0v7 M-2.5,-0.5L0,-3.0L2.5,-0.5"/>
                </g>
               <g id="resetDef">
                       <use xlink:href="#rim2" fill="#404040">
                               <set attributeName="fill" to="#808080" begin="reset.mouseover" end="reset.mouseout"/>
                       </use>
               </g>
        </defs>

<script type="text/javascript">
var viewWidth = 2782;
var viewHeight = 330;
var sectionId = 'dynsection-0';
</script>
<script xlink:href="svgpan.js"/>
<svg id="graph" class="graph">
<g id="viewport">
<title>RefinementCriteria.cpp</title>
<polygon fill="white" stroke="transparent" points="-4,4 -4,-326 2777.84,-326 2777.84,4 -4,4"/>
<!-- Node1 -->
<g id="node1" class="node">
<title>Node1</title>
<g id="a_node1"><a xlink:title=" ">
<polygon fill="#bfbfbf" stroke="black" points="812.5,-302.5 812.5,-321.5 941.5,-321.5 941.5,-302.5 812.5,-302.5"/>
<text text-anchor="middle" x="877" y="-309.5" font-family="Helvetica,sans-Serif" font-size="10.00">RefinementCriteria.cpp</text>
</a>
</g>
</g>
<!-- Node2 -->
<g id="node2" class="node">
<title>Node2</title>
<g id="a_node2"><a xlink:href="_refinement_criteria_8_h.html" target="_top" xlink:title=" ">
<polygon fill="white" stroke="black" points="503,-179.5 503,-209.5 665,-209.5 665,-179.5 503,-179.5"/>
<text text-anchor="start" x="511" y="-197.5" font-family="Helvetica,sans-Serif" font-size="10.00">amr&#45;wind/utilities</text>
<text text-anchor="middle" x="584" y="-186.5" font-family="Helvetica,sans-Serif" font-size="10.00">/tagging/RefinementCriteria.H</text>
</a>
</g>
</g>
<!-- Node1&#45;&gt;Node2 -->
<g id="edge1" class="edge">
<title>Node1&#45;&gt;Node2</title>
<path fill="none" stroke="midnightblue" d="M854.98,-302.32C807.13,-283.46 692.85,-238.41 629.04,-213.26"/>
<polygon fill="midnightblue" stroke="midnightblue" points="630.22,-209.96 619.63,-209.55 627.65,-216.47 630.22,-209.96"/>
</g>
<!-- Node11 -->
<g id="node11" class="node">
<title>Node11</title>
<g id="a_node11"><a xlink:href="_c_f_d_sim_8_h.html" target="_top" xlink:title=" ">
<polygon fill="white" stroke="black" points="819,-246.5 819,-265.5 935,-265.5 935,-246.5 819,-246.5"/>
<text text-anchor="middle" x="877" y="-253.5" font-family="Helvetica,sans-Serif" font-size="10.00">amr&#45;wind/CFDSim.H</text>
</a>
</g>
</g>
<!-- Node1&#45;&gt;Node11 -->
<g id="edge10" class="edge">
<title>Node1&#45;&gt;Node11</title>
<path fill="none" stroke="midnightblue" d="M877,-302.08C877,-295.01 877,-284.86 877,-275.99"/>
<polygon fill="midnightblue" stroke="midnightblue" points="880.5,-275.75 877,-265.75 873.5,-275.75 880.5,-275.75"/>
</g>
<!-- Node41 -->
<g id="node41" class="node">
<title>Node41</title>
<g id="a_node41"><a xlink:title=" ">
<polygon fill="white" stroke="#bfbfbf" points="953.5,-246.5 953.5,-265.5 1072.5,-265.5 1072.5,-246.5 953.5,-246.5"/>
<text text-anchor="middle" x="1013" y="-253.5" font-family="Helvetica,sans-Serif" font-size="10.00">AMReX_ParmParse.H</text>
</a>
</g>
</g>
<!-- Node1&#45;&gt;Node41 -->
<g id="edge77" class="edge">
<title>Node1&#45;&gt;Node41</title>
<path fill="none" stroke="midnightblue" d="M898.55,-302.44C921.03,-293.52 956.49,-279.44 981.98,-269.32"/>
<polygon fill="midnightblue" stroke="midnightblue" points="983.55,-272.46 991.55,-265.52 980.97,-265.95 983.55,-272.46"/>
</g>
<!-- Node3 -->
<g id="node3" class="node">
<title>Node3</title>
<g id="a_node3"><a xlink:title=" ">
<polygon fill="white" stroke="#bfbfbf" points="518,-118 518,-137 628,-137 628,-118 518,-118"/>
<text text-anchor="middle" x="573" y="-125" font-family="Helvetica,sans-Serif" font-size="10.00">AMReX_AmrCore.H</text>
</a>
</g>
</g>
<!-- Node2&#45;&gt;Node3 -->
<g id="edge2" class="edge">
<title>Node2&#45;&gt;Node3</title>
<path fill="none" stroke="midnightblue" d="M581.61,-179.4C580.02,-169.96 577.9,-157.45 576.16,-147.19"/>
<polygon fill="midnightblue" stroke="midnightblue" points="579.59,-146.47 574.47,-137.19 572.69,-147.64 579.59,-146.47"/>
</g>
<!-- Node4 -->
<g id="node4" class="node">
<title>Node4</title>
<g id="a_node4"><a xlink:title=" ">
<polygon fill="white" stroke="#bfbfbf" points="396.5,-118 396.5,-137 499.5,-137 499.5,-118 396.5,-118"/>
<text text-anchor="middle" x="448" y="-125" font-family="Helvetica,sans-Serif" font-size="10.00">AMReX_TagBox.H</text>
</a>
</g>
</g>
<!-- Node2&#45;&gt;Node4 -->
<g id="edge3" class="edge">
<title>Node2&#45;&gt;Node4</title>
<path fill="none" stroke="midnightblue" d="M554.49,-179.4C530.84,-168.09 497.92,-152.36 474.97,-141.39"/>
<polygon fill="midnightblue" stroke="midnightblue" points="476.33,-138.16 465.8,-137.01 473.31,-144.48 476.33,-138.16"/>
</g>
<!-- Node5 -->
<g id="node5" class="node">
<title>Node5</title>
<g id="a_node5"><a xlink:href="_factory_8_h.html" target="_top" xlink:title=" ">
<polygon fill="white" stroke="black" points="2295,-118 2295,-137 2429,-137 2429,-118 2295,-118"/>
<text text-anchor="middle" x="2362" y="-125" font-family="Helvetica,sans-Serif" font-size="10.00">amr&#45;wind/core/Factory.H</text>
</a>
</g>
</g>
<!-- Node2&#45;&gt;Node5 -->
<g id="edge4" class="edge">
<title>Node2&#45;&gt;Node5</title>
<path fill="none" stroke="midnightblue" d="M665.23,-187.13C704.17,-184.27 751.48,-181.08 794,-179 1347.35,-151.91 1486.37,-163.46 2040,-143 2123.6,-139.91 2219.38,-135.48 2284.59,-132.34"/>
<polygon fill="midnightblue" stroke="midnightblue" points="2284.97,-135.82 2294.79,-131.84 2284.63,-128.83 2284.97,-135.82"/>
</g>
<!-- Node6 -->
<g id="node6" class="node">
<title>Node6</title>
<g id="a_node6"><a xlink:title=" ">
<polygon fill="white" stroke="#bfbfbf" points="2426,-56.5 2426,-75.5 2484,-75.5 2484,-56.5 2426,-56.5"/>
<text text-anchor="middle" x="2455" y="-63.5" font-family="Helvetica,sans-Serif" font-size="10.00">memory</text>
</a>
</g>
</g>
<!-- Node5&#45;&gt;Node6 -->
<g id="edge5" class="edge">
<title>Node5&#45;&gt;Node6</title>
<path fill="none" stroke="midnightblue" d="M2375.32,-117.98C2390.38,-108.34 2415.12,-92.52 2433.04,-81.05"/>
<polygon fill="midnightblue" stroke="midnightblue" points="2435.16,-83.85 2441.7,-75.51 2431.39,-77.95 2435.16,-83.85"/>
</g>
<!-- Node7 -->
<g id="node7" class="node">
<title>Node7</title>
<g id="a_node7"><a xlink:title=" ">
<polygon fill="white" stroke="#bfbfbf" points="2206.5,-56.5 2206.5,-75.5 2299.5,-75.5 2299.5,-56.5 2206.5,-56.5"/>
<text text-anchor="middle" x="2253" y="-63.5" font-family="Helvetica,sans-Serif" font-size="10.00">unordered_map</text>
</a>
</g>
</g>
<!-- Node5&#45;&gt;Node7 -->
<g id="edge6" class="edge">
<title>Node5&#45;&gt;Node7</title>
<path fill="none" stroke="midnightblue" d="M2346.38,-117.98C2328.41,-108.17 2298.68,-91.93 2277.59,-80.42"/>
<polygon fill="midnightblue" stroke="midnightblue" points="2279.04,-77.23 2268.59,-75.51 2275.69,-83.37 2279.04,-77.23"/>
</g>
<!-- Node8 -->
<g id="node8" class="node">
<title>Node8</title>
<g id="a_node8"><a xlink:title=" ">
<polygon fill="white" stroke="#bfbfbf" points="2582,-56.5 2582,-75.5 2642,-75.5 2642,-56.5 2582,-56.5"/>
<text text-anchor="middle" x="2612" y="-63.5" font-family="Helvetica,sans-Serif" font-size="10.00">iostream</text>
</a>
</g>
</g>
<!-- Node5&#45;&gt;Node8 -->
<g id="edge7" class="edge">
<title>Node5&#45;&gt;Node8</title>
<path fill="none" stroke="midnightblue" d="M2397.82,-117.98C2443.95,-107 2523.9,-87.97 2571.99,-76.52"/>
<polygon fill="midnightblue" stroke="midnightblue" points="2572.82,-79.92 2581.74,-74.2 2571.2,-73.11 2572.82,-79.92"/>
</g>
<!-- Node9 -->
<g id="node9" class="node">
<title>Node9</title>
<g id="a_node9"><a xlink:title=" ">
<polygon fill="white" stroke="#bfbfbf" points="2318,-56.5 2318,-75.5 2408,-75.5 2408,-56.5 2318,-56.5"/>
<text text-anchor="middle" x="2363" y="-63.5" font-family="Helvetica,sans-Serif" font-size="10.00">AMReX_Print.H</text>
</a>
</g>
</g>
<!-- Node5&#45;&gt;Node9 -->
<g id="edge8" class="edge">
<title>Node5&#45;&gt;Node9</title>
<path fill="none" stroke="midnightblue" d="M2362.14,-117.98C2362.28,-109.58 2362.5,-96.48 2362.69,-85.66"/>
<polygon fill="midnightblue" stroke="midnightblue" points="2366.19,-85.57 2362.86,-75.51 2359.19,-85.45 2366.19,-85.57"/>
</g>
<!-- Node10 -->
<g id="node10" class="node">
<title>Node10</title>
<g id="a_node10"><a xlink:title=" ">
<polygon fill="white" stroke="#bfbfbf" points="2502,-56.5 2502,-75.5 2564,-75.5 2564,-56.5 2502,-56.5"/>
<text text-anchor="middle" x="2533" y="-63.5" font-family="Helvetica,sans-Serif" font-size="10.00">AMReX.H</text>
</a>
</g>
</g>
<!-- Node5&#45;&gt;Node10 -->
<g id="edge9" class="edge">
<title>Node5&#45;&gt;Node10</title>
<path fill="none" stroke="midnightblue" d="M2386.5,-117.98C2415.96,-107.72 2465.58,-90.46 2498.8,-78.9"/>
<polygon fill="midnightblue" stroke="midnightblue" points="2500.25,-82.1 2508.55,-75.51 2497.95,-75.49 2500.25,-82.1"/>
</g>
<!-- Node11&#45;&gt;Node3 -->
<g id="edge11" class="edge">
<title>Node11&#45;&gt;Node3</title>
<path fill="none" stroke="midnightblue" d="M856.1,-246.31C803.37,-224.36 664.72,-166.67 603.17,-141.06"/>
<polygon fill="midnightblue" stroke="midnightblue" points="604.22,-137.7 593.64,-137.09 601.53,-144.16 604.22,-137.7"/>
</g>
<!-- Node12 -->
<g id="node12" class="node">
<title>Node12</title>
<g id="a_node12"><a xlink:href="_sim_time_8_h.html" target="_top" xlink:title=" ">
<polygon fill="white" stroke="black" points="199,-185 199,-204 343,-204 343,-185 199,-185"/>
<text text-anchor="middle" x="271" y="-192" font-family="Helvetica,sans-Serif" font-size="10.00">amr&#45;wind/core/SimTime.H</text>
</a>
</g>
</g>
<!-- Node11&#45;&gt;Node12 -->
<g id="edge12" class="edge">
<title>Node11&#45;&gt;Node12</title>
<path fill="none" stroke="midnightblue" d="M818.89,-249.29C710.7,-238.67 478.06,-215.83 353.58,-203.61"/>
<polygon fill="midnightblue" stroke="midnightblue" points="353.64,-200.1 343.34,-202.6 352.95,-207.06 353.64,-200.1"/>
</g>
<!-- Node16 -->
<g id="node16" class="node">
<title>Node16</title>
<g id="a_node16"><a xlink:href="_field_repo_8_h.html" target="_top" xlink:title=" ">
<polygon fill="white" stroke="black" points="802.5,-185 802.5,-204 951.5,-204 951.5,-185 802.5,-185"/>
<text text-anchor="middle" x="877" y="-192" font-family="Helvetica,sans-Serif" font-size="10.00">amr&#45;wind/core/FieldRepo.H</text>
</a>
</g>
</g>
<!-- Node11&#45;&gt;Node16 -->
<g id="edge16" class="edge">
<title>Node11&#45;&gt;Node16</title>
<path fill="none" stroke="midnightblue" d="M877,-246.48C877,-238.08 877,-224.98 877,-214.16"/>
<polygon fill="midnightblue" stroke="midnightblue" points="880.5,-214.01 877,-204.01 873.5,-214.01 880.5,-214.01"/>
</g>
<!-- Node34 -->
<g id="node34" class="node">
<title>Node34</title>
<g id="a_node34"><a xlink:href="_p_d_e_base_8_h.html" target="_top" xlink:title=" ">
<polygon fill="white" stroke="black" points="1507.5,-179.5 1507.5,-209.5 1662.5,-209.5 1662.5,-179.5 1507.5,-179.5"/>
<text text-anchor="start" x="1515.5" y="-197.5" font-family="Helvetica,sans-Serif" font-size="10.00">amr&#45;wind/equation_systems</text>
<text text-anchor="middle" x="1585" y="-186.5" font-family="Helvetica,sans-Serif" font-size="10.00">/PDEBase.H</text>
</a>
</g>
</g>
<!-- Node11&#45;&gt;Node34 -->
<g id="edge54" class="edge">
<title>Node11&#45;&gt;Node34</title>
<path fill="none" stroke="midnightblue" d="M935.21,-247.09C938.52,-246.7 941.8,-246.34 945,-246 1141.75,-225.23 1373.36,-208.98 1496.89,-200.97"/>
<polygon fill="midnightblue" stroke="midnightblue" points="1497.29,-204.45 1507.05,-200.32 1496.84,-197.47 1497.29,-204.45"/>
</g>
<!-- Node38 -->
<g id="node38" class="node">
<title>Node38</title>
<g id="a_node38"><a xlink:href="_physics_8_h.html" target="_top" xlink:title=" ">
<polygon fill="white" stroke="black" points="2454.5,-185 2454.5,-204 2591.5,-204 2591.5,-185 2454.5,-185"/>
<text text-anchor="middle" x="2523" y="-192" font-family="Helvetica,sans-Serif" font-size="10.00">amr&#45;wind/core/Physics.H</text>
</a>
</g>
</g>
<!-- Node11&#45;&gt;Node38 -->
<g id="edge66" class="edge">
<title>Node11&#45;&gt;Node38</title>
<path fill="none" stroke="midnightblue" d="M935.2,-246.88C938.51,-246.55 941.79,-246.25 945,-246 1609.84,-194.18 1781.74,-279.16 2445,-210 2454.36,-209.02 2464.27,-207.54 2473.78,-205.88"/>
<polygon fill="midnightblue" stroke="midnightblue" points="2474.69,-209.27 2483.9,-204.03 2473.43,-202.39 2474.69,-209.27"/>
</g>
<!-- Node40 -->
<g id="node40" class="node">
<title>Node40</title>
<g id="a_node40"><a xlink:href="_mesh_map_8_h.html" target="_top" xlink:title=" ">
<polygon fill="white" stroke="black" points="2288,-185 2288,-204 2436,-204 2436,-185 2288,-185"/>
<text text-anchor="middle" x="2362" y="-192" font-family="Helvetica,sans-Serif" font-size="10.00">amr&#45;wind/core/MeshMap.H</text>
</a>
</g>
</g>
<!-- Node11&#45;&gt;Node40 -->
<g id="edge71" class="edge">
<title>Node11&#45;&gt;Node40</title>
<path fill="none" stroke="midnightblue" d="M935.2,-246.92C938.51,-246.58 941.8,-246.27 945,-246 1206.28,-224.1 2013.94,-203.68 2277.71,-197.44"/>
<polygon fill="midnightblue" stroke="midnightblue" points="2278.08,-200.93 2287.99,-197.2 2277.91,-193.93 2278.08,-200.93"/>
</g>
<!-- Node13 -->
<g id="node13" class="node">
<title>Node13</title>
<g id="a_node13"><a xlink:title=" ">
<polygon fill="white" stroke="#bfbfbf" points="286,-118 286,-137 378,-137 378,-118 286,-118"/>
<text text-anchor="middle" x="332" y="-125" font-family="Helvetica,sans-Serif" font-size="10.00">AMReX_REAL.H</text>
</a>
</g>
</g>
<!-- Node12&#45;&gt;Node13 -->
<g id="edge13" class="edge">
<title>Node12&#45;&gt;Node13</title>
<path fill="none" stroke="midnightblue" d="M279.23,-184.73C288.83,-174.5 304.91,-157.36 316.8,-144.69"/>
<polygon fill="midnightblue" stroke="midnightblue" points="319.61,-146.81 323.9,-137.13 314.51,-142.02 319.61,-146.81"/>
</g>
<!-- Node14 -->
<g id="node14" class="node">
<title>Node14</title>
<g id="a_node14"><a xlink:title=" ">
<polygon fill="white" stroke="#bfbfbf" points="0,-118 0,-137 134,-137 134,-118 0,-118"/>
<text text-anchor="middle" x="67" y="-125" font-family="Helvetica,sans-Serif" font-size="10.00">AMReX_GpuQualifiers.H</text>
</a>
</g>
</g>
<!-- Node12&#45;&gt;Node14 -->
<g id="edge14" class="edge">
<title>Node12&#45;&gt;Node14</title>
<path fill="none" stroke="midnightblue" d="M243.91,-184.87C207.84,-173.38 143.92,-153.01 103.59,-140.16"/>
<polygon fill="midnightblue" stroke="midnightblue" points="104.47,-136.76 93.88,-137.06 102.34,-143.43 104.47,-136.76"/>
</g>
<!-- Node15 -->
<g id="node15" class="node">
<title>Node15</title>
<g id="a_node15"><a xlink:title=" ">
<polygon fill="white" stroke="#bfbfbf" points="152,-118 152,-137 268,-137 268,-118 152,-118"/>
<text text-anchor="middle" x="210" y="-125" font-family="Helvetica,sans-Serif" font-size="10.00">AMReX_Extension.H</text>
</a>
</g>
</g>
<!-- Node12&#45;&gt;Node15 -->
<g id="edge15" class="edge">
<title>Node12&#45;&gt;Node15</title>
<path fill="none" stroke="midnightblue" d="M262.77,-184.73C253.17,-174.5 237.09,-157.36 225.2,-144.69"/>
<polygon fill="midnightblue" stroke="midnightblue" points="227.49,-142.02 218.1,-137.13 222.39,-146.81 227.49,-142.02"/>
</g>
<!-- Node16&#45;&gt;Node3 -->
<g id="edge51" class="edge">
<title>Node16&#45;&gt;Node3</title>
<path fill="none" stroke="midnightblue" d="M836.94,-184.94C781.92,-173.17 682.99,-152.02 623.13,-139.22"/>
<polygon fill="midnightblue" stroke="midnightblue" points="623.65,-135.75 613.14,-137.08 622.19,-142.6 623.65,-135.75"/>
</g>
<!-- Node16&#45;&gt;Node7 -->
<g id="edge18" class="edge">
<title>Node16&#45;&gt;Node7</title>
<path fill="none" stroke="midnightblue" d="M951.65,-191.55C1191.62,-185.12 1933.82,-163.76 2040,-143 2109.09,-129.49 2185.89,-97.62 2225.71,-79.74"/>
<polygon fill="midnightblue" stroke="midnightblue" points="2227.35,-82.84 2235,-75.51 2224.45,-76.47 2227.35,-82.84"/>
</g>
<!-- Node17 -->
<g id="node17" class="node">
<title>Node17</title>
<g id="a_node17"><a xlink:title=" ">
<polygon fill="white" stroke="#bfbfbf" points="1269,-0.5 1269,-19.5 1313,-19.5 1313,-0.5 1269,-0.5"/>
<text text-anchor="middle" x="1291" y="-7.5" font-family="Helvetica,sans-Serif" font-size="10.00">string</text>
</a>
</g>
</g>
<!-- Node16&#45;&gt;Node17 -->
<g id="edge17" class="edge">
<title>Node16&#45;&gt;Node17</title>
<path fill="none" stroke="midnightblue" d="M882.64,-184.68C901.29,-155.61 960.6,-64.19 974,-56 1021.37,-27.04 1187.81,-15.88 1258.67,-12.37"/>
<polygon fill="midnightblue" stroke="midnightblue" points="1258.97,-15.86 1268.8,-11.89 1258.64,-8.87 1258.97,-15.86"/>
</g>
<!-- Node18 -->
<g id="node18" class="node">
<title>Node18</title>
<g id="a_node18"><a xlink:href="_field_desc_types_8_h.html" target="_top" xlink:title=" ">
<polygon fill="white" stroke="black" points="762,-0.5 762,-19.5 938,-19.5 938,-0.5 762,-0.5"/>
<text text-anchor="middle" x="850" y="-7.5" font-family="Helvetica,sans-Serif" font-size="10.00">amr&#45;wind/core/FieldDescTypes.H</text>
</a>
</g>
</g>
<!-- Node16&#45;&gt;Node18 -->
<g id="edge19" class="edge">
<title>Node16&#45;&gt;Node18</title>
<path fill="none" stroke="midnightblue" d="M803.26,-184.93C762.17,-177.89 711.14,-165.3 670,-143 652.31,-133.41 654.61,-121.73 637,-112 581.52,-81.35 537.75,-126.16 499,-76 493.57,-68.97 493.13,-62.67 499,-56 515.56,-37.18 653.69,-24.07 751.64,-17.03"/>
<polygon fill="midnightblue" stroke="midnightblue" points="752.15,-20.5 761.88,-16.31 751.66,-13.52 752.15,-20.5"/>
</g>
<!-- Node19 -->
<g id="node19" class="node">
<title>Node19</title>
<g id="a_node19"><a xlink:href="_field_utils_8_h.html" target="_top" xlink:title=" ">
<polygon fill="white" stroke="black" points="508,-56.5 508,-75.5 654,-75.5 654,-56.5 508,-56.5"/>
<text text-anchor="middle" x="581" y="-63.5" font-family="Helvetica,sans-Serif" font-size="10.00">amr&#45;wind/core/FieldUtils.H</text>
</a>
</g>
</g>
<!-- Node16&#45;&gt;Node19 -->
<g id="edge20" class="edge">
<title>Node16&#45;&gt;Node19</title>
<path fill="none" stroke="midnightblue" d="M848.58,-184.94C818.84,-175.7 770.99,-159.98 731,-143 703.01,-131.11 697.13,-125.75 670,-112 648.89,-101.3 624.95,-89.2 607.22,-80.24"/>
<polygon fill="midnightblue" stroke="midnightblue" points="608.57,-77 598.07,-75.62 605.42,-83.25 608.57,-77"/>
</g>
<!-- Node20 -->
<g id="node20" class="node">
<title>Node20</title>
<g id="a_node20"><a xlink:title=" ">
<polygon fill="white" stroke="#bfbfbf" points="1488.5,-0.5 1488.5,-19.5 1597.5,-19.5 1597.5,-0.5 1488.5,-0.5"/>
<text text-anchor="middle" x="1543" y="-7.5" font-family="Helvetica,sans-Serif" font-size="10.00">AMReX_MultiFab.H</text>
</a>
</g>
</g>
<!-- Node16&#45;&gt;Node20 -->
<g id="edge52" class="edge">
<title>Node16&#45;&gt;Node20</title>
<path fill="none" stroke="midnightblue" d="M951.59,-188.37C1100.42,-176.78 1427.45,-144.11 1514,-76 1528.39,-64.67 1535.84,-44.67 1539.56,-29.84"/>
<polygon fill="midnightblue" stroke="midnightblue" points="1543.05,-30.25 1541.73,-19.73 1536.21,-28.78 1543.05,-30.25"/>
</g>
<!-- Node22 -->
<g id="node22" class="node">
<title>Node22</title>
<g id="a_node22"><a xlink:href="_field_8_h.html" target="_top" xlink:title=" ">
<polygon fill="white" stroke="black" points="1907,-118 1907,-137 2031,-137 2031,-118 1907,-118"/>
<text text-anchor="middle" x="1969" y="-125" font-family="Helvetica,sans-Serif" font-size="10.00">amr&#45;wind/core/Field.H</text>
</a>
</g>
</g>
<!-- Node16&#45;&gt;Node22 -->
<g id="edge24" class="edge">
<title>Node16&#45;&gt;Node22</title>
<path fill="none" stroke="midnightblue" d="M951.63,-189.06C1151.85,-177.14 1699.07,-144.57 1896.64,-132.81"/>
<polygon fill="midnightblue" stroke="midnightblue" points="1897.13,-136.28 1906.91,-132.2 1896.72,-129.3 1897.13,-136.28"/>
</g>
<!-- Node29 -->
<g id="node29" class="node">
<title>Node29</title>
<g id="a_node29"><a xlink:href="_int_field_8_h.html" target="_top" xlink:title=" ">
<polygon fill="white" stroke="black" points="760.5,-118 760.5,-137 897.5,-137 897.5,-118 760.5,-118"/>
<text text-anchor="middle" x="829" y="-125" font-family="Helvetica,sans-Serif" font-size="10.00">amr&#45;wind/core/IntField.H</text>
</a>
</g>
</g>
<!-- Node16&#45;&gt;Node29 -->
<g id="edge39" class="edge">
<title>Node16&#45;&gt;Node29</title>
<path fill="none" stroke="midnightblue" d="M870.53,-184.73C863.11,-174.7 850.8,-158.01 841.5,-145.42"/>
<polygon fill="midnightblue" stroke="midnightblue" points="844.13,-143.09 835.37,-137.13 838.5,-147.25 844.13,-143.09"/>
</g>
<!-- Node30 -->
<g id="node30" class="node">
<title>Node30</title>
<g id="a_node30"><a xlink:title=" ">
<polygon fill="white" stroke="#bfbfbf" points="672,-56.5 672,-75.5 784,-75.5 784,-56.5 672,-56.5"/>
<text text-anchor="middle" x="728" y="-63.5" font-family="Helvetica,sans-Serif" font-size="10.00">AMReX_iMultiFab.H</text>
</a>
</g>
</g>
<!-- Node16&#45;&gt;Node30 -->
<g id="edge53" class="edge">
<title>Node16&#45;&gt;Node30</title>
<path fill="none" stroke="midnightblue" d="M829.28,-184.93C802.88,-177.87 771.38,-165.24 751,-143 736.62,-127.31 731.22,-102.91 729.2,-86"/>
<polygon fill="midnightblue" stroke="midnightblue" points="732.65,-85.34 728.27,-75.7 725.68,-85.97 732.65,-85.34"/>
</g>
<!-- Node31 -->
<g id="node31" class="node">
<title>Node31</title>
<g id="a_node31"><a xlink:href="_scratch_field_8_h.html" target="_top" xlink:title=" ">
<polygon fill="white" stroke="black" points="973,-118 973,-137 1133,-137 1133,-118 973,-118"/>
<text text-anchor="middle" x="1053" y="-125" font-family="Helvetica,sans-Serif" font-size="10.00">amr&#45;wind/core/ScratchField.H</text>
</a>
</g>
</g>
<!-- Node16&#45;&gt;Node31 -->
<g id="edge43" class="edge">
<title>Node16&#45;&gt;Node31</title>
<path fill="none" stroke="midnightblue" d="M900.37,-184.87C931.09,-173.52 985.24,-153.52 1020.1,-140.65"/>
<polygon fill="midnightblue" stroke="midnightblue" points="1021.64,-143.81 1029.81,-137.06 1019.22,-137.24 1021.64,-143.81"/>
</g>
<!-- Node19&#45;&gt;Node18 -->
<g id="edge21" class="edge">
<title>Node19&#45;&gt;Node18</title>
<path fill="none" stroke="midnightblue" d="M623.62,-56.44C670.75,-46.98 746.69,-31.74 797.46,-21.55"/>
<polygon fill="midnightblue" stroke="midnightblue" points="798.46,-24.92 807.58,-19.52 797.08,-18.05 798.46,-24.92"/>
</g>
<!-- Node19&#45;&gt;Node20 -->
<g id="edge22" class="edge">
<title>Node19&#45;&gt;Node20</title>
<path fill="none" stroke="midnightblue" d="M654.3,-56.72C657.23,-56.46 660.14,-56.22 663,-56 1021.68,-28.43 1115.82,-52.86 1478.25,-19.97"/>
<polygon fill="midnightblue" stroke="midnightblue" points="1478.59,-23.45 1488.23,-19.05 1477.95,-16.48 1478.59,-23.45"/>
</g>
<!-- Node21 -->
<g id="node21" class="node">
<title>Node21</title>
<g id="a_node21"><a xlink:title=" ">
<polygon fill="white" stroke="#bfbfbf" points="519,-0.5 519,-19.5 643,-19.5 643,-0.5 519,-0.5"/>
<text text-anchor="middle" x="581" y="-7.5" font-family="Helvetica,sans-Serif" font-size="10.00">AMReX_Interpolater.H</text>
</a>
</g>
</g>
<!-- Node19&#45;&gt;Node21 -->
<g id="edge23" class="edge">
<title>Node19&#45;&gt;Node21</title>
<path fill="none" stroke="midnightblue" d="M581,-56.08C581,-49.01 581,-38.86 581,-29.99"/>
<polygon fill="midnightblue" stroke="midnightblue" points="584.5,-29.75 581,-19.75 577.5,-29.75 584.5,-29.75"/>
</g>
<!-- Node22&#45;&gt;Node6 -->
<g id="edge26" class="edge">
<title>Node22&#45;&gt;Node6</title>
<path fill="none" stroke="midnightblue" d="M2031.3,-121.86C2116.11,-115.02 2272.76,-100.5 2415.37,-76.1"/>
<polygon fill="midnightblue" stroke="midnightblue" points="2416.36,-79.48 2425.61,-74.33 2415.16,-72.59 2416.36,-79.48"/>
</g>
<!-- Node22&#45;&gt;Node7 -->
<g id="edge27" class="edge">
<title>Node22&#45;&gt;Node7</title>
<path fill="none" stroke="midnightblue" d="M2009.69,-117.98C2060.52,-107.33 2147.47,-89.11 2202.5,-77.58"/>
<polygon fill="midnightblue" stroke="midnightblue" points="2203.32,-80.99 2212.39,-75.51 2201.88,-74.13 2203.32,-80.99"/>
</g>
<!-- Node22&#45;&gt;Node17 -->
<g id="edge25" class="edge">
<title>Node22&#45;&gt;Node17</title>
<path fill="none" stroke="midnightblue" d="M1949.61,-117.98C1926.91,-107.98 1888.18,-90.89 1855,-76 1835.4,-67.21 1831.79,-61.39 1811,-56 1617.63,-5.92 1561.71,-40.39 1363,-20 1349.88,-18.65 1335.45,-16.9 1322.98,-15.3"/>
<polygon fill="midnightblue" stroke="midnightblue" points="1323.4,-11.83 1313.03,-14.01 1322.49,-18.77 1323.4,-11.83"/>
</g>
<!-- Node22&#45;&gt;Node18 -->
<g id="edge33" class="edge">
<title>Node22&#45;&gt;Node18</title>
<path fill="none" stroke="midnightblue" d="M1934.23,-117.92C1901.62,-109.29 1851.89,-94.61 1811,-76 1795.39,-68.9 1794.4,-61.01 1778,-56 1700.38,-32.27 1171.13,-18.04 948.43,-13.04"/>
<polygon fill="midnightblue" stroke="midnightblue" points="948.46,-9.54 938.38,-12.81 948.3,-16.53 948.46,-9.54"/>
</g>
<!-- Node22&#45;&gt;Node20 -->
<g id="edge29" class="edge">
<title>Node22&#45;&gt;Node20</title>
<path fill="none" stroke="midnightblue" d="M2004.32,-117.97C2045.02,-106.56 2103.14,-84.44 2077,-56 2045.82,-22.08 1743.16,-13.71 1607.83,-11.66"/>
<polygon fill="midnightblue" stroke="midnightblue" points="1607.65,-8.16 1597.6,-11.51 1607.55,-15.16 1607.65,-8.16"/>
</g>
<!-- Node23 -->
<g id="node23" class="node">
<title>Node23</title>
<g id="a_node23"><a xlink:title=" ">
<polygon fill="white" stroke="#bfbfbf" points="2124,-56.5 2124,-75.5 2188,-75.5 2188,-56.5 2124,-56.5"/>
<text text-anchor="middle" x="2156" y="-63.5" font-family="Helvetica,sans-Serif" font-size="10.00">algorithm</text>
</a>
</g>
</g>
<!-- Node22&#45;&gt;Node23 -->
<g id="edge28" class="edge">
<title>Node22&#45;&gt;Node23</title>
<path fill="none" stroke="midnightblue" d="M1995.79,-117.98C2028.29,-107.64 2083.21,-90.16 2119.54,-78.6"/>
<polygon fill="midnightblue" stroke="midnightblue" points="2120.79,-81.88 2129.26,-75.51 2118.67,-75.21 2120.79,-81.88"/>
</g>
<!-- Node24 -->
<g id="node24" class="node">
<title>Node24</title>
<g id="a_node24"><a xlink:title=" ">
<polygon fill="white" stroke="#bfbfbf" points="1863.5,-56.5 1863.5,-75.5 1962.5,-75.5 1962.5,-56.5 1863.5,-56.5"/>
<text text-anchor="middle" x="1913" y="-63.5" font-family="Helvetica,sans-Serif" font-size="10.00">AMReX_BCRec.H</text>
</a>
</g>
</g>
<!-- Node22&#45;&gt;Node24 -->
<g id="edge30" class="edge">
<title>Node22&#45;&gt;Node24</title>
<path fill="none" stroke="midnightblue" d="M1960.98,-117.98C1952.41,-108.87 1938.64,-94.24 1928.04,-82.98"/>
<polygon fill="midnightblue" stroke="midnightblue" points="1930.41,-80.39 1921.01,-75.51 1925.31,-85.19 1930.41,-80.39"/>
</g>
<!-- Node25 -->
<g id="node25" class="node">
<title>Node25</title>
<g id="a_node25"><a xlink:title=" ">
<polygon fill="white" stroke="#bfbfbf" points="1980.5,-56.5 1980.5,-75.5 2067.5,-75.5 2067.5,-56.5 1980.5,-56.5"/>
<text text-anchor="middle" x="2024" y="-63.5" font-family="Helvetica,sans-Serif" font-size="10.00">AMReX_Gpu.H</text>
</a>
</g>
</g>
<!-- Node22&#45;&gt;Node25 -->
<g id="edge31" class="edge">
<title>Node22&#45;&gt;Node25</title>
<path fill="none" stroke="midnightblue" d="M1976.88,-117.98C1985.29,-108.87 1998.82,-94.24 2009.23,-82.98"/>
<polygon fill="midnightblue" stroke="midnightblue" points="2011.92,-85.23 2016.13,-75.51 2006.78,-80.48 2011.92,-85.23"/>
</g>
<!-- Node26 -->
<g id="node26" class="node">
<title>Node26</title>
<g id="a_node26"><a xlink:href="incflo__enums_8_h.html" target="_top" xlink:title=" ">
<polygon fill="white" stroke="black" points="1627.5,-56.5 1627.5,-75.5 1768.5,-75.5 1768.5,-56.5 1627.5,-56.5"/>
<text text-anchor="middle" x="1698" y="-63.5" font-family="Helvetica,sans-Serif" font-size="10.00">amr&#45;wind/incflo_enums.H</text>
</a>
</g>
</g>
<!-- Node22&#45;&gt;Node26 -->
<g id="edge32" class="edge">
<title>Node22&#45;&gt;Node26</title>
<path fill="none" stroke="midnightblue" d="M1930.17,-117.98C1881.88,-107.37 1799.39,-89.26 1746.85,-77.72"/>
<polygon fill="midnightblue" stroke="midnightblue" points="1747.27,-74.24 1736.76,-75.51 1745.77,-81.07 1747.27,-74.24"/>
</g>
<!-- Node27 -->
<g id="node27" class="node">
<title>Node27</title>
<g id="a_node27"><a xlink:href="_view_field_8_h.html" target="_top" xlink:title=" ">
<polygon fill="white" stroke="black" points="1357,-56.5 1357,-75.5 1505,-75.5 1505,-56.5 1357,-56.5"/>
<text text-anchor="middle" x="1431" y="-63.5" font-family="Helvetica,sans-Serif" font-size="10.00">amr&#45;wind/core/ViewField.H</text>
</a>
</g>
</g>
<!-- Node22&#45;&gt;Node27 -->
<g id="edge34" class="edge">
<title>Node22&#45;&gt;Node27</title>
<path fill="none" stroke="midnightblue" d="M1906.76,-119.62C1810.16,-108.93 1623.99,-88.34 1515.39,-76.33"/>
<polygon fill="midnightblue" stroke="midnightblue" points="1515.45,-72.82 1505.12,-75.2 1514.68,-79.78 1515.45,-72.82"/>
</g>
<!-- Node27&#45;&gt;Node17 -->
<g id="edge35" class="edge">
<title>Node27&#45;&gt;Node17</title>
<path fill="none" stroke="midnightblue" d="M1408.82,-56.44C1385.57,-47.48 1348.85,-33.31 1322.58,-23.18"/>
<polygon fill="midnightblue" stroke="midnightblue" points="1323.67,-19.85 1313.08,-19.52 1321.15,-26.38 1323.67,-19.85"/>
</g>
<!-- Node27&#45;&gt;Node18 -->
<g id="edge36" class="edge">
<title>Node27&#45;&gt;Node18</title>
<path fill="none" stroke="midnightblue" d="M1356.83,-58.11C1253.04,-48.46 1064.27,-30.91 948.7,-20.17"/>
<polygon fill="midnightblue" stroke="midnightblue" points="948.72,-16.66 938.44,-19.22 948.08,-23.63 948.72,-16.66"/>
</g>
<!-- Node27&#45;&gt;Node20 -->
<g id="edge37" class="edge">
<title>Node27&#45;&gt;Node20</title>
<path fill="none" stroke="midnightblue" d="M1448.99,-56.32C1467.04,-47.62 1495.05,-34.12 1515.8,-24.11"/>
<polygon fill="midnightblue" stroke="midnightblue" points="1517.56,-27.15 1525.05,-19.65 1514.52,-20.84 1517.56,-27.15"/>
</g>
<!-- Node28 -->
<g id="node28" class="node">
<title>Node28</title>
<g id="a_node28"><a xlink:title=" ">
<polygon fill="white" stroke="#bfbfbf" points="1372,-0.5 1372,-19.5 1470,-19.5 1470,-0.5 1372,-0.5"/>
<text text-anchor="middle" x="1421" y="-7.5" font-family="Helvetica,sans-Serif" font-size="10.00">AMReX_Vector.H</text>
</a>
</g>
</g>
<!-- Node27&#45;&gt;Node28 -->
<g id="edge38" class="edge">
<title>Node27&#45;&gt;Node28</title>
<path fill="none" stroke="midnightblue" d="M1429.35,-56.08C1428.02,-48.93 1426.12,-38.64 1424.46,-29.69"/>
<polygon fill="midnightblue" stroke="midnightblue" points="1427.88,-28.95 1422.62,-19.75 1421,-30.22 1427.88,-28.95"/>
</g>
<!-- Node29&#45;&gt;Node17 -->
<g id="edge40" class="edge">
<title>Node29&#45;&gt;Node17</title>
<path fill="none" stroke="midnightblue" d="M836.14,-117.72C849.3,-102.24 879.07,-70.36 912,-56 974.07,-28.94 1178.61,-16.4 1258.56,-12.45"/>
<polygon fill="midnightblue" stroke="midnightblue" points="1259.17,-15.92 1268.99,-11.95 1258.83,-8.93 1259.17,-15.92"/>
</g>
<!-- Node29&#45;&gt;Node18 -->
<g id="edge41" class="edge">
<title>Node29&#45;&gt;Node18</title>
<path fill="none" stroke="midnightblue" d="M829.3,-117.73C829.89,-104.32 831.55,-77.94 836,-56 837.81,-47.08 840.69,-37.41 843.37,-29.34"/>
<polygon fill="midnightblue" stroke="midnightblue" points="846.7,-30.42 846.67,-19.83 840.09,-28.13 846.7,-30.42"/>
</g>
<!-- Node29&#45;&gt;Node30 -->
<g id="edge42" class="edge">
<title>Node29&#45;&gt;Node30</title>
<path fill="none" stroke="midnightblue" d="M814.53,-117.98C798.03,-108.25 770.82,-92.23 751.32,-80.74"/>
<polygon fill="midnightblue" stroke="midnightblue" points="752.84,-77.57 742.44,-75.51 749.28,-83.6 752.84,-77.57"/>
</g>
<!-- Node31&#45;&gt;Node17 -->
<g id="edge44" class="edge">
<title>Node31&#45;&gt;Node17</title>
<path fill="none" stroke="midnightblue" d="M1033.48,-117.93C1006.62,-104.99 963.73,-79.45 984,-56 1019.26,-15.2 1187.16,-10.69 1258.65,-10.67"/>
<polygon fill="midnightblue" stroke="midnightblue" points="1258.86,-14.17 1268.87,-10.69 1258.88,-7.17 1258.86,-14.17"/>
</g>
<!-- Node31&#45;&gt;Node18 -->
<g id="edge46" class="edge">
<title>Node31&#45;&gt;Node18</title>
<path fill="none" stroke="midnightblue" d="M1033.66,-117.87C1012.69,-108.31 978.41,-92.12 950,-76 921.73,-59.96 890.54,-39.15 870.63,-25.46"/>
<polygon fill="midnightblue" stroke="midnightblue" points="872.54,-22.52 862.33,-19.71 868.55,-28.28 872.54,-22.52"/>
</g>
<!-- Node31&#45;&gt;Node20 -->
<g id="edge48" class="edge">
<title>Node31&#45;&gt;Node20</title>
<path fill="none" stroke="midnightblue" d="M1088.4,-117.95C1143.75,-104.59 1254.19,-78.03 1348,-56 1398.41,-44.16 1456.21,-30.86 1495.71,-21.8"/>
<polygon fill="midnightblue" stroke="midnightblue" points="1496.63,-25.18 1505.6,-19.54 1495.07,-18.36 1496.63,-25.18"/>
</g>
<!-- Node31&#45;&gt;Node27 -->
<g id="edge47" class="edge">
<title>Node31&#45;&gt;Node27</title>
<path fill="none" stroke="midnightblue" d="M1107.16,-117.98C1175.79,-107.17 1293.91,-88.58 1366.95,-77.08"/>
<polygon fill="midnightblue" stroke="midnightblue" points="1367.61,-80.52 1376.94,-75.51 1366.52,-73.61 1367.61,-80.52"/>
</g>
<!-- Node31&#45;&gt;Node28 -->
<g id="edge49" class="edge">
<title>Node31&#45;&gt;Node28</title>
<path fill="none" stroke="midnightblue" d="M1080.36,-117.91C1145.43,-97.49 1309.49,-46 1383.62,-22.73"/>
<polygon fill="midnightblue" stroke="midnightblue" points="1384.97,-25.98 1393.46,-19.64 1382.87,-19.3 1384.97,-25.98"/>
</g>
<!-- Node32 -->
<g id="node32" class="node">
<title>Node32</title>
<g id="a_node32"><a xlink:title=" ">
<polygon fill="white" stroke="#bfbfbf" points="992.5,-56.5 992.5,-75.5 1037.5,-75.5 1037.5,-56.5 992.5,-56.5"/>
<text text-anchor="middle" x="1015" y="-63.5" font-family="Helvetica,sans-Serif" font-size="10.00">utility</text>
</a>
</g>
</g>
<!-- Node31&#45;&gt;Node32 -->
<g id="edge45" class="edge">
<title>Node31&#45;&gt;Node32</title>
<path fill="none" stroke="midnightblue" d="M1047.56,-117.98C1041.91,-109.14 1032.94,-95.09 1025.84,-83.98"/>
<polygon fill="midnightblue" stroke="midnightblue" points="1028.77,-82.05 1020.43,-75.51 1022.87,-85.82 1028.77,-82.05"/>
</g>
<!-- Node33 -->
<g id="node33" class="node">
<title>Node33</title>
<g id="a_node33"><a xlink:title=" ">
<polygon fill="white" stroke="#bfbfbf" points="1055.5,-56.5 1055.5,-75.5 1186.5,-75.5 1186.5,-56.5 1055.5,-56.5"/>
<text text-anchor="middle" x="1121" y="-63.5" font-family="Helvetica,sans-Serif" font-size="10.00">AMReX_PhysBCFunct.H</text>
</a>
</g>
</g>
<!-- Node31&#45;&gt;Node33 -->
<g id="edge50" class="edge">
<title>Node31&#45;&gt;Node33</title>
<path fill="none" stroke="midnightblue" d="M1062.74,-117.98C1073.35,-108.7 1090.52,-93.67 1103.48,-82.33"/>
<polygon fill="midnightblue" stroke="midnightblue" points="1106.05,-84.73 1111.28,-75.51 1101.44,-79.46 1106.05,-84.73"/>
</g>
<!-- Node34&#45;&gt;Node5 -->
<g id="edge56" class="edge">
<title>Node34&#45;&gt;Node5</title>
<path fill="none" stroke="midnightblue" d="M1662.91,-187.23C1779.35,-177.83 2005.69,-159.42 2198,-143 2226.28,-140.58 2257.3,-137.86 2284.68,-135.43"/>
<polygon fill="midnightblue" stroke="midnightblue" points="2285.33,-138.89 2294.98,-134.52 2284.71,-131.92 2285.33,-138.89"/>
</g>
<!-- Node34&#45;&gt;Node17 -->
<g id="edge55" class="edge">
<title>Node34&#45;&gt;Node17</title>
<path fill="none" stroke="midnightblue" d="M1545.42,-179.4C1496.08,-160.64 1410.62,-124.15 1348,-76 1330.04,-62.19 1313.45,-42.07 1302.85,-27.88"/>
<polygon fill="midnightblue" stroke="midnightblue" points="1305.5,-25.58 1296.8,-19.54 1299.83,-29.69 1305.5,-25.58"/>
</g>
<!-- Node34&#45;&gt;Node18 -->
<g id="edge64" class="edge">
<title>Node34&#45;&gt;Node18</title>
<path fill="none" stroke="midnightblue" d="M1524.88,-179.45C1488.13,-170.3 1440.4,-157.41 1399,-143 1306.3,-110.73 1290.68,-81.91 1196,-56 1114.14,-33.6 1018.24,-22.24 948.19,-16.54"/>
<polygon fill="midnightblue" stroke="midnightblue" points="948.3,-13.04 938.05,-15.74 947.75,-20.02 948.3,-13.04"/>
</g>
<!-- Node34&#45;&gt;Node26 -->
<g id="edge65" class="edge">
<title>Node34&#45;&gt;Node26</title>
<path fill="none" stroke="midnightblue" d="M1621.75,-179.39C1639.09,-171.11 1658.82,-159.06 1672,-143 1685.51,-126.53 1692.16,-102.66 1695.32,-86.08"/>
<polygon fill="midnightblue" stroke="midnightblue" points="1698.82,-86.39 1696.99,-75.95 1691.91,-85.24 1698.82,-86.39"/>
</g>
<!-- Node35 -->
<g id="node35" class="node">
<title>Node35</title>
<g id="a_node35"><a xlink:href="_coll_mgr_8_h.html" target="_top" xlink:title=" ">
<polygon fill="white" stroke="black" points="2447.5,-118 2447.5,-137 2584.5,-137 2584.5,-118 2447.5,-118"/>
<text text-anchor="middle" x="2516" y="-125" font-family="Helvetica,sans-Serif" font-size="10.00">amr&#45;wind/core/CollMgr.H</text>
</a>
</g>
</g>
<!-- Node34&#45;&gt;Node35 -->
<g id="edge57" class="edge">
<title>Node34&#45;&gt;Node35</title>
<path fill="none" stroke="midnightblue" d="M1662.62,-192.14C1812.85,-188.79 2153.61,-177.71 2438,-143 2446.84,-141.92 2456.19,-140.46 2465.23,-138.88"/>
<polygon fill="midnightblue" stroke="midnightblue" points="2466.05,-142.29 2475.26,-137.06 2464.8,-135.41 2466.05,-142.29"/>
</g>
<!-- Node36 -->
<g id="node36" class="node">
<title>Node36</title>
<g id="a_node36"><a xlink:href="_p_d_e_fields_8_h.html" target="_top" xlink:title=" ">
<polygon fill="white" stroke="black" points="1507.5,-112.5 1507.5,-142.5 1662.5,-142.5 1662.5,-112.5 1507.5,-112.5"/>
<text text-anchor="start" x="1515.5" y="-130.5" font-family="Helvetica,sans-Serif" font-size="10.00">amr&#45;wind/equation_systems</text>
<text text-anchor="middle" x="1585" y="-119.5" font-family="Helvetica,sans-Serif" font-size="10.00">/PDEFields.H</text>
</a>
</g>
</g>
<!-- Node34&#45;&gt;Node36 -->
<g id="edge62" class="edge">
<title>Node34&#45;&gt;Node36</title>
<path fill="none" stroke="midnightblue" d="M1585,-179.4C1585,-171.64 1585,-161.81 1585,-152.86"/>
<polygon fill="midnightblue" stroke="midnightblue" points="1588.5,-152.58 1585,-142.58 1581.5,-152.58 1588.5,-152.58"/>
</g>
<!-- Node35&#45;&gt;Node6 -->
<g id="edge59" class="edge">
<title>Node35&#45;&gt;Node6</title>
<path fill="none" stroke="midnightblue" d="M2507.26,-117.98C2497.84,-108.78 2482.64,-93.96 2471.05,-82.66"/>
<polygon fill="midnightblue" stroke="midnightblue" points="2473.33,-79.99 2463.72,-75.51 2468.44,-85 2473.33,-79.99"/>
</g>
<!-- Node35&#45;&gt;Node7 -->
<g id="edge60" class="edge">
<title>Node35&#45;&gt;Node7</title>
<path fill="none" stroke="midnightblue" d="M2478.32,-117.98C2431.45,-107.37 2351.39,-89.26 2300.4,-77.72"/>
<polygon fill="midnightblue" stroke="midnightblue" points="2301.14,-74.3 2290.61,-75.51 2299.59,-81.13 2301.14,-74.3"/>
</g>
<!-- Node35&#45;&gt;Node17 -->
<g id="edge58" class="edge">
<title>Node35&#45;&gt;Node17</title>
<path fill="none" stroke="midnightblue" d="M2566.58,-117.96C2616.54,-107.52 2681.42,-87.28 2651,-56 2601.09,-4.68 1434.38,-25.45 1363,-20 1349.85,-19 1335.42,-17.31 1322.94,-15.66"/>
<polygon fill="midnightblue" stroke="midnightblue" points="1323.38,-12.19 1313,-14.31 1322.44,-19.13 1323.38,-12.19"/>
</g>
<!-- Node35&#45;&gt;Node28 -->
<g id="edge61" class="edge">
<title>Node35&#45;&gt;Node28</title>
<path fill="none" stroke="midnightblue" d="M2567.24,-117.97C2611.3,-109.46 2669.92,-94.94 2684,-76 2689.3,-68.87 2690.19,-62.38 2684,-56 2638.85,-9.48 1613.8,-24.99 1480.28,-19.56"/>
<polygon fill="midnightblue" stroke="midnightblue" points="1480.39,-16.06 1470.2,-18.96 1479.98,-23.05 1480.39,-16.06"/>
</g>
<!-- Node37 -->
<g id="node37" class="node">
<title>Node37</title>
<g id="a_node37"><a xlink:title=" ">
<polygon fill="white" stroke="#bfbfbf" points="1561,-56.5 1561,-75.5 1609,-75.5 1609,-56.5 1561,-56.5"/>
<text text-anchor="middle" x="1585" y="-63.5" font-family="Helvetica,sans-Serif" font-size="10.00">iosfwd</text>
</a>
</g>
</g>
<!-- Node36&#45;&gt;Node37 -->
<g id="edge63" class="edge">
<title>Node36&#45;&gt;Node37</title>
<path fill="none" stroke="midnightblue" d="M1585,-112.4C1585,-104.47 1585,-94.46 1585,-85.86"/>
<polygon fill="midnightblue" stroke="midnightblue" points="1588.5,-85.66 1585,-75.66 1581.5,-85.66 1588.5,-85.66"/>
</g>
<!-- Node38&#45;&gt;Node5 -->
<g id="edge67" class="edge">
<title>Node38&#45;&gt;Node5</title>
<path fill="none" stroke="midnightblue" d="M2501.62,-184.87C2473.64,-173.57 2424.41,-153.7 2392.51,-140.82"/>
<polygon fill="midnightblue" stroke="midnightblue" points="2393.79,-137.56 2383.21,-137.06 2391.17,-144.05 2393.79,-137.56"/>
</g>
<!-- Node38&#45;&gt;Node20 -->
<g id="edge69" class="edge">
<title>Node38&#45;&gt;Node20</title>
<path fill="none" stroke="midnightblue" d="M2591.61,-188.72C2655.6,-182.66 2744.35,-169.61 2766,-143 2797.51,-104.27 2718.23,-56.59 2717,-56 2616.94,-8.26 1840.11,-9.15 1608.17,-10.51"/>
<polygon fill="midnightblue" stroke="midnightblue" points="1607.85,-7.01 1597.87,-10.57 1607.89,-14.01 1607.85,-7.01"/>
</g>
<!-- Node38&#45;&gt;Node35 -->
<g id="edge68" class="edge">
<title>Node38&#45;&gt;Node35</title>
<path fill="none" stroke="midnightblue" d="M2522.06,-184.73C2521.03,-175.18 2519.35,-159.62 2518.02,-147.28"/>
<polygon fill="midnightblue" stroke="midnightblue" points="2521.48,-146.7 2516.93,-137.13 2514.52,-147.44 2521.48,-146.7"/>
</g>
<!-- Node39 -->
<g id="node39" class="node">
<title>Node39</title>
<g id="a_node39"><a xlink:title=" ">
<polygon fill="white" stroke="#bfbfbf" points="2641.5,-118 2641.5,-137 2756.5,-137 2756.5,-118 2641.5,-118"/>
<text text-anchor="middle" x="2699" y="-125" font-family="Helvetica,sans-Serif" font-size="10.00">AMReX_Geometry.H</text>
</a>
</g>
</g>
<!-- Node38&#45;&gt;Node39 -->
<g id="edge70" class="edge">
<title>Node38&#45;&gt;Node39</title>
<path fill="none" stroke="midnightblue" d="M2546.37,-184.87C2577.09,-173.52 2631.24,-153.52 2666.1,-140.65"/>
<polygon fill="midnightblue" stroke="midnightblue" points="2667.64,-143.81 2675.81,-137.06 2665.22,-137.24 2667.64,-143.81"/>
</g>
<!-- Node40&#45;&gt;Node5 -->
<g id="edge73" class="edge">
<title>Node40&#45;&gt;Node5</title>
<path fill="none" stroke="midnightblue" d="M2362,-184.73C2362,-175.18 2362,-159.62 2362,-147.28"/>
<polygon fill="midnightblue" stroke="midnightblue" points="2365.5,-147.13 2362,-137.13 2358.5,-147.13 2365.5,-147.13"/>
</g>
<!-- Node40&#45;&gt;Node20 -->
<g id="edge75" class="edge">
<title>Node40&#45;&gt;Node20</title>
<path fill="none" stroke="midnightblue" d="M2406.25,-184.99C2468.75,-172.81 2577.19,-150.97 2594,-143 2614.01,-133.51 2614.51,-124.18 2633,-112 2665.41,-90.66 2726.9,-83.97 2700,-56 2661.94,-16.43 1845.97,-11.63 1607.75,-11.07"/>
<polygon fill="midnightblue" stroke="midnightblue" points="1607.52,-7.57 1597.51,-11.04 1607.51,-14.57 1607.52,-7.57"/>
</g>
<!-- Node40&#45;&gt;Node22 -->
<g id="edge74" class="edge">
<title>Node40&#45;&gt;Node22</title>
<path fill="none" stroke="midnightblue" d="M2310.22,-184.94C2238.11,-173.01 2107.65,-151.43 2030.63,-138.69"/>
<polygon fill="midnightblue" stroke="midnightblue" points="2031.02,-135.21 2020.58,-137.03 2029.88,-142.12 2031.02,-135.21"/>
</g>
<!-- Node40&#45;&gt;Node35 -->
<g id="edge72" class="edge">
<title>Node40&#45;&gt;Node35</title>
<path fill="none" stroke="midnightblue" d="M2382.45,-184.87C2409.03,-173.65 2455.64,-153.98 2486.17,-141.09"/>
<polygon fill="midnightblue" stroke="midnightblue" points="2487.61,-144.28 2495.47,-137.17 2484.89,-137.83 2487.61,-144.28"/>
</g>
<!-- Node40&#45;&gt;Node39 -->
<g id="edge76" class="edge">
<title>Node40&#45;&gt;Node39</title>
<path fill="none" stroke="midnightblue" d="M2407.51,-184.98C2460.33,-175.05 2550.02,-158.09 2627,-143 2633.56,-141.71 2640.45,-140.35 2647.26,-138.99"/>
<polygon fill="midnightblue" stroke="midnightblue" points="2648.02,-142.41 2657.13,-137.01 2646.64,-135.54 2648.02,-142.41"/>
</g>
</g>
</svg>
        <g id="navigator" transform="translate(0 0)" fill="#404254">
                <rect fill="#f2f5e9" fill-opacity="0.5" stroke="#606060" stroke-width=".5" x="0" y="0" width="60" height="60"/>
                <use id="zoomplus" xlink:href="#zoomPlus" x="17" y="9" onmousedown="handleZoom(evt,'in')"/>
                <use id="zoomminus" xlink:href="#zoomMin" x="42" y="9" onmousedown="handleZoom(evt,'out')"/>
                <use id="reset" xlink:href="#resetDef" x="30" y="36" onmousedown="handleReset()"/>
                <g id="arrowUp" xlink:href="#dirArrow" transform="translate(30 24)" onmousedown="handlePan(0,-1)">
                  <use xlink:href="#rim" fill="#404040">
                        <set attributeName="fill" to="#808080" begin="arrowUp.mouseover" end="arrowUp.mouseout"/>
                  </use>
                  <path fill="none" stroke="white" stroke-width="1.5" d="M0,-3.0v7 M-2.5,-0.5L0,-3.0L2.5,-0.5"/>
                </g>
                <g id="arrowRight" xlink:href="#dirArrow" transform="rotate(90) translate(36 -43)" onmousedown="handlePan(1,0)">
                  <use xlink:href="#rim" fill="#404040">
                        <set attributeName="fill" to="#808080" begin="arrowRight.mouseover" end="arrowRight.mouseout"/>
                  </use>
                  <path fill="none" stroke="white" stroke-width="1.5" d="M0,-3.0v7 M-2.5,-0.5L0,-3.0L2.5,-0.5"/>
                </g>
                <g id="arrowDown" xlink:href="#dirArrow" transform="rotate(180) translate(-30 -48)" onmousedown="handlePan(0,1)">
                  <use xlink:href="#rim" fill="#404040">
                        <set attributeName="fill" to="#808080" begin="arrowDown.mouseover" end="arrowDown.mouseout"/>
                  </use>
                  <path fill="none" stroke="white" stroke-width="1.5" d="M0,-3.0v7 M-2.5,-0.5L0,-3.0L2.5,-0.5"/>
                </g>
                <g id="arrowLeft" xlink:href="#dirArrow" transform="rotate(270) translate(-36 17)" onmousedown="handlePan(-1,0)">
                  <use xlink:href="#rim" fill="#404040">
                        <set attributeName="fill" to="#808080" begin="arrowLeft.mouseover" end="arrowLeft.mouseout"/>
                  </use>
                  <path fill="none" stroke="white" stroke-width="1.5" d="M0,-3.0v7 M-2.5,-0.5L0,-3.0L2.5,-0.5"/>
                </g>
        </g>
        <svg viewBox="0 0 15 15" width="100%" height="30px" preserveAspectRatio="xMaxYMin meet">
         <g id="arrow_out" transform="scale(0.3 0.3)">
          <a xlink:href="_refinement_criteria_8cpp__incl_org.svg" target="_base">
           <rect id="button" ry="5" rx="5" y="6" x="6" height="38" width="38"
                fill="#f2f5e9" fill-opacity="0.5" stroke="#606060" stroke-width="1.0"/>
           <path id="arrow"
             d="M 11.500037,31.436501 C 11.940474,20.09759 22.043105,11.32322 32.158766,21.979434 L 37.068811,17.246167 C 37.068811,17.246167 37.088388,32 37.088388,32 L 22.160133,31.978069 C 22.160133,31.978069 26.997745,27.140456 26.997745,27.140456 C 18.528582,18.264221 13.291696,25.230495 11.500037,31.436501 z"
             style="fill:#404040;"/>
          </a>
         </g>
        </svg>
</svg>
