<?xml version="1.0" encoding="UTF-8" standalone="no"?>
<!DOCTYPE svg PUBLIC "-//W3C//DTD SVG 1.1//EN"
 "http://www.w3.org/Graphics/SVG/1.1/DTD/svg11.dtd">
<!-- Generated by graphviz version 2.43.0 (0)
 -->
<!-- Title: ScratchField.cpp Pages: 1 -->
<!--zoomable 252 -->
<svg id="main" version="1.1" xmlns="http://www.w3.org/2000/svg" xmlns:xlink="http://www.w3.org/1999/xlink" xml:space="preserve" onload="init(evt)">
<style type="text/css"><![CDATA[
.edge:hover path { stroke: red; }
.edge:hover polygon { stroke: red; fill: red; }
]]></style>
<script type="text/javascript"><![CDATA[
var edges = document.getElementsByTagName('g');
if (edges && edges.length) {
  for (var i=0;i<edges.length;i++) {
    if (edges[i].id.substr(0,4)=='edge') {
      edges[i].setAttribute('class','edge');
    }
  }
}
]]></script>
        <defs>
                <circle id="rim" cx="0" cy="0" r="7"/>
                <circle id="rim2" cx="0" cy="0" r="3.5"/>
                <g id="zoomPlus">
                        <use xlink:href="#rim" fill="#404040">
                                <set attributeName="fill" to="#808080" begin="zoomplus.mouseover" end="zoomplus.mouseout"/>
                        </use>
                        <path d="M-4,0h8M0,-4v8" fill="none" stroke="white" stroke-width="1.5" pointer-events="none"/>
                </g>
                <g id="zoomMin">
                        <use xlink:href="#rim" fill="#404040">
                                <set attributeName="fill" to="#808080" begin="zoomminus.mouseover" end="zoomminus.mouseout"/>
                        </use>
                        <path d="M-4,0h8" fill="none" stroke="white" stroke-width="1.5" pointer-events="none"/>
                </g>
                <g id="dirArrow">
                        <path fill="none" stroke="white" stroke-width="1.5" d="M0,-3.0v7 M-2.5,-0.5L0,-3.0L2.5,-0.5"/>
                </g>
               <g id="resetDef">
                       <use xlink:href="#rim2" fill="#404040">
                               <set attributeName="fill" to="#808080" begin="reset.mouseover" end="reset.mouseout"/>
                       </use>
               </g>
        </defs>

<script type="text/javascript">
var viewWidth = 1722;
var viewHeight = 252;
var sectionId = 'dynsection-0';
</script>
<script xlink:href="svgpan.js"/>
<svg id="graph" class="graph">
<g id="viewport">
<title>ScratchField.cpp</title>
<polygon fill="white" stroke="transparent" points="-4,4 -4,-248 1717.84,-248 1717.84,4 -4,4"/>
<!-- Node1 -->
<g id="node1" class="node">
<title>Node1</title>
<g id="a_node1"><a xlink:title=" ">
<polygon fill="#bfbfbf" stroke="black" points="1105.29,-224.5 1105.29,-243.5 1201.29,-243.5 1201.29,-224.5 1105.29,-224.5"/>
<text text-anchor="middle" x="1153.29" y="-231.5" font-family="Helvetica,sans-Serif" font-size="10.00">ScratchField.cpp</text>
</a>
</g>
</g>
<!-- Node2 -->
<g id="node2" class="node">
<title>Node2</title>
<g id="a_node2"><a xlink:href="_scratch_field_8_h.html" target="_top" xlink:title=" ">
<polygon fill="white" stroke="black" points="507.29,-112.5 507.29,-131.5 667.29,-131.5 667.29,-112.5 507.29,-112.5"/>
<text text-anchor="middle" x="587.29" y="-119.5" font-family="Helvetica,sans-Serif" font-size="10.00">amr&#45;wind/core/ScratchField.H</text>
</a>
</g>
</g>
<!-- Node1&#45;&gt;Node2 -->
<g id="edge1" class="edge">
<title>Node1&#45;&gt;Node2</title>
<path fill="none" stroke="midnightblue" d="M1109.35,-224.46C1006.96,-204.56 752.78,-155.16 641.23,-133.48"/>
<polygon fill="midnightblue" stroke="midnightblue" points="641.69,-130.01 631.21,-131.53 640.36,-136.88 641.69,-130.01"/>
</g>
<!-- Node7 -->
<g id="node7" class="node">
<title>Node7</title>
<g id="a_node7"><a xlink:title=" ">
<polygon fill="white" stroke="#bfbfbf" points="185.79,-0.5 185.79,-19.5 294.79,-19.5 294.79,-0.5 185.79,-0.5"/>
<text text-anchor="middle" x="240.29" y="-7.5" font-family="Helvetica,sans-Serif" font-size="10.00">AMReX_MultiFab.H</text>
</a>
</g>
</g>
<!-- Node1&#45;&gt;Node7 -->
<g id="edge45" class="edge">
<title>Node1&#45;&gt;Node7</title>
<path fill="none" stroke="midnightblue" d="M1105.26,-230.16C896.72,-217.32 77.01,-161.67 4.29,-76 -1.46,-69.22 -1.37,-62.85 4.29,-56 25.67,-30.16 113.3,-19.03 175.52,-14.32"/>
<polygon fill="midnightblue" stroke="midnightblue" points="175.94,-17.8 185.66,-13.59 175.44,-10.82 175.94,-17.8"/>
</g>
<!-- Node9 -->
<g id="node9" class="node">
<title>Node9</title>
<g id="a_node9"><a xlink:title=" ">
<polygon fill="white" stroke="#bfbfbf" points="27.79,-56.5 27.79,-75.5 158.79,-75.5 158.79,-56.5 27.79,-56.5"/>
<text text-anchor="middle" x="93.29" y="-63.5" font-family="Helvetica,sans-Serif" font-size="10.00">AMReX_PhysBCFunct.H</text>
</a>
</g>
</g>
<!-- Node1&#45;&gt;Node9 -->
<g id="edge43" class="edge">
<title>Node1&#45;&gt;Node9</title>
<path fill="none" stroke="midnightblue" d="M1105.08,-227.1C1039.45,-218.95 918.32,-203.49 815.29,-188 567.44,-150.74 273,-99.08 150.83,-77.32"/>
<polygon fill="midnightblue" stroke="midnightblue" points="151.4,-73.87 140.94,-75.56 150.17,-80.76 151.4,-73.87"/>
</g>
<!-- Node10 -->
<g id="node10" class="node">
<title>Node10</title>
<g id="a_node10"><a xlink:href="_field_repo_8_h.html" target="_top" xlink:title=" ">
<polygon fill="white" stroke="black" points="1027.79,-168.5 1027.79,-187.5 1176.79,-187.5 1176.79,-168.5 1027.79,-168.5"/>
<text text-anchor="middle" x="1102.29" y="-175.5" font-family="Helvetica,sans-Serif" font-size="10.00">amr&#45;wind/core/FieldRepo.H</text>
</a>
</g>
</g>
<!-- Node1&#45;&gt;Node10 -->
<g id="edge13" class="edge">
<title>Node1&#45;&gt;Node10</title>
<path fill="none" stroke="midnightblue" d="M1144.87,-224.08C1137.44,-216.22 1126.44,-204.57 1117.48,-195.08"/>
<polygon fill="midnightblue" stroke="midnightblue" points="1119.97,-192.62 1110.56,-187.75 1114.88,-197.42 1119.97,-192.62"/>
</g>
<!-- Node18 -->
<g id="node18" class="node">
<title>Node18</title>
<g id="a_node18"><a xlink:title=" ">
<polygon fill="white" stroke="#bfbfbf" points="1422.79,-56.5 1422.79,-75.5 1509.79,-75.5 1509.79,-56.5 1422.79,-56.5"/>
<text text-anchor="middle" x="1466.29" y="-63.5" font-family="Helvetica,sans-Serif" font-size="10.00">AMReX_Gpu.H</text>
</a>
</g>
</g>
<!-- Node1&#45;&gt;Node18 -->
<g id="edge40" class="edge">
<title>Node1&#45;&gt;Node18</title>
<path fill="none" stroke="midnightblue" d="M1162.5,-224.08C1176.76,-210.63 1205.45,-184.9 1233.29,-168 1299.12,-128.03 1383.6,-95.58 1430.63,-79"/>
<polygon fill="midnightblue" stroke="midnightblue" points="1432.06,-82.21 1440.35,-75.61 1429.76,-75.6 1432.06,-82.21"/>
</g>
<!-- Node23 -->
<g id="node23" class="node">
<title>Node23</title>
<g id="a_node23"><a xlink:title=" ">
<polygon fill="white" stroke="#bfbfbf" points="1241.79,-168.5 1241.79,-187.5 1358.79,-187.5 1358.79,-168.5 1241.79,-168.5"/>
<text text-anchor="middle" x="1300.29" y="-175.5" font-family="Helvetica,sans-Serif" font-size="10.00">AMReX_FArrayBox.H</text>
</a>
</g>
</g>
<!-- Node1&#45;&gt;Node23 -->
<g id="edge41" class="edge">
<title>Node1&#45;&gt;Node23</title>
<path fill="none" stroke="midnightblue" d="M1176.59,-224.44C1201.1,-215.44 1239.89,-201.19 1267.49,-191.05"/>
<polygon fill="midnightblue" stroke="midnightblue" points="1268.93,-194.25 1277.11,-187.52 1266.52,-187.68 1268.93,-194.25"/>
</g>
<!-- Node24 -->
<g id="node24" class="node">
<title>Node24</title>
<g id="a_node24"><a xlink:title=" ">
<polygon fill="white" stroke="#bfbfbf" points="1376.79,-168.5 1376.79,-187.5 1491.79,-187.5 1491.79,-168.5 1376.79,-168.5"/>
<text text-anchor="middle" x="1434.29" y="-175.5" font-family="Helvetica,sans-Serif" font-size="10.00">AMReX_Geometry.H</text>
</a>
</g>
</g>
<!-- Node1&#45;&gt;Node24 -->
<g id="edge42" class="edge">
<title>Node1&#45;&gt;Node24</title>
<path fill="none" stroke="midnightblue" d="M1197.82,-224.44C1247.25,-214.94 1327.04,-199.61 1380.07,-189.42"/>
<polygon fill="midnightblue" stroke="midnightblue" points="1380.82,-192.84 1389.98,-187.52 1379.49,-185.97 1380.82,-192.84"/>
</g>
<!-- Node25 -->
<g id="node25" class="node">
<title>Node25</title>
<g id="a_node25"><a xlink:title=" ">
<polygon fill="white" stroke="#bfbfbf" points="1509.79,-168.5 1509.79,-187.5 1634.79,-187.5 1634.79,-168.5 1509.79,-168.5"/>
<text text-anchor="middle" x="1572.29" y="-175.5" font-family="Helvetica,sans-Serif" font-size="10.00">AMReX_FillPatchUtil.H</text>
</a>
</g>
</g>
<!-- Node1&#45;&gt;Node25 -->
<g id="edge44" class="edge">
<title>Node1&#45;&gt;Node25</title>
<path fill="none" stroke="midnightblue" d="M1201.36,-226.81C1274.38,-217.39 1413.78,-199.43 1499.34,-188.4"/>
<polygon fill="midnightblue" stroke="midnightblue" points="1500.03,-191.84 1509.5,-187.09 1499.14,-184.9 1500.03,-191.84"/>
</g>
<!-- Node3 -->
<g id="node3" class="node">
<title>Node3</title>
<g id="a_node3"><a xlink:title=" ">
<polygon fill="white" stroke="#bfbfbf" points="1261.29,-0.5 1261.29,-19.5 1305.29,-19.5 1305.29,-0.5 1261.29,-0.5"/>
<text text-anchor="middle" x="1283.29" y="-7.5" font-family="Helvetica,sans-Serif" font-size="10.00">string</text>
</a>
</g>
</g>
<!-- Node2&#45;&gt;Node3 -->
<g id="edge2" class="edge">
<title>Node2&#45;&gt;Node3</title>
<path fill="none" stroke="midnightblue" d="M613.47,-112.45C657.52,-98.41 749.48,-70.57 829.29,-56 985.62,-27.46 1175.77,-16.01 1250.71,-12.4"/>
<polygon fill="midnightblue" stroke="midnightblue" points="1251.08,-15.89 1260.91,-11.92 1250.76,-8.89 1251.08,-15.89"/>
</g>
<!-- Node4 -->
<g id="node4" class="node">
<title>Node4</title>
<g id="a_node4"><a xlink:title=" ">
<polygon fill="white" stroke="#bfbfbf" points="215.79,-56.5 215.79,-75.5 260.79,-75.5 260.79,-56.5 215.79,-56.5"/>
<text text-anchor="middle" x="238.29" y="-63.5" font-family="Helvetica,sans-Serif" font-size="10.00">utility</text>
</a>
</g>
</g>
<!-- Node2&#45;&gt;Node4 -->
<g id="edge3" class="edge">
<title>Node2&#45;&gt;Node4</title>
<path fill="none" stroke="midnightblue" d="M514.46,-112.49C451.02,-104.61 356.7,-91.73 275.29,-76 273.83,-75.72 272.34,-75.42 270.84,-75.1"/>
<polygon fill="midnightblue" stroke="midnightblue" points="271.44,-71.65 260.92,-72.86 269.9,-78.48 271.44,-71.65"/>
</g>
<!-- Node5 -->
<g id="node5" class="node">
<title>Node5</title>
<g id="a_node5"><a xlink:href="_field_desc_types_8_h.html" target="_top" xlink:title=" ">
<polygon fill="white" stroke="black" points="635.29,-0.5 635.29,-19.5 811.29,-19.5 811.29,-0.5 635.29,-0.5"/>
<text text-anchor="middle" x="723.29" y="-7.5" font-family="Helvetica,sans-Serif" font-size="10.00">amr&#45;wind/core/FieldDescTypes.H</text>
</a>
</g>
</g>
<!-- Node2&#45;&gt;Node5 -->
<g id="edge4" class="edge">
<title>Node2&#45;&gt;Node5</title>
<path fill="none" stroke="midnightblue" d="M611.43,-112.46C630.46,-104.91 656.93,-92.52 676.29,-76 692.13,-62.49 705.5,-42.59 713.88,-28.37"/>
<polygon fill="midnightblue" stroke="midnightblue" points="716.97,-30.01 718.86,-19.59 710.88,-26.56 716.97,-30.01"/>
</g>
<!-- Node6 -->
<g id="node6" class="node">
<title>Node6</title>
<g id="a_node6"><a xlink:href="_view_field_8_h.html" target="_top" xlink:title=" ">
<polygon fill="white" stroke="black" points="519.29,-56.5 519.29,-75.5 667.29,-75.5 667.29,-56.5 519.29,-56.5"/>
<text text-anchor="middle" x="593.29" y="-63.5" font-family="Helvetica,sans-Serif" font-size="10.00">amr&#45;wind/core/ViewField.H</text>
</a>
</g>
</g>
<!-- Node2&#45;&gt;Node6 -->
<g id="edge5" class="edge">
<title>Node2&#45;&gt;Node6</title>
<path fill="none" stroke="midnightblue" d="M588.28,-112.08C589.08,-104.93 590.22,-94.64 591.22,-85.69"/>
<polygon fill="midnightblue" stroke="midnightblue" points="594.69,-86.08 592.32,-75.75 587.74,-85.3 594.69,-86.08"/>
</g>
<!-- Node2&#45;&gt;Node7 -->
<g id="edge10" class="edge">
<title>Node2&#45;&gt;Node7</title>
<path fill="none" stroke="midnightblue" d="M507.09,-117.09C401.49,-111.11 226.85,-98.01 207.29,-76 194.38,-61.47 208.84,-40.98 222.47,-26.92"/>
<polygon fill="midnightblue" stroke="midnightblue" points="225.03,-29.31 229.78,-19.84 220.16,-24.28 225.03,-29.31"/>
</g>
<!-- Node8 -->
<g id="node8" class="node">
<title>Node8</title>
<g id="a_node8"><a xlink:title=" ">
<polygon fill="white" stroke="#bfbfbf" points="514.29,-0.5 514.29,-19.5 612.29,-19.5 612.29,-0.5 514.29,-0.5"/>
<text text-anchor="middle" x="563.29" y="-7.5" font-family="Helvetica,sans-Serif" font-size="10.00">AMReX_Vector.H</text>
</a>
</g>
</g>
<!-- Node2&#45;&gt;Node8 -->
<g id="edge11" class="edge">
<title>Node2&#45;&gt;Node8</title>
<path fill="none" stroke="midnightblue" d="M507.11,-116.8C445.13,-111.67 366.59,-100.43 346.29,-76 340.61,-69.16 340.68,-62.89 346.29,-56 356.29,-43.71 443.27,-28.61 504.02,-19.4"/>
<polygon fill="midnightblue" stroke="midnightblue" points="504.91,-22.8 514.28,-17.86 503.87,-15.88 504.91,-22.8"/>
</g>
<!-- Node2&#45;&gt;Node9 -->
<g id="edge12" class="edge">
<title>Node2&#45;&gt;Node9</title>
<path fill="none" stroke="midnightblue" d="M507.92,-112.46C424.57,-103.48 289.71,-88.88 173.29,-76 172,-75.86 170.7,-75.71 169.39,-75.57"/>
<polygon fill="midnightblue" stroke="midnightblue" points="169.54,-72.06 159.21,-74.44 168.76,-79.02 169.54,-72.06"/>
</g>
<!-- Node6&#45;&gt;Node3 -->
<g id="edge6" class="edge">
<title>Node6&#45;&gt;Node3</title>
<path fill="none" stroke="midnightblue" d="M667.46,-59.2C816.39,-47.54 1146.46,-21.71 1250.93,-13.53"/>
<polygon fill="midnightblue" stroke="midnightblue" points="1251.46,-17 1261.15,-12.73 1250.91,-10.02 1251.46,-17"/>
</g>
<!-- Node6&#45;&gt;Node5 -->
<g id="edge7" class="edge">
<title>Node6&#45;&gt;Node5</title>
<path fill="none" stroke="midnightblue" d="M613.89,-56.44C635.29,-47.56 668.97,-33.56 693.32,-23.45"/>
<polygon fill="midnightblue" stroke="midnightblue" points="694.9,-26.58 702.79,-19.52 692.21,-20.12 694.9,-26.58"/>
</g>
<!-- Node6&#45;&gt;Node7 -->
<g id="edge8" class="edge">
<title>Node6&#45;&gt;Node7</title>
<path fill="none" stroke="midnightblue" d="M537.36,-56.44C474.12,-46.77 371.32,-31.04 304.76,-20.86"/>
<polygon fill="midnightblue" stroke="midnightblue" points="305.22,-17.39 294.8,-19.34 304.16,-24.31 305.22,-17.39"/>
</g>
<!-- Node6&#45;&gt;Node8 -->
<g id="edge9" class="edge">
<title>Node6&#45;&gt;Node8</title>
<path fill="none" stroke="midnightblue" d="M588.34,-56.08C584.19,-48.61 578.14,-37.72 573.03,-28.52"/>
<polygon fill="midnightblue" stroke="midnightblue" points="576.07,-26.79 568.15,-19.75 569.95,-30.19 576.07,-26.79"/>
</g>
<!-- Node10&#45;&gt;Node2 -->
<g id="edge36" class="edge">
<title>Node10&#45;&gt;Node2</title>
<path fill="none" stroke="midnightblue" d="M1027.68,-169.18C934.97,-159.46 776.89,-142.88 677.48,-132.46"/>
<polygon fill="midnightblue" stroke="midnightblue" points="677.76,-128.97 667.45,-131.4 677.03,-135.93 677.76,-128.97"/>
</g>
<!-- Node10&#45;&gt;Node3 -->
<g id="edge14" class="edge">
<title>Node10&#45;&gt;Node3</title>
<path fill="none" stroke="midnightblue" d="M1176.8,-171.64C1335.16,-160.19 1691.02,-134.25 1693.29,-132 1717.38,-108.22 1720.9,-81.19 1698.29,-56 1672.83,-27.63 1408.85,-15.49 1315.66,-12.07"/>
<polygon fill="midnightblue" stroke="midnightblue" points="1315.53,-8.57 1305.41,-11.71 1315.28,-15.56 1315.53,-8.57"/>
</g>
<!-- Node10&#45;&gt;Node5 -->
<g id="edge16" class="edge">
<title>Node10&#45;&gt;Node5</title>
<path fill="none" stroke="midnightblue" d="M1043.87,-168.46C1001.99,-161.33 944.67,-149.48 896.29,-132 845.44,-113.63 831.92,-107.94 788.29,-76 768.88,-61.79 749.8,-41.78 737.38,-27.73"/>
<polygon fill="midnightblue" stroke="midnightblue" points="739.76,-25.13 730.57,-19.85 734.47,-29.71 739.76,-25.13"/>
</g>
<!-- Node10&#45;&gt;Node7 -->
<g id="edge38" class="edge">
<title>Node10&#45;&gt;Node7</title>
<path fill="none" stroke="midnightblue" d="M1027.79,-175.79C793.97,-171.23 86.26,-151.25 19.29,-76 -27.56,-23.35 94.8,-12.39 175.62,-10.66"/>
<polygon fill="midnightblue" stroke="midnightblue" points="175.81,-14.16 185.75,-10.49 175.69,-7.16 175.81,-14.16"/>
</g>
<!-- Node11 -->
<g id="node11" class="node">
<title>Node11</title>
<g id="a_node11"><a xlink:title=" ">
<polygon fill="white" stroke="#bfbfbf" points="1311.79,-56.5 1311.79,-75.5 1404.79,-75.5 1404.79,-56.5 1311.79,-56.5"/>
<text text-anchor="middle" x="1358.29" y="-63.5" font-family="Helvetica,sans-Serif" font-size="10.00">unordered_map</text>
</a>
</g>
</g>
<!-- Node10&#45;&gt;Node11 -->
<g id="edge15" class="edge">
<title>Node10&#45;&gt;Node11</title>
<path fill="none" stroke="midnightblue" d="M1114.26,-168.33C1133.47,-154.74 1172.77,-128.29 1209.29,-112 1242.11,-97.36 1281.03,-85.79 1310.87,-78.05"/>
<polygon fill="midnightblue" stroke="midnightblue" points="1311.78,-81.43 1320.61,-75.57 1310.06,-74.64 1311.78,-81.43"/>
</g>
<!-- Node12 -->
<g id="node12" class="node">
<title>Node12</title>
<g id="a_node12"><a xlink:href="_field_utils_8_h.html" target="_top" xlink:title=" ">
<polygon fill="white" stroke="black" points="355.29,-56.5 355.29,-75.5 501.29,-75.5 501.29,-56.5 355.29,-56.5"/>
<text text-anchor="middle" x="428.29" y="-63.5" font-family="Helvetica,sans-Serif" font-size="10.00">amr&#45;wind/core/FieldUtils.H</text>
</a>
</g>
</g>
<!-- Node10&#45;&gt;Node12 -->
<g id="edge17" class="edge">
<title>Node10&#45;&gt;Node12</title>
<path fill="none" stroke="midnightblue" d="M1027.51,-175.22C949.3,-171.74 823.64,-161.57 719.29,-132 699.01,-126.25 696.38,-118.38 676.29,-112 622.66,-94.97 560.32,-83.69 511.57,-76.69"/>
<polygon fill="midnightblue" stroke="midnightblue" points="511.77,-73.18 501.38,-75.26 510.79,-80.12 511.77,-73.18"/>
</g>
<!-- Node14 -->
<g id="node14" class="node">
<title>Node14</title>
<g id="a_node14"><a xlink:href="_field_8_h.html" target="_top" xlink:title=" ">
<polygon fill="white" stroke="black" points="905.29,-112.5 905.29,-131.5 1029.29,-131.5 1029.29,-112.5 905.29,-112.5"/>
<text text-anchor="middle" x="967.29" y="-119.5" font-family="Helvetica,sans-Serif" font-size="10.00">amr&#45;wind/core/Field.H</text>
</a>
</g>
</g>
<!-- Node10&#45;&gt;Node14 -->
<g id="edge21" class="edge">
<title>Node10&#45;&gt;Node14</title>
<path fill="none" stroke="midnightblue" d="M1080.9,-168.44C1058.59,-159.52 1023.39,-145.44 998.08,-135.32"/>
<polygon fill="midnightblue" stroke="midnightblue" points="999.17,-131.98 988.58,-131.52 996.57,-138.48 999.17,-131.98"/>
</g>
<!-- Node20 -->
<g id="node20" class="node">
<title>Node20</title>
<g id="a_node20"><a xlink:href="_int_field_8_h.html" target="_top" xlink:title=" ">
<polygon fill="white" stroke="black" points="1546.79,-112.5 1546.79,-131.5 1683.79,-131.5 1683.79,-112.5 1546.79,-112.5"/>
<text text-anchor="middle" x="1615.29" y="-119.5" font-family="Helvetica,sans-Serif" font-size="10.00">amr&#45;wind/core/IntField.H</text>
</a>
</g>
</g>
<!-- Node10&#45;&gt;Node20 -->
<g id="edge32" class="edge">
<title>Node10&#45;&gt;Node20</title>
<path fill="none" stroke="midnightblue" d="M1176.89,-169.15C1272.84,-159.05 1438.75,-141.58 1536.63,-131.28"/>
<polygon fill="midnightblue" stroke="midnightblue" points="1537.18,-134.74 1546.76,-130.21 1536.45,-127.78 1537.18,-134.74"/>
</g>
<!-- Node21 -->
<g id="node21" class="node">
<title>Node21</title>
<g id="a_node21"><a xlink:title=" ">
<polygon fill="white" stroke="#bfbfbf" points="1528.29,-56.5 1528.29,-75.5 1640.29,-75.5 1640.29,-56.5 1528.29,-56.5"/>
<text text-anchor="middle" x="1584.29" y="-63.5" font-family="Helvetica,sans-Serif" font-size="10.00">AMReX_iMultiFab.H</text>
</a>
</g>
</g>
<!-- Node10&#45;&gt;Node21 -->
<g id="edge39" class="edge">
<title>Node10&#45;&gt;Node21</title>
<path fill="none" stroke="midnightblue" d="M1139.71,-168.46C1226.46,-148.66 1441.19,-99.66 1536.92,-77.81"/>
<polygon fill="midnightblue" stroke="midnightblue" points="1537.93,-81.17 1546.9,-75.53 1536.37,-74.35 1537.93,-81.17"/>
</g>
<!-- Node22 -->
<g id="node22" class="node">
<title>Node22</title>
<g id="a_node22"><a xlink:title=" ">
<polygon fill="white" stroke="#bfbfbf" points="1047.29,-112.5 1047.29,-131.5 1157.29,-131.5 1157.29,-112.5 1047.29,-112.5"/>
<text text-anchor="middle" x="1102.29" y="-119.5" font-family="Helvetica,sans-Serif" font-size="10.00">AMReX_AmrCore.H</text>
</a>
</g>
</g>
<!-- Node10&#45;&gt;Node22 -->
<g id="edge37" class="edge">
<title>Node10&#45;&gt;Node22</title>
<path fill="none" stroke="midnightblue" d="M1102.29,-168.08C1102.29,-161.01 1102.29,-150.86 1102.29,-141.99"/>
<polygon fill="midnightblue" stroke="midnightblue" points="1105.79,-141.75 1102.29,-131.75 1098.79,-141.75 1105.79,-141.75"/>
</g>
<!-- Node12&#45;&gt;Node5 -->
<g id="edge18" class="edge">
<title>Node12&#45;&gt;Node5</title>
<path fill="none" stroke="midnightblue" d="M475.04,-56.44C527.04,-46.92 611.04,-31.55 666.72,-21.36"/>
<polygon fill="midnightblue" stroke="midnightblue" points="667.56,-24.76 676.77,-19.52 666.3,-17.87 667.56,-24.76"/>
</g>
<!-- Node12&#45;&gt;Node7 -->
<g id="edge19" class="edge">
<title>Node12&#45;&gt;Node7</title>
<path fill="none" stroke="midnightblue" d="M398.5,-56.44C366.46,-47.24 315.36,-32.56 279.94,-22.39"/>
<polygon fill="midnightblue" stroke="midnightblue" points="280.52,-18.91 269.94,-19.52 278.59,-25.64 280.52,-18.91"/>
</g>
<!-- Node13 -->
<g id="node13" class="node">
<title>Node13</title>
<g id="a_node13"><a xlink:title=" ">
<polygon fill="white" stroke="#bfbfbf" points="366.29,-0.5 366.29,-19.5 490.29,-19.5 490.29,-0.5 366.29,-0.5"/>
<text text-anchor="middle" x="428.29" y="-7.5" font-family="Helvetica,sans-Serif" font-size="10.00">AMReX_Interpolater.H</text>
</a>
</g>
</g>
<!-- Node12&#45;&gt;Node13 -->
<g id="edge20" class="edge">
<title>Node12&#45;&gt;Node13</title>
<path fill="none" stroke="midnightblue" d="M428.29,-56.08C428.29,-49.01 428.29,-38.86 428.29,-29.99"/>
<polygon fill="midnightblue" stroke="midnightblue" points="431.79,-29.75 428.29,-19.75 424.79,-29.75 431.79,-29.75"/>
</g>
<!-- Node14&#45;&gt;Node3 -->
<g id="edge22" class="edge">
<title>Node14&#45;&gt;Node3</title>
<path fill="none" stroke="midnightblue" d="M1029.11,-112.48C1114.84,-100.54 1259.88,-79.86 1264.29,-76 1277.41,-64.53 1281.71,-44.55 1283,-29.76"/>
<polygon fill="midnightblue" stroke="midnightblue" points="1286.5,-29.85 1283.5,-19.69 1279.51,-29.51 1286.5,-29.85"/>
</g>
<!-- Node14&#45;&gt;Node5 -->
<g id="edge30" class="edge">
<title>Node14&#45;&gt;Node5</title>
<path fill="none" stroke="midnightblue" d="M933.84,-112.47C905.37,-104.66 863.72,-91.9 829.29,-76 797.88,-61.49 764.25,-39.67 743.49,-25.38"/>
<polygon fill="midnightblue" stroke="midnightblue" points="745.38,-22.43 735.17,-19.58 741.37,-28.17 745.38,-22.43"/>
</g>
<!-- Node14&#45;&gt;Node6 -->
<g id="edge31" class="edge">
<title>Node14&#45;&gt;Node6</title>
<path fill="none" stroke="midnightblue" d="M908.03,-112.44C841.28,-102.81 732.94,-87.16 662.4,-76.98"/>
<polygon fill="midnightblue" stroke="midnightblue" points="662.67,-73.48 652.28,-75.52 661.67,-80.41 662.67,-73.48"/>
</g>
<!-- Node14&#45;&gt;Node7 -->
<g id="edge26" class="edge">
<title>Node14&#45;&gt;Node7</title>
<path fill="none" stroke="midnightblue" d="M905.18,-118.17C758.4,-111.25 398.52,-92.8 346.29,-76 312.64,-65.17 278.66,-41.6 258.55,-26.02"/>
<polygon fill="midnightblue" stroke="midnightblue" points="260.59,-23.17 250.58,-19.69 256.24,-28.65 260.59,-23.17"/>
</g>
<!-- Node14&#45;&gt;Node11 -->
<g id="edge24" class="edge">
<title>Node14&#45;&gt;Node11</title>
<path fill="none" stroke="midnightblue" d="M1029.36,-112.74C1095.71,-103.87 1203.98,-89.25 1297.29,-76 1298.75,-75.79 1300.23,-75.58 1301.72,-75.37"/>
<polygon fill="midnightblue" stroke="midnightblue" points="1302.28,-78.82 1311.67,-73.93 1301.28,-71.9 1302.28,-78.82"/>
</g>
<!-- Node15 -->
<g id="node15" class="node">
<title>Node15</title>
<g id="a_node15"><a xlink:title=" ">
<polygon fill="white" stroke="#bfbfbf" points="997.29,-56.5 997.29,-75.5 1055.29,-75.5 1055.29,-56.5 997.29,-56.5"/>
<text text-anchor="middle" x="1026.29" y="-63.5" font-family="Helvetica,sans-Serif" font-size="10.00">memory</text>
</a>
</g>
</g>
<!-- Node14&#45;&gt;Node15 -->
<g id="edge23" class="edge">
<title>Node14&#45;&gt;Node15</title>
<path fill="none" stroke="midnightblue" d="M976.77,-112.32C985.49,-104.34 998.64,-92.31 1009.19,-82.65"/>
<polygon fill="midnightblue" stroke="midnightblue" points="1011.63,-85.17 1016.64,-75.83 1006.9,-80 1011.63,-85.17"/>
</g>
<!-- Node16 -->
<g id="node16" class="node">
<title>Node16</title>
<g id="a_node16"><a xlink:title=" ">
<polygon fill="white" stroke="#bfbfbf" points="1073.29,-56.5 1073.29,-75.5 1137.29,-75.5 1137.29,-56.5 1073.29,-56.5"/>
<text text-anchor="middle" x="1105.29" y="-63.5" font-family="Helvetica,sans-Serif" font-size="10.00">algorithm</text>
</a>
</g>
</g>
<!-- Node14&#45;&gt;Node16 -->
<g id="edge25" class="edge">
<title>Node14&#45;&gt;Node16</title>
<path fill="none" stroke="midnightblue" d="M989.16,-112.44C1012.07,-103.48 1048.27,-89.31 1074.16,-79.18"/>
<polygon fill="midnightblue" stroke="midnightblue" points="1075.49,-82.42 1083.53,-75.52 1072.94,-75.9 1075.49,-82.42"/>
</g>
<!-- Node17 -->
<g id="node17" class="node">
<title>Node17</title>
<g id="a_node17"><a xlink:title=" ">
<polygon fill="white" stroke="#bfbfbf" points="1155.79,-56.5 1155.79,-75.5 1254.79,-75.5 1254.79,-56.5 1155.79,-56.5"/>
<text text-anchor="middle" x="1205.29" y="-63.5" font-family="Helvetica,sans-Serif" font-size="10.00">AMReX_BCRec.H</text>
</a>
</g>
</g>
<!-- Node14&#45;&gt;Node17 -->
<g id="edge27" class="edge">
<title>Node14&#45;&gt;Node17</title>
<path fill="none" stroke="midnightblue" d="M1005,-112.44C1046.44,-103.04 1113.05,-87.93 1157.96,-77.74"/>
<polygon fill="midnightblue" stroke="midnightblue" points="1158.78,-81.14 1167.76,-75.52 1157.23,-74.32 1158.78,-81.14"/>
</g>
<!-- Node14&#45;&gt;Node18 -->
<g id="edge28" class="edge">
<title>Node14&#45;&gt;Node18</title>
<path fill="none" stroke="midnightblue" d="M1029.62,-112.99C1032.55,-112.65 1035.45,-112.32 1038.29,-112 1201.88,-93.8 1246.19,-98.15 1412.55,-76.15"/>
<polygon fill="midnightblue" stroke="midnightblue" points="1413.19,-79.6 1422.64,-74.8 1412.26,-72.66 1413.19,-79.6"/>
</g>
<!-- Node19 -->
<g id="node19" class="node">
<title>Node19</title>
<g id="a_node19"><a xlink:href="incflo__enums_8_h.html" target="_top" xlink:title=" ">
<polygon fill="white" stroke="black" points="837.79,-56.5 837.79,-75.5 978.79,-75.5 978.79,-56.5 837.79,-56.5"/>
<text text-anchor="middle" x="908.29" y="-63.5" font-family="Helvetica,sans-Serif" font-size="10.00">amr&#45;wind/incflo_enums.H</text>
</a>
</g>
</g>
<!-- Node14&#45;&gt;Node19 -->
<g id="edge29" class="edge">
<title>Node14&#45;&gt;Node19</title>
<path fill="none" stroke="midnightblue" d="M957.81,-112.32C949.09,-104.34 935.95,-92.31 925.39,-82.65"/>
<polygon fill="midnightblue" stroke="midnightblue" points="927.68,-80 917.94,-75.83 922.96,-85.17 927.68,-80"/>
</g>
<!-- Node20&#45;&gt;Node3 -->
<g id="edge33" class="edge">
<title>Node20&#45;&gt;Node3</title>
<path fill="none" stroke="midnightblue" d="M1635.96,-112.36C1662.06,-100.27 1701.41,-77.39 1682.29,-56 1657.97,-28.78 1406.28,-15.97 1315.62,-12.22"/>
<polygon fill="midnightblue" stroke="midnightblue" points="1315.52,-8.71 1305.38,-11.81 1315.23,-15.71 1315.52,-8.71"/>
</g>
<!-- Node20&#45;&gt;Node5 -->
<g id="edge34" class="edge">
<title>Node20&#45;&gt;Node5</title>
<path fill="none" stroke="midnightblue" d="M1625.68,-112.49C1640.82,-99.12 1665.46,-72.97 1649.29,-56 1621.09,-26.39 1054.08,-15.43 821.52,-12.17"/>
<polygon fill="midnightblue" stroke="midnightblue" points="821.42,-8.67 811.37,-12.03 821.32,-15.67 821.42,-8.67"/>
</g>
<!-- Node20&#45;&gt;Node21 -->
<g id="edge35" class="edge">
<title>Node20&#45;&gt;Node21</title>
<path fill="none" stroke="midnightblue" d="M1610.17,-112.08C1605.89,-104.61 1599.63,-93.72 1594.35,-84.52"/>
<polygon fill="midnightblue" stroke="midnightblue" points="1597.33,-82.68 1589.32,-75.75 1591.26,-86.17 1597.33,-82.68"/>
</g>
</g>
</svg>
        <g id="navigator" transform="translate(0 0)" fill="#404254">
                <rect fill="#f2f5e9" fill-opacity="0.5" stroke="#606060" stroke-width=".5" x="0" y="0" width="60" height="60"/>
                <use id="zoomplus" xlink:href="#zoomPlus" x="17" y="9" onmousedown="handleZoom(evt,'in')"/>
                <use id="zoomminus" xlink:href="#zoomMin" x="42" y="9" onmousedown="handleZoom(evt,'out')"/>
                <use id="reset" xlink:href="#resetDef" x="30" y="36" onmousedown="handleReset()"/>
                <g id="arrowUp" xlink:href="#dirArrow" transform="translate(30 24)" onmousedown="handlePan(0,-1)">
                  <use xlink:href="#rim" fill="#404040">
                        <set attributeName="fill" to="#808080" begin="arrowUp.mouseover" end="arrowUp.mouseout"/>
                  </use>
                  <path fill="none" stroke="white" stroke-width="1.5" d="M0,-3.0v7 M-2.5,-0.5L0,-3.0L2.5,-0.5"/>
                </g>
                <g id="arrowRight" xlink:href="#dirArrow" transform="rotate(90) translate(36 -43)" onmousedown="handlePan(1,0)">
                  <use xlink:href="#rim" fill="#404040">
                        <set attributeName="fill" to="#808080" begin="arrowRight.mouseover" end="arrowRight.mouseout"/>
                  </use>
                  <path fill="none" stroke="white" stroke-width="1.5" d="M0,-3.0v7 M-2.5,-0.5L0,-3.0L2.5,-0.5"/>
                </g>
                <g id="arrowDown" xlink:href="#dirArrow" transform="rotate(180) translate(-30 -48)" onmousedown="handlePan(0,1)">
                  <use xlink:href="#rim" fill="#404040">
                        <set attributeName="fill" to="#808080" begin="arrowDown.mouseover" end="arrowDown.mouseout"/>
                  </use>
                  <path fill="none" stroke="white" stroke-width="1.5" d="M0,-3.0v7 M-2.5,-0.5L0,-3.0L2.5,-0.5"/>
                </g>
                <g id="arrowLeft" xlink:href="#dirArrow" transform="rotate(270) translate(-36 17)" onmousedown="handlePan(-1,0)">
                  <use xlink:href="#rim" fill="#404040">
                        <set attributeName="fill" to="#808080" begin="arrowLeft.mouseover" end="arrowLeft.mouseout"/>
                  </use>
                  <path fill="none" stroke="white" stroke-width="1.5" d="M0,-3.0v7 M-2.5,-0.5L0,-3.0L2.5,-0.5"/>
                </g>
        </g>
        <svg viewBox="0 0 15 15" width="100%" height="30px" preserveAspectRatio="xMaxYMin meet">
         <g id="arrow_out" transform="scale(0.3 0.3)">
          <a xlink:href="_scratch_field_8cpp__incl_org.svg" target="_base">
           <rect id="button" ry="5" rx="5" y="6" x="6" height="38" width="38"
                fill="#f2f5e9" fill-opacity="0.5" stroke="#606060" stroke-width="1.0"/>
           <path id="arrow"
             d="M 11.500037,31.436501 C 11.940474,20.09759 22.043105,11.32322 32.158766,21.979434 L 37.068811,17.246167 C 37.068811,17.246167 37.088388,32 37.088388,32 L 22.160133,31.978069 C 22.160133,31.978069 26.997745,27.140456 26.997745,27.140456 C 18.528582,18.264221 13.291696,25.230495 11.500037,31.436501 z"
             style="fill:#404040;"/>
          </a>
         </g>
        </svg>
</svg>
