<?xml version="1.0" encoding="UTF-8" standalone="no"?>
<!DOCTYPE svg PUBLIC "-//W3C//DTD SVG 1.1//EN"
 "http://www.w3.org/Graphics/SVG/1.1/DTD/svg11.dtd">
<!-- Generated by graphviz version 2.43.0 (0)
 -->
<!-- Title: SplitAdvection.cpp Pages: 1 -->
<svg width="2089pt" height="330pt"
 viewBox="0.00 0.00 2088.50 330.00" xmlns="http://www.w3.org/2000/svg" xmlns:xlink="http://www.w3.org/1999/xlink">
<g id="graph0" class="graph" transform="scale(1 1) rotate(0) translate(4 326)">
<title>SplitAdvection.cpp</title>
<polygon fill="white" stroke="transparent" points="-4,4 -4,-326 2084.5,-326 2084.5,4 -4,4"/>
<!-- Node1 -->
<g id="node1" class="node">
<title>Node1</title>
<g id="a_node1"><a xlink:title=" ">
<polygon fill="#bfbfbf" stroke="black" points="1782.5,-302.5 1782.5,-321.5 1889.5,-321.5 1889.5,-302.5 1782.5,-302.5"/>
<text text-anchor="middle" x="1836" y="-309.5" font-family="Helvetica,sans-Serif" font-size="10.00">SplitAdvection.cpp</text>
</a>
</g>
</g>
<!-- Node2 -->
<g id="node2" class="node">
<title>Node2</title>
<g id="a_node2"><a xlink:href="_split_advection_8_h.html" target="_top" xlink:title=" ">
<polygon fill="white" stroke="black" points="1160.5,-235.5 1160.5,-265.5 1315.5,-265.5 1315.5,-235.5 1160.5,-235.5"/>
<text text-anchor="start" x="1168.5" y="-253.5" font-family="Helvetica,sans-Serif" font-size="10.00">amr&#45;wind/equation_systems</text>
<text text-anchor="middle" x="1238" y="-242.5" font-family="Helvetica,sans-Serif" font-size="10.00">/vof/SplitAdvection.H</text>
</a>
</g>
</g>
<!-- Node1&#45;&gt;Node2 -->
<g id="edge1" class="edge">
<title>Node1&#45;&gt;Node2</title>
<path fill="none" stroke="midnightblue" d="M1782.41,-305.67C1679.13,-295.39 1451.67,-272.76 1325.91,-260.25"/>
<polygon fill="midnightblue" stroke="midnightblue" points="1326.22,-256.76 1315.92,-259.25 1325.53,-263.73 1326.22,-256.76"/>
</g>
<!-- Node24 -->
<g id="node24" class="node">
<title>Node24</title>
<g id="a_node24"><a xlink:href="split__advection_8_h.html" target="_top" xlink:title=" ">
<polygon fill="white" stroke="black" points="1758.5,-235.5 1758.5,-265.5 1913.5,-265.5 1913.5,-235.5 1758.5,-235.5"/>
<text text-anchor="start" x="1766.5" y="-253.5" font-family="Helvetica,sans-Serif" font-size="10.00">amr&#45;wind/equation_systems</text>
<text text-anchor="middle" x="1836" y="-242.5" font-family="Helvetica,sans-Serif" font-size="10.00">/vof/split_advection.H</text>
</a>
</g>
</g>
<!-- Node1&#45;&gt;Node24 -->
<g id="edge40" class="edge">
<title>Node1&#45;&gt;Node24</title>
<path fill="none" stroke="midnightblue" d="M1836,-302.48C1836,-295.47 1836,-285.19 1836,-275.7"/>
<polygon fill="midnightblue" stroke="midnightblue" points="1839.5,-275.52 1836,-265.52 1832.5,-275.52 1839.5,-275.52"/>
</g>
<!-- Node28 -->
<g id="node28" class="node">
<title>Node28</title>
<g id="a_node28"><a xlink:title=" ">
<polygon fill="white" stroke="#bfbfbf" points="1931.5,-241 1931.5,-260 2046.5,-260 2046.5,-241 1931.5,-241"/>
<text text-anchor="middle" x="1989" y="-248" font-family="Helvetica,sans-Serif" font-size="10.00">AMReX_Geometry.H</text>
</a>
</g>
</g>
<!-- Node1&#45;&gt;Node28 -->
<g id="edge47" class="edge">
<title>Node1&#45;&gt;Node28</title>
<path fill="none" stroke="midnightblue" d="M1857.92,-302.48C1884.05,-292.31 1927.91,-275.26 1957.63,-263.7"/>
<polygon fill="midnightblue" stroke="midnightblue" points="1959.07,-266.9 1967.12,-260.01 1956.53,-260.37 1959.07,-266.9"/>
</g>
<!-- Node3 -->
<g id="node3" class="node">
<title>Node3</title>
<g id="a_node3"><a xlink:href="_field_repo_8_h.html" target="_top" xlink:title=" ">
<polygon fill="white" stroke="black" points="737.5,-174 737.5,-193 886.5,-193 886.5,-174 737.5,-174"/>
<text text-anchor="middle" x="812" y="-181" font-family="Helvetica,sans-Serif" font-size="10.00">amr&#45;wind/core/FieldRepo.H</text>
</a>
</g>
</g>
<!-- Node2&#45;&gt;Node3 -->
<g id="edge2" class="edge">
<title>Node2&#45;&gt;Node3</title>
<path fill="none" stroke="midnightblue" d="M1160.36,-237.65C1079.4,-225.3 953.89,-206.15 877.69,-194.52"/>
<polygon fill="midnightblue" stroke="midnightblue" points="878.14,-191.05 867.73,-193 877.09,-197.97 878.14,-191.05"/>
</g>
<!-- Node4 -->
<g id="node4" class="node">
<title>Node4</title>
<g id="a_node4"><a xlink:title=" ">
<polygon fill="white" stroke="#bfbfbf" points="200,-0.5 200,-19.5 244,-19.5 244,-0.5 200,-0.5"/>
<text text-anchor="middle" x="222" y="-7.5" font-family="Helvetica,sans-Serif" font-size="10.00">string</text>
</a>
</g>
</g>
<!-- Node3&#45;&gt;Node4 -->
<g id="edge3" class="edge">
<title>Node3&#45;&gt;Node4</title>
<path fill="none" stroke="midnightblue" d="M737.46,-176.97C602.56,-165.6 325.03,-135.51 251,-76 236.73,-64.52 229.26,-44.55 225.5,-29.76"/>
<polygon fill="midnightblue" stroke="midnightblue" points="228.86,-28.71 223.3,-19.69 222.02,-30.21 228.86,-28.71"/>
</g>
<!-- Node5 -->
<g id="node5" class="node">
<title>Node5</title>
<g id="a_node5"><a xlink:title=" ">
<polygon fill="white" stroke="#bfbfbf" points="750.5,-56.5 750.5,-75.5 843.5,-75.5 843.5,-56.5 750.5,-56.5"/>
<text text-anchor="middle" x="797" y="-63.5" font-family="Helvetica,sans-Serif" font-size="10.00">unordered_map</text>
</a>
</g>
</g>
<!-- Node3&#45;&gt;Node5 -->
<g id="edge4" class="edge">
<title>Node3&#45;&gt;Node5</title>
<path fill="none" stroke="midnightblue" d="M810.87,-173.82C808.46,-155.26 802.76,-111.34 799.46,-85.97"/>
<polygon fill="midnightblue" stroke="midnightblue" points="802.9,-85.25 798.14,-75.78 795.96,-86.15 802.9,-85.25"/>
</g>
<!-- Node6 -->
<g id="node6" class="node">
<title>Node6</title>
<g id="a_node6"><a xlink:href="_field_desc_types_8_h.html" target="_top" xlink:title=" ">
<polygon fill="white" stroke="black" points="823,-0.5 823,-19.5 999,-19.5 999,-0.5 823,-0.5"/>
<text text-anchor="middle" x="911" y="-7.5" font-family="Helvetica,sans-Serif" font-size="10.00">amr&#45;wind/core/FieldDescTypes.H</text>
</a>
</g>
</g>
<!-- Node3&#45;&gt;Node6 -->
<g id="edge5" class="edge">
<title>Node3&#45;&gt;Node6</title>
<path fill="none" stroke="midnightblue" d="M817.05,-173.76C832.6,-146.81 880.05,-64.62 900.94,-28.42"/>
<polygon fill="midnightblue" stroke="midnightblue" points="904.11,-29.93 906.08,-19.52 898.05,-26.43 904.11,-29.93"/>
</g>
<!-- Node7 -->
<g id="node7" class="node">
<title>Node7</title>
<g id="a_node7"><a xlink:href="_field_utils_8_h.html" target="_top" xlink:title=" ">
<polygon fill="white" stroke="black" points="1586,-56.5 1586,-75.5 1732,-75.5 1732,-56.5 1586,-56.5"/>
<text text-anchor="middle" x="1659" y="-63.5" font-family="Helvetica,sans-Serif" font-size="10.00">amr&#45;wind/core/FieldUtils.H</text>
</a>
</g>
</g>
<!-- Node3&#45;&gt;Node7 -->
<g id="edge6" class="edge">
<title>Node3&#45;&gt;Node7</title>
<path fill="none" stroke="midnightblue" d="M886.65,-175.22C975.69,-166.28 1128.96,-150.05 1260,-132 1381.93,-115.21 1524.06,-90.92 1601.48,-77.28"/>
<polygon fill="midnightblue" stroke="midnightblue" points="1602.28,-80.7 1611.51,-75.51 1601.06,-73.8 1602.28,-80.7"/>
</g>
<!-- Node8 -->
<g id="node8" class="node">
<title>Node8</title>
<g id="a_node8"><a xlink:title=" ">
<polygon fill="white" stroke="#bfbfbf" points="1135.5,-0.5 1135.5,-19.5 1244.5,-19.5 1244.5,-0.5 1135.5,-0.5"/>
<text text-anchor="middle" x="1190" y="-7.5" font-family="Helvetica,sans-Serif" font-size="10.00">AMReX_MultiFab.H</text>
</a>
</g>
</g>
<!-- Node3&#45;&gt;Node8 -->
<g id="edge38" class="edge">
<title>Node3&#45;&gt;Node8</title>
<path fill="none" stroke="midnightblue" d="M886.54,-179.62C1097.16,-170.7 1685.12,-140.22 1741,-76 1746.83,-69.29 1747.02,-62.54 1741,-56 1708.64,-20.89 1393.58,-13.17 1254.93,-11.48"/>
<polygon fill="midnightblue" stroke="midnightblue" points="1254.9,-7.98 1244.86,-11.36 1254.82,-14.98 1254.9,-7.98"/>
</g>
<!-- Node10 -->
<g id="node10" class="node">
<title>Node10</title>
<g id="a_node10"><a xlink:href="_field_8_h.html" target="_top" xlink:title=" ">
<polygon fill="white" stroke="black" points="660,-112.5 660,-131.5 784,-131.5 784,-112.5 660,-112.5"/>
<text text-anchor="middle" x="722" y="-119.5" font-family="Helvetica,sans-Serif" font-size="10.00">amr&#45;wind/core/Field.H</text>
</a>
</g>
</g>
<!-- Node3&#45;&gt;Node10 -->
<g id="edge10" class="edge">
<title>Node3&#45;&gt;Node10</title>
<path fill="none" stroke="midnightblue" d="M799.11,-173.98C784.54,-164.34 760.6,-148.52 743.25,-137.05"/>
<polygon fill="midnightblue" stroke="midnightblue" points="745.14,-134.1 734.87,-131.51 741.28,-139.94 745.14,-134.1"/>
</g>
<!-- Node18 -->
<g id="node18" class="node">
<title>Node18</title>
<g id="a_node18"><a xlink:href="_int_field_8_h.html" target="_top" xlink:title=" ">
<polygon fill="white" stroke="black" points="77.5,-112.5 77.5,-131.5 214.5,-131.5 214.5,-112.5 77.5,-112.5"/>
<text text-anchor="middle" x="146" y="-119.5" font-family="Helvetica,sans-Serif" font-size="10.00">amr&#45;wind/core/IntField.H</text>
</a>
</g>
</g>
<!-- Node3&#45;&gt;Node18 -->
<g id="edge25" class="edge">
<title>Node3&#45;&gt;Node18</title>
<path fill="none" stroke="midnightblue" d="M737.41,-176.56C626.48,-167.6 411.51,-149.8 229,-132 227.7,-131.87 226.39,-131.74 225.07,-131.61"/>
<polygon fill="midnightblue" stroke="midnightblue" points="225.13,-128.1 214.83,-130.58 224.43,-135.07 225.13,-128.1"/>
</g>
<!-- Node19 -->
<g id="node19" class="node">
<title>Node19</title>
<g id="a_node19"><a xlink:title=" ">
<polygon fill="white" stroke="#bfbfbf" points="0,-56.5 0,-75.5 112,-75.5 112,-56.5 0,-56.5"/>
<text text-anchor="middle" x="56" y="-63.5" font-family="Helvetica,sans-Serif" font-size="10.00">AMReX_iMultiFab.H</text>
</a>
</g>
</g>
<!-- Node3&#45;&gt;Node19 -->
<g id="edge39" class="edge">
<title>Node3&#45;&gt;Node19</title>
<path fill="none" stroke="midnightblue" d="M737.5,-182.53C558.84,-181.89 117.2,-175.85 68,-132 55.3,-120.68 53.29,-100.68 53.84,-85.85"/>
<polygon fill="midnightblue" stroke="midnightblue" points="57.34,-85.98 54.63,-75.74 50.36,-85.43 57.34,-85.98"/>
</g>
<!-- Node20 -->
<g id="node20" class="node">
<title>Node20</title>
<g id="a_node20"><a xlink:href="_scratch_field_8_h.html" target="_top" xlink:title=" ">
<polygon fill="white" stroke="black" points="1091,-112.5 1091,-131.5 1251,-131.5 1251,-112.5 1091,-112.5"/>
<text text-anchor="middle" x="1171" y="-119.5" font-family="Helvetica,sans-Serif" font-size="10.00">amr&#45;wind/core/ScratchField.H</text>
</a>
</g>
</g>
<!-- Node3&#45;&gt;Node20 -->
<g id="edge29" class="edge">
<title>Node3&#45;&gt;Node20</title>
<path fill="none" stroke="midnightblue" d="M863.44,-173.98C928.48,-163.19 1040.35,-144.65 1109.74,-133.15"/>
<polygon fill="midnightblue" stroke="midnightblue" points="1110.37,-136.6 1119.66,-131.51 1109.22,-129.69 1110.37,-136.6"/>
</g>
<!-- Node23 -->
<g id="node23" class="node">
<title>Node23</title>
<g id="a_node23"><a xlink:title=" ">
<polygon fill="white" stroke="#bfbfbf" points="532,-112.5 532,-131.5 642,-131.5 642,-112.5 532,-112.5"/>
<text text-anchor="middle" x="587" y="-119.5" font-family="Helvetica,sans-Serif" font-size="10.00">AMReX_AmrCore.H</text>
</a>
</g>
</g>
<!-- Node3&#45;&gt;Node23 -->
<g id="edge37" class="edge">
<title>Node3&#45;&gt;Node23</title>
<path fill="none" stroke="midnightblue" d="M779.76,-173.98C740.08,-163.48 672.6,-145.64 628.93,-134.09"/>
<polygon fill="midnightblue" stroke="midnightblue" points="629.74,-130.68 619.18,-131.51 627.95,-137.45 629.74,-130.68"/>
</g>
<!-- Node7&#45;&gt;Node6 -->
<g id="edge7" class="edge">
<title>Node7&#45;&gt;Node6</title>
<path fill="none" stroke="midnightblue" d="M1585.74,-59.48C1569.99,-58.31 1553.44,-57.1 1538,-56 1306.27,-39.5 1245.61,-38.79 1009.43,-20.01"/>
<polygon fill="midnightblue" stroke="midnightblue" points="1009.39,-16.5 999.14,-19.19 1008.83,-23.48 1009.39,-16.5"/>
</g>
<!-- Node7&#45;&gt;Node8 -->
<g id="edge8" class="edge">
<title>Node7&#45;&gt;Node8</title>
<path fill="none" stroke="midnightblue" d="M1585.98,-56.59C1495.09,-46.13 1341.28,-28.42 1254.53,-18.43"/>
<polygon fill="midnightblue" stroke="midnightblue" points="1254.89,-14.95 1244.55,-17.28 1254.09,-21.9 1254.89,-14.95"/>
</g>
<!-- Node9 -->
<g id="node9" class="node">
<title>Node9</title>
<g id="a_node9"><a xlink:title=" ">
<polygon fill="white" stroke="#bfbfbf" points="1597,-0.5 1597,-19.5 1721,-19.5 1721,-0.5 1597,-0.5"/>
<text text-anchor="middle" x="1659" y="-7.5" font-family="Helvetica,sans-Serif" font-size="10.00">AMReX_Interpolater.H</text>
</a>
</g>
</g>
<!-- Node7&#45;&gt;Node9 -->
<g id="edge9" class="edge">
<title>Node7&#45;&gt;Node9</title>
<path fill="none" stroke="midnightblue" d="M1659,-56.08C1659,-49.01 1659,-38.86 1659,-29.99"/>
<polygon fill="midnightblue" stroke="midnightblue" points="1662.5,-29.75 1659,-19.75 1655.5,-29.75 1662.5,-29.75"/>
</g>
<!-- Node10&#45;&gt;Node4 -->
<g id="edge11" class="edge">
<title>Node10&#45;&gt;Node4</title>
<path fill="none" stroke="midnightblue" d="M659.67,-112.99C656.74,-112.65 653.84,-112.32 651,-112 568.46,-102.78 352.91,-113.89 279,-76 258.21,-65.34 241.62,-43.61 231.82,-28.21"/>
<polygon fill="midnightblue" stroke="midnightblue" points="234.78,-26.35 226.61,-19.6 228.79,-29.97 234.78,-26.35"/>
</g>
<!-- Node10&#45;&gt;Node5 -->
<g id="edge13" class="edge">
<title>Node10&#45;&gt;Node5</title>
<path fill="none" stroke="midnightblue" d="M734.05,-112.32C745.46,-104.11 762.83,-91.6 776.43,-81.81"/>
<polygon fill="midnightblue" stroke="midnightblue" points="778.66,-84.52 784.73,-75.83 774.57,-78.84 778.66,-84.52"/>
</g>
<!-- Node10&#45;&gt;Node6 -->
<g id="edge19" class="edge">
<title>Node10&#45;&gt;Node6</title>
<path fill="none" stroke="midnightblue" d="M721.99,-112.05C722.47,-98.07 725.51,-71.1 741,-56 760.39,-37.1 786.74,-25.9 812.91,-19.32"/>
<polygon fill="midnightblue" stroke="midnightblue" points="813.95,-22.68 822.91,-17.03 812.38,-15.85 813.95,-22.68"/>
</g>
<!-- Node10&#45;&gt;Node8 -->
<g id="edge15" class="edge">
<title>Node10&#45;&gt;Node8</title>
<path fill="none" stroke="midnightblue" d="M784.31,-117.08C875.27,-110.76 1039.6,-96.86 1095,-76 1125.22,-64.62 1155.13,-41.72 1173.09,-26.37"/>
<polygon fill="midnightblue" stroke="midnightblue" points="1175.69,-28.75 1180.89,-19.52 1171.07,-23.48 1175.69,-28.75"/>
</g>
<!-- Node11 -->
<g id="node11" class="node">
<title>Node11</title>
<g id="a_node11"><a xlink:title=" ">
<polygon fill="white" stroke="#bfbfbf" points="448,-56.5 448,-75.5 506,-75.5 506,-56.5 448,-56.5"/>
<text text-anchor="middle" x="477" y="-63.5" font-family="Helvetica,sans-Serif" font-size="10.00">memory</text>
</a>
</g>
</g>
<!-- Node10&#45;&gt;Node11 -->
<g id="edge12" class="edge">
<title>Node10&#45;&gt;Node11</title>
<path fill="none" stroke="midnightblue" d="M681.49,-112.43C641.77,-103.96 579.22,-90.51 515.8,-76.15"/>
<polygon fill="midnightblue" stroke="midnightblue" points="516.56,-72.73 506.03,-73.93 515.01,-79.56 516.56,-72.73"/>
</g>
<!-- Node12 -->
<g id="node12" class="node">
<title>Node12</title>
<g id="a_node12"><a xlink:title=" ">
<polygon fill="white" stroke="#bfbfbf" points="524,-56.5 524,-75.5 588,-75.5 588,-56.5 524,-56.5"/>
<text text-anchor="middle" x="556" y="-63.5" font-family="Helvetica,sans-Serif" font-size="10.00">algorithm</text>
</a>
</g>
</g>
<!-- Node10&#45;&gt;Node12 -->
<g id="edge14" class="edge">
<title>Node10&#45;&gt;Node12</title>
<path fill="none" stroke="midnightblue" d="M695.7,-112.44C667.65,-103.32 623.06,-88.81 591.82,-78.65"/>
<polygon fill="midnightblue" stroke="midnightblue" points="592.77,-75.28 582.18,-75.52 590.61,-81.94 592.77,-75.28"/>
</g>
<!-- Node13 -->
<g id="node13" class="node">
<title>Node13</title>
<g id="a_node13"><a xlink:title=" ">
<polygon fill="white" stroke="#bfbfbf" points="1430.5,-56.5 1430.5,-75.5 1529.5,-75.5 1529.5,-56.5 1430.5,-56.5"/>
<text text-anchor="middle" x="1480" y="-63.5" font-family="Helvetica,sans-Serif" font-size="10.00">AMReX_BCRec.H</text>
</a>
</g>
</g>
<!-- Node10&#45;&gt;Node13 -->
<g id="edge16" class="edge">
<title>Node10&#45;&gt;Node13</title>
<path fill="none" stroke="midnightblue" d="M784.34,-118.81C905.02,-114.17 1179.13,-101.7 1420.45,-75.95"/>
<polygon fill="midnightblue" stroke="midnightblue" points="1420.9,-79.43 1430.47,-74.88 1420.15,-72.47 1420.9,-79.43"/>
</g>
<!-- Node14 -->
<g id="node14" class="node">
<title>Node14</title>
<g id="a_node14"><a xlink:title=" ">
<polygon fill="white" stroke="#bfbfbf" points="606.5,-56.5 606.5,-75.5 693.5,-75.5 693.5,-56.5 606.5,-56.5"/>
<text text-anchor="middle" x="650" y="-63.5" font-family="Helvetica,sans-Serif" font-size="10.00">AMReX_Gpu.H</text>
</a>
</g>
</g>
<!-- Node10&#45;&gt;Node14 -->
<g id="edge17" class="edge">
<title>Node10&#45;&gt;Node14</title>
<path fill="none" stroke="midnightblue" d="M710.43,-112.32C699.58,-104.18 683.12,-91.84 670.12,-82.09"/>
<polygon fill="midnightblue" stroke="midnightblue" points="671.88,-79.03 661.78,-75.83 667.68,-84.63 671.88,-79.03"/>
</g>
<!-- Node15 -->
<g id="node15" class="node">
<title>Node15</title>
<g id="a_node15"><a xlink:href="incflo__enums_8_h.html" target="_top" xlink:title=" ">
<polygon fill="white" stroke="black" points="288.5,-56.5 288.5,-75.5 429.5,-75.5 429.5,-56.5 288.5,-56.5"/>
<text text-anchor="middle" x="359" y="-63.5" font-family="Helvetica,sans-Serif" font-size="10.00">amr&#45;wind/incflo_enums.H</text>
</a>
</g>
</g>
<!-- Node10&#45;&gt;Node15 -->
<g id="edge18" class="edge">
<title>Node10&#45;&gt;Node15</title>
<path fill="none" stroke="midnightblue" d="M664.48,-112.44C599.83,-102.83 494.97,-87.23 426.5,-77.04"/>
<polygon fill="midnightblue" stroke="midnightblue" points="426.66,-73.53 416.25,-75.52 425.63,-80.45 426.66,-73.53"/>
</g>
<!-- Node16 -->
<g id="node16" class="node">
<title>Node16</title>
<g id="a_node16"><a xlink:href="_view_field_8_h.html" target="_top" xlink:title=" ">
<polygon fill="white" stroke="black" points="938,-56.5 938,-75.5 1086,-75.5 1086,-56.5 938,-56.5"/>
<text text-anchor="middle" x="1012" y="-63.5" font-family="Helvetica,sans-Serif" font-size="10.00">amr&#45;wind/core/ViewField.H</text>
</a>
</g>
</g>
<!-- Node10&#45;&gt;Node16 -->
<g id="edge20" class="edge">
<title>Node10&#45;&gt;Node16</title>
<path fill="none" stroke="midnightblue" d="M767.95,-112.44C819.07,-102.92 901.65,-87.55 956.38,-77.36"/>
<polygon fill="midnightblue" stroke="midnightblue" points="957.07,-80.79 966.26,-75.52 955.79,-73.91 957.07,-80.79"/>
</g>
<!-- Node16&#45;&gt;Node4 -->
<g id="edge21" class="edge">
<title>Node16&#45;&gt;Node4</title>
<path fill="none" stroke="midnightblue" d="M937.72,-59.65C920.72,-58.44 902.74,-57.16 886,-56 643.22,-39.1 350.44,-19.55 254.3,-13.15"/>
<polygon fill="midnightblue" stroke="midnightblue" points="254.28,-9.64 244.07,-12.47 253.81,-16.62 254.28,-9.64"/>
</g>
<!-- Node16&#45;&gt;Node6 -->
<g id="edge22" class="edge">
<title>Node16&#45;&gt;Node6</title>
<path fill="none" stroke="midnightblue" d="M995.77,-56.32C979.65,-47.7 954.7,-34.36 936.04,-24.39"/>
<polygon fill="midnightblue" stroke="midnightblue" points="937.66,-21.28 927.19,-19.65 934.36,-27.46 937.66,-21.28"/>
</g>
<!-- Node16&#45;&gt;Node8 -->
<g id="edge23" class="edge">
<title>Node16&#45;&gt;Node8</title>
<path fill="none" stroke="midnightblue" d="M1040.2,-56.44C1070.41,-47.28 1118.51,-32.69 1152.03,-22.52"/>
<polygon fill="midnightblue" stroke="midnightblue" points="1153.37,-25.77 1161.93,-19.52 1151.34,-19.07 1153.37,-25.77"/>
</g>
<!-- Node17 -->
<g id="node17" class="node">
<title>Node17</title>
<g id="a_node17"><a xlink:title=" ">
<polygon fill="white" stroke="#bfbfbf" points="1018,-0.5 1018,-19.5 1116,-19.5 1116,-0.5 1018,-0.5"/>
<text text-anchor="middle" x="1067" y="-7.5" font-family="Helvetica,sans-Serif" font-size="10.00">AMReX_Vector.H</text>
</a>
</g>
</g>
<!-- Node16&#45;&gt;Node17 -->
<g id="edge24" class="edge">
<title>Node16&#45;&gt;Node17</title>
<path fill="none" stroke="midnightblue" d="M1021.08,-56.08C1029.17,-48.14 1041.2,-36.34 1050.91,-26.8"/>
<polygon fill="midnightblue" stroke="midnightblue" points="1053.4,-29.25 1058.09,-19.75 1048.5,-24.26 1053.4,-29.25"/>
</g>
<!-- Node18&#45;&gt;Node4 -->
<g id="edge26" class="edge">
<title>Node18&#45;&gt;Node4</title>
<path fill="none" stroke="midnightblue" d="M147.73,-112.36C150.66,-99.26 157.54,-74 170,-56 178.18,-44.19 190.15,-33.54 200.55,-25.57"/>
<polygon fill="midnightblue" stroke="midnightblue" points="202.79,-28.27 208.8,-19.54 198.66,-22.62 202.79,-28.27"/>
</g>
<!-- Node18&#45;&gt;Node6 -->
<g id="edge27" class="edge">
<title>Node18&#45;&gt;Node6</title>
<path fill="none" stroke="midnightblue" d="M159.29,-112.34C182.49,-97.72 232.34,-68.55 279,-56 376.8,-29.69 660.91,-17.94 812.69,-13.43"/>
<polygon fill="midnightblue" stroke="midnightblue" points="813.05,-16.92 822.94,-13.13 812.84,-9.92 813.05,-16.92"/>
</g>
<!-- Node18&#45;&gt;Node19 -->
<g id="edge28" class="edge">
<title>Node18&#45;&gt;Node19</title>
<path fill="none" stroke="midnightblue" d="M131.54,-112.32C117.5,-103.9 95.95,-90.97 79.46,-81.07"/>
<polygon fill="midnightblue" stroke="midnightblue" points="80.8,-77.8 70.42,-75.65 77.2,-83.8 80.8,-77.8"/>
</g>
<!-- Node20&#45;&gt;Node4 -->
<g id="edge30" class="edge">
<title>Node20&#45;&gt;Node4</title>
<path fill="none" stroke="midnightblue" d="M1119.33,-112.47C1070.19,-104.11 994.28,-90.53 929,-76 894.49,-68.32 886.89,-61.73 852,-56 625.36,-18.79 347.84,-12.35 254.43,-11.23"/>
<polygon fill="midnightblue" stroke="midnightblue" points="254.25,-7.73 244.21,-11.12 254.17,-14.73 254.25,-7.73"/>
</g>
<!-- Node20&#45;&gt;Node6 -->
<g id="edge32" class="edge">
<title>Node20&#45;&gt;Node6</title>
<path fill="none" stroke="midnightblue" d="M1163.51,-112.38C1150.84,-98.37 1123.74,-70.73 1095,-56 1061.71,-38.93 1021.66,-28.15 987.45,-21.43"/>
<polygon fill="midnightblue" stroke="midnightblue" points="987.97,-17.97 977.5,-19.56 986.68,-24.85 987.97,-17.97"/>
</g>
<!-- Node20&#45;&gt;Node8 -->
<g id="edge34" class="edge">
<title>Node20&#45;&gt;Node8</title>
<path fill="none" stroke="midnightblue" d="M1172.49,-112.37C1175.56,-94.62 1182.63,-53.67 1186.79,-29.6"/>
<polygon fill="midnightblue" stroke="midnightblue" points="1190.26,-30.04 1188.52,-19.59 1183.36,-28.85 1190.26,-30.04"/>
</g>
<!-- Node20&#45;&gt;Node16 -->
<g id="edge33" class="edge">
<title>Node20&#45;&gt;Node16</title>
<path fill="none" stroke="midnightblue" d="M1145.81,-112.44C1119.06,-103.36 1076.6,-88.94 1046.69,-78.78"/>
<polygon fill="midnightblue" stroke="midnightblue" points="1047.67,-75.42 1037.08,-75.52 1045.42,-82.05 1047.67,-75.42"/>
</g>
<!-- Node20&#45;&gt;Node17 -->
<g id="edge35" class="edge">
<title>Node20&#45;&gt;Node17</title>
<path fill="none" stroke="midnightblue" d="M1251.31,-118.88C1371.03,-114.27 1578.22,-99.89 1538,-56 1508.47,-23.78 1203.65,-25.23 1126.27,-19.67"/>
<polygon fill="midnightblue" stroke="midnightblue" points="1126.5,-16.17 1116.22,-18.75 1125.86,-23.15 1126.5,-16.17"/>
</g>
<!-- Node21 -->
<g id="node21" class="node">
<title>Node21</title>
<g id="a_node21"><a xlink:title=" ">
<polygon fill="white" stroke="#bfbfbf" points="1218.5,-56.5 1218.5,-75.5 1263.5,-75.5 1263.5,-56.5 1218.5,-56.5"/>
<text text-anchor="middle" x="1241" y="-63.5" font-family="Helvetica,sans-Serif" font-size="10.00">utility</text>
</a>
</g>
</g>
<!-- Node20&#45;&gt;Node21 -->
<g id="edge31" class="edge">
<title>Node20&#45;&gt;Node21</title>
<path fill="none" stroke="midnightblue" d="M1182.25,-112.32C1192.8,-104.18 1208.8,-91.84 1221.44,-82.09"/>
<polygon fill="midnightblue" stroke="midnightblue" points="1223.77,-84.71 1229.55,-75.83 1219.49,-79.17 1223.77,-84.71"/>
</g>
<!-- Node22 -->
<g id="node22" class="node">
<title>Node22</title>
<g id="a_node22"><a xlink:title=" ">
<polygon fill="white" stroke="#bfbfbf" points="1281.5,-56.5 1281.5,-75.5 1412.5,-75.5 1412.5,-56.5 1281.5,-56.5"/>
<text text-anchor="middle" x="1347" y="-63.5" font-family="Helvetica,sans-Serif" font-size="10.00">AMReX_PhysBCFunct.H</text>
</a>
</g>
</g>
<!-- Node20&#45;&gt;Node22 -->
<g id="edge36" class="edge">
<title>Node20&#45;&gt;Node22</title>
<path fill="none" stroke="midnightblue" d="M1198.89,-112.44C1228.75,-103.28 1276.31,-88.69 1309.46,-78.52"/>
<polygon fill="midnightblue" stroke="midnightblue" points="1310.71,-81.8 1319.24,-75.52 1308.66,-75.1 1310.71,-81.8"/>
</g>
<!-- Node24&#45;&gt;Node13 -->
<g id="edge45" class="edge">
<title>Node24&#45;&gt;Node13</title>
<path fill="none" stroke="midnightblue" d="M1808.66,-235.48C1741.91,-201.27 1571.35,-113.83 1506.01,-80.33"/>
<polygon fill="midnightblue" stroke="midnightblue" points="1507.3,-77.06 1496.81,-75.62 1504.11,-83.29 1507.3,-77.06"/>
</g>
<!-- Node25 -->
<g id="node25" class="node">
<title>Node25</title>
<g id="a_node25"><a xlink:href="volume__fractions_8_h.html" target="_top" xlink:title=" ">
<polygon fill="white" stroke="black" points="1864.5,-168.5 1864.5,-198.5 2019.5,-198.5 2019.5,-168.5 1864.5,-168.5"/>
<text text-anchor="start" x="1872.5" y="-186.5" font-family="Helvetica,sans-Serif" font-size="10.00">amr&#45;wind/equation_systems</text>
<text text-anchor="middle" x="1942" y="-175.5" font-family="Helvetica,sans-Serif" font-size="10.00">/vof/volume_fractions.H</text>
</a>
</g>
</g>
<!-- Node24&#45;&gt;Node25 -->
<g id="edge41" class="edge">
<title>Node24&#45;&gt;Node25</title>
<path fill="none" stroke="midnightblue" d="M1859,-235.4C1874,-226.2 1893.79,-214.07 1910.27,-203.95"/>
<polygon fill="midnightblue" stroke="midnightblue" points="1912.35,-206.79 1919.04,-198.58 1908.69,-200.82 1912.35,-206.79"/>
</g>
<!-- Node26 -->
<g id="node26" class="node">
<title>Node26</title>
<g id="a_node26"><a xlink:title=" ">
<polygon fill="white" stroke="#bfbfbf" points="1963.5,-112.5 1963.5,-131.5 2080.5,-131.5 2080.5,-112.5 1963.5,-112.5"/>
<text text-anchor="middle" x="2022" y="-119.5" font-family="Helvetica,sans-Serif" font-size="10.00">AMReX_FArrayBox.H</text>
</a>
</g>
</g>
<!-- Node24&#45;&gt;Node26 -->
<g id="edge44" class="edge">
<title>Node24&#45;&gt;Node26</title>
<path fill="none" stroke="midnightblue" d="M1905.79,-235.46C1957.47,-224.35 2020.23,-209.08 2028,-199 2040.6,-182.66 2035.63,-158.05 2029.82,-141.29"/>
<polygon fill="midnightblue" stroke="midnightblue" points="2032.93,-139.64 2026.05,-131.58 2026.4,-142.17 2032.93,-139.64"/>
</g>
<!-- Node27 -->
<g id="node27" class="node">
<title>Node27</title>
<g id="a_node27"><a xlink:title=" ">
<polygon fill="white" stroke="#bfbfbf" points="1872.5,-112.5 1872.5,-131.5 1919.5,-131.5 1919.5,-112.5 1872.5,-112.5"/>
<text text-anchor="middle" x="1896" y="-119.5" font-family="Helvetica,sans-Serif" font-size="10.00">cmath</text>
</a>
</g>
</g>
<!-- Node24&#45;&gt;Node27 -->
<g id="edge46" class="edge">
<title>Node24&#45;&gt;Node27</title>
<path fill="none" stroke="midnightblue" d="M1837.1,-235.49C1838.9,-218.63 1843.51,-189.86 1855,-168 1860.81,-156.94 1870,-146.5 1878.21,-138.46"/>
<polygon fill="midnightblue" stroke="midnightblue" points="1880.69,-140.93 1885.63,-131.55 1875.93,-135.8 1880.69,-140.93"/>
</g>
<!-- Node25&#45;&gt;Node26 -->
<g id="edge42" class="edge">
<title>Node25&#45;&gt;Node26</title>
<path fill="none" stroke="midnightblue" d="M1960.96,-168.4C1973.42,-159.13 1989.7,-147.03 2002.31,-137.65"/>
<polygon fill="midnightblue" stroke="midnightblue" points="2004.42,-140.43 2010.36,-131.66 2000.25,-134.82 2004.42,-140.43"/>
</g>
<!-- Node25&#45;&gt;Node27 -->
<g id="edge43" class="edge">
<title>Node25&#45;&gt;Node27</title>
<path fill="none" stroke="midnightblue" d="M1931.1,-168.4C1924.41,-159.75 1915.82,-148.64 1908.82,-139.58"/>
<polygon fill="midnightblue" stroke="midnightblue" points="1911.58,-137.43 1902.69,-131.66 1906.04,-141.71 1911.58,-137.43"/>
</g>
</g>
</svg>
