<?xml version="1.0" encoding="UTF-8" standalone="no"?>
<!DOCTYPE svg PUBLIC "-//W3C//DTD SVG 1.1//EN"
 "http://www.w3.org/Graphics/SVG/1.1/DTD/svg11.dtd">
<!-- Generated by graphviz version 2.43.0 (0)
 -->
<!-- Title: SynthTurbForcing.cpp Pages: 1 -->
<svg width="2464pt" height="408pt"
 viewBox="0.00 0.00 2464.37 408.00" xmlns="http://www.w3.org/2000/svg" xmlns:xlink="http://www.w3.org/1999/xlink">
<g id="graph0" class="graph" transform="scale(1 1) rotate(0) translate(4 404)">
<title>SynthTurbForcing.cpp</title>
<polygon fill="white" stroke="transparent" points="-4,4 -4,-404 2460.37,-404 2460.37,4 -4,4"/>
<!-- Node1 -->
<g id="node1" class="node">
<title>Node1</title>
<g id="a_node1"><a xlink:title=" ">
<polygon fill="#bfbfbf" stroke="black" points="1011.82,-380.5 1011.82,-399.5 1131.82,-399.5 1131.82,-380.5 1011.82,-380.5"/>
<text text-anchor="middle" x="1071.82" y="-387.5" font-family="Helvetica,sans-Serif" font-size="10.00">SynthTurbForcing.cpp</text>
</a>
</g>
</g>
<!-- Node2 -->
<g id="node2" class="node">
<title>Node2</title>
<g id="a_node2"><a xlink:href="_synth_turb_forcing_8_h.html" target="_top" xlink:title=" ">
<polygon fill="white" stroke="black" points="697.32,-313.5 697.32,-343.5 902.32,-343.5 902.32,-313.5 697.32,-313.5"/>
<text text-anchor="start" x="705.32" y="-331.5" font-family="Helvetica,sans-Serif" font-size="10.00">amr&#45;wind/equation_systems</text>
<text text-anchor="middle" x="799.82" y="-320.5" font-family="Helvetica,sans-Serif" font-size="10.00">/icns/source_terms/SynthTurbForcing.H</text>
</a>
</g>
</g>
<!-- Node1&#45;&gt;Node2 -->
<g id="edge1" class="edge">
<title>Node1&#45;&gt;Node2</title>
<path fill="none" stroke="midnightblue" d="M1032.85,-380.48C991.54,-371.44 925.3,-356.95 873.98,-345.72"/>
<polygon fill="midnightblue" stroke="midnightblue" points="874.45,-342.24 863.93,-343.52 872.95,-349.08 874.45,-342.24"/>
</g>
<!-- Node19 -->
<g id="node19" class="node">
<title>Node19</title>
<g id="a_node19"><a xlink:title=" ">
<polygon fill="white" stroke="#bfbfbf" points="1145.32,-56.5 1145.32,-75.5 1232.32,-75.5 1232.32,-56.5 1145.32,-56.5"/>
<text text-anchor="middle" x="1188.82" y="-63.5" font-family="Helvetica,sans-Serif" font-size="10.00">AMReX_Gpu.H</text>
</a>
</g>
</g>
<!-- Node1&#45;&gt;Node19 -->
<g id="edge80" class="edge">
<title>Node1&#45;&gt;Node19</title>
<path fill="none" stroke="midnightblue" d="M1071.82,-380.41C1071.82,-359.98 1071.82,-306.86 1071.82,-262.5 1071.82,-262.5 1071.82,-262.5 1071.82,-193.5 1071.82,-156.31 1067.3,-140.81 1090.82,-112 1103.67,-96.27 1123.23,-85.78 1141.51,-78.93"/>
<polygon fill="midnightblue" stroke="midnightblue" points="1142.89,-82.16 1151.19,-75.58 1140.6,-75.54 1142.89,-82.16"/>
</g>
<!-- Node29 -->
<g id="node29" class="node">
<title>Node29</title>
<g id="a_node29"><a xlink:href="_c_f_d_sim_8_h.html" target="_top" xlink:title=" ">
<polygon fill="white" stroke="black" points="1251.82,-252 1251.82,-271 1367.82,-271 1367.82,-252 1251.82,-252"/>
<text text-anchor="middle" x="1309.82" y="-259" font-family="Helvetica,sans-Serif" font-size="10.00">amr&#45;wind/CFDSim.H</text>
</a>
</g>
</g>
<!-- Node1&#45;&gt;Node29 -->
<g id="edge50" class="edge">
<title>Node1&#45;&gt;Node29</title>
<path fill="none" stroke="midnightblue" d="M1088.18,-380.31C1129.04,-358.59 1235.79,-301.85 1284.69,-275.86"/>
<polygon fill="midnightblue" stroke="midnightblue" points="1286.48,-278.87 1293.67,-271.09 1283.19,-272.69 1286.48,-278.87"/>
</g>
<!-- Node3 -->
<g id="node3" class="node">
<title>Node3</title>
<g id="a_node3"><a xlink:href="_momentum_source_8_h.html" target="_top" xlink:title=" ">
<polygon fill="white" stroke="black" points="271.32,-246.5 271.32,-276.5 426.32,-276.5 426.32,-246.5 271.32,-246.5"/>
<text text-anchor="start" x="279.32" y="-264.5" font-family="Helvetica,sans-Serif" font-size="10.00">amr&#45;wind/equation_systems</text>
<text text-anchor="middle" x="348.82" y="-253.5" font-family="Helvetica,sans-Serif" font-size="10.00">/icns/MomentumSource.H</text>
</a>
</g>
</g>
<!-- Node2&#45;&gt;Node3 -->
<g id="edge2" class="edge">
<title>Node2&#45;&gt;Node3</title>
<path fill="none" stroke="midnightblue" d="M702.52,-313.48C623.46,-302.08 512.93,-286.15 436.57,-275.15"/>
<polygon fill="midnightblue" stroke="midnightblue" points="436.89,-271.66 426.49,-273.69 435.89,-278.59 436.89,-271.66"/>
</g>
<!-- Node4 -->
<g id="node4" class="node">
<title>Node4</title>
<g id="a_node4"><a xlink:href="_factory_8_h.html" target="_top" xlink:title=" ">
<polygon fill="white" stroke="black" points="1978.82,-118 1978.82,-137 2112.82,-137 2112.82,-118 1978.82,-118"/>
<text text-anchor="middle" x="2045.82" y="-125" font-family="Helvetica,sans-Serif" font-size="10.00">amr&#45;wind/core/Factory.H</text>
</a>
</g>
</g>
<!-- Node3&#45;&gt;Node4 -->
<g id="edge3" class="edge">
<title>Node3&#45;&gt;Node4</title>
<path fill="none" stroke="midnightblue" d="M426.57,-259.23C734.57,-254.06 1855.96,-233.67 1927.82,-210 1968.95,-196.45 2008.66,-163.7 2029.89,-144.09"/>
<polygon fill="midnightblue" stroke="midnightblue" points="2032.47,-146.46 2037.33,-137.05 2027.66,-141.38 2032.47,-146.46"/>
</g>
<!-- Node10 -->
<g id="node10" class="node">
<title>Node10</title>
<g id="a_node10"><a xlink:href="_field_desc_types_8_h.html" target="_top" xlink:title=" ">
<polygon fill="white" stroke="black" points="356.82,-0.5 356.82,-19.5 532.82,-19.5 532.82,-0.5 356.82,-0.5"/>
<text text-anchor="middle" x="444.82" y="-7.5" font-family="Helvetica,sans-Serif" font-size="10.00">amr&#45;wind/core/FieldDescTypes.H</text>
</a>
</g>
</g>
<!-- Node3&#45;&gt;Node10 -->
<g id="edge9" class="edge">
<title>Node3&#45;&gt;Node10</title>
<path fill="none" stroke="midnightblue" d="M271.21,-259.17C187.99,-255.9 63.74,-245.09 33.82,-210 -10.58,-157.91 -11.86,-106.96 33.82,-56 54.35,-33.11 231.49,-20.7 346.42,-15"/>
<polygon fill="midnightblue" stroke="midnightblue" points="346.83,-18.48 356.65,-14.5 346.49,-11.49 346.83,-18.48"/>
</g>
<!-- Node11 -->
<g id="node11" class="node">
<title>Node11</title>
<g id="a_node11"><a xlink:href="_field_utils_8_h.html" target="_top" xlink:title=" ">
<polygon fill="white" stroke="black" points="98.82,-118 98.82,-137 244.82,-137 244.82,-118 98.82,-118"/>
<text text-anchor="middle" x="171.82" y="-125" font-family="Helvetica,sans-Serif" font-size="10.00">amr&#45;wind/core/FieldUtils.H</text>
</a>
</g>
</g>
<!-- Node3&#45;&gt;Node11 -->
<g id="edge10" class="edge">
<title>Node3&#45;&gt;Node11</title>
<path fill="none" stroke="midnightblue" d="M329.88,-246.37C296.15,-221.22 226.01,-168.91 191.65,-143.29"/>
<polygon fill="midnightblue" stroke="midnightblue" points="193.46,-140.27 183.35,-137.1 189.28,-145.88 193.46,-140.27"/>
</g>
<!-- Node12 -->
<g id="node12" class="node">
<title>Node12</title>
<g id="a_node12"><a xlink:title=" ">
<polygon fill="white" stroke="#bfbfbf" points="833.32,-0.5 833.32,-19.5 942.32,-19.5 942.32,-0.5 833.32,-0.5"/>
<text text-anchor="middle" x="887.82" y="-7.5" font-family="Helvetica,sans-Serif" font-size="10.00">AMReX_MultiFab.H</text>
</a>
</g>
</g>
<!-- Node3&#45;&gt;Node12 -->
<g id="edge49" class="edge">
<title>Node3&#45;&gt;Node12</title>
<path fill="none" stroke="midnightblue" d="M296.96,-246.48C194.99,-216.6 -14.87,-142.3 66.82,-56 79.79,-42.31 630.99,-20.55 822.82,-13.38"/>
<polygon fill="midnightblue" stroke="midnightblue" points="823.18,-16.87 833.04,-13 822.92,-9.87 823.18,-16.87"/>
</g>
<!-- Node14 -->
<g id="node14" class="node">
<title>Node14</title>
<g id="a_node14"><a xlink:href="_field_repo_8_h.html" target="_top" xlink:title=" ">
<polygon fill="white" stroke="black" points="571.32,-185 571.32,-204 720.32,-204 720.32,-185 571.32,-185"/>
<text text-anchor="middle" x="645.82" y="-192" font-family="Helvetica,sans-Serif" font-size="10.00">amr&#45;wind/core/FieldRepo.H</text>
</a>
</g>
</g>
<!-- Node3&#45;&gt;Node14 -->
<g id="edge14" class="edge">
<title>Node3&#45;&gt;Node14</title>
<path fill="none" stroke="midnightblue" d="M412.9,-246.48C468.1,-234.4 546.61,-217.21 596.88,-206.21"/>
<polygon fill="midnightblue" stroke="midnightblue" points="597.83,-209.59 606.85,-204.03 596.34,-202.75 597.83,-209.59"/>
</g>
<!-- Node5 -->
<g id="node5" class="node">
<title>Node5</title>
<g id="a_node5"><a xlink:title=" ">
<polygon fill="white" stroke="#bfbfbf" points="2166.82,-56.5 2166.82,-75.5 2224.82,-75.5 2224.82,-56.5 2166.82,-56.5"/>
<text text-anchor="middle" x="2195.82" y="-63.5" font-family="Helvetica,sans-Serif" font-size="10.00">memory</text>
</a>
</g>
</g>
<!-- Node4&#45;&gt;Node5 -->
<g id="edge4" class="edge">
<title>Node4&#45;&gt;Node5</title>
<path fill="none" stroke="midnightblue" d="M2067.32,-117.98C2092.93,-107.81 2135.93,-90.76 2165.07,-79.2"/>
<polygon fill="midnightblue" stroke="midnightblue" points="2166.37,-82.45 2174.37,-75.51 2163.79,-75.94 2166.37,-82.45"/>
</g>
<!-- Node6 -->
<g id="node6" class="node">
<title>Node6</title>
<g id="a_node6"><a xlink:title=" ">
<polygon fill="white" stroke="#bfbfbf" points="1829.32,-56.5 1829.32,-75.5 1922.32,-75.5 1922.32,-56.5 1829.32,-56.5"/>
<text text-anchor="middle" x="1875.82" y="-63.5" font-family="Helvetica,sans-Serif" font-size="10.00">unordered_map</text>
</a>
</g>
</g>
<!-- Node4&#45;&gt;Node6 -->
<g id="edge5" class="edge">
<title>Node4&#45;&gt;Node6</title>
<path fill="none" stroke="midnightblue" d="M2021.47,-117.98C1992.18,-107.72 1942.85,-90.46 1909.82,-78.9"/>
<polygon fill="midnightblue" stroke="midnightblue" points="1910.73,-75.51 1900.14,-75.51 1908.42,-82.12 1910.73,-75.51"/>
</g>
<!-- Node7 -->
<g id="node7" class="node">
<title>Node7</title>
<g id="a_node7"><a xlink:title=" ">
<polygon fill="white" stroke="#bfbfbf" points="2242.82,-56.5 2242.82,-75.5 2302.82,-75.5 2302.82,-56.5 2242.82,-56.5"/>
<text text-anchor="middle" x="2272.82" y="-63.5" font-family="Helvetica,sans-Serif" font-size="10.00">iostream</text>
</a>
</g>
</g>
<!-- Node4&#45;&gt;Node7 -->
<g id="edge6" class="edge">
<title>Node4&#45;&gt;Node7</title>
<path fill="none" stroke="midnightblue" d="M2078.35,-117.98C2119.06,-107.3 2188.79,-89.03 2232.76,-77.5"/>
<polygon fill="midnightblue" stroke="midnightblue" points="2233.75,-80.86 2242.54,-74.94 2231.98,-74.09 2233.75,-80.86"/>
</g>
<!-- Node8 -->
<g id="node8" class="node">
<title>Node8</title>
<g id="a_node8"><a xlink:title=" ">
<polygon fill="white" stroke="#bfbfbf" points="1978.82,-56.5 1978.82,-75.5 2068.82,-75.5 2068.82,-56.5 1978.82,-56.5"/>
<text text-anchor="middle" x="2023.82" y="-63.5" font-family="Helvetica,sans-Serif" font-size="10.00">AMReX_Print.H</text>
</a>
</g>
</g>
<!-- Node4&#45;&gt;Node8 -->
<g id="edge7" class="edge">
<title>Node4&#45;&gt;Node8</title>
<path fill="none" stroke="midnightblue" d="M2042.67,-117.98C2039.5,-109.4 2034.52,-95.93 2030.47,-84.98"/>
<polygon fill="midnightblue" stroke="midnightblue" points="2033.72,-83.67 2026.97,-75.51 2027.16,-86.1 2033.72,-83.67"/>
</g>
<!-- Node9 -->
<g id="node9" class="node">
<title>Node9</title>
<g id="a_node9"><a xlink:title=" ">
<polygon fill="white" stroke="#bfbfbf" points="2086.82,-56.5 2086.82,-75.5 2148.82,-75.5 2148.82,-56.5 2086.82,-56.5"/>
<text text-anchor="middle" x="2117.82" y="-63.5" font-family="Helvetica,sans-Serif" font-size="10.00">AMReX.H</text>
</a>
</g>
</g>
<!-- Node4&#45;&gt;Node9 -->
<g id="edge8" class="edge">
<title>Node4&#45;&gt;Node9</title>
<path fill="none" stroke="midnightblue" d="M2056.14,-117.98C2067.47,-108.61 2085.9,-93.38 2099.66,-82.01"/>
<polygon fill="midnightblue" stroke="midnightblue" points="2102.05,-84.58 2107.53,-75.51 2097.59,-79.18 2102.05,-84.58"/>
</g>
<!-- Node11&#45;&gt;Node10 -->
<g id="edge11" class="edge">
<title>Node11&#45;&gt;Node10</title>
<path fill="none" stroke="midnightblue" d="M179.21,-117.59C192.24,-102.49 220.88,-71.94 251.82,-56 285.37,-38.72 325.59,-27.99 360.62,-21.36"/>
<polygon fill="midnightblue" stroke="midnightblue" points="361.61,-24.74 370.83,-19.52 360.37,-17.85 361.61,-24.74"/>
</g>
<!-- Node11&#45;&gt;Node12 -->
<g id="edge12" class="edge">
<title>Node11&#45;&gt;Node12</title>
<path fill="none" stroke="midnightblue" d="M192.35,-117.98C229.98,-102.76 312.85,-71.08 385.82,-56 540.43,-24.04 726.47,-14.78 822.83,-12.09"/>
<polygon fill="midnightblue" stroke="midnightblue" points="823.1,-15.59 833,-11.83 822.91,-8.59 823.1,-15.59"/>
</g>
<!-- Node13 -->
<g id="node13" class="node">
<title>Node13</title>
<g id="a_node13"><a xlink:title=" ">
<polygon fill="white" stroke="#bfbfbf" points="75.82,-56.5 75.82,-75.5 199.82,-75.5 199.82,-56.5 75.82,-56.5"/>
<text text-anchor="middle" x="137.82" y="-63.5" font-family="Helvetica,sans-Serif" font-size="10.00">AMReX_Interpolater.H</text>
</a>
</g>
</g>
<!-- Node11&#45;&gt;Node13 -->
<g id="edge13" class="edge">
<title>Node11&#45;&gt;Node13</title>
<path fill="none" stroke="midnightblue" d="M166.95,-117.98C161.95,-109.23 154.03,-95.37 147.71,-84.31"/>
<polygon fill="midnightblue" stroke="midnightblue" points="150.69,-82.46 142.69,-75.51 144.61,-85.93 150.69,-82.46"/>
</g>
<!-- Node14&#45;&gt;Node6 -->
<g id="edge16" class="edge">
<title>Node14&#45;&gt;Node6</title>
<path fill="none" stroke="midnightblue" d="M720.57,-185.54C768.25,-178.55 830.51,-165.78 881.82,-143 903.36,-133.44 902.55,-119.69 924.82,-112 1109.95,-48.09 1605.45,-94.28 1818.87,-75.89"/>
<polygon fill="midnightblue" stroke="midnightblue" points="1819.5,-79.35 1829.13,-74.93 1818.85,-72.38 1819.5,-79.35"/>
</g>
<!-- Node14&#45;&gt;Node10 -->
<g id="edge17" class="edge">
<title>Node14&#45;&gt;Node10</title>
<path fill="none" stroke="midnightblue" d="M570.98,-192.87C484.19,-190.37 348.91,-180.38 316.82,-143 277.45,-97.13 366.38,-46.89 415.33,-23.85"/>
<polygon fill="midnightblue" stroke="midnightblue" points="416.91,-26.97 424.54,-19.61 413.99,-20.61 416.91,-26.97"/>
</g>
<!-- Node14&#45;&gt;Node11 -->
<g id="edge18" class="edge">
<title>Node14&#45;&gt;Node11</title>
<path fill="none" stroke="midnightblue" d="M574.75,-184.99C497.04,-175.51 368.91,-159.35 258.82,-143 249.81,-141.66 240.29,-140.16 230.99,-138.65"/>
<polygon fill="midnightblue" stroke="midnightblue" points="231.44,-135.18 221.01,-137.01 230.31,-142.08 231.44,-135.18"/>
</g>
<!-- Node14&#45;&gt;Node12 -->
<g id="edge47" class="edge">
<title>Node14&#45;&gt;Node12</title>
<path fill="none" stroke="midnightblue" d="M638.49,-184.97C619.28,-161.55 571.19,-95.41 604.82,-56 632.28,-23.84 748.07,-14.55 822.77,-11.93"/>
<polygon fill="midnightblue" stroke="midnightblue" points="823.14,-15.42 833.02,-11.61 822.92,-8.43 823.14,-15.42"/>
</g>
<!-- Node15 -->
<g id="node15" class="node">
<title>Node15</title>
<g id="a_node15"><a xlink:title=" ">
<polygon fill="white" stroke="#bfbfbf" points="1037.82,-0.5 1037.82,-19.5 1081.82,-19.5 1081.82,-0.5 1037.82,-0.5"/>
<text text-anchor="middle" x="1059.82" y="-7.5" font-family="Helvetica,sans-Serif" font-size="10.00">string</text>
</a>
</g>
</g>
<!-- Node14&#45;&gt;Node15 -->
<g id="edge15" class="edge">
<title>Node14&#45;&gt;Node15</title>
<path fill="none" stroke="midnightblue" d="M702.07,-185C742.17,-177.51 796.59,-164.39 840.82,-143 861.39,-133.06 861.08,-121.56 881.82,-112 949.6,-80.77 993.16,-128.87 1045.82,-76 1057.78,-64 1060.63,-44.39 1060.88,-29.85"/>
<polygon fill="midnightblue" stroke="midnightblue" points="1064.37,-29.43 1060.65,-19.51 1057.38,-29.58 1064.37,-29.43"/>
</g>
<!-- Node16 -->
<g id="node16" class="node">
<title>Node16</title>
<g id="a_node16"><a xlink:href="_field_8_h.html" target="_top" xlink:title=" ">
<polygon fill="white" stroke="black" points="1495.82,-118 1495.82,-137 1619.82,-137 1619.82,-118 1495.82,-118"/>
<text text-anchor="middle" x="1557.82" y="-125" font-family="Helvetica,sans-Serif" font-size="10.00">amr&#45;wind/core/Field.H</text>
</a>
</g>
</g>
<!-- Node14&#45;&gt;Node16 -->
<g id="edge19" class="edge">
<title>Node14&#45;&gt;Node16</title>
<path fill="none" stroke="midnightblue" d="M720.41,-192.56C867.58,-189.92 1205.48,-179.99 1486.82,-143 1494.72,-141.96 1503.05,-140.55 1511.11,-139.02"/>
<polygon fill="midnightblue" stroke="midnightblue" points="1512.02,-142.41 1521.14,-137.02 1510.65,-135.54 1512.02,-142.41"/>
</g>
<!-- Node23 -->
<g id="node23" class="node">
<title>Node23</title>
<g id="a_node23"><a xlink:href="_int_field_8_h.html" target="_top" xlink:title=" ">
<polygon fill="white" stroke="black" points="326.32,-118 326.32,-137 463.32,-137 463.32,-118 326.32,-118"/>
<text text-anchor="middle" x="394.82" y="-125" font-family="Helvetica,sans-Serif" font-size="10.00">amr&#45;wind/core/IntField.H</text>
</a>
</g>
</g>
<!-- Node14&#45;&gt;Node23 -->
<g id="edge34" class="edge">
<title>Node14&#45;&gt;Node23</title>
<path fill="none" stroke="midnightblue" d="M612.75,-184.94C567.79,-173.29 487.32,-152.45 437.75,-139.62"/>
<polygon fill="midnightblue" stroke="midnightblue" points="438.53,-136.2 427.97,-137.08 436.77,-142.98 438.53,-136.2"/>
</g>
<!-- Node24 -->
<g id="node24" class="node">
<title>Node24</title>
<g id="a_node24"><a xlink:title=" ">
<polygon fill="white" stroke="#bfbfbf" points="407.82,-56.5 407.82,-75.5 519.82,-75.5 519.82,-56.5 407.82,-56.5"/>
<text text-anchor="middle" x="463.82" y="-63.5" font-family="Helvetica,sans-Serif" font-size="10.00">AMReX_iMultiFab.H</text>
</a>
</g>
</g>
<!-- Node14&#45;&gt;Node24 -->
<g id="edge48" class="edge">
<title>Node14&#45;&gt;Node24</title>
<path fill="none" stroke="midnightblue" d="M619.34,-184.99C595.58,-176.59 560.46,-162.22 533.82,-143 510.5,-126.17 488.94,-100.62 476.08,-83.86"/>
<polygon fill="midnightblue" stroke="midnightblue" points="478.67,-81.48 469.87,-75.57 473.06,-85.68 478.67,-81.48"/>
</g>
<!-- Node25 -->
<g id="node25" class="node">
<title>Node25</title>
<g id="a_node25"><a xlink:href="_scratch_field_8_h.html" target="_top" xlink:title=" ">
<polygon fill="white" stroke="black" points="671.82,-118 671.82,-137 831.82,-137 831.82,-118 671.82,-118"/>
<text text-anchor="middle" x="751.82" y="-125" font-family="Helvetica,sans-Serif" font-size="10.00">amr&#45;wind/core/ScratchField.H</text>
</a>
</g>
</g>
<!-- Node14&#45;&gt;Node25 -->
<g id="edge38" class="edge">
<title>Node14&#45;&gt;Node25</title>
<path fill="none" stroke="midnightblue" d="M660.12,-184.73C677.84,-173.87 708.26,-155.22 729.17,-142.39"/>
<polygon fill="midnightblue" stroke="midnightblue" points="731.06,-145.34 737.75,-137.13 727.4,-139.37 731.06,-145.34"/>
</g>
<!-- Node28 -->
<g id="node28" class="node">
<title>Node28</title>
<g id="a_node28"><a xlink:title=" ">
<polygon fill="white" stroke="#bfbfbf" points="933.82,-118 933.82,-137 1043.82,-137 1043.82,-118 933.82,-118"/>
<text text-anchor="middle" x="988.82" y="-125" font-family="Helvetica,sans-Serif" font-size="10.00">AMReX_AmrCore.H</text>
</a>
</g>
</g>
<!-- Node14&#45;&gt;Node28 -->
<g id="edge46" class="edge">
<title>Node14&#45;&gt;Node28</title>
<path fill="none" stroke="midnightblue" d="M694.4,-184.92C749.22,-175.16 841.05,-158.53 919.82,-143 926.05,-141.77 932.58,-140.45 939.05,-139.11"/>
<polygon fill="midnightblue" stroke="midnightblue" points="940.01,-142.49 949.09,-137.03 938.58,-135.64 940.01,-142.49"/>
</g>
<!-- Node16&#45;&gt;Node5 -->
<g id="edge21" class="edge">
<title>Node16&#45;&gt;Node5</title>
<path fill="none" stroke="midnightblue" d="M1619.96,-121.8C1755.99,-111.43 2074.01,-86.77 2156.1,-75.91"/>
<polygon fill="midnightblue" stroke="midnightblue" points="2157.06,-79.31 2166.45,-74.41 2156.05,-72.38 2157.06,-79.31"/>
</g>
<!-- Node16&#45;&gt;Node6 -->
<g id="edge22" class="edge">
<title>Node16&#45;&gt;Node6</title>
<path fill="none" stroke="midnightblue" d="M1603.39,-117.98C1660.65,-107.26 1758.87,-88.88 1820.42,-77.37"/>
<polygon fill="midnightblue" stroke="midnightblue" points="1821.16,-80.79 1830.35,-75.51 1819.87,-73.91 1821.16,-80.79"/>
</g>
<!-- Node16&#45;&gt;Node10 -->
<g id="edge28" class="edge">
<title>Node16&#45;&gt;Node10</title>
<path fill="none" stroke="midnightblue" d="M1517.32,-117.99C1507.36,-115.96 1496.72,-113.85 1486.82,-112 1392.88,-94.44 1364.38,-109.36 1274.82,-76 1258.75,-70.01 1258.2,-61.08 1241.82,-56 1176.77,-35.83 741.66,-20.1 543.19,-13.89"/>
<polygon fill="midnightblue" stroke="midnightblue" points="543.15,-10.39 533.05,-13.57 542.94,-17.38 543.15,-10.39"/>
</g>
<!-- Node16&#45;&gt;Node12 -->
<g id="edge24" class="edge">
<title>Node16&#45;&gt;Node12</title>
<path fill="none" stroke="midnightblue" d="M1516.18,-117.99C1449.98,-104.44 1327.23,-79.13 1317.82,-76 1297.83,-69.34 1295.11,-61.73 1274.82,-56 1215.93,-39.35 1046.91,-23.75 952.9,-16.04"/>
<polygon fill="midnightblue" stroke="midnightblue" points="952.9,-12.53 942.65,-15.21 952.33,-19.51 952.9,-12.53"/>
</g>
<!-- Node16&#45;&gt;Node15 -->
<g id="edge20" class="edge">
<title>Node16&#45;&gt;Node15</title>
<path fill="none" stroke="midnightblue" d="M1555.71,-117.73C1551.47,-102.27 1540.34,-70.42 1517.82,-56 1440.13,-6.26 1200.11,-35.4 1092.08,-19.69"/>
<polygon fill="midnightblue" stroke="midnightblue" points="1092.49,-16.21 1082.05,-18.02 1091.34,-23.11 1092.49,-16.21"/>
</g>
<!-- Node17 -->
<g id="node17" class="node">
<title>Node17</title>
<g id="a_node17"><a xlink:title=" ">
<polygon fill="white" stroke="#bfbfbf" points="1326.82,-56.5 1326.82,-75.5 1390.82,-75.5 1390.82,-56.5 1326.82,-56.5"/>
<text text-anchor="middle" x="1358.82" y="-63.5" font-family="Helvetica,sans-Serif" font-size="10.00">algorithm</text>
</a>
</g>
</g>
<!-- Node16&#45;&gt;Node17 -->
<g id="edge23" class="edge">
<title>Node16&#45;&gt;Node17</title>
<path fill="none" stroke="midnightblue" d="M1529.31,-117.98C1494.59,-107.59 1435.79,-90.01 1397.13,-78.45"/>
<polygon fill="midnightblue" stroke="midnightblue" points="1397.87,-75.02 1387.28,-75.51 1395.86,-81.73 1397.87,-75.02"/>
</g>
<!-- Node18 -->
<g id="node18" class="node">
<title>Node18</title>
<g id="a_node18"><a xlink:title=" ">
<polygon fill="white" stroke="#bfbfbf" points="1409.32,-56.5 1409.32,-75.5 1508.32,-75.5 1508.32,-56.5 1409.32,-56.5"/>
<text text-anchor="middle" x="1458.82" y="-63.5" font-family="Helvetica,sans-Serif" font-size="10.00">AMReX_BCRec.H</text>
</a>
</g>
</g>
<!-- Node16&#45;&gt;Node18 -->
<g id="edge25" class="edge">
<title>Node16&#45;&gt;Node18</title>
<path fill="none" stroke="midnightblue" d="M1543.64,-117.98C1527.47,-108.25 1500.8,-92.23 1481.68,-80.74"/>
<polygon fill="midnightblue" stroke="midnightblue" points="1483.36,-77.66 1472.98,-75.51 1479.75,-83.66 1483.36,-77.66"/>
</g>
<!-- Node16&#45;&gt;Node19 -->
<g id="edge26" class="edge">
<title>Node16&#45;&gt;Node19</title>
<path fill="none" stroke="midnightblue" d="M1517.72,-117.93C1507.65,-115.88 1496.86,-113.78 1486.82,-112 1380.61,-93.2 1353.45,-92.27 1246.82,-76 1245.38,-75.78 1243.91,-75.55 1242.43,-75.33"/>
<polygon fill="midnightblue" stroke="midnightblue" points="1242.94,-71.87 1232.52,-73.81 1241.88,-78.78 1242.94,-71.87"/>
</g>
<!-- Node20 -->
<g id="node20" class="node">
<title>Node20</title>
<g id="a_node20"><a xlink:href="incflo__enums_8_h.html" target="_top" xlink:title=" ">
<polygon fill="white" stroke="black" points="1565.32,-56.5 1565.32,-75.5 1706.32,-75.5 1706.32,-56.5 1565.32,-56.5"/>
<text text-anchor="middle" x="1635.82" y="-63.5" font-family="Helvetica,sans-Serif" font-size="10.00">amr&#45;wind/incflo_enums.H</text>
</a>
</g>
</g>
<!-- Node16&#45;&gt;Node20 -->
<g id="edge27" class="edge">
<title>Node16&#45;&gt;Node20</title>
<path fill="none" stroke="midnightblue" d="M1569,-117.98C1581.39,-108.52 1601.61,-93.1 1616.57,-81.69"/>
<polygon fill="midnightblue" stroke="midnightblue" points="1618.84,-84.36 1624.67,-75.51 1614.6,-78.79 1618.84,-84.36"/>
</g>
<!-- Node21 -->
<g id="node21" class="node">
<title>Node21</title>
<g id="a_node21"><a xlink:href="_view_field_8_h.html" target="_top" xlink:title=" ">
<polygon fill="white" stroke="black" points="864.82,-56.5 864.82,-75.5 1012.82,-75.5 1012.82,-56.5 864.82,-56.5"/>
<text text-anchor="middle" x="938.82" y="-63.5" font-family="Helvetica,sans-Serif" font-size="10.00">amr&#45;wind/core/ViewField.H</text>
</a>
</g>
</g>
<!-- Node16&#45;&gt;Node21 -->
<g id="edge29" class="edge">
<title>Node16&#45;&gt;Node21</title>
<path fill="none" stroke="midnightblue" d="M1520.39,-117.98C1509.6,-115.77 1497.78,-113.56 1486.82,-112 1323.64,-88.72 1131.26,-76.37 1023.33,-70.8"/>
<polygon fill="midnightblue" stroke="midnightblue" points="1023.31,-67.29 1013.15,-70.28 1022.96,-74.29 1023.31,-67.29"/>
</g>
<!-- Node21&#45;&gt;Node10 -->
<g id="edge31" class="edge">
<title>Node21&#45;&gt;Node10</title>
<path fill="none" stroke="midnightblue" d="M864.6,-56.89C775.85,-47.19 627.48,-30.97 532.98,-20.64"/>
<polygon fill="midnightblue" stroke="midnightblue" points="533.19,-17.14 522.87,-19.53 532.43,-24.1 533.19,-17.14"/>
</g>
<!-- Node21&#45;&gt;Node12 -->
<g id="edge32" class="edge">
<title>Node21&#45;&gt;Node12</title>
<path fill="none" stroke="midnightblue" d="M930.4,-56.08C922.98,-48.22 911.97,-36.57 903.01,-27.08"/>
<polygon fill="midnightblue" stroke="midnightblue" points="905.5,-24.62 896.09,-19.75 900.41,-29.42 905.5,-24.62"/>
</g>
<!-- Node21&#45;&gt;Node15 -->
<g id="edge30" class="edge">
<title>Node21&#45;&gt;Node15</title>
<path fill="none" stroke="midnightblue" d="M958,-56.44C977.73,-47.64 1008.71,-33.81 1031.32,-23.72"/>
<polygon fill="midnightblue" stroke="midnightblue" points="1033.04,-26.79 1040.74,-19.52 1030.18,-20.4 1033.04,-26.79"/>
</g>
<!-- Node22 -->
<g id="node22" class="node">
<title>Node22</title>
<g id="a_node22"><a xlink:title=" ">
<polygon fill="white" stroke="#bfbfbf" points="1099.82,-0.5 1099.82,-19.5 1197.82,-19.5 1197.82,-0.5 1099.82,-0.5"/>
<text text-anchor="middle" x="1148.82" y="-7.5" font-family="Helvetica,sans-Serif" font-size="10.00">AMReX_Vector.H</text>
</a>
</g>
</g>
<!-- Node21&#45;&gt;Node22 -->
<g id="edge33" class="edge">
<title>Node21&#45;&gt;Node22</title>
<path fill="none" stroke="midnightblue" d="M972.1,-56.44C1008.27,-47.14 1066.2,-32.25 1105.8,-22.06"/>
<polygon fill="midnightblue" stroke="midnightblue" points="1106.89,-25.4 1115.7,-19.52 1105.15,-18.62 1106.89,-25.4"/>
</g>
<!-- Node23&#45;&gt;Node10 -->
<g id="edge36" class="edge">
<title>Node23&#45;&gt;Node10</title>
<path fill="none" stroke="midnightblue" d="M386.33,-117.9C373.92,-104.26 353.59,-77.05 365.82,-56 374.56,-40.97 390.4,-30.54 405.62,-23.54"/>
<polygon fill="midnightblue" stroke="midnightblue" points="407.09,-26.72 414.94,-19.61 404.37,-20.27 407.09,-26.72"/>
</g>
<!-- Node23&#45;&gt;Node15 -->
<g id="edge35" class="edge">
<title>Node23&#45;&gt;Node15</title>
<path fill="none" stroke="midnightblue" d="M392.09,-117.68C388.05,-102.72 382.6,-72.37 398.82,-56 442.1,-12.36 889.53,-24.53 950.82,-20 976.7,-18.09 1006.01,-15.65 1027.71,-13.8"/>
<polygon fill="midnightblue" stroke="midnightblue" points="1028.04,-17.28 1037.7,-12.94 1027.44,-10.31 1028.04,-17.28"/>
</g>
<!-- Node23&#45;&gt;Node24 -->
<g id="edge37" class="edge">
<title>Node23&#45;&gt;Node24</title>
<path fill="none" stroke="midnightblue" d="M404.71,-117.98C415.47,-108.7 432.89,-93.67 446.05,-82.33"/>
<polygon fill="midnightblue" stroke="midnightblue" points="448.67,-84.69 453.96,-75.51 444.1,-79.39 448.67,-84.69"/>
</g>
<!-- Node25&#45;&gt;Node10 -->
<g id="edge41" class="edge">
<title>Node25&#45;&gt;Node10</title>
<path fill="none" stroke="midnightblue" d="M725.65,-117.99C696.13,-108.28 646.77,-91.71 604.82,-76 558.77,-58.75 506.04,-36.92 474.1,-23.46"/>
<polygon fill="midnightblue" stroke="midnightblue" points="475.46,-20.23 464.89,-19.57 472.74,-26.68 475.46,-20.23"/>
</g>
<!-- Node25&#45;&gt;Node12 -->
<g id="edge43" class="edge">
<title>Node25&#45;&gt;Node12</title>
<path fill="none" stroke="midnightblue" d="M763.55,-117.84C776.75,-107.99 798.69,-91.3 816.82,-76 836.04,-59.78 857.2,-40.17 871.37,-26.76"/>
<polygon fill="midnightblue" stroke="midnightblue" points="874.01,-29.08 878.85,-19.66 869.19,-24.01 874.01,-29.08"/>
</g>
<!-- Node25&#45;&gt;Node15 -->
<g id="edge39" class="edge">
<title>Node25&#45;&gt;Node15</title>
<path fill="none" stroke="midnightblue" d="M811.64,-118C885.88,-107.03 1004.84,-87.96 1021.82,-76 1037.82,-64.74 1048.1,-44.43 1053.88,-29.5"/>
<polygon fill="midnightblue" stroke="midnightblue" points="1057.28,-30.38 1057.31,-19.78 1050.68,-28.05 1057.28,-30.38"/>
</g>
<!-- Node25&#45;&gt;Node21 -->
<g id="edge42" class="edge">
<title>Node25&#45;&gt;Node21</title>
<path fill="none" stroke="midnightblue" d="M778.62,-117.98C811.11,-107.64 866.03,-90.16 902.36,-78.6"/>
<polygon fill="midnightblue" stroke="midnightblue" points="903.61,-81.88 912.08,-75.51 901.49,-75.21 903.61,-81.88"/>
</g>
<!-- Node25&#45;&gt;Node22 -->
<g id="edge44" class="edge">
<title>Node25&#45;&gt;Node22</title>
<path fill="none" stroke="midnightblue" d="M819.74,-117.96C893.32,-108.17 1005.57,-91.45 1045.82,-76 1077.84,-63.71 1110.62,-40.91 1130.36,-25.84"/>
<polygon fill="midnightblue" stroke="midnightblue" points="1132.72,-28.44 1138.45,-19.53 1128.42,-22.92 1132.72,-28.44"/>
</g>
<!-- Node26 -->
<g id="node26" class="node">
<title>Node26</title>
<g id="a_node26"><a xlink:title=" ">
<polygon fill="white" stroke="#bfbfbf" points="614.32,-56.5 614.32,-75.5 659.32,-75.5 659.32,-56.5 614.32,-56.5"/>
<text text-anchor="middle" x="636.82" y="-63.5" font-family="Helvetica,sans-Serif" font-size="10.00">utility</text>
</a>
</g>
</g>
<!-- Node25&#45;&gt;Node26 -->
<g id="edge40" class="edge">
<title>Node25&#45;&gt;Node26</title>
<path fill="none" stroke="midnightblue" d="M735.35,-117.98C716.22,-108.08 684.45,-91.64 662.17,-80.12"/>
<polygon fill="midnightblue" stroke="midnightblue" points="663.76,-77 653.27,-75.51 660.54,-83.21 663.76,-77"/>
</g>
<!-- Node27 -->
<g id="node27" class="node">
<title>Node27</title>
<g id="a_node27"><a xlink:title=" ">
<polygon fill="white" stroke="#bfbfbf" points="677.32,-56.5 677.32,-75.5 808.32,-75.5 808.32,-56.5 677.32,-56.5"/>
<text text-anchor="middle" x="742.82" y="-63.5" font-family="Helvetica,sans-Serif" font-size="10.00">AMReX_PhysBCFunct.H</text>
</a>
</g>
</g>
<!-- Node25&#45;&gt;Node27 -->
<g id="edge45" class="edge">
<title>Node25&#45;&gt;Node27</title>
<path fill="none" stroke="midnightblue" d="M750.53,-117.98C749.26,-109.58 747.28,-96.48 745.65,-85.66"/>
<polygon fill="midnightblue" stroke="midnightblue" points="749.07,-84.87 744.11,-75.51 742.15,-85.92 749.07,-84.87"/>
</g>
<!-- Node29&#45;&gt;Node14 -->
<g id="edge56" class="edge">
<title>Node29&#45;&gt;Node14</title>
<path fill="none" stroke="midnightblue" d="M1251.77,-254.82C1134.16,-243.3 867.34,-217.18 730.39,-203.78"/>
<polygon fill="midnightblue" stroke="midnightblue" points="730.65,-200.29 720.36,-202.8 729.97,-207.25 730.65,-200.29"/>
</g>
<!-- Node29&#45;&gt;Node28 -->
<g id="edge51" class="edge">
<title>Node29&#45;&gt;Node28</title>
<path fill="none" stroke="midnightblue" d="M1288.76,-251.84C1233.42,-229.08 1083.73,-167.53 1019.15,-140.97"/>
<polygon fill="midnightblue" stroke="midnightblue" points="1020.13,-137.59 1009.55,-137.02 1017.46,-144.06 1020.13,-137.59"/>
</g>
<!-- Node30 -->
<g id="node30" class="node">
<title>Node30</title>
<g id="a_node30"><a xlink:href="_sim_time_8_h.html" target="_top" xlink:title=" ">
<polygon fill="white" stroke="black" points="1237.82,-185 1237.82,-204 1381.82,-204 1381.82,-185 1237.82,-185"/>
<text text-anchor="middle" x="1309.82" y="-192" font-family="Helvetica,sans-Serif" font-size="10.00">amr&#45;wind/core/SimTime.H</text>
</a>
</g>
</g>
<!-- Node29&#45;&gt;Node30 -->
<g id="edge52" class="edge">
<title>Node29&#45;&gt;Node30</title>
<path fill="none" stroke="midnightblue" d="M1309.82,-251.73C1309.82,-242.18 1309.82,-226.62 1309.82,-214.28"/>
<polygon fill="midnightblue" stroke="midnightblue" points="1313.32,-214.13 1309.82,-204.13 1306.32,-214.13 1313.32,-214.13"/>
</g>
<!-- Node34 -->
<g id="node34" class="node">
<title>Node34</title>
<g id="a_node34"><a xlink:href="_p_d_e_base_8_h.html" target="_top" xlink:title=" ">
<polygon fill="white" stroke="black" points="1763.32,-179.5 1763.32,-209.5 1918.32,-209.5 1918.32,-179.5 1763.32,-179.5"/>
<text text-anchor="start" x="1771.32" y="-197.5" font-family="Helvetica,sans-Serif" font-size="10.00">amr&#45;wind/equation_systems</text>
<text text-anchor="middle" x="1840.82" y="-186.5" font-family="Helvetica,sans-Serif" font-size="10.00">/PDEBase.H</text>
</a>
</g>
</g>
<!-- Node29&#45;&gt;Node34 -->
<g id="edge57" class="edge">
<title>Node29&#45;&gt;Node34</title>
<path fill="none" stroke="midnightblue" d="M1367.91,-253.39C1460.95,-242 1643.95,-219.6 1753.01,-206.25"/>
<polygon fill="midnightblue" stroke="midnightblue" points="1753.5,-209.72 1763,-205.03 1752.65,-202.77 1753.5,-209.72"/>
</g>
<!-- Node38 -->
<g id="node38" class="node">
<title>Node38</title>
<g id="a_node38"><a xlink:href="_physics_8_h.html" target="_top" xlink:title=" ">
<polygon fill="white" stroke="black" points="2169.32,-185 2169.32,-204 2306.32,-204 2306.32,-185 2169.32,-185"/>
<text text-anchor="middle" x="2237.82" y="-192" font-family="Helvetica,sans-Serif" font-size="10.00">amr&#45;wind/core/Physics.H</text>
</a>
</g>
</g>
<!-- Node29&#45;&gt;Node38 -->
<g id="edge69" class="edge">
<title>Node29&#45;&gt;Node38</title>
<path fill="none" stroke="midnightblue" d="M1368.01,-259.2C1505.14,-255.66 1859.14,-243.74 2152.82,-210 2162.75,-208.86 2173.28,-207.33 2183.42,-205.69"/>
<polygon fill="midnightblue" stroke="midnightblue" points="2184.11,-209.12 2193.4,-204.02 2182.96,-202.22 2184.11,-209.12"/>
</g>
<!-- Node40 -->
<g id="node40" class="node">
<title>Node40</title>
<g id="a_node40"><a xlink:href="_mesh_map_8_h.html" target="_top" xlink:title=" ">
<polygon fill="white" stroke="black" points="1995.82,-185 1995.82,-204 2143.82,-204 2143.82,-185 1995.82,-185"/>
<text text-anchor="middle" x="2069.82" y="-192" font-family="Helvetica,sans-Serif" font-size="10.00">amr&#45;wind/core/MeshMap.H</text>
</a>
</g>
</g>
<!-- Node29&#45;&gt;Node40 -->
<g id="edge74" class="edge">
<title>Node29&#45;&gt;Node40</title>
<path fill="none" stroke="midnightblue" d="M1368.03,-257.3C1482.92,-250.7 1746.87,-234.16 1967.82,-210 1979.7,-208.7 1992.32,-207.09 2004.5,-205.43"/>
<polygon fill="midnightblue" stroke="midnightblue" points="2005.17,-208.87 2014.59,-204.02 2004.2,-201.93 2005.17,-208.87"/>
</g>
<!-- Node31 -->
<g id="node31" class="node">
<title>Node31</title>
<g id="a_node31"><a xlink:title=" ">
<polygon fill="white" stroke="#bfbfbf" points="1385.82,-118 1385.82,-137 1477.82,-137 1477.82,-118 1385.82,-118"/>
<text text-anchor="middle" x="1431.82" y="-125" font-family="Helvetica,sans-Serif" font-size="10.00">AMReX_REAL.H</text>
</a>
</g>
</g>
<!-- Node30&#45;&gt;Node31 -->
<g id="edge53" class="edge">
<title>Node30&#45;&gt;Node31</title>
<path fill="none" stroke="midnightblue" d="M1326.02,-184.87C1346.62,-173.89 1382.42,-154.82 1406.6,-141.94"/>
<polygon fill="midnightblue" stroke="midnightblue" points="1408.38,-144.96 1415.56,-137.17 1405.08,-138.78 1408.38,-144.96"/>
</g>
<!-- Node32 -->
<g id="node32" class="node">
<title>Node32</title>
<g id="a_node32"><a xlink:title=" ">
<polygon fill="white" stroke="#bfbfbf" points="1099.82,-118 1099.82,-137 1233.82,-137 1233.82,-118 1099.82,-118"/>
<text text-anchor="middle" x="1166.82" y="-125" font-family="Helvetica,sans-Serif" font-size="10.00">AMReX_GpuQualifiers.H</text>
</a>
</g>
</g>
<!-- Node30&#45;&gt;Node32 -->
<g id="edge54" class="edge">
<title>Node30&#45;&gt;Node32</title>
<path fill="none" stroke="midnightblue" d="M1290.83,-184.87C1266.37,-173.75 1223.62,-154.32 1195.27,-141.43"/>
<polygon fill="midnightblue" stroke="midnightblue" points="1196.44,-138.12 1185.89,-137.17 1193.55,-144.49 1196.44,-138.12"/>
</g>
<!-- Node33 -->
<g id="node33" class="node">
<title>Node33</title>
<g id="a_node33"><a xlink:title=" ">
<polygon fill="white" stroke="#bfbfbf" points="1251.82,-118 1251.82,-137 1367.82,-137 1367.82,-118 1251.82,-118"/>
<text text-anchor="middle" x="1309.82" y="-125" font-family="Helvetica,sans-Serif" font-size="10.00">AMReX_Extension.H</text>
</a>
</g>
</g>
<!-- Node30&#45;&gt;Node33 -->
<g id="edge55" class="edge">
<title>Node30&#45;&gt;Node33</title>
<path fill="none" stroke="midnightblue" d="M1309.82,-184.73C1309.82,-175.18 1309.82,-159.62 1309.82,-147.28"/>
<polygon fill="midnightblue" stroke="midnightblue" points="1313.32,-147.13 1309.82,-137.13 1306.32,-147.13 1313.32,-147.13"/>
</g>
<!-- Node34&#45;&gt;Node4 -->
<g id="edge59" class="edge">
<title>Node34&#45;&gt;Node4</title>
<path fill="none" stroke="midnightblue" d="M1885.05,-179.48C1922.12,-167.72 1974.41,-151.14 2009.17,-140.12"/>
<polygon fill="midnightblue" stroke="midnightblue" points="2010.45,-143.39 2018.93,-137.03 2008.34,-136.71 2010.45,-143.39"/>
</g>
<!-- Node34&#45;&gt;Node10 -->
<g id="edge67" class="edge">
<title>Node34&#45;&gt;Node10</title>
<path fill="none" stroke="midnightblue" d="M1806.39,-179.41C1789.11,-170.94 1768.92,-158.73 1754.82,-143 1726.55,-111.44 1750.98,-79.66 1715.82,-56 1703.69,-47.83 840.12,-22.34 543.54,-13.81"/>
<polygon fill="midnightblue" stroke="midnightblue" points="543.33,-10.3 533.23,-13.51 543.13,-17.3 543.33,-10.3"/>
</g>
<!-- Node34&#45;&gt;Node15 -->
<g id="edge58" class="edge">
<title>Node34&#45;&gt;Node15</title>
<path fill="none" stroke="midnightblue" d="M1882.7,-179.35C1899.63,-171.4 1917.56,-159.65 1927.82,-143 1948.13,-110.05 1958.6,-83.95 1931.82,-56 1900.8,-23.62 1198.29,-27.2 1092.26,-19.23"/>
<polygon fill="midnightblue" stroke="midnightblue" points="1092.34,-15.72 1082.03,-18.14 1091.6,-22.68 1092.34,-15.72"/>
</g>
<!-- Node34&#45;&gt;Node20 -->
<g id="edge68" class="edge">
<title>Node34&#45;&gt;Node20</title>
<path fill="none" stroke="midnightblue" d="M1798.04,-179.44C1774.34,-170.69 1744.89,-158.22 1720.82,-143 1693.51,-125.72 1666.46,-99.57 1650.45,-82.89"/>
<polygon fill="midnightblue" stroke="midnightblue" points="1652.93,-80.42 1643.52,-75.54 1647.83,-85.22 1652.93,-80.42"/>
</g>
<!-- Node35 -->
<g id="node35" class="node">
<title>Node35</title>
<g id="a_node35"><a xlink:href="_coll_mgr_8_h.html" target="_top" xlink:title=" ">
<polygon fill="white" stroke="black" points="2169.32,-118 2169.32,-137 2306.32,-137 2306.32,-118 2169.32,-118"/>
<text text-anchor="middle" x="2237.82" y="-125" font-family="Helvetica,sans-Serif" font-size="10.00">amr&#45;wind/core/CollMgr.H</text>
</a>
</g>
</g>
<!-- Node34&#45;&gt;Node35 -->
<g id="edge60" class="edge">
<title>Node34&#45;&gt;Node35</title>
<path fill="none" stroke="midnightblue" d="M1918.78,-180.74C1994.01,-168.42 2106.4,-150.02 2175.75,-138.66"/>
<polygon fill="midnightblue" stroke="midnightblue" points="2176.36,-142.11 2185.66,-137.04 2175.23,-135.2 2176.36,-142.11"/>
</g>
<!-- Node36 -->
<g id="node36" class="node">
<title>Node36</title>
<g id="a_node36"><a xlink:href="_p_d_e_fields_8_h.html" target="_top" xlink:title=" ">
<polygon fill="white" stroke="black" points="1763.32,-112.5 1763.32,-142.5 1918.32,-142.5 1918.32,-112.5 1763.32,-112.5"/>
<text text-anchor="start" x="1771.32" y="-130.5" font-family="Helvetica,sans-Serif" font-size="10.00">amr&#45;wind/equation_systems</text>
<text text-anchor="middle" x="1840.82" y="-119.5" font-family="Helvetica,sans-Serif" font-size="10.00">/PDEFields.H</text>
</a>
</g>
</g>
<!-- Node34&#45;&gt;Node36 -->
<g id="edge65" class="edge">
<title>Node34&#45;&gt;Node36</title>
<path fill="none" stroke="midnightblue" d="M1840.82,-179.4C1840.82,-171.64 1840.82,-161.81 1840.82,-152.86"/>
<polygon fill="midnightblue" stroke="midnightblue" points="1844.32,-152.58 1840.82,-142.58 1837.32,-152.58 1844.32,-152.58"/>
</g>
<!-- Node35&#45;&gt;Node5 -->
<g id="edge62" class="edge">
<title>Node35&#45;&gt;Node5</title>
<path fill="none" stroke="midnightblue" d="M2231.81,-117.98C2225.57,-109.14 2215.65,-95.09 2207.81,-83.98"/>
<polygon fill="midnightblue" stroke="midnightblue" points="2210.46,-81.66 2201.83,-75.51 2204.74,-85.7 2210.46,-81.66"/>
</g>
<!-- Node35&#45;&gt;Node6 -->
<g id="edge63" class="edge">
<title>Node35&#45;&gt;Node6</title>
<path fill="none" stroke="midnightblue" d="M2185.96,-117.98C2118.69,-106.92 2001.77,-87.7 1932.31,-76.29"/>
<polygon fill="midnightblue" stroke="midnightblue" points="1932.86,-72.83 1922.42,-74.66 1931.72,-79.73 1932.86,-72.83"/>
</g>
<!-- Node35&#45;&gt;Node15 -->
<g id="edge61" class="edge">
<title>Node35&#45;&gt;Node15</title>
<path fill="none" stroke="midnightblue" d="M2272.03,-117.98C2312.67,-106.35 2371.8,-83.76 2344.82,-56 2297.77,-7.58 1229.65,-29.33 1092.34,-19.25"/>
<polygon fill="midnightblue" stroke="midnightblue" points="1092.33,-15.73 1082.02,-18.18 1091.6,-22.7 1092.33,-15.73"/>
</g>
<!-- Node35&#45;&gt;Node22 -->
<g id="edge64" class="edge">
<title>Node35&#45;&gt;Node22</title>
<path fill="none" stroke="midnightblue" d="M2278.13,-117.94C2316.58,-108.86 2370.43,-93.44 2382.82,-76 2387.97,-68.75 2388.99,-62.4 2382.82,-56 2341.66,-13.3 1449.24,-10.8 1208.31,-10.9"/>
<polygon fill="midnightblue" stroke="midnightblue" points="1208,-7.4 1198,-10.91 1208.01,-14.4 1208,-7.4"/>
</g>
<!-- Node37 -->
<g id="node37" class="node">
<title>Node37</title>
<g id="a_node37"><a xlink:title=" ">
<polygon fill="white" stroke="#bfbfbf" points="1762.82,-56.5 1762.82,-75.5 1810.82,-75.5 1810.82,-56.5 1762.82,-56.5"/>
<text text-anchor="middle" x="1786.82" y="-63.5" font-family="Helvetica,sans-Serif" font-size="10.00">iosfwd</text>
</a>
</g>
</g>
<!-- Node36&#45;&gt;Node37 -->
<g id="edge66" class="edge">
<title>Node36&#45;&gt;Node37</title>
<path fill="none" stroke="midnightblue" d="M1828.03,-112.4C1820.1,-103.66 1809.89,-92.41 1801.61,-83.3"/>
<polygon fill="midnightblue" stroke="midnightblue" points="1803.99,-80.71 1794.68,-75.66 1798.81,-85.42 1803.99,-80.71"/>
</g>
<!-- Node38&#45;&gt;Node4 -->
<g id="edge70" class="edge">
<title>Node38&#45;&gt;Node4</title>
<path fill="none" stroke="midnightblue" d="M2212.33,-184.87C2178.52,-173.42 2118.73,-153.18 2080.75,-140.32"/>
<polygon fill="midnightblue" stroke="midnightblue" points="2081.71,-136.96 2071.12,-137.06 2079.47,-143.59 2081.71,-136.96"/>
</g>
<!-- Node38&#45;&gt;Node12 -->
<g id="edge72" class="edge">
<title>Node38&#45;&gt;Node12</title>
<path fill="none" stroke="midnightblue" d="M2306.33,-191.12C2380.67,-185.7 2484.34,-168.18 2448.82,-112 2352.78,39.89 2566.12,-90.29 1028.82,-20 1003.85,-18.86 976.4,-17.2 952.42,-15.61"/>
<polygon fill="midnightblue" stroke="midnightblue" points="952.58,-12.12 942.37,-14.94 952.11,-19.1 952.58,-12.12"/>
</g>
<!-- Node38&#45;&gt;Node35 -->
<g id="edge71" class="edge">
<title>Node38&#45;&gt;Node35</title>
<path fill="none" stroke="midnightblue" d="M2237.82,-184.73C2237.82,-175.18 2237.82,-159.62 2237.82,-147.28"/>
<polygon fill="midnightblue" stroke="midnightblue" points="2241.32,-147.13 2237.82,-137.13 2234.32,-147.13 2241.32,-147.13"/>
</g>
<!-- Node39 -->
<g id="node39" class="node">
<title>Node39</title>
<g id="a_node39"><a xlink:title=" ">
<polygon fill="white" stroke="#bfbfbf" points="2324.32,-118 2324.32,-137 2439.32,-137 2439.32,-118 2324.32,-118"/>
<text text-anchor="middle" x="2381.82" y="-125" font-family="Helvetica,sans-Serif" font-size="10.00">AMReX_Geometry.H</text>
</a>
</g>
</g>
<!-- Node38&#45;&gt;Node39 -->
<g id="edge73" class="edge">
<title>Node38&#45;&gt;Node39</title>
<path fill="none" stroke="midnightblue" d="M2256.95,-184.87C2281.58,-173.75 2324.63,-154.32 2353.18,-141.43"/>
<polygon fill="midnightblue" stroke="midnightblue" points="2354.95,-144.47 2362.62,-137.17 2352.07,-138.09 2354.95,-144.47"/>
</g>
<!-- Node40&#45;&gt;Node4 -->
<g id="edge76" class="edge">
<title>Node40&#45;&gt;Node4</title>
<path fill="none" stroke="midnightblue" d="M2066.59,-184.73C2062.99,-174.99 2057.08,-158.98 2052.48,-146.53"/>
<polygon fill="midnightblue" stroke="midnightblue" points="2055.76,-145.3 2049.01,-137.13 2049.19,-147.72 2055.76,-145.3"/>
</g>
<!-- Node40&#45;&gt;Node12 -->
<g id="edge78" class="edge">
<title>Node40&#45;&gt;Node12</title>
<path fill="none" stroke="midnightblue" d="M2078.28,-184.92C2097.06,-166.05 2142.03,-121.84 2160.82,-112 2224.24,-78.81 2361.72,-107.32 2311.82,-56 2286.97,-30.44 1064.44,-21.64 1028.82,-20 1003.85,-18.85 976.4,-17.19 952.42,-15.61"/>
<polygon fill="midnightblue" stroke="midnightblue" points="952.58,-12.11 942.37,-14.94 952.11,-19.1 952.58,-12.11"/>
</g>
<!-- Node40&#45;&gt;Node16 -->
<g id="edge77" class="edge">
<title>Node40&#45;&gt;Node16</title>
<path fill="none" stroke="midnightblue" d="M2002.63,-184.97C1906.1,-172.71 1728.94,-150.22 1629.82,-137.64"/>
<polygon fill="midnightblue" stroke="midnightblue" points="1630.26,-134.17 1619.89,-136.38 1629.37,-141.11 1630.26,-134.17"/>
</g>
<!-- Node40&#45;&gt;Node35 -->
<g id="edge75" class="edge">
<title>Node40&#45;&gt;Node35</title>
<path fill="none" stroke="midnightblue" d="M2092.13,-184.87C2121.33,-173.57 2172.7,-153.7 2205.99,-140.82"/>
<polygon fill="midnightblue" stroke="midnightblue" points="2207.63,-143.94 2215.69,-137.06 2205.1,-137.41 2207.63,-143.94"/>
</g>
<!-- Node40&#45;&gt;Node39 -->
<g id="edge79" class="edge">
<title>Node40&#45;&gt;Node39</title>
<path fill="none" stroke="midnightblue" d="M2112.52,-184.92C2161.62,-175.01 2244.6,-158.13 2315.82,-143 2321.56,-141.78 2327.57,-140.49 2333.53,-139.19"/>
<polygon fill="midnightblue" stroke="midnightblue" points="2334.43,-142.58 2343.45,-137.02 2332.94,-135.74 2334.43,-142.58"/>
</g>
</g>
</svg>
