<?xml version="1.0" encoding="UTF-8" standalone="no"?>
<!DOCTYPE svg PUBLIC "-//W3C//DTD SVG 1.1//EN"
 "http://www.w3.org/Graphics/SVG/1.1/DTD/svg11.dtd">
<!-- Generated by graphviz version 2.43.0 (0)
 -->
<!-- Title: TaylorGreenVortex.cpp Pages: 1 -->
<svg width="2940pt" height="341pt"
 viewBox="0.00 0.00 2940.00 341.00" xmlns="http://www.w3.org/2000/svg" xmlns:xlink="http://www.w3.org/1999/xlink">
<g id="graph0" class="graph" transform="scale(1 1) rotate(0) translate(4 337)">
<title>TaylorGreenVortex.cpp</title>
<polygon fill="white" stroke="transparent" points="-4,4 -4,-337 2936,-337 2936,4 -4,4"/>
<!-- Node1 -->
<g id="node1" class="node">
<title>Node1</title>
<g id="a_node1"><a xlink:title=" ">
<polygon fill="#bfbfbf" stroke="black" points="1451,-313.5 1451,-332.5 1578,-332.5 1578,-313.5 1451,-313.5"/>
<text text-anchor="middle" x="1514.5" y="-320.5" font-family="Helvetica,sans-Serif" font-size="10.00">TaylorGreenVortex.cpp</text>
</a>
</g>
</g>
<!-- Node2 -->
<g id="node2" class="node">
<title>Node2</title>
<g id="a_node2"><a xlink:href="_taylor_green_vortex_8_h.html" target="_top" xlink:title=" ">
<polygon fill="white" stroke="black" points="1043.5,-246.5 1043.5,-276.5 1207.5,-276.5 1207.5,-246.5 1043.5,-246.5"/>
<text text-anchor="start" x="1051.5" y="-264.5" font-family="Helvetica,sans-Serif" font-size="10.00">amr&#45;wind/physics/TaylorGreen</text>
<text text-anchor="middle" x="1125.5" y="-253.5" font-family="Helvetica,sans-Serif" font-size="10.00">Vortex.H</text>
</a>
</g>
</g>
<!-- Node1&#45;&gt;Node2 -->
<g id="edge1" class="edge">
<title>Node1&#45;&gt;Node2</title>
<path fill="none" stroke="midnightblue" d="M1458.77,-313.48C1395.84,-303.85 1292.47,-288.04 1217.52,-276.57"/>
<polygon fill="midnightblue" stroke="midnightblue" points="1218.01,-273.11 1207.6,-275.06 1216.96,-280.03 1218.01,-273.11"/>
</g>
<!-- Node22 -->
<g id="node22" class="node">
<title>Node22</title>
<g id="a_node22"><a xlink:href="_c_f_d_sim_8_h.html" target="_top" xlink:title=" ">
<polygon fill="white" stroke="black" points="1413.5,-252 1413.5,-271 1529.5,-271 1529.5,-252 1413.5,-252"/>
<text text-anchor="middle" x="1471.5" y="-259" font-family="Helvetica,sans-Serif" font-size="10.00">amr&#45;wind/CFDSim.H</text>
</a>
</g>
</g>
<!-- Node1&#45;&gt;Node22 -->
<g id="edge31" class="edge">
<title>Node1&#45;&gt;Node22</title>
<path fill="none" stroke="midnightblue" d="M1508.34,-313.48C1501.89,-304.55 1491.6,-290.31 1483.53,-279.14"/>
<polygon fill="midnightblue" stroke="midnightblue" points="1486.34,-277.06 1477.65,-271.01 1480.67,-281.16 1486.34,-277.06"/>
</g>
<!-- Node40 -->
<g id="node40" class="node">
<title>Node40</title>
<g id="a_node40"><a xlink:title=" ">
<polygon fill="white" stroke="#bfbfbf" points="1586,-252 1586,-271 1705,-271 1705,-252 1586,-252"/>
<text text-anchor="middle" x="1645.5" y="-259" font-family="Helvetica,sans-Serif" font-size="10.00">AMReX_ParmParse.H</text>
</a>
</g>
</g>
<!-- Node1&#45;&gt;Node40 -->
<g id="edge76" class="edge">
<title>Node1&#45;&gt;Node40</title>
<path fill="none" stroke="midnightblue" d="M1533.27,-313.48C1555.35,-303.45 1592.22,-286.7 1617.64,-275.15"/>
<polygon fill="midnightblue" stroke="midnightblue" points="1619.11,-278.33 1626.77,-271.01 1616.21,-271.96 1619.11,-278.33"/>
</g>
<!-- Node41 -->
<g id="node41" class="node">
<title>Node41</title>
<g id="a_node41"><a xlink:href="trig__ops_8_h.html" target="_top" xlink:title=" ">
<polygon fill="white" stroke="black" points="2768,-179.5 2768,-209.5 2871,-209.5 2871,-179.5 2768,-179.5"/>
<text text-anchor="start" x="2776" y="-197.5" font-family="Helvetica,sans-Serif" font-size="10.00">amr&#45;wind/utilities</text>
<text text-anchor="middle" x="2819.5" y="-186.5" font-family="Helvetica,sans-Serif" font-size="10.00">/trig_ops.H</text>
</a>
</g>
</g>
<!-- Node1&#45;&gt;Node41 -->
<g id="edge77" class="edge">
<title>Node1&#45;&gt;Node41</title>
<path fill="none" stroke="midnightblue" d="M1518.54,-313.36C1526.86,-296.74 1547.65,-260.64 1577.5,-246 1685.1,-193.22 2535.88,-217.28 2655.5,-210 2689.34,-207.94 2727.02,-204.68 2757.72,-201.77"/>
<polygon fill="midnightblue" stroke="midnightblue" points="2758.23,-205.24 2767.85,-200.8 2757.56,-198.27 2758.23,-205.24"/>
</g>
<!-- Node3 -->
<g id="node3" class="node">
<title>Node3</title>
<g id="a_node3"><a xlink:href="_physics_8_h.html" target="_top" xlink:title=" ">
<polygon fill="white" stroke="black" points="791,-185 791,-204 928,-204 928,-185 791,-185"/>
<text text-anchor="middle" x="859.5" y="-192" font-family="Helvetica,sans-Serif" font-size="10.00">amr&#45;wind/core/Physics.H</text>
</a>
</g>
</g>
<!-- Node2&#45;&gt;Node3 -->
<g id="edge2" class="edge">
<title>Node2&#45;&gt;Node3</title>
<path fill="none" stroke="midnightblue" d="M1068.11,-246.48C1018.98,-234.47 949.24,-217.43 904.18,-206.42"/>
<polygon fill="midnightblue" stroke="midnightblue" points="904.95,-203 894.4,-204.03 903.29,-209.8 904.95,-203"/>
</g>
<!-- Node15 -->
<g id="node15" class="node">
<title>Node15</title>
<g id="a_node15"><a xlink:href="_field_8_h.html" target="_top" xlink:title=" ">
<polygon fill="white" stroke="black" points="1063.5,-118 1063.5,-137 1187.5,-137 1187.5,-118 1063.5,-118"/>
<text text-anchor="middle" x="1125.5" y="-125" font-family="Helvetica,sans-Serif" font-size="10.00">amr&#45;wind/core/Field.H</text>
</a>
</g>
</g>
<!-- Node2&#45;&gt;Node15 -->
<g id="edge16" class="edge">
<title>Node2&#45;&gt;Node15</title>
<path fill="none" stroke="midnightblue" d="M1125.5,-246.37C1125.5,-222.5 1125.5,-174.18 1125.5,-147.41"/>
<polygon fill="midnightblue" stroke="midnightblue" points="1129,-147.1 1125.5,-137.1 1122,-147.1 1129,-147.1"/>
</g>
<!-- Node4 -->
<g id="node4" class="node">
<title>Node4</title>
<g id="a_node4"><a xlink:href="_factory_8_h.html" target="_top" xlink:title=" ">
<polygon fill="white" stroke="black" points="455.5,-118 455.5,-137 589.5,-137 589.5,-118 455.5,-118"/>
<text text-anchor="middle" x="522.5" y="-125" font-family="Helvetica,sans-Serif" font-size="10.00">amr&#45;wind/core/Factory.H</text>
</a>
</g>
</g>
<!-- Node3&#45;&gt;Node4 -->
<g id="edge3" class="edge">
<title>Node3&#45;&gt;Node4</title>
<path fill="none" stroke="midnightblue" d="M815.1,-184.94C753.64,-173.08 642.76,-151.7 576.56,-138.93"/>
<polygon fill="midnightblue" stroke="midnightblue" points="577.22,-135.49 566.73,-137.03 575.89,-142.36 577.22,-135.49"/>
</g>
<!-- Node10 -->
<g id="node10" class="node">
<title>Node10</title>
<g id="a_node10"><a xlink:href="_coll_mgr_8_h.html" target="_top" xlink:title=" ">
<polygon fill="white" stroke="black" points="608,-118 608,-137 745,-137 745,-118 608,-118"/>
<text text-anchor="middle" x="676.5" y="-125" font-family="Helvetica,sans-Serif" font-size="10.00">amr&#45;wind/core/CollMgr.H</text>
</a>
</g>
</g>
<!-- Node3&#45;&gt;Node10 -->
<g id="edge9" class="edge">
<title>Node3&#45;&gt;Node10</title>
<path fill="none" stroke="midnightblue" d="M835.2,-184.87C803.12,-173.47 746.47,-153.35 710.25,-140.49"/>
<polygon fill="midnightblue" stroke="midnightblue" points="711.2,-137.11 700.61,-137.06 708.86,-143.71 711.2,-137.11"/>
</g>
<!-- Node13 -->
<g id="node13" class="node">
<title>Node13</title>
<g id="a_node13"><a xlink:title=" ">
<polygon fill="white" stroke="#bfbfbf" points="2126,-0.5 2126,-19.5 2235,-19.5 2235,-0.5 2126,-0.5"/>
<text text-anchor="middle" x="2180.5" y="-7.5" font-family="Helvetica,sans-Serif" font-size="10.00">AMReX_MultiFab.H</text>
</a>
</g>
</g>
<!-- Node3&#45;&gt;Node13 -->
<g id="edge14" class="edge">
<title>Node3&#45;&gt;Node13</title>
<path fill="none" stroke="midnightblue" d="M900.04,-185C912.63,-182.67 926.59,-180.4 939.5,-179 1367.5,-132.49 1481.66,-206.29 1907.5,-143 2022.98,-125.84 2077.86,-157.45 2161.5,-76 2173.73,-64.09 2178.2,-44.78 2179.78,-30.3"/>
<polygon fill="midnightblue" stroke="midnightblue" points="2183.29,-30.17 2180.51,-19.95 2176.31,-29.68 2183.29,-30.17"/>
</g>
<!-- Node14 -->
<g id="node14" class="node">
<title>Node14</title>
<g id="a_node14"><a xlink:title=" ">
<polygon fill="white" stroke="#bfbfbf" points="802,-118 802,-137 917,-137 917,-118 802,-118"/>
<text text-anchor="middle" x="859.5" y="-125" font-family="Helvetica,sans-Serif" font-size="10.00">AMReX_Geometry.H</text>
</a>
</g>
</g>
<!-- Node3&#45;&gt;Node14 -->
<g id="edge15" class="edge">
<title>Node3&#45;&gt;Node14</title>
<path fill="none" stroke="midnightblue" d="M859.5,-184.73C859.5,-175.18 859.5,-159.62 859.5,-147.28"/>
<polygon fill="midnightblue" stroke="midnightblue" points="863,-147.13 859.5,-137.13 856,-147.13 863,-147.13"/>
</g>
<!-- Node5 -->
<g id="node5" class="node">
<title>Node5</title>
<g id="a_node5"><a xlink:title=" ">
<polygon fill="white" stroke="#bfbfbf" points="515.5,-56.5 515.5,-75.5 573.5,-75.5 573.5,-56.5 515.5,-56.5"/>
<text text-anchor="middle" x="544.5" y="-63.5" font-family="Helvetica,sans-Serif" font-size="10.00">memory</text>
</a>
</g>
</g>
<!-- Node4&#45;&gt;Node5 -->
<g id="edge4" class="edge">
<title>Node4&#45;&gt;Node5</title>
<path fill="none" stroke="midnightblue" d="M525.65,-117.98C528.82,-109.4 533.8,-95.93 537.85,-84.98"/>
<polygon fill="midnightblue" stroke="midnightblue" points="541.17,-86.1 541.35,-75.51 534.6,-83.67 541.17,-86.1"/>
</g>
<!-- Node6 -->
<g id="node6" class="node">
<title>Node6</title>
<g id="a_node6"><a xlink:title=" ">
<polygon fill="white" stroke="#bfbfbf" points="630,-56.5 630,-75.5 723,-75.5 723,-56.5 630,-56.5"/>
<text text-anchor="middle" x="676.5" y="-63.5" font-family="Helvetica,sans-Serif" font-size="10.00">unordered_map</text>
</a>
</g>
</g>
<!-- Node4&#45;&gt;Node6 -->
<g id="edge5" class="edge">
<title>Node4&#45;&gt;Node6</title>
<path fill="none" stroke="midnightblue" d="M544.56,-117.98C570.87,-107.81 615.01,-90.76 644.92,-79.2"/>
<polygon fill="midnightblue" stroke="midnightblue" points="646.41,-82.38 654.48,-75.51 643.89,-75.85 646.41,-82.38"/>
</g>
<!-- Node7 -->
<g id="node7" class="node">
<title>Node7</title>
<g id="a_node7"><a xlink:title=" ">
<polygon fill="white" stroke="#bfbfbf" points="291.5,-56.5 291.5,-75.5 351.5,-75.5 351.5,-56.5 291.5,-56.5"/>
<text text-anchor="middle" x="321.5" y="-63.5" font-family="Helvetica,sans-Serif" font-size="10.00">iostream</text>
</a>
</g>
</g>
<!-- Node4&#45;&gt;Node7 -->
<g id="edge6" class="edge">
<title>Node4&#45;&gt;Node7</title>
<path fill="none" stroke="midnightblue" d="M493.7,-117.98C458.63,-107.59 399.24,-90.01 360.19,-78.45"/>
<polygon fill="midnightblue" stroke="midnightblue" points="360.83,-74.99 350.24,-75.51 358.84,-81.7 360.83,-74.99"/>
</g>
<!-- Node8 -->
<g id="node8" class="node">
<title>Node8</title>
<g id="a_node8"><a xlink:title=" ">
<polygon fill="white" stroke="#bfbfbf" points="369.5,-56.5 369.5,-75.5 459.5,-75.5 459.5,-56.5 369.5,-56.5"/>
<text text-anchor="middle" x="414.5" y="-63.5" font-family="Helvetica,sans-Serif" font-size="10.00">AMReX_Print.H</text>
</a>
</g>
</g>
<!-- Node4&#45;&gt;Node8 -->
<g id="edge7" class="edge">
<title>Node4&#45;&gt;Node8</title>
<path fill="none" stroke="midnightblue" d="M507.03,-117.98C489.22,-108.17 459.76,-91.93 438.87,-80.42"/>
<polygon fill="midnightblue" stroke="midnightblue" points="440.39,-77.27 429.95,-75.51 437.01,-83.4 440.39,-77.27"/>
</g>
<!-- Node9 -->
<g id="node9" class="node">
<title>Node9</title>
<g id="a_node9"><a xlink:title=" ">
<polygon fill="white" stroke="#bfbfbf" points="211.5,-56.5 211.5,-75.5 273.5,-75.5 273.5,-56.5 211.5,-56.5"/>
<text text-anchor="middle" x="242.5" y="-63.5" font-family="Helvetica,sans-Serif" font-size="10.00">AMReX.H</text>
</a>
</g>
</g>
<!-- Node4&#45;&gt;Node9 -->
<g id="edge8" class="edge">
<title>Node4&#45;&gt;Node9</title>
<path fill="none" stroke="midnightblue" d="M480.84,-117.92C435,-108.43 358.88,-92.56 284.01,-76.31"/>
<polygon fill="midnightblue" stroke="midnightblue" points="284.45,-72.82 273.93,-74.12 282.96,-79.66 284.45,-72.82"/>
</g>
<!-- Node10&#45;&gt;Node5 -->
<g id="edge11" class="edge">
<title>Node10&#45;&gt;Node5</title>
<path fill="none" stroke="midnightblue" d="M657.59,-117.98C635.34,-107.95 598.19,-91.2 572.57,-79.65"/>
<polygon fill="midnightblue" stroke="midnightblue" points="573.93,-76.43 563.38,-75.51 571.06,-82.81 573.93,-76.43"/>
</g>
<!-- Node10&#45;&gt;Node6 -->
<g id="edge12" class="edge">
<title>Node10&#45;&gt;Node6</title>
<path fill="none" stroke="midnightblue" d="M676.5,-117.98C676.5,-109.58 676.5,-96.48 676.5,-85.66"/>
<polygon fill="midnightblue" stroke="midnightblue" points="680,-85.51 676.5,-75.51 673,-85.51 680,-85.51"/>
</g>
<!-- Node11 -->
<g id="node11" class="node">
<title>Node11</title>
<g id="a_node11"><a xlink:title=" ">
<polygon fill="white" stroke="#bfbfbf" points="926.5,-0.5 926.5,-19.5 970.5,-19.5 970.5,-0.5 926.5,-0.5"/>
<text text-anchor="middle" x="948.5" y="-7.5" font-family="Helvetica,sans-Serif" font-size="10.00">string</text>
</a>
</g>
</g>
<!-- Node10&#45;&gt;Node11 -->
<g id="edge10" class="edge">
<title>Node10&#45;&gt;Node11</title>
<path fill="none" stroke="midnightblue" d="M639.44,-117.97C591.91,-106.66 514.6,-86.86 506.5,-76 501.18,-68.88 500.54,-62.6 506.5,-56 533.91,-25.66 819.18,-14.71 916.32,-11.84"/>
<polygon fill="midnightblue" stroke="midnightblue" points="916.53,-15.34 926.42,-11.55 916.33,-8.34 916.53,-15.34"/>
</g>
<!-- Node12 -->
<g id="node12" class="node">
<title>Node12</title>
<g id="a_node12"><a xlink:title=" ">
<polygon fill="white" stroke="#bfbfbf" points="1307.5,-0.5 1307.5,-19.5 1405.5,-19.5 1405.5,-0.5 1307.5,-0.5"/>
<text text-anchor="middle" x="1356.5" y="-7.5" font-family="Helvetica,sans-Serif" font-size="10.00">AMReX_Vector.H</text>
</a>
</g>
</g>
<!-- Node10&#45;&gt;Node12 -->
<g id="edge13" class="edge">
<title>Node10&#45;&gt;Node12</title>
<path fill="none" stroke="midnightblue" d="M661.03,-117.88C638.34,-104.2 600.79,-76.95 620.5,-56 643.59,-31.46 1126.67,-16.84 1297.38,-12.43"/>
<polygon fill="midnightblue" stroke="midnightblue" points="1297.54,-15.93 1307.45,-12.17 1297.36,-8.93 1297.54,-15.93"/>
</g>
<!-- Node15&#45;&gt;Node5 -->
<g id="edge18" class="edge">
<title>Node15&#45;&gt;Node5</title>
<path fill="none" stroke="midnightblue" d="M1063.27,-120.64C967.9,-111.59 779.91,-93.41 620.5,-76 608.55,-74.69 595.55,-73.19 583.74,-71.78"/>
<polygon fill="midnightblue" stroke="midnightblue" points="584.06,-68.3 573.72,-70.59 583.23,-75.25 584.06,-68.3"/>
</g>
<!-- Node15&#45;&gt;Node6 -->
<g id="edge19" class="edge">
<title>Node15&#45;&gt;Node6</title>
<path fill="none" stroke="midnightblue" d="M1063.31,-119.21C987.63,-110.18 855.72,-93.95 733.22,-76.21"/>
<polygon fill="midnightblue" stroke="midnightblue" points="733.69,-72.75 723.29,-74.77 732.68,-79.67 733.69,-72.75"/>
</g>
<!-- Node15&#45;&gt;Node11 -->
<g id="edge17" class="edge">
<title>Node15&#45;&gt;Node11</title>
<path fill="none" stroke="midnightblue" d="M1063.47,-120.61C1030.89,-114.41 992.63,-101.77 967.5,-76 955.58,-63.78 951.07,-44.51 949.4,-30.12"/>
<polygon fill="midnightblue" stroke="midnightblue" points="952.86,-29.55 948.58,-19.86 945.89,-30.1 952.86,-29.55"/>
</g>
<!-- Node15&#45;&gt;Node13 -->
<g id="edge21" class="edge">
<title>Node15&#45;&gt;Node13</title>
<path fill="none" stroke="midnightblue" d="M1181.97,-117.96C1246.3,-108.16 1354.56,-91.44 1447.5,-76 1498.25,-67.57 1510.45,-62.32 1561.5,-56 1762.67,-31.11 2002.45,-18.5 2115.46,-13.56"/>
<polygon fill="midnightblue" stroke="midnightblue" points="2115.83,-17.05 2125.67,-13.12 2115.53,-10.06 2115.83,-17.05"/>
</g>
<!-- Node16 -->
<g id="node16" class="node">
<title>Node16</title>
<g id="a_node16"><a xlink:title=" ">
<polygon fill="white" stroke="#bfbfbf" points="1094.5,-56.5 1094.5,-75.5 1158.5,-75.5 1158.5,-56.5 1094.5,-56.5"/>
<text text-anchor="middle" x="1126.5" y="-63.5" font-family="Helvetica,sans-Serif" font-size="10.00">algorithm</text>
</a>
</g>
</g>
<!-- Node15&#45;&gt;Node16 -->
<g id="edge20" class="edge">
<title>Node15&#45;&gt;Node16</title>
<path fill="none" stroke="midnightblue" d="M1125.64,-117.98C1125.78,-109.58 1126,-96.48 1126.19,-85.66"/>
<polygon fill="midnightblue" stroke="midnightblue" points="1129.69,-85.57 1126.36,-75.51 1122.69,-85.45 1129.69,-85.57"/>
</g>
<!-- Node17 -->
<g id="node17" class="node">
<title>Node17</title>
<g id="a_node17"><a xlink:title=" ">
<polygon fill="white" stroke="#bfbfbf" points="977,-56.5 977,-75.5 1076,-75.5 1076,-56.5 977,-56.5"/>
<text text-anchor="middle" x="1026.5" y="-63.5" font-family="Helvetica,sans-Serif" font-size="10.00">AMReX_BCRec.H</text>
</a>
</g>
</g>
<!-- Node15&#45;&gt;Node17 -->
<g id="edge22" class="edge">
<title>Node15&#45;&gt;Node17</title>
<path fill="none" stroke="midnightblue" d="M1111.32,-117.98C1095.14,-108.25 1068.47,-92.23 1049.36,-80.74"/>
<polygon fill="midnightblue" stroke="midnightblue" points="1051.03,-77.66 1040.66,-75.51 1047.43,-83.66 1051.03,-77.66"/>
</g>
<!-- Node18 -->
<g id="node18" class="node">
<title>Node18</title>
<g id="a_node18"><a xlink:title=" ">
<polygon fill="white" stroke="#bfbfbf" points="1853,-56.5 1853,-75.5 1940,-75.5 1940,-56.5 1853,-56.5"/>
<text text-anchor="middle" x="1896.5" y="-63.5" font-family="Helvetica,sans-Serif" font-size="10.00">AMReX_Gpu.H</text>
</a>
</g>
</g>
<!-- Node15&#45;&gt;Node18 -->
<g id="edge23" class="edge">
<title>Node15&#45;&gt;Node18</title>
<path fill="none" stroke="midnightblue" d="M1187.62,-121.71C1335,-110.33 1703.83,-81.87 1842.58,-71.16"/>
<polygon fill="midnightblue" stroke="midnightblue" points="1843.25,-74.62 1852.95,-70.36 1842.71,-67.64 1843.25,-74.62"/>
</g>
<!-- Node19 -->
<g id="node19" class="node">
<title>Node19</title>
<g id="a_node19"><a xlink:href="incflo__enums_8_h.html" target="_top" xlink:title=" ">
<polygon fill="white" stroke="black" points="741,-56.5 741,-75.5 882,-75.5 882,-56.5 741,-56.5"/>
<text text-anchor="middle" x="811.5" y="-63.5" font-family="Helvetica,sans-Serif" font-size="10.00">amr&#45;wind/incflo_enums.H</text>
</a>
</g>
</g>
<!-- Node15&#45;&gt;Node19 -->
<g id="edge24" class="edge">
<title>Node15&#45;&gt;Node19</title>
<path fill="none" stroke="midnightblue" d="M1080.51,-117.98C1024.08,-107.28 927.38,-88.96 866.58,-77.44"/>
<polygon fill="midnightblue" stroke="midnightblue" points="866.88,-73.93 856.41,-75.51 865.58,-80.81 866.88,-73.93"/>
</g>
<!-- Node20 -->
<g id="node20" class="node">
<title>Node20</title>
<g id="a_node20"><a xlink:href="_field_desc_types_8_h.html" target="_top" xlink:title=" ">
<polygon fill="white" stroke="black" points="1423.5,-0.5 1423.5,-19.5 1599.5,-19.5 1599.5,-0.5 1423.5,-0.5"/>
<text text-anchor="middle" x="1511.5" y="-7.5" font-family="Helvetica,sans-Serif" font-size="10.00">amr&#45;wind/core/FieldDescTypes.H</text>
</a>
</g>
</g>
<!-- Node15&#45;&gt;Node20 -->
<g id="edge25" class="edge">
<title>Node15&#45;&gt;Node20</title>
<path fill="none" stroke="midnightblue" d="M1141.41,-117.81C1169.09,-103.04 1228.27,-72.98 1281.5,-56 1332.31,-39.79 1391.39,-28.38 1436.95,-21.11"/>
<polygon fill="midnightblue" stroke="midnightblue" points="1437.71,-24.53 1447.05,-19.53 1436.63,-17.62 1437.71,-24.53"/>
</g>
<!-- Node21 -->
<g id="node21" class="node">
<title>Node21</title>
<g id="a_node21"><a xlink:href="_view_field_8_h.html" target="_top" xlink:title=" ">
<polygon fill="white" stroke="black" points="1290.5,-56.5 1290.5,-75.5 1438.5,-75.5 1438.5,-56.5 1290.5,-56.5"/>
<text text-anchor="middle" x="1364.5" y="-63.5" font-family="Helvetica,sans-Serif" font-size="10.00">amr&#45;wind/core/ViewField.H</text>
</a>
</g>
</g>
<!-- Node15&#45;&gt;Node21 -->
<g id="edge26" class="edge">
<title>Node15&#45;&gt;Node21</title>
<path fill="none" stroke="midnightblue" d="M1159.74,-117.98C1202.07,-107.44 1274.18,-89.49 1320.55,-77.94"/>
<polygon fill="midnightblue" stroke="midnightblue" points="1321.46,-81.32 1330.32,-75.51 1319.77,-74.53 1321.46,-81.32"/>
</g>
<!-- Node21&#45;&gt;Node11 -->
<g id="edge27" class="edge">
<title>Node21&#45;&gt;Node11</title>
<path fill="none" stroke="midnightblue" d="M1298.58,-56.44C1208.12,-44.7 1048.96,-24.04 980.88,-15.2"/>
<polygon fill="midnightblue" stroke="midnightblue" points="981.12,-11.71 970.76,-13.89 980.22,-18.65 981.12,-11.71"/>
</g>
<!-- Node21&#45;&gt;Node12 -->
<g id="edge30" class="edge">
<title>Node21&#45;&gt;Node12</title>
<path fill="none" stroke="midnightblue" d="M1363.18,-56.08C1362.12,-48.93 1360.59,-38.64 1359.27,-29.69"/>
<polygon fill="midnightblue" stroke="midnightblue" points="1362.72,-29.13 1357.8,-19.75 1355.8,-30.16 1362.72,-29.13"/>
</g>
<!-- Node21&#45;&gt;Node13 -->
<g id="edge29" class="edge">
<title>Node21&#45;&gt;Node13</title>
<path fill="none" stroke="midnightblue" d="M1438.72,-60.09C1597.07,-49.61 1965.83,-25.21 2115.57,-15.3"/>
<polygon fill="midnightblue" stroke="midnightblue" points="2116.22,-18.76 2125.97,-14.61 2115.76,-11.78 2116.22,-18.76"/>
</g>
<!-- Node21&#45;&gt;Node20 -->
<g id="edge28" class="edge">
<title>Node21&#45;&gt;Node20</title>
<path fill="none" stroke="midnightblue" d="M1387.79,-56.44C1412.31,-47.44 1451.1,-33.19 1478.7,-23.05"/>
<polygon fill="midnightblue" stroke="midnightblue" points="1480.14,-26.25 1488.32,-19.52 1477.72,-19.68 1480.14,-26.25"/>
</g>
<!-- Node22&#45;&gt;Node3 -->
<g id="edge69" class="edge">
<title>Node22&#45;&gt;Node3</title>
<path fill="none" stroke="midnightblue" d="M1413.45,-256.61C1315.47,-249.67 1111.14,-233.66 939.5,-210 930.86,-208.81 921.74,-207.35 912.86,-205.82"/>
<polygon fill="midnightblue" stroke="midnightblue" points="913.45,-202.37 902.99,-204.07 912.23,-209.26 913.45,-202.37"/>
</g>
<!-- Node23 -->
<g id="node23" class="node">
<title>Node23</title>
<g id="a_node23"><a xlink:title=" ">
<polygon fill="white" stroke="#bfbfbf" points="2322.5,-118 2322.5,-137 2432.5,-137 2432.5,-118 2322.5,-118"/>
<text text-anchor="middle" x="2377.5" y="-125" font-family="Helvetica,sans-Serif" font-size="10.00">AMReX_AmrCore.H</text>
</a>
</g>
</g>
<!-- Node22&#45;&gt;Node23 -->
<g id="edge32" class="edge">
<title>Node22&#45;&gt;Node23</title>
<path fill="none" stroke="midnightblue" d="M1511.4,-251.99C1521.83,-249.9 1533.06,-247.76 1543.5,-246 1879.64,-189.43 1967.21,-198.69 2303.5,-143 2310.86,-141.78 2318.62,-140.39 2326.22,-138.95"/>
<polygon fill="midnightblue" stroke="midnightblue" points="2326.93,-142.38 2336.09,-137.06 2325.61,-135.51 2326.93,-142.38"/>
</g>
<!-- Node24 -->
<g id="node24" class="node">
<title>Node24</title>
<g id="a_node24"><a xlink:href="_sim_time_8_h.html" target="_top" xlink:title=" ">
<polygon fill="white" stroke="black" points="2502.5,-185 2502.5,-204 2646.5,-204 2646.5,-185 2502.5,-185"/>
<text text-anchor="middle" x="2574.5" y="-192" font-family="Helvetica,sans-Serif" font-size="10.00">amr&#45;wind/core/SimTime.H</text>
</a>
</g>
</g>
<!-- Node22&#45;&gt;Node24 -->
<g id="edge33" class="edge">
<title>Node22&#45;&gt;Node24</title>
<path fill="none" stroke="midnightblue" d="M1508.32,-251.98C1519.56,-249.68 1531.99,-247.43 1543.5,-246 1726.45,-223.23 2281.33,-204.44 2492.09,-197.94"/>
<polygon fill="midnightblue" stroke="midnightblue" points="2492.27,-201.44 2502.16,-197.63 2492.06,-194.44 2492.27,-201.44"/>
</g>
<!-- Node28 -->
<g id="node28" class="node">
<title>Node28</title>
<g id="a_node28"><a xlink:href="_field_repo_8_h.html" target="_top" xlink:title=" ">
<polygon fill="white" stroke="black" points="1586,-185 1586,-204 1735,-204 1735,-185 1586,-185"/>
<text text-anchor="middle" x="1660.5" y="-192" font-family="Helvetica,sans-Serif" font-size="10.00">amr&#45;wind/core/FieldRepo.H</text>
</a>
</g>
</g>
<!-- Node22&#45;&gt;Node28 -->
<g id="edge37" class="edge">
<title>Node22&#45;&gt;Node28</title>
<path fill="none" stroke="midnightblue" d="M1496.6,-251.87C1529.87,-240.42 1588.74,-220.18 1626.12,-207.32"/>
<polygon fill="midnightblue" stroke="midnightblue" points="1627.28,-210.63 1635.6,-204.06 1625,-204.01 1627.28,-210.63"/>
</g>
<!-- Node36 -->
<g id="node36" class="node">
<title>Node36</title>
<g id="a_node36"><a xlink:href="_p_d_e_base_8_h.html" target="_top" xlink:title=" ">
<polygon fill="white" stroke="black" points="599,-179.5 599,-209.5 754,-209.5 754,-179.5 599,-179.5"/>
<text text-anchor="start" x="607" y="-197.5" font-family="Helvetica,sans-Serif" font-size="10.00">amr&#45;wind/equation_systems</text>
<text text-anchor="middle" x="676.5" y="-186.5" font-family="Helvetica,sans-Serif" font-size="10.00">/PDEBase.H</text>
</a>
</g>
</g>
<!-- Node22&#45;&gt;Node36 -->
<g id="edge61" class="edge">
<title>Node22&#45;&gt;Node36</title>
<path fill="none" stroke="midnightblue" d="M1413.23,-257.5C1294.28,-251.1 1015.02,-234.64 781.5,-210 775.81,-209.4 769.96,-208.73 764.07,-208.02"/>
<polygon fill="midnightblue" stroke="midnightblue" points="764.48,-204.55 754.13,-206.79 763.62,-211.49 764.48,-204.55"/>
</g>
<!-- Node39 -->
<g id="node39" class="node">
<title>Node39</title>
<g id="a_node39"><a xlink:href="_mesh_map_8_h.html" target="_top" xlink:title=" ">
<polygon fill="white" stroke="black" points="948.5,-185 948.5,-204 1096.5,-204 1096.5,-185 948.5,-185"/>
<text text-anchor="middle" x="1022.5" y="-192" font-family="Helvetica,sans-Serif" font-size="10.00">amr&#45;wind/core/MeshMap.H</text>
</a>
</g>
</g>
<!-- Node22&#45;&gt;Node39 -->
<g id="edge70" class="edge">
<title>Node22&#45;&gt;Node39</title>
<path fill="none" stroke="midnightblue" d="M1413.26,-252.07C1330.55,-240.1 1179.35,-218.21 1091.25,-205.45"/>
<polygon fill="midnightblue" stroke="midnightblue" points="1091.75,-201.99 1081.35,-204.02 1090.74,-208.92 1091.75,-201.99"/>
</g>
<!-- Node25 -->
<g id="node25" class="node">
<title>Node25</title>
<g id="a_node25"><a xlink:title=" ">
<polygon fill="white" stroke="#bfbfbf" points="2736.5,-118 2736.5,-137 2828.5,-137 2828.5,-118 2736.5,-118"/>
<text text-anchor="middle" x="2782.5" y="-125" font-family="Helvetica,sans-Serif" font-size="10.00">AMReX_REAL.H</text>
</a>
</g>
</g>
<!-- Node24&#45;&gt;Node25 -->
<g id="edge34" class="edge">
<title>Node24&#45;&gt;Node25</title>
<path fill="none" stroke="midnightblue" d="M2602.12,-184.87C2638.98,-173.35 2704.35,-152.92 2745.45,-140.08"/>
<polygon fill="midnightblue" stroke="midnightblue" points="2746.6,-143.39 2755.1,-137.06 2744.51,-136.71 2746.6,-143.39"/>
</g>
<!-- Node26 -->
<g id="node26" class="node">
<title>Node26</title>
<g id="a_node26"><a xlink:title=" ">
<polygon fill="white" stroke="#bfbfbf" points="2584.5,-118 2584.5,-137 2718.5,-137 2718.5,-118 2584.5,-118"/>
<text text-anchor="middle" x="2651.5" y="-125" font-family="Helvetica,sans-Serif" font-size="10.00">AMReX_GpuQualifiers.H</text>
</a>
</g>
</g>
<!-- Node24&#45;&gt;Node26 -->
<g id="edge35" class="edge">
<title>Node24&#45;&gt;Node26</title>
<path fill="none" stroke="midnightblue" d="M2584.88,-184.73C2597.35,-174.21 2618.47,-156.38 2633.59,-143.62"/>
<polygon fill="midnightblue" stroke="midnightblue" points="2635.9,-146.25 2641.28,-137.13 2631.38,-140.9 2635.9,-146.25"/>
</g>
<!-- Node27 -->
<g id="node27" class="node">
<title>Node27</title>
<g id="a_node27"><a xlink:title=" ">
<polygon fill="white" stroke="#bfbfbf" points="2450.5,-118 2450.5,-137 2566.5,-137 2566.5,-118 2450.5,-118"/>
<text text-anchor="middle" x="2508.5" y="-125" font-family="Helvetica,sans-Serif" font-size="10.00">AMReX_Extension.H</text>
</a>
</g>
</g>
<!-- Node24&#45;&gt;Node27 -->
<g id="edge36" class="edge">
<title>Node24&#45;&gt;Node27</title>
<path fill="none" stroke="midnightblue" d="M2565.6,-184.73C2555.11,-174.4 2537.48,-157.04 2524.58,-144.33"/>
<polygon fill="midnightblue" stroke="midnightblue" points="2526.84,-141.65 2517.26,-137.13 2521.93,-146.64 2526.84,-141.65"/>
</g>
<!-- Node28&#45;&gt;Node6 -->
<g id="edge39" class="edge">
<title>Node28&#45;&gt;Node6</title>
<path fill="none" stroke="midnightblue" d="M1585.97,-193.06C1431.45,-191.32 1081.28,-182.96 969.5,-143 946.97,-134.95 947.57,-121.23 925.5,-112 916.65,-108.3 803.97,-88.7 733.26,-76.62"/>
<polygon fill="midnightblue" stroke="midnightblue" points="733.59,-73.13 723.15,-74.9 732.42,-80.03 733.59,-73.13"/>
</g>
<!-- Node28&#45;&gt;Node11 -->
<g id="edge38" class="edge">
<title>Node28&#45;&gt;Node11</title>
<path fill="none" stroke="midnightblue" d="M1585.96,-191.87C1446.34,-188.05 1150.81,-176.22 1054.5,-143 1003.23,-125.31 979.71,-122.92 952.5,-76 944.44,-62.09 944.1,-43.58 945.39,-29.87"/>
<polygon fill="midnightblue" stroke="midnightblue" points="948.89,-30.06 946.72,-19.69 941.95,-29.15 948.89,-30.06"/>
</g>
<!-- Node28&#45;&gt;Node13 -->
<g id="edge59" class="edge">
<title>Node28&#45;&gt;Node13</title>
<path fill="none" stroke="midnightblue" d="M1731.32,-185C1749.61,-182.91 1769.28,-180.78 1787.5,-179 1836.87,-174.19 2198.87,-179.46 2232.5,-143 2258.72,-114.58 2248.57,-91.17 2232.5,-56 2226.72,-43.36 2215.45,-32.91 2204.87,-25.27"/>
<polygon fill="midnightblue" stroke="midnightblue" points="2206.54,-22.18 2196.28,-19.53 2202.65,-28 2206.54,-22.18"/>
</g>
<!-- Node28&#45;&gt;Node15 -->
<g id="edge45" class="edge">
<title>Node28&#45;&gt;Node15</title>
<path fill="none" stroke="midnightblue" d="M1590.28,-184.97C1488.5,-172.6 1300.9,-149.81 1197.91,-137.3"/>
<polygon fill="midnightblue" stroke="midnightblue" points="1198.25,-133.81 1187.9,-136.08 1197.41,-140.76 1198.25,-133.81"/>
</g>
<!-- Node28&#45;&gt;Node20 -->
<g id="edge40" class="edge">
<title>Node28&#45;&gt;Node20</title>
<path fill="none" stroke="midnightblue" d="M1666.9,-184.7C1683.16,-161.18 1722.67,-95.93 1691.5,-56 1678.75,-39.66 1633.33,-28.38 1591.31,-21.2"/>
<polygon fill="midnightblue" stroke="midnightblue" points="1591.73,-17.72 1581.29,-19.55 1590.59,-24.63 1591.73,-17.72"/>
</g>
<!-- Node28&#45;&gt;Node23 -->
<g id="edge58" class="edge">
<title>Node28&#45;&gt;Node23</title>
<path fill="none" stroke="midnightblue" d="M1735.19,-190.82C1856.14,-185.78 2102.14,-172.6 2308.5,-143 2315.91,-141.94 2323.73,-140.55 2331.32,-139.06"/>
<polygon fill="midnightblue" stroke="midnightblue" points="2332.03,-142.49 2341.13,-137.06 2330.63,-135.63 2332.03,-142.49"/>
</g>
<!-- Node29 -->
<g id="node29" class="node">
<title>Node29</title>
<g id="a_node29"><a xlink:href="_field_utils_8_h.html" target="_top" xlink:title=" ">
<polygon fill="white" stroke="black" points="2284.5,-56.5 2284.5,-75.5 2430.5,-75.5 2430.5,-56.5 2284.5,-56.5"/>
<text text-anchor="middle" x="2357.5" y="-63.5" font-family="Helvetica,sans-Serif" font-size="10.00">amr&#45;wind/core/FieldUtils.H</text>
</a>
</g>
</g>
<!-- Node28&#45;&gt;Node29 -->
<g id="edge41" class="edge">
<title>Node28&#45;&gt;Node29</title>
<path fill="none" stroke="midnightblue" d="M1735.09,-189.94C1887.05,-182.31 2222.3,-163.4 2270.5,-143 2286.64,-136.17 2321.3,-103.23 2341.67,-83.03"/>
<polygon fill="midnightblue" stroke="midnightblue" points="2344.35,-85.29 2348.94,-75.74 2339.4,-80.34 2344.35,-85.29"/>
</g>
<!-- Node31 -->
<g id="node31" class="node">
<title>Node31</title>
<g id="a_node31"><a xlink:href="_int_field_8_h.html" target="_top" xlink:title=" ">
<polygon fill="white" stroke="black" points="1495,-118 1495,-137 1632,-137 1632,-118 1495,-118"/>
<text text-anchor="middle" x="1563.5" y="-125" font-family="Helvetica,sans-Serif" font-size="10.00">amr&#45;wind/core/IntField.H</text>
</a>
</g>
</g>
<!-- Node28&#45;&gt;Node31 -->
<g id="edge46" class="edge">
<title>Node28&#45;&gt;Node31</title>
<path fill="none" stroke="midnightblue" d="M1647.42,-184.73C1631.35,-173.96 1603.87,-155.55 1584.75,-142.74"/>
<polygon fill="midnightblue" stroke="midnightblue" points="1586.63,-139.79 1576.37,-137.13 1582.73,-145.6 1586.63,-139.79"/>
</g>
<!-- Node32 -->
<g id="node32" class="node">
<title>Node32</title>
<g id="a_node32"><a xlink:title=" ">
<polygon fill="white" stroke="#bfbfbf" points="1570.5,-56.5 1570.5,-75.5 1682.5,-75.5 1682.5,-56.5 1570.5,-56.5"/>
<text text-anchor="middle" x="1626.5" y="-63.5" font-family="Helvetica,sans-Serif" font-size="10.00">AMReX_iMultiFab.H</text>
</a>
</g>
</g>
<!-- Node28&#45;&gt;Node32 -->
<g id="edge60" class="edge">
<title>Node28&#45;&gt;Node32</title>
<path fill="none" stroke="midnightblue" d="M1658.76,-184.87C1655.69,-169.92 1648.93,-138.28 1641.5,-112 1638.98,-103.07 1635.77,-93.29 1632.97,-85.13"/>
<polygon fill="midnightblue" stroke="midnightblue" points="1636.22,-83.83 1629.61,-75.55 1629.62,-86.15 1636.22,-83.83"/>
</g>
<!-- Node33 -->
<g id="node33" class="node">
<title>Node33</title>
<g id="a_node33"><a xlink:href="_scratch_field_8_h.html" target="_top" xlink:title=" ">
<polygon fill="white" stroke="black" points="1738.5,-118 1738.5,-137 1898.5,-137 1898.5,-118 1738.5,-118"/>
<text text-anchor="middle" x="1818.5" y="-125" font-family="Helvetica,sans-Serif" font-size="10.00">amr&#45;wind/core/ScratchField.H</text>
</a>
</g>
</g>
<!-- Node28&#45;&gt;Node33 -->
<g id="edge50" class="edge">
<title>Node28&#45;&gt;Node33</title>
<path fill="none" stroke="midnightblue" d="M1681.48,-184.87C1708.75,-173.65 1756.57,-153.98 1787.89,-141.09"/>
<polygon fill="midnightblue" stroke="midnightblue" points="1789.52,-144.21 1797.43,-137.17 1786.85,-137.74 1789.52,-144.21"/>
</g>
<!-- Node29&#45;&gt;Node13 -->
<g id="edge43" class="edge">
<title>Node29&#45;&gt;Node13</title>
<path fill="none" stroke="midnightblue" d="M2329.45,-56.44C2299.42,-47.28 2251.59,-32.69 2218.26,-22.52"/>
<polygon fill="midnightblue" stroke="midnightblue" points="2219,-19.09 2208.41,-19.52 2216.96,-25.78 2219,-19.09"/>
</g>
<!-- Node29&#45;&gt;Node20 -->
<g id="edge42" class="edge">
<title>Node29&#45;&gt;Node20</title>
<path fill="none" stroke="midnightblue" d="M2284.27,-60.33C2132.06,-50.61 1781.43,-28.23 1609.78,-17.27"/>
<polygon fill="midnightblue" stroke="midnightblue" points="1609.94,-13.78 1599.74,-16.63 1609.5,-20.76 1609.94,-13.78"/>
</g>
<!-- Node30 -->
<g id="node30" class="node">
<title>Node30</title>
<g id="a_node30"><a xlink:title=" ">
<polygon fill="white" stroke="#bfbfbf" points="2295.5,-0.5 2295.5,-19.5 2419.5,-19.5 2419.5,-0.5 2295.5,-0.5"/>
<text text-anchor="middle" x="2357.5" y="-7.5" font-family="Helvetica,sans-Serif" font-size="10.00">AMReX_Interpolater.H</text>
</a>
</g>
</g>
<!-- Node29&#45;&gt;Node30 -->
<g id="edge44" class="edge">
<title>Node29&#45;&gt;Node30</title>
<path fill="none" stroke="midnightblue" d="M2357.5,-56.08C2357.5,-49.01 2357.5,-38.86 2357.5,-29.99"/>
<polygon fill="midnightblue" stroke="midnightblue" points="2361,-29.75 2357.5,-19.75 2354,-29.75 2361,-29.75"/>
</g>
<!-- Node31&#45;&gt;Node11 -->
<g id="edge47" class="edge">
<title>Node31&#45;&gt;Node11</title>
<path fill="none" stroke="midnightblue" d="M1500.47,-117.97C1436.68,-108.96 1335.34,-93.65 1248.5,-76 1212.16,-68.61 1203.67,-64.18 1167.5,-56 1101.22,-41.01 1023.18,-25.48 980.45,-17.16"/>
<polygon fill="midnightblue" stroke="midnightblue" points="981.12,-13.72 970.63,-15.25 979.78,-20.59 981.12,-13.72"/>
</g>
<!-- Node31&#45;&gt;Node20 -->
<g id="edge48" class="edge">
<title>Node31&#45;&gt;Node20</title>
<path fill="none" stroke="midnightblue" d="M1559.59,-117.82C1551.12,-99.01 1530.93,-54.15 1519.58,-28.96"/>
<polygon fill="midnightblue" stroke="midnightblue" points="1522.75,-27.46 1515.45,-19.78 1516.37,-30.34 1522.75,-27.46"/>
</g>
<!-- Node31&#45;&gt;Node32 -->
<g id="edge49" class="edge">
<title>Node31&#45;&gt;Node32</title>
<path fill="none" stroke="midnightblue" d="M1572.53,-117.98C1582.26,-108.78 1597.96,-93.96 1609.92,-82.66"/>
<polygon fill="midnightblue" stroke="midnightblue" points="1612.62,-84.92 1617.49,-75.51 1607.82,-79.83 1612.62,-84.92"/>
</g>
<!-- Node33&#45;&gt;Node11 -->
<g id="edge51" class="edge">
<title>Node33&#45;&gt;Node11</title>
<path fill="none" stroke="midnightblue" d="M1738.23,-119.97C1599.38,-108.52 1324.99,-85.17 1281.5,-76 1254,-70.2 1248.79,-62.75 1221.5,-56 1135.74,-34.78 1032.3,-20.82 980.85,-14.65"/>
<polygon fill="midnightblue" stroke="midnightblue" points="981.02,-11.14 970.68,-13.45 980.2,-18.1 981.02,-11.14"/>
</g>
<!-- Node33&#45;&gt;Node12 -->
<g id="edge56" class="edge">
<title>Node33&#45;&gt;Node12</title>
<path fill="none" stroke="midnightblue" d="M1806.6,-117.85C1784.92,-102.56 1737.01,-70.98 1691.5,-56 1576.69,-18.21 1539.37,-36.49 1415.77,-20.11"/>
<polygon fill="midnightblue" stroke="midnightblue" points="1415.92,-16.59 1405.54,-18.7 1414.96,-23.53 1415.92,-16.59"/>
</g>
<!-- Node33&#45;&gt;Node13 -->
<g id="edge55" class="edge">
<title>Node33&#45;&gt;Node13</title>
<path fill="none" stroke="midnightblue" d="M1818.94,-117.95C1820.2,-102.82 1825.15,-71.49 1844.5,-56 1885.11,-23.47 2029.91,-14.41 2115.6,-11.92"/>
<polygon fill="midnightblue" stroke="midnightblue" points="2115.84,-15.41 2125.74,-11.64 2115.65,-8.41 2115.84,-15.41"/>
</g>
<!-- Node33&#45;&gt;Node20 -->
<g id="edge53" class="edge">
<title>Node33&#45;&gt;Node20</title>
<path fill="none" stroke="midnightblue" d="M1814.34,-117.9C1806.49,-102.69 1788,-71.23 1762.5,-56 1736.18,-40.28 1664.88,-28.4 1604.97,-20.8"/>
<polygon fill="midnightblue" stroke="midnightblue" points="1605.06,-17.29 1594.7,-19.53 1604.19,-24.23 1605.06,-17.29"/>
</g>
<!-- Node33&#45;&gt;Node21 -->
<g id="edge54" class="edge">
<title>Node33&#45;&gt;Node21</title>
<path fill="none" stroke="midnightblue" d="M1753.45,-117.98C1670.43,-107.09 1527.11,-88.31 1439.56,-76.84"/>
<polygon fill="midnightblue" stroke="midnightblue" points="1439.8,-73.34 1429.43,-75.51 1438.89,-80.28 1439.8,-73.34"/>
</g>
<!-- Node34 -->
<g id="node34" class="node">
<title>Node34</title>
<g id="a_node34"><a xlink:title=" ">
<polygon fill="white" stroke="#bfbfbf" points="1958,-56.5 1958,-75.5 2003,-75.5 2003,-56.5 1958,-56.5"/>
<text text-anchor="middle" x="1980.5" y="-63.5" font-family="Helvetica,sans-Serif" font-size="10.00">utility</text>
</a>
</g>
</g>
<!-- Node33&#45;&gt;Node34 -->
<g id="edge52" class="edge">
<title>Node33&#45;&gt;Node34</title>
<path fill="none" stroke="midnightblue" d="M1841.71,-117.98C1869.66,-107.71 1916.75,-90.41 1948.23,-78.85"/>
<polygon fill="midnightblue" stroke="midnightblue" points="1949.67,-82.05 1957.85,-75.32 1947.26,-75.48 1949.67,-82.05"/>
</g>
<!-- Node35 -->
<g id="node35" class="node">
<title>Node35</title>
<g id="a_node35"><a xlink:title=" ">
<polygon fill="white" stroke="#bfbfbf" points="2021,-56.5 2021,-75.5 2152,-75.5 2152,-56.5 2021,-56.5"/>
<text text-anchor="middle" x="2086.5" y="-63.5" font-family="Helvetica,sans-Serif" font-size="10.00">AMReX_PhysBCFunct.H</text>
</a>
</g>
</g>
<!-- Node33&#45;&gt;Node35 -->
<g id="edge57" class="edge">
<title>Node33&#45;&gt;Node35</title>
<path fill="none" stroke="midnightblue" d="M1856.9,-117.98C1904.66,-107.37 1986.24,-89.26 2038.2,-77.72"/>
<polygon fill="midnightblue" stroke="midnightblue" points="2039.17,-81.09 2048.17,-75.51 2037.65,-74.26 2039.17,-81.09"/>
</g>
<!-- Node36&#45;&gt;Node4 -->
<g id="edge63" class="edge">
<title>Node36&#45;&gt;Node4</title>
<path fill="none" stroke="midnightblue" d="M643.08,-179.4C615.94,-167.94 578.03,-151.94 552,-140.95"/>
<polygon fill="midnightblue" stroke="midnightblue" points="553.23,-137.67 542.66,-137.01 550.51,-144.12 553.23,-137.67"/>
</g>
<!-- Node36&#45;&gt;Node10 -->
<g id="edge64" class="edge">
<title>Node36&#45;&gt;Node10</title>
<path fill="none" stroke="midnightblue" d="M676.5,-179.4C676.5,-170.06 676.5,-157.71 676.5,-147.52"/>
<polygon fill="midnightblue" stroke="midnightblue" points="680,-147.19 676.5,-137.19 673,-147.19 680,-147.19"/>
</g>
<!-- Node36&#45;&gt;Node11 -->
<g id="edge62" class="edge">
<title>Node36&#45;&gt;Node11</title>
<path fill="none" stroke="midnightblue" d="M598.83,-184.16C450.23,-164.77 145.23,-116.83 202.5,-56 227.31,-29.65 775.87,-15.04 916.09,-11.73"/>
<polygon fill="midnightblue" stroke="midnightblue" points="916.29,-15.23 926.21,-11.49 916.13,-8.23 916.29,-15.23"/>
</g>
<!-- Node36&#45;&gt;Node19 -->
<g id="edge68" class="edge">
<title>Node36&#45;&gt;Node19</title>
<path fill="none" stroke="midnightblue" d="M702.68,-179.34C718.37,-170.16 738.17,-157.27 753.5,-143 772.59,-125.23 790.1,-100.63 800.78,-84.29"/>
<polygon fill="midnightblue" stroke="midnightblue" points="803.8,-86.05 806.23,-75.74 797.9,-82.29 803.8,-86.05"/>
</g>
<!-- Node36&#45;&gt;Node20 -->
<g id="edge67" class="edge">
<title>Node36&#45;&gt;Node20</title>
<path fill="none" stroke="midnightblue" d="M754.14,-182.33C763.35,-181.14 772.63,-180 781.5,-179 1079.15,-145.56 1188.62,-226.64 1447.5,-76 1468.58,-63.73 1487.47,-42.69 1499.16,-27.88"/>
<polygon fill="midnightblue" stroke="midnightblue" points="1502.2,-29.67 1505.47,-19.6 1496.63,-25.43 1502.2,-29.67"/>
</g>
<!-- Node37 -->
<g id="node37" class="node">
<title>Node37</title>
<g id="a_node37"><a xlink:href="_p_d_e_fields_8_h.html" target="_top" xlink:title=" ">
<polygon fill="white" stroke="black" points="0,-112.5 0,-142.5 155,-142.5 155,-112.5 0,-112.5"/>
<text text-anchor="start" x="8" y="-130.5" font-family="Helvetica,sans-Serif" font-size="10.00">amr&#45;wind/equation_systems</text>
<text text-anchor="middle" x="77.5" y="-119.5" font-family="Helvetica,sans-Serif" font-size="10.00">/PDEFields.H</text>
</a>
</g>
</g>
<!-- Node36&#45;&gt;Node37 -->
<g id="edge65" class="edge">
<title>Node36&#45;&gt;Node37</title>
<path fill="none" stroke="midnightblue" d="M598.61,-187.13C498.94,-178.66 321.06,-162.48 169.5,-143 168.19,-142.83 166.87,-142.66 165.55,-142.48"/>
<polygon fill="midnightblue" stroke="midnightblue" points="165.64,-138.96 155.26,-141.07 164.69,-145.9 165.64,-138.96"/>
</g>
<!-- Node38 -->
<g id="node38" class="node">
<title>Node38</title>
<g id="a_node38"><a xlink:title=" ">
<polygon fill="white" stroke="#bfbfbf" points="53.5,-56.5 53.5,-75.5 101.5,-75.5 101.5,-56.5 53.5,-56.5"/>
<text text-anchor="middle" x="77.5" y="-63.5" font-family="Helvetica,sans-Serif" font-size="10.00">iosfwd</text>
</a>
</g>
</g>
<!-- Node37&#45;&gt;Node38 -->
<g id="edge66" class="edge">
<title>Node37&#45;&gt;Node38</title>
<path fill="none" stroke="midnightblue" d="M77.5,-112.4C77.5,-104.47 77.5,-94.46 77.5,-85.86"/>
<polygon fill="midnightblue" stroke="midnightblue" points="81,-85.66 77.5,-75.66 74,-85.66 81,-85.66"/>
</g>
<!-- Node39&#45;&gt;Node4 -->
<g id="edge72" class="edge">
<title>Node39&#45;&gt;Node4</title>
<path fill="none" stroke="midnightblue" d="M974.82,-184.93C962.37,-182.84 948.95,-180.71 936.5,-179 786.83,-158.43 747.94,-165.17 598.5,-143 590.47,-141.81 582,-140.37 573.74,-138.87"/>
<polygon fill="midnightblue" stroke="midnightblue" points="574.28,-135.41 563.81,-137.02 573,-142.29 574.28,-135.41"/>
</g>
<!-- Node39&#45;&gt;Node10 -->
<g id="edge71" class="edge">
<title>Node39&#45;&gt;Node10</title>
<path fill="none" stroke="midnightblue" d="M976.91,-184.94C913.81,-173.08 799.97,-151.7 732.01,-138.93"/>
<polygon fill="midnightblue" stroke="midnightblue" points="732.39,-135.44 721.92,-137.03 731.1,-142.32 732.39,-135.44"/>
</g>
<!-- Node39&#45;&gt;Node13 -->
<g id="edge74" class="edge">
<title>Node39&#45;&gt;Node13</title>
<path fill="none" stroke="midnightblue" d="M1096.68,-191.67C1351.34,-185.23 2175.45,-162.89 2194.5,-143 2224.03,-112.17 2203.49,-56.84 2189.88,-28.61"/>
<polygon fill="midnightblue" stroke="midnightblue" points="2192.93,-26.87 2185.29,-19.53 2186.68,-30.03 2192.93,-26.87"/>
</g>
<!-- Node39&#45;&gt;Node14 -->
<g id="edge75" class="edge">
<title>Node39&#45;&gt;Node14</title>
<path fill="none" stroke="midnightblue" d="M1000.85,-184.87C972.52,-173.57 922.68,-153.7 890.39,-140.82"/>
<polygon fill="midnightblue" stroke="midnightblue" points="891.56,-137.52 880.98,-137.06 888.97,-144.02 891.56,-137.52"/>
</g>
<!-- Node39&#45;&gt;Node15 -->
<g id="edge73" class="edge">
<title>Node39&#45;&gt;Node15</title>
<path fill="none" stroke="midnightblue" d="M1036.39,-184.73C1053.53,-173.92 1082.9,-155.38 1103.21,-142.57"/>
<polygon fill="midnightblue" stroke="midnightblue" points="1105.24,-145.42 1111.83,-137.13 1101.5,-139.5 1105.24,-145.42"/>
</g>
<!-- Node41&#45;&gt;Node18 -->
<g id="edge80" class="edge">
<title>Node41&#45;&gt;Node18</title>
<path fill="none" stroke="midnightblue" d="M2829.23,-179.37C2840.37,-161.3 2854.96,-130.19 2837.5,-112 2804.64,-77.78 2060.3,-80.83 1950.29,-75.55"/>
<polygon fill="midnightblue" stroke="midnightblue" points="1950.33,-72.04 1940.11,-74.86 1949.85,-79.03 1950.33,-72.04"/>
</g>
<!-- Node41&#45;&gt;Node25 -->
<g id="edge79" class="edge">
<title>Node41&#45;&gt;Node25</title>
<path fill="none" stroke="midnightblue" d="M2811.47,-179.4C2805.87,-169.56 2798.37,-156.38 2792.4,-145.89"/>
<polygon fill="midnightblue" stroke="midnightblue" points="2795.44,-144.15 2787.45,-137.19 2789.35,-147.62 2795.44,-144.15"/>
</g>
<!-- Node42 -->
<g id="node42" class="node">
<title>Node42</title>
<g id="a_node42"><a xlink:title=" ">
<polygon fill="white" stroke="#bfbfbf" points="2885,-118 2885,-137 2932,-137 2932,-118 2885,-118"/>
<text text-anchor="middle" x="2908.5" y="-125" font-family="Helvetica,sans-Serif" font-size="10.00">cmath</text>
</a>
</g>
</g>
<!-- Node41&#45;&gt;Node42 -->
<g id="edge78" class="edge">
<title>Node41&#45;&gt;Node42</title>
<path fill="none" stroke="midnightblue" d="M2838.81,-179.4C2853.46,-168.7 2873.54,-154.03 2888.38,-143.19"/>
<polygon fill="midnightblue" stroke="midnightblue" points="2890.84,-145.73 2896.85,-137.01 2886.71,-140.08 2890.84,-145.73"/>
</g>
</g>
</svg>
