<?xml version="1.0" encoding="UTF-8" standalone="no"?>
<!DOCTYPE svg PUBLIC "-//W3C//DTD SVG 1.1//EN"
 "http://www.w3.org/Graphics/SVG/1.1/DTD/svg11.dtd">
<!-- Generated by graphviz version 2.43.0 (0)
 -->
<!-- Title: ThirdMomentAveraging.H Pages: 1 -->
<!--zoomable 408 -->
<svg id="main" version="1.1" xmlns="http://www.w3.org/2000/svg" xmlns:xlink="http://www.w3.org/1999/xlink" xml:space="preserve" onload="init(evt)">
<style type="text/css"><![CDATA[
.edge:hover path { stroke: red; }
.edge:hover polygon { stroke: red; fill: red; }
]]></style>
<script type="text/javascript"><![CDATA[
var edges = document.getElementsByTagName('g');
if (edges && edges.length) {
  for (var i=0;i<edges.length;i++) {
    if (edges[i].id.substr(0,4)=='edge') {
      edges[i].setAttribute('class','edge');
    }
  }
}
]]></script>
        <defs>
                <circle id="rim" cx="0" cy="0" r="7"/>
                <circle id="rim2" cx="0" cy="0" r="3.5"/>
                <g id="zoomPlus">
                        <use xlink:href="#rim" fill="#404040">
                                <set attributeName="fill" to="#808080" begin="zoomplus.mouseover" end="zoomplus.mouseout"/>
                        </use>
                        <path d="M-4,0h8M0,-4v8" fill="none" stroke="white" stroke-width="1.5" pointer-events="none"/>
                </g>
                <g id="zoomMin">
                        <use xlink:href="#rim" fill="#404040">
                                <set attributeName="fill" to="#808080" begin="zoomminus.mouseover" end="zoomminus.mouseout"/>
                        </use>
                        <path d="M-4,0h8" fill="none" stroke="white" stroke-width="1.5" pointer-events="none"/>
                </g>
                <g id="dirArrow">
                        <path fill="none" stroke="white" stroke-width="1.5" d="M0,-3.0v7 M-2.5,-0.5L0,-3.0L2.5,-0.5"/>
                </g>
               <g id="resetDef">
                       <use xlink:href="#rim2" fill="#404040">
                               <set attributeName="fill" to="#808080" begin="reset.mouseover" end="reset.mouseout"/>
                       </use>
               </g>
        </defs>

<script type="text/javascript">
var viewWidth = 2746;
var viewHeight = 408;
var sectionId = 'dynsection-0';
</script>
<script xlink:href="svgpan.js"/>
<svg id="graph" class="graph">
<g id="viewport">
<title>ThirdMomentAveraging.H</title>
<polygon fill="white" stroke="transparent" points="-4,4 -4,-404 2741.5,-404 2741.5,4 -4,4"/>
<!-- Node1 -->
<g id="node1" class="node">
<title>Node1</title>
<g id="a_node1"><a xlink:title=" ">
<polygon fill="#bfbfbf" stroke="black" points="1514.5,-380.5 1514.5,-399.5 1655.5,-399.5 1655.5,-380.5 1514.5,-380.5"/>
<text text-anchor="middle" x="1585" y="-387.5" font-family="Helvetica,sans-Serif" font-size="10.00">ThirdMomentAveraging.H</text>
</a>
</g>
</g>
<!-- Node2 -->
<g id="node2" class="node">
<title>Node2</title>
<g id="a_node2"><a xlink:title=" ">
<polygon fill="white" stroke="#bfbfbf" points="0,-118 0,-137 110,-137 110,-118 0,-118"/>
<text text-anchor="middle" x="55" y="-125" font-family="Helvetica,sans-Serif" font-size="10.00">AMReX_AmrCore.H</text>
</a>
</g>
</g>
<!-- Node1&#45;&gt;Node2 -->
<g id="edge1" class="edge">
<title>Node1&#45;&gt;Node2</title>
<path fill="none" stroke="midnightblue" d="M1514.37,-385.08C1315.52,-372.85 735.14,-328.79 269,-210 199.78,-192.36 122.3,-159.33 82.26,-141.21"/>
<polygon fill="midnightblue" stroke="midnightblue" points="83.69,-138.01 73.14,-137.04 80.79,-144.38 83.69,-138.01"/>
</g>
<!-- Node3 -->
<g id="node3" class="node">
<title>Node3</title>
<g id="a_node3"><a xlink:href="_direction_selector_8_h.html" target="_top" xlink:title=" ">
<polygon fill="white" stroke="black" points="2327.5,-246.5 2327.5,-276.5 2440.5,-276.5 2440.5,-246.5 2327.5,-246.5"/>
<text text-anchor="start" x="2335.5" y="-264.5" font-family="Helvetica,sans-Serif" font-size="10.00">amr&#45;wind/utilities</text>
<text text-anchor="middle" x="2384" y="-253.5" font-family="Helvetica,sans-Serif" font-size="10.00">/DirectionSelector.H</text>
</a>
</g>
</g>
<!-- Node1&#45;&gt;Node3 -->
<g id="edge2" class="edge">
<title>Node1&#45;&gt;Node3</title>
<path fill="none" stroke="midnightblue" d="M1638.98,-380.45C1780.51,-358.05 2162.07,-297.64 2317.12,-273.09"/>
<polygon fill="midnightblue" stroke="midnightblue" points="2318.12,-276.47 2327.45,-271.45 2317.02,-269.56 2318.12,-276.47"/>
</g>
<!-- Node6 -->
<g id="node6" class="node">
<title>Node6</title>
<g id="a_node6"><a xlink:href="_field_8_h.html" target="_top" xlink:title=" ">
<polygon fill="white" stroke="black" points="1451,-118 1451,-137 1575,-137 1575,-118 1451,-118"/>
<text text-anchor="middle" x="1513" y="-125" font-family="Helvetica,sans-Serif" font-size="10.00">amr&#45;wind/core/Field.H</text>
</a>
</g>
</g>
<!-- Node1&#45;&gt;Node6 -->
<g id="edge5" class="edge">
<title>Node1&#45;&gt;Node6</title>
<path fill="none" stroke="midnightblue" d="M1582.6,-380.33C1572.4,-343.4 1532.41,-198.72 1518.11,-147"/>
<polygon fill="midnightblue" stroke="midnightblue" points="1521.44,-145.91 1515.4,-137.2 1514.7,-147.77 1521.44,-145.91"/>
</g>
<!-- Node17 -->
<g id="node17" class="node">
<title>Node17</title>
<g id="a_node17"><a xlink:href="_field_plane_averaging_8_h.html" target="_top" xlink:title=" ">
<polygon fill="white" stroke="black" points="1638.5,-313.5 1638.5,-343.5 1767.5,-343.5 1767.5,-313.5 1638.5,-313.5"/>
<text text-anchor="start" x="1646.5" y="-331.5" font-family="Helvetica,sans-Serif" font-size="10.00">amr&#45;wind/utilities</text>
<text text-anchor="middle" x="1703" y="-320.5" font-family="Helvetica,sans-Serif" font-size="10.00">/FieldPlaneAveraging.H</text>
</a>
</g>
</g>
<!-- Node1&#45;&gt;Node17 -->
<g id="edge20" class="edge">
<title>Node1&#45;&gt;Node17</title>
<path fill="none" stroke="midnightblue" d="M1601.91,-380.48C1618.56,-372.08 1644.55,-358.97 1666.01,-348.15"/>
<polygon fill="midnightblue" stroke="midnightblue" points="1667.84,-351.15 1675.19,-343.52 1664.68,-344.9 1667.84,-351.15"/>
</g>
<!-- Node4 -->
<g id="node4" class="node">
<title>Node4</title>
<g id="a_node4"><a xlink:title=" ">
<polygon fill="white" stroke="#bfbfbf" points="2388,-185 2388,-204 2474,-204 2474,-185 2388,-185"/>
<text text-anchor="middle" x="2431" y="-192" font-family="Helvetica,sans-Serif" font-size="10.00">AMReX_Box.H</text>
</a>
</g>
</g>
<!-- Node3&#45;&gt;Node4 -->
<g id="edge3" class="edge">
<title>Node3&#45;&gt;Node4</title>
<path fill="none" stroke="midnightblue" d="M2394.2,-246.4C2401.38,-236.46 2411.04,-223.11 2418.66,-212.57"/>
<polygon fill="midnightblue" stroke="midnightblue" points="2421.69,-214.35 2424.71,-204.19 2416.02,-210.25 2421.69,-214.35"/>
</g>
<!-- Node5 -->
<g id="node5" class="node">
<title>Node5</title>
<g id="a_node5"><a xlink:title=" ">
<polygon fill="white" stroke="#bfbfbf" points="2269.5,-56.5 2269.5,-75.5 2356.5,-75.5 2356.5,-56.5 2269.5,-56.5"/>
<text text-anchor="middle" x="2313" y="-63.5" font-family="Helvetica,sans-Serif" font-size="10.00">AMReX_Gpu.H</text>
</a>
</g>
</g>
<!-- Node3&#45;&gt;Node5 -->
<g id="edge4" class="edge">
<title>Node3&#45;&gt;Node5</title>
<path fill="none" stroke="midnightblue" d="M2440.9,-255.57C2557.18,-243.46 2804.24,-206.07 2720,-112 2696.85,-86.15 2472.26,-73.55 2366.97,-69.03"/>
<polygon fill="midnightblue" stroke="midnightblue" points="2367,-65.53 2356.86,-68.61 2366.71,-72.52 2367,-65.53"/>
</g>
<!-- Node6&#45;&gt;Node5 -->
<g id="edge12" class="edge">
<title>Node6&#45;&gt;Node5</title>
<path fill="none" stroke="midnightblue" d="M1575.11,-121.88C1727.15,-110.57 2116,-81.65 2259.09,-71.01"/>
<polygon fill="midnightblue" stroke="midnightblue" points="2259.65,-74.48 2269.37,-70.25 2259.14,-67.5 2259.65,-74.48"/>
</g>
<!-- Node7 -->
<g id="node7" class="node">
<title>Node7</title>
<g id="a_node7"><a xlink:title=" ">
<polygon fill="white" stroke="#bfbfbf" points="871,-0.5 871,-19.5 915,-19.5 915,-0.5 871,-0.5"/>
<text text-anchor="middle" x="893" y="-7.5" font-family="Helvetica,sans-Serif" font-size="10.00">string</text>
</a>
</g>
</g>
<!-- Node6&#45;&gt;Node7 -->
<g id="edge6" class="edge">
<title>Node6&#45;&gt;Node7</title>
<path fill="none" stroke="midnightblue" d="M1471.98,-117.93C1434.13,-109.4 1376.75,-94.86 1329,-76 1311.25,-68.99 1309.24,-61.61 1291,-56 1256.31,-45.33 1013.52,-22.14 925.11,-13.94"/>
<polygon fill="midnightblue" stroke="midnightblue" points="925.39,-10.45 915.12,-13.02 924.75,-17.42 925.39,-10.45"/>
</g>
<!-- Node8 -->
<g id="node8" class="node">
<title>Node8</title>
<g id="a_node8"><a xlink:title=" ">
<polygon fill="white" stroke="#bfbfbf" points="1931,-56.5 1931,-75.5 1989,-75.5 1989,-56.5 1931,-56.5"/>
<text text-anchor="middle" x="1960" y="-63.5" font-family="Helvetica,sans-Serif" font-size="10.00">memory</text>
</a>
</g>
</g>
<!-- Node6&#45;&gt;Node8 -->
<g id="edge7" class="edge">
<title>Node6&#45;&gt;Node8</title>
<path fill="none" stroke="midnightblue" d="M1575.33,-120.95C1653.76,-113.49 1792.72,-98.69 1920.63,-76.08"/>
<polygon fill="midnightblue" stroke="midnightblue" points="1921.38,-79.5 1930.61,-74.3 1920.15,-72.61 1921.38,-79.5"/>
</g>
<!-- Node9 -->
<g id="node9" class="node">
<title>Node9</title>
<g id="a_node9"><a xlink:title=" ">
<polygon fill="white" stroke="#bfbfbf" points="1739.5,-56.5 1739.5,-75.5 1832.5,-75.5 1832.5,-56.5 1739.5,-56.5"/>
<text text-anchor="middle" x="1786" y="-63.5" font-family="Helvetica,sans-Serif" font-size="10.00">unordered_map</text>
</a>
</g>
</g>
<!-- Node6&#45;&gt;Node9 -->
<g id="edge8" class="edge">
<title>Node6&#45;&gt;Node9</title>
<path fill="none" stroke="midnightblue" d="M1552.11,-117.98C1600.87,-107.35 1684.21,-89.18 1737.12,-77.65"/>
<polygon fill="midnightblue" stroke="midnightblue" points="1737.93,-81.06 1746.96,-75.51 1736.44,-74.22 1737.93,-81.06"/>
</g>
<!-- Node10 -->
<g id="node10" class="node">
<title>Node10</title>
<g id="a_node10"><a xlink:title=" ">
<polygon fill="white" stroke="#bfbfbf" points="1381,-56.5 1381,-75.5 1445,-75.5 1445,-56.5 1381,-56.5"/>
<text text-anchor="middle" x="1413" y="-63.5" font-family="Helvetica,sans-Serif" font-size="10.00">algorithm</text>
</a>
</g>
</g>
<!-- Node6&#45;&gt;Node10 -->
<g id="edge9" class="edge">
<title>Node6&#45;&gt;Node10</title>
<path fill="none" stroke="midnightblue" d="M1498.67,-117.98C1482.34,-108.25 1455.4,-92.23 1436.09,-80.74"/>
<polygon fill="midnightblue" stroke="midnightblue" points="1437.68,-77.61 1427.3,-75.51 1434.11,-83.63 1437.68,-77.61"/>
</g>
<!-- Node11 -->
<g id="node11" class="node">
<title>Node11</title>
<g id="a_node11"><a xlink:title=" ">
<polygon fill="white" stroke="#bfbfbf" points="1141.5,-0.5 1141.5,-19.5 1250.5,-19.5 1250.5,-0.5 1141.5,-0.5"/>
<text text-anchor="middle" x="1196" y="-7.5" font-family="Helvetica,sans-Serif" font-size="10.00">AMReX_MultiFab.H</text>
</a>
</g>
</g>
<!-- Node6&#45;&gt;Node11 -->
<g id="edge10" class="edge">
<title>Node6&#45;&gt;Node11</title>
<path fill="none" stroke="midnightblue" d="M1487,-117.98C1458.5,-108.47 1411.57,-92.25 1372,-76 1352.5,-67.99 1348.57,-63.83 1329,-56 1297.4,-43.35 1260.69,-31.11 1233.86,-22.59"/>
<polygon fill="midnightblue" stroke="midnightblue" points="1234.68,-19.18 1224.09,-19.52 1232.58,-25.86 1234.68,-19.18"/>
</g>
<!-- Node12 -->
<g id="node12" class="node">
<title>Node12</title>
<g id="a_node12"><a xlink:title=" ">
<polygon fill="white" stroke="#bfbfbf" points="1463.5,-56.5 1463.5,-75.5 1562.5,-75.5 1562.5,-56.5 1463.5,-56.5"/>
<text text-anchor="middle" x="1513" y="-63.5" font-family="Helvetica,sans-Serif" font-size="10.00">AMReX_BCRec.H</text>
</a>
</g>
</g>
<!-- Node6&#45;&gt;Node12 -->
<g id="edge11" class="edge">
<title>Node6&#45;&gt;Node12</title>
<path fill="none" stroke="midnightblue" d="M1513,-117.98C1513,-109.58 1513,-96.48 1513,-85.66"/>
<polygon fill="midnightblue" stroke="midnightblue" points="1516.5,-85.51 1513,-75.51 1509.5,-85.51 1516.5,-85.51"/>
</g>
<!-- Node13 -->
<g id="node13" class="node">
<title>Node13</title>
<g id="a_node13"><a xlink:href="incflo__enums_8_h.html" target="_top" xlink:title=" ">
<polygon fill="white" stroke="black" points="1580.5,-56.5 1580.5,-75.5 1721.5,-75.5 1721.5,-56.5 1580.5,-56.5"/>
<text text-anchor="middle" x="1651" y="-63.5" font-family="Helvetica,sans-Serif" font-size="10.00">amr&#45;wind/incflo_enums.H</text>
</a>
</g>
</g>
<!-- Node6&#45;&gt;Node13 -->
<g id="edge13" class="edge">
<title>Node6&#45;&gt;Node13</title>
<path fill="none" stroke="midnightblue" d="M1532.77,-117.98C1556.14,-107.9 1595.21,-91.05 1622,-79.5"/>
<polygon fill="midnightblue" stroke="midnightblue" points="1623.47,-82.68 1631.26,-75.51 1620.7,-76.25 1623.47,-82.68"/>
</g>
<!-- Node14 -->
<g id="node14" class="node">
<title>Node14</title>
<g id="a_node14"><a xlink:href="_field_desc_types_8_h.html" target="_top" xlink:title=" ">
<polygon fill="white" stroke="black" points="493,-0.5 493,-19.5 669,-19.5 669,-0.5 493,-0.5"/>
<text text-anchor="middle" x="581" y="-7.5" font-family="Helvetica,sans-Serif" font-size="10.00">amr&#45;wind/core/FieldDescTypes.H</text>
</a>
</g>
</g>
<!-- Node6&#45;&gt;Node14 -->
<g id="edge14" class="edge">
<title>Node6&#45;&gt;Node14</title>
<path fill="none" stroke="midnightblue" d="M1451.57,-117.97C1406.09,-110.37 1343.22,-97.12 1291,-76 1275.1,-69.57 1274.36,-61.16 1258,-56 1204.37,-39.08 854.1,-22.37 679.54,-14.96"/>
<polygon fill="midnightblue" stroke="midnightblue" points="679.46,-11.46 669.33,-14.53 679.17,-18.45 679.46,-11.46"/>
</g>
<!-- Node15 -->
<g id="node15" class="node">
<title>Node15</title>
<g id="a_node15"><a xlink:href="_view_field_8_h.html" target="_top" xlink:title=" ">
<polygon fill="white" stroke="black" points="921,-56.5 921,-75.5 1069,-75.5 1069,-56.5 921,-56.5"/>
<text text-anchor="middle" x="995" y="-63.5" font-family="Helvetica,sans-Serif" font-size="10.00">amr&#45;wind/core/ViewField.H</text>
</a>
</g>
</g>
<!-- Node6&#45;&gt;Node15 -->
<g id="edge15" class="edge">
<title>Node6&#45;&gt;Node15</title>
<path fill="none" stroke="midnightblue" d="M1450.77,-119.35C1358.03,-108.7 1183.32,-88.63 1079.23,-76.67"/>
<polygon fill="midnightblue" stroke="midnightblue" points="1079.4,-73.17 1069.07,-75.51 1078.6,-80.13 1079.4,-73.17"/>
</g>
<!-- Node15&#45;&gt;Node7 -->
<g id="edge16" class="edge">
<title>Node15&#45;&gt;Node7</title>
<path fill="none" stroke="midnightblue" d="M978.61,-56.32C962.33,-47.7 937.13,-34.36 918.28,-24.39"/>
<polygon fill="midnightblue" stroke="midnightblue" points="919.82,-21.24 909.35,-19.65 916.55,-27.43 919.82,-21.24"/>
</g>
<!-- Node15&#45;&gt;Node11 -->
<g id="edge18" class="edge">
<title>Node15&#45;&gt;Node11</title>
<path fill="none" stroke="midnightblue" d="M1026.85,-56.44C1061.4,-47.16 1116.68,-32.31 1154.58,-22.13"/>
<polygon fill="midnightblue" stroke="midnightblue" points="1155.55,-25.49 1164.3,-19.52 1153.73,-18.73 1155.55,-25.49"/>
</g>
<!-- Node15&#45;&gt;Node14 -->
<g id="edge17" class="edge">
<title>Node15&#45;&gt;Node14</title>
<path fill="none" stroke="midnightblue" d="M929.4,-56.44C855.21,-46.77 734.6,-31.04 656.54,-20.85"/>
<polygon fill="midnightblue" stroke="midnightblue" points="656.66,-17.34 646.29,-19.52 655.76,-24.28 656.66,-17.34"/>
</g>
<!-- Node16 -->
<g id="node16" class="node">
<title>Node16</title>
<g id="a_node16"><a xlink:title=" ">
<polygon fill="white" stroke="#bfbfbf" points="1025,-0.5 1025,-19.5 1123,-19.5 1123,-0.5 1025,-0.5"/>
<text text-anchor="middle" x="1074" y="-7.5" font-family="Helvetica,sans-Serif" font-size="10.00">AMReX_Vector.H</text>
</a>
</g>
</g>
<!-- Node15&#45;&gt;Node16 -->
<g id="edge19" class="edge">
<title>Node15&#45;&gt;Node16</title>
<path fill="none" stroke="midnightblue" d="M1007.69,-56.32C1019.9,-47.98 1038.58,-35.21 1053,-25.35"/>
<polygon fill="midnightblue" stroke="midnightblue" points="1055.06,-28.19 1061.34,-19.65 1051.11,-22.41 1055.06,-28.19"/>
</g>
<!-- Node17&#45;&gt;Node3 -->
<g id="edge21" class="edge">
<title>Node17&#45;&gt;Node3</title>
<path fill="none" stroke="midnightblue" d="M1767.57,-319.18C1784.91,-317.05 1803.66,-314.84 1821,-313 1999.97,-293.98 2211.45,-276.3 2317.01,-267.79"/>
<polygon fill="midnightblue" stroke="midnightblue" points="2317.51,-271.26 2327.2,-266.97 2316.95,-264.29 2317.51,-271.26"/>
</g>
<!-- Node17&#45;&gt;Node6 -->
<g id="edge80" class="edge">
<title>Node17&#45;&gt;Node6</title>
<path fill="none" stroke="midnightblue" d="M1682.76,-313.43C1669.14,-303.69 1651.01,-290.15 1636,-277 1604.56,-249.46 1596.74,-242.13 1570,-210 1552.64,-189.14 1535.11,-163.18 1524.17,-146.24"/>
<polygon fill="midnightblue" stroke="midnightblue" points="1526.86,-143.96 1518.53,-137.41 1520.96,-147.73 1526.86,-143.96"/>
</g>
<!-- Node18 -->
<g id="node18" class="node">
<title>Node18</title>
<g id="a_node18"><a xlink:href="_c_f_d_sim_8_h.html" target="_top" xlink:title=" ">
<polygon fill="white" stroke="black" points="1645,-252 1645,-271 1761,-271 1761,-252 1645,-252"/>
<text text-anchor="middle" x="1703" y="-259" font-family="Helvetica,sans-Serif" font-size="10.00">amr&#45;wind/CFDSim.H</text>
</a>
</g>
</g>
<!-- Node17&#45;&gt;Node18 -->
<g id="edge22" class="edge">
<title>Node17&#45;&gt;Node18</title>
<path fill="none" stroke="midnightblue" d="M1703,-313.4C1703,-304.06 1703,-291.71 1703,-281.52"/>
<polygon fill="midnightblue" stroke="midnightblue" points="1706.5,-281.19 1703,-271.19 1699.5,-281.19 1706.5,-281.19"/>
</g>
<!-- Node19 -->
<g id="node19" class="node">
<title>Node19</title>
<g id="a_node19"><a xlink:href="_sim_time_8_h.html" target="_top" xlink:title=" ">
<polygon fill="white" stroke="black" points="2226,-185 2226,-204 2370,-204 2370,-185 2226,-185"/>
<text text-anchor="middle" x="2298" y="-192" font-family="Helvetica,sans-Serif" font-size="10.00">amr&#45;wind/core/SimTime.H</text>
</a>
</g>
</g>
<!-- Node17&#45;&gt;Node19 -->
<g id="edge81" class="edge">
<title>Node17&#45;&gt;Node19</title>
<path fill="none" stroke="midnightblue" d="M1766.11,-313.5C1885.63,-286.98 2142.59,-229.98 2249.64,-206.23"/>
<polygon fill="midnightblue" stroke="midnightblue" points="2250.52,-209.62 2259.52,-204.04 2249,-202.79 2250.52,-209.62"/>
</g>
<!-- Node18&#45;&gt;Node2 -->
<g id="edge23" class="edge">
<title>Node18&#45;&gt;Node2</title>
<path fill="none" stroke="midnightblue" d="M1644.77,-259.45C1429.79,-255.38 681.04,-239.36 444,-210 315.91,-194.13 167.33,-157.94 96.58,-139.6"/>
<polygon fill="midnightblue" stroke="midnightblue" points="97.28,-136.16 86.72,-137.03 95.51,-142.94 97.28,-136.16"/>
</g>
<!-- Node18&#45;&gt;Node19 -->
<g id="edge24" class="edge">
<title>Node18&#45;&gt;Node19</title>
<path fill="none" stroke="midnightblue" d="M1761.13,-254.15C1867.51,-242.53 2093.74,-217.81 2215.81,-204.48"/>
<polygon fill="midnightblue" stroke="midnightblue" points="2216.29,-207.95 2225.85,-203.38 2215.53,-200.99 2216.29,-207.95"/>
</g>
<!-- Node23 -->
<g id="node23" class="node">
<title>Node23</title>
<g id="a_node23"><a xlink:href="_field_repo_8_h.html" target="_top" xlink:title=" ">
<polygon fill="white" stroke="black" points="453.5,-185 453.5,-204 602.5,-204 602.5,-185 453.5,-185"/>
<text text-anchor="middle" x="528" y="-192" font-family="Helvetica,sans-Serif" font-size="10.00">amr&#45;wind/core/FieldRepo.H</text>
</a>
</g>
</g>
<!-- Node18&#45;&gt;Node23 -->
<g id="edge28" class="edge">
<title>Node18&#45;&gt;Node23</title>
<path fill="none" stroke="midnightblue" d="M1644.73,-257.28C1452.73,-246.66 839.34,-212.72 612.98,-200.2"/>
<polygon fill="midnightblue" stroke="midnightblue" points="612.99,-196.7 602.82,-199.64 612.61,-203.69 612.99,-196.7"/>
</g>
<!-- Node31 -->
<g id="node31" class="node">
<title>Node31</title>
<g id="a_node31"><a xlink:href="_p_d_e_base_8_h.html" target="_top" xlink:title=" ">
<polygon fill="white" stroke="black" points="1579.5,-179.5 1579.5,-209.5 1734.5,-209.5 1734.5,-179.5 1579.5,-179.5"/>
<text text-anchor="start" x="1587.5" y="-197.5" font-family="Helvetica,sans-Serif" font-size="10.00">amr&#45;wind/equation_systems</text>
<text text-anchor="middle" x="1657" y="-186.5" font-family="Helvetica,sans-Serif" font-size="10.00">/PDEBase.H</text>
</a>
</g>
</g>
<!-- Node18&#45;&gt;Node31 -->
<g id="edge52" class="edge">
<title>Node18&#45;&gt;Node31</title>
<path fill="none" stroke="midnightblue" d="M1696.8,-251.73C1690.7,-243.12 1681.14,-229.61 1672.92,-217.99"/>
<polygon fill="midnightblue" stroke="midnightblue" points="1675.6,-215.73 1666.97,-209.59 1669.89,-219.77 1675.6,-215.73"/>
</g>
<!-- Node39 -->
<g id="node39" class="node">
<title>Node39</title>
<g id="a_node39"><a xlink:href="_physics_8_h.html" target="_top" xlink:title=" ">
<polygon fill="white" stroke="black" points="1974.5,-185 1974.5,-204 2111.5,-204 2111.5,-185 1974.5,-185"/>
<text text-anchor="middle" x="2043" y="-192" font-family="Helvetica,sans-Serif" font-size="10.00">amr&#45;wind/core/Physics.H</text>
</a>
</g>
</g>
<!-- Node18&#45;&gt;Node39 -->
<g id="edge69" class="edge">
<title>Node18&#45;&gt;Node39</title>
<path fill="none" stroke="midnightblue" d="M1747.8,-251.94C1809.8,-240.08 1921.67,-218.7 1988.46,-205.93"/>
<polygon fill="midnightblue" stroke="midnightblue" points="1989.21,-209.35 1998.37,-204.03 1987.89,-202.47 1989.21,-209.35"/>
</g>
<!-- Node41 -->
<g id="node41" class="node">
<title>Node41</title>
<g id="a_node41"><a xlink:href="_mesh_map_8_h.html" target="_top" xlink:title=" ">
<polygon fill="white" stroke="black" points="1808,-185 1808,-204 1956,-204 1956,-185 1808,-185"/>
<text text-anchor="middle" x="1882" y="-192" font-family="Helvetica,sans-Serif" font-size="10.00">amr&#45;wind/core/MeshMap.H</text>
</a>
</g>
</g>
<!-- Node18&#45;&gt;Node41 -->
<g id="edge74" class="edge">
<title>Node18&#45;&gt;Node41</title>
<path fill="none" stroke="midnightblue" d="M1726.77,-251.87C1758.15,-240.47 1813.56,-220.35 1848.99,-207.49"/>
<polygon fill="midnightblue" stroke="midnightblue" points="1850.21,-210.77 1858.42,-204.06 1847.82,-204.19 1850.21,-210.77"/>
</g>
<!-- Node20 -->
<g id="node20" class="node">
<title>Node20</title>
<g id="a_node20"><a xlink:title=" ">
<polygon fill="white" stroke="#bfbfbf" points="2467,-118 2467,-137 2559,-137 2559,-118 2467,-118"/>
<text text-anchor="middle" x="2513" y="-125" font-family="Helvetica,sans-Serif" font-size="10.00">AMReX_REAL.H</text>
</a>
</g>
</g>
<!-- Node19&#45;&gt;Node20 -->
<g id="edge25" class="edge">
<title>Node19&#45;&gt;Node20</title>
<path fill="none" stroke="midnightblue" d="M2326.55,-184.87C2364.73,-173.33 2432.51,-152.84 2474.98,-140"/>
<polygon fill="midnightblue" stroke="midnightblue" points="2476.11,-143.31 2484.67,-137.06 2474.09,-136.61 2476.11,-143.31"/>
</g>
<!-- Node21 -->
<g id="node21" class="node">
<title>Node21</title>
<g id="a_node21"><a xlink:title=" ">
<polygon fill="white" stroke="#bfbfbf" points="2577,-118 2577,-137 2711,-137 2711,-118 2577,-118"/>
<text text-anchor="middle" x="2644" y="-125" font-family="Helvetica,sans-Serif" font-size="10.00">AMReX_GpuQualifiers.H</text>
</a>
</g>
</g>
<!-- Node19&#45;&gt;Node21 -->
<g id="edge26" class="edge">
<title>Node19&#45;&gt;Node21</title>
<path fill="none" stroke="midnightblue" d="M2343.87,-184.97C2397.6,-174.97 2489.28,-157.87 2568,-143 2574.83,-141.71 2582,-140.35 2589.1,-139"/>
<polygon fill="midnightblue" stroke="midnightblue" points="2590.23,-142.35 2599.4,-137.04 2588.92,-135.47 2590.23,-142.35"/>
</g>
<!-- Node22 -->
<g id="node22" class="node">
<title>Node22</title>
<g id="a_node22"><a xlink:title=" ">
<polygon fill="white" stroke="#bfbfbf" points="2333,-118 2333,-137 2449,-137 2449,-118 2333,-118"/>
<text text-anchor="middle" x="2391" y="-125" font-family="Helvetica,sans-Serif" font-size="10.00">AMReX_Extension.H</text>
</a>
</g>
</g>
<!-- Node19&#45;&gt;Node22 -->
<g id="edge27" class="edge">
<title>Node19&#45;&gt;Node22</title>
<path fill="none" stroke="midnightblue" d="M2310.54,-184.73C2325.88,-174.01 2352.06,-155.72 2370.38,-142.91"/>
<polygon fill="midnightblue" stroke="midnightblue" points="2372.46,-145.72 2378.66,-137.13 2368.45,-139.99 2372.46,-145.72"/>
</g>
<!-- Node23&#45;&gt;Node2 -->
<g id="edge49" class="edge">
<title>Node23&#45;&gt;Node2</title>
<path fill="none" stroke="midnightblue" d="M453.27,-186.03C371.98,-177.47 238.33,-162.13 124,-143 117.19,-141.86 110.02,-140.52 103,-139.12"/>
<polygon fill="midnightblue" stroke="midnightblue" points="103.35,-135.62 92.85,-137.04 101.95,-142.48 103.35,-135.62"/>
</g>
<!-- Node23&#45;&gt;Node6 -->
<g id="edge36" class="edge">
<title>Node23&#45;&gt;Node6</title>
<path fill="none" stroke="midnightblue" d="M602.66,-190.21C750.46,-183.44 1090.67,-166.58 1376,-143 1397.1,-141.26 1419.99,-138.98 1440.9,-136.76"/>
<polygon fill="midnightblue" stroke="midnightblue" points="1441.43,-140.22 1451,-135.67 1440.68,-133.26 1441.43,-140.22"/>
</g>
<!-- Node23&#45;&gt;Node7 -->
<g id="edge29" class="edge">
<title>Node23&#45;&gt;Node7</title>
<path fill="none" stroke="midnightblue" d="M528.75,-184.65C531.36,-159.83 542.38,-89.18 585,-56 627.49,-22.93 790.45,-14.08 860.59,-11.78"/>
<polygon fill="midnightblue" stroke="midnightblue" points="860.74,-15.27 870.63,-11.47 860.53,-8.28 860.74,-15.27"/>
</g>
<!-- Node23&#45;&gt;Node9 -->
<g id="edge30" class="edge">
<title>Node23&#45;&gt;Node9</title>
<path fill="none" stroke="midnightblue" d="M602.72,-192.94C811.19,-190.91 1396.17,-181.82 1584,-143 1649.35,-129.49 1721.53,-98 1759.41,-80.08"/>
<polygon fill="midnightblue" stroke="midnightblue" points="1761.21,-83.1 1768.72,-75.63 1758.19,-76.79 1761.21,-83.1"/>
</g>
<!-- Node23&#45;&gt;Node11 -->
<g id="edge50" class="edge">
<title>Node23&#45;&gt;Node11</title>
<path fill="none" stroke="midnightblue" d="M602.53,-192.68C721.04,-188.47 956.74,-168.07 1130,-76 1152.08,-64.27 1171.69,-42.81 1183.68,-27.77"/>
<polygon fill="midnightblue" stroke="midnightblue" points="1186.5,-29.84 1189.82,-19.77 1180.95,-25.57 1186.5,-29.84"/>
</g>
<!-- Node23&#45;&gt;Node14 -->
<g id="edge31" class="edge">
<title>Node23&#45;&gt;Node14</title>
<path fill="none" stroke="midnightblue" d="M453.39,-186.28C374.58,-177.81 256.12,-162.42 215,-143 168.58,-121.07 104.58,-94.1 139,-56 141.87,-52.83 353.12,-32.43 482.49,-20.21"/>
<polygon fill="midnightblue" stroke="midnightblue" points="483.19,-23.66 492.82,-19.24 482.54,-16.7 483.19,-23.66"/>
</g>
<!-- Node24 -->
<g id="node24" class="node">
<title>Node24</title>
<g id="a_node24"><a xlink:href="_field_utils_8_h.html" target="_top" xlink:title=" ">
<polygon fill="white" stroke="black" points="354,-56.5 354,-75.5 500,-75.5 500,-56.5 354,-56.5"/>
<text text-anchor="middle" x="427" y="-63.5" font-family="Helvetica,sans-Serif" font-size="10.00">amr&#45;wind/core/FieldUtils.H</text>
</a>
</g>
</g>
<!-- Node23&#45;&gt;Node24 -->
<g id="edge32" class="edge">
<title>Node23&#45;&gt;Node24</title>
<path fill="none" stroke="midnightblue" d="M521.06,-184.81C504.41,-163.95 461.98,-110.81 440.26,-83.61"/>
<polygon fill="midnightblue" stroke="midnightblue" points="442.97,-81.39 433.99,-75.76 437.5,-85.75 442.97,-81.39"/>
</g>
<!-- Node26 -->
<g id="node26" class="node">
<title>Node26</title>
<g id="a_node26"><a xlink:href="_int_field_8_h.html" target="_top" xlink:title=" ">
<polygon fill="white" stroke="black" points="251.5,-118 251.5,-137 388.5,-137 388.5,-118 251.5,-118"/>
<text text-anchor="middle" x="320" y="-125" font-family="Helvetica,sans-Serif" font-size="10.00">amr&#45;wind/core/IntField.H</text>
</a>
</g>
</g>
<!-- Node23&#45;&gt;Node26 -->
<g id="edge37" class="edge">
<title>Node23&#45;&gt;Node26</title>
<path fill="none" stroke="midnightblue" d="M500.38,-184.87C463.52,-173.35 398.15,-152.92 357.05,-140.08"/>
<polygon fill="midnightblue" stroke="midnightblue" points="357.99,-136.71 347.4,-137.06 355.9,-143.39 357.99,-136.71"/>
</g>
<!-- Node27 -->
<g id="node27" class="node">
<title>Node27</title>
<g id="a_node27"><a xlink:title=" ">
<polygon fill="white" stroke="#bfbfbf" points="148,-56.5 148,-75.5 260,-75.5 260,-56.5 148,-56.5"/>
<text text-anchor="middle" x="204" y="-63.5" font-family="Helvetica,sans-Serif" font-size="10.00">AMReX_iMultiFab.H</text>
</a>
</g>
</g>
<!-- Node23&#45;&gt;Node27 -->
<g id="edge51" class="edge">
<title>Node23&#45;&gt;Node27</title>
<path fill="none" stroke="midnightblue" d="M453.2,-187.89C379.92,-181.07 274.63,-167.35 242,-143 223.2,-128.97 213.09,-103.05 208.14,-85.42"/>
<polygon fill="midnightblue" stroke="midnightblue" points="211.52,-84.54 205.68,-75.7 204.73,-86.25 211.52,-84.54"/>
</g>
<!-- Node28 -->
<g id="node28" class="node">
<title>Node28</title>
<g id="a_node28"><a xlink:href="_scratch_field_8_h.html" target="_top" xlink:title=" ">
<polygon fill="white" stroke="black" points="629,-118 629,-137 789,-137 789,-118 629,-118"/>
<text text-anchor="middle" x="709" y="-125" font-family="Helvetica,sans-Serif" font-size="10.00">amr&#45;wind/core/ScratchField.H</text>
</a>
</g>
</g>
<!-- Node23&#45;&gt;Node28 -->
<g id="edge41" class="edge">
<title>Node23&#45;&gt;Node28</title>
<path fill="none" stroke="midnightblue" d="M552.04,-184.87C583.77,-173.47 639.79,-153.35 675.62,-140.49"/>
<polygon fill="midnightblue" stroke="midnightblue" points="676.92,-143.74 685.15,-137.06 674.56,-137.15 676.92,-143.74"/>
</g>
<!-- Node24&#45;&gt;Node11 -->
<g id="edge34" class="edge">
<title>Node24&#45;&gt;Node11</title>
<path fill="none" stroke="midnightblue" d="M500.27,-60.64C661.34,-51.01 1038.61,-28.21 1131.16,-19.94"/>
<polygon fill="midnightblue" stroke="midnightblue" points="1131.6,-23.41 1141.22,-18.98 1130.93,-16.44 1131.6,-23.41"/>
</g>
<!-- Node24&#45;&gt;Node14 -->
<g id="edge33" class="edge">
<title>Node24&#45;&gt;Node14</title>
<path fill="none" stroke="midnightblue" d="M451.4,-56.44C477.2,-47.4 518.08,-33.06 547.02,-22.92"/>
<polygon fill="midnightblue" stroke="midnightblue" points="548.43,-26.13 556.71,-19.52 546.12,-19.52 548.43,-26.13"/>
</g>
<!-- Node25 -->
<g id="node25" class="node">
<title>Node25</title>
<g id="a_node25"><a xlink:title=" ">
<polygon fill="white" stroke="#bfbfbf" points="351,-0.5 351,-19.5 475,-19.5 475,-0.5 351,-0.5"/>
<text text-anchor="middle" x="413" y="-7.5" font-family="Helvetica,sans-Serif" font-size="10.00">AMReX_Interpolater.H</text>
</a>
</g>
</g>
<!-- Node24&#45;&gt;Node25 -->
<g id="edge35" class="edge">
<title>Node24&#45;&gt;Node25</title>
<path fill="none" stroke="midnightblue" d="M424.69,-56.08C422.83,-48.93 420.16,-38.64 417.85,-29.69"/>
<polygon fill="midnightblue" stroke="midnightblue" points="421.17,-28.55 415.27,-19.75 414.39,-30.31 421.17,-28.55"/>
</g>
<!-- Node26&#45;&gt;Node7 -->
<g id="edge38" class="edge">
<title>Node26&#45;&gt;Node7</title>
<path fill="none" stroke="midnightblue" d="M320.23,-117.86C321.15,-102.59 325.45,-71.05 345,-56 365.54,-40.19 745.85,-18.81 860.53,-12.69"/>
<polygon fill="midnightblue" stroke="midnightblue" points="860.98,-16.18 870.78,-12.15 860.61,-9.19 860.98,-16.18"/>
</g>
<!-- Node26&#45;&gt;Node14 -->
<g id="edge39" class="edge">
<title>Node26&#45;&gt;Node14</title>
<path fill="none" stroke="midnightblue" d="M315.44,-117.96C308.37,-103.41 297.04,-73.67 312,-56 323.51,-42.41 414.37,-29.25 487.35,-20.71"/>
<polygon fill="midnightblue" stroke="midnightblue" points="487.99,-24.16 497.52,-19.54 487.19,-17.21 487.99,-24.16"/>
</g>
<!-- Node26&#45;&gt;Node27 -->
<g id="edge40" class="edge">
<title>Node26&#45;&gt;Node27</title>
<path fill="none" stroke="midnightblue" d="M303.38,-117.98C284.08,-108.08 252.04,-91.64 229.57,-80.12"/>
<polygon fill="midnightblue" stroke="midnightblue" points="231.08,-76.96 220.59,-75.51 227.89,-83.19 231.08,-76.96"/>
</g>
<!-- Node28&#45;&gt;Node7 -->
<g id="edge42" class="edge">
<title>Node28&#45;&gt;Node7</title>
<path fill="none" stroke="midnightblue" d="M724.78,-117.91C742.56,-108.12 772.2,-91.48 797,-76 823.68,-59.35 853.55,-38.81 872.79,-25.33"/>
<polygon fill="midnightblue" stroke="midnightblue" points="874.9,-28.12 881.07,-19.5 870.87,-22.39 874.9,-28.12"/>
</g>
<!-- Node28&#45;&gt;Node11 -->
<g id="edge46" class="edge">
<title>Node28&#45;&gt;Node11</title>
<path fill="none" stroke="midnightblue" d="M789.29,-126.31C869.32,-123.78 994.59,-113.37 1096,-76 1127.51,-64.39 1159.22,-41.41 1178.24,-26.12"/>
<polygon fill="midnightblue" stroke="midnightblue" points="1180.54,-28.76 1186.04,-19.7 1176.09,-23.35 1180.54,-28.76"/>
</g>
<!-- Node28&#45;&gt;Node14 -->
<g id="edge44" class="edge">
<title>Node28&#45;&gt;Node14</title>
<path fill="none" stroke="midnightblue" d="M654.65,-117.98C629.3,-111.07 601.2,-98.56 585,-76 575.43,-62.67 575.42,-43.55 577.22,-29.5"/>
<polygon fill="midnightblue" stroke="midnightblue" points="580.69,-29.96 578.89,-19.52 573.78,-28.81 580.69,-29.96"/>
</g>
<!-- Node28&#45;&gt;Node15 -->
<g id="edge45" class="edge">
<title>Node28&#45;&gt;Node15</title>
<path fill="none" stroke="midnightblue" d="M749.98,-117.98C801.16,-107.33 888.73,-89.11 944.14,-77.58"/>
<polygon fill="midnightblue" stroke="midnightblue" points="945.02,-80.97 954.1,-75.51 943.6,-74.12 945.02,-80.97"/>
</g>
<!-- Node28&#45;&gt;Node16 -->
<g id="edge47" class="edge">
<title>Node28&#45;&gt;Node16</title>
<path fill="none" stroke="midnightblue" d="M789.1,-121.07C891.9,-113.27 1059.3,-97.44 1078,-76 1088.9,-63.51 1086,-44 1081.53,-29.62"/>
<polygon fill="midnightblue" stroke="midnightblue" points="1084.69,-28.04 1078.02,-19.81 1078.1,-30.41 1084.69,-28.04"/>
</g>
<!-- Node29 -->
<g id="node29" class="node">
<title>Node29</title>
<g id="a_node29"><a xlink:title=" ">
<polygon fill="white" stroke="#bfbfbf" points="743.5,-56.5 743.5,-75.5 788.5,-75.5 788.5,-56.5 743.5,-56.5"/>
<text text-anchor="middle" x="766" y="-63.5" font-family="Helvetica,sans-Serif" font-size="10.00">utility</text>
</a>
</g>
</g>
<!-- Node28&#45;&gt;Node29 -->
<g id="edge43" class="edge">
<title>Node28&#45;&gt;Node29</title>
<path fill="none" stroke="midnightblue" d="M717.17,-117.98C725.89,-108.87 739.9,-94.24 750.69,-82.98"/>
<polygon fill="midnightblue" stroke="midnightblue" points="753.46,-85.15 757.85,-75.51 748.4,-80.31 753.46,-85.15"/>
</g>
<!-- Node30 -->
<g id="node30" class="node">
<title>Node30</title>
<g id="a_node30"><a xlink:title=" ">
<polygon fill="white" stroke="#bfbfbf" points="594.5,-56.5 594.5,-75.5 725.5,-75.5 725.5,-56.5 594.5,-56.5"/>
<text text-anchor="middle" x="660" y="-63.5" font-family="Helvetica,sans-Serif" font-size="10.00">AMReX_PhysBCFunct.H</text>
</a>
</g>
</g>
<!-- Node28&#45;&gt;Node30 -->
<g id="edge48" class="edge">
<title>Node28&#45;&gt;Node30</title>
<path fill="none" stroke="midnightblue" d="M701.98,-117.98C694.56,-108.96 682.67,-94.52 673.43,-83.31"/>
<polygon fill="midnightblue" stroke="midnightblue" points="676.07,-81 667.01,-75.51 670.66,-85.45 676.07,-81"/>
</g>
<!-- Node31&#45;&gt;Node7 -->
<g id="edge53" class="edge">
<title>Node31&#45;&gt;Node7</title>
<path fill="none" stroke="midnightblue" d="M1579.32,-191.99C1408.38,-187.03 1007.24,-165.86 912,-76 899.45,-64.16 895.04,-44.53 893.57,-29.94"/>
<polygon fill="midnightblue" stroke="midnightblue" points="897.04,-29.32 892.92,-19.56 890.05,-29.76 897.04,-29.32"/>
</g>
<!-- Node31&#45;&gt;Node13 -->
<g id="edge68" class="edge">
<title>Node31&#45;&gt;Node13</title>
<path fill="none" stroke="midnightblue" d="M1656.33,-179.48C1655.26,-156.72 1653.12,-111.7 1651.9,-86.06"/>
<polygon fill="midnightblue" stroke="midnightblue" points="1655.39,-85.61 1651.42,-75.79 1648.39,-85.94 1655.39,-85.61"/>
</g>
<!-- Node31&#45;&gt;Node14 -->
<g id="edge67" class="edge">
<title>Node31&#45;&gt;Node14</title>
<path fill="none" stroke="midnightblue" d="M1579.27,-191.35C1425.89,-186.52 1089.49,-172.8 978,-143 891.77,-119.96 881.53,-84.65 797,-56 749.48,-39.9 694.03,-28.49 651.21,-21.19"/>
<polygon fill="midnightblue" stroke="midnightblue" points="651.61,-17.71 641.17,-19.51 650.46,-24.61 651.61,-17.71"/>
</g>
<!-- Node32 -->
<g id="node32" class="node">
<title>Node32</title>
<g id="a_node32"><a xlink:href="_factory_8_h.html" target="_top" xlink:title=" ">
<polygon fill="white" stroke="black" points="1815,-118 1815,-137 1949,-137 1949,-118 1815,-118"/>
<text text-anchor="middle" x="1882" y="-125" font-family="Helvetica,sans-Serif" font-size="10.00">amr&#45;wind/core/Factory.H</text>
</a>
</g>
</g>
<!-- Node31&#45;&gt;Node32 -->
<g id="edge54" class="edge">
<title>Node31&#45;&gt;Node32</title>
<path fill="none" stroke="midnightblue" d="M1705.54,-179.48C1746.58,-167.62 1804.61,-150.86 1842.75,-139.84"/>
<polygon fill="midnightblue" stroke="midnightblue" points="1843.84,-143.17 1852.48,-137.03 1841.9,-136.44 1843.84,-143.17"/>
</g>
<!-- Node36 -->
<g id="node36" class="node">
<title>Node36</title>
<g id="a_node36"><a xlink:href="_coll_mgr_8_h.html" target="_top" xlink:title=" ">
<polygon fill="white" stroke="black" points="1967.5,-118 1967.5,-137 2104.5,-137 2104.5,-118 1967.5,-118"/>
<text text-anchor="middle" x="2036" y="-125" font-family="Helvetica,sans-Serif" font-size="10.00">amr&#45;wind/core/CollMgr.H</text>
</a>
</g>
</g>
<!-- Node31&#45;&gt;Node36 -->
<g id="edge60" class="edge">
<title>Node31&#45;&gt;Node36</title>
<path fill="none" stroke="midnightblue" d="M1734.71,-180.85C1795.53,-170.85 1882.21,-156.4 1958,-143 1965.36,-141.7 1973.1,-140.3 1980.73,-138.9"/>
<polygon fill="midnightblue" stroke="midnightblue" points="1981.46,-142.32 1990.65,-137.07 1980.19,-135.44 1981.46,-142.32"/>
</g>
<!-- Node37 -->
<g id="node37" class="node">
<title>Node37</title>
<g id="a_node37"><a xlink:href="_p_d_e_fields_8_h.html" target="_top" xlink:title=" ">
<polygon fill="white" stroke="black" points="1212.5,-112.5 1212.5,-142.5 1367.5,-142.5 1367.5,-112.5 1212.5,-112.5"/>
<text text-anchor="start" x="1220.5" y="-130.5" font-family="Helvetica,sans-Serif" font-size="10.00">amr&#45;wind/equation_systems</text>
<text text-anchor="middle" x="1290" y="-119.5" font-family="Helvetica,sans-Serif" font-size="10.00">/PDEFields.H</text>
</a>
</g>
</g>
<!-- Node31&#45;&gt;Node37 -->
<g id="edge65" class="edge">
<title>Node31&#45;&gt;Node37</title>
<path fill="none" stroke="midnightblue" d="M1579.17,-179.72C1520.17,-169.27 1439.07,-154.9 1377.77,-144.04"/>
<polygon fill="midnightblue" stroke="midnightblue" points="1378.18,-140.56 1367.72,-142.26 1376.96,-147.46 1378.18,-140.56"/>
</g>
<!-- Node32&#45;&gt;Node8 -->
<g id="edge55" class="edge">
<title>Node32&#45;&gt;Node8</title>
<path fill="none" stroke="midnightblue" d="M1893.18,-117.98C1905.57,-108.52 1925.79,-93.1 1940.75,-81.69"/>
<polygon fill="midnightblue" stroke="midnightblue" points="1943.02,-84.36 1948.85,-75.51 1938.77,-78.79 1943.02,-84.36"/>
</g>
<!-- Node32&#45;&gt;Node9 -->
<g id="edge56" class="edge">
<title>Node32&#45;&gt;Node9</title>
<path fill="none" stroke="midnightblue" d="M1868.25,-117.98C1852.63,-108.3 1826.94,-92.37 1808.42,-80.89"/>
<polygon fill="midnightblue" stroke="midnightblue" points="1810.07,-77.8 1799.73,-75.51 1806.38,-83.75 1810.07,-77.8"/>
</g>
<!-- Node33 -->
<g id="node33" class="node">
<title>Node33</title>
<g id="a_node33"><a xlink:title=" ">
<polygon fill="white" stroke="#bfbfbf" points="2007,-56.5 2007,-75.5 2067,-75.5 2067,-56.5 2007,-56.5"/>
<text text-anchor="middle" x="2037" y="-63.5" font-family="Helvetica,sans-Serif" font-size="10.00">iostream</text>
</a>
</g>
</g>
<!-- Node32&#45;&gt;Node33 -->
<g id="edge57" class="edge">
<title>Node32&#45;&gt;Node33</title>
<path fill="none" stroke="midnightblue" d="M1904.21,-117.98C1930.68,-107.81 1975.11,-90.76 2005.22,-79.2"/>
<polygon fill="midnightblue" stroke="midnightblue" points="2006.75,-82.36 2014.83,-75.51 2004.24,-75.83 2006.75,-82.36"/>
</g>
<!-- Node34 -->
<g id="node34" class="node">
<title>Node34</title>
<g id="a_node34"><a xlink:title=" ">
<polygon fill="white" stroke="#bfbfbf" points="2085,-56.5 2085,-75.5 2175,-75.5 2175,-56.5 2085,-56.5"/>
<text text-anchor="middle" x="2130" y="-63.5" font-family="Helvetica,sans-Serif" font-size="10.00">AMReX_Print.H</text>
</a>
</g>
</g>
<!-- Node32&#45;&gt;Node34 -->
<g id="edge58" class="edge">
<title>Node32&#45;&gt;Node34</title>
<path fill="none" stroke="midnightblue" d="M1917.53,-117.98C1961.55,-107.42 2036.59,-89.41 2084.7,-77.87"/>
<polygon fill="midnightblue" stroke="midnightblue" points="2085.63,-81.25 2094.53,-75.51 2083.99,-74.44 2085.63,-81.25"/>
</g>
<!-- Node35 -->
<g id="node35" class="node">
<title>Node35</title>
<g id="a_node35"><a xlink:title=" ">
<polygon fill="white" stroke="#bfbfbf" points="1851,-56.5 1851,-75.5 1913,-75.5 1913,-56.5 1851,-56.5"/>
<text text-anchor="middle" x="1882" y="-63.5" font-family="Helvetica,sans-Serif" font-size="10.00">AMReX.H</text>
</a>
</g>
</g>
<!-- Node32&#45;&gt;Node35 -->
<g id="edge59" class="edge">
<title>Node32&#45;&gt;Node35</title>
<path fill="none" stroke="midnightblue" d="M1882,-117.98C1882,-109.58 1882,-96.48 1882,-85.66"/>
<polygon fill="midnightblue" stroke="midnightblue" points="1885.5,-85.51 1882,-75.51 1878.5,-85.51 1885.5,-85.51"/>
</g>
<!-- Node36&#45;&gt;Node7 -->
<g id="edge61" class="edge">
<title>Node36&#45;&gt;Node7</title>
<path fill="none" stroke="midnightblue" d="M2077.5,-117.97C2116.71,-108.97 2171.36,-93.66 2184,-76 2189.17,-68.77 2190.19,-62.38 2184,-56 2138.81,-9.39 1080.83,-23.37 1016,-20 985.27,-18.4 950.27,-15.76 925.49,-13.75"/>
<polygon fill="midnightblue" stroke="midnightblue" points="925.46,-10.24 915.2,-12.91 924.88,-17.22 925.46,-10.24"/>
</g>
<!-- Node36&#45;&gt;Node8 -->
<g id="edge62" class="edge">
<title>Node36&#45;&gt;Node8</title>
<path fill="none" stroke="midnightblue" d="M2025.11,-117.98C2013.03,-108.52 1993.33,-93.1 1978.76,-81.69"/>
<polygon fill="midnightblue" stroke="midnightblue" points="1980.9,-78.92 1970.87,-75.51 1976.59,-84.43 1980.9,-78.92"/>
</g>
<!-- Node36&#45;&gt;Node9 -->
<g id="edge63" class="edge">
<title>Node36&#45;&gt;Node9</title>
<path fill="none" stroke="midnightblue" d="M2000.18,-117.98C1955.81,-107.42 1880.16,-89.41 1831.67,-77.87"/>
<polygon fill="midnightblue" stroke="midnightblue" points="1832.29,-74.42 1821.75,-75.51 1830.67,-81.23 1832.29,-74.42"/>
</g>
<!-- Node36&#45;&gt;Node16 -->
<g id="edge64" class="edge">
<title>Node36&#45;&gt;Node16</title>
<path fill="none" stroke="midnightblue" d="M2076.3,-117.95C2126.96,-106.79 2208.37,-87.37 2217,-76 2222.37,-68.92 2223.18,-62.39 2217,-56 2176.5,-14.13 1258.15,-24.81 1133.49,-19.67"/>
<polygon fill="midnightblue" stroke="midnightblue" points="1133.5,-16.17 1123.31,-19.07 1133.08,-23.16 1133.5,-16.17"/>
</g>
<!-- Node38 -->
<g id="node38" class="node">
<title>Node38</title>
<g id="a_node38"><a xlink:title=" ">
<polygon fill="white" stroke="#bfbfbf" points="1201,-56.5 1201,-75.5 1249,-75.5 1249,-56.5 1201,-56.5"/>
<text text-anchor="middle" x="1225" y="-63.5" font-family="Helvetica,sans-Serif" font-size="10.00">iosfwd</text>
</a>
</g>
</g>
<!-- Node37&#45;&gt;Node38 -->
<g id="edge66" class="edge">
<title>Node37&#45;&gt;Node38</title>
<path fill="none" stroke="midnightblue" d="M1274.6,-112.4C1264.76,-103.4 1252.01,-91.72 1241.89,-82.47"/>
<polygon fill="midnightblue" stroke="midnightblue" points="1244.2,-79.83 1234.46,-75.66 1239.47,-84.99 1244.2,-79.83"/>
</g>
<!-- Node39&#45;&gt;Node11 -->
<g id="edge72" class="edge">
<title>Node39&#45;&gt;Node11</title>
<path fill="none" stroke="midnightblue" d="M2111.52,-188.06C2161.8,-182.02 2230.66,-169.36 2286,-143 2305.68,-133.63 2306.08,-124.4 2324,-112 2354.54,-90.88 2411.76,-82.75 2386,-56 2346.73,-15.21 1502.99,-11.28 1260.59,-10.99"/>
<polygon fill="midnightblue" stroke="midnightblue" points="1260.52,-7.49 1250.52,-10.98 1260.51,-14.49 1260.52,-7.49"/>
</g>
<!-- Node39&#45;&gt;Node32 -->
<g id="edge70" class="edge">
<title>Node39&#45;&gt;Node32</title>
<path fill="none" stroke="midnightblue" d="M2021.62,-184.87C1993.64,-173.57 1944.41,-153.7 1912.51,-140.82"/>
<polygon fill="midnightblue" stroke="midnightblue" points="1913.79,-137.56 1903.21,-137.06 1911.17,-144.05 1913.79,-137.56"/>
</g>
<!-- Node39&#45;&gt;Node36 -->
<g id="edge71" class="edge">
<title>Node39&#45;&gt;Node36</title>
<path fill="none" stroke="midnightblue" d="M2042.06,-184.73C2041.03,-175.18 2039.35,-159.62 2038.02,-147.28"/>
<polygon fill="midnightblue" stroke="midnightblue" points="2041.48,-146.7 2036.93,-137.13 2034.52,-147.44 2041.48,-146.7"/>
</g>
<!-- Node40 -->
<g id="node40" class="node">
<title>Node40</title>
<g id="a_node40"><a xlink:title=" ">
<polygon fill="white" stroke="#bfbfbf" points="2161.5,-118 2161.5,-137 2276.5,-137 2276.5,-118 2161.5,-118"/>
<text text-anchor="middle" x="2219" y="-125" font-family="Helvetica,sans-Serif" font-size="10.00">AMReX_Geometry.H</text>
</a>
</g>
</g>
<!-- Node39&#45;&gt;Node40 -->
<g id="edge73" class="edge">
<title>Node39&#45;&gt;Node40</title>
<path fill="none" stroke="midnightblue" d="M2066.37,-184.87C2097.09,-173.52 2151.24,-153.52 2186.1,-140.65"/>
<polygon fill="midnightblue" stroke="midnightblue" points="2187.64,-143.81 2195.81,-137.06 2185.22,-137.24 2187.64,-143.81"/>
</g>
<!-- Node41&#45;&gt;Node6 -->
<g id="edge77" class="edge">
<title>Node41&#45;&gt;Node6</title>
<path fill="none" stroke="midnightblue" d="M1833.38,-184.94C1765.81,-173.03 1643.68,-151.52 1571.31,-138.77"/>
<polygon fill="midnightblue" stroke="midnightblue" points="1571.89,-135.32 1561.43,-137.03 1570.68,-142.21 1571.89,-135.32"/>
</g>
<!-- Node41&#45;&gt;Node11 -->
<g id="edge78" class="edge">
<title>Node41&#45;&gt;Node11</title>
<path fill="none" stroke="midnightblue" d="M1926.25,-184.99C1988.75,-172.81 2097.19,-150.97 2114,-143 2134.01,-133.51 2132.78,-121.02 2153,-112 2242.4,-72.13 2433.87,-126.53 2366,-56 2327.48,-15.97 1501.45,-11.49 1261.07,-11.04"/>
<polygon fill="midnightblue" stroke="midnightblue" points="1260.75,-7.54 1250.74,-11.02 1260.74,-14.54 1260.75,-7.54"/>
</g>
<!-- Node41&#45;&gt;Node32 -->
<g id="edge76" class="edge">
<title>Node41&#45;&gt;Node32</title>
<path fill="none" stroke="midnightblue" d="M1882,-184.73C1882,-175.18 1882,-159.62 1882,-147.28"/>
<polygon fill="midnightblue" stroke="midnightblue" points="1885.5,-147.13 1882,-137.13 1878.5,-147.13 1885.5,-147.13"/>
</g>
<!-- Node41&#45;&gt;Node36 -->
<g id="edge75" class="edge">
<title>Node41&#45;&gt;Node36</title>
<path fill="none" stroke="midnightblue" d="M1902.45,-184.87C1929.03,-173.65 1975.64,-153.98 2006.17,-141.09"/>
<polygon fill="midnightblue" stroke="midnightblue" points="2007.61,-144.28 2015.47,-137.17 2004.89,-137.83 2007.61,-144.28"/>
</g>
<!-- Node41&#45;&gt;Node40 -->
<g id="edge79" class="edge">
<title>Node41&#45;&gt;Node40</title>
<path fill="none" stroke="midnightblue" d="M1927.51,-184.98C1980.33,-175.05 2070.02,-158.09 2147,-143 2153.56,-141.71 2160.45,-140.35 2167.26,-138.99"/>
<polygon fill="midnightblue" stroke="midnightblue" points="2168.02,-142.41 2177.13,-137.01 2166.64,-135.54 2168.02,-142.41"/>
</g>
</g>
</svg>
        <g id="navigator" transform="translate(0 0)" fill="#404254">
                <rect fill="#f2f5e9" fill-opacity="0.5" stroke="#606060" stroke-width=".5" x="0" y="0" width="60" height="60"/>
                <use id="zoomplus" xlink:href="#zoomPlus" x="17" y="9" onmousedown="handleZoom(evt,'in')"/>
                <use id="zoomminus" xlink:href="#zoomMin" x="42" y="9" onmousedown="handleZoom(evt,'out')"/>
                <use id="reset" xlink:href="#resetDef" x="30" y="36" onmousedown="handleReset()"/>
                <g id="arrowUp" xlink:href="#dirArrow" transform="translate(30 24)" onmousedown="handlePan(0,-1)">
                  <use xlink:href="#rim" fill="#404040">
                        <set attributeName="fill" to="#808080" begin="arrowUp.mouseover" end="arrowUp.mouseout"/>
                  </use>
                  <path fill="none" stroke="white" stroke-width="1.5" d="M0,-3.0v7 M-2.5,-0.5L0,-3.0L2.5,-0.5"/>
                </g>
                <g id="arrowRight" xlink:href="#dirArrow" transform="rotate(90) translate(36 -43)" onmousedown="handlePan(1,0)">
                  <use xlink:href="#rim" fill="#404040">
                        <set attributeName="fill" to="#808080" begin="arrowRight.mouseover" end="arrowRight.mouseout"/>
                  </use>
                  <path fill="none" stroke="white" stroke-width="1.5" d="M0,-3.0v7 M-2.5,-0.5L0,-3.0L2.5,-0.5"/>
                </g>
                <g id="arrowDown" xlink:href="#dirArrow" transform="rotate(180) translate(-30 -48)" onmousedown="handlePan(0,1)">
                  <use xlink:href="#rim" fill="#404040">
                        <set attributeName="fill" to="#808080" begin="arrowDown.mouseover" end="arrowDown.mouseout"/>
                  </use>
                  <path fill="none" stroke="white" stroke-width="1.5" d="M0,-3.0v7 M-2.5,-0.5L0,-3.0L2.5,-0.5"/>
                </g>
                <g id="arrowLeft" xlink:href="#dirArrow" transform="rotate(270) translate(-36 17)" onmousedown="handlePan(-1,0)">
                  <use xlink:href="#rim" fill="#404040">
                        <set attributeName="fill" to="#808080" begin="arrowLeft.mouseover" end="arrowLeft.mouseout"/>
                  </use>
                  <path fill="none" stroke="white" stroke-width="1.5" d="M0,-3.0v7 M-2.5,-0.5L0,-3.0L2.5,-0.5"/>
                </g>
        </g>
        <svg viewBox="0 0 15 15" width="100%" height="30px" preserveAspectRatio="xMaxYMin meet">
         <g id="arrow_out" transform="scale(0.3 0.3)">
          <a xlink:href="_third_moment_averaging_8_h__incl_org.svg" target="_base">
           <rect id="button" ry="5" rx="5" y="6" x="6" height="38" width="38"
                fill="#f2f5e9" fill-opacity="0.5" stroke="#606060" stroke-width="1.0"/>
           <path id="arrow"
             d="M 11.500037,31.436501 C 11.940474,20.09759 22.043105,11.32322 32.158766,21.979434 L 37.068811,17.246167 C 37.068811,17.246167 37.088388,32 37.088388,32 L 22.160133,31.978069 C 22.160133,31.978069 26.997745,27.140456 26.997745,27.140456 C 18.528582,18.264221 13.291696,25.230495 11.500037,31.436501 z"
             style="fill:#404040;"/>
          </a>
         </g>
        </svg>
</svg>
