<?xml version="1.0" encoding="UTF-8" standalone="no"?>
<!DOCTYPE svg PUBLIC "-//W3C//DTD SVG 1.1//EN"
 "http://www.w3.org/Graphics/SVG/1.1/DTD/svg11.dtd">
<!-- Generated by graphviz version 2.43.0 (0)
 -->
<!-- Title: TimeAveraging.cpp Pages: 1 -->
<svg width="2699pt" height="352pt"
 viewBox="0.00 0.00 2698.86 352.00" xmlns="http://www.w3.org/2000/svg" xmlns:xlink="http://www.w3.org/1999/xlink">
<g id="graph0" class="graph" transform="scale(1 1) rotate(0) translate(4 348)">
<title>TimeAveraging.cpp</title>
<polygon fill="white" stroke="transparent" points="-4,4 -4,-348 2694.86,-348 2694.86,4 -4,4"/>
<!-- Node1 -->
<g id="node1" class="node">
<title>Node1</title>
<g id="a_node1"><a xlink:title=" ">
<polygon fill="#bfbfbf" stroke="black" points="1209.86,-324.5 1209.86,-343.5 1319.86,-343.5 1319.86,-324.5 1209.86,-324.5"/>
<text text-anchor="middle" x="1264.86" y="-331.5" font-family="Helvetica,sans-Serif" font-size="10.00">TimeAveraging.cpp</text>
</a>
</g>
</g>
<!-- Node2 -->
<g id="node2" class="node">
<title>Node2</title>
<g id="a_node2"><a xlink:title=" ">
<polygon fill="white" stroke="#bfbfbf" points="2237.36,-62 2237.36,-81 2282.36,-81 2282.36,-62 2237.36,-62"/>
<text text-anchor="middle" x="2259.86" y="-69" font-family="Helvetica,sans-Serif" font-size="10.00">utility</text>
</a>
</g>
</g>
<!-- Node1&#45;&gt;Node2 -->
<g id="edge1" class="edge">
<title>Node1&#45;&gt;Node2</title>
<path fill="none" stroke="midnightblue" d="M1320.07,-329.64C1481.71,-319.18 1951.19,-284 2089.86,-221 2158.99,-189.59 2220.87,-120.64 2246.86,-88.98"/>
<polygon fill="midnightblue" stroke="midnightblue" points="2249.66,-91.09 2253.22,-81.11 2244.22,-86.69 2249.66,-91.09"/>
</g>
<!-- Node3 -->
<g id="node3" class="node">
<title>Node3</title>
<g id="a_node3"><a xlink:href="_time_averaging_8_h.html" target="_top" xlink:title=" ">
<polygon fill="white" stroke="black" points="175.36,-190.5 175.36,-220.5 330.36,-220.5 330.36,-190.5 175.36,-190.5"/>
<text text-anchor="start" x="183.36" y="-208.5" font-family="Helvetica,sans-Serif" font-size="10.00">amr&#45;wind/utilities</text>
<text text-anchor="middle" x="252.86" y="-197.5" font-family="Helvetica,sans-Serif" font-size="10.00">/averaging/TimeAveraging.H</text>
</a>
</g>
</g>
<!-- Node1&#45;&gt;Node3 -->
<g id="edge2" class="edge">
<title>Node1&#45;&gt;Node3</title>
<path fill="none" stroke="midnightblue" d="M1209.73,-326.11C1043.12,-305.28 543.83,-242.87 340.48,-217.45"/>
<polygon fill="midnightblue" stroke="midnightblue" points="340.8,-213.97 330.44,-216.2 339.93,-220.91 340.8,-213.97"/>
</g>
<!-- Node15 -->
<g id="node15" class="node">
<title>Node15</title>
<g id="a_node15"><a xlink:href="_re_averaging_8_h.html" target="_top" xlink:title=" ">
<polygon fill="white" stroke="black" points="952.36,-257.5 952.36,-287.5 1095.36,-287.5 1095.36,-257.5 952.36,-257.5"/>
<text text-anchor="start" x="960.36" y="-275.5" font-family="Helvetica,sans-Serif" font-size="10.00">amr&#45;wind/utilities</text>
<text text-anchor="middle" x="1023.86" y="-264.5" font-family="Helvetica,sans-Serif" font-size="10.00">/averaging/ReAveraging.H</text>
</a>
</g>
</g>
<!-- Node1&#45;&gt;Node15 -->
<g id="edge17" class="edge">
<title>Node1&#45;&gt;Node15</title>
<path fill="none" stroke="midnightblue" d="M1230.33,-324.48C1193.95,-315.49 1135.76,-301.13 1090.42,-289.93"/>
<polygon fill="midnightblue" stroke="midnightblue" points="1091.2,-286.52 1080.66,-287.52 1089.52,-293.32 1091.2,-286.52"/>
</g>
<!-- Node16 -->
<g id="node16" class="node">
<title>Node16</title>
<g id="a_node16"><a xlink:href="_c_f_d_sim_8_h.html" target="_top" xlink:title=" ">
<polygon fill="white" stroke="black" points="1206.86,-263 1206.86,-282 1322.86,-282 1322.86,-263 1206.86,-263"/>
<text text-anchor="middle" x="1264.86" y="-270" font-family="Helvetica,sans-Serif" font-size="10.00">amr&#45;wind/CFDSim.H</text>
</a>
</g>
</g>
<!-- Node1&#45;&gt;Node16 -->
<g id="edge19" class="edge">
<title>Node1&#45;&gt;Node16</title>
<path fill="none" stroke="midnightblue" d="M1264.86,-324.48C1264.86,-316.08 1264.86,-302.98 1264.86,-292.16"/>
<polygon fill="midnightblue" stroke="midnightblue" points="1268.36,-292.01 1264.86,-282.01 1261.36,-292.01 1268.36,-292.01"/>
</g>
<!-- Node44 -->
<g id="node44" class="node">
<title>Node44</title>
<g id="a_node44"><a xlink:title=" ">
<polygon fill="white" stroke="#bfbfbf" points="2237.36,-263 2237.36,-282 2356.36,-282 2356.36,-263 2237.36,-263"/>
<text text-anchor="middle" x="2296.86" y="-270" font-family="Helvetica,sans-Serif" font-size="10.00">AMReX_ParmParse.H</text>
</a>
</g>
</g>
<!-- Node1&#45;&gt;Node44 -->
<g id="edge86" class="edge">
<title>Node1&#45;&gt;Node44</title>
<path fill="none" stroke="midnightblue" d="M1319.9,-333.23C1467.01,-333.23 1881.3,-329.26 2222.86,-288 2231.36,-286.97 2240.34,-285.52 2249.02,-283.94"/>
<polygon fill="midnightblue" stroke="midnightblue" points="2249.84,-287.34 2259,-282.03 2248.52,-280.47 2249.84,-287.34"/>
</g>
<!-- Node4 -->
<g id="node4" class="node">
<title>Node4</title>
<g id="a_node4"><a xlink:href="_factory_8_h.html" target="_top" xlink:title=" ">
<polygon fill="white" stroke="black" points="156.86,-62 156.86,-81 290.86,-81 290.86,-62 156.86,-62"/>
<text text-anchor="middle" x="223.86" y="-69" font-family="Helvetica,sans-Serif" font-size="10.00">amr&#45;wind/core/Factory.H</text>
</a>
</g>
</g>
<!-- Node3&#45;&gt;Node4 -->
<g id="edge3" class="edge">
<title>Node3&#45;&gt;Node4</title>
<path fill="none" stroke="midnightblue" d="M241.31,-190.49C234.17,-180.88 225.66,-167.46 221.86,-154 215.98,-133.19 217.83,-108.2 220.27,-91.43"/>
<polygon fill="midnightblue" stroke="midnightblue" points="223.77,-91.72 221.98,-81.28 216.87,-90.56 223.77,-91.72"/>
</g>
<!-- Node5 -->
<g id="node5" class="node">
<title>Node5</title>
<g id="a_node5"><a xlink:title=" ">
<polygon fill="white" stroke="#bfbfbf" points="240.86,-0.5 240.86,-19.5 298.86,-19.5 298.86,-0.5 240.86,-0.5"/>
<text text-anchor="middle" x="269.86" y="-7.5" font-family="Helvetica,sans-Serif" font-size="10.00">memory</text>
</a>
</g>
</g>
<!-- Node3&#45;&gt;Node5 -->
<g id="edge14" class="edge">
<title>Node3&#45;&gt;Node5</title>
<path fill="none" stroke="midnightblue" d="M175.04,-199.12C110.85,-192.87 26.99,-179.9 5.86,-154 -2.86,-143.33 -0.69,-135.13 5.86,-123 31.61,-75.27 58.47,-78.42 107.86,-56 129.73,-46.07 190.42,-30.32 230.98,-20.32"/>
<polygon fill="midnightblue" stroke="midnightblue" points="231.95,-23.69 240.83,-17.92 230.28,-16.89 231.95,-23.69"/>
</g>
<!-- Node10 -->
<g id="node10" class="node">
<title>Node10</title>
<g id="a_node10"><a xlink:href="_post_processing_8_h.html" target="_top" xlink:title=" ">
<polygon fill="white" stroke="black" points="14.86,-123.5 14.86,-153.5 118.86,-153.5 118.86,-123.5 14.86,-123.5"/>
<text text-anchor="start" x="22.86" y="-141.5" font-family="Helvetica,sans-Serif" font-size="10.00">amr&#45;wind/utilities</text>
<text text-anchor="middle" x="66.86" y="-130.5" font-family="Helvetica,sans-Serif" font-size="10.00">/PostProcessing.H</text>
</a>
</g>
</g>
<!-- Node3&#45;&gt;Node10 -->
<g id="edge9" class="edge">
<title>Node3&#45;&gt;Node10</title>
<path fill="none" stroke="midnightblue" d="M212.5,-190.4C184.35,-180.56 146.6,-167.37 116.59,-156.88"/>
<polygon fill="midnightblue" stroke="midnightblue" points="117.73,-153.57 107.14,-153.58 115.42,-160.18 117.73,-153.57"/>
</g>
<!-- Node11 -->
<g id="node11" class="node">
<title>Node11</title>
<g id="a_node11"><a xlink:title=" ">
<polygon fill="white" stroke="#bfbfbf" points="1121.86,-0.5 1121.86,-19.5 1219.86,-19.5 1219.86,-0.5 1121.86,-0.5"/>
<text text-anchor="middle" x="1170.86" y="-7.5" font-family="Helvetica,sans-Serif" font-size="10.00">AMReX_Vector.H</text>
</a>
</g>
</g>
<!-- Node3&#45;&gt;Node11 -->
<g id="edge12" class="edge">
<title>Node3&#45;&gt;Node11</title>
<path fill="none" stroke="midnightblue" d="M262.42,-190.26C285.66,-156.14 345.45,-71.36 375.86,-56 408.57,-39.47 932.95,-19.44 1111.71,-13.06"/>
<polygon fill="midnightblue" stroke="midnightblue" points="1111.85,-16.55 1121.72,-12.7 1111.6,-9.56 1111.85,-16.55"/>
</g>
<!-- Node12 -->
<g id="node12" class="node">
<title>Node12</title>
<g id="a_node12"><a xlink:title=" ">
<polygon fill="white" stroke="#bfbfbf" points="230.86,-129 230.86,-148 274.86,-148 274.86,-129 230.86,-129"/>
<text text-anchor="middle" x="252.86" y="-136" font-family="Helvetica,sans-Serif" font-size="10.00">limits</text>
</a>
</g>
</g>
<!-- Node3&#45;&gt;Node12 -->
<g id="edge13" class="edge">
<title>Node3&#45;&gt;Node12</title>
<path fill="none" stroke="midnightblue" d="M252.86,-190.4C252.86,-181.06 252.86,-168.71 252.86,-158.52"/>
<polygon fill="midnightblue" stroke="midnightblue" points="256.36,-158.19 252.86,-148.19 249.36,-158.19 256.36,-158.19"/>
</g>
<!-- Node13 -->
<g id="node13" class="node">
<title>Node13</title>
<g id="a_node13"><a xlink:title=" ">
<polygon fill="white" stroke="#bfbfbf" points="1356.86,-0.5 1356.86,-19.5 1400.86,-19.5 1400.86,-0.5 1356.86,-0.5"/>
<text text-anchor="middle" x="1378.86" y="-7.5" font-family="Helvetica,sans-Serif" font-size="10.00">string</text>
</a>
</g>
</g>
<!-- Node3&#45;&gt;Node13 -->
<g id="edge15" class="edge">
<title>Node3&#45;&gt;Node13</title>
<path fill="none" stroke="midnightblue" d="M330.4,-200.82C424.58,-195.19 576.94,-181.99 625.86,-154 673.93,-126.49 653.87,-81.86 702.86,-56 710.07,-52.19 1213.08,-21.15 1346.61,-12.97"/>
<polygon fill="midnightblue" stroke="midnightblue" points="1346.86,-16.46 1356.63,-12.36 1346.44,-9.47 1346.86,-16.46"/>
</g>
<!-- Node14 -->
<g id="node14" class="node">
<title>Node14</title>
<g id="a_node14"><a xlink:title=" ">
<polygon fill="white" stroke="#bfbfbf" points="136.86,-129 136.86,-148 174.86,-148 174.86,-129 136.86,-129"/>
<text text-anchor="middle" x="155.86" y="-136" font-family="Helvetica,sans-Serif" font-size="10.00">map</text>
</a>
</g>
</g>
<!-- Node3&#45;&gt;Node14 -->
<g id="edge16" class="edge">
<title>Node3&#45;&gt;Node14</title>
<path fill="none" stroke="midnightblue" d="M231.81,-190.4C215.54,-179.5 193.13,-164.48 176.87,-153.58"/>
<polygon fill="midnightblue" stroke="midnightblue" points="178.81,-150.67 168.55,-148.01 174.91,-156.48 178.81,-150.67"/>
</g>
<!-- Node4&#45;&gt;Node5 -->
<g id="edge4" class="edge">
<title>Node4&#45;&gt;Node5</title>
<path fill="none" stroke="midnightblue" d="M230.45,-61.98C237.35,-53.05 248.36,-38.81 256.99,-27.64"/>
<polygon fill="midnightblue" stroke="midnightblue" points="259.93,-29.56 263.28,-19.51 254.39,-25.28 259.93,-29.56"/>
</g>
<!-- Node6 -->
<g id="node6" class="node">
<title>Node6</title>
<g id="a_node6"><a xlink:title=" ">
<polygon fill="white" stroke="#bfbfbf" points="492.36,-0.5 492.36,-19.5 585.36,-19.5 585.36,-0.5 492.36,-0.5"/>
<text text-anchor="middle" x="538.86" y="-7.5" font-family="Helvetica,sans-Serif" font-size="10.00">unordered_map</text>
</a>
</g>
</g>
<!-- Node4&#45;&gt;Node6 -->
<g id="edge5" class="edge">
<title>Node4&#45;&gt;Node6</title>
<path fill="none" stroke="midnightblue" d="M268.99,-61.98C325.71,-51.26 423.01,-32.88 483.98,-21.37"/>
<polygon fill="midnightblue" stroke="midnightblue" points="484.63,-24.8 493.81,-19.51 483.33,-17.93 484.63,-24.8"/>
</g>
<!-- Node7 -->
<g id="node7" class="node">
<title>Node7</title>
<g id="a_node7"><a xlink:title=" ">
<polygon fill="white" stroke="#bfbfbf" points="54.86,-0.5 54.86,-19.5 114.86,-19.5 114.86,-0.5 54.86,-0.5"/>
<text text-anchor="middle" x="84.86" y="-7.5" font-family="Helvetica,sans-Serif" font-size="10.00">iostream</text>
</a>
</g>
</g>
<!-- Node4&#45;&gt;Node7 -->
<g id="edge6" class="edge">
<title>Node4&#45;&gt;Node7</title>
<path fill="none" stroke="midnightblue" d="M203.94,-61.98C180.41,-51.9 141.05,-35.05 114.06,-23.5"/>
<polygon fill="midnightblue" stroke="midnightblue" points="115.3,-20.23 104.73,-19.51 112.55,-26.66 115.3,-20.23"/>
</g>
<!-- Node8 -->
<g id="node8" class="node">
<title>Node8</title>
<g id="a_node8"><a xlink:title=" ">
<polygon fill="white" stroke="#bfbfbf" points="132.86,-0.5 132.86,-19.5 222.86,-19.5 222.86,-0.5 132.86,-0.5"/>
<text text-anchor="middle" x="177.86" y="-7.5" font-family="Helvetica,sans-Serif" font-size="10.00">AMReX_Print.H</text>
</a>
</g>
</g>
<!-- Node4&#45;&gt;Node8 -->
<g id="edge7" class="edge">
<title>Node4&#45;&gt;Node8</title>
<path fill="none" stroke="midnightblue" d="M217.27,-61.98C210.37,-53.05 199.35,-38.81 190.72,-27.64"/>
<polygon fill="midnightblue" stroke="midnightblue" points="193.32,-25.28 184.43,-19.51 187.78,-29.56 193.32,-25.28"/>
</g>
<!-- Node9 -->
<g id="node9" class="node">
<title>Node9</title>
<g id="a_node9"><a xlink:title=" ">
<polygon fill="white" stroke="#bfbfbf" points="316.86,-0.5 316.86,-19.5 378.86,-19.5 378.86,-0.5 316.86,-0.5"/>
<text text-anchor="middle" x="347.86" y="-7.5" font-family="Helvetica,sans-Serif" font-size="10.00">AMReX.H</text>
</a>
</g>
</g>
<!-- Node4&#45;&gt;Node9 -->
<g id="edge8" class="edge">
<title>Node4&#45;&gt;Node9</title>
<path fill="none" stroke="midnightblue" d="M241.62,-61.98C262.34,-52.03 296.81,-35.49 320.84,-23.96"/>
<polygon fill="midnightblue" stroke="midnightblue" points="322.62,-26.99 330.12,-19.51 319.59,-20.68 322.62,-26.99"/>
</g>
<!-- Node10&#45;&gt;Node4 -->
<g id="edge11" class="edge">
<title>Node10&#45;&gt;Node4</title>
<path fill="none" stroke="midnightblue" d="M100.92,-123.4C128.59,-111.94 167.24,-95.94 193.78,-84.95"/>
<polygon fill="midnightblue" stroke="midnightblue" points="195.41,-88.07 203.31,-81.01 192.73,-81.6 195.41,-88.07"/>
</g>
<!-- Node10&#45;&gt;Node5 -->
<g id="edge10" class="edge">
<title>Node10&#45;&gt;Node5</title>
<path fill="none" stroke="midnightblue" d="M77.72,-123.24C92.04,-105.31 118.82,-74.65 147.86,-56 173.4,-39.59 205.77,-28.01 230.75,-20.7"/>
<polygon fill="midnightblue" stroke="midnightblue" points="231.94,-24.01 240.61,-17.93 230.04,-17.27 231.94,-24.01"/>
</g>
<!-- Node15&#45;&gt;Node3 -->
<g id="edge18" class="edge">
<title>Node15&#45;&gt;Node3</title>
<path fill="none" stroke="midnightblue" d="M952.01,-265.44C810.23,-253.49 494.83,-226.9 340.85,-213.92"/>
<polygon fill="midnightblue" stroke="midnightblue" points="340.76,-210.4 330.5,-213.05 340.17,-217.37 340.76,-210.4"/>
</g>
<!-- Node17 -->
<g id="node17" class="node">
<title>Node17</title>
<g id="a_node17"><a xlink:title=" ">
<polygon fill="white" stroke="#bfbfbf" points="1759.86,-129 1759.86,-148 1869.86,-148 1869.86,-129 1759.86,-129"/>
<text text-anchor="middle" x="1814.86" y="-136" font-family="Helvetica,sans-Serif" font-size="10.00">AMReX_AmrCore.H</text>
</a>
</g>
</g>
<!-- Node16&#45;&gt;Node17 -->
<g id="edge20" class="edge">
<title>Node16&#45;&gt;Node17</title>
<path fill="none" stroke="midnightblue" d="M1322.97,-264.26C1383.6,-256.1 1481.16,-241.29 1563.86,-221 1644.03,-201.33 1735.69,-168.97 1782.95,-151.53"/>
<polygon fill="midnightblue" stroke="midnightblue" points="1784.18,-154.81 1792.34,-148.05 1781.74,-148.25 1784.18,-154.81"/>
</g>
<!-- Node18 -->
<g id="node18" class="node">
<title>Node18</title>
<g id="a_node18"><a xlink:href="_sim_time_8_h.html" target="_top" xlink:title=" ">
<polygon fill="white" stroke="black" points="1410.86,-196 1410.86,-215 1554.86,-215 1554.86,-196 1410.86,-196"/>
<text text-anchor="middle" x="1482.86" y="-203" font-family="Helvetica,sans-Serif" font-size="10.00">amr&#45;wind/core/SimTime.H</text>
</a>
</g>
</g>
<!-- Node16&#45;&gt;Node18 -->
<g id="edge21" class="edge">
<title>Node16&#45;&gt;Node18</title>
<path fill="none" stroke="midnightblue" d="M1293.8,-262.87C1332.51,-251.33 1401.24,-230.84 1444.3,-218"/>
<polygon fill="midnightblue" stroke="midnightblue" points="1445.55,-221.28 1454.13,-215.06 1443.55,-214.57 1445.55,-221.28"/>
</g>
<!-- Node22 -->
<g id="node22" class="node">
<title>Node22</title>
<g id="a_node22"><a xlink:href="_field_repo_8_h.html" target="_top" xlink:title=" ">
<polygon fill="white" stroke="black" points="1931.36,-196 1931.36,-215 2080.36,-215 2080.36,-196 1931.36,-196"/>
<text text-anchor="middle" x="2005.86" y="-203" font-family="Helvetica,sans-Serif" font-size="10.00">amr&#45;wind/core/FieldRepo.H</text>
</a>
</g>
</g>
<!-- Node16&#45;&gt;Node22 -->
<g id="edge25" class="edge">
<title>Node16&#45;&gt;Node22</title>
<path fill="none" stroke="midnightblue" d="M1323,-266.4C1453.24,-254.98 1768.85,-227.29 1921.03,-213.94"/>
<polygon fill="midnightblue" stroke="midnightblue" points="1921.6,-217.4 1931.25,-213.04 1920.99,-210.43 1921.6,-217.4"/>
</g>
<!-- Node37 -->
<g id="node37" class="node">
<title>Node37</title>
<g id="a_node37"><a xlink:href="_p_d_e_base_8_h.html" target="_top" xlink:title=" ">
<polygon fill="white" stroke="black" points="818.36,-123.5 818.36,-153.5 973.36,-153.5 973.36,-123.5 818.36,-123.5"/>
<text text-anchor="start" x="826.36" y="-141.5" font-family="Helvetica,sans-Serif" font-size="10.00">amr&#45;wind/equation_systems</text>
<text text-anchor="middle" x="895.86" y="-130.5" font-family="Helvetica,sans-Serif" font-size="10.00">/PDEBase.H</text>
</a>
</g>
</g>
<!-- Node16&#45;&gt;Node37 -->
<g id="edge63" class="edge">
<title>Node16&#45;&gt;Node37</title>
<path fill="none" stroke="midnightblue" d="M1244.04,-262.99C1206.37,-247.69 1124.22,-214.81 1053.86,-190 1020.28,-178.16 982.29,-165.98 951.98,-156.55"/>
<polygon fill="midnightblue" stroke="midnightblue" points="953.01,-153.2 942.42,-153.59 950.93,-159.89 953.01,-153.2"/>
</g>
<!-- Node41 -->
<g id="node41" class="node">
<title>Node41</title>
<g id="a_node41"><a xlink:href="_physics_8_h.html" target="_top" xlink:title=" ">
<polygon fill="white" stroke="black" points="480.36,-129 480.36,-148 617.36,-148 617.36,-129 480.36,-129"/>
<text text-anchor="middle" x="548.86" y="-136" font-family="Helvetica,sans-Serif" font-size="10.00">amr&#45;wind/core/Physics.H</text>
</a>
</g>
</g>
<!-- Node16&#45;&gt;Node41 -->
<g id="edge75" class="edge">
<title>Node16&#45;&gt;Node41</title>
<path fill="none" stroke="midnightblue" d="M1206.76,-265.59C1132.46,-257.61 1000,-241.93 887.86,-221 779.35,-200.75 653.42,-167.99 589.95,-150.83"/>
<polygon fill="midnightblue" stroke="midnightblue" points="590.51,-147.35 579.94,-148.11 588.67,-154.11 590.51,-147.35"/>
</g>
<!-- Node43 -->
<g id="node43" class="node">
<title>Node43</title>
<g id="a_node43"><a xlink:href="_mesh_map_8_h.html" target="_top" xlink:title=" ">
<polygon fill="white" stroke="black" points="896.86,-196 896.86,-215 1044.86,-215 1044.86,-196 896.86,-196"/>
<text text-anchor="middle" x="970.86" y="-203" font-family="Helvetica,sans-Serif" font-size="10.00">amr&#45;wind/core/MeshMap.H</text>
</a>
</g>
</g>
<!-- Node16&#45;&gt;Node43 -->
<g id="edge80" class="edge">
<title>Node16&#45;&gt;Node43</title>
<path fill="none" stroke="midnightblue" d="M1226.12,-262.94C1173.02,-251.2 1077.62,-230.11 1019.69,-217.3"/>
<polygon fill="midnightblue" stroke="midnightblue" points="1020.2,-213.82 1009.68,-215.08 1018.69,-220.66 1020.2,-213.82"/>
</g>
<!-- Node19 -->
<g id="node19" class="node">
<title>Node19</title>
<g id="a_node19"><a xlink:title=" ">
<polygon fill="white" stroke="#bfbfbf" points="1497.86,-129 1497.86,-148 1589.86,-148 1589.86,-129 1497.86,-129"/>
<text text-anchor="middle" x="1543.86" y="-136" font-family="Helvetica,sans-Serif" font-size="10.00">AMReX_REAL.H</text>
</a>
</g>
</g>
<!-- Node18&#45;&gt;Node19 -->
<g id="edge22" class="edge">
<title>Node18&#45;&gt;Node19</title>
<path fill="none" stroke="midnightblue" d="M1491.08,-195.73C1500.69,-185.5 1516.77,-168.36 1528.66,-155.69"/>
<polygon fill="midnightblue" stroke="midnightblue" points="1531.47,-157.81 1535.76,-148.13 1526.36,-153.02 1531.47,-157.81"/>
</g>
<!-- Node20 -->
<g id="node20" class="node">
<title>Node20</title>
<g id="a_node20"><a xlink:title=" ">
<polygon fill="white" stroke="#bfbfbf" points="1607.86,-129 1607.86,-148 1741.86,-148 1741.86,-129 1607.86,-129"/>
<text text-anchor="middle" x="1674.86" y="-136" font-family="Helvetica,sans-Serif" font-size="10.00">AMReX_GpuQualifiers.H</text>
</a>
</g>
</g>
<!-- Node18&#45;&gt;Node20 -->
<g id="edge23" class="edge">
<title>Node18&#45;&gt;Node20</title>
<path fill="none" stroke="midnightblue" d="M1508.35,-195.87C1542.16,-184.42 1601.95,-164.18 1639.93,-151.32"/>
<polygon fill="midnightblue" stroke="midnightblue" points="1641.21,-154.59 1649.56,-148.06 1638.97,-147.96 1641.21,-154.59"/>
</g>
<!-- Node21 -->
<g id="node21" class="node">
<title>Node21</title>
<g id="a_node21"><a xlink:title=" ">
<polygon fill="white" stroke="#bfbfbf" points="1363.86,-129 1363.86,-148 1479.86,-148 1479.86,-129 1363.86,-129"/>
<text text-anchor="middle" x="1421.86" y="-136" font-family="Helvetica,sans-Serif" font-size="10.00">AMReX_Extension.H</text>
</a>
</g>
</g>
<!-- Node18&#45;&gt;Node21 -->
<g id="edge24" class="edge">
<title>Node18&#45;&gt;Node21</title>
<path fill="none" stroke="midnightblue" d="M1474.63,-195.73C1465.03,-185.5 1448.94,-168.36 1437.05,-155.69"/>
<polygon fill="midnightblue" stroke="midnightblue" points="1439.35,-153.02 1429.95,-148.13 1434.24,-157.81 1439.35,-153.02"/>
</g>
<!-- Node22&#45;&gt;Node6 -->
<g id="edge27" class="edge">
<title>Node22&#45;&gt;Node6</title>
<path fill="none" stroke="midnightblue" d="M1931.3,-202.05C1623.9,-191.93 470.86,-154 470.86,-154 413.34,-134.71 339.11,-104.27 375.86,-56 388.88,-38.9 440.33,-26.64 481.99,-19.28"/>
<polygon fill="midnightblue" stroke="midnightblue" points="482.8,-22.69 492.07,-17.55 481.62,-15.79 482.8,-22.69"/>
</g>
<!-- Node22&#45;&gt;Node13 -->
<g id="edge26" class="edge">
<title>Node22&#45;&gt;Node13</title>
<path fill="none" stroke="midnightblue" d="M1988.95,-196C1970.66,-186.55 1940.9,-170.46 1916.86,-154 1898.87,-141.69 1898.77,-131.86 1878.86,-123 1783.13,-80.39 1748.22,-109.39 1645.86,-87 1622.62,-81.92 1476.41,-39.47 1410.73,-20.31"/>
<polygon fill="midnightblue" stroke="midnightblue" points="1411.49,-16.89 1400.91,-17.45 1409.53,-23.61 1411.49,-16.89"/>
</g>
<!-- Node22&#45;&gt;Node17 -->
<g id="edge60" class="edge">
<title>Node22&#45;&gt;Node17</title>
<path fill="none" stroke="midnightblue" d="M1980.49,-195.87C1946.86,-184.42 1887.38,-164.18 1849.6,-151.32"/>
<polygon fill="midnightblue" stroke="midnightblue" points="1850.61,-147.97 1840.02,-148.06 1848.36,-154.6 1850.61,-147.97"/>
</g>
<!-- Node23 -->
<g id="node23" class="node">
<title>Node23</title>
<g id="a_node23"><a xlink:href="_field_desc_types_8_h.html" target="_top" xlink:title=" ">
<polygon fill="white" stroke="black" points="2120.86,-0.5 2120.86,-19.5 2296.86,-19.5 2296.86,-0.5 2120.86,-0.5"/>
<text text-anchor="middle" x="2208.86" y="-7.5" font-family="Helvetica,sans-Serif" font-size="10.00">amr&#45;wind/core/FieldDescTypes.H</text>
</a>
</g>
</g>
<!-- Node22&#45;&gt;Node23 -->
<g id="edge28" class="edge">
<title>Node22&#45;&gt;Node23</title>
<path fill="none" stroke="midnightblue" d="M2080.48,-201.91C2207.06,-196.73 2452.75,-183.04 2478.86,-154 2492.69,-138.61 2488.66,-74.74 2470.86,-56 2448.57,-32.54 2372.06,-21.28 2307.44,-15.89"/>
<polygon fill="midnightblue" stroke="midnightblue" points="2307.43,-12.38 2297.18,-15.07 2306.87,-19.36 2307.43,-12.38"/>
</g>
<!-- Node24 -->
<g id="node24" class="node">
<title>Node24</title>
<g id="a_node24"><a xlink:href="_field_utils_8_h.html" target="_top" xlink:title=" ">
<polygon fill="white" stroke="black" points="2544.86,-62 2544.86,-81 2690.86,-81 2690.86,-62 2544.86,-62"/>
<text text-anchor="middle" x="2617.86" y="-69" font-family="Helvetica,sans-Serif" font-size="10.00">amr&#45;wind/core/FieldUtils.H</text>
</a>
</g>
</g>
<!-- Node22&#45;&gt;Node24 -->
<g id="edge29" class="edge">
<title>Node22&#45;&gt;Node24</title>
<path fill="none" stroke="midnightblue" d="M2080.7,-203.2C2206.05,-200.06 2452.42,-189.44 2530.86,-154 2562.77,-139.58 2590.5,-108.62 2605.64,-89.28"/>
<polygon fill="midnightblue" stroke="midnightblue" points="2608.6,-91.17 2611.85,-81.08 2603.02,-86.94 2608.6,-91.17"/>
</g>
<!-- Node25 -->
<g id="node25" class="node">
<title>Node25</title>
<g id="a_node25"><a xlink:title=" ">
<polygon fill="white" stroke="#bfbfbf" points="1776.36,-0.5 1776.36,-19.5 1885.36,-19.5 1885.36,-0.5 1776.36,-0.5"/>
<text text-anchor="middle" x="1830.86" y="-7.5" font-family="Helvetica,sans-Serif" font-size="10.00">AMReX_MultiFab.H</text>
</a>
</g>
</g>
<!-- Node22&#45;&gt;Node25 -->
<g id="edge61" class="edge">
<title>Node22&#45;&gt;Node25</title>
<path fill="none" stroke="midnightblue" d="M2026.35,-195.99C2077.01,-173.81 2200.61,-112.06 2151.86,-56 2119.33,-18.6 1979.58,-11.36 1895.57,-10.49"/>
<polygon fill="midnightblue" stroke="midnightblue" points="1895.38,-6.99 1885.36,-10.41 1895.33,-13.99 1895.38,-6.99"/>
</g>
<!-- Node27 -->
<g id="node27" class="node">
<title>Node27</title>
<g id="a_node27"><a xlink:href="_field_8_h.html" target="_top" xlink:title=" ">
<polygon fill="white" stroke="black" points="1183.86,-129 1183.86,-148 1307.86,-148 1307.86,-129 1183.86,-129"/>
<text text-anchor="middle" x="1245.86" y="-136" font-family="Helvetica,sans-Serif" font-size="10.00">amr&#45;wind/core/Field.H</text>
</a>
</g>
</g>
<!-- Node22&#45;&gt;Node27 -->
<g id="edge33" class="edge">
<title>Node22&#45;&gt;Node27</title>
<path fill="none" stroke="midnightblue" d="M1931.04,-200.03C1809.85,-192.5 1563.14,-175.92 1354.86,-154 1342.2,-152.67 1328.74,-151.05 1315.76,-149.38"/>
<polygon fill="midnightblue" stroke="midnightblue" points="1315.84,-145.86 1305.47,-148.03 1314.93,-152.8 1315.84,-145.86"/>
</g>
<!-- Node33 -->
<g id="node33" class="node">
<title>Node33</title>
<g id="a_node33"><a xlink:href="_int_field_8_h.html" target="_top" xlink:title=" ">
<polygon fill="white" stroke="black" points="2332.36,-129 2332.36,-148 2469.36,-148 2469.36,-129 2332.36,-129"/>
<text text-anchor="middle" x="2400.86" y="-136" font-family="Helvetica,sans-Serif" font-size="10.00">amr&#45;wind/core/IntField.H</text>
</a>
</g>
</g>
<!-- Node22&#45;&gt;Node33 -->
<g id="edge48" class="edge">
<title>Node22&#45;&gt;Node33</title>
<path fill="none" stroke="midnightblue" d="M2057.9,-195.94C2130.38,-184.01 2261.5,-162.43 2338.92,-149.69"/>
<polygon fill="midnightblue" stroke="midnightblue" points="2339.71,-153.11 2349.01,-148.03 2338.57,-146.2 2339.71,-153.11"/>
</g>
<!-- Node34 -->
<g id="node34" class="node">
<title>Node34</title>
<g id="a_node34"><a xlink:title=" ">
<polygon fill="white" stroke="#bfbfbf" points="2300.86,-62 2300.86,-81 2412.86,-81 2412.86,-62 2300.86,-62"/>
<text text-anchor="middle" x="2356.86" y="-69" font-family="Helvetica,sans-Serif" font-size="10.00">AMReX_iMultiFab.H</text>
</a>
</g>
</g>
<!-- Node22&#45;&gt;Node34 -->
<g id="edge62" class="edge">
<title>Node22&#45;&gt;Node34</title>
<path fill="none" stroke="midnightblue" d="M2043.12,-195.92C2079.74,-187.05 2136.94,-171.97 2184.86,-154 2238.92,-133.73 2299.32,-103.15 2332.22,-85.79"/>
<polygon fill="midnightblue" stroke="midnightblue" points="2333.93,-88.84 2341.12,-81.06 2330.65,-82.66 2333.93,-88.84"/>
</g>
<!-- Node35 -->
<g id="node35" class="node">
<title>Node35</title>
<g id="a_node35"><a xlink:href="_scratch_field_8_h.html" target="_top" xlink:title=" ">
<polygon fill="white" stroke="black" points="1925.86,-129 1925.86,-148 2085.86,-148 2085.86,-129 1925.86,-129"/>
<text text-anchor="middle" x="2005.86" y="-136" font-family="Helvetica,sans-Serif" font-size="10.00">amr&#45;wind/core/ScratchField.H</text>
</a>
</g>
</g>
<!-- Node22&#45;&gt;Node35 -->
<g id="edge52" class="edge">
<title>Node22&#45;&gt;Node35</title>
<path fill="none" stroke="midnightblue" d="M2005.86,-195.73C2005.86,-186.18 2005.86,-170.62 2005.86,-158.28"/>
<polygon fill="midnightblue" stroke="midnightblue" points="2009.36,-158.13 2005.86,-148.13 2002.36,-158.13 2009.36,-158.13"/>
</g>
<!-- Node24&#45;&gt;Node23 -->
<g id="edge30" class="edge">
<title>Node24&#45;&gt;Node23</title>
<path fill="none" stroke="midnightblue" d="M2568.2,-61.99C2556,-59.97 2542.96,-57.85 2530.86,-56 2446.25,-43.04 2348.9,-29.64 2283.58,-20.88"/>
<polygon fill="midnightblue" stroke="midnightblue" points="2283.76,-17.37 2273.38,-19.51 2282.83,-24.31 2283.76,-17.37"/>
</g>
<!-- Node24&#45;&gt;Node25 -->
<g id="edge31" class="edge">
<title>Node24&#45;&gt;Node25</title>
<path fill="none" stroke="midnightblue" d="M2544.85,-63.74C2516.73,-61.21 2484.31,-58.37 2454.86,-56 2250.92,-39.58 2009.25,-22.96 1895.8,-15.32"/>
<polygon fill="midnightblue" stroke="midnightblue" points="1895.76,-11.81 1885.55,-14.64 1895.29,-18.8 1895.76,-11.81"/>
</g>
<!-- Node26 -->
<g id="node26" class="node">
<title>Node26</title>
<g id="a_node26"><a xlink:title=" ">
<polygon fill="white" stroke="#bfbfbf" points="2555.86,-0.5 2555.86,-19.5 2679.86,-19.5 2679.86,-0.5 2555.86,-0.5"/>
<text text-anchor="middle" x="2617.86" y="-7.5" font-family="Helvetica,sans-Serif" font-size="10.00">AMReX_Interpolater.H</text>
</a>
</g>
</g>
<!-- Node24&#45;&gt;Node26 -->
<g id="edge32" class="edge">
<title>Node24&#45;&gt;Node26</title>
<path fill="none" stroke="midnightblue" d="M2617.86,-61.98C2617.86,-53.58 2617.86,-40.48 2617.86,-29.66"/>
<polygon fill="midnightblue" stroke="midnightblue" points="2621.36,-29.51 2617.86,-19.51 2614.36,-29.51 2621.36,-29.51"/>
</g>
<!-- Node27&#45;&gt;Node5 -->
<g id="edge35" class="edge">
<title>Node27&#45;&gt;Node5</title>
<path fill="none" stroke="midnightblue" d="M1210.93,-128.94C1181.93,-120.88 1140.32,-107.02 1107.86,-87 1090.73,-76.44 1093.39,-63.85 1074.86,-56 920.64,9.3 493.09,-41.79 309.37,-19.85"/>
<polygon fill="midnightblue" stroke="midnightblue" points="309.58,-16.34 299.21,-18.52 308.68,-23.29 309.58,-16.34"/>
</g>
<!-- Node27&#45;&gt;Node6 -->
<g id="edge36" class="edge">
<title>Node27&#45;&gt;Node6</title>
<path fill="none" stroke="midnightblue" d="M1235.24,-128.88C1213.12,-111.48 1159.86,-72.44 1107.86,-56 1059.91,-40.84 730.34,-21.43 595.83,-14.04"/>
<polygon fill="midnightblue" stroke="midnightblue" points="595.9,-10.54 585.73,-13.49 595.52,-17.53 595.9,-10.54"/>
</g>
<!-- Node27&#45;&gt;Node13 -->
<g id="edge34" class="edge">
<title>Node27&#45;&gt;Node13</title>
<path fill="none" stroke="midnightblue" d="M1239.76,-128.96C1229.2,-113.02 1210.16,-78.35 1226.86,-56 1254.32,-19.23 1310.49,-11.27 1346.33,-10.19"/>
<polygon fill="midnightblue" stroke="midnightblue" points="1346.79,-13.68 1356.74,-10.05 1346.69,-6.68 1346.79,-13.68"/>
</g>
<!-- Node27&#45;&gt;Node23 -->
<g id="edge42" class="edge">
<title>Node27&#45;&gt;Node23</title>
<path fill="none" stroke="midnightblue" d="M1304.61,-128.98C1320.86,-126.82 1338.52,-124.64 1354.86,-123 1588.89,-99.48 1650.67,-124.58 1882.86,-87 1937.23,-78.2 1949.27,-68.77 2002.86,-56 2055.49,-43.46 2116.02,-30.4 2157.78,-21.6"/>
<polygon fill="midnightblue" stroke="midnightblue" points="2158.65,-24.99 2167.71,-19.51 2157.21,-18.14 2158.65,-24.99"/>
</g>
<!-- Node27&#45;&gt;Node25 -->
<g id="edge38" class="edge">
<title>Node27&#45;&gt;Node25</title>
<path fill="none" stroke="midnightblue" d="M1290.04,-128.93C1300.46,-126.94 1311.55,-124.87 1321.86,-123 1415.04,-106.13 1439.4,-107.45 1531.86,-87 1583.12,-75.66 1595.01,-69.1 1645.86,-56 1692.96,-43.87 1747.05,-30.81 1784.52,-21.91"/>
<polygon fill="midnightblue" stroke="midnightblue" points="1785.7,-25.22 1794.63,-19.51 1784.09,-18.41 1785.7,-25.22"/>
</g>
<!-- Node28 -->
<g id="node28" class="node">
<title>Node28</title>
<g id="a_node28"><a xlink:title=" ">
<polygon fill="white" stroke="#bfbfbf" points="1235.86,-62 1235.86,-81 1299.86,-81 1299.86,-62 1235.86,-62"/>
<text text-anchor="middle" x="1267.86" y="-69" font-family="Helvetica,sans-Serif" font-size="10.00">algorithm</text>
</a>
</g>
</g>
<!-- Node27&#45;&gt;Node28 -->
<g id="edge37" class="edge">
<title>Node27&#45;&gt;Node28</title>
<path fill="none" stroke="midnightblue" d="M1248.82,-128.73C1252.09,-119.09 1257.43,-103.3 1261.63,-90.91"/>
<polygon fill="midnightblue" stroke="midnightblue" points="1265.05,-91.72 1264.94,-81.13 1258.41,-89.48 1265.05,-91.72"/>
</g>
<!-- Node29 -->
<g id="node29" class="node">
<title>Node29</title>
<g id="a_node29"><a xlink:title=" ">
<polygon fill="white" stroke="#bfbfbf" points="1318.36,-62 1318.36,-81 1417.36,-81 1417.36,-62 1318.36,-62"/>
<text text-anchor="middle" x="1367.86" y="-69" font-family="Helvetica,sans-Serif" font-size="10.00">AMReX_BCRec.H</text>
</a>
</g>
</g>
<!-- Node27&#45;&gt;Node29 -->
<g id="edge39" class="edge">
<title>Node27&#45;&gt;Node29</title>
<path fill="none" stroke="midnightblue" d="M1262.06,-128.87C1282.66,-117.89 1318.45,-98.82 1342.63,-85.94"/>
<polygon fill="midnightblue" stroke="midnightblue" points="1344.41,-88.96 1351.59,-81.17 1341.12,-82.78 1344.41,-88.96"/>
</g>
<!-- Node30 -->
<g id="node30" class="node">
<title>Node30</title>
<g id="a_node30"><a xlink:title=" ">
<polygon fill="white" stroke="#bfbfbf" points="1435.36,-62 1435.36,-81 1522.36,-81 1522.36,-62 1435.36,-62"/>
<text text-anchor="middle" x="1478.86" y="-69" font-family="Helvetica,sans-Serif" font-size="10.00">AMReX_Gpu.H</text>
</a>
</g>
</g>
<!-- Node27&#45;&gt;Node30 -->
<g id="edge40" class="edge">
<title>Node27&#45;&gt;Node30</title>
<path fill="none" stroke="midnightblue" d="M1276.8,-128.87C1318.43,-117.25 1392.55,-96.58 1438.52,-83.75"/>
<polygon fill="midnightblue" stroke="midnightblue" points="1439.47,-87.12 1448.16,-81.06 1437.59,-80.38 1439.47,-87.12"/>
</g>
<!-- Node31 -->
<g id="node31" class="node">
<title>Node31</title>
<g id="a_node31"><a xlink:href="incflo__enums_8_h.html" target="_top" xlink:title=" ">
<polygon fill="white" stroke="black" points="924.36,-62 924.36,-81 1065.36,-81 1065.36,-62 924.36,-62"/>
<text text-anchor="middle" x="994.86" y="-69" font-family="Helvetica,sans-Serif" font-size="10.00">amr&#45;wind/incflo_enums.H</text>
</a>
</g>
</g>
<!-- Node27&#45;&gt;Node31 -->
<g id="edge41" class="edge">
<title>Node27&#45;&gt;Node31</title>
<path fill="none" stroke="midnightblue" d="M1212.78,-128.94C1167.83,-117.29 1087.36,-96.45 1037.78,-83.62"/>
<polygon fill="midnightblue" stroke="midnightblue" points="1038.56,-80.2 1028,-81.08 1036.8,-86.98 1038.56,-80.2"/>
</g>
<!-- Node32 -->
<g id="node32" class="node">
<title>Node32</title>
<g id="a_node32"><a xlink:href="_view_field_8_h.html" target="_top" xlink:title=" ">
<polygon fill="white" stroke="black" points="1654.86,-62 1654.86,-81 1802.86,-81 1802.86,-62 1654.86,-62"/>
<text text-anchor="middle" x="1728.86" y="-69" font-family="Helvetica,sans-Serif" font-size="10.00">amr&#45;wind/core/ViewField.H</text>
</a>
</g>
</g>
<!-- Node27&#45;&gt;Node32 -->
<g id="edge43" class="edge">
<title>Node27&#45;&gt;Node32</title>
<path fill="none" stroke="midnightblue" d="M1287.57,-128.95C1298.68,-126.83 1310.7,-124.69 1321.86,-123 1462.92,-101.61 1499.53,-106.6 1640.86,-87 1650.19,-85.71 1660.06,-84.21 1669.68,-82.67"/>
<polygon fill="midnightblue" stroke="midnightblue" points="1670.28,-86.12 1679.59,-81.07 1669.16,-79.21 1670.28,-86.12"/>
</g>
<!-- Node32&#45;&gt;Node11 -->
<g id="edge47" class="edge">
<title>Node32&#45;&gt;Node11</title>
<path fill="none" stroke="midnightblue" d="M1655.91,-61.97C1638.53,-59.98 1620.04,-57.88 1602.86,-56 1469.74,-41.41 1313.41,-25.41 1230.14,-16.97"/>
<polygon fill="midnightblue" stroke="midnightblue" points="1230.41,-13.48 1220.11,-15.96 1229.71,-20.45 1230.41,-13.48"/>
</g>
<!-- Node32&#45;&gt;Node13 -->
<g id="edge44" class="edge">
<title>Node32&#45;&gt;Node13</title>
<path fill="none" stroke="midnightblue" d="M1678.71,-61.98C1605.78,-49.58 1472.48,-26.92 1411.22,-16.5"/>
<polygon fill="midnightblue" stroke="midnightblue" points="1411.44,-12.99 1400.99,-14.76 1410.26,-19.89 1411.44,-12.99"/>
</g>
<!-- Node32&#45;&gt;Node23 -->
<g id="edge45" class="edge">
<title>Node32&#45;&gt;Node23</title>
<path fill="none" stroke="midnightblue" d="M1797.63,-61.98C1885.58,-51.07 2037.54,-32.24 2130.06,-20.77"/>
<polygon fill="midnightblue" stroke="midnightblue" points="2130.72,-24.21 2140.21,-19.51 2129.86,-17.27 2130.72,-24.21"/>
</g>
<!-- Node32&#45;&gt;Node25 -->
<g id="edge46" class="edge">
<title>Node32&#45;&gt;Node25</title>
<path fill="none" stroke="midnightblue" d="M1743.47,-61.98C1760.21,-52.21 1787.86,-36.08 1807.57,-24.58"/>
<polygon fill="midnightblue" stroke="midnightblue" points="1809.39,-27.57 1816.27,-19.51 1805.87,-21.52 1809.39,-27.57"/>
</g>
<!-- Node33&#45;&gt;Node13 -->
<g id="edge49" class="edge">
<title>Node33&#45;&gt;Node13</title>
<path fill="none" stroke="midnightblue" d="M2407.78,-128.56C2419.75,-111.97 2441.26,-76.26 2421.86,-56 2403.94,-37.29 1585.54,-16.09 1411.27,-11.79"/>
<polygon fill="midnightblue" stroke="midnightblue" points="1411.27,-8.29 1401.19,-11.54 1411.1,-15.28 1411.27,-8.29"/>
</g>
<!-- Node33&#45;&gt;Node23 -->
<g id="edge50" class="edge">
<title>Node33&#45;&gt;Node23</title>
<path fill="none" stroke="midnightblue" d="M2413.89,-128.98C2435.76,-113.67 2475.51,-80.77 2454.86,-56 2435.9,-33.26 2367.34,-21.98 2307.4,-16.4"/>
<polygon fill="midnightblue" stroke="midnightblue" points="2307.37,-12.88 2297.1,-15.49 2306.75,-19.86 2307.37,-12.88"/>
</g>
<!-- Node33&#45;&gt;Node34 -->
<g id="edge51" class="edge">
<title>Node33&#45;&gt;Node34</title>
<path fill="none" stroke="midnightblue" d="M2394.92,-128.73C2388.13,-118.7 2376.84,-102.01 2368.31,-89.42"/>
<polygon fill="midnightblue" stroke="midnightblue" points="2371.2,-87.45 2362.7,-81.13 2365.4,-91.37 2371.2,-87.45"/>
</g>
<!-- Node35&#45;&gt;Node2 -->
<g id="edge54" class="edge">
<title>Node35&#45;&gt;Node2</title>
<path fill="none" stroke="midnightblue" d="M2051.25,-128.93C2095.51,-120.11 2164.49,-105.12 2222.86,-87 2225.28,-86.25 2227.77,-85.41 2230.25,-84.53"/>
<polygon fill="midnightblue" stroke="midnightblue" points="2231.54,-87.79 2239.69,-81.01 2229.1,-81.23 2231.54,-87.79"/>
</g>
<!-- Node35&#45;&gt;Node11 -->
<g id="edge58" class="edge">
<title>Node35&#45;&gt;Node11</title>
<path fill="none" stroke="midnightblue" d="M1937.54,-128.96C1849.16,-117.74 1700.11,-98.13 1645.86,-87 1594.42,-76.44 1583.37,-66.16 1531.86,-56 1426.58,-35.23 1302.04,-22.21 1230.17,-15.8"/>
<polygon fill="midnightblue" stroke="midnightblue" points="1230.23,-12.29 1219.96,-14.9 1229.62,-19.26 1230.23,-12.29"/>
</g>
<!-- Node35&#45;&gt;Node13 -->
<g id="edge53" class="edge">
<title>Node35&#45;&gt;Node13</title>
<path fill="none" stroke="midnightblue" d="M1990.06,-128.96C1957.7,-111.9 1881.04,-73.71 1811.86,-56 1665.61,-18.56 1483.97,-12.15 1411.21,-11.14"/>
<polygon fill="midnightblue" stroke="midnightblue" points="1410.92,-7.64 1400.88,-11.02 1410.84,-14.64 1410.92,-7.64"/>
</g>
<!-- Node35&#45;&gt;Node23 -->
<g id="edge55" class="edge">
<title>Node35&#45;&gt;Node23</title>
<path fill="none" stroke="midnightblue" d="M2051.93,-128.94C2082.44,-121.59 2122.17,-108.65 2151.86,-87 2173.13,-71.48 2190.04,-45.76 2199.75,-28.59"/>
<polygon fill="midnightblue" stroke="midnightblue" points="2202.93,-30.08 2204.62,-19.62 2196.78,-26.74 2202.93,-30.08"/>
</g>
<!-- Node35&#45;&gt;Node25 -->
<g id="edge57" class="edge">
<title>Node35&#45;&gt;Node25</title>
<path fill="none" stroke="midnightblue" d="M2003.12,-128.78C1997.51,-112.23 1983.11,-76.14 1958.86,-56 1939.03,-39.54 1912.78,-28.93 1889.22,-22.18"/>
<polygon fill="midnightblue" stroke="midnightblue" points="1889.87,-18.73 1879.31,-19.52 1888.06,-25.49 1889.87,-18.73"/>
</g>
<!-- Node35&#45;&gt;Node32 -->
<g id="edge56" class="edge">
<title>Node35&#45;&gt;Node32</title>
<path fill="none" stroke="midnightblue" d="M1969.36,-128.94C1919.43,-117.22 1829.82,-96.19 1775.21,-83.38"/>
<polygon fill="midnightblue" stroke="midnightblue" points="1775.97,-79.96 1765.43,-81.08 1774.37,-86.78 1775.97,-79.96"/>
</g>
<!-- Node36 -->
<g id="node36" class="node">
<title>Node36</title>
<g id="a_node36"><a xlink:title=" ">
<polygon fill="white" stroke="#bfbfbf" points="2011.36,-62 2011.36,-81 2142.36,-81 2142.36,-62 2011.36,-62"/>
<text text-anchor="middle" x="2076.86" y="-69" font-family="Helvetica,sans-Serif" font-size="10.00">AMReX_PhysBCFunct.H</text>
</a>
</g>
</g>
<!-- Node35&#45;&gt;Node36 -->
<g id="edge59" class="edge">
<title>Node35&#45;&gt;Node36</title>
<path fill="none" stroke="midnightblue" d="M2015.43,-128.73C2026.82,-118.31 2046.04,-100.71 2059.95,-87.97"/>
<polygon fill="midnightblue" stroke="midnightblue" points="2062.42,-90.46 2067.43,-81.13 2057.69,-85.3 2062.42,-90.46"/>
</g>
<!-- Node37&#45;&gt;Node4 -->
<g id="edge65" class="edge">
<title>Node37&#45;&gt;Node4</title>
<path fill="none" stroke="midnightblue" d="M818.11,-129.98C688.77,-117.47 430.87,-92.52 301.56,-80.02"/>
<polygon fill="midnightblue" stroke="midnightblue" points="301.63,-76.51 291.34,-79.03 300.96,-83.47 301.63,-76.51"/>
</g>
<!-- Node37&#45;&gt;Node13 -->
<g id="edge64" class="edge">
<title>Node37&#45;&gt;Node13</title>
<path fill="none" stroke="midnightblue" d="M894.81,-123.2C894.31,-104.64 896.58,-72.69 915.86,-56 932.18,-41.87 1244.55,-19.93 1346.78,-13.1"/>
<polygon fill="midnightblue" stroke="midnightblue" points="1347.07,-16.59 1356.82,-12.43 1346.61,-9.6 1347.07,-16.59"/>
</g>
<!-- Node37&#45;&gt;Node23 -->
<g id="edge73" class="edge">
<title>Node37&#45;&gt;Node23</title>
<path fill="none" stroke="midnightblue" d="M973.36,-133.41C1192.54,-121.81 1801.69,-89.42 1811.86,-87 1845.35,-79.04 1849.71,-65.33 1882.86,-56 1957.64,-34.95 2044.95,-23.56 2110.39,-17.52"/>
<polygon fill="midnightblue" stroke="midnightblue" points="2111.05,-20.97 2120.69,-16.59 2110.42,-14 2111.05,-20.97"/>
</g>
<!-- Node37&#45;&gt;Node31 -->
<g id="edge74" class="edge">
<title>Node37&#45;&gt;Node31</title>
<path fill="none" stroke="midnightblue" d="M917.34,-123.4C933.94,-112.5 956.81,-97.48 973.41,-86.58"/>
<polygon fill="midnightblue" stroke="midnightblue" points="975.46,-89.42 981.9,-81.01 971.62,-83.57 975.46,-89.42"/>
</g>
<!-- Node38 -->
<g id="node38" class="node">
<title>Node38</title>
<g id="a_node38"><a xlink:href="_coll_mgr_8_h.html" target="_top" xlink:title=" ">
<polygon fill="white" stroke="black" points="518.36,-62 518.36,-81 655.36,-81 655.36,-62 518.36,-62"/>
<text text-anchor="middle" x="586.86" y="-69" font-family="Helvetica,sans-Serif" font-size="10.00">amr&#45;wind/core/CollMgr.H</text>
</a>
</g>
</g>
<!-- Node37&#45;&gt;Node38 -->
<g id="edge66" class="edge">
<title>Node37&#45;&gt;Node38</title>
<path fill="none" stroke="midnightblue" d="M829.19,-123.48C771.64,-111.37 689.74,-94.14 637.45,-83.14"/>
<polygon fill="midnightblue" stroke="midnightblue" points="637.91,-79.66 627.4,-81.03 636.47,-86.51 637.91,-79.66"/>
</g>
<!-- Node39 -->
<g id="node39" class="node">
<title>Node39</title>
<g id="a_node39"><a xlink:href="_p_d_e_fields_8_h.html" target="_top" xlink:title=" ">
<polygon fill="white" stroke="black" points="712.36,-56.5 712.36,-86.5 867.36,-86.5 867.36,-56.5 712.36,-56.5"/>
<text text-anchor="start" x="720.36" y="-74.5" font-family="Helvetica,sans-Serif" font-size="10.00">amr&#45;wind/equation_systems</text>
<text text-anchor="middle" x="789.86" y="-63.5" font-family="Helvetica,sans-Serif" font-size="10.00">/PDEFields.H</text>
</a>
</g>
</g>
<!-- Node37&#45;&gt;Node39 -->
<g id="edge71" class="edge">
<title>Node37&#45;&gt;Node39</title>
<path fill="none" stroke="midnightblue" d="M872.86,-123.4C857.85,-114.2 838.07,-102.07 821.58,-91.95"/>
<polygon fill="midnightblue" stroke="midnightblue" points="823.17,-88.82 812.81,-86.58 819.51,-94.79 823.17,-88.82"/>
</g>
<!-- Node38&#45;&gt;Node5 -->
<g id="edge68" class="edge">
<title>Node38&#45;&gt;Node5</title>
<path fill="none" stroke="midnightblue" d="M541.08,-61.94C530.5,-59.97 519.29,-57.9 508.86,-56 422.71,-40.28 398.4,-38.57 308.91,-20.13"/>
<polygon fill="midnightblue" stroke="midnightblue" points="309.37,-16.65 298.87,-18.05 307.95,-23.5 309.37,-16.65"/>
</g>
<!-- Node38&#45;&gt;Node6 -->
<g id="edge69" class="edge">
<title>Node38&#45;&gt;Node6</title>
<path fill="none" stroke="midnightblue" d="M579.98,-61.98C572.71,-52.96 561.06,-38.52 552.02,-27.31"/>
<polygon fill="midnightblue" stroke="midnightblue" points="554.72,-25.09 545.72,-19.51 549.28,-29.49 554.72,-25.09"/>
</g>
<!-- Node38&#45;&gt;Node11 -->
<g id="edge70" class="edge">
<title>Node38&#45;&gt;Node11</title>
<path fill="none" stroke="midnightblue" d="M631.55,-61.99C643.93,-59.82 657.38,-57.65 669.86,-56 828.83,-35.01 1017.49,-20.98 1111.47,-14.72"/>
<polygon fill="midnightblue" stroke="midnightblue" points="1111.89,-18.2 1121.64,-14.05 1111.43,-11.22 1111.89,-18.2"/>
</g>
<!-- Node38&#45;&gt;Node13 -->
<g id="edge67" class="edge">
<title>Node38&#45;&gt;Node13</title>
<path fill="none" stroke="midnightblue" d="M630.23,-62C642.96,-59.76 656.93,-57.53 669.86,-56 703.84,-51.97 1212.01,-21.09 1346.44,-12.96"/>
<polygon fill="midnightblue" stroke="midnightblue" points="1346.75,-16.45 1356.52,-12.35 1346.33,-9.46 1346.75,-16.45"/>
</g>
<!-- Node40 -->
<g id="node40" class="node">
<title>Node40</title>
<g id="a_node40"><a xlink:title=" ">
<polygon fill="white" stroke="#bfbfbf" points="765.86,-0.5 765.86,-19.5 813.86,-19.5 813.86,-0.5 765.86,-0.5"/>
<text text-anchor="middle" x="789.86" y="-7.5" font-family="Helvetica,sans-Serif" font-size="10.00">iosfwd</text>
</a>
</g>
</g>
<!-- Node39&#45;&gt;Node40 -->
<g id="edge72" class="edge">
<title>Node39&#45;&gt;Node40</title>
<path fill="none" stroke="midnightblue" d="M789.86,-56.4C789.86,-48.47 789.86,-38.46 789.86,-29.86"/>
<polygon fill="midnightblue" stroke="midnightblue" points="793.36,-29.66 789.86,-19.66 786.36,-29.66 793.36,-29.66"/>
</g>
<!-- Node41&#45;&gt;Node4 -->
<g id="edge76" class="edge">
<title>Node41&#45;&gt;Node4</title>
<path fill="none" stroke="midnightblue" d="M506.03,-128.94C446.89,-117.11 340.28,-95.78 276.39,-83.01"/>
<polygon fill="midnightblue" stroke="midnightblue" points="277.01,-79.56 266.51,-81.03 275.63,-86.43 277.01,-79.56"/>
</g>
<!-- Node41&#45;&gt;Node25 -->
<g id="edge78" class="edge">
<title>Node41&#45;&gt;Node25</title>
<path fill="none" stroke="midnightblue" d="M617.65,-133.22C718.38,-126.43 911.77,-111.39 1074.86,-87 1143.04,-76.8 1158.56,-65.47 1226.86,-56 1422.04,-28.94 1655.13,-17.38 1766.03,-13.13"/>
<polygon fill="midnightblue" stroke="midnightblue" points="1766.2,-16.63 1776.06,-12.76 1765.93,-9.63 1766.2,-16.63"/>
</g>
<!-- Node41&#45;&gt;Node38 -->
<g id="edge77" class="edge">
<title>Node41&#45;&gt;Node38</title>
<path fill="none" stroke="midnightblue" d="M553.98,-128.73C559.79,-118.79 569.41,-102.34 576.75,-89.79"/>
<polygon fill="midnightblue" stroke="midnightblue" points="579.79,-91.53 581.81,-81.13 573.74,-87.99 579.79,-91.53"/>
</g>
<!-- Node42 -->
<g id="node42" class="node">
<title>Node42</title>
<g id="a_node42"><a xlink:title=" ">
<polygon fill="white" stroke="#bfbfbf" points="385.36,-62 385.36,-81 500.36,-81 500.36,-62 385.36,-62"/>
<text text-anchor="middle" x="442.86" y="-69" font-family="Helvetica,sans-Serif" font-size="10.00">AMReX_Geometry.H</text>
</a>
</g>
</g>
<!-- Node41&#45;&gt;Node42 -->
<g id="edge79" class="edge">
<title>Node41&#45;&gt;Node42</title>
<path fill="none" stroke="midnightblue" d="M534.56,-128.73C516.84,-117.87 486.42,-99.22 465.51,-86.39"/>
<polygon fill="midnightblue" stroke="midnightblue" points="467.28,-83.37 456.93,-81.13 463.62,-89.34 467.28,-83.37"/>
</g>
<!-- Node43&#45;&gt;Node4 -->
<g id="edge82" class="edge">
<title>Node43&#45;&gt;Node4</title>
<path fill="none" stroke="midnightblue" d="M896.75,-202.37C757.52,-197.71 462.14,-184.48 364.86,-154 317.55,-139.18 268.91,-106.43 242.94,-87.26"/>
<polygon fill="midnightblue" stroke="midnightblue" points="244.84,-84.31 234.75,-81.1 240.64,-89.91 244.84,-84.31"/>
</g>
<!-- Node43&#45;&gt;Node25 -->
<g id="edge84" class="edge">
<title>Node43&#45;&gt;Node25</title>
<path fill="none" stroke="midnightblue" d="M1044.87,-204.97C1117.14,-202.88 1228.79,-192.76 1316.86,-154 1336.81,-145.22 1334.63,-131.11 1354.86,-123 1449.4,-85.08 1734.09,-152.8 1811.86,-87 1828.21,-73.16 1831.63,-47.59 1831.85,-29.95"/>
<polygon fill="midnightblue" stroke="midnightblue" points="1835.34,-29.64 1831.63,-19.71 1828.34,-29.79 1835.34,-29.64"/>
</g>
<!-- Node43&#45;&gt;Node27 -->
<g id="edge83" class="edge">
<title>Node43&#45;&gt;Node27</title>
<path fill="none" stroke="midnightblue" d="M1007.09,-195.94C1056.55,-184.24 1145.25,-163.28 1199.5,-150.46"/>
<polygon fill="midnightblue" stroke="midnightblue" points="1200.61,-153.79 1209.54,-148.08 1199,-146.98 1200.61,-153.79"/>
</g>
<!-- Node43&#45;&gt;Node38 -->
<g id="edge81" class="edge">
<title>Node43&#45;&gt;Node38</title>
<path fill="none" stroke="midnightblue" d="M942.04,-195.99C909.54,-186.28 855.17,-169.71 808.86,-154 740.5,-130.81 661.33,-101.04 618.44,-84.66"/>
<polygon fill="midnightblue" stroke="midnightblue" points="619.69,-81.39 609.1,-81.08 617.19,-87.93 619.69,-81.39"/>
</g>
<!-- Node43&#45;&gt;Node42 -->
<g id="edge85" class="edge">
<title>Node43&#45;&gt;Node42</title>
<path fill="none" stroke="midnightblue" d="M896.84,-201.39C765.76,-195.25 503.5,-179.88 470.86,-154 451.83,-138.92 445.68,-110.22 443.72,-91.22"/>
<polygon fill="midnightblue" stroke="midnightblue" points="447.2,-90.81 442.97,-81.09 440.22,-91.32 447.2,-90.81"/>
</g>
</g>
</svg>
