<?xml version="1.0" encoding="UTF-8" standalone="no"?>
<!DOCTYPE svg PUBLIC "-//W3C//DTD SVG 1.1//EN"
 "http://www.w3.org/Graphics/SVG/1.1/DTD/svg11.dtd">
<!-- Generated by graphviz version 2.43.0 (0)
 -->
<!-- Title: TurbModelDefs.H Pages: 1 -->
<!--zoomable 397 -->
<svg id="main" version="1.1" xmlns="http://www.w3.org/2000/svg" xmlns:xlink="http://www.w3.org/1999/xlink" xml:space="preserve" onload="init(evt)">
<style type="text/css"><![CDATA[
.edge:hover path { stroke: red; }
.edge:hover polygon { stroke: red; fill: red; }
]]></style>
<script type="text/javascript"><![CDATA[
var edges = document.getElementsByTagName('g');
if (edges && edges.length) {
  for (var i=0;i<edges.length;i++) {
    if (edges[i].id.substr(0,4)=='edge') {
      edges[i].setAttribute('class','edge');
    }
  }
}
]]></script>
        <defs>
                <circle id="rim" cx="0" cy="0" r="7"/>
                <circle id="rim2" cx="0" cy="0" r="3.5"/>
                <g id="zoomPlus">
                        <use xlink:href="#rim" fill="#404040">
                                <set attributeName="fill" to="#808080" begin="zoomplus.mouseover" end="zoomplus.mouseout"/>
                        </use>
                        <path d="M-4,0h8M0,-4v8" fill="none" stroke="white" stroke-width="1.5" pointer-events="none"/>
                </g>
                <g id="zoomMin">
                        <use xlink:href="#rim" fill="#404040">
                                <set attributeName="fill" to="#808080" begin="zoomminus.mouseover" end="zoomminus.mouseout"/>
                        </use>
                        <path d="M-4,0h8" fill="none" stroke="white" stroke-width="1.5" pointer-events="none"/>
                </g>
                <g id="dirArrow">
                        <path fill="none" stroke="white" stroke-width="1.5" d="M0,-3.0v7 M-2.5,-0.5L0,-3.0L2.5,-0.5"/>
                </g>
               <g id="resetDef">
                       <use xlink:href="#rim2" fill="#404040">
                               <set attributeName="fill" to="#808080" begin="reset.mouseover" end="reset.mouseout"/>
                       </use>
               </g>
        </defs>

<script type="text/javascript">
var viewWidth = 2306;
var viewHeight = 397;
var sectionId = 'dynsection-0';
</script>
<script xlink:href="svgpan.js"/>
<svg id="graph" class="graph">
<g id="viewport">
<title>TurbModelDefs.H</title>
<polygon fill="white" stroke="transparent" points="-4,4 -4,-393 2302.25,-393 2302.25,4 -4,4"/>
<!-- Node1 -->
<g id="node1" class="node">
<title>Node1</title>
<g id="a_node1"><a xlink:title=" ">
<polygon fill="#bfbfbf" stroke="black" points="889.75,-369.5 889.75,-388.5 989.75,-388.5 989.75,-369.5 889.75,-369.5"/>
<text text-anchor="middle" x="939.75" y="-376.5" font-family="Helvetica,sans-Serif" font-size="10.00">TurbModelDefs.H</text>
</a>
</g>
</g>
<!-- Node2 -->
<g id="node2" class="node">
<title>Node2</title>
<g id="a_node2"><a xlink:href="_turbulence_model_8_h.html" target="_top" xlink:title=" ">
<polygon fill="white" stroke="black" points="682.75,-168.5 682.75,-198.5 800.75,-198.5 800.75,-168.5 682.75,-168.5"/>
<text text-anchor="start" x="690.75" y="-186.5" font-family="Helvetica,sans-Serif" font-size="10.00">amr&#45;wind/turbulence</text>
<text text-anchor="middle" x="741.75" y="-175.5" font-family="Helvetica,sans-Serif" font-size="10.00">/TurbulenceModel.H</text>
</a>
</g>
</g>
<!-- Node1&#45;&gt;Node2 -->
<g id="edge1" class="edge">
<title>Node1&#45;&gt;Node2</title>
<path fill="none" stroke="midnightblue" d="M919.39,-369.45C902.11,-361.57 877.25,-348.75 858.75,-333 814.59,-295.4 775.65,-238.95 755.76,-207.59"/>
<polygon fill="midnightblue" stroke="midnightblue" points="758.48,-205.34 750.22,-198.71 752.54,-209.05 758.48,-205.34"/>
</g>
<!-- Node10 -->
<g id="node10" class="node">
<title>Node10</title>
<g id="a_node10"><a xlink:href="_const_transport_8_h.html" target="_top" xlink:title=" ">
<polygon fill="white" stroke="black" points="867.75,-302.5 867.75,-332.5 1011.75,-332.5 1011.75,-302.5 867.75,-302.5"/>
<text text-anchor="start" x="875.75" y="-320.5" font-family="Helvetica,sans-Serif" font-size="10.00">amr&#45;wind/transport</text>
<text text-anchor="middle" x="939.75" y="-309.5" font-family="Helvetica,sans-Serif" font-size="10.00">_models/ConstTransport.H</text>
</a>
</g>
</g>
<!-- Node1&#45;&gt;Node10 -->
<g id="edge10" class="edge">
<title>Node1&#45;&gt;Node10</title>
<path fill="none" stroke="midnightblue" d="M939.75,-369.48C939.75,-362.47 939.75,-352.19 939.75,-342.7"/>
<polygon fill="midnightblue" stroke="midnightblue" points="943.25,-342.52 939.75,-332.52 936.25,-342.52 943.25,-342.52"/>
</g>
<!-- Node31 -->
<g id="node31" class="node">
<title>Node31</title>
<g id="a_node31"><a xlink:href="_two_phase_transport_8_h.html" target="_top" xlink:title=" ">
<polygon fill="white" stroke="black" points="1029.75,-302.5 1029.75,-332.5 1193.75,-332.5 1193.75,-302.5 1029.75,-302.5"/>
<text text-anchor="start" x="1037.75" y="-320.5" font-family="Helvetica,sans-Serif" font-size="10.00">amr&#45;wind/transport</text>
<text text-anchor="middle" x="1111.75" y="-309.5" font-family="Helvetica,sans-Serif" font-size="10.00">_models/TwoPhaseTransport.H</text>
</a>
</g>
</g>
<!-- Node1&#45;&gt;Node31 -->
<g id="edge52" class="edge">
<title>Node1&#45;&gt;Node31</title>
<path fill="none" stroke="midnightblue" d="M964.4,-369.48C989.65,-360.74 1029.64,-346.91 1061.58,-335.86"/>
<polygon fill="midnightblue" stroke="midnightblue" points="1062.91,-339.1 1071.22,-332.52 1060.62,-332.48 1062.91,-339.1"/>
</g>
<!-- Node3 -->
<g id="node3" class="node">
<title>Node3</title>
<g id="a_node3"><a xlink:title=" ">
<polygon fill="white" stroke="#bfbfbf" points="1340.25,-56.5 1340.25,-75.5 1433.25,-75.5 1433.25,-56.5 1340.25,-56.5"/>
<text text-anchor="middle" x="1386.75" y="-63.5" font-family="Helvetica,sans-Serif" font-size="10.00">unordered_map</text>
</a>
</g>
</g>
<!-- Node2&#45;&gt;Node3 -->
<g id="edge2" class="edge">
<title>Node2&#45;&gt;Node3</title>
<path fill="none" stroke="midnightblue" d="M741.1,-168.31C741.2,-151.94 744.17,-125.56 760.75,-112 809.45,-72.17 1263.2,-82.6 1325.75,-76 1327.22,-75.85 1328.7,-75.68 1330.2,-75.51"/>
<polygon fill="midnightblue" stroke="midnightblue" points="1330.68,-78.98 1340.18,-74.28 1329.82,-72.03 1330.68,-78.98"/>
</g>
<!-- Node4 -->
<g id="node4" class="node">
<title>Node4</title>
<g id="a_node4"><a xlink:href="_factory_8_h.html" target="_top" xlink:title=" ">
<polygon fill="white" stroke="black" points="951.75,-112.5 951.75,-131.5 1085.75,-131.5 1085.75,-112.5 951.75,-112.5"/>
<text text-anchor="middle" x="1018.75" y="-119.5" font-family="Helvetica,sans-Serif" font-size="10.00">amr&#45;wind/core/Factory.H</text>
</a>
</g>
</g>
<!-- Node2&#45;&gt;Node4 -->
<g id="edge3" class="edge">
<title>Node2&#45;&gt;Node4</title>
<path fill="none" stroke="midnightblue" d="M800.84,-169.81C850.87,-159.06 921.79,-143.83 968.98,-133.69"/>
<polygon fill="midnightblue" stroke="midnightblue" points="969.92,-137.07 978.96,-131.55 968.45,-130.23 969.92,-137.07"/>
</g>
<!-- Node9 -->
<g id="node9" class="node">
<title>Node9</title>
<g id="a_node9"><a xlink:href="_field_desc_types_8_h.html" target="_top" xlink:title=" ">
<polygon fill="white" stroke="black" points="148.75,-0.5 148.75,-19.5 324.75,-19.5 324.75,-0.5 148.75,-0.5"/>
<text text-anchor="middle" x="236.75" y="-7.5" font-family="Helvetica,sans-Serif" font-size="10.00">amr&#45;wind/core/FieldDescTypes.H</text>
</a>
</g>
</g>
<!-- Node2&#45;&gt;Node9 -->
<g id="edge9" class="edge">
<title>Node2&#45;&gt;Node9</title>
<path fill="none" stroke="midnightblue" d="M682.55,-182.89C517.58,-183.37 61.78,-180.27 16.75,-132 -6.29,-107.3 -4.6,-82.17 16.75,-56 32.53,-36.67 87.5,-25.43 138.55,-19.01"/>
<polygon fill="midnightblue" stroke="midnightblue" points="139.18,-22.46 148.69,-17.79 138.35,-15.51 139.18,-22.46"/>
</g>
<!-- Node4&#45;&gt;Node3 -->
<g id="edge5" class="edge">
<title>Node4&#45;&gt;Node3</title>
<path fill="none" stroke="midnightblue" d="M1077.04,-112.47C1138.79,-103.44 1239.15,-88.74 1325.75,-76 1327.21,-75.79 1328.69,-75.57 1330.18,-75.35"/>
<polygon fill="midnightblue" stroke="midnightblue" points="1330.74,-78.8 1340.13,-73.88 1329.72,-71.88 1330.74,-78.8"/>
</g>
<!-- Node5 -->
<g id="node5" class="node">
<title>Node5</title>
<g id="a_node5"><a xlink:title=" ">
<polygon fill="white" stroke="#bfbfbf" points="1451.75,-56.5 1451.75,-75.5 1509.75,-75.5 1509.75,-56.5 1451.75,-56.5"/>
<text text-anchor="middle" x="1480.75" y="-63.5" font-family="Helvetica,sans-Serif" font-size="10.00">memory</text>
</a>
</g>
</g>
<!-- Node4&#45;&gt;Node5 -->
<g id="edge4" class="edge">
<title>Node4&#45;&gt;Node5</title>
<path fill="none" stroke="midnightblue" d="M1085.94,-116.51C1167.72,-110.46 1310.15,-98.02 1441.16,-76.08"/>
<polygon fill="midnightblue" stroke="midnightblue" points="1442.1,-79.47 1451.37,-74.35 1440.93,-72.57 1442.1,-79.47"/>
</g>
<!-- Node6 -->
<g id="node6" class="node">
<title>Node6</title>
<g id="a_node6"><a xlink:title=" ">
<polygon fill="white" stroke="#bfbfbf" points="911.75,-56.5 911.75,-75.5 971.75,-75.5 971.75,-56.5 911.75,-56.5"/>
<text text-anchor="middle" x="941.75" y="-63.5" font-family="Helvetica,sans-Serif" font-size="10.00">iostream</text>
</a>
</g>
</g>
<!-- Node4&#45;&gt;Node6 -->
<g id="edge6" class="edge">
<title>Node4&#45;&gt;Node6</title>
<path fill="none" stroke="midnightblue" d="M1006.38,-112.32C994.6,-104.06 976.62,-91.45 962.62,-81.63"/>
<polygon fill="midnightblue" stroke="midnightblue" points="964.29,-78.53 954.09,-75.65 960.27,-84.26 964.29,-78.53"/>
</g>
<!-- Node7 -->
<g id="node7" class="node">
<title>Node7</title>
<g id="a_node7"><a xlink:title=" ">
<polygon fill="white" stroke="#bfbfbf" points="989.75,-56.5 989.75,-75.5 1079.75,-75.5 1079.75,-56.5 989.75,-56.5"/>
<text text-anchor="middle" x="1034.75" y="-63.5" font-family="Helvetica,sans-Serif" font-size="10.00">AMReX_Print.H</text>
</a>
</g>
</g>
<!-- Node4&#45;&gt;Node7 -->
<g id="edge7" class="edge">
<title>Node4&#45;&gt;Node7</title>
<path fill="none" stroke="midnightblue" d="M1021.4,-112.08C1023.54,-104.85 1026.63,-94.41 1029.3,-85.4"/>
<polygon fill="midnightblue" stroke="midnightblue" points="1032.68,-86.33 1032.16,-75.75 1025.96,-84.34 1032.68,-86.33"/>
</g>
<!-- Node8 -->
<g id="node8" class="node">
<title>Node8</title>
<g id="a_node8"><a xlink:title=" ">
<polygon fill="white" stroke="#bfbfbf" points="831.75,-56.5 831.75,-75.5 893.75,-75.5 893.75,-56.5 831.75,-56.5"/>
<text text-anchor="middle" x="862.75" y="-63.5" font-family="Helvetica,sans-Serif" font-size="10.00">AMReX.H</text>
</a>
</g>
</g>
<!-- Node4&#45;&gt;Node8 -->
<g id="edge8" class="edge">
<title>Node4&#45;&gt;Node8</title>
<path fill="none" stroke="midnightblue" d="M994.04,-112.44C967.91,-103.4 926.49,-89.06 897.18,-78.92"/>
<polygon fill="midnightblue" stroke="midnightblue" points="897.95,-75.48 887.36,-75.52 895.66,-82.1 897.95,-75.48"/>
</g>
<!-- Node11 -->
<g id="node11" class="node">
<title>Node11</title>
<g id="a_node11"><a xlink:href="_transport_model_8_h.html" target="_top" xlink:title=" ">
<polygon fill="white" stroke="black" points="877.75,-235.5 877.75,-265.5 1023.75,-265.5 1023.75,-235.5 877.75,-235.5"/>
<text text-anchor="start" x="885.75" y="-253.5" font-family="Helvetica,sans-Serif" font-size="10.00">amr&#45;wind/transport</text>
<text text-anchor="middle" x="950.75" y="-242.5" font-family="Helvetica,sans-Serif" font-size="10.00">_models/TransportModel.H</text>
</a>
</g>
</g>
<!-- Node10&#45;&gt;Node11 -->
<g id="edge11" class="edge">
<title>Node10&#45;&gt;Node11</title>
<path fill="none" stroke="midnightblue" d="M942.14,-302.4C943.47,-294.56 945.15,-284.6 946.68,-275.57"/>
<polygon fill="midnightblue" stroke="midnightblue" points="950.15,-276.02 948.37,-265.58 943.25,-274.85 950.15,-276.02"/>
</g>
<!-- Node30 -->
<g id="node30" class="node">
<title>Node30</title>
<g id="a_node30"><a xlink:title=" ">
<polygon fill="white" stroke="#bfbfbf" points="1047.25,-241 1047.25,-260 1166.25,-260 1166.25,-241 1047.25,-241"/>
<text text-anchor="middle" x="1106.75" y="-248" font-family="Helvetica,sans-Serif" font-size="10.00">AMReX_ParmParse.H</text>
</a>
</g>
</g>
<!-- Node10&#45;&gt;Node30 -->
<g id="edge51" class="edge">
<title>Node10&#45;&gt;Node30</title>
<path fill="none" stroke="midnightblue" d="M975.99,-302.4C1005.68,-290.84 1047.26,-274.66 1075.5,-263.66"/>
<polygon fill="midnightblue" stroke="midnightblue" points="1076.85,-266.9 1084.9,-260.01 1074.31,-260.37 1076.85,-266.9"/>
</g>
<!-- Node11&#45;&gt;Node4 -->
<g id="edge12" class="edge">
<title>Node11&#45;&gt;Node4</title>
<path fill="none" stroke="midnightblue" d="M958.29,-235.48C970.75,-212.31 995.6,-166.07 1009.24,-140.69"/>
<polygon fill="midnightblue" stroke="midnightblue" points="1012.38,-142.25 1014.03,-131.79 1006.21,-138.94 1012.38,-142.25"/>
</g>
<!-- Node12 -->
<g id="node12" class="node">
<title>Node12</title>
<g id="a_node12"><a xlink:href="_field_repo_8_h.html" target="_top" xlink:title=" ">
<polygon fill="white" stroke="black" points="819.25,-174 819.25,-193 968.25,-193 968.25,-174 819.25,-174"/>
<text text-anchor="middle" x="893.75" y="-181" font-family="Helvetica,sans-Serif" font-size="10.00">amr&#45;wind/core/FieldRepo.H</text>
</a>
</g>
</g>
<!-- Node11&#45;&gt;Node12 -->
<g id="edge13" class="edge">
<title>Node11&#45;&gt;Node12</title>
<path fill="none" stroke="midnightblue" d="M938.39,-235.4C929.5,-225.26 917.49,-211.57 908.17,-200.94"/>
<polygon fill="midnightblue" stroke="midnightblue" points="910.6,-198.41 901.38,-193.19 905.34,-203.02 910.6,-198.41"/>
</g>
<!-- Node12&#45;&gt;Node3 -->
<g id="edge15" class="edge">
<title>Node12&#45;&gt;Node3</title>
<path fill="none" stroke="midnightblue" d="M930.41,-173.91C1018.66,-153.24 1242.87,-100.71 1340.34,-77.87"/>
<polygon fill="midnightblue" stroke="midnightblue" points="1341.26,-81.25 1350.2,-75.56 1339.66,-74.44 1341.26,-81.25"/>
</g>
<!-- Node12&#45;&gt;Node9 -->
<g id="edge16" class="edge">
<title>Node12&#45;&gt;Node9</title>
<path fill="none" stroke="midnightblue" d="M849.86,-173.93C836.98,-171.68 822.84,-169.48 809.75,-168 663.36,-151.44 289.07,-173.67 147.75,-132 99.64,-117.81 74.93,-119.39 49.75,-76 26.03,-35.13 81.74,-19.41 138.39,-13.61"/>
<polygon fill="midnightblue" stroke="midnightblue" points="138.95,-17.08 148.59,-12.67 138.31,-10.11 138.95,-17.08"/>
</g>
<!-- Node13 -->
<g id="node13" class="node">
<title>Node13</title>
<g id="a_node13"><a xlink:title=" ">
<polygon fill="white" stroke="#bfbfbf" points="933.75,-0.5 933.75,-19.5 977.75,-19.5 977.75,-0.5 933.75,-0.5"/>
<text text-anchor="middle" x="955.75" y="-7.5" font-family="Helvetica,sans-Serif" font-size="10.00">string</text>
</a>
</g>
</g>
<!-- Node12&#45;&gt;Node13 -->
<g id="edge14" class="edge">
<title>Node12&#45;&gt;Node13</title>
<path fill="none" stroke="midnightblue" d="M895.6,-173.88C898.14,-159.72 901.09,-131.2 888.75,-112 870.69,-83.89 839.81,-104.73 822.75,-76 818.22,-68.36 817.57,-63.22 822.75,-56 845.54,-24.24 891.97,-14.61 923.48,-11.85"/>
<polygon fill="midnightblue" stroke="midnightblue" points="923.8,-15.34 933.54,-11.15 923.32,-8.35 923.8,-15.34"/>
</g>
<!-- Node14 -->
<g id="node14" class="node">
<title>Node14</title>
<g id="a_node14"><a xlink:href="_field_utils_8_h.html" target="_top" xlink:title=" ">
<polygon fill="white" stroke="black" points="340.75,-56.5 340.75,-75.5 486.75,-75.5 486.75,-56.5 340.75,-56.5"/>
<text text-anchor="middle" x="413.75" y="-63.5" font-family="Helvetica,sans-Serif" font-size="10.00">amr&#45;wind/core/FieldUtils.H</text>
</a>
</g>
</g>
<!-- Node12&#45;&gt;Node14 -->
<g id="edge17" class="edge">
<title>Node12&#45;&gt;Node14</title>
<path fill="none" stroke="midnightblue" d="M846.27,-174C834.36,-171.95 821.6,-169.83 809.75,-168 692.28,-149.89 658.38,-166.88 544.75,-132 504.51,-119.65 461.44,-96.03 436.09,-80.92"/>
<polygon fill="midnightblue" stroke="midnightblue" points="437.65,-77.77 427.28,-75.58 434.02,-83.76 437.65,-77.77"/>
</g>
<!-- Node15 -->
<g id="node15" class="node">
<title>Node15</title>
<g id="a_node15"><a xlink:title=" ">
<polygon fill="white" stroke="#bfbfbf" points="1650.25,-0.5 1650.25,-19.5 1759.25,-19.5 1759.25,-0.5 1650.25,-0.5"/>
<text text-anchor="middle" x="1704.75" y="-7.5" font-family="Helvetica,sans-Serif" font-size="10.00">AMReX_MultiFab.H</text>
</a>
</g>
</g>
<!-- Node12&#45;&gt;Node15 -->
<g id="edge49" class="edge">
<title>Node12&#45;&gt;Node15</title>
<path fill="none" stroke="midnightblue" d="M968.47,-181.57C1216.68,-177.7 2002.17,-158.94 2075.75,-76 2117.51,-28.93 1886.84,-15.9 1769.73,-12.33"/>
<polygon fill="midnightblue" stroke="midnightblue" points="1769.54,-8.82 1759.44,-12.03 1769.34,-15.82 1769.54,-8.82"/>
</g>
<!-- Node17 -->
<g id="node17" class="node">
<title>Node17</title>
<g id="a_node17"><a xlink:href="_field_8_h.html" target="_top" xlink:title=" ">
<polygon fill="white" stroke="black" points="1475.75,-112.5 1475.75,-131.5 1599.75,-131.5 1599.75,-112.5 1475.75,-112.5"/>
<text text-anchor="middle" x="1537.75" y="-119.5" font-family="Helvetica,sans-Serif" font-size="10.00">amr&#45;wind/core/Field.H</text>
</a>
</g>
</g>
<!-- Node12&#45;&gt;Node17 -->
<g id="edge21" class="edge">
<title>Node12&#45;&gt;Node17</title>
<path fill="none" stroke="midnightblue" d="M968.47,-176.83C1075.96,-168.47 1280.71,-151.79 1465.27,-132.12"/>
<polygon fill="midnightblue" stroke="midnightblue" points="1465.86,-135.58 1475.43,-131.04 1465.12,-128.62 1465.86,-135.58"/>
</g>
<!-- Node24 -->
<g id="node24" class="node">
<title>Node24</title>
<g id="a_node24"><a xlink:href="_int_field_8_h.html" target="_top" xlink:title=" ">
<polygon fill="white" stroke="black" points="190.25,-112.5 190.25,-131.5 327.25,-131.5 327.25,-112.5 190.25,-112.5"/>
<text text-anchor="middle" x="258.75" y="-119.5" font-family="Helvetica,sans-Serif" font-size="10.00">amr&#45;wind/core/IntField.H</text>
</a>
</g>
</g>
<!-- Node12&#45;&gt;Node24 -->
<g id="edge36" class="edge">
<title>Node12&#45;&gt;Node24</title>
<path fill="none" stroke="midnightblue" d="M848.53,-173.93C836,-171.76 822.38,-169.6 809.75,-168 642.34,-146.76 444.97,-133.47 337.77,-127.23"/>
<polygon fill="midnightblue" stroke="midnightblue" points="337.86,-123.73 327.68,-126.64 337.46,-130.71 337.86,-123.73"/>
</g>
<!-- Node25 -->
<g id="node25" class="node">
<title>Node25</title>
<g id="a_node25"><a xlink:title=" ">
<polygon fill="white" stroke="#bfbfbf" points="58.75,-56.5 58.75,-75.5 170.75,-75.5 170.75,-56.5 58.75,-56.5"/>
<text text-anchor="middle" x="114.75" y="-63.5" font-family="Helvetica,sans-Serif" font-size="10.00">AMReX_iMultiFab.H</text>
</a>
</g>
</g>
<!-- Node12&#45;&gt;Node25 -->
<g id="edge50" class="edge">
<title>Node12&#45;&gt;Node25</title>
<path fill="none" stroke="midnightblue" d="M849.86,-173.95C836.98,-171.71 822.84,-169.5 809.75,-168 670.88,-152.09 309.74,-188.2 181.75,-132 158.43,-121.76 138.5,-99.6 126.58,-84.01"/>
<polygon fill="midnightblue" stroke="midnightblue" points="129.25,-81.73 120.52,-75.73 123.6,-85.87 129.25,-81.73"/>
</g>
<!-- Node26 -->
<g id="node26" class="node">
<title>Node26</title>
<g id="a_node26"><a xlink:href="_scratch_field_8_h.html" target="_top" xlink:title=" ">
<polygon fill="white" stroke="black" points="553.75,-112.5 553.75,-131.5 713.75,-131.5 713.75,-112.5 553.75,-112.5"/>
<text text-anchor="middle" x="633.75" y="-119.5" font-family="Helvetica,sans-Serif" font-size="10.00">amr&#45;wind/core/ScratchField.H</text>
</a>
</g>
</g>
<!-- Node12&#45;&gt;Node26 -->
<g id="edge40" class="edge">
<title>Node12&#45;&gt;Node26</title>
<path fill="none" stroke="midnightblue" d="M856.5,-173.98C810.26,-163.39 731.36,-145.34 680.93,-133.8"/>
<polygon fill="midnightblue" stroke="midnightblue" points="681.47,-130.33 670.94,-131.51 679.9,-137.15 681.47,-130.33"/>
</g>
<!-- Node29 -->
<g id="node29" class="node">
<title>Node29</title>
<g id="a_node29"><a xlink:title=" ">
<polygon fill="white" stroke="#bfbfbf" points="769.75,-112.5 769.75,-131.5 879.75,-131.5 879.75,-112.5 769.75,-112.5"/>
<text text-anchor="middle" x="824.75" y="-119.5" font-family="Helvetica,sans-Serif" font-size="10.00">AMReX_AmrCore.H</text>
</a>
</g>
</g>
<!-- Node12&#45;&gt;Node29 -->
<g id="edge48" class="edge">
<title>Node12&#45;&gt;Node29</title>
<path fill="none" stroke="midnightblue" d="M883.87,-173.98C873.11,-164.7 855.68,-149.67 842.53,-138.33"/>
<polygon fill="midnightblue" stroke="midnightblue" points="844.48,-135.39 834.62,-131.51 839.91,-140.69 844.48,-135.39"/>
</g>
<!-- Node14&#45;&gt;Node9 -->
<g id="edge18" class="edge">
<title>Node14&#45;&gt;Node9</title>
<path fill="none" stroke="midnightblue" d="M385.71,-56.44C355.67,-47.28 307.84,-32.69 274.51,-22.52"/>
<polygon fill="midnightblue" stroke="midnightblue" points="275.26,-19.09 264.67,-19.52 273.21,-25.78 275.26,-19.09"/>
</g>
<!-- Node14&#45;&gt;Node15 -->
<g id="edge19" class="edge">
<title>Node14&#45;&gt;Node15</title>
<path fill="none" stroke="midnightblue" d="M487.05,-56.77C490.33,-56.49 493.57,-56.23 496.75,-56 722,-39.61 1422.34,-18.97 1639.72,-12.81"/>
<polygon fill="midnightblue" stroke="midnightblue" points="1640.11,-16.3 1650.01,-12.52 1639.91,-9.31 1640.11,-16.3"/>
</g>
<!-- Node16 -->
<g id="node16" class="node">
<title>Node16</title>
<g id="a_node16"><a xlink:title=" ">
<polygon fill="white" stroke="#bfbfbf" points="351.75,-0.5 351.75,-19.5 475.75,-19.5 475.75,-0.5 351.75,-0.5"/>
<text text-anchor="middle" x="413.75" y="-7.5" font-family="Helvetica,sans-Serif" font-size="10.00">AMReX_Interpolater.H</text>
</a>
</g>
</g>
<!-- Node14&#45;&gt;Node16 -->
<g id="edge20" class="edge">
<title>Node14&#45;&gt;Node16</title>
<path fill="none" stroke="midnightblue" d="M413.75,-56.08C413.75,-49.01 413.75,-38.86 413.75,-29.99"/>
<polygon fill="midnightblue" stroke="midnightblue" points="417.25,-29.75 413.75,-19.75 410.25,-29.75 417.25,-29.75"/>
</g>
<!-- Node17&#45;&gt;Node3 -->
<g id="edge24" class="edge">
<title>Node17&#45;&gt;Node3</title>
<path fill="none" stroke="midnightblue" d="M1513.83,-112.44C1488.54,-103.4 1448.45,-89.06 1420.07,-78.92"/>
<polygon fill="midnightblue" stroke="midnightblue" points="1421.16,-75.59 1410.57,-75.52 1418.81,-82.18 1421.16,-75.59"/>
</g>
<!-- Node17&#45;&gt;Node5 -->
<g id="edge23" class="edge">
<title>Node17&#45;&gt;Node5</title>
<path fill="none" stroke="midnightblue" d="M1528.6,-112.32C1520.25,-104.42 1507.72,-92.55 1497.58,-82.94"/>
<polygon fill="midnightblue" stroke="midnightblue" points="1499.75,-80.17 1490.08,-75.83 1494.93,-85.25 1499.75,-80.17"/>
</g>
<!-- Node17&#45;&gt;Node9 -->
<g id="edge30" class="edge">
<title>Node17&#45;&gt;Node9</title>
<path fill="none" stroke="midnightblue" d="M1475.45,-112.76C1472.51,-112.48 1469.6,-112.23 1466.75,-112 1340.97,-102.06 451.69,-115.2 331.75,-76 323.43,-73.28 281.95,-43.8 256.63,-25.49"/>
<polygon fill="midnightblue" stroke="midnightblue" points="258.58,-22.58 248.43,-19.54 254.47,-28.24 258.58,-22.58"/>
</g>
<!-- Node17&#45;&gt;Node13 -->
<g id="edge22" class="edge">
<title>Node17&#45;&gt;Node13</title>
<path fill="none" stroke="midnightblue" d="M1538.07,-112.17C1538.06,-97.86 1535.72,-69.8 1518.75,-56 1498.03,-39.14 1104.53,-18.37 988,-12.57"/>
<polygon fill="midnightblue" stroke="midnightblue" points="988.08,-9.07 977.92,-12.07 987.73,-16.06 988.08,-9.07"/>
</g>
<!-- Node17&#45;&gt;Node15 -->
<g id="edge26" class="edge">
<title>Node17&#45;&gt;Node15</title>
<path fill="none" stroke="midnightblue" d="M1599.81,-120.25C1731.45,-118.02 2029.2,-109.3 2059.75,-76 2100.22,-31.9 1882.6,-17.42 1769.55,-12.91"/>
<polygon fill="midnightblue" stroke="midnightblue" points="1769.41,-9.41 1759.28,-12.52 1769.14,-16.4 1769.41,-9.41"/>
</g>
<!-- Node18 -->
<g id="node18" class="node">
<title>Node18</title>
<g id="a_node18"><a xlink:title=" ">
<polygon fill="white" stroke="#bfbfbf" points="1868.75,-56.5 1868.75,-75.5 1932.75,-75.5 1932.75,-56.5 1868.75,-56.5"/>
<text text-anchor="middle" x="1900.75" y="-63.5" font-family="Helvetica,sans-Serif" font-size="10.00">algorithm</text>
</a>
</g>
</g>
<!-- Node17&#45;&gt;Node18 -->
<g id="edge25" class="edge">
<title>Node17&#45;&gt;Node18</title>
<path fill="none" stroke="midnightblue" d="M1600.01,-113.75C1662.88,-106.1 1762.97,-93.02 1858.72,-76.07"/>
<polygon fill="midnightblue" stroke="midnightblue" points="1859.34,-79.52 1868.57,-74.31 1858.11,-72.62 1859.34,-79.52"/>
</g>
<!-- Node19 -->
<g id="node19" class="node">
<title>Node19</title>
<g id="a_node19"><a xlink:title=" ">
<polygon fill="white" stroke="#bfbfbf" points="1951.25,-56.5 1951.25,-75.5 2050.25,-75.5 2050.25,-56.5 1951.25,-56.5"/>
<text text-anchor="middle" x="2000.75" y="-63.5" font-family="Helvetica,sans-Serif" font-size="10.00">AMReX_BCRec.H</text>
</a>
</g>
</g>
<!-- Node17&#45;&gt;Node19 -->
<g id="edge27" class="edge">
<title>Node17&#45;&gt;Node19</title>
<path fill="none" stroke="midnightblue" d="M1599.79,-114.88C1677.16,-107.06 1813.73,-92.7 1941.25,-76.02"/>
<polygon fill="midnightblue" stroke="midnightblue" points="1941.74,-79.48 1951.2,-74.71 1940.83,-72.54 1941.74,-79.48"/>
</g>
<!-- Node20 -->
<g id="node20" class="node">
<title>Node20</title>
<g id="a_node20"><a xlink:title=" ">
<polygon fill="white" stroke="#bfbfbf" points="1604.25,-56.5 1604.25,-75.5 1691.25,-75.5 1691.25,-56.5 1604.25,-56.5"/>
<text text-anchor="middle" x="1647.75" y="-63.5" font-family="Helvetica,sans-Serif" font-size="10.00">AMReX_Gpu.H</text>
</a>
</g>
</g>
<!-- Node17&#45;&gt;Node20 -->
<g id="edge28" class="edge">
<title>Node17&#45;&gt;Node20</title>
<path fill="none" stroke="midnightblue" d="M1555.43,-112.32C1573.15,-103.62 1600.66,-90.12 1621.04,-80.11"/>
<polygon fill="midnightblue" stroke="midnightblue" points="1622.69,-83.2 1630.12,-75.65 1619.61,-76.92 1622.69,-83.2"/>
</g>
<!-- Node21 -->
<g id="node21" class="node">
<title>Node21</title>
<g id="a_node21"><a xlink:href="incflo__enums_8_h.html" target="_top" xlink:title=" ">
<polygon fill="white" stroke="black" points="1709.25,-56.5 1709.25,-75.5 1850.25,-75.5 1850.25,-56.5 1709.25,-56.5"/>
<text text-anchor="middle" x="1779.75" y="-63.5" font-family="Helvetica,sans-Serif" font-size="10.00">amr&#45;wind/incflo_enums.H</text>
</a>
</g>
</g>
<!-- Node17&#45;&gt;Node21 -->
<g id="edge29" class="edge">
<title>Node17&#45;&gt;Node21</title>
<path fill="none" stroke="midnightblue" d="M1576.1,-112.44C1618.23,-103.04 1685.96,-87.93 1731.63,-77.74"/>
<polygon fill="midnightblue" stroke="midnightblue" points="1732.59,-81.11 1741.59,-75.52 1731.07,-74.28 1732.59,-81.11"/>
</g>
<!-- Node22 -->
<g id="node22" class="node">
<title>Node22</title>
<g id="a_node22"><a xlink:href="_view_field_8_h.html" target="_top" xlink:title=" ">
<polygon fill="white" stroke="black" points="1135.75,-56.5 1135.75,-75.5 1283.75,-75.5 1283.75,-56.5 1135.75,-56.5"/>
<text text-anchor="middle" x="1209.75" y="-63.5" font-family="Helvetica,sans-Serif" font-size="10.00">amr&#45;wind/core/ViewField.H</text>
</a>
</g>
</g>
<!-- Node17&#45;&gt;Node22 -->
<g id="edge31" class="edge">
<title>Node17&#45;&gt;Node22</title>
<path fill="none" stroke="midnightblue" d="M1485.78,-112.44C1427.6,-102.87 1333.4,-87.36 1271.51,-77.17"/>
<polygon fill="midnightblue" stroke="midnightblue" points="1271.92,-73.69 1261.48,-75.52 1270.78,-80.59 1271.92,-73.69"/>
</g>
<!-- Node22&#45;&gt;Node9 -->
<g id="edge33" class="edge">
<title>Node22&#45;&gt;Node9</title>
<path fill="none" stroke="midnightblue" d="M1135.55,-59.17C1120.09,-58.05 1103.89,-56.93 1088.75,-56 757.43,-35.69 673.96,-42.04 342.75,-20 340.21,-19.83 337.64,-19.65 335.04,-19.47"/>
<polygon fill="midnightblue" stroke="midnightblue" points="335.17,-15.97 324.94,-18.73 334.66,-22.95 335.17,-15.97"/>
</g>
<!-- Node22&#45;&gt;Node13 -->
<g id="edge32" class="edge">
<title>Node22&#45;&gt;Node13</title>
<path fill="none" stroke="midnightblue" d="M1169.51,-56.44C1119.28,-45.77 1034.39,-27.72 988.14,-17.89"/>
<polygon fill="midnightblue" stroke="midnightblue" points="988.58,-14.4 978.07,-15.75 987.13,-21.25 988.58,-14.4"/>
</g>
<!-- Node22&#45;&gt;Node15 -->
<g id="edge34" class="edge">
<title>Node22&#45;&gt;Node15</title>
<path fill="none" stroke="midnightblue" d="M1283.86,-56.92C1380.57,-46.37 1548.24,-28.07 1640.06,-18.06"/>
<polygon fill="midnightblue" stroke="midnightblue" points="1640.5,-21.53 1650.06,-16.97 1639.74,-14.57 1640.5,-21.53"/>
</g>
<!-- Node23 -->
<g id="node23" class="node">
<title>Node23</title>
<g id="a_node23"><a xlink:title=" ">
<polygon fill="white" stroke="#bfbfbf" points="1160.75,-0.5 1160.75,-19.5 1258.75,-19.5 1258.75,-0.5 1160.75,-0.5"/>
<text text-anchor="middle" x="1209.75" y="-7.5" font-family="Helvetica,sans-Serif" font-size="10.00">AMReX_Vector.H</text>
</a>
</g>
</g>
<!-- Node22&#45;&gt;Node23 -->
<g id="edge35" class="edge">
<title>Node22&#45;&gt;Node23</title>
<path fill="none" stroke="midnightblue" d="M1209.75,-56.08C1209.75,-49.01 1209.75,-38.86 1209.75,-29.99"/>
<polygon fill="midnightblue" stroke="midnightblue" points="1213.25,-29.75 1209.75,-19.75 1206.25,-29.75 1213.25,-29.75"/>
</g>
<!-- Node24&#45;&gt;Node9 -->
<g id="edge38" class="edge">
<title>Node24&#45;&gt;Node9</title>
<path fill="none" stroke="midnightblue" d="M248.59,-112.19C239.85,-103.87 227.85,-90.54 222.75,-76 217.33,-60.53 222.23,-42.22 227.67,-28.98"/>
<polygon fill="midnightblue" stroke="midnightblue" points="230.99,-30.15 231.97,-19.6 224.62,-27.24 230.99,-30.15"/>
</g>
<!-- Node24&#45;&gt;Node13 -->
<g id="edge37" class="edge">
<title>Node24&#45;&gt;Node13</title>
<path fill="none" stroke="midnightblue" d="M265.25,-112.31C276.77,-97.65 302.37,-68.42 331.75,-56 440.07,-10.24 811.52,-9.69 923.53,-10.62"/>
<polygon fill="midnightblue" stroke="midnightblue" points="923.51,-14.12 933.54,-10.71 923.58,-7.12 923.51,-14.12"/>
</g>
<!-- Node24&#45;&gt;Node25 -->
<g id="edge39" class="edge">
<title>Node24&#45;&gt;Node25</title>
<path fill="none" stroke="midnightblue" d="M235.94,-112.44C211.92,-103.44 173.93,-89.19 146.88,-79.05"/>
<polygon fill="midnightblue" stroke="midnightblue" points="148.06,-75.75 137.46,-75.52 145.6,-82.3 148.06,-75.75"/>
</g>
<!-- Node26&#45;&gt;Node9 -->
<g id="edge43" class="edge">
<title>Node26&#45;&gt;Node9</title>
<path fill="none" stroke="midnightblue" d="M553.59,-116.34C468.97,-110.36 341.95,-98.01 298.75,-76 277.12,-64.98 258.87,-43.32 247.89,-28.04"/>
<polygon fill="midnightblue" stroke="midnightblue" points="250.57,-25.77 242.02,-19.5 244.8,-29.73 250.57,-25.77"/>
</g>
<!-- Node26&#45;&gt;Node13 -->
<g id="edge41" class="edge">
<title>Node26&#45;&gt;Node13</title>
<path fill="none" stroke="midnightblue" d="M648.25,-112.33C674.87,-96.52 730.74,-63.92 751.75,-56 810.45,-33.89 882.94,-21.11 923.8,-15.15"/>
<polygon fill="midnightblue" stroke="midnightblue" points="924.31,-18.62 933.73,-13.75 923.33,-11.69 924.31,-18.62"/>
</g>
<!-- Node26&#45;&gt;Node15 -->
<g id="edge45" class="edge">
<title>Node26&#45;&gt;Node15</title>
<path fill="none" stroke="midnightblue" d="M713.81,-114.23C723.56,-113.46 733.38,-112.69 742.75,-112 987.05,-93.92 1056.64,-141.25 1292.75,-76 1311.53,-70.81 1313.13,-61.7 1331.75,-56 1436.45,-23.96 1564.21,-14.59 1639.78,-11.94"/>
<polygon fill="midnightblue" stroke="midnightblue" points="1640.21,-15.42 1650.09,-11.6 1639.98,-8.43 1640.21,-15.42"/>
</g>
<!-- Node26&#45;&gt;Node22 -->
<g id="edge44" class="edge">
<title>Node26&#45;&gt;Node22</title>
<path fill="none" stroke="midnightblue" d="M714.01,-113.3C718.66,-112.86 723.27,-112.42 727.75,-112 867.15,-98.82 1029.26,-83.74 1125.47,-74.81"/>
<polygon fill="midnightblue" stroke="midnightblue" points="1125.8,-78.29 1135.43,-73.88 1125.15,-71.32 1125.8,-78.29"/>
</g>
<!-- Node26&#45;&gt;Node23 -->
<g id="edge46" class="edge">
<title>Node26&#45;&gt;Node23</title>
<path fill="none" stroke="midnightblue" d="M654.03,-112.4C688.18,-98.29 759.65,-70.34 822.75,-56 936.93,-30.05 1073.65,-18.62 1150.22,-13.94"/>
<polygon fill="midnightblue" stroke="midnightblue" points="1150.84,-17.41 1160.61,-13.32 1150.42,-10.42 1150.84,-17.41"/>
</g>
<!-- Node27 -->
<g id="node27" class="node">
<title>Node27</title>
<g id="a_node27"><a xlink:title=" ">
<polygon fill="white" stroke="#bfbfbf" points="505.25,-56.5 505.25,-75.5 550.25,-75.5 550.25,-56.5 505.25,-56.5"/>
<text text-anchor="middle" x="527.75" y="-63.5" font-family="Helvetica,sans-Serif" font-size="10.00">utility</text>
</a>
</g>
</g>
<!-- Node26&#45;&gt;Node27 -->
<g id="edge42" class="edge">
<title>Node26&#45;&gt;Node27</title>
<path fill="none" stroke="midnightblue" d="M616.72,-112.32C599.72,-103.66 573.38,-90.24 553.76,-80.25"/>
<polygon fill="midnightblue" stroke="midnightblue" points="555.24,-77.08 544.74,-75.65 552.06,-83.31 555.24,-77.08"/>
</g>
<!-- Node28 -->
<g id="node28" class="node">
<title>Node28</title>
<g id="a_node28"><a xlink:title=" ">
<polygon fill="white" stroke="#bfbfbf" points="568.25,-56.5 568.25,-75.5 699.25,-75.5 699.25,-56.5 568.25,-56.5"/>
<text text-anchor="middle" x="633.75" y="-63.5" font-family="Helvetica,sans-Serif" font-size="10.00">AMReX_PhysBCFunct.H</text>
</a>
</g>
</g>
<!-- Node26&#45;&gt;Node28 -->
<g id="edge47" class="edge">
<title>Node26&#45;&gt;Node28</title>
<path fill="none" stroke="midnightblue" d="M633.75,-112.08C633.75,-105.01 633.75,-94.86 633.75,-85.99"/>
<polygon fill="midnightblue" stroke="midnightblue" points="637.25,-85.75 633.75,-75.75 630.25,-85.75 637.25,-85.75"/>
</g>
<!-- Node31&#45;&gt;Node11 -->
<g id="edge64" class="edge">
<title>Node31&#45;&gt;Node11</title>
<path fill="none" stroke="midnightblue" d="M1076.82,-302.4C1052.87,-292.73 1020.91,-279.82 995.16,-269.43"/>
<polygon fill="midnightblue" stroke="midnightblue" points="996.2,-266.07 985.62,-265.58 993.58,-272.57 996.2,-266.07"/>
</g>
<!-- Node31&#45;&gt;Node30 -->
<g id="edge65" class="edge">
<title>Node31&#45;&gt;Node30</title>
<path fill="none" stroke="midnightblue" d="M1110.67,-302.4C1109.94,-292.96 1108.98,-280.45 1108.19,-270.19"/>
<polygon fill="midnightblue" stroke="midnightblue" points="1111.68,-269.9 1107.42,-260.19 1104.7,-270.43 1111.68,-269.9"/>
</g>
<!-- Node32 -->
<g id="node32" class="node">
<title>Node32</title>
<g id="a_node32"><a xlink:href="_multi_phase_8_h.html" target="_top" xlink:title=" ">
<polygon fill="white" stroke="black" points="1334.25,-235.5 1334.25,-265.5 1495.25,-265.5 1495.25,-235.5 1334.25,-235.5"/>
<text text-anchor="start" x="1342.25" y="-253.5" font-family="Helvetica,sans-Serif" font-size="10.00">amr&#45;wind/physics/multiphase</text>
<text text-anchor="middle" x="1414.75" y="-242.5" font-family="Helvetica,sans-Serif" font-size="10.00">/MultiPhase.H</text>
</a>
</g>
</g>
<!-- Node31&#45;&gt;Node32 -->
<g id="edge53" class="edge">
<title>Node31&#45;&gt;Node32</title>
<path fill="none" stroke="midnightblue" d="M1177.13,-302.48C1224.73,-292.26 1289.33,-278.41 1339.16,-267.72"/>
<polygon fill="midnightblue" stroke="midnightblue" points="1340.19,-271.07 1349.24,-265.55 1338.73,-264.23 1340.19,-271.07"/>
</g>
<!-- Node32&#45;&gt;Node17 -->
<g id="edge63" class="edge">
<title>Node32&#45;&gt;Node17</title>
<path fill="none" stroke="midnightblue" d="M1414.58,-235.43C1415.09,-217.72 1418.52,-187.28 1434.75,-168 1448.19,-152.05 1468.35,-141.57 1487.29,-134.78"/>
<polygon fill="midnightblue" stroke="midnightblue" points="1488.65,-138.02 1497.04,-131.55 1486.45,-131.37 1488.65,-138.02"/>
</g>
<!-- Node33 -->
<g id="node33" class="node">
<title>Node33</title>
<g id="a_node33"><a xlink:href="_physics_8_h.html" target="_top" xlink:title=" ">
<polygon fill="white" stroke="black" points="1443.25,-174 1443.25,-193 1580.25,-193 1580.25,-174 1443.25,-174"/>
<text text-anchor="middle" x="1511.75" y="-181" font-family="Helvetica,sans-Serif" font-size="10.00">amr&#45;wind/core/Physics.H</text>
</a>
</g>
</g>
<!-- Node32&#45;&gt;Node33 -->
<g id="edge54" class="edge">
<title>Node32&#45;&gt;Node33</title>
<path fill="none" stroke="midnightblue" d="M1435.8,-235.4C1452.07,-224.5 1474.48,-209.48 1490.74,-198.58"/>
<polygon fill="midnightblue" stroke="midnightblue" points="1492.7,-201.48 1499.06,-193.01 1488.8,-195.67 1492.7,-201.48"/>
</g>
<!-- Node33&#45;&gt;Node4 -->
<g id="edge55" class="edge">
<title>Node33&#45;&gt;Node4</title>
<path fill="none" stroke="midnightblue" d="M1443.2,-174.23C1352.07,-163.23 1191.45,-143.84 1096.09,-132.33"/>
<polygon fill="midnightblue" stroke="midnightblue" points="1096.28,-128.83 1085.93,-131.11 1095.44,-135.78 1096.28,-128.83"/>
</g>
<!-- Node33&#45;&gt;Node15 -->
<g id="edge61" class="edge">
<title>Node33&#45;&gt;Node15</title>
<path fill="none" stroke="midnightblue" d="M1580.39,-182.02C1733.83,-180.24 2094.06,-171.81 2130.75,-132 2153.65,-107.16 2153.35,-81.11 2130.75,-56 2107.09,-29.7 1883.18,-17.63 1769.83,-13.17"/>
<polygon fill="midnightblue" stroke="midnightblue" points="1769.68,-9.66 1759.55,-12.78 1769.41,-16.66 1769.68,-9.66"/>
</g>
<!-- Node34 -->
<g id="node34" class="node">
<title>Node34</title>
<g id="a_node34"><a xlink:href="_coll_mgr_8_h.html" target="_top" xlink:title=" ">
<polygon fill="white" stroke="black" points="1320.25,-112.5 1320.25,-131.5 1457.25,-131.5 1457.25,-112.5 1320.25,-112.5"/>
<text text-anchor="middle" x="1388.75" y="-119.5" font-family="Helvetica,sans-Serif" font-size="10.00">amr&#45;wind/core/CollMgr.H</text>
</a>
</g>
</g>
<!-- Node33&#45;&gt;Node34 -->
<g id="edge56" class="edge">
<title>Node33&#45;&gt;Node34</title>
<path fill="none" stroke="midnightblue" d="M1494.13,-173.98C1473.58,-164.03 1439.39,-147.49 1415.55,-135.96"/>
<polygon fill="midnightblue" stroke="midnightblue" points="1416.87,-132.71 1406.34,-131.51 1413.82,-139.01 1416.87,-132.71"/>
</g>
<!-- Node35 -->
<g id="node35" class="node">
<title>Node35</title>
<g id="a_node35"><a xlink:title=" ">
<polygon fill="white" stroke="#bfbfbf" points="2183.25,-112.5 2183.25,-131.5 2298.25,-131.5 2298.25,-112.5 2183.25,-112.5"/>
<text text-anchor="middle" x="2240.75" y="-119.5" font-family="Helvetica,sans-Serif" font-size="10.00">AMReX_Geometry.H</text>
</a>
</g>
</g>
<!-- Node33&#45;&gt;Node35 -->
<g id="edge62" class="edge">
<title>Node33&#45;&gt;Node35</title>
<path fill="none" stroke="midnightblue" d="M1580.42,-178.3C1700.07,-170.75 1954.49,-153.61 2168.75,-132 2170.06,-131.87 2171.38,-131.73 2172.7,-131.59"/>
<polygon fill="midnightblue" stroke="midnightblue" points="2173.45,-135.03 2183.01,-130.46 2172.69,-128.07 2173.45,-135.03"/>
</g>
<!-- Node34&#45;&gt;Node3 -->
<g id="edge59" class="edge">
<title>Node34&#45;&gt;Node3</title>
<path fill="none" stroke="midnightblue" d="M1388.42,-112.08C1388.16,-105.01 1387.79,-94.86 1387.46,-85.99"/>
<polygon fill="midnightblue" stroke="midnightblue" points="1390.95,-85.61 1387.08,-75.75 1383.95,-85.87 1390.95,-85.61"/>
</g>
<!-- Node34&#45;&gt;Node5 -->
<g id="edge58" class="edge">
<title>Node34&#45;&gt;Node5</title>
<path fill="none" stroke="midnightblue" d="M1403.54,-112.32C1418.02,-103.82 1440.33,-90.73 1457.25,-80.8"/>
<polygon fill="midnightblue" stroke="midnightblue" points="1459.16,-83.74 1466.01,-75.65 1455.61,-77.7 1459.16,-83.74"/>
</g>
<!-- Node34&#45;&gt;Node13 -->
<g id="edge57" class="edge">
<title>Node34&#45;&gt;Node13</title>
<path fill="none" stroke="midnightblue" d="M1319.99,-115.15C1266.28,-109.17 1190.34,-97.59 1126.75,-76 1108.68,-69.86 1106.29,-63.53 1088.75,-56 1054.99,-41.51 1014.87,-28.48 987.59,-20.22"/>
<polygon fill="midnightblue" stroke="midnightblue" points="988.39,-16.8 977.81,-17.29 986.38,-23.51 988.39,-16.8"/>
</g>
<!-- Node34&#45;&gt;Node23 -->
<g id="edge60" class="edge">
<title>Node34&#45;&gt;Node23</title>
<path fill="none" stroke="midnightblue" d="M1445.44,-112.44C1491.29,-103.17 1544.34,-85.58 1518.75,-56 1487.13,-19.43 1349.56,-11.98 1269.04,-10.82"/>
<polygon fill="midnightblue" stroke="midnightblue" points="1269.07,-7.32 1259.03,-10.7 1268.99,-14.32 1269.07,-7.32"/>
</g>
</g>
</svg>
        <g id="navigator" transform="translate(0 0)" fill="#404254">
                <rect fill="#f2f5e9" fill-opacity="0.5" stroke="#606060" stroke-width=".5" x="0" y="0" width="60" height="60"/>
                <use id="zoomplus" xlink:href="#zoomPlus" x="17" y="9" onmousedown="handleZoom(evt,'in')"/>
                <use id="zoomminus" xlink:href="#zoomMin" x="42" y="9" onmousedown="handleZoom(evt,'out')"/>
                <use id="reset" xlink:href="#resetDef" x="30" y="36" onmousedown="handleReset()"/>
                <g id="arrowUp" xlink:href="#dirArrow" transform="translate(30 24)" onmousedown="handlePan(0,-1)">
                  <use xlink:href="#rim" fill="#404040">
                        <set attributeName="fill" to="#808080" begin="arrowUp.mouseover" end="arrowUp.mouseout"/>
                  </use>
                  <path fill="none" stroke="white" stroke-width="1.5" d="M0,-3.0v7 M-2.5,-0.5L0,-3.0L2.5,-0.5"/>
                </g>
                <g id="arrowRight" xlink:href="#dirArrow" transform="rotate(90) translate(36 -43)" onmousedown="handlePan(1,0)">
                  <use xlink:href="#rim" fill="#404040">
                        <set attributeName="fill" to="#808080" begin="arrowRight.mouseover" end="arrowRight.mouseout"/>
                  </use>
                  <path fill="none" stroke="white" stroke-width="1.5" d="M0,-3.0v7 M-2.5,-0.5L0,-3.0L2.5,-0.5"/>
                </g>
                <g id="arrowDown" xlink:href="#dirArrow" transform="rotate(180) translate(-30 -48)" onmousedown="handlePan(0,1)">
                  <use xlink:href="#rim" fill="#404040">
                        <set attributeName="fill" to="#808080" begin="arrowDown.mouseover" end="arrowDown.mouseout"/>
                  </use>
                  <path fill="none" stroke="white" stroke-width="1.5" d="M0,-3.0v7 M-2.5,-0.5L0,-3.0L2.5,-0.5"/>
                </g>
                <g id="arrowLeft" xlink:href="#dirArrow" transform="rotate(270) translate(-36 17)" onmousedown="handlePan(-1,0)">
                  <use xlink:href="#rim" fill="#404040">
                        <set attributeName="fill" to="#808080" begin="arrowLeft.mouseover" end="arrowLeft.mouseout"/>
                  </use>
                  <path fill="none" stroke="white" stroke-width="1.5" d="M0,-3.0v7 M-2.5,-0.5L0,-3.0L2.5,-0.5"/>
                </g>
        </g>
        <svg viewBox="0 0 15 15" width="100%" height="30px" preserveAspectRatio="xMaxYMin meet">
         <g id="arrow_out" transform="scale(0.3 0.3)">
          <a xlink:href="_turb_model_defs_8_h__incl_org.svg" target="_base">
           <rect id="button" ry="5" rx="5" y="6" x="6" height="38" width="38"
                fill="#f2f5e9" fill-opacity="0.5" stroke="#606060" stroke-width="1.0"/>
           <path id="arrow"
             d="M 11.500037,31.436501 C 11.940474,20.09759 22.043105,11.32322 32.158766,21.979434 L 37.068811,17.246167 C 37.068811,17.246167 37.088388,32 37.088388,32 L 22.160133,31.978069 C 22.160133,31.978069 26.997745,27.140456 26.997745,27.140456 C 18.528582,18.264221 13.291696,25.230495 11.500037,31.436501 z"
             style="fill:#404040;"/>
          </a>
         </g>
        </svg>
</svg>
