<?xml version="1.0" encoding="UTF-8" standalone="no"?>
<!DOCTYPE svg PUBLIC "-//W3C//DTD SVG 1.1//EN"
 "http://www.w3.org/Graphics/SVG/1.1/DTD/svg11.dtd">
<!-- Generated by graphviz version 2.43.0 (0)
 -->
<!-- Title: TurbModelBase.H Pages: 1 -->
<svg width="2832pt" height="397pt"
 viewBox="0.00 0.00 2832.15 397.00" xmlns="http://www.w3.org/2000/svg" xmlns:xlink="http://www.w3.org/1999/xlink">
<g id="graph0" class="graph" transform="scale(1 1) rotate(0) translate(4 393)">
<title>TurbModelBase.H</title>
<polygon fill="white" stroke="transparent" points="-4,4 -4,-393 2828.15,-393 2828.15,4 -4,4"/>
<!-- Node1 -->
<g id="node1" class="node">
<title>Node1</title>
<g id="a_node1"><a xlink:title=" ">
<polygon fill="#bfbfbf" stroke="black" points="545.15,-369.5 545.15,-388.5 646.15,-388.5 646.15,-369.5 545.15,-369.5"/>
<text text-anchor="middle" x="595.65" y="-376.5" font-family="Helvetica,sans-Serif" font-size="10.00">TurbModelBase.H</text>
</a>
</g>
</g>
<!-- Node2 -->
<g id="node2" class="node">
<title>Node2</title>
<g id="a_node2"><a xlink:href="_turb_model_8_h.html" target="_top" xlink:title=" ">
<polygon fill="white" stroke="black" points="536.65,-302.5 536.65,-332.5 654.65,-332.5 654.65,-302.5 536.65,-302.5"/>
<text text-anchor="start" x="544.65" y="-320.5" font-family="Helvetica,sans-Serif" font-size="10.00">amr&#45;wind/turbulence</text>
<text text-anchor="middle" x="595.65" y="-309.5" font-family="Helvetica,sans-Serif" font-size="10.00">/TurbModel.H</text>
</a>
</g>
</g>
<!-- Node1&#45;&gt;Node2 -->
<g id="edge1" class="edge">
<title>Node1&#45;&gt;Node2</title>
<path fill="none" stroke="midnightblue" d="M595.65,-369.48C595.65,-362.47 595.65,-352.19 595.65,-342.7"/>
<polygon fill="midnightblue" stroke="midnightblue" points="599.15,-342.52 595.65,-332.52 592.15,-342.52 599.15,-342.52"/>
</g>
<!-- Node41 -->
<g id="node41" class="node">
<title>Node41</title>
<g id="a_node41"><a xlink:href="_i_o_manager_8_h.html" target="_top" xlink:title=" ">
<polygon fill="white" stroke="black" points="2398.15,-112.5 2398.15,-142.5 2501.15,-142.5 2501.15,-112.5 2398.15,-112.5"/>
<text text-anchor="start" x="2406.15" y="-130.5" font-family="Helvetica,sans-Serif" font-size="10.00">amr&#45;wind/utilities</text>
<text text-anchor="middle" x="2449.65" y="-119.5" font-family="Helvetica,sans-Serif" font-size="10.00">/IOManager.H</text>
</a>
</g>
</g>
<!-- Node1&#45;&gt;Node41 -->
<g id="edge78" class="edge">
<title>Node1&#45;&gt;Node41</title>
<path fill="none" stroke="midnightblue" d="M646.2,-371.2C907.18,-336.08 2100.94,-175.43 2387.62,-136.85"/>
<polygon fill="midnightblue" stroke="midnightblue" points="2388.39,-140.28 2397.83,-135.47 2387.45,-133.34 2388.39,-140.28"/>
</g>
<!-- Node45 -->
<g id="node45" class="node">
<title>Node45</title>
<g id="a_node45"><a xlink:href="field__ops_8_h.html" target="_top" xlink:title=" ">
<polygon fill="white" stroke="black" points="47.15,-179.5 47.15,-209.5 158.15,-209.5 158.15,-179.5 47.15,-179.5"/>
<text text-anchor="start" x="55.15" y="-197.5" font-family="Helvetica,sans-Serif" font-size="10.00">amr&#45;wind/core/field</text>
<text text-anchor="middle" x="102.65" y="-186.5" font-family="Helvetica,sans-Serif" font-size="10.00">_ops.H</text>
</a>
</g>
</g>
<!-- Node1&#45;&gt;Node45 -->
<g id="edge85" class="edge">
<title>Node1&#45;&gt;Node45</title>
<path fill="none" stroke="midnightblue" d="M572.53,-369.44C496.65,-341.35 254.08,-251.56 150.39,-213.17"/>
<polygon fill="midnightblue" stroke="midnightblue" points="151.4,-209.81 140.8,-209.62 148.97,-216.38 151.4,-209.81"/>
</g>
<!-- Node3 -->
<g id="node3" class="node">
<title>Node3</title>
<g id="a_node3"><a xlink:href="_turbulence_model_8_h.html" target="_top" xlink:title=" ">
<polygon fill="white" stroke="black" points="176.65,-179.5 176.65,-209.5 294.65,-209.5 294.65,-179.5 176.65,-179.5"/>
<text text-anchor="start" x="184.65" y="-197.5" font-family="Helvetica,sans-Serif" font-size="10.00">amr&#45;wind/turbulence</text>
<text text-anchor="middle" x="235.65" y="-186.5" font-family="Helvetica,sans-Serif" font-size="10.00">/TurbulenceModel.H</text>
</a>
</g>
</g>
<!-- Node2&#45;&gt;Node3 -->
<g id="edge2" class="edge">
<title>Node2&#45;&gt;Node3</title>
<path fill="none" stroke="midnightblue" d="M581.96,-302.36C565.29,-286.05 535.52,-259.72 504.65,-246 424.63,-210.44 394.82,-226.25 305.03,-210.16"/>
<polygon fill="midnightblue" stroke="midnightblue" points="305.44,-206.67 294.97,-208.27 304.15,-213.55 305.44,-206.67"/>
</g>
<!-- Node11 -->
<g id="node11" class="node">
<title>Node11</title>
<g id="a_node11"><a xlink:href="_c_f_d_sim_8_h.html" target="_top" xlink:title=" ">
<polygon fill="white" stroke="black" points="909.65,-246.5 909.65,-265.5 1025.65,-265.5 1025.65,-246.5 909.65,-246.5"/>
<text text-anchor="middle" x="967.65" y="-253.5" font-family="Helvetica,sans-Serif" font-size="10.00">amr&#45;wind/CFDSim.H</text>
</a>
</g>
</g>
<!-- Node2&#45;&gt;Node11 -->
<g id="edge11" class="edge">
<title>Node2&#45;&gt;Node11</title>
<path fill="none" stroke="midnightblue" d="M655.01,-307.01C723.14,-296.11 834.46,-278.3 904.25,-267.14"/>
<polygon fill="midnightblue" stroke="midnightblue" points="904.92,-270.58 914.24,-265.54 903.81,-263.67 904.92,-270.58"/>
</g>
<!-- Node4 -->
<g id="node4" class="node">
<title>Node4</title>
<g id="a_node4"><a xlink:title=" ">
<polygon fill="white" stroke="#bfbfbf" points="554.15,-56.5 554.15,-75.5 647.15,-75.5 647.15,-56.5 554.15,-56.5"/>
<text text-anchor="middle" x="600.65" y="-63.5" font-family="Helvetica,sans-Serif" font-size="10.00">unordered_map</text>
</a>
</g>
</g>
<!-- Node3&#45;&gt;Node4 -->
<g id="edge3" class="edge">
<title>Node3&#45;&gt;Node4</title>
<path fill="none" stroke="midnightblue" d="M243.97,-179.26C255.78,-160.48 279.26,-127.93 308.65,-112 348.22,-90.55 470.76,-77.36 543.92,-71.19"/>
<polygon fill="midnightblue" stroke="midnightblue" points="544.23,-74.68 553.91,-70.36 543.65,-67.7 544.23,-74.68"/>
</g>
<!-- Node5 -->
<g id="node5" class="node">
<title>Node5</title>
<g id="a_node5"><a xlink:href="_factory_8_h.html" target="_top" xlink:title=" ">
<polygon fill="white" stroke="black" points="127.65,-118 127.65,-137 261.65,-137 261.65,-118 127.65,-118"/>
<text text-anchor="middle" x="194.65" y="-125" font-family="Helvetica,sans-Serif" font-size="10.00">amr&#45;wind/core/Factory.H</text>
</a>
</g>
</g>
<!-- Node3&#45;&gt;Node5 -->
<g id="edge4" class="edge">
<title>Node3&#45;&gt;Node5</title>
<path fill="none" stroke="midnightblue" d="M226.76,-179.4C220.55,-169.56 212.24,-156.38 205.62,-145.89"/>
<polygon fill="midnightblue" stroke="midnightblue" points="208.43,-143.79 200.14,-137.19 202.51,-147.52 208.43,-143.79"/>
</g>
<!-- Node10 -->
<g id="node10" class="node">
<title>Node10</title>
<g id="a_node10"><a xlink:href="_field_desc_types_8_h.html" target="_top" xlink:title=" ">
<polygon fill="white" stroke="black" points="1472.65,-0.5 1472.65,-19.5 1648.65,-19.5 1648.65,-0.5 1472.65,-0.5"/>
<text text-anchor="middle" x="1560.65" y="-7.5" font-family="Helvetica,sans-Serif" font-size="10.00">amr&#45;wind/core/FieldDescTypes.H</text>
</a>
</g>
</g>
<!-- Node3&#45;&gt;Node10 -->
<g id="edge10" class="edge">
<title>Node3&#45;&gt;Node10</title>
<path fill="none" stroke="midnightblue" d="M181.2,-179.42C159.58,-171.61 135.82,-159.94 118.65,-143 89.54,-114.27 60.11,-85.3 88.65,-56 114.32,-29.65 1330.04,-22.77 1462.31,-19.75"/>
<polygon fill="midnightblue" stroke="midnightblue" points="1462.76,-23.24 1472.64,-19.42 1462.54,-16.25 1462.76,-23.24"/>
</g>
<!-- Node5&#45;&gt;Node4 -->
<g id="edge6" class="edge">
<title>Node5&#45;&gt;Node4</title>
<path fill="none" stroke="midnightblue" d="M240.43,-117.98C251.92,-115.93 264.22,-113.81 275.65,-112 369.5,-97.11 479.05,-82.52 543.98,-74.16"/>
<polygon fill="midnightblue" stroke="midnightblue" points="544.54,-77.61 554.01,-72.87 543.65,-70.67 544.54,-77.61"/>
</g>
<!-- Node6 -->
<g id="node6" class="node">
<title>Node6</title>
<g id="a_node6"><a xlink:title=" ">
<polygon fill="white" stroke="#bfbfbf" points="401.65,-56.5 401.65,-75.5 459.65,-75.5 459.65,-56.5 401.65,-56.5"/>
<text text-anchor="middle" x="430.65" y="-63.5" font-family="Helvetica,sans-Serif" font-size="10.00">memory</text>
</a>
</g>
</g>
<!-- Node5&#45;&gt;Node6 -->
<g id="edge5" class="edge">
<title>Node5&#45;&gt;Node6</title>
<path fill="none" stroke="midnightblue" d="M228.46,-117.98C271.6,-107.1 346.04,-88.33 391.56,-76.86"/>
<polygon fill="midnightblue" stroke="midnightblue" points="392.52,-80.22 401.37,-74.38 390.81,-73.43 392.52,-80.22"/>
</g>
<!-- Node7 -->
<g id="node7" class="node">
<title>Node7</title>
<g id="a_node7"><a xlink:title=" ">
<polygon fill="white" stroke="#bfbfbf" points="97.65,-56.5 97.65,-75.5 157.65,-75.5 157.65,-56.5 97.65,-56.5"/>
<text text-anchor="middle" x="127.65" y="-63.5" font-family="Helvetica,sans-Serif" font-size="10.00">iostream</text>
</a>
</g>
</g>
<!-- Node5&#45;&gt;Node7 -->
<g id="edge7" class="edge">
<title>Node5&#45;&gt;Node7</title>
<path fill="none" stroke="midnightblue" d="M185.05,-117.98C174.6,-108.7 157.68,-93.67 144.91,-82.33"/>
<polygon fill="midnightblue" stroke="midnightblue" points="147.03,-79.53 137.23,-75.51 142.39,-84.77 147.03,-79.53"/>
</g>
<!-- Node8 -->
<g id="node8" class="node">
<title>Node8</title>
<g id="a_node8"><a xlink:title=" ">
<polygon fill="white" stroke="#bfbfbf" points="175.65,-56.5 175.65,-75.5 265.65,-75.5 265.65,-56.5 175.65,-56.5"/>
<text text-anchor="middle" x="220.65" y="-63.5" font-family="Helvetica,sans-Serif" font-size="10.00">AMReX_Print.H</text>
</a>
</g>
</g>
<!-- Node5&#45;&gt;Node8 -->
<g id="edge8" class="edge">
<title>Node5&#45;&gt;Node8</title>
<path fill="none" stroke="midnightblue" d="M198.38,-117.98C202.12,-109.4 208.01,-95.93 212.79,-84.98"/>
<polygon fill="midnightblue" stroke="midnightblue" points="216.14,-86.07 216.93,-75.51 209.72,-83.27 216.14,-86.07"/>
</g>
<!-- Node9 -->
<g id="node9" class="node">
<title>Node9</title>
<g id="a_node9"><a xlink:title=" ">
<polygon fill="white" stroke="#bfbfbf" points="283.65,-56.5 283.65,-75.5 345.65,-75.5 345.65,-56.5 283.65,-56.5"/>
<text text-anchor="middle" x="314.65" y="-63.5" font-family="Helvetica,sans-Serif" font-size="10.00">AMReX.H</text>
</a>
</g>
</g>
<!-- Node5&#45;&gt;Node9 -->
<g id="edge9" class="edge">
<title>Node5&#45;&gt;Node9</title>
<path fill="none" stroke="midnightblue" d="M211.84,-117.98C231.89,-108.03 265.25,-91.49 288.51,-79.96"/>
<polygon fill="midnightblue" stroke="midnightblue" points="290.09,-83.09 297.49,-75.51 286.98,-76.82 290.09,-83.09"/>
</g>
<!-- Node12 -->
<g id="node12" class="node">
<title>Node12</title>
<g id="a_node12"><a xlink:title=" ">
<polygon fill="white" stroke="#bfbfbf" points="1471.65,-118 1471.65,-137 1581.65,-137 1581.65,-118 1471.65,-118"/>
<text text-anchor="middle" x="1526.65" y="-125" font-family="Helvetica,sans-Serif" font-size="10.00">AMReX_AmrCore.H</text>
</a>
</g>
</g>
<!-- Node11&#45;&gt;Node12 -->
<g id="edge12" class="edge">
<title>Node11&#45;&gt;Node12</title>
<path fill="none" stroke="midnightblue" d="M1025.91,-249.74C1089.21,-243.31 1193.02,-230.64 1280.65,-210 1359.8,-191.35 1449.81,-158.41 1495.89,-140.66"/>
<polygon fill="midnightblue" stroke="midnightblue" points="1497.25,-143.88 1505.3,-137 1494.71,-137.36 1497.25,-143.88"/>
</g>
<!-- Node13 -->
<g id="node13" class="node">
<title>Node13</title>
<g id="a_node13"><a xlink:href="_sim_time_8_h.html" target="_top" xlink:title=" ">
<polygon fill="white" stroke="black" points="895.65,-185 895.65,-204 1039.65,-204 1039.65,-185 895.65,-185"/>
<text text-anchor="middle" x="967.65" y="-192" font-family="Helvetica,sans-Serif" font-size="10.00">amr&#45;wind/core/SimTime.H</text>
</a>
</g>
</g>
<!-- Node11&#45;&gt;Node13 -->
<g id="edge13" class="edge">
<title>Node11&#45;&gt;Node13</title>
<path fill="none" stroke="midnightblue" d="M967.65,-246.48C967.65,-238.08 967.65,-224.98 967.65,-214.16"/>
<polygon fill="midnightblue" stroke="midnightblue" points="971.15,-214.01 967.65,-204.01 964.15,-214.01 971.15,-214.01"/>
</g>
<!-- Node17 -->
<g id="node17" class="node">
<title>Node17</title>
<g id="a_node17"><a xlink:href="_field_repo_8_h.html" target="_top" xlink:title=" ">
<polygon fill="white" stroke="black" points="1611.15,-185 1611.15,-204 1760.15,-204 1760.15,-185 1611.15,-185"/>
<text text-anchor="middle" x="1685.65" y="-192" font-family="Helvetica,sans-Serif" font-size="10.00">amr&#45;wind/core/FieldRepo.H</text>
</a>
</g>
</g>
<!-- Node11&#45;&gt;Node17 -->
<g id="edge17" class="edge">
<title>Node11&#45;&gt;Node17</title>
<path fill="none" stroke="midnightblue" d="M1025.8,-250.18C1152.3,-239.7 1452.95,-214.78 1600.71,-202.54"/>
<polygon fill="midnightblue" stroke="midnightblue" points="1601.4,-205.99 1611.08,-201.68 1600.83,-199.02 1601.4,-205.99"/>
</g>
<!-- Node34 -->
<g id="node34" class="node">
<title>Node34</title>
<g id="a_node34"><a xlink:href="_p_d_e_base_8_h.html" target="_top" xlink:title=" ">
<polygon fill="white" stroke="black" points="1116.15,-179.5 1116.15,-209.5 1271.15,-209.5 1271.15,-179.5 1116.15,-179.5"/>
<text text-anchor="start" x="1124.15" y="-197.5" font-family="Helvetica,sans-Serif" font-size="10.00">amr&#45;wind/equation_systems</text>
<text text-anchor="middle" x="1193.65" y="-186.5" font-family="Helvetica,sans-Serif" font-size="10.00">/PDEBase.H</text>
</a>
</g>
</g>
<!-- Node11&#45;&gt;Node34 -->
<g id="edge55" class="edge">
<title>Node11&#45;&gt;Node34</title>
<path fill="none" stroke="midnightblue" d="M1000.03,-246.48C1034,-237.53 1088.25,-223.25 1130.7,-212.07"/>
<polygon fill="midnightblue" stroke="midnightblue" points="1131.61,-215.45 1140.39,-209.52 1129.83,-208.68 1131.61,-215.45"/>
</g>
<!-- Node38 -->
<g id="node38" class="node">
<title>Node38</title>
<g id="a_node38"><a xlink:href="_physics_8_h.html" target="_top" xlink:title=" ">
<polygon fill="white" stroke="black" points="313.15,-185 313.15,-204 450.15,-204 450.15,-185 313.15,-185"/>
<text text-anchor="middle" x="381.65" y="-192" font-family="Helvetica,sans-Serif" font-size="10.00">amr&#45;wind/core/Physics.H</text>
</a>
</g>
</g>
<!-- Node11&#45;&gt;Node38 -->
<g id="edge67" class="edge">
<title>Node11&#45;&gt;Node38</title>
<path fill="none" stroke="midnightblue" d="M909.35,-251.07C816.36,-244.51 628.8,-230.02 470.65,-210 460.75,-208.75 450.26,-207.22 440.09,-205.63"/>
<polygon fill="midnightblue" stroke="midnightblue" points="440.49,-202.15 430.06,-204.03 439.38,-209.06 440.49,-202.15"/>
</g>
<!-- Node40 -->
<g id="node40" class="node">
<title>Node40</title>
<g id="a_node40"><a xlink:href="_mesh_map_8_h.html" target="_top" xlink:title=" ">
<polygon fill="white" stroke="black" points="479.65,-185 479.65,-204 627.65,-204 627.65,-185 479.65,-185"/>
<text text-anchor="middle" x="553.65" y="-192" font-family="Helvetica,sans-Serif" font-size="10.00">amr&#45;wind/core/MeshMap.H</text>
</a>
</g>
</g>
<!-- Node11&#45;&gt;Node40 -->
<g id="edge72" class="edge">
<title>Node11&#45;&gt;Node40</title>
<path fill="none" stroke="midnightblue" d="M909.65,-246.66C834.42,-235.85 703.35,-217.01 622.96,-205.46"/>
<polygon fill="midnightblue" stroke="midnightblue" points="623.33,-201.98 612.93,-204.02 622.33,-208.91 623.33,-201.98"/>
</g>
<!-- Node14 -->
<g id="node14" class="node">
<title>Node14</title>
<g id="a_node14"><a xlink:title=" ">
<polygon fill="white" stroke="#bfbfbf" points="921.65,-118 921.65,-137 1013.65,-137 1013.65,-118 921.65,-118"/>
<text text-anchor="middle" x="967.65" y="-125" font-family="Helvetica,sans-Serif" font-size="10.00">AMReX_REAL.H</text>
</a>
</g>
</g>
<!-- Node13&#45;&gt;Node14 -->
<g id="edge14" class="edge">
<title>Node13&#45;&gt;Node14</title>
<path fill="none" stroke="midnightblue" d="M967.65,-184.73C967.65,-175.18 967.65,-159.62 967.65,-147.28"/>
<polygon fill="midnightblue" stroke="midnightblue" points="971.15,-147.13 967.65,-137.13 964.15,-147.13 971.15,-147.13"/>
</g>
<!-- Node15 -->
<g id="node15" class="node">
<title>Node15</title>
<g id="a_node15"><a xlink:title=" ">
<polygon fill="white" stroke="#bfbfbf" points="1031.65,-118 1031.65,-137 1165.65,-137 1165.65,-118 1031.65,-118"/>
<text text-anchor="middle" x="1098.65" y="-125" font-family="Helvetica,sans-Serif" font-size="10.00">AMReX_GpuQualifiers.H</text>
</a>
</g>
</g>
<!-- Node13&#45;&gt;Node15 -->
<g id="edge15" class="edge">
<title>Node13&#45;&gt;Node15</title>
<path fill="none" stroke="midnightblue" d="M985.05,-184.87C1007.26,-173.84 1045.94,-154.66 1071.91,-141.77"/>
<polygon fill="midnightblue" stroke="midnightblue" points="1073.78,-144.75 1081.18,-137.17 1070.67,-138.48 1073.78,-144.75"/>
</g>
<!-- Node16 -->
<g id="node16" class="node">
<title>Node16</title>
<g id="a_node16"><a xlink:title=" ">
<polygon fill="white" stroke="#bfbfbf" points="787.65,-118 787.65,-137 903.65,-137 903.65,-118 787.65,-118"/>
<text text-anchor="middle" x="845.65" y="-125" font-family="Helvetica,sans-Serif" font-size="10.00">AMReX_Extension.H</text>
</a>
</g>
</g>
<!-- Node13&#45;&gt;Node16 -->
<g id="edge16" class="edge">
<title>Node13&#45;&gt;Node16</title>
<path fill="none" stroke="midnightblue" d="M951.45,-184.87C930.85,-173.89 895.06,-154.82 870.87,-141.94"/>
<polygon fill="midnightblue" stroke="midnightblue" points="872.39,-138.78 861.92,-137.17 869.1,-144.96 872.39,-138.78"/>
</g>
<!-- Node17&#45;&gt;Node4 -->
<g id="edge19" class="edge">
<title>Node17&#45;&gt;Node4</title>
<path fill="none" stroke="midnightblue" d="M1677.2,-184.94C1657.95,-165.68 1610.98,-119.99 1590.65,-112 1497.93,-75.54 794.06,-82.75 694.65,-76 682.64,-75.18 669.78,-74.1 657.56,-72.96"/>
<polygon fill="midnightblue" stroke="midnightblue" points="657.75,-69.46 647.47,-72 657.09,-76.43 657.75,-69.46"/>
</g>
<!-- Node17&#45;&gt;Node10 -->
<g id="edge20" class="edge">
<title>Node17&#45;&gt;Node10</title>
<path fill="none" stroke="midnightblue" d="M1688.48,-184.89C1693.18,-168.85 1700.58,-134.01 1684.65,-112 1655.73,-72.03 1613.73,-111.68 1579.65,-76 1567.86,-63.66 1563.33,-44.41 1561.62,-30.05"/>
<polygon fill="midnightblue" stroke="midnightblue" points="1565.09,-29.49 1560.77,-19.82 1558.11,-30.08 1565.09,-29.49"/>
</g>
<!-- Node17&#45;&gt;Node12 -->
<g id="edge52" class="edge">
<title>Node17&#45;&gt;Node12</title>
<path fill="none" stroke="midnightblue" d="M1664.54,-184.87C1637.02,-173.62 1588.7,-153.87 1557.19,-140.99"/>
<polygon fill="midnightblue" stroke="midnightblue" points="1558.18,-137.61 1547.6,-137.06 1555.53,-144.09 1558.18,-137.61"/>
</g>
<!-- Node18 -->
<g id="node18" class="node">
<title>Node18</title>
<g id="a_node18"><a xlink:title=" ">
<polygon fill="white" stroke="#bfbfbf" points="1872.65,-0.5 1872.65,-19.5 1916.65,-19.5 1916.65,-0.5 1872.65,-0.5"/>
<text text-anchor="middle" x="1894.65" y="-7.5" font-family="Helvetica,sans-Serif" font-size="10.00">string</text>
</a>
</g>
</g>
<!-- Node17&#45;&gt;Node18 -->
<g id="edge18" class="edge">
<title>Node17&#45;&gt;Node18</title>
<path fill="none" stroke="midnightblue" d="M1760.45,-188.82C1829.72,-182.86 1925.79,-169.9 1951.65,-143 1978.62,-114.94 1979.96,-90.35 1961.65,-56 1953.99,-41.63 1939.49,-31.04 1925.92,-23.75"/>
<polygon fill="midnightblue" stroke="midnightblue" points="1927.3,-20.52 1916.78,-19.23 1924.19,-26.8 1927.3,-20.52"/>
</g>
<!-- Node19 -->
<g id="node19" class="node">
<title>Node19</title>
<g id="a_node19"><a xlink:href="_field_utils_8_h.html" target="_top" xlink:title=" ">
<polygon fill="white" stroke="black" points="1348.65,-56.5 1348.65,-75.5 1494.65,-75.5 1494.65,-56.5 1348.65,-56.5"/>
<text text-anchor="middle" x="1421.65" y="-63.5" font-family="Helvetica,sans-Serif" font-size="10.00">amr&#45;wind/core/FieldUtils.H</text>
</a>
</g>
</g>
<!-- Node17&#45;&gt;Node19 -->
<g id="edge21" class="edge">
<title>Node17&#45;&gt;Node19</title>
<path fill="none" stroke="midnightblue" d="M1685.85,-184.85C1685.72,-168.1 1682.88,-131.19 1661.65,-112 1638.83,-91.38 1564.77,-79.68 1504.89,-73.41"/>
<polygon fill="midnightblue" stroke="midnightblue" points="1504.96,-69.9 1494.66,-72.37 1504.25,-76.86 1504.96,-69.9"/>
</g>
<!-- Node20 -->
<g id="node20" class="node">
<title>Node20</title>
<g id="a_node20"><a xlink:title=" ">
<polygon fill="white" stroke="#bfbfbf" points="912.15,-0.5 912.15,-19.5 1021.15,-19.5 1021.15,-0.5 912.15,-0.5"/>
<text text-anchor="middle" x="966.65" y="-7.5" font-family="Helvetica,sans-Serif" font-size="10.00">AMReX_MultiFab.H</text>
</a>
</g>
</g>
<!-- Node17&#45;&gt;Node20 -->
<g id="edge53" class="edge">
<title>Node17&#45;&gt;Node20</title>
<path fill="none" stroke="midnightblue" d="M1682.09,-184.78C1674.55,-167.55 1655.2,-129.34 1625.65,-112 1515.16,-47.16 1461.86,-114.45 1339.65,-76 1321.45,-70.27 1319.83,-61.8 1301.65,-56 1210.73,-26.97 1100.11,-16.67 1031.53,-13.01"/>
<polygon fill="midnightblue" stroke="midnightblue" points="1031.47,-9.5 1021.31,-12.5 1031.12,-16.49 1031.47,-9.5"/>
</g>
<!-- Node22 -->
<g id="node22" class="node">
<title>Node22</title>
<g id="a_node22"><a xlink:href="_field_8_h.html" target="_top" xlink:title=" ">
<polygon fill="white" stroke="black" points="645.65,-118 645.65,-137 769.65,-137 769.65,-118 645.65,-118"/>
<text text-anchor="middle" x="707.65" y="-125" font-family="Helvetica,sans-Serif" font-size="10.00">amr&#45;wind/core/Field.H</text>
</a>
</g>
</g>
<!-- Node17&#45;&gt;Node22 -->
<g id="edge25" class="edge">
<title>Node17&#45;&gt;Node22</title>
<path fill="none" stroke="midnightblue" d="M1611.09,-190.75C1424.14,-183.64 938.97,-163.72 778.65,-143 770.76,-141.98 762.43,-140.58 754.36,-139.04"/>
<polygon fill="midnightblue" stroke="midnightblue" points="754.82,-135.57 744.33,-137.05 753.46,-142.43 754.82,-135.57"/>
</g>
<!-- Node29 -->
<g id="node29" class="node">
<title>Node29</title>
<g id="a_node29"><a xlink:href="_int_field_8_h.html" target="_top" xlink:title=" ">
<polygon fill="white" stroke="black" points="1805.15,-118 1805.15,-137 1942.15,-137 1942.15,-118 1805.15,-118"/>
<text text-anchor="middle" x="1873.65" y="-125" font-family="Helvetica,sans-Serif" font-size="10.00">amr&#45;wind/core/IntField.H</text>
</a>
</g>
</g>
<!-- Node17&#45;&gt;Node29 -->
<g id="edge40" class="edge">
<title>Node17&#45;&gt;Node29</title>
<path fill="none" stroke="midnightblue" d="M1710.62,-184.87C1743.58,-173.47 1801.77,-153.35 1838.98,-140.49"/>
<polygon fill="midnightblue" stroke="midnightblue" points="1840.58,-143.64 1848.88,-137.06 1838.29,-137.02 1840.58,-143.64"/>
</g>
<!-- Node30 -->
<g id="node30" class="node">
<title>Node30</title>
<g id="a_node30"><a xlink:title=" ">
<polygon fill="white" stroke="#bfbfbf" points="1792.65,-56.5 1792.65,-75.5 1904.65,-75.5 1904.65,-56.5 1792.65,-56.5"/>
<text text-anchor="middle" x="1848.65" y="-63.5" font-family="Helvetica,sans-Serif" font-size="10.00">AMReX_iMultiFab.H</text>
</a>
</g>
</g>
<!-- Node17&#45;&gt;Node30 -->
<g id="edge54" class="edge">
<title>Node17&#45;&gt;Node30</title>
<path fill="none" stroke="midnightblue" d="M1696.86,-184.81C1724.19,-163.59 1794.58,-108.96 1829.05,-82.22"/>
<polygon fill="midnightblue" stroke="midnightblue" points="1831.62,-84.65 1837.37,-75.76 1827.32,-79.12 1831.62,-84.65"/>
</g>
<!-- Node31 -->
<g id="node31" class="node">
<title>Node31</title>
<g id="a_node31"><a xlink:href="_scratch_field_8_h.html" target="_top" xlink:title=" ">
<polygon fill="white" stroke="black" points="2093.65,-118 2093.65,-137 2253.65,-137 2253.65,-118 2093.65,-118"/>
<text text-anchor="middle" x="2173.65" y="-125" font-family="Helvetica,sans-Serif" font-size="10.00">amr&#45;wind/core/ScratchField.H</text>
</a>
</g>
</g>
<!-- Node17&#45;&gt;Node31 -->
<g id="edge44" class="edge">
<title>Node17&#45;&gt;Node31</title>
<path fill="none" stroke="midnightblue" d="M1756.54,-184.97C1835.48,-175.34 1966.81,-158.93 2079.65,-143 2089.46,-141.61 2099.84,-140.08 2109.97,-138.55"/>
<polygon fill="midnightblue" stroke="midnightblue" points="2110.64,-141.99 2120,-137.02 2109.59,-135.07 2110.64,-141.99"/>
</g>
<!-- Node19&#45;&gt;Node10 -->
<g id="edge22" class="edge">
<title>Node19&#45;&gt;Node10</title>
<path fill="none" stroke="midnightblue" d="M1443.68,-56.44C1466.76,-47.48 1503.21,-33.31 1529.29,-23.18"/>
<polygon fill="midnightblue" stroke="midnightblue" points="1530.68,-26.4 1538.73,-19.52 1528.14,-19.88 1530.68,-26.4"/>
</g>
<!-- Node19&#45;&gt;Node20 -->
<g id="edge23" class="edge">
<title>Node19&#45;&gt;Node20</title>
<path fill="none" stroke="midnightblue" d="M1349.81,-56.47C1262.21,-46.08 1115.48,-28.66 1031.29,-18.67"/>
<polygon fill="midnightblue" stroke="midnightblue" points="1031.68,-15.19 1021.34,-17.49 1030.86,-22.14 1031.68,-15.19"/>
</g>
<!-- Node21 -->
<g id="node21" class="node">
<title>Node21</title>
<g id="a_node21"><a xlink:title=" ">
<polygon fill="white" stroke="#bfbfbf" points="1330.65,-0.5 1330.65,-19.5 1454.65,-19.5 1454.65,-0.5 1330.65,-0.5"/>
<text text-anchor="middle" x="1392.65" y="-7.5" font-family="Helvetica,sans-Serif" font-size="10.00">AMReX_Interpolater.H</text>
</a>
</g>
</g>
<!-- Node19&#45;&gt;Node21 -->
<g id="edge24" class="edge">
<title>Node19&#45;&gt;Node21</title>
<path fill="none" stroke="midnightblue" d="M1416.86,-56.08C1412.89,-48.69 1407.13,-37.95 1402.22,-28.81"/>
<polygon fill="midnightblue" stroke="midnightblue" points="1405.17,-26.91 1397.35,-19.75 1399,-30.22 1405.17,-26.91"/>
</g>
<!-- Node22&#45;&gt;Node4 -->
<g id="edge28" class="edge">
<title>Node22&#45;&gt;Node4</title>
<path fill="none" stroke="midnightblue" d="M692.32,-117.98C674.68,-108.17 645.49,-91.93 624.79,-80.42"/>
<polygon fill="midnightblue" stroke="midnightblue" points="626.39,-77.31 615.95,-75.51 622.99,-83.43 626.39,-77.31"/>
</g>
<!-- Node22&#45;&gt;Node6 -->
<g id="edge27" class="edge">
<title>Node22&#45;&gt;Node6</title>
<path fill="none" stroke="midnightblue" d="M667.96,-117.98C615.09,-106.62 522.13,-86.65 469.62,-75.37"/>
<polygon fill="midnightblue" stroke="midnightblue" points="470.2,-71.91 459.68,-73.24 468.73,-78.76 470.2,-71.91"/>
</g>
<!-- Node22&#45;&gt;Node10 -->
<g id="edge34" class="edge">
<title>Node22&#45;&gt;Node10</title>
<path fill="none" stroke="midnightblue" d="M748.15,-117.94C758.11,-115.92 768.75,-113.82 778.65,-112 876.1,-94.08 903.84,-104.75 998.65,-76 1019.21,-69.77 1021.87,-61.44 1042.65,-56 1221.13,-9.29 1274.72,-35.71 1462.42,-20.08"/>
<polygon fill="midnightblue" stroke="midnightblue" points="1462.96,-23.54 1472.63,-19.2 1462.36,-16.57 1462.96,-23.54"/>
</g>
<!-- Node22&#45;&gt;Node18 -->
<g id="edge26" class="edge">
<title>Node22&#45;&gt;Node18</title>
<path fill="none" stroke="midnightblue" d="M747.37,-117.94C757.55,-115.87 768.48,-113.75 778.65,-112 891.88,-92.5 924.78,-109.6 1034.65,-76 1054.04,-70.07 1056.03,-61.1 1075.65,-56 1114.31,-45.95 1714.4,-18.95 1862.03,-12.43"/>
<polygon fill="midnightblue" stroke="midnightblue" points="1862.41,-15.92 1872.25,-11.98 1862.11,-8.92 1862.41,-15.92"/>
</g>
<!-- Node22&#45;&gt;Node20 -->
<g id="edge30" class="edge">
<title>Node22&#45;&gt;Node20</title>
<path fill="none" stroke="midnightblue" d="M702.18,-118C693.62,-103.5 679.52,-73.84 694.65,-56 720.66,-25.34 829.66,-15.54 901.53,-12.43"/>
<polygon fill="midnightblue" stroke="midnightblue" points="902,-15.91 911.85,-12.01 901.72,-8.92 902,-15.91"/>
</g>
<!-- Node23 -->
<g id="node23" class="node">
<title>Node23</title>
<g id="a_node23"><a xlink:title=" ">
<polygon fill="white" stroke="#bfbfbf" points="703.65,-56.5 703.65,-75.5 767.65,-75.5 767.65,-56.5 703.65,-56.5"/>
<text text-anchor="middle" x="735.65" y="-63.5" font-family="Helvetica,sans-Serif" font-size="10.00">algorithm</text>
</a>
</g>
</g>
<!-- Node22&#45;&gt;Node23 -->
<g id="edge29" class="edge">
<title>Node22&#45;&gt;Node23</title>
<path fill="none" stroke="midnightblue" d="M711.66,-117.98C715.74,-109.32 722.17,-95.65 727.35,-84.65"/>
<polygon fill="midnightblue" stroke="midnightblue" points="730.56,-86.05 731.65,-75.51 724.22,-83.07 730.56,-86.05"/>
</g>
<!-- Node24 -->
<g id="node24" class="node">
<title>Node24</title>
<g id="a_node24"><a xlink:title=" ">
<polygon fill="white" stroke="#bfbfbf" points="786.15,-56.5 786.15,-75.5 885.15,-75.5 885.15,-56.5 786.15,-56.5"/>
<text text-anchor="middle" x="835.65" y="-63.5" font-family="Helvetica,sans-Serif" font-size="10.00">AMReX_BCRec.H</text>
</a>
</g>
</g>
<!-- Node22&#45;&gt;Node24 -->
<g id="edge31" class="edge">
<title>Node22&#45;&gt;Node24</title>
<path fill="none" stroke="midnightblue" d="M725.99,-117.98C747.47,-107.99 783.27,-91.35 808.1,-79.81"/>
<polygon fill="midnightblue" stroke="midnightblue" points="809.75,-82.9 817.35,-75.51 806.8,-76.55 809.75,-82.9"/>
</g>
<!-- Node25 -->
<g id="node25" class="node">
<title>Node25</title>
<g id="a_node25"><a xlink:title=" ">
<polygon fill="white" stroke="#bfbfbf" points="903.15,-56.5 903.15,-75.5 990.15,-75.5 990.15,-56.5 903.15,-56.5"/>
<text text-anchor="middle" x="946.65" y="-63.5" font-family="Helvetica,sans-Serif" font-size="10.00">AMReX_Gpu.H</text>
</a>
</g>
</g>
<!-- Node22&#45;&gt;Node25 -->
<g id="edge32" class="edge">
<title>Node22&#45;&gt;Node25</title>
<path fill="none" stroke="midnightblue" d="M741.89,-117.98C784.22,-107.44 856.33,-89.49 902.7,-77.94"/>
<polygon fill="midnightblue" stroke="midnightblue" points="903.61,-81.32 912.47,-75.51 901.92,-74.53 903.61,-81.32"/>
</g>
<!-- Node26 -->
<g id="node26" class="node">
<title>Node26</title>
<g id="a_node26"><a xlink:href="incflo__enums_8_h.html" target="_top" xlink:title=" ">
<polygon fill="white" stroke="black" points="1085.15,-56.5 1085.15,-75.5 1226.15,-75.5 1226.15,-56.5 1085.15,-56.5"/>
<text text-anchor="middle" x="1155.65" y="-63.5" font-family="Helvetica,sans-Serif" font-size="10.00">amr&#45;wind/incflo_enums.H</text>
</a>
</g>
</g>
<!-- Node22&#45;&gt;Node26 -->
<g id="edge33" class="edge">
<title>Node22&#45;&gt;Node26</title>
<path fill="none" stroke="midnightblue" d="M746.61,-117.94C756.99,-115.83 768.22,-113.68 778.65,-112 833.9,-103.08 981.74,-86.19 1075.02,-75.83"/>
<polygon fill="midnightblue" stroke="midnightblue" points="1075.44,-79.31 1084.99,-74.73 1074.66,-72.35 1075.44,-79.31"/>
</g>
<!-- Node27 -->
<g id="node27" class="node">
<title>Node27</title>
<g id="a_node27"><a xlink:href="_view_field_8_h.html" target="_top" xlink:title=" ">
<polygon fill="white" stroke="black" points="1588.65,-56.5 1588.65,-75.5 1736.65,-75.5 1736.65,-56.5 1588.65,-56.5"/>
<text text-anchor="middle" x="1662.65" y="-63.5" font-family="Helvetica,sans-Serif" font-size="10.00">amr&#45;wind/core/ViewField.H</text>
</a>
</g>
</g>
<!-- Node22&#45;&gt;Node27 -->
<g id="edge35" class="edge">
<title>Node22&#45;&gt;Node27</title>
<path fill="none" stroke="midnightblue" d="M743.96,-117.98C755.04,-115.68 767.29,-113.43 778.65,-112 1098.73,-71.61 1181.49,-93.12 1503.65,-76 1527.93,-74.71 1554.29,-73.24 1578.44,-71.88"/>
<polygon fill="midnightblue" stroke="midnightblue" points="1578.85,-75.36 1588.64,-71.3 1578.46,-68.37 1578.85,-75.36"/>
</g>
<!-- Node27&#45;&gt;Node10 -->
<g id="edge37" class="edge">
<title>Node27&#45;&gt;Node10</title>
<path fill="none" stroke="midnightblue" d="M1646.26,-56.32C1629.98,-47.7 1604.78,-34.36 1585.94,-24.39"/>
<polygon fill="midnightblue" stroke="midnightblue" points="1587.47,-21.24 1577,-19.65 1584.2,-27.43 1587.47,-21.24"/>
</g>
<!-- Node27&#45;&gt;Node18 -->
<g id="edge36" class="edge">
<title>Node27&#45;&gt;Node18</title>
<path fill="none" stroke="midnightblue" d="M1699.41,-56.44C1744.38,-45.98 1819.79,-28.42 1862.54,-18.47"/>
<polygon fill="midnightblue" stroke="midnightblue" points="1863.46,-21.85 1872.41,-16.18 1861.88,-15.04 1863.46,-21.85"/>
</g>
<!-- Node27&#45;&gt;Node20 -->
<g id="edge38" class="edge">
<title>Node27&#45;&gt;Node20</title>
<path fill="none" stroke="midnightblue" d="M1588.5,-59.25C1451.57,-48.62 1161.24,-26.1 1031.57,-16.04"/>
<polygon fill="midnightblue" stroke="midnightblue" points="1031.63,-12.53 1021.39,-15.25 1031.09,-19.51 1031.63,-12.53"/>
</g>
<!-- Node28 -->
<g id="node28" class="node">
<title>Node28</title>
<g id="a_node28"><a xlink:title=" ">
<polygon fill="white" stroke="#bfbfbf" points="2194.65,-0.5 2194.65,-19.5 2292.65,-19.5 2292.65,-0.5 2194.65,-0.5"/>
<text text-anchor="middle" x="2243.65" y="-7.5" font-family="Helvetica,sans-Serif" font-size="10.00">AMReX_Vector.H</text>
</a>
</g>
</g>
<!-- Node27&#45;&gt;Node28 -->
<g id="edge39" class="edge">
<title>Node27&#45;&gt;Node28</title>
<path fill="none" stroke="midnightblue" d="M1736.83,-58.11C1853.47,-47.26 2077.48,-26.44 2184.24,-16.52"/>
<polygon fill="midnightblue" stroke="midnightblue" points="2184.87,-19.98 2194.51,-15.57 2184.22,-13.01 2184.87,-19.98"/>
</g>
<!-- Node29&#45;&gt;Node10 -->
<g id="edge42" class="edge">
<title>Node29&#45;&gt;Node10</title>
<path fill="none" stroke="midnightblue" d="M1884.87,-117.98C1902,-103.96 1930.95,-75.64 1913.65,-56 1896.95,-37.03 1757.38,-23.93 1658.83,-16.94"/>
<polygon fill="midnightblue" stroke="midnightblue" points="1659.05,-13.45 1648.83,-16.24 1658.57,-20.43 1659.05,-13.45"/>
</g>
<!-- Node29&#45;&gt;Node18 -->
<g id="edge41" class="edge">
<title>Node29&#45;&gt;Node18</title>
<path fill="none" stroke="midnightblue" d="M1896.01,-117.91C1913.32,-109.92 1936.06,-96.2 1946.65,-76 1956.74,-56.75 1937.03,-37.69 1919.05,-25.23"/>
<polygon fill="midnightblue" stroke="midnightblue" points="1920.79,-22.19 1910.5,-19.68 1916.98,-28.06 1920.79,-22.19"/>
</g>
<!-- Node29&#45;&gt;Node30 -->
<g id="edge43" class="edge">
<title>Node29&#45;&gt;Node30</title>
<path fill="none" stroke="midnightblue" d="M1870.07,-117.98C1866.47,-109.4 1860.81,-95.93 1856.21,-84.98"/>
<polygon fill="midnightblue" stroke="midnightblue" points="1859.33,-83.37 1852.23,-75.51 1852.87,-86.08 1859.33,-83.37"/>
</g>
<!-- Node31&#45;&gt;Node10 -->
<g id="edge47" class="edge">
<title>Node31&#45;&gt;Node10</title>
<path fill="none" stroke="midnightblue" d="M2155.36,-117.9C2122.16,-102.7 2049.42,-71.26 1984.65,-56 1874.97,-30.16 1745.81,-19.14 1659.12,-14.45"/>
<polygon fill="midnightblue" stroke="midnightblue" points="1659.19,-10.95 1649.03,-13.92 1658.83,-17.94 1659.19,-10.95"/>
</g>
<!-- Node31&#45;&gt;Node18 -->
<g id="edge45" class="edge">
<title>Node31&#45;&gt;Node18</title>
<path fill="none" stroke="midnightblue" d="M2166.88,-117.54C2154.88,-102.35 2128.36,-71.69 2098.65,-56 2042.89,-26.56 1968.77,-16.35 1926.95,-12.83"/>
<polygon fill="midnightblue" stroke="midnightblue" points="1927.04,-9.33 1916.8,-12.06 1926.51,-16.31 1927.04,-9.33"/>
</g>
<!-- Node31&#45;&gt;Node20 -->
<g id="edge49" class="edge">
<title>Node31&#45;&gt;Node20</title>
<path fill="none" stroke="midnightblue" d="M2141.18,-117.96C2103.49,-108.03 2039.51,-91.06 1984.65,-76 1953.04,-67.32 1946.01,-61.26 1913.65,-56 1827.27,-41.97 1230.81,-20.19 1031.41,-13.22"/>
<polygon fill="midnightblue" stroke="midnightblue" points="1031.49,-9.73 1021.38,-12.87 1031.25,-16.72 1031.49,-9.73"/>
</g>
<!-- Node31&#45;&gt;Node27 -->
<g id="edge48" class="edge">
<title>Node31&#45;&gt;Node27</title>
<path fill="none" stroke="midnightblue" d="M2100.44,-117.98C2006.62,-107.05 1844.37,-88.16 1745.93,-76.7"/>
<polygon fill="midnightblue" stroke="midnightblue" points="1746.07,-73.19 1735.73,-75.51 1745.26,-80.14 1746.07,-73.19"/>
</g>
<!-- Node31&#45;&gt;Node28 -->
<g id="edge50" class="edge">
<title>Node31&#45;&gt;Node28</title>
<path fill="none" stroke="midnightblue" d="M2232.04,-117.96C2279.06,-109.76 2339.71,-95.68 2354.65,-76 2374.48,-49.88 2335.02,-32.33 2297.78,-22.12"/>
<polygon fill="midnightblue" stroke="midnightblue" points="2298.45,-18.68 2287.89,-19.56 2296.69,-25.46 2298.45,-18.68"/>
</g>
<!-- Node32 -->
<g id="node32" class="node">
<title>Node32</title>
<g id="a_node32"><a xlink:title=" ">
<polygon fill="white" stroke="#bfbfbf" points="2151.15,-56.5 2151.15,-75.5 2196.15,-75.5 2196.15,-56.5 2151.15,-56.5"/>
<text text-anchor="middle" x="2173.65" y="-63.5" font-family="Helvetica,sans-Serif" font-size="10.00">utility</text>
</a>
</g>
</g>
<!-- Node31&#45;&gt;Node32 -->
<g id="edge46" class="edge">
<title>Node31&#45;&gt;Node32</title>
<path fill="none" stroke="midnightblue" d="M2173.65,-117.98C2173.65,-109.58 2173.65,-96.48 2173.65,-85.66"/>
<polygon fill="midnightblue" stroke="midnightblue" points="2177.15,-85.51 2173.65,-75.51 2170.15,-85.51 2177.15,-85.51"/>
</g>
<!-- Node33 -->
<g id="node33" class="node">
<title>Node33</title>
<g id="a_node33"><a xlink:title=" ">
<polygon fill="white" stroke="#bfbfbf" points="2214.15,-56.5 2214.15,-75.5 2345.15,-75.5 2345.15,-56.5 2214.15,-56.5"/>
<text text-anchor="middle" x="2279.65" y="-63.5" font-family="Helvetica,sans-Serif" font-size="10.00">AMReX_PhysBCFunct.H</text>
</a>
</g>
</g>
<!-- Node31&#45;&gt;Node33 -->
<g id="edge51" class="edge">
<title>Node31&#45;&gt;Node33</title>
<path fill="none" stroke="midnightblue" d="M2188.84,-117.98C2206.31,-108.17 2235.23,-91.93 2255.73,-80.42"/>
<polygon fill="midnightblue" stroke="midnightblue" points="2257.49,-83.46 2264.49,-75.51 2254.06,-77.35 2257.49,-83.46"/>
</g>
<!-- Node34&#45;&gt;Node5 -->
<g id="edge57" class="edge">
<title>Node34&#45;&gt;Node5</title>
<path fill="none" stroke="midnightblue" d="M1115.83,-184.98C1094.11,-182.8 1070.48,-180.62 1048.65,-179 720.28,-154.61 636.67,-171.8 308.65,-143 294.36,-141.75 279.1,-140.05 264.55,-138.26"/>
<polygon fill="midnightblue" stroke="midnightblue" points="264.97,-134.79 254.61,-137.02 264.09,-141.73 264.97,-134.79"/>
</g>
<!-- Node34&#45;&gt;Node10 -->
<g id="edge65" class="edge">
<title>Node34&#45;&gt;Node10</title>
<path fill="none" stroke="midnightblue" d="M1271.54,-179.97C1307.64,-171.99 1350.46,-160.05 1386.65,-143 1407.96,-132.96 1409.43,-124.09 1429.65,-112 1461.05,-93.24 1474.58,-98.19 1503.65,-76 1521.66,-62.26 1538.25,-42.12 1548.83,-27.91"/>
<polygon fill="midnightblue" stroke="midnightblue" points="1551.85,-29.71 1554.87,-19.56 1546.18,-25.61 1551.85,-29.71"/>
</g>
<!-- Node34&#45;&gt;Node18 -->
<g id="edge56" class="edge">
<title>Node34&#45;&gt;Node18</title>
<path fill="none" stroke="midnightblue" d="M1271.17,-179.99C1326.32,-169.69 1395.15,-155.24 1421.65,-143 1442.39,-133.42 1441.5,-120.62 1462.65,-112 1580.07,-64.15 1624.73,-114.14 1745.65,-76 1763.85,-70.26 1766.34,-64.04 1783.65,-56 1809.94,-43.79 1840.5,-31.54 1862.9,-22.91"/>
<polygon fill="midnightblue" stroke="midnightblue" points="1864.17,-26.17 1872.26,-19.33 1861.67,-19.63 1864.17,-26.17"/>
</g>
<!-- Node34&#45;&gt;Node26 -->
<g id="edge66" class="edge">
<title>Node34&#45;&gt;Node26</title>
<path fill="none" stroke="midnightblue" d="M1191.13,-179.46C1188.02,-163.06 1182.2,-135.21 1174.65,-112 1171.7,-102.93 1167.68,-93.14 1164.09,-85.01"/>
<polygon fill="midnightblue" stroke="midnightblue" points="1167.22,-83.45 1159.89,-75.79 1160.85,-86.35 1167.22,-83.45"/>
</g>
<!-- Node35 -->
<g id="node35" class="node">
<title>Node35</title>
<g id="a_node35"><a xlink:href="_coll_mgr_8_h.html" target="_top" xlink:title=" ">
<polygon fill="white" stroke="black" points="490.15,-118 490.15,-137 627.15,-137 627.15,-118 490.15,-118"/>
<text text-anchor="middle" x="558.65" y="-125" font-family="Helvetica,sans-Serif" font-size="10.00">amr&#45;wind/core/CollMgr.H</text>
</a>
</g>
</g>
<!-- Node34&#45;&gt;Node35 -->
<g id="edge58" class="edge">
<title>Node34&#45;&gt;Node35</title>
<path fill="none" stroke="midnightblue" d="M1115.78,-185.53C1094.06,-183.36 1070.44,-181.04 1048.65,-179 865.64,-161.85 818.78,-167.83 636.65,-143 628.22,-141.85 619.31,-140.41 610.64,-138.89"/>
<polygon fill="midnightblue" stroke="midnightblue" points="611.09,-135.41 600.63,-137.07 609.85,-142.3 611.09,-135.41"/>
</g>
<!-- Node36 -->
<g id="node36" class="node">
<title>Node36</title>
<g id="a_node36"><a xlink:href="_p_d_e_fields_8_h.html" target="_top" xlink:title=" ">
<polygon fill="white" stroke="black" points="1222.15,-112.5 1222.15,-142.5 1377.15,-142.5 1377.15,-112.5 1222.15,-112.5"/>
<text text-anchor="start" x="1230.15" y="-130.5" font-family="Helvetica,sans-Serif" font-size="10.00">amr&#45;wind/equation_systems</text>
<text text-anchor="middle" x="1299.65" y="-119.5" font-family="Helvetica,sans-Serif" font-size="10.00">/PDEFields.H</text>
</a>
</g>
</g>
<!-- Node34&#45;&gt;Node36 -->
<g id="edge63" class="edge">
<title>Node34&#45;&gt;Node36</title>
<path fill="none" stroke="midnightblue" d="M1216.65,-179.4C1231.65,-170.2 1251.44,-158.07 1267.93,-147.95"/>
<polygon fill="midnightblue" stroke="midnightblue" points="1270,-150.79 1276.7,-142.58 1266.34,-144.82 1270,-150.79"/>
</g>
<!-- Node35&#45;&gt;Node4 -->
<g id="edge61" class="edge">
<title>Node35&#45;&gt;Node4</title>
<path fill="none" stroke="midnightblue" d="M564.67,-117.98C570.91,-109.14 580.82,-95.09 588.67,-83.98"/>
<polygon fill="midnightblue" stroke="midnightblue" points="591.74,-85.7 594.64,-75.51 586.02,-81.66 591.74,-85.7"/>
</g>
<!-- Node35&#45;&gt;Node6 -->
<g id="edge60" class="edge">
<title>Node35&#45;&gt;Node6</title>
<path fill="none" stroke="midnightblue" d="M540.31,-117.98C518.83,-107.99 483.03,-91.35 458.2,-79.81"/>
<polygon fill="midnightblue" stroke="midnightblue" points="459.5,-76.55 448.96,-75.51 456.55,-82.9 459.5,-76.55"/>
</g>
<!-- Node35&#45;&gt;Node18 -->
<g id="edge59" class="edge">
<title>Node35&#45;&gt;Node18</title>
<path fill="none" stroke="midnightblue" d="M545.76,-117.98C526.05,-103.96 492.61,-75.65 511.65,-56 555.98,-10.26 1593.99,-22.21 1657.65,-20 1730.8,-17.46 1816.63,-14.11 1862.26,-12.3"/>
<polygon fill="midnightblue" stroke="midnightblue" points="1862.58,-15.79 1872.43,-11.89 1862.3,-8.79 1862.58,-15.79"/>
</g>
<!-- Node35&#45;&gt;Node28 -->
<g id="edge62" class="edge">
<title>Node35&#45;&gt;Node28</title>
<path fill="none" stroke="midnightblue" d="M552.75,-117.78C543.5,-102.95 528.28,-72.8 544.65,-56 571.43,-28.51 1887.29,-21.04 1925.65,-20 2015.87,-17.55 2120.47,-14.56 2184.34,-12.72"/>
<polygon fill="midnightblue" stroke="midnightblue" points="2184.73,-16.21 2194.62,-12.42 2184.53,-9.21 2184.73,-16.21"/>
</g>
<!-- Node37 -->
<g id="node37" class="node">
<title>Node37</title>
<g id="a_node37"><a xlink:title=" ">
<polygon fill="white" stroke="#bfbfbf" points="1244.65,-56.5 1244.65,-75.5 1292.65,-75.5 1292.65,-56.5 1244.65,-56.5"/>
<text text-anchor="middle" x="1268.65" y="-63.5" font-family="Helvetica,sans-Serif" font-size="10.00">iosfwd</text>
</a>
</g>
</g>
<!-- Node36&#45;&gt;Node37 -->
<g id="edge64" class="edge">
<title>Node36&#45;&gt;Node37</title>
<path fill="none" stroke="midnightblue" d="M1292.3,-112.4C1287.99,-104.11 1282.49,-93.55 1277.88,-84.71"/>
<polygon fill="midnightblue" stroke="midnightblue" points="1280.89,-82.91 1273.16,-75.66 1274.68,-86.14 1280.89,-82.91"/>
</g>
<!-- Node38&#45;&gt;Node5 -->
<g id="edge68" class="edge">
<title>Node38&#45;&gt;Node5</title>
<path fill="none" stroke="midnightblue" d="M356.82,-184.87C324.04,-173.47 266.15,-153.35 229.14,-140.49"/>
<polygon fill="midnightblue" stroke="midnightblue" points="229.88,-137.04 219.29,-137.06 227.58,-143.65 229.88,-137.04"/>
</g>
<!-- Node38&#45;&gt;Node20 -->
<g id="edge70" class="edge">
<title>Node38&#45;&gt;Node20</title>
<path fill="none" stroke="midnightblue" d="M335.7,-184.95C260.88,-171 120.79,-144.69 118.65,-143 86.59,-117.61 60.48,-85.65 88.65,-56 116.59,-26.6 703.5,-15 901.83,-11.91"/>
<polygon fill="midnightblue" stroke="midnightblue" points="902.16,-15.4 912.1,-11.75 902.05,-8.4 902.16,-15.4"/>
</g>
<!-- Node38&#45;&gt;Node35 -->
<g id="edge69" class="edge">
<title>Node38&#45;&gt;Node35</title>
<path fill="none" stroke="midnightblue" d="M405.16,-184.87C436.05,-173.52 490.51,-153.52 525.56,-140.65"/>
<polygon fill="midnightblue" stroke="midnightblue" points="527.15,-143.8 535.33,-137.06 524.74,-137.23 527.15,-143.8"/>
</g>
<!-- Node39 -->
<g id="node39" class="node">
<title>Node39</title>
<g id="a_node39"><a xlink:title=" ">
<polygon fill="white" stroke="#bfbfbf" points="318.15,-118 318.15,-137 433.15,-137 433.15,-118 318.15,-118"/>
<text text-anchor="middle" x="375.65" y="-125" font-family="Helvetica,sans-Serif" font-size="10.00">AMReX_Geometry.H</text>
</a>
</g>
</g>
<!-- Node38&#45;&gt;Node39 -->
<g id="edge71" class="edge">
<title>Node38&#45;&gt;Node39</title>
<path fill="none" stroke="midnightblue" d="M380.84,-184.73C379.96,-175.18 378.52,-159.62 377.39,-147.28"/>
<polygon fill="midnightblue" stroke="midnightblue" points="380.85,-146.76 376.45,-137.13 373.88,-147.41 380.85,-146.76"/>
</g>
<!-- Node40&#45;&gt;Node5 -->
<g id="edge74" class="edge">
<title>Node40&#45;&gt;Node5</title>
<path fill="none" stroke="midnightblue" d="M506.35,-184.94C440.75,-173.06 322.28,-151.61 251.81,-138.85"/>
<polygon fill="midnightblue" stroke="midnightblue" points="252.24,-135.37 241.77,-137.03 250.99,-142.26 252.24,-135.37"/>
</g>
<!-- Node40&#45;&gt;Node20 -->
<g id="edge76" class="edge">
<title>Node40&#45;&gt;Node20</title>
<path fill="none" stroke="midnightblue" d="M540.81,-184.99C526.09,-175.15 501.32,-158.34 480.65,-143 462.87,-129.81 459.24,-125.45 441.65,-112 420.18,-95.59 404.86,-100.11 392.65,-76 388.64,-68.07 386.62,-62.53 392.65,-56 426.62,-19.26 758.63,-12.46 901.65,-11.25"/>
<polygon fill="midnightblue" stroke="midnightblue" points="902.05,-14.74 912.03,-11.16 902,-7.74 902.05,-14.74"/>
</g>
<!-- Node40&#45;&gt;Node22 -->
<g id="edge75" class="edge">
<title>Node40&#45;&gt;Node22</title>
<path fill="none" stroke="midnightblue" d="M574.1,-184.87C600.68,-173.65 647.29,-153.98 677.82,-141.09"/>
<polygon fill="midnightblue" stroke="midnightblue" points="679.26,-144.28 687.12,-137.17 676.54,-137.83 679.26,-144.28"/>
</g>
<!-- Node40&#45;&gt;Node35 -->
<g id="edge73" class="edge">
<title>Node40&#45;&gt;Node35</title>
<path fill="none" stroke="midnightblue" d="M554.33,-184.73C555.06,-175.18 556.26,-159.62 557.21,-147.28"/>
<polygon fill="midnightblue" stroke="midnightblue" points="560.71,-147.37 557.99,-137.13 553.73,-146.83 560.71,-147.37"/>
</g>
<!-- Node40&#45;&gt;Node39 -->
<g id="edge77" class="edge">
<title>Node40&#45;&gt;Node39</title>
<path fill="none" stroke="midnightblue" d="M530.01,-184.87C498.94,-173.52 444.18,-153.52 408.93,-140.65"/>
<polygon fill="midnightblue" stroke="midnightblue" points="409.7,-137.21 399.1,-137.06 407.3,-143.78 409.7,-137.21"/>
</g>
<!-- Node41&#45;&gt;Node4 -->
<g id="edge80" class="edge">
<title>Node41&#45;&gt;Node4</title>
<path fill="none" stroke="midnightblue" d="M2398.11,-121.74C2360.58,-118.47 2308.51,-114.3 2262.65,-112 1566.46,-77.04 1390.5,-117.25 694.65,-76 682.63,-75.29 669.77,-74.24 657.55,-73.12"/>
<polygon fill="midnightblue" stroke="midnightblue" points="657.74,-69.62 647.46,-72.16 657.08,-76.59 657.74,-69.62"/>
</g>
<!-- Node41&#45;&gt;Node18 -->
<g id="edge79" class="edge">
<title>Node41&#45;&gt;Node18</title>
<path fill="none" stroke="midnightblue" d="M2435.72,-112.23C2418.43,-95.53 2387.23,-68.56 2354.65,-56 2276.23,-25.77 2018.13,-14.88 1926.93,-11.92"/>
<polygon fill="midnightblue" stroke="midnightblue" points="1926.76,-8.42 1916.65,-11.6 1926.54,-15.41 1926.76,-8.42"/>
</g>
<!-- Node41&#45;&gt;Node28 -->
<g id="edge82" class="edge">
<title>Node41&#45;&gt;Node28</title>
<path fill="none" stroke="midnightblue" d="M2448.77,-112.44C2446.99,-96.46 2441.65,-70.69 2425.65,-56 2392.56,-25.63 2342.27,-14.93 2302.93,-11.51"/>
<polygon fill="midnightblue" stroke="midnightblue" points="2303.15,-8.02 2292.92,-10.78 2302.64,-15 2303.15,-8.02"/>
</g>
<!-- Node42 -->
<g id="node42" class="node">
<title>Node42</title>
<g id="a_node42"><a xlink:title=" ">
<polygon fill="white" stroke="#bfbfbf" points="2477.65,-56.5 2477.65,-75.5 2509.65,-75.5 2509.65,-56.5 2477.65,-56.5"/>
<text text-anchor="middle" x="2493.65" y="-63.5" font-family="Helvetica,sans-Serif" font-size="10.00">set</text>
</a>
</g>
</g>
<!-- Node41&#45;&gt;Node42 -->
<g id="edge81" class="edge">
<title>Node41&#45;&gt;Node42</title>
<path fill="none" stroke="midnightblue" d="M2460.08,-112.4C2466.41,-103.84 2474.52,-92.87 2481.19,-83.86"/>
<polygon fill="midnightblue" stroke="midnightblue" points="2484.12,-85.78 2487.25,-75.66 2478.49,-81.62 2484.12,-85.78"/>
</g>
<!-- Node43 -->
<g id="node43" class="node">
<title>Node43</title>
<g id="a_node43"><a xlink:title=" ">
<polygon fill="white" stroke="#bfbfbf" points="2528.15,-56.5 2528.15,-75.5 2639.15,-75.5 2639.15,-56.5 2528.15,-56.5"/>
<text text-anchor="middle" x="2583.65" y="-63.5" font-family="Helvetica,sans-Serif" font-size="10.00">AMReX_BoxArray.H</text>
</a>
</g>
</g>
<!-- Node41&#45;&gt;Node43 -->
<g id="edge83" class="edge">
<title>Node41&#45;&gt;Node43</title>
<path fill="none" stroke="midnightblue" d="M2481.41,-112.4C2503.69,-102.51 2533.24,-89.38 2554.84,-79.79"/>
<polygon fill="midnightblue" stroke="midnightblue" points="2556.43,-82.91 2564.15,-75.66 2553.59,-76.52 2556.43,-82.91"/>
</g>
<!-- Node44 -->
<g id="node44" class="node">
<title>Node44</title>
<g id="a_node44"><a xlink:title=" ">
<polygon fill="white" stroke="#bfbfbf" points="2657.15,-56.5 2657.15,-75.5 2824.15,-75.5 2824.15,-56.5 2657.15,-56.5"/>
<text text-anchor="middle" x="2740.65" y="-63.5" font-family="Helvetica,sans-Serif" font-size="10.00">AMReX_DistributionMapping.H</text>
</a>
</g>
</g>
<!-- Node41&#45;&gt;Node44 -->
<g id="edge84" class="edge">
<title>Node41&#45;&gt;Node44</title>
<path fill="none" stroke="midnightblue" d="M2501.34,-115.93C2554.28,-105.11 2636.09,-88.38 2689.01,-77.56"/>
<polygon fill="midnightblue" stroke="midnightblue" points="2689.77,-80.98 2698.86,-75.54 2688.37,-74.12 2689.77,-80.98"/>
</g>
<!-- Node45&#45;&gt;Node20 -->
<g id="edge87" class="edge">
<title>Node45&#45;&gt;Node20</title>
<path fill="none" stroke="midnightblue" d="M61.25,-179.4C44.62,-171.46 27.16,-159.71 17.65,-143 -1.47,-109.39 -9.03,-83.98 17.65,-56 48.14,-24.03 692.35,-14.05 901.62,-11.65"/>
<polygon fill="midnightblue" stroke="midnightblue" points="901.88,-15.15 911.84,-11.53 901.8,-8.15 901.88,-15.15"/>
</g>
<!-- Node45&#45;&gt;Node22 -->
<g id="edge86" class="edge">
<title>Node45&#45;&gt;Node22</title>
<path fill="none" stroke="midnightblue" d="M158.22,-180.56C161.4,-179.99 164.56,-179.46 167.65,-179 373.98,-148.21 429.01,-171.65 635.65,-143 643.47,-141.92 651.71,-140.51 659.72,-139"/>
<polygon fill="midnightblue" stroke="midnightblue" points="660.54,-142.4 669.69,-137.05 659.2,-135.53 660.54,-142.4"/>
</g>
</g>
</svg>
