<?xml version="1.0" encoding="UTF-8" standalone="no"?>
<!DOCTYPE svg PUBLIC "-//W3C//DTD SVG 1.1//EN"
 "http://www.w3.org/Graphics/SVG/1.1/DTD/svg11.dtd">
<!-- Generated by graphviz version 2.43.0 (0)
 -->
<!-- Title: TwoPhaseTransport.H Pages: 1 -->
<svg width="2126pt" height="319pt"
 viewBox="0.00 0.00 2126.25 319.00" xmlns="http://www.w3.org/2000/svg" xmlns:xlink="http://www.w3.org/1999/xlink">
<g id="graph0" class="graph" transform="scale(1 1) rotate(0) translate(4 315)">
<title>TwoPhaseTransport.H</title>
<polygon fill="white" stroke="transparent" points="-4,4 -4,-315 2122.25,-315 2122.25,4 -4,4"/>
<!-- Node1 -->
<g id="node1" class="node">
<title>Node1</title>
<g id="a_node1"><a xlink:title=" ">
<polygon fill="#bfbfbf" stroke="black" points="547,-291.5 547,-310.5 667,-310.5 667,-291.5 547,-291.5"/>
<text text-anchor="middle" x="607" y="-298.5" font-family="Helvetica,sans-Serif" font-size="10.00">TwoPhaseTransport.H</text>
</a>
</g>
</g>
<!-- Node2 -->
<g id="node2" class="node">
<title>Node2</title>
<g id="a_node2"><a xlink:href="_multi_phase_8_h.html" target="_top" xlink:title=" ">
<polygon fill="white" stroke="black" points="526.5,-224.5 526.5,-254.5 687.5,-254.5 687.5,-224.5 526.5,-224.5"/>
<text text-anchor="start" x="534.5" y="-242.5" font-family="Helvetica,sans-Serif" font-size="10.00">amr&#45;wind/physics/multiphase</text>
<text text-anchor="middle" x="607" y="-231.5" font-family="Helvetica,sans-Serif" font-size="10.00">/MultiPhase.H</text>
</a>
</g>
</g>
<!-- Node1&#45;&gt;Node2 -->
<g id="edge1" class="edge">
<title>Node1&#45;&gt;Node2</title>
<path fill="none" stroke="midnightblue" d="M607,-291.48C607,-284.47 607,-274.19 607,-264.7"/>
<polygon fill="midnightblue" stroke="midnightblue" points="610.5,-264.52 607,-254.52 603.5,-264.52 610.5,-264.52"/>
</g>
<!-- Node22 -->
<g id="node22" class="node">
<title>Node22</title>
<g id="a_node22"><a xlink:href="_transport_model_8_h.html" target="_top" xlink:title=" ">
<polygon fill="white" stroke="black" points="362,-224.5 362,-254.5 508,-254.5 508,-224.5 362,-224.5"/>
<text text-anchor="start" x="370" y="-242.5" font-family="Helvetica,sans-Serif" font-size="10.00">amr&#45;wind/transport</text>
<text text-anchor="middle" x="435" y="-231.5" font-family="Helvetica,sans-Serif" font-size="10.00">_models/TransportModel.H</text>
</a>
</g>
</g>
<!-- Node1&#45;&gt;Node22 -->
<g id="edge31" class="edge">
<title>Node1&#45;&gt;Node22</title>
<path fill="none" stroke="midnightblue" d="M582.36,-291.48C557.1,-282.74 517.12,-268.91 485.17,-257.86"/>
<polygon fill="midnightblue" stroke="midnightblue" points="486.13,-254.48 475.54,-254.52 483.84,-261.1 486.13,-254.48"/>
</g>
<!-- Node32 -->
<g id="node32" class="node">
<title>Node32</title>
<g id="a_node32"><a xlink:title=" ">
<polygon fill="white" stroke="#bfbfbf" points="705.5,-230 705.5,-249 824.5,-249 824.5,-230 705.5,-230"/>
<text text-anchor="middle" x="765" y="-237" font-family="Helvetica,sans-Serif" font-size="10.00">AMReX_ParmParse.H</text>
</a>
</g>
</g>
<!-- Node1&#45;&gt;Node32 -->
<g id="edge57" class="edge">
<title>Node1&#45;&gt;Node32</title>
<path fill="none" stroke="midnightblue" d="M629.64,-291.48C656.74,-281.27 702.31,-264.11 733,-252.55"/>
<polygon fill="midnightblue" stroke="midnightblue" points="734.28,-255.81 742.4,-249.01 731.81,-249.26 734.28,-255.81"/>
</g>
<!-- Node3 -->
<g id="node3" class="node">
<title>Node3</title>
<g id="a_node3"><a xlink:href="_physics_8_h.html" target="_top" xlink:title=" ">
<polygon fill="white" stroke="black" points="374.5,-168.5 374.5,-187.5 511.5,-187.5 511.5,-168.5 374.5,-168.5"/>
<text text-anchor="middle" x="443" y="-175.5" font-family="Helvetica,sans-Serif" font-size="10.00">amr&#45;wind/core/Physics.H</text>
</a>
</g>
</g>
<!-- Node2&#45;&gt;Node3 -->
<g id="edge2" class="edge">
<title>Node2&#45;&gt;Node3</title>
<path fill="none" stroke="midnightblue" d="M568.13,-224.4C540.25,-214.28 503.06,-200.79 476.49,-191.15"/>
<polygon fill="midnightblue" stroke="midnightblue" points="477.46,-187.78 466.86,-187.66 475.07,-194.36 477.46,-187.78"/>
</g>
<!-- Node15 -->
<g id="node15" class="node">
<title>Node15</title>
<g id="a_node15"><a xlink:href="_field_8_h.html" target="_top" xlink:title=" ">
<polygon fill="white" stroke="black" points="770,-112.5 770,-131.5 894,-131.5 894,-112.5 770,-112.5"/>
<text text-anchor="middle" x="832" y="-119.5" font-family="Helvetica,sans-Serif" font-size="10.00">amr&#45;wind/core/Field.H</text>
</a>
</g>
</g>
<!-- Node2&#45;&gt;Node15 -->
<g id="edge16" class="edge">
<title>Node2&#45;&gt;Node15</title>
<path fill="none" stroke="midnightblue" d="M634.59,-224.34C678.55,-201.77 763.89,-157.97 806.5,-136.09"/>
<polygon fill="midnightblue" stroke="midnightblue" points="808.1,-139.2 815.4,-131.52 804.9,-132.98 808.1,-139.2"/>
</g>
<!-- Node4 -->
<g id="node4" class="node">
<title>Node4</title>
<g id="a_node4"><a xlink:href="_factory_8_h.html" target="_top" xlink:title=" ">
<polygon fill="white" stroke="black" points="89,-112.5 89,-131.5 223,-131.5 223,-112.5 89,-112.5"/>
<text text-anchor="middle" x="156" y="-119.5" font-family="Helvetica,sans-Serif" font-size="10.00">amr&#45;wind/core/Factory.H</text>
</a>
</g>
</g>
<!-- Node3&#45;&gt;Node4 -->
<g id="edge3" class="edge">
<title>Node3&#45;&gt;Node4</title>
<path fill="none" stroke="midnightblue" d="M397.52,-168.44C347.04,-158.94 265.54,-143.61 211.38,-133.42"/>
<polygon fill="midnightblue" stroke="midnightblue" points="211.74,-129.93 201.26,-131.52 210.44,-136.81 211.74,-129.93"/>
</g>
<!-- Node10 -->
<g id="node10" class="node">
<title>Node10</title>
<g id="a_node10"><a xlink:href="_coll_mgr_8_h.html" target="_top" xlink:title=" ">
<polygon fill="white" stroke="black" points="374.5,-112.5 374.5,-131.5 511.5,-131.5 511.5,-112.5 374.5,-112.5"/>
<text text-anchor="middle" x="443" y="-119.5" font-family="Helvetica,sans-Serif" font-size="10.00">amr&#45;wind/core/CollMgr.H</text>
</a>
</g>
</g>
<!-- Node3&#45;&gt;Node10 -->
<g id="edge9" class="edge">
<title>Node3&#45;&gt;Node10</title>
<path fill="none" stroke="midnightblue" d="M443,-168.08C443,-161.01 443,-150.86 443,-141.99"/>
<polygon fill="midnightblue" stroke="midnightblue" points="446.5,-141.75 443,-131.75 439.5,-141.75 446.5,-141.75"/>
</g>
<!-- Node13 -->
<g id="node13" class="node">
<title>Node13</title>
<g id="a_node13"><a xlink:title=" ">
<polygon fill="white" stroke="#bfbfbf" points="1563.5,-0.5 1563.5,-19.5 1672.5,-19.5 1672.5,-0.5 1563.5,-0.5"/>
<text text-anchor="middle" x="1618" y="-7.5" font-family="Helvetica,sans-Serif" font-size="10.00">AMReX_MultiFab.H</text>
</a>
</g>
</g>
<!-- Node3&#45;&gt;Node13 -->
<g id="edge14" class="edge">
<title>Node3&#45;&gt;Node13</title>
<path fill="none" stroke="midnightblue" d="M511.61,-176.86C709.8,-176 1280.61,-170.17 1463,-132 1496.81,-124.92 1586.35,-102.91 1608,-76 1618.39,-63.08 1620.21,-43.91 1619.84,-29.73"/>
<polygon fill="midnightblue" stroke="midnightblue" points="1623.33,-29.4 1619.2,-19.65 1616.34,-29.85 1623.33,-29.4"/>
</g>
<!-- Node14 -->
<g id="node14" class="node">
<title>Node14</title>
<g id="a_node14"><a xlink:title=" ">
<polygon fill="white" stroke="#bfbfbf" points="241.5,-112.5 241.5,-131.5 356.5,-131.5 356.5,-112.5 241.5,-112.5"/>
<text text-anchor="middle" x="299" y="-119.5" font-family="Helvetica,sans-Serif" font-size="10.00">AMReX_Geometry.H</text>
</a>
</g>
</g>
<!-- Node3&#45;&gt;Node14 -->
<g id="edge15" class="edge">
<title>Node3&#45;&gt;Node14</title>
<path fill="none" stroke="midnightblue" d="M420.18,-168.44C396.17,-159.44 358.17,-145.19 331.13,-135.05"/>
<polygon fill="midnightblue" stroke="midnightblue" points="332.3,-131.75 321.71,-131.52 329.84,-138.3 332.3,-131.75"/>
</g>
<!-- Node5 -->
<g id="node5" class="node">
<title>Node5</title>
<g id="a_node5"><a xlink:title=" ">
<polygon fill="white" stroke="#bfbfbf" points="304,-56.5 304,-75.5 362,-75.5 362,-56.5 304,-56.5"/>
<text text-anchor="middle" x="333" y="-63.5" font-family="Helvetica,sans-Serif" font-size="10.00">memory</text>
</a>
</g>
</g>
<!-- Node4&#45;&gt;Node5 -->
<g id="edge4" class="edge">
<title>Node4&#45;&gt;Node5</title>
<path fill="none" stroke="midnightblue" d="M184.05,-112.44C214.08,-103.28 261.91,-88.69 295.24,-78.52"/>
<polygon fill="midnightblue" stroke="midnightblue" points="296.54,-81.78 305.09,-75.52 294.5,-75.09 296.54,-81.78"/>
</g>
<!-- Node6 -->
<g id="node6" class="node">
<title>Node6</title>
<g id="a_node6"><a xlink:title=" ">
<polygon fill="white" stroke="#bfbfbf" points="380.5,-56.5 380.5,-75.5 473.5,-75.5 473.5,-56.5 380.5,-56.5"/>
<text text-anchor="middle" x="427" y="-63.5" font-family="Helvetica,sans-Serif" font-size="10.00">unordered_map</text>
</a>
</g>
</g>
<!-- Node4&#45;&gt;Node6 -->
<g id="edge5" class="edge">
<title>Node4&#45;&gt;Node6</title>
<path fill="none" stroke="midnightblue" d="M198.94,-112.44C246.51,-102.96 323.24,-87.67 374.39,-77.48"/>
<polygon fill="midnightblue" stroke="midnightblue" points="375.14,-80.9 384.26,-75.52 373.77,-74.04 375.14,-80.9"/>
</g>
<!-- Node7 -->
<g id="node7" class="node">
<title>Node7</title>
<g id="a_node7"><a xlink:title=" ">
<polygon fill="white" stroke="#bfbfbf" points="0,-56.5 0,-75.5 60,-75.5 60,-56.5 0,-56.5"/>
<text text-anchor="middle" x="30" y="-63.5" font-family="Helvetica,sans-Serif" font-size="10.00">iostream</text>
</a>
</g>
</g>
<!-- Node4&#45;&gt;Node7 -->
<g id="edge6" class="edge">
<title>Node4&#45;&gt;Node7</title>
<path fill="none" stroke="midnightblue" d="M136.03,-112.44C115.39,-103.6 82.94,-89.69 59.37,-79.59"/>
<polygon fill="midnightblue" stroke="midnightblue" points="60.44,-76.24 49.87,-75.52 57.68,-82.67 60.44,-76.24"/>
</g>
<!-- Node8 -->
<g id="node8" class="node">
<title>Node8</title>
<g id="a_node8"><a xlink:title=" ">
<polygon fill="white" stroke="#bfbfbf" points="78,-56.5 78,-75.5 168,-75.5 168,-56.5 78,-56.5"/>
<text text-anchor="middle" x="123" y="-63.5" font-family="Helvetica,sans-Serif" font-size="10.00">AMReX_Print.H</text>
</a>
</g>
</g>
<!-- Node4&#45;&gt;Node8 -->
<g id="edge7" class="edge">
<title>Node4&#45;&gt;Node8</title>
<path fill="none" stroke="midnightblue" d="M150.55,-112.08C145.99,-104.61 139.33,-93.72 133.71,-84.52"/>
<polygon fill="midnightblue" stroke="midnightblue" points="136.55,-82.46 128.35,-75.75 130.58,-86.11 136.55,-82.46"/>
</g>
<!-- Node9 -->
<g id="node9" class="node">
<title>Node9</title>
<g id="a_node9"><a xlink:title=" ">
<polygon fill="white" stroke="#bfbfbf" points="186,-56.5 186,-75.5 248,-75.5 248,-56.5 186,-56.5"/>
<text text-anchor="middle" x="217" y="-63.5" font-family="Helvetica,sans-Serif" font-size="10.00">AMReX.H</text>
</a>
</g>
</g>
<!-- Node4&#45;&gt;Node9 -->
<g id="edge8" class="edge">
<title>Node4&#45;&gt;Node9</title>
<path fill="none" stroke="midnightblue" d="M165.8,-112.32C174.82,-104.34 188.41,-92.31 199.32,-82.65"/>
<polygon fill="midnightblue" stroke="midnightblue" points="201.85,-85.08 207.02,-75.83 197.21,-79.84 201.85,-85.08"/>
</g>
<!-- Node10&#45;&gt;Node5 -->
<g id="edge11" class="edge">
<title>Node10&#45;&gt;Node5</title>
<path fill="none" stroke="midnightblue" d="M425.33,-112.32C407.61,-103.62 380.1,-90.12 359.71,-80.11"/>
<polygon fill="midnightblue" stroke="midnightblue" points="361.15,-76.92 350.63,-75.65 358.06,-83.2 361.15,-76.92"/>
</g>
<!-- Node10&#45;&gt;Node6 -->
<g id="edge12" class="edge">
<title>Node10&#45;&gt;Node6</title>
<path fill="none" stroke="midnightblue" d="M440.36,-112.08C438.21,-104.85 435.12,-94.41 432.45,-85.4"/>
<polygon fill="midnightblue" stroke="midnightblue" points="435.79,-84.34 429.59,-75.75 429.08,-86.33 435.79,-84.34"/>
</g>
<!-- Node11 -->
<g id="node11" class="node">
<title>Node11</title>
<g id="a_node11"><a xlink:title=" ">
<polygon fill="white" stroke="#bfbfbf" points="845,-0.5 845,-19.5 889,-19.5 889,-0.5 845,-0.5"/>
<text text-anchor="middle" x="867" y="-7.5" font-family="Helvetica,sans-Serif" font-size="10.00">string</text>
</a>
</g>
</g>
<!-- Node10&#45;&gt;Node11 -->
<g id="edge10" class="edge">
<title>Node10&#45;&gt;Node11</title>
<path fill="none" stroke="midnightblue" d="M455.41,-112.44C476.62,-98.25 521.67,-70.04 564,-56 659.08,-24.47 778.28,-14.98 834.63,-12.16"/>
<polygon fill="midnightblue" stroke="midnightblue" points="834.89,-15.65 844.72,-11.7 834.57,-8.66 834.89,-15.65"/>
</g>
<!-- Node12 -->
<g id="node12" class="node">
<title>Node12</title>
<g id="a_node12"><a xlink:title=" ">
<polygon fill="white" stroke="#bfbfbf" points="453,-0.5 453,-19.5 551,-19.5 551,-0.5 453,-0.5"/>
<text text-anchor="middle" x="502" y="-7.5" font-family="Helvetica,sans-Serif" font-size="10.00">AMReX_Vector.H</text>
</a>
</g>
</g>
<!-- Node10&#45;&gt;Node12 -->
<g id="edge13" class="edge">
<title>Node10&#45;&gt;Node12</title>
<path fill="none" stroke="midnightblue" d="M393.68,-112.49C355.42,-104.77 306.95,-92.13 295,-76 289.71,-68.86 289.42,-62.92 295,-56 313.27,-33.34 388.09,-21.49 442.54,-15.76"/>
<polygon fill="midnightblue" stroke="midnightblue" points="443.2,-19.21 452.8,-14.72 442.5,-12.24 443.2,-19.21"/>
</g>
<!-- Node15&#45;&gt;Node5 -->
<g id="edge18" class="edge">
<title>Node15&#45;&gt;Node5</title>
<path fill="none" stroke="midnightblue" d="M769.76,-117.6C682.86,-112.27 520.11,-100.13 372.53,-76.05"/>
<polygon fill="midnightblue" stroke="midnightblue" points="372.82,-72.55 362.38,-74.37 371.67,-79.46 372.82,-72.55"/>
</g>
<!-- Node15&#45;&gt;Node6 -->
<g id="edge19" class="edge">
<title>Node15&#45;&gt;Node6</title>
<path fill="none" stroke="midnightblue" d="M769.81,-113.18C700.88,-104.43 586.43,-89.7 488,-76 486.54,-75.8 485.06,-75.59 483.57,-75.38"/>
<polygon fill="midnightblue" stroke="midnightblue" points="484.01,-71.91 473.62,-73.96 483.02,-78.84 484.01,-71.91"/>
</g>
<!-- Node15&#45;&gt;Node11 -->
<g id="edge17" class="edge">
<title>Node15&#45;&gt;Node11</title>
<path fill="none" stroke="midnightblue" d="M769.87,-120.05C698.36,-116.74 595.53,-103.86 635,-56 659.94,-25.75 776.93,-15.59 834.64,-12.38"/>
<polygon fill="midnightblue" stroke="midnightblue" points="834.89,-15.87 844.69,-11.86 834.52,-8.88 834.89,-15.87"/>
</g>
<!-- Node15&#45;&gt;Node13 -->
<g id="edge21" class="edge">
<title>Node15&#45;&gt;Node13</title>
<path fill="none" stroke="midnightblue" d="M894.13,-120.84C1040.16,-119.83 1401.49,-113.51 1516,-76 1548.53,-65.34 1581,-41.9 1600.29,-26.28"/>
<polygon fill="midnightblue" stroke="midnightblue" points="1602.72,-28.8 1608.17,-19.72 1598.25,-23.42 1602.72,-28.8"/>
</g>
<!-- Node16 -->
<g id="node16" class="node">
<title>Node16</title>
<g id="a_node16"><a xlink:title=" ">
<polygon fill="white" stroke="#bfbfbf" points="644,-56.5 644,-75.5 708,-75.5 708,-56.5 644,-56.5"/>
<text text-anchor="middle" x="676" y="-63.5" font-family="Helvetica,sans-Serif" font-size="10.00">algorithm</text>
</a>
</g>
</g>
<!-- Node15&#45;&gt;Node16 -->
<g id="edge20" class="edge">
<title>Node15&#45;&gt;Node16</title>
<path fill="none" stroke="midnightblue" d="M807.28,-112.44C781.15,-103.4 739.74,-89.06 710.42,-78.92"/>
<polygon fill="midnightblue" stroke="midnightblue" points="711.2,-75.48 700.6,-75.52 708.91,-82.1 711.2,-75.48"/>
</g>
<!-- Node17 -->
<g id="node17" class="node">
<title>Node17</title>
<g id="a_node17"><a xlink:title=" ">
<polygon fill="white" stroke="#bfbfbf" points="726.5,-56.5 726.5,-75.5 825.5,-75.5 825.5,-56.5 726.5,-56.5"/>
<text text-anchor="middle" x="776" y="-63.5" font-family="Helvetica,sans-Serif" font-size="10.00">AMReX_BCRec.H</text>
</a>
</g>
</g>
<!-- Node15&#45;&gt;Node17 -->
<g id="edge22" class="edge">
<title>Node15&#45;&gt;Node17</title>
<path fill="none" stroke="midnightblue" d="M823,-112.32C814.81,-104.42 802.49,-92.55 792.53,-82.94"/>
<polygon fill="midnightblue" stroke="midnightblue" points="794.79,-80.26 785.16,-75.83 789.93,-85.29 794.79,-80.26"/>
</g>
<!-- Node18 -->
<g id="node18" class="node">
<title>Node18</title>
<g id="a_node18"><a xlink:title=" ">
<polygon fill="white" stroke="#bfbfbf" points="843.5,-56.5 843.5,-75.5 930.5,-75.5 930.5,-56.5 843.5,-56.5"/>
<text text-anchor="middle" x="887" y="-63.5" font-family="Helvetica,sans-Serif" font-size="10.00">AMReX_Gpu.H</text>
</a>
</g>
</g>
<!-- Node15&#45;&gt;Node18 -->
<g id="edge23" class="edge">
<title>Node15&#45;&gt;Node18</title>
<path fill="none" stroke="midnightblue" d="M841.08,-112.08C849.17,-104.14 861.2,-92.34 870.91,-82.8"/>
<polygon fill="midnightblue" stroke="midnightblue" points="873.4,-85.25 878.09,-75.75 868.5,-80.26 873.4,-85.25"/>
</g>
<!-- Node19 -->
<g id="node19" class="node">
<title>Node19</title>
<g id="a_node19"><a xlink:href="incflo__enums_8_h.html" target="_top" xlink:title=" ">
<polygon fill="white" stroke="black" points="948.5,-56.5 948.5,-75.5 1089.5,-75.5 1089.5,-56.5 948.5,-56.5"/>
<text text-anchor="middle" x="1019" y="-63.5" font-family="Helvetica,sans-Serif" font-size="10.00">amr&#45;wind/incflo_enums.H</text>
</a>
</g>
</g>
<!-- Node15&#45;&gt;Node19 -->
<g id="edge24" class="edge">
<title>Node15&#45;&gt;Node19</title>
<path fill="none" stroke="midnightblue" d="M861.63,-112.44C893.5,-103.24 944.33,-88.56 979.56,-78.39"/>
<polygon fill="midnightblue" stroke="midnightblue" points="980.87,-81.65 989.51,-75.52 978.93,-74.93 980.87,-81.65"/>
</g>
<!-- Node20 -->
<g id="node20" class="node">
<title>Node20</title>
<g id="a_node20"><a xlink:href="_field_desc_types_8_h.html" target="_top" xlink:title=" ">
<polygon fill="white" stroke="black" points="1699,-0.5 1699,-19.5 1875,-19.5 1875,-0.5 1699,-0.5"/>
<text text-anchor="middle" x="1787" y="-7.5" font-family="Helvetica,sans-Serif" font-size="10.00">amr&#45;wind/core/FieldDescTypes.H</text>
</a>
</g>
</g>
<!-- Node15&#45;&gt;Node20 -->
<g id="edge25" class="edge">
<title>Node15&#45;&gt;Node20</title>
<path fill="none" stroke="midnightblue" d="M894.43,-121.37C1019.66,-121.18 1310.07,-115.98 1550,-76 1623.56,-63.74 1707.15,-37.92 1752.78,-22.77"/>
<polygon fill="midnightblue" stroke="midnightblue" points="1754.09,-26.03 1762.46,-19.53 1751.87,-19.39 1754.09,-26.03"/>
</g>
<!-- Node21 -->
<g id="node21" class="node">
<title>Node21</title>
<g id="a_node21"><a xlink:href="_view_field_8_h.html" target="_top" xlink:title=" ">
<polygon fill="white" stroke="black" points="1146,-56.5 1146,-75.5 1294,-75.5 1294,-56.5 1146,-56.5"/>
<text text-anchor="middle" x="1220" y="-63.5" font-family="Helvetica,sans-Serif" font-size="10.00">amr&#45;wind/core/ViewField.H</text>
</a>
</g>
</g>
<!-- Node15&#45;&gt;Node21 -->
<g id="edge26" class="edge">
<title>Node15&#45;&gt;Node21</title>
<path fill="none" stroke="midnightblue" d="M893.48,-112.44C962.87,-102.79 1075.58,-87.1 1148.75,-76.92"/>
<polygon fill="midnightblue" stroke="midnightblue" points="1149.39,-80.36 1158.81,-75.52 1148.42,-73.43 1149.39,-80.36"/>
</g>
<!-- Node21&#45;&gt;Node11 -->
<g id="edge27" class="edge">
<title>Node21&#45;&gt;Node11</title>
<path fill="none" stroke="midnightblue" d="M1164.07,-56.44C1089.42,-45.03 959.68,-25.18 899.44,-15.96"/>
<polygon fill="midnightblue" stroke="midnightblue" points="899.79,-12.48 889.37,-14.42 898.73,-19.39 899.79,-12.48"/>
</g>
<!-- Node21&#45;&gt;Node12 -->
<g id="edge30" class="edge">
<title>Node21&#45;&gt;Node12</title>
<path fill="none" stroke="midnightblue" d="M1145.87,-59.42C1003.01,-48.68 692.2,-25.31 561.65,-15.49"/>
<polygon fill="midnightblue" stroke="midnightblue" points="561.68,-11.98 551.44,-14.72 561.15,-18.96 561.68,-11.98"/>
</g>
<!-- Node21&#45;&gt;Node13 -->
<g id="edge29" class="edge">
<title>Node21&#45;&gt;Node13</title>
<path fill="none" stroke="midnightblue" d="M1283.06,-56.44C1356.86,-46.43 1478.42,-29.94 1553.03,-19.82"/>
<polygon fill="midnightblue" stroke="midnightblue" points="1553.79,-23.24 1563.23,-18.43 1552.85,-16.31 1553.79,-23.24"/>
</g>
<!-- Node21&#45;&gt;Node20 -->
<g id="edge28" class="edge">
<title>Node21&#45;&gt;Node20</title>
<path fill="none" stroke="midnightblue" d="M1294.2,-56.99C1297.51,-56.65 1300.79,-56.32 1304,-56 1437.14,-42.67 1591.05,-28.55 1688.68,-19.76"/>
<polygon fill="midnightblue" stroke="midnightblue" points="1689.18,-23.23 1698.83,-18.85 1688.55,-16.26 1689.18,-23.23"/>
</g>
<!-- Node22&#45;&gt;Node4 -->
<g id="edge32" class="edge">
<title>Node22&#45;&gt;Node4</title>
<path fill="none" stroke="midnightblue" d="M401.07,-224.45C346.09,-201.69 238.42,-157.12 186.04,-135.44"/>
<polygon fill="midnightblue" stroke="midnightblue" points="187.21,-132.13 176.63,-131.54 184.54,-138.6 187.21,-132.13"/>
</g>
<!-- Node23 -->
<g id="node23" class="node">
<title>Node23</title>
<g id="a_node23"><a xlink:href="_field_repo_8_h.html" target="_top" xlink:title=" ">
<polygon fill="white" stroke="black" points="1529.5,-168.5 1529.5,-187.5 1678.5,-187.5 1678.5,-168.5 1529.5,-168.5"/>
<text text-anchor="middle" x="1604" y="-175.5" font-family="Helvetica,sans-Serif" font-size="10.00">amr&#45;wind/core/FieldRepo.H</text>
</a>
</g>
</g>
<!-- Node22&#45;&gt;Node23 -->
<g id="edge33" class="edge">
<title>Node22&#45;&gt;Node23</title>
<path fill="none" stroke="midnightblue" d="M508.25,-225.05C511.2,-224.66 514.13,-224.31 517,-224 888.8,-183.61 1335.75,-178.78 1519.16,-178.66"/>
<polygon fill="midnightblue" stroke="midnightblue" points="1519.28,-182.16 1529.28,-178.66 1519.28,-175.16 1519.28,-182.16"/>
</g>
<!-- Node23&#45;&gt;Node6 -->
<g id="edge35" class="edge">
<title>Node23&#45;&gt;Node6</title>
<path fill="none" stroke="midnightblue" d="M1529.13,-177.61C1322.42,-178.68 746.97,-177.38 564,-132 558.2,-130.56 491.68,-98.45 453.51,-79.91"/>
<polygon fill="midnightblue" stroke="midnightblue" points="455,-76.74 444.47,-75.52 451.94,-83.04 455,-76.74"/>
</g>
<!-- Node23&#45;&gt;Node11 -->
<g id="edge34" class="edge">
<title>Node23&#45;&gt;Node11</title>
<path fill="none" stroke="midnightblue" d="M1529.24,-176.15C1351.21,-173.63 906.24,-164.2 761,-132 695.98,-117.59 659.27,-131.2 622,-76 617.03,-68.63 616.31,-62.83 622,-56 648.7,-23.95 774.29,-14.65 834.57,-12.01"/>
<polygon fill="midnightblue" stroke="midnightblue" points="834.83,-15.5 844.68,-11.61 834.55,-8.51 834.83,-15.5"/>
</g>
<!-- Node23&#45;&gt;Node13 -->
<g id="edge55" class="edge">
<title>Node23&#45;&gt;Node13</title>
<path fill="none" stroke="midnightblue" d="M1625.48,-168.36C1640.39,-161.09 1659.11,-149.12 1668,-132 1674.79,-118.92 1674.64,-80.91 1663,-56 1657.56,-44.35 1647.76,-33.99 1638.7,-26.16"/>
<polygon fill="midnightblue" stroke="midnightblue" points="1640.7,-23.28 1630.73,-19.71 1636.3,-28.72 1640.7,-23.28"/>
</g>
<!-- Node23&#45;&gt;Node15 -->
<g id="edge41" class="edge">
<title>Node23&#45;&gt;Node15</title>
<path fill="none" stroke="midnightblue" d="M1529.28,-171.77C1380.91,-161.4 1050.86,-138.31 904.41,-128.06"/>
<polygon fill="midnightblue" stroke="midnightblue" points="904.41,-124.56 894.19,-127.35 903.92,-131.54 904.41,-124.56"/>
</g>
<!-- Node23&#45;&gt;Node20 -->
<g id="edge36" class="edge">
<title>Node23&#45;&gt;Node20</title>
<path fill="none" stroke="midnightblue" d="M1678.74,-173.97C1807.6,-166.96 2062.75,-144.54 2114,-76 2119.32,-68.88 2119.84,-62.7 2114,-56 2099,-38.8 1976.08,-25.58 1885.34,-18.05"/>
<polygon fill="midnightblue" stroke="midnightblue" points="1885.53,-14.55 1875.28,-17.23 1884.96,-21.53 1885.53,-14.55"/>
</g>
<!-- Node24 -->
<g id="node24" class="node">
<title>Node24</title>
<g id="a_node24"><a xlink:href="_field_utils_8_h.html" target="_top" xlink:title=" ">
<polygon fill="white" stroke="black" points="1959,-56.5 1959,-75.5 2105,-75.5 2105,-56.5 1959,-56.5"/>
<text text-anchor="middle" x="2032" y="-63.5" font-family="Helvetica,sans-Serif" font-size="10.00">amr&#45;wind/core/FieldUtils.H</text>
</a>
</g>
</g>
<!-- Node23&#45;&gt;Node24 -->
<g id="edge37" class="edge">
<title>Node23&#45;&gt;Node24</title>
<path fill="none" stroke="midnightblue" d="M1678.55,-170.13C1735.41,-163.66 1815.21,-151.91 1883,-132 1928.25,-118.71 1977.92,-95.07 2006.95,-80.26"/>
<polygon fill="midnightblue" stroke="midnightblue" points="2008.69,-83.3 2015.97,-75.6 2005.48,-77.08 2008.69,-83.3"/>
</g>
<!-- Node26 -->
<g id="node26" class="node">
<title>Node26</title>
<g id="a_node26"><a xlink:href="_int_field_8_h.html" target="_top" xlink:title=" ">
<polygon fill="white" stroke="black" points="1716.5,-112.5 1716.5,-131.5 1853.5,-131.5 1853.5,-112.5 1716.5,-112.5"/>
<text text-anchor="middle" x="1785" y="-119.5" font-family="Helvetica,sans-Serif" font-size="10.00">amr&#45;wind/core/IntField.H</text>
</a>
</g>
</g>
<!-- Node23&#45;&gt;Node26 -->
<g id="edge42" class="edge">
<title>Node23&#45;&gt;Node26</title>
<path fill="none" stroke="midnightblue" d="M1632.68,-168.44C1663.53,-159.24 1712.73,-144.56 1746.83,-134.39"/>
<polygon fill="midnightblue" stroke="midnightblue" points="1747.87,-137.73 1756.45,-131.52 1745.87,-131.02 1747.87,-137.73"/>
</g>
<!-- Node27 -->
<g id="node27" class="node">
<title>Node27</title>
<g id="a_node27"><a xlink:title=" ">
<polygon fill="white" stroke="#bfbfbf" points="1829,-56.5 1829,-75.5 1941,-75.5 1941,-56.5 1829,-56.5"/>
<text text-anchor="middle" x="1885" y="-63.5" font-family="Helvetica,sans-Serif" font-size="10.00">AMReX_iMultiFab.H</text>
</a>
</g>
</g>
<!-- Node23&#45;&gt;Node27 -->
<g id="edge56" class="edge">
<title>Node23&#45;&gt;Node27</title>
<path fill="none" stroke="midnightblue" d="M1678.67,-172.42C1745.12,-166.88 1835.88,-155.23 1863,-132 1876.41,-120.51 1881.67,-100.54 1883.72,-85.76"/>
<polygon fill="midnightblue" stroke="midnightblue" points="1887.21,-85.99 1884.74,-75.69 1880.25,-85.28 1887.21,-85.99"/>
</g>
<!-- Node28 -->
<g id="node28" class="node">
<title>Node28</title>
<g id="a_node28"><a xlink:href="_scratch_field_8_h.html" target="_top" xlink:title=" ">
<polygon fill="white" stroke="black" points="1294,-112.5 1294,-131.5 1454,-131.5 1454,-112.5 1294,-112.5"/>
<text text-anchor="middle" x="1374" y="-119.5" font-family="Helvetica,sans-Serif" font-size="10.00">amr&#45;wind/core/ScratchField.H</text>
</a>
</g>
</g>
<!-- Node23&#45;&gt;Node28 -->
<g id="edge46" class="edge">
<title>Node23&#45;&gt;Node28</title>
<path fill="none" stroke="midnightblue" d="M1567.56,-168.44C1527.6,-159.06 1463.41,-143.99 1420.02,-133.8"/>
<polygon fill="midnightblue" stroke="midnightblue" points="1420.81,-130.39 1410.27,-131.52 1419.21,-137.21 1420.81,-130.39"/>
</g>
<!-- Node31 -->
<g id="node31" class="node">
<title>Node31</title>
<g id="a_node31"><a xlink:title=" ">
<polygon fill="white" stroke="#bfbfbf" points="1549,-112.5 1549,-131.5 1659,-131.5 1659,-112.5 1549,-112.5"/>
<text text-anchor="middle" x="1604" y="-119.5" font-family="Helvetica,sans-Serif" font-size="10.00">AMReX_AmrCore.H</text>
</a>
</g>
</g>
<!-- Node23&#45;&gt;Node31 -->
<g id="edge54" class="edge">
<title>Node23&#45;&gt;Node31</title>
<path fill="none" stroke="midnightblue" d="M1604,-168.08C1604,-161.01 1604,-150.86 1604,-141.99"/>
<polygon fill="midnightblue" stroke="midnightblue" points="1607.5,-141.75 1604,-131.75 1600.5,-141.75 1607.5,-141.75"/>
</g>
<!-- Node24&#45;&gt;Node13 -->
<g id="edge39" class="edge">
<title>Node24&#45;&gt;Node13</title>
<path fill="none" stroke="midnightblue" d="M1966.4,-56.44C1888.72,-46.31 1760.15,-29.54 1682.81,-19.45"/>
<polygon fill="midnightblue" stroke="midnightblue" points="1683.08,-15.96 1672.72,-18.14 1682.18,-22.9 1683.08,-15.96"/>
</g>
<!-- Node24&#45;&gt;Node20 -->
<g id="edge38" class="edge">
<title>Node24&#45;&gt;Node20</title>
<path fill="none" stroke="midnightblue" d="M1993.18,-56.44C1950.44,-47.02 1881.67,-31.87 1835.43,-21.68"/>
<polygon fill="midnightblue" stroke="midnightblue" points="1836.16,-18.25 1825.64,-19.52 1834.65,-25.09 1836.16,-18.25"/>
</g>
<!-- Node25 -->
<g id="node25" class="node">
<title>Node25</title>
<g id="a_node25"><a xlink:title=" ">
<polygon fill="white" stroke="#bfbfbf" points="1970,-0.5 1970,-19.5 2094,-19.5 2094,-0.5 1970,-0.5"/>
<text text-anchor="middle" x="2032" y="-7.5" font-family="Helvetica,sans-Serif" font-size="10.00">AMReX_Interpolater.H</text>
</a>
</g>
</g>
<!-- Node24&#45;&gt;Node25 -->
<g id="edge40" class="edge">
<title>Node24&#45;&gt;Node25</title>
<path fill="none" stroke="midnightblue" d="M2032,-56.08C2032,-49.01 2032,-38.86 2032,-29.99"/>
<polygon fill="midnightblue" stroke="midnightblue" points="2035.5,-29.75 2032,-19.75 2028.5,-29.75 2035.5,-29.75"/>
</g>
<!-- Node26&#45;&gt;Node11 -->
<g id="edge43" class="edge">
<title>Node26&#45;&gt;Node11</title>
<path fill="none" stroke="midnightblue" d="M1756.65,-112.48C1707.95,-98.22 1605.03,-69.74 1516,-56 1281.43,-19.79 994.63,-12.7 899.42,-11.33"/>
<polygon fill="midnightblue" stroke="midnightblue" points="899.33,-7.83 889.28,-11.19 899.24,-14.83 899.33,-7.83"/>
</g>
<!-- Node26&#45;&gt;Node20 -->
<g id="edge44" class="edge">
<title>Node26&#45;&gt;Node20</title>
<path fill="none" stroke="midnightblue" d="M1785.16,-112.37C1785.48,-94.62 1786.22,-53.67 1786.66,-29.6"/>
<polygon fill="midnightblue" stroke="midnightblue" points="1790.16,-29.65 1786.84,-19.59 1783.16,-29.53 1790.16,-29.65"/>
</g>
<!-- Node26&#45;&gt;Node27 -->
<g id="edge45" class="edge">
<title>Node26&#45;&gt;Node27</title>
<path fill="none" stroke="midnightblue" d="M1801.07,-112.32C1816.96,-103.74 1841.51,-90.49 1859.96,-80.52"/>
<polygon fill="midnightblue" stroke="midnightblue" points="1861.84,-83.49 1868.97,-75.65 1858.51,-77.33 1861.84,-83.49"/>
</g>
<!-- Node28&#45;&gt;Node11 -->
<g id="edge47" class="edge">
<title>Node28&#45;&gt;Node11</title>
<path fill="none" stroke="midnightblue" d="M1298.32,-112.46C1251.04,-105.71 1189.39,-94.3 1137,-76 1118.98,-69.71 1117.01,-62.33 1099,-56 1030.2,-31.81 945.09,-19.52 899.49,-14.26"/>
<polygon fill="midnightblue" stroke="midnightblue" points="899.64,-10.76 889.32,-13.13 898.87,-17.72 899.64,-10.76"/>
</g>
<!-- Node28&#45;&gt;Node12 -->
<g id="edge52" class="edge">
<title>Node28&#45;&gt;Node12</title>
<path fill="none" stroke="midnightblue" d="M1293.84,-120.07C1129.05,-117.52 757.43,-108.27 635,-76 593.39,-65.03 549.31,-40.61 523.8,-25.02"/>
<polygon fill="midnightblue" stroke="midnightblue" points="525.62,-22.03 515.28,-19.72 521.92,-27.97 525.62,-22.03"/>
</g>
<!-- Node28&#45;&gt;Node13 -->
<g id="edge51" class="edge">
<title>Node28&#45;&gt;Node13</title>
<path fill="none" stroke="midnightblue" d="M1447.54,-112.48C1500.22,-105.09 1565.51,-92.92 1587,-76 1601.56,-64.54 1609.65,-44.56 1613.88,-29.77"/>
<polygon fill="midnightblue" stroke="midnightblue" points="1617.37,-30.25 1616.41,-19.7 1610.58,-28.54 1617.37,-30.25"/>
</g>
<!-- Node28&#45;&gt;Node20 -->
<g id="edge49" class="edge">
<title>Node28&#45;&gt;Node20</title>
<path fill="none" stroke="midnightblue" d="M1454.11,-114.49C1554.1,-105.85 1714.95,-90.05 1739,-76 1757.5,-65.19 1771.01,-44.14 1778.9,-28.92"/>
<polygon fill="midnightblue" stroke="midnightblue" points="1782.25,-30.03 1783.46,-19.51 1775.95,-26.98 1782.25,-30.03"/>
</g>
<!-- Node28&#45;&gt;Node21 -->
<g id="edge50" class="edge">
<title>Node28&#45;&gt;Node21</title>
<path fill="none" stroke="midnightblue" d="M1349.6,-112.44C1323.8,-103.4 1282.92,-89.06 1253.98,-78.92"/>
<polygon fill="midnightblue" stroke="midnightblue" points="1254.88,-75.52 1244.29,-75.52 1252.57,-82.13 1254.88,-75.52"/>
</g>
<!-- Node29 -->
<g id="node29" class="node">
<title>Node29</title>
<g id="a_node29"><a xlink:title=" ">
<polygon fill="white" stroke="#bfbfbf" points="1312.5,-56.5 1312.5,-75.5 1357.5,-75.5 1357.5,-56.5 1312.5,-56.5"/>
<text text-anchor="middle" x="1335" y="-63.5" font-family="Helvetica,sans-Serif" font-size="10.00">utility</text>
</a>
</g>
</g>
<!-- Node28&#45;&gt;Node29 -->
<g id="edge48" class="edge">
<title>Node28&#45;&gt;Node29</title>
<path fill="none" stroke="midnightblue" d="M1367.56,-112.08C1362.05,-104.46 1353.97,-93.26 1347.24,-83.94"/>
<polygon fill="midnightblue" stroke="midnightblue" points="1350.01,-81.81 1341.32,-75.75 1344.34,-85.91 1350.01,-81.81"/>
</g>
<!-- Node30 -->
<g id="node30" class="node">
<title>Node30</title>
<g id="a_node30"><a xlink:title=" ">
<polygon fill="white" stroke="#bfbfbf" points="1375.5,-56.5 1375.5,-75.5 1506.5,-75.5 1506.5,-56.5 1375.5,-56.5"/>
<text text-anchor="middle" x="1441" y="-63.5" font-family="Helvetica,sans-Serif" font-size="10.00">AMReX_PhysBCFunct.H</text>
</a>
</g>
</g>
<!-- Node28&#45;&gt;Node30 -->
<g id="edge53" class="edge">
<title>Node28&#45;&gt;Node30</title>
<path fill="none" stroke="midnightblue" d="M1384.76,-112.32C1394.77,-104.26 1409.89,-92.08 1421.93,-82.37"/>
<polygon fill="midnightblue" stroke="midnightblue" points="1424.45,-84.83 1430.04,-75.83 1420.06,-79.38 1424.45,-84.83"/>
</g>
</g>
</svg>
