<?xml version="1.0" encoding="UTF-8" standalone="no"?>
<!DOCTYPE svg PUBLIC "-//W3C//DTD SVG 1.1//EN"
 "http://www.w3.org/Graphics/SVG/1.1/DTD/svg11.dtd">
<!-- Generated by graphviz version 2.43.0 (0)
 -->
<!-- Title: UDF.cpp Pages: 1 -->
<svg width="2163pt" height="263pt"
 viewBox="0.00 0.00 2162.50 263.00" xmlns="http://www.w3.org/2000/svg" xmlns:xlink="http://www.w3.org/1999/xlink">
<g id="graph0" class="graph" transform="scale(1 1) rotate(0) translate(4 259)">
<title>UDF.cpp</title>
<polygon fill="white" stroke="transparent" points="-4,4 -4,-259 2158.5,-259 2158.5,4 -4,4"/>
<!-- Node1 -->
<g id="node1" class="node">
<title>Node1</title>
<g id="a_node1"><a xlink:title=" ">
<polygon fill="#bfbfbf" stroke="black" points="1689,-235.5 1689,-254.5 1745,-254.5 1745,-235.5 1689,-235.5"/>
<text text-anchor="middle" x="1717" y="-242.5" font-family="Helvetica,sans-Serif" font-size="10.00">UDF.cpp</text>
</a>
</g>
</g>
<!-- Node2 -->
<g id="node2" class="node">
<title>Node2</title>
<g id="a_node2"><a xlink:href="_u_d_f_8_h.html" target="_top" xlink:title=" ">
<polygon fill="white" stroke="black" points="1312.5,-168.5 1312.5,-198.5 1439.5,-198.5 1439.5,-168.5 1312.5,-168.5"/>
<text text-anchor="start" x="1320.5" y="-186.5" font-family="Helvetica,sans-Serif" font-size="10.00">amr&#45;wind/physics/udfs</text>
<text text-anchor="middle" x="1376" y="-175.5" font-family="Helvetica,sans-Serif" font-size="10.00">/UDF.H</text>
</a>
</g>
</g>
<!-- Node1&#45;&gt;Node2 -->
<g id="edge1" class="edge">
<title>Node1&#45;&gt;Node2</title>
<path fill="none" stroke="midnightblue" d="M1688.95,-239.34C1640.84,-231.31 1539.5,-214.26 1454,-199 1452.7,-198.77 1451.39,-198.53 1450.08,-198.3"/>
<polygon fill="midnightblue" stroke="midnightblue" points="1450.3,-194.78 1439.84,-196.44 1449.05,-201.67 1450.3,-194.78"/>
</g>
<!-- Node10 -->
<g id="node10" class="node">
<title>Node10</title>
<g id="a_node10"><a xlink:href="_field_8_h.html" target="_top" xlink:title=" ">
<polygon fill="white" stroke="black" points="748,-112.5 748,-131.5 872,-131.5 872,-112.5 748,-112.5"/>
<text text-anchor="middle" x="810" y="-119.5" font-family="Helvetica,sans-Serif" font-size="10.00">amr&#45;wind/core/Field.H</text>
</a>
</g>
</g>
<!-- Node1&#45;&gt;Node10 -->
<g id="edge9" class="edge">
<title>Node1&#45;&gt;Node10</title>
<path fill="none" stroke="midnightblue" d="M1688.98,-242.92C1644.11,-240.25 1554.26,-231 1486,-199 1466.26,-189.75 1468.29,-175.97 1448,-168 1331.51,-122.26 1010.63,-143.36 886,-132 884.73,-131.88 883.46,-131.77 882.17,-131.64"/>
<polygon fill="midnightblue" stroke="midnightblue" points="882.48,-128.16 872.18,-130.64 881.79,-135.12 882.48,-128.16"/>
</g>
<!-- Node19 -->
<g id="node19" class="node">
<title>Node19</title>
<g id="a_node19"><a xlink:href="_field_repo_8_h.html" target="_top" xlink:title=" ">
<polygon fill="white" stroke="black" points="1495.5,-174 1495.5,-193 1644.5,-193 1644.5,-174 1495.5,-174"/>
<text text-anchor="middle" x="1570" y="-181" font-family="Helvetica,sans-Serif" font-size="10.00">amr&#45;wind/core/FieldRepo.H</text>
</a>
</g>
</g>
<!-- Node1&#45;&gt;Node19 -->
<g id="edge24" class="edge">
<title>Node1&#45;&gt;Node19</title>
<path fill="none" stroke="midnightblue" d="M1695.94,-235.48C1670.94,-225.36 1629.06,-208.4 1600.51,-196.85"/>
<polygon fill="midnightblue" stroke="midnightblue" points="1601.61,-193.52 1591.02,-193.01 1598.98,-200.01 1601.61,-193.52"/>
</g>
<!-- Node28 -->
<g id="node28" class="node">
<title>Node28</title>
<g id="a_node28"><a xlink:href="_linear_profile_8_h.html" target="_top" xlink:title=" ">
<polygon fill="white" stroke="black" points="1890.5,-168.5 1890.5,-198.5 2017.5,-198.5 2017.5,-168.5 1890.5,-168.5"/>
<text text-anchor="start" x="1898.5" y="-186.5" font-family="Helvetica,sans-Serif" font-size="10.00">amr&#45;wind/physics/udfs</text>
<text text-anchor="middle" x="1954" y="-175.5" font-family="Helvetica,sans-Serif" font-size="10.00">/LinearProfile.H</text>
</a>
</g>
</g>
<!-- Node1&#45;&gt;Node28 -->
<g id="edge48" class="edge">
<title>Node1&#45;&gt;Node28</title>
<path fill="none" stroke="midnightblue" d="M1745.12,-236.94C1780.15,-228.15 1841.12,-212.84 1888.17,-201.03"/>
<polygon fill="midnightblue" stroke="midnightblue" points="1889.14,-204.39 1897.99,-198.56 1887.44,-197.6 1889.14,-204.39"/>
</g>
<!-- Node30 -->
<g id="node30" class="node">
<title>Node30</title>
<g id="a_node30"><a xlink:href="_power_law_profile_8_h.html" target="_top" xlink:title=" ">
<polygon fill="white" stroke="black" points="1745.5,-168.5 1745.5,-198.5 1872.5,-198.5 1872.5,-168.5 1745.5,-168.5"/>
<text text-anchor="start" x="1753.5" y="-186.5" font-family="Helvetica,sans-Serif" font-size="10.00">amr&#45;wind/physics/udfs</text>
<text text-anchor="middle" x="1809" y="-175.5" font-family="Helvetica,sans-Serif" font-size="10.00">/PowerLawProfile.H</text>
</a>
</g>
</g>
<!-- Node1&#45;&gt;Node30 -->
<g id="edge51" class="edge">
<title>Node1&#45;&gt;Node30</title>
<path fill="none" stroke="midnightblue" d="M1730.18,-235.48C1742.76,-227.34 1762.16,-214.79 1778.57,-204.18"/>
<polygon fill="midnightblue" stroke="midnightblue" points="1780.82,-206.89 1787.32,-198.52 1777.02,-201.01 1780.82,-206.89"/>
</g>
<!-- Node31 -->
<g id="node31" class="node">
<title>Node31</title>
<g id="a_node31"><a xlink:title=" ">
<polygon fill="white" stroke="#bfbfbf" points="2035.5,-174 2035.5,-193 2154.5,-193 2154.5,-174 2035.5,-174"/>
<text text-anchor="middle" x="2095" y="-181" font-family="Helvetica,sans-Serif" font-size="10.00">AMReX_ParmParse.H</text>
</a>
</g>
</g>
<!-- Node1&#45;&gt;Node31 -->
<g id="edge54" class="edge">
<title>Node1&#45;&gt;Node31</title>
<path fill="none" stroke="midnightblue" d="M1745.31,-240.53C1799.95,-233.68 1923.68,-217.49 2027,-199 2033.39,-197.86 2040.1,-196.55 2046.72,-195.21"/>
<polygon fill="midnightblue" stroke="midnightblue" points="2047.89,-198.54 2056.96,-193.07 2046.46,-191.68 2047.89,-198.54"/>
</g>
<!-- Node3 -->
<g id="node3" class="node">
<title>Node3</title>
<g id="a_node3"><a xlink:href="_factory_8_h.html" target="_top" xlink:title=" ">
<polygon fill="white" stroke="black" points="191,-112.5 191,-131.5 325,-131.5 325,-112.5 191,-112.5"/>
<text text-anchor="middle" x="258" y="-119.5" font-family="Helvetica,sans-Serif" font-size="10.00">amr&#45;wind/core/Factory.H</text>
</a>
</g>
</g>
<!-- Node2&#45;&gt;Node3 -->
<g id="edge2" class="edge">
<title>Node2&#45;&gt;Node3</title>
<path fill="none" stroke="midnightblue" d="M1312.28,-179.11C1119.82,-168.87 544.81,-138.26 335.39,-127.12"/>
<polygon fill="midnightblue" stroke="midnightblue" points="335.27,-123.61 325.1,-126.57 334.9,-130.6 335.27,-123.61"/>
</g>
<!-- Node9 -->
<g id="node9" class="node">
<title>Node9</title>
<g id="a_node9"><a xlink:title=" ">
<polygon fill="white" stroke="#bfbfbf" points="1741.5,-56.5 1741.5,-75.5 1828.5,-75.5 1828.5,-56.5 1741.5,-56.5"/>
<text text-anchor="middle" x="1785" y="-63.5" font-family="Helvetica,sans-Serif" font-size="10.00">AMReX_Gpu.H</text>
</a>
</g>
</g>
<!-- Node2&#45;&gt;Node9 -->
<g id="edge8" class="edge">
<title>Node2&#45;&gt;Node9</title>
<path fill="none" stroke="midnightblue" d="M1386.4,-168.37C1399.47,-151.8 1423.53,-124.97 1451,-112 1561.97,-59.63 1605.25,-92.76 1731.33,-75.97"/>
<polygon fill="midnightblue" stroke="midnightblue" points="1731.94,-79.42 1741.35,-74.56 1730.96,-72.49 1731.94,-79.42"/>
</g>
<!-- Node4 -->
<g id="node4" class="node">
<title>Node4</title>
<g id="a_node4"><a xlink:title=" ">
<polygon fill="white" stroke="#bfbfbf" points="378,-56.5 378,-75.5 436,-75.5 436,-56.5 378,-56.5"/>
<text text-anchor="middle" x="407" y="-63.5" font-family="Helvetica,sans-Serif" font-size="10.00">memory</text>
</a>
</g>
</g>
<!-- Node3&#45;&gt;Node4 -->
<g id="edge3" class="edge">
<title>Node3&#45;&gt;Node4</title>
<path fill="none" stroke="midnightblue" d="M281.61,-112.44C306.46,-103.44 345.77,-89.19 373.75,-79.05"/>
<polygon fill="midnightblue" stroke="midnightblue" points="375.29,-82.21 383.5,-75.52 372.91,-75.63 375.29,-82.21"/>
</g>
<!-- Node5 -->
<g id="node5" class="node">
<title>Node5</title>
<g id="a_node5"><a xlink:title=" ">
<polygon fill="white" stroke="#bfbfbf" points="266.5,-56.5 266.5,-75.5 359.5,-75.5 359.5,-56.5 266.5,-56.5"/>
<text text-anchor="middle" x="313" y="-63.5" font-family="Helvetica,sans-Serif" font-size="10.00">unordered_map</text>
</a>
</g>
</g>
<!-- Node3&#45;&gt;Node5 -->
<g id="edge4" class="edge">
<title>Node3&#45;&gt;Node5</title>
<path fill="none" stroke="midnightblue" d="M267.08,-112.08C275.17,-104.14 287.2,-92.34 296.91,-82.8"/>
<polygon fill="midnightblue" stroke="midnightblue" points="299.4,-85.25 304.09,-75.75 294.5,-80.26 299.4,-85.25"/>
</g>
<!-- Node6 -->
<g id="node6" class="node">
<title>Node6</title>
<g id="a_node6"><a xlink:title=" ">
<polygon fill="white" stroke="#bfbfbf" points="80,-56.5 80,-75.5 140,-75.5 140,-56.5 80,-56.5"/>
<text text-anchor="middle" x="110" y="-63.5" font-family="Helvetica,sans-Serif" font-size="10.00">iostream</text>
</a>
</g>
</g>
<!-- Node3&#45;&gt;Node6 -->
<g id="edge5" class="edge">
<title>Node3&#45;&gt;Node6</title>
<path fill="none" stroke="midnightblue" d="M234.55,-112.44C209.87,-103.44 170.81,-89.19 143.02,-79.05"/>
<polygon fill="midnightblue" stroke="midnightblue" points="143.94,-75.66 133.34,-75.52 141.54,-82.23 143.94,-75.66"/>
</g>
<!-- Node7 -->
<g id="node7" class="node">
<title>Node7</title>
<g id="a_node7"><a xlink:title=" ">
<polygon fill="white" stroke="#bfbfbf" points="158,-56.5 158,-75.5 248,-75.5 248,-56.5 158,-56.5"/>
<text text-anchor="middle" x="203" y="-63.5" font-family="Helvetica,sans-Serif" font-size="10.00">AMReX_Print.H</text>
</a>
</g>
</g>
<!-- Node3&#45;&gt;Node7 -->
<g id="edge6" class="edge">
<title>Node3&#45;&gt;Node7</title>
<path fill="none" stroke="midnightblue" d="M248.92,-112.08C240.83,-104.14 228.8,-92.34 219.09,-82.8"/>
<polygon fill="midnightblue" stroke="midnightblue" points="221.5,-80.26 211.91,-75.75 216.6,-85.25 221.5,-80.26"/>
</g>
<!-- Node8 -->
<g id="node8" class="node">
<title>Node8</title>
<g id="a_node8"><a xlink:title=" ">
<polygon fill="white" stroke="#bfbfbf" points="0,-56.5 0,-75.5 62,-75.5 62,-56.5 0,-56.5"/>
<text text-anchor="middle" x="31" y="-63.5" font-family="Helvetica,sans-Serif" font-size="10.00">AMReX.H</text>
</a>
</g>
</g>
<!-- Node3&#45;&gt;Node8 -->
<g id="edge7" class="edge">
<title>Node3&#45;&gt;Node8</title>
<path fill="none" stroke="midnightblue" d="M222.03,-112.44C181.18,-102.72 114.65,-86.9 71.87,-76.72"/>
<polygon fill="midnightblue" stroke="midnightblue" points="72.6,-73.3 62.06,-74.39 70.98,-80.11 72.6,-73.3"/>
</g>
<!-- Node10&#45;&gt;Node4 -->
<g id="edge11" class="edge">
<title>Node10&#45;&gt;Node4</title>
<path fill="none" stroke="midnightblue" d="M747.69,-115.42C676.91,-108.61 557.81,-95.73 446.45,-76.09"/>
<polygon fill="midnightblue" stroke="midnightblue" points="446.85,-72.61 436.39,-74.3 445.62,-79.5 446.85,-72.61"/>
</g>
<!-- Node10&#45;&gt;Node5 -->
<g id="edge12" class="edge">
<title>Node10&#45;&gt;Node5</title>
<path fill="none" stroke="midnightblue" d="M747.79,-115.79C664.28,-108.54 511.07,-94.36 369.87,-76.04"/>
<polygon fill="midnightblue" stroke="midnightblue" points="370.09,-72.54 359.72,-74.72 369.18,-79.48 370.09,-72.54"/>
</g>
<!-- Node10&#45;&gt;Node9 -->
<g id="edge16" class="edge">
<title>Node10&#45;&gt;Node9</title>
<path fill="none" stroke="midnightblue" d="M872.09,-118.94C1047.53,-112.96 1545.67,-94.92 1731.2,-75.91"/>
<polygon fill="midnightblue" stroke="midnightblue" points="1731.81,-79.37 1741.38,-74.83 1731.07,-72.4 1731.81,-79.37"/>
</g>
<!-- Node11 -->
<g id="node11" class="node">
<title>Node11</title>
<g id="a_node11"><a xlink:title=" ">
<polygon fill="white" stroke="#bfbfbf" points="916,-0.5 916,-19.5 960,-19.5 960,-0.5 916,-0.5"/>
<text text-anchor="middle" x="938" y="-7.5" font-family="Helvetica,sans-Serif" font-size="10.00">string</text>
</a>
</g>
</g>
<!-- Node10&#45;&gt;Node11 -->
<g id="edge10" class="edge">
<title>Node10&#45;&gt;Node11</title>
<path fill="none" stroke="midnightblue" d="M813.16,-112.37C818.49,-98.83 830.45,-72.44 848,-56 864.64,-40.41 887.71,-29.02 906.33,-21.6"/>
<polygon fill="midnightblue" stroke="midnightblue" points="907.76,-24.8 915.87,-17.98 905.28,-18.25 907.76,-24.8"/>
</g>
<!-- Node12 -->
<g id="node12" class="node">
<title>Node12</title>
<g id="a_node12"><a xlink:title=" ">
<polygon fill="white" stroke="#bfbfbf" points="614,-56.5 614,-75.5 678,-75.5 678,-56.5 614,-56.5"/>
<text text-anchor="middle" x="646" y="-63.5" font-family="Helvetica,sans-Serif" font-size="10.00">algorithm</text>
</a>
</g>
</g>
<!-- Node10&#45;&gt;Node12 -->
<g id="edge13" class="edge">
<title>Node10&#45;&gt;Node12</title>
<path fill="none" stroke="midnightblue" d="M784.01,-112.44C756.3,-103.32 712.25,-88.81 681.38,-78.65"/>
<polygon fill="midnightblue" stroke="midnightblue" points="682.46,-75.32 671.86,-75.52 680.27,-81.97 682.46,-75.32"/>
</g>
<!-- Node13 -->
<g id="node13" class="node">
<title>Node13</title>
<g id="a_node13"><a xlink:title=" ">
<polygon fill="white" stroke="#bfbfbf" points="1201.5,-0.5 1201.5,-19.5 1310.5,-19.5 1310.5,-0.5 1201.5,-0.5"/>
<text text-anchor="middle" x="1256" y="-7.5" font-family="Helvetica,sans-Serif" font-size="10.00">AMReX_MultiFab.H</text>
</a>
</g>
</g>
<!-- Node10&#45;&gt;Node13 -->
<g id="edge14" class="edge">
<title>Node10&#45;&gt;Node13</title>
<path fill="none" stroke="midnightblue" d="M830.73,-112.43C864.58,-98.73 934.05,-71.84 995,-56 1061.06,-38.83 1138.26,-26.44 1191.47,-19.06"/>
<polygon fill="midnightblue" stroke="midnightblue" points="1192.02,-22.52 1201.45,-17.7 1191.07,-15.59 1192.02,-22.52"/>
</g>
<!-- Node14 -->
<g id="node14" class="node">
<title>Node14</title>
<g id="a_node14"><a xlink:title=" ">
<polygon fill="white" stroke="#bfbfbf" points="696.5,-56.5 696.5,-75.5 795.5,-75.5 795.5,-56.5 696.5,-56.5"/>
<text text-anchor="middle" x="746" y="-63.5" font-family="Helvetica,sans-Serif" font-size="10.00">AMReX_BCRec.H</text>
</a>
</g>
</g>
<!-- Node10&#45;&gt;Node14 -->
<g id="edge15" class="edge">
<title>Node10&#45;&gt;Node14</title>
<path fill="none" stroke="midnightblue" d="M799.72,-112.32C790.16,-104.26 775.72,-92.08 764.22,-82.37"/>
<polygon fill="midnightblue" stroke="midnightblue" points="766.37,-79.61 756.47,-75.83 761.86,-84.96 766.37,-79.61"/>
</g>
<!-- Node15 -->
<g id="node15" class="node">
<title>Node15</title>
<g id="a_node15"><a xlink:href="incflo__enums_8_h.html" target="_top" xlink:title=" ">
<polygon fill="white" stroke="black" points="454.5,-56.5 454.5,-75.5 595.5,-75.5 595.5,-56.5 454.5,-56.5"/>
<text text-anchor="middle" x="525" y="-63.5" font-family="Helvetica,sans-Serif" font-size="10.00">amr&#45;wind/incflo_enums.H</text>
</a>
</g>
</g>
<!-- Node10&#45;&gt;Node15 -->
<g id="edge17" class="edge">
<title>Node10&#45;&gt;Node15</title>
<path fill="none" stroke="midnightblue" d="M764.84,-112.44C714.71,-102.94 633.78,-87.61 579.99,-77.42"/>
<polygon fill="midnightblue" stroke="midnightblue" points="580.42,-73.94 569.95,-75.52 579.12,-80.82 580.42,-73.94"/>
</g>
<!-- Node16 -->
<g id="node16" class="node">
<title>Node16</title>
<g id="a_node16"><a xlink:href="_field_desc_types_8_h.html" target="_top" xlink:title=" ">
<polygon fill="white" stroke="black" points="1476,-0.5 1476,-19.5 1652,-19.5 1652,-0.5 1476,-0.5"/>
<text text-anchor="middle" x="1564" y="-7.5" font-family="Helvetica,sans-Serif" font-size="10.00">amr&#45;wind/core/FieldDescTypes.H</text>
</a>
</g>
</g>
<!-- Node10&#45;&gt;Node16 -->
<g id="edge18" class="edge">
<title>Node10&#45;&gt;Node16</title>
<path fill="none" stroke="midnightblue" d="M872.26,-113.9C942.52,-105.68 1060.17,-91.3 1161,-76 1211.86,-68.28 1224.25,-64.4 1275,-56 1350.97,-43.42 1438.34,-29.96 1496.95,-21.07"/>
<polygon fill="midnightblue" stroke="midnightblue" points="1497.83,-24.47 1507.19,-19.52 1496.78,-17.55 1497.83,-24.47"/>
</g>
<!-- Node17 -->
<g id="node17" class="node">
<title>Node17</title>
<g id="a_node17"><a xlink:href="_view_field_8_h.html" target="_top" xlink:title=" ">
<polygon fill="white" stroke="black" points="1004,-56.5 1004,-75.5 1152,-75.5 1152,-56.5 1004,-56.5"/>
<text text-anchor="middle" x="1078" y="-63.5" font-family="Helvetica,sans-Serif" font-size="10.00">amr&#45;wind/core/ViewField.H</text>
</a>
</g>
</g>
<!-- Node10&#45;&gt;Node17 -->
<g id="edge19" class="edge">
<title>Node10&#45;&gt;Node17</title>
<path fill="none" stroke="midnightblue" d="M852.47,-112.44C899.41,-102.98 975.08,-87.74 1025.65,-77.55"/>
<polygon fill="midnightblue" stroke="midnightblue" points="1026.62,-80.92 1035.73,-75.52 1025.24,-74.06 1026.62,-80.92"/>
</g>
<!-- Node17&#45;&gt;Node11 -->
<g id="edge20" class="edge">
<title>Node17&#45;&gt;Node11</title>
<path fill="none" stroke="midnightblue" d="M1055.82,-56.44C1032.57,-47.48 995.85,-33.31 969.58,-23.18"/>
<polygon fill="midnightblue" stroke="midnightblue" points="970.67,-19.85 960.08,-19.52 968.15,-26.38 970.67,-19.85"/>
</g>
<!-- Node17&#45;&gt;Node13 -->
<g id="edge22" class="edge">
<title>Node17&#45;&gt;Node13</title>
<path fill="none" stroke="midnightblue" d="M1106.2,-56.44C1136.41,-47.28 1184.51,-32.69 1218.03,-22.52"/>
<polygon fill="midnightblue" stroke="midnightblue" points="1219.37,-25.77 1227.93,-19.52 1217.34,-19.07 1219.37,-25.77"/>
</g>
<!-- Node17&#45;&gt;Node16 -->
<g id="edge21" class="edge">
<title>Node17&#45;&gt;Node16</title>
<path fill="none" stroke="midnightblue" d="M1152.08,-56.77C1239.41,-47.07 1384.37,-30.96 1476.98,-20.67"/>
<polygon fill="midnightblue" stroke="midnightblue" points="1477.62,-24.12 1487.17,-19.54 1476.84,-17.16 1477.62,-24.12"/>
</g>
<!-- Node18 -->
<g id="node18" class="node">
<title>Node18</title>
<g id="a_node18"><a xlink:title=" ">
<polygon fill="white" stroke="#bfbfbf" points="1057,-0.5 1057,-19.5 1155,-19.5 1155,-0.5 1057,-0.5"/>
<text text-anchor="middle" x="1106" y="-7.5" font-family="Helvetica,sans-Serif" font-size="10.00">AMReX_Vector.H</text>
</a>
</g>
</g>
<!-- Node17&#45;&gt;Node18 -->
<g id="edge23" class="edge">
<title>Node17&#45;&gt;Node18</title>
<path fill="none" stroke="midnightblue" d="M1082.62,-56.08C1086.46,-48.69 1092.02,-37.95 1096.76,-28.81"/>
<polygon fill="midnightblue" stroke="midnightblue" points="1099.97,-30.24 1101.46,-19.75 1093.75,-27.02 1099.97,-30.24"/>
</g>
<!-- Node19&#45;&gt;Node5 -->
<g id="edge26" class="edge">
<title>Node19&#45;&gt;Node5</title>
<path fill="none" stroke="midnightblue" d="M1505.19,-173.97C1486.73,-171.77 1466.6,-169.58 1448,-168 1133.61,-141.37 1052.93,-163.65 739,-132 605.33,-118.52 449.58,-91.97 368.5,-77.32"/>
<polygon fill="midnightblue" stroke="midnightblue" points="368.98,-73.85 358.51,-75.51 367.73,-80.74 368.98,-73.85"/>
</g>
<!-- Node19&#45;&gt;Node10 -->
<g id="edge32" class="edge">
<title>Node19&#45;&gt;Node10</title>
<path fill="none" stroke="midnightblue" d="M1523.54,-173.93C1510.17,-171.71 1495.54,-169.52 1482,-168 1218.29,-138.39 1150.32,-155.61 886,-132 884.73,-131.89 883.46,-131.77 882.17,-131.65"/>
<polygon fill="midnightblue" stroke="midnightblue" points="882.48,-128.16 872.18,-130.66 881.79,-135.13 882.48,-128.16"/>
</g>
<!-- Node19&#45;&gt;Node11 -->
<g id="edge25" class="edge">
<title>Node19&#45;&gt;Node11</title>
<path fill="none" stroke="midnightblue" d="M1520.16,-173.99C1507.41,-171.92 1493.71,-169.79 1481,-168 1361.11,-151.14 1023.24,-167.54 944,-76 933.23,-63.56 932.75,-44.32 934.35,-30"/>
<polygon fill="midnightblue" stroke="midnightblue" points="937.86,-30.21 935.92,-19.79 930.94,-29.14 937.86,-30.21"/>
</g>
<!-- Node19&#45;&gt;Node13 -->
<g id="edge46" class="edge">
<title>Node19&#45;&gt;Node13</title>
<path fill="none" stroke="midnightblue" d="M1517.82,-173.99C1493.17,-167.06 1465.93,-154.55 1451,-132 1430.37,-100.83 1510.77,-84.84 1487,-56 1466.28,-30.85 1381.68,-19.57 1320.87,-14.64"/>
<polygon fill="midnightblue" stroke="midnightblue" points="1320.81,-11.13 1310.57,-13.85 1320.27,-18.1 1320.81,-11.13"/>
</g>
<!-- Node19&#45;&gt;Node16 -->
<g id="edge27" class="edge">
<title>Node19&#45;&gt;Node16</title>
<path fill="none" stroke="midnightblue" d="M1614.81,-173.92C1652.25,-165.84 1706.51,-151.98 1751,-132 1797.84,-110.97 1871.23,-95.14 1838,-56 1815.51,-29.51 1731.46,-18.59 1662.32,-14.1"/>
<polygon fill="midnightblue" stroke="midnightblue" points="1662.43,-10.6 1652.23,-13.48 1662,-17.58 1662.43,-10.6"/>
</g>
<!-- Node20 -->
<g id="node20" class="node">
<title>Node20</title>
<g id="a_node20"><a xlink:href="_field_utils_8_h.html" target="_top" xlink:title=" ">
<polygon fill="white" stroke="black" points="1885,-56.5 1885,-75.5 2031,-75.5 2031,-56.5 1885,-56.5"/>
<text text-anchor="middle" x="1958" y="-63.5" font-family="Helvetica,sans-Serif" font-size="10.00">amr&#45;wind/core/FieldUtils.H</text>
</a>
</g>
</g>
<!-- Node19&#45;&gt;Node20 -->
<g id="edge28" class="edge">
<title>Node19&#45;&gt;Node20</title>
<path fill="none" stroke="midnightblue" d="M1624.2,-173.98C1672.54,-165.65 1744.9,-151.4 1806,-132 1851.47,-117.56 1901.97,-94.47 1931.8,-80.05"/>
<polygon fill="midnightblue" stroke="midnightblue" points="1933.64,-83.05 1941.09,-75.52 1930.57,-76.76 1933.64,-83.05"/>
</g>
<!-- Node22 -->
<g id="node22" class="node">
<title>Node22</title>
<g id="a_node22"><a xlink:href="_int_field_8_h.html" target="_top" xlink:title=" ">
<polygon fill="white" stroke="black" points="1588.5,-112.5 1588.5,-131.5 1725.5,-131.5 1725.5,-112.5 1588.5,-112.5"/>
<text text-anchor="middle" x="1657" y="-119.5" font-family="Helvetica,sans-Serif" font-size="10.00">amr&#45;wind/core/IntField.H</text>
</a>
</g>
</g>
<!-- Node19&#45;&gt;Node22 -->
<g id="edge33" class="edge">
<title>Node19&#45;&gt;Node22</title>
<path fill="none" stroke="midnightblue" d="M1582.46,-173.98C1596.42,-164.43 1619.26,-148.81 1635.99,-137.37"/>
<polygon fill="midnightblue" stroke="midnightblue" points="1638.28,-140.04 1644.56,-131.51 1634.33,-134.27 1638.28,-140.04"/>
</g>
<!-- Node23 -->
<g id="node23" class="node">
<title>Node23</title>
<g id="a_node23"><a xlink:title=" ">
<polygon fill="white" stroke="#bfbfbf" points="1611,-56.5 1611,-75.5 1723,-75.5 1723,-56.5 1611,-56.5"/>
<text text-anchor="middle" x="1667" y="-63.5" font-family="Helvetica,sans-Serif" font-size="10.00">AMReX_iMultiFab.H</text>
</a>
</g>
</g>
<!-- Node19&#45;&gt;Node23 -->
<g id="edge47" class="edge">
<title>Node19&#45;&gt;Node23</title>
<path fill="none" stroke="midnightblue" d="M1644.67,-178.93C1677.9,-173.15 1714.16,-160.18 1735,-132 1750.07,-111.63 1721.89,-92.07 1697.35,-79.82"/>
<polygon fill="midnightblue" stroke="midnightblue" points="1698.76,-76.62 1688.22,-75.5 1695.76,-82.95 1698.76,-76.62"/>
</g>
<!-- Node24 -->
<g id="node24" class="node">
<title>Node24</title>
<g id="a_node24"><a xlink:href="_scratch_field_8_h.html" target="_top" xlink:title=" ">
<polygon fill="white" stroke="black" points="1186,-112.5 1186,-131.5 1346,-131.5 1346,-112.5 1186,-112.5"/>
<text text-anchor="middle" x="1266" y="-119.5" font-family="Helvetica,sans-Serif" font-size="10.00">amr&#45;wind/core/ScratchField.H</text>
</a>
</g>
</g>
<!-- Node19&#45;&gt;Node24 -->
<g id="edge37" class="edge">
<title>Node19&#45;&gt;Node24</title>
<path fill="none" stroke="midnightblue" d="M1526.44,-173.98C1471.81,-163.28 1378.19,-144.96 1319.33,-133.44"/>
<polygon fill="midnightblue" stroke="midnightblue" points="1319.96,-130 1309.47,-131.51 1318.62,-136.86 1319.96,-130"/>
</g>
<!-- Node27 -->
<g id="node27" class="node">
<title>Node27</title>
<g id="a_node27"><a xlink:title=" ">
<polygon fill="white" stroke="#bfbfbf" points="1460,-112.5 1460,-131.5 1570,-131.5 1570,-112.5 1460,-112.5"/>
<text text-anchor="middle" x="1515" y="-119.5" font-family="Helvetica,sans-Serif" font-size="10.00">AMReX_AmrCore.H</text>
</a>
</g>
</g>
<!-- Node19&#45;&gt;Node27 -->
<g id="edge45" class="edge">
<title>Node19&#45;&gt;Node27</title>
<path fill="none" stroke="midnightblue" d="M1562.12,-173.98C1553.71,-164.87 1540.18,-150.24 1529.77,-138.98"/>
<polygon fill="midnightblue" stroke="midnightblue" points="1532.22,-136.48 1522.87,-131.51 1527.08,-141.23 1532.22,-136.48"/>
</g>
<!-- Node20&#45;&gt;Node13 -->
<g id="edge30" class="edge">
<title>Node20&#45;&gt;Node13</title>
<path fill="none" stroke="midnightblue" d="M1884.86,-59.37C1747.24,-48.79 1451.88,-26.07 1320.87,-15.99"/>
<polygon fill="midnightblue" stroke="midnightblue" points="1320.83,-12.48 1310.59,-15.2 1320.29,-19.46 1320.83,-12.48"/>
</g>
<!-- Node20&#45;&gt;Node16 -->
<g id="edge29" class="edge">
<title>Node20&#45;&gt;Node16</title>
<path fill="none" stroke="midnightblue" d="M1895.57,-56.44C1825.11,-46.79 1710.65,-31.1 1636.35,-20.92"/>
<polygon fill="midnightblue" stroke="midnightblue" points="1636.52,-17.41 1626.14,-19.52 1635.57,-24.34 1636.52,-17.41"/>
</g>
<!-- Node21 -->
<g id="node21" class="node">
<title>Node21</title>
<g id="a_node21"><a xlink:title=" ">
<polygon fill="white" stroke="#bfbfbf" points="1896,-0.5 1896,-19.5 2020,-19.5 2020,-0.5 1896,-0.5"/>
<text text-anchor="middle" x="1958" y="-7.5" font-family="Helvetica,sans-Serif" font-size="10.00">AMReX_Interpolater.H</text>
</a>
</g>
</g>
<!-- Node20&#45;&gt;Node21 -->
<g id="edge31" class="edge">
<title>Node20&#45;&gt;Node21</title>
<path fill="none" stroke="midnightblue" d="M1958,-56.08C1958,-49.01 1958,-38.86 1958,-29.99"/>
<polygon fill="midnightblue" stroke="midnightblue" points="1961.5,-29.75 1958,-19.75 1954.5,-29.75 1961.5,-29.75"/>
</g>
<!-- Node22&#45;&gt;Node11 -->
<g id="edge34" class="edge">
<title>Node22&#45;&gt;Node11</title>
<path fill="none" stroke="midnightblue" d="M1588.12,-112.85C1585.04,-112.55 1581.99,-112.26 1579,-112 1449.48,-100.54 1111.73,-133.28 995,-76 974.02,-65.71 957.48,-43.89 947.73,-28.38"/>
<polygon fill="midnightblue" stroke="midnightblue" points="950.69,-26.5 942.57,-19.69 944.67,-30.07 950.69,-26.5"/>
</g>
<!-- Node22&#45;&gt;Node16 -->
<g id="edge35" class="edge">
<title>Node22&#45;&gt;Node16</title>
<path fill="none" stroke="midnightblue" d="M1644.1,-112.46C1632.19,-104.14 1614.5,-90.63 1602,-76 1589.69,-61.59 1579.13,-42.64 1572.29,-28.93"/>
<polygon fill="midnightblue" stroke="midnightblue" points="1575.3,-27.12 1567.82,-19.62 1568.99,-30.15 1575.3,-27.12"/>
</g>
<!-- Node22&#45;&gt;Node23 -->
<g id="edge36" class="edge">
<title>Node22&#45;&gt;Node23</title>
<path fill="none" stroke="midnightblue" d="M1658.65,-112.08C1659.98,-104.93 1661.88,-94.64 1663.54,-85.69"/>
<polygon fill="midnightblue" stroke="midnightblue" points="1667,-86.22 1665.38,-75.75 1660.12,-84.95 1667,-86.22"/>
</g>
<!-- Node24&#45;&gt;Node11 -->
<g id="edge38" class="edge">
<title>Node24&#45;&gt;Node11</title>
<path fill="none" stroke="midnightblue" d="M1185.98,-118.23C1107.68,-113.96 995.44,-103.16 962,-76 948.16,-64.76 942.3,-44.75 939.82,-29.89"/>
<polygon fill="midnightblue" stroke="midnightblue" points="943.26,-29.22 938.51,-19.76 936.32,-30.13 943.26,-29.22"/>
</g>
<!-- Node24&#45;&gt;Node13 -->
<g id="edge42" class="edge">
<title>Node24&#45;&gt;Node13</title>
<path fill="none" stroke="midnightblue" d="M1265.22,-112.37C1263.6,-94.62 1259.88,-53.67 1257.69,-29.6"/>
<polygon fill="midnightblue" stroke="midnightblue" points="1261.17,-29.23 1256.78,-19.59 1254.2,-29.87 1261.17,-29.23"/>
</g>
<!-- Node24&#45;&gt;Node16 -->
<g id="edge40" class="edge">
<title>Node24&#45;&gt;Node16</title>
<path fill="none" stroke="midnightblue" d="M1346.04,-114.43C1389.44,-108.52 1443.04,-97.29 1487,-76 1511.71,-64.03 1535.06,-42.31 1549.43,-27.29"/>
<polygon fill="midnightblue" stroke="midnightblue" points="1552.21,-29.45 1556.45,-19.74 1547.08,-24.69 1552.21,-29.45"/>
</g>
<!-- Node24&#45;&gt;Node17 -->
<g id="edge41" class="edge">
<title>Node24&#45;&gt;Node17</title>
<path fill="none" stroke="midnightblue" d="M1236.21,-112.44C1204.17,-103.24 1153.07,-88.56 1117.65,-78.39"/>
<polygon fill="midnightblue" stroke="midnightblue" points="1118.23,-74.91 1107.65,-75.52 1116.29,-81.64 1118.23,-74.91"/>
</g>
<!-- Node24&#45;&gt;Node18 -->
<g id="edge43" class="edge">
<title>Node24&#45;&gt;Node18</title>
<path fill="none" stroke="midnightblue" d="M1253.45,-112.37C1226.11,-93.57 1160.94,-48.77 1127.14,-25.53"/>
<polygon fill="midnightblue" stroke="midnightblue" points="1128.72,-22.37 1118.5,-19.59 1124.75,-28.14 1128.72,-22.37"/>
</g>
<!-- Node25 -->
<g id="node25" class="node">
<title>Node25</title>
<g id="a_node25"><a xlink:title=" ">
<polygon fill="white" stroke="#bfbfbf" points="1284.5,-56.5 1284.5,-75.5 1329.5,-75.5 1329.5,-56.5 1284.5,-56.5"/>
<text text-anchor="middle" x="1307" y="-63.5" font-family="Helvetica,sans-Serif" font-size="10.00">utility</text>
</a>
</g>
</g>
<!-- Node24&#45;&gt;Node25 -->
<g id="edge39" class="edge">
<title>Node24&#45;&gt;Node25</title>
<path fill="none" stroke="midnightblue" d="M1272.77,-112.08C1278.56,-104.46 1287.06,-93.26 1294.14,-83.94"/>
<polygon fill="midnightblue" stroke="midnightblue" points="1297.1,-85.83 1300.36,-75.75 1291.52,-81.6 1297.1,-85.83"/>
</g>
<!-- Node26 -->
<g id="node26" class="node">
<title>Node26</title>
<g id="a_node26"><a xlink:title=" ">
<polygon fill="white" stroke="#bfbfbf" points="1347.5,-56.5 1347.5,-75.5 1478.5,-75.5 1478.5,-56.5 1347.5,-56.5"/>
<text text-anchor="middle" x="1413" y="-63.5" font-family="Helvetica,sans-Serif" font-size="10.00">AMReX_PhysBCFunct.H</text>
</a>
</g>
</g>
<!-- Node24&#45;&gt;Node26 -->
<g id="edge44" class="edge">
<title>Node24&#45;&gt;Node26</title>
<path fill="none" stroke="midnightblue" d="M1289.29,-112.44C1313.81,-103.44 1352.6,-89.19 1380.2,-79.05"/>
<polygon fill="midnightblue" stroke="midnightblue" points="1381.64,-82.25 1389.82,-75.52 1379.22,-75.68 1381.64,-82.25"/>
</g>
<!-- Node28&#45;&gt;Node9 -->
<g id="edge50" class="edge">
<title>Node28&#45;&gt;Node9</title>
<path fill="none" stroke="midnightblue" d="M1983.41,-168.45C2008.5,-154.59 2038.01,-132.56 2021,-112 2009.45,-98.04 1904.92,-82.31 1838.9,-73.63"/>
<polygon fill="midnightblue" stroke="midnightblue" points="1839.03,-70.12 1828.66,-72.3 1838.12,-77.06 1839.03,-70.12"/>
</g>
<!-- Node29 -->
<g id="node29" class="node">
<title>Node29</title>
<g id="a_node29"><a xlink:title=" ">
<polygon fill="white" stroke="#bfbfbf" points="1896.5,-112.5 1896.5,-131.5 2011.5,-131.5 2011.5,-112.5 1896.5,-112.5"/>
<text text-anchor="middle" x="1954" y="-119.5" font-family="Helvetica,sans-Serif" font-size="10.00">AMReX_Geometry.H</text>
</a>
</g>
</g>
<!-- Node28&#45;&gt;Node29 -->
<g id="edge49" class="edge">
<title>Node28&#45;&gt;Node29</title>
<path fill="none" stroke="midnightblue" d="M1954,-168.4C1954,-160.47 1954,-150.46 1954,-141.86"/>
<polygon fill="midnightblue" stroke="midnightblue" points="1957.5,-141.66 1954,-131.66 1950.5,-141.66 1957.5,-141.66"/>
</g>
<!-- Node30&#45;&gt;Node9 -->
<g id="edge53" class="edge">
<title>Node30&#45;&gt;Node9</title>
<path fill="none" stroke="midnightblue" d="M1806.06,-168.34C1801.73,-147.53 1793.66,-108.66 1788.86,-85.58"/>
<polygon fill="midnightblue" stroke="midnightblue" points="1792.26,-84.75 1786.8,-75.67 1785.41,-86.17 1792.26,-84.75"/>
</g>
<!-- Node30&#45;&gt;Node29 -->
<g id="edge52" class="edge">
<title>Node30&#45;&gt;Node29</title>
<path fill="none" stroke="midnightblue" d="M1843.36,-168.4C1867.69,-158.42 1900.03,-145.15 1923.46,-135.53"/>
<polygon fill="midnightblue" stroke="midnightblue" points="1924.98,-138.69 1932.9,-131.66 1922.32,-132.22 1924.98,-138.69"/>
</g>
</g>
</svg>
