<?xml version="1.0" encoding="UTF-8" standalone="no"?>
<!DOCTYPE svg PUBLIC "-//W3C//DTD SVG 1.1//EN"
 "http://www.w3.org/Graphics/SVG/1.1/DTD/svg11.dtd">
<!-- Generated by graphviz version 2.43.0 (0)
 -->
<!-- Title: ViewField.cpp Pages: 1 -->
<svg width="1772pt" height="252pt"
 viewBox="0.00 0.00 1772.00 252.00" xmlns="http://www.w3.org/2000/svg" xmlns:xlink="http://www.w3.org/1999/xlink">
<g id="graph0" class="graph" transform="scale(1 1) rotate(0) translate(4 248)">
<title>ViewField.cpp</title>
<polygon fill="white" stroke="transparent" points="-4,4 -4,-248 1768,-248 1768,4 -4,4"/>
<!-- Node1 -->
<g id="node1" class="node">
<title>Node1</title>
<g id="a_node1"><a xlink:title=" ">
<polygon fill="#bfbfbf" stroke="black" points="579.5,-224.5 579.5,-243.5 663.5,-243.5 663.5,-224.5 579.5,-224.5"/>
<text text-anchor="middle" x="621.5" y="-231.5" font-family="Helvetica,sans-Serif" font-size="10.00">ViewField.cpp</text>
</a>
</g>
</g>
<!-- Node2 -->
<g id="node2" class="node">
<title>Node2</title>
<g id="a_node2"><a xlink:href="_view_field_8_h.html" target="_top" xlink:title=" ">
<polygon fill="white" stroke="black" points="365.5,-56.5 365.5,-75.5 513.5,-75.5 513.5,-56.5 365.5,-56.5"/>
<text text-anchor="middle" x="439.5" y="-63.5" font-family="Helvetica,sans-Serif" font-size="10.00">amr&#45;wind/core/ViewField.H</text>
</a>
</g>
</g>
<!-- Node1&#45;&gt;Node2 -->
<g id="edge1" class="edge">
<title>Node1&#45;&gt;Node2</title>
<path fill="none" stroke="midnightblue" d="M611.71,-224.08C582.2,-197.15 493.79,-116.51 456.44,-82.45"/>
<polygon fill="midnightblue" stroke="midnightblue" points="458.64,-79.72 448.89,-75.57 453.92,-84.89 458.64,-79.72"/>
</g>
<!-- Node7 -->
<g id="node7" class="node">
<title>Node7</title>
<g id="a_node7"><a xlink:href="_field_8_h.html" target="_top" xlink:title=" ">
<polygon fill="white" stroke="black" points="1132.5,-112.5 1132.5,-131.5 1256.5,-131.5 1256.5,-112.5 1132.5,-112.5"/>
<text text-anchor="middle" x="1194.5" y="-119.5" font-family="Helvetica,sans-Serif" font-size="10.00">amr&#45;wind/core/Field.H</text>
</a>
</g>
</g>
<!-- Node1&#45;&gt;Node7 -->
<g id="edge6" class="edge">
<title>Node1&#45;&gt;Node7</title>
<path fill="none" stroke="midnightblue" d="M663.63,-224.91C765.74,-205.31 1026.36,-155.28 1140.06,-133.45"/>
<polygon fill="midnightblue" stroke="midnightblue" points="1140.79,-136.88 1149.95,-131.55 1139.47,-130 1140.79,-136.88"/>
</g>
<!-- Node14 -->
<g id="node14" class="node">
<title>Node14</title>
<g id="a_node14"><a xlink:href="_scratch_field_8_h.html" target="_top" xlink:title=" ">
<polygon fill="white" stroke="black" points="143.5,-112.5 143.5,-131.5 303.5,-131.5 303.5,-112.5 143.5,-112.5"/>
<text text-anchor="middle" x="223.5" y="-119.5" font-family="Helvetica,sans-Serif" font-size="10.00">amr&#45;wind/core/ScratchField.H</text>
</a>
</g>
</g>
<!-- Node1&#45;&gt;Node14 -->
<g id="edge17" class="edge">
<title>Node1&#45;&gt;Node14</title>
<path fill="none" stroke="midnightblue" d="M590.6,-224.46C519.4,-204.78 343.81,-156.25 264.07,-134.21"/>
<polygon fill="midnightblue" stroke="midnightblue" points="264.95,-130.83 254.38,-131.53 263.09,-137.57 264.95,-130.83"/>
</g>
<!-- Node17 -->
<g id="node17" class="node">
<title>Node17</title>
<g id="a_node17"><a xlink:href="_field_repo_8_h.html" target="_top" xlink:title=" ">
<polygon fill="white" stroke="black" points="610,-168.5 610,-187.5 759,-187.5 759,-168.5 610,-168.5"/>
<text text-anchor="middle" x="684.5" y="-175.5" font-family="Helvetica,sans-Serif" font-size="10.00">amr&#45;wind/core/FieldRepo.H</text>
</a>
</g>
</g>
<!-- Node1&#45;&gt;Node17 -->
<g id="edge25" class="edge">
<title>Node1&#45;&gt;Node17</title>
<path fill="none" stroke="midnightblue" d="M631.62,-224.32C641.03,-216.26 655.24,-204.08 666.57,-194.37"/>
<polygon fill="midnightblue" stroke="midnightblue" points="668.88,-197 674.19,-187.83 664.32,-191.68 668.88,-197"/>
</g>
<!-- Node3 -->
<g id="node3" class="node">
<title>Node3</title>
<g id="a_node3"><a xlink:title=" ">
<polygon fill="white" stroke="#bfbfbf" points="927.5,-0.5 927.5,-19.5 971.5,-19.5 971.5,-0.5 927.5,-0.5"/>
<text text-anchor="middle" x="949.5" y="-7.5" font-family="Helvetica,sans-Serif" font-size="10.00">string</text>
</a>
</g>
</g>
<!-- Node2&#45;&gt;Node3 -->
<g id="edge2" class="edge">
<title>Node2&#45;&gt;Node3</title>
<path fill="none" stroke="midnightblue" d="M513.71,-56.94C516.68,-56.62 519.62,-56.31 522.5,-56 669.85,-40.25 845.84,-21.82 917.14,-14.38"/>
<polygon fill="midnightblue" stroke="midnightblue" points="917.69,-17.84 927.27,-13.32 916.96,-10.88 917.69,-17.84"/>
</g>
<!-- Node4 -->
<g id="node4" class="node">
<title>Node4</title>
<g id="a_node4"><a xlink:href="_field_desc_types_8_h.html" target="_top" xlink:title=" ">
<polygon fill="white" stroke="black" points="635.5,-0.5 635.5,-19.5 811.5,-19.5 811.5,-0.5 635.5,-0.5"/>
<text text-anchor="middle" x="723.5" y="-7.5" font-family="Helvetica,sans-Serif" font-size="10.00">amr&#45;wind/core/FieldDescTypes.H</text>
</a>
</g>
</g>
<!-- Node2&#45;&gt;Node4 -->
<g id="edge3" class="edge">
<title>Node2&#45;&gt;Node4</title>
<path fill="none" stroke="midnightblue" d="M484.5,-56.44C534.46,-46.94 615.1,-31.61 668.7,-21.42"/>
<polygon fill="midnightblue" stroke="midnightblue" points="669.54,-24.82 678.71,-19.52 668.23,-17.95 669.54,-24.82"/>
</g>
<!-- Node5 -->
<g id="node5" class="node">
<title>Node5</title>
<g id="a_node5"><a xlink:title=" ">
<polygon fill="white" stroke="#bfbfbf" points="366,-0.5 366,-19.5 475,-19.5 475,-0.5 366,-0.5"/>
<text text-anchor="middle" x="420.5" y="-7.5" font-family="Helvetica,sans-Serif" font-size="10.00">AMReX_MultiFab.H</text>
</a>
</g>
</g>
<!-- Node2&#45;&gt;Node5 -->
<g id="edge4" class="edge">
<title>Node2&#45;&gt;Node5</title>
<path fill="none" stroke="midnightblue" d="M436.36,-56.08C433.82,-48.85 430.14,-38.41 426.97,-29.4"/>
<polygon fill="midnightblue" stroke="midnightblue" points="430.2,-28.02 423.58,-19.75 423.6,-30.35 430.2,-28.02"/>
</g>
<!-- Node6 -->
<g id="node6" class="node">
<title>Node6</title>
<g id="a_node6"><a xlink:title=" ">
<polygon fill="white" stroke="#bfbfbf" points="189.5,-0.5 189.5,-19.5 287.5,-19.5 287.5,-0.5 189.5,-0.5"/>
<text text-anchor="middle" x="238.5" y="-7.5" font-family="Helvetica,sans-Serif" font-size="10.00">AMReX_Vector.H</text>
</a>
</g>
</g>
<!-- Node2&#45;&gt;Node6 -->
<g id="edge5" class="edge">
<title>Node2&#45;&gt;Node6</title>
<path fill="none" stroke="midnightblue" d="M407.65,-56.44C373.1,-47.16 317.82,-32.31 279.92,-22.13"/>
<polygon fill="midnightblue" stroke="midnightblue" points="280.77,-18.73 270.2,-19.52 278.95,-25.49 280.77,-18.73"/>
</g>
<!-- Node7&#45;&gt;Node2 -->
<g id="edge16" class="edge">
<title>Node7&#45;&gt;Node2</title>
<path fill="none" stroke="midnightblue" d="M1132.36,-117.7C1015.45,-111.29 754.52,-96.11 523.96,-76.09"/>
<polygon fill="midnightblue" stroke="midnightblue" points="523.96,-72.58 513.7,-75.2 523.35,-79.55 523.96,-72.58"/>
</g>
<!-- Node7&#45;&gt;Node3 -->
<g id="edge7" class="edge">
<title>Node7&#45;&gt;Node3</title>
<path fill="none" stroke="midnightblue" d="M1196.84,-112.15C1199.9,-98.3 1203.4,-71.5 1189.5,-56 1162.32,-25.7 1040.85,-15.53 981.86,-12.35"/>
<polygon fill="midnightblue" stroke="midnightblue" points="981.77,-8.84 971.61,-11.83 981.42,-15.83 981.77,-8.84"/>
</g>
<!-- Node7&#45;&gt;Node4 -->
<g id="edge15" class="edge">
<title>Node7&#45;&gt;Node4</title>
<path fill="none" stroke="midnightblue" d="M1191.61,-112.47C1186.24,-98.07 1173.24,-69.2 1151.5,-56 1123.96,-39.28 939.26,-24.67 821.66,-16.91"/>
<polygon fill="midnightblue" stroke="midnightblue" points="821.76,-13.41 811.56,-16.25 821.31,-20.39 821.76,-13.41"/>
</g>
<!-- Node7&#45;&gt;Node5 -->
<g id="edge11" class="edge">
<title>Node7&#45;&gt;Node5</title>
<path fill="none" stroke="midnightblue" d="M1187.67,-112.25C1175.58,-97.52 1148.79,-68.17 1118.5,-56 990.5,-4.56 641.11,-32.51 485.68,-19.94"/>
<polygon fill="midnightblue" stroke="midnightblue" points="485.55,-16.41 475.28,-19.01 484.92,-23.39 485.55,-16.41"/>
</g>
<!-- Node8 -->
<g id="node8" class="node">
<title>Node8</title>
<g id="a_node8"><a xlink:title=" ">
<polygon fill="white" stroke="#bfbfbf" points="1401.5,-56.5 1401.5,-75.5 1459.5,-75.5 1459.5,-56.5 1401.5,-56.5"/>
<text text-anchor="middle" x="1430.5" y="-63.5" font-family="Helvetica,sans-Serif" font-size="10.00">memory</text>
</a>
</g>
</g>
<!-- Node7&#45;&gt;Node8 -->
<g id="edge8" class="edge">
<title>Node7&#45;&gt;Node8</title>
<path fill="none" stroke="midnightblue" d="M1232.48,-112.48C1270.33,-103.96 1330.38,-90.38 1391.62,-76.19"/>
<polygon fill="midnightblue" stroke="midnightblue" points="1392.51,-79.58 1401.46,-73.91 1390.93,-72.76 1392.51,-79.58"/>
</g>
<!-- Node9 -->
<g id="node9" class="node">
<title>Node9</title>
<g id="a_node9"><a xlink:title=" ">
<polygon fill="white" stroke="#bfbfbf" points="1016,-56.5 1016,-75.5 1109,-75.5 1109,-56.5 1016,-56.5"/>
<text text-anchor="middle" x="1062.5" y="-63.5" font-family="Helvetica,sans-Serif" font-size="10.00">unordered_map</text>
</a>
</g>
</g>
<!-- Node7&#45;&gt;Node9 -->
<g id="edge9" class="edge">
<title>Node7&#45;&gt;Node9</title>
<path fill="none" stroke="midnightblue" d="M1173.58,-112.44C1151.76,-103.52 1117.35,-89.44 1092.61,-79.32"/>
<polygon fill="midnightblue" stroke="midnightblue" points="1093.9,-76.06 1083.32,-75.52 1091.25,-82.54 1093.9,-76.06"/>
</g>
<!-- Node10 -->
<g id="node10" class="node">
<title>Node10</title>
<g id="a_node10"><a xlink:title=" ">
<polygon fill="white" stroke="#bfbfbf" points="1477.5,-56.5 1477.5,-75.5 1541.5,-75.5 1541.5,-56.5 1477.5,-56.5"/>
<text text-anchor="middle" x="1509.5" y="-63.5" font-family="Helvetica,sans-Serif" font-size="10.00">algorithm</text>
</a>
</g>
</g>
<!-- Node7&#45;&gt;Node10 -->
<g id="edge10" class="edge">
<title>Node7&#45;&gt;Node10</title>
<path fill="none" stroke="midnightblue" d="M1251.86,-112.49C1305.13,-104.38 1386.89,-91.41 1467.03,-76.2"/>
<polygon fill="midnightblue" stroke="midnightblue" points="1468.14,-79.55 1477.3,-74.24 1466.83,-72.68 1468.14,-79.55"/>
</g>
<!-- Node11 -->
<g id="node11" class="node">
<title>Node11</title>
<g id="a_node11"><a xlink:title=" ">
<polygon fill="white" stroke="#bfbfbf" points="1560,-56.5 1560,-75.5 1659,-75.5 1659,-56.5 1560,-56.5"/>
<text text-anchor="middle" x="1609.5" y="-63.5" font-family="Helvetica,sans-Serif" font-size="10.00">AMReX_BCRec.H</text>
</a>
</g>
</g>
<!-- Node7&#45;&gt;Node11 -->
<g id="edge12" class="edge">
<title>Node7&#45;&gt;Node11</title>
<path fill="none" stroke="midnightblue" d="M1256.62,-113.64C1325.57,-105.36 1440.4,-91.23 1549.72,-76.08"/>
<polygon fill="midnightblue" stroke="midnightblue" points="1550.52,-79.5 1559.94,-74.65 1549.55,-72.57 1550.52,-79.5"/>
</g>
<!-- Node12 -->
<g id="node12" class="node">
<title>Node12</title>
<g id="a_node12"><a xlink:title=" ">
<polygon fill="white" stroke="#bfbfbf" points="1677,-56.5 1677,-75.5 1764,-75.5 1764,-56.5 1677,-56.5"/>
<text text-anchor="middle" x="1720.5" y="-63.5" font-family="Helvetica,sans-Serif" font-size="10.00">AMReX_Gpu.H</text>
</a>
</g>
</g>
<!-- Node7&#45;&gt;Node12 -->
<g id="edge13" class="edge">
<title>Node7&#45;&gt;Node12</title>
<path fill="none" stroke="midnightblue" d="M1256.79,-116.62C1345.62,-110.03 1514,-96.29 1666.8,-76.14"/>
<polygon fill="midnightblue" stroke="midnightblue" points="1667.39,-79.59 1676.84,-74.81 1666.47,-72.66 1667.39,-79.59"/>
</g>
<!-- Node13 -->
<g id="node13" class="node">
<title>Node13</title>
<g id="a_node13"><a xlink:href="incflo__enums_8_h.html" target="_top" xlink:title=" ">
<polygon fill="white" stroke="black" points="1242,-56.5 1242,-75.5 1383,-75.5 1383,-56.5 1242,-56.5"/>
<text text-anchor="middle" x="1312.5" y="-63.5" font-family="Helvetica,sans-Serif" font-size="10.00">amr&#45;wind/incflo_enums.H</text>
</a>
</g>
</g>
<!-- Node7&#45;&gt;Node13 -->
<g id="edge14" class="edge">
<title>Node7&#45;&gt;Node13</title>
<path fill="none" stroke="midnightblue" d="M1213.2,-112.44C1232.44,-103.64 1262.65,-89.81 1284.7,-79.72"/>
<polygon fill="midnightblue" stroke="midnightblue" points="1286.25,-82.86 1293.89,-75.52 1283.34,-76.5 1286.25,-82.86"/>
</g>
<!-- Node14&#45;&gt;Node2 -->
<g id="edge21" class="edge">
<title>Node14&#45;&gt;Node2</title>
<path fill="none" stroke="midnightblue" d="M257.73,-112.44C295.01,-103.12 354.77,-88.18 395.51,-78"/>
<polygon fill="midnightblue" stroke="midnightblue" points="396.58,-81.34 405.43,-75.52 394.88,-74.55 396.58,-81.34"/>
</g>
<!-- Node14&#45;&gt;Node3 -->
<g id="edge18" class="edge">
<title>Node14&#45;&gt;Node3</title>
<path fill="none" stroke="midnightblue" d="M303.5,-117.13C396.22,-111.74 553.34,-99.83 686.5,-76 720.88,-69.85 728.63,-64.53 762.5,-56 816.81,-42.32 880.23,-27.25 917.51,-18.48"/>
<polygon fill="midnightblue" stroke="midnightblue" points="918.36,-21.88 927.3,-16.18 916.76,-15.06 918.36,-21.88"/>
</g>
<!-- Node14&#45;&gt;Node4 -->
<g id="edge20" class="edge">
<title>Node14&#45;&gt;Node4</title>
<path fill="none" stroke="midnightblue" d="M237.24,-112.36C260.7,-98.05 310.42,-69.66 356.5,-56 382.31,-48.35 531.86,-31.4 631.91,-20.63"/>
<polygon fill="midnightblue" stroke="midnightblue" points="632.47,-24.09 642.04,-19.54 631.72,-17.13 632.47,-24.09"/>
</g>
<!-- Node14&#45;&gt;Node5 -->
<g id="edge22" class="edge">
<title>Node14&#45;&gt;Node5</title>
<path fill="none" stroke="midnightblue" d="M219.05,-112.33C212.76,-98.74 203.42,-72.28 216.5,-56 233.79,-34.49 302.62,-22.65 355.6,-16.58"/>
<polygon fill="midnightblue" stroke="midnightblue" points="356.07,-20.05 365.63,-15.48 355.3,-13.1 356.07,-20.05"/>
</g>
<!-- Node14&#45;&gt;Node6 -->
<g id="edge23" class="edge">
<title>Node14&#45;&gt;Node6</title>
<path fill="none" stroke="midnightblue" d="M211.55,-112.31C196.42,-100.15 173.46,-77.19 183.5,-56 189.63,-43.07 201.49,-32.62 212.64,-25.05"/>
<polygon fill="midnightblue" stroke="midnightblue" points="214.69,-27.9 221.3,-19.61 210.97,-21.97 214.69,-27.9"/>
</g>
<!-- Node15 -->
<g id="node15" class="node">
<title>Node15</title>
<g id="a_node15"><a xlink:title=" ">
<polygon fill="white" stroke="#bfbfbf" points="226,-56.5 226,-75.5 271,-75.5 271,-56.5 226,-56.5"/>
<text text-anchor="middle" x="248.5" y="-63.5" font-family="Helvetica,sans-Serif" font-size="10.00">utility</text>
</a>
</g>
</g>
<!-- Node14&#45;&gt;Node15 -->
<g id="edge19" class="edge">
<title>Node14&#45;&gt;Node15</title>
<path fill="none" stroke="midnightblue" d="M227.63,-112.08C231.01,-104.77 235.92,-94.18 240.12,-85.1"/>
<polygon fill="midnightblue" stroke="midnightblue" points="243.42,-86.3 244.45,-75.75 237.07,-83.36 243.42,-86.3"/>
</g>
<!-- Node16 -->
<g id="node16" class="node">
<title>Node16</title>
<g id="a_node16"><a xlink:title=" ">
<polygon fill="white" stroke="#bfbfbf" points="0,-56.5 0,-75.5 131,-75.5 131,-56.5 0,-56.5"/>
<text text-anchor="middle" x="65.5" y="-63.5" font-family="Helvetica,sans-Serif" font-size="10.00">AMReX_PhysBCFunct.H</text>
</a>
</g>
</g>
<!-- Node14&#45;&gt;Node16 -->
<g id="edge24" class="edge">
<title>Node14&#45;&gt;Node16</title>
<path fill="none" stroke="midnightblue" d="M198.46,-112.44C171.88,-103.36 129.69,-88.94 99.98,-78.78"/>
<polygon fill="midnightblue" stroke="midnightblue" points="101.01,-75.44 90.42,-75.52 98.75,-82.06 101.01,-75.44"/>
</g>
<!-- Node17&#45;&gt;Node3 -->
<g id="edge26" class="edge">
<title>Node17&#45;&gt;Node3</title>
<path fill="none" stroke="midnightblue" d="M759.11,-170.97C843.97,-163.34 972.74,-149.12 987.5,-132 1013.74,-101.57 983.26,-53.04 963.59,-27.68"/>
<polygon fill="midnightblue" stroke="midnightblue" points="966.2,-25.33 957.2,-19.74 960.75,-29.72 966.2,-25.33"/>
</g>
<!-- Node17&#45;&gt;Node4 -->
<g id="edge28" class="edge">
<title>Node17&#45;&gt;Node4</title>
<path fill="none" stroke="midnightblue" d="M684.29,-168.49C684.15,-155.98 684.51,-131.96 688.5,-112 694.49,-82.08 707.23,-48.92 715.57,-29.03"/>
<polygon fill="midnightblue" stroke="midnightblue" points="718.85,-30.26 719.58,-19.69 712.42,-27.5 718.85,-30.26"/>
</g>
<!-- Node17&#45;&gt;Node5 -->
<g id="edge40" class="edge">
<title>Node17&#45;&gt;Node5</title>
<path fill="none" stroke="midnightblue" d="M631.72,-168.47C547.65,-153.69 389.42,-120.58 356.5,-76 341.88,-56.21 368.59,-36.49 391.83,-24.06"/>
<polygon fill="midnightblue" stroke="midnightblue" points="393.47,-27.15 400.81,-19.51 390.3,-20.91 393.47,-27.15"/>
</g>
<!-- Node17&#45;&gt;Node7 -->
<g id="edge33" class="edge">
<title>Node17&#45;&gt;Node7</title>
<path fill="none" stroke="midnightblue" d="M759.2,-169.09C856.64,-158.77 1025.98,-140.84 1122.21,-130.65"/>
<polygon fill="midnightblue" stroke="midnightblue" points="1122.86,-134.11 1132.43,-129.57 1122.12,-127.14 1122.86,-134.11"/>
</g>
<!-- Node17&#45;&gt;Node9 -->
<g id="edge27" class="edge">
<title>Node17&#45;&gt;Node9</title>
<path fill="none" stroke="midnightblue" d="M759.23,-174.21C844.74,-169.78 978.38,-158.71 1020.5,-132 1037.65,-121.13 1049.19,-100.44 1055.76,-85.31"/>
<polygon fill="midnightblue" stroke="midnightblue" points="1059.06,-86.5 1059.53,-75.92 1052.56,-83.9 1059.06,-86.5"/>
</g>
<!-- Node17&#45;&gt;Node14 -->
<g id="edge38" class="edge">
<title>Node17&#45;&gt;Node14</title>
<path fill="none" stroke="midnightblue" d="M611.71,-168.47C528.73,-158.75 393.36,-142.9 306.39,-132.71"/>
<polygon fill="midnightblue" stroke="midnightblue" points="306.63,-129.21 296.29,-131.53 305.82,-136.17 306.63,-129.21"/>
</g>
<!-- Node18 -->
<g id="node18" class="node">
<title>Node18</title>
<g id="a_node18"><a xlink:href="_field_utils_8_h.html" target="_top" xlink:title=" ">
<polygon fill="white" stroke="black" points="531.5,-56.5 531.5,-75.5 677.5,-75.5 677.5,-56.5 531.5,-56.5"/>
<text text-anchor="middle" x="604.5" y="-63.5" font-family="Helvetica,sans-Serif" font-size="10.00">amr&#45;wind/core/FieldUtils.H</text>
</a>
</g>
</g>
<!-- Node17&#45;&gt;Node18 -->
<g id="edge29" class="edge">
<title>Node17&#45;&gt;Node18</title>
<path fill="none" stroke="midnightblue" d="M671.49,-168.33C659.97,-160.1 643.36,-146.83 632.5,-132 622.07,-117.76 614.53,-99.04 609.92,-85.35"/>
<polygon fill="midnightblue" stroke="midnightblue" points="613.2,-84.11 606.85,-75.63 606.53,-86.22 613.2,-84.11"/>
</g>
<!-- Node20 -->
<g id="node20" class="node">
<title>Node20</title>
<g id="a_node20"><a xlink:href="_int_field_8_h.html" target="_top" xlink:title=" ">
<polygon fill="white" stroke="black" points="841,-112.5 841,-131.5 978,-131.5 978,-112.5 841,-112.5"/>
<text text-anchor="middle" x="909.5" y="-119.5" font-family="Helvetica,sans-Serif" font-size="10.00">amr&#45;wind/core/IntField.H</text>
</a>
</g>
</g>
<!-- Node17&#45;&gt;Node20 -->
<g id="edge34" class="edge">
<title>Node17&#45;&gt;Node20</title>
<path fill="none" stroke="midnightblue" d="M720.15,-168.44C759.16,-159.08 821.77,-144.06 864.22,-133.87"/>
<polygon fill="midnightblue" stroke="midnightblue" points="865.11,-137.25 874.01,-131.52 863.47,-130.45 865.11,-137.25"/>
</g>
<!-- Node21 -->
<g id="node21" class="node">
<title>Node21</title>
<g id="a_node21"><a xlink:title=" ">
<polygon fill="white" stroke="#bfbfbf" points="771.5,-56.5 771.5,-75.5 883.5,-75.5 883.5,-56.5 771.5,-56.5"/>
<text text-anchor="middle" x="827.5" y="-63.5" font-family="Helvetica,sans-Serif" font-size="10.00">AMReX_iMultiFab.H</text>
</a>
</g>
</g>
<!-- Node17&#45;&gt;Node21 -->
<g id="edge41" class="edge">
<title>Node17&#45;&gt;Node21</title>
<path fill="none" stroke="midnightblue" d="M684.65,-168.21C685.36,-154.45 688.7,-127.78 703.5,-112 719.06,-95.42 741.2,-84.93 762.48,-78.3"/>
<polygon fill="midnightblue" stroke="midnightblue" points="763.53,-81.64 772.17,-75.52 761.59,-74.91 763.53,-81.64"/>
</g>
<!-- Node22 -->
<g id="node22" class="node">
<title>Node22</title>
<g id="a_node22"><a xlink:title=" ">
<polygon fill="white" stroke="#bfbfbf" points="712.5,-112.5 712.5,-131.5 822.5,-131.5 822.5,-112.5 712.5,-112.5"/>
<text text-anchor="middle" x="767.5" y="-119.5" font-family="Helvetica,sans-Serif" font-size="10.00">AMReX_AmrCore.H</text>
</a>
</g>
</g>
<!-- Node17&#45;&gt;Node22 -->
<g id="edge39" class="edge">
<title>Node17&#45;&gt;Node22</title>
<path fill="none" stroke="midnightblue" d="M697.84,-168.32C710.66,-159.98 730.28,-147.21 745.44,-137.35"/>
<polygon fill="midnightblue" stroke="midnightblue" points="747.72,-140.04 754.2,-131.65 743.91,-134.17 747.72,-140.04"/>
</g>
<!-- Node18&#45;&gt;Node4 -->
<g id="edge30" class="edge">
<title>Node18&#45;&gt;Node4</title>
<path fill="none" stroke="midnightblue" d="M623.36,-56.44C642.77,-47.64 673.23,-33.81 695.46,-23.72"/>
<polygon fill="midnightblue" stroke="midnightblue" points="697.07,-26.84 704.73,-19.52 694.18,-20.46 697.07,-26.84"/>
</g>
<!-- Node18&#45;&gt;Node5 -->
<g id="edge31" class="edge">
<title>Node18&#45;&gt;Node5</title>
<path fill="none" stroke="midnightblue" d="M575.34,-56.44C543.99,-47.24 493.97,-32.56 459.3,-22.39"/>
<polygon fill="midnightblue" stroke="midnightblue" points="460.1,-18.97 449.52,-19.52 458.13,-25.69 460.1,-18.97"/>
</g>
<!-- Node19 -->
<g id="node19" class="node">
<title>Node19</title>
<g id="a_node19"><a xlink:title=" ">
<polygon fill="white" stroke="#bfbfbf" points="493.5,-0.5 493.5,-19.5 617.5,-19.5 617.5,-0.5 493.5,-0.5"/>
<text text-anchor="middle" x="555.5" y="-7.5" font-family="Helvetica,sans-Serif" font-size="10.00">AMReX_Interpolater.H</text>
</a>
</g>
</g>
<!-- Node18&#45;&gt;Node19 -->
<g id="edge32" class="edge">
<title>Node18&#45;&gt;Node19</title>
<path fill="none" stroke="midnightblue" d="M596.41,-56.08C589.34,-48.3 578.91,-36.8 570.35,-27.37"/>
<polygon fill="midnightblue" stroke="midnightblue" points="572.75,-24.8 563.44,-19.75 567.57,-29.51 572.75,-24.8"/>
</g>
<!-- Node20&#45;&gt;Node3 -->
<g id="edge35" class="edge">
<title>Node20&#45;&gt;Node3</title>
<path fill="none" stroke="midnightblue" d="M912.64,-112.37C919.12,-94.54 934.12,-53.3 942.86,-29.27"/>
<polygon fill="midnightblue" stroke="midnightblue" points="946.25,-30.19 946.38,-19.59 939.67,-27.79 946.25,-30.19"/>
</g>
<!-- Node20&#45;&gt;Node4 -->
<g id="edge36" class="edge">
<title>Node20&#45;&gt;Node4</title>
<path fill="none" stroke="midnightblue" d="M909.82,-112.08C909.8,-98.13 907.64,-71.21 892.5,-56 873.6,-37.02 847.65,-25.77 821.76,-19.19"/>
<polygon fill="midnightblue" stroke="midnightblue" points="822.39,-15.74 811.86,-16.89 820.81,-22.56 822.39,-15.74"/>
</g>
<!-- Node20&#45;&gt;Node21 -->
<g id="edge37" class="edge">
<title>Node20&#45;&gt;Node21</title>
<path fill="none" stroke="midnightblue" d="M896.33,-112.32C883.65,-103.98 864.27,-91.21 849.29,-81.35"/>
<polygon fill="midnightblue" stroke="midnightblue" points="850.92,-78.23 840.64,-75.65 847.07,-84.08 850.92,-78.23"/>
</g>
</g>
</svg>
