<?xml version="1.0" encoding="UTF-8" standalone="no"?>
<!DOCTYPE svg PUBLIC "-//W3C//DTD SVG 1.1//EN"
 "http://www.w3.org/Graphics/SVG/1.1/DTD/svg11.dtd">
<!-- Generated by graphviz version 2.43.0 (0)
 -->
<!-- Title: VortexRing.cpp Pages: 1 -->
<svg width="2765pt" height="330pt"
 viewBox="0.00 0.00 2764.69 330.00" xmlns="http://www.w3.org/2000/svg" xmlns:xlink="http://www.w3.org/1999/xlink">
<g id="graph0" class="graph" transform="scale(1 1) rotate(0) translate(4 326)">
<title>VortexRing.cpp</title>
<polygon fill="white" stroke="transparent" points="-4,4 -4,-326 2760.69,-326 2760.69,4 -4,4"/>
<!-- Node1 -->
<g id="node1" class="node">
<title>Node1</title>
<g id="a_node1"><a xlink:title=" ">
<polygon fill="#bfbfbf" stroke="black" points="1872.19,-302.5 1872.19,-321.5 1962.19,-321.5 1962.19,-302.5 1872.19,-302.5"/>
<text text-anchor="middle" x="1917.19" y="-309.5" font-family="Helvetica,sans-Serif" font-size="10.00">VortexRing.cpp</text>
</a>
</g>
</g>
<!-- Node2 -->
<g id="node2" class="node">
<title>Node2</title>
<g id="a_node2"><a xlink:href="_vortex_ring_8_h.html" target="_top" xlink:title=" ">
<polygon fill="white" stroke="black" points="1675.19,-246.5 1675.19,-265.5 1845.19,-265.5 1845.19,-246.5 1675.19,-246.5"/>
<text text-anchor="middle" x="1760.19" y="-253.5" font-family="Helvetica,sans-Serif" font-size="10.00">amr&#45;wind/physics/VortexRing.H</text>
</a>
</g>
</g>
<!-- Node1&#45;&gt;Node2 -->
<g id="edge1" class="edge">
<title>Node1&#45;&gt;Node2</title>
<path fill="none" stroke="midnightblue" d="M1892.31,-302.44C1865.9,-293.36 1823.97,-278.94 1794.45,-268.78"/>
<polygon fill="midnightblue" stroke="midnightblue" points="1795.54,-265.46 1784.95,-265.52 1793.27,-272.08 1795.54,-265.46"/>
</g>
<!-- Node22 -->
<g id="node22" class="node">
<title>Node22</title>
<g id="a_node22"><a xlink:href="_c_f_d_sim_8_h.html" target="_top" xlink:title=" ">
<polygon fill="white" stroke="black" points="1541.19,-246.5 1541.19,-265.5 1657.19,-265.5 1657.19,-246.5 1541.19,-246.5"/>
<text text-anchor="middle" x="1599.19" y="-253.5" font-family="Helvetica,sans-Serif" font-size="10.00">amr&#45;wind/CFDSim.H</text>
</a>
</g>
</g>
<!-- Node1&#45;&gt;Node22 -->
<g id="edge31" class="edge">
<title>Node1&#45;&gt;Node22</title>
<path fill="none" stroke="midnightblue" d="M1871.96,-303.32C1816.25,-293.86 1721.4,-277.75 1659.52,-267.24"/>
<polygon fill="midnightblue" stroke="midnightblue" points="1659.95,-263.77 1649.5,-265.54 1658.78,-270.67 1659.95,-263.77"/>
</g>
<!-- Node28 -->
<g id="node28" class="node">
<title>Node28</title>
<g id="a_node28"><a xlink:href="_field_repo_8_h.html" target="_top" xlink:title=" ">
<polygon fill="white" stroke="black" points="725.69,-185 725.69,-204 874.69,-204 874.69,-185 725.69,-185"/>
<text text-anchor="middle" x="800.19" y="-192" font-family="Helvetica,sans-Serif" font-size="10.00">amr&#45;wind/core/FieldRepo.H</text>
</a>
</g>
</g>
<!-- Node1&#45;&gt;Node28 -->
<g id="edge84" class="edge">
<title>Node1&#45;&gt;Node28</title>
<path fill="none" stroke="midnightblue" d="M1872.02,-306.33C1703.19,-288.87 1107.57,-227.28 884.96,-204.27"/>
<polygon fill="midnightblue" stroke="midnightblue" points="885.27,-200.78 874.97,-203.23 884.55,-207.74 885.27,-200.78"/>
</g>
<!-- Node40 -->
<g id="node40" class="node">
<title>Node40</title>
<g id="a_node40"><a xlink:title=" ">
<polygon fill="white" stroke="#bfbfbf" points="1901.69,-246.5 1901.69,-265.5 2020.69,-265.5 2020.69,-246.5 1901.69,-246.5"/>
<text text-anchor="middle" x="1961.19" y="-253.5" font-family="Helvetica,sans-Serif" font-size="10.00">AMReX_ParmParse.H</text>
</a>
</g>
</g>
<!-- Node1&#45;&gt;Node40 -->
<g id="edge76" class="edge">
<title>Node1&#45;&gt;Node40</title>
<path fill="none" stroke="midnightblue" d="M1924.45,-302.08C1930.73,-294.38 1939.98,-283.03 1947.62,-273.65"/>
<polygon fill="midnightblue" stroke="midnightblue" points="1950.45,-275.71 1954.06,-265.75 1945.03,-271.29 1950.45,-275.71"/>
</g>
<!-- Node41 -->
<g id="node41" class="node">
<title>Node41</title>
<g id="a_node41"><a xlink:href="trig__ops_8_h.html" target="_top" xlink:title=" ">
<polygon fill="white" stroke="black" points="2592.69,-179.5 2592.69,-209.5 2695.69,-209.5 2695.69,-179.5 2592.69,-179.5"/>
<text text-anchor="start" x="2600.69" y="-197.5" font-family="Helvetica,sans-Serif" font-size="10.00">amr&#45;wind/utilities</text>
<text text-anchor="middle" x="2644.19" y="-186.5" font-family="Helvetica,sans-Serif" font-size="10.00">/trig_ops.H</text>
</a>
</g>
</g>
<!-- Node1&#45;&gt;Node41 -->
<g id="edge77" class="edge">
<title>Node1&#45;&gt;Node41</title>
<path fill="none" stroke="midnightblue" d="M1908.95,-302.29C1897.04,-288.63 1877.99,-262.09 1893.19,-246 1941.25,-195.11 2452.45,-216.13 2522.19,-210 2541.82,-208.27 2563.17,-205.9 2582.45,-203.58"/>
<polygon fill="midnightblue" stroke="midnightblue" points="2583.11,-207.03 2592.61,-202.34 2582.26,-200.08 2583.11,-207.03"/>
</g>
<!-- Node43 -->
<g id="node43" class="node">
<title>Node43</title>
<g id="a_node43"><a xlink:title=" ">
<polygon fill="white" stroke="#bfbfbf" points="2039.19,-246.5 2039.19,-265.5 2193.19,-265.5 2193.19,-246.5 2039.19,-246.5"/>
<text text-anchor="middle" x="2116.19" y="-253.5" font-family="Helvetica,sans-Serif" font-size="10.00">AMReX_MLNodeLaplacian.H</text>
</a>
</g>
</g>
<!-- Node1&#45;&gt;Node43 -->
<g id="edge81" class="edge">
<title>Node1&#45;&gt;Node43</title>
<path fill="none" stroke="midnightblue" d="M1948.72,-302.44C1982.78,-293.2 2037.19,-278.44 2074.7,-268.26"/>
<polygon fill="midnightblue" stroke="midnightblue" points="2076.07,-271.51 2084.8,-265.52 2074.24,-264.76 2076.07,-271.51"/>
</g>
<!-- Node44 -->
<g id="node44" class="node">
<title>Node44</title>
<g id="a_node44"><a xlink:title=" ">
<polygon fill="white" stroke="#bfbfbf" points="2211.19,-246.5 2211.19,-265.5 2309.19,-265.5 2309.19,-246.5 2211.19,-246.5"/>
<text text-anchor="middle" x="2260.19" y="-253.5" font-family="Helvetica,sans-Serif" font-size="10.00">AMReX_MLMG.H</text>
</a>
</g>
</g>
<!-- Node1&#45;&gt;Node44 -->
<g id="edge82" class="edge">
<title>Node1&#45;&gt;Node44</title>
<path fill="none" stroke="midnightblue" d="M1962.38,-303.88C2023.63,-294.24 2133.12,-277 2200.91,-266.33"/>
<polygon fill="midnightblue" stroke="midnightblue" points="2201.67,-269.76 2211.01,-264.74 2200.59,-262.84 2201.67,-269.76"/>
</g>
<!-- Node45 -->
<g id="node45" class="node">
<title>Node45</title>
<g id="a_node45"><a xlink:title=" ">
<polygon fill="white" stroke="#bfbfbf" points="2327.69,-246.5 2327.69,-265.5 2452.69,-265.5 2452.69,-246.5 2327.69,-246.5"/>
<text text-anchor="middle" x="2390.19" y="-253.5" font-family="Helvetica,sans-Serif" font-size="10.00">AMReX_FillPatchUtil.H</text>
</a>
</g>
</g>
<!-- Node1&#45;&gt;Node45 -->
<g id="edge83" class="edge">
<title>Node1&#45;&gt;Node45</title>
<path fill="none" stroke="midnightblue" d="M1962.31,-306.12C2034.75,-298.25 2181.74,-282.12 2317.22,-266.1"/>
<polygon fill="midnightblue" stroke="midnightblue" points="2317.85,-269.55 2327.36,-264.9 2317.02,-262.6 2317.85,-269.55"/>
</g>
<!-- Node3 -->
<g id="node3" class="node">
<title>Node3</title>
<g id="a_node3"><a xlink:href="_physics_8_h.html" target="_top" xlink:title=" ">
<polygon fill="white" stroke="black" points="1889.69,-185 1889.69,-204 2026.69,-204 2026.69,-185 1889.69,-185"/>
<text text-anchor="middle" x="1958.19" y="-192" font-family="Helvetica,sans-Serif" font-size="10.00">amr&#45;wind/core/Physics.H</text>
</a>
</g>
</g>
<!-- Node2&#45;&gt;Node3 -->
<g id="edge2" class="edge">
<title>Node2&#45;&gt;Node3</title>
<path fill="none" stroke="midnightblue" d="M1788.56,-246.48C1823.11,-236.09 1881.61,-218.51 1920.07,-206.95"/>
<polygon fill="midnightblue" stroke="midnightblue" points="1921.3,-210.24 1929.87,-204.01 1919.29,-203.54 1921.3,-210.24"/>
</g>
<!-- Node15 -->
<g id="node15" class="node">
<title>Node15</title>
<g id="a_node15"><a xlink:href="_field_8_h.html" target="_top" xlink:title=" ">
<polygon fill="white" stroke="black" points="1418.19,-118 1418.19,-137 1542.19,-137 1542.19,-118 1418.19,-118"/>
<text text-anchor="middle" x="1480.19" y="-125" font-family="Helvetica,sans-Serif" font-size="10.00">amr&#45;wind/core/Field.H</text>
</a>
</g>
</g>
<!-- Node2&#45;&gt;Node15 -->
<g id="edge16" class="edge">
<title>Node2&#45;&gt;Node15</title>
<path fill="none" stroke="midnightblue" d="M1740.94,-246.31C1692.47,-224.41 1565.19,-166.9 1508.33,-141.21"/>
<polygon fill="midnightblue" stroke="midnightblue" points="1509.75,-138.02 1499.2,-137.09 1506.87,-144.4 1509.75,-138.02"/>
</g>
<!-- Node4 -->
<g id="node4" class="node">
<title>Node4</title>
<g id="a_node4"><a xlink:href="_factory_8_h.html" target="_top" xlink:title=" ">
<polygon fill="white" stroke="black" points="1908.19,-118 1908.19,-137 2042.19,-137 2042.19,-118 1908.19,-118"/>
<text text-anchor="middle" x="1975.19" y="-125" font-family="Helvetica,sans-Serif" font-size="10.00">amr&#45;wind/core/Factory.H</text>
</a>
</g>
</g>
<!-- Node3&#45;&gt;Node4 -->
<g id="edge3" class="edge">
<title>Node3&#45;&gt;Node4</title>
<path fill="none" stroke="midnightblue" d="M1960.48,-184.73C1963,-175.09 1967.13,-159.3 1970.37,-146.91"/>
<polygon fill="midnightblue" stroke="midnightblue" points="1973.79,-147.69 1972.93,-137.13 1967.01,-145.92 1973.79,-147.69"/>
</g>
<!-- Node10 -->
<g id="node10" class="node">
<title>Node10</title>
<g id="a_node10"><a xlink:href="_coll_mgr_8_h.html" target="_top" xlink:title=" ">
<polygon fill="white" stroke="black" points="1676.69,-118 1676.69,-137 1813.69,-137 1813.69,-118 1676.69,-118"/>
<text text-anchor="middle" x="1745.19" y="-125" font-family="Helvetica,sans-Serif" font-size="10.00">amr&#45;wind/core/CollMgr.H</text>
</a>
</g>
</g>
<!-- Node3&#45;&gt;Node10 -->
<g id="edge9" class="edge">
<title>Node3&#45;&gt;Node10</title>
<path fill="none" stroke="midnightblue" d="M1929.9,-184.87C1892.08,-173.33 1824.93,-152.84 1782.86,-140"/>
<polygon fill="midnightblue" stroke="midnightblue" points="1783.84,-136.63 1773.25,-137.06 1781.79,-143.33 1783.84,-136.63"/>
</g>
<!-- Node13 -->
<g id="node13" class="node">
<title>Node13</title>
<g id="a_node13"><a xlink:title=" ">
<polygon fill="white" stroke="#bfbfbf" points="1485.69,-0.5 1485.69,-19.5 1594.69,-19.5 1594.69,-0.5 1485.69,-0.5"/>
<text text-anchor="middle" x="1540.19" y="-7.5" font-family="Helvetica,sans-Serif" font-size="10.00">AMReX_MultiFab.H</text>
</a>
</g>
</g>
<!-- Node3&#45;&gt;Node13 -->
<g id="edge14" class="edge">
<title>Node3&#45;&gt;Node13</title>
<path fill="none" stroke="midnightblue" d="M2026.8,-186.27C2073.21,-179.48 2134.97,-166.66 2185.19,-143 2234.37,-119.82 2308.43,-95.61 2271.19,-56 2248.53,-31.9 1779.65,-17.25 1605,-12.61"/>
<polygon fill="midnightblue" stroke="midnightblue" points="1605,-9.1 1594.91,-12.34 1604.82,-16.1 1605,-9.1"/>
</g>
<!-- Node14 -->
<g id="node14" class="node">
<title>Node14</title>
<g id="a_node14"><a xlink:title=" ">
<polygon fill="white" stroke="#bfbfbf" points="2060.69,-118 2060.69,-137 2175.69,-137 2175.69,-118 2060.69,-118"/>
<text text-anchor="middle" x="2118.19" y="-125" font-family="Helvetica,sans-Serif" font-size="10.00">AMReX_Geometry.H</text>
</a>
</g>
</g>
<!-- Node3&#45;&gt;Node14 -->
<g id="edge15" class="edge">
<title>Node3&#45;&gt;Node14</title>
<path fill="none" stroke="midnightblue" d="M1979.43,-184.87C2007.12,-173.62 2055.75,-153.87 2087.45,-140.99"/>
<polygon fill="midnightblue" stroke="midnightblue" points="2089.16,-144.07 2097.11,-137.06 2086.53,-137.58 2089.16,-144.07"/>
</g>
<!-- Node5 -->
<g id="node5" class="node">
<title>Node5</title>
<g id="a_node5"><a xlink:title=" ">
<polygon fill="white" stroke="#bfbfbf" points="1680.19,-56.5 1680.19,-75.5 1738.19,-75.5 1738.19,-56.5 1680.19,-56.5"/>
<text text-anchor="middle" x="1709.19" y="-63.5" font-family="Helvetica,sans-Serif" font-size="10.00">memory</text>
</a>
</g>
</g>
<!-- Node4&#45;&gt;Node5 -->
<g id="edge4" class="edge">
<title>Node4&#45;&gt;Node5</title>
<path fill="none" stroke="midnightblue" d="M1937.08,-117.98C1886.81,-106.73 1798.82,-87.05 1748.14,-75.71"/>
<polygon fill="midnightblue" stroke="midnightblue" points="1748.74,-72.26 1738.22,-73.49 1747.22,-79.09 1748.74,-72.26"/>
</g>
<!-- Node6 -->
<g id="node6" class="node">
<title>Node6</title>
<g id="a_node6"><a xlink:title=" ">
<polygon fill="white" stroke="#bfbfbf" points="1568.69,-56.5 1568.69,-75.5 1661.69,-75.5 1661.69,-56.5 1568.69,-56.5"/>
<text text-anchor="middle" x="1615.19" y="-63.5" font-family="Helvetica,sans-Serif" font-size="10.00">unordered_map</text>
</a>
</g>
</g>
<!-- Node4&#45;&gt;Node6 -->
<g id="edge5" class="edge">
<title>Node4&#45;&gt;Node6</title>
<path fill="none" stroke="midnightblue" d="M1923.61,-117.98C1856.94,-106.96 1741.24,-87.83 1672.08,-76.4"/>
<polygon fill="midnightblue" stroke="midnightblue" points="1672.25,-72.88 1661.81,-74.71 1671.1,-79.79 1672.25,-72.88"/>
</g>
<!-- Node7 -->
<g id="node7" class="node">
<title>Node7</title>
<g id="a_node7"><a xlink:title=" ">
<polygon fill="white" stroke="#bfbfbf" points="2094.19,-56.5 2094.19,-75.5 2154.19,-75.5 2154.19,-56.5 2094.19,-56.5"/>
<text text-anchor="middle" x="2124.19" y="-63.5" font-family="Helvetica,sans-Serif" font-size="10.00">iostream</text>
</a>
</g>
</g>
<!-- Node4&#45;&gt;Node7 -->
<g id="edge6" class="edge">
<title>Node4&#45;&gt;Node7</title>
<path fill="none" stroke="midnightblue" d="M1996.54,-117.98C2021.87,-107.86 2064.33,-90.9 2093.26,-79.35"/>
<polygon fill="midnightblue" stroke="midnightblue" points="2094.89,-82.47 2102.88,-75.51 2092.29,-75.97 2094.89,-82.47"/>
</g>
<!-- Node8 -->
<g id="node8" class="node">
<title>Node8</title>
<g id="a_node8"><a xlink:title=" ">
<polygon fill="white" stroke="#bfbfbf" points="2172.19,-56.5 2172.19,-75.5 2262.19,-75.5 2262.19,-56.5 2172.19,-56.5"/>
<text text-anchor="middle" x="2217.19" y="-63.5" font-family="Helvetica,sans-Serif" font-size="10.00">AMReX_Print.H</text>
</a>
</g>
</g>
<!-- Node4&#45;&gt;Node8 -->
<g id="edge7" class="edge">
<title>Node4&#45;&gt;Node8</title>
<path fill="none" stroke="midnightblue" d="M2009.86,-117.98C2052.72,-107.44 2125.73,-89.49 2172.69,-77.94"/>
<polygon fill="midnightblue" stroke="midnightblue" points="2173.7,-81.3 2182.58,-75.51 2172.03,-74.5 2173.7,-81.3"/>
</g>
<!-- Node9 -->
<g id="node9" class="node">
<title>Node9</title>
<g id="a_node9"><a xlink:title=" ">
<polygon fill="white" stroke="#bfbfbf" points="1908.19,-56.5 1908.19,-75.5 1970.19,-75.5 1970.19,-56.5 1908.19,-56.5"/>
<text text-anchor="middle" x="1939.19" y="-63.5" font-family="Helvetica,sans-Serif" font-size="10.00">AMReX.H</text>
</a>
</g>
</g>
<!-- Node4&#45;&gt;Node9 -->
<g id="edge8" class="edge">
<title>Node4&#45;&gt;Node9</title>
<path fill="none" stroke="midnightblue" d="M1970.03,-117.98C1964.74,-109.23 1956.35,-95.37 1949.66,-84.31"/>
<polygon fill="midnightblue" stroke="midnightblue" points="1952.51,-82.25 1944.34,-75.51 1946.52,-85.88 1952.51,-82.25"/>
</g>
<!-- Node10&#45;&gt;Node5 -->
<g id="edge11" class="edge">
<title>Node10&#45;&gt;Node5</title>
<path fill="none" stroke="midnightblue" d="M1740.03,-117.98C1734.74,-109.23 1726.35,-95.37 1719.66,-84.31"/>
<polygon fill="midnightblue" stroke="midnightblue" points="1722.51,-82.25 1714.34,-75.51 1716.52,-85.88 1722.51,-82.25"/>
</g>
<!-- Node10&#45;&gt;Node6 -->
<g id="edge12" class="edge">
<title>Node10&#45;&gt;Node6</title>
<path fill="none" stroke="midnightblue" d="M1726.56,-117.98C1704.74,-107.99 1668.38,-91.35 1643.17,-79.81"/>
<polygon fill="midnightblue" stroke="midnightblue" points="1644.33,-76.49 1633.78,-75.51 1641.42,-82.85 1644.33,-76.49"/>
</g>
<!-- Node11 -->
<g id="node11" class="node">
<title>Node11</title>
<g id="a_node11"><a xlink:title=" ">
<polygon fill="white" stroke="#bfbfbf" points="774.19,-0.5 774.19,-19.5 818.19,-19.5 818.19,-0.5 774.19,-0.5"/>
<text text-anchor="middle" x="796.19" y="-7.5" font-family="Helvetica,sans-Serif" font-size="10.00">string</text>
</a>
</g>
</g>
<!-- Node10&#45;&gt;Node11 -->
<g id="edge10" class="edge">
<title>Node10&#45;&gt;Node11</title>
<path fill="none" stroke="midnightblue" d="M1748.9,-117.74C1754.56,-102.86 1763.1,-72.64 1747.19,-56 1716.33,-23.72 988.78,-22.36 944.19,-20 904.35,-17.9 858.51,-15.04 828.53,-13.12"/>
<polygon fill="midnightblue" stroke="midnightblue" points="828.45,-9.6 818.25,-12.45 828,-16.59 828.45,-9.6"/>
</g>
<!-- Node12 -->
<g id="node12" class="node">
<title>Node12</title>
<g id="a_node12"><a xlink:title=" ">
<polygon fill="white" stroke="#bfbfbf" points="953.19,-0.5 953.19,-19.5 1051.19,-19.5 1051.19,-0.5 953.19,-0.5"/>
<text text-anchor="middle" x="1002.19" y="-7.5" font-family="Helvetica,sans-Serif" font-size="10.00">AMReX_Vector.H</text>
</a>
</g>
</g>
<!-- Node10&#45;&gt;Node12 -->
<g id="edge13" class="edge">
<title>Node10&#45;&gt;Node12</title>
<path fill="none" stroke="midnightblue" d="M1755.27,-117.95C1770.97,-103.64 1797.73,-74.58 1780.19,-56 1755.6,-29.95 1239.25,-16.2 1061.6,-12.23"/>
<polygon fill="midnightblue" stroke="midnightblue" points="1061.47,-8.73 1051.4,-12.01 1061.32,-15.73 1061.47,-8.73"/>
</g>
<!-- Node15&#45;&gt;Node5 -->
<g id="edge18" class="edge">
<title>Node15&#45;&gt;Node5</title>
<path fill="none" stroke="midnightblue" d="M1513,-117.98C1554.53,-107.18 1625.99,-88.62 1670.25,-77.12"/>
<polygon fill="midnightblue" stroke="midnightblue" points="1671.27,-80.47 1680.06,-74.57 1669.51,-73.69 1671.27,-80.47"/>
</g>
<!-- Node15&#45;&gt;Node6 -->
<g id="edge19" class="edge">
<title>Node15&#45;&gt;Node6</title>
<path fill="none" stroke="midnightblue" d="M1499.53,-117.98C1522.29,-107.95 1560.28,-91.2 1586.48,-79.65"/>
<polygon fill="midnightblue" stroke="midnightblue" points="1588.14,-82.74 1595.88,-75.51 1585.32,-76.34 1588.14,-82.74"/>
</g>
<!-- Node15&#45;&gt;Node11 -->
<g id="edge17" class="edge">
<title>Node15&#45;&gt;Node11</title>
<path fill="none" stroke="midnightblue" d="M1448.16,-117.94C1415.85,-108.92 1364.78,-93.59 1322.19,-76 1304.18,-68.57 1301.89,-61.44 1283.19,-56 1239.68,-43.35 930.17,-20.51 828.48,-13.27"/>
<polygon fill="midnightblue" stroke="midnightblue" points="828.7,-9.78 818.48,-12.56 828.21,-16.76 828.7,-9.78"/>
</g>
<!-- Node15&#45;&gt;Node13 -->
<g id="edge21" class="edge">
<title>Node15&#45;&gt;Node13</title>
<path fill="none" stroke="midnightblue" d="M1488.93,-117.98C1498.18,-108.51 1512.58,-92.4 1521.19,-76 1528.87,-61.36 1533.84,-43.19 1536.77,-29.79"/>
<polygon fill="midnightblue" stroke="midnightblue" points="1540.23,-30.32 1538.76,-19.83 1533.37,-28.95 1540.23,-30.32"/>
</g>
<!-- Node16 -->
<g id="node16" class="node">
<title>Node16</title>
<g id="a_node16"><a xlink:title=" ">
<polygon fill="white" stroke="#bfbfbf" points="1448.19,-56.5 1448.19,-75.5 1512.19,-75.5 1512.19,-56.5 1448.19,-56.5"/>
<text text-anchor="middle" x="1480.19" y="-63.5" font-family="Helvetica,sans-Serif" font-size="10.00">algorithm</text>
</a>
</g>
</g>
<!-- Node15&#45;&gt;Node16 -->
<g id="edge20" class="edge">
<title>Node15&#45;&gt;Node16</title>
<path fill="none" stroke="midnightblue" d="M1480.19,-117.98C1480.19,-109.58 1480.19,-96.48 1480.19,-85.66"/>
<polygon fill="midnightblue" stroke="midnightblue" points="1483.69,-85.51 1480.19,-75.51 1476.69,-85.51 1483.69,-85.51"/>
</g>
<!-- Node17 -->
<g id="node17" class="node">
<title>Node17</title>
<g id="a_node17"><a xlink:title=" ">
<polygon fill="white" stroke="#bfbfbf" points="1330.69,-56.5 1330.69,-75.5 1429.69,-75.5 1429.69,-56.5 1330.69,-56.5"/>
<text text-anchor="middle" x="1380.19" y="-63.5" font-family="Helvetica,sans-Serif" font-size="10.00">AMReX_BCRec.H</text>
</a>
</g>
</g>
<!-- Node15&#45;&gt;Node17 -->
<g id="edge22" class="edge">
<title>Node15&#45;&gt;Node17</title>
<path fill="none" stroke="midnightblue" d="M1465.86,-117.98C1449.52,-108.25 1422.59,-92.23 1403.28,-80.74"/>
<polygon fill="midnightblue" stroke="midnightblue" points="1404.87,-77.61 1394.49,-75.51 1401.29,-83.63 1404.87,-77.61"/>
</g>
<!-- Node18 -->
<g id="node18" class="node">
<title>Node18</title>
<g id="a_node18"><a xlink:title=" ">
<polygon fill="white" stroke="#bfbfbf" points="1988.69,-56.5 1988.69,-75.5 2075.69,-75.5 2075.69,-56.5 1988.69,-56.5"/>
<text text-anchor="middle" x="2032.19" y="-63.5" font-family="Helvetica,sans-Serif" font-size="10.00">AMReX_Gpu.H</text>
</a>
</g>
</g>
<!-- Node15&#45;&gt;Node18 -->
<g id="edge23" class="edge">
<title>Node15&#45;&gt;Node18</title>
<path fill="none" stroke="midnightblue" d="M1542.19,-121.58C1634.76,-113.93 1814.78,-97.9 1978.3,-76.03"/>
<polygon fill="midnightblue" stroke="midnightblue" points="1979.11,-79.45 1988.55,-74.65 1978.17,-72.52 1979.11,-79.45"/>
</g>
<!-- Node19 -->
<g id="node19" class="node">
<title>Node19</title>
<g id="a_node19"><a xlink:href="incflo__enums_8_h.html" target="_top" xlink:title=" ">
<polygon fill="white" stroke="black" points="1132.69,-56.5 1132.69,-75.5 1273.69,-75.5 1273.69,-56.5 1132.69,-56.5"/>
<text text-anchor="middle" x="1203.19" y="-63.5" font-family="Helvetica,sans-Serif" font-size="10.00">amr&#45;wind/incflo_enums.H</text>
</a>
</g>
</g>
<!-- Node15&#45;&gt;Node19 -->
<g id="edge24" class="edge">
<title>Node15&#45;&gt;Node19</title>
<path fill="none" stroke="midnightblue" d="M1440.5,-117.98C1391.03,-107.35 1306.47,-89.18 1252.78,-77.65"/>
<polygon fill="midnightblue" stroke="midnightblue" points="1253.31,-74.19 1242.8,-75.51 1251.84,-81.03 1253.31,-74.19"/>
</g>
<!-- Node20 -->
<g id="node20" class="node">
<title>Node20</title>
<g id="a_node20"><a xlink:href="_field_desc_types_8_h.html" target="_top" xlink:title=" ">
<polygon fill="white" stroke="black" points="305.19,-0.5 305.19,-19.5 481.19,-19.5 481.19,-0.5 305.19,-0.5"/>
<text text-anchor="middle" x="393.19" y="-7.5" font-family="Helvetica,sans-Serif" font-size="10.00">amr&#45;wind/core/FieldDescTypes.H</text>
</a>
</g>
</g>
<!-- Node15&#45;&gt;Node20 -->
<g id="edge25" class="edge">
<title>Node15&#45;&gt;Node20</title>
<path fill="none" stroke="midnightblue" d="M1417.81,-123.97C1291.83,-118.36 1011.22,-103.17 919.19,-76 900.88,-70.6 899.49,-61.42 881.19,-56 810.57,-35.06 612.27,-21.86 491.29,-15.51"/>
<polygon fill="midnightblue" stroke="midnightblue" points="491.44,-12.02 481.27,-14.99 491.08,-19.01 491.44,-12.02"/>
</g>
<!-- Node21 -->
<g id="node21" class="node">
<title>Node21</title>
<g id="a_node21"><a xlink:href="_view_field_8_h.html" target="_top" xlink:title=" ">
<polygon fill="white" stroke="black" points="928.19,-56.5 928.19,-75.5 1076.19,-75.5 1076.19,-56.5 928.19,-56.5"/>
<text text-anchor="middle" x="1002.19" y="-63.5" font-family="Helvetica,sans-Serif" font-size="10.00">amr&#45;wind/core/ViewField.H</text>
</a>
</g>
</g>
<!-- Node15&#45;&gt;Node21 -->
<g id="edge26" class="edge">
<title>Node15&#45;&gt;Node21</title>
<path fill="none" stroke="midnightblue" d="M1418.19,-118.78C1331.79,-108.03 1175.17,-88.53 1080.71,-76.77"/>
<polygon fill="midnightblue" stroke="midnightblue" points="1081,-73.28 1070.64,-75.52 1080.13,-80.23 1081,-73.28"/>
</g>
<!-- Node21&#45;&gt;Node11 -->
<g id="edge27" class="edge">
<title>Node21&#45;&gt;Node11</title>
<path fill="none" stroke="midnightblue" d="M969.55,-56.44C930.87,-46.3 866.83,-29.52 828.36,-19.43"/>
<polygon fill="midnightblue" stroke="midnightblue" points="828.79,-15.93 818.22,-16.78 827.01,-22.7 828.79,-15.93"/>
</g>
<!-- Node21&#45;&gt;Node12 -->
<g id="edge30" class="edge">
<title>Node21&#45;&gt;Node12</title>
<path fill="none" stroke="midnightblue" d="M1002.19,-56.08C1002.19,-49.01 1002.19,-38.86 1002.19,-29.99"/>
<polygon fill="midnightblue" stroke="midnightblue" points="1005.69,-29.75 1002.19,-19.75 998.69,-29.75 1005.69,-29.75"/>
</g>
<!-- Node21&#45;&gt;Node13 -->
<g id="edge29" class="edge">
<title>Node21&#45;&gt;Node13</title>
<path fill="none" stroke="midnightblue" d="M1076.6,-57.38C1081.2,-56.91 1085.76,-56.45 1090.19,-56 1227.32,-42.13 1387.99,-26.12 1475.42,-17.43"/>
<polygon fill="midnightblue" stroke="midnightblue" points="1475.86,-20.9 1485.46,-16.43 1475.16,-13.94 1475.86,-20.9"/>
</g>
<!-- Node21&#45;&gt;Node20 -->
<g id="edge28" class="edge">
<title>Node21&#45;&gt;Node20</title>
<path fill="none" stroke="midnightblue" d="M927.78,-57.31C923.18,-56.86 918.62,-56.42 914.19,-56 767.01,-42.12 596.28,-27.69 491.51,-19.03"/>
<polygon fill="midnightblue" stroke="midnightblue" points="491.52,-15.52 481.26,-18.18 490.94,-22.49 491.52,-15.52"/>
</g>
<!-- Node22&#45;&gt;Node3 -->
<g id="edge69" class="edge">
<title>Node22&#45;&gt;Node3</title>
<path fill="none" stroke="midnightblue" d="M1650.62,-246.48C1715.67,-235.69 1827.53,-217.15 1896.93,-205.65"/>
<polygon fill="midnightblue" stroke="midnightblue" points="1897.55,-209.1 1906.85,-204.01 1896.41,-202.19 1897.55,-209.1"/>
</g>
<!-- Node23 -->
<g id="node23" class="node">
<title>Node23</title>
<g id="a_node23"><a xlink:title=" ">
<polygon fill="white" stroke="#bfbfbf" points="786.19,-118 786.19,-137 896.19,-137 896.19,-118 786.19,-118"/>
<text text-anchor="middle" x="841.19" y="-125" font-family="Helvetica,sans-Serif" font-size="10.00">AMReX_AmrCore.H</text>
</a>
</g>
</g>
<!-- Node22&#45;&gt;Node23 -->
<g id="edge32" class="edge">
<title>Node22&#45;&gt;Node23</title>
<path fill="none" stroke="midnightblue" d="M1541.05,-253.24C1449.8,-249.67 1267.72,-239.22 1116.19,-210 1026.8,-192.76 924.84,-158.58 873.85,-140.45"/>
<polygon fill="midnightblue" stroke="midnightblue" points="874.94,-137.12 864.35,-137.05 872.58,-143.71 874.94,-137.12"/>
</g>
<!-- Node24 -->
<g id="node24" class="node">
<title>Node24</title>
<g id="a_node24"><a xlink:href="_sim_time_8_h.html" target="_top" xlink:title=" ">
<polygon fill="white" stroke="black" points="2369.19,-185 2369.19,-204 2513.19,-204 2513.19,-185 2369.19,-185"/>
<text text-anchor="middle" x="2441.19" y="-192" font-family="Helvetica,sans-Serif" font-size="10.00">amr&#45;wind/core/SimTime.H</text>
</a>
</g>
</g>
<!-- Node22&#45;&gt;Node24 -->
<g id="edge33" class="edge">
<title>Node22&#45;&gt;Node24</title>
<path fill="none" stroke="midnightblue" d="M1657.26,-246.95C1660.28,-246.61 1663.27,-246.29 1666.19,-246 1917.83,-220.93 2216.74,-205.49 2358.58,-199.02"/>
<polygon fill="midnightblue" stroke="midnightblue" points="2359.1,-202.5 2368.93,-198.55 2358.78,-195.51 2359.1,-202.5"/>
</g>
<!-- Node22&#45;&gt;Node28 -->
<g id="edge37" class="edge">
<title>Node22&#45;&gt;Node28</title>
<path fill="none" stroke="midnightblue" d="M1540.86,-250.81C1431.89,-242.95 1189.95,-225.42 986.19,-210 953.11,-207.5 916.73,-204.68 884.98,-202.19"/>
<polygon fill="midnightblue" stroke="midnightblue" points="885.09,-198.69 874.85,-201.4 884.54,-205.67 885.09,-198.69"/>
</g>
<!-- Node36 -->
<g id="node36" class="node">
<title>Node36</title>
<g id="a_node36"><a xlink:href="_p_d_e_base_8_h.html" target="_top" xlink:title=" ">
<polygon fill="white" stroke="black" points="1125.69,-179.5 1125.69,-209.5 1280.69,-209.5 1280.69,-179.5 1125.69,-179.5"/>
<text text-anchor="start" x="1133.69" y="-197.5" font-family="Helvetica,sans-Serif" font-size="10.00">amr&#45;wind/equation_systems</text>
<text text-anchor="middle" x="1203.19" y="-186.5" font-family="Helvetica,sans-Serif" font-size="10.00">/PDEBase.H</text>
</a>
</g>
</g>
<!-- Node22&#45;&gt;Node36 -->
<g id="edge61" class="edge">
<title>Node22&#45;&gt;Node36</title>
<path fill="none" stroke="midnightblue" d="M1542.45,-246.48C1476.75,-236.6 1367.75,-220.23 1291.07,-208.7"/>
<polygon fill="midnightblue" stroke="midnightblue" points="1291.35,-205.21 1280.94,-207.18 1290.31,-212.13 1291.35,-205.21"/>
</g>
<!-- Node39 -->
<g id="node39" class="node">
<title>Node39</title>
<g id="a_node39"><a xlink:href="_mesh_map_8_h.html" target="_top" xlink:title=" ">
<polygon fill="white" stroke="black" points="1689.19,-185 1689.19,-204 1837.19,-204 1837.19,-185 1689.19,-185"/>
<text text-anchor="middle" x="1763.19" y="-192" font-family="Helvetica,sans-Serif" font-size="10.00">amr&#45;wind/core/MeshMap.H</text>
</a>
</g>
</g>
<!-- Node22&#45;&gt;Node39 -->
<g id="edge70" class="edge">
<title>Node22&#45;&gt;Node39</title>
<path fill="none" stroke="midnightblue" d="M1622.68,-246.48C1650.82,-236.27 1698.12,-219.11 1729.98,-207.55"/>
<polygon fill="midnightblue" stroke="midnightblue" points="1731.53,-210.71 1739.73,-204.01 1729.14,-204.13 1731.53,-210.71"/>
</g>
<!-- Node25 -->
<g id="node25" class="node">
<title>Node25</title>
<g id="a_node25"><a xlink:title=" ">
<polygon fill="white" stroke="#bfbfbf" points="2561.19,-118 2561.19,-137 2653.19,-137 2653.19,-118 2561.19,-118"/>
<text text-anchor="middle" x="2607.19" y="-125" font-family="Helvetica,sans-Serif" font-size="10.00">AMReX_REAL.H</text>
</a>
</g>
</g>
<!-- Node24&#45;&gt;Node25 -->
<g id="edge34" class="edge">
<title>Node24&#45;&gt;Node25</title>
<path fill="none" stroke="midnightblue" d="M2463.23,-184.87C2492.08,-173.57 2542.84,-153.7 2575.73,-140.82"/>
<polygon fill="midnightblue" stroke="midnightblue" points="2577.28,-143.97 2585.32,-137.06 2574.73,-137.45 2577.28,-143.97"/>
</g>
<!-- Node26 -->
<g id="node26" class="node">
<title>Node26</title>
<g id="a_node26"><a xlink:title=" ">
<polygon fill="white" stroke="#bfbfbf" points="2275.19,-118 2275.19,-137 2409.19,-137 2409.19,-118 2275.19,-118"/>
<text text-anchor="middle" x="2342.19" y="-125" font-family="Helvetica,sans-Serif" font-size="10.00">AMReX_GpuQualifiers.H</text>
</a>
</g>
</g>
<!-- Node24&#45;&gt;Node26 -->
<g id="edge35" class="edge">
<title>Node24&#45;&gt;Node26</title>
<path fill="none" stroke="midnightblue" d="M2427.84,-184.73C2411.43,-173.96 2383.39,-155.55 2363.88,-142.74"/>
<polygon fill="midnightblue" stroke="midnightblue" points="2365.61,-139.69 2355.33,-137.13 2361.77,-145.54 2365.61,-139.69"/>
</g>
<!-- Node27 -->
<g id="node27" class="node">
<title>Node27</title>
<g id="a_node27"><a xlink:title=" ">
<polygon fill="white" stroke="#bfbfbf" points="2427.19,-118 2427.19,-137 2543.19,-137 2543.19,-118 2427.19,-118"/>
<text text-anchor="middle" x="2485.19" y="-125" font-family="Helvetica,sans-Serif" font-size="10.00">AMReX_Extension.H</text>
</a>
</g>
</g>
<!-- Node24&#45;&gt;Node27 -->
<g id="edge36" class="edge">
<title>Node24&#45;&gt;Node27</title>
<path fill="none" stroke="midnightblue" d="M2447.12,-184.73C2453.92,-174.7 2465.21,-158.01 2473.73,-145.42"/>
<polygon fill="midnightblue" stroke="midnightblue" points="2476.64,-147.37 2479.35,-137.13 2470.84,-143.45 2476.64,-147.37"/>
</g>
<!-- Node28&#45;&gt;Node6 -->
<g id="edge39" class="edge">
<title>Node28&#45;&gt;Node6</title>
<path fill="none" stroke="midnightblue" d="M874.85,-190.06C1058.84,-181.36 1521.35,-158.12 1551.19,-143 1576.37,-130.24 1595.52,-102.72 1606.05,-84.54"/>
<polygon fill="midnightblue" stroke="midnightblue" points="1609.24,-86 1611,-75.55 1603.11,-82.62 1609.24,-86"/>
</g>
<!-- Node28&#45;&gt;Node11 -->
<g id="edge38" class="edge">
<title>Node28&#45;&gt;Node11</title>
<path fill="none" stroke="midnightblue" d="M794.92,-184.96C789.24,-175.22 780.58,-158.63 777.19,-143 768.47,-102.81 780.99,-54.84 789.48,-29.24"/>
<polygon fill="midnightblue" stroke="midnightblue" points="792.81,-30.32 792.8,-19.72 786.2,-28.02 792.81,-30.32"/>
</g>
<!-- Node28&#45;&gt;Node13 -->
<g id="edge59" class="edge">
<title>Node28&#45;&gt;Node13</title>
<path fill="none" stroke="midnightblue" d="M874.83,-189.98C1110.15,-178.88 1821.14,-145.15 1823.19,-143 1846.09,-118.94 1800.13,-58.98 1796.19,-56 1766.81,-33.77 1670.78,-21.59 1605.06,-15.69"/>
<polygon fill="midnightblue" stroke="midnightblue" points="1605.06,-12.17 1594.79,-14.79 1604.45,-19.15 1605.06,-12.17"/>
</g>
<!-- Node28&#45;&gt;Node15 -->
<g id="edge45" class="edge">
<title>Node28&#45;&gt;Node15</title>
<path fill="none" stroke="midnightblue" d="M874.9,-186.36C1006.41,-173.79 1277.59,-147.87 1407.59,-135.44"/>
<polygon fill="midnightblue" stroke="midnightblue" points="1408.21,-138.9 1417.83,-134.46 1407.55,-131.93 1408.21,-138.9"/>
</g>
<!-- Node28&#45;&gt;Node20 -->
<g id="edge40" class="edge">
<title>Node28&#45;&gt;Node20</title>
<path fill="none" stroke="midnightblue" d="M725.55,-190.54C581.21,-184.33 268.8,-168.37 164.19,-143 89.26,-124.83 46.89,-140.18 4.19,-76 -0.74,-68.6 -1.73,-62.64 4.19,-56 23.27,-34.59 186.19,-21.85 295.05,-15.66"/>
<polygon fill="midnightblue" stroke="midnightblue" points="295.29,-19.15 305.08,-15.1 294.9,-12.16 295.29,-19.15"/>
</g>
<!-- Node28&#45;&gt;Node23 -->
<g id="edge58" class="edge">
<title>Node28&#45;&gt;Node23</title>
<path fill="none" stroke="midnightblue" d="M805.72,-184.73C811.99,-174.79 822.37,-158.34 830.28,-145.79"/>
<polygon fill="midnightblue" stroke="midnightblue" points="833.37,-147.45 835.75,-137.13 827.45,-143.72 833.37,-147.45"/>
</g>
<!-- Node29 -->
<g id="node29" class="node">
<title>Node29</title>
<g id="a_node29"><a xlink:href="_field_utils_8_h.html" target="_top" xlink:title=" ">
<polygon fill="white" stroke="black" points="13.19,-56.5 13.19,-75.5 159.19,-75.5 159.19,-56.5 13.19,-56.5"/>
<text text-anchor="middle" x="86.19" y="-63.5" font-family="Helvetica,sans-Serif" font-size="10.00">amr&#45;wind/core/FieldUtils.H</text>
</a>
</g>
</g>
<!-- Node28&#45;&gt;Node29 -->
<g id="edge41" class="edge">
<title>Node28&#45;&gt;Node29</title>
<path fill="none" stroke="midnightblue" d="M725.68,-190.07C595.49,-183.51 332.02,-167.64 243.19,-143 192.37,-128.9 138.04,-98.81 108.49,-81.02"/>
<polygon fill="midnightblue" stroke="midnightblue" points="110.16,-77.93 99.8,-75.7 106.51,-83.91 110.16,-77.93"/>
</g>
<!-- Node31 -->
<g id="node31" class="node">
<title>Node31</title>
<g id="a_node31"><a xlink:href="_int_field_8_h.html" target="_top" xlink:title=" ">
<polygon fill="white" stroke="black" points="279.69,-118 279.69,-137 416.69,-137 416.69,-118 279.69,-118"/>
<text text-anchor="middle" x="348.19" y="-125" font-family="Helvetica,sans-Serif" font-size="10.00">amr&#45;wind/core/IntField.H</text>
</a>
</g>
</g>
<!-- Node28&#45;&gt;Node31 -->
<g id="edge46" class="edge">
<title>Node28&#45;&gt;Node31</title>
<path fill="none" stroke="midnightblue" d="M740.63,-184.94C657.19,-172.94 505.82,-151.17 417.45,-138.46"/>
<polygon fill="midnightblue" stroke="midnightblue" points="417.91,-134.99 407.52,-137.03 416.92,-141.92 417.91,-134.99"/>
</g>
<!-- Node32 -->
<g id="node32" class="node">
<title>Node32</title>
<g id="a_node32"><a xlink:title=" ">
<polygon fill="white" stroke="#bfbfbf" points="177.19,-56.5 177.19,-75.5 289.19,-75.5 289.19,-56.5 177.19,-56.5"/>
<text text-anchor="middle" x="233.19" y="-63.5" font-family="Helvetica,sans-Serif" font-size="10.00">AMReX_iMultiFab.H</text>
</a>
</g>
</g>
<!-- Node28&#45;&gt;Node32 -->
<g id="edge60" class="edge">
<title>Node28&#45;&gt;Node32</title>
<path fill="none" stroke="midnightblue" d="M725.55,-190.41C588.37,-184.15 306.76,-168.37 270.19,-143 251.01,-129.7 241.38,-103.61 236.84,-85.74"/>
<polygon fill="midnightblue" stroke="midnightblue" points="240.23,-84.86 234.63,-75.86 233.4,-86.39 240.23,-84.86"/>
</g>
<!-- Node33 -->
<g id="node33" class="node">
<title>Node33</title>
<g id="a_node33"><a xlink:href="_scratch_field_8_h.html" target="_top" xlink:title=" ">
<polygon fill="white" stroke="black" points="570.19,-118 570.19,-137 730.19,-137 730.19,-118 570.19,-118"/>
<text text-anchor="middle" x="650.19" y="-125" font-family="Helvetica,sans-Serif" font-size="10.00">amr&#45;wind/core/ScratchField.H</text>
</a>
</g>
</g>
<!-- Node28&#45;&gt;Node33 -->
<g id="edge50" class="edge">
<title>Node28&#45;&gt;Node33</title>
<path fill="none" stroke="midnightblue" d="M780.27,-184.87C754.49,-173.7 709.37,-154.15 679.63,-141.26"/>
<polygon fill="midnightblue" stroke="midnightblue" points="680.76,-137.93 670.19,-137.17 677.97,-144.35 680.76,-137.93"/>
</g>
<!-- Node29&#45;&gt;Node13 -->
<g id="edge43" class="edge">
<title>Node29&#45;&gt;Node13</title>
<path fill="none" stroke="midnightblue" d="M159.48,-56.67C162.42,-56.43 165.33,-56.2 168.19,-56 427.17,-37.57 1239.18,-17.91 1475.23,-12.47"/>
<polygon fill="midnightblue" stroke="midnightblue" points="1475.45,-15.97 1485.37,-12.24 1475.29,-8.97 1475.45,-15.97"/>
</g>
<!-- Node29&#45;&gt;Node20 -->
<g id="edge42" class="edge">
<title>Node29&#45;&gt;Node20</title>
<path fill="none" stroke="midnightblue" d="M134.83,-56.44C189.06,-46.9 276.74,-31.48 334.67,-21.29"/>
<polygon fill="midnightblue" stroke="midnightblue" points="335.53,-24.7 344.77,-19.52 334.32,-17.8 335.53,-24.7"/>
</g>
<!-- Node30 -->
<g id="node30" class="node">
<title>Node30</title>
<g id="a_node30"><a xlink:title=" ">
<polygon fill="white" stroke="#bfbfbf" points="24.19,-0.5 24.19,-19.5 148.19,-19.5 148.19,-0.5 24.19,-0.5"/>
<text text-anchor="middle" x="86.19" y="-7.5" font-family="Helvetica,sans-Serif" font-size="10.00">AMReX_Interpolater.H</text>
</a>
</g>
</g>
<!-- Node29&#45;&gt;Node30 -->
<g id="edge44" class="edge">
<title>Node29&#45;&gt;Node30</title>
<path fill="none" stroke="midnightblue" d="M86.19,-56.08C86.19,-49.01 86.19,-38.86 86.19,-29.99"/>
<polygon fill="midnightblue" stroke="midnightblue" points="89.69,-29.75 86.19,-19.75 82.69,-29.75 89.69,-29.75"/>
</g>
<!-- Node31&#45;&gt;Node11 -->
<g id="edge47" class="edge">
<title>Node31&#45;&gt;Node11</title>
<path fill="none" stroke="midnightblue" d="M353.19,-117.72C362.53,-102.24 384.26,-70.37 412.19,-56 473.31,-24.55 682.4,-14.62 763.59,-11.91"/>
<polygon fill="midnightblue" stroke="midnightblue" points="763.85,-15.4 773.73,-11.58 763.62,-8.4 763.85,-15.4"/>
</g>
<!-- Node31&#45;&gt;Node20 -->
<g id="edge48" class="edge">
<title>Node31&#45;&gt;Node20</title>
<path fill="none" stroke="midnightblue" d="M344.61,-117.79C339.51,-104 331.78,-76.58 341.19,-56 346.96,-43.36 358.24,-32.91 368.82,-25.27"/>
<polygon fill="midnightblue" stroke="midnightblue" points="371.04,-28 377.4,-19.53 367.15,-22.18 371.04,-28"/>
</g>
<!-- Node31&#45;&gt;Node32 -->
<g id="edge49" class="edge">
<title>Node31&#45;&gt;Node32</title>
<path fill="none" stroke="midnightblue" d="M331.71,-117.98C312.58,-108.08 280.81,-91.64 258.54,-80.12"/>
<polygon fill="midnightblue" stroke="midnightblue" points="260.12,-77 249.63,-75.51 256.91,-83.21 260.12,-77"/>
</g>
<!-- Node33&#45;&gt;Node11 -->
<g id="edge51" class="edge">
<title>Node33&#45;&gt;Node11</title>
<path fill="none" stroke="midnightblue" d="M655.39,-117.68C664.28,-103.23 683.61,-74.32 706.19,-56 723.67,-41.82 746.35,-30.51 764.57,-22.78"/>
<polygon fill="midnightblue" stroke="midnightblue" points="765.97,-25.99 773.91,-18.96 763.32,-19.51 765.97,-25.99"/>
</g>
<!-- Node33&#45;&gt;Node12 -->
<g id="edge56" class="edge">
<title>Node33&#45;&gt;Node12</title>
<path fill="none" stroke="midnightblue" d="M667.64,-117.89C697.34,-103.49 759.89,-74.32 815.19,-56 858.79,-41.55 909.53,-29.64 947.15,-21.7"/>
<polygon fill="midnightblue" stroke="midnightblue" points="948.31,-25.04 957.39,-19.57 946.89,-18.18 948.31,-25.04"/>
</g>
<!-- Node33&#45;&gt;Node13 -->
<g id="edge55" class="edge">
<title>Node33&#45;&gt;Node13</title>
<path fill="none" stroke="midnightblue" d="M724.52,-117.96C848.21,-103.73 1083.05,-76.66 1085.19,-76 1103.42,-70.36 1104.93,-61.57 1123.19,-56 1243.87,-19.2 1392.22,-11.6 1475.5,-10.53"/>
<polygon fill="midnightblue" stroke="midnightblue" points="1475.61,-14.03 1485.58,-10.43 1475.54,-7.03 1475.61,-14.03"/>
</g>
<!-- Node33&#45;&gt;Node20 -->
<g id="edge53" class="edge">
<title>Node33&#45;&gt;Node20</title>
<path fill="none" stroke="midnightblue" d="M570.17,-118.35C510.3,-110.67 434.99,-97.15 412.19,-76 399.54,-64.27 395.15,-44.62 393.7,-30"/>
<polygon fill="midnightblue" stroke="midnightblue" points="397.17,-29.36 393.08,-19.59 390.18,-29.78 397.17,-29.36"/>
</g>
<!-- Node33&#45;&gt;Node21 -->
<g id="edge54" class="edge">
<title>Node33&#45;&gt;Node21</title>
<path fill="none" stroke="midnightblue" d="M700.62,-117.98C764.27,-107.22 873.63,-88.73 941.7,-77.22"/>
<polygon fill="midnightblue" stroke="midnightblue" points="942.57,-80.63 951.85,-75.51 941.4,-73.72 942.57,-80.63"/>
</g>
<!-- Node34 -->
<g id="node34" class="node">
<title>Node34</title>
<g id="a_node34"><a xlink:title=" ">
<polygon fill="white" stroke="#bfbfbf" points="421.69,-56.5 421.69,-75.5 466.69,-75.5 466.69,-56.5 421.69,-56.5"/>
<text text-anchor="middle" x="444.19" y="-63.5" font-family="Helvetica,sans-Serif" font-size="10.00">utility</text>
</a>
</g>
</g>
<!-- Node33&#45;&gt;Node34 -->
<g id="edge52" class="edge">
<title>Node33&#45;&gt;Node34</title>
<path fill="none" stroke="midnightblue" d="M620.46,-117.94C587.54,-108.45 532.64,-92.62 476.61,-76.41"/>
<polygon fill="midnightblue" stroke="midnightblue" points="477.45,-73.01 466.87,-73.59 475.51,-79.73 477.45,-73.01"/>
</g>
<!-- Node35 -->
<g id="node35" class="node">
<title>Node35</title>
<g id="a_node35"><a xlink:title=" ">
<polygon fill="white" stroke="#bfbfbf" points="484.69,-56.5 484.69,-75.5 615.69,-75.5 615.69,-56.5 484.69,-56.5"/>
<text text-anchor="middle" x="550.19" y="-63.5" font-family="Helvetica,sans-Serif" font-size="10.00">AMReX_PhysBCFunct.H</text>
</a>
</g>
</g>
<!-- Node33&#45;&gt;Node35 -->
<g id="edge57" class="edge">
<title>Node33&#45;&gt;Node35</title>
<path fill="none" stroke="midnightblue" d="M635.86,-117.98C619.52,-108.25 592.59,-92.23 573.28,-80.74"/>
<polygon fill="midnightblue" stroke="midnightblue" points="574.87,-77.61 564.49,-75.51 571.29,-83.63 574.87,-77.61"/>
</g>
<!-- Node36&#45;&gt;Node4 -->
<g id="edge63" class="edge">
<title>Node36&#45;&gt;Node4</title>
<path fill="none" stroke="midnightblue" d="M1280.94,-188.6C1403.41,-180.63 1648.7,-163.65 1856.19,-143 1870.1,-141.61 1884.91,-139.96 1899.19,-138.27"/>
<polygon fill="midnightblue" stroke="midnightblue" points="1899.95,-141.7 1909.46,-137.03 1899.12,-134.75 1899.95,-141.7"/>
</g>
<!-- Node36&#45;&gt;Node10 -->
<g id="edge64" class="edge">
<title>Node36&#45;&gt;Node10</title>
<path fill="none" stroke="midnightblue" d="M1280.84,-184.19C1383.53,-171.87 1563.5,-150.29 1666.64,-137.92"/>
<polygon fill="midnightblue" stroke="midnightblue" points="1667.17,-141.38 1676.68,-136.72 1666.33,-134.43 1667.17,-141.38"/>
</g>
<!-- Node36&#45;&gt;Node11 -->
<g id="edge62" class="edge">
<title>Node36&#45;&gt;Node11</title>
<path fill="none" stroke="midnightblue" d="M1125.6,-179.41C1086.13,-171.04 1037.82,-158.91 996.19,-143 968.89,-132.56 965.25,-123.05 938.19,-112 885.46,-90.46 855.46,-116.28 815.19,-76 803.12,-63.93 798.63,-44.64 797,-30.21"/>
<polygon fill="midnightblue" stroke="midnightblue" points="800.47,-29.61 796.22,-19.9 793.49,-30.14 800.47,-29.61"/>
</g>
<!-- Node36&#45;&gt;Node19 -->
<g id="edge68" class="edge">
<title>Node36&#45;&gt;Node19</title>
<path fill="none" stroke="midnightblue" d="M1203.19,-179.48C1203.19,-156.72 1203.19,-111.7 1203.19,-86.06"/>
<polygon fill="midnightblue" stroke="midnightblue" points="1206.69,-85.79 1203.19,-75.79 1199.69,-85.79 1206.69,-85.79"/>
</g>
<!-- Node36&#45;&gt;Node20 -->
<g id="edge67" class="edge">
<title>Node36&#45;&gt;Node20</title>
<path fill="none" stroke="midnightblue" d="M1125.48,-183.59C1059.4,-174.27 970.27,-159.35 938.19,-143 920.26,-133.86 923.08,-121.21 905.19,-112 848.58,-82.86 686.66,-68.31 624.19,-56 563.69,-44.08 494.23,-30.57 447.41,-21.49"/>
<polygon fill="midnightblue" stroke="midnightblue" points="447.97,-18.04 437.48,-19.57 446.63,-24.91 447.97,-18.04"/>
</g>
<!-- Node37 -->
<g id="node37" class="node">
<title>Node37</title>
<g id="a_node37"><a xlink:href="_p_d_e_fields_8_h.html" target="_top" xlink:title=" ">
<polygon fill="white" stroke="black" points="1005.69,-112.5 1005.69,-142.5 1160.69,-142.5 1160.69,-112.5 1005.69,-112.5"/>
<text text-anchor="start" x="1013.69" y="-130.5" font-family="Helvetica,sans-Serif" font-size="10.00">amr&#45;wind/equation_systems</text>
<text text-anchor="middle" x="1083.19" y="-119.5" font-family="Helvetica,sans-Serif" font-size="10.00">/PDEFields.H</text>
</a>
</g>
</g>
<!-- Node36&#45;&gt;Node37 -->
<g id="edge65" class="edge">
<title>Node36&#45;&gt;Node37</title>
<path fill="none" stroke="midnightblue" d="M1177.15,-179.4C1159.85,-170.03 1136.94,-157.62 1118.07,-147.39"/>
<polygon fill="midnightblue" stroke="midnightblue" points="1119.63,-144.26 1109.18,-142.58 1116.3,-150.42 1119.63,-144.26"/>
</g>
<!-- Node38 -->
<g id="node38" class="node">
<title>Node38</title>
<g id="a_node38"><a xlink:title=" ">
<polygon fill="white" stroke="#bfbfbf" points="824.19,-56.5 824.19,-75.5 872.19,-75.5 872.19,-56.5 824.19,-56.5"/>
<text text-anchor="middle" x="848.19" y="-63.5" font-family="Helvetica,sans-Serif" font-size="10.00">iosfwd</text>
</a>
</g>
</g>
<!-- Node37&#45;&gt;Node38 -->
<g id="edge66" class="edge">
<title>Node37&#45;&gt;Node38</title>
<path fill="none" stroke="midnightblue" d="M1027.79,-112.47C982.77,-101.07 920.67,-85.35 882.54,-75.7"/>
<polygon fill="midnightblue" stroke="midnightblue" points="883.01,-72.21 872.45,-73.14 881.29,-78.99 883.01,-72.21"/>
</g>
<!-- Node39&#45;&gt;Node4 -->
<g id="edge72" class="edge">
<title>Node39&#45;&gt;Node4</title>
<path fill="none" stroke="midnightblue" d="M1791.34,-184.87C1828.98,-173.33 1895.82,-152.84 1937.69,-140"/>
<polygon fill="midnightblue" stroke="midnightblue" points="1938.72,-143.34 1947.26,-137.06 1936.67,-136.65 1938.72,-143.34"/>
</g>
<!-- Node39&#45;&gt;Node10 -->
<g id="edge71" class="edge">
<title>Node39&#45;&gt;Node10</title>
<path fill="none" stroke="midnightblue" d="M1760.76,-184.73C1758.09,-175.09 1753.72,-159.3 1750.28,-146.91"/>
<polygon fill="midnightblue" stroke="midnightblue" points="1753.62,-145.83 1747.58,-137.13 1746.87,-147.7 1753.62,-145.83"/>
</g>
<!-- Node39&#45;&gt;Node13 -->
<g id="edge74" class="edge">
<title>Node39&#45;&gt;Node13</title>
<path fill="none" stroke="midnightblue" d="M1796.45,-184.93C1817.59,-177.57 1843.32,-164.63 1856.19,-143 1875.96,-109.77 1881.53,-85.21 1856.19,-56 1824.33,-19.29 1687.74,-11.76 1604.92,-10.66"/>
<polygon fill="midnightblue" stroke="midnightblue" points="1604.88,-7.16 1594.85,-10.55 1604.81,-14.16 1604.88,-7.16"/>
</g>
<!-- Node39&#45;&gt;Node14 -->
<g id="edge75" class="edge">
<title>Node39&#45;&gt;Node14</title>
<path fill="none" stroke="midnightblue" d="M1815.33,-184.99C1873.11,-175.42 1968.99,-159.09 2051.19,-143 2057.32,-141.8 2063.75,-140.48 2070.11,-139.14"/>
<polygon fill="midnightblue" stroke="midnightblue" points="2070.92,-142.55 2079.98,-137.04 2069.47,-135.7 2070.92,-142.55"/>
</g>
<!-- Node39&#45;&gt;Node15 -->
<g id="edge73" class="edge">
<title>Node39&#45;&gt;Node15</title>
<path fill="none" stroke="midnightblue" d="M1725.9,-184.94C1674.89,-173.22 1583.34,-152.19 1527.54,-139.38"/>
<polygon fill="midnightblue" stroke="midnightblue" points="1528.09,-135.91 1517.56,-137.08 1526.52,-142.73 1528.09,-135.91"/>
</g>
<!-- Node41&#45;&gt;Node18 -->
<g id="edge80" class="edge">
<title>Node41&#45;&gt;Node18</title>
<path fill="none" stroke="midnightblue" d="M2653.86,-179.43C2664.93,-161.42 2679.45,-130.38 2662.19,-112 2619.88,-66.97 2184.12,-82.1 2085.85,-75.66"/>
<polygon fill="midnightblue" stroke="midnightblue" points="2086.07,-72.16 2075.81,-74.78 2085.47,-79.14 2086.07,-72.16"/>
</g>
<!-- Node41&#45;&gt;Node25 -->
<g id="edge79" class="edge">
<title>Node41&#45;&gt;Node25</title>
<path fill="none" stroke="midnightblue" d="M2636.16,-179.4C2630.56,-169.56 2623.06,-156.38 2617.09,-145.89"/>
<polygon fill="midnightblue" stroke="midnightblue" points="2620.13,-144.15 2612.14,-137.19 2614.04,-147.62 2620.13,-144.15"/>
</g>
<!-- Node42 -->
<g id="node42" class="node">
<title>Node42</title>
<g id="a_node42"><a xlink:title=" ">
<polygon fill="white" stroke="#bfbfbf" points="2709.69,-118 2709.69,-137 2756.69,-137 2756.69,-118 2709.69,-118"/>
<text text-anchor="middle" x="2733.19" y="-125" font-family="Helvetica,sans-Serif" font-size="10.00">cmath</text>
</a>
</g>
</g>
<!-- Node41&#45;&gt;Node42 -->
<g id="edge78" class="edge">
<title>Node41&#45;&gt;Node42</title>
<path fill="none" stroke="midnightblue" d="M2663.5,-179.4C2678.15,-168.7 2698.23,-154.03 2713.07,-143.19"/>
<polygon fill="midnightblue" stroke="midnightblue" points="2715.53,-145.73 2721.54,-137.01 2711.4,-140.08 2715.53,-145.73"/>
</g>
</g>
</svg>
