<?xml version="1.0" encoding="UTF-8" standalone="no"?>
<!DOCTYPE svg PUBLIC "-//W3C//DTD SVG 1.1//EN"
 "http://www.w3.org/Graphics/SVG/1.1/DTD/svg11.dtd">
<!-- Generated by graphviz version 2.43.0 (0)
 -->
<!-- Title: actuator_types.H Pages: 1 -->
<!--zoomable 420 -->
<svg id="main" version="1.1" xmlns="http://www.w3.org/2000/svg" xmlns:xlink="http://www.w3.org/1999/xlink" xml:space="preserve" onload="init(evt)">
<style type="text/css"><![CDATA[
.edge:hover path { stroke: red; }
.edge:hover polygon { stroke: red; fill: red; }
]]></style>
<script type="text/javascript"><![CDATA[
var edges = document.getElementsByTagName('g');
if (edges && edges.length) {
  for (var i=0;i<edges.length;i++) {
    if (edges[i].id.substr(0,4)=='edge') {
      edges[i].setAttribute('class','edge');
    }
  }
}
]]></script>
        <defs>
                <circle id="rim" cx="0" cy="0" r="7"/>
                <circle id="rim2" cx="0" cy="0" r="3.5"/>
                <g id="zoomPlus">
                        <use xlink:href="#rim" fill="#404040">
                                <set attributeName="fill" to="#808080" begin="zoomplus.mouseover" end="zoomplus.mouseout"/>
                        </use>
                        <path d="M-4,0h8M0,-4v8" fill="none" stroke="white" stroke-width="1.5" pointer-events="none"/>
                </g>
                <g id="zoomMin">
                        <use xlink:href="#rim" fill="#404040">
                                <set attributeName="fill" to="#808080" begin="zoomminus.mouseover" end="zoomminus.mouseout"/>
                        </use>
                        <path d="M-4,0h8" fill="none" stroke="white" stroke-width="1.5" pointer-events="none"/>
                </g>
                <g id="dirArrow">
                        <path fill="none" stroke="white" stroke-width="1.5" d="M0,-3.0v7 M-2.5,-0.5L0,-3.0L2.5,-0.5"/>
                </g>
               <g id="resetDef">
                       <use xlink:href="#rim2" fill="#404040">
                               <set attributeName="fill" to="#808080" begin="reset.mouseover" end="reset.mouseout"/>
                       </use>
               </g>
        </defs>

<script type="text/javascript">
var viewWidth = 1614;
var viewHeight = 420;
var sectionId = 'dynsection-1';
</script>
<script xlink:href="svgpan.js"/>
<svg id="graph" class="graph">
<g id="viewport">
<title>actuator_types.H</title>
<polygon fill="white" stroke="transparent" points="-4,4 -4,-416 1609.76,-416 1609.76,4 -4,4"/>
<!-- Node1 -->
<g id="node1" class="node">
<title>Node1</title>
<g id="a_node1"><a xlink:title=" ">
<polygon fill="#bfbfbf" stroke="black" points="953.76,-392.5 953.76,-411.5 1053.76,-411.5 1053.76,-392.5 953.76,-392.5"/>
<text text-anchor="middle" x="1003.76" y="-399.5" font-family="Helvetica,sans-Serif" font-size="10.00">actuator_types.H</text>
</a>
</g>
</g>
<!-- Node2 -->
<g id="node2" class="node">
<title>Node2</title>
<g id="a_node2"><a xlink:href="_act_src_line_op_8_h.html" target="_top" xlink:title=" ">
<polygon fill="white" stroke="black" points="910.76,-112.5 910.76,-131.5 1002.76,-131.5 1002.76,-112.5 910.76,-112.5"/>
<text text-anchor="middle" x="956.76" y="-119.5" font-family="Helvetica,sans-Serif" font-size="10.00">ActSrcLineOp.H</text>
</a>
</g>
</g>
<!-- Node1&#45;&gt;Node2 -->
<g id="edge1" class="edge">
<title>Node1&#45;&gt;Node2</title>
<path fill="none" stroke="midnightblue" d="M985.01,-385.68C963.38,-366.16 930.76,-330.22 930.76,-291 930.76,-291 930.76,-291 930.76,-233 930.76,-194.34 946.16,-150.04 953.25,-131.68"/>
<polygon fill="midnightblue" stroke="midnightblue" points="982.83,-388.42 992.67,-392.33 987.42,-383.13 982.83,-388.42"/>
</g>
<!-- Node3 -->
<g id="node3" class="node">
<title>Node3</title>
<g id="a_node3"><a xlink:href="_actuator_model_8_h.html" target="_top" xlink:title=" ">
<polygon fill="white" stroke="black" points="833.76,-56.5 833.76,-75.5 931.76,-75.5 931.76,-56.5 833.76,-56.5"/>
<text text-anchor="middle" x="882.76" y="-63.5" font-family="Helvetica,sans-Serif" font-size="10.00">ActuatorModel.H</text>
</a>
</g>
</g>
<!-- Node1&#45;&gt;Node3 -->
<g id="edge34" class="edge">
<title>Node1&#45;&gt;Node3</title>
<path fill="none" stroke="midnightblue" d="M971.4,-388.18C935.56,-371.59 882.76,-339.01 882.76,-291 882.76,-291 882.76,-291 882.76,-177 882.76,-139.19 882.76,-94.06 882.76,-75.56"/>
<polygon fill="midnightblue" stroke="midnightblue" points="970.44,-391.58 981,-392.43 973.28,-385.18 970.44,-391.58"/>
</g>
<!-- Node9 -->
<g id="node9" class="node">
<title>Node9</title>
<g id="a_node9"><a xlink:href="actuator__ops_8_h.html" target="_top" xlink:title=" ">
<polygon fill="white" stroke="black" points="958.76,-168.5 958.76,-187.5 1048.76,-187.5 1048.76,-168.5 958.76,-168.5"/>
<text text-anchor="middle" x="1003.76" y="-175.5" font-family="Helvetica,sans-Serif" font-size="10.00">actuator_ops.H</text>
</a>
</g>
</g>
<!-- Node1&#45;&gt;Node9 -->
<g id="edge8" class="edge">
<title>Node1&#45;&gt;Node9</title>
<path fill="none" stroke="midnightblue" d="M1003.76,-382.3C1003.76,-336.64 1003.76,-220.85 1003.76,-187.88"/>
<polygon fill="midnightblue" stroke="midnightblue" points="1000.26,-382.3 1003.76,-392.3 1007.26,-382.3 1000.26,-382.3"/>
</g>
<!-- Node20 -->
<g id="node20" class="node">
<title>Node20</title>
<g id="a_node20"><a xlink:href="wing__ops_8_h.html" target="_top" xlink:title=" ">
<polygon fill="white" stroke="black" points="1135.26,-112.5 1135.26,-131.5 1208.26,-131.5 1208.26,-112.5 1135.26,-112.5"/>
<text text-anchor="middle" x="1171.76" y="-119.5" font-family="Helvetica,sans-Serif" font-size="10.00">wing_ops.H</text>
</a>
</g>
</g>
<!-- Node1&#45;&gt;Node20 -->
<g id="edge73" class="edge">
<title>Node1&#45;&gt;Node20</title>
<path fill="none" stroke="midnightblue" d="M1022.51,-385.68C1044.14,-366.16 1076.76,-330.22 1076.76,-291 1076.76,-291 1076.76,-291 1076.76,-233 1076.76,-185.06 1129.09,-147.69 1156.07,-131.6"/>
<polygon fill="midnightblue" stroke="midnightblue" points="1020.11,-383.13 1014.85,-392.33 1024.69,-388.42 1020.11,-383.13"/>
</g>
<!-- Node23 -->
<g id="node23" class="node">
<title>Node23</title>
<g id="a_node23"><a xlink:href="turbine__types_8_h.html" target="_top" xlink:title=" ">
<polygon fill="white" stroke="black" points="136.76,-168.5 136.76,-187.5 230.76,-187.5 230.76,-168.5 136.76,-168.5"/>
<text text-anchor="middle" x="183.76" y="-175.5" font-family="Helvetica,sans-Serif" font-size="10.00">turbine_types.H</text>
</a>
</g>
</g>
<!-- Node1&#45;&gt;Node23 -->
<g id="edge35" class="edge">
<title>Node1&#45;&gt;Node23</title>
<path fill="none" stroke="midnightblue" d="M943.22,-394.28C879.2,-386.75 775.4,-373.27 686.76,-356 518.54,-323.22 474.86,-312.52 317.76,-244 274.86,-225.29 225.64,-200.54 200.48,-187.65"/>
<polygon fill="midnightblue" stroke="midnightblue" points="943.19,-397.81 953.53,-395.49 944.01,-390.85 943.19,-397.81"/>
</g>
<!-- Node27 -->
<g id="node27" class="node">
<title>Node27</title>
<g id="a_node27"><a xlink:href="disk__types_8_h.html" target="_top" xlink:title=" ">
<polygon fill="white" stroke="black" points="695.76,-336.5 695.76,-355.5 775.76,-355.5 775.76,-336.5 695.76,-336.5"/>
<text text-anchor="middle" x="735.76" y="-343.5" font-family="Helvetica,sans-Serif" font-size="10.00">disk_types.H</text>
</a>
</g>
</g>
<!-- Node1&#45;&gt;Node27 -->
<g id="edge43" class="edge">
<title>Node1&#45;&gt;Node27</title>
<path fill="none" stroke="midnightblue" d="M951.37,-390.44C899.92,-380.08 822.56,-364.49 775.84,-355.08"/>
<polygon fill="midnightblue" stroke="midnightblue" points="950.8,-393.9 961.3,-392.44 952.18,-387.04 950.8,-393.9"/>
</g>
<!-- Node32 -->
<g id="node32" class="node">
<title>Node32</title>
<g id="a_node32"><a xlink:href="actuator__utils_8cpp.html" target="_top" xlink:title=" ">
<polygon fill="white" stroke="black" points="1104.76,-336.5 1104.76,-355.5 1208.76,-355.5 1208.76,-336.5 1104.76,-336.5"/>
<text text-anchor="middle" x="1156.76" y="-343.5" font-family="Helvetica,sans-Serif" font-size="10.00">actuator_utils.cpp</text>
</a>
</g>
</g>
<!-- Node1&#45;&gt;Node32 -->
<g id="edge57" class="edge">
<title>Node1&#45;&gt;Node32</title>
<path fill="none" stroke="midnightblue" d="M1037.65,-389.04C1066.44,-378.88 1107.05,-364.55 1132.63,-355.52"/>
<polygon fill="midnightblue" stroke="midnightblue" points="1036.27,-385.81 1028,-392.44 1038.6,-392.42 1036.27,-385.81"/>
</g>
<!-- Node33 -->
<g id="node33" class="node">
<title>Node33</title>
<g id="a_node33"><a xlink:href="_airfoil_table_8_h.html" target="_top" xlink:title=" ">
<polygon fill="white" stroke="black" points="1312.76,-168.5 1312.76,-187.5 1394.76,-187.5 1394.76,-168.5 1312.76,-168.5"/>
<text text-anchor="middle" x="1353.76" y="-175.5" font-family="Helvetica,sans-Serif" font-size="10.00">AirfoilTable.H</text>
</a>
</g>
</g>
<!-- Node1&#45;&gt;Node33 -->
<g id="edge58" class="edge">
<title>Node1&#45;&gt;Node33</title>
<path fill="none" stroke="midnightblue" d="M1064.12,-394.86C1124.02,-387.83 1210.82,-374.79 1238.76,-356 1304.15,-312.04 1340.82,-217.07 1350.89,-187.78"/>
<polygon fill="midnightblue" stroke="midnightblue" points="1063.54,-391.41 1054.01,-396.02 1064.34,-398.36 1063.54,-391.41"/>
</g>
<!-- Node38 -->
<g id="node38" class="node">
<title>Node38</title>
<g id="a_node38"><a xlink:href="_actuator_wing_8_h.html" target="_top" xlink:title=" ">
<polygon fill="white" stroke="black" points="1198.26,-168.5 1198.26,-187.5 1291.26,-187.5 1291.26,-168.5 1198.26,-168.5"/>
<text text-anchor="middle" x="1244.76" y="-175.5" font-family="Helvetica,sans-Serif" font-size="10.00">ActuatorWing.H</text>
</a>
</g>
</g>
<!-- Node1&#45;&gt;Node38 -->
<g id="edge69" class="edge">
<title>Node1&#45;&gt;Node38</title>
<path fill="none" stroke="midnightblue" d="M1064.11,-395.92C1119.86,-389.92 1197.07,-377.88 1217.76,-356 1263.47,-307.67 1251.63,-216.45 1246.51,-187.83"/>
<polygon fill="midnightblue" stroke="midnightblue" points="1063.56,-392.46 1053.97,-396.97 1064.28,-399.42 1063.56,-392.46"/>
</g>
<!-- Node2&#45;&gt;Node3 -->
<g id="edge2" class="edge">
<title>Node2&#45;&gt;Node3</title>
<path fill="none" stroke="midnightblue" d="M936.73,-106.38C923.35,-96.62 906.2,-84.11 894.87,-75.83"/>
<polygon fill="midnightblue" stroke="midnightblue" points="934.73,-109.26 944.87,-112.32 938.86,-103.6 934.73,-109.26"/>
</g>
<!-- Node4 -->
<g id="node4" class="node">
<title>Node4</title>
<g id="a_node4"><a xlink:href="_actuator_8cpp.html" target="_top" xlink:title=" ">
<polygon fill="white" stroke="black" points="844.26,-0.5 844.26,-19.5 921.26,-19.5 921.26,-0.5 844.26,-0.5"/>
<text text-anchor="middle" x="882.76" y="-7.5" font-family="Helvetica,sans-Serif" font-size="10.00">Actuator.cpp</text>
</a>
</g>
</g>
<!-- Node3&#45;&gt;Node4 -->
<g id="edge3" class="edge">
<title>Node3&#45;&gt;Node4</title>
<path fill="none" stroke="midnightblue" d="M882.76,-45.8C882.76,-36.91 882.76,-26.78 882.76,-19.75"/>
<polygon fill="midnightblue" stroke="midnightblue" points="879.26,-46.08 882.76,-56.08 886.26,-46.08 879.26,-46.08"/>
</g>
<!-- Node5 -->
<g id="node5" class="node">
<title>Node5</title>
<g id="a_node5"><a xlink:href="_actuator_disk_8cpp.html" target="_top" xlink:title=" ">
<polygon fill="white" stroke="black" points="325.76,-0.5 325.76,-19.5 425.76,-19.5 425.76,-0.5 325.76,-0.5"/>
<text text-anchor="middle" x="375.76" y="-7.5" font-family="Helvetica,sans-Serif" font-size="10.00">ActuatorDisk.cpp</text>
</a>
</g>
</g>
<!-- Node3&#45;&gt;Node5 -->
<g id="edge4" class="edge">
<title>Node3&#45;&gt;Node5</title>
<path fill="none" stroke="midnightblue" d="M823.54,-60.03C737.69,-52.59 573.75,-37.57 434.76,-20 431.88,-19.64 428.93,-19.24 425.95,-18.83"/>
<polygon fill="midnightblue" stroke="midnightblue" points="823.35,-63.52 833.61,-60.89 823.95,-56.55 823.35,-63.52"/>
</g>
<!-- Node6 -->
<g id="node6" class="node">
<title>Node6</title>
<g id="a_node6"><a xlink:href="_turbine_fast_8cpp.html" target="_top" xlink:title=" ">
<polygon fill="white" stroke="black" points="137.76,-0.5 137.76,-19.5 229.76,-19.5 229.76,-0.5 137.76,-0.5"/>
<text text-anchor="middle" x="183.76" y="-7.5" font-family="Helvetica,sans-Serif" font-size="10.00">TurbineFast.cpp</text>
</a>
</g>
</g>
<!-- Node3&#45;&gt;Node6 -->
<g id="edge5" class="edge">
<title>Node3&#45;&gt;Node6</title>
<path fill="none" stroke="midnightblue" d="M823.35,-60.41C686.8,-49.86 352.93,-24.07 230.1,-14.58"/>
<polygon fill="midnightblue" stroke="midnightblue" points="823.37,-63.92 833.61,-61.2 823.91,-56.94 823.37,-63.92"/>
</g>
<!-- Node7 -->
<g id="node7" class="node">
<title>Node7</title>
<g id="a_node7"><a xlink:href="_fixed_wing_8cpp.html" target="_top" xlink:title=" ">
<polygon fill="white" stroke="black" points="1193.26,-0.5 1193.26,-19.5 1280.26,-19.5 1280.26,-0.5 1193.26,-0.5"/>
<text text-anchor="middle" x="1236.76" y="-7.5" font-family="Helvetica,sans-Serif" font-size="10.00">FixedWing.cpp</text>
</a>
</g>
</g>
<!-- Node3&#45;&gt;Node7 -->
<g id="edge6" class="edge">
<title>Node3&#45;&gt;Node7</title>
<path fill="none" stroke="midnightblue" d="M942.11,-55.95C1013.07,-45.12 1130.14,-27.26 1193.24,-17.64"/>
<polygon fill="midnightblue" stroke="midnightblue" points="941.34,-52.52 931.98,-57.49 942.4,-59.44 941.34,-52.52"/>
</g>
<!-- Node8 -->
<g id="node8" class="node">
<title>Node8</title>
<g id="a_node8"><a xlink:href="_flat_plate_8cpp.html" target="_top" xlink:title=" ">
<polygon fill="white" stroke="black" points="979.76,-0.5 979.76,-19.5 1059.76,-19.5 1059.76,-0.5 979.76,-0.5"/>
<text text-anchor="middle" x="1019.76" y="-7.5" font-family="Helvetica,sans-Serif" font-size="10.00">FlatPlate.cpp</text>
</a>
</g>
</g>
<!-- Node3&#45;&gt;Node8 -->
<g id="edge7" class="edge">
<title>Node3&#45;&gt;Node8</title>
<path fill="none" stroke="midnightblue" d="M913.78,-52.77C939.52,-42.63 975.45,-28.47 998.15,-19.52"/>
<polygon fill="midnightblue" stroke="midnightblue" points="912.49,-49.52 904.47,-56.44 915.06,-56.03 912.49,-49.52"/>
</g>
<!-- Node9&#45;&gt;Node2 -->
<g id="edge9" class="edge">
<title>Node9&#45;&gt;Node2</title>
<path fill="none" stroke="midnightblue" d="M989.34,-160.43C981.1,-150.97 971.11,-139.48 964.38,-131.75"/>
<polygon fill="midnightblue" stroke="midnightblue" points="986.79,-162.84 996,-168.08 992.07,-158.24 986.79,-162.84"/>
</g>
<!-- Node9&#45;&gt;Node3 -->
<g id="edge10" class="edge">
<title>Node9&#45;&gt;Node3</title>
<path fill="none" stroke="midnightblue" d="M1012.35,-158.53C1017.47,-144.52 1021.31,-125.44 1011.76,-112 993.7,-86.57 960.16,-75.39 931.8,-70.53"/>
<polygon fill="midnightblue" stroke="midnightblue" points="1008.99,-157.5 1008.38,-168.08 1015.45,-160.18 1008.99,-157.5"/>
</g>
<!-- Node10 -->
<g id="node10" class="node">
<title>Node10</title>
<g id="a_node10"><a xlink:href="_act_src_disk_op___turbine_8_h.html" target="_top" xlink:title=" ">
<polygon fill="white" stroke="black" points="608.76,-112.5 608.76,-131.5 742.76,-131.5 742.76,-112.5 608.76,-112.5"/>
<text text-anchor="middle" x="675.76" y="-119.5" font-family="Helvetica,sans-Serif" font-size="10.00">ActSrcDiskOp_Turbine.H</text>
</a>
</g>
</g>
<!-- Node9&#45;&gt;Node10 -->
<g id="edge11" class="edge">
<title>Node9&#45;&gt;Node10</title>
<path fill="none" stroke="midnightblue" d="M948.56,-167.91C886.89,-157.76 787.84,-141.45 727.58,-131.53"/>
<polygon fill="midnightblue" stroke="midnightblue" points="948.06,-171.38 958.5,-169.55 949.2,-164.47 948.06,-171.38"/>
</g>
<!-- Node11 -->
<g id="node11" class="node">
<title>Node11</title>
<g id="a_node11"><a xlink:href="_act_src_disk_op_8_h.html" target="_top" xlink:title=" ">
<polygon fill="white" stroke="black" points="761.26,-112.5 761.26,-131.5 854.26,-131.5 854.26,-112.5 761.26,-112.5"/>
<text text-anchor="middle" x="807.76" y="-119.5" font-family="Helvetica,sans-Serif" font-size="10.00">ActSrcDiskOp.H</text>
</a>
</g>
</g>
<!-- Node9&#45;&gt;Node11 -->
<g id="edge13" class="edge">
<title>Node9&#45;&gt;Node11</title>
<path fill="none" stroke="midnightblue" d="M962.74,-165.7C925.75,-155.51 872.16,-140.74 838.67,-131.52"/>
<polygon fill="midnightblue" stroke="midnightblue" points="962.13,-169.16 972.7,-168.44 963.99,-162.41 962.13,-169.16"/>
</g>
<!-- Node12 -->
<g id="node12" class="node">
<title>Node12</title>
<g id="a_node12"><a xlink:href="disk__ops_8_h.html" target="_top" xlink:title=" ">
<polygon fill="white" stroke="black" points="520.76,-112.5 520.76,-131.5 590.76,-131.5 590.76,-112.5 520.76,-112.5"/>
<text text-anchor="middle" x="555.76" y="-119.5" font-family="Helvetica,sans-Serif" font-size="10.00">disk_ops.H</text>
</a>
</g>
</g>
<!-- Node9&#45;&gt;Node12 -->
<g id="edge15" class="edge">
<title>Node9&#45;&gt;Node12</title>
<path fill="none" stroke="midnightblue" d="M948.67,-172.46C870.71,-165.68 723.85,-151.56 599.76,-132 596.83,-131.54 593.81,-131.02 590.77,-130.46"/>
<polygon fill="midnightblue" stroke="midnightblue" points="948.48,-175.96 958.75,-173.33 949.08,-168.98 948.48,-175.96"/>
</g>
<!-- Node18 -->
<g id="node18" class="node">
<title>Node18</title>
<g id="a_node18"><a xlink:href="turbine__fast__ops_8_h.html" target="_top" xlink:title=" ">
<polygon fill="white" stroke="black" points="129.76,-56.5 129.76,-75.5 237.76,-75.5 237.76,-56.5 129.76,-56.5"/>
<text text-anchor="middle" x="183.76" y="-63.5" font-family="Helvetica,sans-Serif" font-size="10.00">turbine_fast_ops.H</text>
</a>
</g>
</g>
<!-- Node9&#45;&gt;Node18 -->
<g id="edge24" class="edge">
<title>Node9&#45;&gt;Node18</title>
<path fill="none" stroke="midnightblue" d="M948.35,-173.82C857.02,-168.17 669.32,-154.75 511.76,-132 405.18,-116.61 280.84,-89.39 220.44,-75.57"/>
<polygon fill="midnightblue" stroke="midnightblue" points="948.27,-177.33 958.47,-174.44 948.7,-170.34 948.27,-177.33"/>
</g>
<!-- Node19 -->
<g id="node19" class="node">
<title>Node19</title>
<g id="a_node19"><a xlink:href="fixed__wing__ops_8_h.html" target="_top" xlink:title=" ">
<polygon fill="white" stroke="black" points="1186.26,-56.5 1186.26,-75.5 1287.26,-75.5 1287.26,-56.5 1186.26,-56.5"/>
<text text-anchor="middle" x="1236.76" y="-63.5" font-family="Helvetica,sans-Serif" font-size="10.00">fixed_wing_ops.H</text>
</a>
</g>
</g>
<!-- Node9&#45;&gt;Node19 -->
<g id="edge26" class="edge">
<title>Node9&#45;&gt;Node19</title>
<path fill="none" stroke="midnightblue" d="M1028.01,-163.28C1052.56,-149.61 1091.8,-128.34 1126.76,-112 1156.48,-98.11 1191.72,-84.11 1214.15,-75.5"/>
<polygon fill="midnightblue" stroke="midnightblue" points="1026.06,-160.36 1019.05,-168.3 1029.48,-166.47 1026.06,-160.36"/>
</g>
<!-- Node9&#45;&gt;Node20 -->
<g id="edge28" class="edge">
<title>Node9&#45;&gt;Node20</title>
<path fill="none" stroke="midnightblue" d="M1040.15,-165.3C1071.8,-155.13 1116.93,-140.62 1145.27,-131.52"/>
<polygon fill="midnightblue" stroke="midnightblue" points="1038.83,-162.05 1030.38,-168.44 1040.97,-168.72 1038.83,-162.05"/>
</g>
<!-- Node21 -->
<g id="node21" class="node">
<title>Node21</title>
<g id="a_node21"><a xlink:href="flat__plate__ops_8_h.html" target="_top" xlink:title=" ">
<polygon fill="white" stroke="black" points="972.26,-56.5 972.26,-75.5 1067.26,-75.5 1067.26,-56.5 972.26,-56.5"/>
<text text-anchor="middle" x="1019.76" y="-63.5" font-family="Helvetica,sans-Serif" font-size="10.00">flat_plate_ops.H</text>
</a>
</g>
</g>
<!-- Node9&#45;&gt;Node21 -->
<g id="edge33" class="edge">
<title>Node9&#45;&gt;Node21</title>
<path fill="none" stroke="midnightblue" d="M1023.01,-161.75C1031.39,-153.87 1040.31,-143.5 1044.76,-132 1052.53,-111.93 1037.41,-88.35 1027.47,-75.84"/>
<polygon fill="midnightblue" stroke="midnightblue" points="1020.52,-159.27 1015.3,-168.49 1025.13,-164.54 1020.52,-159.27"/>
</g>
<!-- Node10&#45;&gt;Node3 -->
<g id="edge12" class="edge">
<title>Node10&#45;&gt;Node3</title>
<path fill="none" stroke="midnightblue" d="M718.58,-109.83C757.67,-99.63 814.6,-84.78 850.11,-75.52"/>
<polygon fill="midnightblue" stroke="midnightblue" points="717.35,-106.53 708.56,-112.44 719.12,-113.31 717.35,-106.53"/>
</g>
<!-- Node11&#45;&gt;Node3 -->
<g id="edge14" class="edge">
<title>Node11&#45;&gt;Node3</title>
<path fill="none" stroke="midnightblue" d="M828.07,-106.38C841.62,-96.62 859,-84.11 870.49,-75.83"/>
<polygon fill="midnightblue" stroke="midnightblue" points="825.88,-103.64 819.81,-112.32 829.97,-109.32 825.88,-103.64"/>
</g>
<!-- Node13 -->
<g id="node13" class="node">
<title>Node13</title>
<g id="a_node13"><a xlink:href="uniform__ct__ops_8_h.html" target="_top" xlink:title=" ">
<polygon fill="white" stroke="black" points="403.76,-56.5 403.76,-75.5 505.76,-75.5 505.76,-56.5 403.76,-56.5"/>
<text text-anchor="middle" x="454.76" y="-63.5" font-family="Helvetica,sans-Serif" font-size="10.00">uniform_ct_ops.H</text>
</a>
</g>
</g>
<!-- Node12&#45;&gt;Node13 -->
<g id="edge16" class="edge">
<title>Node12&#45;&gt;Node13</title>
<path fill="none" stroke="midnightblue" d="M530.68,-107.59C512,-97.61 487.06,-84.27 470.95,-75.65"/>
<polygon fill="midnightblue" stroke="midnightblue" points="529.06,-110.7 539.53,-112.32 532.37,-104.52 529.06,-110.7"/>
</g>
<!-- Node15 -->
<g id="node15" class="node">
<title>Node15</title>
<g id="a_node15"><a xlink:href="_joukowsky__ops_8_h.html" target="_top" xlink:title=" ">
<polygon fill="white" stroke="black" points="524.26,-56.5 524.26,-75.5 625.26,-75.5 625.26,-56.5 524.26,-56.5"/>
<text text-anchor="middle" x="574.76" y="-63.5" font-family="Helvetica,sans-Serif" font-size="10.00">Joukowsky_ops.H</text>
</a>
</g>
</g>
<!-- Node12&#45;&gt;Node15 -->
<g id="edge19" class="edge">
<title>Node12&#45;&gt;Node15</title>
<path fill="none" stroke="midnightblue" d="M562.31,-102.4C565.49,-93.36 569.15,-82.94 571.68,-75.75"/>
<polygon fill="midnightblue" stroke="midnightblue" points="558.92,-101.49 558.9,-112.08 565.52,-103.81 558.92,-101.49"/>
</g>
<!-- Node16 -->
<g id="node16" class="node">
<title>Node16</title>
<g id="a_node16"><a xlink:href="_joukowsky__ops_8cpp.html" target="_top" xlink:title=" ">
<polygon fill="white" stroke="black" points="635.76,-0.5 635.76,-19.5 745.76,-19.5 745.76,-0.5 635.76,-0.5"/>
<text text-anchor="middle" x="690.76" y="-7.5" font-family="Helvetica,sans-Serif" font-size="10.00">Joukowsky_ops.cpp</text>
</a>
</g>
</g>
<!-- Node12&#45;&gt;Node16 -->
<g id="edge23" class="edge">
<title>Node12&#45;&gt;Node16</title>
<path fill="none" stroke="midnightblue" d="M600.72,-111.01C651.79,-99.45 728.62,-81.32 732.76,-76 747.69,-56.8 720.51,-32.26 703.31,-19.52"/>
<polygon fill="midnightblue" stroke="midnightblue" points="599.87,-107.61 590.89,-113.23 601.41,-114.44 599.87,-107.61"/>
</g>
<!-- Node17 -->
<g id="node17" class="node">
<title>Node17</title>
<g id="a_node17"><a xlink:href="disk__ops_8cpp.html" target="_top" xlink:title=" ">
<polygon fill="white" stroke="black" points="643.76,-56.5 643.76,-75.5 723.76,-75.5 723.76,-56.5 643.76,-56.5"/>
<text text-anchor="middle" x="683.76" y="-63.5" font-family="Helvetica,sans-Serif" font-size="10.00">disk_ops.cpp</text>
</a>
</g>
</g>
<!-- Node12&#45;&gt;Node17 -->
<g id="edge22" class="edge">
<title>Node12&#45;&gt;Node17</title>
<path fill="none" stroke="midnightblue" d="M585.38,-108.5C609.38,-98.38 642.55,-84.39 663.57,-75.52"/>
<polygon fill="midnightblue" stroke="midnightblue" points="583.9,-105.33 576.04,-112.44 586.62,-111.78 583.9,-105.33"/>
</g>
<!-- Node13&#45;&gt;Node5 -->
<g id="edge17" class="edge">
<title>Node13&#45;&gt;Node5</title>
<path fill="none" stroke="midnightblue" d="M433.73,-50.62C419.3,-40.76 400.62,-27.99 388.42,-19.65"/>
<polygon fill="midnightblue" stroke="midnightblue" points="431.84,-53.57 442.07,-56.32 435.79,-47.79 431.84,-53.57"/>
</g>
<!-- Node14 -->
<g id="node14" class="node">
<title>Node14</title>
<g id="a_node14"><a xlink:href="uniform__ct__ops_8cpp.html" target="_top" xlink:title=" ">
<polygon fill="white" stroke="black" points="443.76,-0.5 443.76,-19.5 555.76,-19.5 555.76,-0.5 443.76,-0.5"/>
<text text-anchor="middle" x="499.76" y="-7.5" font-family="Helvetica,sans-Serif" font-size="10.00">uniform_ct_ops.cpp</text>
</a>
</g>
</g>
<!-- Node13&#45;&gt;Node14 -->
<g id="edge18" class="edge">
<title>Node13&#45;&gt;Node14</title>
<path fill="none" stroke="midnightblue" d="M468.81,-48.14C476.65,-38.74 486.09,-27.4 492.47,-19.75"/>
<polygon fill="midnightblue" stroke="midnightblue" points="465.91,-46.16 462.19,-56.08 471.28,-50.64 465.91,-46.16"/>
</g>
<!-- Node15&#45;&gt;Node5 -->
<g id="edge20" class="edge">
<title>Node15&#45;&gt;Node5</title>
<path fill="none" stroke="midnightblue" d="M533.11,-53.7C495.56,-43.51 441.15,-28.74 407.15,-19.52"/>
<polygon fill="midnightblue" stroke="midnightblue" points="532.66,-57.2 543.23,-56.44 534.49,-50.45 532.66,-57.2"/>
</g>
<!-- Node15&#45;&gt;Node16 -->
<g id="edge21" class="edge">
<title>Node15&#45;&gt;Node16</title>
<path fill="none" stroke="midnightblue" d="M602.48,-52.1C624.15,-42.01 653.66,-28.27 672.47,-19.52"/>
<polygon fill="midnightblue" stroke="midnightblue" points="600.73,-49.05 593.14,-56.44 603.68,-55.4 600.73,-49.05"/>
</g>
<!-- Node18&#45;&gt;Node6 -->
<g id="edge25" class="edge">
<title>Node18&#45;&gt;Node6</title>
<path fill="none" stroke="midnightblue" d="M183.76,-45.8C183.76,-36.91 183.76,-26.78 183.76,-19.75"/>
<polygon fill="midnightblue" stroke="midnightblue" points="180.26,-46.08 183.76,-56.08 187.26,-46.08 180.26,-46.08"/>
</g>
<!-- Node19&#45;&gt;Node7 -->
<g id="edge27" class="edge">
<title>Node19&#45;&gt;Node7</title>
<path fill="none" stroke="midnightblue" d="M1236.76,-45.8C1236.76,-36.91 1236.76,-26.78 1236.76,-19.75"/>
<polygon fill="midnightblue" stroke="midnightblue" points="1233.26,-46.08 1236.76,-56.08 1240.26,-46.08 1233.26,-46.08"/>
</g>
<!-- Node20&#45;&gt;Node19 -->
<g id="edge29" class="edge">
<title>Node20&#45;&gt;Node19</title>
<path fill="none" stroke="midnightblue" d="M1190.03,-105.82C1201.68,-96.15 1216.36,-83.95 1226.13,-75.83"/>
<polygon fill="midnightblue" stroke="midnightblue" points="1187.66,-103.24 1182.2,-112.32 1192.13,-108.63 1187.66,-103.24"/>
</g>
<!-- Node20&#45;&gt;Node21 -->
<g id="edge30" class="edge">
<title>Node20&#45;&gt;Node21</title>
<path fill="none" stroke="midnightblue" d="M1138.09,-109.04C1109.49,-98.88 1069.15,-84.55 1043.73,-75.52"/>
<polygon fill="midnightblue" stroke="midnightblue" points="1137.08,-112.39 1147.68,-112.44 1139.43,-105.8 1137.08,-112.39"/>
</g>
<!-- Node22 -->
<g id="node22" class="node">
<title>Node22</title>
<g id="a_node22"><a xlink:href="wing__ops_8cpp.html" target="_top" xlink:title=" ">
<polygon fill="white" stroke="black" points="1085.26,-56.5 1085.26,-75.5 1168.26,-75.5 1168.26,-56.5 1085.26,-56.5"/>
<text text-anchor="middle" x="1126.76" y="-63.5" font-family="Helvetica,sans-Serif" font-size="10.00">wing_ops.cpp</text>
</a>
</g>
</g>
<!-- Node20&#45;&gt;Node22 -->
<g id="edge32" class="edge">
<title>Node20&#45;&gt;Node22</title>
<path fill="none" stroke="midnightblue" d="M1157.71,-104.14C1149.87,-94.74 1140.43,-83.4 1134.05,-75.75"/>
<polygon fill="midnightblue" stroke="midnightblue" points="1155.24,-106.64 1164.33,-112.08 1160.62,-102.16 1155.24,-106.64"/>
</g>
<!-- Node21&#45;&gt;Node8 -->
<g id="edge31" class="edge">
<title>Node21&#45;&gt;Node8</title>
<path fill="none" stroke="midnightblue" d="M1019.76,-45.8C1019.76,-36.91 1019.76,-26.78 1019.76,-19.75"/>
<polygon fill="midnightblue" stroke="midnightblue" points="1016.26,-46.08 1019.76,-56.08 1023.26,-46.08 1016.26,-46.08"/>
</g>
<!-- Node23&#45;&gt;Node10 -->
<g id="edge36" class="edge">
<title>Node23&#45;&gt;Node10</title>
<path fill="none" stroke="midnightblue" d="M241.26,-170.97C321.55,-162.5 471.79,-146.5 599.76,-132 602.67,-131.67 605.63,-131.33 608.63,-130.99"/>
<polygon fill="midnightblue" stroke="midnightblue" points="240.46,-167.53 230.88,-172.06 241.19,-174.49 240.46,-167.53"/>
</g>
<!-- Node24 -->
<g id="node24" class="node">
<title>Node24</title>
<g id="a_node24"><a xlink:href="_turbine_fast_8_h.html" target="_top" xlink:title=" ">
<polygon fill="white" stroke="black" points="39.76,-112.5 39.76,-131.5 121.76,-131.5 121.76,-112.5 39.76,-112.5"/>
<text text-anchor="middle" x="80.76" y="-119.5" font-family="Helvetica,sans-Serif" font-size="10.00">TurbineFast.H</text>
</a>
</g>
</g>
<!-- Node23&#45;&gt;Node24 -->
<g id="edge37" class="edge">
<title>Node23&#45;&gt;Node24</title>
<path fill="none" stroke="midnightblue" d="M158.18,-163.59C139.14,-153.61 113.7,-140.27 97.27,-131.65"/>
<polygon fill="midnightblue" stroke="midnightblue" points="156.73,-166.78 167.21,-168.32 159.98,-160.58 156.73,-166.78"/>
</g>
<!-- Node25 -->
<g id="node25" class="node">
<title>Node25</title>
<g id="a_node25"><a xlink:href="turbine__utils_8_h.html" target="_top" xlink:title=" ">
<polygon fill="white" stroke="black" points="139.76,-112.5 139.76,-131.5 227.76,-131.5 227.76,-112.5 139.76,-112.5"/>
<text text-anchor="middle" x="183.76" y="-119.5" font-family="Helvetica,sans-Serif" font-size="10.00">turbine_utils.H</text>
</a>
</g>
</g>
<!-- Node23&#45;&gt;Node25 -->
<g id="edge40" class="edge">
<title>Node23&#45;&gt;Node25</title>
<path fill="none" stroke="midnightblue" d="M183.76,-157.8C183.76,-148.91 183.76,-138.78 183.76,-131.75"/>
<polygon fill="midnightblue" stroke="midnightblue" points="180.26,-158.08 183.76,-168.08 187.26,-158.08 180.26,-158.08"/>
</g>
<!-- Node24&#45;&gt;Node6 -->
<g id="edge39" class="edge">
<title>Node24&#45;&gt;Node6</title>
<path fill="none" stroke="midnightblue" d="M46.75,-108.48C19.47,-96.51 -11.76,-77.19 4.76,-56 20.97,-35.22 90.26,-22.56 137.72,-16.17"/>
<polygon fill="midnightblue" stroke="midnightblue" points="45.57,-111.79 56.15,-112.4 48.27,-105.32 45.57,-111.79"/>
</g>
<!-- Node24&#45;&gt;Node18 -->
<g id="edge38" class="edge">
<title>Node24&#45;&gt;Node18</title>
<path fill="none" stroke="midnightblue" d="M106.34,-107.59C125.38,-97.61 150.83,-84.27 167.25,-75.65"/>
<polygon fill="midnightblue" stroke="midnightblue" points="104.54,-104.58 97.31,-112.32 107.79,-110.78 104.54,-104.58"/>
</g>
<!-- Node25&#45;&gt;Node18 -->
<g id="edge41" class="edge">
<title>Node25&#45;&gt;Node18</title>
<path fill="none" stroke="midnightblue" d="M183.76,-101.8C183.76,-92.91 183.76,-82.78 183.76,-75.75"/>
<polygon fill="midnightblue" stroke="midnightblue" points="180.26,-102.08 183.76,-112.08 187.26,-102.08 180.26,-102.08"/>
</g>
<!-- Node26 -->
<g id="node26" class="node">
<title>Node26</title>
<g id="a_node26"><a xlink:href="turbine__utils_8cpp.html" target="_top" xlink:title=" ">
<polygon fill="white" stroke="black" points="13.76,-56.5 13.76,-75.5 111.76,-75.5 111.76,-56.5 13.76,-56.5"/>
<text text-anchor="middle" x="62.76" y="-63.5" font-family="Helvetica,sans-Serif" font-size="10.00">turbine_utils.cpp</text>
</a>
</g>
</g>
<!-- Node25&#45;&gt;Node26 -->
<g id="edge42" class="edge">
<title>Node25&#45;&gt;Node26</title>
<path fill="none" stroke="midnightblue" d="M155.46,-108.37C132.8,-98.26 101.63,-84.35 81.84,-75.52"/>
<polygon fill="midnightblue" stroke="midnightblue" points="154.03,-111.56 164.59,-112.44 156.88,-105.17 154.03,-111.56"/>
</g>
<!-- Node27&#45;&gt;Node11 -->
<g id="edge44" class="edge">
<title>Node27&#45;&gt;Node11</title>
<path fill="none" stroke="midnightblue" d="M741.73,-326.58C756.47,-281.14 794.16,-164.92 804.88,-131.88"/>
<polygon fill="midnightblue" stroke="midnightblue" points="738.34,-325.71 738.58,-336.3 745,-327.86 738.34,-325.71"/>
</g>
<!-- Node28 -->
<g id="node28" class="node">
<title>Node28</title>
<g id="a_node28"><a xlink:href="_actuator_disk_8_h.html" target="_top" xlink:title=" ">
<polygon fill="white" stroke="black" points="470.76,-280.5 470.76,-299.5 560.76,-299.5 560.76,-280.5 470.76,-280.5"/>
<text text-anchor="middle" x="515.76" y="-287.5" font-family="Helvetica,sans-Serif" font-size="10.00">ActuatorDisk.H</text>
</a>
</g>
</g>
<!-- Node27&#45;&gt;Node28 -->
<g id="edge45" class="edge">
<title>Node27&#45;&gt;Node28</title>
<path fill="none" stroke="midnightblue" d="M691.04,-334.02C649.49,-323.82 588.45,-308.84 550.46,-299.52"/>
<polygon fill="midnightblue" stroke="midnightblue" points="690.36,-337.46 700.9,-336.44 692.02,-330.66 690.36,-337.46"/>
</g>
<!-- Node31 -->
<g id="node31" class="node">
<title>Node31</title>
<g id="a_node31"><a xlink:href="_joukowsky_8_h.html" target="_top" xlink:title=" ">
<polygon fill="white" stroke="black" points="452.26,-224.5 452.26,-243.5 529.26,-243.5 529.26,-224.5 452.26,-224.5"/>
<text text-anchor="middle" x="490.76" y="-231.5" font-family="Helvetica,sans-Serif" font-size="10.00">Joukowsky.H</text>
</a>
</g>
</g>
<!-- Node27&#45;&gt;Node31 -->
<g id="edge56" class="edge">
<title>Node27&#45;&gt;Node31</title>
<path fill="none" stroke="midnightblue" d="M707.17,-332.16C656.62,-309.47 552.75,-262.83 509.9,-243.59"/>
<polygon fill="midnightblue" stroke="midnightblue" points="705.98,-335.47 716.54,-336.37 708.85,-329.08 705.98,-335.47"/>
</g>
<!-- Node28&#45;&gt;Node12 -->
<g id="edge55" class="edge">
<title>Node28&#45;&gt;Node12</title>
<path fill="none" stroke="midnightblue" d="M525.87,-271.51C530.16,-263.38 534.83,-253.45 537.76,-244 550.43,-203.23 554.3,-151.89 555.38,-131.71"/>
<polygon fill="midnightblue" stroke="midnightblue" points="522.75,-269.92 520.98,-280.37 528.88,-273.3 522.75,-269.92"/>
</g>
<!-- Node29 -->
<g id="node29" class="node">
<title>Node29</title>
<g id="a_node29"><a xlink:href="_uniform_ct_8_h.html" target="_top" xlink:title=" ">
<polygon fill="white" stroke="black" points="327.26,-224.5 327.26,-243.5 404.26,-243.5 404.26,-224.5 327.26,-224.5"/>
<text text-anchor="middle" x="365.76" y="-231.5" font-family="Helvetica,sans-Serif" font-size="10.00">UniformCt.H</text>
</a>
</g>
</g>
<!-- Node28&#45;&gt;Node29 -->
<g id="edge46" class="edge">
<title>Node28&#45;&gt;Node29</title>
<path fill="none" stroke="midnightblue" d="M482.54,-277.04C454.31,-266.88 414.5,-252.55 389.42,-243.52"/>
<polygon fill="midnightblue" stroke="midnightblue" points="481.4,-280.35 491.99,-280.44 483.77,-273.76 481.4,-280.35"/>
</g>
<!-- Node28&#45;&gt;Node31 -->
<g id="edge52" class="edge">
<title>Node28&#45;&gt;Node31</title>
<path fill="none" stroke="midnightblue" d="M507.42,-270.98C503.18,-261.82 498.21,-251.09 494.81,-243.75"/>
<polygon fill="midnightblue" stroke="midnightblue" points="504.26,-272.48 511.63,-280.08 510.61,-269.54 504.26,-272.48"/>
</g>
<!-- Node29&#45;&gt;Node5 -->
<g id="edge50" class="edge">
<title>Node29&#45;&gt;Node5</title>
<path fill="none" stroke="midnightblue" d="M320.38,-220.77C304.02,-213.93 287.27,-203.54 277.76,-188 273.12,-180.42 275.31,-176.55 277.76,-168 295.9,-104.68 347.83,-42.09 367.8,-19.67"/>
<polygon fill="midnightblue" stroke="midnightblue" points="319.32,-224.11 329.91,-224.4 321.81,-217.57 319.32,-224.11"/>
</g>
<!-- Node29&#45;&gt;Node13 -->
<g id="edge51" class="edge">
<title>Node29&#45;&gt;Node13</title>
<path fill="none" stroke="midnightblue" d="M378.26,-216.21C384.18,-207.92 391.17,-197.65 396.76,-188 420.23,-147.48 442.6,-96 451.13,-75.75"/>
<polygon fill="midnightblue" stroke="midnightblue" points="375.42,-214.16 372.36,-224.3 381.08,-218.28 375.42,-214.16"/>
</g>
<!-- Node30 -->
<g id="node30" class="node">
<title>Node30</title>
<g id="a_node30"><a xlink:href="disk__spreading_8_h.html" target="_top" xlink:title=" ">
<polygon fill="white" stroke="black" points="287.26,-168.5 287.26,-187.5 388.26,-187.5 388.26,-168.5 287.26,-168.5"/>
<text text-anchor="middle" x="337.76" y="-175.5" font-family="Helvetica,sans-Serif" font-size="10.00">disk_spreading.H</text>
</a>
</g>
</g>
<!-- Node29&#45;&gt;Node30 -->
<g id="edge47" class="edge">
<title>Node29&#45;&gt;Node30</title>
<path fill="none" stroke="midnightblue" d="M356.42,-214.98C351.67,-205.82 346.11,-195.09 342.3,-187.75"/>
<polygon fill="midnightblue" stroke="midnightblue" points="353.43,-216.82 361.14,-224.08 359.64,-213.59 353.43,-216.82"/>
</g>
<!-- Node30&#45;&gt;Node5 -->
<g id="edge49" class="edge">
<title>Node30&#45;&gt;Node5</title>
<path fill="none" stroke="midnightblue" d="M340.84,-158.3C344.91,-134.41 352.66,-91.85 361.76,-56 365.02,-43.15 369.76,-28.55 372.8,-19.55"/>
<polygon fill="midnightblue" stroke="midnightblue" points="337.34,-157.98 339.14,-168.42 344.25,-159.14 337.34,-157.98"/>
</g>
<!-- Node30&#45;&gt;Node11 -->
<g id="edge48" class="edge">
<title>Node30&#45;&gt;Node11</title>
<path fill="none" stroke="midnightblue" d="M398.53,-171.38C479.33,-163.67 626.53,-148.86 751.76,-132 754.79,-131.59 757.9,-131.15 761.04,-130.69"/>
<polygon fill="midnightblue" stroke="midnightblue" points="398.15,-167.89 388.53,-172.32 398.81,-174.86 398.15,-167.89"/>
</g>
<!-- Node31&#45;&gt;Node5 -->
<g id="edge53" class="edge">
<title>Node31&#45;&gt;Node5</title>
<path fill="none" stroke="midnightblue" d="M478.25,-215.98C458.2,-188.02 418.69,-130.07 394.76,-76 386.2,-56.65 380.28,-32.37 377.53,-19.67"/>
<polygon fill="midnightblue" stroke="midnightblue" points="475.55,-218.22 484.25,-224.26 481.22,-214.11 475.55,-218.22"/>
</g>
<!-- Node31&#45;&gt;Node15 -->
<g id="edge54" class="edge">
<title>Node31&#45;&gt;Node15</title>
<path fill="none" stroke="midnightblue" d="M489.78,-214.26C489.35,-189.07 491.79,-143.78 511.76,-112 522.21,-95.39 541.23,-83.09 555.65,-75.58"/>
<polygon fill="midnightblue" stroke="midnightblue" points="486.28,-214.43 490.13,-224.3 493.28,-214.19 486.28,-214.43"/>
</g>
<!-- Node33&#45;&gt;Node20 -->
<g id="edge65" class="edge">
<title>Node33&#45;&gt;Node20</title>
<path fill="none" stroke="midnightblue" d="M1315.23,-165.57C1280.9,-155.38 1231.43,-140.7 1200.46,-131.52"/>
<polygon fill="midnightblue" stroke="midnightblue" points="1314.34,-168.95 1324.92,-168.44 1316.33,-162.24 1314.34,-168.95"/>
</g>
<!-- Node34 -->
<g id="node34" class="node">
<title>Node34</title>
<g id="a_node34"><a xlink:href="_airfoil_table_8cpp.html" target="_top" xlink:title=" ">
<polygon fill="white" stroke="black" points="1513.76,-112.5 1513.76,-131.5 1605.76,-131.5 1605.76,-112.5 1513.76,-112.5"/>
<text text-anchor="middle" x="1559.76" y="-119.5" font-family="Helvetica,sans-Serif" font-size="10.00">AirfoilTable.cpp</text>
</a>
</g>
</g>
<!-- Node33&#45;&gt;Node34 -->
<g id="edge59" class="edge">
<title>Node33&#45;&gt;Node34</title>
<path fill="none" stroke="midnightblue" d="M1396.38,-165.83C1435.27,-155.63 1491.93,-140.78 1527.27,-131.52"/>
<polygon fill="midnightblue" stroke="midnightblue" points="1395.19,-162.52 1386.4,-168.44 1396.96,-169.29 1395.19,-162.52"/>
</g>
<!-- Node35 -->
<g id="node35" class="node">
<title>Node35</title>
<g id="a_node35"><a xlink:href="_airfoil_table_i_8_h.html" target="_top" xlink:title=" ">
<polygon fill="white" stroke="black" points="1410.26,-112.5 1410.26,-131.5 1495.26,-131.5 1495.26,-112.5 1410.26,-112.5"/>
<text text-anchor="middle" x="1452.76" y="-119.5" font-family="Helvetica,sans-Serif" font-size="10.00">AirfoilTableI.H</text>
</a>
</g>
</g>
<!-- Node33&#45;&gt;Node35 -->
<g id="edge60" class="edge">
<title>Node33&#45;&gt;Node35</title>
<path fill="none" stroke="midnightblue" d="M1373.6,-162.9C1390.53,-153 1414.53,-140.07 1431.78,-131.65"/>
<polygon fill="midnightblue" stroke="midnightblue" points="1371.33,-160.18 1364.55,-168.32 1374.93,-166.18 1371.33,-160.18"/>
</g>
<!-- Node36 -->
<g id="node36" class="node">
<title>Node36</title>
<g id="a_node36"><a xlink:href="_fixed_wing_8_h.html" target="_top" xlink:title=" ">
<polygon fill="white" stroke="black" points="1315.26,-112.5 1315.26,-131.5 1392.26,-131.5 1392.26,-112.5 1315.26,-112.5"/>
<text text-anchor="middle" x="1353.76" y="-119.5" font-family="Helvetica,sans-Serif" font-size="10.00">FixedWing.H</text>
</a>
</g>
</g>
<!-- Node33&#45;&gt;Node36 -->
<g id="edge62" class="edge">
<title>Node33&#45;&gt;Node36</title>
<path fill="none" stroke="midnightblue" d="M1353.76,-157.8C1353.76,-148.91 1353.76,-138.78 1353.76,-131.75"/>
<polygon fill="midnightblue" stroke="midnightblue" points="1350.26,-158.08 1353.76,-168.08 1357.26,-158.08 1350.26,-158.08"/>
</g>
<!-- Node37 -->
<g id="node37" class="node">
<title>Node37</title>
<g id="a_node37"><a xlink:href="_flat_plate_8_h.html" target="_top" xlink:title=" ">
<polygon fill="white" stroke="black" points="1226.26,-112.5 1226.26,-131.5 1297.26,-131.5 1297.26,-112.5 1226.26,-112.5"/>
<text text-anchor="middle" x="1261.76" y="-119.5" font-family="Helvetica,sans-Serif" font-size="10.00">FlatPlate.H</text>
</a>
</g>
</g>
<!-- Node33&#45;&gt;Node37 -->
<g id="edge66" class="edge">
<title>Node33&#45;&gt;Node37</title>
<path fill="none" stroke="midnightblue" d="M1330.21,-163.18C1313.28,-153.24 1290.98,-140.15 1276.51,-131.65"/>
<polygon fill="midnightblue" stroke="midnightblue" points="1328.58,-166.28 1338.98,-168.32 1332.13,-160.24 1328.58,-166.28"/>
</g>
<!-- Node35&#45;&gt;Node33 -->
<g id="edge61" class="edge">
<title>Node35&#45;&gt;Node33</title>
<path fill="none" stroke="midnightblue" d="M1432.97,-137.07C1416.05,-146.97 1392.05,-159.9 1374.78,-168.32"/>
<polygon fill="midnightblue" stroke="midnightblue" points="1435.23,-139.8 1442,-131.65 1431.63,-133.8 1435.23,-139.8"/>
</g>
<!-- Node36&#45;&gt;Node7 -->
<g id="edge64" class="edge">
<title>Node36&#45;&gt;Node7</title>
<path fill="none" stroke="midnightblue" d="M1350.76,-102.28C1347.64,-88.1 1341.5,-68.93 1329.76,-56 1313.49,-38.07 1288.52,-26.53 1268.54,-19.64"/>
<polygon fill="midnightblue" stroke="midnightblue" points="1347.37,-103.18 1352.66,-112.36 1354.25,-101.88 1347.37,-103.18"/>
</g>
<!-- Node36&#45;&gt;Node19 -->
<g id="edge63" class="edge">
<title>Node36&#45;&gt;Node19</title>
<path fill="none" stroke="midnightblue" d="M1326.1,-108.23C1304.21,-98.13 1274.26,-84.31 1255.21,-75.52"/>
<polygon fill="midnightblue" stroke="midnightblue" points="1324.68,-111.43 1335.22,-112.44 1327.61,-105.08 1324.68,-111.43"/>
</g>
<!-- Node37&#45;&gt;Node8 -->
<g id="edge68" class="edge">
<title>Node37&#45;&gt;Node8</title>
<path fill="none" stroke="midnightblue" d="M1280.21,-105.31C1294.37,-91.39 1309.51,-70.99 1296.76,-56 1266.81,-20.79 1129.08,-13.05 1059.8,-11.41"/>
<polygon fill="midnightblue" stroke="midnightblue" points="1277.61,-102.95 1272.63,-112.3 1282.36,-108.09 1277.61,-102.95"/>
</g>
<!-- Node37&#45;&gt;Node21 -->
<g id="edge67" class="edge">
<title>Node37&#45;&gt;Node21</title>
<path fill="none" stroke="midnightblue" d="M1216.12,-110.81C1170.42,-100.62 1100.91,-85.11 1058.01,-75.54"/>
<polygon fill="midnightblue" stroke="midnightblue" points="1215.53,-114.27 1226.05,-113.03 1217.06,-107.44 1215.53,-114.27"/>
</g>
<!-- Node38&#45;&gt;Node20 -->
<g id="edge71" class="edge">
<title>Node38&#45;&gt;Node20</title>
<path fill="none" stroke="midnightblue" d="M1224.62,-162.1C1211.48,-152.38 1194.78,-140.03 1183.7,-131.83"/>
<polygon fill="midnightblue" stroke="midnightblue" points="1222.91,-165.19 1233.03,-168.32 1227.07,-159.56 1222.91,-165.19"/>
</g>
<!-- Node38&#45;&gt;Node36 -->
<g id="edge70" class="edge">
<title>Node38&#45;&gt;Node36</title>
<path fill="none" stroke="midnightblue" d="M1271.28,-163.86C1291.49,-153.85 1318.75,-140.35 1336.29,-131.65"/>
<polygon fill="midnightblue" stroke="midnightblue" points="1269.68,-160.75 1262.27,-168.32 1272.79,-167.02 1269.68,-160.75"/>
</g>
<!-- Node38&#45;&gt;Node37 -->
<g id="edge72" class="edge">
<title>Node38&#45;&gt;Node37</title>
<path fill="none" stroke="midnightblue" d="M1250.62,-158.4C1253.46,-149.36 1256.74,-138.94 1259.01,-131.75"/>
<polygon fill="midnightblue" stroke="midnightblue" points="1247.23,-157.49 1247.57,-168.08 1253.91,-159.6 1247.23,-157.49"/>
</g>
</g>
</svg>
        <g id="navigator" transform="translate(0 0)" fill="#404254">
                <rect fill="#f2f5e9" fill-opacity="0.5" stroke="#606060" stroke-width=".5" x="0" y="0" width="60" height="60"/>
                <use id="zoomplus" xlink:href="#zoomPlus" x="17" y="9" onmousedown="handleZoom(evt,'in')"/>
                <use id="zoomminus" xlink:href="#zoomMin" x="42" y="9" onmousedown="handleZoom(evt,'out')"/>
                <use id="reset" xlink:href="#resetDef" x="30" y="36" onmousedown="handleReset()"/>
                <g id="arrowUp" xlink:href="#dirArrow" transform="translate(30 24)" onmousedown="handlePan(0,-1)">
                  <use xlink:href="#rim" fill="#404040">
                        <set attributeName="fill" to="#808080" begin="arrowUp.mouseover" end="arrowUp.mouseout"/>
                  </use>
                  <path fill="none" stroke="white" stroke-width="1.5" d="M0,-3.0v7 M-2.5,-0.5L0,-3.0L2.5,-0.5"/>
                </g>
                <g id="arrowRight" xlink:href="#dirArrow" transform="rotate(90) translate(36 -43)" onmousedown="handlePan(1,0)">
                  <use xlink:href="#rim" fill="#404040">
                        <set attributeName="fill" to="#808080" begin="arrowRight.mouseover" end="arrowRight.mouseout"/>
                  </use>
                  <path fill="none" stroke="white" stroke-width="1.5" d="M0,-3.0v7 M-2.5,-0.5L0,-3.0L2.5,-0.5"/>
                </g>
                <g id="arrowDown" xlink:href="#dirArrow" transform="rotate(180) translate(-30 -48)" onmousedown="handlePan(0,1)">
                  <use xlink:href="#rim" fill="#404040">
                        <set attributeName="fill" to="#808080" begin="arrowDown.mouseover" end="arrowDown.mouseout"/>
                  </use>
                  <path fill="none" stroke="white" stroke-width="1.5" d="M0,-3.0v7 M-2.5,-0.5L0,-3.0L2.5,-0.5"/>
                </g>
                <g id="arrowLeft" xlink:href="#dirArrow" transform="rotate(270) translate(-36 17)" onmousedown="handlePan(-1,0)">
                  <use xlink:href="#rim" fill="#404040">
                        <set attributeName="fill" to="#808080" begin="arrowLeft.mouseover" end="arrowLeft.mouseout"/>
                  </use>
                  <path fill="none" stroke="white" stroke-width="1.5" d="M0,-3.0v7 M-2.5,-0.5L0,-3.0L2.5,-0.5"/>
                </g>
        </g>
        <svg viewBox="0 0 15 15" width="100%" height="30px" preserveAspectRatio="xMaxYMin meet">
         <g id="arrow_out" transform="scale(0.3 0.3)">
          <a xlink:href="actuator__types_8_h__dep__incl_org.svg" target="_base">
           <rect id="button" ry="5" rx="5" y="6" x="6" height="38" width="38"
                fill="#f2f5e9" fill-opacity="0.5" stroke="#606060" stroke-width="1.0"/>
           <path id="arrow"
             d="M 11.500037,31.436501 C 11.940474,20.09759 22.043105,11.32322 32.158766,21.979434 L 37.068811,17.246167 C 37.068811,17.246167 37.088388,32 37.088388,32 L 22.160133,31.978069 C 22.160133,31.978069 26.997745,27.140456 26.997745,27.140456 C 18.528582,18.264221 13.291696,25.230495 11.500037,31.436501 z"
             style="fill:#404040;"/>
          </a>
         </g>
        </svg>
</svg>
