<?xml version="1.0" encoding="UTF-8" standalone="no"?>
<!DOCTYPE svg PUBLIC "-//W3C//DTD SVG 1.1//EN"
 "http://www.w3.org/Graphics/SVG/1.1/DTD/svg11.dtd">
<!-- Generated by graphviz version 2.43.0 (0)
 -->
<!-- Title: actuator_ops.H Pages: 1 -->
<svg width="931pt" height="196pt"
 viewBox="0.00 0.00 930.50 196.00" xmlns="http://www.w3.org/2000/svg" xmlns:xlink="http://www.w3.org/1999/xlink">
<g id="graph0" class="graph" transform="scale(1 1) rotate(0) translate(4 192)">
<title>actuator_ops.H</title>
<polygon fill="white" stroke="transparent" points="-4,4 -4,-192 926.5,-192 926.5,4 -4,4"/>
<!-- Node1 -->
<g id="node1" class="node">
<title>Node1</title>
<g id="a_node1"><a xlink:title=" ">
<polygon fill="#bfbfbf" stroke="black" points="513,-168.5 513,-187.5 603,-187.5 603,-168.5 513,-168.5"/>
<text text-anchor="middle" x="558" y="-175.5" font-family="Helvetica,sans-Serif" font-size="10.00">actuator_ops.H</text>
</a>
</g>
</g>
<!-- Node2 -->
<g id="node2" class="node">
<title>Node2</title>
<g id="a_node2"><a xlink:href="_act_src_line_op_8_h.html" target="_top" xlink:title=" ">
<polygon fill="white" stroke="black" points="586,-112.5 586,-131.5 678,-131.5 678,-112.5 586,-112.5"/>
<text text-anchor="middle" x="632" y="-119.5" font-family="Helvetica,sans-Serif" font-size="10.00">ActSrcLineOp.H</text>
</a>
</g>
</g>
<!-- Node1&#45;&gt;Node2 -->
<g id="edge1" class="edge">
<title>Node1&#45;&gt;Node2</title>
<path fill="none" stroke="midnightblue" d="M578.03,-162.38C591.41,-152.62 608.56,-140.11 619.89,-131.83"/>
<polygon fill="midnightblue" stroke="midnightblue" points="575.9,-159.6 569.89,-168.32 580.03,-165.26 575.9,-159.6"/>
</g>
<!-- Node3 -->
<g id="node3" class="node">
<title>Node3</title>
<g id="a_node3"><a xlink:href="_actuator_model_8_h.html" target="_top" xlink:title=" ">
<polygon fill="white" stroke="black" points="491,-56.5 491,-75.5 589,-75.5 589,-56.5 491,-56.5"/>
<text text-anchor="middle" x="540" y="-63.5" font-family="Helvetica,sans-Serif" font-size="10.00">ActuatorModel.H</text>
</a>
</g>
</g>
<!-- Node1&#45;&gt;Node3 -->
<g id="edge8" class="edge">
<title>Node1&#45;&gt;Node3</title>
<path fill="none" stroke="midnightblue" d="M554.95,-158.35C551.01,-134.25 544.3,-93.31 541.41,-75.59"/>
<polygon fill="midnightblue" stroke="midnightblue" points="551.52,-159.06 556.59,-168.37 558.43,-157.93 551.52,-159.06"/>
</g>
<!-- Node9 -->
<g id="node9" class="node">
<title>Node9</title>
<g id="a_node9"><a xlink:href="_act_src_disk_op___turbine_8_h.html" target="_top" xlink:title=" ">
<polygon fill="white" stroke="black" points="284,-112.5 284,-131.5 418,-131.5 418,-112.5 284,-112.5"/>
<text text-anchor="middle" x="351" y="-119.5" font-family="Helvetica,sans-Serif" font-size="10.00">ActSrcDiskOp_Turbine.H</text>
</a>
</g>
</g>
<!-- Node1&#45;&gt;Node9 -->
<g id="edge9" class="edge">
<title>Node1&#45;&gt;Node9</title>
<path fill="none" stroke="midnightblue" d="M515.18,-165.83C476.09,-155.63 419.17,-140.78 383.65,-131.52"/>
<polygon fill="midnightblue" stroke="midnightblue" points="514.64,-169.31 525.2,-168.44 516.41,-162.53 514.64,-169.31"/>
</g>
<!-- Node10 -->
<g id="node10" class="node">
<title>Node10</title>
<g id="a_node10"><a xlink:href="_act_src_disk_op_8_h.html" target="_top" xlink:title=" ">
<polygon fill="white" stroke="black" points="436.5,-112.5 436.5,-131.5 529.5,-131.5 529.5,-112.5 436.5,-112.5"/>
<text text-anchor="middle" x="483" y="-119.5" font-family="Helvetica,sans-Serif" font-size="10.00">ActSrcDiskOp.H</text>
</a>
</g>
</g>
<!-- Node1&#45;&gt;Node10 -->
<g id="edge11" class="edge">
<title>Node1&#45;&gt;Node10</title>
<path fill="none" stroke="midnightblue" d="M537.69,-162.38C524.14,-152.62 506.76,-140.11 495.27,-131.83"/>
<polygon fill="midnightblue" stroke="midnightblue" points="535.79,-165.32 545.95,-168.32 539.88,-159.64 535.79,-165.32"/>
</g>
<!-- Node11 -->
<g id="node11" class="node">
<title>Node11</title>
<g id="a_node11"><a xlink:href="disk__ops_8_h.html" target="_top" xlink:title=" ">
<polygon fill="white" stroke="black" points="70,-112.5 70,-131.5 140,-131.5 140,-112.5 70,-112.5"/>
<text text-anchor="middle" x="105" y="-119.5" font-family="Helvetica,sans-Serif" font-size="10.00">disk_ops.H</text>
</a>
</g>
</g>
<!-- Node1&#45;&gt;Node11 -->
<g id="edge13" class="edge">
<title>Node1&#45;&gt;Node11</title>
<path fill="none" stroke="midnightblue" d="M502.54,-172.53C423.7,-165.81 274.79,-151.74 149,-132 146.07,-131.54 143.05,-131.02 140.01,-130.46"/>
<polygon fill="midnightblue" stroke="midnightblue" points="502.47,-176.04 512.73,-173.39 503.06,-169.06 502.47,-176.04"/>
</g>
<!-- Node17 -->
<g id="node17" class="node">
<title>Node17</title>
<g id="a_node17"><a xlink:href="turbine__fast__ops_8_h.html" target="_top" xlink:title=" ">
<polygon fill="white" stroke="black" points="158,-112.5 158,-131.5 266,-131.5 266,-112.5 158,-112.5"/>
<text text-anchor="middle" x="212" y="-119.5" font-family="Helvetica,sans-Serif" font-size="10.00">turbine_fast_ops.H</text>
</a>
</g>
</g>
<!-- Node1&#45;&gt;Node17 -->
<g id="edge22" class="edge">
<title>Node1&#45;&gt;Node17</title>
<path fill="none" stroke="midnightblue" d="M502.71,-168.37C437.71,-158.23 330.53,-141.5 266.07,-131.44"/>
<polygon fill="midnightblue" stroke="midnightblue" points="502.35,-171.86 512.77,-169.94 503.43,-164.94 502.35,-171.86"/>
</g>
<!-- Node18 -->
<g id="node18" class="node">
<title>Node18</title>
<g id="a_node18"><a xlink:href="fixed__wing__ops_8_h.html" target="_top" xlink:title=" ">
<polygon fill="white" stroke="black" points="607.5,-56.5 607.5,-75.5 708.5,-75.5 708.5,-56.5 607.5,-56.5"/>
<text text-anchor="middle" x="658" y="-63.5" font-family="Helvetica,sans-Serif" font-size="10.00">fixed_wing_ops.H</text>
</a>
</g>
</g>
<!-- Node1&#45;&gt;Node18 -->
<g id="edge24" class="edge">
<title>Node1&#45;&gt;Node18</title>
<path fill="none" stroke="midnightblue" d="M613.31,-172.3C640.2,-166.9 670.25,-155.58 687,-132 700.02,-113.66 679.87,-88.55 667.13,-75.56"/>
<polygon fill="midnightblue" stroke="midnightblue" points="612.43,-168.9 603.19,-174.09 613.65,-175.79 612.43,-168.9"/>
</g>
<!-- Node19 -->
<g id="node19" class="node">
<title>Node19</title>
<g id="a_node19"><a xlink:href="wing__ops_8_h.html" target="_top" xlink:title=" ">
<polygon fill="white" stroke="black" points="734.5,-112.5 734.5,-131.5 807.5,-131.5 807.5,-112.5 734.5,-112.5"/>
<text text-anchor="middle" x="771" y="-119.5" font-family="Helvetica,sans-Serif" font-size="10.00">wing_ops.H</text>
</a>
</g>
</g>
<!-- Node1&#45;&gt;Node19 -->
<g id="edge26" class="edge">
<title>Node1&#45;&gt;Node19</title>
<path fill="none" stroke="midnightblue" d="M601.55,-165.96C641.78,-155.76 700.7,-140.82 737.41,-131.52"/>
<polygon fill="midnightblue" stroke="midnightblue" points="600.58,-162.59 591.75,-168.44 602.3,-169.38 600.58,-162.59"/>
</g>
<!-- Node20 -->
<g id="node20" class="node">
<title>Node20</title>
<g id="a_node20"><a xlink:href="flat__plate__ops_8_h.html" target="_top" xlink:title=" ">
<polygon fill="white" stroke="black" points="827.5,-56.5 827.5,-75.5 922.5,-75.5 922.5,-56.5 827.5,-56.5"/>
<text text-anchor="middle" x="875" y="-63.5" font-family="Helvetica,sans-Serif" font-size="10.00">flat_plate_ops.H</text>
</a>
</g>
</g>
<!-- Node1&#45;&gt;Node20 -->
<g id="edge31" class="edge">
<title>Node1&#45;&gt;Node20</title>
<path fill="none" stroke="midnightblue" d="M613.31,-171.69C678.67,-164.68 782.87,-150.96 817,-132 841.59,-118.34 861.07,-90.22 869.88,-75.86"/>
<polygon fill="midnightblue" stroke="midnightblue" points="612.75,-168.23 603.17,-172.76 613.48,-175.19 612.75,-168.23"/>
</g>
<!-- Node2&#45;&gt;Node3 -->
<g id="edge2" class="edge">
<title>Node2&#45;&gt;Node3</title>
<path fill="none" stroke="midnightblue" d="M608.45,-107.18C591.52,-97.24 569.22,-84.15 554.74,-75.65"/>
<polygon fill="midnightblue" stroke="midnightblue" points="606.82,-110.28 617.22,-112.32 610.37,-104.24 606.82,-110.28"/>
</g>
<!-- Node4 -->
<g id="node4" class="node">
<title>Node4</title>
<g id="a_node4"><a xlink:href="_actuator_8cpp.html" target="_top" xlink:title=" ">
<polygon fill="white" stroke="black" points="508.5,-0.5 508.5,-19.5 585.5,-19.5 585.5,-0.5 508.5,-0.5"/>
<text text-anchor="middle" x="547" y="-7.5" font-family="Helvetica,sans-Serif" font-size="10.00">Actuator.cpp</text>
</a>
</g>
</g>
<!-- Node3&#45;&gt;Node4 -->
<g id="edge3" class="edge">
<title>Node3&#45;&gt;Node4</title>
<path fill="none" stroke="midnightblue" d="M542.45,-46.1C543.61,-37.14 544.94,-26.86 545.87,-19.75"/>
<polygon fill="midnightblue" stroke="midnightblue" points="538.97,-45.72 541.16,-56.08 545.91,-46.62 538.97,-45.72"/>
</g>
<!-- Node5 -->
<g id="node5" class="node">
<title>Node5</title>
<g id="a_node5"><a xlink:href="_actuator_disk_8cpp.html" target="_top" xlink:title=" ">
<polygon fill="white" stroke="black" points="280,-0.5 280,-19.5 380,-19.5 380,-0.5 280,-0.5"/>
<text text-anchor="middle" x="330" y="-7.5" font-family="Helvetica,sans-Serif" font-size="10.00">ActuatorDisk.cpp</text>
</a>
</g>
</g>
<!-- Node3&#45;&gt;Node5 -->
<g id="edge4" class="edge">
<title>Node3&#45;&gt;Node5</title>
<path fill="none" stroke="midnightblue" d="M496.81,-53.89C457.15,-43.7 399.23,-28.8 363.12,-19.52"/>
<polygon fill="midnightblue" stroke="midnightblue" points="496.17,-57.34 506.72,-56.44 497.91,-50.56 496.17,-57.34"/>
</g>
<!-- Node6 -->
<g id="node6" class="node">
<title>Node6</title>
<g id="a_node6"><a xlink:href="_turbine_fast_8cpp.html" target="_top" xlink:title=" ">
<polygon fill="white" stroke="black" points="398,-0.5 398,-19.5 490,-19.5 490,-0.5 398,-0.5"/>
<text text-anchor="middle" x="444" y="-7.5" font-family="Helvetica,sans-Serif" font-size="10.00">TurbineFast.cpp</text>
</a>
</g>
</g>
<!-- Node3&#45;&gt;Node6 -->
<g id="edge5" class="edge">
<title>Node3&#45;&gt;Node6</title>
<path fill="none" stroke="midnightblue" d="M515.43,-51.18C497.76,-41.24 474.49,-28.15 459.39,-19.65"/>
<polygon fill="midnightblue" stroke="midnightblue" points="514.14,-54.47 524.58,-56.32 517.58,-48.37 514.14,-54.47"/>
</g>
<!-- Node7 -->
<g id="node7" class="node">
<title>Node7</title>
<g id="a_node7"><a xlink:href="_fixed_wing_8cpp.html" target="_top" xlink:title=" ">
<polygon fill="white" stroke="black" points="610.5,-0.5 610.5,-19.5 697.5,-19.5 697.5,-0.5 610.5,-0.5"/>
<text text-anchor="middle" x="654" y="-7.5" font-family="Helvetica,sans-Serif" font-size="10.00">FixedWing.cpp</text>
</a>
</g>
</g>
<!-- Node3&#45;&gt;Node7 -->
<g id="edge6" class="edge">
<title>Node3&#45;&gt;Node7</title>
<path fill="none" stroke="midnightblue" d="M567.24,-52.1C588.54,-42.01 617.54,-28.27 636.02,-19.52"/>
<polygon fill="midnightblue" stroke="midnightblue" points="565.6,-49 558.06,-56.44 568.6,-55.33 565.6,-49"/>
</g>
<!-- Node8 -->
<g id="node8" class="node">
<title>Node8</title>
<g id="a_node8"><a xlink:href="_flat_plate_8cpp.html" target="_top" xlink:title=" ">
<polygon fill="white" stroke="black" points="777,-0.5 777,-19.5 857,-19.5 857,-0.5 777,-0.5"/>
<text text-anchor="middle" x="817" y="-7.5" font-family="Helvetica,sans-Serif" font-size="10.00">FlatPlate.cpp</text>
</a>
</g>
</g>
<!-- Node3&#45;&gt;Node8 -->
<g id="edge7" class="edge">
<title>Node3&#45;&gt;Node8</title>
<path fill="none" stroke="midnightblue" d="M593.91,-54.49C647.57,-44.03 728.7,-28.21 776.91,-18.82"/>
<polygon fill="midnightblue" stroke="midnightblue" points="593.04,-51.09 583.89,-56.44 594.38,-57.97 593.04,-51.09"/>
</g>
<!-- Node9&#45;&gt;Node3 -->
<g id="edge10" class="edge">
<title>Node9&#45;&gt;Node3</title>
<path fill="none" stroke="midnightblue" d="M391.01,-109.57C426.67,-99.38 478.04,-84.7 510.19,-75.52"/>
<polygon fill="midnightblue" stroke="midnightblue" points="389.6,-106.33 380.95,-112.44 391.52,-113.06 389.6,-106.33"/>
</g>
<!-- Node10&#45;&gt;Node3 -->
<g id="edge12" class="edge">
<title>Node10&#45;&gt;Node3</title>
<path fill="none" stroke="midnightblue" d="M499.62,-105.25C509.73,-95.67 522.28,-83.79 530.68,-75.83"/>
<polygon fill="midnightblue" stroke="midnightblue" points="497.01,-102.91 492.16,-112.32 501.82,-107.99 497.01,-102.91"/>
</g>
<!-- Node12 -->
<g id="node12" class="node">
<title>Node12</title>
<g id="a_node12"><a xlink:href="uniform__ct__ops_8_h.html" target="_top" xlink:title=" ">
<polygon fill="white" stroke="black" points="279,-56.5 279,-75.5 381,-75.5 381,-56.5 279,-56.5"/>
<text text-anchor="middle" x="330" y="-63.5" font-family="Helvetica,sans-Serif" font-size="10.00">uniform_ct_ops.H</text>
</a>
</g>
</g>
<!-- Node11&#45;&gt;Node12 -->
<g id="edge14" class="edge">
<title>Node11&#45;&gt;Node12</title>
<path fill="none" stroke="midnightblue" d="M149.95,-110.21C192.41,-100.02 255.24,-84.94 294.35,-75.56"/>
<polygon fill="midnightblue" stroke="midnightblue" points="149.06,-106.83 140.16,-112.56 150.7,-113.63 149.06,-106.83"/>
</g>
<!-- Node14 -->
<g id="node14" class="node">
<title>Node14</title>
<g id="a_node14"><a xlink:href="_joukowsky__ops_8_h.html" target="_top" xlink:title=" ">
<polygon fill="white" stroke="black" points="159.5,-56.5 159.5,-75.5 260.5,-75.5 260.5,-56.5 159.5,-56.5"/>
<text text-anchor="middle" x="210" y="-63.5" font-family="Helvetica,sans-Serif" font-size="10.00">Joukowsky_ops.H</text>
</a>
</g>
</g>
<!-- Node11&#45;&gt;Node14 -->
<g id="edge17" class="edge">
<title>Node11&#45;&gt;Node14</title>
<path fill="none" stroke="midnightblue" d="M130.81,-107.73C150.25,-97.73 176.35,-84.31 193.17,-75.65"/>
<polygon fill="midnightblue" stroke="midnightblue" points="129.16,-104.64 121.87,-112.32 132.36,-110.86 129.16,-104.64"/>
</g>
<!-- Node15 -->
<g id="node15" class="node">
<title>Node15</title>
<g id="a_node15"><a xlink:href="_joukowsky__ops_8cpp.html" target="_top" xlink:title=" ">
<polygon fill="white" stroke="black" points="0,-0.5 0,-19.5 110,-19.5 110,-0.5 0,-0.5"/>
<text text-anchor="middle" x="55" y="-7.5" font-family="Helvetica,sans-Serif" font-size="10.00">Joukowsky_ops.cpp</text>
</a>
</g>
</g>
<!-- Node11&#45;&gt;Node15 -->
<g id="edge21" class="edge">
<title>Node11&#45;&gt;Node15</title>
<path fill="none" stroke="midnightblue" d="M80.28,-106.9C69.47,-99.28 57.92,-88.79 52,-76 43.46,-57.55 48.41,-32.91 52.11,-19.91"/>
<polygon fill="midnightblue" stroke="midnightblue" points="78.38,-109.84 88.67,-112.39 82.21,-103.98 78.38,-109.84"/>
</g>
<!-- Node16 -->
<g id="node16" class="node">
<title>Node16</title>
<g id="a_node16"><a xlink:href="disk__ops_8cpp.html" target="_top" xlink:title=" ">
<polygon fill="white" stroke="black" points="61,-56.5 61,-75.5 141,-75.5 141,-56.5 61,-56.5"/>
<text text-anchor="middle" x="101" y="-63.5" font-family="Helvetica,sans-Serif" font-size="10.00">disk_ops.cpp</text>
</a>
</g>
</g>
<!-- Node11&#45;&gt;Node16 -->
<g id="edge20" class="edge">
<title>Node11&#45;&gt;Node16</title>
<path fill="none" stroke="midnightblue" d="M103.6,-102.1C102.94,-93.14 102.17,-82.86 101.65,-75.75"/>
<polygon fill="midnightblue" stroke="midnightblue" points="100.11,-102.37 104.34,-112.08 107.09,-101.85 100.11,-102.37"/>
</g>
<!-- Node12&#45;&gt;Node5 -->
<g id="edge15" class="edge">
<title>Node12&#45;&gt;Node5</title>
<path fill="none" stroke="midnightblue" d="M330,-45.8C330,-36.91 330,-26.78 330,-19.75"/>
<polygon fill="midnightblue" stroke="midnightblue" points="326.5,-46.08 330,-56.08 333.5,-46.08 326.5,-46.08"/>
</g>
<!-- Node13 -->
<g id="node13" class="node">
<title>Node13</title>
<g id="a_node13"><a xlink:href="uniform__ct__ops_8cpp.html" target="_top" xlink:title=" ">
<polygon fill="white" stroke="black" points="150,-0.5 150,-19.5 262,-19.5 262,-0.5 150,-0.5"/>
<text text-anchor="middle" x="206" y="-7.5" font-family="Helvetica,sans-Serif" font-size="10.00">uniform_ct_ops.cpp</text>
</a>
</g>
</g>
<!-- Node12&#45;&gt;Node13 -->
<g id="edge16" class="edge">
<title>Node12&#45;&gt;Node13</title>
<path fill="none" stroke="midnightblue" d="M300.99,-52.37C277.77,-42.26 245.84,-28.35 225.56,-19.52"/>
<polygon fill="midnightblue" stroke="midnightblue" points="299.79,-55.66 310.35,-56.44 302.58,-49.24 299.79,-55.66"/>
</g>
<!-- Node14&#45;&gt;Node5 -->
<g id="edge18" class="edge">
<title>Node14&#45;&gt;Node5</title>
<path fill="none" stroke="midnightblue" d="M238.37,-52.23C260.82,-42.13 291.54,-28.31 311.07,-19.52"/>
<polygon fill="midnightblue" stroke="midnightblue" points="236.7,-49.15 229.01,-56.44 239.57,-55.53 236.7,-49.15"/>
</g>
<!-- Node14&#45;&gt;Node15 -->
<g id="edge19" class="edge">
<title>Node14&#45;&gt;Node15</title>
<path fill="none" stroke="midnightblue" d="M175.67,-53.04C146.5,-42.88 105.36,-28.55 79.45,-19.52"/>
<polygon fill="midnightblue" stroke="midnightblue" points="174.84,-56.46 185.44,-56.44 177.15,-49.85 174.84,-56.46"/>
</g>
<!-- Node17&#45;&gt;Node6 -->
<g id="edge23" class="edge">
<title>Node17&#45;&gt;Node6</title>
<path fill="none" stroke="midnightblue" d="M269.27,-110.53C313.34,-101.73 369.99,-88.62 390,-76 413.08,-61.45 431.13,-33.73 439.27,-19.66"/>
<polygon fill="midnightblue" stroke="midnightblue" points="268.36,-107.14 259.22,-112.5 269.71,-114.01 268.36,-107.14"/>
</g>
<!-- Node18&#45;&gt;Node7 -->
<g id="edge25" class="edge">
<title>Node18&#45;&gt;Node7</title>
<path fill="none" stroke="midnightblue" d="M656.6,-46.1C655.94,-37.14 655.17,-26.86 654.65,-19.75"/>
<polygon fill="midnightblue" stroke="midnightblue" points="653.11,-46.37 657.34,-56.08 660.09,-45.85 653.11,-46.37"/>
</g>
<!-- Node19&#45;&gt;Node18 -->
<g id="edge27" class="edge">
<title>Node19&#45;&gt;Node18</title>
<path fill="none" stroke="midnightblue" d="M744,-108.1C722.89,-98.01 694.14,-84.27 675.82,-75.52"/>
<polygon fill="midnightblue" stroke="midnightblue" points="742.56,-111.29 753.09,-112.44 745.58,-104.97 742.56,-111.29"/>
</g>
<!-- Node19&#45;&gt;Node20 -->
<g id="edge28" class="edge">
<title>Node19&#45;&gt;Node20</title>
<path fill="none" stroke="midnightblue" d="M796.83,-107.59C816.06,-97.61 841.74,-84.27 858.33,-75.65"/>
<polygon fill="midnightblue" stroke="midnightblue" points="794.97,-104.61 787.71,-112.32 798.2,-110.82 794.97,-104.61"/>
</g>
<!-- Node21 -->
<g id="node21" class="node">
<title>Node21</title>
<g id="a_node21"><a xlink:href="wing__ops_8cpp.html" target="_top" xlink:title=" ">
<polygon fill="white" stroke="black" points="726.5,-56.5 726.5,-75.5 809.5,-75.5 809.5,-56.5 726.5,-56.5"/>
<text text-anchor="middle" x="768" y="-63.5" font-family="Helvetica,sans-Serif" font-size="10.00">wing_ops.cpp</text>
</a>
</g>
</g>
<!-- Node19&#45;&gt;Node21 -->
<g id="edge30" class="edge">
<title>Node19&#45;&gt;Node21</title>
<path fill="none" stroke="midnightblue" d="M769.93,-101.8C769.44,-92.91 768.88,-82.78 768.49,-75.75"/>
<polygon fill="midnightblue" stroke="midnightblue" points="766.46,-102.29 770.5,-112.08 773.44,-101.9 766.46,-102.29"/>
</g>
<!-- Node20&#45;&gt;Node8 -->
<g id="edge29" class="edge">
<title>Node20&#45;&gt;Node8</title>
<path fill="none" stroke="midnightblue" d="M858.09,-49.25C847.8,-39.67 835.03,-27.79 826.49,-19.83"/>
<polygon fill="midnightblue" stroke="midnightblue" points="855.98,-52.07 865.68,-56.32 860.75,-46.95 855.98,-52.07"/>
</g>
</g>
</svg>
