<?xml version="1.0" encoding="UTF-8" standalone="no"?>
<!DOCTYPE svg PUBLIC "-//W3C//DTD SVG 1.1//EN"
 "http://www.w3.org/Graphics/SVG/1.1/DTD/svg11.dtd">
<!-- Generated by graphviz version 2.43.0 (0)
 -->
<!-- Title: actuator_utils.H Pages: 1 -->
<svg width="965pt" height="308pt"
 viewBox="0.00 0.00 965.00 308.00" xmlns="http://www.w3.org/2000/svg" xmlns:xlink="http://www.w3.org/1999/xlink">
<g id="graph0" class="graph" transform="scale(1 1) rotate(0) translate(4 304)">
<title>actuator_utils.H</title>
<polygon fill="white" stroke="transparent" points="-4,4 -4,-304 961,-304 961,4 -4,4"/>
<!-- Node1 -->
<g id="node1" class="node">
<title>Node1</title>
<g id="a_node1"><a xlink:title=" ">
<polygon fill="#bfbfbf" stroke="black" points="494,-280.5 494,-299.5 588,-299.5 588,-280.5 494,-280.5"/>
<text text-anchor="middle" x="541" y="-287.5" font-family="Helvetica,sans-Serif" font-size="10.00">actuator_utils.H</text>
</a>
</g>
</g>
<!-- Node2 -->
<g id="node2" class="node">
<title>Node2</title>
<g id="a_node2"><a xlink:href="actuator__ops_i_8_h.html" target="_top" xlink:title=" ">
<polygon fill="white" stroke="black" points="494.5,-224.5 494.5,-243.5 587.5,-243.5 587.5,-224.5 494.5,-224.5"/>
<text text-anchor="middle" x="541" y="-231.5" font-family="Helvetica,sans-Serif" font-size="10.00">actuator_opsI.H</text>
</a>
</g>
</g>
<!-- Node1&#45;&gt;Node2 -->
<g id="edge1" class="edge">
<title>Node1&#45;&gt;Node2</title>
<path fill="none" stroke="midnightblue" d="M541,-269.8C541,-260.91 541,-250.78 541,-243.75"/>
<polygon fill="midnightblue" stroke="midnightblue" points="537.5,-270.08 541,-280.08 544.5,-270.08 537.5,-270.08"/>
</g>
<!-- Node4 -->
<g id="node4" class="node">
<title>Node4</title>
<g id="a_node4"><a xlink:href="_act_src_line_op_8_h.html" target="_top" xlink:title=" ">
<polygon fill="white" stroke="black" points="571,-112.5 571,-131.5 663,-131.5 663,-112.5 571,-112.5"/>
<text text-anchor="middle" x="617" y="-119.5" font-family="Helvetica,sans-Serif" font-size="10.00">ActSrcLineOp.H</text>
</a>
</g>
</g>
<!-- Node1&#45;&gt;Node4 -->
<g id="edge34" class="edge">
<title>Node1&#45;&gt;Node4</title>
<path fill="none" stroke="midnightblue" d="M565.22,-274.9C576.33,-267.18 588.64,-256.61 596,-244 617.82,-206.62 618.24,-152.44 617.48,-131.61"/>
<polygon fill="midnightblue" stroke="midnightblue" points="563.15,-272.07 556.68,-280.46 566.97,-277.93 563.15,-272.07"/>
</g>
<!-- Node11 -->
<g id="node11" class="node">
<title>Node11</title>
<g id="a_node11"><a xlink:href="_act_src_disk_op___turbine_8_h.html" target="_top" xlink:title=" ">
<polygon fill="white" stroke="black" points="381,-112.5 381,-131.5 515,-131.5 515,-112.5 381,-112.5"/>
<text text-anchor="middle" x="448" y="-119.5" font-family="Helvetica,sans-Serif" font-size="10.00">ActSrcDiskOp_Turbine.H</text>
</a>
</g>
</g>
<!-- Node1&#45;&gt;Node11 -->
<g id="edge35" class="edge">
<title>Node1&#45;&gt;Node11</title>
<path fill="none" stroke="midnightblue" d="M517.24,-274.72C506.04,-266.9 493.33,-256.3 485,-244 459.99,-207.08 451.38,-152.63 448.89,-131.66"/>
<polygon fill="midnightblue" stroke="midnightblue" points="515.52,-277.78 525.8,-280.37 519.38,-271.94 515.52,-277.78"/>
</g>
<!-- Node12 -->
<g id="node12" class="node">
<title>Node12</title>
<g id="a_node12"><a xlink:href="_act_src_disk_op_8_h.html" target="_top" xlink:title=" ">
<polygon fill="white" stroke="black" points="269.5,-112.5 269.5,-131.5 362.5,-131.5 362.5,-112.5 269.5,-112.5"/>
<text text-anchor="middle" x="316" y="-119.5" font-family="Helvetica,sans-Serif" font-size="10.00">ActSrcDiskOp.H</text>
</a>
</g>
</g>
<!-- Node1&#45;&gt;Node12 -->
<g id="edge36" class="edge">
<title>Node1&#45;&gt;Node12</title>
<path fill="none" stroke="midnightblue" d="M517.93,-274.96C504.09,-266.35 486.28,-254.92 471,-244 426.73,-212.36 417.97,-201.39 375,-168 358.52,-155.19 339.27,-140.58 327.36,-131.57"/>
<polygon fill="midnightblue" stroke="midnightblue" points="516.44,-278.16 526.79,-280.43 520.11,-272.2 516.44,-278.16"/>
</g>
<!-- Node19 -->
<g id="node19" class="node">
<title>Node19</title>
<g id="a_node19"><a xlink:href="turbine__fast__ops_8_h.html" target="_top" xlink:title=" ">
<polygon fill="white" stroke="black" points="849,-112.5 849,-131.5 957,-131.5 957,-112.5 849,-112.5"/>
<text text-anchor="middle" x="903" y="-119.5" font-family="Helvetica,sans-Serif" font-size="10.00">turbine_fast_ops.H</text>
</a>
</g>
</g>
<!-- Node1&#45;&gt;Node19 -->
<g id="edge41" class="edge">
<title>Node1&#45;&gt;Node19</title>
<path fill="none" stroke="midnightblue" d="M566.98,-275.79C593.48,-262.41 635.87,-241.28 673,-224 749.7,-188.29 842.24,-148.7 882.56,-131.62"/>
<polygon fill="midnightblue" stroke="midnightblue" points="565.31,-272.71 557.97,-280.35 568.48,-278.95 565.31,-272.71"/>
</g>
<!-- Node24 -->
<g id="node24" class="node">
<title>Node24</title>
<g id="a_node24"><a xlink:href="disk__spreading_8_h.html" target="_top" xlink:title=" ">
<polygon fill="white" stroke="black" points="265.5,-168.5 265.5,-187.5 366.5,-187.5 366.5,-168.5 265.5,-168.5"/>
<text text-anchor="middle" x="316" y="-175.5" font-family="Helvetica,sans-Serif" font-size="10.00">disk_spreading.H</text>
</a>
</g>
</g>
<!-- Node1&#45;&gt;Node24 -->
<g id="edge37" class="edge">
<title>Node1&#45;&gt;Node24</title>
<path fill="none" stroke="midnightblue" d="M486.79,-278.12C457.83,-270.95 422.23,-259.9 393,-244 364.72,-228.62 337.32,-201.77 324.14,-187.88"/>
<polygon fill="midnightblue" stroke="midnightblue" points="486.2,-281.57 496.74,-280.49 487.82,-274.77 486.2,-281.57"/>
</g>
<!-- Node25 -->
<g id="node25" class="node">
<title>Node25</title>
<g id="a_node25"><a xlink:href="actuator__utils_8cpp.html" target="_top" xlink:title=" ">
<polygon fill="white" stroke="black" points="682,-224.5 682,-243.5 786,-243.5 786,-224.5 682,-224.5"/>
<text text-anchor="middle" x="734" y="-231.5" font-family="Helvetica,sans-Serif" font-size="10.00">actuator_utils.cpp</text>
</a>
</g>
</g>
<!-- Node1&#45;&gt;Node25 -->
<g id="edge40" class="edge">
<title>Node1&#45;&gt;Node25</title>
<path fill="none" stroke="midnightblue" d="M581.39,-277.7C617.82,-267.51 670.59,-252.74 703.56,-243.52"/>
<polygon fill="midnightblue" stroke="midnightblue" points="580.27,-274.38 571.58,-280.44 582.15,-281.12 580.27,-274.38"/>
</g>
<!-- Node3 -->
<g id="node3" class="node">
<title>Node3</title>
<g id="a_node3"><a xlink:href="actuator__ops_8_h.html" target="_top" xlink:title=" ">
<polygon fill="white" stroke="black" points="498,-168.5 498,-187.5 588,-187.5 588,-168.5 498,-168.5"/>
<text text-anchor="middle" x="543" y="-175.5" font-family="Helvetica,sans-Serif" font-size="10.00">actuator_ops.H</text>
</a>
</g>
</g>
<!-- Node2&#45;&gt;Node3 -->
<g id="edge2" class="edge">
<title>Node2&#45;&gt;Node3</title>
<path fill="none" stroke="midnightblue" d="M541.71,-213.8C542.04,-204.91 542.42,-194.78 542.68,-187.75"/>
<polygon fill="midnightblue" stroke="midnightblue" points="538.2,-213.96 541.33,-224.08 545.2,-214.22 538.2,-213.96"/>
</g>
<!-- Node3&#45;&gt;Node4 -->
<g id="edge3" class="edge">
<title>Node3&#45;&gt;Node4</title>
<path fill="none" stroke="midnightblue" d="M563.03,-162.38C576.41,-152.62 593.56,-140.11 604.89,-131.83"/>
<polygon fill="midnightblue" stroke="midnightblue" points="560.9,-159.6 554.89,-168.32 565.03,-165.26 560.9,-159.6"/>
</g>
<!-- Node5 -->
<g id="node5" class="node">
<title>Node5</title>
<g id="a_node5"><a xlink:href="_actuator_model_8_h.html" target="_top" xlink:title=" ">
<polygon fill="white" stroke="black" points="443,-56.5 443,-75.5 541,-75.5 541,-56.5 443,-56.5"/>
<text text-anchor="middle" x="492" y="-63.5" font-family="Helvetica,sans-Serif" font-size="10.00">ActuatorModel.H</text>
</a>
</g>
</g>
<!-- Node3&#45;&gt;Node5 -->
<g id="edge10" class="edge">
<title>Node3&#45;&gt;Node5</title>
<path fill="none" stroke="midnightblue" d="M539.29,-158.36C536.23,-145.02 531.21,-126.88 524,-112 517.39,-98.37 506.75,-84.42 499.57,-75.74"/>
<polygon fill="midnightblue" stroke="midnightblue" points="535.9,-159.2 541.41,-168.25 542.74,-157.74 535.9,-159.2"/>
</g>
<!-- Node3&#45;&gt;Node11 -->
<g id="edge11" class="edge">
<title>Node3&#45;&gt;Node11</title>
<path fill="none" stroke="midnightblue" d="M518.68,-163.18C501.2,-153.24 478.17,-140.15 463.23,-131.65"/>
<polygon fill="midnightblue" stroke="midnightblue" points="517.31,-166.43 527.74,-168.32 520.77,-160.34 517.31,-166.43"/>
</g>
<!-- Node3&#45;&gt;Node12 -->
<g id="edge13" class="edge">
<title>Node3&#45;&gt;Node12</title>
<path fill="none" stroke="midnightblue" d="M497.13,-166.09C454.25,-155.89 391.08,-140.86 351.8,-131.52"/>
<polygon fill="midnightblue" stroke="midnightblue" points="496.49,-169.53 507.03,-168.44 498.11,-162.72 496.49,-169.53"/>
</g>
<!-- Node13 -->
<g id="node13" class="node">
<title>Node13</title>
<g id="a_node13"><a xlink:href="disk__ops_8_h.html" target="_top" xlink:title=" ">
<polygon fill="white" stroke="black" points="181,-112.5 181,-131.5 251,-131.5 251,-112.5 181,-112.5"/>
<text text-anchor="middle" x="216" y="-119.5" font-family="Helvetica,sans-Serif" font-size="10.00">disk_ops.H</text>
</a>
</g>
</g>
<!-- Node3&#45;&gt;Node13 -->
<g id="edge15" class="edge">
<title>Node3&#45;&gt;Node13</title>
<path fill="none" stroke="midnightblue" d="M487.9,-168.97C430.78,-160.48 338.96,-146.35 260,-132 257.08,-131.47 254.07,-130.9 251.04,-130.31"/>
<polygon fill="midnightblue" stroke="midnightblue" points="487.4,-172.44 497.8,-170.44 488.42,-165.51 487.4,-172.44"/>
</g>
<!-- Node3&#45;&gt;Node19 -->
<g id="edge24" class="edge">
<title>Node3&#45;&gt;Node19</title>
<path fill="none" stroke="midnightblue" d="M598.33,-168.7C666.43,-158.48 781.32,-141.25 848.86,-131.12"/>
<polygon fill="midnightblue" stroke="midnightblue" points="597.6,-165.27 588.23,-170.22 598.64,-172.19 597.6,-165.27"/>
</g>
<!-- Node20 -->
<g id="node20" class="node">
<title>Node20</title>
<g id="a_node20"><a xlink:href="fixed__wing__ops_8_h.html" target="_top" xlink:title=" ">
<polygon fill="white" stroke="black" points="773.5,-56.5 773.5,-75.5 874.5,-75.5 874.5,-56.5 773.5,-56.5"/>
<text text-anchor="middle" x="824" y="-63.5" font-family="Helvetica,sans-Serif" font-size="10.00">fixed_wing_ops.H</text>
</a>
</g>
</g>
<!-- Node3&#45;&gt;Node20 -->
<g id="edge26" class="edge">
<title>Node3&#45;&gt;Node20</title>
<path fill="none" stroke="midnightblue" d="M598.2,-170.44C669.61,-161.49 786.72,-145.09 802,-132 818.83,-117.59 822.82,-89.8 823.74,-75.69"/>
<polygon fill="midnightblue" stroke="midnightblue" points="597.51,-167 588.02,-171.7 598.37,-173.95 597.51,-167"/>
</g>
<!-- Node21 -->
<g id="node21" class="node">
<title>Node21</title>
<g id="a_node21"><a xlink:href="wing__ops_8_h.html" target="_top" xlink:title=" ">
<polygon fill="white" stroke="black" points="719.5,-112.5 719.5,-131.5 792.5,-131.5 792.5,-112.5 719.5,-112.5"/>
<text text-anchor="middle" x="756" y="-119.5" font-family="Helvetica,sans-Serif" font-size="10.00">wing_ops.H</text>
</a>
</g>
</g>
<!-- Node3&#45;&gt;Node21 -->
<g id="edge28" class="edge">
<title>Node3&#45;&gt;Node21</title>
<path fill="none" stroke="midnightblue" d="M586.55,-165.96C626.78,-155.76 685.7,-140.82 722.41,-131.52"/>
<polygon fill="midnightblue" stroke="midnightblue" points="585.58,-162.59 576.75,-168.44 587.3,-169.38 585.58,-162.59"/>
</g>
<!-- Node22 -->
<g id="node22" class="node">
<title>Node22</title>
<g id="a_node22"><a xlink:href="flat__plate__ops_8_h.html" target="_top" xlink:title=" ">
<polygon fill="white" stroke="black" points="559.5,-56.5 559.5,-75.5 654.5,-75.5 654.5,-56.5 559.5,-56.5"/>
<text text-anchor="middle" x="607" y="-63.5" font-family="Helvetica,sans-Serif" font-size="10.00">flat_plate_ops.H</text>
</a>
</g>
</g>
<!-- Node3&#45;&gt;Node22 -->
<g id="edge33" class="edge">
<title>Node3&#45;&gt;Node22</title>
<path fill="none" stroke="midnightblue" d="M598.31,-172.3C625.2,-166.9 655.25,-155.58 672,-132 688.17,-109.23 651.86,-87.22 627.26,-75.57"/>
<polygon fill="midnightblue" stroke="midnightblue" points="597.43,-168.9 588.19,-174.09 598.65,-175.79 597.43,-168.9"/>
</g>
<!-- Node4&#45;&gt;Node5 -->
<g id="edge4" class="edge">
<title>Node4&#45;&gt;Node5</title>
<path fill="none" stroke="midnightblue" d="M587.76,-108.37C564.35,-98.26 532.16,-84.35 511.71,-75.52"/>
<polygon fill="midnightblue" stroke="midnightblue" points="586.63,-111.69 597.19,-112.44 589.4,-105.26 586.63,-111.69"/>
</g>
<!-- Node6 -->
<g id="node6" class="node">
<title>Node6</title>
<g id="a_node6"><a xlink:href="_actuator_8cpp.html" target="_top" xlink:title=" ">
<polygon fill="white" stroke="black" points="453.5,-0.5 453.5,-19.5 530.5,-19.5 530.5,-0.5 453.5,-0.5"/>
<text text-anchor="middle" x="492" y="-7.5" font-family="Helvetica,sans-Serif" font-size="10.00">Actuator.cpp</text>
</a>
</g>
</g>
<!-- Node5&#45;&gt;Node6 -->
<g id="edge5" class="edge">
<title>Node5&#45;&gt;Node6</title>
<path fill="none" stroke="midnightblue" d="M492,-45.8C492,-36.91 492,-26.78 492,-19.75"/>
<polygon fill="midnightblue" stroke="midnightblue" points="488.5,-46.08 492,-56.08 495.5,-46.08 488.5,-46.08"/>
</g>
<!-- Node7 -->
<g id="node7" class="node">
<title>Node7</title>
<g id="a_node7"><a xlink:href="_actuator_disk_8cpp.html" target="_top" xlink:title=" ">
<polygon fill="white" stroke="black" points="130,-0.5 130,-19.5 230,-19.5 230,-0.5 130,-0.5"/>
<text text-anchor="middle" x="180" y="-7.5" font-family="Helvetica,sans-Serif" font-size="10.00">ActuatorDisk.cpp</text>
</a>
</g>
</g>
<!-- Node5&#45;&gt;Node7 -->
<g id="edge6" class="edge">
<title>Node5&#45;&gt;Node7</title>
<path fill="none" stroke="midnightblue" d="M433,-54.79C374.09,-44.59 284.57,-29.1 229.32,-19.54"/>
<polygon fill="midnightblue" stroke="midnightblue" points="432.46,-58.25 442.91,-56.5 433.65,-51.35 432.46,-58.25"/>
</g>
<!-- Node8 -->
<g id="node8" class="node">
<title>Node8</title>
<g id="a_node8"><a xlink:href="_turbine_fast_8cpp.html" target="_top" xlink:title=" ">
<polygon fill="white" stroke="black" points="833,-0.5 833,-19.5 925,-19.5 925,-0.5 833,-0.5"/>
<text text-anchor="middle" x="879" y="-7.5" font-family="Helvetica,sans-Serif" font-size="10.00">TurbineFast.cpp</text>
</a>
</g>
</g>
<!-- Node5&#45;&gt;Node8 -->
<g id="edge7" class="edge">
<title>Node5&#45;&gt;Node8</title>
<path fill="none" stroke="midnightblue" d="M551.03,-55.87C657.95,-40.33 771.19,-25.18 832.92,-17.04"/>
<polygon fill="midnightblue" stroke="midnightblue" points="550.43,-52.42 541.04,-57.33 551.44,-59.35 550.43,-52.42"/>
</g>
<!-- Node9 -->
<g id="node9" class="node">
<title>Node9</title>
<g id="a_node9"><a xlink:href="_fixed_wing_8cpp.html" target="_top" xlink:title=" ">
<polygon fill="white" stroke="black" points="703.5,-0.5 703.5,-19.5 790.5,-19.5 790.5,-0.5 703.5,-0.5"/>
<text text-anchor="middle" x="747" y="-7.5" font-family="Helvetica,sans-Serif" font-size="10.00">FixedWing.cpp</text>
</a>
</g>
</g>
<!-- Node5&#45;&gt;Node9 -->
<g id="edge8" class="edge">
<title>Node5&#45;&gt;Node9</title>
<path fill="none" stroke="midnightblue" d="M542.31,-54.35C590.5,-44.14 662.28,-28.94 706.78,-19.52"/>
<polygon fill="midnightblue" stroke="midnightblue" points="541.46,-50.95 532.41,-56.44 542.91,-57.8 541.46,-50.95"/>
</g>
<!-- Node10 -->
<g id="node10" class="node">
<title>Node10</title>
<g id="a_node10"><a xlink:href="_flat_plate_8cpp.html" target="_top" xlink:title=" ">
<polygon fill="white" stroke="black" points="558,-0.5 558,-19.5 638,-19.5 638,-0.5 558,-0.5"/>
<text text-anchor="middle" x="598" y="-7.5" font-family="Helvetica,sans-Serif" font-size="10.00">FlatPlate.cpp</text>
</a>
</g>
</g>
<!-- Node5&#45;&gt;Node10 -->
<g id="edge9" class="edge">
<title>Node5&#45;&gt;Node10</title>
<path fill="none" stroke="midnightblue" d="M518.06,-51.73C537.68,-41.73 564.03,-28.31 581.01,-19.65"/>
<polygon fill="midnightblue" stroke="midnightblue" points="516.35,-48.67 509.03,-56.32 519.53,-54.9 516.35,-48.67"/>
</g>
<!-- Node11&#45;&gt;Node5 -->
<g id="edge12" class="edge">
<title>Node11&#45;&gt;Node5</title>
<path fill="none" stroke="midnightblue" d="M461.73,-104.14C469.4,-94.74 478.63,-83.4 484.87,-75.75"/>
<polygon fill="midnightblue" stroke="midnightblue" points="458.87,-102.12 455.27,-112.08 464.3,-106.54 458.87,-102.12"/>
</g>
<!-- Node12&#45;&gt;Node5 -->
<g id="edge14" class="edge">
<title>Node12&#45;&gt;Node5</title>
<path fill="none" stroke="midnightblue" d="M353.69,-109.44C386.87,-99.26 434.43,-84.66 464.24,-75.52"/>
<polygon fill="midnightblue" stroke="midnightblue" points="352.42,-106.16 343.89,-112.44 354.47,-112.86 352.42,-106.16"/>
</g>
<!-- Node14 -->
<g id="node14" class="node">
<title>Node14</title>
<g id="a_node14"><a xlink:href="uniform__ct__ops_8_h.html" target="_top" xlink:title=" ">
<polygon fill="white" stroke="black" points="15,-56.5 15,-75.5 117,-75.5 117,-56.5 15,-56.5"/>
<text text-anchor="middle" x="66" y="-63.5" font-family="Helvetica,sans-Serif" font-size="10.00">uniform_ct_ops.H</text>
</a>
</g>
</g>
<!-- Node13&#45;&gt;Node14 -->
<g id="edge16" class="edge">
<title>Node13&#45;&gt;Node14</title>
<path fill="none" stroke="midnightblue" d="M182.78,-109.04C154.55,-98.88 114.74,-84.55 89.66,-75.52"/>
<polygon fill="midnightblue" stroke="midnightblue" points="181.64,-112.35 192.23,-112.44 184.01,-105.76 181.64,-112.35"/>
</g>
<!-- Node16 -->
<g id="node16" class="node">
<title>Node16</title>
<g id="a_node16"><a xlink:href="_joukowsky__ops_8_h.html" target="_top" xlink:title=" ">
<polygon fill="white" stroke="black" points="173.5,-56.5 173.5,-75.5 274.5,-75.5 274.5,-56.5 173.5,-56.5"/>
<text text-anchor="middle" x="224" y="-63.5" font-family="Helvetica,sans-Serif" font-size="10.00">Joukowsky_ops.H</text>
</a>
</g>
</g>
<!-- Node13&#45;&gt;Node16 -->
<g id="edge19" class="edge">
<title>Node13&#45;&gt;Node16</title>
<path fill="none" stroke="midnightblue" d="M218.8,-102.1C220.13,-93.14 221.65,-82.86 222.7,-75.75"/>
<polygon fill="midnightblue" stroke="midnightblue" points="215.32,-101.68 217.32,-112.08 222.25,-102.7 215.32,-101.68"/>
</g>
<!-- Node17 -->
<g id="node17" class="node">
<title>Node17</title>
<g id="a_node17"><a xlink:href="_joukowsky__ops_8cpp.html" target="_top" xlink:title=" ">
<polygon fill="white" stroke="black" points="248,-0.5 248,-19.5 358,-19.5 358,-0.5 248,-0.5"/>
<text text-anchor="middle" x="303" y="-7.5" font-family="Helvetica,sans-Serif" font-size="10.00">Joukowsky_ops.cpp</text>
</a>
</g>
</g>
<!-- Node13&#45;&gt;Node17 -->
<g id="edge23" class="edge">
<title>Node13&#45;&gt;Node17</title>
<path fill="none" stroke="midnightblue" d="M244.34,-107.71C257.77,-100.13 273.02,-89.43 283,-76 295.81,-58.75 300.52,-33.17 302.16,-19.83"/>
<polygon fill="midnightblue" stroke="midnightblue" points="242.6,-104.68 235.42,-112.47 245.89,-110.85 242.6,-104.68"/>
</g>
<!-- Node18 -->
<g id="node18" class="node">
<title>Node18</title>
<g id="a_node18"><a xlink:href="disk__ops_8cpp.html" target="_top" xlink:title=" ">
<polygon fill="white" stroke="black" points="331,-56.5 331,-75.5 411,-75.5 411,-56.5 331,-56.5"/>
<text text-anchor="middle" x="371" y="-63.5" font-family="Helvetica,sans-Serif" font-size="10.00">disk_ops.cpp</text>
</a>
</g>
</g>
<!-- Node13&#45;&gt;Node18 -->
<g id="edge22" class="edge">
<title>Node13&#45;&gt;Node18</title>
<path fill="none" stroke="midnightblue" d="M250.33,-109.04C279.5,-98.88 320.64,-84.55 346.55,-75.52"/>
<polygon fill="midnightblue" stroke="midnightblue" points="248.85,-105.85 240.56,-112.44 251.16,-112.46 248.85,-105.85"/>
</g>
<!-- Node14&#45;&gt;Node7 -->
<g id="edge17" class="edge">
<title>Node14&#45;&gt;Node7</title>
<path fill="none" stroke="midnightblue" d="M93.24,-52.1C114.54,-42.01 143.54,-28.27 162.02,-19.52"/>
<polygon fill="midnightblue" stroke="midnightblue" points="91.6,-49 84.06,-56.44 94.6,-55.33 91.6,-49"/>
</g>
<!-- Node15 -->
<g id="node15" class="node">
<title>Node15</title>
<g id="a_node15"><a xlink:href="uniform__ct__ops_8cpp.html" target="_top" xlink:title=" ">
<polygon fill="white" stroke="black" points="0,-0.5 0,-19.5 112,-19.5 112,-0.5 0,-0.5"/>
<text text-anchor="middle" x="56" y="-7.5" font-family="Helvetica,sans-Serif" font-size="10.00">uniform_ct_ops.cpp</text>
</a>
</g>
</g>
<!-- Node14&#45;&gt;Node15 -->
<g id="edge18" class="edge">
<title>Node14&#45;&gt;Node15</title>
<path fill="none" stroke="midnightblue" d="M62.5,-46.1C60.84,-37.14 58.94,-26.86 57.62,-19.75"/>
<polygon fill="midnightblue" stroke="midnightblue" points="59.09,-46.89 64.35,-56.08 65.97,-45.61 59.09,-46.89"/>
</g>
<!-- Node16&#45;&gt;Node7 -->
<g id="edge20" class="edge">
<title>Node16&#45;&gt;Node7</title>
<path fill="none" stroke="midnightblue" d="M210.27,-48.14C202.6,-38.74 193.37,-27.4 187.13,-19.75"/>
<polygon fill="midnightblue" stroke="midnightblue" points="207.7,-50.54 216.73,-56.08 213.13,-46.12 207.7,-50.54"/>
</g>
<!-- Node16&#45;&gt;Node17 -->
<g id="edge21" class="edge">
<title>Node16&#45;&gt;Node17</title>
<path fill="none" stroke="midnightblue" d="M245.03,-50.62C259.47,-40.76 278.14,-27.99 290.34,-19.65"/>
<polygon fill="midnightblue" stroke="midnightblue" points="242.97,-47.79 236.69,-56.32 246.92,-53.57 242.97,-47.79"/>
</g>
<!-- Node19&#45;&gt;Node8 -->
<g id="edge25" class="edge">
<title>Node19&#45;&gt;Node8</title>
<path fill="none" stroke="midnightblue" d="M898.93,-102.35C893.67,-78.25 884.74,-37.31 880.87,-19.59"/>
<polygon fill="midnightblue" stroke="midnightblue" points="895.57,-103.34 901.12,-112.37 902.4,-101.85 895.57,-103.34"/>
</g>
<!-- Node20&#45;&gt;Node9 -->
<g id="edge27" class="edge">
<title>Node20&#45;&gt;Node9</title>
<path fill="none" stroke="midnightblue" d="M803.1,-50.34C789.09,-40.52 771.12,-27.91 759.34,-19.65"/>
<polygon fill="midnightblue" stroke="midnightblue" points="801.43,-53.45 811.63,-56.32 805.45,-47.72 801.43,-53.45"/>
</g>
<!-- Node21&#45;&gt;Node20 -->
<g id="edge29" class="edge">
<title>Node21&#45;&gt;Node20</title>
<path fill="none" stroke="midnightblue" d="M774.76,-106.1C787,-96.38 802.56,-84.03 812.88,-75.83"/>
<polygon fill="midnightblue" stroke="midnightblue" points="772.58,-103.36 766.93,-112.32 776.93,-108.85 772.58,-103.36"/>
</g>
<!-- Node21&#45;&gt;Node22 -->
<g id="edge30" class="edge">
<title>Node21&#45;&gt;Node22</title>
<path fill="none" stroke="midnightblue" d="M722.63,-108.91C694.62,-98.75 655.3,-84.51 630.5,-75.52"/>
<polygon fill="midnightblue" stroke="midnightblue" points="721.8,-112.33 732.39,-112.44 724.18,-105.75 721.8,-112.33"/>
</g>
<!-- Node23 -->
<g id="node23" class="node">
<title>Node23</title>
<g id="a_node23"><a xlink:href="wing__ops_8cpp.html" target="_top" xlink:title=" ">
<polygon fill="white" stroke="black" points="672.5,-56.5 672.5,-75.5 755.5,-75.5 755.5,-56.5 672.5,-56.5"/>
<text text-anchor="middle" x="714" y="-63.5" font-family="Helvetica,sans-Serif" font-size="10.00">wing_ops.cpp</text>
</a>
</g>
</g>
<!-- Node21&#45;&gt;Node23 -->
<g id="edge32" class="edge">
<title>Node21&#45;&gt;Node23</title>
<path fill="none" stroke="midnightblue" d="M742.89,-104.14C735.57,-94.74 726.76,-83.4 720.81,-75.75"/>
<polygon fill="midnightblue" stroke="midnightblue" points="740.16,-106.34 749.06,-112.08 745.69,-102.04 740.16,-106.34"/>
</g>
<!-- Node22&#45;&gt;Node10 -->
<g id="edge31" class="edge">
<title>Node22&#45;&gt;Node10</title>
<path fill="none" stroke="midnightblue" d="M603.85,-46.1C602.36,-37.14 600.64,-26.86 599.46,-19.75"/>
<polygon fill="midnightblue" stroke="midnightblue" points="600.42,-46.79 605.51,-56.08 607.32,-45.64 600.42,-46.79"/>
</g>
<!-- Node24&#45;&gt;Node7 -->
<g id="edge39" class="edge">
<title>Node24&#45;&gt;Node7</title>
<path fill="none" stroke="midnightblue" d="M255.06,-172.76C225.7,-167.47 192.5,-156.09 172,-132 144.04,-99.13 165.99,-41.31 175.84,-19.58"/>
<polygon fill="midnightblue" stroke="midnightblue" points="254.83,-176.27 265.26,-174.39 255.93,-169.36 254.83,-176.27"/>
</g>
<!-- Node24&#45;&gt;Node12 -->
<g id="edge38" class="edge">
<title>Node24&#45;&gt;Node12</title>
<path fill="none" stroke="midnightblue" d="M316,-157.8C316,-148.91 316,-138.78 316,-131.75"/>
<polygon fill="midnightblue" stroke="midnightblue" points="312.5,-158.08 316,-168.08 319.5,-158.08 312.5,-158.08"/>
</g>
</g>
</svg>
