<?xml version="1.0" encoding="UTF-8" standalone="no"?>
<!DOCTYPE svg PUBLIC "-//W3C//DTD SVG 1.1//EN"
 "http://www.w3.org/Graphics/SVG/1.1/DTD/svg11.dtd">
<!-- Generated by graphviz version 2.43.0 (0)
 -->
<!-- Title: amr_wind::ABLFillInflow Pages: 1 -->
<!--zoomable 405 -->
<svg id="main" version="1.1" xmlns="http://www.w3.org/2000/svg" xmlns:xlink="http://www.w3.org/1999/xlink" xml:space="preserve" onload="init(evt)">
<style type="text/css"><![CDATA[
.edge:hover path { stroke: red; }
.edge:hover polygon { stroke: red; fill: red; }
]]></style>
<script type="text/javascript"><![CDATA[
var edges = document.getElementsByTagName('g');
if (edges && edges.length) {
  for (var i=0;i<edges.length;i++) {
    if (edges[i].id.substr(0,4)=='edge') {
      edges[i].setAttribute('class','edge');
    }
  }
}
]]></script>
        <defs>
                <circle id="rim" cx="0" cy="0" r="7"/>
                <circle id="rim2" cx="0" cy="0" r="3.5"/>
                <g id="zoomPlus">
                        <use xlink:href="#rim" fill="#404040">
                                <set attributeName="fill" to="#808080" begin="zoomplus.mouseover" end="zoomplus.mouseout"/>
                        </use>
                        <path d="M-4,0h8M0,-4v8" fill="none" stroke="white" stroke-width="1.5" pointer-events="none"/>
                </g>
                <g id="zoomMin">
                        <use xlink:href="#rim" fill="#404040">
                                <set attributeName="fill" to="#808080" begin="zoomminus.mouseover" end="zoomminus.mouseout"/>
                        </use>
                        <path d="M-4,0h8" fill="none" stroke="white" stroke-width="1.5" pointer-events="none"/>
                </g>
                <g id="dirArrow">
                        <path fill="none" stroke="white" stroke-width="1.5" d="M0,-3.0v7 M-2.5,-0.5L0,-3.0L2.5,-0.5"/>
                </g>
               <g id="resetDef">
                       <use xlink:href="#rim2" fill="#404040">
                               <set attributeName="fill" to="#808080" begin="reset.mouseover" end="reset.mouseout"/>
                       </use>
               </g>
        </defs>

<script type="text/javascript">
var viewWidth = 2182;
var viewHeight = 405;
var sectionId = 'dynsection-1';
</script>
<script xlink:href="svgpan.js"/>
<svg id="graph" class="graph">
<g id="viewport">
<title>amr_wind::ABLFillInflow</title>
<polygon fill="white" stroke="transparent" points="-4,4 -4,-400.5 2178,-400.5 2178,4 -4,4"/>
<!-- Node1 -->
<g id="node1" class="node">
<title>Node1</title>
<g id="a_node1"><a xlink:title="Operations to perform inflow of data from boundary planes.">
<polygon fill="#bfbfbf" stroke="black" points="2041,-220.5 2041,-239.5 2174,-239.5 2174,-220.5 2041,-220.5"/>
<text text-anchor="middle" x="2107.5" y="-227.5" font-family="Helvetica,sans-Serif" font-size="10.00">amr_wind::ABLFillInflow</text>
</a>
</g>
</g>
<!-- Node2 -->
<g id="node2" class="node">
<title>Node2</title>
<g id="a_node2"><a xlink:href="classamr__wind_1_1_field_fill_patch_ops.html" target="_top" xlink:title=" ">
<polygon fill="white" stroke="black" points="1870,-119 1870,-149 2004,-149 2004,-119 1870,-119"/>
<text text-anchor="start" x="1878" y="-137" font-family="Helvetica,sans-Serif" font-size="10.00">amr_wind::FieldFillPatch</text>
<text text-anchor="middle" x="1937" y="-126" font-family="Helvetica,sans-Serif" font-size="10.00">Ops&lt; FieldBCNoOp &gt;</text>
</a>
</g>
</g>
<!-- Node2&#45;&gt;Node1 -->
<g id="edge1" class="edge">
<title>Node2&#45;&gt;Node1</title>
<path fill="none" stroke="midnightblue" d="M1973.82,-154.41C2009.5,-174.74 2062.75,-205.08 2089.65,-220.4"/>
<polygon fill="midnightblue" stroke="midnightblue" points="1975.12,-151.12 1964.7,-149.21 1971.66,-157.2 1975.12,-151.12"/>
</g>
<!-- Node3 -->
<g id="node3" class="node">
<title>Node3</title>
<g id="a_node3"><a xlink:href="classamr__wind_1_1_field_fill_patch_ops_base.html" target="_top" xlink:title="Abstract interface for classes that handle fill patch and physical boundary condition operations for ...">
<polygon fill="white" stroke="black" points="82,-23 82,-53 216,-53 216,-23 82,-23"/>
<text text-anchor="start" x="90" y="-41" font-family="Helvetica,sans-Serif" font-size="10.00">amr_wind::FieldFillPatch</text>
<text text-anchor="middle" x="149" y="-30" font-family="Helvetica,sans-Serif" font-size="10.00">OpsBase</text>
</a>
</g>
</g>
<!-- Node3&#45;&gt;Node2 -->
<g id="edge2" class="edge">
<title>Node3&#45;&gt;Node2</title>
<path fill="none" stroke="midnightblue" d="M226.28,-23.74C290.61,-12.96 385.25,0 468.5,0 468.5,0 468.5,0 1678,0 1780.21,0 1882.15,-83.84 1920.3,-118.89"/>
<polygon fill="midnightblue" stroke="midnightblue" points="225.49,-20.33 216.22,-25.45 226.66,-27.23 225.49,-20.33"/>
</g>
<!-- Node7 -->
<g id="node7" class="node">
<title>Node7</title>
<g id="a_node7"><a xlink:title=" ">
<polygon fill="white" stroke="#bfbfbf" points="385,-67 385,-97 554,-97 554,-67 385,-67"/>
<text text-anchor="start" x="393" y="-85" font-family="Helvetica,sans-Serif" font-size="10.00">std::unique_ptr&lt; amr</text>
<text text-anchor="middle" x="469.5" y="-74" font-family="Helvetica,sans-Serif" font-size="10.00">_wind::FieldFillPatchOpsBase &gt;</text>
</a>
</g>
</g>
<!-- Node3&#45;&gt;Node7 -->
<g id="edge7" class="edge">
<title>Node3&#45;&gt;Node7</title>
<path fill="none" stroke="#9a32cd" stroke-dasharray="5,2" d="M226.36,-48.55C274.16,-55.15 335.77,-63.66 384.88,-70.45"/>
<polygon fill="#9a32cd" stroke="#9a32cd" points="226.77,-45.07 216.38,-47.17 225.81,-52.01 226.77,-45.07"/>
<text text-anchor="middle" x="300.5" y="-70" font-family="Helvetica,sans-Serif" font-size="10.00"> ptr</text>
</g>
<!-- Node19 -->
<g id="node19" class="node">
<title>Node19</title>
<g id="a_node19"><a xlink:href="classamr__wind_1_1_field_fill_patch_ops.html" target="_top" xlink:title="Concrete implementation of filling patches and boundary conditions on multi&#45;level AMR meshes.">
<polygon fill="white" stroke="black" points="1610,-146 1610,-176 1744,-176 1744,-146 1610,-146"/>
<text text-anchor="start" x="1618" y="-164" font-family="Helvetica,sans-Serif" font-size="10.00">amr_wind::FieldFillPatch</text>
<text text-anchor="middle" x="1677" y="-153" font-family="Helvetica,sans-Serif" font-size="10.00">Ops&lt; BCOpCreator &gt;</text>
</a>
</g>
</g>
<!-- Node3&#45;&gt;Node19 -->
<g id="edge24" class="edge">
<title>Node3&#45;&gt;Node19</title>
<path fill="none" stroke="midnightblue" d="M226.27,-38C290.8,-38 385.7,-38 468.5,-38 468.5,-38 468.5,-38 1468,-38 1528.11,-38 1549.97,-49.02 1592,-92 1606.77,-107.11 1594.87,-121.26 1610,-136 1613.95,-139.85 1618.55,-143.11 1623.45,-145.89"/>
<polygon fill="midnightblue" stroke="midnightblue" points="226.19,-34.5 216.19,-38 226.19,-41.5 226.19,-34.5"/>
</g>
<!-- Node4 -->
<g id="node4" class="node">
<title>Node4</title>
<g id="a_node4"><a xlink:href="classamr__wind_1_1_field.html" target="_top" xlink:title="Computational field.">
<polygon fill="white" stroke="black" points="1194.5,-129.5 1194.5,-148.5 1288.5,-148.5 1288.5,-129.5 1194.5,-129.5"/>
<text text-anchor="middle" x="1241.5" y="-136.5" font-family="Helvetica,sans-Serif" font-size="10.00">amr_wind::Field</text>
</a>
</g>
</g>
<!-- Node4&#45;&gt;Node2 -->
<g id="edge3" class="edge">
<title>Node4&#45;&gt;Node2</title>
<path fill="none" stroke="#9a32cd" stroke-dasharray="5,2" d="M1298.82,-128.69C1391.58,-112.98 1582.35,-86.09 1744,-98 1792.39,-101.57 1804.35,-104.82 1852,-114 1859.65,-115.48 1867.67,-117.18 1875.57,-118.95"/>
<polygon fill="#9a32cd" stroke="#9a32cd" points="1298.07,-125.26 1288.8,-130.4 1299.25,-132.16 1298.07,-125.26"/>
<text text-anchor="middle" x="1572" y="-101" font-family="Helvetica,sans-Serif" font-size="10.00"> m_field</text>
</g>
<!-- Node4&#45;&gt;Node19 -->
<g id="edge25" class="edge">
<title>Node4&#45;&gt;Node19</title>
<path fill="none" stroke="#9a32cd" stroke-dasharray="5,2" d="M1298.77,-133.51C1357.6,-128.73 1452.52,-123.76 1534,-132 1561.16,-134.75 1590.81,-140.37 1615.95,-145.95"/>
<polygon fill="#9a32cd" stroke="#9a32cd" points="1298.25,-130.04 1288.58,-134.36 1298.84,-137.01 1298.25,-130.04"/>
<text text-anchor="middle" x="1467" y="-135" font-family="Helvetica,sans-Serif" font-size="10.00"> m_field</text>
</g>
<!-- Node20 -->
<g id="node20" class="node">
<title>Node20</title>
<g id="a_node20"><a xlink:href="structamr__wind_1_1_b_c_op_creator.html" target="_top" xlink:title=" ">
<polygon fill="white" stroke="black" points="1400,-152 1400,-182 1534,-182 1534,-152 1400,-152"/>
<text text-anchor="start" x="1408" y="-170" font-family="Helvetica,sans-Serif" font-size="10.00">amr_wind::BCOpCreator</text>
<text text-anchor="middle" x="1467" y="-159" font-family="Helvetica,sans-Serif" font-size="10.00">&lt; InflowOp, WallOp &gt;</text>
</a>
</g>
</g>
<!-- Node4&#45;&gt;Node20 -->
<g id="edge28" class="edge">
<title>Node4&#45;&gt;Node20</title>
<path fill="none" stroke="#9a32cd" stroke-dasharray="5,2" d="M1298.64,-146.03C1329.33,-149.88 1367.52,-154.66 1399.67,-158.69"/>
<polygon fill="#9a32cd" stroke="#9a32cd" points="1298.9,-142.54 1288.54,-144.77 1298.03,-149.48 1298.9,-142.54"/>
<text text-anchor="middle" x="1361.5" y="-159" font-family="Helvetica,sans-Serif" font-size="10.00"> m_field</text>
</g>
<!-- Node5 -->
<g id="node5" class="node">
<title>Node5</title>
<g id="a_node5"><a xlink:title=" ">
<polygon fill="white" stroke="#bfbfbf" points="949,-111 949,-141 1069,-141 1069,-111 949,-111"/>
<text text-anchor="start" x="957" y="-129" font-family="Helvetica,sans-Serif" font-size="10.00">std::shared_ptr&lt; amr</text>
<text text-anchor="middle" x="1009" y="-118" font-family="Helvetica,sans-Serif" font-size="10.00">_wind::FieldInfo &gt;</text>
</a>
</g>
</g>
<!-- Node5&#45;&gt;Node4 -->
<g id="edge4" class="edge">
<title>Node5&#45;&gt;Node4</title>
<path fill="none" stroke="#9a32cd" stroke-dasharray="5,2" d="M1079.27,-125.05C1099.51,-125.17 1121.65,-125.69 1142,-127 1159.19,-128.11 1177.98,-130.18 1194.5,-132.3"/>
<polygon fill="#9a32cd" stroke="#9a32cd" points="1079.2,-121.55 1069.19,-125.02 1079.18,-128.55 1079.2,-121.55"/>
<text text-anchor="middle" x="1114.5" y="-130" font-family="Helvetica,sans-Serif" font-size="10.00"> m_info</text>
</g>
<!-- Node6 -->
<g id="node6" class="node">
<title>Node6</title>
<g id="a_node6"><a xlink:href="structamr__wind_1_1_field_info.html" target="_top" xlink:title="Information common to a field that has multiple states.">
<polygon fill="white" stroke="black" points="716.5,-78.5 716.5,-97.5 829.5,-97.5 829.5,-78.5 716.5,-78.5"/>
<text text-anchor="middle" x="773" y="-85.5" font-family="Helvetica,sans-Serif" font-size="10.00">amr_wind::FieldInfo</text>
</a>
</g>
</g>
<!-- Node6&#45;&gt;Node5 -->
<g id="edge5" class="edge">
<title>Node6&#45;&gt;Node5</title>
<path fill="none" stroke="#9a32cd" stroke-dasharray="5,2" d="M839.83,-90.06C868.11,-91.81 901.39,-95.05 931,-101 943.13,-103.44 956.01,-107.15 967.71,-110.98"/>
<polygon fill="#9a32cd" stroke="#9a32cd" points="839.84,-86.55 829.66,-89.48 839.44,-93.54 839.84,-86.55"/>
<text text-anchor="middle" x="891.5" y="-104" font-family="Helvetica,sans-Serif" font-size="10.00"> ptr</text>
</g>
<!-- Node7&#45;&gt;Node6 -->
<g id="edge6" class="edge">
<title>Node7&#45;&gt;Node6</title>
<path fill="none" stroke="#9a32cd" stroke-dasharray="5,2" d="M564.25,-83.87C614.15,-84.86 673.81,-86.05 716.37,-86.89"/>
<polygon fill="#9a32cd" stroke="#9a32cd" points="564.15,-80.36 554.08,-83.66 564.01,-87.36 564.15,-80.36"/>
<text text-anchor="middle" x="633" y="-89" font-family="Helvetica,sans-Serif" font-size="10.00"> m_fillpatch_op</text>
</g>
<!-- Node8 -->
<g id="node8" class="node">
<title>Node8</title>
<g id="a_node8"><a xlink:title="STL class.">
<polygon fill="white" stroke="#bfbfbf" points="90,-95.5 90,-114.5 208,-114.5 208,-95.5 90,-95.5"/>
<text text-anchor="middle" x="149" y="-102.5" font-family="Helvetica,sans-Serif" font-size="10.00">std::unique_ptr&lt; T &gt;</text>
</a>
</g>
</g>
<!-- Node8&#45;&gt;Node7 -->
<g id="edge8" class="edge">
<title>Node8&#45;&gt;Node7</title>
<path fill="none" stroke="orange" stroke-dasharray="5,2" d="M218.18,-100.08C266.92,-96.56 332.82,-91.8 384.77,-88.05"/>
<polygon fill="orange" stroke="orange" points="217.77,-96.6 208.05,-100.81 218.27,-103.58 217.77,-96.6"/>
<text text-anchor="start" x="234" y="-112" font-family="Helvetica,sans-Serif" font-size="10.00"> &lt; amr_wind::FieldFillPatch</text>
<text text-anchor="middle" x="300.5" y="-101" font-family="Helvetica,sans-Serif" font-size="10.00">OpsBase &gt;</text>
</g>
<!-- Node9 -->
<g id="node9" class="node">
<title>Node9</title>
<g id="a_node9"><a xlink:title=" ">
<polygon fill="white" stroke="#bfbfbf" points="0,-133.5 0,-152.5 29,-152.5 29,-133.5 0,-133.5"/>
<text text-anchor="middle" x="14.5" y="-140.5" font-family="Helvetica,sans-Serif" font-size="10.00">T</text>
</a>
</g>
</g>
<!-- Node9&#45;&gt;Node8 -->
<g id="edge9" class="edge">
<title>Node9&#45;&gt;Node8</title>
<path fill="none" stroke="#9a32cd" stroke-dasharray="5,2" d="M28.19,-124.98C33.32,-119.14 39.74,-113.32 47,-110 60.17,-103.97 75.34,-101.31 89.86,-100.47"/>
<polygon fill="#9a32cd" stroke="#9a32cd" points="25.11,-123.23 21.67,-133.25 30.61,-127.57 25.11,-123.23"/>
<text text-anchor="middle" x="55.5" y="-113" font-family="Helvetica,sans-Serif" font-size="10.00"> ptr</text>
</g>
<!-- Node12 -->
<g id="node12" class="node">
<title>Node12</title>
<g id="a_node12"><a xlink:title="STL class.">
<polygon fill="white" stroke="#bfbfbf" points="241.5,-133.5 241.5,-152.5 359.5,-152.5 359.5,-133.5 241.5,-133.5"/>
<text text-anchor="middle" x="300.5" y="-140.5" font-family="Helvetica,sans-Serif" font-size="10.00">std::shared_ptr&lt; T &gt;</text>
</a>
</g>
</g>
<!-- Node9&#45;&gt;Node12 -->
<g id="edge13" class="edge">
<title>Node9&#45;&gt;Node12</title>
<path fill="none" stroke="#9a32cd" stroke-dasharray="5,2" d="M39.24,-143C83.32,-143 178.98,-143 241.24,-143"/>
<polygon fill="#9a32cd" stroke="#9a32cd" points="39.2,-139.5 29.2,-143 39.2,-146.5 39.2,-139.5"/>
<text text-anchor="middle" x="55.5" y="-146" font-family="Helvetica,sans-Serif" font-size="10.00"> ptr</text>
</g>
<!-- Node15 -->
<g id="node15" class="node">
<title>Node15</title>
<g id="a_node15"><a xlink:title="STL class.">
<polygon fill="white" stroke="#bfbfbf" points="412.5,-332 412.5,-362 526.5,-362 526.5,-332 412.5,-332"/>
<text text-anchor="start" x="420.5" y="-350" font-family="Helvetica,sans-Serif" font-size="10.00">std::unordered_map</text>
<text text-anchor="middle" x="469.5" y="-339" font-family="Helvetica,sans-Serif" font-size="10.00">&lt; K, T &gt;</text>
</a>
</g>
</g>
<!-- Node9&#45;&gt;Node15 -->
<g id="edge20" class="edge">
<title>Node9&#45;&gt;Node15</title>
<path fill="none" stroke="#9a32cd" stroke-dasharray="5,2" d="M24.38,-161.65C35.17,-182.33 55.3,-215.26 82,-234 184.42,-305.9 332.57,-332.5 412.43,-342"/>
<polygon fill="#9a32cd" stroke="#9a32cd" points="27.45,-159.96 19.85,-152.59 21.19,-163.1 27.45,-159.96"/>
<text text-anchor="middle" x="149" y="-301" font-family="Helvetica,sans-Serif" font-size="10.00"> elements</text>
</g>
<!-- Node10 -->
<g id="node10" class="node">
<title>Node10</title>
<g id="a_node10"><a xlink:title="STL class.">
<polygon fill="white" stroke="#bfbfbf" points="437,-199.5 437,-218.5 502,-218.5 502,-199.5 437,-199.5"/>
<text text-anchor="middle" x="469.5" y="-206.5" font-family="Helvetica,sans-Serif" font-size="10.00">std::string</text>
</a>
</g>
</g>
<!-- Node10&#45;&gt;Node4 -->
<g id="edge14" class="edge">
<title>Node10&#45;&gt;Node4</title>
<path fill="none" stroke="#9a32cd" stroke-dasharray="5,2" d="M512.27,-205.2C644.93,-193.14 1056.01,-155.77 1194.46,-143.19"/>
<polygon fill="#9a32cd" stroke="#9a32cd" points="511.76,-201.73 502.12,-206.13 512.4,-208.71 511.76,-201.73"/>
<text text-anchor="middle" x="891.5" y="-177" font-family="Helvetica,sans-Serif" font-size="10.00"> m_name</text>
</g>
<!-- Node10&#45;&gt;Node6 -->
<g id="edge10" class="edge">
<title>Node10&#45;&gt;Node6</title>
<path fill="none" stroke="#9a32cd" stroke-dasharray="5,2" d="M496.02,-194.68C516.11,-183.98 545.11,-169.73 572,-161 624.48,-143.96 642.72,-158.37 694,-138 719.56,-127.84 745.78,-108.95 760.37,-97.52"/>
<polygon fill="#9a32cd" stroke="#9a32cd" points="494.32,-191.63 487.19,-199.47 497.65,-197.78 494.32,-191.63"/>
<text text-anchor="middle" x="633" y="-164" font-family="Helvetica,sans-Serif" font-size="10.00"> m_basename</text>
</g>
<!-- Node14 -->
<g id="node14" class="node">
<title>Node14</title>
<g id="a_node14"><a xlink:title=" ">
<polygon fill="white" stroke="#bfbfbf" points="712,-216 712,-246 834,-246 834,-216 712,-216"/>
<text text-anchor="start" x="720" y="-234" font-family="Helvetica,sans-Serif" font-size="10.00">std::unordered_map</text>
<text text-anchor="middle" x="773" y="-223" font-family="Helvetica,sans-Serif" font-size="10.00">&lt; std::string, size_t &gt;</text>
</a>
</g>
</g>
<!-- Node10&#45;&gt;Node14 -->
<g id="edge17" class="edge">
<title>Node10&#45;&gt;Node14</title>
<path fill="none" stroke="#9a32cd" stroke-dasharray="5,2" d="M512.35,-212.05C564.12,-215.83 652.64,-222.29 711.72,-226.6"/>
<polygon fill="#9a32cd" stroke="#9a32cd" points="512.42,-208.55 502.2,-211.31 511.91,-215.53 512.42,-208.55"/>
<text text-anchor="middle" x="633" y="-228" font-family="Helvetica,sans-Serif" font-size="10.00"> keys</text>
</g>
<!-- Node21 -->
<g id="node21" class="node">
<title>Node21</title>
<g id="a_node21"><a xlink:href="classamr__wind_1_1_a_b_l_boundary_plane.html" target="_top" xlink:title="Interface for ABL boundary plane I/O.">
<polygon fill="white" stroke="black" points="1160,-306.5 1160,-325.5 1323,-325.5 1323,-306.5 1160,-306.5"/>
<text text-anchor="middle" x="1241.5" y="-313.5" font-family="Helvetica,sans-Serif" font-size="10.00">amr_wind::ABLBoundaryPlane</text>
</a>
</g>
</g>
<!-- Node10&#45;&gt;Node21 -->
<g id="edge34" class="edge">
<title>Node10&#45;&gt;Node21</title>
<path fill="none" stroke="#9a32cd" stroke-dasharray="5,2" d="M507.28,-221.8C526.39,-228.05 550.24,-235.23 572,-240 797.64,-289.45 856.88,-289.91 1087,-310 1110.65,-312.06 1136.4,-313.42 1159.95,-314.31"/>
<polygon fill="#9a32cd" stroke="#9a32cd" points="508.35,-218.47 497.75,-218.63 506.14,-225.11 508.35,-218.47"/>
<text text-anchor="middle" x="891.5" y="-332" font-family="Helvetica,sans-Serif" font-size="10.00"> m_title</text>
<text text-anchor="middle" x="891.5" y="-321" font-family="Helvetica,sans-Serif" font-size="10.00">m_out_fmt</text>
<text text-anchor="middle" x="891.5" y="-310" font-family="Helvetica,sans-Serif" font-size="10.00">m_time_file</text>
<text text-anchor="middle" x="891.5" y="-299" font-family="Helvetica,sans-Serif" font-size="10.00">m_filename</text>
</g>
<!-- Node11 -->
<g id="node11" class="node">
<title>Node11</title>
<g id="a_node11"><a xlink:title="STL class.">
<polygon fill="white" stroke="#bfbfbf" points="97,-194 97,-224 201,-224 201,-194 97,-194"/>
<text text-anchor="start" x="105" y="-212" font-family="Helvetica,sans-Serif" font-size="10.00">std::basic_string&lt;</text>
<text text-anchor="middle" x="149" y="-201" font-family="Helvetica,sans-Serif" font-size="10.00"> char &gt;</text>
</a>
</g>
</g>
<!-- Node11&#45;&gt;Node10 -->
<g id="edge11" class="edge">
<title>Node11&#45;&gt;Node10</title>
<path fill="none" stroke="midnightblue" d="M211.24,-209C278.64,-209 384.37,-209 436.81,-209"/>
<polygon fill="midnightblue" stroke="midnightblue" points="211.17,-205.5 201.17,-209 211.17,-212.5 211.17,-205.5"/>
</g>
<!-- Node12&#45;&gt;Node5 -->
<g id="edge12" class="edge">
<title>Node12&#45;&gt;Node5</title>
<path fill="none" stroke="orange" stroke-dasharray="5,2" d="M370.01,-137.18C424.65,-132.84 503.17,-127.29 572,-125 706.66,-120.52 864.85,-122.76 948.74,-124.53"/>
<polygon fill="orange" stroke="orange" points="369.44,-133.71 359.75,-138 370,-140.69 369.44,-133.71"/>
<text text-anchor="middle" x="633" y="-128" font-family="Helvetica,sans-Serif" font-size="10.00"> &lt; amr_wind::FieldInfo &gt;</text>
</g>
<!-- Node13 -->
<g id="node13" class="node">
<title>Node13</title>
<g id="a_node13"><a xlink:href="classamr__wind_1_1_field_repo.html" target="_top" xlink:title="Field Repository.">
<polygon fill="white" stroke="black" points="949.5,-221.5 949.5,-240.5 1068.5,-240.5 1068.5,-221.5 949.5,-221.5"/>
<text text-anchor="middle" x="1009" y="-228.5" font-family="Helvetica,sans-Serif" font-size="10.00">amr_wind::FieldRepo</text>
</a>
</g>
</g>
<!-- Node13&#45;&gt;Node4 -->
<g id="edge15" class="edge">
<title>Node13&#45;&gt;Node4</title>
<path fill="none" stroke="#9a32cd" stroke-dasharray="5,2" d="M1032.79,-215.79C1047.74,-206.29 1067.97,-194.34 1087,-186 1124.27,-169.67 1168.96,-156.68 1200.48,-148.53"/>
<polygon fill="#9a32cd" stroke="#9a32cd" points="1030.73,-212.96 1024.23,-221.33 1034.53,-218.84 1030.73,-212.96"/>
<text text-anchor="middle" x="1114.5" y="-189" font-family="Helvetica,sans-Serif" font-size="10.00"> m_repo</text>
</g>
<!-- Node13&#45;&gt;Node21 -->
<g id="edge35" class="edge">
<title>Node13&#45;&gt;Node21</title>
<path fill="none" stroke="#9a32cd" stroke-dasharray="5,2" d="M1055.83,-243.25C1081.46,-250.51 1113.82,-260.35 1142,-271 1170.31,-281.7 1201.97,-296.74 1221.57,-306.43"/>
<polygon fill="#9a32cd" stroke="#9a32cd" points="1056.58,-239.83 1046.01,-240.5 1054.7,-246.57 1056.58,-239.83"/>
<text text-anchor="middle" x="1114.5" y="-274" font-family="Helvetica,sans-Serif" font-size="10.00"> m_repo</text>
</g>
<!-- Node14&#45;&gt;Node13 -->
<g id="edge16" class="edge">
<title>Node14&#45;&gt;Node13</title>
<path fill="none" stroke="#9a32cd" stroke-dasharray="5,2" d="M844.43,-231C877.86,-231 917.35,-231 949.16,-231"/>
<polygon fill="#9a32cd" stroke="#9a32cd" points="844.26,-227.5 834.26,-231 844.26,-234.5 844.26,-227.5"/>
<text text-anchor="middle" x="891.5" y="-245" font-family="Helvetica,sans-Serif" font-size="10.00"> m_fid_map</text>
<text text-anchor="middle" x="891.5" y="-234" font-family="Helvetica,sans-Serif" font-size="10.00">m_int_fid_map</text>
</g>
<!-- Node15&#45;&gt;Node14 -->
<g id="edge18" class="edge">
<title>Node15&#45;&gt;Node14</title>
<path fill="none" stroke="orange" stroke-dasharray="5,2" d="M519.16,-328.28C578.67,-305.38 678.21,-267.08 732.96,-246.02"/>
<polygon fill="orange" stroke="orange" points="517.68,-325.1 509.61,-331.95 520.2,-331.63 517.68,-325.1"/>
<text text-anchor="middle" x="633" y="-309" font-family="Helvetica,sans-Serif" font-size="10.00"> &lt; std::string, size_t &gt;</text>
</g>
<!-- Node23 -->
<g id="node23" class="node">
<title>Node23</title>
<g id="a_node23"><a xlink:title=" ">
<polygon fill="white" stroke="#bfbfbf" points="716,-366 716,-396 830,-396 830,-366 716,-366"/>
<text text-anchor="start" x="724" y="-384" font-family="Helvetica,sans-Serif" font-size="10.00">std::unordered_map</text>
<text text-anchor="middle" x="773" y="-373" font-family="Helvetica,sans-Serif" font-size="10.00">&lt; int, int &gt;</text>
</a>
</g>
</g>
<!-- Node15&#45;&gt;Node23 -->
<g id="edge32" class="edge">
<title>Node15&#45;&gt;Node23</title>
<path fill="none" stroke="orange" stroke-dasharray="5,2" d="M536.78,-354.92C548.51,-356.29 560.61,-357.7 572,-359 620.59,-364.54 675.85,-370.6 715.95,-374.96"/>
<polygon fill="orange" stroke="orange" points="536.94,-351.41 526.6,-353.71 536.12,-358.36 536.94,-351.41"/>
<text text-anchor="middle" x="633" y="-375" font-family="Helvetica,sans-Serif" font-size="10.00"> &lt; int, int &gt;</text>
</g>
<!-- Node16 -->
<g id="node16" class="node">
<title>Node16</title>
<g id="a_node16"><a xlink:title=" ">
<polygon fill="white" stroke="#bfbfbf" points="134.5,-337.5 134.5,-356.5 163.5,-356.5 163.5,-337.5 134.5,-337.5"/>
<text text-anchor="middle" x="149" y="-344.5" font-family="Helvetica,sans-Serif" font-size="10.00">K</text>
</a>
</g>
</g>
<!-- Node16&#45;&gt;Node15 -->
<g id="edge19" class="edge">
<title>Node16&#45;&gt;Node15</title>
<path fill="none" stroke="#9a32cd" stroke-dasharray="5,2" d="M173.87,-347C224.1,-347 341.85,-347 412.34,-347"/>
<polygon fill="#9a32cd" stroke="#9a32cd" points="173.69,-343.5 163.69,-347 173.69,-350.5 173.69,-343.5"/>
<text text-anchor="middle" x="300.5" y="-350" font-family="Helvetica,sans-Serif" font-size="10.00"> keys</text>
</g>
<!-- Node17 -->
<g id="node17" class="node">
<title>Node17</title>
<g id="a_node17"><a xlink:href="structamr__wind_1_1_field_b_c_no_op.html" target="_top" xlink:title="A no&#45;op BC.">
<polygon fill="white" stroke="black" points="1610,-107.5 1610,-126.5 1744,-126.5 1744,-107.5 1610,-107.5"/>
<text text-anchor="middle" x="1677" y="-114.5" font-family="Helvetica,sans-Serif" font-size="10.00">amr_wind::FieldBCNoOp</text>
</a>
</g>
</g>
<!-- Node17&#45;&gt;Node2 -->
<g id="edge21" class="edge">
<title>Node17&#45;&gt;Node2</title>
<path fill="none" stroke="#9a32cd" stroke-dasharray="5,2" d="M1754.31,-118.05C1784.74,-118.88 1820.06,-120.36 1852,-123 1857.72,-123.47 1863.64,-124.06 1869.58,-124.71"/>
<polygon fill="#9a32cd" stroke="#9a32cd" points="1754.27,-114.55 1744.19,-117.79 1754.09,-121.55 1754.27,-114.55"/>
<text text-anchor="middle" x="1807" y="-126" font-family="Helvetica,sans-Serif" font-size="10.00"> m_op</text>
</g>
<!-- Node18 -->
<g id="node18" class="node">
<title>Node18</title>
<g id="a_node18"><a xlink:href="classamr__wind_1_1_sim_time.html" target="_top" xlink:title="Time manager for simulations.">
<polygon fill="white" stroke="black" points="952,-260.5 952,-279.5 1066,-279.5 1066,-260.5 952,-260.5"/>
<text text-anchor="middle" x="1009" y="-267.5" font-family="Helvetica,sans-Serif" font-size="10.00">amr_wind::SimTime</text>
</a>
</g>
</g>
<!-- Node18&#45;&gt;Node2 -->
<g id="edge22" class="edge">
<title>Node18&#45;&gt;Node2</title>
<path fill="none" stroke="#9a32cd" stroke-dasharray="5,2" d="M1076.51,-270C1122.56,-270 1185.25,-270 1240.5,-270 1240.5,-270 1240.5,-270 1678,-270 1780.79,-270 1882.79,-184.48 1920.62,-149.07"/>
<polygon fill="#9a32cd" stroke="#9a32cd" points="1076.36,-266.5 1066.36,-270 1076.36,-273.5 1076.36,-266.5"/>
<text text-anchor="middle" x="1467" y="-273" font-family="Helvetica,sans-Serif" font-size="10.00"> m_time</text>
</g>
<!-- Node18&#45;&gt;Node19 -->
<g id="edge26" class="edge">
<title>Node18&#45;&gt;Node19</title>
<path fill="none" stroke="#9a32cd" stroke-dasharray="5,2" d="M1049.12,-257.56C1061.17,-254.07 1074.55,-250.54 1087,-248 1283.17,-207.94 1336.66,-225.83 1534,-192 1559.99,-187.54 1588.42,-181.56 1612.97,-176.04"/>
<polygon fill="#9a32cd" stroke="#9a32cd" points="1047.94,-254.26 1039.35,-260.46 1049.94,-260.97 1047.94,-254.26"/>
<text text-anchor="middle" x="1361.5" y="-218" font-family="Helvetica,sans-Serif" font-size="10.00"> m_time</text>
</g>
<!-- Node18&#45;&gt;Node21 -->
<g id="edge33" class="edge">
<title>Node18&#45;&gt;Node21</title>
<path fill="none" stroke="#9a32cd" stroke-dasharray="5,2" d="M1067.81,-281.54C1106.39,-289.24 1156.5,-299.24 1192.8,-306.48"/>
<polygon fill="#9a32cd" stroke="#9a32cd" points="1068.25,-278.06 1057.76,-279.53 1066.88,-284.92 1068.25,-278.06"/>
<text text-anchor="middle" x="1114.5" y="-298" font-family="Helvetica,sans-Serif" font-size="10.00"> m_time</text>
</g>
<!-- Node19&#45;&gt;Node2 -->
<g id="edge23" class="edge">
<title>Node19&#45;&gt;Node2</title>
<path fill="none" stroke="orange" stroke-dasharray="5,2" d="M1754.24,-153.02C1790.88,-149.19 1834.37,-144.64 1869.62,-140.95"/>
<polygon fill="orange" stroke="orange" points="1753.69,-149.56 1744.11,-154.08 1754.42,-156.52 1753.69,-149.56"/>
<text text-anchor="middle" x="1807" y="-154" font-family="Helvetica,sans-Serif" font-size="10.00"> &lt; FieldBCNoOp &gt;</text>
</g>
<!-- Node20&#45;&gt;Node19 -->
<g id="edge27" class="edge">
<title>Node20&#45;&gt;Node19</title>
<path fill="none" stroke="#9a32cd" stroke-dasharray="5,2" d="M1544.16,-164.8C1565.65,-164.18 1588.86,-163.51 1609.72,-162.91"/>
<polygon fill="#9a32cd" stroke="#9a32cd" points="1543.99,-161.31 1534.1,-165.09 1544.2,-168.3 1543.99,-161.31"/>
<text text-anchor="middle" x="1572" y="-167" font-family="Helvetica,sans-Serif" font-size="10.00"> m_op</text>
</g>
<!-- Node21&#45;&gt;Node1 -->
<g id="edge29" class="edge">
<title>Node21&#45;&gt;Node1</title>
<path fill="none" stroke="#9a32cd" stroke-dasharray="5,2" d="M1333.33,-316C1373.93,-316 1422.36,-316 1466,-316 1466,-316 1466,-316 1938,-316 2004.67,-316 2071.56,-261.92 2096.4,-239.53"/>
<polygon fill="#9a32cd" stroke="#9a32cd" points="1333.19,-312.5 1323.19,-316 1333.19,-319.5 1333.19,-312.5"/>
<text text-anchor="middle" x="1677" y="-319" font-family="Helvetica,sans-Serif" font-size="10.00"> m_bndry_plane</text>
</g>
<!-- Node22 -->
<g id="node22" class="node">
<title>Node22</title>
<g id="a_node22"><a xlink:href="classamr__wind_1_1_inlet_data.html" target="_top" xlink:title="Collection of data structures and operations for reading data.">
<polygon fill="white" stroke="black" points="951,-361.5 951,-380.5 1067,-380.5 1067,-361.5 951,-361.5"/>
<text text-anchor="middle" x="1009" y="-368.5" font-family="Helvetica,sans-Serif" font-size="10.00">amr_wind::InletData</text>
</a>
</g>
</g>
<!-- Node22&#45;&gt;Node21 -->
<g id="edge30" class="edge">
<title>Node22&#45;&gt;Node21</title>
<path fill="none" stroke="#9a32cd" stroke-dasharray="5,2" d="M1068.1,-359.44C1091.17,-354.65 1117.91,-348.85 1142,-343 1163.88,-337.68 1188.3,-331 1207.34,-325.61"/>
<polygon fill="#9a32cd" stroke="#9a32cd" points="1067.21,-356.05 1058.12,-361.5 1068.62,-362.91 1067.21,-356.05"/>
<text text-anchor="middle" x="1114.5" y="-358" font-family="Helvetica,sans-Serif" font-size="10.00"> m_in_data</text>
</g>
<!-- Node23&#45;&gt;Node22 -->
<g id="edge31" class="edge">
<title>Node23&#45;&gt;Node22</title>
<path fill="none" stroke="#9a32cd" stroke-dasharray="5,2" d="M840.14,-378.17C875,-376.68 917.35,-374.87 950.78,-373.45"/>
<polygon fill="#9a32cd" stroke="#9a32cd" points="839.89,-374.68 830.05,-378.6 840.19,-381.67 839.89,-374.68"/>
<text text-anchor="middle" x="891.5" y="-380" font-family="Helvetica,sans-Serif" font-size="10.00"> m_components</text>
</g>
</g>
</svg>
        <g id="navigator" transform="translate(0 0)" fill="#404254">
                <rect fill="#f2f5e9" fill-opacity="0.5" stroke="#606060" stroke-width=".5" x="0" y="0" width="60" height="60"/>
                <use id="zoomplus" xlink:href="#zoomPlus" x="17" y="9" onmousedown="handleZoom(evt,'in')"/>
                <use id="zoomminus" xlink:href="#zoomMin" x="42" y="9" onmousedown="handleZoom(evt,'out')"/>
                <use id="reset" xlink:href="#resetDef" x="30" y="36" onmousedown="handleReset()"/>
                <g id="arrowUp" xlink:href="#dirArrow" transform="translate(30 24)" onmousedown="handlePan(0,-1)">
                  <use xlink:href="#rim" fill="#404040">
                        <set attributeName="fill" to="#808080" begin="arrowUp.mouseover" end="arrowUp.mouseout"/>
                  </use>
                  <path fill="none" stroke="white" stroke-width="1.5" d="M0,-3.0v7 M-2.5,-0.5L0,-3.0L2.5,-0.5"/>
                </g>
                <g id="arrowRight" xlink:href="#dirArrow" transform="rotate(90) translate(36 -43)" onmousedown="handlePan(1,0)">
                  <use xlink:href="#rim" fill="#404040">
                        <set attributeName="fill" to="#808080" begin="arrowRight.mouseover" end="arrowRight.mouseout"/>
                  </use>
                  <path fill="none" stroke="white" stroke-width="1.5" d="M0,-3.0v7 M-2.5,-0.5L0,-3.0L2.5,-0.5"/>
                </g>
                <g id="arrowDown" xlink:href="#dirArrow" transform="rotate(180) translate(-30 -48)" onmousedown="handlePan(0,1)">
                  <use xlink:href="#rim" fill="#404040">
                        <set attributeName="fill" to="#808080" begin="arrowDown.mouseover" end="arrowDown.mouseout"/>
                  </use>
                  <path fill="none" stroke="white" stroke-width="1.5" d="M0,-3.0v7 M-2.5,-0.5L0,-3.0L2.5,-0.5"/>
                </g>
                <g id="arrowLeft" xlink:href="#dirArrow" transform="rotate(270) translate(-36 17)" onmousedown="handlePan(-1,0)">
                  <use xlink:href="#rim" fill="#404040">
                        <set attributeName="fill" to="#808080" begin="arrowLeft.mouseover" end="arrowLeft.mouseout"/>
                  </use>
                  <path fill="none" stroke="white" stroke-width="1.5" d="M0,-3.0v7 M-2.5,-0.5L0,-3.0L2.5,-0.5"/>
                </g>
        </g>
        <svg viewBox="0 0 15 15" width="100%" height="30px" preserveAspectRatio="xMaxYMin meet">
         <g id="arrow_out" transform="scale(0.3 0.3)">
          <a xlink:href="classamr__wind_1_1_a_b_l_fill_inflow__coll__graph_org.svg" target="_base">
           <rect id="button" ry="5" rx="5" y="6" x="6" height="38" width="38"
                fill="#f2f5e9" fill-opacity="0.5" stroke="#606060" stroke-width="1.0"/>
           <path id="arrow"
             d="M 11.500037,31.436501 C 11.940474,20.09759 22.043105,11.32322 32.158766,21.979434 L 37.068811,17.246167 C 37.068811,17.246167 37.088388,32 37.088388,32 L 22.160133,31.978069 C 22.160133,31.978069 26.997745,27.140456 26.997745,27.140456 C 18.528582,18.264221 13.291696,25.230495 11.500037,31.436501 z"
             style="fill:#404040;"/>
          </a>
         </g>
        </svg>
</svg>
