<?xml version="1.0" encoding="UTF-8" standalone="no"?>
<!DOCTYPE svg PUBLIC "-//W3C//DTD SVG 1.1//EN"
 "http://www.w3.org/Graphics/SVG/1.1/DTD/svg11.dtd">
<!-- Generated by graphviz version 2.43.0 (0)
 -->
<!-- Title: amr_wind::channel_flow::ChannelFlow Pages: 1 -->
<svg width="500pt" height="362pt"
 viewBox="0.00 0.00 500.00 362.00" xmlns="http://www.w3.org/2000/svg" xmlns:xlink="http://www.w3.org/1999/xlink">
<g id="graph0" class="graph" transform="scale(1 1) rotate(0) translate(4 358)">
<title>amr_wind::channel_flow::ChannelFlow</title>
<polygon fill="white" stroke="transparent" points="-4,4 -4,-358 496,-358 496,4 -4,4"/>
<!-- Node1 -->
<g id="node1" class="node">
<title>Node1</title>
<g id="a_node1"><a xlink:title="Channel Flow physics.">
<polygon fill="#bfbfbf" stroke="black" points="166,-0.5 166,-30.5 300,-30.5 300,-0.5 166,-0.5"/>
<text text-anchor="start" x="174" y="-18.5" font-family="Helvetica,sans-Serif" font-size="10.00">amr_wind::channel_flow</text>
<text text-anchor="middle" x="233" y="-7.5" font-family="Helvetica,sans-Serif" font-size="10.00">::ChannelFlow</text>
</a>
</g>
</g>
<!-- Node2 -->
<g id="node2" class="node">
<title>Node2</title>
<g id="a_node2"><a xlink:title=" ">
<polygon fill="white" stroke="#bfbfbf" points="0,-78.5 0,-108.5 108,-108.5 108,-78.5 0,-78.5"/>
<text text-anchor="start" x="8" y="-96.5" font-family="Helvetica,sans-Serif" font-size="10.00">Physics::Register&lt;</text>
<text text-anchor="middle" x="54" y="-85.5" font-family="Helvetica,sans-Serif" font-size="10.00"> ChannelFlow &gt;</text>
</a>
</g>
</g>
<!-- Node2&#45;&gt;Node1 -->
<g id="edge1" class="edge">
<title>Node2&#45;&gt;Node1</title>
<path fill="none" stroke="midnightblue" d="M96.69,-74.37C128.34,-60.94 170.85,-42.89 199.93,-30.54"/>
<polygon fill="midnightblue" stroke="midnightblue" points="95.09,-71.25 87.25,-78.38 97.82,-77.7 95.09,-71.25"/>
</g>
<!-- Node3 -->
<g id="node3" class="node">
<title>Node3</title>
<g id="a_node3"><a xlink:href="classamr__wind_1_1_sim_time.html" target="_top" xlink:title="Time manager for simulations.">
<polygon fill="white" stroke="black" points="126,-84 126,-103 240,-103 240,-84 126,-84"/>
<text text-anchor="middle" x="183" y="-91" font-family="Helvetica,sans-Serif" font-size="10.00">amr_wind::SimTime</text>
</a>
</g>
</g>
<!-- Node3&#45;&gt;Node1 -->
<g id="edge2" class="edge">
<title>Node3&#45;&gt;Node1</title>
<path fill="none" stroke="#9a32cd" stroke-dasharray="5,2" d="M194.27,-75.37C203.18,-61.83 215.45,-43.17 223.78,-30.52"/>
<polygon fill="#9a32cd" stroke="#9a32cd" points="191.31,-73.5 188.74,-83.78 197.16,-77.35 191.31,-73.5"/>
<text text-anchor="middle" x="231.5" y="-52" font-family="Helvetica,sans-Serif" font-size="10.00"> m_time</text>
</g>
<!-- Node4 -->
<g id="node4" class="node">
<title>Node4</title>
<g id="a_node4"><a xlink:title="STL class.">
<polygon fill="white" stroke="#bfbfbf" points="348.5,-251 348.5,-270 413.5,-270 413.5,-251 348.5,-251"/>
<text text-anchor="middle" x="381" y="-258" font-family="Helvetica,sans-Serif" font-size="10.00">std::string</text>
</a>
</g>
</g>
<!-- Node4&#45;&gt;Node1 -->
<g id="edge3" class="edge">
<title>Node4&#45;&gt;Node1</title>
<path fill="none" stroke="#9a32cd" stroke-dasharray="5,2" d="M388.09,-240.76C400.09,-205.62 420.05,-128.79 387,-78 367.92,-48.68 332.27,-33.34 300.06,-25.31"/>
<polygon fill="#9a32cd" stroke="#9a32cd" points="384.64,-240.03 384.55,-250.62 391.22,-242.39 384.64,-240.03"/>
<text text-anchor="middle" x="448.5" y="-135.5" font-family="Helvetica,sans-Serif" font-size="10.00"> m_output_fname</text>
</g>
<!-- Node7 -->
<g id="node7" class="node">
<title>Node7</title>
<g id="a_node7"><a xlink:title=" ">
<polygon fill="white" stroke="#bfbfbf" points="253,-167.5 253,-197.5 375,-197.5 375,-167.5 253,-167.5"/>
<text text-anchor="start" x="261" y="-185.5" font-family="Helvetica,sans-Serif" font-size="10.00">std::unordered_map</text>
<text text-anchor="middle" x="314" y="-174.5" font-family="Helvetica,sans-Serif" font-size="10.00">&lt; std::string, size_t &gt;</text>
</a>
</g>
</g>
<!-- Node4&#45;&gt;Node7 -->
<g id="edge7" class="edge">
<title>Node4&#45;&gt;Node7</title>
<path fill="none" stroke="#9a32cd" stroke-dasharray="5,2" d="M368.73,-242.77C362.47,-234.51 354.59,-224.51 347,-216 341.43,-209.76 334.94,-203.22 329.2,-197.67"/>
<polygon fill="#9a32cd" stroke="#9a32cd" points="366.01,-244.98 374.79,-250.9 371.62,-240.79 366.01,-244.98"/>
<text text-anchor="middle" x="369" y="-219" font-family="Helvetica,sans-Serif" font-size="10.00"> keys</text>
</g>
<!-- Node5 -->
<g id="node5" class="node">
<title>Node5</title>
<g id="a_node5"><a xlink:title="STL class.">
<polygon fill="white" stroke="#bfbfbf" points="329,-323.5 329,-353.5 433,-353.5 433,-323.5 329,-323.5"/>
<text text-anchor="start" x="337" y="-341.5" font-family="Helvetica,sans-Serif" font-size="10.00">std::basic_string&lt;</text>
<text text-anchor="middle" x="381" y="-330.5" font-family="Helvetica,sans-Serif" font-size="10.00"> char &gt;</text>
</a>
</g>
</g>
<!-- Node5&#45;&gt;Node4 -->
<g id="edge4" class="edge">
<title>Node5&#45;&gt;Node4</title>
<path fill="none" stroke="midnightblue" d="M381,-313.17C381,-298.4 381,-280.45 381,-270.06"/>
<polygon fill="midnightblue" stroke="midnightblue" points="377.5,-313.2 381,-323.2 384.5,-313.21 377.5,-313.2"/>
</g>
<!-- Node6 -->
<g id="node6" class="node">
<title>Node6</title>
<g id="a_node6"><a xlink:href="classamr__wind_1_1_field_repo.html" target="_top" xlink:title="Field Repository.">
<polygon fill="white" stroke="black" points="258.5,-84 258.5,-103 377.5,-103 377.5,-84 258.5,-84"/>
<text text-anchor="middle" x="318" y="-91" font-family="Helvetica,sans-Serif" font-size="10.00">amr_wind::FieldRepo</text>
</a>
</g>
</g>
<!-- Node6&#45;&gt;Node1 -->
<g id="edge5" class="edge">
<title>Node6&#45;&gt;Node1</title>
<path fill="none" stroke="#9a32cd" stroke-dasharray="5,2" d="M300.56,-76.9C285.31,-63.27 263.38,-43.66 248.68,-30.52"/>
<polygon fill="#9a32cd" stroke="#9a32cd" points="298.46,-79.73 308.25,-83.78 303.13,-74.51 298.46,-79.73"/>
<text text-anchor="middle" x="301" y="-52" font-family="Helvetica,sans-Serif" font-size="10.00"> m_repo</text>
</g>
<!-- Node7&#45;&gt;Node6 -->
<g id="edge6" class="edge">
<title>Node7&#45;&gt;Node6</title>
<path fill="none" stroke="#9a32cd" stroke-dasharray="5,2" d="M314.07,-156.93C314.19,-147.56 314.46,-136.78 315,-127 315.45,-118.85 316.34,-109.59 317.04,-103.04"/>
<polygon fill="#9a32cd" stroke="#9a32cd" points="310.56,-157.11 313.98,-167.15 317.56,-157.18 310.56,-157.11"/>
<text text-anchor="middle" x="351.5" y="-141" font-family="Helvetica,sans-Serif" font-size="10.00"> m_fid_map</text>
<text text-anchor="middle" x="351.5" y="-130" font-family="Helvetica,sans-Serif" font-size="10.00">m_int_fid_map</text>
</g>
<!-- Node8 -->
<g id="node8" class="node">
<title>Node8</title>
<g id="a_node8"><a xlink:title="STL class.">
<polygon fill="white" stroke="#bfbfbf" points="180,-245.5 180,-275.5 294,-275.5 294,-245.5 180,-245.5"/>
<text text-anchor="start" x="188" y="-263.5" font-family="Helvetica,sans-Serif" font-size="10.00">std::unordered_map</text>
<text text-anchor="middle" x="237" y="-252.5" font-family="Helvetica,sans-Serif" font-size="10.00">&lt; K, T &gt;</text>
</a>
</g>
</g>
<!-- Node8&#45;&gt;Node7 -->
<g id="edge8" class="edge">
<title>Node8&#45;&gt;Node7</title>
<path fill="none" stroke="orange" stroke-dasharray="5,2" d="M230.04,-235.31C229.45,-228.59 230.23,-221.6 234,-216 239.27,-208.17 246.8,-202.22 255.14,-197.7"/>
<polygon fill="orange" stroke="orange" points="226.64,-236.19 231.85,-245.42 233.53,-234.96 226.64,-236.19"/>
<text text-anchor="middle" x="288.5" y="-219" font-family="Helvetica,sans-Serif" font-size="10.00"> &lt; std::string, size_t &gt;</text>
</g>
<!-- Node9 -->
<g id="node9" class="node">
<title>Node9</title>
<g id="a_node9"><a xlink:title=" ">
<polygon fill="white" stroke="#bfbfbf" points="209.5,-329 209.5,-348 238.5,-348 238.5,-329 209.5,-329"/>
<text text-anchor="middle" x="224" y="-336" font-family="Helvetica,sans-Serif" font-size="10.00">K</text>
</a>
</g>
</g>
<!-- Node9&#45;&gt;Node8 -->
<g id="edge9" class="edge">
<title>Node9&#45;&gt;Node8</title>
<path fill="none" stroke="#9a32cd" stroke-dasharray="5,2" d="M223.08,-318.62C223.06,-310.93 223.48,-301.98 225,-294 226.17,-287.86 228.37,-281.34 230.57,-275.77"/>
<polygon fill="#9a32cd" stroke="#9a32cd" points="219.59,-318.84 223.36,-328.75 226.59,-318.65 219.59,-318.84"/>
<text text-anchor="middle" x="238" y="-297" font-family="Helvetica,sans-Serif" font-size="10.00"> keys</text>
</g>
<!-- Node10 -->
<g id="node10" class="node">
<title>Node10</title>
<g id="a_node10"><a xlink:title=" ">
<polygon fill="white" stroke="#bfbfbf" points="258.5,-329 258.5,-348 287.5,-348 287.5,-329 258.5,-329"/>
<text text-anchor="middle" x="273" y="-336" font-family="Helvetica,sans-Serif" font-size="10.00">T</text>
</a>
</g>
</g>
<!-- Node10&#45;&gt;Node8 -->
<g id="edge10" class="edge">
<title>Node10&#45;&gt;Node8</title>
<path fill="none" stroke="#9a32cd" stroke-dasharray="5,2" d="M264.51,-319.58C258.13,-306.11 249.52,-287.93 243.64,-275.52"/>
<polygon fill="#9a32cd" stroke="#9a32cd" points="261.43,-321.24 268.87,-328.78 267.75,-318.25 261.43,-321.24"/>
<text text-anchor="middle" x="282.5" y="-297" font-family="Helvetica,sans-Serif" font-size="10.00"> elements</text>
</g>
</g>
</svg>
