<?xml version="1.0" encoding="UTF-8" standalone="no"?>
<!DOCTYPE svg PUBLIC "-//W3C//DTD SVG 1.1//EN"
 "http://www.w3.org/Graphics/SVG/1.1/DTD/svg11.dtd">
<!-- Generated by graphviz version 2.43.0 (0)
 -->
<!-- Title: amr_wind::pde::ICNSDiffScalarSegregatedOp Pages: 1 -->
<svg width="756pt" height="640pt"
 viewBox="0.00 0.00 755.50 640.00" xmlns="http://www.w3.org/2000/svg" xmlns:xlink="http://www.w3.org/1999/xlink">
<g id="graph0" class="graph" transform="scale(1 1) rotate(0) translate(4 636)">
<title>amr_wind::pde::ICNSDiffScalarSegregatedOp</title>
<polygon fill="white" stroke="transparent" points="-4,4 -4,-636 751.5,-636 751.5,4 -4,4"/>
<!-- Node1 -->
<g id="node1" class="node">
<title>Node1</title>
<g id="a_node1"><a xlink:title=" ">
<polygon fill="#bfbfbf" stroke="black" points="39,-0.5 39,-30.5 204,-30.5 204,-0.5 39,-0.5"/>
<text text-anchor="start" x="47" y="-18.5" font-family="Helvetica,sans-Serif" font-size="10.00">amr_wind::pde::ICNSDiffScalar</text>
<text text-anchor="middle" x="121.5" y="-7.5" font-family="Helvetica,sans-Serif" font-size="10.00">SegregatedOp</text>
</a>
</g>
</g>
<!-- Node2 -->
<g id="node2" class="node">
<title>Node2</title>
<g id="a_node2"><a xlink:href="classamr__wind_1_1_field.html" target="_top" xlink:title="Computational field.">
<polygon fill="white" stroke="black" points="142.5,-189.5 142.5,-208.5 236.5,-208.5 236.5,-189.5 142.5,-189.5"/>
<text text-anchor="middle" x="189.5" y="-196.5" font-family="Helvetica,sans-Serif" font-size="10.00">amr_wind::Field</text>
</a>
</g>
</g>
<!-- Node2&#45;&gt;Node1 -->
<g id="edge1" class="edge">
<title>Node2&#45;&gt;Node1</title>
<path fill="none" stroke="#9a32cd" stroke-dasharray="5,2" d="M176.42,-181.04C162.48,-161.98 141.01,-129.56 130.5,-98 122.94,-75.31 121.43,-47.3 121.28,-30.73"/>
<polygon fill="#9a32cd" stroke="#9a32cd" points="173.78,-183.35 182.57,-189.26 179.38,-179.16 173.78,-183.35"/>
<text text-anchor="middle" x="158" y="-85.5" font-family="Helvetica,sans-Serif" font-size="10.00"> m_density</text>
</g>
<!-- Node17 -->
<g id="node17" class="node">
<title>Node17</title>
<g id="a_node17"><a xlink:href="structamr__wind_1_1pde_1_1_p_d_e_fields.html" target="_top" xlink:title="Collection of fields related to a PDE.">
<polygon fill="white" stroke="black" points="195,-78.5 195,-97.5 338,-97.5 338,-78.5 195,-78.5"/>
<text text-anchor="middle" x="266.5" y="-85.5" font-family="Helvetica,sans-Serif" font-size="10.00">amr_wind::pde::PDEFields</text>
</a>
</g>
</g>
<!-- Node2&#45;&gt;Node17 -->
<g id="edge22" class="edge">
<title>Node2&#45;&gt;Node17</title>
<path fill="none" stroke="#9a32cd" stroke-dasharray="5,2" d="M188.74,-179.11C189.01,-161.04 192.1,-133.95 206.5,-116 213.29,-107.54 223.3,-101.64 233.21,-97.56"/>
<polygon fill="#9a32cd" stroke="#9a32cd" points="185.25,-179.32 188.88,-189.27 192.25,-179.22 185.25,-179.32"/>
<text text-anchor="middle" x="232.5" y="-163" font-family="Helvetica,sans-Serif" font-size="10.00"> src_term</text>
<text text-anchor="middle" x="232.5" y="-152" font-family="Helvetica,sans-Serif" font-size="10.00">field</text>
<text text-anchor="middle" x="232.5" y="-141" font-family="Helvetica,sans-Serif" font-size="10.00">diff_term</text>
<text text-anchor="middle" x="232.5" y="-130" font-family="Helvetica,sans-Serif" font-size="10.00">mueff</text>
<text text-anchor="middle" x="232.5" y="-119" font-family="Helvetica,sans-Serif" font-size="10.00">conv_term</text>
</g>
<!-- Node3 -->
<g id="node3" class="node">
<title>Node3</title>
<g id="a_node3"><a xlink:title=" ">
<polygon fill="white" stroke="#bfbfbf" points="390.5,-256.5 390.5,-286.5 510.5,-286.5 510.5,-256.5 390.5,-256.5"/>
<text text-anchor="start" x="398.5" y="-274.5" font-family="Helvetica,sans-Serif" font-size="10.00">std::shared_ptr&lt; amr</text>
<text text-anchor="middle" x="450.5" y="-263.5" font-family="Helvetica,sans-Serif" font-size="10.00">_wind::FieldInfo &gt;</text>
</a>
</g>
</g>
<!-- Node3&#45;&gt;Node2 -->
<g id="edge2" class="edge">
<title>Node3&#45;&gt;Node2</title>
<path fill="none" stroke="#9a32cd" stroke-dasharray="5,2" d="M388.72,-253.81C336.09,-239.6 262.6,-219.75 221.17,-208.55"/>
<polygon fill="#9a32cd" stroke="#9a32cd" points="388.06,-257.26 398.62,-256.49 389.88,-250.5 388.06,-257.26"/>
<text text-anchor="middle" x="346" y="-230" font-family="Helvetica,sans-Serif" font-size="10.00"> m_info</text>
</g>
<!-- Node4 -->
<g id="node4" class="node">
<title>Node4</title>
<g id="a_node4"><a xlink:href="structamr__wind_1_1_field_info.html" target="_top" xlink:title="Information common to a field that has multiple states.">
<polygon fill="white" stroke="black" points="394,-351 394,-370 507,-370 507,-351 394,-351"/>
<text text-anchor="middle" x="450.5" y="-358" font-family="Helvetica,sans-Serif" font-size="10.00">amr_wind::FieldInfo</text>
</a>
</g>
</g>
<!-- Node4&#45;&gt;Node3 -->
<g id="edge3" class="edge">
<title>Node4&#45;&gt;Node3</title>
<path fill="none" stroke="#9a32cd" stroke-dasharray="5,2" d="M450.5,-340.41C450.5,-324.15 450.5,-301.16 450.5,-286.55"/>
<polygon fill="#9a32cd" stroke="#9a32cd" points="447,-340.84 450.5,-350.84 454,-340.84 447,-340.84"/>
<text text-anchor="middle" x="459" y="-313.5" font-family="Helvetica,sans-Serif" font-size="10.00"> ptr</text>
</g>
<!-- Node5 -->
<g id="node5" class="node">
<title>Node5</title>
<g id="a_node5"><a xlink:title=" ">
<polygon fill="white" stroke="#bfbfbf" points="406,-445.5 406,-475.5 575,-475.5 575,-445.5 406,-445.5"/>
<text text-anchor="start" x="414" y="-463.5" font-family="Helvetica,sans-Serif" font-size="10.00">std::unique_ptr&lt; amr</text>
<text text-anchor="middle" x="490.5" y="-452.5" font-family="Helvetica,sans-Serif" font-size="10.00">_wind::FieldFillPatchOpsBase &gt;</text>
</a>
</g>
</g>
<!-- Node5&#45;&gt;Node4 -->
<g id="edge4" class="edge">
<title>Node5&#45;&gt;Node4</title>
<path fill="none" stroke="#9a32cd" stroke-dasharray="5,2" d="M483.64,-435.66C479.73,-423.06 474.43,-407.47 468.5,-394 464.81,-385.62 459.67,-376.54 455.83,-370.11"/>
<polygon fill="#9a32cd" stroke="#9a32cd" points="480.34,-436.86 486.58,-445.42 487.05,-434.84 480.34,-436.86"/>
<text text-anchor="middle" x="517" y="-408" font-family="Helvetica,sans-Serif" font-size="10.00"> m_fillpatch_op</text>
</g>
<!-- Node6 -->
<g id="node6" class="node">
<title>Node6</title>
<g id="a_node6"><a xlink:href="classamr__wind_1_1_field_fill_patch_ops_base.html" target="_top" xlink:title="Abstract interface for classes that handle fill patch and physical boundary condition operations for ...">
<polygon fill="white" stroke="black" points="384.5,-534.5 384.5,-564.5 518.5,-564.5 518.5,-534.5 384.5,-534.5"/>
<text text-anchor="start" x="392.5" y="-552.5" font-family="Helvetica,sans-Serif" font-size="10.00">amr_wind::FieldFillPatch</text>
<text text-anchor="middle" x="451.5" y="-541.5" font-family="Helvetica,sans-Serif" font-size="10.00">OpsBase</text>
</a>
</g>
</g>
<!-- Node6&#45;&gt;Node5 -->
<g id="edge5" class="edge">
<title>Node6&#45;&gt;Node5</title>
<path fill="none" stroke="#9a32cd" stroke-dasharray="5,2" d="M447.75,-524.37C447.27,-514.53 448.11,-503.3 452.5,-494 455.91,-486.78 461.77,-480.55 467.89,-475.53"/>
<polygon fill="#9a32cd" stroke="#9a32cd" points="444.27,-524.72 448.69,-534.35 451.24,-524.06 444.27,-524.72"/>
<text text-anchor="middle" x="461" y="-502.5" font-family="Helvetica,sans-Serif" font-size="10.00"> ptr</text>
</g>
<!-- Node7 -->
<g id="node7" class="node">
<title>Node7</title>
<g id="a_node7"><a xlink:title="STL class.">
<polygon fill="white" stroke="#bfbfbf" points="536.5,-540 536.5,-559 654.5,-559 654.5,-540 536.5,-540"/>
<text text-anchor="middle" x="595.5" y="-547" font-family="Helvetica,sans-Serif" font-size="10.00">std::unique_ptr&lt; T &gt;</text>
</a>
</g>
</g>
<!-- Node7&#45;&gt;Node5 -->
<g id="edge6" class="edge">
<title>Node7&#45;&gt;Node5</title>
<path fill="none" stroke="orange" stroke-dasharray="5,2" d="M549.6,-537.4C522.02,-530.27 491.49,-521.37 487.5,-516 479.02,-504.59 481.51,-487.84 485.02,-475.93"/>
<polygon fill="orange" stroke="orange" points="549.02,-540.87 559.58,-539.94 550.75,-534.08 549.02,-540.87"/>
<text text-anchor="start" x="487.5" y="-508" font-family="Helvetica,sans-Serif" font-size="10.00"> &lt; amr_wind::FieldFillPatch</text>
<text text-anchor="middle" x="554" y="-497" font-family="Helvetica,sans-Serif" font-size="10.00">OpsBase &gt;</text>
</g>
<!-- Node8 -->
<g id="node8" class="node">
<title>Node8</title>
<g id="a_node8"><a xlink:title=" ">
<polygon fill="white" stroke="#bfbfbf" points="581,-612.5 581,-631.5 610,-631.5 610,-612.5 581,-612.5"/>
<text text-anchor="middle" x="595.5" y="-619.5" font-family="Helvetica,sans-Serif" font-size="10.00">T</text>
</a>
</g>
</g>
<!-- Node8&#45;&gt;Node7 -->
<g id="edge7" class="edge">
<title>Node8&#45;&gt;Node7</title>
<path fill="none" stroke="#9a32cd" stroke-dasharray="5,2" d="M595.5,-601.94C595.5,-588.03 595.5,-569.82 595.5,-559.22"/>
<polygon fill="#9a32cd" stroke="#9a32cd" points="592,-602.36 595.5,-612.36 599,-602.36 592,-602.36"/>
<text text-anchor="middle" x="604" y="-586" font-family="Helvetica,sans-Serif" font-size="10.00"> ptr</text>
</g>
<!-- Node11 -->
<g id="node11" class="node">
<title>Node11</title>
<g id="a_node11"><a xlink:title="STL class.">
<polygon fill="white" stroke="#bfbfbf" points="629.5,-495.5 629.5,-514.5 747.5,-514.5 747.5,-495.5 629.5,-495.5"/>
<text text-anchor="middle" x="688.5" y="-502.5" font-family="Helvetica,sans-Serif" font-size="10.00">std::shared_ptr&lt; T &gt;</text>
</a>
</g>
</g>
<!-- Node8&#45;&gt;Node11 -->
<g id="edge11" class="edge">
<title>Node8&#45;&gt;Node11</title>
<path fill="none" stroke="#9a32cd" stroke-dasharray="5,2" d="M617.91,-606.75C632.47,-596.57 651,-581.74 663.5,-565 675.35,-549.13 682.81,-526.81 686.25,-514.67"/>
<polygon fill="#9a32cd" stroke="#9a32cd" points="615.77,-603.97 609.45,-612.47 619.69,-609.77 615.77,-603.97"/>
<text text-anchor="middle" x="654" y="-586" font-family="Helvetica,sans-Serif" font-size="10.00"> ptr</text>
</g>
<!-- Node14 -->
<g id="node14" class="node">
<title>Node14</title>
<g id="a_node14"><a xlink:title="STL class.">
<polygon fill="white" stroke="#bfbfbf" points="273.5,-445.5 273.5,-475.5 387.5,-475.5 387.5,-445.5 273.5,-445.5"/>
<text text-anchor="start" x="281.5" y="-463.5" font-family="Helvetica,sans-Serif" font-size="10.00">std::unordered_map</text>
<text text-anchor="middle" x="330.5" y="-452.5" font-family="Helvetica,sans-Serif" font-size="10.00">&lt; K, T &gt;</text>
</a>
</g>
</g>
<!-- Node8&#45;&gt;Node14 -->
<g id="edge18" class="edge">
<title>Node8&#45;&gt;Node14</title>
<path fill="none" stroke="#9a32cd" stroke-dasharray="5,2" d="M570.65,-620.53C502.78,-618.66 316.8,-609.49 279.5,-565 256.21,-537.22 291.35,-496.98 313.93,-475.79"/>
<polygon fill="#9a32cd" stroke="#9a32cd" points="570.76,-624.03 580.85,-620.78 570.94,-617.03 570.76,-624.03"/>
<text text-anchor="middle" x="304" y="-547" font-family="Helvetica,sans-Serif" font-size="10.00"> elements</text>
</g>
<!-- Node9 -->
<g id="node9" class="node">
<title>Node9</title>
<g id="a_node9"><a xlink:title="STL class.">
<polygon fill="white" stroke="#bfbfbf" points="150,-451 150,-470 215,-470 215,-451 150,-451"/>
<text text-anchor="middle" x="182.5" y="-458" font-family="Helvetica,sans-Serif" font-size="10.00">std::string</text>
</a>
</g>
</g>
<!-- Node9&#45;&gt;Node2 -->
<g id="edge12" class="edge">
<title>Node9&#45;&gt;Node2</title>
<path fill="none" stroke="#9a32cd" stroke-dasharray="5,2" d="M183,-440.79C184.4,-389.05 188.27,-245.44 189.27,-208.67"/>
<polygon fill="#9a32cd" stroke="#9a32cd" points="179.5,-440.78 182.73,-450.87 186.5,-440.96 179.5,-440.78"/>
<text text-anchor="middle" x="210.5" y="-313.5" font-family="Helvetica,sans-Serif" font-size="10.00"> m_name</text>
</g>
<!-- Node9&#45;&gt;Node4 -->
<g id="edge8" class="edge">
<title>Node9&#45;&gt;Node4</title>
<path fill="none" stroke="#9a32cd" stroke-dasharray="5,2" d="M214.13,-446.5C223.99,-441.42 234.4,-434.89 242.5,-427 254.62,-415.19 247.62,-403.69 261.5,-394 272.32,-386.45 342.19,-375.79 393.84,-368.77"/>
<polygon fill="#9a32cd" stroke="#9a32cd" points="212.43,-443.44 204.93,-450.93 215.46,-449.75 212.43,-443.44"/>
<text text-anchor="middle" x="296.5" y="-408" font-family="Helvetica,sans-Serif" font-size="10.00"> m_basename</text>
</g>
<!-- Node13 -->
<g id="node13" class="node">
<title>Node13</title>
<g id="a_node13"><a xlink:title=" ">
<polygon fill="white" stroke="#bfbfbf" points="210.5,-345.5 210.5,-375.5 332.5,-375.5 332.5,-345.5 210.5,-345.5"/>
<text text-anchor="start" x="218.5" y="-363.5" font-family="Helvetica,sans-Serif" font-size="10.00">std::unordered_map</text>
<text text-anchor="middle" x="271.5" y="-352.5" font-family="Helvetica,sans-Serif" font-size="10.00">&lt; std::string, size_t &gt;</text>
</a>
</g>
</g>
<!-- Node9&#45;&gt;Node13 -->
<g id="edge15" class="edge">
<title>Node9&#45;&gt;Node13</title>
<path fill="none" stroke="#9a32cd" stroke-dasharray="5,2" d="M188.74,-441.32C194.31,-427.15 203.59,-407.64 216.5,-394 223.36,-386.75 232.2,-380.58 240.77,-375.63"/>
<polygon fill="#9a32cd" stroke="#9a32cd" points="185.37,-440.34 185.21,-450.93 191.94,-442.76 185.37,-440.34"/>
<text text-anchor="middle" x="229.5" y="-408" font-family="Helvetica,sans-Serif" font-size="10.00"> keys</text>
</g>
<!-- Node16 -->
<g id="node16" class="node">
<title>Node16</title>
<g id="a_node16"><a xlink:href="structamr__wind_1_1_m_l_m_g_options.html" target="_top" xlink:title="Interface to control the behavior of AMReX LinearSolvers.">
<polygon fill="white" stroke="black" points="0,-306.5 0,-325.5 139,-325.5 139,-306.5 0,-306.5"/>
<text text-anchor="middle" x="69.5" y="-313.5" font-family="Helvetica,sans-Serif" font-size="10.00">amr_wind::MLMGOptions</text>
</a>
</g>
</g>
<!-- Node9&#45;&gt;Node16 -->
<g id="edge20" class="edge">
<title>Node9&#45;&gt;Node16</title>
<path fill="none" stroke="#9a32cd" stroke-dasharray="5,2" d="M139.83,-458.93C115.39,-456.13 86.5,-448.1 70.5,-427 47.19,-396.26 60.04,-345.54 66.5,-325.51"/>
<polygon fill="#9a32cd" stroke="#9a32cd" points="139.7,-462.43 149.97,-459.83 140.32,-455.46 139.7,-462.43"/>
<text text-anchor="middle" x="119.5" y="-419" font-family="Helvetica,sans-Serif" font-size="10.00"> hypre_namespace</text>
<text text-anchor="middle" x="119.5" y="-408" font-family="Helvetica,sans-Serif" font-size="10.00">bottom_solver_type</text>
<text text-anchor="middle" x="119.5" y="-397" font-family="Helvetica,sans-Serif" font-size="10.00">hypre_interface</text>
</g>
<!-- Node10 -->
<g id="node10" class="node">
<title>Node10</title>
<g id="a_node10"><a xlink:title="STL class.">
<polygon fill="white" stroke="#bfbfbf" points="129.5,-534.5 129.5,-564.5 233.5,-564.5 233.5,-534.5 129.5,-534.5"/>
<text text-anchor="start" x="137.5" y="-552.5" font-family="Helvetica,sans-Serif" font-size="10.00">std::basic_string&lt;</text>
<text text-anchor="middle" x="181.5" y="-541.5" font-family="Helvetica,sans-Serif" font-size="10.00"> char &gt;</text>
</a>
</g>
</g>
<!-- Node10&#45;&gt;Node9 -->
<g id="edge9" class="edge">
<title>Node10&#45;&gt;Node9</title>
<path fill="none" stroke="midnightblue" d="M181.78,-524.06C181.99,-506.13 182.26,-482.8 182.4,-470.31"/>
<polygon fill="midnightblue" stroke="midnightblue" points="178.28,-524.09 181.67,-534.13 185.28,-524.17 178.28,-524.09"/>
</g>
<!-- Node11&#45;&gt;Node3 -->
<g id="edge10" class="edge">
<title>Node11&#45;&gt;Node3</title>
<path fill="none" stroke="orange" stroke-dasharray="5,2" d="M672.5,-488.44C628.66,-445.79 507.06,-327.52 465.02,-286.62"/>
<polygon fill="orange" stroke="orange" points="670.14,-491.02 679.75,-495.49 675.02,-486 670.14,-491.02"/>
<text text-anchor="middle" x="668.5" y="-408" font-family="Helvetica,sans-Serif" font-size="10.00"> &lt; amr_wind::FieldInfo &gt;</text>
</g>
<!-- Node12 -->
<g id="node12" class="node">
<title>Node12</title>
<g id="a_node12"><a xlink:href="classamr__wind_1_1_field_repo.html" target="_top" xlink:title="Field Repository.">
<polygon fill="white" stroke="black" points="212,-262 212,-281 331,-281 331,-262 212,-262"/>
<text text-anchor="middle" x="271.5" y="-269" font-family="Helvetica,sans-Serif" font-size="10.00">amr_wind::FieldRepo</text>
</a>
</g>
</g>
<!-- Node12&#45;&gt;Node2 -->
<g id="edge13" class="edge">
<title>Node12&#45;&gt;Node2</title>
<path fill="none" stroke="#9a32cd" stroke-dasharray="5,2" d="M245.22,-256.98C236.24,-251.7 226.47,-245.19 218.5,-238 208.77,-229.21 200,-216.8 194.72,-208.58"/>
<polygon fill="#9a32cd" stroke="#9a32cd" points="243.74,-260.16 254.18,-262 247.16,-254.05 243.74,-260.16"/>
<text text-anchor="middle" x="238.5" y="-230" font-family="Helvetica,sans-Serif" font-size="10.00"> m_repo</text>
</g>
<!-- Node12&#45;&gt;Node17 -->
<g id="edge23" class="edge">
<title>Node12&#45;&gt;Node17</title>
<path fill="none" stroke="#9a32cd" stroke-dasharray="5,2" d="M270.97,-251.32C269.9,-212.38 267.5,-125.39 266.74,-97.67"/>
<polygon fill="#9a32cd" stroke="#9a32cd" points="267.48,-251.85 271.26,-261.75 274.48,-251.65 267.48,-251.85"/>
<text text-anchor="middle" x="282" y="-196.5" font-family="Helvetica,sans-Serif" font-size="10.00"> repo</text>
</g>
<!-- Node13&#45;&gt;Node12 -->
<g id="edge14" class="edge">
<title>Node13&#45;&gt;Node12</title>
<path fill="none" stroke="#9a32cd" stroke-dasharray="5,2" d="M271.5,-335.06C271.5,-317.13 271.5,-293.8 271.5,-281.31"/>
<polygon fill="#9a32cd" stroke="#9a32cd" points="268,-335.13 271.5,-345.13 275,-335.13 268,-335.13"/>
<text text-anchor="middle" x="308" y="-319" font-family="Helvetica,sans-Serif" font-size="10.00"> m_fid_map</text>
<text text-anchor="middle" x="308" y="-308" font-family="Helvetica,sans-Serif" font-size="10.00">m_int_fid_map</text>
</g>
<!-- Node14&#45;&gt;Node13 -->
<g id="edge16" class="edge">
<title>Node14&#45;&gt;Node13</title>
<path fill="none" stroke="orange" stroke-dasharray="5,2" d="M338.86,-435.54C341.92,-422.37 343.03,-406.27 335.5,-394 330.68,-386.14 323.29,-380.11 315.23,-375.51"/>
<polygon fill="orange" stroke="orange" points="335.44,-434.76 336.11,-445.34 342.18,-436.65 335.44,-434.76"/>
<text text-anchor="middle" x="395" y="-408" font-family="Helvetica,sans-Serif" font-size="10.00"> &lt; std::string, size_t &gt;</text>
</g>
<!-- Node15 -->
<g id="node15" class="node">
<title>Node15</title>
<g id="a_node15"><a xlink:title=" ">
<polygon fill="white" stroke="#bfbfbf" points="337,-540 337,-559 366,-559 366,-540 337,-540"/>
<text text-anchor="middle" x="351.5" y="-547" font-family="Helvetica,sans-Serif" font-size="10.00">K</text>
</a>
</g>
</g>
<!-- Node15&#45;&gt;Node14 -->
<g id="edge17" class="edge">
<title>Node15&#45;&gt;Node14</title>
<path fill="none" stroke="#9a32cd" stroke-dasharray="5,2" d="M347,-529.88C343.07,-513.59 337.45,-490.31 333.89,-475.55"/>
<polygon fill="#9a32cd" stroke="#9a32cd" points="343.66,-530.94 349.41,-539.84 350.47,-529.3 343.66,-530.94"/>
<text text-anchor="middle" x="355.5" y="-502.5" font-family="Helvetica,sans-Serif" font-size="10.00"> keys</text>
</g>
<!-- Node16&#45;&gt;Node1 -->
<g id="edge19" class="edge">
<title>Node16&#45;&gt;Node1</title>
<path fill="none" stroke="#9a32cd" stroke-dasharray="5,2" d="M69.5,-295.99C69.5,-279.47 69.5,-254.91 69.5,-233.5 69.5,-233.5 69.5,-233.5 69.5,-87 69.5,-63.88 87.83,-43.36 102.73,-30.51"/>
<polygon fill="#9a32cd" stroke="#9a32cd" points="66,-296.43 69.5,-306.43 73,-296.43 66,-296.43"/>
<text text-anchor="middle" x="97" y="-196.5" font-family="Helvetica,sans-Serif" font-size="10.00"> m_options</text>
</g>
<!-- Node17&#45;&gt;Node1 -->
<g id="edge21" class="edge">
<title>Node17&#45;&gt;Node1</title>
<path fill="none" stroke="#9a32cd" stroke-dasharray="5,2" d="M239.96,-74.1C214.58,-61.76 176.42,-43.2 150.31,-30.51"/>
<polygon fill="#9a32cd" stroke="#9a32cd" points="238.49,-77.27 249.01,-78.5 241.55,-70.98 238.49,-77.27"/>
<text text-anchor="middle" x="239" y="-52" font-family="Helvetica,sans-Serif" font-size="10.00"> m_pdefields</text>
</g>
</g>
</svg>
