<?xml version="1.0" encoding="UTF-8" standalone="no"?>
<!DOCTYPE svg PUBLIC "-//W3C//DTD SVG 1.1//EN"
 "http://www.w3.org/Graphics/SVG/1.1/DTD/svg11.dtd">
<!-- Generated by graphviz version 2.43.0 (0)
 -->
<!-- Title: amr_wind::MeshMap Pages: 1 -->
<!--zoomable 277 -->
<svg id="main" version="1.1" xmlns="http://www.w3.org/2000/svg" xmlns:xlink="http://www.w3.org/1999/xlink" xml:space="preserve" onload="init(evt)">
<style type="text/css"><![CDATA[
.edge:hover path { stroke: red; }
.edge:hover polygon { stroke: red; fill: red; }
]]></style>
<script type="text/javascript"><![CDATA[
var edges = document.getElementsByTagName('g');
if (edges && edges.length) {
  for (var i=0;i<edges.length;i++) {
    if (edges[i].id.substr(0,4)=='edge') {
      edges[i].setAttribute('class','edge');
    }
  }
}
]]></script>
        <defs>
                <circle id="rim" cx="0" cy="0" r="7"/>
                <circle id="rim2" cx="0" cy="0" r="3.5"/>
                <g id="zoomPlus">
                        <use xlink:href="#rim" fill="#404040">
                                <set attributeName="fill" to="#808080" begin="zoomplus.mouseover" end="zoomplus.mouseout"/>
                        </use>
                        <path d="M-4,0h8M0,-4v8" fill="none" stroke="white" stroke-width="1.5" pointer-events="none"/>
                </g>
                <g id="zoomMin">
                        <use xlink:href="#rim" fill="#404040">
                                <set attributeName="fill" to="#808080" begin="zoomminus.mouseover" end="zoomminus.mouseout"/>
                        </use>
                        <path d="M-4,0h8" fill="none" stroke="white" stroke-width="1.5" pointer-events="none"/>
                </g>
                <g id="dirArrow">
                        <path fill="none" stroke="white" stroke-width="1.5" d="M0,-3.0v7 M-2.5,-0.5L0,-3.0L2.5,-0.5"/>
                </g>
               <g id="resetDef">
                       <use xlink:href="#rim2" fill="#404040">
                               <set attributeName="fill" to="#808080" begin="reset.mouseover" end="reset.mouseout"/>
                       </use>
               </g>
        </defs>

<script type="text/javascript">
var viewWidth = 1575;
var viewHeight = 277;
var sectionId = 'dynsection-1';
</script>
<script xlink:href="svgpan.js"/>
<svg id="graph" class="graph">
<g id="viewport">
<title>amr_wind::MeshMap</title>
<polygon fill="white" stroke="transparent" points="-4,4 -4,-272.5 1571,-272.5 1571,4 -4,4"/>
<!-- Node1 -->
<g id="node1" class="node">
<title>Node1</title>
<g id="a_node1"><a xlink:title="Abstract representation of different mesh mapping models.">
<polygon fill="#bfbfbf" stroke="black" points="1449,-175.5 1449,-194.5 1567,-194.5 1567,-175.5 1449,-175.5"/>
<text text-anchor="middle" x="1508" y="-182.5" font-family="Helvetica,sans-Serif" font-size="10.00">amr_wind::MeshMap</text>
</a>
</g>
</g>
<!-- Node2 -->
<g id="node2" class="node">
<title>Node2</title>
<g id="a_node2"><a xlink:href="structamr__wind_1_1_factory.html" target="_top" xlink:title=" ">
<polygon fill="white" stroke="black" points="1172,-238 1172,-268 1286,-268 1286,-238 1172,-238"/>
<text text-anchor="start" x="1180" y="-256" font-family="Helvetica,sans-Serif" font-size="10.00">amr_wind::Factory&lt;</text>
<text text-anchor="middle" x="1229" y="-245" font-family="Helvetica,sans-Serif" font-size="10.00"> MeshMap &gt;</text>
</a>
</g>
</g>
<!-- Node2&#45;&gt;Node1 -->
<g id="edge1" class="edge">
<title>Node2&#45;&gt;Node1</title>
<path fill="none" stroke="midnightblue" d="M1296.45,-257.29C1336.53,-257.72 1387.98,-254.4 1431,-239 1457.82,-229.4 1483.69,-207.48 1497.23,-194.71"/>
<polygon fill="midnightblue" stroke="midnightblue" points="1296.32,-253.79 1286.25,-257.1 1296.19,-260.79 1296.32,-253.79"/>
</g>
<!-- Node3 -->
<g id="node3" class="node">
<title>Node3</title>
<g id="a_node3"><a xlink:href="structamr__wind_1_1_factory.html" target="_top" xlink:title="Runtime selection of options based on string keyword lookup.">
<polygon fill="white" stroke="black" points="946,-238 946,-268 1060,-268 1060,-238 946,-238"/>
<text text-anchor="start" x="954" y="-256" font-family="Helvetica,sans-Serif" font-size="10.00">amr_wind::Factory&lt;</text>
<text text-anchor="middle" x="1003" y="-245" font-family="Helvetica,sans-Serif" font-size="10.00"> Base, Args &gt;</text>
</a>
</g>
</g>
<!-- Node3&#45;&gt;Node2 -->
<g id="edge2" class="edge">
<title>Node3&#45;&gt;Node2</title>
<path fill="none" stroke="orange" stroke-dasharray="5,2" d="M1070.47,-253C1102.69,-253 1140.98,-253 1171.74,-253"/>
<polygon fill="orange" stroke="orange" points="1070.24,-249.5 1060.24,-253 1070.24,-256.5 1070.24,-249.5"/>
<text text-anchor="middle" x="1117.5" y="-256" font-family="Helvetica,sans-Serif" font-size="10.00"> &lt; MeshMap &gt;</text>
</g>
<!-- Node4 -->
<g id="node4" class="node">
<title>Node4</title>
<g id="a_node4"><a xlink:href="classamr__wind_1_1_field.html" target="_top" xlink:title="Computational field.">
<polygon fill="white" stroke="black" points="1182,-107.5 1182,-126.5 1276,-126.5 1276,-107.5 1182,-107.5"/>
<text text-anchor="middle" x="1229" y="-114.5" font-family="Helvetica,sans-Serif" font-size="10.00">amr_wind::Field</text>
</a>
</g>
</g>
<!-- Node4&#45;&gt;Node1 -->
<g id="edge3" class="edge">
<title>Node4&#45;&gt;Node1</title>
<path fill="none" stroke="#9a32cd" stroke-dasharray="5,2" d="M1281.25,-105.77C1323.06,-99.03 1382.86,-95.01 1431,-114 1462.58,-126.46 1488.76,-158.91 1500.45,-175.27"/>
<polygon fill="#9a32cd" stroke="#9a32cd" points="1280.55,-102.33 1271.29,-107.48 1281.74,-109.23 1280.55,-102.33"/>
<text text-anchor="middle" x="1367.5" y="-227" font-family="Helvetica,sans-Serif" font-size="10.00"> m_mesh_scale_fac_nd</text>
<text text-anchor="middle" x="1367.5" y="-216" font-family="Helvetica,sans-Serif" font-size="10.00">m_mesh_scale_detJ_nd</text>
<text text-anchor="middle" x="1367.5" y="-205" font-family="Helvetica,sans-Serif" font-size="10.00">m_mesh_scale_fac_zf</text>
<text text-anchor="middle" x="1367.5" y="-194" font-family="Helvetica,sans-Serif" font-size="10.00">m_mesh_scale_detJ_zf</text>
<text text-anchor="middle" x="1367.5" y="-183" font-family="Helvetica,sans-Serif" font-size="10.00">m_mesh_scale_detJ_yf</text>
<text text-anchor="middle" x="1367.5" y="-172" font-family="Helvetica,sans-Serif" font-size="10.00">m_mesh_scale_detJ_xf</text>
<text text-anchor="middle" x="1367.5" y="-161" font-family="Helvetica,sans-Serif" font-size="10.00">m_mesh_scale_fac_yf</text>
<text text-anchor="middle" x="1367.5" y="-150" font-family="Helvetica,sans-Serif" font-size="10.00">m_mesh_scale_fac_cc</text>
<text text-anchor="middle" x="1367.5" y="-139" font-family="Helvetica,sans-Serif" font-size="10.00">m_mesh_scale_fac_xf</text>
<text text-anchor="middle" x="1367.5" y="-128" font-family="Helvetica,sans-Serif" font-size="10.00">m_non_uniform_coord_nd</text>
<text text-anchor="middle" x="1367.5" y="-117" font-family="Helvetica,sans-Serif" font-size="10.00">...</text>
</g>
<!-- Node5 -->
<g id="node5" class="node">
<title>Node5</title>
<g id="a_node5"><a xlink:title=" ">
<polygon fill="white" stroke="#bfbfbf" points="943,-50 943,-80 1063,-80 1063,-50 943,-50"/>
<text text-anchor="start" x="951" y="-68" font-family="Helvetica,sans-Serif" font-size="10.00">std::shared_ptr&lt; amr</text>
<text text-anchor="middle" x="1003" y="-57" font-family="Helvetica,sans-Serif" font-size="10.00">_wind::FieldInfo &gt;</text>
</a>
</g>
</g>
<!-- Node5&#45;&gt;Node4 -->
<g id="edge4" class="edge">
<title>Node5&#45;&gt;Node4</title>
<path fill="none" stroke="#9a32cd" stroke-dasharray="5,2" d="M1073.19,-75.26C1098.76,-79.62 1127.87,-85.27 1154,-92 1170.42,-96.23 1188.44,-102.29 1202.6,-107.38"/>
<polygon fill="#9a32cd" stroke="#9a32cd" points="1073.65,-71.79 1063.21,-73.59 1072.49,-78.69 1073.65,-71.79"/>
<text text-anchor="middle" x="1117.5" y="-95" font-family="Helvetica,sans-Serif" font-size="10.00"> m_info</text>
</g>
<!-- Node6 -->
<g id="node6" class="node">
<title>Node6</title>
<g id="a_node6"><a xlink:href="structamr__wind_1_1_field_info.html" target="_top" xlink:title="Information common to a field that has multiple states.">
<polygon fill="white" stroke="black" points="716.5,-55.5 716.5,-74.5 829.5,-74.5 829.5,-55.5 716.5,-55.5"/>
<text text-anchor="middle" x="773" y="-62.5" font-family="Helvetica,sans-Serif" font-size="10.00">amr_wind::FieldInfo</text>
</a>
</g>
</g>
<!-- Node6&#45;&gt;Node5 -->
<g id="edge5" class="edge">
<title>Node6&#45;&gt;Node5</title>
<path fill="none" stroke="#9a32cd" stroke-dasharray="5,2" d="M840.07,-65C872.54,-65 911.34,-65 942.82,-65"/>
<polygon fill="#9a32cd" stroke="#9a32cd" points="839.78,-61.5 829.78,-65 839.78,-68.5 839.78,-61.5"/>
<text text-anchor="middle" x="888.5" y="-68" font-family="Helvetica,sans-Serif" font-size="10.00"> ptr</text>
</g>
<!-- Node7 -->
<g id="node7" class="node">
<title>Node7</title>
<g id="a_node7"><a xlink:title=" ">
<polygon fill="white" stroke="#bfbfbf" points="385,-42 385,-72 554,-72 554,-42 385,-42"/>
<text text-anchor="start" x="393" y="-60" font-family="Helvetica,sans-Serif" font-size="10.00">std::unique_ptr&lt; amr</text>
<text text-anchor="middle" x="469.5" y="-49" font-family="Helvetica,sans-Serif" font-size="10.00">_wind::FieldFillPatchOpsBase &gt;</text>
</a>
</g>
</g>
<!-- Node7&#45;&gt;Node6 -->
<g id="edge6" class="edge">
<title>Node7&#45;&gt;Node6</title>
<path fill="none" stroke="#9a32cd" stroke-dasharray="5,2" d="M564.14,-55.65C604.16,-55.53 651.39,-56 694,-58 701.2,-58.34 708.76,-58.84 716.22,-59.41"/>
<polygon fill="#9a32cd" stroke="#9a32cd" points="564.11,-52.15 554.12,-55.69 564.14,-59.15 564.11,-52.15"/>
<text text-anchor="middle" x="633" y="-61" font-family="Helvetica,sans-Serif" font-size="10.00"> m_fillpatch_op</text>
</g>
<!-- Node8 -->
<g id="node8" class="node">
<title>Node8</title>
<g id="a_node8"><a xlink:href="classamr__wind_1_1_field_fill_patch_ops_base.html" target="_top" xlink:title="Abstract interface for classes that handle fill patch and physical boundary condition operations for ...">
<polygon fill="white" stroke="black" points="82,-33 82,-63 216,-63 216,-33 82,-33"/>
<text text-anchor="start" x="90" y="-51" font-family="Helvetica,sans-Serif" font-size="10.00">amr_wind::FieldFillPatch</text>
<text text-anchor="middle" x="149" y="-40" font-family="Helvetica,sans-Serif" font-size="10.00">OpsBase</text>
</a>
</g>
</g>
<!-- Node8&#45;&gt;Node7 -->
<g id="edge7" class="edge">
<title>Node8&#45;&gt;Node7</title>
<path fill="none" stroke="#9a32cd" stroke-dasharray="5,2" d="M226.07,-50.07C267.7,-51.21 320.19,-52.66 367,-54 372.82,-54.17 378.82,-54.34 384.86,-54.52"/>
<polygon fill="#9a32cd" stroke="#9a32cd" points="226.09,-46.57 216,-49.79 225.9,-53.56 226.09,-46.57"/>
<text text-anchor="middle" x="300.5" y="-57" font-family="Helvetica,sans-Serif" font-size="10.00"> ptr</text>
</g>
<!-- Node9 -->
<g id="node9" class="node">
<title>Node9</title>
<g id="a_node9"><a xlink:title="STL class.">
<polygon fill="white" stroke="#bfbfbf" points="90,-82.5 90,-101.5 208,-101.5 208,-82.5 90,-82.5"/>
<text text-anchor="middle" x="149" y="-89.5" font-family="Helvetica,sans-Serif" font-size="10.00">std::unique_ptr&lt; T &gt;</text>
</a>
</g>
</g>
<!-- Node9&#45;&gt;Node7 -->
<g id="edge8" class="edge">
<title>Node9&#45;&gt;Node7</title>
<path fill="none" stroke="orange" stroke-dasharray="5,2" d="M218.18,-84.51C266.92,-79.15 332.82,-71.91 384.77,-66.2"/>
<polygon fill="orange" stroke="orange" points="217.61,-81.05 208.05,-85.62 218.37,-88.01 217.61,-81.05"/>
<text text-anchor="start" x="234" y="-97" font-family="Helvetica,sans-Serif" font-size="10.00"> &lt; amr_wind::FieldFillPatch</text>
<text text-anchor="middle" x="300.5" y="-86" font-family="Helvetica,sans-Serif" font-size="10.00">OpsBase &gt;</text>
</g>
<!-- Node10 -->
<g id="node10" class="node">
<title>Node10</title>
<g id="a_node10"><a xlink:title=" ">
<polygon fill="white" stroke="#bfbfbf" points="0,-82.5 0,-101.5 29,-101.5 29,-82.5 0,-82.5"/>
<text text-anchor="middle" x="14.5" y="-89.5" font-family="Helvetica,sans-Serif" font-size="10.00">T</text>
</a>
</g>
</g>
<!-- Node10&#45;&gt;Node9 -->
<g id="edge9" class="edge">
<title>Node10&#45;&gt;Node9</title>
<path fill="none" stroke="#9a32cd" stroke-dasharray="5,2" d="M39.44,-92C53.53,-92 72.01,-92 89.72,-92"/>
<polygon fill="#9a32cd" stroke="#9a32cd" points="39.18,-88.5 29.18,-92 39.18,-95.5 39.18,-88.5"/>
<text text-anchor="middle" x="55.5" y="-95" font-family="Helvetica,sans-Serif" font-size="10.00"> ptr</text>
</g>
<!-- Node13 -->
<g id="node13" class="node">
<title>Node13</title>
<g id="a_node13"><a xlink:title="STL class.">
<polygon fill="white" stroke="#bfbfbf" points="241.5,-0.5 241.5,-19.5 359.5,-19.5 359.5,-0.5 241.5,-0.5"/>
<text text-anchor="middle" x="300.5" y="-7.5" font-family="Helvetica,sans-Serif" font-size="10.00">std::shared_ptr&lt; T &gt;</text>
</a>
</g>
</g>
<!-- Node10&#45;&gt;Node13 -->
<g id="edge13" class="edge">
<title>Node10&#45;&gt;Node13</title>
<path fill="none" stroke="#9a32cd" stroke-dasharray="5,2" d="M27.01,-73.91C38.66,-57.39 58.29,-33.93 82,-23 132.16,0.11 195.85,1.09 241.32,-2.34"/>
<polygon fill="#9a32cd" stroke="#9a32cd" points="24.08,-72 21.39,-82.25 29.88,-75.91 24.08,-72"/>
<text text-anchor="middle" x="55.5" y="-52" font-family="Helvetica,sans-Serif" font-size="10.00"> ptr</text>
</g>
<!-- Node16 -->
<g id="node16" class="node">
<title>Node16</title>
<g id="a_node16"><a xlink:title="STL class.">
<polygon fill="white" stroke="#bfbfbf" points="412.5,-169 412.5,-199 526.5,-199 526.5,-169 412.5,-169"/>
<text text-anchor="start" x="420.5" y="-187" font-family="Helvetica,sans-Serif" font-size="10.00">std::unordered_map</text>
<text text-anchor="middle" x="469.5" y="-176" font-family="Helvetica,sans-Serif" font-size="10.00">&lt; K, T &gt;</text>
</a>
</g>
</g>
<!-- Node10&#45;&gt;Node16 -->
<g id="edge20" class="edge">
<title>Node10&#45;&gt;Node16</title>
<path fill="none" stroke="#9a32cd" stroke-dasharray="5,2" d="M21.08,-111.39C29.57,-136.8 48.38,-180.31 82,-199 193.22,-260.83 351.56,-222.9 426.32,-199.03"/>
<polygon fill="#9a32cd" stroke="#9a32cd" points="24.39,-110.24 18.07,-101.74 17.71,-112.33 24.39,-110.24"/>
<text text-anchor="middle" x="149" y="-235" font-family="Helvetica,sans-Serif" font-size="10.00"> elements</text>
</g>
<!-- Node11 -->
<g id="node11" class="node">
<title>Node11</title>
<g id="a_node11"><a xlink:title="STL class.">
<polygon fill="white" stroke="#bfbfbf" points="437,-118.5 437,-137.5 502,-137.5 502,-118.5 437,-118.5"/>
<text text-anchor="middle" x="469.5" y="-125.5" font-family="Helvetica,sans-Serif" font-size="10.00">std::string</text>
</a>
</g>
</g>
<!-- Node11&#45;&gt;Node4 -->
<g id="edge14" class="edge">
<title>Node11&#45;&gt;Node4</title>
<path fill="none" stroke="#9a32cd" stroke-dasharray="5,2" d="M512.09,-127.4C642.76,-125.5 1044.44,-119.67 1181.56,-117.67"/>
<polygon fill="#9a32cd" stroke="#9a32cd" points="512.03,-123.9 502.08,-127.54 512.13,-130.9 512.03,-123.9"/>
<text text-anchor="middle" x="888.5" y="-126" font-family="Helvetica,sans-Serif" font-size="10.00"> m_name</text>
</g>
<!-- Node11&#45;&gt;Node6 -->
<g id="edge10" class="edge">
<title>Node11&#45;&gt;Node6</title>
<path fill="none" stroke="#9a32cd" stroke-dasharray="5,2" d="M502.49,-114.73C522.22,-107.04 548.22,-97.76 572,-92 620.02,-80.38 675.81,-73.37 716.25,-69.41"/>
<polygon fill="#9a32cd" stroke="#9a32cd" points="501.07,-111.53 493.07,-118.48 503.65,-118.04 501.07,-111.53"/>
<text text-anchor="middle" x="633" y="-95" font-family="Helvetica,sans-Serif" font-size="10.00"> m_basename</text>
</g>
<!-- Node15 -->
<g id="node15" class="node">
<title>Node15</title>
<g id="a_node15"><a xlink:title=" ">
<polygon fill="white" stroke="#bfbfbf" points="712,-146 712,-176 834,-176 834,-146 712,-146"/>
<text text-anchor="start" x="720" y="-164" font-family="Helvetica,sans-Serif" font-size="10.00">std::unordered_map</text>
<text text-anchor="middle" x="773" y="-153" font-family="Helvetica,sans-Serif" font-size="10.00">&lt; std::string, size_t &gt;</text>
</a>
</g>
</g>
<!-- Node11&#45;&gt;Node15 -->
<g id="edge17" class="edge">
<title>Node11&#45;&gt;Node15</title>
<path fill="none" stroke="#9a32cd" stroke-dasharray="5,2" d="M512.35,-132.58C564.12,-138.25 652.64,-147.94 711.72,-154.4"/>
<polygon fill="#9a32cd" stroke="#9a32cd" points="512.52,-129.08 502.2,-131.47 511.76,-136.04 512.52,-129.08"/>
<text text-anchor="middle" x="633" y="-156" font-family="Helvetica,sans-Serif" font-size="10.00"> keys</text>
</g>
<!-- Node12 -->
<g id="node12" class="node">
<title>Node12</title>
<g id="a_node12"><a xlink:title="STL class.">
<polygon fill="white" stroke="#bfbfbf" points="97,-121 97,-151 201,-151 201,-121 97,-121"/>
<text text-anchor="start" x="105" y="-139" font-family="Helvetica,sans-Serif" font-size="10.00">std::basic_string&lt;</text>
<text text-anchor="middle" x="149" y="-128" font-family="Helvetica,sans-Serif" font-size="10.00"> char &gt;</text>
</a>
</g>
</g>
<!-- Node12&#45;&gt;Node11 -->
<g id="edge11" class="edge">
<title>Node12&#45;&gt;Node11</title>
<path fill="none" stroke="midnightblue" d="M211.24,-134.46C278.64,-132.77 384.37,-130.11 436.81,-128.8"/>
<polygon fill="midnightblue" stroke="midnightblue" points="211.08,-130.96 201.17,-134.71 211.26,-137.96 211.08,-130.96"/>
</g>
<!-- Node13&#45;&gt;Node5 -->
<g id="edge12" class="edge">
<title>Node13&#45;&gt;Node5</title>
<path fill="none" stroke="orange" stroke-dasharray="5,2" d="M369.99,-13.64C471.44,-19.26 667.61,-30.97 834,-46 870.25,-49.27 910.8,-53.83 942.98,-57.67"/>
<polygon fill="orange" stroke="orange" points="370.05,-10.14 359.88,-13.08 369.67,-17.13 370.05,-10.14"/>
<text text-anchor="middle" x="633" y="-38" font-family="Helvetica,sans-Serif" font-size="10.00"> &lt; amr_wind::FieldInfo &gt;</text>
</g>
<!-- Node14 -->
<g id="node14" class="node">
<title>Node14</title>
<g id="a_node14"><a xlink:href="classamr__wind_1_1_field_repo.html" target="_top" xlink:title="Field Repository.">
<polygon fill="white" stroke="black" points="943.5,-147.5 943.5,-166.5 1062.5,-166.5 1062.5,-147.5 943.5,-147.5"/>
<text text-anchor="middle" x="1003" y="-154.5" font-family="Helvetica,sans-Serif" font-size="10.00">amr_wind::FieldRepo</text>
</a>
</g>
</g>
<!-- Node14&#45;&gt;Node4 -->
<g id="edge15" class="edge">
<title>Node14&#45;&gt;Node4</title>
<path fill="none" stroke="#9a32cd" stroke-dasharray="5,2" d="M1070.46,-145.71C1096.52,-141.22 1126.68,-135.95 1154,-131 1163.01,-129.37 1172.62,-127.58 1181.84,-125.85"/>
<polygon fill="#9a32cd" stroke="#9a32cd" points="1069.57,-142.31 1060.31,-147.45 1070.76,-149.21 1069.57,-142.31"/>
<text text-anchor="middle" x="1117.5" y="-147" font-family="Helvetica,sans-Serif" font-size="10.00"> m_repo</text>
</g>
<!-- Node15&#45;&gt;Node14 -->
<g id="edge16" class="edge">
<title>Node15&#45;&gt;Node14</title>
<path fill="none" stroke="#9a32cd" stroke-dasharray="5,2" d="M844.32,-159.77C876.09,-159.21 913.2,-158.56 943.43,-158.03"/>
<polygon fill="#9a32cd" stroke="#9a32cd" points="844.14,-156.27 834.2,-159.94 844.26,-163.27 844.14,-156.27"/>
<text text-anchor="middle" x="888.5" y="-174" font-family="Helvetica,sans-Serif" font-size="10.00"> m_fid_map</text>
<text text-anchor="middle" x="888.5" y="-163" font-family="Helvetica,sans-Serif" font-size="10.00">m_int_fid_map</text>
</g>
<!-- Node16&#45;&gt;Node15 -->
<g id="edge18" class="edge">
<title>Node16&#45;&gt;Node15</title>
<path fill="none" stroke="orange" stroke-dasharray="5,2" d="M536.68,-178.95C588.95,-174.96 661.28,-169.45 711.9,-165.58"/>
<polygon fill="orange" stroke="orange" points="536.21,-175.48 526.5,-179.73 536.74,-182.46 536.21,-175.48"/>
<text text-anchor="middle" x="633" y="-178" font-family="Helvetica,sans-Serif" font-size="10.00"> &lt; std::string, size_t &gt;</text>
</g>
<!-- Node17 -->
<g id="node17" class="node">
<title>Node17</title>
<g id="a_node17"><a xlink:title=" ">
<polygon fill="white" stroke="#bfbfbf" points="134.5,-170.5 134.5,-189.5 163.5,-189.5 163.5,-170.5 134.5,-170.5"/>
<text text-anchor="middle" x="149" y="-177.5" font-family="Helvetica,sans-Serif" font-size="10.00">K</text>
</a>
</g>
</g>
<!-- Node17&#45;&gt;Node16 -->
<g id="edge19" class="edge">
<title>Node17&#45;&gt;Node16</title>
<path fill="none" stroke="#9a32cd" stroke-dasharray="5,2" d="M173.87,-180.3C224.1,-180.93 341.85,-182.41 412.34,-183.29"/>
<polygon fill="#9a32cd" stroke="#9a32cd" points="173.73,-176.8 163.69,-180.17 173.64,-183.8 173.73,-176.8"/>
<text text-anchor="middle" x="300.5" y="-185" font-family="Helvetica,sans-Serif" font-size="10.00"> keys</text>
</g>
</g>
</svg>
        <g id="navigator" transform="translate(0 0)" fill="#404254">
                <rect fill="#f2f5e9" fill-opacity="0.5" stroke="#606060" stroke-width=".5" x="0" y="0" width="60" height="60"/>
                <use id="zoomplus" xlink:href="#zoomPlus" x="17" y="9" onmousedown="handleZoom(evt,'in')"/>
                <use id="zoomminus" xlink:href="#zoomMin" x="42" y="9" onmousedown="handleZoom(evt,'out')"/>
                <use id="reset" xlink:href="#resetDef" x="30" y="36" onmousedown="handleReset()"/>
                <g id="arrowUp" xlink:href="#dirArrow" transform="translate(30 24)" onmousedown="handlePan(0,-1)">
                  <use xlink:href="#rim" fill="#404040">
                        <set attributeName="fill" to="#808080" begin="arrowUp.mouseover" end="arrowUp.mouseout"/>
                  </use>
                  <path fill="none" stroke="white" stroke-width="1.5" d="M0,-3.0v7 M-2.5,-0.5L0,-3.0L2.5,-0.5"/>
                </g>
                <g id="arrowRight" xlink:href="#dirArrow" transform="rotate(90) translate(36 -43)" onmousedown="handlePan(1,0)">
                  <use xlink:href="#rim" fill="#404040">
                        <set attributeName="fill" to="#808080" begin="arrowRight.mouseover" end="arrowRight.mouseout"/>
                  </use>
                  <path fill="none" stroke="white" stroke-width="1.5" d="M0,-3.0v7 M-2.5,-0.5L0,-3.0L2.5,-0.5"/>
                </g>
                <g id="arrowDown" xlink:href="#dirArrow" transform="rotate(180) translate(-30 -48)" onmousedown="handlePan(0,1)">
                  <use xlink:href="#rim" fill="#404040">
                        <set attributeName="fill" to="#808080" begin="arrowDown.mouseover" end="arrowDown.mouseout"/>
                  </use>
                  <path fill="none" stroke="white" stroke-width="1.5" d="M0,-3.0v7 M-2.5,-0.5L0,-3.0L2.5,-0.5"/>
                </g>
                <g id="arrowLeft" xlink:href="#dirArrow" transform="rotate(270) translate(-36 17)" onmousedown="handlePan(-1,0)">
                  <use xlink:href="#rim" fill="#404040">
                        <set attributeName="fill" to="#808080" begin="arrowLeft.mouseover" end="arrowLeft.mouseout"/>
                  </use>
                  <path fill="none" stroke="white" stroke-width="1.5" d="M0,-3.0v7 M-2.5,-0.5L0,-3.0L2.5,-0.5"/>
                </g>
        </g>
        <svg viewBox="0 0 15 15" width="100%" height="30px" preserveAspectRatio="xMaxYMin meet">
         <g id="arrow_out" transform="scale(0.3 0.3)">
          <a xlink:href="classamr__wind_1_1_mesh_map__coll__graph_org.svg" target="_base">
           <rect id="button" ry="5" rx="5" y="6" x="6" height="38" width="38"
                fill="#f2f5e9" fill-opacity="0.5" stroke="#606060" stroke-width="1.0"/>
           <path id="arrow"
             d="M 11.500037,31.436501 C 11.940474,20.09759 22.043105,11.32322 32.158766,21.979434 L 37.068811,17.246167 C 37.068811,17.246167 37.088388,32 37.088388,32 L 22.160133,31.978069 C 22.160133,31.978069 26.997745,27.140456 26.997745,27.140456 C 18.528582,18.264221 13.291696,25.230495 11.500037,31.436501 z"
             style="fill:#404040;"/>
          </a>
         </g>
        </svg>
</svg>
