<?xml version="1.0" encoding="UTF-8" standalone="no"?>
<!DOCTYPE svg PUBLIC "-//W3C//DTD SVG 1.1//EN"
 "http://www.w3.org/Graphics/SVG/1.1/DTD/svg11.dtd">
<!-- Generated by graphviz version 2.43.0 (0)
 -->
<!-- Title: utilities Pages: 1 -->
<svg width="406pt" height="252pt"
 viewBox="0.00 0.00 405.70 251.88" xmlns="http://www.w3.org/2000/svg" xmlns:xlink="http://www.w3.org/1999/xlink">
<g id="graph0" class="graph" transform="scale(1 1) rotate(0) translate(4 247.88)">
<title>utilities</title>
<polygon fill="white" stroke="transparent" points="-4,4 -4,-247.88 401.7,-247.88 401.7,4 -4,4"/>
<g id="clust1" class="cluster">
<title>clusterdir_d85575251dd712327fe3cf057fa568b4</title>
<g id="a_clust1"><a xlink:href="dir_d85575251dd712327fe3cf057fa568b4.html" target="_top" xlink:title="amr&#45;wind">
<polygon fill="#ddddee" stroke="black" points="8,-56 8,-215 318,-215 318,-56 8,-56"/>
<text text-anchor="middle" x="163" y="-203" font-family="Helvetica,sans-Serif" font-size="10.00">amr&#45;wind</text>
</a>
</g>
</g>
<g id="clust2" class="cluster">
<title>clusterdir_e4cd57caa88bf1f4e1bf9521bc47c3c0</title>
<g id="a_clust2"><a xlink:href="dir_e4cd57caa88bf1f4e1bf9521bc47c3c0.html" target="_top">
<polygon fill="#eeeeff" stroke="black" points="16,-64 16,-188 310,-188 310,-64 16,-64"/>
</a>
</g>
</g>
<!-- dir_e4cd57caa88bf1f4e1bf9521bc47c3c0 -->
<g id="node1" class="node">
<title>dir_e4cd57caa88bf1f4e1bf9521bc47c3c0</title>
<text text-anchor="middle" x="123" y="-159.5" font-family="Helvetica,sans-Serif" font-size="10.00">utilities</text>
</g>
<!-- dir_a925f5bb87732fc4d72dcc12cc6db92b -->
<g id="node3" class="node">
<title>dir_a925f5bb87732fc4d72dcc12cc6db92b</title>
<g id="a_node3"><a xlink:href="dir_a925f5bb87732fc4d72dcc12cc6db92b.html" target="_top" xlink:title="averaging">
<polygon fill="white" stroke="black" points="229.5,-108 164.5,-108 164.5,-72 229.5,-72 229.5,-108"/>
<text text-anchor="middle" x="197" y="-87.5" font-family="Helvetica,sans-Serif" font-size="10.00">averaging</text>
</a>
</g>
</g>
<!-- dir_e4cd57caa88bf1f4e1bf9521bc47c3c0&#45;&gt;dir_a925f5bb87732fc4d72dcc12cc6db92b -->
<g id="edge11" class="edge">
<title>dir_e4cd57caa88bf1f4e1bf9521bc47c3c0&#45;&gt;dir_a925f5bb87732fc4d72dcc12cc6db92b</title>
<path fill="none" stroke="black" d="M141.29,-143.7C150.43,-135.05 161.64,-124.45 171.6,-115.03"/>
<polygon fill="black" stroke="black" points="174.06,-117.52 178.92,-108.1 169.25,-112.43 174.06,-117.52"/>
<g id="a_edge11&#45;headlabel"><a xlink:href="dir_000010_000044.html" target="_top" xlink:title="1">
<text text-anchor="middle" x="173.4" y="-119.55" font-family="Helvetica,sans-Serif" font-size="10.00">1</text>
</a>
</g>
</g>
<!-- dir_cabce38f77158481c263d4f5d6890a8c -->
<g id="node2" class="node">
<title>dir_cabce38f77158481c263d4f5d6890a8c</title>
<g id="a_node2"><a xlink:href="dir_cabce38f77158481c263d4f5d6890a8c.html" target="_top" xlink:title="ascent">
<polygon fill="white" stroke="black" points="222,-180 168,-180 168,-144 222,-144 222,-180"/>
<text text-anchor="middle" x="195" y="-159.5" font-family="Helvetica,sans-Serif" font-size="10.00">ascent</text>
</a>
</g>
</g>
<!-- dir_3d3615e9a999cab4f3407307569d6ced -->
<g id="node9" class="node">
<title>dir_3d3615e9a999cab4f3407307569d6ced</title>
<g id="a_node9"><a xlink:href="dir_3d3615e9a999cab4f3407307569d6ced.html" target="_top" xlink:title="core">
<polygon fill="white" stroke="red" points="224,-36 170,-36 170,0 224,0 224,-36"/>
<text text-anchor="middle" x="197" y="-15.5" font-family="Helvetica,sans-Serif" font-size="10.00">core</text>
</a>
</g>
</g>
<!-- dir_a925f5bb87732fc4d72dcc12cc6db92b&#45;&gt;dir_3d3615e9a999cab4f3407307569d6ced -->
<g id="edge10" class="edge">
<title>dir_a925f5bb87732fc4d72dcc12cc6db92b&#45;&gt;dir_3d3615e9a999cab4f3407307569d6ced</title>
<path fill="none" stroke="black" d="M197,-71.7C197,-63.98 197,-54.71 197,-46.11"/>
<polygon fill="black" stroke="black" points="200.5,-46.1 197,-36.1 193.5,-46.1 200.5,-46.1"/>
<g id="a_edge10&#45;headlabel"><a xlink:href="dir_000044_000018.html" target="_top" xlink:title="5">
<text text-anchor="middle" x="203.34" y="-47.2" font-family="Helvetica,sans-Serif" font-size="10.00">5</text>
</a>
</g>
</g>
<!-- dir_e4878a39f7a1ff4e13f4c83bf1db7931 -->
<g id="node4" class="node">
<title>dir_e4878a39f7a1ff4e13f4c83bf1db7931</title>
<g id="a_node4"><a xlink:href="dir_e4878a39f7a1ff4e13f4c83bf1db7931.html" target="_top" xlink:title="ncutils">
<polygon fill="white" stroke="black" points="302,-108 248,-108 248,-72 302,-72 302,-108"/>
<text text-anchor="middle" x="275" y="-87.5" font-family="Helvetica,sans-Serif" font-size="10.00">ncutils</text>
</a>
</g>
</g>
<!-- dir_0ad5cc9f0732862bd2f85bb38c1084f0 -->
<g id="node5" class="node">
<title>dir_0ad5cc9f0732862bd2f85bb38c1084f0</title>
<g id="a_node5"><a xlink:href="dir_0ad5cc9f0732862bd2f85bb38c1084f0.html" target="_top" xlink:title="sampling">
<polygon fill="white" stroke="black" points="302,-180 240,-180 240,-144 302,-144 302,-180"/>
<text text-anchor="middle" x="271" y="-159.5" font-family="Helvetica,sans-Serif" font-size="10.00">sampling</text>
</a>
</g>
</g>
<!-- dir_0ad5cc9f0732862bd2f85bb38c1084f0&#45;&gt;dir_e4878a39f7a1ff4e13f4c83bf1db7931 -->
<g id="edge7" class="edge">
<title>dir_0ad5cc9f0732862bd2f85bb38c1084f0&#45;&gt;dir_e4878a39f7a1ff4e13f4c83bf1db7931</title>
<path fill="none" stroke="black" d="M271.99,-143.7C272.43,-135.98 272.96,-126.71 273.45,-118.11"/>
<polygon fill="black" stroke="black" points="276.95,-118.29 274.02,-108.1 269.96,-117.89 276.95,-118.29"/>
<g id="a_edge7&#45;headlabel"><a xlink:href="dir_000024_000040.html" target="_top" xlink:title="7">
<text text-anchor="middle" x="279.58" y="-119.54" font-family="Helvetica,sans-Serif" font-size="10.00">7</text>
</a>
</g>
</g>
<!-- dir_f2c65bfcbdc19ebacbfc0bbbfb0d01b6 -->
<g id="node7" class="node">
<title>dir_f2c65bfcbdc19ebacbfc0bbbfb0d01b6</title>
<g id="a_node7"><a xlink:href="dir_f2c65bfcbdc19ebacbfc0bbbfb0d01b6.html" target="_top" xlink:title="physics">
<polygon fill="white" stroke="red" points="380,-180 326,-180 326,-144 380,-144 380,-180"/>
<text text-anchor="middle" x="353" y="-159.5" font-family="Helvetica,sans-Serif" font-size="10.00">physics</text>
</a>
</g>
</g>
<!-- dir_0ad5cc9f0732862bd2f85bb38c1084f0&#45;&gt;dir_f2c65bfcbdc19ebacbfc0bbbfb0d01b6 -->
<g id="edge6" class="edge">
<title>dir_0ad5cc9f0732862bd2f85bb38c1084f0&#45;&gt;dir_f2c65bfcbdc19ebacbfc0bbbfb0d01b6</title>
<path fill="none" stroke="black" d="M302.07,-162C306.67,-162 311.27,-162 315.87,-162"/>
<polygon fill="black" stroke="black" points="315.94,-165.5 325.94,-162 315.94,-158.5 315.94,-165.5"/>
<g id="a_edge6&#45;headlabel"><a xlink:href="dir_000024_000015.html" target="_top" xlink:title="1">
<text text-anchor="middle" x="312.35" y="-165.84" font-family="Helvetica,sans-Serif" font-size="10.00">1</text>
</a>
</g>
</g>
<!-- dir_7f7a014517bfe31ea45620a6a947e37b -->
<g id="node8" class="node">
<title>dir_7f7a014517bfe31ea45620a6a947e37b</title>
<g id="a_node8"><a xlink:href="dir_7f7a014517bfe31ea45620a6a947e37b.html" target="_top" xlink:title="fvm">
<polygon fill="none" stroke="black" points="380,-108 326,-108 326,-72 380,-72 380,-108"/>
<text text-anchor="middle" x="353" y="-87.5" font-family="Helvetica,sans-Serif" font-size="10.00">fvm</text>
</a>
</g>
</g>
<!-- dir_0ad5cc9f0732862bd2f85bb38c1084f0&#45;&gt;dir_7f7a014517bfe31ea45620a6a947e37b -->
<g id="edge8" class="edge">
<title>dir_0ad5cc9f0732862bd2f85bb38c1084f0&#45;&gt;dir_7f7a014517bfe31ea45620a6a947e37b</title>
<path fill="none" stroke="black" d="M291.27,-143.7C301.5,-134.97 314.06,-124.24 325.18,-114.75"/>
<polygon fill="black" stroke="black" points="327.63,-117.26 332.96,-108.1 323.09,-111.94 327.63,-117.26"/>
<g id="a_edge8&#45;headlabel"><a xlink:href="dir_000024_000020.html" target="_top" xlink:title="1">
<text text-anchor="middle" x="326.74" y="-119.25" font-family="Helvetica,sans-Serif" font-size="10.00">1</text>
</a>
</g>
</g>
<!-- dir_0ad5cc9f0732862bd2f85bb38c1084f0&#45;&gt;dir_3d3615e9a999cab4f3407307569d6ced -->
<g id="edge9" class="edge">
<title>dir_0ad5cc9f0732862bd2f85bb38c1084f0&#45;&gt;dir_3d3615e9a999cab4f3407307569d6ced</title>
<path fill="none" stroke="black" d="M239.86,-147.64C206.66,-133.24 158.47,-111.86 156,-108 143.54,-88.54 146.61,-77.12 156,-56 157.99,-51.53 160.82,-47.37 164.07,-43.57"/>
<polygon fill="black" stroke="black" points="166.69,-45.9 171.2,-36.31 161.7,-40.99 166.69,-45.9"/>
<g id="a_edge9&#45;headlabel"><a xlink:href="dir_000024_000018.html" target="_top" xlink:title="4">
<text text-anchor="middle" x="166.19" y="-47.95" font-family="Helvetica,sans-Serif" font-size="10.00">4</text>
</a>
</g>
</g>
<!-- dir_840c4e0daa8df97bd9a0df29e85df46b -->
<g id="node6" class="node">
<title>dir_840c4e0daa8df97bd9a0df29e85df46b</title>
<g id="a_node6"><a xlink:href="dir_840c4e0daa8df97bd9a0df29e85df46b.html" target="_top" xlink:title="tagging">
<polygon fill="white" stroke="black" points="78,-180 24,-180 24,-144 78,-144 78,-180"/>
<text text-anchor="middle" x="51" y="-159.5" font-family="Helvetica,sans-Serif" font-size="10.00">tagging</text>
</a>
</g>
</g>
<!-- dir_840c4e0daa8df97bd9a0df29e85df46b&#45;&gt;dir_3d3615e9a999cab4f3407307569d6ced -->
<g id="edge1" class="edge">
<title>dir_840c4e0daa8df97bd9a0df29e85df46b&#45;&gt;dir_3d3615e9a999cab4f3407307569d6ced</title>
<path fill="none" stroke="black" d="M63.85,-143.82C80.65,-122 111.64,-83.84 143,-56 148.67,-50.97 155.05,-46.05 161.38,-41.52"/>
<polygon fill="black" stroke="black" points="163.69,-44.18 169.92,-35.62 159.71,-38.42 163.69,-44.18"/>
<g id="a_edge1&#45;headlabel"><a xlink:href="dir_000016_000018.html" target="_top" xlink:title="3">
<text text-anchor="middle" x="162.34" y="-46.06" font-family="Helvetica,sans-Serif" font-size="10.00">3</text>
</a>
</g>
</g>
<!-- dir_f2c65bfcbdc19ebacbfc0bbbfb0d01b6&#45;&gt;dir_e4cd57caa88bf1f4e1bf9521bc47c3c0 -->
<g id="edge2" class="edge">
<title>dir_f2c65bfcbdc19ebacbfc0bbbfb0d01b6&#45;&gt;dir_e4cd57caa88bf1f4e1bf9521bc47c3c0</title>
<path fill="none" stroke="black" d="M346.55,-180.08C339.35,-197.2 325.89,-221.9 305,-233 278.11,-247.28 194.67,-247.67 168,-233 151.16,-223.74 139.74,-205.22 132.62,-189.42"/>
<polygon fill="black" stroke="black" points="135.79,-187.94 128.73,-180.04 129.33,-190.62 135.79,-187.94"/>
<g id="a_edge2&#45;headlabel"><a xlink:href="dir_000015_000010.html" target="_top" xlink:title="11">
<text text-anchor="middle" x="139.79" y="-187.67" font-family="Helvetica,sans-Serif" font-size="10.00">11</text>
</a>
</g>
</g>
<!-- dir_f2c65bfcbdc19ebacbfc0bbbfb0d01b6&#45;&gt;dir_e4878a39f7a1ff4e13f4c83bf1db7931 -->
<g id="edge3" class="edge">
<title>dir_f2c65bfcbdc19ebacbfc0bbbfb0d01b6&#45;&gt;dir_e4878a39f7a1ff4e13f4c83bf1db7931</title>
<path fill="none" stroke="black" d="M333.72,-143.7C324.08,-135.05 312.27,-124.45 301.77,-115.03"/>
<polygon fill="black" stroke="black" points="303.84,-112.18 294.06,-108.1 299.16,-117.39 303.84,-112.18"/>
<g id="a_edge3&#45;headlabel"><a xlink:href="dir_000015_000040.html" target="_top" xlink:title="1">
<text text-anchor="middle" x="308.41" y="-109.97" font-family="Helvetica,sans-Serif" font-size="10.00">1</text>
</a>
</g>
</g>
<!-- dir_f2c65bfcbdc19ebacbfc0bbbfb0d01b6&#45;&gt;dir_7f7a014517bfe31ea45620a6a947e37b -->
<g id="edge4" class="edge">
<title>dir_f2c65bfcbdc19ebacbfc0bbbfb0d01b6&#45;&gt;dir_7f7a014517bfe31ea45620a6a947e37b</title>
<path fill="none" stroke="black" d="M353,-143.7C353,-135.98 353,-126.71 353,-118.11"/>
<polygon fill="black" stroke="black" points="356.5,-118.1 353,-108.1 349.5,-118.1 356.5,-118.1"/>
<g id="a_edge4&#45;headlabel"><a xlink:href="dir_000015_000020.html" target="_top" xlink:title="4">
<text text-anchor="middle" x="359.34" y="-119.2" font-family="Helvetica,sans-Serif" font-size="10.00">4</text>
</a>
</g>
</g>
<!-- dir_f2c65bfcbdc19ebacbfc0bbbfb0d01b6&#45;&gt;dir_3d3615e9a999cab4f3407307569d6ced -->
<g id="edge5" class="edge">
<title>dir_f2c65bfcbdc19ebacbfc0bbbfb0d01b6&#45;&gt;dir_3d3615e9a999cab4f3407307569d6ced</title>
<path fill="none" stroke="black" d="M367.98,-143.93C385.76,-121.52 410.47,-82 389,-56 369.78,-32.72 284.6,-23.93 234.38,-20.73"/>
<polygon fill="black" stroke="black" points="234.42,-17.23 224.23,-20.13 234.01,-24.22 234.42,-17.23"/>
<g id="a_edge5&#45;headlabel"><a xlink:href="dir_000015_000018.html" target="_top" xlink:title="52">
<text text-anchor="middle" x="238.18" y="-12.11" font-family="Helvetica,sans-Serif" font-size="10.00">52</text>
</a>
</g>
</g>
<!-- dir_7f7a014517bfe31ea45620a6a947e37b&#45;&gt;dir_3d3615e9a999cab4f3407307569d6ced -->
<g id="edge12" class="edge">
<title>dir_7f7a014517bfe31ea45620a6a947e37b&#45;&gt;dir_3d3615e9a999cab4f3407307569d6ced</title>
<path fill="none" stroke="black" d="M335.85,-71.95C329.42,-66.26 321.77,-60.29 314,-56 288.98,-42.19 258.05,-32.69 234.28,-26.78"/>
<polygon fill="black" stroke="black" points="234.78,-23.3 224.24,-24.39 233.16,-30.11 234.78,-23.3"/>
<g id="a_edge12&#45;headlabel"><a xlink:href="dir_000020_000018.html" target="_top" xlink:title="1">
<text text-anchor="middle" x="238.93" y="-18.87" font-family="Helvetica,sans-Serif" font-size="10.00">1</text>
</a>
</g>
</g>
</g>
</svg>
