<?xml version="1.0" encoding="UTF-8" standalone="no"?>
<!DOCTYPE svg PUBLIC "-//W3C//DTD SVG 1.1//EN"
 "http://www.w3.org/Graphics/SVG/1.1/DTD/svg11.dtd">
<!-- Generated by graphviz version 2.43.0 (0)
 -->
<!-- Title: setup Pages: 1 -->
<svg width="182pt" height="367pt"
 viewBox="0.00 0.00 182.47 367.00" xmlns="http://www.w3.org/2000/svg" xmlns:xlink="http://www.w3.org/1999/xlink">
<g id="graph0" class="graph" transform="scale(1 1) rotate(0) translate(4 363)">
<title>setup</title>
<polygon fill="white" stroke="transparent" points="-4,4 -4,-363 178.47,-363 178.47,4 -4,4"/>
<g id="clust1" class="cluster">
<title>clusterdir_d85575251dd712327fe3cf057fa568b4</title>
<g id="a_clust1"><a xlink:href="dir_d85575251dd712327fe3cf057fa568b4.html" target="_top" xlink:title="amr&#45;wind">
<polygon fill="#ddddee" stroke="black" points="67.66,-280 67.66,-351 137.66,-351 137.66,-280 67.66,-280"/>
<text text-anchor="middle" x="102.66" y="-339" font-family="Helvetica,sans-Serif" font-size="10.00">amr&#45;wind</text>
</a>
</g>
</g>
<!-- dir_073a3c37bc9e3eb3e412aa8cf4eda4c3 -->
<g id="node1" class="node">
<title>dir_073a3c37bc9e3eb3e412aa8cf4eda4c3</title>
<g id="a_node1"><a xlink:href="dir_073a3c37bc9e3eb3e412aa8cf4eda4c3.html" target="_top" xlink:title="setup">
<polygon fill="#eeeeff" stroke="black" points="129.66,-324 75.66,-324 75.66,-288 129.66,-288 129.66,-324"/>
<text text-anchor="middle" x="102.66" y="-303.5" font-family="Helvetica,sans-Serif" font-size="10.00">setup</text>
</a>
</g>
</g>
<!-- dir_f2c65bfcbdc19ebacbfc0bbbfb0d01b6 -->
<g id="node2" class="node">
<title>dir_f2c65bfcbdc19ebacbfc0bbbfb0d01b6</title>
<g id="a_node2"><a xlink:href="dir_f2c65bfcbdc19ebacbfc0bbbfb0d01b6.html" target="_top" xlink:title="physics">
<polygon fill="white" stroke="red" points="157.66,-252 103.66,-252 103.66,-216 157.66,-216 157.66,-252"/>
<text text-anchor="middle" x="130.66" y="-231.5" font-family="Helvetica,sans-Serif" font-size="10.00">physics</text>
</a>
</g>
</g>
<!-- dir_073a3c37bc9e3eb3e412aa8cf4eda4c3&#45;&gt;dir_f2c65bfcbdc19ebacbfc0bbbfb0d01b6 -->
<g id="edge8" class="edge">
<title>dir_073a3c37bc9e3eb3e412aa8cf4eda4c3&#45;&gt;dir_f2c65bfcbdc19ebacbfc0bbbfb0d01b6</title>
<path fill="none" stroke="black" d="M109.58,-287.7C112.74,-279.81 116.54,-270.3 120.04,-261.55"/>
<polygon fill="black" stroke="black" points="123.36,-262.69 123.82,-252.1 116.86,-260.09 123.36,-262.69"/>
<g id="a_edge8&#45;headlabel"><a xlink:href="dir_000030_000015.html" target="_top" xlink:title="1">
<text text-anchor="middle" x="124.66" y="-264.58" font-family="Helvetica,sans-Serif" font-size="10.00">1</text>
</a>
</g>
</g>
<!-- dir_0c368f76a33d967d5b838b5681461de6 -->
<g id="node3" class="node">
<title>dir_0c368f76a33d967d5b838b5681461de6</title>
<g id="a_node3"><a xlink:href="dir_0c368f76a33d967d5b838b5681461de6.html" target="_top" xlink:title="wind_energy">
<polygon fill="white" stroke="red" points="93.16,-180 14.16,-180 14.16,-144 93.16,-144 93.16,-180"/>
<text text-anchor="middle" x="53.66" y="-159.5" font-family="Helvetica,sans-Serif" font-size="10.00">wind_energy</text>
</a>
</g>
</g>
<!-- dir_073a3c37bc9e3eb3e412aa8cf4eda4c3&#45;&gt;dir_0c368f76a33d967d5b838b5681461de6 -->
<g id="edge9" class="edge">
<title>dir_073a3c37bc9e3eb3e412aa8cf4eda4c3&#45;&gt;dir_0c368f76a33d967d5b838b5681461de6</title>
<path fill="none" stroke="black" d="M96.75,-287.87C88.36,-263.56 72.92,-218.82 62.98,-190.01"/>
<polygon fill="black" stroke="black" points="66.16,-188.5 59.59,-180.19 59.55,-190.78 66.16,-188.5"/>
<g id="a_edge9&#45;headlabel"><a xlink:href="dir_000030_000001.html" target="_top" xlink:title="1">
<text text-anchor="middle" x="70.02" y="-188.47" font-family="Helvetica,sans-Serif" font-size="10.00">1</text>
</a>
</g>
</g>
<!-- dir_e4cd57caa88bf1f4e1bf9521bc47c3c0 -->
<g id="node4" class="node">
<title>dir_e4cd57caa88bf1f4e1bf9521bc47c3c0</title>
<g id="a_node4"><a xlink:href="dir_e4cd57caa88bf1f4e1bf9521bc47c3c0.html" target="_top" xlink:title="utilities">
<polygon fill="white" stroke="red" points="149.66,-108 95.66,-108 95.66,-72 149.66,-72 149.66,-108"/>
<text text-anchor="middle" x="122.66" y="-87.5" font-family="Helvetica,sans-Serif" font-size="10.00">utilities</text>
</a>
</g>
</g>
<!-- dir_073a3c37bc9e3eb3e412aa8cf4eda4c3&#45;&gt;dir_e4cd57caa88bf1f4e1bf9521bc47c3c0 -->
<g id="edge10" class="edge">
<title>dir_073a3c37bc9e3eb3e412aa8cf4eda4c3&#45;&gt;dir_e4cd57caa88bf1f4e1bf9521bc47c3c0</title>
<path fill="none" stroke="black" d="M129.76,-290.39C143.55,-281.34 158.99,-268.32 166.66,-252 187.97,-206.7 160.48,-149.22 140.35,-116.63"/>
<polygon fill="black" stroke="black" points="143.25,-114.67 134.92,-108.13 137.35,-118.44 143.25,-114.67"/>
<g id="a_edge10&#45;headlabel"><a xlink:href="dir_000030_000010.html" target="_top" xlink:title="2">
<text text-anchor="middle" x="147.58" y="-113.67" font-family="Helvetica,sans-Serif" font-size="10.00">2</text>
</a>
</g>
</g>
<!-- dir_3d3615e9a999cab4f3407307569d6ced -->
<g id="node5" class="node">
<title>dir_3d3615e9a999cab4f3407307569d6ced</title>
<g id="a_node5"><a xlink:href="dir_3d3615e9a999cab4f3407307569d6ced.html" target="_top" xlink:title="core">
<polygon fill="white" stroke="red" points="149.66,-36 95.66,-36 95.66,0 149.66,0 149.66,-36"/>
<text text-anchor="middle" x="122.66" y="-15.5" font-family="Helvetica,sans-Serif" font-size="10.00">core</text>
</a>
</g>
</g>
<!-- dir_073a3c37bc9e3eb3e412aa8cf4eda4c3&#45;&gt;dir_3d3615e9a999cab4f3407307569d6ced -->
<g id="edge11" class="edge">
<title>dir_073a3c37bc9e3eb3e412aa8cf4eda4c3&#45;&gt;dir_3d3615e9a999cab4f3407307569d6ced</title>
<path fill="none" stroke="black" d="M79.32,-287.79C44.03,-259.51 -16.63,-200.67 4.66,-144 20.81,-101.03 60.15,-64.57 88.99,-42.31"/>
<polygon fill="black" stroke="black" points="91.3,-44.95 97.19,-36.14 87.09,-39.35 91.3,-44.95"/>
<g id="a_edge11&#45;headlabel"><a xlink:href="dir_000030_000018.html" target="_top" xlink:title="1">
<text text-anchor="middle" x="90.14" y="-46.88" font-family="Helvetica,sans-Serif" font-size="10.00">1</text>
</a>
</g>
</g>
<!-- dir_f2c65bfcbdc19ebacbfc0bbbfb0d01b6&#45;&gt;dir_0c368f76a33d967d5b838b5681461de6 -->
<g id="edge1" class="edge">
<title>dir_f2c65bfcbdc19ebacbfc0bbbfb0d01b6&#45;&gt;dir_0c368f76a33d967d5b838b5681461de6</title>
<path fill="none" stroke="black" d="M111.63,-215.7C102.12,-207.05 90.46,-196.45 80.09,-187.03"/>
<polygon fill="black" stroke="black" points="82.23,-184.24 72.48,-180.1 77.52,-189.42 82.23,-184.24"/>
<g id="a_edge1&#45;headlabel"><a xlink:href="dir_000015_000001.html" target="_top" xlink:title="1">
<text text-anchor="middle" x="86.8" y="-182.06" font-family="Helvetica,sans-Serif" font-size="10.00">1</text>
</a>
</g>
</g>
<!-- dir_f2c65bfcbdc19ebacbfc0bbbfb0d01b6&#45;&gt;dir_e4cd57caa88bf1f4e1bf9521bc47c3c0 -->
<g id="edge2" class="edge">
<title>dir_f2c65bfcbdc19ebacbfc0bbbfb0d01b6&#45;&gt;dir_e4cd57caa88bf1f4e1bf9521bc47c3c0</title>
<path fill="none" stroke="black" d="M125.11,-215.87C121.19,-191.67 118.4,-147.21 118.75,-118.39"/>
<polygon fill="black" stroke="black" points="122.25,-118.29 119.04,-108.19 115.25,-118.08 122.25,-118.29"/>
<g id="a_edge2&#45;headlabel"><a xlink:href="dir_000015_000010.html" target="_top" xlink:title="11">
<text text-anchor="middle" x="124.99" y="-119.46" font-family="Helvetica,sans-Serif" font-size="10.00">11</text>
</a>
</g>
</g>
<!-- dir_f2c65bfcbdc19ebacbfc0bbbfb0d01b6&#45;&gt;dir_3d3615e9a999cab4f3407307569d6ced -->
<g id="edge3" class="edge">
<title>dir_f2c65bfcbdc19ebacbfc0bbbfb0d01b6&#45;&gt;dir_3d3615e9a999cab4f3407307569d6ced</title>
<path fill="none" stroke="black" d="M138.86,-215.75C151.89,-185.91 174.34,-122.98 158.66,-72 155.65,-62.22 150.16,-52.62 144.35,-44.33"/>
<polygon fill="black" stroke="black" points="147.07,-42.13 138.27,-36.23 141.47,-46.33 147.07,-42.13"/>
<g id="a_edge3&#45;headlabel"><a xlink:href="dir_000015_000018.html" target="_top" xlink:title="52">
<text text-anchor="middle" x="151.5" y="-40.8" font-family="Helvetica,sans-Serif" font-size="10.00">52</text>
</a>
</g>
</g>
<!-- dir_0c368f76a33d967d5b838b5681461de6&#45;&gt;dir_e4cd57caa88bf1f4e1bf9521bc47c3c0 -->
<g id="edge4" class="edge">
<title>dir_0c368f76a33d967d5b838b5681461de6&#45;&gt;dir_e4cd57caa88bf1f4e1bf9521bc47c3c0</title>
<path fill="none" stroke="black" d="M70.72,-143.7C79.16,-135.14 89.49,-124.66 98.71,-115.3"/>
<polygon fill="black" stroke="black" points="101.28,-117.68 105.8,-108.1 96.29,-112.77 101.28,-117.68"/>
<g id="a_edge4&#45;headlabel"><a xlink:href="dir_000001_000010.html" target="_top" xlink:title="33">
<text text-anchor="middle" x="100.77" y="-119.74" font-family="Helvetica,sans-Serif" font-size="10.00">33</text>
</a>
</g>
</g>
<!-- dir_0c368f76a33d967d5b838b5681461de6&#45;&gt;dir_3d3615e9a999cab4f3407307569d6ced -->
<g id="edge5" class="edge">
<title>dir_0c368f76a33d967d5b838b5681461de6&#45;&gt;dir_3d3615e9a999cab4f3407307569d6ced</title>
<path fill="none" stroke="black" d="M58.69,-143.75C64.34,-125.43 74.36,-95.88 86.66,-72 91.5,-62.61 97.71,-52.89 103.6,-44.38"/>
<polygon fill="black" stroke="black" points="106.61,-46.18 109.55,-36.01 100.9,-42.13 106.61,-46.18"/>
<g id="a_edge5&#45;headlabel"><a xlink:href="dir_000001_000018.html" target="_top" xlink:title="28">
<text text-anchor="middle" x="106.84" y="-48.26" font-family="Helvetica,sans-Serif" font-size="10.00">28</text>
</a>
</g>
</g>
<!-- dir_e4cd57caa88bf1f4e1bf9521bc47c3c0&#45;&gt;dir_f2c65bfcbdc19ebacbfc0bbbfb0d01b6 -->
<g id="edge6" class="edge">
<title>dir_e4cd57caa88bf1f4e1bf9521bc47c3c0&#45;&gt;dir_f2c65bfcbdc19ebacbfc0bbbfb0d01b6</title>
<path fill="none" stroke="black" d="M128.22,-108.19C132.14,-132.42 134.93,-176.89 134.58,-205.68"/>
<polygon fill="black" stroke="black" points="131.07,-205.77 134.28,-215.87 138.07,-205.98 131.07,-205.77"/>
<g id="a_edge6&#45;headlabel"><a xlink:href="dir_000010_000015.html" target="_top" xlink:title="1">
<text text-anchor="middle" x="128.34" y="-199.6" font-family="Helvetica,sans-Serif" font-size="10.00">1</text>
</a>
</g>
</g>
<!-- dir_e4cd57caa88bf1f4e1bf9521bc47c3c0&#45;&gt;dir_3d3615e9a999cab4f3407307569d6ced -->
<g id="edge7" class="edge">
<title>dir_e4cd57caa88bf1f4e1bf9521bc47c3c0&#45;&gt;dir_3d3615e9a999cab4f3407307569d6ced</title>
<path fill="none" stroke="black" d="M116.75,-71.7C115.95,-63.98 115.72,-54.71 116.07,-46.11"/>
<polygon fill="black" stroke="black" points="119.56,-46.32 116.77,-36.1 112.58,-45.84 119.56,-46.32"/>
<g id="a_edge7&#45;headlabel"><a xlink:href="dir_000010_000018.html" target="_top" xlink:title="21">
<text text-anchor="middle" x="122.14" y="-47.61" font-family="Helvetica,sans-Serif" font-size="10.00">21</text>
</a>
</g>
</g>
<!-- dir_3d3615e9a999cab4f3407307569d6ced&#45;&gt;dir_e4cd57caa88bf1f4e1bf9521bc47c3c0 -->
<g id="edge12" class="edge">
<title>dir_3d3615e9a999cab4f3407307569d6ced&#45;&gt;dir_e4cd57caa88bf1f4e1bf9521bc47c3c0</title>
<path fill="none" stroke="black" d="M128.56,-36.1C129.36,-43.79 129.6,-53.05 129.27,-61.67"/>
<polygon fill="black" stroke="black" points="125.77,-61.48 128.58,-71.7 132.75,-61.96 125.77,-61.48"/>
<g id="a_edge12&#45;headlabel"><a xlink:href="dir_000018_000010.html" target="_top" xlink:title="1">
<text text-anchor="middle" x="123.18" y="-55.2" font-family="Helvetica,sans-Serif" font-size="10.00">1</text>
</a>
</g>
</g>
</g>
</svg>
