<?xml version="1.0" encoding="UTF-8" standalone="no"?>
<!DOCTYPE svg PUBLIC "-//W3C//DTD SVG 1.1//EN"
 "http://www.w3.org/Graphics/SVG/1.1/DTD/svg11.dtd">
<!-- Generated by graphviz version 2.43.0 (0)
 -->
<!-- Title: equation_systems Pages: 1 -->
<!--zoomable 483 -->
<svg id="main" version="1.1" xmlns="http://www.w3.org/2000/svg" xmlns:xlink="http://www.w3.org/1999/xlink" xml:space="preserve" onload="init(evt)">
<style type="text/css"><![CDATA[
.edge:hover path { stroke: red; }
.edge:hover polygon { stroke: red; fill: red; }
]]></style>
<script type="text/javascript"><![CDATA[
var edges = document.getElementsByTagName('g');
if (edges && edges.length) {
  for (var i=0;i<edges.length;i++) {
    if (edges[i].id.substr(0,4)=='edge') {
      edges[i].setAttribute('class','edge');
    }
  }
}
]]></script>
        <defs>
                <circle id="rim" cx="0" cy="0" r="7"/>
                <circle id="rim2" cx="0" cy="0" r="3.5"/>
                <g id="zoomPlus">
                        <use xlink:href="#rim" fill="#404040">
                                <set attributeName="fill" to="#808080" begin="zoomplus.mouseover" end="zoomplus.mouseout"/>
                        </use>
                        <path d="M-4,0h8M0,-4v8" fill="none" stroke="white" stroke-width="1.5" pointer-events="none"/>
                </g>
                <g id="zoomMin">
                        <use xlink:href="#rim" fill="#404040">
                                <set attributeName="fill" to="#808080" begin="zoomminus.mouseover" end="zoomminus.mouseout"/>
                        </use>
                        <path d="M-4,0h8" fill="none" stroke="white" stroke-width="1.5" pointer-events="none"/>
                </g>
                <g id="dirArrow">
                        <path fill="none" stroke="white" stroke-width="1.5" d="M0,-3.0v7 M-2.5,-0.5L0,-3.0L2.5,-0.5"/>
                </g>
               <g id="resetDef">
                       <use xlink:href="#rim2" fill="#404040">
                               <set attributeName="fill" to="#808080" begin="reset.mouseover" end="reset.mouseout"/>
                       </use>
               </g>
        </defs>

<script type="text/javascript">
var viewWidth = 834;
var viewHeight = 483;
var sectionId = 'dynsection-0';
</script>
<script xlink:href="svgpan.js"/>
<svg id="graph" class="graph">
<g id="viewport">
<title>equation_systems</title>
<polygon fill="white" stroke="transparent" points="-4,4 -4,-479 829.6,-479 829.6,4 -4,4"/>
<g id="clust1" class="cluster">
<title>clusterdir_d85575251dd712327fe3cf057fa568b4</title>
<g id="a_clust1"><a xlink:href="dir_d85575251dd712327fe3cf057fa568b4.html" target="_top" xlink:title="amr&#45;wind">
<polygon fill="#ddddee" stroke="black" points="145,-344 145,-431 813,-431 813,-344 145,-344"/>
<text text-anchor="middle" x="479" y="-419" font-family="Helvetica,sans-Serif" font-size="10.00">amr&#45;wind</text>
</a>
</g>
</g>
<g id="clust2" class="cluster">
<title>clusterdir_4bb30ed846ea1df1fc4d16874a455d91</title>
<g id="a_clust2"><a xlink:href="dir_4bb30ed846ea1df1fc4d16874a455d91.html" target="_top">
<polygon fill="#eeeeff" stroke="black" points="153,-352 153,-404 805,-404 805,-352 153,-352"/>
</a>
</g>
</g>
<!-- dir_4bb30ed846ea1df1fc4d16874a455d91 -->
<g id="node1" class="node">
<title>dir_4bb30ed846ea1df1fc4d16874a455d91</title>
<text text-anchor="middle" x="504" y="-375.5" font-family="Helvetica,sans-Serif" font-size="10.00">equation_systems</text>
</g>
<!-- dir_9ff815a534beac751fa88e427dbab695 -->
<g id="node9" class="node">
<title>dir_9ff815a534beac751fa88e427dbab695</title>
<g id="a_node9"><a xlink:href="dir_9ff815a534beac751fa88e427dbab695.html" target="_top" xlink:title="turbulence">
<polygon fill="white" stroke="red" points="440,-475 372,-475 372,-439 440,-439 440,-475"/>
<text text-anchor="middle" x="406" y="-454.5" font-family="Helvetica,sans-Serif" font-size="10.00">turbulence</text>
</a>
</g>
</g>
<!-- dir_4bb30ed846ea1df1fc4d16874a455d91&#45;&gt;dir_9ff815a534beac751fa88e427dbab695 -->
<g id="edge38" class="edge">
<title>dir_4bb30ed846ea1df1fc4d16874a455d91&#45;&gt;dir_9ff815a534beac751fa88e427dbab695</title>
<path fill="none" stroke="black" d="M484.55,-396.09C472.52,-406.47 456.62,-419.83 442,-431 441.26,-431.57 440.51,-432.13 439.75,-432.71"/>
<polygon fill="black" stroke="black" points="437.4,-430.08 431.39,-438.8 441.53,-435.74 437.4,-430.08"/>
<g id="a_edge38&#45;headlabel"><a xlink:href="dir_000002_000031.html" target="_top" xlink:title="4">
<text text-anchor="middle" x="438.64" y="-423.17" font-family="Helvetica,sans-Serif" font-size="10.00">4</text>
</a>
</g>
</g>
<!-- dir_35ffb1505af3943bdf99903da87524fe -->
<g id="node11" class="node">
<title>dir_35ffb1505af3943bdf99903da87524fe</title>
<g id="a_node11"><a xlink:href="dir_35ffb1505af3943bdf99903da87524fe.html" target="_top" xlink:title="convection">
<polygon fill="none" stroke="black" points="539,-475 469,-475 469,-439 539,-439 539,-475"/>
<text text-anchor="middle" x="504" y="-454.5" font-family="Helvetica,sans-Serif" font-size="10.00">convection</text>
</a>
</g>
</g>
<!-- dir_4bb30ed846ea1df1fc4d16874a455d91&#45;&gt;dir_35ffb1505af3943bdf99903da87524fe -->
<g id="edge39" class="edge">
<title>dir_4bb30ed846ea1df1fc4d16874a455d91&#45;&gt;dir_35ffb1505af3943bdf99903da87524fe</title>
<path fill="none" stroke="black" d="M504,-396.04C504,-405.6 504,-417.76 504,-428.62"/>
<polygon fill="black" stroke="black" points="500.5,-428.91 504,-438.91 507.5,-428.91 500.5,-428.91"/>
<g id="a_edge39&#45;headlabel"><a xlink:href="dir_000002_000027.html" target="_top" xlink:title="2">
<text text-anchor="middle" x="497.66" y="-422.82" font-family="Helvetica,sans-Serif" font-size="10.00">2</text>
</a>
</g>
</g>
<!-- dir_ebb19deee3cd40f4ac122fef25c04ca8 -->
<g id="node13" class="node">
<title>dir_ebb19deee3cd40f4ac122fef25c04ca8</title>
<g id="a_node13"><a xlink:href="dir_ebb19deee3cd40f4ac122fef25c04ca8.html" target="_top" xlink:title="boundary_conditions">
<polygon fill="none" stroke="black" points="413,-36 295,-36 295,0 413,0 413,-36"/>
<text text-anchor="middle" x="354" y="-15.5" font-family="Helvetica,sans-Serif" font-size="10.00">boundary_conditions</text>
</a>
</g>
</g>
<!-- dir_4bb30ed846ea1df1fc4d16874a455d91&#45;&gt;dir_ebb19deee3cd40f4ac122fef25c04ca8 -->
<g id="edge40" class="edge">
<title>dir_4bb30ed846ea1df1fc4d16874a455d91&#45;&gt;dir_ebb19deee3cd40f4ac122fef25c04ca8</title>
<path fill="none" stroke="black" d="M503.48,-359.72C501.67,-319.79 493.63,-218.83 458,-144 439.16,-104.44 404.94,-66.9 380.91,-43.48"/>
<polygon fill="black" stroke="black" points="383.15,-40.77 373.5,-36.38 378.3,-45.83 383.15,-40.77"/>
<g id="a_edge40&#45;headlabel"><a xlink:href="dir_000002_000012.html" target="_top" xlink:title="2">
<text text-anchor="middle" x="387.71" y="-38.71" font-family="Helvetica,sans-Serif" font-size="10.00">2</text>
</a>
</g>
</g>
<!-- dir_e4cd57caa88bf1f4e1bf9521bc47c3c0 -->
<g id="node14" class="node">
<title>dir_e4cd57caa88bf1f4e1bf9521bc47c3c0</title>
<g id="a_node14"><a xlink:href="dir_e4cd57caa88bf1f4e1bf9521bc47c3c0.html" target="_top" xlink:title="utilities">
<polygon fill="white" stroke="red" points="99,-396 45,-396 45,-360 99,-360 99,-396"/>
<text text-anchor="middle" x="72" y="-375.5" font-family="Helvetica,sans-Serif" font-size="10.00">utilities</text>
</a>
</g>
</g>
<!-- dir_4bb30ed846ea1df1fc4d16874a455d91&#45;&gt;dir_e4cd57caa88bf1f4e1bf9521bc47c3c0 -->
<g id="edge41" class="edge">
<title>dir_4bb30ed846ea1df1fc4d16874a455d91&#45;&gt;dir_e4cd57caa88bf1f4e1bf9521bc47c3c0</title>
<path fill="none" stroke="black" d="M490.01,-396.11C477.13,-410.85 456.5,-430.01 433,-435 418.06,-438.17 172.95,-438.17 158,-435 135.47,-430.22 113.88,-415.86 97.96,-402.75"/>
<polygon fill="black" stroke="black" points="100.05,-399.93 90.18,-396.07 95.49,-405.24 100.05,-399.93"/>
<g id="a_edge41&#45;headlabel"><a xlink:href="dir_000002_000010.html" target="_top" xlink:title="9">
<text text-anchor="middle" x="104.63" y="-397.62" font-family="Helvetica,sans-Serif" font-size="10.00">9</text>
</a>
</g>
</g>
<!-- dir_a816a247b59c90f95e41afe29b966a18 -->
<g id="node15" class="node">
<title>dir_a816a247b59c90f95e41afe29b966a18</title>
<g id="a_node15"><a xlink:href="dir_a816a247b59c90f95e41afe29b966a18.html" target="_top" xlink:title="diffusion">
<polygon fill="none" stroke="black" points="412.5,-180 353.5,-180 353.5,-144 412.5,-144 412.5,-180"/>
<text text-anchor="middle" x="383" y="-159.5" font-family="Helvetica,sans-Serif" font-size="10.00">diffusion</text>
</a>
</g>
</g>
<!-- dir_4bb30ed846ea1df1fc4d16874a455d91&#45;&gt;dir_a816a247b59c90f95e41afe29b966a18 -->
<g id="edge42" class="edge">
<title>dir_4bb30ed846ea1df1fc4d16874a455d91&#45;&gt;dir_a816a247b59c90f95e41afe29b966a18</title>
<path fill="none" stroke="black" d="M494.3,-359.85C473.15,-322.44 422.76,-233.32 397.69,-188.98"/>
<polygon fill="black" stroke="black" points="400.71,-187.21 392.74,-180.23 394.62,-190.66 400.71,-187.21"/>
<g id="a_edge42&#45;headlabel"><a xlink:href="dir_000002_000023.html" target="_top" xlink:title="1">
<text text-anchor="middle" x="404.95" y="-186.45" font-family="Helvetica,sans-Serif" font-size="10.00">1</text>
</a>
</g>
</g>
<!-- dir_70329d5a297148af2b67b1d844b9f654 -->
<g id="node2" class="node">
<title>dir_70329d5a297148af2b67b1d844b9f654</title>
<g id="a_node2"><a xlink:href="dir_70329d5a297148af2b67b1d844b9f654.html" target="_top" xlink:title="density">
<polygon fill="white" stroke="black" points="797,-396 743,-396 743,-360 797,-360 797,-396"/>
<text text-anchor="middle" x="770" y="-375.5" font-family="Helvetica,sans-Serif" font-size="10.00">density</text>
</a>
</g>
</g>
<!-- dir_3d3615e9a999cab4f3407307569d6ced -->
<g id="node16" class="node">
<title>dir_3d3615e9a999cab4f3407307569d6ced</title>
<g id="a_node16"><a xlink:href="dir_3d3615e9a999cab4f3407307569d6ced.html" target="_top" xlink:title="core">
<polygon fill="white" stroke="red" points="381,-108 327,-108 327,-72 381,-72 381,-108"/>
<text text-anchor="middle" x="354" y="-87.5" font-family="Helvetica,sans-Serif" font-size="10.00">core</text>
</a>
</g>
</g>
<!-- dir_70329d5a297148af2b67b1d844b9f654&#45;&gt;dir_3d3615e9a999cab4f3407307569d6ced -->
<g id="edge5" class="edge">
<title>dir_70329d5a297148af2b67b1d844b9f654&#45;&gt;dir_3d3615e9a999cab4f3407307569d6ced</title>
<path fill="none" stroke="black" d="M756.79,-359.81C722.89,-316.89 628.17,-204.17 524,-144 481.73,-119.58 426.92,-105.12 391.13,-97.63"/>
<polygon fill="black" stroke="black" points="391.61,-94.15 381.12,-95.61 390.23,-101.01 391.61,-94.15"/>
<g id="a_edge5&#45;headlabel"><a xlink:href="dir_000022_000018.html" target="_top" xlink:title="4">
<text text-anchor="middle" x="395.7" y="-89.58" font-family="Helvetica,sans-Serif" font-size="10.00">4</text>
</a>
</g>
</g>
<!-- dir_4012ff34c1bb5bd303e44a1c9cef6c8a -->
<g id="node3" class="node">
<title>dir_4012ff34c1bb5bd303e44a1c9cef6c8a</title>
<g id="a_node3"><a xlink:href="dir_4012ff34c1bb5bd303e44a1c9cef6c8a.html" target="_top" xlink:title="icns">
<polygon fill="white" stroke="red" points="289,-396 235,-396 235,-360 289,-360 289,-396"/>
<text text-anchor="middle" x="262" y="-375.5" font-family="Helvetica,sans-Serif" font-size="10.00">icns</text>
</a>
</g>
</g>
<!-- dir_0c368f76a33d967d5b838b5681461de6 -->
<g id="node12" class="node">
<title>dir_0c368f76a33d967d5b838b5681461de6</title>
<g id="a_node12"><a xlink:href="dir_0c368f76a33d967d5b838b5681461de6.html" target="_top" xlink:title="wind_energy">
<polygon fill="white" stroke="red" points="374.5,-252 295.5,-252 295.5,-216 374.5,-216 374.5,-252"/>
<text text-anchor="middle" x="335" y="-231.5" font-family="Helvetica,sans-Serif" font-size="10.00">wind_energy</text>
</a>
</g>
</g>
<!-- dir_4012ff34c1bb5bd303e44a1c9cef6c8a&#45;&gt;dir_0c368f76a33d967d5b838b5681461de6 -->
<g id="edge27" class="edge">
<title>dir_4012ff34c1bb5bd303e44a1c9cef6c8a&#45;&gt;dir_0c368f76a33d967d5b838b5681461de6</title>
<path fill="none" stroke="black" d="M270.81,-359.87C283.41,-335.35 306.71,-290.03 321.5,-261.26"/>
<polygon fill="black" stroke="black" points="324.71,-262.68 326.16,-252.19 318.48,-259.48 324.71,-262.68"/>
<g id="a_edge27&#45;headlabel"><a xlink:href="dir_000003_000001.html" target="_top" xlink:title="3">
<text text-anchor="middle" x="325.59" y="-264.68" font-family="Helvetica,sans-Serif" font-size="10.00">3</text>
</a>
</g>
</g>
<!-- dir_4012ff34c1bb5bd303e44a1c9cef6c8a&#45;&gt;dir_ebb19deee3cd40f4ac122fef25c04ca8 -->
<g id="edge28" class="edge">
<title>dir_4012ff34c1bb5bd303e44a1c9cef6c8a&#45;&gt;dir_ebb19deee3cd40f4ac122fef25c04ca8</title>
<path fill="none" stroke="black" d="M260.86,-359.9C259.89,-341.96 258.94,-312.95 261,-288 269.19,-189.05 274.84,-161.41 318,-72 322.52,-62.63 328.55,-53.04 334.37,-44.63"/>
<polygon fill="black" stroke="black" points="337.32,-46.52 340.29,-36.36 331.63,-42.45 337.32,-46.52"/>
<g id="a_edge28&#45;headlabel"><a xlink:href="dir_000003_000012.html" target="_top" xlink:title="1">
<text text-anchor="middle" x="337.53" y="-48.6" font-family="Helvetica,sans-Serif" font-size="10.00">1</text>
</a>
</g>
</g>
<!-- dir_4012ff34c1bb5bd303e44a1c9cef6c8a&#45;&gt;dir_e4cd57caa88bf1f4e1bf9521bc47c3c0 -->
<g id="edge29" class="edge">
<title>dir_4012ff34c1bb5bd303e44a1c9cef6c8a&#45;&gt;dir_e4cd57caa88bf1f4e1bf9521bc47c3c0</title>
<path fill="none" stroke="black" d="M253.06,-396.13C246.77,-407.37 237.44,-421.44 226,-431 214.39,-440.71 172.81,-438.14 158,-435 135.47,-430.22 113.88,-415.86 97.96,-402.75"/>
<polygon fill="black" stroke="black" points="100.05,-399.93 90.18,-396.07 95.49,-405.24 100.05,-399.93"/>
<g id="a_edge29&#45;headlabel"><a xlink:href="dir_000003_000010.html" target="_top" xlink:title="7">
<text text-anchor="middle" x="104.63" y="-397.62" font-family="Helvetica,sans-Serif" font-size="10.00">7</text>
</a>
</g>
</g>
<!-- dir_4012ff34c1bb5bd303e44a1c9cef6c8a&#45;&gt;dir_3d3615e9a999cab4f3407307569d6ced -->
<g id="edge30" class="edge">
<title>dir_4012ff34c1bb5bd303e44a1c9cef6c8a&#45;&gt;dir_3d3615e9a999cab4f3407307569d6ced</title>
<path fill="none" stroke="black" d="M262.78,-359.63C264.55,-329.62 270.12,-266.43 287,-216 299.13,-179.77 321.17,-141.53 336.65,-117.03"/>
<polygon fill="black" stroke="black" points="339.77,-118.66 342.23,-108.35 333.88,-114.87 339.77,-118.66"/>
<g id="a_edge30&#45;headlabel"><a xlink:href="dir_000003_000018.html" target="_top" xlink:title="19">
<text text-anchor="middle" x="340.22" y="-120.72" font-family="Helvetica,sans-Serif" font-size="10.00">19</text>
</a>
</g>
</g>
<!-- dir_ce0741f9b73f67c263a459724eeecf8b -->
<g id="node4" class="node">
<title>dir_ce0741f9b73f67c263a459724eeecf8b</title>
<g id="a_node4"><a xlink:href="dir_ce0741f9b73f67c263a459724eeecf8b.html" target="_top" xlink:title="levelset">
<polygon fill="white" stroke="black" points="217,-396 161,-396 161,-360 217,-360 217,-396"/>
<text text-anchor="middle" x="189" y="-375.5" font-family="Helvetica,sans-Serif" font-size="10.00">levelset</text>
</a>
</g>
</g>
<!-- dir_f2c65bfcbdc19ebacbfc0bbbfb0d01b6 -->
<g id="node10" class="node">
<title>dir_f2c65bfcbdc19ebacbfc0bbbfb0d01b6</title>
<g id="a_node10"><a xlink:href="dir_f2c65bfcbdc19ebacbfc0bbbfb0d01b6.html" target="_top" xlink:title="physics">
<polygon fill="white" stroke="red" points="201,-324 147,-324 147,-288 201,-288 201,-324"/>
<text text-anchor="middle" x="174" y="-303.5" font-family="Helvetica,sans-Serif" font-size="10.00">physics</text>
</a>
</g>
</g>
<!-- dir_ce0741f9b73f67c263a459724eeecf8b&#45;&gt;dir_f2c65bfcbdc19ebacbfc0bbbfb0d01b6 -->
<g id="edge14" class="edge">
<title>dir_ce0741f9b73f67c263a459724eeecf8b&#45;&gt;dir_f2c65bfcbdc19ebacbfc0bbbfb0d01b6</title>
<path fill="none" stroke="black" d="M185.29,-359.7C183.64,-351.98 181.65,-342.71 179.81,-334.11"/>
<polygon fill="black" stroke="black" points="183.18,-333.15 177.67,-324.1 176.34,-334.62 183.18,-333.15"/>
<g id="a_edge14&#45;headlabel"><a xlink:href="dir_000035_000015.html" target="_top" xlink:title="1">
<text text-anchor="middle" x="186.71" y="-333.57" font-family="Helvetica,sans-Serif" font-size="10.00">1</text>
</a>
</g>
</g>
<!-- dir_9f8434f21d2c2598f33c85a8b98c6d56 -->
<g id="node5" class="node">
<title>dir_9f8434f21d2c2598f33c85a8b98c6d56</title>
<g id="a_node5"><a xlink:href="dir_9f8434f21d2c2598f33c85a8b98c6d56.html" target="_top" xlink:title="sdr">
<polygon fill="white" stroke="red" points="433,-396 379,-396 379,-360 433,-360 433,-396"/>
<text text-anchor="middle" x="406" y="-375.5" font-family="Helvetica,sans-Serif" font-size="10.00">sdr</text>
</a>
</g>
</g>
<!-- dir_9f8434f21d2c2598f33c85a8b98c6d56&#45;&gt;dir_9ff815a534beac751fa88e427dbab695 -->
<g id="edge31" class="edge">
<title>dir_9f8434f21d2c2598f33c85a8b98c6d56&#45;&gt;dir_9ff815a534beac751fa88e427dbab695</title>
<path fill="none" stroke="black" d="M400.29,-396.04C399.25,-405.6 398.99,-417.76 399.51,-428.62"/>
<polygon fill="black" stroke="black" points="396.04,-429.2 400.28,-438.91 403.02,-428.68 396.04,-429.2"/>
<g id="a_edge31&#45;headlabel"><a xlink:href="dir_000045_000031.html" target="_top" xlink:title="1">
<text text-anchor="middle" x="392.94" y="-423.33" font-family="Helvetica,sans-Serif" font-size="10.00">1</text>
</a>
</g>
</g>
<!-- dir_9f8434f21d2c2598f33c85a8b98c6d56&#45;&gt;dir_3d3615e9a999cab4f3407307569d6ced -->
<g id="edge32" class="edge">
<title>dir_9f8434f21d2c2598f33c85a8b98c6d56&#45;&gt;dir_3d3615e9a999cab4f3407307569d6ced</title>
<path fill="none" stroke="black" d="M414.99,-359.91C434.88,-319.54 477.83,-216.22 438,-144 427.88,-125.65 408.45,-112.78 390.82,-104.32"/>
<polygon fill="black" stroke="black" points="391.84,-100.95 381.28,-100.07 388.99,-107.34 391.84,-100.95"/>
<g id="a_edge32&#45;headlabel"><a xlink:href="dir_000045_000018.html" target="_top" xlink:title="6">
<text text-anchor="middle" x="396.28" y="-97.32" font-family="Helvetica,sans-Serif" font-size="10.00">6</text>
</a>
</g>
</g>
<!-- dir_c96908905c9887b0bdc2167e5354d30c -->
<g id="node6" class="node">
<title>dir_c96908905c9887b0bdc2167e5354d30c</title>
<g id="a_node6"><a xlink:href="dir_c96908905c9887b0bdc2167e5354d30c.html" target="_top" xlink:title="temperature">
<polygon fill="white" stroke="black" points="652.5,-396 575.5,-396 575.5,-360 652.5,-360 652.5,-396"/>
<text text-anchor="middle" x="614" y="-375.5" font-family="Helvetica,sans-Serif" font-size="10.00">temperature</text>
</a>
</g>
</g>
<!-- dir_c96908905c9887b0bdc2167e5354d30c&#45;&gt;dir_3d3615e9a999cab4f3407307569d6ced -->
<g id="edge15" class="edge">
<title>dir_c96908905c9887b0bdc2167e5354d30c&#45;&gt;dir_3d3615e9a999cab4f3407307569d6ced</title>
<path fill="none" stroke="black" d="M606.36,-359.92C586.96,-318.21 532.08,-209.77 458,-144 438.29,-126.5 411.76,-113.1 390.43,-104.15"/>
<polygon fill="black" stroke="black" points="391.62,-100.86 381.04,-100.35 388.99,-107.35 391.62,-100.86"/>
<g id="a_edge15&#45;headlabel"><a xlink:href="dir_000047_000018.html" target="_top" xlink:title="4">
<text text-anchor="middle" x="396.02" y="-97.07" font-family="Helvetica,sans-Serif" font-size="10.00">4</text>
</a>
</g>
</g>
<!-- dir_be932497d8c26b6aa8596ee64638838f -->
<g id="node7" class="node">
<title>dir_be932497d8c26b6aa8596ee64638838f</title>
<g id="a_node7"><a xlink:href="dir_be932497d8c26b6aa8596ee64638838f.html" target="_top" xlink:title="tke">
<polygon fill="white" stroke="red" points="725,-396 671,-396 671,-360 725,-360 725,-396"/>
<text text-anchor="middle" x="698" y="-375.5" font-family="Helvetica,sans-Serif" font-size="10.00">tke</text>
</a>
</g>
</g>
<!-- dir_be932497d8c26b6aa8596ee64638838f&#45;&gt;dir_9ff815a534beac751fa88e427dbab695 -->
<g id="edge6" class="edge">
<title>dir_be932497d8c26b6aa8596ee64638838f&#45;&gt;dir_9ff815a534beac751fa88e427dbab695</title>
<path fill="none" stroke="black" d="M683.76,-396.03C676.38,-408.1 666.76,-423.44 653,-431 633.32,-441.82 473.13,-435.15 451,-439 450.67,-439.06 450.33,-439.12 449.99,-439.18"/>
<polygon fill="black" stroke="black" points="449.13,-435.78 440.1,-441.33 450.62,-442.62 449.13,-435.78"/>
<g id="a_edge6&#45;headlabel"><a xlink:href="dir_000033_000031.html" target="_top" xlink:title="2">
<text text-anchor="middle" x="452.04" y="-429.75" font-family="Helvetica,sans-Serif" font-size="10.00">2</text>
</a>
</g>
</g>
<!-- dir_be932497d8c26b6aa8596ee64638838f&#45;&gt;dir_3d3615e9a999cab4f3407307569d6ced -->
<g id="edge7" class="edge">
<title>dir_be932497d8c26b6aa8596ee64638838f&#45;&gt;dir_3d3615e9a999cab4f3407307569d6ced</title>
<path fill="none" stroke="black" d="M686.82,-359.91C658.42,-317.7 579.25,-207.36 488,-144 458.26,-123.35 419.32,-109.11 391.09,-100.63"/>
<polygon fill="black" stroke="black" points="391.79,-97.19 381.21,-97.77 389.84,-103.91 391.79,-97.19"/>
<g id="a_edge7&#45;headlabel"><a xlink:href="dir_000033_000018.html" target="_top" xlink:title="6">
<text text-anchor="middle" x="396.03" y="-92.96" font-family="Helvetica,sans-Serif" font-size="10.00">6</text>
</a>
</g>
</g>
<!-- dir_bfcf7e25e8a41bb3b30f8e11e2280479 -->
<g id="node8" class="node">
<title>dir_bfcf7e25e8a41bb3b30f8e11e2280479</title>
<g id="a_node8"><a xlink:href="dir_bfcf7e25e8a41bb3b30f8e11e2280479.html" target="_top" xlink:title="vof">
<polygon fill="white" stroke="black" points="361,-396 307,-396 307,-360 361,-360 361,-396"/>
<text text-anchor="middle" x="334" y="-375.5" font-family="Helvetica,sans-Serif" font-size="10.00">vof</text>
</a>
</g>
</g>
<!-- dir_bfcf7e25e8a41bb3b30f8e11e2280479&#45;&gt;dir_f2c65bfcbdc19ebacbfc0bbbfb0d01b6 -->
<g id="edge34" class="edge">
<title>dir_bfcf7e25e8a41bb3b30f8e11e2280479&#45;&gt;dir_f2c65bfcbdc19ebacbfc0bbbfb0d01b6</title>
<path fill="none" stroke="black" d="M309.94,-359.83C303.48,-354.13 296.38,-348.18 289,-344 264.57,-330.14 234.44,-321 211.04,-315.27"/>
<polygon fill="black" stroke="black" points="211.67,-311.82 201.13,-312.94 210.07,-318.63 211.67,-311.82"/>
<g id="a_edge34&#45;headlabel"><a xlink:href="dir_000028_000015.html" target="_top" xlink:title="1">
<text text-anchor="middle" x="215.82" y="-307.38" font-family="Helvetica,sans-Serif" font-size="10.00">1</text>
</a>
</g>
</g>
<!-- dir_bfcf7e25e8a41bb3b30f8e11e2280479&#45;&gt;dir_3d3615e9a999cab4f3407307569d6ced -->
<g id="edge35" class="edge">
<title>dir_bfcf7e25e8a41bb3b30f8e11e2280479&#45;&gt;dir_3d3615e9a999cab4f3407307569d6ced</title>
<path fill="none" stroke="black" d="M344.63,-359.93C364.56,-326.77 406.93,-250.71 422,-180 425.34,-164.35 429.02,-158.38 422,-144 415.12,-129.9 402.47,-118.47 389.93,-109.87"/>
<polygon fill="black" stroke="black" points="391.66,-106.82 381.35,-104.38 387.88,-112.72 391.66,-106.82"/>
<g id="a_edge35&#45;headlabel"><a xlink:href="dir_000028_000018.html" target="_top" xlink:title="1">
<text text-anchor="middle" x="396.21" y="-103.86" font-family="Helvetica,sans-Serif" font-size="10.00">1</text>
</a>
</g>
</g>
<!-- dir_9ff815a534beac751fa88e427dbab695&#45;&gt;dir_9f8434f21d2c2598f33c85a8b98c6d56 -->
<g id="edge3" class="edge">
<title>dir_9ff815a534beac751fa88e427dbab695&#45;&gt;dir_9f8434f21d2c2598f33c85a8b98c6d56</title>
<path fill="none" stroke="black" d="M411.72,-438.91C412.75,-429.34 413.01,-417.18 412.49,-406.32"/>
<polygon fill="black" stroke="black" points="415.96,-405.75 411.72,-396.04 408.98,-406.28 415.96,-405.75"/>
<g id="a_edge3&#45;headlabel"><a xlink:href="dir_000031_000045.html" target="_top" xlink:title="3">
<text text-anchor="middle" x="419.06" y="-406.62" font-family="Helvetica,sans-Serif" font-size="10.00">3</text>
</a>
</g>
</g>
<!-- dir_9ff815a534beac751fa88e427dbab695&#45;&gt;dir_be932497d8c26b6aa8596ee64638838f -->
<g id="edge1" class="edge">
<title>dir_9ff815a534beac751fa88e427dbab695&#45;&gt;dir_be932497d8c26b6aa8596ee64638838f</title>
<path fill="none" stroke="black" d="M440.26,-446.36C449.58,-443.47 459.61,-440.63 469,-439 491.13,-435.15 651.32,-441.82 671,-431 681.43,-425.27 689.48,-415.07 694.61,-405.22"/>
<polygon fill="black" stroke="black" points="697.83,-406.6 698.63,-396.03 691.42,-403.79 697.83,-406.6"/>
<g id="a_edge1&#45;headlabel"><a xlink:href="dir_000031_000033.html" target="_top" xlink:title="4">
<text text-anchor="middle" x="699" y="-408.53" font-family="Helvetica,sans-Serif" font-size="10.00">4</text>
</a>
</g>
</g>
<!-- dir_9ff815a534beac751fa88e427dbab695&#45;&gt;dir_e4cd57caa88bf1f4e1bf9521bc47c3c0 -->
<g id="edge2" class="edge">
<title>dir_9ff815a534beac751fa88e427dbab695&#45;&gt;dir_e4cd57caa88bf1f4e1bf9521bc47c3c0</title>
<path fill="none" stroke="black" d="M371.75,-456.44C304.27,-456.76 156.88,-454.64 113,-431 101.89,-425.01 92.76,-414.59 85.97,-404.64"/>
<polygon fill="black" stroke="black" points="88.9,-402.73 80.6,-396.15 82.98,-406.47 88.9,-402.73"/>
<g id="a_edge2&#45;headlabel"><a xlink:href="dir_000031_000010.html" target="_top" xlink:title="1">
<text text-anchor="middle" x="93.22" y="-401.76" font-family="Helvetica,sans-Serif" font-size="10.00">1</text>
</a>
</g>
</g>
<!-- dir_9ff815a534beac751fa88e427dbab695&#45;&gt;dir_3d3615e9a999cab4f3407307569d6ced -->
<g id="edge4" class="edge">
<title>dir_9ff815a534beac751fa88e427dbab695&#45;&gt;dir_3d3615e9a999cab4f3407307569d6ced</title>
<path fill="none" stroke="black" d="M371.76,-456.28C284.43,-456.65 58.64,-455.22 36,-431 -60.39,-327.88 55.58,-223.81 172,-144 216.04,-113.81 277.36,-100.6 316.37,-94.97"/>
<polygon fill="black" stroke="black" points="317.3,-98.38 326.75,-93.58 316.37,-91.44 317.3,-98.38"/>
<g id="a_edge4&#45;headlabel"><a xlink:href="dir_000031_000018.html" target="_top" xlink:title="5">
<text text-anchor="middle" x="314.12" y="-99.17" font-family="Helvetica,sans-Serif" font-size="10.00">5</text>
</a>
</g>
</g>
<!-- dir_f2c65bfcbdc19ebacbfc0bbbfb0d01b6&#45;&gt;dir_4012ff34c1bb5bd303e44a1c9cef6c8a -->
<g id="edge11" class="edge">
<title>dir_f2c65bfcbdc19ebacbfc0bbbfb0d01b6&#45;&gt;dir_4012ff34c1bb5bd303e44a1c9cef6c8a</title>
<path fill="none" stroke="black" d="M199.33,-324.08C207.96,-330.15 217.56,-337.17 226,-344 229.51,-346.84 233.11,-349.92 236.62,-353.02"/>
<polygon fill="black" stroke="black" points="234.31,-355.65 244.07,-359.76 239,-350.46 234.31,-355.65"/>
<g id="a_edge11&#45;headlabel"><a xlink:href="dir_000015_000003.html" target="_top" xlink:title="2">
<text text-anchor="middle" x="229.74" y="-352.85" font-family="Helvetica,sans-Serif" font-size="10.00">2</text>
</a>
</g>
</g>
<!-- dir_f2c65bfcbdc19ebacbfc0bbbfb0d01b6&#45;&gt;dir_bfcf7e25e8a41bb3b30f8e11e2280479 -->
<g id="edge12" class="edge">
<title>dir_f2c65bfcbdc19ebacbfc0bbbfb0d01b6&#45;&gt;dir_bfcf7e25e8a41bb3b30f8e11e2280479</title>
<path fill="none" stroke="black" d="M201.2,-310.26C229.48,-314.9 273.59,-325.05 307,-344 311.38,-346.48 315.66,-349.59 319.55,-352.9"/>
<polygon fill="black" stroke="black" points="317.2,-355.49 326.87,-359.83 322.02,-350.41 317.2,-355.49"/>
<g id="a_edge12&#45;headlabel"><a xlink:href="dir_000015_000028.html" target="_top" xlink:title="1">
<text text-anchor="middle" x="312.64" y="-352.58" font-family="Helvetica,sans-Serif" font-size="10.00">1</text>
</a>
</g>
</g>
<!-- dir_f2c65bfcbdc19ebacbfc0bbbfb0d01b6&#45;&gt;dir_9ff815a534beac751fa88e427dbab695 -->
<g id="edge8" class="edge">
<title>dir_f2c65bfcbdc19ebacbfc0bbbfb0d01b6&#45;&gt;dir_9ff815a534beac751fa88e427dbab695</title>
<path fill="none" stroke="black" d="M159.2,-324.33C155.07,-330.19 151.13,-337.03 149,-344 137.68,-380.97 123.02,-402.37 149,-431 162.99,-446.41 291.94,-452.62 361.69,-454.87"/>
<polygon fill="black" stroke="black" points="361.83,-458.37 371.94,-455.18 362.05,-451.38 361.83,-458.37"/>
<g id="a_edge8&#45;headlabel"><a xlink:href="dir_000015_000031.html" target="_top" xlink:title="1">
<text text-anchor="middle" x="358.15" y="-458.6" font-family="Helvetica,sans-Serif" font-size="10.00">1</text>
</a>
</g>
</g>
<!-- dir_f2c65bfcbdc19ebacbfc0bbbfb0d01b6&#45;&gt;dir_0c368f76a33d967d5b838b5681461de6 -->
<g id="edge9" class="edge">
<title>dir_f2c65bfcbdc19ebacbfc0bbbfb0d01b6&#45;&gt;dir_0c368f76a33d967d5b838b5681461de6</title>
<path fill="none" stroke="black" d="M201.31,-293.13C224.61,-283 258.66,-268.19 286.56,-256.06"/>
<polygon fill="black" stroke="black" points="287.99,-259.26 295.77,-252.06 285.2,-252.84 287.99,-259.26"/>
<g id="a_edge9&#45;headlabel"><a xlink:href="dir_000015_000001.html" target="_top" xlink:title="1">
<text text-anchor="middle" x="285.83" y="-260.79" font-family="Helvetica,sans-Serif" font-size="10.00">1</text>
</a>
</g>
</g>
<!-- dir_f2c65bfcbdc19ebacbfc0bbbfb0d01b6&#45;&gt;dir_e4cd57caa88bf1f4e1bf9521bc47c3c0 -->
<g id="edge10" class="edge">
<title>dir_f2c65bfcbdc19ebacbfc0bbbfb0d01b6&#45;&gt;dir_e4cd57caa88bf1f4e1bf9521bc47c3c0</title>
<path fill="none" stroke="black" d="M152.53,-324.11C142.98,-330.12 131.84,-337.1 122,-344 117.21,-347.36 112.25,-351.11 107.36,-354.83"/>
<polygon fill="black" stroke="black" points="105.08,-352.17 99.25,-361.02 109.32,-357.74 105.08,-352.17"/>
<g id="a_edge10&#45;headlabel"><a xlink:href="dir_000015_000010.html" target="_top" xlink:title="11">
<text text-anchor="middle" x="106.22" y="-345.23" font-family="Helvetica,sans-Serif" font-size="10.00">11</text>
</a>
</g>
</g>
<!-- dir_f2c65bfcbdc19ebacbfc0bbbfb0d01b6&#45;&gt;dir_3d3615e9a999cab4f3407307569d6ced -->
<g id="edge13" class="edge">
<title>dir_f2c65bfcbdc19ebacbfc0bbbfb0d01b6&#45;&gt;dir_3d3615e9a999cab4f3407307569d6ced</title>
<path fill="none" stroke="black" d="M178.53,-287.88C187.72,-255.98 211.31,-186.84 253,-144 270.77,-125.75 296.18,-112.46 317.07,-103.75"/>
<polygon fill="black" stroke="black" points="318.6,-106.9 326.6,-99.96 316.02,-100.4 318.6,-106.9"/>
<g id="a_edge13&#45;headlabel"><a xlink:href="dir_000015_000018.html" target="_top" xlink:title="52">
<text text-anchor="middle" x="316.31" y="-108.37" font-family="Helvetica,sans-Serif" font-size="10.00">52</text>
</a>
</g>
</g>
<!-- dir_35ffb1505af3943bdf99903da87524fe&#45;&gt;dir_e4cd57caa88bf1f4e1bf9521bc47c3c0 -->
<g id="edge16" class="edge">
<title>dir_35ffb1505af3943bdf99903da87524fe&#45;&gt;dir_e4cd57caa88bf1f4e1bf9521bc47c3c0</title>
<path fill="none" stroke="black" d="M468.84,-443.58C462.32,-441.72 455.51,-440.07 449,-439 416.1,-433.58 180.75,-441.18 149,-431 130.68,-425.13 112.72,-413.44 98.76,-402.63"/>
<polygon fill="black" stroke="black" points="100.6,-399.62 90.62,-396.08 96.21,-405.07 100.6,-399.62"/>
<g id="a_edge16&#45;headlabel"><a xlink:href="dir_000027_000010.html" target="_top" xlink:title="2">
<text text-anchor="middle" x="105.18" y="-397.16" font-family="Helvetica,sans-Serif" font-size="10.00">2</text>
</a>
</g>
</g>
<!-- dir_35ffb1505af3943bdf99903da87524fe&#45;&gt;dir_3d3615e9a999cab4f3407307569d6ced -->
<g id="edge17" class="edge">
<title>dir_35ffb1505af3943bdf99903da87524fe&#45;&gt;dir_3d3615e9a999cab4f3407307569d6ced</title>
<path fill="none" stroke="black" d="M539.1,-455.74C615.41,-454.8 791.02,-450.51 809,-431 835.2,-402.56 825.42,-379.01 809,-344 749.15,-216.43 689.5,-206.08 563,-144 506.65,-116.35 434.46,-102.18 391.35,-95.7"/>
<polygon fill="black" stroke="black" points="391.7,-92.21 381.3,-94.25 390.7,-99.14 391.7,-92.21"/>
<g id="a_edge17&#45;headlabel"><a xlink:href="dir_000027_000018.html" target="_top" xlink:title="2">
<text text-anchor="middle" x="395.66" y="-87.42" font-family="Helvetica,sans-Serif" font-size="10.00">2</text>
</a>
</g>
</g>
<!-- dir_0c368f76a33d967d5b838b5681461de6&#45;&gt;dir_4bb30ed846ea1df1fc4d16874a455d91 -->
<g id="edge21" class="edge">
<title>dir_0c368f76a33d967d5b838b5681461de6&#45;&gt;dir_4bb30ed846ea1df1fc4d16874a455d91</title>
<path fill="none" stroke="black" d="M355.46,-252.19C385.57,-277.49 441.93,-324.84 475.9,-353.39"/>
<polygon fill="black" stroke="black" points="473.71,-356.12 483.62,-359.87 478.21,-350.76 473.71,-356.12"/>
<g id="a_edge21&#45;headlabel"><a xlink:href="dir_000001_000002.html" target="_top" xlink:title="4">
<text text-anchor="middle" x="469.13" y="-353.48" font-family="Helvetica,sans-Serif" font-size="10.00">4</text>
</a>
</g>
</g>
<!-- dir_0c368f76a33d967d5b838b5681461de6&#45;&gt;dir_4012ff34c1bb5bd303e44a1c9cef6c8a -->
<g id="edge19" class="edge">
<title>dir_0c368f76a33d967d5b838b5681461de6&#45;&gt;dir_4012ff34c1bb5bd303e44a1c9cef6c8a</title>
<path fill="none" stroke="black" d="M335.08,-252.12C334.47,-270.86 331.42,-301.27 319,-324 318.46,-324.99 302.94,-339.4 288.23,-352.95"/>
<polygon fill="black" stroke="black" points="285.69,-350.53 280.7,-359.87 290.43,-355.68 285.69,-350.53"/>
<g id="a_edge19&#45;headlabel"><a xlink:href="dir_000001_000003.html" target="_top" xlink:title="3">
<text text-anchor="middle" x="286.41" y="-343.51" font-family="Helvetica,sans-Serif" font-size="10.00">3</text>
</a>
</g>
</g>
<!-- dir_0c368f76a33d967d5b838b5681461de6&#45;&gt;dir_e4cd57caa88bf1f4e1bf9521bc47c3c0 -->
<g id="edge18" class="edge">
<title>dir_0c368f76a33d967d5b838b5681461de6&#45;&gt;dir_e4cd57caa88bf1f4e1bf9521bc47c3c0</title>
<path fill="none" stroke="black" d="M295.18,-237.99C252.95,-242.83 185.87,-255.41 138,-288 114.67,-303.89 96.4,-330.81 85.05,-350.89"/>
<polygon fill="black" stroke="black" points="81.88,-349.39 80.19,-359.85 88.04,-352.73 81.88,-349.39"/>
<g id="a_edge18&#45;headlabel"><a xlink:href="dir_000001_000010.html" target="_top" xlink:title="33">
<text text-anchor="middle" x="81.1" y="-342.38" font-family="Helvetica,sans-Serif" font-size="10.00">33</text>
</a>
</g>
</g>
<!-- dir_0c368f76a33d967d5b838b5681461de6&#45;&gt;dir_a816a247b59c90f95e41afe29b966a18 -->
<g id="edge20" class="edge">
<title>dir_0c368f76a33d967d5b838b5681461de6&#45;&gt;dir_a816a247b59c90f95e41afe29b966a18</title>
<path fill="none" stroke="black" d="M346.87,-215.7C352.5,-207.47 359.36,-197.48 365.57,-188.42"/>
<polygon fill="black" stroke="black" points="368.5,-190.33 371.27,-180.1 362.73,-186.37 368.5,-190.33"/>
<g id="a_edge20&#45;headlabel"><a xlink:href="dir_000001_000023.html" target="_top" xlink:title="1">
<text text-anchor="middle" x="368.81" y="-192.4" font-family="Helvetica,sans-Serif" font-size="10.00">1</text>
</a>
</g>
</g>
<!-- dir_0c368f76a33d967d5b838b5681461de6&#45;&gt;dir_3d3615e9a999cab4f3407307569d6ced -->
<g id="edge22" class="edge">
<title>dir_0c368f76a33d967d5b838b5681461de6&#45;&gt;dir_3d3615e9a999cab4f3407307569d6ced</title>
<path fill="none" stroke="black" d="M336.63,-215.9C338.41,-197.96 341.49,-168.94 345,-144 346.19,-135.55 347.68,-126.38 349.1,-118.08"/>
<polygon fill="black" stroke="black" points="352.56,-118.6 350.84,-108.15 345.67,-117.4 352.56,-118.6"/>
<g id="a_edge22&#45;headlabel"><a xlink:href="dir_000001_000018.html" target="_top" xlink:title="28">
<text text-anchor="middle" x="354.74" y="-120.13" font-family="Helvetica,sans-Serif" font-size="10.00">28</text>
</a>
</g>
</g>
<!-- dir_ebb19deee3cd40f4ac122fef25c04ca8&#45;&gt;dir_f2c65bfcbdc19ebacbfc0bbbfb0d01b6 -->
<g id="edge23" class="edge">
<title>dir_ebb19deee3cd40f4ac122fef25c04ca8&#45;&gt;dir_f2c65bfcbdc19ebacbfc0bbbfb0d01b6</title>
<path fill="none" stroke="black" d="M294.98,-24.16C233.25,-30.92 142.38,-45.21 121,-72 71.63,-133.86 125.28,-232.92 155.82,-279.38"/>
<polygon fill="black" stroke="black" points="153.1,-281.6 161.58,-287.95 158.91,-277.7 153.1,-281.6"/>
<g id="a_edge23&#45;headlabel"><a xlink:href="dir_000012_000015.html" target="_top" xlink:title="2">
<text text-anchor="middle" x="148.74" y="-277.71" font-family="Helvetica,sans-Serif" font-size="10.00">2</text>
</a>
</g>
</g>
<!-- dir_ebb19deee3cd40f4ac122fef25c04ca8&#45;&gt;dir_3d3615e9a999cab4f3407307569d6ced -->
<g id="edge24" class="edge">
<title>dir_ebb19deee3cd40f4ac122fef25c04ca8&#45;&gt;dir_3d3615e9a999cab4f3407307569d6ced</title>
<path fill="none" stroke="black" d="M359.9,-36.1C360.7,-43.79 360.94,-53.05 360.61,-61.67"/>
<polygon fill="black" stroke="black" points="357.11,-61.48 359.92,-71.7 364.09,-61.96 357.11,-61.48"/>
<g id="a_edge24&#45;headlabel"><a xlink:href="dir_000012_000018.html" target="_top" xlink:title="8">
<text text-anchor="middle" x="354.52" y="-55.2" font-family="Helvetica,sans-Serif" font-size="10.00">8</text>
</a>
</g>
</g>
<!-- dir_e4cd57caa88bf1f4e1bf9521bc47c3c0&#45;&gt;dir_f2c65bfcbdc19ebacbfc0bbbfb0d01b6 -->
<g id="edge25" class="edge">
<title>dir_e4cd57caa88bf1f4e1bf9521bc47c3c0&#45;&gt;dir_f2c65bfcbdc19ebacbfc0bbbfb0d01b6</title>
<path fill="none" stroke="black" d="M83.86,-359.66C89.89,-354.45 97.12,-348.83 104,-344 114.64,-336.54 126.81,-328.98 138.09,-322.65"/>
<polygon fill="black" stroke="black" points="139.77,-325.72 146.89,-317.87 136.43,-319.57 139.77,-325.72"/>
<g id="a_edge25&#45;headlabel"><a xlink:href="dir_000010_000015.html" target="_top" xlink:title="1">
<text text-anchor="middle" x="137.97" y="-327.43" font-family="Helvetica,sans-Serif" font-size="10.00">1</text>
</a>
</g>
</g>
<!-- dir_e4cd57caa88bf1f4e1bf9521bc47c3c0&#45;&gt;dir_3d3615e9a999cab4f3407307569d6ced -->
<g id="edge26" class="edge">
<title>dir_e4cd57caa88bf1f4e1bf9521bc47c3c0&#45;&gt;dir_3d3615e9a999cab4f3407307569d6ced</title>
<path fill="none" stroke="black" d="M68.67,-359.8C70.33,-341.27 78.22,-311.29 91,-288 131.21,-214.71 144.24,-192.95 212,-144 243.68,-121.12 286.61,-106.35 317.11,-98.36"/>
<polygon fill="black" stroke="black" points="318.09,-101.73 326.95,-95.91 316.4,-94.93 318.09,-101.73"/>
<g id="a_edge26&#45;headlabel"><a xlink:href="dir_000010_000018.html" target="_top" xlink:title="21">
<text text-anchor="middle" x="315.29" y="-102.85" font-family="Helvetica,sans-Serif" font-size="10.00">21</text>
</a>
</g>
</g>
<!-- dir_a816a247b59c90f95e41afe29b966a18&#45;&gt;dir_3d3615e9a999cab4f3407307569d6ced -->
<g id="edge33" class="edge">
<title>dir_a816a247b59c90f95e41afe29b966a18&#45;&gt;dir_3d3615e9a999cab4f3407307569d6ced</title>
<path fill="none" stroke="black" d="M375.83,-143.7C372.57,-135.81 368.63,-126.3 365,-117.55"/>
<polygon fill="black" stroke="black" points="368.15,-116 361.09,-108.1 361.68,-118.68 368.15,-116"/>
<g id="a_edge33&#45;headlabel"><a xlink:href="dir_000023_000018.html" target="_top" xlink:title="1">
<text text-anchor="middle" x="372.15" y="-115.74" font-family="Helvetica,sans-Serif" font-size="10.00">1</text>
</a>
</g>
</g>
<!-- dir_3d3615e9a999cab4f3407307569d6ced&#45;&gt;dir_ebb19deee3cd40f4ac122fef25c04ca8 -->
<g id="edge36" class="edge">
<title>dir_3d3615e9a999cab4f3407307569d6ced&#45;&gt;dir_ebb19deee3cd40f4ac122fef25c04ca8</title>
<path fill="none" stroke="black" d="M348.09,-71.7C347.29,-63.98 347.06,-54.71 347.41,-46.11"/>
<polygon fill="black" stroke="black" points="350.9,-46.32 348.11,-36.1 343.92,-45.84 350.9,-46.32"/>
<g id="a_edge36&#45;headlabel"><a xlink:href="dir_000018_000012.html" target="_top" xlink:title="1">
<text text-anchor="middle" x="353.48" y="-47.61" font-family="Helvetica,sans-Serif" font-size="10.00">1</text>
</a>
</g>
</g>
<!-- dir_3d3615e9a999cab4f3407307569d6ced&#45;&gt;dir_e4cd57caa88bf1f4e1bf9521bc47c3c0 -->
<g id="edge37" class="edge">
<title>dir_3d3615e9a999cab4f3407307569d6ced&#45;&gt;dir_e4cd57caa88bf1f4e1bf9521bc47c3c0</title>
<path fill="none" stroke="black" d="M326.95,-99.59C300.42,-107.82 260.12,-122.24 230,-144 162.24,-192.95 149.21,-214.71 109,-288 98.27,-307.56 90.98,-331.84 85.13,-350.09"/>
<polygon fill="black" stroke="black" points="81.74,-349.21 81.93,-359.8 88.39,-351.4 81.74,-349.21"/>
<g id="a_edge37&#45;headlabel"><a xlink:href="dir_000018_000010.html" target="_top" xlink:title="1">
<text text-anchor="middle" x="80.17" y="-342.41" font-family="Helvetica,sans-Serif" font-size="10.00">1</text>
</a>
</g>
</g>
</g>
</svg>
        <g id="navigator" transform="translate(0 0)" fill="#404254">
                <rect fill="#f2f5e9" fill-opacity="0.5" stroke="#606060" stroke-width=".5" x="0" y="0" width="60" height="60"/>
                <use id="zoomplus" xlink:href="#zoomPlus" x="17" y="9" onmousedown="handleZoom(evt,'in')"/>
                <use id="zoomminus" xlink:href="#zoomMin" x="42" y="9" onmousedown="handleZoom(evt,'out')"/>
                <use id="reset" xlink:href="#resetDef" x="30" y="36" onmousedown="handleReset()"/>
                <g id="arrowUp" xlink:href="#dirArrow" transform="translate(30 24)" onmousedown="handlePan(0,-1)">
                  <use xlink:href="#rim" fill="#404040">
                        <set attributeName="fill" to="#808080" begin="arrowUp.mouseover" end="arrowUp.mouseout"/>
                  </use>
                  <path fill="none" stroke="white" stroke-width="1.5" d="M0,-3.0v7 M-2.5,-0.5L0,-3.0L2.5,-0.5"/>
                </g>
                <g id="arrowRight" xlink:href="#dirArrow" transform="rotate(90) translate(36 -43)" onmousedown="handlePan(1,0)">
                  <use xlink:href="#rim" fill="#404040">
                        <set attributeName="fill" to="#808080" begin="arrowRight.mouseover" end="arrowRight.mouseout"/>
                  </use>
                  <path fill="none" stroke="white" stroke-width="1.5" d="M0,-3.0v7 M-2.5,-0.5L0,-3.0L2.5,-0.5"/>
                </g>
                <g id="arrowDown" xlink:href="#dirArrow" transform="rotate(180) translate(-30 -48)" onmousedown="handlePan(0,1)">
                  <use xlink:href="#rim" fill="#404040">
                        <set attributeName="fill" to="#808080" begin="arrowDown.mouseover" end="arrowDown.mouseout"/>
                  </use>
                  <path fill="none" stroke="white" stroke-width="1.5" d="M0,-3.0v7 M-2.5,-0.5L0,-3.0L2.5,-0.5"/>
                </g>
                <g id="arrowLeft" xlink:href="#dirArrow" transform="rotate(270) translate(-36 17)" onmousedown="handlePan(-1,0)">
                  <use xlink:href="#rim" fill="#404040">
                        <set attributeName="fill" to="#808080" begin="arrowLeft.mouseover" end="arrowLeft.mouseout"/>
                  </use>
                  <path fill="none" stroke="white" stroke-width="1.5" d="M0,-3.0v7 M-2.5,-0.5L0,-3.0L2.5,-0.5"/>
                </g>
        </g>
        <svg viewBox="0 0 15 15" width="100%" height="30px" preserveAspectRatio="xMaxYMin meet">
         <g id="arrow_out" transform="scale(0.3 0.3)">
          <a xlink:href="dir_4bb30ed846ea1df1fc4d16874a455d91_dep_org.svg" target="_base">
           <rect id="button" ry="5" rx="5" y="6" x="6" height="38" width="38"
                fill="#f2f5e9" fill-opacity="0.5" stroke="#606060" stroke-width="1.0"/>
           <path id="arrow"
             d="M 11.500037,31.436501 C 11.940474,20.09759 22.043105,11.32322 32.158766,21.979434 L 37.068811,17.246167 C 37.068811,17.246167 37.088388,32 37.088388,32 L 22.160133,31.978069 C 22.160133,31.978069 26.997745,27.140456 26.997745,27.140456 C 18.528582,18.264221 13.291696,25.230495 11.500037,31.436501 z"
             style="fill:#404040;"/>
          </a>
         </g>
        </svg>
</svg>
