<?xml version="1.0" encoding="UTF-8" standalone="no"?>
<!DOCTYPE svg PUBLIC "-//W3C//DTD SVG 1.1//EN"
 "http://www.w3.org/Graphics/SVG/1.1/DTD/svg11.dtd">
<!-- Generated by graphviz version 2.43.0 (0)
 -->
<!-- Title: physics Pages: 1 -->
<!--zoomable 466 -->
<svg id="main" version="1.1" xmlns="http://www.w3.org/2000/svg" xmlns:xlink="http://www.w3.org/1999/xlink" xml:space="preserve" onload="init(evt)">
<style type="text/css"><![CDATA[
.edge:hover path { stroke: red; }
.edge:hover polygon { stroke: red; fill: red; }
]]></style>
<script type="text/javascript"><![CDATA[
var edges = document.getElementsByTagName('g');
if (edges && edges.length) {
  for (var i=0;i<edges.length;i++) {
    if (edges[i].id.substr(0,4)=='edge') {
      edges[i].setAttribute('class','edge');
    }
  }
}
]]></script>
        <defs>
                <circle id="rim" cx="0" cy="0" r="7"/>
                <circle id="rim2" cx="0" cy="0" r="3.5"/>
                <g id="zoomPlus">
                        <use xlink:href="#rim" fill="#404040">
                                <set attributeName="fill" to="#808080" begin="zoomplus.mouseover" end="zoomplus.mouseout"/>
                        </use>
                        <path d="M-4,0h8M0,-4v8" fill="none" stroke="white" stroke-width="1.5" pointer-events="none"/>
                </g>
                <g id="zoomMin">
                        <use xlink:href="#rim" fill="#404040">
                                <set attributeName="fill" to="#808080" begin="zoomminus.mouseover" end="zoomminus.mouseout"/>
                        </use>
                        <path d="M-4,0h8" fill="none" stroke="white" stroke-width="1.5" pointer-events="none"/>
                </g>
                <g id="dirArrow">
                        <path fill="none" stroke="white" stroke-width="1.5" d="M0,-3.0v7 M-2.5,-0.5L0,-3.0L2.5,-0.5"/>
                </g>
               <g id="resetDef">
                       <use xlink:href="#rim2" fill="#404040">
                               <set attributeName="fill" to="#808080" begin="reset.mouseover" end="reset.mouseout"/>
                       </use>
               </g>
        </defs>

<script type="text/javascript">
var viewWidth = 596;
var viewHeight = 466;
var sectionId = 'dynsection-0';
</script>
<script xlink:href="svgpan.js"/>
<svg id="graph" class="graph">
<g id="viewport">
<title>physics</title>
<polygon fill="white" stroke="transparent" points="-4,4 -4,-462.06 592,-462.06 592,4 -4,4"/>
<g id="clust1" class="cluster">
<title>clusterdir_d85575251dd712327fe3cf057fa568b4</title>
<g id="a_clust1"><a xlink:href="dir_d85575251dd712327fe3cf057fa568b4.html" target="_top" xlink:title="amr&#45;wind">
<polygon fill="#ddddee" stroke="black" points="332,-272 332,-431 580,-431 580,-272 332,-272"/>
<text text-anchor="middle" x="456" y="-419" font-family="Helvetica,sans-Serif" font-size="10.00">amr&#45;wind</text>
</a>
</g>
</g>
<g id="clust2" class="cluster">
<title>clusterdir_f2c65bfcbdc19ebacbfc0bbbfb0d01b6</title>
<g id="a_clust2"><a xlink:href="dir_f2c65bfcbdc19ebacbfc0bbbfb0d01b6.html" target="_top">
<polygon fill="#eeeeff" stroke="black" points="340,-280 340,-404 572,-404 572,-280 340,-280"/>
</a>
</g>
</g>
<!-- dir_f2c65bfcbdc19ebacbfc0bbbfb0d01b6 -->
<g id="node1" class="node">
<title>dir_f2c65bfcbdc19ebacbfc0bbbfb0d01b6</title>
<text text-anchor="middle" x="465" y="-375.5" font-family="Helvetica,sans-Serif" font-size="10.00">physics</text>
</g>
<!-- dir_112afea7a726e6a1d518c2be02377acb -->
<g id="node4" class="node">
<title>dir_112afea7a726e6a1d518c2be02377acb</title>
<g id="a_node4"><a xlink:href="dir_112afea7a726e6a1d518c2be02377acb.html" target="_top" xlink:title="udfs">
<polygon fill="white" stroke="black" points="472,-324 418,-324 418,-288 472,-288 472,-324"/>
<text text-anchor="middle" x="445" y="-303.5" font-family="Helvetica,sans-Serif" font-size="10.00">udfs</text>
</a>
</g>
</g>
<!-- dir_f2c65bfcbdc19ebacbfc0bbbfb0d01b6&#45;&gt;dir_112afea7a726e6a1d518c2be02377acb -->
<g id="edge8" class="edge">
<title>dir_f2c65bfcbdc19ebacbfc0bbbfb0d01b6&#45;&gt;dir_112afea7a726e6a1d518c2be02377acb</title>
<path fill="none" stroke="black" d="M460.06,-359.7C457.83,-351.9 455.15,-342.51 452.67,-333.83"/>
<polygon fill="black" stroke="black" points="456,-332.76 449.89,-324.1 449.27,-334.68 456,-332.76"/>
<g id="a_edge8&#45;headlabel"><a xlink:href="dir_000015_000036.html" target="_top" xlink:title="2">
<text text-anchor="middle" x="459.72" y="-332.93" font-family="Helvetica,sans-Serif" font-size="10.00">2</text>
</a>
</g>
</g>
<!-- dir_9ff815a534beac751fa88e427dbab695 -->
<g id="node5" class="node">
<title>dir_9ff815a534beac751fa88e427dbab695</title>
<g id="a_node5"><a xlink:href="dir_9ff815a534beac751fa88e427dbab695.html" target="_top" xlink:title="turbulence">
<polygon fill="white" stroke="red" points="207,-396 139,-396 139,-360 207,-360 207,-396"/>
<text text-anchor="middle" x="173" y="-375.5" font-family="Helvetica,sans-Serif" font-size="10.00">turbulence</text>
</a>
</g>
</g>
<!-- dir_f2c65bfcbdc19ebacbfc0bbbfb0d01b6&#45;&gt;dir_9ff815a534beac751fa88e427dbab695 -->
<g id="edge7" class="edge">
<title>dir_f2c65bfcbdc19ebacbfc0bbbfb0d01b6&#45;&gt;dir_9ff815a534beac751fa88e427dbab695</title>
<path fill="none" stroke="black" d="M459.27,-396.04C452.77,-413.14 440.33,-437.82 420,-449 390.79,-465.07 377.7,-455.48 345,-449 298.51,-439.78 248.82,-417.81 214.86,-400.73"/>
<polygon fill="black" stroke="black" points="216.21,-397.49 205.72,-396.06 213.03,-403.73 216.21,-397.49"/>
<g id="a_edge7&#45;headlabel"><a xlink:href="dir_000015_000031.html" target="_top" xlink:title="1">
<text text-anchor="middle" x="220.71" y="-394.1" font-family="Helvetica,sans-Serif" font-size="10.00">1</text>
</a>
</g>
</g>
<!-- dir_0c368f76a33d967d5b838b5681461de6 -->
<g id="node6" class="node">
<title>dir_0c368f76a33d967d5b838b5681461de6</title>
<g id="a_node6"><a xlink:href="dir_0c368f76a33d967d5b838b5681461de6.html" target="_top" xlink:title="wind_energy">
<polygon fill="white" stroke="red" points="335.5,-252 256.5,-252 256.5,-216 335.5,-216 335.5,-252"/>
<text text-anchor="middle" x="296" y="-231.5" font-family="Helvetica,sans-Serif" font-size="10.00">wind_energy</text>
</a>
</g>
</g>
<!-- dir_f2c65bfcbdc19ebacbfc0bbbfb0d01b6&#45;&gt;dir_0c368f76a33d967d5b838b5681461de6 -->
<g id="edge9" class="edge">
<title>dir_f2c65bfcbdc19ebacbfc0bbbfb0d01b6&#45;&gt;dir_0c368f76a33d967d5b838b5681461de6</title>
<path fill="none" stroke="black" d="M437.72,-363.89C419.24,-354.29 394.85,-340.15 376,-324 353.23,-304.49 353.18,-294.18 333,-272 329.26,-267.88 325.19,-263.62 321.16,-259.51"/>
<polygon fill="black" stroke="black" points="323.57,-256.98 314.04,-252.36 318.61,-261.92 323.57,-256.98"/>
<g id="a_edge9&#45;headlabel"><a xlink:href="dir_000015_000001.html" target="_top" xlink:title="1">
<text text-anchor="middle" x="328.12" y="-255.02" font-family="Helvetica,sans-Serif" font-size="10.00">1</text>
</a>
</g>
</g>
<!-- dir_e4cd57caa88bf1f4e1bf9521bc47c3c0 -->
<g id="node7" class="node">
<title>dir_e4cd57caa88bf1f4e1bf9521bc47c3c0</title>
<g id="a_node7"><a xlink:href="dir_e4cd57caa88bf1f4e1bf9521bc47c3c0.html" target="_top" xlink:title="utilities">
<polygon fill="white" stroke="red" points="255,-180 201,-180 201,-144 255,-144 255,-180"/>
<text text-anchor="middle" x="228" y="-159.5" font-family="Helvetica,sans-Serif" font-size="10.00">utilities</text>
</a>
</g>
</g>
<!-- dir_f2c65bfcbdc19ebacbfc0bbbfb0d01b6&#45;&gt;dir_e4cd57caa88bf1f4e1bf9521bc47c3c0 -->
<g id="edge10" class="edge">
<title>dir_f2c65bfcbdc19ebacbfc0bbbfb0d01b6&#45;&gt;dir_e4cd57caa88bf1f4e1bf9521bc47c3c0</title>
<path fill="none" stroke="black" d="M444.25,-359.81C433.08,-349.98 419.49,-337.04 409,-324 373.89,-280.34 385.79,-253.31 344,-216 321.35,-195.78 289.69,-182.02 265.17,-173.59"/>
<polygon fill="black" stroke="black" points="266.07,-170.21 255.48,-170.41 263.89,-176.86 266.07,-170.21"/>
<g id="a_edge10&#45;headlabel"><a xlink:href="dir_000015_000010.html" target="_top" xlink:title="11">
<text text-anchor="middle" x="270.37" y="-166.13" font-family="Helvetica,sans-Serif" font-size="10.00">11</text>
</a>
</g>
</g>
<!-- dir_cc5375afd167f33c2803dc418e7dff36 -->
<g id="node2" class="node">
<title>dir_cc5375afd167f33c2803dc418e7dff36</title>
<g id="a_node2"><a xlink:href="dir_cc5375afd167f33c2803dc418e7dff36.html" target="_top" xlink:title="mms">
<polygon fill="white" stroke="black" points="564,-396 510,-396 510,-360 564,-360 564,-396"/>
<text text-anchor="middle" x="537" y="-375.5" font-family="Helvetica,sans-Serif" font-size="10.00">mms</text>
</a>
</g>
</g>
<!-- dir_4bb30ed846ea1df1fc4d16874a455d91 -->
<g id="node9" class="node">
<title>dir_4bb30ed846ea1df1fc4d16874a455d91</title>
<g id="a_node9"><a xlink:href="dir_4bb30ed846ea1df1fc4d16874a455d91.html" target="_top" xlink:title="equation_systems">
<polygon fill="white" stroke="red" points="324,-324 218,-324 218,-288 324,-288 324,-324"/>
<text text-anchor="middle" x="271" y="-303.5" font-family="Helvetica,sans-Serif" font-size="10.00">equation_systems</text>
</a>
</g>
</g>
<!-- dir_cc5375afd167f33c2803dc418e7dff36&#45;&gt;dir_4bb30ed846ea1df1fc4d16874a455d91 -->
<g id="edge5" class="edge">
<title>dir_cc5375afd167f33c2803dc418e7dff36&#45;&gt;dir_4bb30ed846ea1df1fc4d16874a455d91</title>
<path fill="none" stroke="black" d="M509.75,-363.35C506.83,-362.12 503.88,-360.98 501,-360 429.94,-335.82 408.99,-341.5 336,-324 335.4,-323.86 334.79,-323.71 334.18,-323.56"/>
<polygon fill="black" stroke="black" points="334.71,-320.09 324.16,-321.09 333.04,-326.88 334.71,-320.09"/>
<g id="a_edge5&#45;headlabel"><a xlink:href="dir_000039_000002.html" target="_top" xlink:title="1">
<text text-anchor="middle" x="338.88" y="-315.69" font-family="Helvetica,sans-Serif" font-size="10.00">1</text>
</a>
</g>
</g>
<!-- dir_3d3615e9a999cab4f3407307569d6ced -->
<g id="node10" class="node">
<title>dir_3d3615e9a999cab4f3407307569d6ced</title>
<g id="a_node10"><a xlink:href="dir_3d3615e9a999cab4f3407307569d6ced.html" target="_top" xlink:title="core">
<polygon fill="white" stroke="red" points="360,-36 306,-36 306,0 360,0 360,-36"/>
<text text-anchor="middle" x="333" y="-15.5" font-family="Helvetica,sans-Serif" font-size="10.00">core</text>
</a>
</g>
</g>
<!-- dir_cc5375afd167f33c2803dc418e7dff36&#45;&gt;dir_3d3615e9a999cab4f3407307569d6ced -->
<g id="edge6" class="edge">
<title>dir_cc5375afd167f33c2803dc418e7dff36&#45;&gt;dir_3d3615e9a999cab4f3407307569d6ced</title>
<path fill="none" stroke="black" d="M537.2,-359.95C537.49,-333.29 538,-280.12 538,-235 538,-235 538,-235 538,-161 538,-80.34 429.42,-41.87 370.3,-26.91"/>
<polygon fill="black" stroke="black" points="370.77,-23.42 360.22,-24.46 369.12,-30.22 370.77,-23.42"/>
<g id="a_edge6&#45;headlabel"><a xlink:href="dir_000039_000018.html" target="_top" xlink:title="3">
<text text-anchor="middle" x="374.93" y="-19.01" font-family="Helvetica,sans-Serif" font-size="10.00">3</text>
</a>
</g>
</g>
<!-- dir_e037da66ad872c58acfc861df6f5c212 -->
<g id="node3" class="node">
<title>dir_e037da66ad872c58acfc861df6f5c212</title>
<g id="a_node3"><a xlink:href="dir_e037da66ad872c58acfc861df6f5c212.html" target="_top" xlink:title="multiphase">
<polygon fill="white" stroke="red" points="419.5,-396 348.5,-396 348.5,-360 419.5,-360 419.5,-396"/>
<text text-anchor="middle" x="384" y="-375.5" font-family="Helvetica,sans-Serif" font-size="10.00">multiphase</text>
</a>
</g>
</g>
<!-- dir_e037da66ad872c58acfc861df6f5c212&#45;&gt;dir_e4cd57caa88bf1f4e1bf9521bc47c3c0 -->
<g id="edge13" class="edge">
<title>dir_e037da66ad872c58acfc861df6f5c212&#45;&gt;dir_e4cd57caa88bf1f4e1bf9521bc47c3c0</title>
<path fill="none" stroke="black" d="M348.45,-373.15C294.75,-366.52 196.98,-351 176,-324 146.55,-286.1 157.84,-260.43 176,-216 180.49,-205.02 188.47,-195.08 196.85,-186.86"/>
<polygon fill="black" stroke="black" points="199.24,-189.42 204.25,-180.09 194.51,-184.26 199.24,-189.42"/>
<g id="a_edge13&#45;headlabel"><a xlink:href="dir_000021_000010.html" target="_top" xlink:title="1">
<text text-anchor="middle" x="198.5" y="-191.45" font-family="Helvetica,sans-Serif" font-size="10.00">1</text>
</a>
</g>
</g>
<!-- dir_7f7a014517bfe31ea45620a6a947e37b -->
<g id="node8" class="node">
<title>dir_7f7a014517bfe31ea45620a6a947e37b</title>
<g id="a_node8"><a xlink:href="dir_7f7a014517bfe31ea45620a6a947e37b.html" target="_top" xlink:title="fvm">
<polygon fill="none" stroke="black" points="249,-108 195,-108 195,-72 249,-72 249,-108"/>
<text text-anchor="middle" x="222" y="-87.5" font-family="Helvetica,sans-Serif" font-size="10.00">fvm</text>
</a>
</g>
</g>
<!-- dir_e037da66ad872c58acfc861df6f5c212&#45;&gt;dir_7f7a014517bfe31ea45620a6a947e37b -->
<g id="edge14" class="edge">
<title>dir_e037da66ad872c58acfc861df6f5c212&#45;&gt;dir_7f7a014517bfe31ea45620a6a947e37b</title>
<path fill="none" stroke="black" d="M348.08,-374.06C289.58,-368.44 177.86,-353.98 154,-324 103.86,-260.99 166.47,-162.21 201.44,-116.18"/>
<polygon fill="black" stroke="black" points="204.25,-118.27 207.61,-108.22 198.72,-113.98 204.25,-118.27"/>
<g id="a_edge14&#45;headlabel"><a xlink:href="dir_000021_000020.html" target="_top" xlink:title="4">
<text text-anchor="middle" x="204.29" y="-120.35" font-family="Helvetica,sans-Serif" font-size="10.00">4</text>
</a>
</g>
</g>
<!-- dir_e037da66ad872c58acfc861df6f5c212&#45;&gt;dir_4bb30ed846ea1df1fc4d16874a455d91 -->
<g id="edge15" class="edge">
<title>dir_e037da66ad872c58acfc861df6f5c212&#45;&gt;dir_4bb30ed846ea1df1fc4d16874a455d91</title>
<path fill="none" stroke="black" d="M350.46,-359.88C334.87,-350.81 316.55,-339.55 301.37,-329.76"/>
<polygon fill="black" stroke="black" points="303.13,-326.73 292.85,-324.19 299.3,-332.59 303.13,-326.73"/>
<g id="a_edge15&#45;headlabel"><a xlink:href="dir_000021_000002.html" target="_top" xlink:title="2">
<text text-anchor="middle" x="307.69" y="-323.82" font-family="Helvetica,sans-Serif" font-size="10.00">2</text>
</a>
</g>
</g>
<!-- dir_e037da66ad872c58acfc861df6f5c212&#45;&gt;dir_3d3615e9a999cab4f3407307569d6ced -->
<g id="edge16" class="edge">
<title>dir_e037da66ad872c58acfc861df6f5c212&#45;&gt;dir_3d3615e9a999cab4f3407307569d6ced</title>
<path fill="none" stroke="black" d="M419.73,-361.33C443.9,-350.04 472.86,-334.92 481,-324 505.17,-291.57 500,-275.45 500,-235 500,-235 500,-235 500,-161 500,-93.03 418.72,-50.79 369.57,-31.45"/>
<polygon fill="black" stroke="black" points="370.79,-28.17 360.2,-27.89 368.31,-34.72 370.79,-28.17"/>
<g id="a_edge16&#45;headlabel"><a xlink:href="dir_000021_000018.html" target="_top" xlink:title="19">
<text text-anchor="middle" x="375.16" y="-24.3" font-family="Helvetica,sans-Serif" font-size="10.00">19</text>
</a>
</g>
</g>
<!-- dir_112afea7a726e6a1d518c2be02377acb&#45;&gt;dir_4bb30ed846ea1df1fc4d16874a455d91 -->
<g id="edge11" class="edge">
<title>dir_112afea7a726e6a1d518c2be02377acb&#45;&gt;dir_4bb30ed846ea1df1fc4d16874a455d91</title>
<path fill="none" stroke="black" d="M417.59,-306C389.81,-306 362.03,-306 334.25,-306"/>
<polygon fill="black" stroke="black" points="334.02,-302.5 324.02,-306 334.02,-309.5 334.02,-302.5"/>
<g id="a_edge11&#45;headlabel"><a xlink:href="dir_000036_000002.html" target="_top" xlink:title="1">
<text text-anchor="middle" x="337.61" y="-297.16" font-family="Helvetica,sans-Serif" font-size="10.00">1</text>
</a>
</g>
</g>
<!-- dir_112afea7a726e6a1d518c2be02377acb&#45;&gt;dir_3d3615e9a999cab4f3407307569d6ced -->
<g id="edge12" class="edge">
<title>dir_112afea7a726e6a1d518c2be02377acb&#45;&gt;dir_3d3615e9a999cab4f3407307569d6ced</title>
<path fill="none" stroke="black" d="M440.8,-287.77C430.87,-248.37 403.95,-149.14 367,-72 362.51,-62.63 356.67,-52.92 351.11,-44.41"/>
<polygon fill="black" stroke="black" points="353.96,-42.37 345.47,-36.04 348.15,-46.28 353.96,-42.37"/>
<g id="a_edge12&#45;headlabel"><a xlink:href="dir_000036_000018.html" target="_top" xlink:title="8">
<text text-anchor="middle" x="358.32" y="-41.27" font-family="Helvetica,sans-Serif" font-size="10.00">8</text>
</a>
</g>
</g>
<!-- dir_9ff815a534beac751fa88e427dbab695&#45;&gt;dir_e4cd57caa88bf1f4e1bf9521bc47c3c0 -->
<g id="edge1" class="edge">
<title>dir_9ff815a534beac751fa88e427dbab695&#45;&gt;dir_e4cd57caa88bf1f4e1bf9521bc47c3c0</title>
<path fill="none" stroke="black" d="M157.82,-359.7C150.27,-349.94 141.93,-337.1 138,-324 124.19,-278.03 114.18,-257.67 138,-216 149.39,-196.07 171.53,-182.89 191,-174.66"/>
<polygon fill="black" stroke="black" points="192.54,-177.81 200.57,-170.9 189.98,-171.29 192.54,-177.81"/>
<g id="a_edge1&#45;headlabel"><a xlink:href="dir_000031_000010.html" target="_top" xlink:title="1">
<text text-anchor="middle" x="190.23" y="-179.27" font-family="Helvetica,sans-Serif" font-size="10.00">1</text>
</a>
</g>
</g>
<!-- dir_9ff815a534beac751fa88e427dbab695&#45;&gt;dir_7f7a014517bfe31ea45620a6a947e37b -->
<g id="edge2" class="edge">
<title>dir_9ff815a534beac751fa88e427dbab695&#45;&gt;dir_7f7a014517bfe31ea45620a6a947e37b</title>
<path fill="none" stroke="black" d="M149.46,-359.89C122.1,-338.34 78.6,-298.46 62,-252 45.85,-206.8 33.9,-182.91 62,-144 89.87,-105.4 146.95,-94.46 184.84,-91.61"/>
<polygon fill="black" stroke="black" points="185.21,-95.09 194.98,-91 184.79,-88.1 185.21,-95.09"/>
<g id="a_edge2&#45;headlabel"><a xlink:href="dir_000031_000020.html" target="_top" xlink:title="8">
<text text-anchor="middle" x="181.79" y="-95.64" font-family="Helvetica,sans-Serif" font-size="10.00">8</text>
</a>
</g>
</g>
<!-- dir_9ff815a534beac751fa88e427dbab695&#45;&gt;dir_4bb30ed846ea1df1fc4d16874a455d91 -->
<g id="edge4" class="edge">
<title>dir_9ff815a534beac751fa88e427dbab695&#45;&gt;dir_4bb30ed846ea1df1fc4d16874a455d91</title>
<path fill="none" stroke="black" d="M191.31,-359.7C202.96,-350.71 218.34,-339.61 232.53,-329.92"/>
<polygon fill="black" stroke="black" points="234.82,-332.6 241.16,-324.1 230.91,-326.79 234.82,-332.6"/>
<g id="a_edge4&#45;headlabel"><a xlink:href="dir_000031_000002.html" target="_top" xlink:title="11">
<text text-anchor="middle" x="233.43" y="-334.46" font-family="Helvetica,sans-Serif" font-size="10.00">11</text>
</a>
</g>
</g>
<!-- dir_9ff815a534beac751fa88e427dbab695&#45;&gt;dir_3d3615e9a999cab4f3407307569d6ced -->
<g id="edge3" class="edge">
<title>dir_9ff815a534beac751fa88e427dbab695&#45;&gt;dir_3d3615e9a999cab4f3407307569d6ced</title>
<path fill="none" stroke="black" d="M138.82,-366.29C88.4,-348.12 0,-306.11 0,-235 0,-235 0,-235 0,-161 0,-33.7 208.47,-18.95 295.51,-18.34"/>
<polygon fill="black" stroke="black" points="295.75,-21.84 305.75,-18.33 295.75,-14.84 295.75,-21.84"/>
<g id="a_edge3&#45;headlabel"><a xlink:href="dir_000031_000018.html" target="_top" xlink:title="5">
<text text-anchor="middle" x="292.16" y="-22.18" font-family="Helvetica,sans-Serif" font-size="10.00">5</text>
</a>
</g>
</g>
<!-- dir_0c368f76a33d967d5b838b5681461de6&#45;&gt;dir_e4cd57caa88bf1f4e1bf9521bc47c3c0 -->
<g id="edge17" class="edge">
<title>dir_0c368f76a33d967d5b838b5681461de6&#45;&gt;dir_e4cd57caa88bf1f4e1bf9521bc47c3c0</title>
<path fill="none" stroke="black" d="M279.19,-215.7C270.87,-207.14 260.69,-196.66 251.61,-187.3"/>
<polygon fill="black" stroke="black" points="254.09,-184.84 244.62,-180.1 249.07,-189.72 254.09,-184.84"/>
<g id="a_edge17&#45;headlabel"><a xlink:href="dir_000001_000010.html" target="_top" xlink:title="33">
<text text-anchor="middle" x="258.64" y="-182.94" font-family="Helvetica,sans-Serif" font-size="10.00">33</text>
</a>
</g>
</g>
<!-- dir_0c368f76a33d967d5b838b5681461de6&#45;&gt;dir_7f7a014517bfe31ea45620a6a947e37b -->
<g id="edge18" class="edge">
<title>dir_0c368f76a33d967d5b838b5681461de6&#45;&gt;dir_7f7a014517bfe31ea45620a6a947e37b</title>
<path fill="none" stroke="black" d="M291.64,-215.9C286.54,-197.44 277.09,-167.53 264,-144 258.55,-134.2 251.32,-124.34 244.4,-115.83"/>
<polygon fill="black" stroke="black" points="247.04,-113.53 237.93,-108.12 241.68,-118.03 247.04,-113.53"/>
<g id="a_edge18&#45;headlabel"><a xlink:href="dir_000001_000020.html" target="_top" xlink:title="1">
<text text-anchor="middle" x="251.53" y="-111.95" font-family="Helvetica,sans-Serif" font-size="10.00">1</text>
</a>
</g>
</g>
<!-- dir_0c368f76a33d967d5b838b5681461de6&#45;&gt;dir_4bb30ed846ea1df1fc4d16874a455d91 -->
<g id="edge19" class="edge">
<title>dir_0c368f76a33d967d5b838b5681461de6&#45;&gt;dir_4bb30ed846ea1df1fc4d16874a455d91</title>
<path fill="none" stroke="black" d="M295.79,-252.1C293.8,-259.96 290.64,-269.46 287.14,-278.23"/>
<polygon fill="black" stroke="black" points="283.81,-277.13 283.1,-287.7 290.24,-279.88 283.81,-277.13"/>
<g id="a_edge19&#45;headlabel"><a xlink:href="dir_000001_000002.html" target="_top" xlink:title="4">
<text text-anchor="middle" x="282.61" y="-270.2" font-family="Helvetica,sans-Serif" font-size="10.00">4</text>
</a>
</g>
</g>
<!-- dir_0c368f76a33d967d5b838b5681461de6&#45;&gt;dir_3d3615e9a999cab4f3407307569d6ced -->
<g id="edge20" class="edge">
<title>dir_0c368f76a33d967d5b838b5681461de6&#45;&gt;dir_3d3615e9a999cab4f3407307569d6ced</title>
<path fill="none" stroke="black" d="M298.97,-215.85C305.38,-178.75 320.58,-90.81 328.31,-46.1"/>
<polygon fill="black" stroke="black" points="331.77,-46.68 330.02,-36.23 324.87,-45.49 331.77,-46.68"/>
<g id="a_edge20&#45;headlabel"><a xlink:href="dir_000001_000018.html" target="_top" xlink:title="28">
<text text-anchor="middle" x="333.95" y="-48.21" font-family="Helvetica,sans-Serif" font-size="10.00">28</text>
</a>
</g>
</g>
<!-- dir_e4cd57caa88bf1f4e1bf9521bc47c3c0&#45;&gt;dir_e037da66ad872c58acfc861df6f5c212 -->
<g id="edge21" class="edge">
<title>dir_e4cd57caa88bf1f4e1bf9521bc47c3c0&#45;&gt;dir_e037da66ad872c58acfc861df6f5c212</title>
<path fill="none" stroke="black" d="M218.99,-180.02C203.59,-211.74 176.8,-280.6 209,-324 238.47,-363.72 296.89,-374.72 338.1,-377.25"/>
<polygon fill="black" stroke="black" points="338.03,-380.75 348.18,-377.72 338.35,-373.76 338.03,-380.75"/>
<g id="a_edge21&#45;headlabel"><a xlink:href="dir_000010_000021.html" target="_top" xlink:title="1">
<text text-anchor="middle" x="334.3" y="-380.92" font-family="Helvetica,sans-Serif" font-size="10.00">1</text>
</a>
</g>
</g>
<!-- dir_e4cd57caa88bf1f4e1bf9521bc47c3c0&#45;&gt;dir_7f7a014517bfe31ea45620a6a947e37b -->
<g id="edge22" class="edge">
<title>dir_e4cd57caa88bf1f4e1bf9521bc47c3c0&#45;&gt;dir_7f7a014517bfe31ea45620a6a947e37b</title>
<path fill="none" stroke="black" d="M226.52,-143.7C225.86,-135.98 225.06,-126.71 224.32,-118.11"/>
<polygon fill="black" stroke="black" points="227.81,-117.77 223.47,-108.1 220.83,-118.37 227.81,-117.77"/>
<g id="a_edge22&#45;headlabel"><a xlink:href="dir_000010_000020.html" target="_top" xlink:title="2">
<text text-anchor="middle" x="230.94" y="-118.61" font-family="Helvetica,sans-Serif" font-size="10.00">2</text>
</a>
</g>
</g>
<!-- dir_e4cd57caa88bf1f4e1bf9521bc47c3c0&#45;&gt;dir_3d3615e9a999cab4f3407307569d6ced -->
<g id="edge23" class="edge">
<title>dir_e4cd57caa88bf1f4e1bf9521bc47c3c0&#45;&gt;dir_3d3615e9a999cab4f3407307569d6ced</title>
<path fill="none" stroke="black" d="M236.08,-143.87C251.82,-119.03 285.74,-72.85 309.11,-44.14"/>
<polygon fill="black" stroke="black" points="312.02,-46.12 315.7,-36.19 306.62,-41.66 312.02,-46.12"/>
<g id="a_edge23&#45;headlabel"><a xlink:href="dir_000010_000018.html" target="_top" xlink:title="21">
<text text-anchor="middle" x="311.91" y="-48.2" font-family="Helvetica,sans-Serif" font-size="10.00">21</text>
</a>
</g>
</g>
<!-- dir_7f7a014517bfe31ea45620a6a947e37b&#45;&gt;dir_3d3615e9a999cab4f3407307569d6ced -->
<g id="edge24" class="edge">
<title>dir_7f7a014517bfe31ea45620a6a947e37b&#45;&gt;dir_3d3615e9a999cab4f3407307569d6ced</title>
<path fill="none" stroke="black" d="M249.15,-71.88C263.53,-62.81 281.38,-51.55 296.91,-41.76"/>
<polygon fill="black" stroke="black" points="299.15,-44.48 305.74,-36.19 295.42,-38.56 299.15,-44.48"/>
<g id="a_edge24&#45;headlabel"><a xlink:href="dir_000020_000018.html" target="_top" xlink:title="1">
<text text-anchor="middle" x="297.62" y="-46.3" font-family="Helvetica,sans-Serif" font-size="10.00">1</text>
</a>
</g>
</g>
<!-- dir_4bb30ed846ea1df1fc4d16874a455d91&#45;&gt;dir_e037da66ad872c58acfc861df6f5c212 -->
<g id="edge27" class="edge">
<title>dir_4bb30ed846ea1df1fc4d16874a455d91&#45;&gt;dir_e037da66ad872c58acfc861df6f5c212</title>
<path fill="none" stroke="black" d="M304.65,-324.19C320.25,-333.27 338.58,-344.53 353.74,-354.31"/>
<polygon fill="black" stroke="black" points="351.97,-357.34 362.25,-359.88 355.8,-351.48 351.97,-357.34"/>
<g id="a_edge27&#45;headlabel"><a xlink:href="dir_000002_000021.html" target="_top" xlink:title="2">
<text text-anchor="middle" x="347.41" y="-355.25" font-family="Helvetica,sans-Serif" font-size="10.00">2</text>
</a>
</g>
</g>
<!-- dir_4bb30ed846ea1df1fc4d16874a455d91&#45;&gt;dir_9ff815a534beac751fa88e427dbab695 -->
<g id="edge26" class="edge">
<title>dir_4bb30ed846ea1df1fc4d16874a455d91&#45;&gt;dir_9ff815a534beac751fa88e427dbab695</title>
<path fill="none" stroke="black" d="M252.84,-324.19C241.18,-333.18 225.76,-344.32 211.53,-354.04"/>
<polygon fill="black" stroke="black" points="209.21,-351.38 202.87,-359.88 213.12,-357.19 209.21,-351.38"/>
<g id="a_edge26&#45;headlabel"><a xlink:href="dir_000002_000031.html" target="_top" xlink:title="4">
<text text-anchor="middle" x="210.6" y="-344.52" font-family="Helvetica,sans-Serif" font-size="10.00">4</text>
</a>
</g>
</g>
<!-- dir_4bb30ed846ea1df1fc4d16874a455d91&#45;&gt;dir_0c368f76a33d967d5b838b5681461de6 -->
<g id="edge28" class="edge">
<title>dir_4bb30ed846ea1df1fc4d16874a455d91&#45;&gt;dir_0c368f76a33d967d5b838b5681461de6</title>
<path fill="none" stroke="black" d="M271.26,-287.7C273.27,-279.81 276.44,-270.3 279.95,-261.55"/>
<polygon fill="black" stroke="black" points="283.27,-262.67 284,-252.1 276.84,-259.92 283.27,-262.67"/>
<g id="a_edge28&#45;headlabel"><a xlink:href="dir_000002_000001.html" target="_top" xlink:title="3">
<text text-anchor="middle" x="284.46" y="-264.6" font-family="Helvetica,sans-Serif" font-size="10.00">3</text>
</a>
</g>
</g>
<!-- dir_4bb30ed846ea1df1fc4d16874a455d91&#45;&gt;dir_e4cd57caa88bf1f4e1bf9521bc47c3c0 -->
<g id="edge29" class="edge">
<title>dir_4bb30ed846ea1df1fc4d16874a455d91&#45;&gt;dir_e4cd57caa88bf1f4e1bf9521bc47c3c0</title>
<path fill="none" stroke="black" d="M262.03,-287.71C257.04,-277.53 251.04,-264.28 247,-252 240.31,-231.65 235.37,-207.88 232.21,-190.03"/>
<polygon fill="black" stroke="black" points="235.64,-189.29 230.51,-180.02 228.74,-190.46 235.64,-189.29"/>
<g id="a_edge29&#45;headlabel"><a xlink:href="dir_000002_000010.html" target="_top" xlink:title="9">
<text text-anchor="middle" x="239.04" y="-189.86" font-family="Helvetica,sans-Serif" font-size="10.00">9</text>
</a>
</g>
</g>
<!-- dir_4bb30ed846ea1df1fc4d16874a455d91&#45;&gt;dir_3d3615e9a999cab4f3407307569d6ced -->
<g id="edge30" class="edge">
<title>dir_4bb30ed846ea1df1fc4d16874a455d91&#45;&gt;dir_3d3615e9a999cab4f3407307569d6ced</title>
<path fill="none" stroke="black" d="M307.51,-287.92C321.6,-279.29 336.18,-267.35 344,-252 378.38,-184.55 356.68,-91.37 342.48,-46"/>
<polygon fill="black" stroke="black" points="345.74,-44.73 339.32,-36.3 339.09,-46.89 345.74,-44.73"/>
<g id="a_edge30&#45;headlabel"><a xlink:href="dir_000002_000018.html" target="_top" xlink:title="54">
<text text-anchor="middle" x="349.56" y="-44.77" font-family="Helvetica,sans-Serif" font-size="10.00">54</text>
</a>
</g>
</g>
<!-- dir_3d3615e9a999cab4f3407307569d6ced&#45;&gt;dir_e4cd57caa88bf1f4e1bf9521bc47c3c0 -->
<g id="edge25" class="edge">
<title>dir_3d3615e9a999cab4f3407307569d6ced&#45;&gt;dir_e4cd57caa88bf1f4e1bf9521bc47c3c0</title>
<path fill="none" stroke="black" d="M324.88,-36.19C309.11,-61.06 275.19,-107.25 251.83,-135.93"/>
<polygon fill="black" stroke="black" points="248.93,-133.94 245.25,-143.87 254.33,-138.4 248.93,-133.94"/>
<g id="a_edge25&#45;headlabel"><a xlink:href="dir_000018_000010.html" target="_top" xlink:title="1">
<text text-anchor="middle" x="249.04" y="-126.86" font-family="Helvetica,sans-Serif" font-size="10.00">1</text>
</a>
</g>
</g>
</g>
</svg>
        <g id="navigator" transform="translate(0 0)" fill="#404254">
                <rect fill="#f2f5e9" fill-opacity="0.5" stroke="#606060" stroke-width=".5" x="0" y="0" width="60" height="60"/>
                <use id="zoomplus" xlink:href="#zoomPlus" x="17" y="9" onmousedown="handleZoom(evt,'in')"/>
                <use id="zoomminus" xlink:href="#zoomMin" x="42" y="9" onmousedown="handleZoom(evt,'out')"/>
                <use id="reset" xlink:href="#resetDef" x="30" y="36" onmousedown="handleReset()"/>
                <g id="arrowUp" xlink:href="#dirArrow" transform="translate(30 24)" onmousedown="handlePan(0,-1)">
                  <use xlink:href="#rim" fill="#404040">
                        <set attributeName="fill" to="#808080" begin="arrowUp.mouseover" end="arrowUp.mouseout"/>
                  </use>
                  <path fill="none" stroke="white" stroke-width="1.5" d="M0,-3.0v7 M-2.5,-0.5L0,-3.0L2.5,-0.5"/>
                </g>
                <g id="arrowRight" xlink:href="#dirArrow" transform="rotate(90) translate(36 -43)" onmousedown="handlePan(1,0)">
                  <use xlink:href="#rim" fill="#404040">
                        <set attributeName="fill" to="#808080" begin="arrowRight.mouseover" end="arrowRight.mouseout"/>
                  </use>
                  <path fill="none" stroke="white" stroke-width="1.5" d="M0,-3.0v7 M-2.5,-0.5L0,-3.0L2.5,-0.5"/>
                </g>
                <g id="arrowDown" xlink:href="#dirArrow" transform="rotate(180) translate(-30 -48)" onmousedown="handlePan(0,1)">
                  <use xlink:href="#rim" fill="#404040">
                        <set attributeName="fill" to="#808080" begin="arrowDown.mouseover" end="arrowDown.mouseout"/>
                  </use>
                  <path fill="none" stroke="white" stroke-width="1.5" d="M0,-3.0v7 M-2.5,-0.5L0,-3.0L2.5,-0.5"/>
                </g>
                <g id="arrowLeft" xlink:href="#dirArrow" transform="rotate(270) translate(-36 17)" onmousedown="handlePan(-1,0)">
                  <use xlink:href="#rim" fill="#404040">
                        <set attributeName="fill" to="#808080" begin="arrowLeft.mouseover" end="arrowLeft.mouseout"/>
                  </use>
                  <path fill="none" stroke="white" stroke-width="1.5" d="M0,-3.0v7 M-2.5,-0.5L0,-3.0L2.5,-0.5"/>
                </g>
        </g>
        <svg viewBox="0 0 15 15" width="100%" height="30px" preserveAspectRatio="xMaxYMin meet">
         <g id="arrow_out" transform="scale(0.3 0.3)">
          <a xlink:href="dir_f2c65bfcbdc19ebacbfc0bbbfb0d01b6_dep_org.svg" target="_base">
           <rect id="button" ry="5" rx="5" y="6" x="6" height="38" width="38"
                fill="#f2f5e9" fill-opacity="0.5" stroke="#606060" stroke-width="1.0"/>
           <path id="arrow"
             d="M 11.500037,31.436501 C 11.940474,20.09759 22.043105,11.32322 32.158766,21.979434 L 37.068811,17.246167 C 37.068811,17.246167 37.088388,32 37.088388,32 L 22.160133,31.978069 C 22.160133,31.978069 26.997745,27.140456 26.997745,27.140456 C 18.528582,18.264221 13.291696,25.230495 11.500037,31.436501 z"
             style="fill:#404040;"/>
          </a>
         </g>
        </svg>
</svg>
