<?xml version="1.0" encoding="UTF-8" standalone="no"?>
<!DOCTYPE svg PUBLIC "-//W3C//DTD SVG 1.1//EN"
 "http://www.w3.org/Graphics/SVG/1.1/DTD/svg11.dtd">
<!-- Generated by graphviz version 2.43.0 (0)
 -->
<!-- Title: immersed_boundary Pages: 1 -->
<svg width="291pt" height="375pt"
 viewBox="0.00 0.00 291.01 375.00" xmlns="http://www.w3.org/2000/svg" xmlns:xlink="http://www.w3.org/1999/xlink">
<g id="graph0" class="graph" transform="scale(1 1) rotate(0) translate(4 371)">
<title>immersed_boundary</title>
<polygon fill="white" stroke="transparent" points="-4,4 -4,-371 287.01,-371 287.01,4 -4,4"/>
<g id="clust1" class="cluster">
<title>clusterdir_d85575251dd712327fe3cf057fa568b4</title>
<g id="a_clust1"><a xlink:href="dir_d85575251dd712327fe3cf057fa568b4.html" target="_top" xlink:title="amr&#45;wind">
<polygon fill="#ddddee" stroke="black" points="39.01,-272 39.01,-359 275.01,-359 275.01,-272 39.01,-272"/>
<text text-anchor="middle" x="157.01" y="-347" font-family="Helvetica,sans-Serif" font-size="10.00">amr&#45;wind</text>
</a>
</g>
</g>
<g id="clust2" class="cluster">
<title>clusterdir_fd923bd2d0167375463be7322a394e28</title>
<g id="a_clust2"><a xlink:href="dir_fd923bd2d0167375463be7322a394e28.html" target="_top">
<polygon fill="#eeeeff" stroke="black" points="47.01,-280 47.01,-332 267.01,-332 267.01,-280 47.01,-280"/>
</a>
</g>
</g>
<!-- dir_fd923bd2d0167375463be7322a394e28 -->
<g id="node1" class="node">
<title>dir_fd923bd2d0167375463be7322a394e28</title>
<text text-anchor="middle" x="200.01" y="-303.5" font-family="Helvetica,sans-Serif" font-size="10.00">immersed_boundary</text>
</g>
<!-- dir_cbbe9331ac969bdd6ef14e7a7b37084e -->
<g id="node2" class="node">
<title>dir_cbbe9331ac969bdd6ef14e7a7b37084e</title>
<g id="a_node2"><a xlink:href="dir_cbbe9331ac969bdd6ef14e7a7b37084e.html" target="_top" xlink:title="bluff_body">
<polygon fill="white" stroke="black" points="123.01,-324 55.01,-324 55.01,-288 123.01,-288 123.01,-324"/>
<text text-anchor="middle" x="89.01" y="-303.5" font-family="Helvetica,sans-Serif" font-size="10.00">bluff_body</text>
</a>
</g>
</g>
<!-- dir_f2c65bfcbdc19ebacbfc0bbbfb0d01b6 -->
<g id="node3" class="node">
<title>dir_f2c65bfcbdc19ebacbfc0bbbfb0d01b6</title>
<g id="a_node3"><a xlink:href="dir_f2c65bfcbdc19ebacbfc0bbbfb0d01b6.html" target="_top" xlink:title="physics">
<polygon fill="white" stroke="red" points="89.01,-252 35.01,-252 35.01,-216 89.01,-216 89.01,-252"/>
<text text-anchor="middle" x="62.01" y="-231.5" font-family="Helvetica,sans-Serif" font-size="10.00">physics</text>
</a>
</g>
</g>
<!-- dir_cbbe9331ac969bdd6ef14e7a7b37084e&#45;&gt;dir_f2c65bfcbdc19ebacbfc0bbbfb0d01b6 -->
<g id="edge4" class="edge">
<title>dir_cbbe9331ac969bdd6ef14e7a7b37084e&#45;&gt;dir_f2c65bfcbdc19ebacbfc0bbbfb0d01b6</title>
<path fill="none" stroke="black" d="M82.33,-287.7C79.29,-279.81 75.62,-270.3 72.25,-261.55"/>
<polygon fill="black" stroke="black" points="75.47,-260.17 68.6,-252.1 68.94,-262.69 75.47,-260.17"/>
<g id="a_edge4&#45;headlabel"><a xlink:href="dir_000014_000015.html" target="_top" xlink:title="1">
<text text-anchor="middle" x="79.41" y="-260.01" font-family="Helvetica,sans-Serif" font-size="10.00">1</text>
</a>
</g>
</g>
<!-- dir_e4cd57caa88bf1f4e1bf9521bc47c3c0 -->
<g id="node4" class="node">
<title>dir_e4cd57caa88bf1f4e1bf9521bc47c3c0</title>
<g id="a_node4"><a xlink:href="dir_e4cd57caa88bf1f4e1bf9521bc47c3c0.html" target="_top" xlink:title="utilities">
<polygon fill="white" stroke="red" points="89.01,-180 35.01,-180 35.01,-144 89.01,-144 89.01,-180"/>
<text text-anchor="middle" x="62.01" y="-159.5" font-family="Helvetica,sans-Serif" font-size="10.00">utilities</text>
</a>
</g>
</g>
<!-- dir_cbbe9331ac969bdd6ef14e7a7b37084e&#45;&gt;dir_e4cd57caa88bf1f4e1bf9521bc47c3c0 -->
<g id="edge5" class="edge">
<title>dir_cbbe9331ac969bdd6ef14e7a7b37084e&#45;&gt;dir_e4cd57caa88bf1f4e1bf9521bc47c3c0</title>
<path fill="none" stroke="black" d="M94.65,-287.88C99.76,-269.66 105.45,-240.2 98.01,-216 95,-206.22 89.5,-196.62 83.69,-188.33"/>
<polygon fill="black" stroke="black" points="86.41,-186.13 77.62,-180.23 80.81,-190.33 86.41,-186.13"/>
<g id="a_edge5&#45;headlabel"><a xlink:href="dir_000014_000010.html" target="_top" xlink:title="2">
<text text-anchor="middle" x="90.84" y="-184.8" font-family="Helvetica,sans-Serif" font-size="10.00">2</text>
</a>
</g>
</g>
<!-- dir_7f7a014517bfe31ea45620a6a947e37b -->
<g id="node5" class="node">
<title>dir_7f7a014517bfe31ea45620a6a947e37b</title>
<g id="a_node5"><a xlink:href="dir_7f7a014517bfe31ea45620a6a947e37b.html" target="_top" xlink:title="fvm">
<polygon fill="none" stroke="black" points="145.01,-108 91.01,-108 91.01,-72 145.01,-72 145.01,-108"/>
<text text-anchor="middle" x="118.01" y="-87.5" font-family="Helvetica,sans-Serif" font-size="10.00">fvm</text>
</a>
</g>
</g>
<!-- dir_cbbe9331ac969bdd6ef14e7a7b37084e&#45;&gt;dir_7f7a014517bfe31ea45620a6a947e37b -->
<g id="edge6" class="edge">
<title>dir_cbbe9331ac969bdd6ef14e7a7b37084e&#45;&gt;dir_7f7a014517bfe31ea45620a6a947e37b</title>
<path fill="none" stroke="black" d="M99.11,-287.97C104.56,-277.87 110.81,-264.62 114.01,-252 125.6,-206.22 123.64,-150.76 120.96,-118.33"/>
<polygon fill="black" stroke="black" points="124.44,-117.9 120.04,-108.26 117.46,-118.53 124.44,-117.9"/>
<g id="a_edge6&#45;headlabel"><a xlink:href="dir_000014_000020.html" target="_top" xlink:title="2">
<text text-anchor="middle" x="127.59" y="-118.72" font-family="Helvetica,sans-Serif" font-size="10.00">2</text>
</a>
</g>
</g>
<!-- dir_3d3615e9a999cab4f3407307569d6ced -->
<g id="node6" class="node">
<title>dir_3d3615e9a999cab4f3407307569d6ced</title>
<g id="a_node6"><a xlink:href="dir_3d3615e9a999cab4f3407307569d6ced.html" target="_top" xlink:title="core">
<polygon fill="white" stroke="red" points="81.01,-36 27.01,-36 27.01,0 81.01,0 81.01,-36"/>
<text text-anchor="middle" x="54.01" y="-15.5" font-family="Helvetica,sans-Serif" font-size="10.00">core</text>
</a>
</g>
</g>
<!-- dir_cbbe9331ac969bdd6ef14e7a7b37084e&#45;&gt;dir_3d3615e9a999cab4f3407307569d6ced -->
<g id="edge7" class="edge">
<title>dir_cbbe9331ac969bdd6ef14e7a7b37084e&#45;&gt;dir_3d3615e9a999cab4f3407307569d6ced</title>
<path fill="none" stroke="black" d="M60.19,-287.85C47.6,-278.82 33.92,-266.57 26.01,-252 -12.21,-181.68 -3.12,-148.31 21.01,-72 24.03,-62.44 29.18,-52.86 34.52,-44.53"/>
<polygon fill="black" stroke="black" points="37.57,-46.28 40.31,-36.05 31.78,-42.34 37.57,-46.28"/>
<g id="a_edge7&#45;headlabel"><a xlink:href="dir_000014_000018.html" target="_top" xlink:title="4">
<text text-anchor="middle" x="37.89" y="-48.35" font-family="Helvetica,sans-Serif" font-size="10.00">4</text>
</a>
</g>
</g>
<!-- dir_f2c65bfcbdc19ebacbfc0bbbfb0d01b6&#45;&gt;dir_e4cd57caa88bf1f4e1bf9521bc47c3c0 -->
<g id="edge1" class="edge">
<title>dir_f2c65bfcbdc19ebacbfc0bbbfb0d01b6&#45;&gt;dir_e4cd57caa88bf1f4e1bf9521bc47c3c0</title>
<path fill="none" stroke="black" d="M56.09,-215.7C55.3,-207.98 55.07,-198.71 55.41,-190.11"/>
<polygon fill="black" stroke="black" points="58.91,-190.32 56.11,-180.1 51.92,-189.84 58.91,-190.32"/>
<g id="a_edge1&#45;headlabel"><a xlink:href="dir_000015_000010.html" target="_top" xlink:title="11">
<text text-anchor="middle" x="61.49" y="-191.61" font-family="Helvetica,sans-Serif" font-size="10.00">11</text>
</a>
</g>
</g>
<!-- dir_f2c65bfcbdc19ebacbfc0bbbfb0d01b6&#45;&gt;dir_7f7a014517bfe31ea45620a6a947e37b -->
<g id="edge2" class="edge">
<title>dir_f2c65bfcbdc19ebacbfc0bbbfb0d01b6&#45;&gt;dir_7f7a014517bfe31ea45620a6a947e37b</title>
<path fill="none" stroke="black" d="M76.12,-215.83C83.63,-205.9 92.43,-192.86 98.01,-180 106.55,-160.29 111.65,-136.49 114.56,-118.46"/>
<polygon fill="black" stroke="black" points="118.06,-118.73 116.07,-108.33 111.14,-117.7 118.06,-118.73"/>
<g id="a_edge2&#45;headlabel"><a xlink:href="dir_000015_000020.html" target="_top" xlink:title="4">
<text text-anchor="middle" x="120.34" y="-120.2" font-family="Helvetica,sans-Serif" font-size="10.00">4</text>
</a>
</g>
</g>
<!-- dir_f2c65bfcbdc19ebacbfc0bbbfb0d01b6&#45;&gt;dir_3d3615e9a999cab4f3407307569d6ced -->
<g id="edge3" class="edge">
<title>dir_f2c65bfcbdc19ebacbfc0bbbfb0d01b6&#45;&gt;dir_3d3615e9a999cab4f3407307569d6ced</title>
<path fill="none" stroke="black" d="M46.4,-215.77C38.63,-206.03 30.06,-193.18 26.01,-180 11.8,-133.8 28.9,-77.78 41.94,-45.48"/>
<polygon fill="black" stroke="black" points="45.17,-46.83 45.81,-36.25 38.71,-44.12 45.17,-46.83"/>
<g id="a_edge3&#45;headlabel"><a xlink:href="dir_000015_000018.html" target="_top" xlink:title="52">
<text text-anchor="middle" x="46.39" y="-48.74" font-family="Helvetica,sans-Serif" font-size="10.00">52</text>
</a>
</g>
</g>
<!-- dir_e4cd57caa88bf1f4e1bf9521bc47c3c0&#45;&gt;dir_f2c65bfcbdc19ebacbfc0bbbfb0d01b6 -->
<g id="edge8" class="edge">
<title>dir_e4cd57caa88bf1f4e1bf9521bc47c3c0&#45;&gt;dir_f2c65bfcbdc19ebacbfc0bbbfb0d01b6</title>
<path fill="none" stroke="black" d="M67.9,-180.1C68.71,-187.79 68.94,-197.05 68.61,-205.67"/>
<polygon fill="black" stroke="black" points="65.12,-205.48 67.92,-215.7 72.1,-205.96 65.12,-205.48"/>
<g id="a_edge8&#45;headlabel"><a xlink:href="dir_000010_000015.html" target="_top" xlink:title="1">
<text text-anchor="middle" x="62.53" y="-199.2" font-family="Helvetica,sans-Serif" font-size="10.00">1</text>
</a>
</g>
</g>
<!-- dir_e4cd57caa88bf1f4e1bf9521bc47c3c0&#45;&gt;dir_7f7a014517bfe31ea45620a6a947e37b -->
<g id="edge9" class="edge">
<title>dir_e4cd57caa88bf1f4e1bf9521bc47c3c0&#45;&gt;dir_7f7a014517bfe31ea45620a6a947e37b</title>
<path fill="none" stroke="black" d="M75.85,-143.7C82.5,-135.39 90.59,-125.28 97.89,-116.14"/>
<polygon fill="black" stroke="black" points="100.81,-118.1 104.32,-108.1 95.34,-113.73 100.81,-118.1"/>
<g id="a_edge9&#45;headlabel"><a xlink:href="dir_000010_000020.html" target="_top" xlink:title="2">
<text text-anchor="middle" x="100.78" y="-120.18" font-family="Helvetica,sans-Serif" font-size="10.00">2</text>
</a>
</g>
</g>
<!-- dir_e4cd57caa88bf1f4e1bf9521bc47c3c0&#45;&gt;dir_3d3615e9a999cab4f3407307569d6ced -->
<g id="edge10" class="edge">
<title>dir_e4cd57caa88bf1f4e1bf9521bc47c3c0&#45;&gt;dir_3d3615e9a999cab4f3407307569d6ced</title>
<path fill="none" stroke="black" d="M56.46,-143.87C52.54,-119.67 49.74,-75.21 50.09,-46.39"/>
<polygon fill="black" stroke="black" points="53.6,-46.29 50.38,-36.19 46.6,-46.08 53.6,-46.29"/>
<g id="a_edge10&#45;headlabel"><a xlink:href="dir_000010_000018.html" target="_top" xlink:title="21">
<text text-anchor="middle" x="56.33" y="-47.46" font-family="Helvetica,sans-Serif" font-size="10.00">21</text>
</a>
</g>
</g>
<!-- dir_7f7a014517bfe31ea45620a6a947e37b&#45;&gt;dir_3d3615e9a999cab4f3407307569d6ced -->
<g id="edge11" class="edge">
<title>dir_7f7a014517bfe31ea45620a6a947e37b&#45;&gt;dir_3d3615e9a999cab4f3407307569d6ced</title>
<path fill="none" stroke="black" d="M102.19,-71.7C94.44,-63.22 84.97,-52.86 76.48,-43.58"/>
<polygon fill="black" stroke="black" points="78.98,-41.12 69.65,-36.1 73.81,-45.85 78.98,-41.12"/>
<g id="a_edge11&#45;headlabel"><a xlink:href="dir_000020_000018.html" target="_top" xlink:title="1">
<text text-anchor="middle" x="83.5" y="-39.36" font-family="Helvetica,sans-Serif" font-size="10.00">1</text>
</a>
</g>
</g>
<!-- dir_3d3615e9a999cab4f3407307569d6ced&#45;&gt;dir_e4cd57caa88bf1f4e1bf9521bc47c3c0 -->
<g id="edge12" class="edge">
<title>dir_3d3615e9a999cab4f3407307569d6ced&#45;&gt;dir_e4cd57caa88bf1f4e1bf9521bc47c3c0</title>
<path fill="none" stroke="black" d="M59.57,-36.19C63.49,-60.42 66.28,-104.89 65.92,-133.68"/>
<polygon fill="black" stroke="black" points="62.42,-133.77 65.63,-143.87 69.41,-133.98 62.42,-133.77"/>
<g id="a_edge12&#45;headlabel"><a xlink:href="dir_000018_000010.html" target="_top" xlink:title="1">
<text text-anchor="middle" x="59.68" y="-127.6" font-family="Helvetica,sans-Serif" font-size="10.00">1</text>
</a>
</g>
</g>
</g>
</svg>
