<?xml version="1.0" encoding="UTF-8" standalone="no"?>
<!DOCTYPE svg PUBLIC "-//W3C//DTD SVG 1.1//EN"
 "http://www.w3.org/Graphics/SVG/1.1/DTD/svg11.dtd">
<!-- Generated by graphviz version 2.43.0 (0)
 -->
<!-- Title: actuator Pages: 1 -->
<svg width="298pt" height="303pt"
 viewBox="0.00 0.00 297.89 303.00" xmlns="http://www.w3.org/2000/svg" xmlns:xlink="http://www.w3.org/1999/xlink">
<g id="graph0" class="graph" transform="scale(1 1) rotate(0) translate(4 299)">
<title>actuator</title>
<polygon fill="white" stroke="transparent" points="-4,4 -4,-299 293.89,-299 293.89,4 -4,4"/>
<g id="clust1" class="cluster">
<title>clusterdir_0c368f76a33d967d5b838b5681461de6</title>
<g id="a_clust1"><a xlink:href="dir_0c368f76a33d967d5b838b5681461de6.html" target="_top" xlink:title="wind_energy">
<polygon fill="#ddddee" stroke="black" points="8,-128 8,-287 238,-287 238,-128 8,-128"/>
<text text-anchor="middle" x="123" y="-275" font-family="Helvetica,sans-Serif" font-size="10.00">wind_energy</text>
</a>
</g>
</g>
<g id="clust2" class="cluster">
<title>clusterdir_7ecfdf414f04b0541a95d392dbc1e5c0</title>
<g id="a_clust2"><a xlink:href="dir_7ecfdf414f04b0541a95d392dbc1e5c0.html" target="_top">
<polygon fill="#eeeeff" stroke="black" points="16,-136 16,-260 230,-260 230,-136 16,-136"/>
</a>
</g>
</g>
<!-- dir_7ecfdf414f04b0541a95d392dbc1e5c0 -->
<g id="node1" class="node">
<title>dir_7ecfdf414f04b0541a95d392dbc1e5c0</title>
<text text-anchor="middle" x="121" y="-231.5" font-family="Helvetica,sans-Serif" font-size="10.00">actuator</text>
</g>
<!-- dir_2b9dc5e8bb121bbf6312166c568f90af -->
<g id="node3" class="node">
<title>dir_2b9dc5e8bb121bbf6312166c568f90af</title>
<g id="a_node3"><a xlink:href="dir_2b9dc5e8bb121bbf6312166c568f90af.html" target="_top" xlink:title="disk">
<polygon fill="white" stroke="black" points="78,-180 24,-180 24,-144 78,-144 78,-180"/>
<text text-anchor="middle" x="51" y="-159.5" font-family="Helvetica,sans-Serif" font-size="10.00">disk</text>
</a>
</g>
</g>
<!-- dir_7ecfdf414f04b0541a95d392dbc1e5c0&#45;&gt;dir_2b9dc5e8bb121bbf6312166c568f90af -->
<g id="edge10" class="edge">
<title>dir_7ecfdf414f04b0541a95d392dbc1e5c0&#45;&gt;dir_2b9dc5e8bb121bbf6312166c568f90af</title>
<path fill="none" stroke="black" d="M103.7,-215.7C95.14,-207.14 84.66,-196.66 75.3,-187.3"/>
<polygon fill="black" stroke="black" points="77.65,-184.7 68.1,-180.1 72.7,-189.65 77.65,-184.7"/>
<g id="a_edge10&#45;headlabel"><a xlink:href="dir_000005_000006.html" target="_top" xlink:title="1">
<text text-anchor="middle" x="82.2" y="-182.73" font-family="Helvetica,sans-Serif" font-size="10.00">1</text>
</a>
</g>
</g>
<!-- dir_26e13646035c47d7e3eb3b975c94bc4e -->
<g id="node4" class="node">
<title>dir_26e13646035c47d7e3eb3b975c94bc4e</title>
<g id="a_node4"><a xlink:href="dir_26e13646035c47d7e3eb3b975c94bc4e.html" target="_top" xlink:title="turbine">
<polygon fill="white" stroke="red" points="150,-180 96,-180 96,-144 150,-144 150,-180"/>
<text text-anchor="middle" x="123" y="-159.5" font-family="Helvetica,sans-Serif" font-size="10.00">turbine</text>
</a>
</g>
</g>
<!-- dir_7ecfdf414f04b0541a95d392dbc1e5c0&#45;&gt;dir_26e13646035c47d7e3eb3b975c94bc4e -->
<g id="edge11" class="edge">
<title>dir_7ecfdf414f04b0541a95d392dbc1e5c0&#45;&gt;dir_26e13646035c47d7e3eb3b975c94bc4e</title>
<path fill="none" stroke="black" d="M121.49,-215.7C121.71,-207.98 121.98,-198.71 122.23,-190.11"/>
<polygon fill="black" stroke="black" points="125.72,-190.2 122.51,-180.1 118.73,-190 125.72,-190.2"/>
<g id="a_edge11&#45;headlabel"><a xlink:href="dir_000005_000007.html" target="_top" xlink:title="1">
<text text-anchor="middle" x="128.46" y="-191.37" font-family="Helvetica,sans-Serif" font-size="10.00">1</text>
</a>
</g>
</g>
<!-- dir_3d3615e9a999cab4f3407307569d6ced -->
<g id="node7" class="node">
<title>dir_3d3615e9a999cab4f3407307569d6ced</title>
<g id="a_node7"><a xlink:href="dir_3d3615e9a999cab4f3407307569d6ced.html" target="_top" xlink:title="core">
<polygon fill="white" stroke="red" points="188,-108 134,-108 134,-72 188,-72 188,-108"/>
<text text-anchor="middle" x="161" y="-87.5" font-family="Helvetica,sans-Serif" font-size="10.00">core</text>
</a>
</g>
</g>
<!-- dir_7ecfdf414f04b0541a95d392dbc1e5c0&#45;&gt;dir_3d3615e9a999cab4f3407307569d6ced -->
<g id="edge12" class="edge">
<title>dir_7ecfdf414f04b0541a95d392dbc1e5c0&#45;&gt;dir_3d3615e9a999cab4f3407307569d6ced</title>
<path fill="none" stroke="black" d="M149.65,-220.11C181.44,-205.68 228.62,-183.79 231,-180 243.29,-160.43 242.93,-147.8 231,-128 223.59,-115.71 210.59,-107.29 197.78,-101.63"/>
<polygon fill="black" stroke="black" points="198.71,-98.23 188.12,-97.82 196.14,-104.74 198.71,-98.23"/>
<g id="a_edge12&#45;headlabel"><a xlink:href="dir_000005_000018.html" target="_top" xlink:title="20">
<text text-anchor="middle" x="203.1" y="-94.41" font-family="Helvetica,sans-Serif" font-size="10.00">20</text>
</a>
</g>
</g>
<!-- dir_e4e9964e9eecc53686804f6e188c33cc -->
<g id="node2" class="node">
<title>dir_e4e9964e9eecc53686804f6e188c33cc</title>
<g id="a_node2"><a xlink:href="dir_e4e9964e9eecc53686804f6e188c33cc.html" target="_top" xlink:title="aero">
<polygon fill="white" stroke="black" points="222,-180 168,-180 168,-144 222,-144 222,-180"/>
<text text-anchor="middle" x="195" y="-159.5" font-family="Helvetica,sans-Serif" font-size="10.00">aero</text>
</a>
</g>
</g>
<!-- dir_e4cd57caa88bf1f4e1bf9521bc47c3c0 -->
<g id="node6" class="node">
<title>dir_e4cd57caa88bf1f4e1bf9521bc47c3c0</title>
<g id="a_node6"><a xlink:href="dir_e4cd57caa88bf1f4e1bf9521bc47c3c0.html" target="_top" xlink:title="utilities">
<polygon fill="white" stroke="red" points="188,-36 134,-36 134,0 188,0 188,-36"/>
<text text-anchor="middle" x="161" y="-15.5" font-family="Helvetica,sans-Serif" font-size="10.00">utilities</text>
</a>
</g>
</g>
<!-- dir_e4e9964e9eecc53686804f6e188c33cc&#45;&gt;dir_e4cd57caa88bf1f4e1bf9521bc47c3c0 -->
<g id="edge1" class="edge">
<title>dir_e4e9964e9eecc53686804f6e188c33cc&#45;&gt;dir_e4cd57caa88bf1f4e1bf9521bc47c3c0</title>
<path fill="none" stroke="black" d="M198.53,-143.83C201.57,-125.58 204.4,-96.08 197,-72 193.99,-62.22 188.49,-52.62 182.68,-44.33"/>
<polygon fill="black" stroke="black" points="185.41,-42.13 176.61,-36.23 179.81,-46.33 185.41,-42.13"/>
<g id="a_edge1&#45;headlabel"><a xlink:href="dir_000009_000010.html" target="_top" xlink:title="1">
<text text-anchor="middle" x="189.83" y="-40.8" font-family="Helvetica,sans-Serif" font-size="10.00">1</text>
</a>
</g>
</g>
<!-- dir_2b9dc5e8bb121bbf6312166c568f90af&#45;&gt;dir_e4cd57caa88bf1f4e1bf9521bc47c3c0 -->
<g id="edge5" class="edge">
<title>dir_2b9dc5e8bb121bbf6312166c568f90af&#45;&gt;dir_e4cd57caa88bf1f4e1bf9521bc47c3c0</title>
<path fill="none" stroke="black" d="M62.86,-144C75.62,-125.88 96.7,-96.5 116,-72 123.32,-62.71 131.63,-52.76 139.1,-44.03"/>
<polygon fill="black" stroke="black" points="141.8,-46.26 145.67,-36.4 136.49,-41.69 141.8,-46.26"/>
<g id="a_edge5&#45;headlabel"><a xlink:href="dir_000006_000010.html" target="_top" xlink:title="8">
<text text-anchor="middle" x="141.6" y="-48.34" font-family="Helvetica,sans-Serif" font-size="10.00">8</text>
</a>
</g>
</g>
<!-- dir_2b9dc5e8bb121bbf6312166c568f90af&#45;&gt;dir_3d3615e9a999cab4f3407307569d6ced -->
<g id="edge6" class="edge">
<title>dir_2b9dc5e8bb121bbf6312166c568f90af&#45;&gt;dir_3d3615e9a999cab4f3407307569d6ced</title>
<path fill="none" stroke="black" d="M67.75,-143.85C73.56,-138.41 80.3,-132.61 87,-128 98.69,-119.95 112.38,-112.61 124.79,-106.62"/>
<polygon fill="black" stroke="black" points="126.4,-109.73 133.97,-102.31 123.43,-103.39 126.4,-109.73"/>
<g id="a_edge6&#45;headlabel"><a xlink:href="dir_000006_000018.html" target="_top" xlink:title="4">
<text text-anchor="middle" x="124.35" y="-111.32" font-family="Helvetica,sans-Serif" font-size="10.00">4</text>
</a>
</g>
</g>
<!-- dir_26e13646035c47d7e3eb3b975c94bc4e&#45;&gt;dir_e4cd57caa88bf1f4e1bf9521bc47c3c0 -->
<g id="edge7" class="edge">
<title>dir_26e13646035c47d7e3eb3b975c94bc4e&#45;&gt;dir_e4cd57caa88bf1f4e1bf9521bc47c3c0</title>
<path fill="none" stroke="black" d="M120.56,-143.8C118.61,-125.52 117.33,-95.99 125,-72 128.12,-62.25 133.65,-52.66 139.45,-44.38"/>
<polygon fill="black" stroke="black" points="142.33,-46.37 145.51,-36.26 136.72,-42.18 142.33,-46.37"/>
<g id="a_edge7&#45;headlabel"><a xlink:href="dir_000007_000010.html" target="_top" xlink:title="4">
<text text-anchor="middle" x="142.45" y="-48.45" font-family="Helvetica,sans-Serif" font-size="10.00">4</text>
</a>
</g>
</g>
<!-- dir_26e13646035c47d7e3eb3b975c94bc4e&#45;&gt;dir_3d3615e9a999cab4f3407307569d6ced -->
<g id="edge8" class="edge">
<title>dir_26e13646035c47d7e3eb3b975c94bc4e&#45;&gt;dir_3d3615e9a999cab4f3407307569d6ced</title>
<path fill="none" stroke="black" d="M132.39,-143.7C136.76,-135.64 142.06,-125.89 146.9,-116.98"/>
<polygon fill="black" stroke="black" points="150.02,-118.56 151.71,-108.1 143.87,-115.22 150.02,-118.56"/>
<g id="a_edge8&#45;headlabel"><a xlink:href="dir_000007_000018.html" target="_top" xlink:title="4">
<text text-anchor="middle" x="150.8" y="-120.58" font-family="Helvetica,sans-Serif" font-size="10.00">4</text>
</a>
</g>
</g>
<!-- dir_e3d85df9da26726704711d7e5a0bc894 -->
<g id="node5" class="node">
<title>dir_e3d85df9da26726704711d7e5a0bc894</title>
<g id="a_node5"><a xlink:href="dir_e3d85df9da26726704711d7e5a0bc894.html" target="_top" xlink:title="wing">
<polygon fill="white" stroke="black" points="222,-252 168,-252 168,-216 222,-216 222,-252"/>
<text text-anchor="middle" x="195" y="-231.5" font-family="Helvetica,sans-Serif" font-size="10.00">wing</text>
</a>
</g>
</g>
<!-- dir_e3d85df9da26726704711d7e5a0bc894&#45;&gt;dir_e4e9964e9eecc53686804f6e188c33cc -->
<g id="edge2" class="edge">
<title>dir_e3d85df9da26726704711d7e5a0bc894&#45;&gt;dir_e4e9964e9eecc53686804f6e188c33cc</title>
<path fill="none" stroke="black" d="M195,-215.7C195,-207.98 195,-198.71 195,-190.11"/>
<polygon fill="black" stroke="black" points="198.5,-190.1 195,-180.1 191.5,-190.1 198.5,-190.1"/>
<g id="a_edge2&#45;headlabel"><a xlink:href="dir_000008_000009.html" target="_top" xlink:title="3">
<text text-anchor="middle" x="201.34" y="-191.2" font-family="Helvetica,sans-Serif" font-size="10.00">3</text>
</a>
</g>
</g>
<!-- dir_e3d85df9da26726704711d7e5a0bc894&#45;&gt;dir_e4cd57caa88bf1f4e1bf9521bc47c3c0 -->
<g id="edge3" class="edge">
<title>dir_e3d85df9da26726704711d7e5a0bc894&#45;&gt;dir_e4cd57caa88bf1f4e1bf9521bc47c3c0</title>
<path fill="none" stroke="black" d="M222.38,-224.52C242.83,-216.59 269.35,-202.51 282,-180 293.32,-159.85 291.4,-149.11 282,-128 264.65,-89.02 225.72,-58.13 196.67,-39.32"/>
<polygon fill="black" stroke="black" points="198.34,-36.24 188.01,-33.88 194.61,-42.17 198.34,-36.24"/>
<g id="a_edge3&#45;headlabel"><a xlink:href="dir_000008_000010.html" target="_top" xlink:title="3">
<text text-anchor="middle" x="202.89" y="-33.25" font-family="Helvetica,sans-Serif" font-size="10.00">3</text>
</a>
</g>
</g>
<!-- dir_e3d85df9da26726704711d7e5a0bc894&#45;&gt;dir_3d3615e9a999cab4f3407307569d6ced -->
<g id="edge4" class="edge">
<title>dir_e3d85df9da26726704711d7e5a0bc894&#45;&gt;dir_3d3615e9a999cab4f3407307569d6ced</title>
<path fill="none" stroke="black" d="M222.03,-220.13C237.39,-211.21 255.25,-197.75 264,-180 274.22,-159.27 277.3,-146.9 264,-128 249.21,-106.98 221.29,-97.84 198.25,-93.9"/>
<polygon fill="black" stroke="black" points="198.46,-90.39 188.07,-92.43 197.46,-97.32 198.46,-90.39"/>
<g id="a_edge4&#45;headlabel"><a xlink:href="dir_000008_000018.html" target="_top" xlink:title="1">
<text text-anchor="middle" x="202.43" y="-85.6" font-family="Helvetica,sans-Serif" font-size="10.00">1</text>
</a>
</g>
</g>
<!-- dir_e4cd57caa88bf1f4e1bf9521bc47c3c0&#45;&gt;dir_3d3615e9a999cab4f3407307569d6ced -->
<g id="edge9" class="edge">
<title>dir_e4cd57caa88bf1f4e1bf9521bc47c3c0&#45;&gt;dir_3d3615e9a999cab4f3407307569d6ced</title>
<path fill="none" stroke="black" d="M166.9,-36.1C167.7,-43.79 167.94,-53.05 167.6,-61.67"/>
<polygon fill="black" stroke="black" points="164.11,-61.48 166.92,-71.7 171.09,-61.96 164.11,-61.48"/>
<g id="a_edge9&#45;headlabel"><a xlink:href="dir_000010_000018.html" target="_top" xlink:title="21">
<text text-anchor="middle" x="161.52" y="-55.2" font-family="Helvetica,sans-Serif" font-size="10.00">21</text>
</a>
</g>
</g>
<!-- dir_3d3615e9a999cab4f3407307569d6ced&#45;&gt;dir_e4cd57caa88bf1f4e1bf9521bc47c3c0 -->
<g id="edge13" class="edge">
<title>dir_3d3615e9a999cab4f3407307569d6ced&#45;&gt;dir_e4cd57caa88bf1f4e1bf9521bc47c3c0</title>
<path fill="none" stroke="black" d="M155.08,-71.7C154.29,-63.98 154.06,-54.71 154.4,-46.11"/>
<polygon fill="black" stroke="black" points="157.9,-46.32 155.1,-36.1 150.92,-45.84 157.9,-46.32"/>
<g id="a_edge13&#45;headlabel"><a xlink:href="dir_000018_000010.html" target="_top" xlink:title="1">
<text text-anchor="middle" x="160.48" y="-47.61" font-family="Helvetica,sans-Serif" font-size="10.00">1</text>
</a>
</g>
</g>
</g>
</svg>
