<?xml version="1.0" encoding="UTF-8" standalone="no"?>
<!DOCTYPE svg PUBLIC "-//W3C//DTD SVG 1.1//EN"
 "http://www.w3.org/Graphics/SVG/1.1/DTD/svg11.dtd">
<!-- Generated by graphviz version 2.43.0 (0)
 -->
<!-- Title: disk_spreading.H Pages: 1 -->
<!--zoomable 598 -->
<svg id="main" version="1.1" xmlns="http://www.w3.org/2000/svg" xmlns:xlink="http://www.w3.org/1999/xlink" xml:space="preserve" onload="init(evt)">
<style type="text/css"><![CDATA[
.edge:hover path { stroke: red; }
.edge:hover polygon { stroke: red; fill: red; }
]]></style>
<script type="text/javascript"><![CDATA[
var edges = document.getElementsByTagName('g');
if (edges && edges.length) {
  for (var i=0;i<edges.length;i++) {
    if (edges[i].id.substr(0,4)=='edge') {
      edges[i].setAttribute('class','edge');
    }
  }
}
]]></script>
        <defs>
                <circle id="rim" cx="0" cy="0" r="7"/>
                <circle id="rim2" cx="0" cy="0" r="3.5"/>
                <g id="zoomPlus">
                        <use xlink:href="#rim" fill="#404040">
                                <set attributeName="fill" to="#808080" begin="zoomplus.mouseover" end="zoomplus.mouseout"/>
                        </use>
                        <path d="M-4,0h8M0,-4v8" fill="none" stroke="white" stroke-width="1.5" pointer-events="none"/>
                </g>
                <g id="zoomMin">
                        <use xlink:href="#rim" fill="#404040">
                                <set attributeName="fill" to="#808080" begin="zoomminus.mouseover" end="zoomminus.mouseout"/>
                        </use>
                        <path d="M-4,0h8" fill="none" stroke="white" stroke-width="1.5" pointer-events="none"/>
                </g>
                <g id="dirArrow">
                        <path fill="none" stroke="white" stroke-width="1.5" d="M0,-3.0v7 M-2.5,-0.5L0,-3.0L2.5,-0.5"/>
                </g>
               <g id="resetDef">
                       <use xlink:href="#rim2" fill="#404040">
                               <set attributeName="fill" to="#808080" begin="reset.mouseover" end="reset.mouseout"/>
                       </use>
               </g>
        </defs>

<script type="text/javascript">
var viewWidth = 2585;
var viewHeight = 598;
var sectionId = 'dynsection-0';
</script>
<script xlink:href="svgpan.js"/>
<svg id="graph" class="graph">
<g id="viewport">
<title>disk_spreading.H</title>
<polygon fill="white" stroke="transparent" points="-4,4 -4,-594 2580.5,-594 2580.5,4 -4,4"/>
<!-- Node1 -->
<g id="node1" class="node">
<title>Node1</title>
<g id="a_node1"><a xlink:title=" ">
<polygon fill="#bfbfbf" stroke="black" points="536.5,-570.5 536.5,-589.5 637.5,-589.5 637.5,-570.5 536.5,-570.5"/>
<text text-anchor="middle" x="587" y="-577.5" font-family="Helvetica,sans-Serif" font-size="10.00">disk_spreading.H</text>
</a>
</g>
</g>
<!-- Node2 -->
<g id="node2" class="node">
<title>Node2</title>
<g id="a_node2"><a xlink:href="actuator__utils_8_h.html" target="_top" xlink:title=" ">
<polygon fill="white" stroke="black" points="363,-302.5 363,-332.5 503,-332.5 503,-302.5 363,-302.5"/>
<text text-anchor="start" x="371" y="-320.5" font-family="Helvetica,sans-Serif" font-size="10.00">amr&#45;wind/wind_energy</text>
<text text-anchor="middle" x="433" y="-309.5" font-family="Helvetica,sans-Serif" font-size="10.00">/actuator/actuator_utils.H</text>
</a>
</g>
</g>
<!-- Node1&#45;&gt;Node2 -->
<g id="edge1" class="edge">
<title>Node1&#45;&gt;Node2</title>
<path fill="none" stroke="midnightblue" d="M559.99,-570.35C541.82,-563.25 518.61,-551.48 504,-534 456.02,-476.58 440.15,-385.72 435.16,-342.66"/>
<polygon fill="midnightblue" stroke="midnightblue" points="438.62,-342.13 434.09,-332.55 431.66,-342.87 438.62,-342.13"/>
</g>
<!-- Node17 -->
<g id="node17" class="node">
<title>Node17</title>
<g id="a_node17"><a xlink:href="_uniform_ct_8_h.html" target="_top" xlink:title=" ">
<polygon fill="white" stroke="black" points="513.5,-503.5 513.5,-533.5 660.5,-533.5 660.5,-503.5 513.5,-503.5"/>
<text text-anchor="start" x="521.5" y="-521.5" font-family="Helvetica,sans-Serif" font-size="10.00">amr&#45;wind/wind_energy</text>
<text text-anchor="middle" x="587" y="-510.5" font-family="Helvetica,sans-Serif" font-size="10.00">/actuator/disk/UniformCt.H</text>
</a>
</g>
</g>
<!-- Node1&#45;&gt;Node17 -->
<g id="edge26" class="edge">
<title>Node1&#45;&gt;Node17</title>
<path fill="none" stroke="midnightblue" d="M587,-570.48C587,-563.47 587,-553.19 587,-543.7"/>
<polygon fill="midnightblue" stroke="midnightblue" points="590.5,-543.52 587,-533.52 583.5,-543.52 590.5,-543.52"/>
</g>
<!-- Node26 -->
<g id="node26" class="node">
<title>Node26</title>
<g id="a_node26"><a xlink:href="_field_repo_8_h.html" target="_top" xlink:title=" ">
<polygon fill="white" stroke="black" points="1482.5,-375 1482.5,-394 1631.5,-394 1631.5,-375 1482.5,-375"/>
<text text-anchor="middle" x="1557" y="-382" font-family="Helvetica,sans-Serif" font-size="10.00">amr&#45;wind/core/FieldRepo.H</text>
</a>
</g>
</g>
<!-- Node1&#45;&gt;Node26 -->
<g id="edge40" class="edge">
<title>Node1&#45;&gt;Node26</title>
<path fill="none" stroke="midnightblue" d="M629.62,-570.5C786.55,-539.19 1332.06,-430.37 1504.4,-395.99"/>
<polygon fill="midnightblue" stroke="midnightblue" points="1505.12,-399.42 1514.24,-394.03 1503.75,-392.55 1505.12,-399.42"/>
</g>
<!-- Node3 -->
<g id="node3" class="node">
<title>Node3</title>
<g id="a_node3"><a xlink:href="vector__space_8_h.html" target="_top" xlink:title=" ">
<polygon fill="white" stroke="black" points="370.5,-235.5 370.5,-265.5 505.5,-265.5 505.5,-235.5 370.5,-235.5"/>
<text text-anchor="start" x="378.5" y="-253.5" font-family="Helvetica,sans-Serif" font-size="10.00">amr&#45;wind/core/vs/vector</text>
<text text-anchor="middle" x="438" y="-242.5" font-family="Helvetica,sans-Serif" font-size="10.00">_space.H</text>
</a>
</g>
</g>
<!-- Node2&#45;&gt;Node3 -->
<g id="edge2" class="edge">
<title>Node2&#45;&gt;Node3</title>
<path fill="none" stroke="midnightblue" d="M434.08,-302.4C434.69,-294.56 435.45,-284.6 436.15,-275.57"/>
<polygon fill="midnightblue" stroke="midnightblue" points="439.64,-275.82 436.92,-265.58 432.66,-275.28 439.64,-275.82"/>
</g>
<!-- Node11 -->
<g id="node11" class="node">
<title>Node11</title>
<g id="a_node11"><a xlink:title=" ">
<polygon fill="white" stroke="#bfbfbf" points="457.5,-0.5 457.5,-19.5 504.5,-19.5 504.5,-0.5 457.5,-0.5"/>
<text text-anchor="middle" x="481" y="-7.5" font-family="Helvetica,sans-Serif" font-size="10.00">cmath</text>
</a>
</g>
</g>
<!-- Node2&#45;&gt;Node11 -->
<g id="edge24" class="edge">
<title>Node2&#45;&gt;Node11</title>
<path fill="none" stroke="midnightblue" d="M368.26,-302.41C281.42,-281.61 138,-239.73 138,-190 138,-190 138,-190 138,-132 138,-97.29 130.18,-79.2 156,-56 203.31,-13.47 377.31,-30.83 440,-20 442.36,-19.59 444.8,-19.14 447.24,-18.66"/>
<polygon fill="midnightblue" stroke="midnightblue" points="448.14,-22.05 457.22,-16.6 446.72,-15.2 448.14,-22.05"/>
</g>
<!-- Node15 -->
<g id="node15" class="node">
<title>Node15</title>
<g id="a_node15"><a xlink:title=" ">
<polygon fill="white" stroke="#bfbfbf" points="0,-241 0,-260 110,-260 110,-241 0,-241"/>
<text text-anchor="middle" x="55" y="-248" font-family="Helvetica,sans-Serif" font-size="10.00">AMReX_AmrCore.H</text>
</a>
</g>
</g>
<!-- Node2&#45;&gt;Node15 -->
<g id="edge23" class="edge">
<title>Node2&#45;&gt;Node15</title>
<path fill="none" stroke="midnightblue" d="M362.89,-305.97C300.16,-296.32 205.75,-281.26 124,-266 117.45,-264.78 110.57,-263.42 103.79,-262.04"/>
<polygon fill="midnightblue" stroke="midnightblue" points="104.49,-258.61 93.98,-260.01 103.07,-265.46 104.49,-258.61"/>
</g>
<!-- Node16 -->
<g id="node16" class="node">
<title>Node16</title>
<g id="a_node16"><a xlink:title=" ">
<polygon fill="white" stroke="#bfbfbf" points="524,-241 524,-260 556,-260 556,-241 524,-241"/>
<text text-anchor="middle" x="540" y="-248" font-family="Helvetica,sans-Serif" font-size="10.00">set</text>
</a>
</g>
</g>
<!-- Node2&#45;&gt;Node16 -->
<g id="edge25" class="edge">
<title>Node2&#45;&gt;Node16</title>
<path fill="none" stroke="midnightblue" d="M456.22,-302.4C474.33,-291.39 499.34,-276.2 517.31,-265.28"/>
<polygon fill="midnightblue" stroke="midnightblue" points="519.27,-268.19 526,-260.01 515.63,-262.21 519.27,-268.19"/>
</g>
<!-- Node4 -->
<g id="node4" class="node">
<title>Node4</title>
<g id="a_node4"><a xlink:href="vector_8_h.html" target="_top" xlink:title=" ">
<polygon fill="white" stroke="black" points="251.5,-123.5 251.5,-142.5 396.5,-142.5 396.5,-123.5 251.5,-123.5"/>
<text text-anchor="middle" x="324" y="-130.5" font-family="Helvetica,sans-Serif" font-size="10.00">amr&#45;wind/core/vs/vector.H</text>
</a>
</g>
</g>
<!-- Node3&#45;&gt;Node4 -->
<g id="edge3" class="edge">
<title>Node3&#45;&gt;Node4</title>
<path fill="none" stroke="midnightblue" d="M424.02,-235.34C402.64,-213.68 361.95,-172.45 339.63,-149.83"/>
<polygon fill="midnightblue" stroke="midnightblue" points="342.07,-147.33 332.56,-142.67 337.09,-152.25 342.07,-147.33"/>
</g>
<!-- Node12 -->
<g id="node12" class="node">
<title>Node12</title>
<g id="a_node12"><a xlink:href="tensor_8_h.html" target="_top" xlink:title=" ">
<polygon fill="white" stroke="black" points="409.5,-179.5 409.5,-198.5 554.5,-198.5 554.5,-179.5 409.5,-179.5"/>
<text text-anchor="middle" x="482" y="-186.5" font-family="Helvetica,sans-Serif" font-size="10.00">amr&#45;wind/core/vs/tensor.H</text>
</a>
</g>
</g>
<!-- Node3&#45;&gt;Node12 -->
<g id="edge12" class="edge">
<title>Node3&#45;&gt;Node12</title>
<path fill="none" stroke="midnightblue" d="M448.43,-235.4C454.76,-226.84 462.87,-215.87 469.53,-206.86"/>
<polygon fill="midnightblue" stroke="midnightblue" points="472.47,-208.78 475.6,-198.66 466.84,-204.62 472.47,-208.78"/>
</g>
<!-- Node5 -->
<g id="node5" class="node">
<title>Node5</title>
<g id="a_node5"><a xlink:title=" ">
<polygon fill="white" stroke="#bfbfbf" points="686.5,-0.5 686.5,-19.5 773.5,-19.5 773.5,-0.5 686.5,-0.5"/>
<text text-anchor="middle" x="730" y="-7.5" font-family="Helvetica,sans-Serif" font-size="10.00">AMReX_Gpu.H</text>
</a>
</g>
</g>
<!-- Node4&#45;&gt;Node5 -->
<g id="edge4" class="edge">
<title>Node4&#45;&gt;Node5</title>
<path fill="none" stroke="midnightblue" d="M396.56,-124.59C486.7,-115 631.43,-98.19 654,-87 681.33,-73.44 704.75,-46.2 718.11,-28.29"/>
<polygon fill="midnightblue" stroke="midnightblue" points="721.15,-30.05 724.14,-19.89 715.46,-25.97 721.15,-30.05"/>
</g>
<!-- Node6 -->
<g id="node6" class="node">
<title>Node6</title>
<g id="a_node6"><a xlink:href="vstraits_8_h.html" target="_top" xlink:title=" ">
<polygon fill="white" stroke="black" points="333,-62 333,-81 485,-81 485,-62 333,-62"/>
<text text-anchor="middle" x="409" y="-69" font-family="Helvetica,sans-Serif" font-size="10.00">amr&#45;wind/core/vs/vstraits.H</text>
</a>
</g>
</g>
<!-- Node4&#45;&gt;Node6 -->
<g id="edge5" class="edge">
<title>Node4&#45;&gt;Node6</title>
<path fill="none" stroke="midnightblue" d="M336.18,-123.48C349.81,-113.93 372.13,-98.31 388.47,-86.87"/>
<polygon fill="midnightblue" stroke="midnightblue" points="390.66,-89.61 396.84,-81.01 386.64,-83.88 390.66,-89.61"/>
</g>
<!-- Node9 -->
<g id="node9" class="node">
<title>Node9</title>
<g id="a_node9"><a xlink:href="vector_i_8_h.html" target="_top" xlink:title=" ">
<polygon fill="white" stroke="black" points="165.5,-62 165.5,-81 314.5,-81 314.5,-62 165.5,-62"/>
<text text-anchor="middle" x="240" y="-69" font-family="Helvetica,sans-Serif" font-size="10.00">amr&#45;wind/core/vs/vectorI.H</text>
</a>
</g>
</g>
<!-- Node4&#45;&gt;Node9 -->
<g id="edge8" class="edge">
<title>Node4&#45;&gt;Node9</title>
<path fill="none" stroke="midnightblue" d="M307.06,-123.48C291.8,-114.11 269.95,-98.88 255.24,-87.51"/>
<polygon fill="midnightblue" stroke="midnightblue" points="257.11,-84.52 247.12,-81.01 252.74,-89.99 257.11,-84.52"/>
</g>
<!-- Node7 -->
<g id="node7" class="node">
<title>Node7</title>
<g id="a_node7"><a xlink:title=" ">
<polygon fill="white" stroke="#bfbfbf" points="387,-0.5 387,-19.5 431,-19.5 431,-0.5 387,-0.5"/>
<text text-anchor="middle" x="409" y="-7.5" font-family="Helvetica,sans-Serif" font-size="10.00">limits</text>
</a>
</g>
</g>
<!-- Node6&#45;&gt;Node7 -->
<g id="edge6" class="edge">
<title>Node6&#45;&gt;Node7</title>
<path fill="none" stroke="midnightblue" d="M409,-61.98C409,-53.58 409,-40.48 409,-29.66"/>
<polygon fill="midnightblue" stroke="midnightblue" points="412.5,-29.51 409,-19.51 405.5,-29.51 412.5,-29.51"/>
</g>
<!-- Node8 -->
<g id="node8" class="node">
<title>Node8</title>
<g id="a_node8"><a xlink:title=" ">
<polygon fill="white" stroke="#bfbfbf" points="539,-0.5 539,-19.5 631,-19.5 631,-0.5 539,-0.5"/>
<text text-anchor="middle" x="585" y="-7.5" font-family="Helvetica,sans-Serif" font-size="10.00">AMReX_REAL.H</text>
</a>
</g>
</g>
<!-- Node6&#45;&gt;Node8 -->
<g id="edge7" class="edge">
<title>Node6&#45;&gt;Node8</title>
<path fill="none" stroke="midnightblue" d="M434.22,-61.98C464.67,-51.68 516.05,-34.31 550.24,-22.75"/>
<polygon fill="midnightblue" stroke="midnightblue" points="551.48,-26.03 559.83,-19.51 549.24,-19.4 551.48,-26.03"/>
</g>
<!-- Node9&#45;&gt;Node4 -->
<g id="edge11" class="edge">
<title>Node9&#45;&gt;Node4</title>
<path fill="none" stroke="midnightblue" d="M256.91,-81.01C272.17,-90.37 294.01,-105.59 308.74,-116.97"/>
<polygon fill="midnightblue" stroke="midnightblue" points="306.87,-119.96 316.87,-123.48 311.24,-114.49 306.87,-119.96"/>
</g>
<!-- Node10 -->
<g id="node10" class="node">
<title>Node10</title>
<g id="a_node10"><a xlink:title=" ">
<polygon fill="white" stroke="#bfbfbf" points="211.5,-0.5 211.5,-19.5 268.5,-19.5 268.5,-0.5 211.5,-0.5"/>
<text text-anchor="middle" x="240" y="-7.5" font-family="Helvetica,sans-Serif" font-size="10.00">ostream</text>
</a>
</g>
</g>
<!-- Node9&#45;&gt;Node10 -->
<g id="edge9" class="edge">
<title>Node9&#45;&gt;Node10</title>
<path fill="none" stroke="midnightblue" d="M240,-61.98C240,-53.58 240,-40.48 240,-29.66"/>
<polygon fill="midnightblue" stroke="midnightblue" points="243.5,-29.51 240,-19.51 236.5,-29.51 243.5,-29.51"/>
</g>
<!-- Node9&#45;&gt;Node11 -->
<g id="edge10" class="edge">
<title>Node9&#45;&gt;Node11</title>
<path fill="none" stroke="midnightblue" d="M274.53,-61.98C320.66,-50.59 401.85,-30.54 447.46,-19.28"/>
<polygon fill="midnightblue" stroke="midnightblue" points="448.57,-22.61 457.44,-16.82 446.9,-15.82 448.57,-22.61"/>
</g>
<!-- Node12&#45;&gt;Node4 -->
<g id="edge15" class="edge">
<title>Node12&#45;&gt;Node4</title>
<path fill="none" stroke="midnightblue" d="M456.96,-179.44C430.38,-170.36 388.19,-155.94 358.48,-145.78"/>
<polygon fill="midnightblue" stroke="midnightblue" points="359.51,-142.44 348.92,-142.52 357.25,-149.06 359.51,-142.44"/>
</g>
<!-- Node12&#45;&gt;Node5 -->
<g id="edge13" class="edge">
<title>Node12&#45;&gt;Node5</title>
<path fill="none" stroke="midnightblue" d="M517.48,-179.41C562.85,-166.66 641.04,-138.51 687,-87 702.56,-69.55 714.98,-45.55 722.39,-29.21"/>
<polygon fill="midnightblue" stroke="midnightblue" points="725.74,-30.3 726.53,-19.74 719.32,-27.5 725.74,-30.3"/>
</g>
<!-- Node12&#45;&gt;Node6 -->
<g id="edge14" class="edge">
<title>Node12&#45;&gt;Node6</title>
<path fill="none" stroke="midnightblue" d="M473.18,-179.27C464.73,-170.59 451.98,-156.65 443,-143 431.94,-126.19 422.3,-105.24 416.14,-90.57"/>
<polygon fill="midnightblue" stroke="midnightblue" points="419.31,-89.07 412.3,-81.14 412.83,-91.72 419.31,-89.07"/>
</g>
<!-- Node13 -->
<g id="node13" class="node">
<title>Node13</title>
<g id="a_node13"><a xlink:href="tensor_i_8_h.html" target="_top" xlink:title=" ">
<polygon fill="white" stroke="black" points="452.5,-123.5 452.5,-142.5 601.5,-142.5 601.5,-123.5 452.5,-123.5"/>
<text text-anchor="middle" x="527" y="-130.5" font-family="Helvetica,sans-Serif" font-size="10.00">amr&#45;wind/core/vs/tensorI.H</text>
</a>
</g>
</g>
<!-- Node12&#45;&gt;Node13 -->
<g id="edge16" class="edge">
<title>Node12&#45;&gt;Node13</title>
<path fill="none" stroke="midnightblue" d="M484.26,-179.08C489.16,-171.22 498.51,-159.57 507.37,-150.08"/>
<polygon fill="midnightblue" stroke="midnightblue" points="510.06,-152.33 514.58,-142.75 505.07,-147.43 510.06,-152.33"/>
</g>
<!-- Node13&#45;&gt;Node11 -->
<g id="edge17" class="edge">
<title>Node13&#45;&gt;Node11</title>
<path fill="none" stroke="midnightblue" d="M523.69,-123.3C516.23,-103.68 497.97,-55.64 487.92,-29.19"/>
<polygon fill="midnightblue" stroke="midnightblue" points="491.1,-27.73 484.28,-19.62 484.56,-30.21 491.1,-27.73"/>
</g>
<!-- Node13&#45;&gt;Node12 -->
<g id="edge18" class="edge">
<title>Node13&#45;&gt;Node12</title>
<path fill="none" stroke="midnightblue" d="M524.79,-142.83C519.9,-150.71 510.49,-162.44 501.59,-171.97"/>
<polygon fill="midnightblue" stroke="midnightblue" points="498.87,-169.74 494.34,-179.32 503.86,-174.65 498.87,-169.74"/>
</g>
<!-- Node14 -->
<g id="node14" class="node">
<title>Node14</title>
<g id="a_node14"><a xlink:href="trig__ops_8_h.html" target="_top" xlink:title=" ">
<polygon fill="white" stroke="black" points="541.5,-56.5 541.5,-86.5 644.5,-86.5 644.5,-56.5 541.5,-56.5"/>
<text text-anchor="start" x="549.5" y="-74.5" font-family="Helvetica,sans-Serif" font-size="10.00">amr&#45;wind/utilities</text>
<text text-anchor="middle" x="593" y="-63.5" font-family="Helvetica,sans-Serif" font-size="10.00">/trig_ops.H</text>
</a>
</g>
</g>
<!-- Node13&#45;&gt;Node14 -->
<g id="edge19" class="edge">
<title>Node13&#45;&gt;Node14</title>
<path fill="none" stroke="midnightblue" d="M536.46,-123.48C545.14,-115.64 558.38,-103.71 569.86,-93.37"/>
<polygon fill="midnightblue" stroke="midnightblue" points="572.36,-95.82 577.45,-86.52 567.67,-90.62 572.36,-95.82"/>
</g>
<!-- Node14&#45;&gt;Node5 -->
<g id="edge22" class="edge">
<title>Node14&#45;&gt;Node5</title>
<path fill="none" stroke="midnightblue" d="M625.47,-56.4C648.35,-46.46 678.73,-33.26 700.84,-23.66"/>
<polygon fill="midnightblue" stroke="midnightblue" points="702.29,-26.85 710.07,-19.66 699.5,-20.43 702.29,-26.85"/>
</g>
<!-- Node14&#45;&gt;Node8 -->
<g id="edge21" class="edge">
<title>Node14&#45;&gt;Node8</title>
<path fill="none" stroke="midnightblue" d="M591.1,-56.4C590.03,-48.38 588.66,-38.23 587.5,-29.57"/>
<polygon fill="midnightblue" stroke="midnightblue" points="590.97,-29.1 586.16,-19.66 584.03,-30.04 590.97,-29.1"/>
</g>
<!-- Node14&#45;&gt;Node11 -->
<g id="edge20" class="edge">
<title>Node14&#45;&gt;Node11</title>
<path fill="none" stroke="midnightblue" d="M566.46,-56.4C548.34,-46.77 524.46,-34.09 506.56,-24.58"/>
<polygon fill="midnightblue" stroke="midnightblue" points="507.77,-21.26 497.3,-19.66 504.49,-27.44 507.77,-21.26"/>
</g>
<!-- Node18 -->
<g id="node18" class="node">
<title>Node18</title>
<g id="a_node18"><a xlink:href="_actuator_disk_8_h.html" target="_top" xlink:title=" ">
<polygon fill="white" stroke="black" points="507,-436.5 507,-466.5 667,-466.5 667,-436.5 507,-436.5"/>
<text text-anchor="start" x="515" y="-454.5" font-family="Helvetica,sans-Serif" font-size="10.00">amr&#45;wind/wind_energy</text>
<text text-anchor="middle" x="587" y="-443.5" font-family="Helvetica,sans-Serif" font-size="10.00">/actuator/disk/ActuatorDisk.H</text>
</a>
</g>
</g>
<!-- Node17&#45;&gt;Node18 -->
<g id="edge27" class="edge">
<title>Node17&#45;&gt;Node18</title>
<path fill="none" stroke="midnightblue" d="M587,-503.4C587,-495.64 587,-485.81 587,-476.86"/>
<polygon fill="midnightblue" stroke="midnightblue" points="590.5,-476.58 587,-466.58 583.5,-476.58 590.5,-476.58"/>
</g>
<!-- Node18&#45;&gt;Node3 -->
<g id="edge39" class="edge">
<title>Node18&#45;&gt;Node3</title>
<path fill="none" stroke="midnightblue" d="M574.91,-436.16C567.1,-426.41 557.1,-412.96 550,-400 527.56,-359.03 541.04,-338.59 512,-302 502.18,-289.63 488.5,-279.12 475.58,-270.95"/>
<polygon fill="midnightblue" stroke="midnightblue" points="477.18,-267.83 466.8,-265.67 473.57,-273.83 477.18,-267.83"/>
</g>
<!-- Node19 -->
<g id="node19" class="node">
<title>Node19</title>
<g id="a_node19"><a xlink:href="disk__types_8_h.html" target="_top" xlink:title=" ">
<polygon fill="white" stroke="black" points="558.5,-369.5 558.5,-399.5 707.5,-399.5 707.5,-369.5 558.5,-369.5"/>
<text text-anchor="start" x="566.5" y="-387.5" font-family="Helvetica,sans-Serif" font-size="10.00">amr&#45;wind/wind_energy</text>
<text text-anchor="middle" x="633" y="-376.5" font-family="Helvetica,sans-Serif" font-size="10.00">/actuator/disk/disk_types.H</text>
</a>
</g>
</g>
<!-- Node18&#45;&gt;Node19 -->
<g id="edge28" class="edge">
<title>Node18&#45;&gt;Node19</title>
<path fill="none" stroke="midnightblue" d="M596.98,-436.4C602.89,-428.05 610.5,-417.29 617.21,-407.81"/>
<polygon fill="midnightblue" stroke="midnightblue" points="620.12,-409.76 623.04,-399.58 614.4,-405.72 620.12,-409.76"/>
</g>
<!-- Node20 -->
<g id="node20" class="node">
<title>Node20</title>
<g id="a_node20"><a xlink:href="actuator__types_8_h.html" target="_top" xlink:title=" ">
<polygon fill="white" stroke="black" points="560,-302.5 560,-332.5 706,-332.5 706,-302.5 560,-302.5"/>
<text text-anchor="start" x="568" y="-320.5" font-family="Helvetica,sans-Serif" font-size="10.00">amr&#45;wind/wind_energy</text>
<text text-anchor="middle" x="633" y="-309.5" font-family="Helvetica,sans-Serif" font-size="10.00">/actuator/actuator_types.H</text>
</a>
</g>
</g>
<!-- Node19&#45;&gt;Node20 -->
<g id="edge29" class="edge">
<title>Node19&#45;&gt;Node20</title>
<path fill="none" stroke="midnightblue" d="M633,-369.4C633,-361.64 633,-351.81 633,-342.86"/>
<polygon fill="midnightblue" stroke="midnightblue" points="636.5,-342.58 633,-332.58 629.5,-342.58 636.5,-342.58"/>
</g>
<!-- Node20&#45;&gt;Node3 -->
<g id="edge34" class="edge">
<title>Node20&#45;&gt;Node3</title>
<path fill="none" stroke="midnightblue" d="M590.69,-302.4C561.05,-292.52 521.26,-279.25 489.73,-268.74"/>
<polygon fill="midnightblue" stroke="midnightblue" points="490.82,-265.42 480.23,-265.58 488.61,-272.06 490.82,-265.42"/>
</g>
<!-- Node20&#45;&gt;Node5 -->
<g id="edge35" class="edge">
<title>Node20&#45;&gt;Node5</title>
<path fill="none" stroke="midnightblue" d="M655.82,-302.48C668.26,-293.6 682.76,-280.97 691,-266 734.61,-186.76 733.68,-73.85 731.35,-29.7"/>
<polygon fill="midnightblue" stroke="midnightblue" points="734.84,-29.35 730.72,-19.59 727.85,-29.79 734.84,-29.35"/>
</g>
<!-- Node20&#45;&gt;Node16 -->
<g id="edge37" class="edge">
<title>Node20&#45;&gt;Node16</title>
<path fill="none" stroke="midnightblue" d="M612.82,-302.4C597.37,-291.6 576.14,-276.76 560.58,-265.89"/>
<polygon fill="midnightblue" stroke="midnightblue" points="562.37,-262.87 552.17,-260.01 558.36,-268.6 562.37,-262.87"/>
</g>
<!-- Node21 -->
<g id="node21" class="node">
<title>Node21</title>
<g id="a_node21"><a xlink:href="_slice_8_h.html" target="_top" xlink:title=" ">
<polygon fill="white" stroke="black" points="738,-241 738,-260 862,-260 862,-241 738,-241"/>
<text text-anchor="middle" x="800" y="-248" font-family="Helvetica,sans-Serif" font-size="10.00">amr&#45;wind/core/Slice.H</text>
</a>
</g>
</g>
<!-- Node20&#45;&gt;Node21 -->
<g id="edge30" class="edge">
<title>Node20&#45;&gt;Node21</title>
<path fill="none" stroke="midnightblue" d="M669.24,-302.4C698.93,-290.84 740.51,-274.66 768.75,-263.66"/>
<polygon fill="midnightblue" stroke="midnightblue" points="770.09,-266.9 778.14,-260.01 767.56,-260.37 770.09,-266.9"/>
</g>
<!-- Node24 -->
<g id="node24" class="node">
<title>Node24</title>
<g id="a_node24"><a xlink:title=" ">
<polygon fill="white" stroke="#bfbfbf" points="574,-241 574,-260 682,-260 682,-241 574,-241"/>
<text text-anchor="middle" x="628" y="-248" font-family="Helvetica,sans-Serif" font-size="10.00">AMReX_RealBox.H</text>
</a>
</g>
</g>
<!-- Node20&#45;&gt;Node24 -->
<g id="edge36" class="edge">
<title>Node20&#45;&gt;Node24</title>
<path fill="none" stroke="midnightblue" d="M631.92,-302.4C631.19,-292.96 630.23,-280.45 629.44,-270.19"/>
<polygon fill="midnightblue" stroke="midnightblue" points="632.93,-269.9 628.67,-260.19 625.95,-270.43 632.93,-269.9"/>
</g>
<!-- Node25 -->
<g id="node25" class="node">
<title>Node25</title>
<g id="a_node25"><a xlink:title=" ">
<polygon fill="white" stroke="#bfbfbf" points="880.5,-241 880.5,-260 925.5,-260 925.5,-241 880.5,-241"/>
<text text-anchor="middle" x="903" y="-248" font-family="Helvetica,sans-Serif" font-size="10.00">utility</text>
</a>
</g>
</g>
<!-- Node20&#45;&gt;Node25 -->
<g id="edge38" class="edge">
<title>Node20&#45;&gt;Node25</title>
<path fill="none" stroke="midnightblue" d="M706.2,-305.2C753.83,-296.81 816.92,-283.76 871,-266 872.87,-265.39 874.77,-264.7 876.68,-263.96"/>
<polygon fill="midnightblue" stroke="midnightblue" points="878.15,-267.14 886,-260.03 875.43,-260.69 878.15,-267.14"/>
</g>
<!-- Node21&#45;&gt;Node5 -->
<g id="edge33" class="edge">
<title>Node21&#45;&gt;Node5</title>
<path fill="none" stroke="midnightblue" d="M799.68,-240.61C798.39,-212.39 792.1,-122.79 763,-56 758.51,-45.69 751.31,-35.49 744.78,-27.4"/>
<polygon fill="midnightblue" stroke="midnightblue" points="747.26,-24.92 738.12,-19.57 741.93,-29.45 747.26,-24.92"/>
</g>
<!-- Node22 -->
<g id="node22" class="node">
<title>Node22</title>
<g id="a_node22"><a xlink:title=" ">
<polygon fill="white" stroke="#bfbfbf" points="815.5,-179.5 815.5,-198.5 868.5,-198.5 868.5,-179.5 815.5,-179.5"/>
<text text-anchor="middle" x="842" y="-186.5" font-family="Helvetica,sans-Serif" font-size="10.00">iterator</text>
</a>
</g>
</g>
<!-- Node21&#45;&gt;Node22 -->
<g id="edge31" class="edge">
<title>Node21&#45;&gt;Node22</title>
<path fill="none" stroke="midnightblue" d="M806.02,-240.98C812.26,-232.14 822.17,-218.09 830.02,-206.98"/>
<polygon fill="midnightblue" stroke="midnightblue" points="833.09,-208.7 835.99,-198.51 827.37,-204.66 833.09,-208.7"/>
</g>
<!-- Node23 -->
<g id="node23" class="node">
<title>Node23</title>
<g id="a_node23"><a xlink:title=" ">
<polygon fill="white" stroke="#bfbfbf" points="943,-179.5 943,-198.5 1041,-198.5 1041,-179.5 943,-179.5"/>
<text text-anchor="middle" x="992" y="-186.5" font-family="Helvetica,sans-Serif" font-size="10.00">AMReX_Vector.H</text>
</a>
</g>
</g>
<!-- Node21&#45;&gt;Node23 -->
<g id="edge32" class="edge">
<title>Node21&#45;&gt;Node23</title>
<path fill="none" stroke="midnightblue" d="M827.51,-240.98C860.87,-230.64 917.26,-213.16 954.56,-201.6"/>
<polygon fill="midnightblue" stroke="midnightblue" points="956.03,-204.81 964.54,-198.51 953.95,-198.13 956.03,-204.81"/>
</g>
<!-- Node26&#45;&gt;Node15 -->
<g id="edge75" class="edge">
<title>Node26&#45;&gt;Node15</title>
<path fill="none" stroke="midnightblue" d="M1482.41,-382.56C1255.08,-379.33 573.09,-367.02 354,-333 255.65,-317.73 143.31,-281.97 88.55,-263.31"/>
<polygon fill="midnightblue" stroke="midnightblue" points="89.61,-259.97 79.02,-260.03 87.34,-266.59 89.61,-259.97"/>
</g>
<!-- Node27 -->
<g id="node27" class="node">
<title>Node27</title>
<g id="a_node27"><a xlink:title=" ">
<polygon fill="white" stroke="#bfbfbf" points="1438,-179.5 1438,-198.5 1482,-198.5 1482,-179.5 1438,-179.5"/>
<text text-anchor="middle" x="1460" y="-186.5" font-family="Helvetica,sans-Serif" font-size="10.00">string</text>
</a>
</g>
</g>
<!-- Node26&#45;&gt;Node27 -->
<g id="edge41" class="edge">
<title>Node26&#45;&gt;Node27</title>
<path fill="none" stroke="midnightblue" d="M1534.57,-374.95C1516.74,-366.93 1492.75,-353.12 1480,-333 1455.48,-294.29 1455.78,-237.94 1457.96,-208.89"/>
<polygon fill="midnightblue" stroke="midnightblue" points="1461.48,-208.83 1458.9,-198.55 1454.51,-208.19 1461.48,-208.83"/>
</g>
<!-- Node28 -->
<g id="node28" class="node">
<title>Node28</title>
<g id="a_node28"><a xlink:title=" ">
<polygon fill="white" stroke="#bfbfbf" points="2483.5,-241 2483.5,-260 2576.5,-260 2576.5,-241 2483.5,-241"/>
<text text-anchor="middle" x="2530" y="-248" font-family="Helvetica,sans-Serif" font-size="10.00">unordered_map</text>
</a>
</g>
</g>
<!-- Node26&#45;&gt;Node28 -->
<g id="edge42" class="edge">
<title>Node26&#45;&gt;Node28</title>
<path fill="none" stroke="midnightblue" d="M1631.81,-376.98C1727.54,-368.36 1898.4,-352.01 2044,-333 2233.61,-308.24 2281.4,-303.03 2469,-266 2474.54,-264.91 2480.34,-263.66 2486.07,-262.37"/>
<polygon fill="midnightblue" stroke="midnightblue" points="2487.27,-265.68 2496.22,-260.02 2485.69,-258.86 2487.27,-265.68"/>
</g>
<!-- Node29 -->
<g id="node29" class="node">
<title>Node29</title>
<g id="a_node29"><a xlink:href="_field_desc_types_8_h.html" target="_top" xlink:title=" ">
<polygon fill="white" stroke="black" points="1181,-179.5 1181,-198.5 1357,-198.5 1357,-179.5 1181,-179.5"/>
<text text-anchor="middle" x="1269" y="-186.5" font-family="Helvetica,sans-Serif" font-size="10.00">amr&#45;wind/core/FieldDescTypes.H</text>
</a>
</g>
</g>
<!-- Node26&#45;&gt;Node29 -->
<g id="edge43" class="edge">
<title>Node26&#45;&gt;Node29</title>
<path fill="none" stroke="midnightblue" d="M1482.26,-378.98C1378.1,-371.94 1195.09,-356.65 1133,-333 1084.38,-314.48 1061.06,-312.13 1037,-266 1030.63,-253.78 1028.23,-245.63 1037,-235 1054.23,-214.1 1115.4,-202.79 1170.6,-196.74"/>
<polygon fill="midnightblue" stroke="midnightblue" points="1171.25,-200.19 1180.83,-195.67 1170.52,-193.23 1171.25,-200.19"/>
</g>
<!-- Node30 -->
<g id="node30" class="node">
<title>Node30</title>
<g id="a_node30"><a xlink:href="_field_utils_8_h.html" target="_top" xlink:title=" ">
<polygon fill="white" stroke="black" points="2281,-241 2281,-260 2427,-260 2427,-241 2281,-241"/>
<text text-anchor="middle" x="2354" y="-248" font-family="Helvetica,sans-Serif" font-size="10.00">amr&#45;wind/core/FieldUtils.H</text>
</a>
</g>
</g>
<!-- Node26&#45;&gt;Node30 -->
<g id="edge44" class="edge">
<title>Node26&#45;&gt;Node30</title>
<path fill="none" stroke="midnightblue" d="M1631.79,-375.32C1710.28,-366.38 1837.14,-350.92 1946,-333 2076.7,-311.49 2229.5,-278.98 2305.68,-262.26"/>
<polygon fill="midnightblue" stroke="midnightblue" points="2306.89,-265.58 2315.91,-260.01 2305.39,-258.74 2306.89,-265.58"/>
</g>
<!-- Node31 -->
<g id="node31" class="node">
<title>Node31</title>
<g id="a_node31"><a xlink:title=" ">
<polygon fill="white" stroke="#bfbfbf" points="1687.5,-179.5 1687.5,-198.5 1796.5,-198.5 1796.5,-179.5 1687.5,-179.5"/>
<text text-anchor="middle" x="1742" y="-186.5" font-family="Helvetica,sans-Serif" font-size="10.00">AMReX_MultiFab.H</text>
</a>
</g>
</g>
<!-- Node26&#45;&gt;Node31 -->
<g id="edge76" class="edge">
<title>Node26&#45;&gt;Node31</title>
<path fill="none" stroke="midnightblue" d="M1580.32,-374.92C1600.71,-366.56 1630.23,-352.29 1651,-333 1690.94,-295.9 1720.73,-237.61 1734.14,-208.23"/>
<polygon fill="midnightblue" stroke="midnightblue" points="1737.47,-209.36 1738.33,-198.8 1731.07,-206.52 1737.47,-209.36"/>
</g>
<!-- Node33 -->
<g id="node33" class="node">
<title>Node33</title>
<g id="a_node33"><a xlink:href="_field_8_h.html" target="_top" xlink:title=" ">
<polygon fill="white" stroke="black" points="1813,-308 1813,-327 1937,-327 1937,-308 1813,-308"/>
<text text-anchor="middle" x="1875" y="-315" font-family="Helvetica,sans-Serif" font-size="10.00">amr&#45;wind/core/Field.H</text>
</a>
</g>
</g>
<!-- Node26&#45;&gt;Node33 -->
<g id="edge48" class="edge">
<title>Node26&#45;&gt;Node33</title>
<path fill="none" stroke="midnightblue" d="M1598.9,-374.94C1656.65,-363.13 1760.66,-341.87 1823.21,-329.09"/>
<polygon fill="midnightblue" stroke="midnightblue" points="1824.16,-332.46 1833.26,-327.03 1822.76,-325.61 1824.16,-332.46"/>
</g>
<!-- Node39 -->
<g id="node39" class="node">
<title>Node39</title>
<g id="a_node39"><a xlink:href="_int_field_8_h.html" target="_top" xlink:title=" ">
<polygon fill="white" stroke="black" points="1488.5,-308 1488.5,-327 1625.5,-327 1625.5,-308 1488.5,-308"/>
<text text-anchor="middle" x="1557" y="-315" font-family="Helvetica,sans-Serif" font-size="10.00">amr&#45;wind/core/IntField.H</text>
</a>
</g>
</g>
<!-- Node26&#45;&gt;Node39 -->
<g id="edge63" class="edge">
<title>Node26&#45;&gt;Node39</title>
<path fill="none" stroke="midnightblue" d="M1557,-374.73C1557,-365.18 1557,-349.62 1557,-337.28"/>
<polygon fill="midnightblue" stroke="midnightblue" points="1560.5,-337.13 1557,-327.13 1553.5,-337.13 1560.5,-337.13"/>
</g>
<!-- Node40 -->
<g id="node40" class="node">
<title>Node40</title>
<g id="a_node40"><a xlink:title=" ">
<polygon fill="white" stroke="#bfbfbf" points="1564,-241 1564,-260 1676,-260 1676,-241 1564,-241"/>
<text text-anchor="middle" x="1620" y="-248" font-family="Helvetica,sans-Serif" font-size="10.00">AMReX_iMultiFab.H</text>
</a>
</g>
</g>
<!-- Node26&#45;&gt;Node40 -->
<g id="edge77" class="edge">
<title>Node26&#45;&gt;Node40</title>
<path fill="none" stroke="midnightblue" d="M1581.97,-374.84C1600.28,-367.02 1623.82,-353.55 1635,-333 1645.92,-312.93 1637.51,-286.39 1629.56,-269.14"/>
<polygon fill="midnightblue" stroke="midnightblue" points="1632.68,-267.55 1625.08,-260.17 1626.42,-270.68 1632.68,-267.55"/>
</g>
<!-- Node41 -->
<g id="node41" class="node">
<title>Node41</title>
<g id="a_node41"><a xlink:href="_scratch_field_8_h.html" target="_top" xlink:title=" ">
<polygon fill="white" stroke="black" points="1142,-308 1142,-327 1302,-327 1302,-308 1142,-308"/>
<text text-anchor="middle" x="1222" y="-315" font-family="Helvetica,sans-Serif" font-size="10.00">amr&#45;wind/core/ScratchField.H</text>
</a>
</g>
</g>
<!-- Node26&#45;&gt;Node41 -->
<g id="edge67" class="edge">
<title>Node26&#45;&gt;Node41</title>
<path fill="none" stroke="midnightblue" d="M1512.86,-374.94C1451.89,-363.11 1342,-341.78 1276.15,-329.01"/>
<polygon fill="midnightblue" stroke="midnightblue" points="1276.45,-325.5 1265.97,-327.03 1275.12,-332.37 1276.45,-325.5"/>
</g>
<!-- Node30&#45;&gt;Node29 -->
<g id="edge45" class="edge">
<title>Node30&#45;&gt;Node29</title>
<path fill="none" stroke="midnightblue" d="M2312.02,-240.98C2299.22,-238.67 2285.08,-236.43 2272,-235 1899.21,-194.26 1803.55,-217.53 1429,-199 1409.03,-198.01 1387.67,-196.87 1367.26,-195.74"/>
<polygon fill="midnightblue" stroke="midnightblue" points="1367.19,-192.23 1357.01,-195.16 1366.8,-199.22 1367.19,-192.23"/>
</g>
<!-- Node30&#45;&gt;Node31 -->
<g id="edge46" class="edge">
<title>Node30&#45;&gt;Node31</title>
<path fill="none" stroke="midnightblue" d="M2309.85,-240.94C2297.63,-238.77 2284.33,-236.61 2272,-235 2105.07,-213.2 1907.13,-199.63 1806.99,-193.62"/>
<polygon fill="midnightblue" stroke="midnightblue" points="1806.92,-190.11 1796.73,-193.01 1806.5,-197.1 1806.92,-190.11"/>
</g>
<!-- Node32 -->
<g id="node32" class="node">
<title>Node32</title>
<g id="a_node32"><a xlink:title=" ">
<polygon fill="white" stroke="#bfbfbf" points="2292,-179.5 2292,-198.5 2416,-198.5 2416,-179.5 2292,-179.5"/>
<text text-anchor="middle" x="2354" y="-186.5" font-family="Helvetica,sans-Serif" font-size="10.00">AMReX_Interpolater.H</text>
</a>
</g>
</g>
<!-- Node30&#45;&gt;Node32 -->
<g id="edge47" class="edge">
<title>Node30&#45;&gt;Node32</title>
<path fill="none" stroke="midnightblue" d="M2354,-240.98C2354,-232.58 2354,-219.48 2354,-208.66"/>
<polygon fill="midnightblue" stroke="midnightblue" points="2357.5,-208.51 2354,-198.51 2350.5,-208.51 2357.5,-208.51"/>
</g>
<!-- Node33&#45;&gt;Node5 -->
<g id="edge55" class="edge">
<title>Node33&#45;&gt;Node5</title>
<path fill="none" stroke="midnightblue" d="M1937.03,-311.03C2082.76,-298.17 2434.82,-267.01 2436,-266 2462.45,-243.36 2455,-224.82 2455,-190 2455,-190 2455,-190 2455,-132 2455,-46.09 1075.63,-17.07 783.82,-11.89"/>
<polygon fill="midnightblue" stroke="midnightblue" points="783.56,-8.39 773.5,-11.71 783.44,-15.39 783.56,-8.39"/>
</g>
<!-- Node33&#45;&gt;Node27 -->
<g id="edge49" class="edge">
<title>Node33&#45;&gt;Node27</title>
<path fill="none" stroke="midnightblue" d="M1861.77,-307.83C1835.5,-291.04 1774.45,-254.07 1718,-235 1639.54,-208.5 1542.13,-196.93 1492.45,-192.46"/>
<polygon fill="midnightblue" stroke="midnightblue" points="1492.57,-188.96 1482.31,-191.59 1491.97,-195.93 1492.57,-188.96"/>
</g>
<!-- Node33&#45;&gt;Node28 -->
<g id="edge51" class="edge">
<title>Node33&#45;&gt;Node28</title>
<path fill="none" stroke="midnightblue" d="M1937.37,-314.25C2045.98,-309.64 2276.63,-296.87 2469,-266 2475.28,-264.99 2481.87,-263.69 2488.3,-262.28"/>
<polygon fill="midnightblue" stroke="midnightblue" points="2489.24,-265.65 2498.2,-260 2487.67,-258.83 2489.24,-265.65"/>
</g>
<!-- Node33&#45;&gt;Node29 -->
<g id="edge57" class="edge">
<title>Node33&#45;&gt;Node29</title>
<path fill="none" stroke="midnightblue" d="M1831.54,-307.98C1798.75,-300.3 1753.52,-286.94 1718,-266 1700.67,-255.78 1703.28,-243.41 1685,-235 1656.85,-222.06 1481.47,-206.38 1367.6,-197.36"/>
<polygon fill="midnightblue" stroke="midnightblue" points="1367.7,-193.86 1357.46,-196.56 1367.15,-200.84 1367.7,-193.86"/>
</g>
<!-- Node33&#45;&gt;Node31 -->
<g id="edge53" class="edge">
<title>Node33&#45;&gt;Node31</title>
<path fill="none" stroke="midnightblue" d="M1866.69,-307.72C1852.25,-292.55 1821.42,-260.59 1794,-235 1783.09,-224.82 1770.44,-213.85 1760.34,-205.29"/>
<polygon fill="midnightblue" stroke="midnightblue" points="1762.47,-202.5 1752.56,-198.74 1757.96,-207.86 1762.47,-202.5"/>
</g>
<!-- Node34 -->
<g id="node34" class="node">
<title>Node34</title>
<g id="a_node34"><a xlink:title=" ">
<polygon fill="white" stroke="#bfbfbf" points="1846,-241 1846,-260 1904,-260 1904,-241 1846,-241"/>
<text text-anchor="middle" x="1875" y="-248" font-family="Helvetica,sans-Serif" font-size="10.00">memory</text>
</a>
</g>
</g>
<!-- Node33&#45;&gt;Node34 -->
<g id="edge50" class="edge">
<title>Node33&#45;&gt;Node34</title>
<path fill="none" stroke="midnightblue" d="M1875,-307.73C1875,-298.18 1875,-282.62 1875,-270.28"/>
<polygon fill="midnightblue" stroke="midnightblue" points="1878.5,-270.13 1875,-260.13 1871.5,-270.13 1878.5,-270.13"/>
</g>
<!-- Node35 -->
<g id="node35" class="node">
<title>Node35</title>
<g id="a_node35"><a xlink:title=" ">
<polygon fill="white" stroke="#bfbfbf" points="1922,-241 1922,-260 1986,-260 1986,-241 1922,-241"/>
<text text-anchor="middle" x="1954" y="-248" font-family="Helvetica,sans-Serif" font-size="10.00">algorithm</text>
</a>
</g>
</g>
<!-- Node33&#45;&gt;Node35 -->
<g id="edge52" class="edge">
<title>Node33&#45;&gt;Node35</title>
<path fill="none" stroke="midnightblue" d="M1885.65,-307.73C1898.45,-297.21 1920.12,-279.38 1935.63,-266.62"/>
<polygon fill="midnightblue" stroke="midnightblue" points="1938.02,-269.18 1943.51,-260.13 1933.57,-263.78 1938.02,-269.18"/>
</g>
<!-- Node36 -->
<g id="node36" class="node">
<title>Node36</title>
<g id="a_node36"><a xlink:title=" ">
<polygon fill="white" stroke="#bfbfbf" points="2004.5,-241 2004.5,-260 2103.5,-260 2103.5,-241 2004.5,-241"/>
<text text-anchor="middle" x="2054" y="-248" font-family="Helvetica,sans-Serif" font-size="10.00">AMReX_BCRec.H</text>
</a>
</g>
</g>
<!-- Node33&#45;&gt;Node36 -->
<g id="edge54" class="edge">
<title>Node33&#45;&gt;Node36</title>
<path fill="none" stroke="midnightblue" d="M1898.77,-307.87C1930.15,-296.47 1985.56,-276.35 2020.99,-263.49"/>
<polygon fill="midnightblue" stroke="midnightblue" points="2022.21,-266.77 2030.42,-260.06 2019.82,-260.19 2022.21,-266.77"/>
</g>
<!-- Node37 -->
<g id="node37" class="node">
<title>Node37</title>
<g id="a_node37"><a xlink:href="incflo__enums_8_h.html" target="_top" xlink:title=" ">
<polygon fill="white" stroke="black" points="2121.5,-241 2121.5,-260 2262.5,-260 2262.5,-241 2121.5,-241"/>
<text text-anchor="middle" x="2192" y="-248" font-family="Helvetica,sans-Serif" font-size="10.00">amr&#45;wind/incflo_enums.H</text>
</a>
</g>
</g>
<!-- Node33&#45;&gt;Node37 -->
<g id="edge56" class="edge">
<title>Node33&#45;&gt;Node37</title>
<path fill="none" stroke="midnightblue" d="M1916.77,-307.94C1974.34,-296.13 2078.02,-274.87 2140.38,-262.09"/>
<polygon fill="midnightblue" stroke="midnightblue" points="2141.3,-265.47 2150.39,-260.03 2139.89,-258.61 2141.3,-265.47"/>
</g>
<!-- Node38 -->
<g id="node38" class="node">
<title>Node38</title>
<g id="a_node38"><a xlink:href="_view_field_8_h.html" target="_top" xlink:title=" ">
<polygon fill="white" stroke="black" points="1246,-241 1246,-260 1394,-260 1394,-241 1246,-241"/>
<text text-anchor="middle" x="1320" y="-248" font-family="Helvetica,sans-Serif" font-size="10.00">amr&#45;wind/core/ViewField.H</text>
</a>
</g>
</g>
<!-- Node33&#45;&gt;Node38 -->
<g id="edge58" class="edge">
<title>Node33&#45;&gt;Node38</title>
<path fill="none" stroke="midnightblue" d="M1812.95,-309.23C1712.69,-297.49 1515.01,-274.34 1402.84,-261.2"/>
<polygon fill="midnightblue" stroke="midnightblue" points="1402.93,-257.69 1392.59,-260 1402.11,-264.64 1402.93,-257.69"/>
</g>
<!-- Node38&#45;&gt;Node23 -->
<g id="edge62" class="edge">
<title>Node38&#45;&gt;Node23</title>
<path fill="none" stroke="midnightblue" d="M1273.01,-240.98C1213.82,-230.24 1112.21,-211.81 1048.75,-200.29"/>
<polygon fill="midnightblue" stroke="midnightblue" points="1049.37,-196.85 1038.91,-198.51 1048.12,-203.74 1049.37,-196.85"/>
</g>
<!-- Node38&#45;&gt;Node27 -->
<g id="edge59" class="edge">
<title>Node38&#45;&gt;Node27</title>
<path fill="none" stroke="midnightblue" d="M1340.06,-240.98C1363.76,-230.9 1403.41,-214.05 1430.58,-202.5"/>
<polygon fill="midnightblue" stroke="midnightblue" points="1432.14,-205.64 1439.98,-198.51 1429.41,-199.2 1432.14,-205.64"/>
</g>
<!-- Node38&#45;&gt;Node29 -->
<g id="edge60" class="edge">
<title>Node38&#45;&gt;Node29</title>
<path fill="none" stroke="midnightblue" d="M1312.69,-240.98C1304.97,-231.96 1292.59,-217.52 1282.98,-206.31"/>
<polygon fill="midnightblue" stroke="midnightblue" points="1285.46,-203.82 1276.29,-198.51 1280.14,-208.38 1285.46,-203.82"/>
</g>
<!-- Node38&#45;&gt;Node31 -->
<g id="edge61" class="edge">
<title>Node38&#45;&gt;Node31</title>
<path fill="none" stroke="midnightblue" d="M1380.46,-240.98C1459.25,-229.87 1596.47,-210.52 1677.3,-199.12"/>
<polygon fill="midnightblue" stroke="midnightblue" points="1677.94,-202.57 1687.35,-197.71 1676.96,-195.64 1677.94,-202.57"/>
</g>
<!-- Node39&#45;&gt;Node27 -->
<g id="edge64" class="edge">
<title>Node39&#45;&gt;Node27</title>
<path fill="none" stroke="midnightblue" d="M1550.33,-307.81C1534.41,-287.04 1493.95,-234.27 1473,-206.96"/>
<polygon fill="midnightblue" stroke="midnightblue" points="1475.58,-204.56 1466.71,-198.76 1470.02,-208.82 1475.58,-204.56"/>
</g>
<!-- Node39&#45;&gt;Node29 -->
<g id="edge65" class="edge">
<title>Node39&#45;&gt;Node29</title>
<path fill="none" stroke="midnightblue" d="M1488.23,-315.69C1404.02,-313.07 1268.65,-303.04 1237,-266 1222.11,-248.58 1238.36,-223.22 1252.62,-206.67"/>
<polygon fill="midnightblue" stroke="midnightblue" points="1255.56,-208.65 1259.72,-198.91 1250.39,-203.92 1255.56,-208.65"/>
</g>
<!-- Node39&#45;&gt;Node40 -->
<g id="edge66" class="edge">
<title>Node39&#45;&gt;Node40</title>
<path fill="none" stroke="midnightblue" d="M1565.5,-307.73C1575.51,-297.4 1592.34,-280.04 1604.66,-267.33"/>
<polygon fill="midnightblue" stroke="midnightblue" points="1607.19,-269.74 1611.64,-260.13 1602.17,-264.87 1607.19,-269.74"/>
</g>
<!-- Node41&#45;&gt;Node23 -->
<g id="edge73" class="edge">
<title>Node41&#45;&gt;Node23</title>
<path fill="none" stroke="midnightblue" d="M1141.78,-308.27C1106.82,-301.43 1067.05,-288.91 1037,-266 1017.61,-251.22 1004.95,-225.48 998.13,-208.1"/>
<polygon fill="midnightblue" stroke="midnightblue" points="1001.36,-206.72 994.64,-198.53 994.78,-209.12 1001.36,-206.72"/>
</g>
<!-- Node41&#45;&gt;Node25 -->
<g id="edge69" class="edge">
<title>Node41&#45;&gt;Node25</title>
<path fill="none" stroke="midnightblue" d="M1179.97,-307.94C1115.62,-294.82 994.04,-270.05 935.77,-258.18"/>
<polygon fill="midnightblue" stroke="midnightblue" points="936.15,-254.68 925.65,-256.11 934.75,-261.54 936.15,-254.68"/>
</g>
<!-- Node41&#45;&gt;Node27 -->
<g id="edge68" class="edge">
<title>Node41&#45;&gt;Node27</title>
<path fill="none" stroke="midnightblue" d="M1291.85,-307.94C1327.5,-300.99 1370.14,-288.46 1403,-266 1424.85,-251.06 1441.71,-224.98 1451.24,-207.6"/>
<polygon fill="midnightblue" stroke="midnightblue" points="1454.46,-209.01 1456,-198.52 1448.26,-205.76 1454.46,-209.01"/>
</g>
<!-- Node41&#45;&gt;Node29 -->
<g id="edge70" class="edge">
<title>Node41&#45;&gt;Node29</title>
<path fill="none" stroke="midnightblue" d="M1153.48,-308C1092.13,-297.57 1016.59,-275.97 1050,-235 1065.64,-215.82 1120.02,-204.59 1170.68,-198.14"/>
<polygon fill="midnightblue" stroke="midnightblue" points="1171.24,-201.59 1180.75,-196.91 1170.4,-194.64 1171.24,-201.59"/>
</g>
<!-- Node41&#45;&gt;Node31 -->
<g id="edge72" class="edge">
<title>Node41&#45;&gt;Node31</title>
<path fill="none" stroke="midnightblue" d="M1258.07,-307.95C1299.93,-298 1371.01,-281.02 1432,-266 1486.74,-252.52 1500.26,-248.48 1555,-235 1603.01,-223.17 1658.05,-209.97 1695.92,-200.94"/>
<polygon fill="midnightblue" stroke="midnightblue" points="1697.21,-204.23 1706.12,-198.51 1695.58,-197.43 1697.21,-204.23"/>
</g>
<!-- Node41&#45;&gt;Node38 -->
<g id="edge71" class="edge">
<title>Node41&#45;&gt;Node38</title>
<path fill="none" stroke="midnightblue" d="M1235.22,-307.73C1251.45,-296.96 1279.22,-278.55 1298.53,-265.74"/>
<polygon fill="midnightblue" stroke="midnightblue" points="1300.59,-268.57 1306.99,-260.13 1296.72,-262.74 1300.59,-268.57"/>
</g>
<!-- Node42 -->
<g id="node42" class="node">
<title>Node42</title>
<g id="a_node42"><a xlink:title=" ">
<polygon fill="white" stroke="#bfbfbf" points="1058.5,-241 1058.5,-260 1189.5,-260 1189.5,-241 1058.5,-241"/>
<text text-anchor="middle" x="1124" y="-248" font-family="Helvetica,sans-Serif" font-size="10.00">AMReX_PhysBCFunct.H</text>
</a>
</g>
</g>
<!-- Node41&#45;&gt;Node42 -->
<g id="edge74" class="edge">
<title>Node41&#45;&gt;Node42</title>
<path fill="none" stroke="midnightblue" d="M1208.78,-307.73C1192.55,-296.96 1164.78,-278.55 1145.47,-265.74"/>
<polygon fill="midnightblue" stroke="midnightblue" points="1147.28,-262.74 1137.01,-260.13 1143.41,-268.57 1147.28,-262.74"/>
</g>
</g>
</svg>
        <g id="navigator" transform="translate(0 0)" fill="#404254">
                <rect fill="#f2f5e9" fill-opacity="0.5" stroke="#606060" stroke-width=".5" x="0" y="0" width="60" height="60"/>
                <use id="zoomplus" xlink:href="#zoomPlus" x="17" y="9" onmousedown="handleZoom(evt,'in')"/>
                <use id="zoomminus" xlink:href="#zoomMin" x="42" y="9" onmousedown="handleZoom(evt,'out')"/>
                <use id="reset" xlink:href="#resetDef" x="30" y="36" onmousedown="handleReset()"/>
                <g id="arrowUp" xlink:href="#dirArrow" transform="translate(30 24)" onmousedown="handlePan(0,-1)">
                  <use xlink:href="#rim" fill="#404040">
                        <set attributeName="fill" to="#808080" begin="arrowUp.mouseover" end="arrowUp.mouseout"/>
                  </use>
                  <path fill="none" stroke="white" stroke-width="1.5" d="M0,-3.0v7 M-2.5,-0.5L0,-3.0L2.5,-0.5"/>
                </g>
                <g id="arrowRight" xlink:href="#dirArrow" transform="rotate(90) translate(36 -43)" onmousedown="handlePan(1,0)">
                  <use xlink:href="#rim" fill="#404040">
                        <set attributeName="fill" to="#808080" begin="arrowRight.mouseover" end="arrowRight.mouseout"/>
                  </use>
                  <path fill="none" stroke="white" stroke-width="1.5" d="M0,-3.0v7 M-2.5,-0.5L0,-3.0L2.5,-0.5"/>
                </g>
                <g id="arrowDown" xlink:href="#dirArrow" transform="rotate(180) translate(-30 -48)" onmousedown="handlePan(0,1)">
                  <use xlink:href="#rim" fill="#404040">
                        <set attributeName="fill" to="#808080" begin="arrowDown.mouseover" end="arrowDown.mouseout"/>
                  </use>
                  <path fill="none" stroke="white" stroke-width="1.5" d="M0,-3.0v7 M-2.5,-0.5L0,-3.0L2.5,-0.5"/>
                </g>
                <g id="arrowLeft" xlink:href="#dirArrow" transform="rotate(270) translate(-36 17)" onmousedown="handlePan(-1,0)">
                  <use xlink:href="#rim" fill="#404040">
                        <set attributeName="fill" to="#808080" begin="arrowLeft.mouseover" end="arrowLeft.mouseout"/>
                  </use>
                  <path fill="none" stroke="white" stroke-width="1.5" d="M0,-3.0v7 M-2.5,-0.5L0,-3.0L2.5,-0.5"/>
                </g>
        </g>
        <svg viewBox="0 0 15 15" width="100%" height="30px" preserveAspectRatio="xMaxYMin meet">
         <g id="arrow_out" transform="scale(0.3 0.3)">
          <a xlink:href="disk__spreading_8_h__incl_org.svg" target="_base">
           <rect id="button" ry="5" rx="5" y="6" x="6" height="38" width="38"
                fill="#f2f5e9" fill-opacity="0.5" stroke="#606060" stroke-width="1.0"/>
           <path id="arrow"
             d="M 11.500037,31.436501 C 11.940474,20.09759 22.043105,11.32322 32.158766,21.979434 L 37.068811,17.246167 C 37.068811,17.246167 37.088388,32 37.088388,32 L 22.160133,31.978069 C 22.160133,31.978069 26.997745,27.140456 26.997745,27.140456 C 18.528582,18.264221 13.291696,25.230495 11.500037,31.436501 z"
             style="fill:#404040;"/>
          </a>
         </g>
        </svg>
</svg>
