<?xml version="1.0" encoding="UTF-8" standalone="no"?>
<!DOCTYPE svg PUBLIC "-//W3C//DTD SVG 1.1//EN"
 "http://www.w3.org/Graphics/SVG/1.1/DTD/svg11.dtd">
<!-- Generated by graphviz version 2.43.0 (0)
 -->
<!-- Title: incflo_convection_K.H Pages: 1 -->
<svg width="532pt" height="140pt"
 viewBox="0.00 0.00 531.50 140.00" xmlns="http://www.w3.org/2000/svg" xmlns:xlink="http://www.w3.org/1999/xlink">
<g id="graph0" class="graph" transform="scale(1 1) rotate(0) translate(4 136)">
<title>incflo_convection_K.H</title>
<polygon fill="white" stroke="transparent" points="-4,4 -4,-136 527.5,-136 527.5,4 -4,4"/>
<!-- Node1 -->
<g id="node1" class="node">
<title>Node1</title>
<g id="a_node1"><a xlink:title=" ">
<polygon fill="#bfbfbf" stroke="black" points="255,-112.5 255,-131.5 379,-131.5 379,-112.5 255,-112.5"/>
<text text-anchor="middle" x="317" y="-119.5" font-family="Helvetica,sans-Serif" font-size="10.00">incflo_convection_K.H</text>
</a>
</g>
</g>
<!-- Node2 -->
<g id="node2" class="node">
<title>Node2</title>
<g id="a_node2"><a xlink:href="incflo__godunov__plm_8_h.html" target="_top" xlink:title=" ">
<polygon fill="white" stroke="black" points="106.5,-56.5 106.5,-75.5 231.5,-75.5 231.5,-56.5 106.5,-56.5"/>
<text text-anchor="middle" x="169" y="-63.5" font-family="Helvetica,sans-Serif" font-size="10.00">incflo_godunov_plm.H</text>
</a>
</g>
</g>
<!-- Node1&#45;&gt;Node2 -->
<g id="edge1" class="edge">
<title>Node1&#45;&gt;Node2</title>
<path fill="none" stroke="midnightblue" d="M283.85,-108.91C256.03,-98.75 216.98,-84.51 192.34,-75.52"/>
<polygon fill="midnightblue" stroke="midnightblue" points="282.96,-112.3 293.55,-112.44 285.35,-105.73 282.96,-112.3"/>
</g>
<!-- Node5 -->
<g id="node5" class="node">
<title>Node5</title>
<g id="a_node5"><a xlink:href="incflo__godunov__plm_8cpp.html" target="_top" xlink:title=" ">
<polygon fill="white" stroke="black" points="250,-56.5 250,-75.5 384,-75.5 384,-56.5 250,-56.5"/>
<text text-anchor="middle" x="317" y="-63.5" font-family="Helvetica,sans-Serif" font-size="10.00">incflo_godunov_plm.cpp</text>
</a>
</g>
</g>
<!-- Node1&#45;&gt;Node5 -->
<g id="edge4" class="edge">
<title>Node1&#45;&gt;Node5</title>
<path fill="none" stroke="midnightblue" d="M317,-101.8C317,-92.91 317,-82.78 317,-75.75"/>
<polygon fill="midnightblue" stroke="midnightblue" points="313.5,-102.08 317,-112.08 320.5,-102.08 313.5,-102.08"/>
</g>
<!-- Node6 -->
<g id="node6" class="node">
<title>Node6</title>
<g id="a_node6"><a xlink:href="incflo__mol__fluxes_8cpp.html" target="_top" xlink:title=" ">
<polygon fill="white" stroke="black" points="402.5,-56.5 402.5,-75.5 523.5,-75.5 523.5,-56.5 402.5,-56.5"/>
<text text-anchor="middle" x="463" y="-63.5" font-family="Helvetica,sans-Serif" font-size="10.00">incflo_mol_fluxes.cpp</text>
</a>
</g>
</g>
<!-- Node1&#45;&gt;Node6 -->
<g id="edge5" class="edge">
<title>Node1&#45;&gt;Node6</title>
<path fill="none" stroke="midnightblue" d="M349.7,-108.91C377.15,-98.75 415.67,-84.51 439.97,-75.52"/>
<polygon fill="midnightblue" stroke="midnightblue" points="348.3,-105.69 340.13,-112.44 350.73,-112.26 348.3,-105.69"/>
</g>
<!-- Node3 -->
<g id="node3" class="node">
<title>Node3</title>
<g id="a_node3"><a xlink:href="incflo__godunov__advection_8cpp.html" target="_top" xlink:title=" ">
<polygon fill="white" stroke="black" points="0,-0.5 0,-19.5 164,-19.5 164,-0.5 0,-0.5"/>
<text text-anchor="middle" x="82" y="-7.5" font-family="Helvetica,sans-Serif" font-size="10.00">incflo_godunov_advection.cpp</text>
</a>
</g>
</g>
<!-- Node2&#45;&gt;Node3 -->
<g id="edge2" class="edge">
<title>Node2&#45;&gt;Node3</title>
<path fill="none" stroke="midnightblue" d="M146.28,-50.9C130.33,-41 109.5,-28.07 95.94,-19.65"/>
<polygon fill="midnightblue" stroke="midnightblue" points="144.68,-54.02 155.02,-56.32 148.37,-48.08 144.68,-54.02"/>
</g>
<!-- Node4 -->
<g id="node4" class="node">
<title>Node4</title>
<g id="a_node4"><a xlink:href="incflo__godunov__predict_8cpp.html" target="_top" xlink:title=" ">
<polygon fill="white" stroke="black" points="182.5,-0.5 182.5,-19.5 331.5,-19.5 331.5,-0.5 182.5,-0.5"/>
<text text-anchor="middle" x="257" y="-7.5" font-family="Helvetica,sans-Serif" font-size="10.00">incflo_godunov_predict.cpp</text>
</a>
</g>
</g>
<!-- Node2&#45;&gt;Node4 -->
<g id="edge3" class="edge">
<title>Node2&#45;&gt;Node4</title>
<path fill="none" stroke="midnightblue" d="M191.98,-50.9C208.11,-41 229.18,-28.07 242.9,-19.65"/>
<polygon fill="midnightblue" stroke="midnightblue" points="189.83,-48.11 183.14,-56.32 193.49,-54.08 189.83,-48.11"/>
</g>
</g>
</svg>
