<?xml version="1.0" encoding="UTF-8" standalone="no"?>
<!DOCTYPE svg PUBLIC "-//W3C//DTD SVG 1.1//EN"
 "http://www.w3.org/Graphics/SVG/1.1/DTD/svg11.dtd">
<!-- Generated by graphviz version 2.43.0 (0)
 -->
<!-- Title: incflo.H Pages: 1 -->
<!--zoomable 95 -->
<svg id="main" version="1.1" xmlns="http://www.w3.org/2000/svg" xmlns:xlink="http://www.w3.org/1999/xlink" xml:space="preserve" onload="init(evt)">
<style type="text/css"><![CDATA[
.edge:hover path { stroke: red; }
.edge:hover polygon { stroke: red; fill: red; }
]]></style>
<script type="text/javascript"><![CDATA[
var edges = document.getElementsByTagName('g');
if (edges && edges.length) {
  for (var i=0;i<edges.length;i++) {
    if (edges[i].id.substr(0,4)=='edge') {
      edges[i].setAttribute('class','edge');
    }
  }
}
]]></script>
        <defs>
                <circle id="rim" cx="0" cy="0" r="7"/>
                <circle id="rim2" cx="0" cy="0" r="3.5"/>
                <g id="zoomPlus">
                        <use xlink:href="#rim" fill="#404040">
                                <set attributeName="fill" to="#808080" begin="zoomplus.mouseover" end="zoomplus.mouseout"/>
                        </use>
                        <path d="M-4,0h8M0,-4v8" fill="none" stroke="white" stroke-width="1.5" pointer-events="none"/>
                </g>
                <g id="zoomMin">
                        <use xlink:href="#rim" fill="#404040">
                                <set attributeName="fill" to="#808080" begin="zoomminus.mouseover" end="zoomminus.mouseout"/>
                        </use>
                        <path d="M-4,0h8" fill="none" stroke="white" stroke-width="1.5" pointer-events="none"/>
                </g>
                <g id="dirArrow">
                        <path fill="none" stroke="white" stroke-width="1.5" d="M0,-3.0v7 M-2.5,-0.5L0,-3.0L2.5,-0.5"/>
                </g>
               <g id="resetDef">
                       <use xlink:href="#rim2" fill="#404040">
                               <set attributeName="fill" to="#808080" begin="reset.mouseover" end="reset.mouseout"/>
                       </use>
               </g>
        </defs>

<script type="text/javascript">
var viewWidth = 1113;
var viewHeight = 95;
var sectionId = 'dynsection-1';
</script>
<script xlink:href="svgpan.js"/>
<svg id="graph" class="graph">
<g id="viewport">
<title>incflo.H</title>
<polygon fill="white" stroke="transparent" points="-4,4 -4,-91 1109,-91 1109,4 -4,4"/>
<!-- Node1 -->
<g id="node1" class="node">
<title>Node1</title>
<g id="a_node1"><a xlink:title=" ">
<polygon fill="#bfbfbf" stroke="black" points="602.5,-67.5 602.5,-86.5 655.5,-86.5 655.5,-67.5 602.5,-67.5"/>
<text text-anchor="middle" x="629" y="-74.5" font-family="Helvetica,sans-Serif" font-size="10.00">incflo.H</text>
</a>
</g>
</g>
<!-- Node2 -->
<g id="node2" class="node">
<title>Node2</title>
<g id="a_node2"><a xlink:href="incflo__diffusion_8cpp.html" target="_top" xlink:title=" ">
<polygon fill="white" stroke="black" points="0,-6 0,-25 110,-25 110,-6 0,-6"/>
<text text-anchor="middle" x="55" y="-13" font-family="Helvetica,sans-Serif" font-size="10.00">incflo_diffusion.cpp</text>
</a>
</g>
</g>
<!-- Node1&#45;&gt;Node2 -->
<g id="edge1" class="edge">
<title>Node1&#45;&gt;Node2</title>
<path fill="none" stroke="midnightblue" d="M592.22,-74.46C508.03,-70.55 295,-58.57 119,-31 109.1,-29.45 98.44,-27.25 88.71,-25.03"/>
<polygon fill="midnightblue" stroke="midnightblue" points="592.15,-77.96 602.3,-74.91 592.47,-70.96 592.15,-77.96"/>
</g>
<!-- Node3 -->
<g id="node3" class="node">
<title>Node3</title>
<g id="a_node3"><a xlink:href="incflo_8cpp.html" target="_top" xlink:title=" ">
<polygon fill="white" stroke="black" points="128.5,-6 128.5,-25 191.5,-25 191.5,-6 128.5,-6"/>
<text text-anchor="middle" x="160" y="-13" font-family="Helvetica,sans-Serif" font-size="10.00">incflo.cpp</text>
</a>
</g>
</g>
<!-- Node1&#45;&gt;Node3 -->
<g id="edge2" class="edge">
<title>Node1&#45;&gt;Node3</title>
<path fill="none" stroke="midnightblue" d="M591.78,-75.02C516.9,-72.41 343.05,-63.11 201,-31 194.52,-29.53 187.65,-27.36 181.42,-25.14"/>
<polygon fill="midnightblue" stroke="midnightblue" points="591.99,-78.53 602.1,-75.36 592.22,-71.53 591.99,-78.53"/>
</g>
<!-- Node4 -->
<g id="node4" class="node">
<title>Node4</title>
<g id="a_node4"><a xlink:href="incflo__advance_8cpp.html" target="_top" xlink:title=" ">
<polygon fill="white" stroke="black" points="210,-6 210,-25 320,-25 320,-6 210,-6"/>
<text text-anchor="middle" x="265" y="-13" font-family="Helvetica,sans-Serif" font-size="10.00">incflo_advance.cpp</text>
</a>
</g>
</g>
<!-- Node1&#45;&gt;Node4 -->
<g id="edge3" class="edge">
<title>Node1&#45;&gt;Node4</title>
<path fill="none" stroke="midnightblue" d="M592.14,-71.36C535.4,-64.03 423.33,-48.74 329,-31 319.71,-29.25 309.71,-27.11 300.45,-25.02"/>
<polygon fill="midnightblue" stroke="midnightblue" points="592.04,-74.88 602.4,-72.68 592.93,-67.94 592.04,-74.88"/>
</g>
<!-- Node5 -->
<g id="node5" class="node">
<title>Node5</title>
<g id="a_node5"><a xlink:href="incflo__compute__dt_8cpp.html" target="_top" xlink:title=" ">
<polygon fill="white" stroke="black" points="338,-6 338,-25 464,-25 464,-6 338,-6"/>
<text text-anchor="middle" x="401" y="-13" font-family="Helvetica,sans-Serif" font-size="10.00">incflo_compute_dt.cpp</text>
</a>
</g>
</g>
<!-- Node1&#45;&gt;Node5 -->
<g id="edge4" class="edge">
<title>Node1&#45;&gt;Node5</title>
<path fill="none" stroke="midnightblue" d="M592.72,-66.53C548.89,-55.09 475.81,-36.02 433.67,-25.03"/>
<polygon fill="midnightblue" stroke="midnightblue" points="591.84,-69.92 602.4,-69.06 593.61,-63.15 591.84,-69.92"/>
</g>
<!-- Node6 -->
<g id="node6" class="node">
<title>Node6</title>
<g id="a_node6"><a xlink:href="incflo__regrid_8cpp.html" target="_top" xlink:title=" ">
<polygon fill="white" stroke="black" points="482.5,-6 482.5,-25 579.5,-25 579.5,-6 482.5,-6"/>
<text text-anchor="middle" x="531" y="-13" font-family="Helvetica,sans-Serif" font-size="10.00">incflo_regrid.cpp</text>
</a>
</g>
</g>
<!-- Node1&#45;&gt;Node6 -->
<g id="edge5" class="edge">
<title>Node1&#45;&gt;Node6</title>
<path fill="none" stroke="midnightblue" d="M606.34,-62.24C587.41,-50.75 561.01,-34.72 545.01,-25.01"/>
<polygon fill="midnightblue" stroke="midnightblue" points="604.59,-65.28 614.96,-67.48 608.23,-59.29 604.59,-65.28"/>
</g>
<!-- Node7 -->
<g id="node7" class="node">
<title>Node7</title>
<g id="a_node7"><a xlink:href="main_8cpp.html" target="_top" xlink:title=" ">
<polygon fill="white" stroke="black" points="598,-6 598,-25 660,-25 660,-6 598,-6"/>
<text text-anchor="middle" x="629" y="-13" font-family="Helvetica,sans-Serif" font-size="10.00">main.cpp</text>
</a>
</g>
</g>
<!-- Node1&#45;&gt;Node7 -->
<g id="edge6" class="edge">
<title>Node1&#45;&gt;Node7</title>
<path fill="none" stroke="midnightblue" d="M629,-57.32C629,-46.5 629,-33.4 629,-25.01"/>
<polygon fill="midnightblue" stroke="midnightblue" points="625.5,-57.48 629,-67.48 632.5,-57.48 625.5,-57.48"/>
</g>
<!-- Node8 -->
<g id="node8" class="node">
<title>Node8</title>
<g id="a_node8"><a xlink:href="incflo__apply__nodal__projection_8cpp.html" target="_top" xlink:title=" ">
<polygon fill="white" stroke="black" points="678.5,-0.5 678.5,-30.5 785.5,-30.5 785.5,-0.5 678.5,-0.5"/>
<text text-anchor="start" x="686.5" y="-18.5" font-family="Helvetica,sans-Serif" font-size="10.00">incflo_apply_nodal</text>
<text text-anchor="middle" x="732" y="-7.5" font-family="Helvetica,sans-Serif" font-size="10.00">_projection.cpp</text>
</a>
</g>
</g>
<!-- Node1&#45;&gt;Node8 -->
<g id="edge7" class="edge">
<title>Node1&#45;&gt;Node8</title>
<path fill="none" stroke="midnightblue" d="M652.76,-62.28C669.24,-52.75 691.13,-40.11 707.72,-30.52"/>
<polygon fill="midnightblue" stroke="midnightblue" points="650.67,-59.44 643.76,-67.48 654.17,-65.5 650.67,-59.44"/>
</g>
<!-- Node9 -->
<g id="node9" class="node">
<title>Node9</title>
<g id="a_node9"><a xlink:href="init_8cpp.html" target="_top" xlink:title=" ">
<polygon fill="white" stroke="black" points="803.5,-6 803.5,-25 856.5,-25 856.5,-6 803.5,-6"/>
<text text-anchor="middle" x="830" y="-13" font-family="Helvetica,sans-Serif" font-size="10.00">init.cpp</text>
</a>
</g>
</g>
<!-- Node1&#45;&gt;Node9 -->
<g id="edge8" class="edge">
<title>Node1&#45;&gt;Node9</title>
<path fill="none" stroke="midnightblue" d="M665.69,-67.49C699.6,-59.28 751.2,-45.94 795,-31 800.1,-29.26 805.53,-27.15 810.55,-25.08"/>
<polygon fill="midnightblue" stroke="midnightblue" points="664.68,-64.13 655.77,-69.86 666.31,-70.94 664.68,-64.13"/>
</g>
<!-- Node10 -->
<g id="node10" class="node">
<title>Node10</title>
<g id="a_node10"><a xlink:href="diagnostics_8cpp.html" target="_top" xlink:title=" ">
<polygon fill="white" stroke="black" points="875,-6 875,-25 967,-25 967,-6 875,-6"/>
<text text-anchor="middle" x="921" y="-13" font-family="Helvetica,sans-Serif" font-size="10.00">diagnostics.cpp</text>
</a>
</g>
</g>
<!-- Node1&#45;&gt;Node10 -->
<g id="edge9" class="edge">
<title>Node1&#45;&gt;Node10</title>
<path fill="none" stroke="midnightblue" d="M665.74,-69.85C712.47,-61.83 795.56,-46.95 866,-31 873.9,-29.21 882.38,-27.08 890.26,-25.01"/>
<polygon fill="midnightblue" stroke="midnightblue" points="665.05,-66.41 655.78,-71.55 666.23,-73.31 665.05,-66.41"/>
</g>
<!-- Node11 -->
<g id="node11" class="node">
<title>Node11</title>
<g id="a_node11"><a xlink:href="io_8cpp.html" target="_top" xlink:title=" ">
<polygon fill="white" stroke="black" points="985,-6 985,-25 1031,-25 1031,-6 985,-6"/>
<text text-anchor="middle" x="1008" y="-13" font-family="Helvetica,sans-Serif" font-size="10.00">io.cpp</text>
</a>
</g>
</g>
<!-- Node1&#45;&gt;Node11 -->
<g id="edge10" class="edge">
<title>Node1&#45;&gt;Node11</title>
<path fill="none" stroke="midnightblue" d="M665.67,-74.8C729.78,-71.92 865.86,-62.34 976,-31 981.16,-29.53 986.56,-27.36 991.41,-25.14"/>
<polygon fill="midnightblue" stroke="midnightblue" points="665.5,-71.3 655.65,-75.22 665.79,-78.3 665.5,-71.3"/>
</g>
<!-- Node12 -->
<g id="node12" class="node">
<title>Node12</title>
<g id="a_node12"><a xlink:href="_a_b_l_8cpp.html" target="_top" xlink:title=" ">
<polygon fill="white" stroke="black" points="1049,-6 1049,-25 1105,-25 1105,-6 1049,-6"/>
<text text-anchor="middle" x="1077" y="-13" font-family="Helvetica,sans-Serif" font-size="10.00">ABL.cpp</text>
</a>
</g>
</g>
<!-- Node1&#45;&gt;Node12 -->
<g id="edge11" class="edge">
<title>Node1&#45;&gt;Node12</title>
<path fill="none" stroke="midnightblue" d="M665.89,-75.21C738.54,-72.96 904.81,-64.27 1040,-31 1046.03,-29.52 1052.39,-27.28 1058.11,-25.01"/>
<polygon fill="midnightblue" stroke="midnightblue" points="665.77,-71.72 655.87,-75.5 665.97,-78.71 665.77,-71.72"/>
</g>
</g>
</svg>
        <g id="navigator" transform="translate(0 0)" fill="#404254">
                <rect fill="#f2f5e9" fill-opacity="0.5" stroke="#606060" stroke-width=".5" x="0" y="0" width="60" height="60"/>
                <use id="zoomplus" xlink:href="#zoomPlus" x="17" y="9" onmousedown="handleZoom(evt,'in')"/>
                <use id="zoomminus" xlink:href="#zoomMin" x="42" y="9" onmousedown="handleZoom(evt,'out')"/>
                <use id="reset" xlink:href="#resetDef" x="30" y="36" onmousedown="handleReset()"/>
                <g id="arrowUp" xlink:href="#dirArrow" transform="translate(30 24)" onmousedown="handlePan(0,-1)">
                  <use xlink:href="#rim" fill="#404040">
                        <set attributeName="fill" to="#808080" begin="arrowUp.mouseover" end="arrowUp.mouseout"/>
                  </use>
                  <path fill="none" stroke="white" stroke-width="1.5" d="M0,-3.0v7 M-2.5,-0.5L0,-3.0L2.5,-0.5"/>
                </g>
                <g id="arrowRight" xlink:href="#dirArrow" transform="rotate(90) translate(36 -43)" onmousedown="handlePan(1,0)">
                  <use xlink:href="#rim" fill="#404040">
                        <set attributeName="fill" to="#808080" begin="arrowRight.mouseover" end="arrowRight.mouseout"/>
                  </use>
                  <path fill="none" stroke="white" stroke-width="1.5" d="M0,-3.0v7 M-2.5,-0.5L0,-3.0L2.5,-0.5"/>
                </g>
                <g id="arrowDown" xlink:href="#dirArrow" transform="rotate(180) translate(-30 -48)" onmousedown="handlePan(0,1)">
                  <use xlink:href="#rim" fill="#404040">
                        <set attributeName="fill" to="#808080" begin="arrowDown.mouseover" end="arrowDown.mouseout"/>
                  </use>
                  <path fill="none" stroke="white" stroke-width="1.5" d="M0,-3.0v7 M-2.5,-0.5L0,-3.0L2.5,-0.5"/>
                </g>
                <g id="arrowLeft" xlink:href="#dirArrow" transform="rotate(270) translate(-36 17)" onmousedown="handlePan(-1,0)">
                  <use xlink:href="#rim" fill="#404040">
                        <set attributeName="fill" to="#808080" begin="arrowLeft.mouseover" end="arrowLeft.mouseout"/>
                  </use>
                  <path fill="none" stroke="white" stroke-width="1.5" d="M0,-3.0v7 M-2.5,-0.5L0,-3.0L2.5,-0.5"/>
                </g>
        </g>
        <svg viewBox="0 0 15 15" width="100%" height="30px" preserveAspectRatio="xMaxYMin meet">
         <g id="arrow_out" transform="scale(0.3 0.3)">
          <a xlink:href="incflo_8_h__dep__incl_org.svg" target="_base">
           <rect id="button" ry="5" rx="5" y="6" x="6" height="38" width="38"
                fill="#f2f5e9" fill-opacity="0.5" stroke="#606060" stroke-width="1.0"/>
           <path id="arrow"
             d="M 11.500037,31.436501 C 11.940474,20.09759 22.043105,11.32322 32.158766,21.979434 L 37.068811,17.246167 C 37.068811,17.246167 37.088388,32 37.088388,32 L 22.160133,31.978069 C 22.160133,31.978069 26.997745,27.140456 26.997745,27.140456 C 18.528582,18.264221 13.291696,25.230495 11.500037,31.436501 z"
             style="fill:#404040;"/>
          </a>
         </g>
        </svg>
</svg>
