<?xml version="1.0" encoding="UTF-8" standalone="no"?>
<!DOCTYPE svg PUBLIC "-//W3C//DTD SVG 1.1//EN"
 "http://www.w3.org/Graphics/SVG/1.1/DTD/svg11.dtd">
<!-- Generated by graphviz version 2.43.0 (0)
 -->
<!-- Title: incflo_compute_dt.cpp Pages: 1 -->
<svg width="2980pt" height="397pt"
 viewBox="0.00 0.00 2980.23 397.00" xmlns="http://www.w3.org/2000/svg" xmlns:xlink="http://www.w3.org/1999/xlink">
<g id="graph0" class="graph" transform="scale(1 1) rotate(0) translate(4 393)">
<title>incflo_compute_dt.cpp</title>
<polygon fill="white" stroke="transparent" points="-4,4 -4,-393 2976.23,-393 2976.23,4 -4,4"/>
<!-- Node1 -->
<g id="node1" class="node">
<title>Node1</title>
<g id="a_node1"><a xlink:title=" ">
<polygon fill="#bfbfbf" stroke="black" points="2784.23,-369.5 2784.23,-388.5 2910.23,-388.5 2910.23,-369.5 2784.23,-369.5"/>
<text text-anchor="middle" x="2847.23" y="-376.5" font-family="Helvetica,sans-Serif" font-size="10.00">incflo_compute_dt.cpp</text>
</a>
</g>
</g>
<!-- Node2 -->
<g id="node2" class="node">
<title>Node2</title>
<g id="a_node2"><a xlink:href="incflo_8_h.html" target="_top" xlink:title=" ">
<polygon fill="white" stroke="black" points="1706.73,-308 1706.73,-327 1809.73,-327 1809.73,-308 1706.73,-308"/>
<text text-anchor="middle" x="1758.23" y="-315" font-family="Helvetica,sans-Serif" font-size="10.00">amr&#45;wind/incflo.H</text>
</a>
</g>
</g>
<!-- Node1&#45;&gt;Node2 -->
<g id="edge1" class="edge">
<title>Node1&#45;&gt;Node2</title>
<path fill="none" stroke="midnightblue" d="M2783.97,-374.54C2590.96,-364 2011.16,-332.32 1820.06,-321.88"/>
<polygon fill="midnightblue" stroke="midnightblue" points="1820.09,-318.37 1809.91,-321.32 1819.71,-325.36 1820.09,-318.37"/>
</g>
<!-- Node43 -->
<g id="node43" class="node">
<title>Node43</title>
<g id="a_node43"><a xlink:href="volume__fractions_8_h.html" target="_top" xlink:title=" ">
<polygon fill="white" stroke="black" points="2716.73,-302.5 2716.73,-332.5 2871.73,-332.5 2871.73,-302.5 2716.73,-302.5"/>
<text text-anchor="start" x="2724.73" y="-320.5" font-family="Helvetica,sans-Serif" font-size="10.00">amr&#45;wind/equation_systems</text>
<text text-anchor="middle" x="2794.23" y="-309.5" font-family="Helvetica,sans-Serif" font-size="10.00">/vof/volume_fractions.H</text>
</a>
</g>
</g>
<!-- Node1&#45;&gt;Node43 -->
<g id="edge82" class="edge">
<title>Node1&#45;&gt;Node43</title>
<path fill="none" stroke="midnightblue" d="M2839.63,-369.48C2832.86,-361.87 2822.64,-350.4 2813.62,-340.26"/>
<polygon fill="midnightblue" stroke="midnightblue" points="2815.98,-337.66 2806.72,-332.52 2810.76,-342.32 2815.98,-337.66"/>
</g>
<!-- Node45 -->
<g id="node45" class="node">
<title>Node45</title>
<g id="a_node45"><a xlink:title=" ">
<polygon fill="white" stroke="#bfbfbf" points="2875.73,-246.5 2875.73,-265.5 2922.73,-265.5 2922.73,-246.5 2875.73,-246.5"/>
<text text-anchor="middle" x="2899.23" y="-253.5" font-family="Helvetica,sans-Serif" font-size="10.00">cmath</text>
</a>
</g>
</g>
<!-- Node1&#45;&gt;Node45 -->
<g id="edge85" class="edge">
<title>Node1&#45;&gt;Node45</title>
<path fill="none" stroke="midnightblue" d="M2855.46,-369.42C2863.23,-360.86 2874.64,-347 2881.23,-333 2889.87,-314.64 2894.56,-291.77 2896.96,-275.94"/>
<polygon fill="midnightblue" stroke="midnightblue" points="2900.46,-276.2 2898.33,-265.82 2893.52,-275.26 2900.46,-276.2"/>
</g>
<!-- Node46 -->
<g id="node46" class="node">
<title>Node46</title>
<g id="a_node46"><a xlink:title=" ">
<polygon fill="white" stroke="#bfbfbf" points="2928.23,-308 2928.23,-327 2972.23,-327 2972.23,-308 2928.23,-308"/>
<text text-anchor="middle" x="2950.23" y="-315" font-family="Helvetica,sans-Serif" font-size="10.00">limits</text>
</a>
</g>
</g>
<!-- Node1&#45;&gt;Node46 -->
<g id="edge86" class="edge">
<title>Node1&#45;&gt;Node46</title>
<path fill="none" stroke="midnightblue" d="M2861.99,-369.48C2878.89,-359.71 2906.81,-343.58 2926.72,-332.08"/>
<polygon fill="midnightblue" stroke="midnightblue" points="2928.59,-335.04 2935.5,-327.01 2925.09,-328.98 2928.59,-335.04"/>
</g>
<!-- Node3 -->
<g id="node3" class="node">
<title>Node3</title>
<g id="a_node3"><a xlink:title=" ">
<polygon fill="white" stroke="#bfbfbf" points="1243.23,-118 1243.23,-137 1353.23,-137 1353.23,-118 1243.23,-118"/>
<text text-anchor="middle" x="1298.23" y="-125" font-family="Helvetica,sans-Serif" font-size="10.00">AMReX_AmrCore.H</text>
</a>
</g>
</g>
<!-- Node2&#45;&gt;Node3 -->
<g id="edge2" class="edge">
<title>Node2&#45;&gt;Node3</title>
<path fill="none" stroke="midnightblue" d="M1706.71,-310.29C1650.54,-302.78 1558.35,-288.32 1481.23,-266 1417.25,-247.49 1391.89,-254.38 1342.23,-210 1322.99,-192.8 1310.58,-165.13 1304,-146.88"/>
<polygon fill="midnightblue" stroke="midnightblue" points="1307.3,-145.73 1300.79,-137.38 1300.67,-147.97 1307.3,-145.73"/>
</g>
<!-- Node4 -->
<g id="node4" class="node">
<title>Node4</title>
<g id="a_node4"><a xlink:title=" ">
<polygon fill="white" stroke="#bfbfbf" points="1624.23,-246.5 1624.23,-265.5 1750.23,-265.5 1750.23,-246.5 1624.23,-246.5"/>
<text text-anchor="middle" x="1687.23" y="-253.5" font-family="Helvetica,sans-Serif" font-size="10.00">AMReX_MultiFabUtil.H</text>
</a>
</g>
</g>
<!-- Node2&#45;&gt;Node4 -->
<g id="edge3" class="edge">
<title>Node2&#45;&gt;Node4</title>
<path fill="none" stroke="midnightblue" d="M1748.06,-307.98C1736.88,-298.61 1718.71,-283.38 1705.14,-272.01"/>
<polygon fill="midnightblue" stroke="midnightblue" points="1707.29,-269.25 1697.38,-265.51 1702.8,-274.61 1707.29,-269.25"/>
</g>
<!-- Node5 -->
<g id="node5" class="node">
<title>Node5</title>
<g id="a_node5"><a xlink:title=" ">
<polygon fill="white" stroke="#bfbfbf" points="1768.73,-246.5 1768.73,-265.5 1887.73,-265.5 1887.73,-246.5 1768.73,-246.5"/>
<text text-anchor="middle" x="1828.23" y="-253.5" font-family="Helvetica,sans-Serif" font-size="10.00">AMReX_ParmParse.H</text>
</a>
</g>
</g>
<!-- Node2&#45;&gt;Node5 -->
<g id="edge4" class="edge">
<title>Node2&#45;&gt;Node5</title>
<path fill="none" stroke="midnightblue" d="M1768.26,-307.98C1779.28,-298.61 1797.19,-283.38 1810.57,-272.01"/>
<polygon fill="midnightblue" stroke="midnightblue" points="1812.86,-274.65 1818.22,-265.51 1808.33,-269.32 1812.86,-274.65"/>
</g>
<!-- Node6 -->
<g id="node6" class="node">
<title>Node6</title>
<g id="a_node6"><a xlink:title=" ">
<polygon fill="white" stroke="#bfbfbf" points="13.23,-56.5 13.23,-75.5 125.23,-75.5 125.23,-56.5 13.23,-56.5"/>
<text text-anchor="middle" x="69.23" y="-63.5" font-family="Helvetica,sans-Serif" font-size="10.00">AMReX_iMultiFab.H</text>
</a>
</g>
</g>
<!-- Node2&#45;&gt;Node6 -->
<g id="edge5" class="edge">
<title>Node2&#45;&gt;Node6</title>
<path fill="none" stroke="midnightblue" d="M1706.66,-312.78C1603.15,-305.18 1362.73,-286.8 1161.23,-266 711.85,-219.62 562.61,-331.88 152.23,-143 122.94,-129.52 96.93,-101.85 82.13,-83.87"/>
<polygon fill="midnightblue" stroke="midnightblue" points="84.78,-81.57 75.81,-75.93 79.3,-85.94 84.78,-81.57"/>
</g>
<!-- Node7 -->
<g id="node7" class="node">
<title>Node7</title>
<g id="a_node7"><a xlink:title=" ">
<polygon fill="white" stroke="#bfbfbf" points="1905.73,-246.5 1905.73,-265.5 2036.73,-265.5 2036.73,-246.5 1905.73,-246.5"/>
<text text-anchor="middle" x="1971.23" y="-253.5" font-family="Helvetica,sans-Serif" font-size="10.00">hydro_NodalProjector.H</text>
</a>
</g>
</g>
<!-- Node2&#45;&gt;Node7 -->
<g id="edge6" class="edge">
<title>Node2&#45;&gt;Node7</title>
<path fill="none" stroke="midnightblue" d="M1788.75,-307.98C1826.15,-297.53 1889.65,-279.79 1931.01,-268.23"/>
<polygon fill="midnightblue" stroke="midnightblue" points="1932.08,-271.57 1940.77,-265.51 1930.19,-264.83 1932.08,-271.57"/>
</g>
<!-- Node8 -->
<g id="node8" class="node">
<title>Node8</title>
<g id="a_node8"><a xlink:href="incflo__enums_8_h.html" target="_top" xlink:title=" ">
<polygon fill="white" stroke="black" points="2091.73,-56.5 2091.73,-75.5 2232.73,-75.5 2232.73,-56.5 2091.73,-56.5"/>
<text text-anchor="middle" x="2162.23" y="-63.5" font-family="Helvetica,sans-Serif" font-size="10.00">amr&#45;wind/incflo_enums.H</text>
</a>
</g>
</g>
<!-- Node2&#45;&gt;Node8 -->
<g id="edge7" class="edge">
<title>Node2&#45;&gt;Node8</title>
<path fill="none" stroke="midnightblue" d="M1809.84,-315.45C1989.29,-310.58 2581.03,-283.91 2690.23,-143 2777.09,-30.92 3197.48,-167.41 2243.11,-76.05"/>
<polygon fill="midnightblue" stroke="midnightblue" points="2243.17,-72.54 2232.89,-75.07 2242.5,-79.51 2243.17,-72.54"/>
</g>
<!-- Node9 -->
<g id="node9" class="node">
<title>Node9</title>
<g id="a_node9"><a xlink:href="_c_f_d_sim_8_h.html" target="_top" xlink:title=" ">
<polygon fill="white" stroke="black" points="1490.23,-246.5 1490.23,-265.5 1606.23,-265.5 1606.23,-246.5 1490.23,-246.5"/>
<text text-anchor="middle" x="1548.23" y="-253.5" font-family="Helvetica,sans-Serif" font-size="10.00">amr&#45;wind/CFDSim.H</text>
</a>
</g>
</g>
<!-- Node2&#45;&gt;Node9 -->
<g id="edge8" class="edge">
<title>Node2&#45;&gt;Node9</title>
<path fill="none" stroke="midnightblue" d="M1728.14,-307.98C1691.34,-297.55 1628.92,-279.86 1588.13,-268.31"/>
<polygon fill="midnightblue" stroke="midnightblue" points="1588.84,-264.87 1578.26,-265.51 1586.93,-271.6 1588.84,-264.87"/>
</g>
<!-- Node10 -->
<g id="node10" class="node">
<title>Node10</title>
<g id="a_node10"><a xlink:href="_sim_time_8_h.html" target="_top" xlink:title=" ">
<polygon fill="white" stroke="black" points="2277.23,-185 2277.23,-204 2421.23,-204 2421.23,-185 2277.23,-185"/>
<text text-anchor="middle" x="2349.23" y="-192" font-family="Helvetica,sans-Serif" font-size="10.00">amr&#45;wind/core/SimTime.H</text>
</a>
</g>
</g>
<!-- Node2&#45;&gt;Node10 -->
<g id="edge80" class="edge">
<title>Node2&#45;&gt;Node10</title>
<path fill="none" stroke="midnightblue" d="M1809.97,-308.25C1867.56,-298.88 1963.31,-282.69 2045.23,-266 2138.32,-247.03 2246.52,-220.97 2305.45,-206.43"/>
<polygon fill="midnightblue" stroke="midnightblue" points="2306.3,-209.83 2315.17,-204.03 2304.62,-203.03 2306.3,-209.83"/>
</g>
<!-- Node14 -->
<g id="node14" class="node">
<title>Node14</title>
<g id="a_node14"><a xlink:href="_field_repo_8_h.html" target="_top" xlink:title=" ">
<polygon fill="white" stroke="black" points="800.73,-185 800.73,-204 949.73,-204 949.73,-185 800.73,-185"/>
<text text-anchor="middle" x="875.23" y="-192" font-family="Helvetica,sans-Serif" font-size="10.00">amr&#45;wind/core/FieldRepo.H</text>
</a>
</g>
</g>
<!-- Node2&#45;&gt;Node14 -->
<g id="edge81" class="edge">
<title>Node2&#45;&gt;Node14</title>
<path fill="none" stroke="midnightblue" d="M1706.62,-311.94C1620.4,-304.1 1441.67,-286.86 1291.23,-266 1161.38,-247.99 1009.77,-220.71 930.29,-205.92"/>
<polygon fill="midnightblue" stroke="midnightblue" points="930.5,-202.4 920.03,-204 929.22,-209.28 930.5,-202.4"/>
</g>
<!-- Node9&#45;&gt;Node3 -->
<g id="edge9" class="edge">
<title>Node9&#45;&gt;Node3</title>
<path fill="none" stroke="midnightblue" d="M1491.3,-246.49C1458.47,-239.89 1417.28,-228.63 1384.23,-210 1354.22,-193.09 1326.66,-163.42 1311.2,-144.93"/>
<polygon fill="midnightblue" stroke="midnightblue" points="1313.83,-142.62 1304.8,-137.08 1308.41,-147.04 1313.83,-142.62"/>
</g>
<!-- Node9&#45;&gt;Node10 -->
<g id="edge10" class="edge">
<title>Node9&#45;&gt;Node10</title>
<path fill="none" stroke="midnightblue" d="M1606.31,-246.96C1609.32,-246.62 1612.31,-246.3 1615.23,-246 1739.62,-233.38 2103.03,-210.53 2267.13,-200.47"/>
<polygon fill="midnightblue" stroke="midnightblue" points="2267.4,-203.96 2277.17,-199.86 2266.97,-196.98 2267.4,-203.96"/>
</g>
<!-- Node9&#45;&gt;Node14 -->
<g id="edge14" class="edge">
<title>Node9&#45;&gt;Node14</title>
<path fill="none" stroke="midnightblue" d="M1489.97,-249.85C1370.82,-239.31 1098.8,-215.27 960.04,-203"/>
<polygon fill="midnightblue" stroke="midnightblue" points="960.14,-199.49 949.87,-202.1 959.53,-206.47 960.14,-199.49"/>
</g>
<!-- Node32 -->
<g id="node32" class="node">
<title>Node32</title>
<g id="a_node32"><a xlink:href="_p_d_e_base_8_h.html" target="_top" xlink:title=" ">
<polygon fill="white" stroke="black" points="1947.73,-179.5 1947.73,-209.5 2102.73,-209.5 2102.73,-179.5 1947.73,-179.5"/>
<text text-anchor="start" x="1955.73" y="-197.5" font-family="Helvetica,sans-Serif" font-size="10.00">amr&#45;wind/equation_systems</text>
<text text-anchor="middle" x="2025.23" y="-186.5" font-family="Helvetica,sans-Serif" font-size="10.00">/PDEBase.H</text>
</a>
</g>
</g>
<!-- Node9&#45;&gt;Node32 -->
<g id="edge52" class="edge">
<title>Node9&#45;&gt;Node32</title>
<path fill="none" stroke="midnightblue" d="M1606.33,-247.16C1609.34,-246.76 1612.32,-246.37 1615.23,-246 1726.19,-231.71 1854.16,-216.09 1937.21,-206.06"/>
<polygon fill="midnightblue" stroke="midnightblue" points="1937.85,-209.51 1947.36,-204.83 1937.01,-202.56 1937.85,-209.51"/>
</g>
<!-- Node40 -->
<g id="node40" class="node">
<title>Node40</title>
<g id="a_node40"><a xlink:href="_physics_8_h.html" target="_top" xlink:title=" ">
<polygon fill="white" stroke="black" points="1559.73,-185 1559.73,-204 1696.73,-204 1696.73,-185 1559.73,-185"/>
<text text-anchor="middle" x="1628.23" y="-192" font-family="Helvetica,sans-Serif" font-size="10.00">amr&#45;wind/core/Physics.H</text>
</a>
</g>
</g>
<!-- Node9&#45;&gt;Node40 -->
<g id="edge69" class="edge">
<title>Node9&#45;&gt;Node40</title>
<path fill="none" stroke="midnightblue" d="M1559.69,-246.48C1572.4,-237.02 1593.14,-221.6 1608.48,-210.19"/>
<polygon fill="midnightblue" stroke="midnightblue" points="1610.85,-212.79 1616.79,-204.01 1606.67,-207.17 1610.85,-212.79"/>
</g>
<!-- Node42 -->
<g id="node42" class="node">
<title>Node42</title>
<g id="a_node42"><a xlink:href="_mesh_map_8_h.html" target="_top" xlink:title=" ">
<polygon fill="white" stroke="black" points="1393.23,-185 1393.23,-204 1541.23,-204 1541.23,-185 1393.23,-185"/>
<text text-anchor="middle" x="1467.23" y="-192" font-family="Helvetica,sans-Serif" font-size="10.00">amr&#45;wind/core/MeshMap.H</text>
</a>
</g>
</g>
<!-- Node9&#45;&gt;Node42 -->
<g id="edge74" class="edge">
<title>Node9&#45;&gt;Node42</title>
<path fill="none" stroke="midnightblue" d="M1536.62,-246.48C1523.75,-237.02 1502.75,-221.6 1487.22,-210.19"/>
<polygon fill="midnightblue" stroke="midnightblue" points="1488.94,-207.11 1478.81,-204.01 1484.8,-212.75 1488.94,-207.11"/>
</g>
<!-- Node11 -->
<g id="node11" class="node">
<title>Node11</title>
<g id="a_node11"><a xlink:title=" ">
<polygon fill="white" stroke="#bfbfbf" points="2303.23,-118 2303.23,-137 2395.23,-137 2395.23,-118 2303.23,-118"/>
<text text-anchor="middle" x="2349.23" y="-125" font-family="Helvetica,sans-Serif" font-size="10.00">AMReX_REAL.H</text>
</a>
</g>
</g>
<!-- Node10&#45;&gt;Node11 -->
<g id="edge11" class="edge">
<title>Node10&#45;&gt;Node11</title>
<path fill="none" stroke="midnightblue" d="M2349.23,-184.73C2349.23,-175.18 2349.23,-159.62 2349.23,-147.28"/>
<polygon fill="midnightblue" stroke="midnightblue" points="2352.73,-147.13 2349.23,-137.13 2345.73,-147.13 2352.73,-147.13"/>
</g>
<!-- Node12 -->
<g id="node12" class="node">
<title>Node12</title>
<g id="a_node12"><a xlink:title=" ">
<polygon fill="white" stroke="#bfbfbf" points="2413.23,-118 2413.23,-137 2547.23,-137 2547.23,-118 2413.23,-118"/>
<text text-anchor="middle" x="2480.23" y="-125" font-family="Helvetica,sans-Serif" font-size="10.00">AMReX_GpuQualifiers.H</text>
</a>
</g>
</g>
<!-- Node10&#45;&gt;Node12 -->
<g id="edge12" class="edge">
<title>Node10&#45;&gt;Node12</title>
<path fill="none" stroke="midnightblue" d="M2366.62,-184.87C2388.84,-173.84 2427.51,-154.66 2453.49,-141.77"/>
<polygon fill="midnightblue" stroke="midnightblue" points="2455.36,-144.75 2462.76,-137.17 2452.25,-138.48 2455.36,-144.75"/>
</g>
<!-- Node13 -->
<g id="node13" class="node">
<title>Node13</title>
<g id="a_node13"><a xlink:title=" ">
<polygon fill="white" stroke="#bfbfbf" points="2565.23,-118 2565.23,-137 2681.23,-137 2681.23,-118 2565.23,-118"/>
<text text-anchor="middle" x="2623.23" y="-125" font-family="Helvetica,sans-Serif" font-size="10.00">AMReX_Extension.H</text>
</a>
</g>
</g>
<!-- Node10&#45;&gt;Node13 -->
<g id="edge13" class="edge">
<title>Node10&#45;&gt;Node13</title>
<path fill="none" stroke="midnightblue" d="M2385.33,-184.94C2434.61,-173.24 2522.99,-152.28 2577.04,-139.46"/>
<polygon fill="midnightblue" stroke="midnightblue" points="2578.12,-142.8 2587.05,-137.08 2576.51,-135.99 2578.12,-142.8"/>
</g>
<!-- Node14&#45;&gt;Node3 -->
<g id="edge49" class="edge">
<title>Node14&#45;&gt;Node3</title>
<path fill="none" stroke="midnightblue" d="M944.63,-184.96C1016.16,-175.85 1130.79,-160.34 1229.23,-143 1235.95,-141.82 1243.02,-140.46 1249.96,-139.06"/>
<polygon fill="midnightblue" stroke="midnightblue" points="1250.9,-142.44 1259.99,-137 1249.49,-135.59 1250.9,-142.44"/>
</g>
<!-- Node14&#45;&gt;Node6 -->
<g id="edge51" class="edge">
<title>Node14&#45;&gt;Node6</title>
<path fill="none" stroke="midnightblue" d="M800.61,-190.88C655.48,-185.26 340.21,-170.26 235.23,-143 181.57,-129.07 123.74,-98.7 92.49,-80.85"/>
<polygon fill="midnightblue" stroke="midnightblue" points="94.09,-77.73 83.68,-75.75 90.58,-83.79 94.09,-77.73"/>
</g>
<!-- Node15 -->
<g id="node15" class="node">
<title>Node15</title>
<g id="a_node15"><a xlink:title=" ">
<polygon fill="white" stroke="#bfbfbf" points="1016.23,-0.5 1016.23,-19.5 1060.23,-19.5 1060.23,-0.5 1016.23,-0.5"/>
<text text-anchor="middle" x="1038.23" y="-7.5" font-family="Helvetica,sans-Serif" font-size="10.00">string</text>
</a>
</g>
</g>
<!-- Node14&#45;&gt;Node15 -->
<g id="edge15" class="edge">
<title>Node14&#45;&gt;Node15</title>
<path fill="none" stroke="midnightblue" d="M888.17,-184.87C913.96,-167.14 972.36,-124.2 1008.23,-76 1018.88,-61.68 1027.03,-42.97 1032.12,-29.31"/>
<polygon fill="midnightblue" stroke="midnightblue" points="1035.52,-30.2 1035.54,-19.6 1028.91,-27.87 1035.52,-30.2"/>
</g>
<!-- Node16 -->
<g id="node16" class="node">
<title>Node16</title>
<g id="a_node16"><a xlink:title=" ">
<polygon fill="white" stroke="#bfbfbf" points="1485.73,-56.5 1485.73,-75.5 1578.73,-75.5 1578.73,-56.5 1485.73,-56.5"/>
<text text-anchor="middle" x="1532.23" y="-63.5" font-family="Helvetica,sans-Serif" font-size="10.00">unordered_map</text>
</a>
</g>
</g>
<!-- Node14&#45;&gt;Node16 -->
<g id="edge16" class="edge">
<title>Node14&#45;&gt;Node16</title>
<path fill="none" stroke="midnightblue" d="M950.05,-192.7C1017.18,-189.48 1117.03,-178.38 1196.23,-143 1216.13,-134.11 1214.3,-120.83 1234.23,-112 1276.32,-93.35 1401.35,-79.08 1475.41,-71.98"/>
<polygon fill="midnightblue" stroke="midnightblue" points="1475.88,-75.45 1485.51,-71.02 1475.22,-68.48 1475.88,-75.45"/>
</g>
<!-- Node17 -->
<g id="node17" class="node">
<title>Node17</title>
<g id="a_node17"><a xlink:href="_field_desc_types_8_h.html" target="_top" xlink:title=" ">
<polygon fill="white" stroke="black" points="518.23,-0.5 518.23,-19.5 694.23,-19.5 694.23,-0.5 518.23,-0.5"/>
<text text-anchor="middle" x="606.23" y="-7.5" font-family="Helvetica,sans-Serif" font-size="10.00">amr&#45;wind/core/FieldDescTypes.H</text>
</a>
</g>
</g>
<!-- Node14&#45;&gt;Node17 -->
<g id="edge17" class="edge">
<title>Node14&#45;&gt;Node17</title>
<path fill="none" stroke="midnightblue" d="M800.51,-191.63C641.31,-187.1 273.31,-173.58 152.23,-143 82.22,-125.32 43.36,-136.68 4.23,-76 -0.59,-68.53 -1.82,-62.52 4.23,-56 21.07,-37.85 341.31,-21.97 507.68,-14.9"/>
<polygon fill="midnightblue" stroke="midnightblue" points="508.08,-18.39 517.92,-14.47 507.78,-11.39 508.08,-18.39"/>
</g>
<!-- Node18 -->
<g id="node18" class="node">
<title>Node18</title>
<g id="a_node18"><a xlink:href="_field_utils_8_h.html" target="_top" xlink:title=" ">
<polygon fill="white" stroke="black" points="143.23,-56.5 143.23,-75.5 289.23,-75.5 289.23,-56.5 143.23,-56.5"/>
<text text-anchor="middle" x="216.23" y="-63.5" font-family="Helvetica,sans-Serif" font-size="10.00">amr&#45;wind/core/FieldUtils.H</text>
</a>
</g>
</g>
<!-- Node14&#45;&gt;Node18 -->
<g id="edge18" class="edge">
<title>Node14&#45;&gt;Node18</title>
<path fill="none" stroke="midnightblue" d="M800.54,-190.86C648.43,-184.98 313.24,-169.19 268.23,-143 246.05,-130.1 231.24,-103.5 223.28,-85.45"/>
<polygon fill="midnightblue" stroke="midnightblue" points="226.42,-83.89 219.38,-75.98 219.95,-86.56 226.42,-83.89"/>
</g>
<!-- Node19 -->
<g id="node19" class="node">
<title>Node19</title>
<g id="a_node19"><a xlink:title=" ">
<polygon fill="white" stroke="#bfbfbf" points="731.73,-0.5 731.73,-19.5 840.73,-19.5 840.73,-0.5 731.73,-0.5"/>
<text text-anchor="middle" x="786.23" y="-7.5" font-family="Helvetica,sans-Serif" font-size="10.00">AMReX_MultiFab.H</text>
</a>
</g>
</g>
<!-- Node14&#45;&gt;Node19 -->
<g id="edge50" class="edge">
<title>Node14&#45;&gt;Node19</title>
<path fill="none" stroke="midnightblue" d="M867.38,-184.84C851.13,-166.37 813.84,-121.11 796.23,-76 790.45,-61.19 788,-43.27 786.96,-29.99"/>
<polygon fill="midnightblue" stroke="midnightblue" points="790.44,-29.51 786.37,-19.72 783.45,-29.91 790.44,-29.51"/>
</g>
<!-- Node21 -->
<g id="node21" class="node">
<title>Node21</title>
<g id="a_node21"><a xlink:href="_field_8_h.html" target="_top" xlink:title=" ">
<polygon fill="white" stroke="black" points="1063.23,-118 1063.23,-137 1187.23,-137 1187.23,-118 1063.23,-118"/>
<text text-anchor="middle" x="1125.23" y="-125" font-family="Helvetica,sans-Serif" font-size="10.00">amr&#45;wind/core/Field.H</text>
</a>
</g>
</g>
<!-- Node14&#45;&gt;Node21 -->
<g id="edge22" class="edge">
<title>Node14&#45;&gt;Node21</title>
<path fill="none" stroke="midnightblue" d="M908.17,-184.94C952.95,-173.29 1033.1,-152.45 1082.47,-139.62"/>
<polygon fill="midnightblue" stroke="midnightblue" points="1083.42,-142.99 1092.21,-137.08 1081.66,-136.21 1083.42,-142.99"/>
</g>
<!-- Node28 -->
<g id="node28" class="node">
<title>Node28</title>
<g id="a_node28"><a xlink:href="_int_field_8_h.html" target="_top" xlink:title=" ">
<polygon fill="white" stroke="black" points="277.73,-118 277.73,-137 414.73,-137 414.73,-118 277.73,-118"/>
<text text-anchor="middle" x="346.23" y="-125" font-family="Helvetica,sans-Serif" font-size="10.00">amr&#45;wind/core/IntField.H</text>
</a>
</g>
</g>
<!-- Node14&#45;&gt;Node28 -->
<g id="edge37" class="edge">
<title>Node14&#45;&gt;Node28</title>
<path fill="none" stroke="midnightblue" d="M805.8,-184.97C707.46,-172.89 528.12,-150.85 424.95,-138.17"/>
<polygon fill="midnightblue" stroke="midnightblue" points="425.26,-134.68 414.9,-136.94 424.4,-141.63 425.26,-134.68"/>
</g>
<!-- Node29 -->
<g id="node29" class="node">
<title>Node29</title>
<g id="a_node29"><a xlink:href="_scratch_field_8_h.html" target="_top" xlink:title=" ">
<polygon fill="white" stroke="black" points="526.23,-118 526.23,-137 686.23,-137 686.23,-118 526.23,-118"/>
<text text-anchor="middle" x="606.23" y="-125" font-family="Helvetica,sans-Serif" font-size="10.00">amr&#45;wind/core/ScratchField.H</text>
</a>
</g>
</g>
<!-- Node14&#45;&gt;Node29 -->
<g id="edge41" class="edge">
<title>Node14&#45;&gt;Node29</title>
<path fill="none" stroke="midnightblue" d="M839.78,-184.94C791.4,-173.24 704.64,-152.28 651.57,-139.46"/>
<polygon fill="midnightblue" stroke="midnightblue" points="652.29,-136.03 641.75,-137.08 650.65,-142.83 652.29,-136.03"/>
</g>
<!-- Node18&#45;&gt;Node17 -->
<g id="edge19" class="edge">
<title>Node18&#45;&gt;Node17</title>
<path fill="none" stroke="midnightblue" d="M278.02,-56.44C347.77,-46.79 461.07,-31.1 534.61,-20.92"/>
<polygon fill="midnightblue" stroke="midnightblue" points="535.29,-24.35 544.72,-19.52 534.33,-17.42 535.29,-24.35"/>
</g>
<!-- Node18&#45;&gt;Node19 -->
<g id="edge20" class="edge">
<title>Node18&#45;&gt;Node19</title>
<path fill="none" stroke="midnightblue" d="M289.28,-58.61C384.57,-50.2 556.44,-34.74 703.23,-20 709.05,-19.42 715.1,-18.79 721.16,-18.16"/>
<polygon fill="midnightblue" stroke="midnightblue" points="721.75,-21.61 731.33,-17.08 721.01,-14.65 721.75,-21.61"/>
</g>
<!-- Node20 -->
<g id="node20" class="node">
<title>Node20</title>
<g id="a_node20"><a xlink:title=" ">
<polygon fill="white" stroke="#bfbfbf" points="154.23,-0.5 154.23,-19.5 278.23,-19.5 278.23,-0.5 154.23,-0.5"/>
<text text-anchor="middle" x="216.23" y="-7.5" font-family="Helvetica,sans-Serif" font-size="10.00">AMReX_Interpolater.H</text>
</a>
</g>
</g>
<!-- Node18&#45;&gt;Node20 -->
<g id="edge21" class="edge">
<title>Node18&#45;&gt;Node20</title>
<path fill="none" stroke="midnightblue" d="M216.23,-56.08C216.23,-49.01 216.23,-38.86 216.23,-29.99"/>
<polygon fill="midnightblue" stroke="midnightblue" points="219.73,-29.75 216.23,-19.75 212.73,-29.75 219.73,-29.75"/>
</g>
<!-- Node21&#45;&gt;Node8 -->
<g id="edge30" class="edge">
<title>Node21&#45;&gt;Node8</title>
<path fill="none" stroke="midnightblue" d="M1182.26,-117.98C1198.97,-115.73 1217.31,-113.52 1234.23,-112 1576.34,-81.32 1663.21,-93.89 2006.23,-76 2030.64,-74.73 2057.2,-73.23 2081.37,-71.83"/>
<polygon fill="midnightblue" stroke="midnightblue" points="2081.79,-75.32 2091.57,-71.24 2081.38,-68.33 2081.79,-75.32"/>
</g>
<!-- Node21&#45;&gt;Node15 -->
<g id="edge23" class="edge">
<title>Node21&#45;&gt;Node15</title>
<path fill="none" stroke="midnightblue" d="M1168.37,-117.98C1235.63,-104.6 1358.17,-79.78 1361.23,-76 1366.82,-69.09 1367.06,-62.71 1361.23,-56 1323.76,-12.95 1145.02,-9.8 1070.73,-10.4"/>
<polygon fill="midnightblue" stroke="midnightblue" points="1070.51,-6.9 1060.55,-10.51 1070.59,-13.9 1070.51,-6.9"/>
</g>
<!-- Node21&#45;&gt;Node16 -->
<g id="edge25" class="edge">
<title>Node21&#45;&gt;Node16</title>
<path fill="none" stroke="midnightblue" d="M1167.76,-117.97C1178.65,-115.9 1190.36,-113.77 1201.23,-112 1297.12,-96.35 1409.27,-81.91 1475.32,-73.8"/>
<polygon fill="midnightblue" stroke="midnightblue" points="1476.02,-77.24 1485.52,-72.55 1475.17,-70.29 1476.02,-77.24"/>
</g>
<!-- Node21&#45;&gt;Node17 -->
<g id="edge31" class="edge">
<title>Node21&#45;&gt;Node17</title>
<path fill="none" stroke="midnightblue" d="M1063.04,-120.28C996.4,-112.85 887.84,-98.51 796.23,-76 738.82,-61.89 674.11,-37.96 636.95,-23.4"/>
<polygon fill="midnightblue" stroke="midnightblue" points="637.82,-19.98 627.23,-19.56 635.25,-26.49 637.82,-19.98"/>
</g>
<!-- Node21&#45;&gt;Node19 -->
<g id="edge27" class="edge">
<title>Node21&#45;&gt;Node19</title>
<path fill="none" stroke="midnightblue" d="M1063.12,-123.28C984.01,-118.02 853.03,-105.11 815.23,-76 800.72,-64.82 793.29,-44.8 789.6,-29.92"/>
<polygon fill="midnightblue" stroke="midnightblue" points="792.95,-28.84 787.46,-19.78 786.1,-30.28 792.95,-28.84"/>
</g>
<!-- Node22 -->
<g id="node22" class="node">
<title>Node22</title>
<g id="a_node22"><a xlink:title=" ">
<polygon fill="white" stroke="#bfbfbf" points="1635.23,-56.5 1635.23,-75.5 1693.23,-75.5 1693.23,-56.5 1635.23,-56.5"/>
<text text-anchor="middle" x="1664.23" y="-63.5" font-family="Helvetica,sans-Serif" font-size="10.00">memory</text>
</a>
</g>
</g>
<!-- Node21&#45;&gt;Node22 -->
<g id="edge24" class="edge">
<title>Node21&#45;&gt;Node22</title>
<path fill="none" stroke="midnightblue" d="M1186.87,-117.97C1202.32,-115.92 1218.87,-113.8 1234.23,-112 1390.85,-93.6 1430.46,-93.15 1587.23,-76 1599.44,-74.66 1612.73,-73.14 1624.78,-71.72"/>
<polygon fill="midnightblue" stroke="midnightblue" points="1625.47,-75.17 1634.99,-70.52 1624.65,-68.22 1625.47,-75.17"/>
</g>
<!-- Node23 -->
<g id="node23" class="node">
<title>Node23</title>
<g id="a_node23"><a xlink:title=" ">
<polygon fill="white" stroke="#bfbfbf" points="1066.23,-56.5 1066.23,-75.5 1130.23,-75.5 1130.23,-56.5 1066.23,-56.5"/>
<text text-anchor="middle" x="1098.23" y="-63.5" font-family="Helvetica,sans-Serif" font-size="10.00">algorithm</text>
</a>
</g>
</g>
<!-- Node21&#45;&gt;Node23 -->
<g id="edge26" class="edge">
<title>Node21&#45;&gt;Node23</title>
<path fill="none" stroke="midnightblue" d="M1121.36,-117.98C1117.43,-109.32 1111.23,-95.65 1106.23,-84.65"/>
<polygon fill="midnightblue" stroke="midnightblue" points="1109.41,-83.17 1102.09,-75.51 1103.03,-86.06 1109.41,-83.17"/>
</g>
<!-- Node24 -->
<g id="node24" class="node">
<title>Node24</title>
<g id="a_node24"><a xlink:title=" ">
<polygon fill="white" stroke="#bfbfbf" points="1148.73,-56.5 1148.73,-75.5 1247.73,-75.5 1247.73,-56.5 1148.73,-56.5"/>
<text text-anchor="middle" x="1198.23" y="-63.5" font-family="Helvetica,sans-Serif" font-size="10.00">AMReX_BCRec.H</text>
</a>
</g>
</g>
<!-- Node21&#45;&gt;Node24 -->
<g id="edge28" class="edge">
<title>Node21&#45;&gt;Node24</title>
<path fill="none" stroke="midnightblue" d="M1135.69,-117.98C1147.18,-108.61 1165.86,-93.38 1179.81,-82.01"/>
<polygon fill="midnightblue" stroke="midnightblue" points="1182.25,-84.54 1187.79,-75.51 1177.83,-79.11 1182.25,-84.54"/>
</g>
<!-- Node25 -->
<g id="node25" class="node">
<title>Node25</title>
<g id="a_node25"><a xlink:title=" ">
<polygon fill="white" stroke="#bfbfbf" points="1265.73,-56.5 1265.73,-75.5 1352.73,-75.5 1352.73,-56.5 1265.73,-56.5"/>
<text text-anchor="middle" x="1309.23" y="-63.5" font-family="Helvetica,sans-Serif" font-size="10.00">AMReX_Gpu.H</text>
</a>
</g>
</g>
<!-- Node21&#45;&gt;Node25 -->
<g id="edge29" class="edge">
<title>Node21&#45;&gt;Node25</title>
<path fill="none" stroke="midnightblue" d="M1151.59,-117.98C1183.56,-107.64 1237.6,-90.16 1273.35,-78.6"/>
<polygon fill="midnightblue" stroke="midnightblue" points="1274.48,-81.92 1282.91,-75.51 1272.32,-75.26 1274.48,-81.92"/>
</g>
<!-- Node26 -->
<g id="node26" class="node">
<title>Node26</title>
<g id="a_node26"><a xlink:href="_view_field_8_h.html" target="_top" xlink:title=" ">
<polygon fill="white" stroke="black" points="824.23,-56.5 824.23,-75.5 972.23,-75.5 972.23,-56.5 824.23,-56.5"/>
<text text-anchor="middle" x="898.23" y="-63.5" font-family="Helvetica,sans-Serif" font-size="10.00">amr&#45;wind/core/ViewField.H</text>
</a>
</g>
</g>
<!-- Node21&#45;&gt;Node26 -->
<g id="edge32" class="edge">
<title>Node21&#45;&gt;Node26</title>
<path fill="none" stroke="midnightblue" d="M1092.7,-117.98C1052.67,-107.48 984.59,-89.64 940.53,-78.09"/>
<polygon fill="midnightblue" stroke="midnightblue" points="941.25,-74.66 930.69,-75.51 939.48,-81.43 941.25,-74.66"/>
</g>
<!-- Node26&#45;&gt;Node15 -->
<g id="edge33" class="edge">
<title>Node26&#45;&gt;Node15</title>
<path fill="none" stroke="midnightblue" d="M920.41,-56.44C943.66,-47.48 980.38,-33.31 1006.64,-23.18"/>
<polygon fill="midnightblue" stroke="midnightblue" points="1008.08,-26.38 1016.15,-19.52 1005.56,-19.85 1008.08,-26.38"/>
</g>
<!-- Node26&#45;&gt;Node17 -->
<g id="edge34" class="edge">
<title>Node26&#45;&gt;Node17</title>
<path fill="none" stroke="midnightblue" d="M851.96,-56.44C800.49,-46.92 717.33,-31.55 662.23,-21.36"/>
<polygon fill="midnightblue" stroke="midnightblue" points="662.75,-17.89 652.28,-19.52 661.48,-24.78 662.75,-17.89"/>
</g>
<!-- Node26&#45;&gt;Node19 -->
<g id="edge35" class="edge">
<title>Node26&#45;&gt;Node19</title>
<path fill="none" stroke="midnightblue" d="M880.23,-56.32C862.19,-47.62 834.18,-34.12 813.43,-24.11"/>
<polygon fill="midnightblue" stroke="midnightblue" points="814.71,-20.84 804.18,-19.65 811.67,-27.15 814.71,-20.84"/>
</g>
<!-- Node27 -->
<g id="node27" class="node">
<title>Node27</title>
<g id="a_node27"><a xlink:title=" ">
<polygon fill="white" stroke="#bfbfbf" points="859.23,-0.5 859.23,-19.5 957.23,-19.5 957.23,-0.5 859.23,-0.5"/>
<text text-anchor="middle" x="908.23" y="-7.5" font-family="Helvetica,sans-Serif" font-size="10.00">AMReX_Vector.H</text>
</a>
</g>
</g>
<!-- Node26&#45;&gt;Node27 -->
<g id="edge36" class="edge">
<title>Node26&#45;&gt;Node27</title>
<path fill="none" stroke="midnightblue" d="M899.88,-56.08C901.2,-48.93 903.11,-38.64 904.77,-29.69"/>
<polygon fill="midnightblue" stroke="midnightblue" points="908.23,-30.22 906.61,-19.75 901.34,-28.95 908.23,-30.22"/>
</g>
<!-- Node28&#45;&gt;Node6 -->
<g id="edge40" class="edge">
<title>Node28&#45;&gt;Node6</title>
<path fill="none" stroke="midnightblue" d="M306.54,-117.98C257.07,-107.35 172.51,-89.18 118.82,-77.65"/>
<polygon fill="midnightblue" stroke="midnightblue" points="119.35,-74.19 108.84,-75.51 117.88,-81.03 119.35,-74.19"/>
</g>
<!-- Node28&#45;&gt;Node15 -->
<g id="edge38" class="edge">
<title>Node28&#45;&gt;Node15</title>
<path fill="none" stroke="midnightblue" d="M346.81,-117.78C348.35,-102.4 353.96,-70.68 374.23,-56 427.6,-17.35 900.61,-26.09 966.23,-20 979.36,-18.78 993.79,-17.05 1006.26,-15.44"/>
<polygon fill="midnightblue" stroke="midnightblue" points="1006.76,-18.9 1016.21,-14.12 1005.84,-11.96 1006.76,-18.9"/>
</g>
<!-- Node28&#45;&gt;Node17 -->
<g id="edge39" class="edge">
<title>Node28&#45;&gt;Node17</title>
<path fill="none" stroke="midnightblue" d="M342.21,-117.95C336.02,-103.38 326.34,-73.62 341.23,-56 362.6,-30.69 441.76,-19.62 508.04,-14.77"/>
<polygon fill="midnightblue" stroke="midnightblue" points="508.41,-18.25 518.14,-14.07 507.92,-11.27 508.41,-18.25"/>
</g>
<!-- Node29&#45;&gt;Node15 -->
<g id="edge42" class="edge">
<title>Node29&#45;&gt;Node15</title>
<path fill="none" stroke="midnightblue" d="M686.43,-122.28C781.04,-116.16 931.73,-102.55 981.23,-76 1001.6,-65.07 1018.09,-43.76 1028,-28.52"/>
<polygon fill="midnightblue" stroke="midnightblue" points="1031.01,-30.31 1033.29,-19.96 1025.05,-26.63 1031.01,-30.31"/>
</g>
<!-- Node29&#45;&gt;Node17 -->
<g id="edge44" class="edge">
<title>Node29&#45;&gt;Node17</title>
<path fill="none" stroke="midnightblue" d="M606.23,-117.82C606.23,-99.26 606.23,-55.34 606.23,-29.97"/>
<polygon fill="midnightblue" stroke="midnightblue" points="609.73,-29.78 606.23,-19.78 602.73,-29.78 609.73,-29.78"/>
</g>
<!-- Node29&#45;&gt;Node19 -->
<g id="edge46" class="edge">
<title>Node29&#45;&gt;Node19</title>
<path fill="none" stroke="midnightblue" d="M611.7,-117.92C621.42,-103.31 643.06,-73.48 668.23,-56 690.29,-40.68 718.26,-29.72 741.43,-22.45"/>
<polygon fill="midnightblue" stroke="midnightblue" points="742.46,-25.8 751.03,-19.56 740.45,-19.09 742.46,-25.8"/>
</g>
<!-- Node29&#45;&gt;Node26 -->
<g id="edge45" class="edge">
<title>Node29&#45;&gt;Node26</title>
<path fill="none" stroke="midnightblue" d="M648.06,-117.98C700.43,-107.3 790.1,-89.03 846.65,-77.51"/>
<polygon fill="midnightblue" stroke="midnightblue" points="847.37,-80.94 856.47,-75.51 845.97,-74.08 847.37,-80.94"/>
</g>
<!-- Node29&#45;&gt;Node27 -->
<g id="edge47" class="edge">
<title>Node29&#45;&gt;Node27</title>
<path fill="none" stroke="midnightblue" d="M628.93,-117.82C682.07,-97.49 814.71,-46.76 876.11,-23.28"/>
<polygon fill="midnightblue" stroke="midnightblue" points="877.59,-26.47 885.68,-19.62 875.09,-19.93 877.59,-26.47"/>
</g>
<!-- Node30 -->
<g id="node30" class="node">
<title>Node30</title>
<g id="a_node30"><a xlink:title=" ">
<polygon fill="white" stroke="#bfbfbf" points="383.73,-56.5 383.73,-75.5 428.73,-75.5 428.73,-56.5 383.73,-56.5"/>
<text text-anchor="middle" x="406.23" y="-63.5" font-family="Helvetica,sans-Serif" font-size="10.00">utility</text>
</a>
</g>
</g>
<!-- Node29&#45;&gt;Node30 -->
<g id="edge43" class="edge">
<title>Node29&#45;&gt;Node30</title>
<path fill="none" stroke="midnightblue" d="M577.57,-117.98C540.79,-107.03 477.13,-88.09 438.62,-76.64"/>
<polygon fill="midnightblue" stroke="midnightblue" points="439.52,-73.25 428.94,-73.76 437.52,-79.96 439.52,-73.25"/>
</g>
<!-- Node31 -->
<g id="node31" class="node">
<title>Node31</title>
<g id="a_node31"><a xlink:title=" ">
<polygon fill="white" stroke="#bfbfbf" points="446.73,-56.5 446.73,-75.5 577.73,-75.5 577.73,-56.5 446.73,-56.5"/>
<text text-anchor="middle" x="512.23" y="-63.5" font-family="Helvetica,sans-Serif" font-size="10.00">AMReX_PhysBCFunct.H</text>
</a>
</g>
</g>
<!-- Node29&#45;&gt;Node31 -->
<g id="edge48" class="edge">
<title>Node29&#45;&gt;Node31</title>
<path fill="none" stroke="midnightblue" d="M592.76,-117.98C577.54,-108.34 552.54,-92.52 534.43,-81.05"/>
<polygon fill="midnightblue" stroke="midnightblue" points="535.99,-77.9 525.67,-75.51 532.25,-83.81 535.99,-77.9"/>
</g>
<!-- Node32&#45;&gt;Node8 -->
<g id="edge68" class="edge">
<title>Node32&#45;&gt;Node8</title>
<path fill="none" stroke="midnightblue" d="M2040.41,-179.48C2066.17,-155.69 2118.26,-107.6 2145.21,-82.71"/>
<polygon fill="midnightblue" stroke="midnightblue" points="2147.74,-85.14 2152.71,-75.79 2142.99,-80 2147.74,-85.14"/>
</g>
<!-- Node32&#45;&gt;Node15 -->
<g id="edge53" class="edge">
<title>Node32&#45;&gt;Node15</title>
<path fill="none" stroke="midnightblue" d="M2032.95,-179.13C2046.77,-151.26 2071.4,-89.65 2039.23,-56 2005,-20.2 1239.41,-12.48 1070.86,-11.22"/>
<polygon fill="midnightblue" stroke="midnightblue" points="1070.66,-7.71 1060.63,-11.14 1070.61,-14.71 1070.66,-7.71"/>
</g>
<!-- Node32&#45;&gt;Node17 -->
<g id="edge67" class="edge">
<title>Node32&#45;&gt;Node17</title>
<path fill="none" stroke="midnightblue" d="M2028.47,-179.14C2033.93,-150.73 2041.22,-87.36 2006.23,-56 1953.09,-8.37 793.49,-23.76 722.23,-20 716.41,-19.69 710.44,-19.34 704.41,-18.96"/>
<polygon fill="midnightblue" stroke="midnightblue" points="704.44,-15.45 694.24,-18.29 703.98,-22.44 704.44,-15.45"/>
</g>
<!-- Node33 -->
<g id="node33" class="node">
<title>Node33</title>
<g id="a_node33"><a xlink:href="_factory_8_h.html" target="_top" xlink:title=" ">
<polygon fill="white" stroke="black" points="1737.23,-118 1737.23,-137 1871.23,-137 1871.23,-118 1737.23,-118"/>
<text text-anchor="middle" x="1804.23" y="-125" font-family="Helvetica,sans-Serif" font-size="10.00">amr&#45;wind/core/Factory.H</text>
</a>
</g>
</g>
<!-- Node32&#45;&gt;Node33 -->
<g id="edge54" class="edge">
<title>Node32&#45;&gt;Node33</title>
<path fill="none" stroke="midnightblue" d="M1977.55,-179.48C1937.42,-167.67 1880.73,-151 1843.26,-139.98"/>
<polygon fill="midnightblue" stroke="midnightblue" points="1843.81,-136.49 1833.23,-137.03 1841.83,-143.21 1843.81,-136.49"/>
</g>
<!-- Node37 -->
<g id="node37" class="node">
<title>Node37</title>
<g id="a_node37"><a xlink:href="_coll_mgr_8_h.html" target="_top" xlink:title=" ">
<polygon fill="white" stroke="black" points="1581.73,-118 1581.73,-137 1718.73,-137 1718.73,-118 1581.73,-118"/>
<text text-anchor="middle" x="1650.23" y="-125" font-family="Helvetica,sans-Serif" font-size="10.00">amr&#45;wind/core/CollMgr.H</text>
</a>
</g>
</g>
<!-- Node32&#45;&gt;Node37 -->
<g id="edge60" class="edge">
<title>Node32&#45;&gt;Node37</title>
<path fill="none" stroke="midnightblue" d="M1947.63,-180.64C1887.67,-170.62 1802.64,-156.24 1728.23,-143 1720.87,-141.69 1713.13,-140.29 1705.5,-138.88"/>
<polygon fill="midnightblue" stroke="midnightblue" points="1706.05,-135.43 1695.58,-137.05 1704.77,-142.31 1706.05,-135.43"/>
</g>
<!-- Node38 -->
<g id="node38" class="node">
<title>Node38</title>
<g id="a_node38"><a xlink:href="_p_d_e_fields_8_h.html" target="_top" xlink:title=" ">
<polygon fill="white" stroke="black" points="2129.73,-112.5 2129.73,-142.5 2284.73,-142.5 2284.73,-112.5 2129.73,-112.5"/>
<text text-anchor="start" x="2137.73" y="-130.5" font-family="Helvetica,sans-Serif" font-size="10.00">amr&#45;wind/equation_systems</text>
<text text-anchor="middle" x="2207.23" y="-119.5" font-family="Helvetica,sans-Serif" font-size="10.00">/PDEFields.H</text>
</a>
</g>
</g>
<!-- Node32&#45;&gt;Node38 -->
<g id="edge65" class="edge">
<title>Node32&#45;&gt;Node38</title>
<path fill="none" stroke="midnightblue" d="M2064.72,-179.4C2092.15,-169.6 2128.88,-156.48 2158.18,-146.02"/>
<polygon fill="midnightblue" stroke="midnightblue" points="2159.57,-149.24 2167.81,-142.58 2157.22,-142.64 2159.57,-149.24"/>
</g>
<!-- Node33&#45;&gt;Node16 -->
<g id="edge56" class="edge">
<title>Node33&#45;&gt;Node16</title>
<path fill="none" stroke="midnightblue" d="M1765.26,-117.98C1716.68,-107.35 1633.64,-89.18 1580.92,-77.65"/>
<polygon fill="midnightblue" stroke="midnightblue" points="1581.64,-74.23 1571.13,-75.51 1580.15,-81.07 1581.64,-74.23"/>
</g>
<!-- Node33&#45;&gt;Node22 -->
<g id="edge55" class="edge">
<title>Node33&#45;&gt;Node22</title>
<path fill="none" stroke="midnightblue" d="M1784.17,-117.98C1760.47,-107.9 1720.82,-91.05 1693.65,-79.5"/>
<polygon fill="midnightblue" stroke="midnightblue" points="1694.82,-76.2 1684.25,-75.51 1692.08,-82.64 1694.82,-76.2"/>
</g>
<!-- Node34 -->
<g id="node34" class="node">
<title>Node34</title>
<g id="a_node34"><a xlink:title=" ">
<polygon fill="white" stroke="#bfbfbf" points="1749.23,-56.5 1749.23,-75.5 1809.23,-75.5 1809.23,-56.5 1749.23,-56.5"/>
<text text-anchor="middle" x="1779.23" y="-63.5" font-family="Helvetica,sans-Serif" font-size="10.00">iostream</text>
</a>
</g>
</g>
<!-- Node33&#45;&gt;Node34 -->
<g id="edge57" class="edge">
<title>Node33&#45;&gt;Node34</title>
<path fill="none" stroke="midnightblue" d="M1800.65,-117.98C1797.04,-109.4 1791.38,-95.93 1786.78,-84.98"/>
<polygon fill="midnightblue" stroke="midnightblue" points="1789.9,-83.37 1782.8,-75.51 1783.45,-86.08 1789.9,-83.37"/>
</g>
<!-- Node35 -->
<g id="node35" class="node">
<title>Node35</title>
<g id="a_node35"><a xlink:title=" ">
<polygon fill="white" stroke="#bfbfbf" points="1827.23,-56.5 1827.23,-75.5 1917.23,-75.5 1917.23,-56.5 1827.23,-56.5"/>
<text text-anchor="middle" x="1872.23" y="-63.5" font-family="Helvetica,sans-Serif" font-size="10.00">AMReX_Print.H</text>
</a>
</g>
</g>
<!-- Node33&#45;&gt;Node35 -->
<g id="edge58" class="edge">
<title>Node33&#45;&gt;Node35</title>
<path fill="none" stroke="midnightblue" d="M1813.97,-117.98C1824.57,-108.7 1841.75,-93.67 1854.71,-82.33"/>
<polygon fill="midnightblue" stroke="midnightblue" points="1857.28,-84.73 1862.5,-75.51 1852.67,-79.46 1857.28,-84.73"/>
</g>
<!-- Node36 -->
<g id="node36" class="node">
<title>Node36</title>
<g id="a_node36"><a xlink:title=" ">
<polygon fill="white" stroke="#bfbfbf" points="1935.23,-56.5 1935.23,-75.5 1997.23,-75.5 1997.23,-56.5 1935.23,-56.5"/>
<text text-anchor="middle" x="1966.23" y="-63.5" font-family="Helvetica,sans-Serif" font-size="10.00">AMReX.H</text>
</a>
</g>
</g>
<!-- Node33&#45;&gt;Node36 -->
<g id="edge59" class="edge">
<title>Node33&#45;&gt;Node36</title>
<path fill="none" stroke="midnightblue" d="M1827.44,-117.98C1855.23,-107.77 1901.95,-90.61 1933.42,-79.05"/>
<polygon fill="midnightblue" stroke="midnightblue" points="1934.88,-82.24 1943.06,-75.51 1932.47,-75.67 1934.88,-82.24"/>
</g>
<!-- Node37&#45;&gt;Node15 -->
<g id="edge61" class="edge">
<title>Node37&#45;&gt;Node15</title>
<path fill="none" stroke="midnightblue" d="M1664.44,-117.98C1685.73,-104.22 1721.44,-76.56 1702.23,-56 1658.77,-9.5 1198.27,-9.71 1070.78,-10.67"/>
<polygon fill="midnightblue" stroke="midnightblue" points="1070.47,-7.17 1060.5,-10.75 1070.53,-14.17 1070.47,-7.17"/>
</g>
<!-- Node37&#45;&gt;Node16 -->
<g id="edge63" class="edge">
<title>Node37&#45;&gt;Node16</title>
<path fill="none" stroke="midnightblue" d="M1633.32,-117.98C1613.69,-108.08 1581.1,-91.64 1558.24,-80.12"/>
<polygon fill="midnightblue" stroke="midnightblue" points="1559.61,-76.89 1549.1,-75.51 1556.46,-83.14 1559.61,-76.89"/>
</g>
<!-- Node37&#45;&gt;Node22 -->
<g id="edge62" class="edge">
<title>Node37&#45;&gt;Node22</title>
<path fill="none" stroke="midnightblue" d="M1652.23,-117.98C1654.23,-109.49 1657.36,-96.2 1659.92,-85.32"/>
<polygon fill="midnightblue" stroke="midnightblue" points="1663.34,-86.04 1662.23,-75.51 1656.53,-84.44 1663.34,-86.04"/>
</g>
<!-- Node37&#45;&gt;Node27 -->
<g id="edge64" class="edge">
<title>Node37&#45;&gt;Node27</title>
<path fill="none" stroke="midnightblue" d="M1645.56,-117.82C1636.62,-102.19 1615.43,-69.69 1587.23,-56 1471.05,0.37 1135.99,-29.85 1007.23,-20 994.4,-19.02 980.64,-17.85 967.59,-16.68"/>
<polygon fill="midnightblue" stroke="midnightblue" points="967.58,-13.16 957.3,-15.74 966.94,-20.13 967.58,-13.16"/>
</g>
<!-- Node39 -->
<g id="node39" class="node">
<title>Node39</title>
<g id="a_node39"><a xlink:title=" ">
<polygon fill="white" stroke="#bfbfbf" points="2251.23,-56.5 2251.23,-75.5 2299.23,-75.5 2299.23,-56.5 2251.23,-56.5"/>
<text text-anchor="middle" x="2275.23" y="-63.5" font-family="Helvetica,sans-Serif" font-size="10.00">iosfwd</text>
</a>
</g>
</g>
<!-- Node38&#45;&gt;Node39 -->
<g id="edge66" class="edge">
<title>Node38&#45;&gt;Node39</title>
<path fill="none" stroke="midnightblue" d="M2223.34,-112.4C2233.63,-103.4 2246.97,-91.72 2257.55,-82.47"/>
<polygon fill="midnightblue" stroke="midnightblue" points="2260.11,-84.88 2265.33,-75.66 2255.5,-79.61 2260.11,-84.88"/>
</g>
<!-- Node40&#45;&gt;Node19 -->
<g id="edge72" class="edge">
<title>Node40&#45;&gt;Node19</title>
<path fill="none" stroke="midnightblue" d="M1618.59,-184.9C1596.36,-165.1 1542.67,-117.59 1533.23,-112 1472.34,-75.98 1453.37,-70.98 1384.23,-56 1154.93,-6.31 1088.63,-43.53 850.99,-19.98"/>
<polygon fill="midnightblue" stroke="midnightblue" points="851.31,-16.5 841.01,-18.97 850.6,-23.46 851.31,-16.5"/>
</g>
<!-- Node40&#45;&gt;Node33 -->
<g id="edge70" class="edge">
<title>Node40&#45;&gt;Node33</title>
<path fill="none" stroke="midnightblue" d="M1651.6,-184.87C1682.32,-173.52 1736.47,-153.52 1771.32,-140.65"/>
<polygon fill="midnightblue" stroke="midnightblue" points="1772.87,-143.81 1781.04,-137.06 1770.45,-137.24 1772.87,-143.81"/>
</g>
<!-- Node40&#45;&gt;Node37 -->
<g id="edge71" class="edge">
<title>Node40&#45;&gt;Node37</title>
<path fill="none" stroke="midnightblue" d="M1631.19,-184.73C1634.46,-175.09 1639.8,-159.3 1644,-146.91"/>
<polygon fill="midnightblue" stroke="midnightblue" points="1647.42,-147.72 1647.31,-137.13 1640.79,-145.48 1647.42,-147.72"/>
</g>
<!-- Node41 -->
<g id="node41" class="node">
<title>Node41</title>
<g id="a_node41"><a xlink:title=" ">
<polygon fill="white" stroke="#bfbfbf" points="1409.73,-118 1409.73,-137 1524.73,-137 1524.73,-118 1409.73,-118"/>
<text text-anchor="middle" x="1467.23" y="-125" font-family="Helvetica,sans-Serif" font-size="10.00">AMReX_Geometry.H</text>
</a>
</g>
</g>
<!-- Node40&#45;&gt;Node41 -->
<g id="edge73" class="edge">
<title>Node40&#45;&gt;Node41</title>
<path fill="none" stroke="midnightblue" d="M1606.85,-184.87C1578.86,-173.57 1529.64,-153.7 1497.74,-140.82"/>
<polygon fill="midnightblue" stroke="midnightblue" points="1499.02,-137.56 1488.44,-137.06 1496.4,-144.05 1499.02,-137.56"/>
</g>
<!-- Node42&#45;&gt;Node19 -->
<g id="edge78" class="edge">
<title>Node42&#45;&gt;Node19</title>
<path fill="none" stroke="midnightblue" d="M1451.6,-184.88C1436.74,-176.01 1414.58,-160.99 1400.23,-143 1373.81,-109.87 1395.96,-80.27 1361.23,-56 1316.53,-24.77 940.44,-25.81 851.06,-19.79"/>
<polygon fill="midnightblue" stroke="midnightblue" points="851.27,-16.3 841.01,-18.96 850.69,-23.28 851.27,-16.3"/>
</g>
<!-- Node42&#45;&gt;Node21 -->
<g id="edge77" class="edge">
<title>Node42&#45;&gt;Node21</title>
<path fill="none" stroke="midnightblue" d="M1422.17,-184.94C1359.8,-173.08 1247.28,-151.7 1180.09,-138.93"/>
<polygon fill="midnightblue" stroke="midnightblue" points="1180.6,-135.46 1170.12,-137.03 1179.29,-142.34 1180.6,-135.46"/>
</g>
<!-- Node42&#45;&gt;Node33 -->
<g id="edge76" class="edge">
<title>Node42&#45;&gt;Node33</title>
<path fill="none" stroke="midnightblue" d="M1511.63,-184.94C1573.09,-173.08 1683.96,-151.7 1750.16,-138.93"/>
<polygon fill="midnightblue" stroke="midnightblue" points="1750.84,-142.36 1759.99,-137.03 1749.51,-135.49 1750.84,-142.36"/>
</g>
<!-- Node42&#45;&gt;Node37 -->
<g id="edge75" class="edge">
<title>Node42&#45;&gt;Node37</title>
<path fill="none" stroke="midnightblue" d="M1491.53,-184.87C1523.61,-173.47 1580.26,-153.35 1616.48,-140.49"/>
<polygon fill="midnightblue" stroke="midnightblue" points="1617.87,-143.71 1626.12,-137.06 1615.52,-137.11 1617.87,-143.71"/>
</g>
<!-- Node42&#45;&gt;Node41 -->
<g id="edge79" class="edge">
<title>Node42&#45;&gt;Node41</title>
<path fill="none" stroke="midnightblue" d="M1467.23,-184.73C1467.23,-175.18 1467.23,-159.62 1467.23,-147.28"/>
<polygon fill="midnightblue" stroke="midnightblue" points="1470.73,-147.13 1467.23,-137.13 1463.73,-147.13 1470.73,-147.13"/>
</g>
<!-- Node44 -->
<g id="node44" class="node">
<title>Node44</title>
<g id="a_node44"><a xlink:title=" ">
<polygon fill="white" stroke="#bfbfbf" points="2737.73,-246.5 2737.73,-265.5 2854.73,-265.5 2854.73,-246.5 2737.73,-246.5"/>
<text text-anchor="middle" x="2796.23" y="-253.5" font-family="Helvetica,sans-Serif" font-size="10.00">AMReX_FArrayBox.H</text>
</a>
</g>
</g>
<!-- Node43&#45;&gt;Node44 -->
<g id="edge83" class="edge">
<title>Node43&#45;&gt;Node44</title>
<path fill="none" stroke="midnightblue" d="M2794.7,-302.4C2794.97,-294.47 2795.3,-284.46 2795.59,-275.86"/>
<polygon fill="midnightblue" stroke="midnightblue" points="2799.1,-275.77 2795.94,-265.66 2792.1,-275.53 2799.1,-275.77"/>
</g>
<!-- Node43&#45;&gt;Node45 -->
<g id="edge84" class="edge">
<title>Node43&#45;&gt;Node45</title>
<path fill="none" stroke="midnightblue" d="M2819.11,-302.4C2835.94,-292.86 2858.07,-280.32 2874.8,-270.84"/>
<polygon fill="midnightblue" stroke="midnightblue" points="2876.97,-273.63 2883.95,-265.66 2873.52,-267.54 2876.97,-273.63"/>
</g>
</g>
</svg>
