<?xml version="1.0" encoding="UTF-8" standalone="no"?>
<!DOCTYPE svg PUBLIC "-//W3C//DTD SVG 1.1//EN"
 "http://www.w3.org/Graphics/SVG/1.1/DTD/svg11.dtd">
<!-- Generated by graphviz version 2.43.0 (0)
 -->
<!-- Title: incflo_godunov_ppm.cpp Pages: 1 -->
<svg width="1833pt" height="341pt"
 viewBox="0.00 0.00 1832.50 341.00" xmlns="http://www.w3.org/2000/svg" xmlns:xlink="http://www.w3.org/1999/xlink">
<g id="graph0" class="graph" transform="scale(1 1) rotate(0) translate(4 337)">
<title>incflo_godunov_ppm.cpp</title>
<polygon fill="white" stroke="transparent" points="-4,4 -4,-337 1828.5,-337 1828.5,4 -4,4"/>
<!-- Node1 -->
<g id="node1" class="node">
<title>Node1</title>
<g id="a_node1"><a xlink:title=" ">
<polygon fill="#bfbfbf" stroke="black" points="141,-313.5 141,-332.5 278,-332.5 278,-313.5 141,-313.5"/>
<text text-anchor="middle" x="209.5" y="-320.5" font-family="Helvetica,sans-Serif" font-size="10.00">incflo_godunov_ppm.cpp</text>
</a>
</g>
</g>
<!-- Node2 -->
<g id="node2" class="node">
<title>Node2</title>
<g id="a_node2"><a xlink:href="incflo__godunov__ppm_8_h.html" target="_top" xlink:title=" ">
<polygon fill="white" stroke="black" points="0,-118 0,-148 131,-148 131,-118 0,-118"/>
<text text-anchor="start" x="8" y="-136" font-family="Helvetica,sans-Serif" font-size="10.00">amr&#45;wind/convection</text>
<text text-anchor="middle" x="65.5" y="-125" font-family="Helvetica,sans-Serif" font-size="10.00">/incflo_godunov_ppm.H</text>
</a>
</g>
</g>
<!-- Node1&#45;&gt;Node2 -->
<g id="edge1" class="edge">
<title>Node1&#45;&gt;Node2</title>
<path fill="none" stroke="midnightblue" d="M202.94,-313.43C181.72,-285.74 114.52,-197.99 82.62,-156.35"/>
<polygon fill="midnightblue" stroke="midnightblue" points="85.24,-154.01 76.38,-148.2 79.68,-158.27 85.24,-154.01"/>
</g>
<!-- Node5 -->
<g id="node5" class="node">
<title>Node5</title>
<g id="a_node5"><a xlink:href="incflo__godunov__ppm__nolim_8_h.html" target="_top" xlink:title=" ">
<polygon fill="white" stroke="black" points="149.5,-112.5 149.5,-153.5 269.5,-153.5 269.5,-112.5 149.5,-112.5"/>
<text text-anchor="start" x="157.5" y="-141.5" font-family="Helvetica,sans-Serif" font-size="10.00">amr&#45;wind/convection</text>
<text text-anchor="start" x="157.5" y="-130.5" font-family="Helvetica,sans-Serif" font-size="10.00">/incflo_godunov_ppm</text>
<text text-anchor="middle" x="209.5" y="-119.5" font-family="Helvetica,sans-Serif" font-size="10.00">_nolim.H</text>
</a>
</g>
</g>
<!-- Node1&#45;&gt;Node5 -->
<g id="edge4" class="edge">
<title>Node1&#45;&gt;Node5</title>
<path fill="none" stroke="midnightblue" d="M209.5,-313.43C209.5,-287.29 209.5,-207.63 209.5,-163.76"/>
<polygon fill="midnightblue" stroke="midnightblue" points="213,-163.69 209.5,-153.69 206,-163.69 213,-163.69"/>
</g>
<!-- Node6 -->
<g id="node6" class="node">
<title>Node6</title>
<g id="a_node6"><a xlink:href="_godunov_8_h.html" target="_top" xlink:title=" ">
<polygon fill="white" stroke="black" points="550,-246.5 550,-276.5 669,-276.5 669,-246.5 550,-246.5"/>
<text text-anchor="start" x="558" y="-264.5" font-family="Helvetica,sans-Serif" font-size="10.00">amr&#45;wind/convection</text>
<text text-anchor="middle" x="609.5" y="-253.5" font-family="Helvetica,sans-Serif" font-size="10.00">/Godunov.H</text>
</a>
</g>
</g>
<!-- Node1&#45;&gt;Node6 -->
<g id="edge7" class="edge">
<title>Node1&#45;&gt;Node6</title>
<path fill="none" stroke="midnightblue" d="M266.81,-313.48C338.76,-302.77 462.1,-284.43 539.54,-272.91"/>
<polygon fill="midnightblue" stroke="midnightblue" points="540.31,-276.33 549.68,-271.4 539.28,-269.41 540.31,-276.33"/>
</g>
<!-- Node3 -->
<g id="node3" class="node">
<title>Node3</title>
<g id="a_node3"><a xlink:title=" ">
<polygon fill="white" stroke="#bfbfbf" points="170,-56.5 170,-75.5 257,-75.5 257,-56.5 170,-56.5"/>
<text text-anchor="middle" x="213.5" y="-63.5" font-family="Helvetica,sans-Serif" font-size="10.00">AMReX_Gpu.H</text>
</a>
</g>
</g>
<!-- Node2&#45;&gt;Node3 -->
<g id="edge2" class="edge">
<title>Node2&#45;&gt;Node3</title>
<path fill="none" stroke="midnightblue" d="M97.61,-117.9C123.58,-106.49 159.81,-90.58 184.82,-79.6"/>
<polygon fill="midnightblue" stroke="midnightblue" points="186.38,-82.73 194.13,-75.51 183.57,-76.32 186.38,-82.73"/>
</g>
<!-- Node4 -->
<g id="node4" class="node">
<title>Node4</title>
<g id="a_node4"><a xlink:title=" ">
<polygon fill="white" stroke="#bfbfbf" points="53,-56.5 53,-75.5 152,-75.5 152,-56.5 53,-56.5"/>
<text text-anchor="middle" x="102.5" y="-63.5" font-family="Helvetica,sans-Serif" font-size="10.00">AMReX_BCRec.H</text>
</a>
</g>
</g>
<!-- Node2&#45;&gt;Node4 -->
<g id="edge3" class="edge">
<title>Node2&#45;&gt;Node4</title>
<path fill="none" stroke="midnightblue" d="M73.53,-117.9C79.13,-108.06 86.63,-94.88 92.6,-84.39"/>
<polygon fill="midnightblue" stroke="midnightblue" points="95.65,-86.12 97.55,-75.69 89.56,-82.65 95.65,-86.12"/>
</g>
<!-- Node5&#45;&gt;Node3 -->
<g id="edge5" class="edge">
<title>Node5&#45;&gt;Node3</title>
<path fill="none" stroke="midnightblue" d="M210.7,-112.5C211.22,-104.07 211.82,-94.24 212.34,-85.87"/>
<polygon fill="midnightblue" stroke="midnightblue" points="215.85,-85.85 212.97,-75.65 208.86,-85.42 215.85,-85.85"/>
</g>
<!-- Node5&#45;&gt;Node4 -->
<g id="edge6" class="edge">
<title>Node5&#45;&gt;Node4</title>
<path fill="none" stroke="midnightblue" d="M177.4,-112.5C160.68,-102.34 140.62,-90.16 125.47,-80.95"/>
<polygon fill="midnightblue" stroke="midnightblue" points="127.11,-77.85 116.74,-75.65 123.47,-83.84 127.11,-77.85"/>
</g>
<!-- Node7 -->
<g id="node7" class="node">
<title>Node7</title>
<g id="a_node7"><a xlink:href="_field_repo_8_h.html" target="_top" xlink:title=" ">
<polygon fill="white" stroke="black" points="860,-190.5 860,-209.5 1009,-209.5 1009,-190.5 860,-190.5"/>
<text text-anchor="middle" x="934.5" y="-197.5" font-family="Helvetica,sans-Serif" font-size="10.00">amr&#45;wind/core/FieldRepo.H</text>
</a>
</g>
</g>
<!-- Node6&#45;&gt;Node7 -->
<g id="edge8" class="edge">
<title>Node6&#45;&gt;Node7</title>
<path fill="none" stroke="midnightblue" d="M669.11,-249.59C728.58,-238.7 819.28,-222.09 877.73,-211.39"/>
<polygon fill="midnightblue" stroke="midnightblue" points="878.69,-214.78 887.89,-209.53 877.43,-207.89 878.69,-214.78"/>
</g>
<!-- Node8 -->
<g id="node8" class="node">
<title>Node8</title>
<g id="a_node8"><a xlink:title=" ">
<polygon fill="white" stroke="#bfbfbf" points="853.5,-0.5 853.5,-19.5 897.5,-19.5 897.5,-0.5 853.5,-0.5"/>
<text text-anchor="middle" x="875.5" y="-7.5" font-family="Helvetica,sans-Serif" font-size="10.00">string</text>
</a>
</g>
</g>
<!-- Node7&#45;&gt;Node8 -->
<g id="edge9" class="edge">
<title>Node7&#45;&gt;Node8</title>
<path fill="none" stroke="midnightblue" d="M859.8,-196.17C712.24,-188.71 392.66,-162.69 335.5,-76 330.61,-68.58 329.48,-62.54 335.5,-56 369.94,-18.57 731.68,-12.26 843.05,-11.21"/>
<polygon fill="midnightblue" stroke="midnightblue" points="843.35,-14.71 853.32,-11.12 843.29,-7.71 843.35,-14.71"/>
</g>
<!-- Node9 -->
<g id="node9" class="node">
<title>Node9</title>
<g id="a_node9"><a xlink:title=" ">
<polygon fill="white" stroke="#bfbfbf" points="716,-56.5 716,-75.5 809,-75.5 809,-56.5 716,-56.5"/>
<text text-anchor="middle" x="762.5" y="-63.5" font-family="Helvetica,sans-Serif" font-size="10.00">unordered_map</text>
</a>
</g>
</g>
<!-- Node7&#45;&gt;Node9 -->
<g id="edge10" class="edge">
<title>Node7&#45;&gt;Node9</title>
<path fill="none" stroke="midnightblue" d="M899.55,-190.45C876.23,-183.47 845.87,-171.81 823.5,-154 799.53,-134.92 780.99,-103.99 770.92,-84.61"/>
<polygon fill="midnightblue" stroke="midnightblue" points="774.05,-83.03 766.45,-75.65 767.79,-86.16 774.05,-83.03"/>
</g>
<!-- Node10 -->
<g id="node10" class="node">
<title>Node10</title>
<g id="a_node10"><a xlink:href="_field_desc_types_8_h.html" target="_top" xlink:title=" ">
<polygon fill="white" stroke="black" points="1438.5,-0.5 1438.5,-19.5 1614.5,-19.5 1614.5,-0.5 1438.5,-0.5"/>
<text text-anchor="middle" x="1526.5" y="-7.5" font-family="Helvetica,sans-Serif" font-size="10.00">amr&#45;wind/core/FieldDescTypes.H</text>
</a>
</g>
</g>
<!-- Node7&#45;&gt;Node10 -->
<g id="edge11" class="edge">
<title>Node7&#45;&gt;Node10</title>
<path fill="none" stroke="midnightblue" d="M1009.17,-198.02C1170.56,-194.05 1542.76,-174.21 1609.5,-76 1625.12,-53.02 1593.01,-34.43 1564.3,-23.11"/>
<polygon fill="midnightblue" stroke="midnightblue" points="1565.36,-19.77 1554.77,-19.55 1562.91,-26.33 1565.36,-19.77"/>
</g>
<!-- Node11 -->
<g id="node11" class="node">
<title>Node11</title>
<g id="a_node11"><a xlink:href="_field_utils_8_h.html" target="_top" xlink:title=" ">
<polygon fill="white" stroke="black" points="1678.5,-56.5 1678.5,-75.5 1824.5,-75.5 1824.5,-56.5 1678.5,-56.5"/>
<text text-anchor="middle" x="1751.5" y="-63.5" font-family="Helvetica,sans-Serif" font-size="10.00">amr&#45;wind/core/FieldUtils.H</text>
</a>
</g>
</g>
<!-- Node7&#45;&gt;Node11 -->
<g id="edge12" class="edge">
<title>Node7&#45;&gt;Node11</title>
<path fill="none" stroke="midnightblue" d="M1009.14,-197.39C1183.24,-193.2 1605.9,-180.42 1664.5,-154 1697.94,-138.93 1725.66,-104.94 1740.29,-84.18"/>
<polygon fill="midnightblue" stroke="midnightblue" points="1743.33,-85.93 1746.06,-75.7 1737.54,-82 1743.33,-85.93"/>
</g>
<!-- Node12 -->
<g id="node12" class="node">
<title>Node12</title>
<g id="a_node12"><a xlink:title=" ">
<polygon fill="white" stroke="#bfbfbf" points="1091,-0.5 1091,-19.5 1200,-19.5 1200,-0.5 1091,-0.5"/>
<text text-anchor="middle" x="1145.5" y="-7.5" font-family="Helvetica,sans-Serif" font-size="10.00">AMReX_MultiFab.H</text>
</a>
</g>
</g>
<!-- Node7&#45;&gt;Node12 -->
<g id="edge44" class="edge">
<title>Node7&#45;&gt;Node12</title>
<path fill="none" stroke="midnightblue" d="M906.13,-190.49C888.75,-183.65 867.9,-172.13 857.5,-154 834.33,-113.62 855.61,-81.6 894.5,-56 924.42,-36.3 1016.83,-23.53 1080.76,-16.79"/>
<polygon fill="midnightblue" stroke="midnightblue" points="1081.17,-20.27 1090.76,-15.76 1080.45,-13.3 1081.17,-20.27"/>
</g>
<!-- Node14 -->
<g id="node14" class="node">
<title>Node14</title>
<g id="a_node14"><a xlink:href="_field_8_h.html" target="_top" xlink:title=" ">
<polygon fill="white" stroke="black" points="526.5,-123.5 526.5,-142.5 650.5,-142.5 650.5,-123.5 526.5,-123.5"/>
<text text-anchor="middle" x="588.5" y="-130.5" font-family="Helvetica,sans-Serif" font-size="10.00">amr&#45;wind/core/Field.H</text>
</a>
</g>
</g>
<!-- Node7&#45;&gt;Node14 -->
<g id="edge16" class="edge">
<title>Node7&#45;&gt;Node14</title>
<path fill="none" stroke="midnightblue" d="M888.91,-190.44C825.81,-178.58 711.97,-157.2 644.01,-144.43"/>
<polygon fill="midnightblue" stroke="midnightblue" points="644.39,-140.94 633.92,-142.53 643.1,-147.82 644.39,-140.94"/>
</g>
<!-- Node20 -->
<g id="node20" class="node">
<title>Node20</title>
<g id="a_node20"><a xlink:href="_int_field_8_h.html" target="_top" xlink:title=" ">
<polygon fill="white" stroke="black" points="866,-123.5 866,-142.5 1003,-142.5 1003,-123.5 866,-123.5"/>
<text text-anchor="middle" x="934.5" y="-130.5" font-family="Helvetica,sans-Serif" font-size="10.00">amr&#45;wind/core/IntField.H</text>
</a>
</g>
</g>
<!-- Node7&#45;&gt;Node20 -->
<g id="edge31" class="edge">
<title>Node7&#45;&gt;Node20</title>
<path fill="none" stroke="midnightblue" d="M934.5,-190.23C934.5,-180.68 934.5,-165.12 934.5,-152.78"/>
<polygon fill="midnightblue" stroke="midnightblue" points="938,-152.63 934.5,-142.63 931,-152.63 938,-152.63"/>
</g>
<!-- Node21 -->
<g id="node21" class="node">
<title>Node21</title>
<g id="a_node21"><a xlink:title=" ">
<polygon fill="white" stroke="#bfbfbf" points="903.5,-56.5 903.5,-75.5 1015.5,-75.5 1015.5,-56.5 903.5,-56.5"/>
<text text-anchor="middle" x="959.5" y="-63.5" font-family="Helvetica,sans-Serif" font-size="10.00">AMReX_iMultiFab.H</text>
</a>
</g>
</g>
<!-- Node7&#45;&gt;Node21 -->
<g id="edge45" class="edge">
<title>Node7&#45;&gt;Node21</title>
<path fill="none" stroke="midnightblue" d="M1009.07,-192.45C1061.08,-186.16 1124,-174.49 1140.5,-154 1152.21,-139.46 1152,-126.71 1140.5,-112 1132.69,-102.01 1066.62,-87.39 1016.54,-77.55"/>
<polygon fill="midnightblue" stroke="midnightblue" points="1016.93,-74.06 1006.44,-75.59 1015.59,-80.93 1016.93,-74.06"/>
</g>
<!-- Node22 -->
<g id="node22" class="node">
<title>Node22</title>
<g id="a_node22"><a xlink:href="_scratch_field_8_h.html" target="_top" xlink:title=" ">
<polygon fill="white" stroke="black" points="1243.5,-123.5 1243.5,-142.5 1403.5,-142.5 1403.5,-123.5 1243.5,-123.5"/>
<text text-anchor="middle" x="1323.5" y="-130.5" font-family="Helvetica,sans-Serif" font-size="10.00">amr&#45;wind/core/ScratchField.H</text>
</a>
</g>
</g>
<!-- Node7&#45;&gt;Node22 -->
<g id="edge35" class="edge">
<title>Node7&#45;&gt;Node22</title>
<path fill="none" stroke="midnightblue" d="M985.75,-190.44C1057.13,-178.51 1186.26,-156.93 1262.5,-144.19"/>
<polygon fill="midnightblue" stroke="midnightblue" points="1263.15,-147.63 1272.44,-142.53 1262,-140.73 1263.15,-147.63"/>
</g>
<!-- Node25 -->
<g id="node25" class="node">
<title>Node25</title>
<g id="a_node25"><a xlink:title=" ">
<polygon fill="white" stroke="#bfbfbf" points="1021.5,-123.5 1021.5,-142.5 1131.5,-142.5 1131.5,-123.5 1021.5,-123.5"/>
<text text-anchor="middle" x="1076.5" y="-130.5" font-family="Helvetica,sans-Serif" font-size="10.00">AMReX_AmrCore.H</text>
</a>
</g>
</g>
<!-- Node7&#45;&gt;Node25 -->
<g id="edge43" class="edge">
<title>Node7&#45;&gt;Node25</title>
<path fill="none" stroke="midnightblue" d="M953.36,-190.37C977.65,-179.25 1020.1,-159.82 1048.26,-146.93"/>
<polygon fill="midnightblue" stroke="midnightblue" points="1049.93,-150.01 1057.57,-142.67 1047.02,-143.65 1049.93,-150.01"/>
</g>
<!-- Node11&#45;&gt;Node10 -->
<g id="edge13" class="edge">
<title>Node11&#45;&gt;Node10</title>
<path fill="none" stroke="midnightblue" d="M1715.85,-56.44C1676.84,-47.08 1614.23,-32.06 1571.78,-21.87"/>
<polygon fill="midnightblue" stroke="midnightblue" points="1572.53,-18.45 1561.99,-19.52 1570.89,-25.25 1572.53,-18.45"/>
</g>
<!-- Node11&#45;&gt;Node12 -->
<g id="edge14" class="edge">
<title>Node11&#45;&gt;Node12</title>
<path fill="none" stroke="midnightblue" d="M1678.4,-58.49C1559.04,-47.85 1324.21,-26.92 1210.4,-16.78"/>
<polygon fill="midnightblue" stroke="midnightblue" points="1210.37,-13.27 1200.1,-15.87 1209.75,-20.24 1210.37,-13.27"/>
</g>
<!-- Node13 -->
<g id="node13" class="node">
<title>Node13</title>
<g id="a_node13"><a xlink:title=" ">
<polygon fill="white" stroke="#bfbfbf" points="1689.5,-0.5 1689.5,-19.5 1813.5,-19.5 1813.5,-0.5 1689.5,-0.5"/>
<text text-anchor="middle" x="1751.5" y="-7.5" font-family="Helvetica,sans-Serif" font-size="10.00">AMReX_Interpolater.H</text>
</a>
</g>
</g>
<!-- Node11&#45;&gt;Node13 -->
<g id="edge15" class="edge">
<title>Node11&#45;&gt;Node13</title>
<path fill="none" stroke="midnightblue" d="M1751.5,-56.08C1751.5,-49.01 1751.5,-38.86 1751.5,-29.99"/>
<polygon fill="midnightblue" stroke="midnightblue" points="1755,-29.75 1751.5,-19.75 1748,-29.75 1755,-29.75"/>
</g>
<!-- Node14&#45;&gt;Node3 -->
<g id="edge23" class="edge">
<title>Node14&#45;&gt;Node3</title>
<path fill="none" stroke="midnightblue" d="M539.09,-123.44C468.62,-111.22 339.75,-88.88 267.06,-76.28"/>
<polygon fill="midnightblue" stroke="midnightblue" points="267.64,-72.83 257.19,-74.57 266.45,-79.73 267.64,-72.83"/>
</g>
<!-- Node14&#45;&gt;Node4 -->
<g id="edge22" class="edge">
<title>Node14&#45;&gt;Node4</title>
<path fill="none" stroke="midnightblue" d="M526.42,-124.35C445.13,-114.22 297.92,-95.53 162.32,-76.24"/>
<polygon fill="midnightblue" stroke="midnightblue" points="162.56,-72.73 152.16,-74.79 161.57,-79.66 162.56,-72.73"/>
</g>
<!-- Node14&#45;&gt;Node8 -->
<g id="edge17" class="edge">
<title>Node14&#45;&gt;Node8</title>
<path fill="none" stroke="midnightblue" d="M526.24,-131.17C439.15,-127.96 297.26,-114 350.5,-56 383.88,-19.64 734.09,-12.6 843.22,-11.29"/>
<polygon fill="midnightblue" stroke="midnightblue" points="843.34,-14.79 853.3,-11.18 843.26,-7.79 843.34,-14.79"/>
</g>
<!-- Node14&#45;&gt;Node9 -->
<g id="edge19" class="edge">
<title>Node14&#45;&gt;Node9</title>
<path fill="none" stroke="midnightblue" d="M611.61,-123.37C641.98,-112.02 695.51,-92.02 729.97,-79.15"/>
<polygon fill="midnightblue" stroke="midnightblue" points="731.43,-82.34 739.58,-75.56 728.98,-75.78 731.43,-82.34"/>
</g>
<!-- Node14&#45;&gt;Node10 -->
<g id="edge25" class="edge">
<title>Node14&#45;&gt;Node10</title>
<path fill="none" stroke="midnightblue" d="M650.78,-127.32C806.31,-115.52 1201.3,-84.89 1228.5,-76 1244.8,-70.67 1245.43,-61.99 1261.5,-56 1314.8,-36.15 1377.41,-25 1428.39,-18.77"/>
<polygon fill="midnightblue" stroke="midnightblue" points="1428.9,-22.23 1438.42,-17.58 1428.08,-15.28 1428.9,-22.23"/>
</g>
<!-- Node14&#45;&gt;Node12 -->
<g id="edge21" class="edge">
<title>Node14&#45;&gt;Node12</title>
<path fill="none" stroke="midnightblue" d="M600.53,-123.29C625.93,-105.08 684.58,-63.99 707.5,-56 774.74,-32.57 976.07,-19.41 1080.72,-13.98"/>
<polygon fill="midnightblue" stroke="midnightblue" points="1081.04,-17.47 1090.85,-13.46 1080.68,-10.48 1081.04,-17.47"/>
</g>
<!-- Node15 -->
<g id="node15" class="node">
<title>Node15</title>
<g id="a_node15"><a xlink:title=" ">
<polygon fill="white" stroke="#bfbfbf" points="359.5,-56.5 359.5,-75.5 417.5,-75.5 417.5,-56.5 359.5,-56.5"/>
<text text-anchor="middle" x="388.5" y="-63.5" font-family="Helvetica,sans-Serif" font-size="10.00">memory</text>
</a>
</g>
</g>
<!-- Node14&#45;&gt;Node15 -->
<g id="edge18" class="edge">
<title>Node14&#45;&gt;Node15</title>
<path fill="none" stroke="midnightblue" d="M561.94,-123.37C526.58,-111.88 463.91,-91.51 424.37,-78.66"/>
<polygon fill="midnightblue" stroke="midnightblue" points="425.44,-75.33 414.85,-75.56 423.28,-81.98 425.44,-75.33"/>
</g>
<!-- Node16 -->
<g id="node16" class="node">
<title>Node16</title>
<g id="a_node16"><a xlink:title=" ">
<polygon fill="white" stroke="#bfbfbf" points="435.5,-56.5 435.5,-75.5 499.5,-75.5 499.5,-56.5 435.5,-56.5"/>
<text text-anchor="middle" x="467.5" y="-63.5" font-family="Helvetica,sans-Serif" font-size="10.00">algorithm</text>
</a>
</g>
</g>
<!-- Node14&#45;&gt;Node16 -->
<g id="edge20" class="edge">
<title>Node14&#45;&gt;Node16</title>
<path fill="none" stroke="midnightblue" d="M572.18,-123.23C551.68,-112.22 516.3,-93.21 492.41,-80.38"/>
<polygon fill="midnightblue" stroke="midnightblue" points="494.03,-77.28 483.56,-75.63 490.71,-83.44 494.03,-77.28"/>
</g>
<!-- Node17 -->
<g id="node17" class="node">
<title>Node17</title>
<g id="a_node17"><a xlink:href="incflo__enums_8_h.html" target="_top" xlink:title=" ">
<polygon fill="white" stroke="black" points="518,-56.5 518,-75.5 659,-75.5 659,-56.5 518,-56.5"/>
<text text-anchor="middle" x="588.5" y="-63.5" font-family="Helvetica,sans-Serif" font-size="10.00">amr&#45;wind/incflo_enums.H</text>
</a>
</g>
</g>
<!-- Node14&#45;&gt;Node17 -->
<g id="edge24" class="edge">
<title>Node14&#45;&gt;Node17</title>
<path fill="none" stroke="midnightblue" d="M588.5,-123.23C588.5,-113.68 588.5,-98.12 588.5,-85.78"/>
<polygon fill="midnightblue" stroke="midnightblue" points="592,-85.63 588.5,-75.63 585,-85.63 592,-85.63"/>
</g>
<!-- Node18 -->
<g id="node18" class="node">
<title>Node18</title>
<g id="a_node18"><a xlink:href="_view_field_8_h.html" target="_top" xlink:title=" ">
<polygon fill="white" stroke="black" points="1071.5,-56.5 1071.5,-75.5 1219.5,-75.5 1219.5,-56.5 1071.5,-56.5"/>
<text text-anchor="middle" x="1145.5" y="-63.5" font-family="Helvetica,sans-Serif" font-size="10.00">amr&#45;wind/core/ViewField.H</text>
</a>
</g>
</g>
<!-- Node14&#45;&gt;Node18 -->
<g id="edge26" class="edge">
<title>Node14&#45;&gt;Node18</title>
<path fill="none" stroke="midnightblue" d="M650.51,-124.76C751.11,-113.02 949.98,-89.82 1062.61,-76.67"/>
<polygon fill="midnightblue" stroke="midnightblue" points="1063.04,-80.15 1072.57,-75.51 1062.23,-73.19 1063.04,-80.15"/>
</g>
<!-- Node18&#45;&gt;Node8 -->
<g id="edge27" class="edge">
<title>Node18&#45;&gt;Node8</title>
<path fill="none" stroke="midnightblue" d="M1102.72,-56.44C1048.55,-45.61 956.45,-27.19 907.8,-17.46"/>
<polygon fill="midnightblue" stroke="midnightblue" points="908.32,-14 897.83,-15.47 906.95,-20.86 908.32,-14"/>
</g>
<!-- Node18&#45;&gt;Node10 -->
<g id="edge28" class="edge">
<title>Node18&#45;&gt;Node10</title>
<path fill="none" stroke="midnightblue" d="M1205.87,-56.44C1273.87,-46.81 1384.24,-31.16 1456.1,-20.98"/>
<polygon fill="midnightblue" stroke="midnightblue" points="1457,-24.39 1466.41,-19.52 1456.02,-17.45 1457,-24.39"/>
</g>
<!-- Node18&#45;&gt;Node12 -->
<g id="edge29" class="edge">
<title>Node18&#45;&gt;Node12</title>
<path fill="none" stroke="midnightblue" d="M1145.5,-56.08C1145.5,-49.01 1145.5,-38.86 1145.5,-29.99"/>
<polygon fill="midnightblue" stroke="midnightblue" points="1149,-29.75 1145.5,-19.75 1142,-29.75 1149,-29.75"/>
</g>
<!-- Node19 -->
<g id="node19" class="node">
<title>Node19</title>
<g id="a_node19"><a xlink:title=" ">
<polygon fill="white" stroke="#bfbfbf" points="1265.5,-0.5 1265.5,-19.5 1363.5,-19.5 1363.5,-0.5 1265.5,-0.5"/>
<text text-anchor="middle" x="1314.5" y="-7.5" font-family="Helvetica,sans-Serif" font-size="10.00">AMReX_Vector.H</text>
</a>
</g>
</g>
<!-- Node18&#45;&gt;Node19 -->
<g id="edge30" class="edge">
<title>Node18&#45;&gt;Node19</title>
<path fill="none" stroke="midnightblue" d="M1172.28,-56.44C1200.83,-47.32 1246.23,-32.81 1278.04,-22.65"/>
<polygon fill="midnightblue" stroke="midnightblue" points="1279.39,-25.89 1287.85,-19.52 1277.26,-19.23 1279.39,-25.89"/>
</g>
<!-- Node20&#45;&gt;Node8 -->
<g id="edge32" class="edge">
<title>Node20&#45;&gt;Node8</title>
<path fill="none" stroke="midnightblue" d="M927,-123.47C918.1,-112.97 903.38,-94.27 894.5,-76 887.27,-61.13 882.25,-42.98 879.2,-29.65"/>
<polygon fill="midnightblue" stroke="midnightblue" points="882.59,-28.8 877.08,-19.75 875.75,-30.26 882.59,-28.8"/>
</g>
<!-- Node20&#45;&gt;Node10 -->
<g id="edge33" class="edge">
<title>Node20&#45;&gt;Node10</title>
<path fill="none" stroke="midnightblue" d="M964.7,-123.45C979.09,-119.58 996.6,-115.18 1012.5,-112 1122.15,-90.08 1151.74,-97.34 1261.5,-76 1341.71,-60.4 1434.15,-36.31 1485.91,-22.26"/>
<polygon fill="midnightblue" stroke="midnightblue" points="1486.98,-25.59 1495.71,-19.58 1485.14,-18.84 1486.98,-25.59"/>
</g>
<!-- Node20&#45;&gt;Node21 -->
<g id="edge34" class="edge">
<title>Node20&#45;&gt;Node21</title>
<path fill="none" stroke="midnightblue" d="M937.87,-123.23C941.62,-113.49 947.78,-97.48 952.56,-85.03"/>
<polygon fill="midnightblue" stroke="midnightblue" points="955.86,-86.22 956.18,-75.63 949.33,-83.7 955.86,-86.22"/>
</g>
<!-- Node22&#45;&gt;Node8 -->
<g id="edge36" class="edge">
<title>Node22&#45;&gt;Node8</title>
<path fill="none" stroke="midnightblue" d="M1260.73,-123.46C1207.01,-115 1128.18,-99.82 1062.5,-76 1044.56,-69.49 1042.16,-63.24 1024.5,-56 985.19,-39.89 937.96,-26.6 907.37,-18.73"/>
<polygon fill="midnightblue" stroke="midnightblue" points="908.22,-15.34 897.67,-16.28 906.51,-22.12 908.22,-15.34"/>
</g>
<!-- Node22&#45;&gt;Node10 -->
<g id="edge38" class="edge">
<title>Node22&#45;&gt;Node10</title>
<path fill="none" stroke="midnightblue" d="M1403.78,-126.33C1474.52,-119.47 1569.89,-105.01 1593.5,-76 1609.47,-56.38 1581.07,-36.53 1556.46,-24.01"/>
<polygon fill="midnightblue" stroke="midnightblue" points="1557.84,-20.8 1547.31,-19.59 1554.79,-27.1 1557.84,-20.8"/>
</g>
<!-- Node22&#45;&gt;Node12 -->
<g id="edge40" class="edge">
<title>Node22&#45;&gt;Node12</title>
<path fill="none" stroke="midnightblue" d="M1313.96,-123.41C1297.31,-108.65 1261.59,-77.95 1228.5,-56 1210.57,-44.11 1189.21,-32.58 1172.65,-24.17"/>
<polygon fill="midnightblue" stroke="midnightblue" points="1174.03,-20.95 1163.52,-19.6 1170.89,-27.21 1174.03,-20.95"/>
</g>
<!-- Node22&#45;&gt;Node18 -->
<g id="edge39" class="edge">
<title>Node22&#45;&gt;Node18</title>
<path fill="none" stroke="midnightblue" d="M1299.86,-123.37C1268.79,-112.02 1214.03,-92.02 1178.78,-79.15"/>
<polygon fill="midnightblue" stroke="midnightblue" points="1179.55,-75.71 1168.95,-75.56 1177.14,-82.28 1179.55,-75.71"/>
</g>
<!-- Node22&#45;&gt;Node19 -->
<g id="edge41" class="edge">
<title>Node22&#45;&gt;Node19</title>
<path fill="none" stroke="midnightblue" d="M1322.85,-123.3C1321.41,-103.85 1317.88,-56.49 1315.91,-29.9"/>
<polygon fill="midnightblue" stroke="midnightblue" points="1319.37,-29.34 1315.14,-19.62 1312.39,-29.86 1319.37,-29.34"/>
</g>
<!-- Node23 -->
<g id="node23" class="node">
<title>Node23</title>
<g id="a_node23"><a xlink:title=" ">
<polygon fill="white" stroke="#bfbfbf" points="1390,-56.5 1390,-75.5 1435,-75.5 1435,-56.5 1390,-56.5"/>
<text text-anchor="middle" x="1412.5" y="-63.5" font-family="Helvetica,sans-Serif" font-size="10.00">utility</text>
</a>
</g>
</g>
<!-- Node22&#45;&gt;Node23 -->
<g id="edge37" class="edge">
<title>Node22&#45;&gt;Node23</title>
<path fill="none" stroke="midnightblue" d="M1335.5,-123.23C1350.05,-112.61 1374.78,-94.55 1392.28,-81.76"/>
<polygon fill="midnightblue" stroke="midnightblue" points="1394.68,-84.35 1400.69,-75.63 1390.55,-78.7 1394.68,-84.35"/>
</g>
<!-- Node24 -->
<g id="node24" class="node">
<title>Node24</title>
<g id="a_node24"><a xlink:title=" ">
<polygon fill="white" stroke="#bfbfbf" points="1453,-56.5 1453,-75.5 1584,-75.5 1584,-56.5 1453,-56.5"/>
<text text-anchor="middle" x="1518.5" y="-63.5" font-family="Helvetica,sans-Serif" font-size="10.00">AMReX_PhysBCFunct.H</text>
</a>
</g>
</g>
<!-- Node22&#45;&gt;Node24 -->
<g id="edge42" class="edge">
<title>Node22&#45;&gt;Node24</title>
<path fill="none" stroke="midnightblue" d="M1349.39,-123.37C1383.73,-111.92 1444.46,-91.68 1483.03,-78.82"/>
<polygon fill="midnightblue" stroke="midnightblue" points="1484.43,-82.05 1492.81,-75.56 1482.22,-75.41 1484.43,-82.05"/>
</g>
</g>
</svg>
