<?xml version="1.0" encoding="UTF-8" standalone="no"?>
<!DOCTYPE svg PUBLIC "-//W3C//DTD SVG 1.1//EN"
 "http://www.w3.org/Graphics/SVG/1.1/DTD/svg11.dtd">
<!-- Generated by graphviz version 2.43.0 (0)
 -->
<!-- Title: incflo_diffusion.cpp Pages: 1 -->
<svg width="2762pt" height="397pt"
 viewBox="0.00 0.00 2762.00 397.00" xmlns="http://www.w3.org/2000/svg" xmlns:xlink="http://www.w3.org/1999/xlink">
<g id="graph0" class="graph" transform="scale(1 1) rotate(0) translate(4 393)">
<title>incflo_diffusion.cpp</title>
<polygon fill="white" stroke="transparent" points="-4,4 -4,-393 2758,-393 2758,4 -4,4"/>
<!-- Node1 -->
<g id="node1" class="node">
<title>Node1</title>
<g id="a_node1"><a xlink:title=" ">
<polygon fill="#bfbfbf" stroke="black" points="1535,-369.5 1535,-388.5 1645,-388.5 1645,-369.5 1535,-369.5"/>
<text text-anchor="middle" x="1590" y="-376.5" font-family="Helvetica,sans-Serif" font-size="10.00">incflo_diffusion.cpp</text>
</a>
</g>
</g>
<!-- Node2 -->
<g id="node2" class="node">
<title>Node2</title>
<g id="a_node2"><a xlink:href="incflo_8_h.html" target="_top" xlink:title=" ">
<polygon fill="white" stroke="black" points="1425.5,-308 1425.5,-327 1528.5,-327 1528.5,-308 1425.5,-308"/>
<text text-anchor="middle" x="1477" y="-315" font-family="Helvetica,sans-Serif" font-size="10.00">amr&#45;wind/incflo.H</text>
</a>
</g>
</g>
<!-- Node1&#45;&gt;Node2 -->
<g id="edge1" class="edge">
<title>Node1&#45;&gt;Node2</title>
<path fill="none" stroke="midnightblue" d="M1573.81,-369.48C1555.1,-359.62 1524.08,-343.29 1502.2,-331.77"/>
<polygon fill="midnightblue" stroke="midnightblue" points="1503.64,-328.57 1493.16,-327.01 1500.38,-334.77 1503.64,-328.57"/>
</g>
<!-- Node43 -->
<g id="node43" class="node">
<title>Node43</title>
<g id="a_node43"><a xlink:href="diffusion_8_h.html" target="_top" xlink:title=" ">
<polygon fill="white" stroke="black" points="1801,-302.5 1801,-332.5 1909,-332.5 1909,-302.5 1801,-302.5"/>
<text text-anchor="start" x="1809" y="-320.5" font-family="Helvetica,sans-Serif" font-size="10.00">amr&#45;wind/diffusion</text>
<text text-anchor="middle" x="1855" y="-309.5" font-family="Helvetica,sans-Serif" font-size="10.00">/diffusion.H</text>
</a>
</g>
</g>
<!-- Node1&#45;&gt;Node43 -->
<g id="edge82" class="edge">
<title>Node1&#45;&gt;Node43</title>
<path fill="none" stroke="midnightblue" d="M1627.97,-369.48C1670.37,-359.96 1739.71,-344.39 1790.62,-332.96"/>
<polygon fill="midnightblue" stroke="midnightblue" points="1791.55,-336.33 1800.54,-330.73 1790.02,-329.5 1791.55,-336.33"/>
</g>
<!-- Node3 -->
<g id="node3" class="node">
<title>Node3</title>
<g id="a_node3"><a xlink:title=" ">
<polygon fill="white" stroke="#bfbfbf" points="1740,-118 1740,-137 1850,-137 1850,-118 1740,-118"/>
<text text-anchor="middle" x="1795" y="-125" font-family="Helvetica,sans-Serif" font-size="10.00">AMReX_AmrCore.H</text>
</a>
</g>
</g>
<!-- Node2&#45;&gt;Node3 -->
<g id="edge2" class="edge">
<title>Node2&#45;&gt;Node3</title>
<path fill="none" stroke="midnightblue" d="M1491.49,-307.93C1541.88,-278.14 1709.76,-178.89 1771.75,-142.25"/>
<polygon fill="midnightblue" stroke="midnightblue" points="1773.6,-145.22 1780.42,-137.12 1770.04,-139.19 1773.6,-145.22"/>
</g>
<!-- Node4 -->
<g id="node4" class="node">
<title>Node4</title>
<g id="a_node4"><a xlink:title=" ">
<polygon fill="white" stroke="#bfbfbf" points="945,-246.5 945,-265.5 1071,-265.5 1071,-246.5 945,-246.5"/>
<text text-anchor="middle" x="1008" y="-253.5" font-family="Helvetica,sans-Serif" font-size="10.00">AMReX_MultiFabUtil.H</text>
</a>
</g>
</g>
<!-- Node2&#45;&gt;Node4 -->
<g id="edge3" class="edge">
<title>Node2&#45;&gt;Node4</title>
<path fill="none" stroke="midnightblue" d="M1425.47,-309.96C1342.01,-299.37 1177,-278.44 1081.33,-266.3"/>
<polygon fill="midnightblue" stroke="midnightblue" points="1081.52,-262.8 1071.15,-265.01 1080.63,-269.74 1081.52,-262.8"/>
</g>
<!-- Node5 -->
<g id="node5" class="node">
<title>Node5</title>
<g id="a_node5"><a xlink:title=" ">
<polygon fill="white" stroke="#bfbfbf" points="1089.5,-246.5 1089.5,-265.5 1208.5,-265.5 1208.5,-246.5 1089.5,-246.5"/>
<text text-anchor="middle" x="1149" y="-253.5" font-family="Helvetica,sans-Serif" font-size="10.00">AMReX_ParmParse.H</text>
</a>
</g>
</g>
<!-- Node2&#45;&gt;Node5 -->
<g id="edge4" class="edge">
<title>Node2&#45;&gt;Node5</title>
<path fill="none" stroke="midnightblue" d="M1430.01,-307.98C1370.82,-297.24 1269.21,-278.81 1205.75,-267.29"/>
<polygon fill="midnightblue" stroke="midnightblue" points="1206.37,-263.85 1195.91,-265.51 1205.12,-270.74 1206.37,-263.85"/>
</g>
<!-- Node6 -->
<g id="node6" class="node">
<title>Node6</title>
<g id="a_node6"><a xlink:title=" ">
<polygon fill="white" stroke="#bfbfbf" points="2572,-56.5 2572,-75.5 2684,-75.5 2684,-56.5 2572,-56.5"/>
<text text-anchor="middle" x="2628" y="-63.5" font-family="Helvetica,sans-Serif" font-size="10.00">AMReX_iMultiFab.H</text>
</a>
</g>
</g>
<!-- Node2&#45;&gt;Node6 -->
<g id="edge5" class="edge">
<title>Node2&#45;&gt;Node6</title>
<path fill="none" stroke="midnightblue" d="M1528.79,-311.6C1738.25,-291.35 2515.53,-212.08 2600,-143 2617.14,-128.98 2623.79,-103.44 2626.37,-85.87"/>
<polygon fill="midnightblue" stroke="midnightblue" points="2629.88,-86.01 2627.54,-75.67 2622.92,-85.2 2629.88,-86.01"/>
</g>
<!-- Node7 -->
<g id="node7" class="node">
<title>Node7</title>
<g id="a_node7"><a xlink:title=" ">
<polygon fill="white" stroke="#bfbfbf" points="1226.5,-246.5 1226.5,-265.5 1357.5,-265.5 1357.5,-246.5 1226.5,-246.5"/>
<text text-anchor="middle" x="1292" y="-253.5" font-family="Helvetica,sans-Serif" font-size="10.00">hydro_NodalProjector.H</text>
</a>
</g>
</g>
<!-- Node2&#45;&gt;Node7 -->
<g id="edge6" class="edge">
<title>Node2&#45;&gt;Node7</title>
<path fill="none" stroke="midnightblue" d="M1450.49,-307.98C1418.35,-297.64 1364.01,-280.16 1328.07,-268.6"/>
<polygon fill="midnightblue" stroke="midnightblue" points="1329.05,-265.24 1318.46,-265.51 1326.9,-271.9 1329.05,-265.24"/>
</g>
<!-- Node8 -->
<g id="node8" class="node">
<title>Node8</title>
<g id="a_node8"><a xlink:href="incflo__enums_8_h.html" target="_top" xlink:title=" ">
<polygon fill="white" stroke="black" points="1422.5,-56.5 1422.5,-75.5 1563.5,-75.5 1563.5,-56.5 1422.5,-56.5"/>
<text text-anchor="middle" x="1493" y="-63.5" font-family="Helvetica,sans-Serif" font-size="10.00">amr&#45;wind/incflo_enums.H</text>
</a>
</g>
</g>
<!-- Node2&#45;&gt;Node8 -->
<g id="edge7" class="edge">
<title>Node2&#45;&gt;Node8</title>
<path fill="none" stroke="midnightblue" d="M1482.5,-307.99C1488.42,-298.29 1497.45,-281.72 1501,-266 1515.62,-201.17 1503.78,-121.52 1496.97,-85.84"/>
<polygon fill="midnightblue" stroke="midnightblue" points="1500.37,-84.99 1494.97,-75.88 1493.5,-86.37 1500.37,-84.99"/>
</g>
<!-- Node9 -->
<g id="node9" class="node">
<title>Node9</title>
<g id="a_node9"><a xlink:href="_c_f_d_sim_8_h.html" target="_top" xlink:title=" ">
<polygon fill="white" stroke="black" points="1376,-246.5 1376,-265.5 1492,-265.5 1492,-246.5 1376,-246.5"/>
<text text-anchor="middle" x="1434" y="-253.5" font-family="Helvetica,sans-Serif" font-size="10.00">amr&#45;wind/CFDSim.H</text>
</a>
</g>
</g>
<!-- Node2&#45;&gt;Node9 -->
<g id="edge8" class="edge">
<title>Node2&#45;&gt;Node9</title>
<path fill="none" stroke="midnightblue" d="M1470.84,-307.98C1464.39,-299.05 1454.1,-284.81 1446.03,-273.64"/>
<polygon fill="midnightblue" stroke="midnightblue" points="1448.84,-271.56 1440.15,-265.51 1443.17,-275.66 1448.84,-271.56"/>
</g>
<!-- Node10 -->
<g id="node10" class="node">
<title>Node10</title>
<g id="a_node10"><a xlink:href="_sim_time_8_h.html" target="_top" xlink:title=" ">
<polygon fill="white" stroke="black" points="239,-185 239,-204 383,-204 383,-185 239,-185"/>
<text text-anchor="middle" x="311" y="-192" font-family="Helvetica,sans-Serif" font-size="10.00">amr&#45;wind/core/SimTime.H</text>
</a>
</g>
</g>
<!-- Node2&#45;&gt;Node10 -->
<g id="edge80" class="edge">
<title>Node2&#45;&gt;Node10</title>
<path fill="none" stroke="midnightblue" d="M1425.5,-312.03C1329.28,-303.59 1115.69,-284.52 936,-266 741.01,-245.9 512.15,-219.32 392.81,-205.24"/>
<polygon fill="midnightblue" stroke="midnightblue" points="393,-201.73 382.66,-204.04 392.18,-208.69 393,-201.73"/>
</g>
<!-- Node14 -->
<g id="node14" class="node">
<title>Node14</title>
<g id="a_node14"><a xlink:href="_field_repo_8_h.html" target="_top" xlink:title=" ">
<polygon fill="white" stroke="black" points="1780.5,-185 1780.5,-204 1929.5,-204 1929.5,-185 1780.5,-185"/>
<text text-anchor="middle" x="1855" y="-192" font-family="Helvetica,sans-Serif" font-size="10.00">amr&#45;wind/core/FieldRepo.H</text>
</a>
</g>
</g>
<!-- Node2&#45;&gt;Node14 -->
<g id="edge81" class="edge">
<title>Node2&#45;&gt;Node14</title>
<path fill="none" stroke="midnightblue" d="M1528.64,-313C1584.46,-307.83 1675.21,-295.36 1748,-266 1782.12,-252.24 1816.81,-226.84 1837.09,-210.58"/>
<polygon fill="midnightblue" stroke="midnightblue" points="1839.33,-213.27 1844.86,-204.23 1834.9,-207.85 1839.33,-213.27"/>
</g>
<!-- Node9&#45;&gt;Node3 -->
<g id="edge9" class="edge">
<title>Node9&#45;&gt;Node3</title>
<path fill="none" stroke="midnightblue" d="M1458.53,-246.4C1521.43,-224.36 1688.58,-165.79 1760.89,-140.45"/>
<polygon fill="midnightblue" stroke="midnightblue" points="1762.16,-143.72 1770.44,-137.11 1759.84,-137.11 1762.16,-143.72"/>
</g>
<!-- Node9&#45;&gt;Node10 -->
<g id="edge10" class="edge">
<title>Node9&#45;&gt;Node10</title>
<path fill="none" stroke="midnightblue" d="M1375.8,-246.96C1372.49,-246.61 1369.2,-246.28 1366,-246 1005.27,-214.21 913.64,-228.87 552,-210 499.16,-207.24 439.83,-203.68 393.26,-200.77"/>
<polygon fill="midnightblue" stroke="midnightblue" points="393.42,-197.28 383.22,-200.15 392.98,-204.26 393.42,-197.28"/>
</g>
<!-- Node9&#45;&gt;Node14 -->
<g id="edge14" class="edge">
<title>Node9&#45;&gt;Node14</title>
<path fill="none" stroke="midnightblue" d="M1492.1,-246.79C1568.53,-235.99 1702.76,-217.02 1784.8,-205.42"/>
<polygon fill="midnightblue" stroke="midnightblue" points="1785.37,-208.88 1794.78,-204.01 1784.39,-201.94 1785.37,-208.88"/>
</g>
<!-- Node32 -->
<g id="node32" class="node">
<title>Node32</title>
<g id="a_node32"><a xlink:href="_p_d_e_base_8_h.html" target="_top" xlink:title=" ">
<polygon fill="white" stroke="black" points="1336.5,-179.5 1336.5,-209.5 1491.5,-209.5 1491.5,-179.5 1336.5,-179.5"/>
<text text-anchor="start" x="1344.5" y="-197.5" font-family="Helvetica,sans-Serif" font-size="10.00">amr&#45;wind/equation_systems</text>
<text text-anchor="middle" x="1414" y="-186.5" font-family="Helvetica,sans-Serif" font-size="10.00">/PDEBase.H</text>
</a>
</g>
</g>
<!-- Node9&#45;&gt;Node32 -->
<g id="edge52" class="edge">
<title>Node9&#45;&gt;Node32</title>
<path fill="none" stroke="midnightblue" d="M1431.13,-246.48C1428.73,-239.32 1425.18,-228.75 1421.93,-219.08"/>
<polygon fill="midnightblue" stroke="midnightblue" points="1425.22,-217.89 1418.71,-209.52 1418.58,-220.12 1425.22,-217.89"/>
</g>
<!-- Node40 -->
<g id="node40" class="node">
<title>Node40</title>
<g id="a_node40"><a xlink:href="_physics_8_h.html" target="_top" xlink:title=" ">
<polygon fill="white" stroke="black" points="727.5,-185 727.5,-204 864.5,-204 864.5,-185 727.5,-185"/>
<text text-anchor="middle" x="796" y="-192" font-family="Helvetica,sans-Serif" font-size="10.00">amr&#45;wind/core/Physics.H</text>
</a>
</g>
</g>
<!-- Node9&#45;&gt;Node40 -->
<g id="edge69" class="edge">
<title>Node9&#45;&gt;Node40</title>
<path fill="none" stroke="midnightblue" d="M1375.78,-247.13C1372.47,-246.73 1369.2,-246.35 1366,-246 1190.77,-226.65 984.58,-209.86 874.55,-201.38"/>
<polygon fill="midnightblue" stroke="midnightblue" points="874.77,-197.89 864.53,-200.61 874.23,-204.87 874.77,-197.89"/>
</g>
<!-- Node42 -->
<g id="node42" class="node">
<title>Node42</title>
<g id="a_node42"><a xlink:href="_mesh_map_8_h.html" target="_top" xlink:title=" ">
<polygon fill="white" stroke="black" points="561,-185 561,-204 709,-204 709,-185 561,-185"/>
<text text-anchor="middle" x="635" y="-192" font-family="Helvetica,sans-Serif" font-size="10.00">amr&#45;wind/core/MeshMap.H</text>
</a>
</g>
</g>
<!-- Node9&#45;&gt;Node42 -->
<g id="edge74" class="edge">
<title>Node9&#45;&gt;Node42</title>
<path fill="none" stroke="midnightblue" d="M1375.79,-247C1372.48,-246.64 1369.2,-246.3 1366,-246 1078.82,-219.06 1004.56,-242.88 718,-210 708.4,-208.9 698.23,-207.4 688.42,-205.78"/>
<polygon fill="midnightblue" stroke="midnightblue" points="688.81,-202.3 678.37,-204.07 687.64,-209.2 688.81,-202.3"/>
</g>
<!-- Node11 -->
<g id="node11" class="node">
<title>Node11</title>
<g id="a_node11"><a xlink:title=" ">
<polygon fill="white" stroke="#bfbfbf" points="134,-118 134,-137 226,-137 226,-118 134,-118"/>
<text text-anchor="middle" x="180" y="-125" font-family="Helvetica,sans-Serif" font-size="10.00">AMReX_REAL.H</text>
</a>
</g>
</g>
<!-- Node10&#45;&gt;Node11 -->
<g id="edge11" class="edge">
<title>Node10&#45;&gt;Node11</title>
<path fill="none" stroke="midnightblue" d="M293.6,-184.87C271.39,-173.84 232.71,-154.66 206.74,-141.77"/>
<polygon fill="midnightblue" stroke="midnightblue" points="207.98,-138.48 197.47,-137.17 204.87,-144.75 207.98,-138.48"/>
</g>
<!-- Node12 -->
<g id="node12" class="node">
<title>Node12</title>
<g id="a_node12"><a xlink:title=" ">
<polygon fill="white" stroke="#bfbfbf" points="244,-118 244,-137 378,-137 378,-118 244,-118"/>
<text text-anchor="middle" x="311" y="-125" font-family="Helvetica,sans-Serif" font-size="10.00">AMReX_GpuQualifiers.H</text>
</a>
</g>
</g>
<!-- Node10&#45;&gt;Node12 -->
<g id="edge12" class="edge">
<title>Node10&#45;&gt;Node12</title>
<path fill="none" stroke="midnightblue" d="M311,-184.73C311,-175.18 311,-159.62 311,-147.28"/>
<polygon fill="midnightblue" stroke="midnightblue" points="314.5,-147.13 311,-137.13 307.5,-147.13 314.5,-147.13"/>
</g>
<!-- Node13 -->
<g id="node13" class="node">
<title>Node13</title>
<g id="a_node13"><a xlink:title=" ">
<polygon fill="white" stroke="#bfbfbf" points="0,-118 0,-137 116,-137 116,-118 0,-118"/>
<text text-anchor="middle" x="58" y="-125" font-family="Helvetica,sans-Serif" font-size="10.00">AMReX_Extension.H</text>
</a>
</g>
</g>
<!-- Node10&#45;&gt;Node13 -->
<g id="edge13" class="edge">
<title>Node10&#45;&gt;Node13</title>
<path fill="none" stroke="midnightblue" d="M277.66,-184.94C232.35,-173.29 151.24,-152.45 101.27,-139.62"/>
<polygon fill="midnightblue" stroke="midnightblue" points="101.97,-136.18 91.41,-137.08 100.22,-142.96 101.97,-136.18"/>
</g>
<!-- Node14&#45;&gt;Node3 -->
<g id="edge49" class="edge">
<title>Node14&#45;&gt;Node3</title>
<path fill="none" stroke="midnightblue" d="M1846.91,-184.73C1837.46,-174.5 1821.64,-157.36 1809.95,-144.69"/>
<polygon fill="midnightblue" stroke="midnightblue" points="1812.32,-142.1 1802.96,-137.13 1807.17,-146.85 1812.32,-142.1"/>
</g>
<!-- Node14&#45;&gt;Node6 -->
<g id="edge51" class="edge">
<title>Node14&#45;&gt;Node6</title>
<path fill="none" stroke="midnightblue" d="M1929.76,-191.73C2101.89,-187.14 2515.74,-173.11 2571,-143 2594.6,-130.14 2611.25,-102.87 2620.23,-84.73"/>
<polygon fill="midnightblue" stroke="midnightblue" points="2623.48,-86.06 2624.53,-75.52 2617.13,-83.1 2623.48,-86.06"/>
</g>
<!-- Node15 -->
<g id="node15" class="node">
<title>Node15</title>
<g id="a_node15"><a xlink:title=" ">
<polygon fill="white" stroke="#bfbfbf" points="1878,-0.5 1878,-19.5 1922,-19.5 1922,-0.5 1878,-0.5"/>
<text text-anchor="middle" x="1900" y="-7.5" font-family="Helvetica,sans-Serif" font-size="10.00">string</text>
</a>
</g>
</g>
<!-- Node14&#45;&gt;Node15 -->
<g id="edge15" class="edge">
<title>Node14&#45;&gt;Node15</title>
<path fill="none" stroke="midnightblue" d="M1914.17,-184.93C1961.39,-176.74 2022.02,-162.71 2037,-143 2051.55,-123.86 2023.23,-58.41 2021,-56 1997.79,-30.91 1959.29,-19.74 1931.95,-14.81"/>
<polygon fill="midnightblue" stroke="midnightblue" points="1932.51,-11.36 1922.08,-13.22 1931.39,-18.27 1932.51,-11.36"/>
</g>
<!-- Node16 -->
<g id="node16" class="node">
<title>Node16</title>
<g id="a_node16"><a xlink:title=" ">
<polygon fill="white" stroke="#bfbfbf" points="928.5,-56.5 928.5,-75.5 1021.5,-75.5 1021.5,-56.5 928.5,-56.5"/>
<text text-anchor="middle" x="975" y="-63.5" font-family="Helvetica,sans-Serif" font-size="10.00">unordered_map</text>
</a>
</g>
</g>
<!-- Node14&#45;&gt;Node16 -->
<g id="edge16" class="edge">
<title>Node14&#45;&gt;Node16</title>
<path fill="none" stroke="midnightblue" d="M1780.27,-190.19C1631.9,-183.23 1304.99,-165.81 1195,-143 1124.27,-128.33 1045.05,-97.09 1003.68,-79.57"/>
<polygon fill="midnightblue" stroke="midnightblue" points="1004.82,-76.25 994.25,-75.54 1002.06,-82.69 1004.82,-76.25"/>
</g>
<!-- Node17 -->
<g id="node17" class="node">
<title>Node17</title>
<g id="a_node17"><a xlink:href="_field_desc_types_8_h.html" target="_top" xlink:title=" ">
<polygon fill="white" stroke="black" points="2342,-0.5 2342,-19.5 2518,-19.5 2518,-0.5 2342,-0.5"/>
<text text-anchor="middle" x="2430" y="-7.5" font-family="Helvetica,sans-Serif" font-size="10.00">amr&#45;wind/core/FieldDescTypes.H</text>
</a>
</g>
</g>
<!-- Node14&#45;&gt;Node17 -->
<g id="edge17" class="edge">
<title>Node14&#45;&gt;Node17</title>
<path fill="none" stroke="midnightblue" d="M1929.76,-193.62C2093.38,-193.03 2478.27,-186.88 2600,-143 2647.92,-125.72 2669.78,-121.34 2693,-76 2697.05,-68.09 2698.73,-62.79 2693,-56 2671.87,-30.95 2593.76,-19.84 2528.11,-14.92"/>
<polygon fill="midnightblue" stroke="midnightblue" points="2528.33,-11.43 2518.11,-14.21 2527.83,-18.41 2528.33,-11.43"/>
</g>
<!-- Node18 -->
<g id="node18" class="node">
<title>Node18</title>
<g id="a_node18"><a xlink:href="_field_utils_8_h.html" target="_top" xlink:title=" ">
<polygon fill="white" stroke="black" points="2068,-56.5 2068,-75.5 2214,-75.5 2214,-56.5 2068,-56.5"/>
<text text-anchor="middle" x="2141" y="-63.5" font-family="Helvetica,sans-Serif" font-size="10.00">amr&#45;wind/core/FieldUtils.H</text>
</a>
</g>
</g>
<!-- Node14&#45;&gt;Node18 -->
<g id="edge18" class="edge">
<title>Node14&#45;&gt;Node18</title>
<path fill="none" stroke="midnightblue" d="M1929.77,-186.26C1994.22,-178.67 2081.03,-164.77 2108,-143 2125.63,-128.77 2134.06,-103.28 2137.93,-85.78"/>
<polygon fill="midnightblue" stroke="midnightblue" points="2141.43,-86.1 2139.87,-75.62 2134.56,-84.79 2141.43,-86.1"/>
</g>
<!-- Node19 -->
<g id="node19" class="node">
<title>Node19</title>
<g id="a_node19"><a xlink:title=" ">
<polygon fill="white" stroke="#bfbfbf" points="995.5,-0.5 995.5,-19.5 1104.5,-19.5 1104.5,-0.5 995.5,-0.5"/>
<text text-anchor="middle" x="1050" y="-7.5" font-family="Helvetica,sans-Serif" font-size="10.00">AMReX_MultiFab.H</text>
</a>
</g>
</g>
<!-- Node14&#45;&gt;Node19 -->
<g id="edge50" class="edge">
<title>Node14&#45;&gt;Node19</title>
<path fill="none" stroke="midnightblue" d="M1780.29,-190.25C1538.39,-179.7 791.9,-146.83 787,-143 755.75,-118.55 741.24,-86.18 767,-56 794.45,-23.84 910.25,-14.55 984.94,-11.93"/>
<polygon fill="midnightblue" stroke="midnightblue" points="985.32,-15.42 995.2,-11.61 985.09,-8.43 985.32,-15.42"/>
</g>
<!-- Node21 -->
<g id="node21" class="node">
<title>Node21</title>
<g id="a_node21"><a xlink:href="_field_8_h.html" target="_top" xlink:title=" ">
<polygon fill="white" stroke="black" points="1204,-118 1204,-137 1328,-137 1328,-118 1204,-118"/>
<text text-anchor="middle" x="1266" y="-125" font-family="Helvetica,sans-Serif" font-size="10.00">amr&#45;wind/core/Field.H</text>
</a>
</g>
</g>
<!-- Node14&#45;&gt;Node21 -->
<g id="edge22" class="edge">
<title>Node14&#45;&gt;Node21</title>
<path fill="none" stroke="midnightblue" d="M1780.4,-185.27C1666.63,-172.71 1451.14,-148.93 1338.58,-136.51"/>
<polygon fill="midnightblue" stroke="midnightblue" points="1338.67,-133 1328.35,-135.38 1337.91,-139.96 1338.67,-133"/>
</g>
<!-- Node28 -->
<g id="node28" class="node">
<title>Node28</title>
<g id="a_node28"><a xlink:href="_int_field_8_h.html" target="_top" xlink:title=" ">
<polygon fill="white" stroke="black" points="2424.5,-118 2424.5,-137 2561.5,-137 2561.5,-118 2424.5,-118"/>
<text text-anchor="middle" x="2493" y="-125" font-family="Helvetica,sans-Serif" font-size="10.00">amr&#45;wind/core/IntField.H</text>
</a>
</g>
</g>
<!-- Node14&#45;&gt;Node28 -->
<g id="edge37" class="edge">
<title>Node14&#45;&gt;Node28</title>
<path fill="none" stroke="midnightblue" d="M1929.75,-185.88C2051.21,-173.51 2290.29,-149.15 2414.27,-136.52"/>
<polygon fill="midnightblue" stroke="midnightblue" points="2414.85,-139.98 2424.45,-135.48 2414.14,-133.02 2414.85,-139.98"/>
</g>
<!-- Node29 -->
<g id="node29" class="node">
<title>Node29</title>
<g id="a_node29"><a xlink:href="_scratch_field_8_h.html" target="_top" xlink:title=" ">
<polygon fill="white" stroke="black" points="1868,-118 1868,-137 2028,-137 2028,-118 1868,-118"/>
<text text-anchor="middle" x="1948" y="-125" font-family="Helvetica,sans-Serif" font-size="10.00">amr&#45;wind/core/ScratchField.H</text>
</a>
</g>
</g>
<!-- Node14&#45;&gt;Node29 -->
<g id="edge41" class="edge">
<title>Node14&#45;&gt;Node29</title>
<path fill="none" stroke="midnightblue" d="M1867.54,-184.73C1882.88,-174.01 1909.06,-155.72 1927.38,-142.91"/>
<polygon fill="midnightblue" stroke="midnightblue" points="1929.46,-145.72 1935.66,-137.13 1925.45,-139.99 1929.46,-145.72"/>
</g>
<!-- Node18&#45;&gt;Node17 -->
<g id="edge19" class="edge">
<title>Node18&#45;&gt;Node17</title>
<path fill="none" stroke="midnightblue" d="M2186.79,-56.44C2237.74,-46.92 2320.03,-31.55 2374.57,-21.36"/>
<polygon fill="midnightblue" stroke="midnightblue" points="2375.23,-24.79 2384.42,-19.52 2373.95,-17.91 2375.23,-24.79"/>
</g>
<!-- Node18&#45;&gt;Node19 -->
<g id="edge20" class="edge">
<title>Node18&#45;&gt;Node19</title>
<path fill="none" stroke="midnightblue" d="M2067.73,-59.17C2052.3,-58.04 2036.12,-56.92 2021,-56 1679.94,-35.31 1270.98,-19.2 1114.87,-13.37"/>
<polygon fill="midnightblue" stroke="midnightblue" points="1114.64,-9.85 1104.51,-12.98 1114.37,-16.85 1114.64,-9.85"/>
</g>
<!-- Node20 -->
<g id="node20" class="node">
<title>Node20</title>
<g id="a_node20"><a xlink:title=" ">
<polygon fill="white" stroke="#bfbfbf" points="2079,-0.5 2079,-19.5 2203,-19.5 2203,-0.5 2079,-0.5"/>
<text text-anchor="middle" x="2141" y="-7.5" font-family="Helvetica,sans-Serif" font-size="10.00">AMReX_Interpolater.H</text>
</a>
</g>
</g>
<!-- Node18&#45;&gt;Node20 -->
<g id="edge21" class="edge">
<title>Node18&#45;&gt;Node20</title>
<path fill="none" stroke="midnightblue" d="M2141,-56.08C2141,-49.01 2141,-38.86 2141,-29.99"/>
<polygon fill="midnightblue" stroke="midnightblue" points="2144.5,-29.75 2141,-19.75 2137.5,-29.75 2144.5,-29.75"/>
</g>
<!-- Node21&#45;&gt;Node8 -->
<g id="edge30" class="edge">
<title>Node21&#45;&gt;Node8</title>
<path fill="none" stroke="midnightblue" d="M1298.52,-117.98C1338.56,-107.48 1406.64,-89.64 1450.7,-78.09"/>
<polygon fill="midnightblue" stroke="midnightblue" points="1451.75,-81.43 1460.54,-75.51 1449.98,-74.66 1451.75,-81.43"/>
</g>
<!-- Node21&#45;&gt;Node15 -->
<g id="edge23" class="edge">
<title>Node21&#45;&gt;Node15</title>
<path fill="none" stroke="midnightblue" d="M1284.83,-117.95C1306.46,-108.07 1342.96,-91.21 1374,-76 1391.49,-67.43 1394.29,-61.41 1413,-56 1586.61,-5.84 1638.17,-37.86 1818,-20 1834.28,-18.38 1852.37,-16.42 1867.4,-14.73"/>
<polygon fill="midnightblue" stroke="midnightblue" points="1868.19,-18.17 1877.74,-13.57 1867.41,-11.21 1868.19,-18.17"/>
</g>
<!-- Node21&#45;&gt;Node16 -->
<g id="edge25" class="edge">
<title>Node21&#45;&gt;Node16</title>
<path fill="none" stroke="midnightblue" d="M1224.31,-117.98C1172.23,-107.33 1083.13,-89.11 1026.75,-77.58"/>
<polygon fill="midnightblue" stroke="midnightblue" points="1027.11,-74.08 1016.62,-75.51 1025.71,-80.94 1027.11,-74.08"/>
</g>
<!-- Node21&#45;&gt;Node17 -->
<g id="edge31" class="edge">
<title>Node21&#45;&gt;Node17</title>
<path fill="none" stroke="midnightblue" d="M1328.12,-122.83C1379.33,-119.84 1453.87,-115.53 1519,-112 1675.42,-103.52 2071.72,-116.65 2223,-76 2241.81,-70.95 2243.82,-63 2262,-56 2300.05,-41.34 2344.7,-29.63 2378.4,-21.83"/>
<polygon fill="midnightblue" stroke="midnightblue" points="2379.51,-25.16 2388.49,-19.53 2377.96,-18.34 2379.51,-25.16"/>
</g>
<!-- Node21&#45;&gt;Node19 -->
<g id="edge27" class="edge">
<title>Node21&#45;&gt;Node19</title>
<path fill="none" stroke="midnightblue" d="M1203.66,-126C1160.52,-122.33 1104.66,-110.49 1069,-76 1056.6,-64 1052.17,-44.4 1050.65,-29.85"/>
<polygon fill="midnightblue" stroke="midnightblue" points="1054.12,-29.26 1049.96,-19.51 1047.13,-29.72 1054.12,-29.26"/>
</g>
<!-- Node22 -->
<g id="node22" class="node">
<title>Node22</title>
<g id="a_node22"><a xlink:title=" ">
<polygon fill="white" stroke="#bfbfbf" points="776,-56.5 776,-75.5 834,-75.5 834,-56.5 776,-56.5"/>
<text text-anchor="middle" x="805" y="-63.5" font-family="Helvetica,sans-Serif" font-size="10.00">memory</text>
</a>
</g>
</g>
<!-- Node21&#45;&gt;Node22 -->
<g id="edge24" class="edge">
<title>Node21&#45;&gt;Node22</title>
<path fill="none" stroke="midnightblue" d="M1203.83,-118.48C1107.39,-106.03 924.53,-82.43 844.34,-72.08"/>
<polygon fill="midnightblue" stroke="midnightblue" points="844.55,-68.58 834.18,-70.77 843.65,-75.52 844.55,-68.58"/>
</g>
<!-- Node23 -->
<g id="node23" class="node">
<title>Node23</title>
<g id="a_node23"><a xlink:title=" ">
<polygon fill="white" stroke="#bfbfbf" points="1184,-56.5 1184,-75.5 1248,-75.5 1248,-56.5 1184,-56.5"/>
<text text-anchor="middle" x="1216" y="-63.5" font-family="Helvetica,sans-Serif" font-size="10.00">algorithm</text>
</a>
</g>
</g>
<!-- Node21&#45;&gt;Node23 -->
<g id="edge26" class="edge">
<title>Node21&#45;&gt;Node23</title>
<path fill="none" stroke="midnightblue" d="M1258.84,-117.98C1251.26,-108.96 1239.13,-94.52 1229.71,-83.31"/>
<polygon fill="midnightblue" stroke="midnightblue" points="1232.26,-80.91 1223.15,-75.51 1226.9,-85.42 1232.26,-80.91"/>
</g>
<!-- Node24 -->
<g id="node24" class="node">
<title>Node24</title>
<g id="a_node24"><a xlink:title=" ">
<polygon fill="white" stroke="#bfbfbf" points="1266.5,-56.5 1266.5,-75.5 1365.5,-75.5 1365.5,-56.5 1266.5,-56.5"/>
<text text-anchor="middle" x="1316" y="-63.5" font-family="Helvetica,sans-Serif" font-size="10.00">AMReX_BCRec.H</text>
</a>
</g>
</g>
<!-- Node21&#45;&gt;Node24 -->
<g id="edge28" class="edge">
<title>Node21&#45;&gt;Node24</title>
<path fill="none" stroke="midnightblue" d="M1273.16,-117.98C1280.74,-108.96 1292.87,-94.52 1302.29,-83.31"/>
<polygon fill="midnightblue" stroke="midnightblue" points="1305.1,-85.42 1308.85,-75.51 1299.74,-80.91 1305.1,-85.42"/>
</g>
<!-- Node25 -->
<g id="node25" class="node">
<title>Node25</title>
<g id="a_node25"><a xlink:title=" ">
<polygon fill="white" stroke="#bfbfbf" points="1078.5,-56.5 1078.5,-75.5 1165.5,-75.5 1165.5,-56.5 1078.5,-56.5"/>
<text text-anchor="middle" x="1122" y="-63.5" font-family="Helvetica,sans-Serif" font-size="10.00">AMReX_Gpu.H</text>
</a>
</g>
</g>
<!-- Node21&#45;&gt;Node25 -->
<g id="edge29" class="edge">
<title>Node21&#45;&gt;Node25</title>
<path fill="none" stroke="midnightblue" d="M1245.37,-117.98C1220.88,-107.86 1179.85,-90.9 1151.89,-79.35"/>
<polygon fill="midnightblue" stroke="midnightblue" points="1153.17,-76.09 1142.59,-75.51 1150.5,-82.56 1153.17,-76.09"/>
</g>
<!-- Node26 -->
<g id="node26" class="node">
<title>Node26</title>
<g id="a_node26"><a xlink:href="_view_field_8_h.html" target="_top" xlink:title=" ">
<polygon fill="white" stroke="black" points="1686,-56.5 1686,-75.5 1834,-75.5 1834,-56.5 1686,-56.5"/>
<text text-anchor="middle" x="1760" y="-63.5" font-family="Helvetica,sans-Serif" font-size="10.00">amr&#45;wind/core/ViewField.H</text>
</a>
</g>
</g>
<!-- Node21&#45;&gt;Node26 -->
<g id="edge32" class="edge">
<title>Node21&#45;&gt;Node26</title>
<path fill="none" stroke="midnightblue" d="M1328.07,-119.02C1417.04,-108.31 1580.93,-88.57 1679.24,-76.73"/>
<polygon fill="midnightblue" stroke="midnightblue" points="1679.91,-80.17 1689.42,-75.5 1679.08,-73.22 1679.91,-80.17"/>
</g>
<!-- Node26&#45;&gt;Node15 -->
<g id="edge33" class="edge">
<title>Node26&#45;&gt;Node15</title>
<path fill="none" stroke="midnightblue" d="M1782.18,-56.44C1805.43,-47.48 1842.15,-33.31 1868.42,-23.18"/>
<polygon fill="midnightblue" stroke="midnightblue" points="1869.85,-26.38 1877.92,-19.52 1867.33,-19.85 1869.85,-26.38"/>
</g>
<!-- Node26&#45;&gt;Node17 -->
<g id="edge34" class="edge">
<title>Node26&#45;&gt;Node17</title>
<path fill="none" stroke="midnightblue" d="M1834.26,-59.01C1955.55,-49.24 2196.16,-29.85 2331.54,-18.94"/>
<polygon fill="midnightblue" stroke="midnightblue" points="2332.22,-22.39 2341.9,-18.1 2331.65,-15.42 2332.22,-22.39"/>
</g>
<!-- Node26&#45;&gt;Node19 -->
<g id="edge35" class="edge">
<title>Node26&#45;&gt;Node19</title>
<path fill="none" stroke="midnightblue" d="M1685.6,-57.23C1681,-56.8 1676.44,-56.39 1672,-56 1468.83,-38.27 1227.88,-22.27 1114.76,-15.05"/>
<polygon fill="midnightblue" stroke="midnightblue" points="1114.74,-11.54 1104.54,-14.4 1114.3,-18.53 1114.74,-11.54"/>
</g>
<!-- Node27 -->
<g id="node27" class="node">
<title>Node27</title>
<g id="a_node27"><a xlink:title=" ">
<polygon fill="white" stroke="#bfbfbf" points="1711,-0.5 1711,-19.5 1809,-19.5 1809,-0.5 1711,-0.5"/>
<text text-anchor="middle" x="1760" y="-7.5" font-family="Helvetica,sans-Serif" font-size="10.00">AMReX_Vector.H</text>
</a>
</g>
</g>
<!-- Node26&#45;&gt;Node27 -->
<g id="edge36" class="edge">
<title>Node26&#45;&gt;Node27</title>
<path fill="none" stroke="midnightblue" d="M1760,-56.08C1760,-49.01 1760,-38.86 1760,-29.99"/>
<polygon fill="midnightblue" stroke="midnightblue" points="1763.5,-29.75 1760,-19.75 1756.5,-29.75 1763.5,-29.75"/>
</g>
<!-- Node28&#45;&gt;Node6 -->
<g id="edge40" class="edge">
<title>Node28&#45;&gt;Node6</title>
<path fill="none" stroke="midnightblue" d="M2512.34,-117.98C2535.1,-107.95 2573.09,-91.2 2599.29,-79.65"/>
<polygon fill="midnightblue" stroke="midnightblue" points="2600.95,-82.74 2608.69,-75.51 2598.13,-76.34 2600.95,-82.74"/>
</g>
<!-- Node28&#45;&gt;Node15 -->
<g id="edge38" class="edge">
<title>Node28&#45;&gt;Node15</title>
<path fill="none" stroke="midnightblue" d="M2486.01,-117.62C2473.12,-101.98 2443.87,-69.86 2411,-56 2366.97,-37.44 2037.58,-18.37 1932.27,-12.69"/>
<polygon fill="midnightblue" stroke="midnightblue" points="1932.41,-9.19 1922.24,-12.15 1932.04,-16.18 1932.41,-9.19"/>
</g>
<!-- Node28&#45;&gt;Node17 -->
<g id="edge39" class="edge">
<title>Node28&#45;&gt;Node17</title>
<path fill="none" stroke="midnightblue" d="M2501.21,-117.78C2513.18,-103.96 2532.68,-76.51 2520,-56 2510.33,-40.35 2493.38,-29.96 2476.78,-23.15"/>
<polygon fill="midnightblue" stroke="midnightblue" points="2477.69,-19.76 2467.1,-19.54 2475.25,-26.32 2477.69,-19.76"/>
</g>
<!-- Node29&#45;&gt;Node15 -->
<g id="edge42" class="edge">
<title>Node29&#45;&gt;Node15</title>
<path fill="none" stroke="midnightblue" d="M1944.39,-117.82C1936.61,-99.09 1918.1,-54.55 1907.6,-29.29"/>
<polygon fill="midnightblue" stroke="midnightblue" points="1910.72,-27.67 1903.65,-19.78 1904.26,-30.36 1910.72,-27.67"/>
</g>
<!-- Node29&#45;&gt;Node17 -->
<g id="edge44" class="edge">
<title>Node29&#45;&gt;Node17</title>
<path fill="none" stroke="midnightblue" d="M2000.13,-117.93C2013.74,-115.84 2028.4,-113.71 2042,-112 2123.74,-101.72 2347.55,-128.56 2411,-76 2424.42,-64.88 2428.67,-44.85 2429.87,-29.95"/>
<polygon fill="midnightblue" stroke="midnightblue" points="2433.37,-29.93 2430.29,-19.79 2426.38,-29.64 2433.37,-29.93"/>
</g>
<!-- Node29&#45;&gt;Node19 -->
<g id="edge46" class="edge">
<title>Node29&#45;&gt;Node19</title>
<path fill="none" stroke="midnightblue" d="M1897.72,-117.97C1825.16,-105.53 1697.51,-83.13 1677,-76 1658.97,-69.74 1657.34,-61.28 1639,-56 1542.21,-28.13 1247.18,-16.53 1115.11,-12.65"/>
<polygon fill="midnightblue" stroke="midnightblue" points="1114.84,-9.14 1104.75,-12.35 1114.64,-16.14 1114.84,-9.14"/>
</g>
<!-- Node29&#45;&gt;Node26 -->
<g id="edge45" class="edge">
<title>Node29&#45;&gt;Node26</title>
<path fill="none" stroke="midnightblue" d="M1921.06,-117.98C1888.4,-107.64 1833.18,-90.16 1796.66,-78.6"/>
<polygon fill="midnightblue" stroke="midnightblue" points="1797.48,-75.19 1786.89,-75.51 1795.36,-81.86 1797.48,-75.19"/>
</g>
<!-- Node29&#45;&gt;Node27 -->
<g id="edge47" class="edge">
<title>Node29&#45;&gt;Node27</title>
<path fill="none" stroke="midnightblue" d="M1935.96,-117.87C1916.69,-104.18 1877.57,-76.91 1843,-56 1824.24,-44.65 1802.43,-32.88 1785.87,-24.22"/>
<polygon fill="midnightblue" stroke="midnightblue" points="1787.28,-21.01 1776.8,-19.51 1784.06,-27.22 1787.28,-21.01"/>
</g>
<!-- Node30 -->
<g id="node30" class="node">
<title>Node30</title>
<g id="a_node30"><a xlink:title=" ">
<polygon fill="white" stroke="#bfbfbf" points="1966.5,-56.5 1966.5,-75.5 2011.5,-75.5 2011.5,-56.5 1966.5,-56.5"/>
<text text-anchor="middle" x="1989" y="-63.5" font-family="Helvetica,sans-Serif" font-size="10.00">utility</text>
</a>
</g>
</g>
<!-- Node29&#45;&gt;Node30 -->
<g id="edge43" class="edge">
<title>Node29&#45;&gt;Node30</title>
<path fill="none" stroke="midnightblue" d="M1953.87,-117.98C1959.96,-109.14 1969.64,-95.09 1977.3,-83.98"/>
<polygon fill="midnightblue" stroke="midnightblue" points="1980.34,-85.73 1983.14,-75.51 1974.58,-81.76 1980.34,-85.73"/>
</g>
<!-- Node31 -->
<g id="node31" class="node">
<title>Node31</title>
<g id="a_node31"><a xlink:title=" ">
<polygon fill="white" stroke="#bfbfbf" points="2270.5,-56.5 2270.5,-75.5 2401.5,-75.5 2401.5,-56.5 2270.5,-56.5"/>
<text text-anchor="middle" x="2336" y="-63.5" font-family="Helvetica,sans-Serif" font-size="10.00">AMReX_PhysBCFunct.H</text>
</a>
</g>
</g>
<!-- Node29&#45;&gt;Node31 -->
<g id="edge48" class="edge">
<title>Node29&#45;&gt;Node31</title>
<path fill="none" stroke="midnightblue" d="M2003.17,-117.98C2015.92,-116.01 2029.43,-113.93 2042,-112 2120.4,-99.95 2210.57,-86.16 2270.16,-77.06"/>
<polygon fill="midnightblue" stroke="midnightblue" points="2270.83,-80.49 2280.18,-75.52 2269.77,-73.57 2270.83,-80.49"/>
</g>
<!-- Node32&#45;&gt;Node8 -->
<g id="edge68" class="edge">
<title>Node32&#45;&gt;Node8</title>
<path fill="none" stroke="midnightblue" d="M1422.76,-179.48C1437.29,-156.21 1466.36,-109.66 1482.16,-84.36"/>
<polygon fill="midnightblue" stroke="midnightblue" points="1485.18,-86.12 1487.51,-75.79 1479.25,-82.42 1485.18,-86.12"/>
</g>
<!-- Node32&#45;&gt;Node15 -->
<g id="edge53" class="edge">
<title>Node32&#45;&gt;Node15</title>
<path fill="none" stroke="midnightblue" d="M1491.83,-183.68C1561.24,-174.14 1657.1,-158.82 1692,-143 1712.17,-133.86 1711.48,-122.45 1731,-112 1777.1,-87.33 1799.29,-104.7 1843,-76 1861.94,-63.57 1878.36,-43.2 1888.65,-28.58"/>
<polygon fill="midnightblue" stroke="midnightblue" points="1891.79,-30.18 1894.49,-19.94 1885.99,-26.26 1891.79,-30.18"/>
</g>
<!-- Node32&#45;&gt;Node17 -->
<g id="edge67" class="edge">
<title>Node32&#45;&gt;Node17</title>
<path fill="none" stroke="midnightblue" d="M1491.62,-190.53C1718.85,-181.01 2370.52,-147.64 2431,-76 2441.68,-63.36 2439.79,-43.87 2436.24,-29.53"/>
<polygon fill="midnightblue" stroke="midnightblue" points="2439.55,-28.38 2433.37,-19.77 2432.83,-30.35 2439.55,-28.38"/>
</g>
<!-- Node33 -->
<g id="node33" class="node">
<title>Node33</title>
<g id="a_node33"><a xlink:href="_factory_8_h.html" target="_top" xlink:title=" ">
<polygon fill="white" stroke="black" points="568,-118 568,-137 702,-137 702,-118 568,-118"/>
<text text-anchor="middle" x="635" y="-125" font-family="Helvetica,sans-Serif" font-size="10.00">amr&#45;wind/core/Factory.H</text>
</a>
</g>
</g>
<!-- Node32&#45;&gt;Node33 -->
<g id="edge54" class="edge">
<title>Node32&#45;&gt;Node33</title>
<path fill="none" stroke="midnightblue" d="M1336.43,-188.7C1212.98,-180.8 964.28,-163.84 754,-143 740,-141.61 725.1,-139.95 710.74,-138.25"/>
<polygon fill="midnightblue" stroke="midnightblue" points="710.76,-134.72 700.41,-137.01 709.92,-141.67 710.76,-134.72"/>
</g>
<!-- Node37 -->
<g id="node37" class="node">
<title>Node37</title>
<g id="a_node37"><a xlink:href="_coll_mgr_8_h.html" target="_top" xlink:title=" ">
<polygon fill="white" stroke="black" points="796.5,-118 796.5,-137 933.5,-137 933.5,-118 796.5,-118"/>
<text text-anchor="middle" x="865" y="-125" font-family="Helvetica,sans-Serif" font-size="10.00">amr&#45;wind/core/CollMgr.H</text>
</a>
</g>
</g>
<!-- Node32&#45;&gt;Node37 -->
<g id="edge60" class="edge">
<title>Node32&#45;&gt;Node37</title>
<path fill="none" stroke="midnightblue" d="M1336.22,-184.29C1232.16,-171.97 1048.64,-150.24 943.98,-137.85"/>
<polygon fill="midnightblue" stroke="midnightblue" points="944.13,-134.34 933.79,-136.64 943.31,-141.3 944.13,-134.34"/>
</g>
<!-- Node38 -->
<g id="node38" class="node">
<title>Node38</title>
<g id="a_node38"><a xlink:href="_p_d_e_fields_8_h.html" target="_top" xlink:title=" ">
<polygon fill="white" stroke="black" points="1528.5,-112.5 1528.5,-142.5 1683.5,-142.5 1683.5,-112.5 1528.5,-112.5"/>
<text text-anchor="start" x="1536.5" y="-130.5" font-family="Helvetica,sans-Serif" font-size="10.00">amr&#45;wind/equation_systems</text>
<text text-anchor="middle" x="1606" y="-119.5" font-family="Helvetica,sans-Serif" font-size="10.00">/PDEFields.H</text>
</a>
</g>
</g>
<!-- Node32&#45;&gt;Node38 -->
<g id="edge65" class="edge">
<title>Node32&#45;&gt;Node38</title>
<path fill="none" stroke="midnightblue" d="M1455.66,-179.4C1484.72,-169.56 1523.69,-156.37 1554.67,-145.88"/>
<polygon fill="midnightblue" stroke="midnightblue" points="1556.07,-149.1 1564.42,-142.58 1553.83,-142.47 1556.07,-149.1"/>
</g>
<!-- Node33&#45;&gt;Node16 -->
<g id="edge56" class="edge">
<title>Node33&#45;&gt;Node16</title>
<path fill="none" stroke="midnightblue" d="M683.71,-117.98C745.68,-107.13 852.49,-88.44 918.12,-76.95"/>
<polygon fill="midnightblue" stroke="midnightblue" points="919.04,-80.35 928.29,-75.17 917.84,-73.45 919.04,-80.35"/>
</g>
<!-- Node33&#45;&gt;Node22 -->
<g id="edge55" class="edge">
<title>Node33&#45;&gt;Node22</title>
<path fill="none" stroke="midnightblue" d="M659.36,-117.98C688.64,-107.72 737.97,-90.46 771,-78.9"/>
<polygon fill="midnightblue" stroke="midnightblue" points="772.41,-82.12 780.69,-75.51 770.09,-75.51 772.41,-82.12"/>
</g>
<!-- Node34 -->
<g id="node34" class="node">
<title>Node34</title>
<g id="a_node34"><a xlink:title=" ">
<polygon fill="white" stroke="#bfbfbf" points="434,-56.5 434,-75.5 494,-75.5 494,-56.5 434,-56.5"/>
<text text-anchor="middle" x="464" y="-63.5" font-family="Helvetica,sans-Serif" font-size="10.00">iostream</text>
</a>
</g>
</g>
<!-- Node33&#45;&gt;Node34 -->
<g id="edge57" class="edge">
<title>Node33&#45;&gt;Node34</title>
<path fill="none" stroke="midnightblue" d="M610.5,-117.98C581.04,-107.72 531.42,-90.46 498.2,-78.9"/>
<polygon fill="midnightblue" stroke="midnightblue" points="499.05,-75.49 488.45,-75.51 496.75,-82.1 499.05,-75.49"/>
</g>
<!-- Node35 -->
<g id="node35" class="node">
<title>Node35</title>
<g id="a_node35"><a xlink:title=" ">
<polygon fill="white" stroke="#bfbfbf" points="512,-56.5 512,-75.5 602,-75.5 602,-56.5 512,-56.5"/>
<text text-anchor="middle" x="557" y="-63.5" font-family="Helvetica,sans-Serif" font-size="10.00">AMReX_Print.H</text>
</a>
</g>
</g>
<!-- Node33&#45;&gt;Node35 -->
<g id="edge58" class="edge">
<title>Node33&#45;&gt;Node35</title>
<path fill="none" stroke="midnightblue" d="M623.82,-117.98C611.43,-108.52 591.21,-93.1 576.25,-81.69"/>
<polygon fill="midnightblue" stroke="midnightblue" points="578.23,-78.79 568.15,-75.51 573.98,-84.36 578.23,-78.79"/>
</g>
<!-- Node36 -->
<g id="node36" class="node">
<title>Node36</title>
<g id="a_node36"><a xlink:title=" ">
<polygon fill="white" stroke="#bfbfbf" points="620,-56.5 620,-75.5 682,-75.5 682,-56.5 620,-56.5"/>
<text text-anchor="middle" x="651" y="-63.5" font-family="Helvetica,sans-Serif" font-size="10.00">AMReX.H</text>
</a>
</g>
</g>
<!-- Node33&#45;&gt;Node36 -->
<g id="edge59" class="edge">
<title>Node33&#45;&gt;Node36</title>
<path fill="none" stroke="midnightblue" d="M637.29,-117.98C639.57,-109.49 643.15,-96.2 646.07,-85.32"/>
<polygon fill="midnightblue" stroke="midnightblue" points="649.49,-86.07 648.71,-75.51 642.74,-84.26 649.49,-86.07"/>
</g>
<!-- Node37&#45;&gt;Node15 -->
<g id="edge61" class="edge">
<title>Node37&#45;&gt;Node15</title>
<path fill="none" stroke="midnightblue" d="M868.62,-117.8C875.67,-102.13 892.86,-69.56 919,-56 1007.74,-9.96 1718.31,-27.46 1818,-20 1834.32,-18.78 1852.41,-16.86 1867.43,-15.1"/>
<polygon fill="midnightblue" stroke="midnightblue" points="1868.25,-18.53 1877.76,-13.86 1867.42,-11.58 1868.25,-18.53"/>
</g>
<!-- Node37&#45;&gt;Node16 -->
<g id="edge63" class="edge">
<title>Node37&#45;&gt;Node16</title>
<path fill="none" stroke="midnightblue" d="M880.76,-117.98C898.98,-108.12 929.17,-91.79 950.47,-80.27"/>
<polygon fill="midnightblue" stroke="midnightblue" points="952.14,-83.35 959.27,-75.51 948.81,-77.19 952.14,-83.35"/>
</g>
<!-- Node37&#45;&gt;Node22 -->
<g id="edge62" class="edge">
<title>Node37&#45;&gt;Node22</title>
<path fill="none" stroke="midnightblue" d="M856.4,-117.98C847.14,-108.78 832.18,-93.96 820.79,-82.66"/>
<polygon fill="midnightblue" stroke="midnightblue" points="823.15,-80.07 813.58,-75.51 818.22,-85.04 823.15,-80.07"/>
</g>
<!-- Node37&#45;&gt;Node27 -->
<g id="edge64" class="edge">
<title>Node37&#45;&gt;Node27</title>
<path fill="none" stroke="midnightblue" d="M864.66,-117.85C864.6,-102.57 866.93,-71 886,-56 917.99,-30.84 1508.92,-16.27 1700.55,-12.19"/>
<polygon fill="midnightblue" stroke="midnightblue" points="1700.79,-15.69 1710.72,-11.98 1700.64,-8.69 1700.79,-15.69"/>
</g>
<!-- Node39 -->
<g id="node39" class="node">
<title>Node39</title>
<g id="a_node39"><a xlink:title=" ">
<polygon fill="white" stroke="#bfbfbf" points="1582,-56.5 1582,-75.5 1630,-75.5 1630,-56.5 1582,-56.5"/>
<text text-anchor="middle" x="1606" y="-63.5" font-family="Helvetica,sans-Serif" font-size="10.00">iosfwd</text>
</a>
</g>
</g>
<!-- Node38&#45;&gt;Node39 -->
<g id="edge66" class="edge">
<title>Node38&#45;&gt;Node39</title>
<path fill="none" stroke="midnightblue" d="M1606,-112.4C1606,-104.47 1606,-94.46 1606,-85.86"/>
<polygon fill="midnightblue" stroke="midnightblue" points="1609.5,-85.66 1606,-75.66 1602.5,-85.66 1609.5,-85.66"/>
</g>
<!-- Node40&#45;&gt;Node19 -->
<g id="edge72" class="edge">
<title>Node40&#45;&gt;Node19</title>
<path fill="none" stroke="midnightblue" d="M786.15,-184.82C760.94,-161.57 698.48,-96.94 734,-56 765.86,-19.29 902.45,-11.76 985.27,-10.66"/>
<polygon fill="midnightblue" stroke="midnightblue" points="985.38,-14.16 995.34,-10.55 985.31,-7.16 985.38,-14.16"/>
</g>
<!-- Node40&#45;&gt;Node33 -->
<g id="edge70" class="edge">
<title>Node40&#45;&gt;Node33</title>
<path fill="none" stroke="midnightblue" d="M774.62,-184.87C746.64,-173.57 697.41,-153.7 665.51,-140.82"/>
<polygon fill="midnightblue" stroke="midnightblue" points="666.79,-137.56 656.21,-137.06 664.17,-144.05 666.79,-137.56"/>
</g>
<!-- Node40&#45;&gt;Node37 -->
<g id="edge71" class="edge">
<title>Node40&#45;&gt;Node37</title>
<path fill="none" stroke="midnightblue" d="M805.31,-184.73C816.27,-174.4 834.71,-157.04 848.19,-144.33"/>
<polygon fill="midnightblue" stroke="midnightblue" points="850.96,-146.53 855.84,-137.13 846.16,-141.44 850.96,-146.53"/>
</g>
<!-- Node41 -->
<g id="node41" class="node">
<title>Node41</title>
<g id="a_node41"><a xlink:title=" ">
<polygon fill="white" stroke="#bfbfbf" points="434.5,-118 434.5,-137 549.5,-137 549.5,-118 434.5,-118"/>
<text text-anchor="middle" x="492" y="-125" font-family="Helvetica,sans-Serif" font-size="10.00">AMReX_Geometry.H</text>
</a>
</g>
</g>
<!-- Node40&#45;&gt;Node41 -->
<g id="edge73" class="edge">
<title>Node40&#45;&gt;Node41</title>
<path fill="none" stroke="midnightblue" d="M755.73,-184.96C708.57,-174.95 628.1,-157.84 559,-143 553.26,-141.77 547.24,-140.47 541.27,-139.18"/>
<polygon fill="midnightblue" stroke="midnightblue" points="541.83,-135.72 531.32,-137.03 540.36,-142.56 541.83,-135.72"/>
</g>
<!-- Node42&#45;&gt;Node19 -->
<g id="edge78" class="edge">
<title>Node42&#45;&gt;Node19</title>
<path fill="none" stroke="midnightblue" d="M560.84,-185.37C507.41,-177.81 441.88,-164.43 425,-143 401.07,-112.63 398.66,-84.31 425,-56 462.58,-15.62 832.99,-10.98 985.2,-10.79"/>
<polygon fill="midnightblue" stroke="midnightblue" points="985.34,-14.29 995.34,-10.79 985.34,-7.29 985.34,-14.29"/>
</g>
<!-- Node42&#45;&gt;Node21 -->
<g id="edge77" class="edge">
<title>Node42&#45;&gt;Node21</title>
<path fill="none" stroke="midnightblue" d="M680.13,-184.93C692.38,-182.79 705.68,-180.64 718,-179 887.79,-156.38 1088.53,-140.68 1193.6,-133.29"/>
<polygon fill="midnightblue" stroke="midnightblue" points="1194.04,-136.77 1203.77,-132.58 1193.55,-129.79 1194.04,-136.77"/>
</g>
<!-- Node42&#45;&gt;Node33 -->
<g id="edge76" class="edge">
<title>Node42&#45;&gt;Node33</title>
<path fill="none" stroke="midnightblue" d="M635,-184.73C635,-175.18 635,-159.62 635,-147.28"/>
<polygon fill="midnightblue" stroke="midnightblue" points="638.5,-147.13 635,-137.13 631.5,-147.13 638.5,-147.13"/>
</g>
<!-- Node42&#45;&gt;Node37 -->
<g id="edge75" class="edge">
<title>Node42&#45;&gt;Node37</title>
<path fill="none" stroke="midnightblue" d="M665.54,-184.87C706.55,-173.28 779.5,-152.66 824.9,-139.83"/>
<polygon fill="midnightblue" stroke="midnightblue" points="826.03,-143.15 834.7,-137.06 824.12,-136.42 826.03,-143.15"/>
</g>
<!-- Node42&#45;&gt;Node41 -->
<g id="edge79" class="edge">
<title>Node42&#45;&gt;Node41</title>
<path fill="none" stroke="midnightblue" d="M616.01,-184.87C591.54,-173.75 548.8,-154.32 520.44,-141.43"/>
<polygon fill="midnightblue" stroke="midnightblue" points="521.62,-138.12 511.07,-137.17 518.72,-144.49 521.62,-138.12"/>
</g>
<!-- Node43&#45;&gt;Node14 -->
<g id="edge84" class="edge">
<title>Node43&#45;&gt;Node14</title>
<path fill="none" stroke="midnightblue" d="M1855,-302.14C1855,-280.2 1855,-238.33 1855,-214.09"/>
<polygon fill="midnightblue" stroke="midnightblue" points="1858.5,-214.05 1855,-204.05 1851.5,-214.05 1858.5,-214.05"/>
</g>
<!-- Node44 -->
<g id="node44" class="node">
<title>Node44</title>
<g id="a_node44"><a xlink:title=" ">
<polygon fill="white" stroke="#bfbfbf" points="2656,-246.5 2656,-265.5 2754,-265.5 2754,-246.5 2656,-246.5"/>
<text text-anchor="middle" x="2705" y="-253.5" font-family="Helvetica,sans-Serif" font-size="10.00">AMReX_MLMG.H</text>
</a>
</g>
</g>
<!-- Node43&#45;&gt;Node44 -->
<g id="edge83" class="edge">
<title>Node43&#45;&gt;Node44</title>
<path fill="none" stroke="midnightblue" d="M1909.03,-314.48C2036.76,-309.4 2367.24,-294.4 2642,-266 2643.27,-265.87 2644.55,-265.73 2645.84,-265.59"/>
<polygon fill="midnightblue" stroke="midnightblue" points="2646.35,-269.05 2655.86,-264.4 2645.52,-262.1 2646.35,-269.05"/>
</g>
</g>
</svg>
