<?xml version="1.0" encoding="UTF-8" standalone="no"?>
<!DOCTYPE svg PUBLIC "-//W3C//DTD SVG 1.1//EN"
 "http://www.w3.org/Graphics/SVG/1.1/DTD/svg11.dtd">
<!-- Generated by graphviz version 2.43.0 (0)
 -->
<!-- Title: incflo_godunov_advection.cpp Pages: 1 -->
<svg width="1914pt" height="352pt"
 viewBox="0.00 0.00 1913.53 352.00" xmlns="http://www.w3.org/2000/svg" xmlns:xlink="http://www.w3.org/1999/xlink">
<g id="graph0" class="graph" transform="scale(1 1) rotate(0) translate(4 348)">
<title>incflo_godunov_advection.cpp</title>
<polygon fill="white" stroke="transparent" points="-4,4 -4,-348 1909.53,-348 1909.53,4 -4,4"/>
<!-- Node1 -->
<g id="node1" class="node">
<title>Node1</title>
<g id="a_node1"><a xlink:title=" ">
<polygon fill="#bfbfbf" stroke="black" points="302,-324.5 302,-343.5 466,-343.5 466,-324.5 302,-324.5"/>
<text text-anchor="middle" x="384" y="-331.5" font-family="Helvetica,sans-Serif" font-size="10.00">incflo_godunov_advection.cpp</text>
</a>
</g>
</g>
<!-- Node2 -->
<g id="node2" class="node">
<title>Node2</title>
<g id="a_node2"><a xlink:href="incflo__godunov__plm_8_h.html" target="_top" xlink:title=" ">
<polygon fill="white" stroke="black" points="0,-129 0,-159 128,-159 128,-129 0,-129"/>
<text text-anchor="start" x="8" y="-147" font-family="Helvetica,sans-Serif" font-size="10.00">amr&#45;wind/convection</text>
<text text-anchor="middle" x="64" y="-136" font-family="Helvetica,sans-Serif" font-size="10.00">/incflo_godunov_plm.H</text>
</a>
</g>
</g>
<!-- Node1&#45;&gt;Node2 -->
<g id="edge1" class="edge">
<title>Node1&#45;&gt;Node2</title>
<path fill="none" stroke="midnightblue" d="M369.42,-324.43C321.09,-296.04 165.36,-204.55 96.86,-164.3"/>
<polygon fill="midnightblue" stroke="midnightblue" points="98.57,-161.25 88.18,-159.2 95.03,-167.29 98.57,-161.25"/>
</g>
<!-- Node7 -->
<g id="node7" class="node">
<title>Node7</title>
<g id="a_node7"><a xlink:href="incflo__godunov__ppm_8_h.html" target="_top" xlink:title=" ">
<polygon fill="white" stroke="black" points="299.5,-129 299.5,-159 430.5,-159 430.5,-129 299.5,-129"/>
<text text-anchor="start" x="307.5" y="-147" font-family="Helvetica,sans-Serif" font-size="10.00">amr&#45;wind/convection</text>
<text text-anchor="middle" x="365" y="-136" font-family="Helvetica,sans-Serif" font-size="10.00">/incflo_godunov_ppm.H</text>
</a>
</g>
</g>
<!-- Node1&#45;&gt;Node7 -->
<g id="edge6" class="edge">
<title>Node1&#45;&gt;Node7</title>
<path fill="none" stroke="midnightblue" d="M383.13,-324.43C380.38,-297.14 371.73,-211.55 367.45,-169.21"/>
<polygon fill="midnightblue" stroke="midnightblue" points="370.92,-168.8 366.44,-159.2 363.96,-169.51 370.92,-168.8"/>
</g>
<!-- Node8 -->
<g id="node8" class="node">
<title>Node8</title>
<g id="a_node8"><a xlink:href="incflo__godunov__ppm__nolim_8_h.html" target="_top" xlink:title=" ">
<polygon fill="white" stroke="black" points="449,-123.5 449,-164.5 569,-164.5 569,-123.5 449,-123.5"/>
<text text-anchor="start" x="457" y="-152.5" font-family="Helvetica,sans-Serif" font-size="10.00">amr&#45;wind/convection</text>
<text text-anchor="start" x="457" y="-141.5" font-family="Helvetica,sans-Serif" font-size="10.00">/incflo_godunov_ppm</text>
<text text-anchor="middle" x="509" y="-130.5" font-family="Helvetica,sans-Serif" font-size="10.00">_nolim.H</text>
</a>
</g>
</g>
<!-- Node1&#45;&gt;Node8 -->
<g id="edge9" class="edge">
<title>Node1&#45;&gt;Node8</title>
<path fill="none" stroke="midnightblue" d="M387.84,-324.29C394.34,-309.86 408.24,-280.31 423,-257 442.07,-226.88 467.23,-194.84 485.4,-172.78"/>
<polygon fill="midnightblue" stroke="midnightblue" points="488.3,-174.77 492,-164.84 482.91,-170.29 488.3,-174.77"/>
</g>
<!-- Node9 -->
<g id="node9" class="node">
<title>Node9</title>
<g id="a_node9"><a xlink:href="incflo__godunov__weno_8_h.html" target="_top" xlink:title=" ">
<polygon fill="white" stroke="black" points="146.5,-129 146.5,-159 281.5,-159 281.5,-129 146.5,-129"/>
<text text-anchor="start" x="154.5" y="-147" font-family="Helvetica,sans-Serif" font-size="10.00">amr&#45;wind/convection</text>
<text text-anchor="middle" x="214" y="-136" font-family="Helvetica,sans-Serif" font-size="10.00">/incflo_godunov_weno.H</text>
</a>
</g>
</g>
<!-- Node1&#45;&gt;Node9 -->
<g id="edge12" class="edge">
<title>Node1&#45;&gt;Node9</title>
<path fill="none" stroke="midnightblue" d="M376.25,-324.43C351.1,-296.62 271.2,-208.26 233.74,-166.83"/>
<polygon fill="midnightblue" stroke="midnightblue" points="236.15,-164.27 226.84,-159.2 230.96,-168.97 236.15,-164.27"/>
</g>
<!-- Node10 -->
<g id="node10" class="node">
<title>Node10</title>
<g id="a_node10"><a xlink:href="_godunov_8_h.html" target="_top" xlink:title=" ">
<polygon fill="white" stroke="black" points="431.5,-257.5 431.5,-287.5 550.5,-287.5 550.5,-257.5 431.5,-257.5"/>
<text text-anchor="start" x="439.5" y="-275.5" font-family="Helvetica,sans-Serif" font-size="10.00">amr&#45;wind/convection</text>
<text text-anchor="middle" x="491" y="-264.5" font-family="Helvetica,sans-Serif" font-size="10.00">/Godunov.H</text>
</a>
</g>
</g>
<!-- Node1&#45;&gt;Node10 -->
<g id="edge15" class="edge">
<title>Node1&#45;&gt;Node10</title>
<path fill="none" stroke="midnightblue" d="M399.33,-324.48C414.3,-316.15 437.58,-303.21 456.93,-292.45"/>
<polygon fill="midnightblue" stroke="midnightblue" points="458.74,-295.44 465.78,-287.52 455.34,-289.32 458.74,-295.44"/>
</g>
<!-- Node30 -->
<g id="node30" class="node">
<title>Node30</title>
<g id="a_node30"><a xlink:title=" ">
<polygon fill="white" stroke="#bfbfbf" points="568.5,-263 568.5,-282 683.5,-282 683.5,-263 568.5,-263"/>
<text text-anchor="middle" x="626" y="-270" font-family="Helvetica,sans-Serif" font-size="10.00">AMReX_Geometry.H</text>
</a>
</g>
</g>
<!-- Node1&#45;&gt;Node30 -->
<g id="edge54" class="edge">
<title>Node1&#45;&gt;Node30</title>
<path fill="none" stroke="midnightblue" d="M418.67,-324.48C461.53,-313.94 534.54,-295.99 581.5,-284.44"/>
<polygon fill="midnightblue" stroke="midnightblue" points="582.52,-287.8 591.39,-282.01 580.85,-281 582.52,-287.8"/>
</g>
<!-- Node3 -->
<g id="node3" class="node">
<title>Node3</title>
<g id="a_node3"><a xlink:href="incflo__convection___k_8_h.html" target="_top" xlink:title=" ">
<polygon fill="white" stroke="black" points="0.5,-56.5 0.5,-86.5 127.5,-86.5 127.5,-56.5 0.5,-56.5"/>
<text text-anchor="start" x="8.5" y="-74.5" font-family="Helvetica,sans-Serif" font-size="10.00">amr&#45;wind/convection</text>
<text text-anchor="middle" x="64" y="-63.5" font-family="Helvetica,sans-Serif" font-size="10.00">/incflo_convection_K.H</text>
</a>
</g>
</g>
<!-- Node2&#45;&gt;Node3 -->
<g id="edge2" class="edge">
<title>Node2&#45;&gt;Node3</title>
<path fill="none" stroke="midnightblue" d="M64,-128.73C64,-119.66 64,-107.66 64,-97.08"/>
<polygon fill="midnightblue" stroke="midnightblue" points="67.5,-96.75 64,-86.75 60.5,-96.75 67.5,-96.75"/>
</g>
<!-- Node5 -->
<g id="node5" class="node">
<title>Node5</title>
<g id="a_node5"><a xlink:title=" ">
<polygon fill="white" stroke="#bfbfbf" points="281.5,-62 281.5,-81 368.5,-81 368.5,-62 281.5,-62"/>
<text text-anchor="middle" x="325" y="-69" font-family="Helvetica,sans-Serif" font-size="10.00">AMReX_Gpu.H</text>
</a>
</g>
</g>
<!-- Node2&#45;&gt;Node5 -->
<g id="edge4" class="edge">
<title>Node2&#45;&gt;Node5</title>
<path fill="none" stroke="midnightblue" d="M115.04,-128.97C122.41,-126.96 129.9,-124.92 137,-123 196.95,-106.8 212.05,-103.19 272,-87 275.88,-85.95 279.91,-84.86 283.95,-83.76"/>
<polygon fill="midnightblue" stroke="midnightblue" points="285.17,-87.05 293.9,-81.04 283.33,-80.3 285.17,-87.05"/>
</g>
<!-- Node6 -->
<g id="node6" class="node">
<title>Node6</title>
<g id="a_node6"><a xlink:title=" ">
<polygon fill="white" stroke="#bfbfbf" points="164.5,-62 164.5,-81 263.5,-81 263.5,-62 164.5,-62"/>
<text text-anchor="middle" x="214" y="-69" font-family="Helvetica,sans-Serif" font-size="10.00">AMReX_BCRec.H</text>
</a>
</g>
</g>
<!-- Node2&#45;&gt;Node6 -->
<g id="edge5" class="edge">
<title>Node2&#45;&gt;Node6</title>
<path fill="none" stroke="midnightblue" d="M93.99,-128.9C120.98,-116.22 160.31,-97.73 186.5,-85.42"/>
<polygon fill="midnightblue" stroke="midnightblue" points="188.28,-88.45 195.84,-81.03 185.3,-82.12 188.28,-88.45"/>
</g>
<!-- Node4 -->
<g id="node4" class="node">
<title>Node4</title>
<g id="a_node4"><a xlink:title=" ">
<polygon fill="white" stroke="#bfbfbf" points="5.5,-0.5 5.5,-19.5 122.5,-19.5 122.5,-0.5 5.5,-0.5"/>
<text text-anchor="middle" x="64" y="-7.5" font-family="Helvetica,sans-Serif" font-size="10.00">AMReX_FArrayBox.H</text>
</a>
</g>
</g>
<!-- Node3&#45;&gt;Node4 -->
<g id="edge3" class="edge">
<title>Node3&#45;&gt;Node4</title>
<path fill="none" stroke="midnightblue" d="M64,-56.4C64,-48.47 64,-38.46 64,-29.86"/>
<polygon fill="midnightblue" stroke="midnightblue" points="67.5,-29.66 64,-19.66 60.5,-29.66 67.5,-29.66"/>
</g>
<!-- Node7&#45;&gt;Node5 -->
<g id="edge7" class="edge">
<title>Node7&#45;&gt;Node5</title>
<path fill="none" stroke="midnightblue" d="M356.91,-128.73C350.63,-117.67 341.89,-102.27 335.14,-90.38"/>
<polygon fill="midnightblue" stroke="midnightblue" points="338.02,-88.36 330.05,-81.39 331.94,-91.82 338.02,-88.36"/>
</g>
<!-- Node7&#45;&gt;Node6 -->
<g id="edge8" class="edge">
<title>Node7&#45;&gt;Node6</title>
<path fill="none" stroke="midnightblue" d="M334.81,-128.9C307.64,-116.22 268.05,-97.73 241.68,-85.42"/>
<polygon fill="midnightblue" stroke="midnightblue" points="242.82,-82.09 232.28,-81.03 239.86,-88.44 242.82,-82.09"/>
</g>
<!-- Node8&#45;&gt;Node5 -->
<g id="edge10" class="edge">
<title>Node8&#45;&gt;Node5</title>
<path fill="none" stroke="midnightblue" d="M457.75,-123.36C425.55,-111.02 385,-95.49 357.24,-84.85"/>
<polygon fill="midnightblue" stroke="midnightblue" points="358.23,-81.48 347.64,-81.17 355.72,-88.02 358.23,-81.48"/>
</g>
<!-- Node8&#45;&gt;Node6 -->
<g id="edge11" class="edge">
<title>Node8&#45;&gt;Node6</title>
<path fill="none" stroke="midnightblue" d="M448.86,-125.29C445.87,-124.5 442.9,-123.73 440,-123 365.95,-104.36 346.38,-104.26 272,-87 267.26,-85.9 262.31,-84.72 257.38,-83.52"/>
<polygon fill="midnightblue" stroke="midnightblue" points="257.93,-80.05 247.38,-81.05 256.26,-86.84 257.93,-80.05"/>
</g>
<!-- Node9&#45;&gt;Node5 -->
<g id="edge13" class="edge">
<title>Node9&#45;&gt;Node5</title>
<path fill="none" stroke="midnightblue" d="M236.2,-128.9C255.64,-116.55 283.74,-98.71 303.09,-86.41"/>
<polygon fill="midnightblue" stroke="midnightblue" points="305,-89.35 311.56,-81.03 301.25,-83.44 305,-89.35"/>
</g>
<!-- Node9&#45;&gt;Node6 -->
<g id="edge14" class="edge">
<title>Node9&#45;&gt;Node6</title>
<path fill="none" stroke="midnightblue" d="M214,-128.73C214,-118 214,-103.19 214,-91.46"/>
<polygon fill="midnightblue" stroke="midnightblue" points="217.5,-91.39 214,-81.39 210.5,-91.39 217.5,-91.39"/>
</g>
<!-- Node11 -->
<g id="node11" class="node">
<title>Node11</title>
<g id="a_node11"><a xlink:href="_field_repo_8_h.html" target="_top" xlink:title=" ">
<polygon fill="white" stroke="black" points="1001.5,-201.5 1001.5,-220.5 1150.5,-220.5 1150.5,-201.5 1001.5,-201.5"/>
<text text-anchor="middle" x="1076" y="-208.5" font-family="Helvetica,sans-Serif" font-size="10.00">amr&#45;wind/core/FieldRepo.H</text>
</a>
</g>
</g>
<!-- Node10&#45;&gt;Node11 -->
<g id="edge16" class="edge">
<title>Node10&#45;&gt;Node11</title>
<path fill="none" stroke="midnightblue" d="M550.76,-258.48C553.88,-257.95 556.97,-257.45 560,-257 711.08,-234.62 888.82,-222.13 991.34,-216.26"/>
<polygon fill="midnightblue" stroke="midnightblue" points="991.54,-219.75 1001.33,-215.69 991.15,-212.76 991.54,-219.75"/>
</g>
<!-- Node12 -->
<g id="node12" class="node">
<title>Node12</title>
<g id="a_node12"><a xlink:title=" ">
<polygon fill="white" stroke="#bfbfbf" points="919,-0.5 919,-19.5 963,-19.5 963,-0.5 919,-0.5"/>
<text text-anchor="middle" x="941" y="-7.5" font-family="Helvetica,sans-Serif" font-size="10.00">string</text>
</a>
</g>
</g>
<!-- Node11&#45;&gt;Node12 -->
<g id="edge17" class="edge">
<title>Node11&#45;&gt;Node12</title>
<path fill="none" stroke="midnightblue" d="M1026.73,-201.47C1004.59,-195.11 980.11,-184.07 965,-165 933.57,-125.34 935.25,-61.43 938.44,-29.87"/>
<polygon fill="midnightblue" stroke="midnightblue" points="941.93,-30.16 939.63,-19.82 934.98,-29.34 941.93,-30.16"/>
</g>
<!-- Node13 -->
<g id="node13" class="node">
<title>Node13</title>
<g id="a_node13"><a xlink:title=" ">
<polygon fill="white" stroke="#bfbfbf" points="781.5,-62 781.5,-81 874.5,-81 874.5,-62 781.5,-62"/>
<text text-anchor="middle" x="828" y="-69" font-family="Helvetica,sans-Serif" font-size="10.00">unordered_map</text>
</a>
</g>
</g>
<!-- Node11&#45;&gt;Node13 -->
<g id="edge18" class="edge">
<title>Node11&#45;&gt;Node13</title>
<path fill="none" stroke="midnightblue" d="M1001.06,-204.81C964.58,-199.25 921.66,-187.92 889,-165 862.33,-146.28 844.25,-111.84 835.06,-90.67"/>
<polygon fill="midnightblue" stroke="midnightblue" points="838.22,-89.14 831.17,-81.22 831.74,-91.8 838.22,-89.14"/>
</g>
<!-- Node14 -->
<g id="node14" class="node">
<title>Node14</title>
<g id="a_node14"><a xlink:href="_field_desc_types_8_h.html" target="_top" xlink:title=" ">
<polygon fill="white" stroke="black" points="1523,-0.5 1523,-19.5 1699,-19.5 1699,-0.5 1523,-0.5"/>
<text text-anchor="middle" x="1611" y="-7.5" font-family="Helvetica,sans-Serif" font-size="10.00">amr&#45;wind/core/FieldDescTypes.H</text>
</a>
</g>
</g>
<!-- Node11&#45;&gt;Node14 -->
<g id="edge19" class="edge">
<title>Node11&#45;&gt;Node14</title>
<path fill="none" stroke="midnightblue" d="M1150.81,-208.15C1255.57,-204.57 1451.6,-194.24 1616,-165 1744.45,-142.15 1819.95,-190.79 1899,-87 1907.35,-76.04 1907.96,-66.47 1899,-56 1886.52,-41.41 1787.62,-28.31 1709.16,-20.05"/>
<polygon fill="midnightblue" stroke="midnightblue" points="1709.52,-16.57 1699.21,-19.02 1708.79,-23.53 1709.52,-16.57"/>
</g>
<!-- Node15 -->
<g id="node15" class="node">
<title>Node15</title>
<g id="a_node15"><a xlink:href="_field_utils_8_h.html" target="_top" xlink:title=" ">
<polygon fill="white" stroke="black" points="1744,-62 1744,-81 1890,-81 1890,-62 1744,-62"/>
<text text-anchor="middle" x="1817" y="-69" font-family="Helvetica,sans-Serif" font-size="10.00">amr&#45;wind/core/FieldUtils.H</text>
</a>
</g>
</g>
<!-- Node11&#45;&gt;Node15 -->
<g id="edge20" class="edge">
<title>Node11&#45;&gt;Node15</title>
<path fill="none" stroke="midnightblue" d="M1150.77,-207.28C1240.65,-202.92 1395.67,-191.92 1526,-165 1623.06,-144.95 1733.55,-104.85 1786.09,-84.68"/>
<polygon fill="midnightblue" stroke="midnightblue" points="1787.44,-87.91 1795.51,-81.04 1784.92,-81.38 1787.44,-87.91"/>
</g>
<!-- Node16 -->
<g id="node16" class="node">
<title>Node16</title>
<g id="a_node16"><a xlink:title=" ">
<polygon fill="white" stroke="#bfbfbf" points="1194.5,-0.5 1194.5,-19.5 1303.5,-19.5 1303.5,-0.5 1194.5,-0.5"/>
<text text-anchor="middle" x="1249" y="-7.5" font-family="Helvetica,sans-Serif" font-size="10.00">AMReX_MultiFab.H</text>
</a>
</g>
</g>
<!-- Node11&#45;&gt;Node16 -->
<g id="edge52" class="edge">
<title>Node11&#45;&gt;Node16</title>
<path fill="none" stroke="midnightblue" d="M1047.71,-201.45C1030.36,-194.59 1009.52,-183.06 999,-165 974.62,-123.14 966.91,-93.16 998,-56 1021.29,-28.16 1117.73,-17.52 1184.05,-13.47"/>
<polygon fill="midnightblue" stroke="midnightblue" points="1184.63,-16.94 1194.42,-12.88 1184.23,-9.96 1184.63,-16.94"/>
</g>
<!-- Node18 -->
<g id="node18" class="node">
<title>Node18</title>
<g id="a_node18"><a xlink:href="_field_8_h.html" target="_top" xlink:title=" ">
<polygon fill="white" stroke="black" points="592,-134.5 592,-153.5 716,-153.5 716,-134.5 592,-134.5"/>
<text text-anchor="middle" x="654" y="-141.5" font-family="Helvetica,sans-Serif" font-size="10.00">amr&#45;wind/core/Field.H</text>
</a>
</g>
</g>
<!-- Node11&#45;&gt;Node18 -->
<g id="edge24" class="edge">
<title>Node11&#45;&gt;Node18</title>
<path fill="none" stroke="midnightblue" d="M1020.4,-201.44C942.73,-189.47 802.03,-167.8 719.42,-155.08"/>
<polygon fill="midnightblue" stroke="midnightblue" points="719.81,-151.59 709.39,-153.53 718.74,-158.51 719.81,-151.59"/>
</g>
<!-- Node24 -->
<g id="node24" class="node">
<title>Node24</title>
<g id="a_node24"><a xlink:href="_int_field_8_h.html" target="_top" xlink:title=" ">
<polygon fill="white" stroke="black" points="1007.5,-134.5 1007.5,-153.5 1144.5,-153.5 1144.5,-134.5 1007.5,-134.5"/>
<text text-anchor="middle" x="1076" y="-141.5" font-family="Helvetica,sans-Serif" font-size="10.00">amr&#45;wind/core/IntField.H</text>
</a>
</g>
</g>
<!-- Node11&#45;&gt;Node24 -->
<g id="edge39" class="edge">
<title>Node11&#45;&gt;Node24</title>
<path fill="none" stroke="midnightblue" d="M1076,-201.23C1076,-191.68 1076,-176.12 1076,-163.78"/>
<polygon fill="midnightblue" stroke="midnightblue" points="1079.5,-163.63 1076,-153.63 1072.5,-163.63 1079.5,-163.63"/>
</g>
<!-- Node25 -->
<g id="node25" class="node">
<title>Node25</title>
<g id="a_node25"><a xlink:title=" ">
<polygon fill="white" stroke="#bfbfbf" points="1007,-62 1007,-81 1119,-81 1119,-62 1007,-62"/>
<text text-anchor="middle" x="1063" y="-69" font-family="Helvetica,sans-Serif" font-size="10.00">AMReX_iMultiFab.H</text>
</a>
</g>
</g>
<!-- Node11&#45;&gt;Node25 -->
<g id="edge53" class="edge">
<title>Node11&#45;&gt;Node25</title>
<path fill="none" stroke="midnightblue" d="M1150.57,-203.45C1202.58,-197.16 1265.5,-185.49 1282,-165 1293.71,-150.46 1293.62,-137.61 1282,-123 1279.32,-119.64 1176.45,-96.95 1112.67,-83.15"/>
<polygon fill="midnightblue" stroke="midnightblue" points="1113.3,-79.71 1102.79,-81.02 1111.82,-86.55 1113.3,-79.71"/>
</g>
<!-- Node26 -->
<g id="node26" class="node">
<title>Node26</title>
<g id="a_node26"><a xlink:href="_scratch_field_8_h.html" target="_top" xlink:title=" ">
<polygon fill="white" stroke="black" points="1357,-134.5 1357,-153.5 1517,-153.5 1517,-134.5 1357,-134.5"/>
<text text-anchor="middle" x="1437" y="-141.5" font-family="Helvetica,sans-Serif" font-size="10.00">amr&#45;wind/core/ScratchField.H</text>
</a>
</g>
</g>
<!-- Node11&#45;&gt;Node26 -->
<g id="edge43" class="edge">
<title>Node11&#45;&gt;Node26</title>
<path fill="none" stroke="midnightblue" d="M1123.57,-201.44C1189.53,-189.56 1308.66,-168.11 1379.52,-155.35"/>
<polygon fill="midnightblue" stroke="midnightblue" points="1380.39,-158.75 1389.62,-153.53 1379.15,-151.86 1380.39,-158.75"/>
</g>
<!-- Node29 -->
<g id="node29" class="node">
<title>Node29</title>
<g id="a_node29"><a xlink:title=" ">
<polygon fill="white" stroke="#bfbfbf" points="1163,-134.5 1163,-153.5 1273,-153.5 1273,-134.5 1163,-134.5"/>
<text text-anchor="middle" x="1218" y="-141.5" font-family="Helvetica,sans-Serif" font-size="10.00">AMReX_AmrCore.H</text>
</a>
</g>
</g>
<!-- Node11&#45;&gt;Node29 -->
<g id="edge51" class="edge">
<title>Node11&#45;&gt;Node29</title>
<path fill="none" stroke="midnightblue" d="M1094.86,-201.37C1119.15,-190.25 1161.6,-170.82 1189.76,-157.93"/>
<polygon fill="midnightblue" stroke="midnightblue" points="1191.43,-161.01 1199.07,-153.67 1188.52,-154.65 1191.43,-161.01"/>
</g>
<!-- Node15&#45;&gt;Node14 -->
<g id="edge21" class="edge">
<title>Node15&#45;&gt;Node14</title>
<path fill="none" stroke="midnightblue" d="M1787.49,-61.98C1751.38,-51.55 1690.15,-33.86 1650.15,-22.31"/>
<polygon fill="midnightblue" stroke="midnightblue" points="1651.04,-18.92 1640.46,-19.51 1649.1,-25.65 1651.04,-18.92"/>
</g>
<!-- Node15&#45;&gt;Node16 -->
<g id="edge22" class="edge">
<title>Node15&#45;&gt;Node16</title>
<path fill="none" stroke="midnightblue" d="M1748.49,-61.98C1731.66,-59.95 1713.69,-57.85 1697,-56 1560.61,-40.91 1400.61,-25.36 1313.51,-17.07"/>
<polygon fill="midnightblue" stroke="midnightblue" points="1313.8,-13.58 1303.52,-16.12 1313.14,-20.55 1313.8,-13.58"/>
</g>
<!-- Node17 -->
<g id="node17" class="node">
<title>Node17</title>
<g id="a_node17"><a xlink:title=" ">
<polygon fill="white" stroke="#bfbfbf" points="1755,-0.5 1755,-19.5 1879,-19.5 1879,-0.5 1755,-0.5"/>
<text text-anchor="middle" x="1817" y="-7.5" font-family="Helvetica,sans-Serif" font-size="10.00">AMReX_Interpolater.H</text>
</a>
</g>
</g>
<!-- Node15&#45;&gt;Node17 -->
<g id="edge23" class="edge">
<title>Node15&#45;&gt;Node17</title>
<path fill="none" stroke="midnightblue" d="M1817,-61.98C1817,-53.58 1817,-40.48 1817,-29.66"/>
<polygon fill="midnightblue" stroke="midnightblue" points="1820.5,-29.51 1817,-19.51 1813.5,-29.51 1820.5,-29.51"/>
</g>
<!-- Node18&#45;&gt;Node5 -->
<g id="edge31" class="edge">
<title>Node18&#45;&gt;Node5</title>
<path fill="none" stroke="midnightblue" d="M623.8,-134.5C609.91,-130.73 593.18,-126.39 578,-123 491.99,-103.77 469.13,-105.7 383,-87 377.99,-85.91 372.76,-84.71 367.58,-83.47"/>
<polygon fill="midnightblue" stroke="midnightblue" points="368.28,-80.04 357.74,-81.06 366.62,-86.84 368.28,-80.04"/>
</g>
<!-- Node18&#45;&gt;Node6 -->
<g id="edge30" class="edge">
<title>Node18&#45;&gt;Node6</title>
<path fill="none" stroke="midnightblue" d="M625.35,-134.44C611.2,-130.48 593.82,-126 578,-123 443.45,-97.51 406.7,-111.66 272,-87 266.51,-86 260.77,-84.77 255.13,-83.47"/>
<polygon fill="midnightblue" stroke="midnightblue" points="255.69,-80 245.15,-81.06 254.05,-86.81 255.69,-80"/>
</g>
<!-- Node18&#45;&gt;Node12 -->
<g id="edge25" class="edge">
<title>Node18&#45;&gt;Node12</title>
<path fill="none" stroke="midnightblue" d="M622.64,-134.46C608.96,-130.8 592.72,-126.57 578,-123 502.28,-104.63 363.31,-113.4 416,-56 449.38,-19.64 799.59,-12.6 908.72,-11.29"/>
<polygon fill="midnightblue" stroke="midnightblue" points="908.84,-14.79 918.8,-11.18 908.76,-7.79 908.84,-14.79"/>
</g>
<!-- Node18&#45;&gt;Node13 -->
<g id="edge27" class="edge">
<title>Node18&#45;&gt;Node13</title>
<path fill="none" stroke="midnightblue" d="M674.99,-134.5C705.56,-122.11 762.51,-99.04 797.64,-84.8"/>
<polygon fill="midnightblue" stroke="midnightblue" points="798.98,-88.03 806.94,-81.03 796.35,-81.55 798.98,-88.03"/>
</g>
<!-- Node18&#45;&gt;Node14 -->
<g id="edge33" class="edge">
<title>Node18&#45;&gt;Node14</title>
<path fill="none" stroke="midnightblue" d="M716.16,-139.04C872.38,-128.91 1273.2,-101.83 1332,-87 1365.39,-78.58 1370.23,-66.58 1403,-56 1450.58,-40.63 1505.99,-28.94 1547.65,-21.33"/>
<polygon fill="midnightblue" stroke="midnightblue" points="1548.44,-24.74 1557.66,-19.53 1547.2,-17.85 1548.44,-24.74"/>
</g>
<!-- Node18&#45;&gt;Node16 -->
<g id="edge29" class="edge">
<title>Node18&#45;&gt;Node16</title>
<path fill="none" stroke="midnightblue" d="M666.92,-134.31C682.88,-123.5 710.77,-104.34 734,-87 751.74,-73.76 752.46,-64.27 773,-56 845.98,-26.6 1071.92,-16.07 1184.24,-12.58"/>
<polygon fill="midnightblue" stroke="midnightblue" points="1184.53,-16.07 1194.42,-12.27 1184.32,-9.07 1184.53,-16.07"/>
</g>
<!-- Node19 -->
<g id="node19" class="node">
<title>Node19</title>
<g id="a_node19"><a xlink:title=" ">
<polygon fill="white" stroke="#bfbfbf" points="425,-62 425,-81 483,-81 483,-62 425,-62"/>
<text text-anchor="middle" x="454" y="-69" font-family="Helvetica,sans-Serif" font-size="10.00">memory</text>
</a>
</g>
</g>
<!-- Node18&#45;&gt;Node19 -->
<g id="edge26" class="edge">
<title>Node18&#45;&gt;Node19</title>
<path fill="none" stroke="midnightblue" d="M628.38,-134.42C596.37,-123.64 539.96,-104.44 492,-87 489.9,-86.24 487.73,-85.44 485.55,-84.63"/>
<polygon fill="midnightblue" stroke="midnightblue" points="486.65,-81.3 476.06,-81.05 484.18,-87.85 486.65,-81.3"/>
</g>
<!-- Node20 -->
<g id="node20" class="node">
<title>Node20</title>
<g id="a_node20"><a xlink:title=" ">
<polygon fill="white" stroke="#bfbfbf" points="501,-62 501,-81 565,-81 565,-62 501,-62"/>
<text text-anchor="middle" x="533" y="-69" font-family="Helvetica,sans-Serif" font-size="10.00">algorithm</text>
</a>
</g>
</g>
<!-- Node18&#45;&gt;Node20 -->
<g id="edge28" class="edge">
<title>Node18&#45;&gt;Node20</title>
<path fill="none" stroke="midnightblue" d="M639.16,-134.36C618.57,-122.36 581.1,-100.53 556.64,-86.27"/>
<polygon fill="midnightblue" stroke="midnightblue" points="558.36,-83.23 547.96,-81.22 554.84,-89.27 558.36,-83.23"/>
</g>
<!-- Node21 -->
<g id="node21" class="node">
<title>Node21</title>
<g id="a_node21"><a xlink:href="incflo__enums_8_h.html" target="_top" xlink:title=" ">
<polygon fill="white" stroke="black" points="583.5,-62 583.5,-81 724.5,-81 724.5,-62 583.5,-62"/>
<text text-anchor="middle" x="654" y="-69" font-family="Helvetica,sans-Serif" font-size="10.00">amr&#45;wind/incflo_enums.H</text>
</a>
</g>
</g>
<!-- Node18&#45;&gt;Node21 -->
<g id="edge32" class="edge">
<title>Node18&#45;&gt;Node21</title>
<path fill="none" stroke="midnightblue" d="M654,-134.36C654,-123.68 654,-105.22 654,-91.23"/>
<polygon fill="midnightblue" stroke="midnightblue" points="657.5,-91.22 654,-81.22 650.5,-91.22 657.5,-91.22"/>
</g>
<!-- Node22 -->
<g id="node22" class="node">
<title>Node22</title>
<g id="a_node22"><a xlink:href="_view_field_8_h.html" target="_top" xlink:title=" ">
<polygon fill="white" stroke="black" points="1175,-62 1175,-81 1323,-81 1323,-62 1175,-62"/>
<text text-anchor="middle" x="1249" y="-69" font-family="Helvetica,sans-Serif" font-size="10.00">amr&#45;wind/core/ViewField.H</text>
</a>
</g>
</g>
<!-- Node18&#45;&gt;Node22 -->
<g id="edge34" class="edge">
<title>Node18&#45;&gt;Node22</title>
<path fill="none" stroke="midnightblue" d="M716.12,-135.69C806.69,-125.04 980.3,-104.57 1128,-87 1140.89,-85.47 1154.55,-83.83 1167.88,-82.24"/>
<polygon fill="midnightblue" stroke="midnightblue" points="1168.47,-85.69 1177.98,-81.03 1167.64,-78.74 1168.47,-85.69"/>
</g>
<!-- Node22&#45;&gt;Node12 -->
<g id="edge35" class="edge">
<title>Node22&#45;&gt;Node12</title>
<path fill="none" stroke="midnightblue" d="M1204.87,-61.98C1142.05,-49.84 1028.34,-27.87 972.99,-17.18"/>
<polygon fill="midnightblue" stroke="midnightblue" points="973.53,-13.72 963.05,-15.26 972.2,-20.59 973.53,-13.72"/>
</g>
<!-- Node22&#45;&gt;Node14 -->
<g id="edge36" class="edge">
<title>Node22&#45;&gt;Node14</title>
<path fill="none" stroke="midnightblue" d="M1300.87,-61.98C1366.46,-51.19 1479.25,-32.65 1549.23,-21.15"/>
<polygon fill="midnightblue" stroke="midnightblue" points="1549.93,-24.58 1559.23,-19.51 1548.8,-17.68 1549.93,-24.58"/>
</g>
<!-- Node22&#45;&gt;Node16 -->
<g id="edge37" class="edge">
<title>Node22&#45;&gt;Node16</title>
<path fill="none" stroke="midnightblue" d="M1249,-61.98C1249,-53.58 1249,-40.48 1249,-29.66"/>
<polygon fill="midnightblue" stroke="midnightblue" points="1252.5,-29.51 1249,-19.51 1245.5,-29.51 1252.5,-29.51"/>
</g>
<!-- Node23 -->
<g id="node23" class="node">
<title>Node23</title>
<g id="a_node23"><a xlink:title=" ">
<polygon fill="white" stroke="#bfbfbf" points="1369,-0.5 1369,-19.5 1467,-19.5 1467,-0.5 1369,-0.5"/>
<text text-anchor="middle" x="1418" y="-7.5" font-family="Helvetica,sans-Serif" font-size="10.00">AMReX_Vector.H</text>
</a>
</g>
</g>
<!-- Node22&#45;&gt;Node23 -->
<g id="edge38" class="edge">
<title>Node22&#45;&gt;Node23</title>
<path fill="none" stroke="midnightblue" d="M1273.21,-61.98C1302.33,-51.72 1351.37,-34.46 1384.2,-22.9"/>
<polygon fill="midnightblue" stroke="midnightblue" points="1385.56,-26.13 1393.83,-19.51 1383.24,-19.53 1385.56,-26.13"/>
</g>
<!-- Node24&#45;&gt;Node12 -->
<g id="edge40" class="edge">
<title>Node24&#45;&gt;Node12</title>
<path fill="none" stroke="midnightblue" d="M1061.48,-134.46C1045.02,-124.38 1017.89,-106.48 998,-87 979.48,-68.86 962.22,-44.35 951.65,-28.13"/>
<polygon fill="midnightblue" stroke="midnightblue" points="954.57,-26.2 946.24,-19.65 948.66,-29.96 954.57,-26.2"/>
</g>
<!-- Node24&#45;&gt;Node14 -->
<g id="edge41" class="edge">
<title>Node24&#45;&gt;Node14</title>
<path fill="none" stroke="midnightblue" d="M1106.2,-134.45C1120.59,-130.58 1138.1,-126.18 1154,-123 1263.65,-101.08 1294.73,-114.94 1403,-87 1440.73,-77.27 1448.43,-69.44 1485,-56 1515.99,-44.61 1551.41,-32 1576.78,-23.03"/>
<polygon fill="midnightblue" stroke="midnightblue" points="1578.06,-26.29 1586.33,-19.66 1575.73,-19.69 1578.06,-26.29"/>
</g>
<!-- Node24&#45;&gt;Node25 -->
<g id="edge42" class="edge">
<title>Node24&#45;&gt;Node25</title>
<path fill="none" stroke="midnightblue" d="M1074.41,-134.36C1072.44,-123.68 1069.03,-105.22 1066.45,-91.23"/>
<polygon fill="midnightblue" stroke="midnightblue" points="1069.86,-90.41 1064.61,-81.22 1062.98,-91.68 1069.86,-90.41"/>
</g>
<!-- Node26&#45;&gt;Node12 -->
<g id="edge44" class="edge">
<title>Node26&#45;&gt;Node12</title>
<path fill="none" stroke="midnightblue" d="M1379.78,-134.46C1311.86,-123.76 1203.15,-104.67 1166,-87 1146.32,-77.64 1147.53,-65.68 1128,-56 1077.27,-30.85 1011.71,-19.28 973.21,-14.33"/>
<polygon fill="midnightblue" stroke="midnightblue" points="973.46,-10.83 963.11,-13.1 972.61,-17.78 973.46,-10.83"/>
</g>
<!-- Node26&#45;&gt;Node14 -->
<g id="edge46" class="edge">
<title>Node26&#45;&gt;Node14</title>
<path fill="none" stroke="midnightblue" d="M1517.3,-136.59C1585.11,-129.31 1674.66,-114.66 1697,-87 1705.66,-76.28 1704.14,-67.79 1697,-56 1687.59,-40.46 1670.85,-30.02 1654.62,-23.15"/>
<polygon fill="midnightblue" stroke="midnightblue" points="1655.77,-19.85 1645.18,-19.51 1653.25,-26.37 1655.77,-19.85"/>
</g>
<!-- Node26&#45;&gt;Node16 -->
<g id="edge48" class="edge">
<title>Node26&#45;&gt;Node16</title>
<path fill="none" stroke="midnightblue" d="M1427.93,-134.44C1410.31,-118.04 1369.85,-81.59 1332,-56 1314.18,-43.95 1292.81,-32.43 1276.22,-24.06"/>
<polygon fill="midnightblue" stroke="midnightblue" points="1277.59,-20.83 1267.07,-19.52 1274.47,-27.1 1277.59,-20.83"/>
</g>
<!-- Node26&#45;&gt;Node22 -->
<g id="edge47" class="edge">
<title>Node26&#45;&gt;Node22</title>
<path fill="none" stroke="midnightblue" d="M1414.32,-134.5C1381.15,-122.06 1319.24,-98.84 1281.31,-84.62"/>
<polygon fill="midnightblue" stroke="midnightblue" points="1282.35,-81.27 1271.76,-81.03 1279.89,-87.82 1282.35,-81.27"/>
</g>
<!-- Node26&#45;&gt;Node23 -->
<g id="edge49" class="edge">
<title>Node26&#45;&gt;Node23</title>
<path fill="none" stroke="midnightblue" d="M1435.75,-134.34C1432.71,-113.17 1424.83,-58.45 1420.67,-29.53"/>
<polygon fill="midnightblue" stroke="midnightblue" points="1424.12,-28.92 1419.23,-19.52 1417.19,-29.92 1424.12,-28.92"/>
</g>
<!-- Node27 -->
<g id="node27" class="node">
<title>Node27</title>
<g id="a_node27"><a xlink:title=" ">
<polygon fill="white" stroke="#bfbfbf" points="1493.5,-62 1493.5,-81 1538.5,-81 1538.5,-62 1493.5,-62"/>
<text text-anchor="middle" x="1516" y="-69" font-family="Helvetica,sans-Serif" font-size="10.00">utility</text>
</a>
</g>
</g>
<!-- Node26&#45;&gt;Node27 -->
<g id="edge45" class="edge">
<title>Node26&#45;&gt;Node27</title>
<path fill="none" stroke="midnightblue" d="M1446.69,-134.36C1459.6,-122.83 1482.67,-102.24 1498.63,-88"/>
<polygon fill="midnightblue" stroke="midnightblue" points="1501.1,-90.49 1506.23,-81.22 1496.44,-85.26 1501.1,-90.49"/>
</g>
<!-- Node28 -->
<g id="node28" class="node">
<title>Node28</title>
<g id="a_node28"><a xlink:title=" ">
<polygon fill="white" stroke="#bfbfbf" points="1556.5,-62 1556.5,-81 1687.5,-81 1687.5,-62 1556.5,-62"/>
<text text-anchor="middle" x="1622" y="-69" font-family="Helvetica,sans-Serif" font-size="10.00">AMReX_PhysBCFunct.H</text>
</a>
</g>
</g>
<!-- Node26&#45;&gt;Node28 -->
<g id="edge50" class="edge">
<title>Node26&#45;&gt;Node28</title>
<path fill="none" stroke="midnightblue" d="M1459.32,-134.5C1491.96,-122.06 1552.88,-98.84 1590.2,-84.62"/>
<polygon fill="midnightblue" stroke="midnightblue" points="1591.51,-87.87 1599.61,-81.03 1589.01,-81.32 1591.51,-87.87"/>
</g>
</g>
</svg>
