<?xml version="1.0" encoding="UTF-8" standalone="no"?>
<!DOCTYPE svg PUBLIC "-//W3C//DTD SVG 1.1//EN"
 "http://www.w3.org/Graphics/SVG/1.1/DTD/svg11.dtd">
<!-- Generated by graphviz version 2.43.0 (0)
 -->
<!-- Title: incflo_godunov_predict.cpp Pages: 1 -->
<!--zoomable 341 -->
<svg id="main" version="1.1" xmlns="http://www.w3.org/2000/svg" xmlns:xlink="http://www.w3.org/1999/xlink" xml:space="preserve" onload="init(evt)">
<style type="text/css"><![CDATA[
.edge:hover path { stroke: red; }
.edge:hover polygon { stroke: red; fill: red; }
]]></style>
<script type="text/javascript"><![CDATA[
var edges = document.getElementsByTagName('g');
if (edges && edges.length) {
  for (var i=0;i<edges.length;i++) {
    if (edges[i].id.substr(0,4)=='edge') {
      edges[i].setAttribute('class','edge');
    }
  }
}
]]></script>
        <defs>
                <circle id="rim" cx="0" cy="0" r="7"/>
                <circle id="rim2" cx="0" cy="0" r="3.5"/>
                <g id="zoomPlus">
                        <use xlink:href="#rim" fill="#404040">
                                <set attributeName="fill" to="#808080" begin="zoomplus.mouseover" end="zoomplus.mouseout"/>
                        </use>
                        <path d="M-4,0h8M0,-4v8" fill="none" stroke="white" stroke-width="1.5" pointer-events="none"/>
                </g>
                <g id="zoomMin">
                        <use xlink:href="#rim" fill="#404040">
                                <set attributeName="fill" to="#808080" begin="zoomminus.mouseover" end="zoomminus.mouseout"/>
                        </use>
                        <path d="M-4,0h8" fill="none" stroke="white" stroke-width="1.5" pointer-events="none"/>
                </g>
                <g id="dirArrow">
                        <path fill="none" stroke="white" stroke-width="1.5" d="M0,-3.0v7 M-2.5,-0.5L0,-3.0L2.5,-0.5"/>
                </g>
               <g id="resetDef">
                       <use xlink:href="#rim2" fill="#404040">
                               <set attributeName="fill" to="#808080" begin="reset.mouseover" end="reset.mouseout"/>
                       </use>
               </g>
        </defs>

<script type="text/javascript">
var viewWidth = 1875;
var viewHeight = 341;
var sectionId = 'dynsection-0';
</script>
<script xlink:href="svgpan.js"/>
<svg id="graph" class="graph">
<g id="viewport">
<title>incflo_godunov_predict.cpp</title>
<polygon fill="white" stroke="transparent" points="-4,4 -4,-337 1871,-337 1871,4 -4,4"/>
<!-- Node1 -->
<g id="node1" class="node">
<title>Node1</title>
<g id="a_node1"><a xlink:title=" ">
<polygon fill="#bfbfbf" stroke="black" points="272,-313.5 272,-332.5 421,-332.5 421,-313.5 272,-313.5"/>
<text text-anchor="middle" x="346.5" y="-320.5" font-family="Helvetica,sans-Serif" font-size="10.00">incflo_godunov_predict.cpp</text>
</a>
</g>
</g>
<!-- Node2 -->
<g id="node2" class="node">
<title>Node2</title>
<g id="a_node2"><a xlink:href="incflo__godunov__plm_8_h.html" target="_top" xlink:title=" ">
<polygon fill="white" stroke="black" points="87.5,-123.5 87.5,-153.5 215.5,-153.5 215.5,-123.5 87.5,-123.5"/>
<text text-anchor="start" x="95.5" y="-141.5" font-family="Helvetica,sans-Serif" font-size="10.00">amr&#45;wind/convection</text>
<text text-anchor="middle" x="151.5" y="-130.5" font-family="Helvetica,sans-Serif" font-size="10.00">/incflo_godunov_plm.H</text>
</a>
</g>
</g>
<!-- Node1&#45;&gt;Node2 -->
<g id="edge1" class="edge">
<title>Node1&#45;&gt;Node2</title>
<path fill="none" stroke="midnightblue" d="M337.36,-313.44C308.22,-286.18 216.98,-200.78 174.14,-160.69"/>
<polygon fill="midnightblue" stroke="midnightblue" points="176.42,-158.03 166.73,-153.75 171.64,-163.14 176.42,-158.03"/>
</g>
<!-- Node6 -->
<g id="node6" class="node">
<title>Node6</title>
<g id="a_node6"><a xlink:title=" ">
<polygon fill="white" stroke="#bfbfbf" points="250,-62 250,-81 349,-81 349,-62 250,-62"/>
<text text-anchor="middle" x="299.5" y="-69" font-family="Helvetica,sans-Serif" font-size="10.00">AMReX_BCRec.H</text>
</a>
</g>
</g>
<!-- Node1&#45;&gt;Node6 -->
<g id="edge9" class="edge">
<title>Node1&#45;&gt;Node6</title>
<path fill="none" stroke="midnightblue" d="M351.14,-313.42C366.04,-284.57 409.74,-189.22 374.5,-123 365.44,-105.97 347.79,-93.66 331.9,-85.45"/>
<polygon fill="midnightblue" stroke="midnightblue" points="333.35,-82.26 322.82,-81.09 330.32,-88.57 333.35,-82.26"/>
</g>
<!-- Node7 -->
<g id="node7" class="node">
<title>Node7</title>
<g id="a_node7"><a xlink:href="incflo__godunov__ppm_8_h.html" target="_top" xlink:title=" ">
<polygon fill="white" stroke="black" points="234,-123.5 234,-153.5 365,-153.5 365,-123.5 234,-123.5"/>
<text text-anchor="start" x="242" y="-141.5" font-family="Helvetica,sans-Serif" font-size="10.00">amr&#45;wind/convection</text>
<text text-anchor="middle" x="299.5" y="-130.5" font-family="Helvetica,sans-Serif" font-size="10.00">/incflo_godunov_ppm.H</text>
</a>
</g>
</g>
<!-- Node1&#45;&gt;Node7 -->
<g id="edge6" class="edge">
<title>Node1&#45;&gt;Node7</title>
<path fill="none" stroke="midnightblue" d="M344.23,-313.2C337.3,-286.28 316.21,-204.4 305.66,-163.41"/>
<polygon fill="midnightblue" stroke="midnightblue" points="309.04,-162.51 303.16,-153.69 302.26,-164.25 309.04,-162.51"/>
</g>
<!-- Node8 -->
<g id="node8" class="node">
<title>Node8</title>
<g id="a_node8"><a xlink:href="_godunov_8_h.html" target="_top" xlink:title=" ">
<polygon fill="white" stroke="black" points="698,-246.5 698,-276.5 817,-276.5 817,-246.5 698,-246.5"/>
<text text-anchor="start" x="706" y="-264.5" font-family="Helvetica,sans-Serif" font-size="10.00">amr&#45;wind/convection</text>
<text text-anchor="middle" x="757.5" y="-253.5" font-family="Helvetica,sans-Serif" font-size="10.00">/Godunov.H</text>
</a>
</g>
</g>
<!-- Node1&#45;&gt;Node8 -->
<g id="edge10" class="edge">
<title>Node1&#45;&gt;Node8</title>
<path fill="none" stroke="midnightblue" d="M405.39,-313.48C479.99,-302.67 608.4,-284.09 687.81,-272.59"/>
<polygon fill="midnightblue" stroke="midnightblue" points="688.33,-276.05 697.72,-271.15 687.32,-269.12 688.33,-276.05"/>
</g>
<!-- Node3 -->
<g id="node3" class="node">
<title>Node3</title>
<g id="a_node3"><a xlink:href="incflo__convection___k_8_h.html" target="_top" xlink:title=" ">
<polygon fill="white" stroke="black" points="0,-56.5 0,-86.5 127,-86.5 127,-56.5 0,-56.5"/>
<text text-anchor="start" x="8" y="-74.5" font-family="Helvetica,sans-Serif" font-size="10.00">amr&#45;wind/convection</text>
<text text-anchor="middle" x="63.5" y="-63.5" font-family="Helvetica,sans-Serif" font-size="10.00">/incflo_convection_K.H</text>
</a>
</g>
</g>
<!-- Node2&#45;&gt;Node3 -->
<g id="edge2" class="edge">
<title>Node2&#45;&gt;Node3</title>
<path fill="none" stroke="midnightblue" d="M132.41,-123.4C120.18,-114.37 104.13,-102.51 90.6,-92.52"/>
<polygon fill="midnightblue" stroke="midnightblue" points="92.68,-89.7 82.56,-86.58 88.52,-95.33 92.68,-89.7"/>
</g>
<!-- Node5 -->
<g id="node5" class="node">
<title>Node5</title>
<g id="a_node5"><a xlink:title=" ">
<polygon fill="white" stroke="#bfbfbf" points="145,-62 145,-81 232,-81 232,-62 145,-62"/>
<text text-anchor="middle" x="188.5" y="-69" font-family="Helvetica,sans-Serif" font-size="10.00">AMReX_Gpu.H</text>
</a>
</g>
</g>
<!-- Node2&#45;&gt;Node5 -->
<g id="edge4" class="edge">
<title>Node2&#45;&gt;Node5</title>
<path fill="none" stroke="midnightblue" d="M159.53,-123.4C165.13,-113.56 172.63,-100.38 178.6,-89.89"/>
<polygon fill="midnightblue" stroke="midnightblue" points="181.65,-91.62 183.55,-81.19 175.56,-88.15 181.65,-91.62"/>
</g>
<!-- Node2&#45;&gt;Node6 -->
<g id="edge5" class="edge">
<title>Node2&#45;&gt;Node6</title>
<path fill="none" stroke="midnightblue" d="M183.61,-123.4C209.58,-111.99 245.81,-96.08 270.82,-85.1"/>
<polygon fill="midnightblue" stroke="midnightblue" points="272.38,-88.23 280.13,-81.01 269.57,-81.82 272.38,-88.23"/>
</g>
<!-- Node4 -->
<g id="node4" class="node">
<title>Node4</title>
<g id="a_node4"><a xlink:title=" ">
<polygon fill="white" stroke="#bfbfbf" points="5,-0.5 5,-19.5 122,-19.5 122,-0.5 5,-0.5"/>
<text text-anchor="middle" x="63.5" y="-7.5" font-family="Helvetica,sans-Serif" font-size="10.00">AMReX_FArrayBox.H</text>
</a>
</g>
</g>
<!-- Node3&#45;&gt;Node4 -->
<g id="edge3" class="edge">
<title>Node3&#45;&gt;Node4</title>
<path fill="none" stroke="midnightblue" d="M63.5,-56.4C63.5,-48.47 63.5,-38.46 63.5,-29.86"/>
<polygon fill="midnightblue" stroke="midnightblue" points="67,-29.66 63.5,-19.66 60,-29.66 67,-29.66"/>
</g>
<!-- Node7&#45;&gt;Node5 -->
<g id="edge7" class="edge">
<title>Node7&#45;&gt;Node5</title>
<path fill="none" stroke="midnightblue" d="M275.41,-123.4C256.54,-112.34 230.44,-97.06 211.78,-86.13"/>
<polygon fill="midnightblue" stroke="midnightblue" points="213.43,-83.04 203.03,-81.01 209.89,-89.08 213.43,-83.04"/>
</g>
<!-- Node7&#45;&gt;Node6 -->
<g id="edge8" class="edge">
<title>Node7&#45;&gt;Node6</title>
<path fill="none" stroke="midnightblue" d="M299.5,-123.4C299.5,-114.06 299.5,-101.71 299.5,-91.52"/>
<polygon fill="midnightblue" stroke="midnightblue" points="303,-91.19 299.5,-81.19 296,-91.19 303,-91.19"/>
</g>
<!-- Node9 -->
<g id="node9" class="node">
<title>Node9</title>
<g id="a_node9"><a xlink:href="_field_repo_8_h.html" target="_top" xlink:title=" ">
<polygon fill="white" stroke="black" points="977,-190.5 977,-209.5 1126,-209.5 1126,-190.5 977,-190.5"/>
<text text-anchor="middle" x="1051.5" y="-197.5" font-family="Helvetica,sans-Serif" font-size="10.00">amr&#45;wind/core/FieldRepo.H</text>
</a>
</g>
</g>
<!-- Node8&#45;&gt;Node9 -->
<g id="edge11" class="edge">
<title>Node8&#45;&gt;Node9</title>
<path fill="none" stroke="midnightblue" d="M817.35,-248.39C870.87,-237.56 948.5,-221.85 999.48,-211.53"/>
<polygon fill="midnightblue" stroke="midnightblue" points="1000.2,-214.95 1009.31,-209.54 998.81,-208.09 1000.2,-214.95"/>
</g>
<!-- Node10 -->
<g id="node10" class="node">
<title>Node10</title>
<g id="a_node10"><a xlink:title=" ">
<polygon fill="white" stroke="#bfbfbf" points="1587.5,-0.5 1587.5,-19.5 1631.5,-19.5 1631.5,-0.5 1587.5,-0.5"/>
<text text-anchor="middle" x="1609.5" y="-7.5" font-family="Helvetica,sans-Serif" font-size="10.00">string</text>
</a>
</g>
</g>
<!-- Node9&#45;&gt;Node10 -->
<g id="edge12" class="edge">
<title>Node9&#45;&gt;Node10</title>
<path fill="none" stroke="midnightblue" d="M1126.25,-197.06C1233.02,-193.35 1435,-182.85 1604.5,-154 1720.44,-134.27 1788.63,-180.1 1860.5,-87 1868.92,-76.09 1869.34,-66.57 1860.5,-56 1832.96,-23.09 1703.2,-14.22 1641.82,-11.85"/>
<polygon fill="midnightblue" stroke="midnightblue" points="1641.66,-8.34 1631.54,-11.49 1641.41,-15.34 1641.66,-8.34"/>
</g>
<!-- Node11 -->
<g id="node11" class="node">
<title>Node11</title>
<g id="a_node11"><a xlink:title=" ">
<polygon fill="white" stroke="#bfbfbf" points="724,-62 724,-81 817,-81 817,-62 724,-62"/>
<text text-anchor="middle" x="770.5" y="-69" font-family="Helvetica,sans-Serif" font-size="10.00">unordered_map</text>
</a>
</g>
</g>
<!-- Node9&#45;&gt;Node11 -->
<g id="edge13" class="edge">
<title>Node9&#45;&gt;Node11</title>
<path fill="none" stroke="midnightblue" d="M1032.19,-190.31C983.54,-168.41 855.81,-110.9 798.74,-85.21"/>
<polygon fill="midnightblue" stroke="midnightblue" points="800.13,-82 789.58,-81.09 797.26,-88.39 800.13,-82"/>
</g>
<!-- Node12 -->
<g id="node12" class="node">
<title>Node12</title>
<g id="a_node12"><a xlink:href="_field_desc_types_8_h.html" target="_top" xlink:title=" ">
<polygon fill="white" stroke="black" points="996.5,-0.5 996.5,-19.5 1172.5,-19.5 1172.5,-0.5 996.5,-0.5"/>
<text text-anchor="middle" x="1084.5" y="-7.5" font-family="Helvetica,sans-Serif" font-size="10.00">amr&#45;wind/core/FieldDescTypes.H</text>
</a>
</g>
</g>
<!-- Node9&#45;&gt;Node12 -->
<g id="edge14" class="edge">
<title>Node9&#45;&gt;Node12</title>
<path fill="none" stroke="midnightblue" d="M1051.45,-190.08C1051.47,-175.85 1051.87,-147.15 1054.5,-123 1057.77,-92.93 1058.17,-85.08 1066.5,-56 1069.11,-46.9 1072.9,-37.11 1076.33,-28.99"/>
<polygon fill="midnightblue" stroke="midnightblue" points="1079.56,-30.34 1080.37,-19.78 1073.15,-27.53 1079.56,-30.34"/>
</g>
<!-- Node13 -->
<g id="node13" class="node">
<title>Node13</title>
<g id="a_node13"><a xlink:href="_field_utils_8_h.html" target="_top" xlink:title=" ">
<polygon fill="white" stroke="black" points="835.5,-62 835.5,-81 981.5,-81 981.5,-62 835.5,-62"/>
<text text-anchor="middle" x="908.5" y="-69" font-family="Helvetica,sans-Serif" font-size="10.00">amr&#45;wind/core/FieldUtils.H</text>
</a>
</g>
</g>
<!-- Node9&#45;&gt;Node13 -->
<g id="edge15" class="edge">
<title>Node9&#45;&gt;Node13</title>
<path fill="none" stroke="midnightblue" d="M1041.49,-190.42C1030.98,-181.41 1014.02,-166.78 999.5,-154 973.55,-131.15 943.74,-104.35 925.52,-87.9"/>
<polygon fill="midnightblue" stroke="midnightblue" points="927.78,-85.23 918.02,-81.12 923.09,-90.42 927.78,-85.23"/>
</g>
<!-- Node14 -->
<g id="node14" class="node">
<title>Node14</title>
<g id="a_node14"><a xlink:title=" ">
<polygon fill="white" stroke="#bfbfbf" points="1199,-0.5 1199,-19.5 1308,-19.5 1308,-0.5 1199,-0.5"/>
<text text-anchor="middle" x="1253.5" y="-7.5" font-family="Helvetica,sans-Serif" font-size="10.00">AMReX_MultiFab.H</text>
</a>
</g>
</g>
<!-- Node9&#45;&gt;Node14 -->
<g id="edge47" class="edge">
<title>Node9&#45;&gt;Node14</title>
<path fill="none" stroke="midnightblue" d="M1126.11,-198.64C1206.11,-196.48 1325.58,-187.53 1354.5,-154 1363.5,-143.57 1360.89,-135.2 1354.5,-123 1341.45,-98.1 1322.05,-107.2 1302.5,-87 1285.5,-69.44 1271.06,-45.13 1262.35,-28.77"/>
<polygon fill="midnightblue" stroke="midnightblue" points="1265.39,-27.03 1257.69,-19.75 1259.16,-30.24 1265.39,-27.03"/>
</g>
<!-- Node16 -->
<g id="node16" class="node">
<title>Node16</title>
<g id="a_node16"><a xlink:href="_field_8_h.html" target="_top" xlink:title=" ">
<polygon fill="white" stroke="black" points="614.5,-129 614.5,-148 738.5,-148 738.5,-129 614.5,-129"/>
<text text-anchor="middle" x="676.5" y="-136" font-family="Helvetica,sans-Serif" font-size="10.00">amr&#45;wind/core/Field.H</text>
</a>
</g>
</g>
<!-- Node9&#45;&gt;Node16 -->
<g id="edge19" class="edge">
<title>Node9&#45;&gt;Node16</title>
<path fill="none" stroke="midnightblue" d="M997.77,-190.48C929.69,-179.67 812.5,-161.08 740.05,-149.58"/>
<polygon fill="midnightblue" stroke="midnightblue" points="740.55,-146.12 730.13,-148.01 739.46,-153.03 740.55,-146.12"/>
</g>
<!-- Node22 -->
<g id="node22" class="node">
<title>Node22</title>
<g id="a_node22"><a xlink:href="_int_field_8_h.html" target="_top" xlink:title=" ">
<polygon fill="white" stroke="black" points="1080,-129 1080,-148 1217,-148 1217,-129 1080,-129"/>
<text text-anchor="middle" x="1148.5" y="-136" font-family="Helvetica,sans-Serif" font-size="10.00">amr&#45;wind/core/IntField.H</text>
</a>
</g>
</g>
<!-- Node9&#45;&gt;Node22 -->
<g id="edge34" class="edge">
<title>Node9&#45;&gt;Node22</title>
<path fill="none" stroke="midnightblue" d="M1065.4,-190.48C1081.17,-180.8 1107.14,-164.87 1125.85,-153.39"/>
<polygon fill="midnightblue" stroke="midnightblue" points="1127.93,-156.22 1134.63,-148.01 1124.27,-150.25 1127.93,-156.22"/>
</g>
<!-- Node23 -->
<g id="node23" class="node">
<title>Node23</title>
<g id="a_node23"><a xlink:title=" ">
<polygon fill="white" stroke="#bfbfbf" points="1075.5,-62 1075.5,-81 1187.5,-81 1187.5,-62 1075.5,-62"/>
<text text-anchor="middle" x="1131.5" y="-69" font-family="Helvetica,sans-Serif" font-size="10.00">AMReX_iMultiFab.H</text>
</a>
</g>
</g>
<!-- Node9&#45;&gt;Node23 -->
<g id="edge48" class="edge">
<title>Node9&#45;&gt;Node23</title>
<path fill="none" stroke="midnightblue" d="M1052.08,-190.35C1053.43,-175.5 1057.78,-144.67 1071.5,-123 1080.85,-108.23 1095.91,-95.57 1108.6,-86.63"/>
<polygon fill="midnightblue" stroke="midnightblue" points="1110.56,-89.53 1116.91,-81.04 1106.66,-83.72 1110.56,-89.53"/>
</g>
<!-- Node24 -->
<g id="node24" class="node">
<title>Node24</title>
<g id="a_node24"><a xlink:href="_scratch_field_8_h.html" target="_top" xlink:title=" ">
<polygon fill="white" stroke="black" points="1435.5,-129 1435.5,-148 1595.5,-148 1595.5,-129 1435.5,-129"/>
<text text-anchor="middle" x="1515.5" y="-136" font-family="Helvetica,sans-Serif" font-size="10.00">amr&#45;wind/core/ScratchField.H</text>
</a>
</g>
</g>
<!-- Node9&#45;&gt;Node24 -->
<g id="edge38" class="edge">
<title>Node9&#45;&gt;Node24</title>
<path fill="none" stroke="midnightblue" d="M1117.98,-190.48C1202.91,-179.58 1349.6,-160.77 1439.06,-149.3"/>
<polygon fill="midnightblue" stroke="midnightblue" points="1439.67,-152.75 1449.14,-148.01 1438.78,-145.81 1439.67,-152.75"/>
</g>
<!-- Node27 -->
<g id="node27" class="node">
<title>Node27</title>
<g id="a_node27"><a xlink:title=" ">
<polygon fill="white" stroke="#bfbfbf" points="1235.5,-129 1235.5,-148 1345.5,-148 1345.5,-129 1235.5,-129"/>
<text text-anchor="middle" x="1290.5" y="-136" font-family="Helvetica,sans-Serif" font-size="10.00">AMReX_AmrCore.H</text>
</a>
</g>
</g>
<!-- Node9&#45;&gt;Node27 -->
<g id="edge46" class="edge">
<title>Node9&#45;&gt;Node27</title>
<path fill="none" stroke="midnightblue" d="M1085.74,-190.48C1128.07,-179.94 1200.18,-161.99 1246.55,-150.44"/>
<polygon fill="midnightblue" stroke="midnightblue" points="1247.46,-153.82 1256.32,-148.01 1245.77,-147.03 1247.46,-153.82"/>
</g>
<!-- Node13&#45;&gt;Node12 -->
<g id="edge16" class="edge">
<title>Node13&#45;&gt;Node12</title>
<path fill="none" stroke="midnightblue" d="M933.72,-61.98C964.17,-51.68 1015.55,-34.31 1049.74,-22.75"/>
<polygon fill="midnightblue" stroke="midnightblue" points="1050.98,-26.03 1059.33,-19.51 1048.74,-19.4 1050.98,-26.03"/>
</g>
<!-- Node13&#45;&gt;Node14 -->
<g id="edge17" class="edge">
<title>Node13&#45;&gt;Node14</title>
<path fill="none" stroke="midnightblue" d="M957.93,-61.98C1020.31,-51.22 1127.5,-32.73 1194.22,-21.22"/>
<polygon fill="midnightblue" stroke="midnightblue" points="1194.9,-24.66 1204.16,-19.51 1193.71,-17.76 1194.9,-24.66"/>
</g>
<!-- Node15 -->
<g id="node15" class="node">
<title>Node15</title>
<g id="a_node15"><a xlink:title=" ">
<polygon fill="white" stroke="#bfbfbf" points="846.5,-0.5 846.5,-19.5 970.5,-19.5 970.5,-0.5 846.5,-0.5"/>
<text text-anchor="middle" x="908.5" y="-7.5" font-family="Helvetica,sans-Serif" font-size="10.00">AMReX_Interpolater.H</text>
</a>
</g>
</g>
<!-- Node13&#45;&gt;Node15 -->
<g id="edge18" class="edge">
<title>Node13&#45;&gt;Node15</title>
<path fill="none" stroke="midnightblue" d="M908.5,-61.98C908.5,-53.58 908.5,-40.48 908.5,-29.66"/>
<polygon fill="midnightblue" stroke="midnightblue" points="912,-29.51 908.5,-19.51 905,-29.51 912,-29.51"/>
</g>
<!-- Node16&#45;&gt;Node5 -->
<g id="edge26" class="edge">
<title>Node16&#45;&gt;Node5</title>
<path fill="none" stroke="midnightblue" d="M614.3,-133.37C529.28,-127.04 372.29,-112.84 240.5,-87 235.75,-86.07 230.8,-84.92 225.92,-83.69"/>
<polygon fill="midnightblue" stroke="midnightblue" points="226.67,-80.26 216.1,-81.06 224.86,-87.03 226.67,-80.26"/>
</g>
<!-- Node16&#45;&gt;Node6 -->
<g id="edge25" class="edge">
<title>Node16&#45;&gt;Node6</title>
<path fill="none" stroke="midnightblue" d="M614.37,-129.2C550.07,-120.24 446.86,-104.84 358.5,-87 353.14,-85.92 347.52,-84.68 341.98,-83.39"/>
<polygon fill="midnightblue" stroke="midnightblue" points="342.7,-79.96 332.16,-81.04 341.07,-86.77 342.7,-79.96"/>
</g>
<!-- Node16&#45;&gt;Node10 -->
<g id="edge20" class="edge">
<title>Node16&#45;&gt;Node10</title>
<path fill="none" stroke="midnightblue" d="M738.73,-134.78C926.77,-126.43 1478.43,-100.88 1514.5,-87 1547.66,-74.23 1578.26,-45.43 1595.35,-27.17"/>
<polygon fill="midnightblue" stroke="midnightblue" points="1598.08,-29.38 1602.21,-19.62 1592.9,-24.67 1598.08,-29.38"/>
</g>
<!-- Node16&#45;&gt;Node11 -->
<g id="edge22" class="edge">
<title>Node16&#45;&gt;Node11</title>
<path fill="none" stroke="midnightblue" d="M689.18,-128.73C704.68,-118.01 731.14,-99.72 749.66,-86.91"/>
<polygon fill="midnightblue" stroke="midnightblue" points="751.79,-89.69 758.02,-81.13 747.81,-83.94 751.79,-89.69"/>
</g>
<!-- Node16&#45;&gt;Node12 -->
<g id="edge28" class="edge">
<title>Node16&#45;&gt;Node12</title>
<path fill="none" stroke="midnightblue" d="M666.79,-128.93C649.82,-112.96 618.4,-78.23 638.5,-56 641.4,-52.79 855.86,-32.29 986.3,-20.1"/>
<polygon fill="midnightblue" stroke="midnightblue" points="986.69,-23.57 996.32,-19.16 986.04,-16.6 986.69,-23.57"/>
</g>
<!-- Node16&#45;&gt;Node14 -->
<g id="edge24" class="edge">
<title>Node16&#45;&gt;Node14</title>
<path fill="none" stroke="midnightblue" d="M738.77,-131.71C802.78,-124.79 904.91,-111 990.5,-87 1025.62,-77.15 1031.78,-67.19 1066.5,-56 1110.66,-41.77 1161.97,-29.73 1199.66,-21.7"/>
<polygon fill="midnightblue" stroke="midnightblue" points="1200.84,-25.02 1209.91,-19.54 1199.4,-18.17 1200.84,-25.02"/>
</g>
<!-- Node17 -->
<g id="node17" class="node">
<title>Node17</title>
<g id="a_node17"><a xlink:title=" ">
<polygon fill="white" stroke="#bfbfbf" points="647.5,-62 647.5,-81 705.5,-81 705.5,-62 647.5,-62"/>
<text text-anchor="middle" x="676.5" y="-69" font-family="Helvetica,sans-Serif" font-size="10.00">memory</text>
</a>
</g>
</g>
<!-- Node16&#45;&gt;Node17 -->
<g id="edge21" class="edge">
<title>Node16&#45;&gt;Node17</title>
<path fill="none" stroke="midnightblue" d="M676.5,-128.73C676.5,-119.18 676.5,-103.62 676.5,-91.28"/>
<polygon fill="midnightblue" stroke="midnightblue" points="680,-91.13 676.5,-81.13 673,-91.13 680,-91.13"/>
</g>
<!-- Node18 -->
<g id="node18" class="node">
<title>Node18</title>
<g id="a_node18"><a xlink:title=" ">
<polygon fill="white" stroke="#bfbfbf" points="367.5,-62 367.5,-81 431.5,-81 431.5,-62 367.5,-62"/>
<text text-anchor="middle" x="399.5" y="-69" font-family="Helvetica,sans-Serif" font-size="10.00">algorithm</text>
</a>
</g>
</g>
<!-- Node16&#45;&gt;Node18 -->
<g id="edge23" class="edge">
<title>Node16&#45;&gt;Node18</title>
<path fill="none" stroke="midnightblue" d="M628.38,-128.92C580.59,-119.99 505.41,-104.83 441.5,-87 438.55,-86.18 435.5,-85.26 432.46,-84.3"/>
<polygon fill="midnightblue" stroke="midnightblue" points="433.48,-80.95 422.89,-81.13 431.29,-87.6 433.48,-80.95"/>
</g>
<!-- Node19 -->
<g id="node19" class="node">
<title>Node19</title>
<g id="a_node19"><a xlink:href="incflo__enums_8_h.html" target="_top" xlink:title=" ">
<polygon fill="white" stroke="black" points="450,-62 450,-81 591,-81 591,-62 450,-62"/>
<text text-anchor="middle" x="520.5" y="-69" font-family="Helvetica,sans-Serif" font-size="10.00">amr&#45;wind/incflo_enums.H</text>
</a>
</g>
</g>
<!-- Node16&#45;&gt;Node19 -->
<g id="edge27" class="edge">
<title>Node16&#45;&gt;Node19</title>
<path fill="none" stroke="midnightblue" d="M655.78,-128.87C628.86,-117.65 581.64,-97.98 550.72,-85.09"/>
<polygon fill="midnightblue" stroke="midnightblue" points="551.88,-81.78 541.3,-81.17 549.19,-88.24 551.88,-81.78"/>
</g>
<!-- Node20 -->
<g id="node20" class="node">
<title>Node20</title>
<g id="a_node20"><a xlink:href="_view_field_8_h.html" target="_top" xlink:title=" ">
<polygon fill="white" stroke="black" points="1357.5,-62 1357.5,-81 1505.5,-81 1505.5,-62 1357.5,-62"/>
<text text-anchor="middle" x="1431.5" y="-69" font-family="Helvetica,sans-Serif" font-size="10.00">amr&#45;wind/core/ViewField.H</text>
</a>
</g>
</g>
<!-- Node16&#45;&gt;Node20 -->
<g id="edge29" class="edge">
<title>Node16&#45;&gt;Node20</title>
<path fill="none" stroke="midnightblue" d="M738.61,-132.15C873.6,-120.53 1193.92,-92.95 1347.09,-79.77"/>
<polygon fill="midnightblue" stroke="midnightblue" points="1347.71,-83.23 1357.37,-78.88 1347.11,-76.25 1347.71,-83.23"/>
</g>
<!-- Node20&#45;&gt;Node10 -->
<g id="edge30" class="edge">
<title>Node20&#45;&gt;Node10</title>
<path fill="none" stroke="midnightblue" d="M1457,-61.98C1488.85,-51.33 1543.33,-33.12 1577.82,-21.59"/>
<polygon fill="midnightblue" stroke="midnightblue" points="1579.04,-24.87 1587.41,-18.38 1576.82,-18.23 1579.04,-24.87"/>
</g>
<!-- Node20&#45;&gt;Node12 -->
<g id="edge31" class="edge">
<title>Node20&#45;&gt;Node12</title>
<path fill="none" stroke="midnightblue" d="M1381.78,-61.98C1319.04,-51.22 1211.23,-32.73 1144.13,-21.22"/>
<polygon fill="midnightblue" stroke="midnightblue" points="1144.57,-17.75 1134.12,-19.51 1143.39,-24.65 1144.57,-17.75"/>
</g>
<!-- Node20&#45;&gt;Node14 -->
<g id="edge32" class="edge">
<title>Node20&#45;&gt;Node14</title>
<path fill="none" stroke="midnightblue" d="M1406,-61.98C1375.2,-51.68 1323.23,-34.31 1288.65,-22.75"/>
<polygon fill="midnightblue" stroke="midnightblue" points="1289.55,-19.36 1278.96,-19.51 1287.33,-26 1289.55,-19.36"/>
</g>
<!-- Node21 -->
<g id="node21" class="node">
<title>Node21</title>
<g id="a_node21"><a xlink:title=" ">
<polygon fill="white" stroke="#bfbfbf" points="1426.5,-0.5 1426.5,-19.5 1524.5,-19.5 1524.5,-0.5 1426.5,-0.5"/>
<text text-anchor="middle" x="1475.5" y="-7.5" font-family="Helvetica,sans-Serif" font-size="10.00">AMReX_Vector.H</text>
</a>
</g>
</g>
<!-- Node20&#45;&gt;Node21 -->
<g id="edge33" class="edge">
<title>Node20&#45;&gt;Node21</title>
<path fill="none" stroke="midnightblue" d="M1437.8,-61.98C1444.4,-53.05 1454.94,-38.81 1463.19,-27.64"/>
<polygon fill="midnightblue" stroke="midnightblue" points="1466.08,-29.63 1469.21,-19.51 1460.45,-25.47 1466.08,-29.63"/>
</g>
<!-- Node22&#45;&gt;Node10 -->
<g id="edge35" class="edge">
<title>Node22&#45;&gt;Node10</title>
<path fill="none" stroke="midnightblue" d="M1190.9,-128.95C1202.42,-126.81 1214.91,-124.66 1226.5,-123 1305.87,-111.66 1523.28,-137.57 1585.5,-87 1602.49,-73.19 1607.65,-47.41 1609.11,-29.74"/>
<polygon fill="midnightblue" stroke="midnightblue" points="1612.6,-29.9 1609.62,-19.73 1605.61,-29.54 1612.6,-29.9"/>
</g>
<!-- Node22&#45;&gt;Node12 -->
<g id="edge36" class="edge">
<title>Node22&#45;&gt;Node12</title>
<path fill="none" stroke="midnightblue" d="M1160.21,-128.96C1179.43,-113.88 1213.88,-81.71 1196.5,-56 1185.51,-39.74 1167.56,-29.35 1149.23,-22.72"/>
<polygon fill="midnightblue" stroke="midnightblue" points="1150.23,-19.36 1139.64,-19.58 1148.05,-26.02 1150.23,-19.36"/>
</g>
<!-- Node22&#45;&gt;Node23 -->
<g id="edge37" class="edge">
<title>Node22&#45;&gt;Node23</title>
<path fill="none" stroke="midnightblue" d="M1146.21,-128.73C1143.68,-119.09 1139.56,-103.3 1136.31,-90.91"/>
<polygon fill="midnightblue" stroke="midnightblue" points="1139.67,-89.92 1133.76,-81.13 1132.9,-91.69 1139.67,-89.92"/>
</g>
<!-- Node24&#45;&gt;Node10 -->
<g id="edge39" class="edge">
<title>Node24&#45;&gt;Node10</title>
<path fill="none" stroke="midnightblue" d="M1595.8,-136.57C1681.91,-133.68 1810.47,-123.2 1841.5,-87 1897.61,-21.53 1718.04,-12.12 1641.93,-11.02"/>
<polygon fill="midnightblue" stroke="midnightblue" points="1641.95,-7.52 1631.91,-10.91 1641.87,-14.52 1641.95,-7.52"/>
</g>
<!-- Node24&#45;&gt;Node12 -->
<g id="edge41" class="edge">
<title>Node24&#45;&gt;Node12</title>
<path fill="none" stroke="midnightblue" d="M1474.94,-128.95C1432.42,-119.71 1363.82,-104 1305.5,-87 1287.13,-81.64 1175.8,-42.9 1118.51,-22.89"/>
<polygon fill="midnightblue" stroke="midnightblue" points="1119.4,-19.5 1108.8,-19.5 1117.09,-26.11 1119.4,-19.5"/>
</g>
<!-- Node24&#45;&gt;Node14 -->
<g id="edge43" class="edge">
<title>Node24&#45;&gt;Node14</title>
<path fill="none" stroke="midnightblue" d="M1471.18,-128.94C1436.45,-121.12 1387.64,-107.59 1348.5,-87 1332.1,-78.37 1293.56,-45.87 1270.93,-26.28"/>
<polygon fill="midnightblue" stroke="midnightblue" points="1273.22,-23.63 1263.38,-19.71 1268.62,-28.91 1273.22,-23.63"/>
</g>
<!-- Node24&#45;&gt;Node20 -->
<g id="edge42" class="edge">
<title>Node24&#45;&gt;Node20</title>
<path fill="none" stroke="midnightblue" d="M1504.17,-128.73C1490.44,-118.11 1467.1,-100.05 1450.58,-87.26"/>
<polygon fill="midnightblue" stroke="midnightblue" points="1452.7,-84.48 1442.65,-81.13 1448.42,-90.02 1452.7,-84.48"/>
</g>
<!-- Node24&#45;&gt;Node21 -->
<g id="edge44" class="edge">
<title>Node24&#45;&gt;Node21</title>
<path fill="none" stroke="midnightblue" d="M1517.33,-128.57C1520.06,-113.16 1523.95,-80.87 1514.5,-56 1510.26,-44.84 1501.91,-34.59 1494.01,-26.7"/>
<polygon fill="midnightblue" stroke="midnightblue" points="1496.15,-23.91 1486.45,-19.65 1491.38,-29.03 1496.15,-23.91"/>
</g>
<!-- Node25 -->
<g id="node25" class="node">
<title>Node25</title>
<g id="a_node25"><a xlink:title=" ">
<polygon fill="white" stroke="#bfbfbf" points="1638,-62 1638,-81 1683,-81 1683,-62 1638,-62"/>
<text text-anchor="middle" x="1660.5" y="-69" font-family="Helvetica,sans-Serif" font-size="10.00">utility</text>
</a>
</g>
</g>
<!-- Node24&#45;&gt;Node25 -->
<g id="edge40" class="edge">
<title>Node24&#45;&gt;Node25</title>
<path fill="none" stroke="midnightblue" d="M1534.75,-128.87C1559.67,-117.7 1603.29,-98.15 1632.03,-85.26"/>
<polygon fill="midnightblue" stroke="midnightblue" points="1633.47,-88.45 1641.17,-81.17 1630.61,-82.06 1633.47,-88.45"/>
</g>
<!-- Node26 -->
<g id="node26" class="node">
<title>Node26</title>
<g id="a_node26"><a xlink:title=" ">
<polygon fill="white" stroke="#bfbfbf" points="1701,-62 1701,-81 1832,-81 1832,-62 1701,-62"/>
<text text-anchor="middle" x="1766.5" y="-69" font-family="Helvetica,sans-Serif" font-size="10.00">AMReX_PhysBCFunct.H</text>
</a>
</g>
</g>
<!-- Node24&#45;&gt;Node26 -->
<g id="edge45" class="edge">
<title>Node24&#45;&gt;Node26</title>
<path fill="none" stroke="midnightblue" d="M1548.57,-128.94C1593.53,-117.29 1674,-96.45 1723.57,-83.62"/>
<polygon fill="midnightblue" stroke="midnightblue" points="1724.55,-86.98 1733.35,-81.08 1722.8,-80.2 1724.55,-86.98"/>
</g>
</g>
</svg>
        <g id="navigator" transform="translate(0 0)" fill="#404254">
                <rect fill="#f2f5e9" fill-opacity="0.5" stroke="#606060" stroke-width=".5" x="0" y="0" width="60" height="60"/>
                <use id="zoomplus" xlink:href="#zoomPlus" x="17" y="9" onmousedown="handleZoom(evt,'in')"/>
                <use id="zoomminus" xlink:href="#zoomMin" x="42" y="9" onmousedown="handleZoom(evt,'out')"/>
                <use id="reset" xlink:href="#resetDef" x="30" y="36" onmousedown="handleReset()"/>
                <g id="arrowUp" xlink:href="#dirArrow" transform="translate(30 24)" onmousedown="handlePan(0,-1)">
                  <use xlink:href="#rim" fill="#404040">
                        <set attributeName="fill" to="#808080" begin="arrowUp.mouseover" end="arrowUp.mouseout"/>
                  </use>
                  <path fill="none" stroke="white" stroke-width="1.5" d="M0,-3.0v7 M-2.5,-0.5L0,-3.0L2.5,-0.5"/>
                </g>
                <g id="arrowRight" xlink:href="#dirArrow" transform="rotate(90) translate(36 -43)" onmousedown="handlePan(1,0)">
                  <use xlink:href="#rim" fill="#404040">
                        <set attributeName="fill" to="#808080" begin="arrowRight.mouseover" end="arrowRight.mouseout"/>
                  </use>
                  <path fill="none" stroke="white" stroke-width="1.5" d="M0,-3.0v7 M-2.5,-0.5L0,-3.0L2.5,-0.5"/>
                </g>
                <g id="arrowDown" xlink:href="#dirArrow" transform="rotate(180) translate(-30 -48)" onmousedown="handlePan(0,1)">
                  <use xlink:href="#rim" fill="#404040">
                        <set attributeName="fill" to="#808080" begin="arrowDown.mouseover" end="arrowDown.mouseout"/>
                  </use>
                  <path fill="none" stroke="white" stroke-width="1.5" d="M0,-3.0v7 M-2.5,-0.5L0,-3.0L2.5,-0.5"/>
                </g>
                <g id="arrowLeft" xlink:href="#dirArrow" transform="rotate(270) translate(-36 17)" onmousedown="handlePan(-1,0)">
                  <use xlink:href="#rim" fill="#404040">
                        <set attributeName="fill" to="#808080" begin="arrowLeft.mouseover" end="arrowLeft.mouseout"/>
                  </use>
                  <path fill="none" stroke="white" stroke-width="1.5" d="M0,-3.0v7 M-2.5,-0.5L0,-3.0L2.5,-0.5"/>
                </g>
        </g>
        <svg viewBox="0 0 15 15" width="100%" height="30px" preserveAspectRatio="xMaxYMin meet">
         <g id="arrow_out" transform="scale(0.3 0.3)">
          <a xlink:href="incflo__godunov__predict_8cpp__incl_org.svg" target="_base">
           <rect id="button" ry="5" rx="5" y="6" x="6" height="38" width="38"
                fill="#f2f5e9" fill-opacity="0.5" stroke="#606060" stroke-width="1.0"/>
           <path id="arrow"
             d="M 11.500037,31.436501 C 11.940474,20.09759 22.043105,11.32322 32.158766,21.979434 L 37.068811,17.246167 C 37.068811,17.246167 37.088388,32 37.088388,32 L 22.160133,31.978069 C 22.160133,31.978069 26.997745,27.140456 26.997745,27.140456 C 18.528582,18.264221 13.291696,25.230495 11.500037,31.436501 z"
             style="fill:#404040;"/>
          </a>
         </g>
        </svg>
</svg>
