<?xml version="1.0" encoding="UTF-8" standalone="no"?>
<!DOCTYPE svg PUBLIC "-//W3C//DTD SVG 1.1//EN"
 "http://www.w3.org/Graphics/SVG/1.1/DTD/svg11.dtd">
<!-- Generated by graphviz version 2.43.0 (0)
 -->
<!-- Title: incflo_godunov_weno.cpp Pages: 1 -->
<svg width="1702pt" height="330pt"
 viewBox="0.00 0.00 1702.00 330.00" xmlns="http://www.w3.org/2000/svg" xmlns:xlink="http://www.w3.org/1999/xlink">
<g id="graph0" class="graph" transform="scale(1 1) rotate(0) translate(4 326)">
<title>incflo_godunov_weno.cpp</title>
<polygon fill="white" stroke="transparent" points="-4,4 -4,-326 1698,-326 1698,4 -4,4"/>
<!-- Node1 -->
<g id="node1" class="node">
<title>Node1</title>
<g id="a_node1"><a xlink:title=" ">
<polygon fill="#bfbfbf" stroke="black" points="561,-302.5 561,-321.5 703,-321.5 703,-302.5 561,-302.5"/>
<text text-anchor="middle" x="632" y="-309.5" font-family="Helvetica,sans-Serif" font-size="10.00">incflo_godunov_weno.cpp</text>
</a>
</g>
</g>
<!-- Node2 -->
<g id="node2" class="node">
<title>Node2</title>
<g id="a_node2"><a xlink:href="incflo__godunov__weno_8_h.html" target="_top" xlink:title=" ">
<polygon fill="white" stroke="black" points="295.5,-112.5 295.5,-142.5 430.5,-142.5 430.5,-112.5 295.5,-112.5"/>
<text text-anchor="start" x="303.5" y="-130.5" font-family="Helvetica,sans-Serif" font-size="10.00">amr&#45;wind/convection</text>
<text text-anchor="middle" x="363" y="-119.5" font-family="Helvetica,sans-Serif" font-size="10.00">/incflo_godunov_weno.H</text>
</a>
</g>
</g>
<!-- Node1&#45;&gt;Node2 -->
<g id="edge1" class="edge">
<title>Node1&#45;&gt;Node2</title>
<path fill="none" stroke="midnightblue" d="M619.39,-302.44C578.78,-274.89 450.71,-188.01 392.42,-148.46"/>
<polygon fill="midnightblue" stroke="midnightblue" points="394.25,-145.47 384.01,-142.75 390.32,-151.27 394.25,-145.47"/>
</g>
<!-- Node5 -->
<g id="node5" class="node">
<title>Node5</title>
<g id="a_node5"><a xlink:href="_godunov_8_h.html" target="_top" xlink:title=" ">
<polygon fill="white" stroke="black" points="623.5,-235.5 623.5,-265.5 742.5,-265.5 742.5,-235.5 623.5,-235.5"/>
<text text-anchor="start" x="631.5" y="-253.5" font-family="Helvetica,sans-Serif" font-size="10.00">amr&#45;wind/convection</text>
<text text-anchor="middle" x="683" y="-242.5" font-family="Helvetica,sans-Serif" font-size="10.00">/Godunov.H</text>
</a>
</g>
</g>
<!-- Node1&#45;&gt;Node5 -->
<g id="edge4" class="edge">
<title>Node1&#45;&gt;Node5</title>
<path fill="none" stroke="midnightblue" d="M639.31,-302.48C645.83,-294.87 655.66,-283.4 664.34,-273.26"/>
<polygon fill="midnightblue" stroke="midnightblue" points="667.13,-275.39 670.98,-265.52 661.81,-270.84 667.13,-275.39"/>
</g>
<!-- Node3 -->
<g id="node3" class="node">
<title>Node3</title>
<g id="a_node3"><a xlink:title=" ">
<polygon fill="white" stroke="#bfbfbf" points="319.5,-56.5 319.5,-75.5 406.5,-75.5 406.5,-56.5 319.5,-56.5"/>
<text text-anchor="middle" x="363" y="-63.5" font-family="Helvetica,sans-Serif" font-size="10.00">AMReX_Gpu.H</text>
</a>
</g>
</g>
<!-- Node2&#45;&gt;Node3 -->
<g id="edge2" class="edge">
<title>Node2&#45;&gt;Node3</title>
<path fill="none" stroke="midnightblue" d="M363,-112.4C363,-104.47 363,-94.46 363,-85.86"/>
<polygon fill="midnightblue" stroke="midnightblue" points="366.5,-85.66 363,-75.66 359.5,-85.66 366.5,-85.66"/>
</g>
<!-- Node4 -->
<g id="node4" class="node">
<title>Node4</title>
<g id="a_node4"><a xlink:title=" ">
<polygon fill="white" stroke="#bfbfbf" points="202.5,-56.5 202.5,-75.5 301.5,-75.5 301.5,-56.5 202.5,-56.5"/>
<text text-anchor="middle" x="252" y="-63.5" font-family="Helvetica,sans-Serif" font-size="10.00">AMReX_BCRec.H</text>
</a>
</g>
</g>
<!-- Node2&#45;&gt;Node4 -->
<g id="edge3" class="edge">
<title>Node2&#45;&gt;Node4</title>
<path fill="none" stroke="midnightblue" d="M336.69,-112.4C318.74,-102.77 295.08,-90.09 277.33,-80.58"/>
<polygon fill="midnightblue" stroke="midnightblue" points="278.62,-77.3 268.15,-75.66 275.31,-83.47 278.62,-77.3"/>
</g>
<!-- Node6 -->
<g id="node6" class="node">
<title>Node6</title>
<g id="a_node6"><a xlink:href="_field_repo_8_h.html" target="_top" xlink:title=" ">
<polygon fill="white" stroke="black" points="839.5,-179.5 839.5,-198.5 988.5,-198.5 988.5,-179.5 839.5,-179.5"/>
<text text-anchor="middle" x="914" y="-186.5" font-family="Helvetica,sans-Serif" font-size="10.00">amr&#45;wind/core/FieldRepo.H</text>
</a>
</g>
</g>
<!-- Node5&#45;&gt;Node6 -->
<g id="edge5" class="edge">
<title>Node5&#45;&gt;Node6</title>
<path fill="none" stroke="midnightblue" d="M737.45,-235.47C778.17,-224.99 833.1,-210.84 870.82,-201.12"/>
<polygon fill="midnightblue" stroke="midnightblue" points="872.16,-204.39 880.98,-198.51 870.42,-197.61 872.16,-204.39"/>
</g>
<!-- Node7 -->
<g id="node7" class="node">
<title>Node7</title>
<g id="a_node7"><a xlink:title=" ">
<polygon fill="white" stroke="#bfbfbf" points="1404,-0.5 1404,-19.5 1448,-19.5 1448,-0.5 1404,-0.5"/>
<text text-anchor="middle" x="1426" y="-7.5" font-family="Helvetica,sans-Serif" font-size="10.00">string</text>
</a>
</g>
</g>
<!-- Node6&#45;&gt;Node7 -->
<g id="edge6" class="edge">
<title>Node6&#45;&gt;Node7</title>
<path fill="none" stroke="midnightblue" d="M988.59,-186.85C1136.19,-183.93 1460.43,-174.08 1567,-143 1626.76,-125.57 1658.21,-129.52 1690,-76 1694.54,-68.36 1695.73,-62.79 1690,-56 1660.73,-21.32 1522.6,-13.36 1458.64,-11.54"/>
<polygon fill="midnightblue" stroke="midnightblue" points="1458.41,-8.03 1448.32,-11.28 1458.23,-15.03 1458.41,-8.03"/>
</g>
<!-- Node8 -->
<g id="node8" class="node">
<title>Node8</title>
<g id="a_node8"><a xlink:title=" ">
<polygon fill="white" stroke="#bfbfbf" points="424.5,-56.5 424.5,-75.5 517.5,-75.5 517.5,-56.5 424.5,-56.5"/>
<text text-anchor="middle" x="471" y="-63.5" font-family="Helvetica,sans-Serif" font-size="10.00">unordered_map</text>
</a>
</g>
</g>
<!-- Node6&#45;&gt;Node8 -->
<g id="edge7" class="edge">
<title>Node6&#45;&gt;Node8</title>
<path fill="none" stroke="midnightblue" d="M872.65,-179.5C832.64,-171.05 770.37,-157.32 717,-143 641.02,-122.62 553.25,-94.34 505.81,-78.66"/>
<polygon fill="midnightblue" stroke="midnightblue" points="506.91,-75.34 496.32,-75.51 504.71,-81.98 506.91,-75.34"/>
</g>
<!-- Node9 -->
<g id="node9" class="node">
<title>Node9</title>
<g id="a_node9"><a xlink:href="_field_desc_types_8_h.html" target="_top" xlink:title=" ">
<polygon fill="white" stroke="black" points="779,-0.5 779,-19.5 955,-19.5 955,-0.5 779,-0.5"/>
<text text-anchor="middle" x="867" y="-7.5" font-family="Helvetica,sans-Serif" font-size="10.00">amr&#45;wind/core/FieldDescTypes.H</text>
</a>
</g>
</g>
<!-- Node6&#45;&gt;Node9 -->
<g id="edge8" class="edge">
<title>Node6&#45;&gt;Node9</title>
<path fill="none" stroke="midnightblue" d="M839.43,-187.73C695.73,-186.37 385.8,-179.2 286,-143 238.11,-125.63 216.22,-121.34 193,-76 188.95,-68.09 186.93,-62.49 193,-56 231.44,-14.91 590.98,-10.14 768.62,-10.32"/>
<polygon fill="midnightblue" stroke="midnightblue" points="768.75,-13.82 778.76,-10.34 768.76,-6.82 768.75,-13.82"/>
</g>
<!-- Node10 -->
<g id="node10" class="node">
<title>Node10</title>
<g id="a_node10"><a xlink:href="_field_utils_8_h.html" target="_top" xlink:title=" ">
<polygon fill="white" stroke="black" points="0,-56.5 0,-75.5 146,-75.5 146,-56.5 0,-56.5"/>
<text text-anchor="middle" x="73" y="-63.5" font-family="Helvetica,sans-Serif" font-size="10.00">amr&#45;wind/core/FieldUtils.H</text>
</a>
</g>
</g>
<!-- Node6&#45;&gt;Node10 -->
<g id="edge9" class="edge">
<title>Node6&#45;&gt;Node10</title>
<path fill="none" stroke="midnightblue" d="M839.33,-186.28C661.23,-181.79 221.7,-168.28 160,-143 129.06,-130.32 101.52,-101.93 86.07,-83.66"/>
<polygon fill="midnightblue" stroke="midnightblue" points="88.54,-81.15 79.5,-75.62 83.12,-85.58 88.54,-81.15"/>
</g>
<!-- Node11 -->
<g id="node11" class="node">
<title>Node11</title>
<g id="a_node11"><a xlink:title=" ">
<polygon fill="white" stroke="#bfbfbf" points="1053.5,-0.5 1053.5,-19.5 1162.5,-19.5 1162.5,-0.5 1053.5,-0.5"/>
<text text-anchor="middle" x="1108" y="-7.5" font-family="Helvetica,sans-Serif" font-size="10.00">AMReX_MultiFab.H</text>
</a>
</g>
</g>
<!-- Node6&#45;&gt;Node11 -->
<g id="edge41" class="edge">
<title>Node6&#45;&gt;Node11</title>
<path fill="none" stroke="midnightblue" d="M975.22,-179.43C1019.04,-172 1072.85,-159.8 1088,-143 1116.25,-111.69 1114.45,-58.21 1111.04,-29.89"/>
<polygon fill="midnightblue" stroke="midnightblue" points="1114.47,-29.16 1109.61,-19.74 1107.54,-30.13 1114.47,-29.16"/>
</g>
<!-- Node13 -->
<g id="node13" class="node">
<title>Node13</title>
<g id="a_node13"><a xlink:href="_field_8_h.html" target="_top" xlink:title=" ">
<polygon fill="white" stroke="black" points="726,-118 726,-137 850,-137 850,-118 726,-118"/>
<text text-anchor="middle" x="788" y="-125" font-family="Helvetica,sans-Serif" font-size="10.00">amr&#45;wind/core/Field.H</text>
</a>
</g>
</g>
<!-- Node6&#45;&gt;Node13 -->
<g id="edge13" class="edge">
<title>Node6&#45;&gt;Node13</title>
<path fill="none" stroke="midnightblue" d="M895.95,-179.48C874.8,-169.49 839.56,-152.85 815.12,-141.31"/>
<polygon fill="midnightblue" stroke="midnightblue" points="816.56,-138.11 806.02,-137.01 813.57,-144.44 816.56,-138.11"/>
</g>
<!-- Node19 -->
<g id="node19" class="node">
<title>Node19</title>
<g id="a_node19"><a xlink:href="_int_field_8_h.html" target="_top" xlink:title=" ">
<polygon fill="white" stroke="black" points="942.5,-118 942.5,-137 1079.5,-137 1079.5,-118 942.5,-118"/>
<text text-anchor="middle" x="1011" y="-125" font-family="Helvetica,sans-Serif" font-size="10.00">amr&#45;wind/core/IntField.H</text>
</a>
</g>
</g>
<!-- Node6&#45;&gt;Node19 -->
<g id="edge28" class="edge">
<title>Node6&#45;&gt;Node19</title>
<path fill="none" stroke="midnightblue" d="M927.9,-179.48C943.67,-169.8 969.64,-153.87 988.35,-142.39"/>
<polygon fill="midnightblue" stroke="midnightblue" points="990.43,-145.22 997.13,-137.01 986.77,-139.25 990.43,-145.22"/>
</g>
<!-- Node20 -->
<g id="node20" class="node">
<title>Node20</title>
<g id="a_node20"><a xlink:title=" ">
<polygon fill="white" stroke="#bfbfbf" points="930,-56.5 930,-75.5 1042,-75.5 1042,-56.5 930,-56.5"/>
<text text-anchor="middle" x="986" y="-63.5" font-family="Helvetica,sans-Serif" font-size="10.00">AMReX_iMultiFab.H</text>
</a>
</g>
</g>
<!-- Node6&#45;&gt;Node20 -->
<g id="edge42" class="edge">
<title>Node6&#45;&gt;Node20</title>
<path fill="none" stroke="midnightblue" d="M914.45,-179.36C915.58,-164.53 919.51,-133.72 933,-112 940.56,-99.82 952.52,-89.26 963.16,-81.44"/>
<polygon fill="midnightblue" stroke="midnightblue" points="965.44,-84.11 971.66,-75.53 961.45,-78.36 965.44,-84.11"/>
</g>
<!-- Node21 -->
<g id="node21" class="node">
<title>Node21</title>
<g id="a_node21"><a xlink:href="_scratch_field_8_h.html" target="_top" xlink:title=" ">
<polygon fill="white" stroke="black" points="1270,-118 1270,-137 1430,-137 1430,-118 1270,-118"/>
<text text-anchor="middle" x="1350" y="-125" font-family="Helvetica,sans-Serif" font-size="10.00">amr&#45;wind/core/ScratchField.H</text>
</a>
</g>
</g>
<!-- Node6&#45;&gt;Node21 -->
<g id="edge32" class="edge">
<title>Node6&#45;&gt;Node21</title>
<path fill="none" stroke="midnightblue" d="M976.47,-179.48C1056.11,-168.61 1193.55,-149.85 1277.66,-138.37"/>
<polygon fill="midnightblue" stroke="midnightblue" points="1278.21,-141.83 1287.65,-137.01 1277.27,-134.89 1278.21,-141.83"/>
</g>
<!-- Node24 -->
<g id="node24" class="node">
<title>Node24</title>
<g id="a_node24"><a xlink:title=" ">
<polygon fill="white" stroke="#bfbfbf" points="1448,-118 1448,-137 1558,-137 1558,-118 1448,-118"/>
<text text-anchor="middle" x="1503" y="-125" font-family="Helvetica,sans-Serif" font-size="10.00">AMReX_AmrCore.H</text>
</a>
</g>
</g>
<!-- Node6&#45;&gt;Node24 -->
<g id="edge40" class="edge">
<title>Node6&#45;&gt;Node24</title>
<path fill="none" stroke="midnightblue" d="M988.72,-184.83C1090.89,-179.75 1279.68,-167.76 1439,-143 1445.66,-141.97 1452.65,-140.64 1459.47,-139.2"/>
<polygon fill="midnightblue" stroke="midnightblue" points="1460.27,-142.61 1469.29,-137.05 1458.77,-135.77 1460.27,-142.61"/>
</g>
<!-- Node10&#45;&gt;Node9 -->
<g id="edge10" class="edge">
<title>Node10&#45;&gt;Node9</title>
<path fill="none" stroke="midnightblue" d="M146.08,-57.23C150.79,-56.79 155.46,-56.38 160,-56 377.02,-37.88 632.07,-23.29 768.71,-16.03"/>
<polygon fill="midnightblue" stroke="midnightblue" points="768.94,-19.52 778.74,-15.49 768.57,-12.53 768.94,-19.52"/>
</g>
<!-- Node10&#45;&gt;Node11 -->
<g id="edge11" class="edge">
<title>Node10&#45;&gt;Node11</title>
<path fill="none" stroke="midnightblue" d="M146.27,-59.17C161.7,-58.04 177.88,-56.92 193,-56 535.41,-35.17 621.47,-38.7 964,-20 989.94,-18.58 1018.5,-16.84 1043.29,-15.26"/>
<polygon fill="midnightblue" stroke="midnightblue" points="1043.55,-18.75 1053.31,-14.62 1043.11,-11.77 1043.55,-18.75"/>
</g>
<!-- Node12 -->
<g id="node12" class="node">
<title>Node12</title>
<g id="a_node12"><a xlink:title=" ">
<polygon fill="white" stroke="#bfbfbf" points="11,-0.5 11,-19.5 135,-19.5 135,-0.5 11,-0.5"/>
<text text-anchor="middle" x="73" y="-7.5" font-family="Helvetica,sans-Serif" font-size="10.00">AMReX_Interpolater.H</text>
</a>
</g>
</g>
<!-- Node10&#45;&gt;Node12 -->
<g id="edge12" class="edge">
<title>Node10&#45;&gt;Node12</title>
<path fill="none" stroke="midnightblue" d="M73,-56.08C73,-49.01 73,-38.86 73,-29.99"/>
<polygon fill="midnightblue" stroke="midnightblue" points="76.5,-29.75 73,-19.75 69.5,-29.75 76.5,-29.75"/>
</g>
<!-- Node13&#45;&gt;Node3 -->
<g id="edge20" class="edge">
<title>Node13&#45;&gt;Node3</title>
<path fill="none" stroke="midnightblue" d="M725.86,-118.8C653.84,-109.71 531.33,-93.76 416.68,-76.22"/>
<polygon fill="midnightblue" stroke="midnightblue" points="417.09,-72.74 406.67,-74.68 416.03,-79.66 417.09,-72.74"/>
</g>
<!-- Node13&#45;&gt;Node4 -->
<g id="edge19" class="edge">
<title>Node13&#45;&gt;Node4</title>
<path fill="none" stroke="midnightblue" d="M725.63,-120.89C636.23,-112.63 466.24,-96.11 311.8,-76.18"/>
<polygon fill="midnightblue" stroke="midnightblue" points="312.02,-72.68 301.65,-74.87 311.12,-79.63 312.02,-72.68"/>
</g>
<!-- Node13&#45;&gt;Node7 -->
<g id="edge14" class="edge">
<title>Node13&#45;&gt;Node7</title>
<path fill="none" stroke="midnightblue" d="M850.08,-120.16C875.74,-117.58 905.8,-114.59 933,-112 1109.81,-95.16 1163.86,-136.09 1331,-76 1361.38,-65.08 1391.25,-42.05 1409.16,-26.55"/>
<polygon fill="midnightblue" stroke="midnightblue" points="1411.79,-28.89 1416.94,-19.63 1407.14,-23.66 1411.79,-28.89"/>
</g>
<!-- Node13&#45;&gt;Node8 -->
<g id="edge16" class="edge">
<title>Node13&#45;&gt;Node8</title>
<path fill="none" stroke="midnightblue" d="M742.58,-117.98C685.5,-107.26 587.58,-88.88 526.23,-77.37"/>
<polygon fill="midnightblue" stroke="midnightblue" points="526.81,-73.91 516.33,-75.51 525.52,-80.79 526.81,-73.91"/>
</g>
<!-- Node13&#45;&gt;Node9 -->
<g id="edge22" class="edge">
<title>Node13&#45;&gt;Node9</title>
<path fill="none" stroke="midnightblue" d="M788.52,-117.95C789.74,-103.89 793.78,-75.52 807,-56 815.67,-43.2 829.2,-32.59 841.23,-24.9"/>
<polygon fill="midnightblue" stroke="midnightblue" points="843.26,-27.76 850.02,-19.59 839.65,-21.76 843.26,-27.76"/>
</g>
<!-- Node13&#45;&gt;Node11 -->
<g id="edge18" class="edge">
<title>Node13&#45;&gt;Node11</title>
<path fill="none" stroke="midnightblue" d="M804.09,-117.94C839.15,-99.28 919.47,-56.58 921,-56 962.11,-40.44 1010.38,-28.99 1047.58,-21.53"/>
<polygon fill="midnightblue" stroke="midnightblue" points="1048.62,-24.89 1057.76,-19.53 1047.28,-18.02 1048.62,-24.89"/>
</g>
<!-- Node14 -->
<g id="node14" class="node">
<title>Node14</title>
<g id="a_node14"><a xlink:title=" ">
<polygon fill="white" stroke="#bfbfbf" points="816,-56.5 816,-75.5 874,-75.5 874,-56.5 816,-56.5"/>
<text text-anchor="middle" x="845" y="-63.5" font-family="Helvetica,sans-Serif" font-size="10.00">memory</text>
</a>
</g>
</g>
<!-- Node13&#45;&gt;Node14 -->
<g id="edge15" class="edge">
<title>Node13&#45;&gt;Node14</title>
<path fill="none" stroke="midnightblue" d="M796.17,-117.98C804.89,-108.87 818.9,-94.24 829.69,-82.98"/>
<polygon fill="midnightblue" stroke="midnightblue" points="832.46,-85.15 836.85,-75.51 827.4,-80.31 832.46,-85.15"/>
</g>
<!-- Node15 -->
<g id="node15" class="node">
<title>Node15</title>
<g id="a_node15"><a xlink:title=" ">
<polygon fill="white" stroke="#bfbfbf" points="536,-56.5 536,-75.5 600,-75.5 600,-56.5 536,-56.5"/>
<text text-anchor="middle" x="568" y="-63.5" font-family="Helvetica,sans-Serif" font-size="10.00">algorithm</text>
</a>
</g>
</g>
<!-- Node13&#45;&gt;Node15 -->
<g id="edge17" class="edge">
<title>Node13&#45;&gt;Node15</title>
<path fill="none" stroke="midnightblue" d="M756.48,-117.98C717.76,-107.5 651.98,-89.71 609.26,-78.16"/>
<polygon fill="midnightblue" stroke="midnightblue" points="610.03,-74.74 599.46,-75.51 608.2,-81.5 610.03,-74.74"/>
</g>
<!-- Node16 -->
<g id="node16" class="node">
<title>Node16</title>
<g id="a_node16"><a xlink:href="incflo__enums_8_h.html" target="_top" xlink:title=" ">
<polygon fill="white" stroke="black" points="618.5,-56.5 618.5,-75.5 759.5,-75.5 759.5,-56.5 618.5,-56.5"/>
<text text-anchor="middle" x="689" y="-63.5" font-family="Helvetica,sans-Serif" font-size="10.00">amr&#45;wind/incflo_enums.H</text>
</a>
</g>
</g>
<!-- Node13&#45;&gt;Node16 -->
<g id="edge21" class="edge">
<title>Node13&#45;&gt;Node16</title>
<path fill="none" stroke="midnightblue" d="M773.82,-117.98C757.64,-108.25 730.97,-92.23 711.86,-80.74"/>
<polygon fill="midnightblue" stroke="midnightblue" points="713.53,-77.66 703.16,-75.51 709.93,-83.66 713.53,-77.66"/>
</g>
<!-- Node17 -->
<g id="node17" class="node">
<title>Node17</title>
<g id="a_node17"><a xlink:href="_view_field_8_h.html" target="_top" xlink:title=" ">
<polygon fill="white" stroke="black" points="1174,-56.5 1174,-75.5 1322,-75.5 1322,-56.5 1174,-56.5"/>
<text text-anchor="middle" x="1248" y="-63.5" font-family="Helvetica,sans-Serif" font-size="10.00">amr&#45;wind/core/ViewField.H</text>
</a>
</g>
</g>
<!-- Node13&#45;&gt;Node17 -->
<g id="edge23" class="edge">
<title>Node13&#45;&gt;Node17</title>
<path fill="none" stroke="midnightblue" d="M850.04,-118.48C933.51,-107.68 1081.88,-88.49 1171.97,-76.83"/>
<polygon fill="midnightblue" stroke="midnightblue" points="1172.65,-80.28 1182.12,-75.52 1171.76,-73.33 1172.65,-80.28"/>
</g>
<!-- Node17&#45;&gt;Node7 -->
<g id="edge24" class="edge">
<title>Node17&#45;&gt;Node7</title>
<path fill="none" stroke="midnightblue" d="M1276.2,-56.44C1308.28,-46.71 1360.52,-30.86 1394.07,-20.69"/>
<polygon fill="midnightblue" stroke="midnightblue" points="1395.28,-23.98 1403.83,-17.73 1393.25,-17.28 1395.28,-23.98"/>
</g>
<!-- Node17&#45;&gt;Node9 -->
<g id="edge25" class="edge">
<title>Node17&#45;&gt;Node9</title>
<path fill="none" stroke="midnightblue" d="M1187.63,-56.44C1119.63,-46.81 1009.26,-31.16 937.4,-20.98"/>
<polygon fill="midnightblue" stroke="midnightblue" points="937.48,-17.45 927.09,-19.52 936.5,-24.39 937.48,-17.45"/>
</g>
<!-- Node17&#45;&gt;Node11 -->
<g id="edge26" class="edge">
<title>Node17&#45;&gt;Node11</title>
<path fill="none" stroke="midnightblue" d="M1225.82,-56.44C1202.57,-47.48 1165.85,-33.31 1139.58,-23.18"/>
<polygon fill="midnightblue" stroke="midnightblue" points="1140.67,-19.85 1130.08,-19.52 1138.15,-26.38 1140.67,-19.85"/>
</g>
<!-- Node18 -->
<g id="node18" class="node">
<title>Node18</title>
<g id="a_node18"><a xlink:title=" ">
<polygon fill="white" stroke="#bfbfbf" points="1243,-0.5 1243,-19.5 1341,-19.5 1341,-0.5 1243,-0.5"/>
<text text-anchor="middle" x="1292" y="-7.5" font-family="Helvetica,sans-Serif" font-size="10.00">AMReX_Vector.H</text>
</a>
</g>
</g>
<!-- Node17&#45;&gt;Node18 -->
<g id="edge27" class="edge">
<title>Node17&#45;&gt;Node18</title>
<path fill="none" stroke="midnightblue" d="M1255.27,-56.08C1261.54,-48.38 1270.79,-37.03 1278.43,-27.65"/>
<polygon fill="midnightblue" stroke="midnightblue" points="1281.27,-29.71 1284.87,-19.75 1275.84,-25.29 1281.27,-29.71"/>
</g>
<!-- Node19&#45;&gt;Node7 -->
<g id="edge29" class="edge">
<title>Node19&#45;&gt;Node7</title>
<path fill="none" stroke="midnightblue" d="M1079.69,-121.49C1185.12,-113.22 1377.31,-95.67 1402,-76 1415.94,-64.89 1421.79,-44.86 1424.24,-29.96"/>
<polygon fill="midnightblue" stroke="midnightblue" points="1427.74,-30.16 1425.52,-19.79 1420.79,-29.27 1427.74,-30.16"/>
</g>
<!-- Node19&#45;&gt;Node9 -->
<g id="edge30" class="edge">
<title>Node19&#45;&gt;Node9</title>
<path fill="none" stroke="midnightblue" d="M1022.23,-117.97C1039.03,-104.18 1067.07,-76.48 1051,-56 1038.05,-39.5 992.32,-28.27 949.69,-21.16"/>
<polygon fill="midnightblue" stroke="midnightblue" points="950.23,-17.7 939.8,-19.57 949.12,-24.61 950.23,-17.7"/>
</g>
<!-- Node19&#45;&gt;Node20 -->
<g id="edge31" class="edge">
<title>Node19&#45;&gt;Node20</title>
<path fill="none" stroke="midnightblue" d="M1007.42,-117.98C1003.82,-109.4 998.15,-95.93 993.56,-84.98"/>
<polygon fill="midnightblue" stroke="midnightblue" points="996.68,-83.37 989.58,-75.51 990.22,-86.08 996.68,-83.37"/>
</g>
<!-- Node21&#45;&gt;Node7 -->
<g id="edge33" class="edge">
<title>Node21&#45;&gt;Node7</title>
<path fill="none" stroke="midnightblue" d="M1401.75,-117.98C1413.97,-116 1426.94,-113.91 1439,-112 1491.18,-103.75 1639.59,-116.09 1674,-76 1679.79,-69.26 1679.7,-62.82 1674,-56 1646.88,-23.52 1519.21,-14.43 1458.38,-11.93"/>
<polygon fill="midnightblue" stroke="midnightblue" points="1458.31,-8.42 1448.18,-11.55 1458.05,-15.42 1458.31,-8.42"/>
</g>
<!-- Node21&#45;&gt;Node9 -->
<g id="edge35" class="edge">
<title>Node21&#45;&gt;Node9</title>
<path fill="none" stroke="midnightblue" d="M1317.07,-117.99C1264.51,-104.46 1158.35,-77.41 1068,-56 1016.35,-43.77 957.03,-30.59 916.29,-21.68"/>
<polygon fill="midnightblue" stroke="midnightblue" points="916.87,-18.22 906.35,-19.51 915.37,-25.06 916.87,-18.22"/>
</g>
<!-- Node21&#45;&gt;Node11 -->
<g id="edge37" class="edge">
<title>Node21&#45;&gt;Node11</title>
<path fill="none" stroke="midnightblue" d="M1350.37,-117.67C1350.48,-102.68 1348.38,-72.3 1331,-56 1308.48,-34.88 1230.27,-22.77 1172.81,-16.54"/>
<polygon fill="midnightblue" stroke="midnightblue" points="1173.01,-13.05 1162.7,-15.49 1172.28,-20.01 1173.01,-13.05"/>
</g>
<!-- Node21&#45;&gt;Node17 -->
<g id="edge36" class="edge">
<title>Node21&#45;&gt;Node17</title>
<path fill="none" stroke="midnightblue" d="M1335.39,-117.98C1318.65,-108.21 1291,-92.08 1271.28,-80.58"/>
<polygon fill="midnightblue" stroke="midnightblue" points="1272.99,-77.52 1262.59,-75.51 1269.46,-83.57 1272.99,-77.52"/>
</g>
<!-- Node21&#45;&gt;Node18 -->
<g id="edge38" class="edge">
<title>Node21&#45;&gt;Node18</title>
<path fill="none" stroke="midnightblue" d="M1402.19,-118C1489.99,-103.69 1657.74,-76.3 1658,-76 1663.75,-69.23 1663.89,-62.66 1658,-56 1647.95,-44.64 1452.25,-25.44 1351.24,-16.23"/>
<polygon fill="midnightblue" stroke="midnightblue" points="1351.45,-12.74 1341.18,-15.32 1350.82,-19.71 1351.45,-12.74"/>
</g>
<!-- Node22 -->
<g id="node22" class="node">
<title>Node22</title>
<g id="a_node22"><a xlink:title=" ">
<polygon fill="white" stroke="#bfbfbf" points="1454.5,-56.5 1454.5,-75.5 1499.5,-75.5 1499.5,-56.5 1454.5,-56.5"/>
<text text-anchor="middle" x="1477" y="-63.5" font-family="Helvetica,sans-Serif" font-size="10.00">utility</text>
</a>
</g>
</g>
<!-- Node21&#45;&gt;Node22 -->
<g id="edge34" class="edge">
<title>Node21&#45;&gt;Node22</title>
<path fill="none" stroke="midnightblue" d="M1368.2,-117.98C1389.51,-107.99 1425.03,-91.35 1449.66,-79.81"/>
<polygon fill="midnightblue" stroke="midnightblue" points="1451.27,-82.92 1458.84,-75.51 1448.3,-76.58 1451.27,-82.92"/>
</g>
<!-- Node23 -->
<g id="node23" class="node">
<title>Node23</title>
<g id="a_node23"><a xlink:title=" ">
<polygon fill="white" stroke="#bfbfbf" points="1517.5,-56.5 1517.5,-75.5 1648.5,-75.5 1648.5,-56.5 1517.5,-56.5"/>
<text text-anchor="middle" x="1583" y="-63.5" font-family="Helvetica,sans-Serif" font-size="10.00">AMReX_PhysBCFunct.H</text>
</a>
</g>
</g>
<!-- Node21&#45;&gt;Node23 -->
<g id="edge39" class="edge">
<title>Node21&#45;&gt;Node23</title>
<path fill="none" stroke="midnightblue" d="M1383.38,-117.98C1424.56,-107.46 1494.65,-89.56 1539.87,-78.01"/>
<polygon fill="midnightblue" stroke="midnightblue" points="1540.86,-81.37 1549.68,-75.51 1539.12,-74.59 1540.86,-81.37"/>
</g>
</g>
</svg>
