<?xml version="1.0" encoding="UTF-8" standalone="no"?>
<!DOCTYPE svg PUBLIC "-//W3C//DTD SVG 1.1//EN"
 "http://www.w3.org/Graphics/SVG/1.1/DTD/svg11.dtd">
<!-- Generated by graphviz version 2.43.0 (0)
 -->
<!-- Title: incflo_mol_fluxes.cpp Pages: 1 -->
<svg width="1722pt" height="330pt"
 viewBox="0.00 0.00 1722.02 330.00" xmlns="http://www.w3.org/2000/svg" xmlns:xlink="http://www.w3.org/1999/xlink">
<g id="graph0" class="graph" transform="scale(1 1) rotate(0) translate(4 326)">
<title>incflo_mol_fluxes.cpp</title>
<polygon fill="white" stroke="transparent" points="-4,4 -4,-326 1718.02,-326 1718.02,4 -4,4"/>
<!-- Node1 -->
<g id="node1" class="node">
<title>Node1</title>
<g id="a_node1"><a xlink:title=" ">
<polygon fill="#bfbfbf" stroke="black" points="705.35,-302.5 705.35,-321.5 826.35,-321.5 826.35,-302.5 705.35,-302.5"/>
<text text-anchor="middle" x="765.85" y="-309.5" font-family="Helvetica,sans-Serif" font-size="10.00">incflo_mol_fluxes.cpp</text>
</a>
</g>
</g>
<!-- Node2 -->
<g id="node2" class="node">
<title>Node2</title>
<g id="a_node2"><a xlink:title=" ">
<polygon fill="white" stroke="#bfbfbf" points="499.35,-241 499.35,-260 614.35,-260 614.35,-241 499.35,-241"/>
<text text-anchor="middle" x="556.85" y="-248" font-family="Helvetica,sans-Serif" font-size="10.00">AMReX_Geometry.H</text>
</a>
</g>
</g>
<!-- Node1&#45;&gt;Node2 -->
<g id="edge1" class="edge">
<title>Node1&#45;&gt;Node2</title>
<path fill="none" stroke="midnightblue" d="M735.91,-302.48C699.28,-292.05 637.15,-274.36 596.57,-262.81"/>
<polygon fill="midnightblue" stroke="midnightblue" points="597.31,-259.38 586.74,-260.01 595.4,-266.11 597.31,-259.38"/>
</g>
<!-- Node3 -->
<g id="node3" class="node">
<title>Node3</title>
<g id="a_node3"><a xlink:href="incflo__convection___k_8_h.html" target="_top" xlink:title=" ">
<polygon fill="white" stroke="black" points="632.35,-235.5 632.35,-265.5 759.35,-265.5 759.35,-235.5 632.35,-235.5"/>
<text text-anchor="start" x="640.35" y="-253.5" font-family="Helvetica,sans-Serif" font-size="10.00">amr&#45;wind/convection</text>
<text text-anchor="middle" x="695.85" y="-242.5" font-family="Helvetica,sans-Serif" font-size="10.00">/incflo_convection_K.H</text>
</a>
</g>
</g>
<!-- Node1&#45;&gt;Node3 -->
<g id="edge2" class="edge">
<title>Node1&#45;&gt;Node3</title>
<path fill="none" stroke="midnightblue" d="M755.82,-302.48C746.52,-294.57 732.3,-282.48 720.05,-272.07"/>
<polygon fill="midnightblue" stroke="midnightblue" points="722.23,-269.33 712.35,-265.52 717.7,-274.67 722.23,-269.33"/>
</g>
<!-- Node5 -->
<g id="node5" class="node">
<title>Node5</title>
<g id="a_node5"><a xlink:href="_m_o_l_8_h.html" target="_top" xlink:title=" ">
<polygon fill="white" stroke="black" points="777.35,-235.5 777.35,-265.5 896.35,-265.5 896.35,-235.5 777.35,-235.5"/>
<text text-anchor="start" x="785.35" y="-253.5" font-family="Helvetica,sans-Serif" font-size="10.00">amr&#45;wind/convection</text>
<text text-anchor="middle" x="836.85" y="-242.5" font-family="Helvetica,sans-Serif" font-size="10.00">/MOL.H</text>
</a>
</g>
</g>
<!-- Node1&#45;&gt;Node5 -->
<g id="edge4" class="edge">
<title>Node1&#45;&gt;Node5</title>
<path fill="none" stroke="midnightblue" d="M776.02,-302.48C785.46,-294.57 799.88,-282.48 812.31,-272.07"/>
<polygon fill="midnightblue" stroke="midnightblue" points="814.7,-274.63 820.12,-265.52 810.2,-269.26 814.7,-274.63"/>
</g>
<!-- Node27 -->
<g id="node27" class="node">
<title>Node27</title>
<g id="a_node27"><a xlink:href="bc__ops_8_h.html" target="_top" xlink:title=" ">
<polygon fill="white" stroke="black" points="1085.35,-168.5 1085.35,-198.5 1188.35,-198.5 1188.35,-168.5 1085.35,-168.5"/>
<text text-anchor="start" x="1093.35" y="-186.5" font-family="Helvetica,sans-Serif" font-size="10.00">amr&#45;wind/utilities</text>
<text text-anchor="middle" x="1136.85" y="-175.5" font-family="Helvetica,sans-Serif" font-size="10.00">/bc_ops.H</text>
</a>
</g>
</g>
<!-- Node1&#45;&gt;Node27 -->
<g id="edge43" class="edge">
<title>Node1&#45;&gt;Node27</title>
<path fill="none" stroke="midnightblue" d="M792.82,-302.49C820.87,-293.58 866.04,-279.1 904.85,-266 968.29,-244.59 1041.08,-218.82 1087.95,-202.07"/>
<polygon fill="midnightblue" stroke="midnightblue" points="1089.31,-205.3 1097.54,-198.64 1086.95,-198.71 1089.31,-205.3"/>
</g>
<!-- Node4 -->
<g id="node4" class="node">
<title>Node4</title>
<g id="a_node4"><a xlink:title=" ">
<polygon fill="white" stroke="#bfbfbf" points="627.35,-174 627.35,-193 744.35,-193 744.35,-174 627.35,-174"/>
<text text-anchor="middle" x="685.85" y="-181" font-family="Helvetica,sans-Serif" font-size="10.00">AMReX_FArrayBox.H</text>
</a>
</g>
</g>
<!-- Node3&#45;&gt;Node4 -->
<g id="edge3" class="edge">
<title>Node3&#45;&gt;Node4</title>
<path fill="none" stroke="midnightblue" d="M693.68,-235.4C692.23,-225.96 690.3,-213.45 688.72,-203.19"/>
<polygon fill="midnightblue" stroke="midnightblue" points="692.17,-202.55 687.19,-193.19 685.25,-203.61 692.17,-202.55"/>
</g>
<!-- Node6 -->
<g id="node6" class="node">
<title>Node6</title>
<g id="a_node6"><a xlink:href="_field_repo_8_h.html" target="_top" xlink:title=" ">
<polygon fill="white" stroke="black" points="762.35,-174 762.35,-193 911.35,-193 911.35,-174 762.35,-174"/>
<text text-anchor="middle" x="836.85" y="-181" font-family="Helvetica,sans-Serif" font-size="10.00">amr&#45;wind/core/FieldRepo.H</text>
</a>
</g>
</g>
<!-- Node5&#45;&gt;Node6 -->
<g id="edge5" class="edge">
<title>Node5&#45;&gt;Node6</title>
<path fill="none" stroke="midnightblue" d="M836.85,-235.4C836.85,-226.06 836.85,-213.71 836.85,-203.52"/>
<polygon fill="midnightblue" stroke="midnightblue" points="840.35,-203.19 836.85,-193.19 833.35,-203.19 840.35,-203.19"/>
</g>
<!-- Node7 -->
<g id="node7" class="node">
<title>Node7</title>
<g id="a_node7"><a xlink:title=" ">
<polygon fill="white" stroke="#bfbfbf" points="206.85,-0.5 206.85,-19.5 250.85,-19.5 250.85,-0.5 206.85,-0.5"/>
<text text-anchor="middle" x="228.85" y="-7.5" font-family="Helvetica,sans-Serif" font-size="10.00">string</text>
</a>
</g>
</g>
<!-- Node6&#45;&gt;Node7 -->
<g id="edge6" class="edge">
<title>Node6&#45;&gt;Node7</title>
<path fill="none" stroke="midnightblue" d="M792.96,-173.92C780.08,-171.68 765.94,-169.48 752.85,-168 605.13,-151.33 225.52,-180.08 84.85,-132 43.44,-117.84 24.17,-114.76 3.85,-76 -0.28,-68.13 -1.79,-62.87 3.85,-56 27.87,-26.7 140.44,-16.09 196.69,-12.58"/>
<polygon fill="midnightblue" stroke="midnightblue" points="197.05,-16.07 206.83,-11.99 196.64,-9.08 197.05,-16.07"/>
</g>
<!-- Node8 -->
<g id="node8" class="node">
<title>Node8</title>
<g id="a_node8"><a xlink:title=" ">
<polygon fill="white" stroke="#bfbfbf" points="750.35,-56.5 750.35,-75.5 843.35,-75.5 843.35,-56.5 750.35,-56.5"/>
<text text-anchor="middle" x="796.85" y="-63.5" font-family="Helvetica,sans-Serif" font-size="10.00">unordered_map</text>
</a>
</g>
</g>
<!-- Node6&#45;&gt;Node8 -->
<g id="edge7" class="edge">
<title>Node6&#45;&gt;Node8</title>
<path fill="none" stroke="midnightblue" d="M834.99,-173.67C832.03,-160.16 825.76,-133.67 817.85,-112 814.52,-102.89 810.07,-93.1 806.11,-84.98"/>
<polygon fill="midnightblue" stroke="midnightblue" points="809.11,-83.14 801.5,-75.77 802.85,-86.28 809.11,-83.14"/>
</g>
<!-- Node9 -->
<g id="node9" class="node">
<title>Node9</title>
<g id="a_node9"><a xlink:href="_field_desc_types_8_h.html" target="_top" xlink:title=" ">
<polygon fill="white" stroke="black" points="645.85,-0.5 645.85,-19.5 821.85,-19.5 821.85,-0.5 645.85,-0.5"/>
<text text-anchor="middle" x="733.85" y="-7.5" font-family="Helvetica,sans-Serif" font-size="10.00">amr&#45;wind/core/FieldDescTypes.H</text>
</a>
</g>
</g>
<!-- Node6&#45;&gt;Node9 -->
<g id="edge8" class="edge">
<title>Node6&#45;&gt;Node9</title>
<path fill="none" stroke="midnightblue" d="M911.44,-176.08C1078.15,-160.97 1469.39,-121.05 1507.85,-76 1513.62,-69.24 1513.95,-62.47 1507.85,-56 1485.01,-31.8 1035.45,-18.13 832.17,-13.17"/>
<polygon fill="midnightblue" stroke="midnightblue" points="832.18,-9.67 822.09,-12.92 832.01,-16.66 832.18,-9.67"/>
</g>
<!-- Node10 -->
<g id="node10" class="node">
<title>Node10</title>
<g id="a_node10"><a xlink:href="_field_utils_8_h.html" target="_top" xlink:title=" ">
<polygon fill="white" stroke="black" points="1554.85,-56.5 1554.85,-75.5 1700.85,-75.5 1700.85,-56.5 1554.85,-56.5"/>
<text text-anchor="middle" x="1627.85" y="-63.5" font-family="Helvetica,sans-Serif" font-size="10.00">amr&#45;wind/core/FieldUtils.H</text>
</a>
</g>
</g>
<!-- Node6&#45;&gt;Node10 -->
<g id="edge9" class="edge">
<title>Node6&#45;&gt;Node10</title>
<path fill="none" stroke="midnightblue" d="M911.36,-177.71C1089.47,-166.18 1526.24,-137.44 1540.85,-132 1569.13,-121.46 1596.07,-98.68 1612.28,-83.1"/>
<polygon fill="midnightblue" stroke="midnightblue" points="1615.09,-85.23 1619.73,-75.7 1610.16,-80.26 1615.09,-85.23"/>
</g>
<!-- Node11 -->
<g id="node11" class="node">
<title>Node11</title>
<g id="a_node11"><a xlink:title=" ">
<polygon fill="white" stroke="#bfbfbf" points="1316.35,-0.5 1316.35,-19.5 1425.35,-19.5 1425.35,-0.5 1316.35,-0.5"/>
<text text-anchor="middle" x="1370.85" y="-7.5" font-family="Helvetica,sans-Serif" font-size="10.00">AMReX_MultiFab.H</text>
</a>
</g>
</g>
<!-- Node6&#45;&gt;Node11 -->
<g id="edge41" class="edge">
<title>Node6&#45;&gt;Node11</title>
<path fill="none" stroke="midnightblue" d="M911.68,-178.01C1092.56,-167.07 1541.04,-139.39 1572.85,-132 1636.92,-117.11 1673.18,-130.61 1709.85,-76 1714.81,-68.62 1715.71,-62.69 1709.85,-56 1692.1,-35.74 1529.21,-21.59 1435.84,-15.07"/>
<polygon fill="midnightblue" stroke="midnightblue" points="1435.86,-11.57 1425.64,-14.37 1435.38,-18.55 1435.86,-11.57"/>
</g>
<!-- Node13 -->
<g id="node13" class="node">
<title>Node13</title>
<g id="a_node13"><a xlink:href="_field_8_h.html" target="_top" xlink:title=" ">
<polygon fill="white" stroke="black" points="904.85,-112.5 904.85,-131.5 1028.85,-131.5 1028.85,-112.5 904.85,-112.5"/>
<text text-anchor="middle" x="966.85" y="-119.5" font-family="Helvetica,sans-Serif" font-size="10.00">amr&#45;wind/core/Field.H</text>
</a>
</g>
</g>
<!-- Node6&#45;&gt;Node13 -->
<g id="edge13" class="edge">
<title>Node6&#45;&gt;Node13</title>
<path fill="none" stroke="midnightblue" d="M855.48,-173.98C877.29,-163.99 913.65,-147.35 938.87,-135.81"/>
<polygon fill="midnightblue" stroke="midnightblue" points="940.62,-138.85 948.26,-131.51 937.71,-132.49 940.62,-138.85"/>
</g>
<!-- Node21 -->
<g id="node21" class="node">
<title>Node21</title>
<g id="a_node21"><a xlink:href="_int_field_8_h.html" target="_top" xlink:title=" ">
<polygon fill="white" stroke="black" points="116.35,-112.5 116.35,-131.5 253.35,-131.5 253.35,-112.5 116.35,-112.5"/>
<text text-anchor="middle" x="184.85" y="-119.5" font-family="Helvetica,sans-Serif" font-size="10.00">amr&#45;wind/core/IntField.H</text>
</a>
</g>
</g>
<!-- Node6&#45;&gt;Node21 -->
<g id="edge28" class="edge">
<title>Node6&#45;&gt;Node21</title>
<path fill="none" stroke="midnightblue" d="M792.06,-173.98C779.42,-171.79 765.62,-169.61 752.85,-168 578.91,-146.14 373.6,-132.98 263.7,-126.95"/>
<polygon fill="midnightblue" stroke="midnightblue" points="263.87,-123.46 253.69,-126.41 263.49,-130.45 263.87,-123.46"/>
</g>
<!-- Node22 -->
<g id="node22" class="node">
<title>Node22</title>
<g id="a_node22"><a xlink:title=" ">
<polygon fill="white" stroke="#bfbfbf" points="12.85,-56.5 12.85,-75.5 124.85,-75.5 124.85,-56.5 12.85,-56.5"/>
<text text-anchor="middle" x="68.85" y="-63.5" font-family="Helvetica,sans-Serif" font-size="10.00">AMReX_iMultiFab.H</text>
</a>
</g>
</g>
<!-- Node6&#45;&gt;Node22 -->
<g id="edge42" class="edge">
<title>Node6&#45;&gt;Node22</title>
<path fill="none" stroke="midnightblue" d="M792.96,-173.94C780.08,-171.7 765.94,-169.49 752.85,-168 681.42,-159.87 168.19,-169.5 106.85,-132 89.98,-121.69 79.78,-100.86 74.25,-85.55"/>
<polygon fill="midnightblue" stroke="midnightblue" points="77.44,-84.04 71.03,-75.61 70.78,-86.2 77.44,-84.04"/>
</g>
<!-- Node23 -->
<g id="node23" class="node">
<title>Node23</title>
<g id="a_node23"><a xlink:href="_scratch_field_8_h.html" target="_top" xlink:title=" ">
<polygon fill="white" stroke="black" points="390.85,-112.5 390.85,-131.5 550.85,-131.5 550.85,-112.5 390.85,-112.5"/>
<text text-anchor="middle" x="470.85" y="-119.5" font-family="Helvetica,sans-Serif" font-size="10.00">amr&#45;wind/core/ScratchField.H</text>
</a>
</g>
</g>
<!-- Node6&#45;&gt;Node23 -->
<g id="edge32" class="edge">
<title>Node6&#45;&gt;Node23</title>
<path fill="none" stroke="midnightblue" d="M788.01,-173.96C776.48,-171.98 764.24,-169.89 752.85,-168 678.34,-155.62 592.64,-142.04 535.45,-133.07"/>
<polygon fill="midnightblue" stroke="midnightblue" points="535.89,-129.6 525.47,-131.51 534.81,-136.51 535.89,-129.6"/>
</g>
<!-- Node26 -->
<g id="node26" class="node">
<title>Node26</title>
<g id="a_node26"><a xlink:title=" ">
<polygon fill="white" stroke="#bfbfbf" points="698.85,-112.5 698.85,-131.5 808.85,-131.5 808.85,-112.5 698.85,-112.5"/>
<text text-anchor="middle" x="753.85" y="-119.5" font-family="Helvetica,sans-Serif" font-size="10.00">AMReX_AmrCore.H</text>
</a>
</g>
</g>
<!-- Node6&#45;&gt;Node26 -->
<g id="edge40" class="edge">
<title>Node6&#45;&gt;Node26</title>
<path fill="none" stroke="midnightblue" d="M824.96,-173.98C811.64,-164.43 789.85,-148.81 773.89,-137.37"/>
<polygon fill="midnightblue" stroke="midnightblue" points="775.89,-134.49 765.72,-131.51 771.81,-140.18 775.89,-134.49"/>
</g>
<!-- Node10&#45;&gt;Node9 -->
<g id="edge10" class="edge">
<title>Node10&#45;&gt;Node9</title>
<path fill="none" stroke="midnightblue" d="M1554.77,-57.19C1550.06,-56.76 1545.39,-56.36 1540.85,-56 1285.66,-35.7 984.36,-21.48 832.26,-14.98"/>
<polygon fill="midnightblue" stroke="midnightblue" points="832.15,-11.48 822.01,-14.55 831.85,-18.47 832.15,-11.48"/>
</g>
<!-- Node10&#45;&gt;Node11 -->
<g id="edge11" class="edge">
<title>Node10&#45;&gt;Node11</title>
<path fill="none" stroke="midnightblue" d="M1587.13,-56.44C1542.2,-47 1469.85,-31.8 1421.35,-21.61"/>
<polygon fill="midnightblue" stroke="midnightblue" points="1421.89,-18.15 1411.38,-19.52 1420.45,-25 1421.89,-18.15"/>
</g>
<!-- Node12 -->
<g id="node12" class="node">
<title>Node12</title>
<g id="a_node12"><a xlink:title=" ">
<polygon fill="white" stroke="#bfbfbf" points="1565.85,-0.5 1565.85,-19.5 1689.85,-19.5 1689.85,-0.5 1565.85,-0.5"/>
<text text-anchor="middle" x="1627.85" y="-7.5" font-family="Helvetica,sans-Serif" font-size="10.00">AMReX_Interpolater.H</text>
</a>
</g>
</g>
<!-- Node10&#45;&gt;Node12 -->
<g id="edge12" class="edge">
<title>Node10&#45;&gt;Node12</title>
<path fill="none" stroke="midnightblue" d="M1627.85,-56.08C1627.85,-49.01 1627.85,-38.86 1627.85,-29.99"/>
<polygon fill="midnightblue" stroke="midnightblue" points="1631.35,-29.75 1627.85,-19.75 1624.35,-29.75 1631.35,-29.75"/>
</g>
<!-- Node13&#45;&gt;Node7 -->
<g id="edge14" class="edge">
<title>Node13&#45;&gt;Node7</title>
<path fill="none" stroke="midnightblue" d="M951.26,-112.49C934.9,-103.52 908.47,-88.94 885.85,-76 870.63,-67.3 868.59,-61.21 851.85,-56 795.25,-38.37 380.86,-18.03 261.15,-12.47"/>
<polygon fill="midnightblue" stroke="midnightblue" points="261.28,-8.97 251.13,-12.01 260.96,-15.96 261.28,-8.97"/>
</g>
<!-- Node13&#45;&gt;Node8 -->
<g id="edge16" class="edge">
<title>Node13&#45;&gt;Node8</title>
<path fill="none" stroke="midnightblue" d="M939.91,-112.44C911.19,-103.32 865.52,-88.81 833.53,-78.65"/>
<polygon fill="midnightblue" stroke="midnightblue" points="834.25,-75.21 823.66,-75.52 832.13,-81.88 834.25,-75.21"/>
</g>
<!-- Node13&#45;&gt;Node9 -->
<g id="edge22" class="edge">
<title>Node13&#45;&gt;Node9</title>
<path fill="none" stroke="midnightblue" d="M958.21,-112.12C944.23,-98.23 915.25,-71.38 885.85,-56 855.51,-40.12 818.75,-29.05 788.98,-21.86"/>
<polygon fill="midnightblue" stroke="midnightblue" points="789.71,-18.44 779.17,-19.57 788.12,-25.25 789.71,-18.44"/>
</g>
<!-- Node13&#45;&gt;Node11 -->
<g id="edge18" class="edge">
<title>Node13&#45;&gt;Node11</title>
<path fill="none" stroke="midnightblue" d="M1029.07,-121.8C1125.38,-121.75 1304.42,-116.06 1351.85,-76 1365.16,-64.76 1369.43,-44.74 1370.66,-29.88"/>
<polygon fill="midnightblue" stroke="midnightblue" points="1374.16,-29.9 1371.11,-19.76 1367.17,-29.59 1374.16,-29.9"/>
</g>
<!-- Node14 -->
<g id="node14" class="node">
<title>Node14</title>
<g id="a_node14"><a xlink:title=" ">
<polygon fill="white" stroke="#bfbfbf" points="937.85,-56.5 937.85,-75.5 995.85,-75.5 995.85,-56.5 937.85,-56.5"/>
<text text-anchor="middle" x="966.85" y="-63.5" font-family="Helvetica,sans-Serif" font-size="10.00">memory</text>
</a>
</g>
</g>
<!-- Node13&#45;&gt;Node14 -->
<g id="edge15" class="edge">
<title>Node13&#45;&gt;Node14</title>
<path fill="none" stroke="midnightblue" d="M966.85,-112.08C966.85,-105.01 966.85,-94.86 966.85,-85.99"/>
<polygon fill="midnightblue" stroke="midnightblue" points="970.35,-85.75 966.85,-75.75 963.35,-85.75 970.35,-85.75"/>
</g>
<!-- Node15 -->
<g id="node15" class="node">
<title>Node15</title>
<g id="a_node15"><a xlink:title=" ">
<polygon fill="white" stroke="#bfbfbf" points="1013.85,-56.5 1013.85,-75.5 1077.85,-75.5 1077.85,-56.5 1013.85,-56.5"/>
<text text-anchor="middle" x="1045.85" y="-63.5" font-family="Helvetica,sans-Serif" font-size="10.00">algorithm</text>
</a>
</g>
</g>
<!-- Node13&#45;&gt;Node15 -->
<g id="edge17" class="edge">
<title>Node13&#45;&gt;Node15</title>
<path fill="none" stroke="midnightblue" d="M979.54,-112.32C991.75,-103.98 1010.43,-91.21 1024.85,-81.35"/>
<polygon fill="midnightblue" stroke="midnightblue" points="1026.91,-84.19 1033.19,-75.65 1022.96,-78.41 1026.91,-84.19"/>
</g>
<!-- Node16 -->
<g id="node16" class="node">
<title>Node16</title>
<g id="a_node16"><a xlink:title=" ">
<polygon fill="white" stroke="#bfbfbf" points="1399.35,-56.5 1399.35,-75.5 1498.35,-75.5 1498.35,-56.5 1399.35,-56.5"/>
<text text-anchor="middle" x="1448.85" y="-63.5" font-family="Helvetica,sans-Serif" font-size="10.00">AMReX_BCRec.H</text>
</a>
</g>
</g>
<!-- Node13&#45;&gt;Node16 -->
<g id="edge19" class="edge">
<title>Node13&#45;&gt;Node16</title>
<path fill="none" stroke="midnightblue" d="M1028.89,-114.96C1110.58,-106.85 1258.64,-91.66 1384.85,-76 1386.31,-75.82 1387.79,-75.63 1389.28,-75.44"/>
<polygon fill="midnightblue" stroke="midnightblue" points="1389.8,-78.9 1399.26,-74.14 1388.89,-71.96 1389.8,-78.9"/>
</g>
<!-- Node17 -->
<g id="node17" class="node">
<title>Node17</title>
<g id="a_node17"><a xlink:title=" ">
<polygon fill="white" stroke="#bfbfbf" points="1096.35,-56.5 1096.35,-75.5 1183.35,-75.5 1183.35,-56.5 1096.35,-56.5"/>
<text text-anchor="middle" x="1139.85" y="-63.5" font-family="Helvetica,sans-Serif" font-size="10.00">AMReX_Gpu.H</text>
</a>
</g>
</g>
<!-- Node13&#45;&gt;Node17 -->
<g id="edge20" class="edge">
<title>Node13&#45;&gt;Node17</title>
<path fill="none" stroke="midnightblue" d="M994.26,-112.44C1023.62,-103.28 1070.37,-88.69 1102.95,-78.52"/>
<polygon fill="midnightblue" stroke="midnightblue" points="1104.06,-81.84 1112.57,-75.52 1101.98,-75.16 1104.06,-81.84"/>
</g>
<!-- Node18 -->
<g id="node18" class="node">
<title>Node18</title>
<g id="a_node18"><a xlink:href="incflo__enums_8_h.html" target="_top" xlink:title=" ">
<polygon fill="white" stroke="black" points="1201.35,-56.5 1201.35,-75.5 1342.35,-75.5 1342.35,-56.5 1201.35,-56.5"/>
<text text-anchor="middle" x="1271.85" y="-63.5" font-family="Helvetica,sans-Serif" font-size="10.00">amr&#45;wind/incflo_enums.H</text>
</a>
</g>
</g>
<!-- Node13&#45;&gt;Node18 -->
<g id="edge21" class="edge">
<title>Node13&#45;&gt;Node18</title>
<path fill="none" stroke="midnightblue" d="M1015.18,-112.44C1069.05,-102.9 1156.16,-87.48 1213.71,-77.29"/>
<polygon fill="midnightblue" stroke="midnightblue" points="1214.51,-80.71 1223.75,-75.52 1213.29,-73.81 1214.51,-80.71"/>
</g>
<!-- Node19 -->
<g id="node19" class="node">
<title>Node19</title>
<g id="a_node19"><a xlink:href="_view_field_8_h.html" target="_top" xlink:title=" ">
<polygon fill="white" stroke="black" points="545.85,-56.5 545.85,-75.5 693.85,-75.5 693.85,-56.5 545.85,-56.5"/>
<text text-anchor="middle" x="619.85" y="-63.5" font-family="Helvetica,sans-Serif" font-size="10.00">amr&#45;wind/core/ViewField.H</text>
</a>
</g>
</g>
<!-- Node13&#45;&gt;Node19 -->
<g id="edge23" class="edge">
<title>Node13&#45;&gt;Node19</title>
<path fill="none" stroke="midnightblue" d="M911.87,-112.44C850.19,-102.85 750.24,-87.29 684.78,-77.1"/>
<polygon fill="midnightblue" stroke="midnightblue" points="684.99,-73.6 674.58,-75.52 683.92,-80.51 684.99,-73.6"/>
</g>
<!-- Node19&#45;&gt;Node7 -->
<g id="edge24" class="edge">
<title>Node19&#45;&gt;Node7</title>
<path fill="none" stroke="midnightblue" d="M557.89,-56.44C473.65,-44.81 326.04,-24.42 261.08,-15.45"/>
<polygon fill="midnightblue" stroke="midnightblue" points="261.41,-11.96 251.02,-14.06 260.45,-18.9 261.41,-11.96"/>
</g>
<!-- Node19&#45;&gt;Node9 -->
<g id="edge25" class="edge">
<title>Node19&#45;&gt;Node9</title>
<path fill="none" stroke="midnightblue" d="M637.91,-56.44C656.42,-47.68 685.43,-33.94 706.71,-23.86"/>
<polygon fill="midnightblue" stroke="midnightblue" points="708.33,-26.96 715.87,-19.52 705.33,-20.63 708.33,-26.96"/>
</g>
<!-- Node19&#45;&gt;Node11 -->
<g id="edge26" class="edge">
<title>Node19&#45;&gt;Node11</title>
<path fill="none" stroke="midnightblue" d="M694.25,-57.21C698.85,-56.78 703.41,-56.38 707.85,-56 927.06,-37.36 1187.57,-21.52 1306.22,-14.65"/>
<polygon fill="midnightblue" stroke="midnightblue" points="1306.44,-18.14 1316.23,-14.07 1306.04,-11.16 1306.44,-18.14"/>
</g>
<!-- Node20 -->
<g id="node20" class="node">
<title>Node20</title>
<g id="a_node20"><a xlink:title=" ">
<polygon fill="white" stroke="#bfbfbf" points="456.85,-0.5 456.85,-19.5 554.85,-19.5 554.85,-0.5 456.85,-0.5"/>
<text text-anchor="middle" x="505.85" y="-7.5" font-family="Helvetica,sans-Serif" font-size="10.00">AMReX_Vector.H</text>
</a>
</g>
</g>
<!-- Node19&#45;&gt;Node20 -->
<g id="edge27" class="edge">
<title>Node19&#45;&gt;Node20</title>
<path fill="none" stroke="midnightblue" d="M601.79,-56.44C583.27,-47.68 554.27,-33.94 532.99,-23.86"/>
<polygon fill="midnightblue" stroke="midnightblue" points="534.36,-20.63 523.83,-19.52 531.37,-26.96 534.36,-20.63"/>
</g>
<!-- Node21&#45;&gt;Node7 -->
<g id="edge29" class="edge">
<title>Node21&#45;&gt;Node7</title>
<path fill="none" stroke="midnightblue" d="M180.9,-112.14C175.75,-99.19 168.34,-74.61 176.85,-56 182.63,-43.36 193.9,-32.91 204.48,-25.27"/>
<polygon fill="midnightblue" stroke="midnightblue" points="206.7,-28 213.07,-19.53 202.81,-22.18 206.7,-28"/>
</g>
<!-- Node21&#45;&gt;Node9 -->
<g id="edge30" class="edge">
<title>Node21&#45;&gt;Node9</title>
<path fill="none" stroke="midnightblue" d="M194.61,-112.41C211.72,-97.92 248.84,-68.92 285.85,-56 317.97,-44.78 513.62,-28.01 635.5,-18.43"/>
<polygon fill="midnightblue" stroke="midnightblue" points="635.91,-21.9 645.6,-17.63 635.36,-14.93 635.91,-21.9"/>
</g>
<!-- Node21&#45;&gt;Node22 -->
<g id="edge31" class="edge">
<title>Node21&#45;&gt;Node22</title>
<path fill="none" stroke="midnightblue" d="M166.47,-112.44C147.63,-103.68 118.12,-89.94 96.47,-79.86"/>
<polygon fill="midnightblue" stroke="midnightblue" points="97.69,-76.56 87.14,-75.52 94.73,-82.91 97.69,-76.56"/>
</g>
<!-- Node23&#45;&gt;Node7 -->
<g id="edge33" class="edge">
<title>Node23&#45;&gt;Node7</title>
<path fill="none" stroke="midnightblue" d="M390.72,-116.09C352.67,-110.57 308.13,-99.2 273.85,-76 256.67,-64.38 244.09,-43.82 236.67,-28.94"/>
<polygon fill="midnightblue" stroke="midnightblue" points="239.76,-27.29 232.36,-19.71 233.42,-30.25 239.76,-27.29"/>
</g>
<!-- Node23&#45;&gt;Node9 -->
<g id="edge35" class="edge">
<title>Node23&#45;&gt;Node9</title>
<path fill="none" stroke="midnightblue" d="M477.07,-112.3C487.66,-98.17 510.62,-70.37 536.85,-56 568.63,-38.59 606.84,-27.9 641.12,-21.35"/>
<polygon fill="midnightblue" stroke="midnightblue" points="641.93,-24.76 651.15,-19.52 640.68,-17.87 641.93,-24.76"/>
</g>
<!-- Node23&#45;&gt;Node11 -->
<g id="edge37" class="edge">
<title>Node23&#45;&gt;Node11</title>
<path fill="none" stroke="midnightblue" d="M543.62,-112.47C590.08,-105.66 651.08,-94.2 702.85,-76 720.85,-69.67 722.5,-61.24 740.85,-56 845.65,-26.1 1167.53,-15.5 1306.2,-12.26"/>
<polygon fill="midnightblue" stroke="midnightblue" points="1306.34,-15.76 1316.26,-12.03 1306.18,-8.76 1306.34,-15.76"/>
</g>
<!-- Node23&#45;&gt;Node19 -->
<g id="edge36" class="edge">
<title>Node23&#45;&gt;Node19</title>
<path fill="none" stroke="midnightblue" d="M494.46,-112.44C519.31,-103.44 558.62,-89.19 586.6,-79.05"/>
<polygon fill="midnightblue" stroke="midnightblue" points="588.14,-82.21 596.35,-75.52 585.76,-75.63 588.14,-82.21"/>
</g>
<!-- Node23&#45;&gt;Node20 -->
<g id="edge38" class="edge">
<title>Node23&#45;&gt;Node20</title>
<path fill="none" stroke="midnightblue" d="M390.67,-117.64C326.62,-111.94 252.65,-96.68 285.85,-56 305.79,-31.57 388.39,-20.04 446.49,-14.87"/>
<polygon fill="midnightblue" stroke="midnightblue" points="447.01,-18.34 456.67,-14.01 446.41,-11.37 447.01,-18.34"/>
</g>
<!-- Node24 -->
<g id="node24" class="node">
<title>Node24</title>
<g id="a_node24"><a xlink:title=" ">
<polygon fill="white" stroke="#bfbfbf" points="295.35,-56.5 295.35,-75.5 340.35,-75.5 340.35,-56.5 295.35,-56.5"/>
<text text-anchor="middle" x="317.85" y="-63.5" font-family="Helvetica,sans-Serif" font-size="10.00">utility</text>
</a>
</g>
</g>
<!-- Node23&#45;&gt;Node24 -->
<g id="edge34" class="edge">
<title>Node23&#45;&gt;Node24</title>
<path fill="none" stroke="midnightblue" d="M446.61,-112.44C420.53,-103.24 378.93,-88.56 350.1,-78.38"/>
<polygon fill="midnightblue" stroke="midnightblue" points="351.08,-75.02 340.48,-74.99 348.75,-81.62 351.08,-75.02"/>
</g>
<!-- Node25 -->
<g id="node25" class="node">
<title>Node25</title>
<g id="a_node25"><a xlink:title=" ">
<polygon fill="white" stroke="#bfbfbf" points="358.35,-56.5 358.35,-75.5 489.35,-75.5 489.35,-56.5 358.35,-56.5"/>
<text text-anchor="middle" x="423.85" y="-63.5" font-family="Helvetica,sans-Serif" font-size="10.00">AMReX_PhysBCFunct.H</text>
</a>
</g>
</g>
<!-- Node23&#45;&gt;Node25 -->
<g id="edge39" class="edge">
<title>Node23&#45;&gt;Node25</title>
<path fill="none" stroke="midnightblue" d="M463.09,-112.08C456.31,-104.3 446.31,-92.8 438.09,-83.37"/>
<polygon fill="midnightblue" stroke="midnightblue" points="440.67,-81 431.47,-75.75 435.39,-85.59 440.67,-81"/>
</g>
<!-- Node27&#45;&gt;Node16 -->
<g id="edge44" class="edge">
<title>Node27&#45;&gt;Node16</title>
<path fill="none" stroke="midnightblue" d="M1174.8,-168.45C1236.66,-145.55 1358.19,-100.56 1416.34,-79.03"/>
<polygon fill="midnightblue" stroke="midnightblue" points="1417.61,-82.3 1425.77,-75.54 1415.18,-75.73 1417.61,-82.3"/>
</g>
</g>
</svg>
