<?xml version="1.0" encoding="UTF-8" standalone="no"?>
<!DOCTYPE svg PUBLIC "-//W3C//DTD SVG 1.1//EN"
 "http://www.w3.org/Graphics/SVG/1.1/DTD/svg11.dtd">
<!-- Generated by graphviz version 2.43.0 (0)
 -->
<!-- Title: Graphical Class Hierarchy Pages: 1 -->
<svg width="237pt" height="88pt"
 viewBox="0.00 0.00 237.00 88.00" xmlns="http://www.w3.org/2000/svg" xmlns:xlink="http://www.w3.org/1999/xlink">
<g id="graph0" class="graph" transform="scale(1 1) rotate(0) translate(4 84)">
<title>Graphical Class Hierarchy</title>
<polygon fill="white" stroke="transparent" points="-4,4 -4,-84 233,-84 233,4 -4,4"/>
<!-- Node94 -->
<g id="node1" class="node">
<title>Node94</title>
<g id="a_node1"><a xlink:title=" ">
<polygon fill="white" stroke="#bfbfbf" points="0,-30 0,-49 57,-49 57,-30 0,-30"/>
<text text-anchor="middle" x="28.5" y="-37" font-family="Helvetica,sans-Serif" font-size="10.00">Register</text>
</a>
</g>
</g>
<!-- Node0 -->
<g id="node2" class="node">
<title>Node0</title>
<g id="a_node2"><a xlink:href="classamr__wind_1_1channel__map_1_1_channel_flow_map.html" target="_top" xlink:title="Channel flow scaling mesh map.">
<polygon fill="white" stroke="black" points="93,-49.5 93,-79.5 229,-79.5 229,-49.5 93,-49.5"/>
<text text-anchor="start" x="101" y="-67.5" font-family="Helvetica,sans-Serif" font-size="10.00">amr_wind::channel_map</text>
<text text-anchor="middle" x="161" y="-56.5" font-family="Helvetica,sans-Serif" font-size="10.00">::ChannelFlowMap</text>
</a>
</g>
</g>
<!-- Node94&#45;&gt;Node0 -->
<g id="edge1" class="edge">
<title>Node94&#45;&gt;Node0</title>
<path fill="none" stroke="midnightblue" d="M67.05,-46.69C75.18,-48.25 84.01,-49.94 92.89,-51.64"/>
<polygon fill="midnightblue" stroke="midnightblue" points="67.66,-43.25 57.18,-44.8 66.34,-50.12 67.66,-43.25"/>
</g>
<!-- Node96 -->
<g id="node3" class="node">
<title>Node96</title>
<g id="a_node3"><a xlink:href="classamr__wind_1_1const__map_1_1_constant_map.html" target="_top" xlink:title="Coonstant scaling mesh map.">
<polygon fill="white" stroke="black" points="99,-0.5 99,-30.5 223,-30.5 223,-0.5 99,-0.5"/>
<text text-anchor="start" x="107" y="-18.5" font-family="Helvetica,sans-Serif" font-size="10.00">amr_wind::const_map</text>
<text text-anchor="middle" x="161" y="-7.5" font-family="Helvetica,sans-Serif" font-size="10.00">::ConstantMap</text>
</a>
</g>
</g>
<!-- Node94&#45;&gt;Node96 -->
<g id="edge2" class="edge">
<title>Node94&#45;&gt;Node96</title>
<path fill="none" stroke="midnightblue" d="M67.09,-32.59C77.01,-30.76 87.98,-28.74 98.8,-26.75"/>
<polygon fill="midnightblue" stroke="midnightblue" points="66.38,-29.16 57.18,-34.41 67.64,-36.04 66.38,-29.16"/>
</g>
</g>
</svg>
