<?xml version="1.0" encoding="UTF-8" standalone="no"?>
<!DOCTYPE svg PUBLIC "-//W3C//DTD SVG 1.1//EN"
 "http://www.w3.org/Graphics/SVG/1.1/DTD/svg11.dtd">
<!-- Generated by graphviz version 2.43.0 (0)
 -->
<!-- Title: Graphical Class Hierarchy Pages: 1 -->
<svg width="244pt" height="382pt"
 viewBox="0.00 0.00 244.00 382.00" xmlns="http://www.w3.org/2000/svg" xmlns:xlink="http://www.w3.org/1999/xlink">
<g id="graph0" class="graph" transform="scale(1 1) rotate(0) translate(4 378)">
<title>Graphical Class Hierarchy</title>
<polygon fill="white" stroke="transparent" points="-4,4 -4,-378 240,-378 240,4 -4,4"/>
<!-- Node144 -->
<g id="node1" class="node">
<title>Node144</title>
<g id="a_node1"><a xlink:title=" ">
<polygon fill="white" stroke="#bfbfbf" points="0,-177 0,-196 57,-196 57,-177 0,-177"/>
<text text-anchor="middle" x="28.5" y="-184" font-family="Helvetica,sans-Serif" font-size="10.00">Register</text>
</a>
</g>
</g>
<!-- Node0 -->
<g id="node2" class="node">
<title>Node0</title>
<g id="a_node2"><a xlink:href="classamr__wind_1_1ascent__int_1_1_ascent_post_process.html" target="_top" xlink:title=" ">
<polygon fill="white" stroke="black" points="104,-343.5 104,-373.5 225,-373.5 225,-343.5 104,-343.5"/>
<text text-anchor="start" x="112" y="-361.5" font-family="Helvetica,sans-Serif" font-size="10.00">amr_wind::ascent_int</text>
<text text-anchor="middle" x="164.5" y="-350.5" font-family="Helvetica,sans-Serif" font-size="10.00">::AscentPostProcess</text>
</a>
</g>
</g>
<!-- Node144&#45;&gt;Node0 -->
<g id="edge1" class="edge">
<title>Node144&#45;&gt;Node0</title>
<path fill="none" stroke="midnightblue" d="M32.75,-206.56C38.9,-238.15 55.17,-299.48 93,-334.5 96.7,-337.93 100.91,-340.86 105.39,-343.38"/>
<polygon fill="midnightblue" stroke="midnightblue" points="36.13,-205.59 30.92,-196.37 29.24,-206.83 36.13,-205.59"/>
</g>
<!-- Node146 -->
<g id="node3" class="node">
<title>Node146</title>
<g id="a_node3"><a xlink:href="classamr__wind_1_1averaging_1_1_time_averaging.html" target="_top" xlink:title="A collection of time&#45;averaged quantities.">
<polygon fill="white" stroke="black" points="105,-294.5 105,-324.5 224,-324.5 224,-294.5 105,-294.5"/>
<text text-anchor="start" x="113" y="-312.5" font-family="Helvetica,sans-Serif" font-size="10.00">amr_wind::averaging</text>
<text text-anchor="middle" x="164.5" y="-301.5" font-family="Helvetica,sans-Serif" font-size="10.00">::TimeAveraging</text>
</a>
</g>
</g>
<!-- Node144&#45;&gt;Node146 -->
<g id="edge2" class="edge">
<title>Node144&#45;&gt;Node146</title>
<path fill="none" stroke="midnightblue" d="M37.07,-205.58C46.81,-227.81 65.8,-264.2 93,-285.5 97.38,-288.93 102.27,-291.88 107.39,-294.42"/>
<polygon fill="midnightblue" stroke="midnightblue" points="40.23,-204.07 33.14,-196.2 33.77,-206.78 40.23,-204.07"/>
</g>
<!-- Node147 -->
<g id="node4" class="node">
<title>Node147</title>
<g id="a_node4"><a xlink:href="classamr__wind_1_1enstrophy_1_1_enstrophy.html" target="_top" xlink:title="enstrophy object">
<polygon fill="white" stroke="black" points="105,-245.5 105,-275.5 224,-275.5 224,-245.5 105,-245.5"/>
<text text-anchor="start" x="113" y="-263.5" font-family="Helvetica,sans-Serif" font-size="10.00">amr_wind::enstrophy</text>
<text text-anchor="middle" x="164.5" y="-252.5" font-family="Helvetica,sans-Serif" font-size="10.00">::Enstrophy</text>
</a>
</g>
</g>
<!-- Node144&#45;&gt;Node147 -->
<g id="edge3" class="edge">
<title>Node144&#45;&gt;Node147</title>
<path fill="none" stroke="midnightblue" d="M47.09,-203.04C59.23,-213.75 76.17,-227.36 93,-236.5 99.14,-239.83 105.82,-242.83 112.55,-245.48"/>
<polygon fill="midnightblue" stroke="midnightblue" points="49.27,-200.29 39.51,-196.17 44.57,-205.48 49.27,-200.29"/>
</g>
<!-- Node148 -->
<g id="node5" class="node">
<title>Node148</title>
<g id="a_node5"><a xlink:href="classamr__wind_1_1field__norms_1_1_field_norms.html" target="_top" xlink:title="field norm object">
<polygon fill="white" stroke="black" points="100.5,-196.5 100.5,-226.5 228.5,-226.5 228.5,-196.5 100.5,-196.5"/>
<text text-anchor="start" x="108.5" y="-214.5" font-family="Helvetica,sans-Serif" font-size="10.00">amr_wind::field_norms</text>
<text text-anchor="middle" x="164.5" y="-203.5" font-family="Helvetica,sans-Serif" font-size="10.00">::FieldNorms</text>
</a>
</g>
</g>
<!-- Node144&#45;&gt;Node148 -->
<g id="edge4" class="edge">
<title>Node144&#45;&gt;Node148</title>
<path fill="none" stroke="midnightblue" d="M67.18,-193.53C77.53,-195.46 89.04,-197.61 100.41,-199.73"/>
<polygon fill="midnightblue" stroke="midnightblue" points="67.74,-190.07 57.26,-191.68 66.45,-196.95 67.74,-190.07"/>
</g>
<!-- Node149 -->
<g id="node6" class="node">
<title>Node149</title>
<g id="a_node6"><a xlink:href="classamr__wind_1_1free__surface_1_1_free_surface.html" target="_top" xlink:title="Collection of data sampling objects.">
<polygon fill="white" stroke="black" points="99,-147.5 99,-177.5 230,-177.5 230,-147.5 99,-147.5"/>
<text text-anchor="start" x="107" y="-165.5" font-family="Helvetica,sans-Serif" font-size="10.00">amr_wind::free_surface</text>
<text text-anchor="middle" x="164.5" y="-154.5" font-family="Helvetica,sans-Serif" font-size="10.00">::FreeSurface</text>
</a>
</g>
</g>
<!-- Node144&#45;&gt;Node149 -->
<g id="edge5" class="edge">
<title>Node144&#45;&gt;Node149</title>
<path fill="none" stroke="midnightblue" d="M67.11,-179.76C76.97,-178 87.9,-176.04 98.74,-174.1"/>
<polygon fill="midnightblue" stroke="midnightblue" points="66.49,-176.32 57.26,-181.53 67.73,-183.21 66.49,-176.32"/>
</g>
<!-- Node150 -->
<g id="node7" class="node">
<title>Node150</title>
<g id="a_node7"><a xlink:href="classamr__wind_1_1kinetic__energy_1_1_kinetic_energy.html" target="_top" xlink:title="kinetic energy object">
<polygon fill="white" stroke="black" points="93,-98.5 93,-128.5 236,-128.5 236,-98.5 93,-98.5"/>
<text text-anchor="start" x="101" y="-116.5" font-family="Helvetica,sans-Serif" font-size="10.00">amr_wind::kinetic_energy</text>
<text text-anchor="middle" x="164.5" y="-105.5" font-family="Helvetica,sans-Serif" font-size="10.00">::KineticEnergy</text>
</a>
</g>
</g>
<!-- Node144&#45;&gt;Node150 -->
<g id="edge6" class="edge">
<title>Node144&#45;&gt;Node150</title>
<path fill="none" stroke="midnightblue" d="M47.67,-170.37C59.84,-160.19 76.59,-147.34 93,-138.5 99.86,-134.81 107.38,-131.47 114.87,-128.53"/>
<polygon fill="midnightblue" stroke="midnightblue" points="45.36,-167.74 40.04,-176.91 49.91,-173.06 45.36,-167.74"/>
</g>
<!-- Node151 -->
<g id="node8" class="node">
<title>Node151</title>
<g id="a_node8"><a xlink:href="classamr__wind_1_1sampling_1_1_sampling.html" target="_top" xlink:title="Collection of data sampling objects.">
<polygon fill="white" stroke="black" points="106.5,-49.5 106.5,-79.5 222.5,-79.5 222.5,-49.5 106.5,-49.5"/>
<text text-anchor="start" x="114.5" y="-67.5" font-family="Helvetica,sans-Serif" font-size="10.00">amr_wind::sampling</text>
<text text-anchor="middle" x="164.5" y="-56.5" font-family="Helvetica,sans-Serif" font-size="10.00">::Sampling</text>
</a>
</g>
</g>
<!-- Node144&#45;&gt;Node151 -->
<g id="edge7" class="edge">
<title>Node144&#45;&gt;Node151</title>
<path fill="none" stroke="midnightblue" d="M37.37,-167.53C47.3,-145.78 66.36,-110.43 93,-89.5 97.9,-85.65 103.44,-82.36 109.21,-79.57"/>
<polygon fill="midnightblue" stroke="midnightblue" points="34.14,-166.17 33.34,-176.73 40.56,-168.97 34.14,-166.17"/>
</g>
<!-- Node152 -->
<g id="node9" class="node">
<title>Node152</title>
<g id="a_node9"><a xlink:href="classamr__wind_1_1wave__energy_1_1_wave_energy.html" target="_top" xlink:title="wave energy object">
<polygon fill="white" stroke="black" points="96.5,-0.5 96.5,-30.5 232.5,-30.5 232.5,-0.5 96.5,-0.5"/>
<text text-anchor="start" x="104.5" y="-18.5" font-family="Helvetica,sans-Serif" font-size="10.00">amr_wind::wave_energy</text>
<text text-anchor="middle" x="164.5" y="-7.5" font-family="Helvetica,sans-Serif" font-size="10.00">::WaveEnergy</text>
</a>
</g>
</g>
<!-- Node144&#45;&gt;Node152 -->
<g id="edge8" class="edge">
<title>Node144&#45;&gt;Node152</title>
<path fill="none" stroke="midnightblue" d="M32.88,-166.76C39.21,-135.67 55.74,-75.26 93,-40.5 97.18,-36.6 102,-33.31 107.13,-30.52"/>
<polygon fill="midnightblue" stroke="midnightblue" points="29.4,-166.32 30.99,-176.79 36.28,-167.61 29.4,-166.32"/>
</g>
</g>
</svg>
