<?xml version="1.0" encoding="UTF-8" standalone="no"?>
<!DOCTYPE svg PUBLIC "-//W3C//DTD SVG 1.1//EN"
 "http://www.w3.org/Graphics/SVG/1.1/DTD/svg11.dtd">
<!-- Generated by graphviz version 2.43.0 (0)
 -->
<!-- Title: laplacian.H Pages: 1 -->
<!--zoomable 308 -->
<svg id="main" version="1.1" xmlns="http://www.w3.org/2000/svg" xmlns:xlink="http://www.w3.org/1999/xlink" xml:space="preserve" onload="init(evt)">
<style type="text/css"><![CDATA[
.edge:hover path { stroke: red; }
.edge:hover polygon { stroke: red; fill: red; }
]]></style>
<script type="text/javascript"><![CDATA[
var edges = document.getElementsByTagName('g');
if (edges && edges.length) {
  for (var i=0;i<edges.length;i++) {
    if (edges[i].id.substr(0,4)=='edge') {
      edges[i].setAttribute('class','edge');
    }
  }
}
]]></script>
        <defs>
                <circle id="rim" cx="0" cy="0" r="7"/>
                <circle id="rim2" cx="0" cy="0" r="3.5"/>
                <g id="zoomPlus">
                        <use xlink:href="#rim" fill="#404040">
                                <set attributeName="fill" to="#808080" begin="zoomplus.mouseover" end="zoomplus.mouseout"/>
                        </use>
                        <path d="M-4,0h8M0,-4v8" fill="none" stroke="white" stroke-width="1.5" pointer-events="none"/>
                </g>
                <g id="zoomMin">
                        <use xlink:href="#rim" fill="#404040">
                                <set attributeName="fill" to="#808080" begin="zoomminus.mouseover" end="zoomminus.mouseout"/>
                        </use>
                        <path d="M-4,0h8" fill="none" stroke="white" stroke-width="1.5" pointer-events="none"/>
                </g>
                <g id="dirArrow">
                        <path fill="none" stroke="white" stroke-width="1.5" d="M0,-3.0v7 M-2.5,-0.5L0,-3.0L2.5,-0.5"/>
                </g>
               <g id="resetDef">
                       <use xlink:href="#rim2" fill="#404040">
                               <set attributeName="fill" to="#808080" begin="reset.mouseover" end="reset.mouseout"/>
                       </use>
               </g>
        </defs>

<script type="text/javascript">
var viewWidth = 2237;
var viewHeight = 308;
var sectionId = 'dynsection-0';
</script>
<script xlink:href="svgpan.js"/>
<svg id="graph" class="graph">
<g id="viewport">
<title>laplacian.H</title>
<polygon fill="white" stroke="transparent" points="-4,4 -4,-304 2233.3,-304 2233.3,4 -4,4"/>
<!-- Node1 -->
<g id="node1" class="node">
<title>Node1</title>
<g id="a_node1"><a xlink:title=" ">
<polygon fill="#bfbfbf" stroke="black" points="1921.8,-280.5 1921.8,-299.5 1992.8,-299.5 1992.8,-280.5 1921.8,-280.5"/>
<text text-anchor="middle" x="1957.3" y="-287.5" font-family="Helvetica,sans-Serif" font-size="10.00">laplacian.H</text>
</a>
</g>
</g>
<!-- Node2 -->
<g id="node2" class="node">
<title>Node2</title>
<g id="a_node2"><a xlink:href="fvm__utils_8_h.html" target="_top" xlink:title=" ">
<polygon fill="white" stroke="black" points="1884.8,-224.5 1884.8,-243.5 2029.8,-243.5 2029.8,-224.5 1884.8,-224.5"/>
<text text-anchor="middle" x="1957.3" y="-231.5" font-family="Helvetica,sans-Serif" font-size="10.00">amr&#45;wind/fvm/fvm_utils.H</text>
</a>
</g>
</g>
<!-- Node1&#45;&gt;Node2 -->
<g id="edge1" class="edge">
<title>Node1&#45;&gt;Node2</title>
<path fill="none" stroke="midnightblue" d="M1957.3,-280.08C1957.3,-273.01 1957.3,-262.86 1957.3,-253.99"/>
<polygon fill="midnightblue" stroke="midnightblue" points="1960.8,-253.75 1957.3,-243.75 1953.8,-253.75 1960.8,-253.75"/>
</g>
<!-- Node3 -->
<g id="node3" class="node">
<title>Node3</title>
<g id="a_node3"><a xlink:href="_field_repo_8_h.html" target="_top" xlink:title=" ">
<polygon fill="white" stroke="black" points="826.8,-168.5 826.8,-187.5 975.8,-187.5 975.8,-168.5 826.8,-168.5"/>
<text text-anchor="middle" x="901.3" y="-175.5" font-family="Helvetica,sans-Serif" font-size="10.00">amr&#45;wind/core/FieldRepo.H</text>
</a>
</g>
</g>
<!-- Node2&#45;&gt;Node3 -->
<g id="edge2" class="edge">
<title>Node2&#45;&gt;Node3</title>
<path fill="none" stroke="midnightblue" d="M1884.72,-229.29C1695.67,-219.62 1188.77,-193.7 986.43,-183.35"/>
<polygon fill="midnightblue" stroke="midnightblue" points="986.32,-179.84 976.15,-182.83 985.96,-186.83 986.32,-179.84"/>
</g>
<!-- Node24 -->
<g id="node24" class="node">
<title>Node24</title>
<g id="a_node24"><a xlink:href="stencils_8_h.html" target="_top" xlink:title="Second&#45;order finite volume discretization stencil coefficients.">
<polygon fill="white" stroke="black" points="1888.8,-168.5 1888.8,-187.5 2025.8,-187.5 2025.8,-168.5 1888.8,-168.5"/>
<text text-anchor="middle" x="1957.3" y="-175.5" font-family="Helvetica,sans-Serif" font-size="10.00">amr&#45;wind/fvm/stencils.H</text>
</a>
</g>
</g>
<!-- Node2&#45;&gt;Node24 -->
<g id="edge40" class="edge">
<title>Node2&#45;&gt;Node24</title>
<path fill="none" stroke="midnightblue" d="M1957.3,-224.08C1957.3,-217.01 1957.3,-206.86 1957.3,-197.99"/>
<polygon fill="midnightblue" stroke="midnightblue" points="1960.8,-197.75 1957.3,-187.75 1953.8,-197.75 1960.8,-197.75"/>
</g>
<!-- Node29 -->
<g id="node29" class="node">
<title>Node29</title>
<g id="a_node29"><a xlink:title=" ">
<polygon fill="white" stroke="#bfbfbf" points="2044.3,-168.5 2044.3,-187.5 2142.3,-187.5 2142.3,-168.5 2044.3,-168.5"/>
<text text-anchor="middle" x="2093.3" y="-175.5" font-family="Helvetica,sans-Serif" font-size="10.00">AMReX_MFIter.H</text>
</a>
</g>
</g>
<!-- Node2&#45;&gt;Node29 -->
<g id="edge45" class="edge">
<title>Node2&#45;&gt;Node29</title>
<path fill="none" stroke="midnightblue" d="M1978.85,-224.44C2001.33,-215.52 2036.79,-201.44 2062.28,-191.32"/>
<polygon fill="midnightblue" stroke="midnightblue" points="2063.85,-194.46 2071.85,-187.52 2061.27,-187.95 2063.85,-194.46"/>
</g>
<!-- Node4 -->
<g id="node4" class="node">
<title>Node4</title>
<g id="a_node4"><a xlink:title=" ">
<polygon fill="white" stroke="#bfbfbf" points="171.3,-0.5 171.3,-19.5 215.3,-19.5 215.3,-0.5 171.3,-0.5"/>
<text text-anchor="middle" x="193.3" y="-7.5" font-family="Helvetica,sans-Serif" font-size="10.00">string</text>
</a>
</g>
</g>
<!-- Node3&#45;&gt;Node4 -->
<g id="edge3" class="edge">
<title>Node3&#45;&gt;Node4</title>
<path fill="none" stroke="midnightblue" d="M826.61,-176.35C658.49,-174.29 254.81,-165.87 123.3,-132 67.47,-117.62 37.03,-124.78 6.3,-76 -29.55,-19.1 98.66,-11.21 161.08,-10.65"/>
<polygon fill="midnightblue" stroke="midnightblue" points="161.21,-14.15 171.2,-10.62 161.19,-7.15 161.21,-14.15"/>
</g>
<!-- Node5 -->
<g id="node5" class="node">
<title>Node5</title>
<g id="a_node5"><a xlink:title=" ">
<polygon fill="white" stroke="#bfbfbf" points="1609.8,-56.5 1609.8,-75.5 1702.8,-75.5 1702.8,-56.5 1609.8,-56.5"/>
<text text-anchor="middle" x="1656.3" y="-63.5" font-family="Helvetica,sans-Serif" font-size="10.00">unordered_map</text>
</a>
</g>
</g>
<!-- Node3&#45;&gt;Node5 -->
<g id="edge4" class="edge">
<title>Node3&#45;&gt;Node5</title>
<path fill="none" stroke="midnightblue" d="M975.97,-170.47C1057.95,-162.9 1193.35,-149.23 1309.3,-132 1415.55,-116.21 1538.95,-91.58 1606.22,-77.61"/>
<polygon fill="midnightblue" stroke="midnightblue" points="1607.05,-81.01 1616.13,-75.54 1605.63,-74.16 1607.05,-81.01"/>
</g>
<!-- Node6 -->
<g id="node6" class="node">
<title>Node6</title>
<g id="a_node6"><a xlink:href="_field_desc_types_8_h.html" target="_top" xlink:title=" ">
<polygon fill="white" stroke="black" points="591.3,-0.5 591.3,-19.5 767.3,-19.5 767.3,-0.5 591.3,-0.5"/>
<text text-anchor="middle" x="679.3" y="-7.5" font-family="Helvetica,sans-Serif" font-size="10.00">amr&#45;wind/core/FieldDescTypes.H</text>
</a>
</g>
</g>
<!-- Node3&#45;&gt;Node6 -->
<g id="edge5" class="edge">
<title>Node3&#45;&gt;Node6</title>
<path fill="none" stroke="midnightblue" d="M890.31,-168.33C864.76,-148.25 799.28,-97.09 743.3,-56 729.2,-45.65 713.1,-34.33 700.57,-25.63"/>
<polygon fill="midnightblue" stroke="midnightblue" points="702.37,-22.62 692.16,-19.81 698.39,-28.38 702.37,-22.62"/>
</g>
<!-- Node7 -->
<g id="node7" class="node">
<title>Node7</title>
<g id="a_node7"><a xlink:href="_field_utils_8_h.html" target="_top" xlink:title=" ">
<polygon fill="white" stroke="black" points="828.3,-56.5 828.3,-75.5 974.3,-75.5 974.3,-56.5 828.3,-56.5"/>
<text text-anchor="middle" x="901.3" y="-63.5" font-family="Helvetica,sans-Serif" font-size="10.00">amr&#45;wind/core/FieldUtils.H</text>
</a>
</g>
</g>
<!-- Node3&#45;&gt;Node7 -->
<g id="edge6" class="edge">
<title>Node3&#45;&gt;Node7</title>
<path fill="none" stroke="midnightblue" d="M901.3,-168.37C901.3,-150.62 901.3,-109.67 901.3,-85.6"/>
<polygon fill="midnightblue" stroke="midnightblue" points="904.8,-85.59 901.3,-75.59 897.8,-85.59 904.8,-85.59"/>
</g>
<!-- Node8 -->
<g id="node8" class="node">
<title>Node8</title>
<g id="a_node8"><a xlink:title=" ">
<polygon fill="white" stroke="#bfbfbf" points="964.8,-0.5 964.8,-19.5 1073.8,-19.5 1073.8,-0.5 964.8,-0.5"/>
<text text-anchor="middle" x="1019.3" y="-7.5" font-family="Helvetica,sans-Serif" font-size="10.00">AMReX_MultiFab.H</text>
</a>
</g>
</g>
<!-- Node3&#45;&gt;Node8 -->
<g id="edge38" class="edge">
<title>Node3&#45;&gt;Node8</title>
<path fill="none" stroke="midnightblue" d="M975.84,-173.36C1167.21,-163.26 1664.15,-131.82 1711.3,-76 1717.04,-69.21 1717.38,-62.49 1711.3,-56 1668.99,-10.84 1248.25,-9.19 1084.26,-10.3"/>
<polygon fill="midnightblue" stroke="midnightblue" points="1083.81,-6.8 1073.84,-10.37 1083.86,-13.8 1083.81,-6.8"/>
</g>
<!-- Node10 -->
<g id="node10" class="node">
<title>Node10</title>
<g id="a_node10"><a xlink:href="_field_8_h.html" target="_top" xlink:title=" ">
<polygon fill="white" stroke="black" points="1048.3,-112.5 1048.3,-131.5 1172.3,-131.5 1172.3,-112.5 1048.3,-112.5"/>
<text text-anchor="middle" x="1110.3" y="-119.5" font-family="Helvetica,sans-Serif" font-size="10.00">amr&#45;wind/core/Field.H</text>
</a>
</g>
</g>
<!-- Node3&#45;&gt;Node10 -->
<g id="edge10" class="edge">
<title>Node3&#45;&gt;Node10</title>
<path fill="none" stroke="midnightblue" d="M934.42,-168.44C970.42,-159.14 1028.07,-144.25 1067.49,-134.06"/>
<polygon fill="midnightblue" stroke="midnightblue" points="1068.53,-137.41 1077.34,-131.52 1066.78,-130.63 1068.53,-137.41"/>
</g>
<!-- Node18 -->
<g id="node18" class="node">
<title>Node18</title>
<g id="a_node18"><a xlink:href="_int_field_8_h.html" target="_top" xlink:title=" ">
<polygon fill="white" stroke="black" points="175.8,-112.5 175.8,-131.5 312.8,-131.5 312.8,-112.5 175.8,-112.5"/>
<text text-anchor="middle" x="244.3" y="-119.5" font-family="Helvetica,sans-Serif" font-size="10.00">amr&#45;wind/core/IntField.H</text>
</a>
</g>
</g>
<!-- Node3&#45;&gt;Node18 -->
<g id="edge25" class="edge">
<title>Node3&#45;&gt;Node18</title>
<path fill="none" stroke="midnightblue" d="M826.57,-170.86C701.49,-160.58 450.87,-139.98 323.11,-129.48"/>
<polygon fill="midnightblue" stroke="midnightblue" points="323.26,-125.98 313.01,-128.65 322.68,-132.95 323.26,-125.98"/>
</g>
<!-- Node19 -->
<g id="node19" class="node">
<title>Node19</title>
<g id="a_node19"><a xlink:title=" ">
<polygon fill="white" stroke="#bfbfbf" points="15.3,-56.5 15.3,-75.5 127.3,-75.5 127.3,-56.5 15.3,-56.5"/>
<text text-anchor="middle" x="71.3" y="-63.5" font-family="Helvetica,sans-Serif" font-size="10.00">AMReX_iMultiFab.H</text>
</a>
</g>
</g>
<!-- Node3&#45;&gt;Node19 -->
<g id="edge39" class="edge">
<title>Node3&#45;&gt;Node19</title>
<path fill="none" stroke="midnightblue" d="M826.72,-177.44C664.96,-177.59 286.77,-173.34 166.3,-132 135.76,-121.52 105.93,-98.38 88.08,-82.73"/>
<polygon fill="midnightblue" stroke="midnightblue" points="90.1,-79.84 80.33,-75.74 85.41,-85.04 90.1,-79.84"/>
</g>
<!-- Node20 -->
<g id="node20" class="node">
<title>Node20</title>
<g id="a_node20"><a xlink:href="_scratch_field_8_h.html" target="_top" xlink:title=" ">
<polygon fill="white" stroke="black" points="398.3,-112.5 398.3,-131.5 558.3,-131.5 558.3,-112.5 398.3,-112.5"/>
<text text-anchor="middle" x="478.3" y="-119.5" font-family="Helvetica,sans-Serif" font-size="10.00">amr&#45;wind/core/ScratchField.H</text>
</a>
</g>
</g>
<!-- Node3&#45;&gt;Node20 -->
<g id="edge29" class="edge">
<title>Node3&#45;&gt;Node20</title>
<path fill="none" stroke="midnightblue" d="M834.28,-168.44C758.32,-158.75 634.74,-142.97 555,-132.79"/>
<polygon fill="midnightblue" stroke="midnightblue" points="555.38,-129.31 545.01,-131.52 554.49,-136.25 555.38,-129.31"/>
</g>
<!-- Node23 -->
<g id="node23" class="node">
<title>Node23</title>
<g id="a_node23"><a xlink:title=" ">
<polygon fill="white" stroke="#bfbfbf" points="1190.3,-112.5 1190.3,-131.5 1300.3,-131.5 1300.3,-112.5 1190.3,-112.5"/>
<text text-anchor="middle" x="1245.3" y="-119.5" font-family="Helvetica,sans-Serif" font-size="10.00">AMReX_AmrCore.H</text>
</a>
</g>
</g>
<!-- Node3&#45;&gt;Node23 -->
<g id="edge37" class="edge">
<title>Node3&#45;&gt;Node23</title>
<path fill="none" stroke="midnightblue" d="M955.81,-168.44C1016.95,-158.85 1116.04,-143.29 1180.94,-133.1"/>
<polygon fill="midnightblue" stroke="midnightblue" points="1181.71,-136.52 1191.05,-131.52 1180.63,-129.61 1181.71,-136.52"/>
</g>
<!-- Node7&#45;&gt;Node6 -->
<g id="edge7" class="edge">
<title>Node7&#45;&gt;Node6</title>
<path fill="none" stroke="midnightblue" d="M866.12,-56.44C827.72,-47.1 766.13,-32.12 724.25,-21.93"/>
<polygon fill="midnightblue" stroke="midnightblue" points="724.86,-18.48 714.31,-19.52 723.2,-25.28 724.86,-18.48"/>
</g>
<!-- Node7&#45;&gt;Node8 -->
<g id="edge8" class="edge">
<title>Node7&#45;&gt;Node8</title>
<path fill="none" stroke="midnightblue" d="M920,-56.44C939.25,-47.64 969.45,-33.81 991.5,-23.72"/>
<polygon fill="midnightblue" stroke="midnightblue" points="993.05,-26.86 1000.69,-19.52 990.14,-20.5 993.05,-26.86"/>
</g>
<!-- Node9 -->
<g id="node9" class="node">
<title>Node9</title>
<g id="a_node9"><a xlink:title=" ">
<polygon fill="white" stroke="#bfbfbf" points="822.3,-0.5 822.3,-19.5 946.3,-19.5 946.3,-0.5 822.3,-0.5"/>
<text text-anchor="middle" x="884.3" y="-7.5" font-family="Helvetica,sans-Serif" font-size="10.00">AMReX_Interpolater.H</text>
</a>
</g>
</g>
<!-- Node7&#45;&gt;Node9 -->
<g id="edge9" class="edge">
<title>Node7&#45;&gt;Node9</title>
<path fill="none" stroke="midnightblue" d="M898.49,-56.08C896.22,-48.85 892.93,-38.41 890.09,-29.4"/>
<polygon fill="midnightblue" stroke="midnightblue" points="893.4,-28.24 887.06,-19.75 886.72,-30.34 893.4,-28.24"/>
</g>
<!-- Node10&#45;&gt;Node4 -->
<g id="edge11" class="edge">
<title>Node10&#45;&gt;Node4</title>
<path fill="none" stroke="midnightblue" d="M1047.91,-119.17C947.94,-115.46 745.96,-104.81 577.3,-76 542.45,-70.05 534.95,-63.02 500.3,-56 400.85,-35.86 281.55,-20.99 225.44,-14.55"/>
<polygon fill="midnightblue" stroke="midnightblue" points="225.74,-11.06 215.41,-13.4 224.95,-18.01 225.74,-11.06"/>
</g>
<!-- Node10&#45;&gt;Node5 -->
<g id="edge13" class="edge">
<title>Node10&#45;&gt;Node5</title>
<path fill="none" stroke="midnightblue" d="M1172.62,-112.96C1175.55,-112.62 1178.46,-112.3 1181.3,-112 1363.89,-92.59 1413.08,-98.62 1599.45,-76.01"/>
<polygon fill="midnightblue" stroke="midnightblue" points="1600.09,-79.46 1609.59,-74.77 1599.24,-72.51 1600.09,-79.46"/>
</g>
<!-- Node10&#45;&gt;Node6 -->
<g id="edge19" class="edge">
<title>Node10&#45;&gt;Node6</title>
<path fill="none" stroke="midnightblue" d="M1048.15,-116.49C988.45,-110.97 896.23,-99.33 819.3,-76 799.13,-69.88 795.42,-64.88 776.3,-56 752.97,-45.16 726.47,-32.87 707.07,-23.88"/>
<polygon fill="midnightblue" stroke="midnightblue" points="708.44,-20.65 697.9,-19.62 705.5,-27 708.44,-20.65"/>
</g>
<!-- Node10&#45;&gt;Node8 -->
<g id="edge15" class="edge">
<title>Node10&#45;&gt;Node8</title>
<path fill="none" stroke="midnightblue" d="M1116.47,-112.26C1124.98,-99.04 1138,-73.62 1126.3,-56 1115.53,-39.78 1097.64,-29.39 1079.55,-22.75"/>
<polygon fill="midnightblue" stroke="midnightblue" points="1080.4,-19.34 1069.81,-19.51 1078.2,-25.99 1080.4,-19.34"/>
</g>
<!-- Node11 -->
<g id="node11" class="node">
<title>Node11</title>
<g id="a_node11"><a xlink:title=" ">
<polygon fill="white" stroke="#bfbfbf" points="1334.3,-56.5 1334.3,-75.5 1392.3,-75.5 1392.3,-56.5 1334.3,-56.5"/>
<text text-anchor="middle" x="1363.3" y="-63.5" font-family="Helvetica,sans-Serif" font-size="10.00">memory</text>
</a>
</g>
</g>
<!-- Node10&#45;&gt;Node11 -->
<g id="edge12" class="edge">
<title>Node10&#45;&gt;Node11</title>
<path fill="none" stroke="midnightblue" d="M1152.18,-112.45C1193.25,-104 1257.91,-90.56 1323.78,-76.08"/>
<polygon fill="midnightblue" stroke="midnightblue" points="1324.91,-79.41 1333.93,-73.84 1323.41,-72.58 1324.91,-79.41"/>
</g>
<!-- Node12 -->
<g id="node12" class="node">
<title>Node12</title>
<g id="a_node12"><a xlink:title=" ">
<polygon fill="white" stroke="#bfbfbf" points="1410.3,-56.5 1410.3,-75.5 1474.3,-75.5 1474.3,-56.5 1410.3,-56.5"/>
<text text-anchor="middle" x="1442.3" y="-63.5" font-family="Helvetica,sans-Serif" font-size="10.00">algorithm</text>
</a>
</g>
</g>
<!-- Node10&#45;&gt;Node12 -->
<g id="edge14" class="edge">
<title>Node10&#45;&gt;Node12</title>
<path fill="none" stroke="midnightblue" d="M1172.37,-112.55C1229.17,-104.56 1315.75,-91.72 1400.1,-76.13"/>
<polygon fill="midnightblue" stroke="midnightblue" points="1400.92,-79.54 1410.11,-74.27 1399.64,-72.66 1400.92,-79.54"/>
</g>
<!-- Node13 -->
<g id="node13" class="node">
<title>Node13</title>
<g id="a_node13"><a xlink:title=" ">
<polygon fill="white" stroke="#bfbfbf" points="1492.8,-56.5 1492.8,-75.5 1591.8,-75.5 1591.8,-56.5 1492.8,-56.5"/>
<text text-anchor="middle" x="1542.3" y="-63.5" font-family="Helvetica,sans-Serif" font-size="10.00">AMReX_BCRec.H</text>
</a>
</g>
</g>
<!-- Node10&#45;&gt;Node13 -->
<g id="edge16" class="edge">
<title>Node10&#45;&gt;Node13</title>
<path fill="none" stroke="midnightblue" d="M1172.64,-113.07C1175.56,-112.71 1178.46,-112.35 1181.3,-112 1312.19,-95.9 1347.64,-94.27 1482.43,-76.08"/>
<polygon fill="midnightblue" stroke="midnightblue" points="1483.3,-79.49 1492.74,-74.68 1482.36,-72.55 1483.3,-79.49"/>
</g>
<!-- Node14 -->
<g id="node14" class="node">
<title>Node14</title>
<g id="a_node14"><a xlink:title=" ">
<polygon fill="white" stroke="#bfbfbf" points="1030.8,-56.5 1030.8,-75.5 1117.8,-75.5 1117.8,-56.5 1030.8,-56.5"/>
<text text-anchor="middle" x="1074.3" y="-63.5" font-family="Helvetica,sans-Serif" font-size="10.00">AMReX_Gpu.H</text>
</a>
</g>
</g>
<!-- Node10&#45;&gt;Node14 -->
<g id="edge17" class="edge">
<title>Node10&#45;&gt;Node14</title>
<path fill="none" stroke="midnightblue" d="M1104.36,-112.08C1099.32,-104.53 1091.96,-93.49 1085.79,-84.23"/>
<polygon fill="midnightblue" stroke="midnightblue" points="1088.59,-82.13 1080.13,-75.75 1082.77,-86.01 1088.59,-82.13"/>
</g>
<!-- Node15 -->
<g id="node15" class="node">
<title>Node15</title>
<g id="a_node15"><a xlink:href="incflo__enums_8_h.html" target="_top" xlink:title=" ">
<polygon fill="white" stroke="black" points="1174.8,-56.5 1174.8,-75.5 1315.8,-75.5 1315.8,-56.5 1174.8,-56.5"/>
<text text-anchor="middle" x="1245.3" y="-63.5" font-family="Helvetica,sans-Serif" font-size="10.00">amr&#45;wind/incflo_enums.H</text>
</a>
</g>
</g>
<!-- Node10&#45;&gt;Node15 -->
<g id="edge18" class="edge">
<title>Node10&#45;&gt;Node15</title>
<path fill="none" stroke="midnightblue" d="M1131.69,-112.44C1154.01,-103.52 1189.2,-89.44 1214.51,-79.32"/>
<polygon fill="midnightblue" stroke="midnightblue" points="1216.02,-82.48 1224.01,-75.52 1213.43,-75.98 1216.02,-82.48"/>
</g>
<!-- Node16 -->
<g id="node16" class="node">
<title>Node16</title>
<g id="a_node16"><a xlink:href="_view_field_8_h.html" target="_top" xlink:title=" ">
<polygon fill="white" stroke="black" points="586.3,-56.5 586.3,-75.5 734.3,-75.5 734.3,-56.5 586.3,-56.5"/>
<text text-anchor="middle" x="660.3" y="-63.5" font-family="Helvetica,sans-Serif" font-size="10.00">amr&#45;wind/core/ViewField.H</text>
</a>
</g>
</g>
<!-- Node10&#45;&gt;Node16 -->
<g id="edge20" class="edge">
<title>Node10&#45;&gt;Node16</title>
<path fill="none" stroke="midnightblue" d="M1048.2,-113.55C968.34,-103.96 829.46,-87.3 741.35,-76.73"/>
<polygon fill="midnightblue" stroke="midnightblue" points="741.74,-73.25 731.4,-75.53 740.91,-80.2 741.74,-73.25"/>
</g>
<!-- Node16&#45;&gt;Node4 -->
<g id="edge21" class="edge">
<title>Node16&#45;&gt;Node4</title>
<path fill="none" stroke="midnightblue" d="M586.56,-56.47C483.18,-44.52 299.53,-23.28 225.53,-14.73"/>
<polygon fill="midnightblue" stroke="midnightblue" points="225.76,-11.23 215.43,-13.56 224.96,-18.18 225.76,-11.23"/>
</g>
<!-- Node16&#45;&gt;Node6 -->
<g id="edge22" class="edge">
<title>Node16&#45;&gt;Node6</title>
<path fill="none" stroke="midnightblue" d="M663.44,-56.08C665.98,-48.85 669.66,-38.41 672.83,-29.4"/>
<polygon fill="midnightblue" stroke="midnightblue" points="676.2,-30.35 676.22,-19.75 669.6,-28.02 676.2,-30.35"/>
</g>
<!-- Node16&#45;&gt;Node8 -->
<g id="edge23" class="edge">
<title>Node16&#45;&gt;Node8</title>
<path fill="none" stroke="midnightblue" d="M717.19,-56.44C781.78,-46.73 886.96,-30.91 954.63,-20.73"/>
<polygon fill="midnightblue" stroke="midnightblue" points="955.37,-24.16 964.74,-19.21 954.33,-17.23 955.37,-24.16"/>
</g>
<!-- Node17 -->
<g id="node17" class="node">
<title>Node17</title>
<g id="a_node17"><a xlink:title=" ">
<polygon fill="white" stroke="#bfbfbf" points="364.3,-0.5 364.3,-19.5 462.3,-19.5 462.3,-0.5 364.3,-0.5"/>
<text text-anchor="middle" x="413.3" y="-7.5" font-family="Helvetica,sans-Serif" font-size="10.00">AMReX_Vector.H</text>
</a>
</g>
</g>
<!-- Node16&#45;&gt;Node17 -->
<g id="edge24" class="edge">
<title>Node16&#45;&gt;Node17</title>
<path fill="none" stroke="midnightblue" d="M621.16,-56.44C578.07,-47.02 508.74,-31.87 462.13,-21.68"/>
<polygon fill="midnightblue" stroke="midnightblue" points="462.77,-18.23 452.26,-19.52 461.28,-25.07 462.77,-18.23"/>
</g>
<!-- Node18&#45;&gt;Node4 -->
<g id="edge26" class="edge">
<title>Node18&#45;&gt;Node4</title>
<path fill="none" stroke="midnightblue" d="M222.49,-112.45C207.36,-105.22 188.35,-93.26 179.3,-76 171.62,-61.33 176.94,-42.7 183.1,-29.14"/>
<polygon fill="midnightblue" stroke="midnightblue" points="186.38,-30.42 187.78,-19.92 180.14,-27.25 186.38,-30.42"/>
</g>
<!-- Node18&#45;&gt;Node6 -->
<g id="edge27" class="edge">
<title>Node18&#45;&gt;Node6</title>
<path fill="none" stroke="midnightblue" d="M247.33,-112.49C252.93,-98.11 266.4,-69.28 288.3,-56 312.82,-41.13 473.25,-26.42 580.84,-18.05"/>
<polygon fill="midnightblue" stroke="midnightblue" points="581.38,-21.51 591.08,-17.26 580.84,-14.54 581.38,-21.51"/>
</g>
<!-- Node18&#45;&gt;Node19 -->
<g id="edge28" class="edge">
<title>Node18&#45;&gt;Node19</title>
<path fill="none" stroke="midnightblue" d="M216.89,-112.44C187.53,-103.28 140.78,-88.69 108.2,-78.52"/>
<polygon fill="midnightblue" stroke="midnightblue" points="109.17,-75.16 98.58,-75.52 107.09,-81.84 109.17,-75.16"/>
</g>
<!-- Node20&#45;&gt;Node4 -->
<g id="edge30" class="edge">
<title>Node20&#45;&gt;Node4</title>
<path fill="none" stroke="midnightblue" d="M407.32,-112.44C368.23,-105.91 319.62,-94.73 279.3,-76 252.42,-63.51 225.88,-41.6 209.55,-26.7"/>
<polygon fill="midnightblue" stroke="midnightblue" points="211.69,-23.91 201.99,-19.63 206.91,-29.02 211.69,-23.91"/>
</g>
<!-- Node20&#45;&gt;Node6 -->
<g id="edge32" class="edge">
<title>Node20&#45;&gt;Node6</title>
<path fill="none" stroke="midnightblue" d="M490.09,-112.33C508.26,-99.19 544.43,-73.88 577.3,-56 600.09,-43.6 626.99,-31.85 647.44,-23.46"/>
<polygon fill="midnightblue" stroke="midnightblue" points="648.95,-26.62 656.91,-19.63 646.33,-20.14 648.95,-26.62"/>
</g>
<!-- Node20&#45;&gt;Node8 -->
<g id="edge34" class="edge">
<title>Node20&#45;&gt;Node8</title>
<path fill="none" stroke="midnightblue" d="M558.39,-117.96C691.85,-112.29 948.58,-98.6 983.3,-76 999.66,-65.36 1009.25,-44.59 1014.37,-29.39"/>
<polygon fill="midnightblue" stroke="midnightblue" points="1017.81,-30.11 1017.33,-19.52 1011.1,-28.09 1017.81,-30.11"/>
</g>
<!-- Node20&#45;&gt;Node16 -->
<g id="edge33" class="edge">
<title>Node20&#45;&gt;Node16</title>
<path fill="none" stroke="midnightblue" d="M507.14,-112.44C538.16,-103.24 587.63,-88.56 621.92,-78.39"/>
<polygon fill="midnightblue" stroke="midnightblue" points="623.01,-81.72 631.6,-75.52 621.01,-75.01 623.01,-81.72"/>
</g>
<!-- Node20&#45;&gt;Node17 -->
<g id="edge35" class="edge">
<title>Node20&#45;&gt;Node17</title>
<path fill="none" stroke="midnightblue" d="M401.37,-112.49C355.13,-105.61 302.57,-94.05 288.3,-76 265.71,-47.43 311.69,-30.11 354.11,-20.61"/>
<polygon fill="midnightblue" stroke="midnightblue" points="354.87,-24.03 363.93,-18.53 353.42,-17.18 354.87,-24.03"/>
</g>
<!-- Node21 -->
<g id="node21" class="node">
<title>Node21</title>
<g id="a_node21"><a xlink:title=" ">
<polygon fill="white" stroke="#bfbfbf" points="297.8,-56.5 297.8,-75.5 342.8,-75.5 342.8,-56.5 297.8,-56.5"/>
<text text-anchor="middle" x="320.3" y="-63.5" font-family="Helvetica,sans-Serif" font-size="10.00">utility</text>
</a>
</g>
</g>
<!-- Node20&#45;&gt;Node21 -->
<g id="edge31" class="edge">
<title>Node20&#45;&gt;Node21</title>
<path fill="none" stroke="midnightblue" d="M453.27,-112.44C425.98,-103.12 382.25,-88.17 352.44,-77.99"/>
<polygon fill="midnightblue" stroke="midnightblue" points="353.51,-74.65 342.92,-74.73 351.25,-81.28 353.51,-74.65"/>
</g>
<!-- Node22 -->
<g id="node22" class="node">
<title>Node22</title>
<g id="a_node22"><a xlink:title=" ">
<polygon fill="white" stroke="#bfbfbf" points="360.8,-56.5 360.8,-75.5 491.8,-75.5 491.8,-56.5 360.8,-56.5"/>
<text text-anchor="middle" x="426.3" y="-63.5" font-family="Helvetica,sans-Serif" font-size="10.00">AMReX_PhysBCFunct.H</text>
</a>
</g>
</g>
<!-- Node20&#45;&gt;Node22 -->
<g id="edge36" class="edge">
<title>Node20&#45;&gt;Node22</title>
<path fill="none" stroke="midnightblue" d="M469.71,-112.08C462.14,-104.22 450.92,-92.57 441.79,-83.08"/>
<polygon fill="midnightblue" stroke="midnightblue" points="444.19,-80.53 434.73,-75.75 439.14,-85.38 444.19,-80.53"/>
</g>
<!-- Node25 -->
<g id="node25" class="node">
<title>Node25</title>
<g id="a_node25"><a xlink:title=" ">
<polygon fill="white" stroke="#bfbfbf" points="2033.3,-112.5 2033.3,-131.5 2125.3,-131.5 2125.3,-112.5 2033.3,-112.5"/>
<text text-anchor="middle" x="2079.3" y="-119.5" font-family="Helvetica,sans-Serif" font-size="10.00">AMReX_REAL.H</text>
</a>
</g>
</g>
<!-- Node24&#45;&gt;Node25 -->
<g id="edge41" class="edge">
<title>Node24&#45;&gt;Node25</title>
<path fill="none" stroke="midnightblue" d="M1976.63,-168.44C1996.62,-159.6 2028.04,-145.69 2050.86,-135.59"/>
<polygon fill="midnightblue" stroke="midnightblue" points="2052.33,-138.76 2060.06,-131.52 2049.5,-132.36 2052.33,-138.76"/>
</g>
<!-- Node26 -->
<g id="node26" class="node">
<title>Node26</title>
<g id="a_node26"><a xlink:title=" ">
<polygon fill="white" stroke="#bfbfbf" points="2143.3,-112.5 2143.3,-131.5 2229.3,-131.5 2229.3,-112.5 2143.3,-112.5"/>
<text text-anchor="middle" x="2186.3" y="-119.5" font-family="Helvetica,sans-Serif" font-size="10.00">AMReX_Box.H</text>
</a>
</g>
</g>
<!-- Node24&#45;&gt;Node26 -->
<g id="edge42" class="edge">
<title>Node24&#45;&gt;Node26</title>
<path fill="none" stroke="midnightblue" d="M1993.59,-168.44C2033.28,-159.08 2097.01,-144.06 2140.21,-133.87"/>
<polygon fill="midnightblue" stroke="midnightblue" points="2141.26,-137.22 2150.18,-131.52 2139.65,-130.41 2141.26,-137.22"/>
</g>
<!-- Node27 -->
<g id="node27" class="node">
<title>Node27</title>
<g id="a_node27"><a xlink:title=" ">
<polygon fill="white" stroke="#bfbfbf" points="1759.3,-112.5 1759.3,-131.5 1881.3,-131.5 1881.3,-112.5 1759.3,-112.5"/>
<text text-anchor="middle" x="1820.3" y="-119.5" font-family="Helvetica,sans-Serif" font-size="10.00">AMReX_Orientation.H</text>
</a>
</g>
</g>
<!-- Node24&#45;&gt;Node27 -->
<g id="edge43" class="edge">
<title>Node24&#45;&gt;Node27</title>
<path fill="none" stroke="midnightblue" d="M1935.59,-168.44C1912.95,-159.52 1877.23,-145.44 1851.55,-135.32"/>
<polygon fill="midnightblue" stroke="midnightblue" points="1852.49,-131.93 1841.91,-131.52 1849.93,-138.44 1852.49,-131.93"/>
</g>
<!-- Node28 -->
<g id="node28" class="node">
<title>Node28</title>
<g id="a_node28"><a xlink:title=" ">
<polygon fill="white" stroke="#bfbfbf" points="1899.8,-112.5 1899.8,-131.5 2014.8,-131.5 2014.8,-112.5 1899.8,-112.5"/>
<text text-anchor="middle" x="1957.3" y="-119.5" font-family="Helvetica,sans-Serif" font-size="10.00">AMReX_Geometry.H</text>
</a>
</g>
</g>
<!-- Node24&#45;&gt;Node28 -->
<g id="edge44" class="edge">
<title>Node24&#45;&gt;Node28</title>
<path fill="none" stroke="midnightblue" d="M1957.3,-168.08C1957.3,-161.01 1957.3,-150.86 1957.3,-141.99"/>
<polygon fill="midnightblue" stroke="midnightblue" points="1960.8,-141.75 1957.3,-131.75 1953.8,-141.75 1960.8,-141.75"/>
</g>
</g>
</svg>
        <g id="navigator" transform="translate(0 0)" fill="#404254">
                <rect fill="#f2f5e9" fill-opacity="0.5" stroke="#606060" stroke-width=".5" x="0" y="0" width="60" height="60"/>
                <use id="zoomplus" xlink:href="#zoomPlus" x="17" y="9" onmousedown="handleZoom(evt,'in')"/>
                <use id="zoomminus" xlink:href="#zoomMin" x="42" y="9" onmousedown="handleZoom(evt,'out')"/>
                <use id="reset" xlink:href="#resetDef" x="30" y="36" onmousedown="handleReset()"/>
                <g id="arrowUp" xlink:href="#dirArrow" transform="translate(30 24)" onmousedown="handlePan(0,-1)">
                  <use xlink:href="#rim" fill="#404040">
                        <set attributeName="fill" to="#808080" begin="arrowUp.mouseover" end="arrowUp.mouseout"/>
                  </use>
                  <path fill="none" stroke="white" stroke-width="1.5" d="M0,-3.0v7 M-2.5,-0.5L0,-3.0L2.5,-0.5"/>
                </g>
                <g id="arrowRight" xlink:href="#dirArrow" transform="rotate(90) translate(36 -43)" onmousedown="handlePan(1,0)">
                  <use xlink:href="#rim" fill="#404040">
                        <set attributeName="fill" to="#808080" begin="arrowRight.mouseover" end="arrowRight.mouseout"/>
                  </use>
                  <path fill="none" stroke="white" stroke-width="1.5" d="M0,-3.0v7 M-2.5,-0.5L0,-3.0L2.5,-0.5"/>
                </g>
                <g id="arrowDown" xlink:href="#dirArrow" transform="rotate(180) translate(-30 -48)" onmousedown="handlePan(0,1)">
                  <use xlink:href="#rim" fill="#404040">
                        <set attributeName="fill" to="#808080" begin="arrowDown.mouseover" end="arrowDown.mouseout"/>
                  </use>
                  <path fill="none" stroke="white" stroke-width="1.5" d="M0,-3.0v7 M-2.5,-0.5L0,-3.0L2.5,-0.5"/>
                </g>
                <g id="arrowLeft" xlink:href="#dirArrow" transform="rotate(270) translate(-36 17)" onmousedown="handlePan(-1,0)">
                  <use xlink:href="#rim" fill="#404040">
                        <set attributeName="fill" to="#808080" begin="arrowLeft.mouseover" end="arrowLeft.mouseout"/>
                  </use>
                  <path fill="none" stroke="white" stroke-width="1.5" d="M0,-3.0v7 M-2.5,-0.5L0,-3.0L2.5,-0.5"/>
                </g>
        </g>
        <svg viewBox="0 0 15 15" width="100%" height="30px" preserveAspectRatio="xMaxYMin meet">
         <g id="arrow_out" transform="scale(0.3 0.3)">
          <a xlink:href="laplacian_8_h__incl_org.svg" target="_base">
           <rect id="button" ry="5" rx="5" y="6" x="6" height="38" width="38"
                fill="#f2f5e9" fill-opacity="0.5" stroke="#606060" stroke-width="1.0"/>
           <path id="arrow"
             d="M 11.500037,31.436501 C 11.940474,20.09759 22.043105,11.32322 32.158766,21.979434 L 37.068811,17.246167 C 37.068811,17.246167 37.088388,32 37.088388,32 L 22.160133,31.978069 C 22.160133,31.978069 26.997745,27.140456 26.997745,27.140456 C 18.528582,18.264221 13.291696,25.230495 11.500037,31.436501 z"
             style="fill:#404040;"/>
          </a>
         </g>
        </svg>
</svg>
