<?xml version="1.0" encoding="UTF-8" standalone="no"?>
<!DOCTYPE svg PUBLIC "-//W3C//DTD SVG 1.1//EN"
 "http://www.w3.org/Graphics/SVG/1.1/DTD/svg11.dtd">
<!-- Generated by graphviz version 2.43.0 (0)
 -->
<!-- Title: linear_interpolation.H Pages: 1 -->
<svg width="731pt" height="196pt"
 viewBox="0.00 0.00 730.50 196.00" xmlns="http://www.w3.org/2000/svg" xmlns:xlink="http://www.w3.org/1999/xlink">
<g id="graph0" class="graph" transform="scale(1 1) rotate(0) translate(4 192)">
<title>linear_interpolation.H</title>
<polygon fill="white" stroke="transparent" points="-4,4 -4,-192 726.5,-192 726.5,4 -4,4"/>
<!-- Node1 -->
<g id="node1" class="node">
<title>Node1</title>
<g id="a_node1"><a xlink:title=" ">
<polygon fill="#bfbfbf" stroke="black" points="331,-168.5 331,-187.5 453,-187.5 453,-168.5 331,-168.5"/>
<text text-anchor="middle" x="392" y="-175.5" font-family="Helvetica,sans-Serif" font-size="10.00">linear_interpolation.H</text>
</a>
</g>
</g>
<!-- Node2 -->
<g id="node2" class="node">
<title>Node2</title>
<g id="a_node2"><a xlink:href="_d_t_u_spinner_sampler_8cpp.html" target="_top" xlink:title=" ">
<polygon fill="white" stroke="black" points="0,-112.5 0,-131.5 134,-131.5 134,-112.5 0,-112.5"/>
<text text-anchor="middle" x="67" y="-119.5" font-family="Helvetica,sans-Serif" font-size="10.00">DTUSpinnerSampler.cpp</text>
</a>
</g>
</g>
<!-- Node1&#45;&gt;Node2 -->
<g id="edge1" class="edge">
<title>Node1&#45;&gt;Node2</title>
<path fill="none" stroke="midnightblue" d="M330.56,-166.79C269.14,-156.59 175.8,-141.08 118.26,-131.52"/>
<polygon fill="midnightblue" stroke="midnightblue" points="330.06,-170.26 340.5,-168.44 331.21,-163.35 330.06,-170.26"/>
</g>
<!-- Node3 -->
<g id="node3" class="node">
<title>Node3</title>
<g id="a_node3"><a xlink:href="_lidar_sampler_8cpp.html" target="_top" xlink:title=" ">
<polygon fill="white" stroke="black" points="152.5,-112.5 152.5,-131.5 253.5,-131.5 253.5,-112.5 152.5,-112.5"/>
<text text-anchor="middle" x="203" y="-119.5" font-family="Helvetica,sans-Serif" font-size="10.00">LidarSampler.cpp</text>
</a>
</g>
</g>
<!-- Node1&#45;&gt;Node3 -->
<g id="edge2" class="edge">
<title>Node1&#45;&gt;Node3</title>
<path fill="none" stroke="midnightblue" d="M351.99,-165.57C316.33,-155.38 264.96,-140.7 232.81,-131.52"/>
<polygon fill="midnightblue" stroke="midnightblue" points="351.48,-169.06 362.05,-168.44 353.4,-162.33 351.48,-169.06"/>
</g>
<!-- Node4 -->
<g id="node4" class="node">
<title>Node4</title>
<g id="a_node4"><a xlink:href="_airfoil_table_8cpp.html" target="_top" xlink:title=" ">
<polygon fill="white" stroke="black" points="272,-112.5 272,-131.5 364,-131.5 364,-112.5 272,-112.5"/>
<text text-anchor="middle" x="318" y="-119.5" font-family="Helvetica,sans-Serif" font-size="10.00">AirfoilTable.cpp</text>
</a>
</g>
</g>
<!-- Node1&#45;&gt;Node4 -->
<g id="edge3" class="edge">
<title>Node1&#45;&gt;Node4</title>
<path fill="none" stroke="midnightblue" d="M371.97,-162.38C358.59,-152.62 341.44,-140.11 330.11,-131.83"/>
<polygon fill="midnightblue" stroke="midnightblue" points="369.97,-165.26 380.11,-168.32 374.1,-159.6 369.97,-165.26"/>
</g>
<!-- Node5 -->
<g id="node5" class="node">
<title>Node5</title>
<g id="a_node5"><a xlink:href="disk__ops_8_h.html" target="_top" xlink:title=" ">
<polygon fill="white" stroke="black" points="458,-112.5 458,-131.5 528,-131.5 528,-112.5 458,-112.5"/>
<text text-anchor="middle" x="493" y="-119.5" font-family="Helvetica,sans-Serif" font-size="10.00">disk_ops.H</text>
</a>
</g>
</g>
<!-- Node1&#45;&gt;Node5 -->
<g id="edge4" class="edge">
<title>Node1&#45;&gt;Node5</title>
<path fill="none" stroke="midnightblue" d="M417.08,-163.59C435.76,-153.61 460.7,-140.27 476.81,-131.65"/>
<polygon fill="midnightblue" stroke="midnightblue" points="415.4,-160.52 408.23,-168.32 418.7,-166.7 415.4,-160.52"/>
</g>
<!-- Node6 -->
<g id="node6" class="node">
<title>Node6</title>
<g id="a_node6"><a xlink:href="uniform__ct__ops_8_h.html" target="_top" xlink:title=" ">
<polygon fill="white" stroke="black" points="259,-56.5 259,-75.5 361,-75.5 361,-56.5 259,-56.5"/>
<text text-anchor="middle" x="310" y="-63.5" font-family="Helvetica,sans-Serif" font-size="10.00">uniform_ct_ops.H</text>
</a>
</g>
</g>
<!-- Node1&#45;&gt;Node6 -->
<g id="edge13" class="edge">
<title>Node1&#45;&gt;Node6</title>
<path fill="none" stroke="midnightblue" d="M389.81,-157.96C387.47,-144.17 382.68,-125.63 373,-112 361.48,-95.78 342.23,-83.27 328.03,-75.61"/>
<polygon fill="midnightblue" stroke="midnightblue" points="386.4,-158.81 391.26,-168.22 393.33,-157.83 386.4,-158.81"/>
</g>
<!-- Node9 -->
<g id="node9" class="node">
<title>Node9</title>
<g id="a_node9"><a xlink:href="_joukowsky__ops_8_h.html" target="_top" xlink:title=" ">
<polygon fill="white" stroke="black" points="379.5,-56.5 379.5,-75.5 480.5,-75.5 480.5,-56.5 379.5,-56.5"/>
<text text-anchor="middle" x="430" y="-63.5" font-family="Helvetica,sans-Serif" font-size="10.00">Joukowsky_ops.H</text>
</a>
</g>
</g>
<!-- Node1&#45;&gt;Node9 -->
<g id="edge14" class="edge">
<title>Node1&#45;&gt;Node9</title>
<path fill="none" stroke="midnightblue" d="M398.33,-158.67C406.64,-134.62 420.88,-93.39 427.03,-75.59"/>
<polygon fill="midnightblue" stroke="midnightblue" points="394.94,-157.77 394.98,-168.37 401.56,-160.06 394.94,-157.77"/>
</g>
<!-- Node12 -->
<g id="node12" class="node">
<title>Node12</title>
<g id="a_node12"><a xlink:href="fixed__wing__ops_8_h.html" target="_top" xlink:title=" ">
<polygon fill="white" stroke="black" points="587.5,-112.5 587.5,-131.5 688.5,-131.5 688.5,-112.5 587.5,-112.5"/>
<text text-anchor="middle" x="638" y="-119.5" font-family="Helvetica,sans-Serif" font-size="10.00">fixed_wing_ops.H</text>
</a>
</g>
</g>
<!-- Node1&#45;&gt;Node12 -->
<g id="edge15" class="edge">
<title>Node1&#45;&gt;Node12</title>
<path fill="none" stroke="midnightblue" d="M440.83,-166.28C487.32,-156.08 556.36,-140.92 599.2,-131.52"/>
<polygon fill="midnightblue" stroke="midnightblue" points="440,-162.88 430.98,-168.44 441.5,-169.72 440,-162.88"/>
</g>
<!-- Node5&#45;&gt;Node6 -->
<g id="edge5" class="edge">
<title>Node5&#45;&gt;Node6</title>
<path fill="none" stroke="midnightblue" d="M454.26,-109.57C419.74,-99.38 369.99,-84.7 338.86,-75.52"/>
<polygon fill="midnightblue" stroke="midnightblue" points="453.42,-112.97 464,-112.44 455.4,-106.26 453.42,-112.97"/>
</g>
<!-- Node5&#45;&gt;Node9 -->
<g id="edge8" class="edge">
<title>Node5&#45;&gt;Node9</title>
<path fill="none" stroke="midnightblue" d="M474.96,-105.54C463.73,-95.91 449.68,-83.87 440.31,-75.83"/>
<polygon fill="midnightblue" stroke="midnightblue" points="473.01,-108.47 482.88,-112.32 477.56,-103.16 473.01,-108.47"/>
</g>
<!-- Node10 -->
<g id="node10" class="node">
<title>Node10</title>
<g id="a_node10"><a xlink:href="_joukowsky__ops_8cpp.html" target="_top" xlink:title=" ">
<polygon fill="white" stroke="black" points="525,-0.5 525,-19.5 635,-19.5 635,-0.5 525,-0.5"/>
<text text-anchor="middle" x="580" y="-7.5" font-family="Helvetica,sans-Serif" font-size="10.00">Joukowsky_ops.cpp</text>
</a>
</g>
</g>
<!-- Node5&#45;&gt;Node10 -->
<g id="edge12" class="edge">
<title>Node5&#45;&gt;Node10</title>
<path fill="none" stroke="midnightblue" d="M537.94,-111.07C556.78,-104.45 576.86,-93.6 588,-76 599.07,-58.51 590.35,-33.04 584.39,-19.77"/>
<polygon fill="midnightblue" stroke="midnightblue" points="536.72,-107.79 528.25,-114.16 538.84,-114.45 536.72,-107.79"/>
</g>
<!-- Node11 -->
<g id="node11" class="node">
<title>Node11</title>
<g id="a_node11"><a xlink:href="disk__ops_8cpp.html" target="_top" xlink:title=" ">
<polygon fill="white" stroke="black" points="499,-56.5 499,-75.5 579,-75.5 579,-56.5 499,-56.5"/>
<text text-anchor="middle" x="539" y="-63.5" font-family="Helvetica,sans-Serif" font-size="10.00">disk_ops.cpp</text>
</a>
</g>
</g>
<!-- Node5&#45;&gt;Node11 -->
<g id="edge11" class="edge">
<title>Node5&#45;&gt;Node11</title>
<path fill="none" stroke="midnightblue" d="M507.11,-104.43C515.18,-94.97 524.96,-83.48 531.55,-75.75"/>
<polygon fill="midnightblue" stroke="midnightblue" points="504.42,-102.2 500.6,-112.08 509.75,-106.74 504.42,-102.2"/>
</g>
<!-- Node7 -->
<g id="node7" class="node">
<title>Node7</title>
<g id="a_node7"><a xlink:href="_actuator_disk_8cpp.html" target="_top" xlink:title=" ">
<polygon fill="white" stroke="black" points="380,-0.5 380,-19.5 480,-19.5 480,-0.5 380,-0.5"/>
<text text-anchor="middle" x="430" y="-7.5" font-family="Helvetica,sans-Serif" font-size="10.00">ActuatorDisk.cpp</text>
</a>
</g>
</g>
<!-- Node6&#45;&gt;Node7 -->
<g id="edge6" class="edge">
<title>Node6&#45;&gt;Node7</title>
<path fill="none" stroke="midnightblue" d="M338.37,-52.23C360.82,-42.13 391.54,-28.31 411.07,-19.52"/>
<polygon fill="midnightblue" stroke="midnightblue" points="336.7,-49.15 329.01,-56.44 339.57,-55.53 336.7,-49.15"/>
</g>
<!-- Node8 -->
<g id="node8" class="node">
<title>Node8</title>
<g id="a_node8"><a xlink:href="uniform__ct__ops_8cpp.html" target="_top" xlink:title=" ">
<polygon fill="white" stroke="black" points="250,-0.5 250,-19.5 362,-19.5 362,-0.5 250,-0.5"/>
<text text-anchor="middle" x="306" y="-7.5" font-family="Helvetica,sans-Serif" font-size="10.00">uniform_ct_ops.cpp</text>
</a>
</g>
</g>
<!-- Node6&#45;&gt;Node8 -->
<g id="edge7" class="edge">
<title>Node6&#45;&gt;Node8</title>
<path fill="none" stroke="midnightblue" d="M308.6,-46.1C307.94,-37.14 307.17,-26.86 306.65,-19.75"/>
<polygon fill="midnightblue" stroke="midnightblue" points="305.11,-46.37 309.34,-56.08 312.09,-45.85 305.11,-46.37"/>
</g>
<!-- Node9&#45;&gt;Node7 -->
<g id="edge9" class="edge">
<title>Node9&#45;&gt;Node7</title>
<path fill="none" stroke="midnightblue" d="M430,-45.8C430,-36.91 430,-26.78 430,-19.75"/>
<polygon fill="midnightblue" stroke="midnightblue" points="426.5,-46.08 430,-56.08 433.5,-46.08 426.5,-46.08"/>
</g>
<!-- Node9&#45;&gt;Node10 -->
<g id="edge10" class="edge">
<title>Node9&#45;&gt;Node10</title>
<path fill="none" stroke="midnightblue" d="M463.22,-53.04C491.45,-42.88 531.26,-28.55 556.34,-19.52"/>
<polygon fill="midnightblue" stroke="midnightblue" points="461.99,-49.76 453.77,-56.44 464.36,-56.35 461.99,-49.76"/>
</g>
<!-- Node13 -->
<g id="node13" class="node">
<title>Node13</title>
<g id="a_node13"><a xlink:href="_fixed_wing_8cpp.html" target="_top" xlink:title=" ">
<polygon fill="white" stroke="black" points="635.5,-56.5 635.5,-75.5 722.5,-75.5 722.5,-56.5 635.5,-56.5"/>
<text text-anchor="middle" x="679" y="-63.5" font-family="Helvetica,sans-Serif" font-size="10.00">FixedWing.cpp</text>
</a>
</g>
</g>
<!-- Node12&#45;&gt;Node13 -->
<g id="edge16" class="edge">
<title>Node12&#45;&gt;Node13</title>
<path fill="none" stroke="midnightblue" d="M651.02,-103.86C658.12,-94.5 666.6,-83.33 672.36,-75.75"/>
<polygon fill="midnightblue" stroke="midnightblue" points="648.03,-102 644.77,-112.08 653.61,-106.24 648.03,-102"/>
</g>
</g>
</svg>
