<?xml version="1.0" encoding="UTF-8" standalone="no"?>
<!DOCTYPE svg PUBLIC "-//W3C//DTD SVG 1.1//EN"
 "http://www.w3.org/Graphics/SVG/1.1/DTD/svg11.dtd">
<!-- Generated by graphviz version 2.43.0 (0)
 -->
<!-- Title: main.cpp Pages: 1 -->
<svg width="2639pt" height="397pt"
 viewBox="0.00 0.00 2639.00 397.00" xmlns="http://www.w3.org/2000/svg" xmlns:xlink="http://www.w3.org/1999/xlink">
<g id="graph0" class="graph" transform="scale(1 1) rotate(0) translate(4 393)">
<title>main.cpp</title>
<polygon fill="white" stroke="transparent" points="-4,4 -4,-393 2635,-393 2635,4 -4,4"/>
<!-- Node1 -->
<g id="node1" class="node">
<title>Node1</title>
<g id="a_node1"><a xlink:title=" ">
<polygon fill="#bfbfbf" stroke="black" points="2408,-369.5 2408,-388.5 2470,-388.5 2470,-369.5 2408,-369.5"/>
<text text-anchor="middle" x="2439" y="-376.5" font-family="Helvetica,sans-Serif" font-size="10.00">main.cpp</text>
</a>
</g>
</g>
<!-- Node2 -->
<g id="node2" class="node">
<title>Node2</title>
<g id="a_node2"><a xlink:href="incflo_8_h.html" target="_top" xlink:title=" ">
<polygon fill="white" stroke="black" points="1757.5,-308 1757.5,-327 1860.5,-327 1860.5,-308 1757.5,-308"/>
<text text-anchor="middle" x="1809" y="-315" font-family="Helvetica,sans-Serif" font-size="10.00">amr&#45;wind/incflo.H</text>
</a>
</g>
</g>
<!-- Node1&#45;&gt;Node2 -->
<g id="edge1" class="edge">
<title>Node1&#45;&gt;Node2</title>
<path fill="none" stroke="midnightblue" d="M2407.76,-375.05C2309.13,-365.73 2003.11,-336.83 1870.89,-324.35"/>
<polygon fill="midnightblue" stroke="midnightblue" points="1870.82,-320.82 1860.54,-323.37 1870.17,-327.79 1870.82,-320.82"/>
</g>
<!-- Node43 -->
<g id="node43" class="node">
<title>Node43</title>
<g id="a_node43"><a xlink:href="console__io_8_h.html" target="_top" xlink:title=" ">
<polygon fill="white" stroke="black" points="2387.5,-302.5 2387.5,-332.5 2490.5,-332.5 2490.5,-302.5 2387.5,-302.5"/>
<text text-anchor="start" x="2395.5" y="-320.5" font-family="Helvetica,sans-Serif" font-size="10.00">amr&#45;wind/utilities</text>
<text text-anchor="middle" x="2439" y="-309.5" font-family="Helvetica,sans-Serif" font-size="10.00">/console_io.H</text>
</a>
</g>
</g>
<!-- Node1&#45;&gt;Node43 -->
<g id="edge82" class="edge">
<title>Node1&#45;&gt;Node43</title>
<path fill="none" stroke="midnightblue" d="M2439,-369.48C2439,-362.47 2439,-352.19 2439,-342.7"/>
<polygon fill="midnightblue" stroke="midnightblue" points="2442.5,-342.52 2439,-332.52 2435.5,-342.52 2442.5,-342.52"/>
</g>
<!-- Node45 -->
<g id="node45" class="node">
<title>Node45</title>
<g id="a_node45"><a xlink:title=" ">
<polygon fill="white" stroke="#bfbfbf" points="2509,-308 2509,-327 2631,-327 2631,-308 2509,-308"/>
<text text-anchor="middle" x="2570" y="-315" font-family="Helvetica,sans-Serif" font-size="10.00">AMReX_FileSystem.H</text>
</a>
</g>
</g>
<!-- Node1&#45;&gt;Node45 -->
<g id="edge85" class="edge">
<title>Node1&#45;&gt;Node45</title>
<path fill="none" stroke="midnightblue" d="M2457.77,-369.48C2479.85,-359.45 2516.72,-342.7 2542.14,-331.15"/>
<polygon fill="midnightblue" stroke="midnightblue" points="2543.61,-334.33 2551.27,-327.01 2540.71,-327.96 2543.61,-334.33"/>
</g>
<!-- Node3 -->
<g id="node3" class="node">
<title>Node3</title>
<g id="a_node3"><a xlink:title=" ">
<polygon fill="white" stroke="#bfbfbf" points="700,-118 700,-137 810,-137 810,-118 700,-118"/>
<text text-anchor="middle" x="755" y="-125" font-family="Helvetica,sans-Serif" font-size="10.00">AMReX_AmrCore.H</text>
</a>
</g>
</g>
<!-- Node2&#45;&gt;Node3 -->
<g id="edge2" class="edge">
<title>Node2&#45;&gt;Node3</title>
<path fill="none" stroke="midnightblue" d="M1757.25,-308.3C1610.44,-284.84 1178.93,-214.53 823,-143 816.86,-141.77 810.43,-140.44 804.06,-139.1"/>
<polygon fill="midnightblue" stroke="midnightblue" points="804.67,-135.66 794.16,-137.02 803.22,-142.51 804.67,-135.66"/>
</g>
<!-- Node4 -->
<g id="node4" class="node">
<title>Node4</title>
<g id="a_node4"><a xlink:title=" ">
<polygon fill="white" stroke="#bfbfbf" points="1675,-246.5 1675,-265.5 1801,-265.5 1801,-246.5 1675,-246.5"/>
<text text-anchor="middle" x="1738" y="-253.5" font-family="Helvetica,sans-Serif" font-size="10.00">AMReX_MultiFabUtil.H</text>
</a>
</g>
</g>
<!-- Node2&#45;&gt;Node4 -->
<g id="edge3" class="edge">
<title>Node2&#45;&gt;Node4</title>
<path fill="none" stroke="midnightblue" d="M1798.83,-307.98C1787.65,-298.61 1769.48,-283.38 1755.91,-272.01"/>
<polygon fill="midnightblue" stroke="midnightblue" points="1758.07,-269.25 1748.15,-265.51 1753.57,-274.61 1758.07,-269.25"/>
</g>
<!-- Node5 -->
<g id="node5" class="node">
<title>Node5</title>
<g id="a_node5"><a xlink:title=" ">
<polygon fill="white" stroke="#bfbfbf" points="1819.5,-246.5 1819.5,-265.5 1938.5,-265.5 1938.5,-246.5 1819.5,-246.5"/>
<text text-anchor="middle" x="1879" y="-253.5" font-family="Helvetica,sans-Serif" font-size="10.00">AMReX_ParmParse.H</text>
</a>
</g>
</g>
<!-- Node2&#45;&gt;Node5 -->
<g id="edge4" class="edge">
<title>Node2&#45;&gt;Node5</title>
<path fill="none" stroke="midnightblue" d="M1819.03,-307.98C1830.05,-298.61 1847.96,-283.38 1861.34,-272.01"/>
<polygon fill="midnightblue" stroke="midnightblue" points="1863.64,-274.65 1868.99,-265.51 1859.1,-269.32 1863.64,-274.65"/>
</g>
<!-- Node6 -->
<g id="node6" class="node">
<title>Node6</title>
<g id="a_node6"><a xlink:title=" ">
<polygon fill="white" stroke="#bfbfbf" points="202,-56.5 202,-75.5 314,-75.5 314,-56.5 202,-56.5"/>
<text text-anchor="middle" x="258" y="-63.5" font-family="Helvetica,sans-Serif" font-size="10.00">AMReX_iMultiFab.H</text>
</a>
</g>
</g>
<!-- Node2&#45;&gt;Node6 -->
<g id="edge5" class="edge">
<title>Node2&#45;&gt;Node6</title>
<path fill="none" stroke="midnightblue" d="M1757.1,-314.57C1628.98,-309.51 1287.56,-294.27 1004,-266 821.43,-247.8 775.94,-240.4 595,-210 444.83,-184.77 356.35,-260.09 259,-143 245.85,-127.18 248.34,-102.46 252.3,-85.53"/>
<polygon fill="midnightblue" stroke="midnightblue" points="255.73,-86.27 254.97,-75.71 248.97,-84.44 255.73,-86.27"/>
</g>
<!-- Node7 -->
<g id="node7" class="node">
<title>Node7</title>
<g id="a_node7"><a xlink:title=" ">
<polygon fill="white" stroke="#bfbfbf" points="1956.5,-246.5 1956.5,-265.5 2087.5,-265.5 2087.5,-246.5 1956.5,-246.5"/>
<text text-anchor="middle" x="2022" y="-253.5" font-family="Helvetica,sans-Serif" font-size="10.00">hydro_NodalProjector.H</text>
</a>
</g>
</g>
<!-- Node2&#45;&gt;Node7 -->
<g id="edge6" class="edge">
<title>Node2&#45;&gt;Node7</title>
<path fill="none" stroke="midnightblue" d="M1839.52,-307.98C1876.92,-297.53 1940.43,-279.79 1981.79,-268.23"/>
<polygon fill="midnightblue" stroke="midnightblue" points="1982.85,-271.57 1991.54,-265.51 1980.97,-264.83 1982.85,-271.57"/>
</g>
<!-- Node8 -->
<g id="node8" class="node">
<title>Node8</title>
<g id="a_node8"><a xlink:href="incflo__enums_8_h.html" target="_top" xlink:title=" ">
<polygon fill="white" stroke="black" points="2038.5,-56.5 2038.5,-75.5 2179.5,-75.5 2179.5,-56.5 2038.5,-56.5"/>
<text text-anchor="middle" x="2109" y="-63.5" font-family="Helvetica,sans-Serif" font-size="10.00">amr&#45;wind/incflo_enums.H</text>
</a>
</g>
</g>
<!-- Node2&#45;&gt;Node8 -->
<g id="edge7" class="edge">
<title>Node2&#45;&gt;Node8</title>
<path fill="none" stroke="midnightblue" d="M1860.58,-312.61C1932.62,-306.32 2058.72,-291.93 2096,-266 2158.03,-222.86 2201.52,-179.72 2168,-112 2161.4,-98.66 2148.74,-88.19 2136.83,-80.73"/>
<polygon fill="midnightblue" stroke="midnightblue" points="2138.39,-77.59 2127.98,-75.6 2134.88,-83.64 2138.39,-77.59"/>
</g>
<!-- Node9 -->
<g id="node9" class="node">
<title>Node9</title>
<g id="a_node9"><a xlink:href="_c_f_d_sim_8_h.html" target="_top" xlink:title=" ">
<polygon fill="white" stroke="black" points="1541,-246.5 1541,-265.5 1657,-265.5 1657,-246.5 1541,-246.5"/>
<text text-anchor="middle" x="1599" y="-253.5" font-family="Helvetica,sans-Serif" font-size="10.00">amr&#45;wind/CFDSim.H</text>
</a>
</g>
</g>
<!-- Node2&#45;&gt;Node9 -->
<g id="edge8" class="edge">
<title>Node2&#45;&gt;Node9</title>
<path fill="none" stroke="midnightblue" d="M1778.91,-307.98C1742.11,-297.55 1679.69,-279.86 1638.91,-268.31"/>
<polygon fill="midnightblue" stroke="midnightblue" points="1639.61,-264.87 1629.03,-265.51 1637.7,-271.6 1639.61,-264.87"/>
</g>
<!-- Node10 -->
<g id="node10" class="node">
<title>Node10</title>
<g id="a_node10"><a xlink:href="_sim_time_8_h.html" target="_top" xlink:title=" ">
<polygon fill="white" stroke="black" points="2216,-185 2216,-204 2360,-204 2360,-185 2216,-185"/>
<text text-anchor="middle" x="2288" y="-192" font-family="Helvetica,sans-Serif" font-size="10.00">amr&#45;wind/core/SimTime.H</text>
</a>
</g>
</g>
<!-- Node2&#45;&gt;Node10 -->
<g id="edge80" class="edge">
<title>Node2&#45;&gt;Node10</title>
<path fill="none" stroke="midnightblue" d="M1860.84,-313.39C1953.1,-307.28 2141.76,-291.99 2202,-266 2230.95,-253.51 2257.95,-228.28 2273.72,-211.63"/>
<polygon fill="midnightblue" stroke="midnightblue" points="2276.32,-213.97 2280.52,-204.24 2271.17,-209.23 2276.32,-213.97"/>
</g>
<!-- Node14 -->
<g id="node14" class="node">
<title>Node14</title>
<g id="a_node14"><a xlink:href="_field_repo_8_h.html" target="_top" xlink:title=" ">
<polygon fill="white" stroke="black" points="604.5,-185 604.5,-204 753.5,-204 753.5,-185 604.5,-185"/>
<text text-anchor="middle" x="679" y="-192" font-family="Helvetica,sans-Serif" font-size="10.00">amr&#45;wind/core/FieldRepo.H</text>
</a>
</g>
</g>
<!-- Node2&#45;&gt;Node14 -->
<g id="edge81" class="edge">
<title>Node2&#45;&gt;Node14</title>
<path fill="none" stroke="midnightblue" d="M1757.19,-313.8C1645.83,-307.73 1375.47,-291.48 1150,-266 1001.08,-249.17 826.91,-220.83 737.91,-205.71"/>
<polygon fill="midnightblue" stroke="midnightblue" points="738.45,-202.26 728.01,-204.03 737.28,-209.16 738.45,-202.26"/>
</g>
<!-- Node9&#45;&gt;Node3 -->
<g id="edge9" class="edge">
<title>Node9&#45;&gt;Node3</title>
<path fill="none" stroke="midnightblue" d="M1557.94,-246.5C1482.82,-231.19 1318.1,-198.74 1178,-179 1021.4,-156.94 980.27,-167.3 824,-143 816.85,-141.89 809.32,-140.52 801.97,-139.06"/>
<polygon fill="midnightblue" stroke="midnightblue" points="802.61,-135.62 792.11,-137.05 801.21,-142.48 802.61,-135.62"/>
</g>
<!-- Node9&#45;&gt;Node10 -->
<g id="edge10" class="edge">
<title>Node9&#45;&gt;Node10</title>
<path fill="none" stroke="midnightblue" d="M1657.08,-247.01C1660.1,-246.65 1663.08,-246.31 1666,-246 1858.85,-225.23 2086.17,-208.81 2205.43,-200.82"/>
<polygon fill="midnightblue" stroke="midnightblue" points="2205.84,-204.3 2215.58,-200.14 2205.37,-197.31 2205.84,-204.3"/>
</g>
<!-- Node9&#45;&gt;Node14 -->
<g id="edge14" class="edge">
<title>Node9&#45;&gt;Node14</title>
<path fill="none" stroke="midnightblue" d="M1540.75,-251.23C1383.26,-241.05 948.47,-212.93 763.77,-200.98"/>
<polygon fill="midnightblue" stroke="midnightblue" points="763.77,-197.48 753.56,-200.32 763.32,-204.46 763.77,-197.48"/>
</g>
<!-- Node32 -->
<g id="node32" class="node">
<title>Node32</title>
<g id="a_node32"><a xlink:href="_p_d_e_base_8_h.html" target="_top" xlink:title=" ">
<polygon fill="white" stroke="black" points="1770.5,-179.5 1770.5,-209.5 1925.5,-209.5 1925.5,-179.5 1770.5,-179.5"/>
<text text-anchor="start" x="1778.5" y="-197.5" font-family="Helvetica,sans-Serif" font-size="10.00">amr&#45;wind/equation_systems</text>
<text text-anchor="middle" x="1848" y="-186.5" font-family="Helvetica,sans-Serif" font-size="10.00">/PDEBase.H</text>
</a>
</g>
</g>
<!-- Node9&#45;&gt;Node32 -->
<g id="edge52" class="edge">
<title>Node9&#45;&gt;Node32</title>
<path fill="none" stroke="midnightblue" d="M1634.68,-246.48C1672.34,-237.48 1732.63,-223.07 1779.53,-211.86"/>
<polygon fill="midnightblue" stroke="midnightblue" points="1780.4,-215.25 1789.32,-209.52 1778.78,-208.44 1780.4,-215.25"/>
</g>
<!-- Node40 -->
<g id="node40" class="node">
<title>Node40</title>
<g id="a_node40"><a xlink:href="_physics_8_h.html" target="_top" xlink:title=" ">
<polygon fill="white" stroke="black" points="1615.5,-185 1615.5,-204 1752.5,-204 1752.5,-185 1615.5,-185"/>
<text text-anchor="middle" x="1684" y="-192" font-family="Helvetica,sans-Serif" font-size="10.00">amr&#45;wind/core/Physics.H</text>
</a>
</g>
</g>
<!-- Node9&#45;&gt;Node40 -->
<g id="edge69" class="edge">
<title>Node9&#45;&gt;Node40</title>
<path fill="none" stroke="midnightblue" d="M1611.18,-246.48C1624.81,-236.93 1647.13,-221.31 1663.47,-209.87"/>
<polygon fill="midnightblue" stroke="midnightblue" points="1665.66,-212.61 1671.84,-204.01 1661.64,-206.88 1665.66,-212.61"/>
</g>
<!-- Node42 -->
<g id="node42" class="node">
<title>Node42</title>
<g id="a_node42"><a xlink:href="_mesh_map_8_h.html" target="_top" xlink:title=" ">
<polygon fill="white" stroke="black" points="1449,-185 1449,-204 1597,-204 1597,-185 1449,-185"/>
<text text-anchor="middle" x="1523" y="-192" font-family="Helvetica,sans-Serif" font-size="10.00">amr&#45;wind/core/MeshMap.H</text>
</a>
</g>
</g>
<!-- Node9&#45;&gt;Node42 -->
<g id="edge74" class="edge">
<title>Node9&#45;&gt;Node42</title>
<path fill="none" stroke="midnightblue" d="M1588.11,-246.48C1576.03,-237.02 1556.33,-221.6 1541.76,-210.19"/>
<polygon fill="midnightblue" stroke="midnightblue" points="1543.9,-207.42 1533.87,-204.01 1539.59,-212.93 1543.9,-207.42"/>
</g>
<!-- Node11 -->
<g id="node11" class="node">
<title>Node11</title>
<g id="a_node11"><a xlink:title=" ">
<polygon fill="white" stroke="#bfbfbf" points="2502,-118 2502,-137 2594,-137 2594,-118 2502,-118"/>
<text text-anchor="middle" x="2548" y="-125" font-family="Helvetica,sans-Serif" font-size="10.00">AMReX_REAL.H</text>
</a>
</g>
</g>
<!-- Node10&#45;&gt;Node11 -->
<g id="edge11" class="edge">
<title>Node10&#45;&gt;Node11</title>
<path fill="none" stroke="midnightblue" d="M2323.6,-184.92C2364.52,-175.01 2433.69,-158.12 2493,-143 2497.31,-141.9 2501.82,-140.74 2506.3,-139.57"/>
<polygon fill="midnightblue" stroke="midnightblue" points="2507.24,-142.94 2516.03,-137.02 2505.47,-136.17 2507.24,-142.94"/>
</g>
<!-- Node12 -->
<g id="node12" class="node">
<title>Node12</title>
<g id="a_node12"><a xlink:title=" ">
<polygon fill="white" stroke="#bfbfbf" points="2216,-118 2216,-137 2350,-137 2350,-118 2216,-118"/>
<text text-anchor="middle" x="2283" y="-125" font-family="Helvetica,sans-Serif" font-size="10.00">AMReX_GpuQualifiers.H</text>
</a>
</g>
</g>
<!-- Node10&#45;&gt;Node12 -->
<g id="edge12" class="edge">
<title>Node10&#45;&gt;Node12</title>
<path fill="none" stroke="midnightblue" d="M2287.33,-184.73C2286.59,-175.18 2285.39,-159.62 2284.44,-147.28"/>
<polygon fill="midnightblue" stroke="midnightblue" points="2287.92,-146.83 2283.66,-137.13 2280.94,-147.37 2287.92,-146.83"/>
</g>
<!-- Node13 -->
<g id="node13" class="node">
<title>Node13</title>
<g id="a_node13"><a xlink:title=" ">
<polygon fill="white" stroke="#bfbfbf" points="2368,-118 2368,-137 2484,-137 2484,-118 2368,-118"/>
<text text-anchor="middle" x="2426" y="-125" font-family="Helvetica,sans-Serif" font-size="10.00">AMReX_Extension.H</text>
</a>
</g>
</g>
<!-- Node10&#45;&gt;Node13 -->
<g id="edge13" class="edge">
<title>Node10&#45;&gt;Node13</title>
<path fill="none" stroke="midnightblue" d="M2306.33,-184.87C2329.94,-173.75 2371.19,-154.32 2398.55,-141.43"/>
<polygon fill="midnightblue" stroke="midnightblue" points="2400.04,-144.59 2407.6,-137.17 2397.06,-138.26 2400.04,-144.59"/>
</g>
<!-- Node14&#45;&gt;Node3 -->
<g id="edge49" class="edge">
<title>Node14&#45;&gt;Node3</title>
<path fill="none" stroke="midnightblue" d="M689.25,-184.73C701.44,-174.31 722.02,-156.71 736.91,-143.97"/>
<polygon fill="midnightblue" stroke="midnightblue" points="739.59,-146.29 744.91,-137.13 735.04,-140.97 739.59,-146.29"/>
</g>
<!-- Node14&#45;&gt;Node6 -->
<g id="edge51" class="edge">
<title>Node14&#45;&gt;Node6</title>
<path fill="none" stroke="midnightblue" d="M604.29,-193.44C502.76,-191.82 328.42,-183.07 281,-143 264.42,-128.99 259.53,-103.45 258.23,-85.87"/>
<polygon fill="midnightblue" stroke="midnightblue" points="261.72,-85.52 257.8,-75.67 254.72,-85.81 261.72,-85.52"/>
</g>
<!-- Node15 -->
<g id="node15" class="node">
<title>Node15</title>
<g id="a_node15"><a xlink:title=" ">
<polygon fill="white" stroke="#bfbfbf" points="1460,-0.5 1460,-19.5 1504,-19.5 1504,-0.5 1460,-0.5"/>
<text text-anchor="middle" x="1482" y="-7.5" font-family="Helvetica,sans-Serif" font-size="10.00">string</text>
</a>
</g>
</g>
<!-- Node14&#45;&gt;Node15 -->
<g id="edge15" class="edge">
<title>Node14&#45;&gt;Node15</title>
<path fill="none" stroke="midnightblue" d="M753.72,-191.05C926.34,-185 1342.63,-167.99 1401,-143 1419.8,-134.95 1419.25,-125.04 1435,-112 1455.54,-95 1471.07,-99.85 1483,-76 1490.18,-61.65 1489.07,-43.19 1486.67,-29.61"/>
<polygon fill="midnightblue" stroke="midnightblue" points="1490.03,-28.59 1484.51,-19.55 1483.19,-30.06 1490.03,-28.59"/>
</g>
<!-- Node16 -->
<g id="node16" class="node">
<title>Node16</title>
<g id="a_node16"><a xlink:title=" ">
<polygon fill="white" stroke="#bfbfbf" points="1548.5,-56.5 1548.5,-75.5 1641.5,-75.5 1641.5,-56.5 1548.5,-56.5"/>
<text text-anchor="middle" x="1595" y="-63.5" font-family="Helvetica,sans-Serif" font-size="10.00">unordered_map</text>
</a>
</g>
</g>
<!-- Node14&#45;&gt;Node16 -->
<g id="edge16" class="edge">
<title>Node14&#45;&gt;Node16</title>
<path fill="none" stroke="midnightblue" d="M753.62,-193.71C918.94,-193.33 1311.16,-187.6 1435,-143 1457.17,-135.02 1457.28,-123.21 1478,-112 1503.29,-98.32 1533.64,-86.77 1557.09,-78.8"/>
<polygon fill="midnightblue" stroke="midnightblue" points="1558.3,-82.09 1566.69,-75.61 1556.09,-75.45 1558.3,-82.09"/>
</g>
<!-- Node17 -->
<g id="node17" class="node">
<title>Node17</title>
<g id="a_node17"><a xlink:href="_field_desc_types_8_h.html" target="_top" xlink:title=" ">
<polygon fill="white" stroke="black" points="292,-0.5 292,-19.5 468,-19.5 468,-0.5 292,-0.5"/>
<text text-anchor="middle" x="380" y="-7.5" font-family="Helvetica,sans-Serif" font-size="10.00">amr&#45;wind/core/FieldDescTypes.H</text>
</a>
</g>
</g>
<!-- Node14&#45;&gt;Node17 -->
<g id="edge17" class="edge">
<title>Node14&#45;&gt;Node17</title>
<path fill="none" stroke="midnightblue" d="M604.32,-190.42C500.34,-185.15 318.09,-172 259,-143 221.48,-124.58 208.85,-114.68 193,-76 189.63,-67.78 187.5,-62.98 193,-56 206.11,-39.36 252.15,-28.16 295.27,-21.1"/>
<polygon fill="midnightblue" stroke="midnightblue" points="295.94,-24.54 305.27,-19.52 294.85,-17.62 295.94,-24.54"/>
</g>
<!-- Node18 -->
<g id="node18" class="node">
<title>Node18</title>
<g id="a_node18"><a xlink:href="_field_utils_8_h.html" target="_top" xlink:title=" ">
<polygon fill="white" stroke="black" points="0,-56.5 0,-75.5 146,-75.5 146,-56.5 0,-56.5"/>
<text text-anchor="middle" x="73" y="-63.5" font-family="Helvetica,sans-Serif" font-size="10.00">amr&#45;wind/core/FieldUtils.H</text>
</a>
</g>
</g>
<!-- Node14&#45;&gt;Node18 -->
<g id="edge18" class="edge">
<title>Node14&#45;&gt;Node18</title>
<path fill="none" stroke="midnightblue" d="M604.15,-191.81C480.11,-188.09 237.92,-176.64 160,-143 129.3,-129.75 101.69,-101.52 86.16,-83.45"/>
<polygon fill="midnightblue" stroke="midnightblue" points="88.64,-80.95 79.55,-75.5 83.26,-85.43 88.64,-80.95"/>
</g>
<!-- Node19 -->
<g id="node19" class="node">
<title>Node19</title>
<g id="a_node19"><a xlink:title=" ">
<polygon fill="white" stroke="#bfbfbf" points="728.5,-0.5 728.5,-19.5 837.5,-19.5 837.5,-0.5 728.5,-0.5"/>
<text text-anchor="middle" x="783" y="-7.5" font-family="Helvetica,sans-Serif" font-size="10.00">AMReX_MultiFab.H</text>
</a>
</g>
</g>
<!-- Node14&#45;&gt;Node19 -->
<g id="edge50" class="edge">
<title>Node14&#45;&gt;Node19</title>
<path fill="none" stroke="midnightblue" d="M611.71,-184.93C579.14,-178 541.1,-165.5 513,-143 480.06,-116.63 447.41,-87.92 475,-56 505.8,-20.37 637.43,-12.4 718.32,-10.94"/>
<polygon fill="midnightblue" stroke="midnightblue" points="718.46,-14.44 728.41,-10.79 718.35,-7.44 718.46,-14.44"/>
</g>
<!-- Node21 -->
<g id="node21" class="node">
<title>Node21</title>
<g id="a_node21"><a xlink:href="_field_8_h.html" target="_top" xlink:title=" ">
<polygon fill="white" stroke="black" points="1268,-118 1268,-137 1392,-137 1392,-118 1268,-118"/>
<text text-anchor="middle" x="1330" y="-125" font-family="Helvetica,sans-Serif" font-size="10.00">amr&#45;wind/core/Field.H</text>
</a>
</g>
</g>
<!-- Node14&#45;&gt;Node21 -->
<g id="edge22" class="edge">
<title>Node14&#45;&gt;Node21</title>
<path fill="none" stroke="midnightblue" d="M753.68,-186.04C879.72,-173.46 1133.07,-148.16 1257.57,-135.73"/>
<polygon fill="midnightblue" stroke="midnightblue" points="1258.16,-139.19 1267.76,-134.71 1257.47,-132.22 1258.16,-139.19"/>
</g>
<!-- Node28 -->
<g id="node28" class="node">
<title>Node28</title>
<g id="a_node28"><a xlink:href="_int_field_8_h.html" target="_top" xlink:title=" ">
<polygon fill="white" stroke="black" points="290.5,-118 290.5,-137 427.5,-137 427.5,-118 290.5,-118"/>
<text text-anchor="middle" x="359" y="-125" font-family="Helvetica,sans-Serif" font-size="10.00">amr&#45;wind/core/IntField.H</text>
</a>
</g>
</g>
<!-- Node14&#45;&gt;Node28 -->
<g id="edge37" class="edge">
<title>Node14&#45;&gt;Node28</title>
<path fill="none" stroke="midnightblue" d="M636.84,-184.94C578.72,-173.13 474.06,-151.87 411.11,-139.09"/>
<polygon fill="midnightblue" stroke="midnightblue" points="411.5,-135.59 401,-137.03 410.11,-142.45 411.5,-135.59"/>
</g>
<!-- Node29 -->
<g id="node29" class="node">
<title>Node29</title>
<g id="a_node29"><a xlink:href="_scratch_field_8_h.html" target="_top" xlink:title=" ">
<polygon fill="white" stroke="black" points="522,-118 522,-137 682,-137 682,-118 522,-118"/>
<text text-anchor="middle" x="602" y="-125" font-family="Helvetica,sans-Serif" font-size="10.00">amr&#45;wind/core/ScratchField.H</text>
</a>
</g>
</g>
<!-- Node14&#45;&gt;Node29 -->
<g id="edge41" class="edge">
<title>Node14&#45;&gt;Node29</title>
<path fill="none" stroke="midnightblue" d="M668.62,-184.73C656.15,-174.21 635.03,-156.38 619.91,-143.62"/>
<polygon fill="midnightblue" stroke="midnightblue" points="622.12,-140.9 612.22,-137.13 617.6,-146.25 622.12,-140.9"/>
</g>
<!-- Node18&#45;&gt;Node17 -->
<g id="edge19" class="edge">
<title>Node18&#45;&gt;Node17</title>
<path fill="none" stroke="midnightblue" d="M121.65,-56.44C175.87,-46.9 263.55,-31.48 321.48,-21.29"/>
<polygon fill="midnightblue" stroke="midnightblue" points="322.34,-24.7 331.58,-19.52 321.13,-17.8 322.34,-24.7"/>
</g>
<!-- Node18&#45;&gt;Node19 -->
<g id="edge20" class="edge">
<title>Node18&#45;&gt;Node19</title>
<path fill="none" stroke="midnightblue" d="M146.31,-59.42C285.47,-48.84 585.8,-26 718.14,-15.93"/>
<polygon fill="midnightblue" stroke="midnightblue" points="718.43,-19.42 728.13,-15.17 717.89,-12.44 718.43,-19.42"/>
</g>
<!-- Node20 -->
<g id="node20" class="node">
<title>Node20</title>
<g id="a_node20"><a xlink:title=" ">
<polygon fill="white" stroke="#bfbfbf" points="11,-0.5 11,-19.5 135,-19.5 135,-0.5 11,-0.5"/>
<text text-anchor="middle" x="73" y="-7.5" font-family="Helvetica,sans-Serif" font-size="10.00">AMReX_Interpolater.H</text>
</a>
</g>
</g>
<!-- Node18&#45;&gt;Node20 -->
<g id="edge21" class="edge">
<title>Node18&#45;&gt;Node20</title>
<path fill="none" stroke="midnightblue" d="M73,-56.08C73,-49.01 73,-38.86 73,-29.99"/>
<polygon fill="midnightblue" stroke="midnightblue" points="76.5,-29.75 73,-19.75 69.5,-29.75 76.5,-29.75"/>
</g>
<!-- Node21&#45;&gt;Node8 -->
<g id="edge30" class="edge">
<title>Node21&#45;&gt;Node8</title>
<path fill="none" stroke="midnightblue" d="M1392.25,-120.02C1418.68,-117.36 1449.83,-114.37 1478,-112 1705.76,-92.86 1763.05,-92.69 1991,-76 2003.13,-75.11 2015.95,-74.15 2028.51,-73.2"/>
<polygon fill="midnightblue" stroke="midnightblue" points="2028.79,-76.69 2038.5,-72.45 2028.26,-69.71 2028.79,-76.69"/>
</g>
<!-- Node21&#45;&gt;Node15 -->
<g id="edge23" class="edge">
<title>Node21&#45;&gt;Node15</title>
<path fill="none" stroke="midnightblue" d="M1383.36,-117.92C1410.61,-110.94 1442.29,-98.4 1463,-76 1474.59,-63.47 1479.14,-44.24 1480.92,-29.95"/>
<polygon fill="midnightblue" stroke="midnightblue" points="1484.42,-30.03 1481.82,-19.76 1477.45,-29.41 1484.42,-30.03"/>
</g>
<!-- Node21&#45;&gt;Node16 -->
<g id="edge25" class="edge">
<title>Node21&#45;&gt;Node16</title>
<path fill="none" stroke="midnightblue" d="M1367.97,-117.98C1415.2,-107.37 1495.86,-89.26 1547.24,-77.72"/>
<polygon fill="midnightblue" stroke="midnightblue" points="1548.11,-81.11 1557.1,-75.51 1546.58,-74.28 1548.11,-81.11"/>
</g>
<!-- Node21&#45;&gt;Node17 -->
<g id="edge31" class="edge">
<title>Node21&#45;&gt;Node17</title>
<path fill="none" stroke="midnightblue" d="M1267.65,-120.83C1174.48,-112.19 993.44,-94.74 840,-76 765.66,-66.92 557.12,-36.81 448.19,-20.96"/>
<polygon fill="midnightblue" stroke="midnightblue" points="448.69,-17.49 438.29,-19.52 447.68,-24.42 448.69,-17.49"/>
</g>
<!-- Node21&#45;&gt;Node19 -->
<g id="edge27" class="edge">
<title>Node21&#45;&gt;Node19</title>
<path fill="none" stroke="midnightblue" d="M1291.64,-117.96C1231.03,-104.5 1109.39,-77.68 1006,-56 947.96,-43.83 881.29,-30.46 836.08,-21.48"/>
<polygon fill="midnightblue" stroke="midnightblue" points="836.7,-18.03 826.21,-19.52 835.33,-24.9 836.7,-18.03"/>
</g>
<!-- Node22 -->
<g id="node22" class="node">
<title>Node22</title>
<g id="a_node22"><a xlink:title=" ">
<polygon fill="white" stroke="#bfbfbf" points="1660,-56.5 1660,-75.5 1718,-75.5 1718,-56.5 1660,-56.5"/>
<text text-anchor="middle" x="1689" y="-63.5" font-family="Helvetica,sans-Serif" font-size="10.00">memory</text>
</a>
</g>
</g>
<!-- Node21&#45;&gt;Node22 -->
<g id="edge24" class="edge">
<title>Node21&#45;&gt;Node22</title>
<path fill="none" stroke="midnightblue" d="M1392.17,-118.01C1454.67,-109.18 1553.97,-94.33 1649.8,-75.91"/>
<polygon fill="midnightblue" stroke="midnightblue" points="1650.51,-79.34 1659.66,-74 1649.18,-72.47 1650.51,-79.34"/>
</g>
<!-- Node23 -->
<g id="node23" class="node">
<title>Node23</title>
<g id="a_node23"><a xlink:title=" ">
<polygon fill="white" stroke="#bfbfbf" points="1390,-56.5 1390,-75.5 1454,-75.5 1454,-56.5 1390,-56.5"/>
<text text-anchor="middle" x="1422" y="-63.5" font-family="Helvetica,sans-Serif" font-size="10.00">algorithm</text>
</a>
</g>
</g>
<!-- Node21&#45;&gt;Node23 -->
<g id="edge26" class="edge">
<title>Node21&#45;&gt;Node23</title>
<path fill="none" stroke="midnightblue" d="M1343.18,-117.98C1358.07,-108.34 1382.54,-92.52 1400.27,-81.05"/>
<polygon fill="midnightblue" stroke="midnightblue" points="1402.35,-83.88 1408.84,-75.51 1398.55,-78 1402.35,-83.88"/>
</g>
<!-- Node24 -->
<g id="node24" class="node">
<title>Node24</title>
<g id="a_node24"><a xlink:title=" ">
<polygon fill="white" stroke="#bfbfbf" points="1167.5,-56.5 1167.5,-75.5 1266.5,-75.5 1266.5,-56.5 1167.5,-56.5"/>
<text text-anchor="middle" x="1217" y="-63.5" font-family="Helvetica,sans-Serif" font-size="10.00">AMReX_BCRec.H</text>
</a>
</g>
</g>
<!-- Node21&#45;&gt;Node24 -->
<g id="edge28" class="edge">
<title>Node21&#45;&gt;Node24</title>
<path fill="none" stroke="midnightblue" d="M1313.81,-117.98C1295.1,-108.12 1264.08,-91.79 1242.2,-80.27"/>
<polygon fill="midnightblue" stroke="midnightblue" points="1243.64,-77.07 1233.16,-75.51 1240.38,-83.27 1243.64,-77.07"/>
</g>
<!-- Node25 -->
<g id="node25" class="node">
<title>Node25</title>
<g id="a_node25"><a xlink:title=" ">
<polygon fill="white" stroke="#bfbfbf" points="1284.5,-56.5 1284.5,-75.5 1371.5,-75.5 1371.5,-56.5 1284.5,-56.5"/>
<text text-anchor="middle" x="1328" y="-63.5" font-family="Helvetica,sans-Serif" font-size="10.00">AMReX_Gpu.H</text>
</a>
</g>
</g>
<!-- Node21&#45;&gt;Node25 -->
<g id="edge29" class="edge">
<title>Node21&#45;&gt;Node25</title>
<path fill="none" stroke="midnightblue" d="M1329.71,-117.98C1329.43,-109.58 1328.99,-96.48 1328.63,-85.66"/>
<polygon fill="midnightblue" stroke="midnightblue" points="1332.12,-85.39 1328.29,-75.51 1325.12,-85.62 1332.12,-85.39"/>
</g>
<!-- Node26 -->
<g id="node26" class="node">
<title>Node26</title>
<g id="a_node26"><a xlink:href="_view_field_8_h.html" target="_top" xlink:title=" ">
<polygon fill="white" stroke="black" points="849,-56.5 849,-75.5 997,-75.5 997,-56.5 849,-56.5"/>
<text text-anchor="middle" x="923" y="-63.5" font-family="Helvetica,sans-Serif" font-size="10.00">amr&#45;wind/core/ViewField.H</text>
</a>
</g>
</g>
<!-- Node21&#45;&gt;Node26 -->
<g id="edge32" class="edge">
<title>Node21&#45;&gt;Node26</title>
<path fill="none" stroke="midnightblue" d="M1271.69,-117.98C1197.64,-107.15 1070.08,-88.5 991.49,-77.01"/>
<polygon fill="midnightblue" stroke="midnightblue" points="991.61,-73.49 981.21,-75.51 990.59,-80.42 991.61,-73.49"/>
</g>
<!-- Node26&#45;&gt;Node15 -->
<g id="edge33" class="edge">
<title>Node26&#45;&gt;Node15</title>
<path fill="none" stroke="midnightblue" d="M997.23,-57.83C1120.54,-45.92 1362.63,-22.53 1449.78,-14.11"/>
<polygon fill="midnightblue" stroke="midnightblue" points="1450.24,-17.58 1459.86,-13.14 1449.57,-10.62 1450.24,-17.58"/>
</g>
<!-- Node26&#45;&gt;Node17 -->
<g id="edge34" class="edge">
<title>Node26&#45;&gt;Node17</title>
<path fill="none" stroke="midnightblue" d="M848.92,-57.63C752.07,-48 582.24,-31.11 475.73,-20.52"/>
<polygon fill="midnightblue" stroke="midnightblue" points="475.92,-17.02 465.62,-19.51 475.23,-23.99 475.92,-17.02"/>
</g>
<!-- Node26&#45;&gt;Node19 -->
<g id="edge35" class="edge">
<title>Node26&#45;&gt;Node19</title>
<path fill="none" stroke="midnightblue" d="M900.82,-56.44C877.57,-47.48 840.85,-33.31 814.58,-23.18"/>
<polygon fill="midnightblue" stroke="midnightblue" points="815.67,-19.85 805.08,-19.52 813.15,-26.38 815.67,-19.85"/>
</g>
<!-- Node27 -->
<g id="node27" class="node">
<title>Node27</title>
<g id="a_node27"><a xlink:title=" ">
<polygon fill="white" stroke="#bfbfbf" points="1052,-0.5 1052,-19.5 1150,-19.5 1150,-0.5 1052,-0.5"/>
<text text-anchor="middle" x="1101" y="-7.5" font-family="Helvetica,sans-Serif" font-size="10.00">AMReX_Vector.H</text>
</a>
</g>
</g>
<!-- Node26&#45;&gt;Node27 -->
<g id="edge36" class="edge">
<title>Node26&#45;&gt;Node27</title>
<path fill="none" stroke="midnightblue" d="M951.2,-56.44C981.41,-47.28 1029.51,-32.69 1063.03,-22.52"/>
<polygon fill="midnightblue" stroke="midnightblue" points="1064.37,-25.77 1072.93,-19.52 1062.34,-19.07 1064.37,-25.77"/>
</g>
<!-- Node28&#45;&gt;Node6 -->
<g id="edge40" class="edge">
<title>Node28&#45;&gt;Node6</title>
<path fill="none" stroke="midnightblue" d="M344.53,-117.98C328.03,-108.25 300.82,-92.23 281.32,-80.74"/>
<polygon fill="midnightblue" stroke="midnightblue" points="282.84,-77.57 272.44,-75.51 279.28,-83.6 282.84,-77.57"/>
</g>
<!-- Node28&#45;&gt;Node15 -->
<g id="edge38" class="edge">
<title>Node28&#45;&gt;Node15</title>
<path fill="none" stroke="midnightblue" d="M427.58,-119.73C454.24,-117.18 485.03,-114.34 513,-112 731.93,-93.7 789.61,-113.98 1006,-76 1038.29,-70.33 1044.82,-62.28 1077,-56 1214.09,-29.26 1380.62,-17 1449.64,-12.79"/>
<polygon fill="midnightblue" stroke="midnightblue" points="1450.08,-16.27 1459.86,-12.18 1449.67,-9.28 1450.08,-16.27"/>
</g>
<!-- Node28&#45;&gt;Node17 -->
<g id="edge39" class="edge">
<title>Node28&#45;&gt;Node17</title>
<path fill="none" stroke="midnightblue" d="M359.3,-117.73C359.89,-104.32 361.55,-77.94 366,-56 367.81,-47.08 370.69,-37.41 373.37,-29.34"/>
<polygon fill="midnightblue" stroke="midnightblue" points="376.7,-30.42 376.67,-19.83 370.09,-28.13 376.7,-30.42"/>
</g>
<!-- Node29&#45;&gt;Node15 -->
<g id="edge42" class="edge">
<title>Node29&#45;&gt;Node15</title>
<path fill="none" stroke="midnightblue" d="M651.35,-117.93C664.24,-115.84 678.12,-113.71 691,-112 845.13,-91.49 884.92,-96.9 1039,-76 1092.14,-68.79 1104.99,-64.13 1158,-56 1264.74,-39.62 1391.68,-22.74 1449.92,-15.15"/>
<polygon fill="midnightblue" stroke="midnightblue" points="1450.5,-18.6 1459.97,-13.84 1449.6,-11.66 1450.5,-18.6"/>
</g>
<!-- Node29&#45;&gt;Node17 -->
<g id="edge44" class="edge">
<title>Node29&#45;&gt;Node17</title>
<path fill="none" stroke="midnightblue" d="M575.46,-117.88C549.23,-108.92 508.3,-93.73 475,-76 447.13,-61.16 417.48,-39.88 398.86,-25.76"/>
<polygon fill="midnightblue" stroke="midnightblue" points="400.96,-22.96 390.89,-19.65 396.7,-28.51 400.96,-22.96"/>
</g>
<!-- Node29&#45;&gt;Node19 -->
<g id="edge46" class="edge">
<title>Node29&#45;&gt;Node19</title>
<path fill="none" stroke="midnightblue" d="M617.21,-117.83C634.35,-107.97 662.94,-91.27 687,-76 713.41,-59.24 743.13,-38.88 762.41,-25.46"/>
<polygon fill="midnightblue" stroke="midnightblue" points="764.53,-28.25 770.73,-19.65 760.53,-22.51 764.53,-28.25"/>
</g>
<!-- Node29&#45;&gt;Node26 -->
<g id="edge45" class="edge">
<title>Node29&#45;&gt;Node26</title>
<path fill="none" stroke="midnightblue" d="M647.99,-117.98C705.8,-107.26 804.95,-88.88 867.08,-77.37"/>
<polygon fill="midnightblue" stroke="midnightblue" points="867.9,-80.77 877.09,-75.51 866.62,-73.89 867.9,-80.77"/>
</g>
<!-- Node29&#45;&gt;Node27 -->
<g id="edge47" class="edge">
<title>Node29&#45;&gt;Node27</title>
<path fill="none" stroke="midnightblue" d="M651.83,-117.95C664.58,-115.88 678.28,-113.76 691,-112 830.58,-92.67 873.97,-125.23 1006,-76 1036.25,-64.72 1066.16,-41.79 1084.1,-26.4"/>
<polygon fill="midnightblue" stroke="midnightblue" points="1086.71,-28.78 1091.9,-19.54 1082.08,-23.52 1086.71,-28.78"/>
</g>
<!-- Node30 -->
<g id="node30" class="node">
<title>Node30</title>
<g id="a_node30"><a xlink:title=" ">
<polygon fill="white" stroke="#bfbfbf" points="484.5,-56.5 484.5,-75.5 529.5,-75.5 529.5,-56.5 484.5,-56.5"/>
<text text-anchor="middle" x="507" y="-63.5" font-family="Helvetica,sans-Serif" font-size="10.00">utility</text>
</a>
</g>
</g>
<!-- Node29&#45;&gt;Node30 -->
<g id="edge43" class="edge">
<title>Node29&#45;&gt;Node30</title>
<path fill="none" stroke="midnightblue" d="M588.39,-117.98C572.94,-108.3 547.51,-92.37 529.18,-80.89"/>
<polygon fill="midnightblue" stroke="midnightblue" points="530.92,-77.85 520.59,-75.51 527.2,-83.78 530.92,-77.85"/>
</g>
<!-- Node31 -->
<g id="node31" class="node">
<title>Node31</title>
<g id="a_node31"><a xlink:title=" ">
<polygon fill="white" stroke="#bfbfbf" points="547.5,-56.5 547.5,-75.5 678.5,-75.5 678.5,-56.5 547.5,-56.5"/>
<text text-anchor="middle" x="613" y="-63.5" font-family="Helvetica,sans-Serif" font-size="10.00">AMReX_PhysBCFunct.H</text>
</a>
</g>
</g>
<!-- Node29&#45;&gt;Node31 -->
<g id="edge48" class="edge">
<title>Node29&#45;&gt;Node31</title>
<path fill="none" stroke="midnightblue" d="M603.58,-117.98C605.13,-109.58 607.55,-96.48 609.55,-85.66"/>
<polygon fill="midnightblue" stroke="midnightblue" points="613.05,-85.98 611.43,-75.51 606.17,-84.71 613.05,-85.98"/>
</g>
<!-- Node32&#45;&gt;Node8 -->
<g id="edge68" class="edge">
<title>Node32&#45;&gt;Node8</title>
<path fill="none" stroke="midnightblue" d="M1880.61,-179.42C1901.5,-169.98 1928.91,-156.79 1952,-143 1972.23,-130.92 1974.33,-123.3 1995,-112 2019.72,-98.49 2049.37,-86.91 2072.23,-78.89"/>
<polygon fill="midnightblue" stroke="midnightblue" points="2073.58,-82.13 2081.89,-75.56 2071.3,-75.51 2073.58,-82.13"/>
</g>
<!-- Node32&#45;&gt;Node15 -->
<g id="edge53" class="edge">
<title>Node32&#45;&gt;Node15</title>
<path fill="none" stroke="midnightblue" d="M1869.37,-179.42C1883.76,-169.67 1902.97,-156.13 1919,-143 1934.57,-130.25 1937.27,-125.71 1952,-112 1969.26,-95.92 1981.54,-97.61 1991,-76 1994.57,-67.86 1997,-62.56 1991,-56 1958.79,-20.81 1621.32,-12.99 1514.34,-11.38"/>
<polygon fill="midnightblue" stroke="midnightblue" points="1514.2,-7.88 1504.16,-11.24 1514.11,-14.88 1514.2,-7.88"/>
</g>
<!-- Node32&#45;&gt;Node17 -->
<g id="edge67" class="edge">
<title>Node32&#45;&gt;Node17</title>
<path fill="none" stroke="midnightblue" d="M1770.28,-180.01C1767.15,-179.64 1764.05,-179.3 1761,-179 1622.93,-165.57 641.71,-194.75 513,-143 455.8,-120 410.41,-58.73 390.68,-28.44"/>
<polygon fill="midnightblue" stroke="midnightblue" points="393.51,-26.36 385.2,-19.79 387.6,-30.11 393.51,-26.36"/>
</g>
<!-- Node33 -->
<g id="node33" class="node">
<title>Node33</title>
<g id="a_node33"><a xlink:href="_factory_8_h.html" target="_top" xlink:title=" ">
<polygon fill="white" stroke="black" points="1776,-118 1776,-137 1910,-137 1910,-118 1776,-118"/>
<text text-anchor="middle" x="1843" y="-125" font-family="Helvetica,sans-Serif" font-size="10.00">amr&#45;wind/core/Factory.H</text>
</a>
</g>
</g>
<!-- Node32&#45;&gt;Node33 -->
<g id="edge54" class="edge">
<title>Node32&#45;&gt;Node33</title>
<path fill="none" stroke="midnightblue" d="M1846.92,-179.4C1846.19,-169.96 1845.23,-157.45 1844.44,-147.19"/>
<polygon fill="midnightblue" stroke="midnightblue" points="1847.93,-146.9 1843.67,-137.19 1840.95,-147.43 1847.93,-146.9"/>
</g>
<!-- Node37 -->
<g id="node37" class="node">
<title>Node37</title>
<g id="a_node37"><a xlink:href="_coll_mgr_8_h.html" target="_top" xlink:title=" ">
<polygon fill="white" stroke="black" points="1620.5,-118 1620.5,-137 1757.5,-137 1757.5,-118 1620.5,-118"/>
<text text-anchor="middle" x="1689" y="-125" font-family="Helvetica,sans-Serif" font-size="10.00">amr&#45;wind/core/CollMgr.H</text>
</a>
</g>
</g>
<!-- Node32&#45;&gt;Node37 -->
<g id="edge60" class="edge">
<title>Node32&#45;&gt;Node37</title>
<path fill="none" stroke="midnightblue" d="M1813.5,-179.4C1785.35,-167.89 1745.99,-151.8 1719.11,-140.81"/>
<polygon fill="midnightblue" stroke="midnightblue" points="1720.39,-137.55 1709.81,-137.01 1717.74,-144.03 1720.39,-137.55"/>
</g>
<!-- Node38 -->
<g id="node38" class="node">
<title>Node38</title>
<g id="a_node38"><a xlink:href="_p_d_e_fields_8_h.html" target="_top" xlink:title=" ">
<polygon fill="white" stroke="black" points="2004.5,-112.5 2004.5,-142.5 2159.5,-142.5 2159.5,-112.5 2004.5,-112.5"/>
<text text-anchor="start" x="2012.5" y="-130.5" font-family="Helvetica,sans-Serif" font-size="10.00">amr&#45;wind/equation_systems</text>
<text text-anchor="middle" x="2082" y="-119.5" font-family="Helvetica,sans-Serif" font-size="10.00">/PDEFields.H</text>
</a>
</g>
</g>
<!-- Node32&#45;&gt;Node38 -->
<g id="edge65" class="edge">
<title>Node32&#45;&gt;Node38</title>
<path fill="none" stroke="midnightblue" d="M1898.49,-179.48C1934.5,-169.47 1983.1,-155.97 2021.24,-145.38"/>
<polygon fill="midnightblue" stroke="midnightblue" points="2022.5,-148.66 2031.2,-142.61 2020.63,-141.92 2022.5,-148.66"/>
</g>
<!-- Node33&#45;&gt;Node16 -->
<g id="edge56" class="edge">
<title>Node33&#45;&gt;Node16</title>
<path fill="none" stroke="midnightblue" d="M1807.47,-117.98C1763.45,-107.42 1688.41,-89.41 1640.3,-77.87"/>
<polygon fill="midnightblue" stroke="midnightblue" points="1641.01,-74.44 1630.47,-75.51 1639.37,-81.25 1641.01,-74.44"/>
</g>
<!-- Node33&#45;&gt;Node22 -->
<g id="edge55" class="edge">
<title>Node33&#45;&gt;Node22</title>
<path fill="none" stroke="midnightblue" d="M1820.94,-117.98C1794.63,-107.81 1750.49,-90.76 1720.58,-79.2"/>
<polygon fill="midnightblue" stroke="midnightblue" points="1721.61,-75.85 1711.02,-75.51 1719.09,-82.38 1721.61,-75.85"/>
</g>
<!-- Node34 -->
<g id="node34" class="node">
<title>Node34</title>
<g id="a_node34"><a xlink:title=" ">
<polygon fill="white" stroke="#bfbfbf" points="2428,-56.5 2428,-75.5 2488,-75.5 2488,-56.5 2428,-56.5"/>
<text text-anchor="middle" x="2458" y="-63.5" font-family="Helvetica,sans-Serif" font-size="10.00">iostream</text>
</a>
</g>
</g>
<!-- Node33&#45;&gt;Node34 -->
<g id="edge57" class="edge">
<title>Node33&#45;&gt;Node34</title>
<path fill="none" stroke="midnightblue" d="M1910.28,-119.99C2038.5,-107.59 2314.26,-80.91 2417.7,-70.9"/>
<polygon fill="midnightblue" stroke="midnightblue" points="2418.12,-74.37 2427.74,-69.93 2417.45,-67.41 2418.12,-74.37"/>
</g>
<!-- Node35 -->
<g id="node35" class="node">
<title>Node35</title>
<g id="a_node35"><a xlink:title=" ">
<polygon fill="white" stroke="#bfbfbf" points="1812,-56.5 1812,-75.5 1902,-75.5 1902,-56.5 1812,-56.5"/>
<text text-anchor="middle" x="1857" y="-63.5" font-family="Helvetica,sans-Serif" font-size="10.00">AMReX_Print.H</text>
</a>
</g>
</g>
<!-- Node33&#45;&gt;Node35 -->
<g id="edge58" class="edge">
<title>Node33&#45;&gt;Node35</title>
<path fill="none" stroke="midnightblue" d="M1845.01,-117.98C1847,-109.49 1850.13,-96.2 1852.69,-85.32"/>
<polygon fill="midnightblue" stroke="midnightblue" points="1856.11,-86.04 1855,-75.51 1849.3,-84.44 1856.11,-86.04"/>
</g>
<!-- Node36 -->
<g id="node36" class="node">
<title>Node36</title>
<g id="a_node36"><a xlink:title=" ">
<polygon fill="white" stroke="#bfbfbf" points="1920,-56.5 1920,-75.5 1982,-75.5 1982,-56.5 1920,-56.5"/>
<text text-anchor="middle" x="1951" y="-63.5" font-family="Helvetica,sans-Serif" font-size="10.00">AMReX.H</text>
</a>
</g>
</g>
<!-- Node33&#45;&gt;Node36 -->
<g id="edge59" class="edge">
<title>Node33&#45;&gt;Node36</title>
<path fill="none" stroke="midnightblue" d="M1858.47,-117.98C1876.28,-108.17 1905.74,-91.93 1926.63,-80.42"/>
<polygon fill="midnightblue" stroke="midnightblue" points="1928.49,-83.4 1935.55,-75.51 1925.11,-77.27 1928.49,-83.4"/>
</g>
<!-- Node37&#45;&gt;Node15 -->
<g id="edge61" class="edge">
<title>Node37&#45;&gt;Node15</title>
<path fill="none" stroke="midnightblue" d="M1709.42,-117.84C1736.93,-104.99 1780.27,-79.81 1760,-56 1728.78,-19.32 1580.94,-12.45 1514.49,-11.22"/>
<polygon fill="midnightblue" stroke="midnightblue" points="1514.23,-7.72 1504.18,-11.07 1514.13,-14.72 1514.23,-7.72"/>
</g>
<!-- Node37&#45;&gt;Node16 -->
<g id="edge63" class="edge">
<title>Node37&#45;&gt;Node16</title>
<path fill="none" stroke="midnightblue" d="M1675.53,-117.98C1660.32,-108.34 1635.31,-92.52 1617.2,-81.05"/>
<polygon fill="midnightblue" stroke="midnightblue" points="1618.76,-77.9 1608.44,-75.51 1615.02,-83.81 1618.76,-77.9"/>
</g>
<!-- Node37&#45;&gt;Node22 -->
<g id="edge62" class="edge">
<title>Node37&#45;&gt;Node22</title>
<path fill="none" stroke="midnightblue" d="M1689,-117.98C1689,-109.58 1689,-96.48 1689,-85.66"/>
<polygon fill="midnightblue" stroke="midnightblue" points="1692.5,-85.51 1689,-75.51 1685.5,-85.51 1692.5,-85.51"/>
</g>
<!-- Node37&#45;&gt;Node27 -->
<g id="edge64" class="edge">
<title>Node37&#45;&gt;Node27</title>
<path fill="none" stroke="midnightblue" d="M1699.92,-117.82C1716.58,-103.57 1744.62,-74.93 1727,-56 1707.85,-35.42 1312.72,-18.78 1160.27,-13.1"/>
<polygon fill="midnightblue" stroke="midnightblue" points="1160.28,-9.6 1150.16,-12.72 1160.02,-16.59 1160.28,-9.6"/>
</g>
<!-- Node39 -->
<g id="node39" class="node">
<title>Node39</title>
<g id="a_node39"><a xlink:title=" ">
<polygon fill="white" stroke="#bfbfbf" points="2198,-56.5 2198,-75.5 2246,-75.5 2246,-56.5 2198,-56.5"/>
<text text-anchor="middle" x="2222" y="-63.5" font-family="Helvetica,sans-Serif" font-size="10.00">iosfwd</text>
</a>
</g>
</g>
<!-- Node38&#45;&gt;Node39 -->
<g id="edge66" class="edge">
<title>Node38&#45;&gt;Node39</title>
<path fill="none" stroke="midnightblue" d="M2115.18,-112.4C2138.56,-102.46 2169.61,-89.26 2192.21,-79.66"/>
<polygon fill="midnightblue" stroke="midnightblue" points="2193.79,-82.79 2201.63,-75.66 2191.06,-76.35 2193.79,-82.79"/>
</g>
<!-- Node40&#45;&gt;Node19 -->
<g id="edge72" class="edge">
<title>Node40&#45;&gt;Node19</title>
<path fill="none" stroke="midnightblue" d="M1641.6,-184.98C1630.08,-182.84 1617.59,-180.68 1606,-179 1266.03,-129.85 1140.68,-242.11 840,-76 819.76,-64.82 803.24,-43.56 793.29,-28.4"/>
<polygon fill="midnightblue" stroke="midnightblue" points="796.24,-26.52 787.97,-19.89 790.31,-30.23 796.24,-26.52"/>
</g>
<!-- Node40&#45;&gt;Node33 -->
<g id="edge70" class="edge">
<title>Node40&#45;&gt;Node33</title>
<path fill="none" stroke="midnightblue" d="M1705.11,-184.87C1732.63,-173.62 1780.95,-153.87 1812.46,-140.99"/>
<polygon fill="midnightblue" stroke="midnightblue" points="1814.12,-144.09 1822.05,-137.06 1811.47,-137.61 1814.12,-144.09"/>
</g>
<!-- Node40&#45;&gt;Node37 -->
<g id="edge71" class="edge">
<title>Node40&#45;&gt;Node37</title>
<path fill="none" stroke="midnightblue" d="M1684.67,-184.73C1685.41,-175.18 1686.61,-159.62 1687.56,-147.28"/>
<polygon fill="midnightblue" stroke="midnightblue" points="1691.06,-147.37 1688.34,-137.13 1684.08,-146.83 1691.06,-147.37"/>
</g>
<!-- Node41 -->
<g id="node41" class="node">
<title>Node41</title>
<g id="a_node41"><a xlink:title=" ">
<polygon fill="white" stroke="#bfbfbf" points="1487.5,-118 1487.5,-137 1602.5,-137 1602.5,-118 1487.5,-118"/>
<text text-anchor="middle" x="1545" y="-125" font-family="Helvetica,sans-Serif" font-size="10.00">AMReX_Geometry.H</text>
</a>
</g>
</g>
<!-- Node40&#45;&gt;Node41 -->
<g id="edge73" class="edge">
<title>Node40&#45;&gt;Node41</title>
<path fill="none" stroke="midnightblue" d="M1665.54,-184.87C1641.76,-173.75 1600.21,-154.32 1572.65,-141.43"/>
<polygon fill="midnightblue" stroke="midnightblue" points="1574.08,-138.23 1563.53,-137.17 1571.11,-144.57 1574.08,-138.23"/>
</g>
<!-- Node42&#45;&gt;Node19 -->
<g id="edge78" class="edge">
<title>Node42&#45;&gt;Node19</title>
<path fill="none" stroke="midnightblue" d="M1448.9,-188.6C1278.99,-177.27 874.89,-149.71 862,-143 817.69,-119.94 795.96,-60.12 787.46,-29.56"/>
<polygon fill="midnightblue" stroke="midnightblue" points="790.82,-28.55 784.92,-19.75 784.04,-30.3 790.82,-28.55"/>
</g>
<!-- Node42&#45;&gt;Node21 -->
<g id="edge77" class="edge">
<title>Node42&#45;&gt;Node21</title>
<path fill="none" stroke="midnightblue" d="M1497.37,-184.87C1463.39,-173.42 1403.28,-153.18 1365.1,-140.32"/>
<polygon fill="midnightblue" stroke="midnightblue" points="1366.02,-136.94 1355.43,-137.06 1363.79,-143.57 1366.02,-136.94"/>
</g>
<!-- Node42&#45;&gt;Node33 -->
<g id="edge76" class="edge">
<title>Node42&#45;&gt;Node33</title>
<path fill="none" stroke="midnightblue" d="M1565.16,-184.94C1623.28,-173.13 1727.94,-151.87 1790.89,-139.09"/>
<polygon fill="midnightblue" stroke="midnightblue" points="1791.89,-142.45 1801,-137.03 1790.5,-135.59 1791.89,-142.45"/>
</g>
<!-- Node42&#45;&gt;Node37 -->
<g id="edge75" class="edge">
<title>Node42&#45;&gt;Node37</title>
<path fill="none" stroke="midnightblue" d="M1545.04,-184.87C1573.9,-173.57 1624.65,-153.7 1657.54,-140.82"/>
<polygon fill="midnightblue" stroke="midnightblue" points="1659.09,-143.97 1667.13,-137.06 1656.54,-137.45 1659.09,-143.97"/>
</g>
<!-- Node42&#45;&gt;Node41 -->
<g id="edge79" class="edge">
<title>Node42&#45;&gt;Node41</title>
<path fill="none" stroke="midnightblue" d="M1525.97,-184.73C1529.23,-175.09 1534.58,-159.3 1538.77,-146.91"/>
<polygon fill="midnightblue" stroke="midnightblue" points="1542.19,-147.72 1542.08,-137.13 1535.56,-145.48 1542.19,-147.72"/>
</g>
<!-- Node43&#45;&gt;Node34 -->
<g id="edge83" class="edge">
<title>Node43&#45;&gt;Node34</title>
<path fill="none" stroke="midnightblue" d="M2460.91,-302.37C2498.93,-276.32 2575.65,-216.63 2603,-143 2607.8,-130.08 2611.17,-123.09 2603,-112 2579.13,-79.59 2532.14,-69.84 2498.11,-67.24"/>
<polygon fill="midnightblue" stroke="midnightblue" points="2498.19,-63.74 2488.01,-66.65 2497.78,-70.73 2498.19,-63.74"/>
</g>
<!-- Node44 -->
<g id="node44" class="node">
<title>Node44</title>
<g id="a_node44"><a xlink:title=" ">
<polygon fill="white" stroke="#bfbfbf" points="2390,-246.5 2390,-265.5 2488,-265.5 2488,-246.5 2390,-246.5"/>
<text text-anchor="middle" x="2439" y="-253.5" font-family="Helvetica,sans-Serif" font-size="10.00">AMReX_MLMG.H</text>
</a>
</g>
</g>
<!-- Node43&#45;&gt;Node44 -->
<g id="edge84" class="edge">
<title>Node43&#45;&gt;Node44</title>
<path fill="none" stroke="midnightblue" d="M2439,-302.4C2439,-294.47 2439,-284.46 2439,-275.86"/>
<polygon fill="midnightblue" stroke="midnightblue" points="2442.5,-275.66 2439,-265.66 2435.5,-275.66 2442.5,-275.66"/>
</g>
</g>
</svg>
