<?xml version="1.0" encoding="UTF-8" standalone="no"?>
<!DOCTYPE svg PUBLIC "-//W3C//DTD SVG 1.1//EN"
 "http://www.w3.org/Graphics/SVG/1.1/DTD/svg11.dtd">
<!-- Generated by graphviz version 2.43.0 (0)
 -->
<!-- Title: nc_interface.H Pages: 1 -->
<!--zoomable 319 -->
<svg id="main" version="1.1" xmlns="http://www.w3.org/2000/svg" xmlns:xlink="http://www.w3.org/1999/xlink" xml:space="preserve" onload="init(evt)">
<style type="text/css"><![CDATA[
.edge:hover path { stroke: red; }
.edge:hover polygon { stroke: red; fill: red; }
]]></style>
<script type="text/javascript"><![CDATA[
var edges = document.getElementsByTagName('g');
if (edges && edges.length) {
  for (var i=0;i<edges.length;i++) {
    if (edges[i].id.substr(0,4)=='edge') {
      edges[i].setAttribute('class','edge');
    }
  }
}
]]></script>
        <defs>
                <circle id="rim" cx="0" cy="0" r="7"/>
                <circle id="rim2" cx="0" cy="0" r="3.5"/>
                <g id="zoomPlus">
                        <use xlink:href="#rim" fill="#404040">
                                <set attributeName="fill" to="#808080" begin="zoomplus.mouseover" end="zoomplus.mouseout"/>
                        </use>
                        <path d="M-4,0h8M0,-4v8" fill="none" stroke="white" stroke-width="1.5" pointer-events="none"/>
                </g>
                <g id="zoomMin">
                        <use xlink:href="#rim" fill="#404040">
                                <set attributeName="fill" to="#808080" begin="zoomminus.mouseover" end="zoomminus.mouseout"/>
                        </use>
                        <path d="M-4,0h8" fill="none" stroke="white" stroke-width="1.5" pointer-events="none"/>
                </g>
                <g id="dirArrow">
                        <path fill="none" stroke="white" stroke-width="1.5" d="M0,-3.0v7 M-2.5,-0.5L0,-3.0L2.5,-0.5"/>
                </g>
               <g id="resetDef">
                       <use xlink:href="#rim2" fill="#404040">
                               <set attributeName="fill" to="#808080" begin="reset.mouseover" end="reset.mouseout"/>
                       </use>
               </g>
        </defs>

<script type="text/javascript">
var viewWidth = 2419;
var viewHeight = 319;
var sectionId = 'dynsection-1';
</script>
<script xlink:href="svgpan.js"/>
<svg id="graph" class="graph">
<g id="viewport">
<title>nc_interface.H</title>
<polygon fill="white" stroke="transparent" points="-4,4 -4,-315 2415,-315 2415,4 -4,4"/>
<!-- Node1 -->
<g id="node1" class="node">
<title>Node1</title>
<g id="a_node1"><a xlink:title=" ">
<polygon fill="#bfbfbf" stroke="black" points="1325,-291.5 1325,-310.5 1412,-310.5 1412,-291.5 1325,-291.5"/>
<text text-anchor="middle" x="1368.5" y="-298.5" font-family="Helvetica,sans-Serif" font-size="10.00">nc_interface.H</text>
</a>
</g>
</g>
<!-- Node2 -->
<g id="node2" class="node">
<title>Node2</title>
<g id="a_node2"><a xlink:href="_a_b_l_boundary_plane_8_h.html" target="_top" xlink:title=" ">
<polygon fill="white" stroke="black" points="232,-235.5 232,-254.5 351,-254.5 351,-235.5 232,-235.5"/>
<text text-anchor="middle" x="291.5" y="-242.5" font-family="Helvetica,sans-Serif" font-size="10.00">ABLBoundaryPlane.H</text>
</a>
</g>
</g>
<!-- Node1&#45;&gt;Node2 -->
<g id="edge1" class="edge">
<title>Node1&#45;&gt;Node2</title>
<path fill="none" stroke="midnightblue" d="M1314.83,-297.31C1133.11,-288.2 541.68,-258.54 351.2,-248.99"/>
<polygon fill="midnightblue" stroke="midnightblue" points="1314.78,-300.81 1324.95,-297.82 1315.13,-293.82 1314.78,-300.81"/>
</g>
<!-- Node11 -->
<g id="node11" class="node">
<title>Node11</title>
<g id="a_node11"><a xlink:href="_a_b_l_boundary_plane_8cpp.html" target="_top" xlink:title=" ">
<polygon fill="white" stroke="black" points="0,-118 0,-137 129,-137 129,-118 0,-118"/>
<text text-anchor="middle" x="64.5" y="-125" font-family="Helvetica,sans-Serif" font-size="10.00">ABLBoundaryPlane.cpp</text>
</a>
</g>
</g>
<!-- Node1&#45;&gt;Node11 -->
<g id="edge41" class="edge">
<title>Node1&#45;&gt;Node11</title>
<path fill="none" stroke="midnightblue" d="M1314.71,-299.22C1102.38,-295.96 328.82,-282.31 222.5,-255 168.6,-241.15 152.04,-236.04 110.5,-199 90.21,-180.91 75.12,-151.89 68.39,-137.37"/>
<polygon fill="midnightblue" stroke="midnightblue" points="1314.93,-302.72 1324.98,-299.38 1315.03,-295.73 1314.93,-302.72"/>
</g>
<!-- Node14 -->
<g id="node14" class="node">
<title>Node14</title>
<g id="a_node14"><a xlink:href="bluff__body__ops_8cpp.html" target="_top" xlink:title=" ">
<polygon fill="white" stroke="black" points="636.5,-235.5 636.5,-254.5 746.5,-254.5 746.5,-235.5 636.5,-235.5"/>
<text text-anchor="middle" x="691.5" y="-242.5" font-family="Helvetica,sans-Serif" font-size="10.00">bluff_body_ops.cpp</text>
</a>
</g>
</g>
<!-- Node1&#45;&gt;Node14 -->
<g id="edge15" class="edge">
<title>Node1&#45;&gt;Node14</title>
<path fill="none" stroke="midnightblue" d="M1314.73,-297.26C1207.95,-291.54 961.64,-277.04 755.5,-255 752.6,-254.69 749.63,-254.35 746.63,-253.99"/>
<polygon fill="midnightblue" stroke="midnightblue" points="1314.76,-300.76 1324.93,-297.8 1315.13,-293.77 1314.76,-300.76"/>
</g>
<!-- Node15 -->
<g id="node15" class="node">
<title>Node15</title>
<g id="a_node15"><a xlink:href="_synthetic_turbulence_8cpp.html" target="_top" xlink:title=" ">
<polygon fill="white" stroke="black" points="765,-235.5 765,-254.5 900,-254.5 900,-235.5 765,-235.5"/>
<text text-anchor="middle" x="832.5" y="-242.5" font-family="Helvetica,sans-Serif" font-size="10.00">SyntheticTurbulence.cpp</text>
</a>
</g>
</g>
<!-- Node1&#45;&gt;Node15 -->
<g id="edge16" class="edge">
<title>Node1&#45;&gt;Node15</title>
<path fill="none" stroke="midnightblue" d="M1314.67,-295.09C1228.74,-287.18 1055.31,-270.87 908.5,-255 905.73,-254.7 902.9,-254.39 900.04,-254.07"/>
<polygon fill="midnightblue" stroke="midnightblue" points="1314.43,-298.58 1324.71,-296.02 1315.07,-291.61 1314.43,-298.58"/>
</g>
<!-- Node16 -->
<g id="node16" class="node">
<title>Node16</title>
<g id="a_node16"><a xlink:href="_i_o_manager_8cpp.html" target="_top" xlink:title=" ">
<polygon fill="white" stroke="black" points="918,-235.5 918,-254.5 1007,-254.5 1007,-235.5 918,-235.5"/>
<text text-anchor="middle" x="962.5" y="-242.5" font-family="Helvetica,sans-Serif" font-size="10.00">IOManager.cpp</text>
</a>
</g>
</g>
<!-- Node1&#45;&gt;Node16 -->
<g id="edge17" class="edge">
<title>Node1&#45;&gt;Node16</title>
<path fill="none" stroke="midnightblue" d="M1314.72,-293.85C1245.42,-285.76 1121.29,-270.72 1015.5,-255 1012.73,-254.59 1009.88,-254.15 1007.01,-253.7"/>
<polygon fill="midnightblue" stroke="midnightblue" points="1314.61,-297.36 1324.94,-295.04 1315.42,-290.4 1314.61,-297.36"/>
</g>
<!-- Node17 -->
<g id="node17" class="node">
<title>Node17</title>
<g id="a_node17"><a xlink:href="nc__interface_8cpp.html" target="_top" xlink:title=" ">
<polygon fill="white" stroke="black" points="1025,-235.5 1025,-254.5 1122,-254.5 1122,-235.5 1025,-235.5"/>
<text text-anchor="middle" x="1073.5" y="-242.5" font-family="Helvetica,sans-Serif" font-size="10.00">nc_interface.cpp</text>
</a>
</g>
</g>
<!-- Node1&#45;&gt;Node17 -->
<g id="edge18" class="edge">
<title>Node1&#45;&gt;Node17</title>
<path fill="none" stroke="midnightblue" d="M1314.95,-290.2C1259.3,-280.01 1173.08,-264.23 1120.13,-254.54"/>
<polygon fill="midnightblue" stroke="midnightblue" points="1314.5,-293.67 1324.97,-292.03 1315.77,-286.79 1314.5,-293.67"/>
</g>
<!-- Node18 -->
<g id="node18" class="node">
<title>Node18</title>
<g id="a_node18"><a xlink:href="_sampler_base_8_h.html" target="_top" xlink:title=" ">
<polygon fill="white" stroke="black" points="1178.5,-235.5 1178.5,-254.5 1270.5,-254.5 1270.5,-235.5 1178.5,-235.5"/>
<text text-anchor="middle" x="1224.5" y="-242.5" font-family="Helvetica,sans-Serif" font-size="10.00">SamplerBase.H</text>
</a>
</g>
</g>
<!-- Node1&#45;&gt;Node18 -->
<g id="edge19" class="edge">
<title>Node1&#45;&gt;Node18</title>
<path fill="none" stroke="midnightblue" d="M1336.25,-287.91C1309.18,-277.75 1271.18,-263.51 1247.21,-254.52"/>
<polygon fill="midnightblue" stroke="midnightblue" points="1335.09,-291.21 1345.68,-291.44 1337.55,-284.66 1335.09,-291.21"/>
</g>
<!-- Node30 -->
<g id="node30" class="node">
<title>Node30</title>
<g id="a_node30"><a xlink:href="_sampling_8cpp.html" target="_top" xlink:title=" ">
<polygon fill="white" stroke="black" points="1016,-118 1016,-137 1099,-137 1099,-118 1016,-118"/>
<text text-anchor="middle" x="1057.5" y="-125" font-family="Helvetica,sans-Serif" font-size="10.00">Sampling.cpp</text>
</a>
</g>
</g>
<!-- Node1&#45;&gt;Node30 -->
<g id="edge39" class="edge">
<title>Node1&#45;&gt;Node30</title>
<path fill="none" stroke="midnightblue" d="M1314.93,-291.66C1274.27,-284.43 1217.38,-272.38 1169.5,-255 1151.19,-248.35 1148.56,-242.29 1130.5,-235 1079.26,-214.31 1044.43,-243.37 1011.5,-199 995.56,-177.52 1025.92,-150.73 1044.52,-137.19"/>
<polygon fill="midnightblue" stroke="midnightblue" points="1314.45,-295.13 1324.9,-293.39 1315.65,-288.23 1314.45,-295.13"/>
</g>
<!-- Node33 -->
<g id="node33" class="node">
<title>Node33</title>
<g id="a_node33"><a xlink:href="_a_b_l_stats_8cpp.html" target="_top" xlink:title=" ">
<polygon fill="white" stroke="black" points="1649.5,-118 1649.5,-137 1729.5,-137 1729.5,-118 1649.5,-118"/>
<text text-anchor="middle" x="1689.5" y="-125" font-family="Helvetica,sans-Serif" font-size="10.00">ABLStats.cpp</text>
</a>
</g>
</g>
<!-- Node1&#45;&gt;Node33 -->
<g id="edge42" class="edge">
<title>Node1&#45;&gt;Node33</title>
<path fill="none" stroke="midnightblue" d="M1345,-286.03C1325.2,-272.55 1302.34,-251.78 1317.5,-235 1370.35,-176.48 1610.42,-250.07 1670.5,-199 1688.85,-183.4 1690.43,-152.12 1690.02,-137.03"/>
<polygon fill="midnightblue" stroke="midnightblue" points="1343.15,-289 1353.45,-291.49 1346.96,-283.12 1343.15,-289"/>
</g>
<!-- Node34 -->
<g id="node34" class="node">
<title>Node34</title>
<g id="a_node34"><a xlink:href="_enstrophy_8cpp.html" target="_top" xlink:title=" ">
<polygon fill="white" stroke="black" points="1326.5,-235.5 1326.5,-254.5 1410.5,-254.5 1410.5,-235.5 1326.5,-235.5"/>
<text text-anchor="middle" x="1368.5" y="-242.5" font-family="Helvetica,sans-Serif" font-size="10.00">Enstrophy.cpp</text>
</a>
</g>
</g>
<!-- Node1&#45;&gt;Node34 -->
<g id="edge35" class="edge">
<title>Node1&#45;&gt;Node34</title>
<path fill="none" stroke="midnightblue" d="M1368.5,-280.8C1368.5,-271.91 1368.5,-261.78 1368.5,-254.75"/>
<polygon fill="midnightblue" stroke="midnightblue" points="1365,-281.08 1368.5,-291.08 1372,-281.08 1365,-281.08"/>
</g>
<!-- Node35 -->
<g id="node35" class="node">
<title>Node35</title>
<g id="a_node35"><a xlink:href="_field_norms_8cpp.html" target="_top" xlink:title=" ">
<polygon fill="white" stroke="black" points="1428.5,-235.5 1428.5,-254.5 1520.5,-254.5 1520.5,-235.5 1428.5,-235.5"/>
<text text-anchor="middle" x="1474.5" y="-242.5" font-family="Helvetica,sans-Serif" font-size="10.00">FieldNorms.cpp</text>
</a>
</g>
</g>
<!-- Node1&#45;&gt;Node35 -->
<g id="edge36" class="edge">
<title>Node1&#45;&gt;Node35</title>
<path fill="none" stroke="midnightblue" d="M1394.56,-286.73C1414.18,-276.73 1440.53,-263.31 1457.51,-254.65"/>
<polygon fill="midnightblue" stroke="midnightblue" points="1392.85,-283.67 1385.53,-291.32 1396.03,-289.9 1392.85,-283.67"/>
</g>
<!-- Node36 -->
<g id="node36" class="node">
<title>Node36</title>
<g id="a_node36"><a xlink:href="_free_surface_8cpp.html" target="_top" xlink:title=" ">
<polygon fill="white" stroke="black" points="1539,-235.5 1539,-254.5 1634,-254.5 1634,-235.5 1539,-235.5"/>
<text text-anchor="middle" x="1586.5" y="-242.5" font-family="Helvetica,sans-Serif" font-size="10.00">FreeSurface.cpp</text>
</a>
</g>
</g>
<!-- Node1&#45;&gt;Node36 -->
<g id="edge37" class="edge">
<title>Node1&#45;&gt;Node36</title>
<path fill="none" stroke="midnightblue" d="M1412.81,-289.02C1453.99,-278.82 1514.47,-263.84 1552.12,-254.52"/>
<polygon fill="midnightblue" stroke="midnightblue" points="1411.91,-285.64 1403.04,-291.44 1413.59,-292.44 1411.91,-285.64"/>
</g>
<!-- Node37 -->
<g id="node37" class="node">
<title>Node37</title>
<g id="a_node37"><a xlink:href="_kinetic_energy_8cpp.html" target="_top" xlink:title=" ">
<polygon fill="white" stroke="black" points="1652,-235.5 1652,-254.5 1755,-254.5 1755,-235.5 1652,-235.5"/>
<text text-anchor="middle" x="1703.5" y="-242.5" font-family="Helvetica,sans-Serif" font-size="10.00">KineticEnergy.cpp</text>
</a>
</g>
</g>
<!-- Node1&#45;&gt;Node37 -->
<g id="edge38" class="edge">
<title>Node1&#45;&gt;Node37</title>
<path fill="none" stroke="midnightblue" d="M1422.45,-291.3C1485.62,-281.12 1589.5,-264.38 1651.72,-254.35"/>
<polygon fill="midnightblue" stroke="midnightblue" points="1421.61,-287.89 1412.3,-292.94 1422.72,-294.8 1421.61,-287.89"/>
</g>
<!-- Node38 -->
<g id="node38" class="node">
<title>Node38</title>
<g id="a_node38"><a xlink:href="_wave_energy_8cpp.html" target="_top" xlink:title=" ">
<polygon fill="white" stroke="black" points="1773.5,-235.5 1773.5,-254.5 1869.5,-254.5 1869.5,-235.5 1773.5,-235.5"/>
<text text-anchor="middle" x="1821.5" y="-242.5" font-family="Helvetica,sans-Serif" font-size="10.00">WaveEnergy.cpp</text>
</a>
</g>
</g>
<!-- Node1&#45;&gt;Node38 -->
<g id="edge40" class="edge">
<title>Node1&#45;&gt;Node38</title>
<path fill="none" stroke="midnightblue" d="M1422.55,-294.61C1498.87,-286.83 1642.54,-271.55 1764.5,-255 1767.38,-254.61 1770.34,-254.19 1773.32,-253.76"/>
<polygon fill="midnightblue" stroke="midnightblue" points="1421.83,-291.16 1412.23,-295.66 1422.54,-298.13 1421.83,-291.16"/>
</g>
<!-- Node39 -->
<g id="node39" class="node">
<title>Node39</title>
<g id="a_node39"><a xlink:href="disk__ops_8cpp.html" target="_top" xlink:title=" ">
<polygon fill="white" stroke="black" points="1887.5,-235.5 1887.5,-254.5 1967.5,-254.5 1967.5,-235.5 1887.5,-235.5"/>
<text text-anchor="middle" x="1927.5" y="-242.5" font-family="Helvetica,sans-Serif" font-size="10.00">disk_ops.cpp</text>
</a>
</g>
</g>
<!-- Node1&#45;&gt;Node39 -->
<g id="edge43" class="edge">
<title>Node1&#45;&gt;Node39</title>
<path fill="none" stroke="midnightblue" d="M1422.35,-296.91C1515.58,-291.2 1712.95,-277.46 1878.5,-255 1881.41,-254.6 1884.42,-254.16 1887.44,-253.67"/>
<polygon fill="midnightblue" stroke="midnightblue" points="1422.08,-293.42 1412.32,-297.52 1422.51,-300.41 1422.08,-293.42"/>
</g>
<!-- Node40 -->
<g id="node40" class="node">
<title>Node40</title>
<g id="a_node40"><a xlink:href="_joukowsky__ops_8cpp.html" target="_top" xlink:title=" ">
<polygon fill="white" stroke="black" points="1985.5,-235.5 1985.5,-254.5 2095.5,-254.5 2095.5,-235.5 1985.5,-235.5"/>
<text text-anchor="middle" x="2040.5" y="-242.5" font-family="Helvetica,sans-Serif" font-size="10.00">Joukowsky_ops.cpp</text>
</a>
</g>
</g>
<!-- Node1&#45;&gt;Node40 -->
<g id="edge44" class="edge">
<title>Node1&#45;&gt;Node40</title>
<path fill="none" stroke="midnightblue" d="M1422.22,-297.21C1528.35,-291.45 1772.29,-276.89 1976.5,-255 1979.4,-254.69 1982.37,-254.35 1985.37,-253.99"/>
<polygon fill="midnightblue" stroke="midnightblue" points="1421.88,-293.73 1412.09,-297.76 1422.26,-300.72 1421.88,-293.73"/>
</g>
<!-- Node41 -->
<g id="node41" class="node">
<title>Node41</title>
<g id="a_node41"><a xlink:href="_fast_iface_8cpp.html" target="_top" xlink:title=" ">
<polygon fill="white" stroke="black" points="2113.5,-235.5 2113.5,-254.5 2193.5,-254.5 2193.5,-235.5 2113.5,-235.5"/>
<text text-anchor="middle" x="2153.5" y="-242.5" font-family="Helvetica,sans-Serif" font-size="10.00">FastIface.cpp</text>
</a>
</g>
</g>
<!-- Node1&#45;&gt;Node41 -->
<g id="edge45" class="edge">
<title>Node1&#45;&gt;Node41</title>
<path fill="none" stroke="midnightblue" d="M1422.4,-298.93C1544.33,-296.02 1850.45,-285.98 2104.5,-255 2107.42,-254.64 2110.43,-254.22 2113.45,-253.76"/>
<polygon fill="midnightblue" stroke="midnightblue" points="1422.14,-295.43 1412.22,-299.16 1422.3,-302.43 1422.14,-295.43"/>
</g>
<!-- Node42 -->
<g id="node42" class="node">
<title>Node42</title>
<g id="a_node42"><a xlink:href="turbine__utils_8cpp.html" target="_top" xlink:title=" ">
<polygon fill="white" stroke="black" points="2211.5,-235.5 2211.5,-254.5 2309.5,-254.5 2309.5,-235.5 2211.5,-235.5"/>
<text text-anchor="middle" x="2260.5" y="-242.5" font-family="Helvetica,sans-Serif" font-size="10.00">turbine_utils.cpp</text>
</a>
</g>
</g>
<!-- Node1&#45;&gt;Node42 -->
<g id="edge46" class="edge">
<title>Node1&#45;&gt;Node42</title>
<path fill="none" stroke="midnightblue" d="M1422.33,-298.96C1555.16,-295.99 1909.03,-285.61 2202.5,-255 2205.44,-254.69 2208.46,-254.34 2211.5,-253.96"/>
<polygon fill="midnightblue" stroke="midnightblue" points="1421.95,-295.47 1412.03,-299.19 1422.11,-302.47 1421.95,-295.47"/>
</g>
<!-- Node43 -->
<g id="node43" class="node">
<title>Node43</title>
<g id="a_node43"><a xlink:href="wing__ops_8cpp.html" target="_top" xlink:title=" ">
<polygon fill="white" stroke="black" points="2328,-235.5 2328,-254.5 2411,-254.5 2411,-235.5 2328,-235.5"/>
<text text-anchor="middle" x="2369.5" y="-242.5" font-family="Helvetica,sans-Serif" font-size="10.00">wing_ops.cpp</text>
</a>
</g>
</g>
<!-- Node1&#45;&gt;Node43 -->
<g id="edge47" class="edge">
<title>Node1&#45;&gt;Node43</title>
<path fill="none" stroke="midnightblue" d="M1422.63,-299.84C1568.03,-298.91 1979.1,-292.83 2318.5,-255 2321.54,-254.66 2324.67,-254.25 2327.81,-253.8"/>
<polygon fill="midnightblue" stroke="midnightblue" points="1422.19,-296.35 1412.21,-299.91 1422.23,-303.35 1422.19,-296.35"/>
</g>
<!-- Node3 -->
<g id="node3" class="node">
<title>Node3</title>
<g id="a_node3"><a xlink:href="_a_b_l_8_h.html" target="_top" xlink:title=" ">
<polygon fill="white" stroke="black" points="517.5,-179.5 517.5,-198.5 563.5,-198.5 563.5,-179.5 517.5,-179.5"/>
<text text-anchor="middle" x="540.5" y="-186.5" font-family="Helvetica,sans-Serif" font-size="10.00">ABL.H</text>
</a>
</g>
</g>
<!-- Node2&#45;&gt;Node3 -->
<g id="edge2" class="edge">
<title>Node2&#45;&gt;Node3</title>
<path fill="none" stroke="midnightblue" d="M340.9,-233.29C394.34,-221.7 477.26,-203.72 517.3,-195.03"/>
<polygon fill="midnightblue" stroke="midnightblue" points="339.99,-229.9 330.95,-235.44 341.47,-236.74 339.99,-229.9"/>
</g>
<!-- Node9 -->
<g id="node9" class="node">
<title>Node9</title>
<g id="a_node9"><a xlink:href="_a_b_l_8cpp.html" target="_top" xlink:title=" ">
<polygon fill="white" stroke="black" points="263.5,-118 263.5,-137 319.5,-137 319.5,-118 263.5,-118"/>
<text text-anchor="middle" x="291.5" y="-125" font-family="Helvetica,sans-Serif" font-size="10.00">ABL.cpp</text>
</a>
</g>
</g>
<!-- Node2&#45;&gt;Node9 -->
<g id="edge10" class="edge">
<title>Node2&#45;&gt;Node9</title>
<path fill="none" stroke="midnightblue" d="M291.5,-225.16C291.5,-199.87 291.5,-155.94 291.5,-137.28"/>
<polygon fill="midnightblue" stroke="midnightblue" points="288,-225.32 291.5,-235.32 295,-225.32 288,-225.32"/>
</g>
<!-- Node2&#45;&gt;Node11 -->
<g id="edge11" class="edge">
<title>Node2&#45;&gt;Node11</title>
<path fill="none" stroke="midnightblue" d="M234.8,-233.11C205.93,-226.05 171.02,-215.11 142.5,-199 112.62,-182.12 84.56,-152.01 71.76,-137.21"/>
<polygon fill="midnightblue" stroke="midnightblue" points="234.2,-236.56 244.73,-235.44 235.8,-229.75 234.2,-236.56"/>
</g>
<!-- Node12 -->
<g id="node12" class="node">
<title>Node12</title>
<g id="a_node12"><a xlink:href="_a_b_l_fill_inflow_8_h.html" target="_top" xlink:title=" ">
<polygon fill="white" stroke="black" points="152,-179.5 152,-198.5 241,-198.5 241,-179.5 152,-179.5"/>
<text text-anchor="middle" x="196.5" y="-186.5" font-family="Helvetica,sans-Serif" font-size="10.00">ABLFillInflow.H</text>
</a>
</g>
</g>
<!-- Node2&#45;&gt;Node12 -->
<g id="edge12" class="edge">
<title>Node2&#45;&gt;Node12</title>
<path fill="none" stroke="midnightblue" d="M267.18,-230.18C249.7,-220.24 226.67,-207.15 211.73,-198.65"/>
<polygon fill="midnightblue" stroke="midnightblue" points="265.81,-233.43 276.24,-235.32 269.27,-227.34 265.81,-233.43"/>
</g>
<!-- Node4 -->
<g id="node4" class="node">
<title>Node4</title>
<g id="a_node4"><a xlink:href="_a_b_l_forcing_8cpp.html" target="_top" xlink:title=" ">
<polygon fill="white" stroke="black" points="669,-118 669,-137 760,-137 760,-118 669,-118"/>
<text text-anchor="middle" x="714.5" y="-125" font-family="Helvetica,sans-Serif" font-size="10.00">ABLForcing.cpp</text>
</a>
</g>
</g>
<!-- Node3&#45;&gt;Node4 -->
<g id="edge3" class="edge">
<title>Node3&#45;&gt;Node4</title>
<path fill="none" stroke="midnightblue" d="M573.48,-176.72C607.28,-165.16 659.09,-147.45 689.61,-137.01"/>
<polygon fill="midnightblue" stroke="midnightblue" points="571.94,-173.55 563.61,-180.1 574.2,-180.17 571.94,-173.55"/>
</g>
<!-- Node5 -->
<g id="node5" class="node">
<title>Node5</title>
<g id="a_node5"><a xlink:href="_a_b_l_mean_boussinesq_8cpp.html" target="_top" xlink:title=" ">
<polygon fill="white" stroke="black" points="778.5,-118 778.5,-137 916.5,-137 916.5,-118 778.5,-118"/>
<text text-anchor="middle" x="847.5" y="-125" font-family="Helvetica,sans-Serif" font-size="10.00">ABLMeanBoussinesq.cpp</text>
</a>
</g>
</g>
<!-- Node3&#45;&gt;Node5 -->
<g id="edge4" class="edge">
<title>Node3&#45;&gt;Node5</title>
<path fill="none" stroke="midnightblue" d="M573.6,-181.59C629.22,-170.81 741.44,-149.06 803.58,-137.01"/>
<polygon fill="midnightblue" stroke="midnightblue" points="572.73,-178.19 563.57,-183.53 574.06,-185.06 572.73,-178.19"/>
</g>
<!-- Node6 -->
<g id="node6" class="node">
<title>Node6</title>
<g id="a_node6"><a xlink:href="incflo_8cpp.html" target="_top" xlink:title=" ">
<polygon fill="white" stroke="black" points="935,-118 935,-137 998,-137 998,-118 935,-118"/>
<text text-anchor="middle" x="966.5" y="-125" font-family="Helvetica,sans-Serif" font-size="10.00">incflo.cpp</text>
</a>
</g>
</g>
<!-- Node3&#45;&gt;Node6 -->
<g id="edge5" class="edge">
<title>Node3&#45;&gt;Node6</title>
<path fill="none" stroke="midnightblue" d="M573.82,-186.61C641.1,-183.26 797.63,-172.69 925.5,-143 931.97,-141.5 938.84,-139.31 945.07,-137.1"/>
<polygon fill="midnightblue" stroke="midnightblue" points="573.63,-183.12 563.81,-187.09 573.96,-190.11 573.63,-183.12"/>
</g>
<!-- Node7 -->
<g id="node7" class="node">
<title>Node7</title>
<g id="a_node7"><a xlink:href="incflo__apply__nodal__projection_8cpp.html" target="_top" xlink:title=" ">
<polygon fill="white" stroke="black" points="338,-112.5 338,-142.5 445,-142.5 445,-112.5 338,-112.5"/>
<text text-anchor="start" x="346" y="-130.5" font-family="Helvetica,sans-Serif" font-size="10.00">incflo_apply_nodal</text>
<text text-anchor="middle" x="391.5" y="-119.5" font-family="Helvetica,sans-Serif" font-size="10.00">_projection.cpp</text>
</a>
</g>
</g>
<!-- Node3&#45;&gt;Node7 -->
<g id="edge6" class="edge">
<title>Node3&#45;&gt;Node7</title>
<path fill="none" stroke="midnightblue" d="M509.75,-175.72C485.56,-166.06 451.86,-152.6 426.62,-142.52"/>
<polygon fill="midnightblue" stroke="midnightblue" points="508.57,-179.02 519.15,-179.48 511.16,-172.52 508.57,-179.02"/>
</g>
<!-- Node8 -->
<g id="node8" class="node">
<title>Node8</title>
<g id="a_node8"><a xlink:href="init_8cpp.html" target="_top" xlink:title=" ">
<polygon fill="white" stroke="black" points="463,-118 463,-137 516,-137 516,-118 463,-118"/>
<text text-anchor="middle" x="489.5" y="-125" font-family="Helvetica,sans-Serif" font-size="10.00">init.cpp</text>
</a>
</g>
</g>
<!-- Node3&#45;&gt;Node8 -->
<g id="edge7" class="edge">
<title>Node3&#45;&gt;Node8</title>
<path fill="none" stroke="midnightblue" d="M526.5,-171.67C516.89,-160.45 504.51,-146.02 496.79,-137.01"/>
<polygon fill="midnightblue" stroke="midnightblue" points="524.03,-174.16 533.19,-179.48 529.34,-169.6 524.03,-174.16"/>
</g>
<!-- Node3&#45;&gt;Node9 -->
<g id="edge8" class="edge">
<title>Node3&#45;&gt;Node9</title>
<path fill="none" stroke="midnightblue" d="M507.31,-182.7C465.22,-175.58 390.63,-161.63 328.5,-143 322.95,-141.34 317.06,-139.2 311.65,-137.09"/>
<polygon fill="midnightblue" stroke="midnightblue" points="506.85,-186.17 517.29,-184.36 508,-179.26 506.85,-186.17"/>
</g>
<!-- Node10 -->
<g id="node10" class="node">
<title>Node10</title>
<g id="a_node10"><a xlink:href="_a_b_l_wall_function_8cpp.html" target="_top" xlink:title=" ">
<polygon fill="white" stroke="black" points="534,-118 534,-137 651,-137 651,-118 534,-118"/>
<text text-anchor="middle" x="592.5" y="-125" font-family="Helvetica,sans-Serif" font-size="10.00">ABLWallFunction.cpp</text>
</a>
</g>
</g>
<!-- Node3&#45;&gt;Node10 -->
<g id="edge9" class="edge">
<title>Node3&#45;&gt;Node10</title>
<path fill="none" stroke="midnightblue" d="M554.77,-171.67C564.58,-160.45 577.19,-146.02 585.06,-137.01"/>
<polygon fill="midnightblue" stroke="midnightblue" points="551.9,-169.64 547.95,-179.48 557.17,-174.25 551.9,-169.64"/>
</g>
<!-- Node12&#45;&gt;Node11 -->
<g id="edge13" class="edge">
<title>Node12&#45;&gt;Node11</title>
<path fill="none" stroke="midnightblue" d="M168.39,-175.33C142.76,-163.78 105.61,-147.03 83.38,-137.01"/>
<polygon fill="midnightblue" stroke="midnightblue" points="167.03,-178.56 177.59,-179.48 169.91,-172.17 167.03,-178.56"/>
</g>
<!-- Node13 -->
<g id="node13" class="node">
<title>Node13</title>
<g id="a_node13"><a xlink:href="_a_b_l_fill_inflow_8cpp.html" target="_top" xlink:title=" ">
<polygon fill="white" stroke="black" points="147.5,-118 147.5,-137 245.5,-137 245.5,-118 147.5,-118"/>
<text text-anchor="middle" x="196.5" y="-125" font-family="Helvetica,sans-Serif" font-size="10.00">ABLFillInflow.cpp</text>
</a>
</g>
</g>
<!-- Node12&#45;&gt;Node13 -->
<g id="edge14" class="edge">
<title>Node12&#45;&gt;Node13</title>
<path fill="none" stroke="midnightblue" d="M196.5,-169.32C196.5,-158.5 196.5,-145.4 196.5,-137.01"/>
<polygon fill="midnightblue" stroke="midnightblue" points="193,-169.48 196.5,-179.48 200,-169.48 193,-169.48"/>
</g>
<!-- Node19 -->
<g id="node19" class="node">
<title>Node19</title>
<g id="a_node19"><a xlink:href="_line_sampler_8_h.html" target="_top" xlink:title=" ">
<polygon fill="white" stroke="black" points="1485,-179.5 1485,-198.5 1572,-198.5 1572,-179.5 1485,-179.5"/>
<text text-anchor="middle" x="1528.5" y="-186.5" font-family="Helvetica,sans-Serif" font-size="10.00">LineSampler.H</text>
</a>
</g>
</g>
<!-- Node18&#45;&gt;Node19 -->
<g id="edge20" class="edge">
<title>Node18&#45;&gt;Node19</title>
<path fill="none" stroke="midnightblue" d="M1280.56,-234.04C1339.52,-223.57 1431.06,-207.31 1484.86,-197.75"/>
<polygon fill="midnightblue" stroke="midnightblue" points="1279.9,-230.6 1270.67,-235.8 1281.13,-237.5 1279.9,-230.6"/>
</g>
<!-- Node25 -->
<g id="node25" class="node">
<title>Node25</title>
<g id="a_node25"><a xlink:href="_plane_sampler_8_h.html" target="_top" xlink:title=" ">
<polygon fill="white" stroke="black" points="1112.5,-179.5 1112.5,-198.5 1206.5,-198.5 1206.5,-179.5 1112.5,-179.5"/>
<text text-anchor="middle" x="1159.5" y="-186.5" font-family="Helvetica,sans-Serif" font-size="10.00">PlaneSampler.H</text>
</a>
</g>
</g>
<!-- Node18&#45;&gt;Node25 -->
<g id="edge26" class="edge">
<title>Node18&#45;&gt;Node25</title>
<path fill="none" stroke="midnightblue" d="M1206.23,-228.82C1194.58,-219.15 1179.9,-206.95 1170.13,-198.83"/>
<polygon fill="midnightblue" stroke="midnightblue" points="1204.13,-231.63 1214.06,-235.32 1208.6,-226.24 1204.13,-231.63"/>
</g>
<!-- Node27 -->
<g id="node27" class="node">
<title>Node27</title>
<g id="a_node27"><a xlink:href="_probe_sampler_8_h.html" target="_top" xlink:title=" ">
<polygon fill="white" stroke="black" points="1372,-179.5 1372,-198.5 1467,-198.5 1467,-179.5 1372,-179.5"/>
<text text-anchor="middle" x="1419.5" y="-186.5" font-family="Helvetica,sans-Serif" font-size="10.00">ProbeSampler.H</text>
</a>
</g>
</g>
<!-- Node18&#45;&gt;Node27 -->
<g id="edge28" class="edge">
<title>Node18&#45;&gt;Node27</title>
<path fill="none" stroke="midnightblue" d="M1265.31,-232.7C1302.11,-222.51 1355.43,-207.74 1388.75,-198.52"/>
<polygon fill="midnightblue" stroke="midnightblue" points="1264.1,-229.4 1255.4,-235.44 1265.97,-236.15 1264.1,-229.4"/>
</g>
<!-- Node29 -->
<g id="node29" class="node">
<title>Node29</title>
<g id="a_node29"><a xlink:href="_sampling_8_h.html" target="_top" xlink:title=" ">
<polygon fill="white" stroke="black" points="1021,-179.5 1021,-198.5 1094,-198.5 1094,-179.5 1021,-179.5"/>
<text text-anchor="middle" x="1057.5" y="-186.5" font-family="Helvetica,sans-Serif" font-size="10.00">Sampling.H</text>
</a>
</g>
</g>
<!-- Node18&#45;&gt;Node29 -->
<g id="edge30" class="edge">
<title>Node18&#45;&gt;Node29</title>
<path fill="none" stroke="midnightblue" d="M1188.33,-232.3C1156.86,-222.13 1112.01,-207.62 1083.84,-198.52"/>
<polygon fill="midnightblue" stroke="midnightblue" points="1187.45,-235.7 1198.04,-235.44 1189.6,-229.04 1187.45,-235.7"/>
</g>
<!-- Node31 -->
<g id="node31" class="node">
<title>Node31</title>
<g id="a_node31"><a xlink:href="_sampling_container_8cpp.html" target="_top" xlink:title=" ">
<polygon fill="white" stroke="black" points="1225,-179.5 1225,-198.5 1354,-198.5 1354,-179.5 1225,-179.5"/>
<text text-anchor="middle" x="1289.5" y="-186.5" font-family="Helvetica,sans-Serif" font-size="10.00">SamplingContainer.cpp</text>
</a>
</g>
</g>
<!-- Node18&#45;&gt;Node31 -->
<g id="edge32" class="edge">
<title>Node18&#45;&gt;Node31</title>
<path fill="none" stroke="midnightblue" d="M1242.77,-228.82C1254.42,-219.15 1269.1,-206.95 1278.87,-198.83"/>
<polygon fill="midnightblue" stroke="midnightblue" points="1240.4,-226.24 1234.94,-235.32 1244.87,-231.63 1240.4,-226.24"/>
</g>
<!-- Node32 -->
<g id="node32" class="node">
<title>Node32</title>
<g id="a_node32"><a xlink:href="_a_b_l_stats_8_h.html" target="_top" xlink:title=" ">
<polygon fill="white" stroke="black" points="1590,-179.5 1590,-198.5 1661,-198.5 1661,-179.5 1590,-179.5"/>
<text text-anchor="middle" x="1625.5" y="-186.5" font-family="Helvetica,sans-Serif" font-size="10.00">ABLStats.H</text>
</a>
</g>
</g>
<!-- Node18&#45;&gt;Node32 -->
<g id="edge33" class="edge">
<title>Node18&#45;&gt;Node32</title>
<path fill="none" stroke="midnightblue" d="M1280.67,-235.52C1281.96,-235.35 1283.24,-235.17 1284.5,-235 1416.26,-217.14 1450.26,-220.34 1581.5,-199 1584.12,-198.57 1586.81,-198.1 1589.53,-197.61"/>
<polygon fill="midnightblue" stroke="midnightblue" points="1280.08,-232.07 1270.67,-236.94 1281.06,-239 1280.08,-232.07"/>
</g>
<!-- Node20 -->
<g id="node20" class="node">
<title>Node20</title>
<g id="a_node20"><a xlink:href="_lidar_sampler_8_h.html" target="_top" xlink:title=" ">
<polygon fill="white" stroke="black" points="1540,-118 1540,-137 1631,-137 1631,-118 1540,-118"/>
<text text-anchor="middle" x="1585.5" y="-125" font-family="Helvetica,sans-Serif" font-size="10.00">LidarSampler.H</text>
</a>
</g>
</g>
<!-- Node19&#45;&gt;Node20 -->
<g id="edge21" class="edge">
<title>Node19&#45;&gt;Node20</title>
<path fill="none" stroke="midnightblue" d="M1543.83,-172C1554.62,-160.74 1568.64,-146.1 1577.35,-137.01"/>
<polygon fill="midnightblue" stroke="midnightblue" points="1541.06,-169.83 1536.67,-179.48 1546.11,-174.68 1541.06,-169.83"/>
</g>
<!-- Node24 -->
<g id="node24" class="node">
<title>Node24</title>
<g id="a_node24"><a xlink:href="_line_sampler_8cpp.html" target="_top" xlink:title=" ">
<polygon fill="white" stroke="black" points="1425,-118 1425,-137 1522,-137 1522,-118 1425,-118"/>
<text text-anchor="middle" x="1473.5" y="-125" font-family="Helvetica,sans-Serif" font-size="10.00">LineSampler.cpp</text>
</a>
</g>
</g>
<!-- Node19&#45;&gt;Node24 -->
<g id="edge25" class="edge">
<title>Node19&#45;&gt;Node24</title>
<path fill="none" stroke="midnightblue" d="M1513.71,-172C1503.3,-160.74 1489.77,-146.1 1481.37,-137.01"/>
<polygon fill="midnightblue" stroke="midnightblue" points="1511.26,-174.51 1520.62,-179.48 1516.4,-169.76 1511.26,-174.51"/>
</g>
<!-- Node21 -->
<g id="node21" class="node">
<title>Node21</title>
<g id="a_node21"><a xlink:href="_d_t_u_spinner_sampler_8_h.html" target="_top" xlink:title=" ">
<polygon fill="white" stroke="black" points="1457,-56.5 1457,-75.5 1582,-75.5 1582,-56.5 1457,-56.5"/>
<text text-anchor="middle" x="1519.5" y="-63.5" font-family="Helvetica,sans-Serif" font-size="10.00">DTUSpinnerSampler.H</text>
</a>
</g>
</g>
<!-- Node20&#45;&gt;Node21 -->
<g id="edge22" class="edge">
<title>Node20&#45;&gt;Node21</title>
<path fill="none" stroke="midnightblue" d="M1568.47,-111.15C1555.89,-99.81 1539.22,-84.78 1528.94,-75.51"/>
<polygon fill="midnightblue" stroke="midnightblue" points="1566.27,-113.88 1576.04,-117.98 1570.96,-108.68 1566.27,-113.88"/>
</g>
<!-- Node23 -->
<g id="node23" class="node">
<title>Node23</title>
<g id="a_node23"><a xlink:href="_lidar_sampler_8cpp.html" target="_top" xlink:title=" ">
<polygon fill="white" stroke="black" points="1600,-56.5 1600,-75.5 1701,-75.5 1701,-56.5 1600,-56.5"/>
<text text-anchor="middle" x="1650.5" y="-63.5" font-family="Helvetica,sans-Serif" font-size="10.00">LidarSampler.cpp</text>
</a>
</g>
</g>
<!-- Node20&#45;&gt;Node23 -->
<g id="edge24" class="edge">
<title>Node20&#45;&gt;Node23</title>
<path fill="none" stroke="midnightblue" d="M1602.27,-111.15C1614.66,-99.81 1631.08,-84.78 1641.2,-75.51"/>
<polygon fill="midnightblue" stroke="midnightblue" points="1599.83,-108.64 1594.81,-117.98 1604.55,-113.8 1599.83,-108.64"/>
</g>
<!-- Node22 -->
<g id="node22" class="node">
<title>Node22</title>
<g id="a_node22"><a xlink:href="_d_t_u_spinner_sampler_8cpp.html" target="_top" xlink:title=" ">
<polygon fill="white" stroke="black" points="1452.5,-0.5 1452.5,-19.5 1586.5,-19.5 1586.5,-0.5 1452.5,-0.5"/>
<text text-anchor="middle" x="1519.5" y="-7.5" font-family="Helvetica,sans-Serif" font-size="10.00">DTUSpinnerSampler.cpp</text>
</a>
</g>
</g>
<!-- Node21&#45;&gt;Node22 -->
<g id="edge23" class="edge">
<title>Node21&#45;&gt;Node22</title>
<path fill="none" stroke="midnightblue" d="M1519.5,-45.8C1519.5,-36.91 1519.5,-26.78 1519.5,-19.75"/>
<polygon fill="midnightblue" stroke="midnightblue" points="1516,-46.08 1519.5,-56.08 1523,-46.08 1516,-46.08"/>
</g>
<!-- Node26 -->
<g id="node26" class="node">
<title>Node26</title>
<g id="a_node26"><a xlink:href="_plane_sampler_8cpp.html" target="_top" xlink:title=" ">
<polygon fill="white" stroke="black" points="1117.5,-118 1117.5,-137 1221.5,-137 1221.5,-118 1117.5,-118"/>
<text text-anchor="middle" x="1169.5" y="-125" font-family="Helvetica,sans-Serif" font-size="10.00">PlaneSampler.cpp</text>
</a>
</g>
</g>
<!-- Node25&#45;&gt;Node26 -->
<g id="edge27" class="edge">
<title>Node25&#45;&gt;Node26</title>
<path fill="none" stroke="midnightblue" d="M1162.64,-169.32C1164.46,-158.5 1166.66,-145.4 1168.07,-137.01"/>
<polygon fill="midnightblue" stroke="midnightblue" points="1159.14,-169.03 1160.93,-179.48 1166.04,-170.19 1159.14,-169.03"/>
</g>
<!-- Node28 -->
<g id="node28" class="node">
<title>Node28</title>
<g id="a_node28"><a xlink:href="_probe_sampler_8cpp.html" target="_top" xlink:title=" ">
<polygon fill="white" stroke="black" points="1302.5,-118 1302.5,-137 1406.5,-137 1406.5,-118 1302.5,-118"/>
<text text-anchor="middle" x="1354.5" y="-125" font-family="Helvetica,sans-Serif" font-size="10.00">ProbeSampler.cpp</text>
</a>
</g>
</g>
<!-- Node27&#45;&gt;Node28 -->
<g id="edge29" class="edge">
<title>Node27&#45;&gt;Node28</title>
<path fill="none" stroke="midnightblue" d="M1402.73,-172.65C1390.34,-161.31 1373.92,-146.28 1363.8,-137.01"/>
<polygon fill="midnightblue" stroke="midnightblue" points="1400.45,-175.3 1410.19,-179.48 1405.17,-170.14 1400.45,-175.3"/>
</g>
<!-- Node29&#45;&gt;Node30 -->
<g id="edge31" class="edge">
<title>Node29&#45;&gt;Node30</title>
<path fill="none" stroke="midnightblue" d="M1057.5,-169.32C1057.5,-158.5 1057.5,-145.4 1057.5,-137.01"/>
<polygon fill="midnightblue" stroke="midnightblue" points="1054,-169.48 1057.5,-179.48 1061,-169.48 1054,-169.48"/>
</g>
<!-- Node32&#45;&gt;Node33 -->
<g id="edge34" class="edge">
<title>Node32&#45;&gt;Node33</title>
<path fill="none" stroke="midnightblue" d="M1642.01,-172.65C1654.21,-161.31 1670.37,-146.28 1680.35,-137.01"/>
<polygon fill="midnightblue" stroke="midnightblue" points="1639.61,-170.1 1634.67,-179.48 1644.38,-175.23 1639.61,-170.1"/>
</g>
</g>
</svg>
        <g id="navigator" transform="translate(0 0)" fill="#404254">
                <rect fill="#f2f5e9" fill-opacity="0.5" stroke="#606060" stroke-width=".5" x="0" y="0" width="60" height="60"/>
                <use id="zoomplus" xlink:href="#zoomPlus" x="17" y="9" onmousedown="handleZoom(evt,'in')"/>
                <use id="zoomminus" xlink:href="#zoomMin" x="42" y="9" onmousedown="handleZoom(evt,'out')"/>
                <use id="reset" xlink:href="#resetDef" x="30" y="36" onmousedown="handleReset()"/>
                <g id="arrowUp" xlink:href="#dirArrow" transform="translate(30 24)" onmousedown="handlePan(0,-1)">
                  <use xlink:href="#rim" fill="#404040">
                        <set attributeName="fill" to="#808080" begin="arrowUp.mouseover" end="arrowUp.mouseout"/>
                  </use>
                  <path fill="none" stroke="white" stroke-width="1.5" d="M0,-3.0v7 M-2.5,-0.5L0,-3.0L2.5,-0.5"/>
                </g>
                <g id="arrowRight" xlink:href="#dirArrow" transform="rotate(90) translate(36 -43)" onmousedown="handlePan(1,0)">
                  <use xlink:href="#rim" fill="#404040">
                        <set attributeName="fill" to="#808080" begin="arrowRight.mouseover" end="arrowRight.mouseout"/>
                  </use>
                  <path fill="none" stroke="white" stroke-width="1.5" d="M0,-3.0v7 M-2.5,-0.5L0,-3.0L2.5,-0.5"/>
                </g>
                <g id="arrowDown" xlink:href="#dirArrow" transform="rotate(180) translate(-30 -48)" onmousedown="handlePan(0,1)">
                  <use xlink:href="#rim" fill="#404040">
                        <set attributeName="fill" to="#808080" begin="arrowDown.mouseover" end="arrowDown.mouseout"/>
                  </use>
                  <path fill="none" stroke="white" stroke-width="1.5" d="M0,-3.0v7 M-2.5,-0.5L0,-3.0L2.5,-0.5"/>
                </g>
                <g id="arrowLeft" xlink:href="#dirArrow" transform="rotate(270) translate(-36 17)" onmousedown="handlePan(-1,0)">
                  <use xlink:href="#rim" fill="#404040">
                        <set attributeName="fill" to="#808080" begin="arrowLeft.mouseover" end="arrowLeft.mouseout"/>
                  </use>
                  <path fill="none" stroke="white" stroke-width="1.5" d="M0,-3.0v7 M-2.5,-0.5L0,-3.0L2.5,-0.5"/>
                </g>
        </g>
        <svg viewBox="0 0 15 15" width="100%" height="30px" preserveAspectRatio="xMaxYMin meet">
         <g id="arrow_out" transform="scale(0.3 0.3)">
          <a xlink:href="nc__interface_8_h__dep__incl_org.svg" target="_base">
           <rect id="button" ry="5" rx="5" y="6" x="6" height="38" width="38"
                fill="#f2f5e9" fill-opacity="0.5" stroke="#606060" stroke-width="1.0"/>
           <path id="arrow"
             d="M 11.500037,31.436501 C 11.940474,20.09759 22.043105,11.32322 32.158766,21.979434 L 37.068811,17.246167 C 37.068811,17.246167 37.088388,32 37.088388,32 L 22.160133,31.978069 C 22.160133,31.978069 26.997745,27.140456 26.997745,27.140456 C 18.528582,18.264221 13.291696,25.230495 11.500037,31.436501 z"
             style="fill:#404040;"/>
          </a>
         </g>
        </svg>
</svg>
