<?xml version="1.0" encoding="UTF-8" standalone="no"?>
<!DOCTYPE svg PUBLIC "-//W3C//DTD SVG 1.1//EN"
 "http://www.w3.org/Graphics/SVG/1.1/DTD/svg11.dtd">
<!-- Generated by graphviz version 2.43.0 (0)
 -->
<!-- Title: amr_wind::pde::DiffusionOp&lt; ICNS, Scheme &gt; Pages: 1 -->
<svg width="3175pt" height="583pt"
 viewBox="0.00 0.00 3175.00 582.96" xmlns="http://www.w3.org/2000/svg" xmlns:xlink="http://www.w3.org/1999/xlink">
<g id="graph0" class="graph" transform="scale(1 1) rotate(0) translate(4 578.96)">
<title>amr_wind::pde::DiffusionOp&lt; ICNS, Scheme &gt;</title>
<polygon fill="white" stroke="transparent" points="-4,4 -4,-578.96 3171,-578.96 3171,4 -4,4"/>
<!-- Node1 -->
<g id="node1" class="node">
<title>Node1</title>
<g id="a_node1"><a xlink:title="Specialization of diffusion operator for ICNS.">
<polygon fill="#bfbfbf" stroke="black" points="3029,-351.96 3029,-381.96 3167,-381.96 3167,-351.96 3029,-351.96"/>
<text text-anchor="start" x="3037" y="-369.96" font-family="Helvetica,sans-Serif" font-size="10.00">amr_wind::pde::Diffusion</text>
<text text-anchor="middle" x="3098" y="-358.96" font-family="Helvetica,sans-Serif" font-size="10.00">Op&lt; ICNS, Scheme &gt;</text>
</a>
</g>
</g>
<!-- Node2 -->
<g id="node2" class="node">
<title>Node2</title>
<g id="a_node2"><a xlink:title=" ">
<polygon fill="white" stroke="#bfbfbf" points="2754,-351.96 2754,-381.96 2926,-381.96 2926,-351.96 2754,-351.96"/>
<text text-anchor="start" x="2762" y="-369.96" font-family="Helvetica,sans-Serif" font-size="10.00">std::unique_ptr&lt; amr</text>
<text text-anchor="middle" x="2840" y="-358.96" font-family="Helvetica,sans-Serif" font-size="10.00">_wind::pde::ICNSDiffTensorOp &gt;</text>
</a>
</g>
</g>
<!-- Node2&#45;&gt;Node1 -->
<g id="edge1" class="edge">
<title>Node2&#45;&gt;Node1</title>
<path fill="none" stroke="#9a32cd" stroke-dasharray="5,2" d="M2936.52,-366.96C2967.14,-366.96 3000.42,-366.96 3028.69,-366.96"/>
<polygon fill="#9a32cd" stroke="#9a32cd" points="2936.24,-363.46 2926.24,-366.96 2936.24,-370.46 2936.24,-363.46"/>
<text text-anchor="middle" x="2977.5" y="-369.96" font-family="Helvetica,sans-Serif" font-size="10.00"> m_tensor_op</text>
</g>
<!-- Node3 -->
<g id="node3" class="node">
<title>Node3</title>
<g id="a_node3"><a xlink:href="classamr__wind_1_1pde_1_1_i_c_n_s_diff_tensor_op.html" target="_top" xlink:title=" ">
<polygon fill="white" stroke="black" points="2413,-352.46 2413,-371.46 2593,-371.46 2593,-352.46 2413,-352.46"/>
<text text-anchor="middle" x="2503" y="-359.46" font-family="Helvetica,sans-Serif" font-size="10.00">amr_wind::pde::ICNSDiffTensorOp</text>
</a>
</g>
</g>
<!-- Node3&#45;&gt;Node2 -->
<g id="edge2" class="edge">
<title>Node3&#45;&gt;Node2</title>
<path fill="none" stroke="#9a32cd" stroke-dasharray="5,2" d="M2603.41,-363.44C2651.29,-364.16 2708.11,-365 2753.96,-365.69"/>
<polygon fill="#9a32cd" stroke="#9a32cd" points="2603.38,-359.94 2593.33,-363.29 2603.28,-366.94 2603.38,-359.94"/>
<text text-anchor="middle" x="2673.5" y="-368.96" font-family="Helvetica,sans-Serif" font-size="10.00"> ptr</text>
</g>
<!-- Node4 -->
<g id="node4" class="node">
<title>Node4</title>
<g id="a_node4"><a xlink:href="classamr__wind_1_1pde_1_1_diff_solver_iface.html" target="_top" xlink:title=" ">
<polygon fill="white" stroke="black" points="2183.5,-273.96 2183.5,-303.96 2342.5,-303.96 2342.5,-273.96 2183.5,-273.96"/>
<text text-anchor="start" x="2191.5" y="-291.96" font-family="Helvetica,sans-Serif" font-size="10.00">amr_wind::pde::DiffSolver</text>
<text text-anchor="middle" x="2263" y="-280.96" font-family="Helvetica,sans-Serif" font-size="10.00">Iface&lt; amrex::MLTensorOp &gt;</text>
</a>
</g>
</g>
<!-- Node4&#45;&gt;Node3 -->
<g id="edge3" class="edge">
<title>Node4&#45;&gt;Node3</title>
<path fill="none" stroke="midnightblue" d="M2314.31,-307.42C2338.29,-315.95 2367.48,-325.94 2394,-333.96 2416.34,-340.71 2441.58,-347.31 2462.04,-352.4"/>
<polygon fill="midnightblue" stroke="midnightblue" points="2315.31,-304.06 2304.71,-303.98 2312.95,-310.65 2315.31,-304.06"/>
</g>
<!-- Node5 -->
<g id="node5" class="node">
<title>Node5</title>
<g id="a_node5"><a xlink:title=" ">
<polygon fill="white" stroke="#bfbfbf" points="572,-89.96 572,-119.96 704,-119.96 704,-89.96 572,-89.96"/>
<text text-anchor="start" x="580" y="-107.96" font-family="Helvetica,sans-Serif" font-size="10.00">std::unique_ptr&lt; amrex</text>
<text text-anchor="middle" x="638" y="-96.96" font-family="Helvetica,sans-Serif" font-size="10.00">::MLTensorOp &gt;</text>
</a>
</g>
</g>
<!-- Node5&#45;&gt;Node4 -->
<g id="edge4" class="edge">
<title>Node5&#45;&gt;Node4</title>
<path fill="none" stroke="#9a32cd" stroke-dasharray="5,2" d="M714.23,-97.84C899.37,-81.95 1391.41,-49.59 1795,-110.96 1949.84,-134.5 1988.36,-151.54 2132,-213.96 2171.43,-231.09 2214.04,-257.3 2239.35,-273.76"/>
<polygon fill="#9a32cd" stroke="#9a32cd" points="713.72,-94.37 704.06,-98.72 714.32,-101.35 713.72,-94.37"/>
<text text-anchor="middle" x="1355" y="-91.96" font-family="Helvetica,sans-Serif" font-size="10.00"> m_applier</text>
<text text-anchor="middle" x="1355" y="-80.96" font-family="Helvetica,sans-Serif" font-size="10.00">m_solver</text>
</g>
<!-- Node6 -->
<g id="node6" class="node">
<title>Node6</title>
<g id="a_node6"><a xlink:title="STL class.">
<polygon fill="white" stroke="#bfbfbf" points="90,-178.46 90,-197.46 208,-197.46 208,-178.46 90,-178.46"/>
<text text-anchor="middle" x="149" y="-185.46" font-family="Helvetica,sans-Serif" font-size="10.00">std::unique_ptr&lt; T &gt;</text>
</a>
</g>
</g>
<!-- Node6&#45;&gt;Node2 -->
<g id="edge35" class="edge">
<title>Node6&#45;&gt;Node2</title>
<path fill="none" stroke="orange" stroke-dasharray="5,2" d="M171.47,-204.24C186.35,-216.73 205.35,-235.3 216,-255.96 236.29,-295.32 203.99,-321.4 234,-353.96 309.41,-435.77 611.48,-453.11 722,-465.96 812.89,-476.53 835.5,-484.96 927,-484.96 927,-484.96 927,-484.96 1764.5,-484.96 1928.01,-484.96 1969.21,-483.31 2132,-467.96 2357.59,-446.68 2621.39,-404.31 2753.88,-381.81"/>
<polygon fill="orange" stroke="orange" points="173.25,-201.18 163.27,-197.62 168.85,-206.63 173.25,-201.18"/>
<text text-anchor="start" x="1420" y="-498.96" font-family="Helvetica,sans-Serif" font-size="10.00"> &lt; amr_wind::pde::ICNSDiff</text>
<text text-anchor="middle" x="1486.5" y="-487.96" font-family="Helvetica,sans-Serif" font-size="10.00">TensorOp &gt;</text>
</g>
<!-- Node6&#45;&gt;Node5 -->
<g id="edge5" class="edge">
<title>Node6&#45;&gt;Node5</title>
<path fill="none" stroke="orange" stroke-dasharray="5,2" d="M164.46,-170.85C179.78,-154.13 205.63,-129.68 234,-118.96 346.64,-76.4 489.84,-84.71 571.69,-94.75"/>
<polygon fill="orange" stroke="orange" points="161.83,-168.53 157.82,-178.34 167.07,-173.18 161.83,-168.53"/>
<text text-anchor="middle" x="300.5" y="-121.96" font-family="Helvetica,sans-Serif" font-size="10.00"> &lt; amrex::MLTensorOp &gt;</text>
</g>
<!-- Node11 -->
<g id="node11" class="node">
<title>Node11</title>
<g id="a_node11"><a xlink:title=" ">
<polygon fill="white" stroke="#bfbfbf" points="385,-323.96 385,-353.96 554,-353.96 554,-323.96 385,-323.96"/>
<text text-anchor="start" x="393" y="-341.96" font-family="Helvetica,sans-Serif" font-size="10.00">std::unique_ptr&lt; amr</text>
<text text-anchor="middle" x="469.5" y="-330.96" font-family="Helvetica,sans-Serif" font-size="10.00">_wind::FieldFillPatchOpsBase &gt;</text>
</a>
</g>
</g>
<!-- Node6&#45;&gt;Node11 -->
<g id="edge12" class="edge">
<title>Node6&#45;&gt;Node11</title>
<path fill="none" stroke="orange" stroke-dasharray="5,2" d="M179.15,-201.94C223.53,-223.21 310.74,-264.92 385,-299.96 401.79,-307.88 420.5,-316.63 435.96,-323.83"/>
<polygon fill="orange" stroke="orange" points="180.62,-198.77 170.09,-197.6 177.6,-205.08 180.62,-198.77"/>
<text text-anchor="start" x="234" y="-304.96" font-family="Helvetica,sans-Serif" font-size="10.00"> &lt; amr_wind::FieldFillPatch</text>
<text text-anchor="middle" x="300.5" y="-293.96" font-family="Helvetica,sans-Serif" font-size="10.00">OpsBase &gt;</text>
</g>
<!-- Node23 -->
<g id="node23" class="node">
<title>Node23</title>
<g id="a_node23"><a xlink:title=" ">
<polygon fill="white" stroke="#bfbfbf" points="1150,-212.46 1150,-231.46 1290,-231.46 1290,-212.46 1150,-212.46"/>
<text text-anchor="middle" x="1220" y="-219.46" font-family="Helvetica,sans-Serif" font-size="10.00">std::unique_ptr&lt; LinOp &gt;</text>
</a>
</g>
</g>
<!-- Node6&#45;&gt;Node23 -->
<g id="edge32" class="edge">
<title>Node6&#45;&gt;Node23</title>
<path fill="none" stroke="orange" stroke-dasharray="5,2" d="M202.04,-176.3C264.86,-163.26 373.85,-143.96 468.5,-143.96 468.5,-143.96 468.5,-143.96 929,-143.96 1019.85,-143.96 1046.25,-137.95 1132,-167.96 1161.36,-178.23 1191.24,-199.69 1207.2,-212.25"/>
<polygon fill="orange" stroke="orange" points="201.06,-172.93 191.99,-178.41 202.5,-179.78 201.06,-172.93"/>
<text text-anchor="middle" x="638" y="-146.96" font-family="Helvetica,sans-Serif" font-size="10.00"> &lt; LinOp &gt;</text>
</g>
<!-- Node24 -->
<g id="node24" class="node">
<title>Node24</title>
<g id="a_node24"><a xlink:title=" ">
<polygon fill="white" stroke="#bfbfbf" points="2178,-43.96 2178,-73.96 2348,-73.96 2348,-43.96 2178,-43.96"/>
<text text-anchor="start" x="2186" y="-61.96" font-family="Helvetica,sans-Serif" font-size="10.00">std::unique_ptr&lt; amr</text>
<text text-anchor="middle" x="2263" y="-50.96" font-family="Helvetica,sans-Serif" font-size="10.00">_wind::pde::ICNSDiffScalarOp &gt;</text>
</a>
</g>
</g>
<!-- Node6&#45;&gt;Node24 -->
<g id="edge43" class="edge">
<title>Node6&#45;&gt;Node24</title>
<path fill="none" stroke="orange" stroke-dasharray="5,2" d="M156.34,-168.31C167.17,-138.07 192.2,-80.51 234,-50.96 321.01,10.56 361.94,-0.96 468.5,-0.96 468.5,-0.96 468.5,-0.96 1903.5,-0.96 2011.16,-0.96 2134.69,-26.76 2205.03,-43.95"/>
<polygon fill="orange" stroke="orange" points="152.91,-167.52 152.99,-178.12 159.54,-169.79 152.91,-167.52"/>
<text text-anchor="start" x="1153.5" y="-14.96" font-family="Helvetica,sans-Serif" font-size="10.00"> &lt; amr_wind::pde::ICNSDiff</text>
<text text-anchor="middle" x="1220" y="-3.96" font-family="Helvetica,sans-Serif" font-size="10.00">ScalarOp &gt;</text>
</g>
<!-- Node26 -->
<g id="node26" class="node">
<title>Node26</title>
<g id="a_node26"><a xlink:title=" ">
<polygon fill="white" stroke="#bfbfbf" points="862,-36.96 862,-66.96 994,-66.96 994,-36.96 862,-36.96"/>
<text text-anchor="start" x="870" y="-54.96" font-family="Helvetica,sans-Serif" font-size="10.00">std::unique_ptr&lt; amrex</text>
<text text-anchor="middle" x="928" y="-43.96" font-family="Helvetica,sans-Serif" font-size="10.00">::MLABecLaplacian &gt;</text>
</a>
</g>
</g>
<!-- Node6&#45;&gt;Node26 -->
<g id="edge42" class="edge">
<title>Node6&#45;&gt;Node26</title>
<path fill="none" stroke="orange" stroke-dasharray="5,2" d="M159.52,-169.29C172.7,-145.59 198.92,-105.58 234,-86.96 341.47,-29.91 710.81,-41.1 861.85,-48.36"/>
<polygon fill="orange" stroke="orange" points="156.31,-167.86 154.68,-178.33 162.48,-171.17 156.31,-167.86"/>
<text text-anchor="middle" x="469.5" y="-55.96" font-family="Helvetica,sans-Serif" font-size="10.00"> &lt; amrex::MLABecLaplacian &gt;</text>
</g>
<!-- Node27 -->
<g id="node27" class="node">
<title>Node27</title>
<g id="a_node27"><a xlink:title=" ">
<polygon fill="white" stroke="#bfbfbf" points="2150,-508.96 2150,-538.96 2376,-538.96 2376,-508.96 2150,-508.96"/>
<text text-anchor="start" x="2158" y="-526.96" font-family="Helvetica,sans-Serif" font-size="10.00">std::unique_ptr&lt; amr</text>
<text text-anchor="middle" x="2263" y="-515.96" font-family="Helvetica,sans-Serif" font-size="10.00">_wind::pde::ICNSDiffScalarSegregatedOp &gt;</text>
</a>
</g>
</g>
<!-- Node6&#45;&gt;Node27 -->
<g id="edge49" class="edge">
<title>Node6&#45;&gt;Node27</title>
<path fill="none" stroke="orange" stroke-dasharray="5,2" d="M171.83,-203.86C186.99,-216.23 206.17,-234.81 216,-255.96 232.94,-292.41 207.14,-406.05 234,-435.96 246.82,-450.23 552.96,-504.55 572,-506.96 728.69,-526.81 769.06,-522.96 927,-522.96 927,-522.96 927,-522.96 1903.5,-522.96 1985.97,-522.96 2079.11,-523.23 2149.78,-523.48"/>
<polygon fill="orange" stroke="orange" points="173.94,-201.07 163.91,-197.65 169.62,-206.58 173.94,-201.07"/>
<text text-anchor="start" x="1153.5" y="-536.96" font-family="Helvetica,sans-Serif" font-size="10.00"> &lt; amr_wind::pde::ICNSDiff</text>
<text text-anchor="middle" x="1220" y="-525.96" font-family="Helvetica,sans-Serif" font-size="10.00">ScalarSegregatedOp &gt;</text>
</g>
<!-- Node7 -->
<g id="node7" class="node">
<title>Node7</title>
<g id="a_node7"><a xlink:title=" ">
<polygon fill="white" stroke="#bfbfbf" points="0,-470.46 0,-489.46 29,-489.46 29,-470.46 0,-470.46"/>
<text text-anchor="middle" x="14.5" y="-477.46" font-family="Helvetica,sans-Serif" font-size="10.00">T</text>
</a>
</g>
</g>
<!-- Node7&#45;&gt;Node6 -->
<g id="edge6" class="edge">
<title>Node7&#45;&gt;Node6</title>
<path fill="none" stroke="#9a32cd" stroke-dasharray="5,2" d="M18.08,-460.44C24.1,-419.94 41.73,-324.76 82,-255.96 96.13,-231.82 120.6,-209.75 135.44,-197.65"/>
<polygon fill="#9a32cd" stroke="#9a32cd" points="14.61,-459.96 16.68,-470.35 21.54,-460.94 14.61,-459.96"/>
<text text-anchor="middle" x="55.5" y="-334.96" font-family="Helvetica,sans-Serif" font-size="10.00"> ptr</text>
</g>
<!-- Node15 -->
<g id="node15" class="node">
<title>Node15</title>
<g id="a_node15"><a xlink:title="STL class.">
<polygon fill="white" stroke="#bfbfbf" points="241.5,-481.46 241.5,-500.46 359.5,-500.46 359.5,-481.46 241.5,-481.46"/>
<text text-anchor="middle" x="300.5" y="-488.46" font-family="Helvetica,sans-Serif" font-size="10.00">std::shared_ptr&lt; T &gt;</text>
</a>
</g>
</g>
<!-- Node7&#45;&gt;Node15 -->
<g id="edge16" class="edge">
<title>Node7&#45;&gt;Node15</title>
<path fill="none" stroke="#9a32cd" stroke-dasharray="5,2" d="M39.24,-480.88C83.32,-482.58 178.98,-486.29 241.24,-488.7"/>
<polygon fill="#9a32cd" stroke="#9a32cd" points="39.33,-477.38 29.2,-480.49 39.05,-484.37 39.33,-477.38"/>
<text text-anchor="middle" x="55.5" y="-483.96" font-family="Helvetica,sans-Serif" font-size="10.00"> ptr</text>
</g>
<!-- Node18 -->
<g id="node18" class="node">
<title>Node18</title>
<g id="a_node18"><a xlink:title="STL class.">
<polygon fill="white" stroke="#bfbfbf" points="412.5,-526.96 412.5,-556.96 526.5,-556.96 526.5,-526.96 412.5,-526.96"/>
<text text-anchor="start" x="420.5" y="-544.96" font-family="Helvetica,sans-Serif" font-size="10.00">std::unordered_map</text>
<text text-anchor="middle" x="469.5" y="-533.96" font-family="Helvetica,sans-Serif" font-size="10.00">&lt; K, T &gt;</text>
</a>
</g>
</g>
<!-- Node7&#45;&gt;Node18 -->
<g id="edge23" class="edge">
<title>Node7&#45;&gt;Node18</title>
<path fill="none" stroke="#9a32cd" stroke-dasharray="5,2" d="M38.37,-492.76C41.22,-494 44.13,-495.1 47,-495.96 173.82,-533.71 330.35,-541.13 412.35,-542.19"/>
<polygon fill="#9a32cd" stroke="#9a32cd" points="39.68,-489.5 29.16,-488.26 36.61,-495.79 39.68,-489.5"/>
<text text-anchor="middle" x="149" y="-530.96" font-family="Helvetica,sans-Serif" font-size="10.00"> elements</text>
</g>
<!-- Node8 -->
<g id="node8" class="node">
<title>Node8</title>
<g id="a_node8"><a xlink:href="classamr__wind_1_1_field.html" target="_top" xlink:title="Computational field.">
<polygon fill="white" stroke="black" points="1308,-320.46 1308,-339.46 1402,-339.46 1402,-320.46 1308,-320.46"/>
<text text-anchor="middle" x="1355" y="-327.46" font-family="Helvetica,sans-Serif" font-size="10.00">amr_wind::Field</text>
</a>
</g>
</g>
<!-- Node8&#45;&gt;Node4 -->
<g id="edge7" class="edge">
<title>Node8&#45;&gt;Node4</title>
<path fill="none" stroke="#9a32cd" stroke-dasharray="5,2" d="M1412.7,-325.78C1486.28,-320.48 1618.66,-311.39 1732,-305.96 1754.07,-304.9 2041.16,-295.87 2183.33,-291.42"/>
<polygon fill="#9a32cd" stroke="#9a32cd" points="1412,-322.32 1402.28,-326.53 1412.51,-329.3 1412,-322.32"/>
<text text-anchor="middle" x="1763.5" y="-308.96" font-family="Helvetica,sans-Serif" font-size="10.00"> m_density</text>
</g>
<!-- Node21 -->
<g id="node21" class="node">
<title>Node21</title>
<g id="a_node21"><a xlink:href="structamr__wind_1_1pde_1_1_p_d_e_fields.html" target="_top" xlink:title="Collection of fields related to a PDE.">
<polygon fill="white" stroke="black" points="1571,-378.46 1571,-397.46 1714,-397.46 1714,-378.46 1571,-378.46"/>
<text text-anchor="middle" x="1642.5" y="-385.46" font-family="Helvetica,sans-Serif" font-size="10.00">amr_wind::pde::PDEFields</text>
</a>
</g>
</g>
<!-- Node8&#45;&gt;Node21 -->
<g id="edge27" class="edge">
<title>Node8&#45;&gt;Node21</title>
<path fill="none" stroke="#9a32cd" stroke-dasharray="5,2" d="M1412.23,-329.66C1452.13,-330.69 1506.61,-334.62 1553,-346.96 1579.51,-354.01 1607.91,-368.55 1625.19,-378.29"/>
<polygon fill="#9a32cd" stroke="#9a32cd" points="1412.22,-326.16 1402.15,-329.45 1412.08,-333.16 1412.22,-326.16"/>
<text text-anchor="middle" x="1486.5" y="-393.96" font-family="Helvetica,sans-Serif" font-size="10.00"> src_term</text>
<text text-anchor="middle" x="1486.5" y="-382.96" font-family="Helvetica,sans-Serif" font-size="10.00">field</text>
<text text-anchor="middle" x="1486.5" y="-371.96" font-family="Helvetica,sans-Serif" font-size="10.00">diff_term</text>
<text text-anchor="middle" x="1486.5" y="-360.96" font-family="Helvetica,sans-Serif" font-size="10.00">mueff</text>
<text text-anchor="middle" x="1486.5" y="-349.96" font-family="Helvetica,sans-Serif" font-size="10.00">conv_term</text>
</g>
<!-- Node22 -->
<g id="node22" class="node">
<title>Node22</title>
<g id="a_node22"><a xlink:href="classamr__wind_1_1pde_1_1_diff_solver_iface.html" target="_top" xlink:title="Base class for all diffusion operators.">
<polygon fill="white" stroke="black" points="1831,-247.96 1831,-277.96 1974,-277.96 1974,-247.96 1831,-247.96"/>
<text text-anchor="start" x="1839" y="-265.96" font-family="Helvetica,sans-Serif" font-size="10.00">amr_wind::pde::DiffSolver</text>
<text text-anchor="middle" x="1902.5" y="-254.96" font-family="Helvetica,sans-Serif" font-size="10.00">Iface&lt; LinOp &gt;</text>
</a>
</g>
</g>
<!-- Node8&#45;&gt;Node22 -->
<g id="edge30" class="edge">
<title>Node8&#45;&gt;Node22</title>
<path fill="none" stroke="#9a32cd" stroke-dasharray="5,2" d="M1380.43,-315.44C1392.02,-309.26 1406.31,-302.64 1420,-298.96 1495.48,-278.65 1716.53,-268.82 1830.99,-264.99"/>
<polygon fill="#9a32cd" stroke="#9a32cd" points="1378.44,-312.54 1371.4,-320.45 1381.84,-318.66 1378.44,-312.54"/>
<text text-anchor="middle" x="1642.5" y="-281.96" font-family="Helvetica,sans-Serif" font-size="10.00"> m_density</text>
</g>
<!-- Node25 -->
<g id="node25" class="node">
<title>Node25</title>
<g id="a_node25"><a xlink:href="classamr__wind_1_1pde_1_1_i_c_n_s_diff_scalar_op.html" target="_top" xlink:title=" ">
<polygon fill="white" stroke="black" points="1813,-49.46 1813,-68.46 1992,-68.46 1992,-49.46 1813,-49.46"/>
<text text-anchor="middle" x="1902.5" y="-56.46" font-family="Helvetica,sans-Serif" font-size="10.00">amr_wind::pde::ICNSDiffScalarOp</text>
</a>
</g>
</g>
<!-- Node8&#45;&gt;Node25 -->
<g id="edge38" class="edge">
<title>Node8&#45;&gt;Node25</title>
<path fill="none" stroke="#9a32cd" stroke-dasharray="5,2" d="M1361.15,-310.58C1369.28,-283.54 1387.61,-234.58 1420,-205.96 1531.34,-107.57 1707.14,-75.03 1812.69,-64.27"/>
<polygon fill="#9a32cd" stroke="#9a32cd" points="1357.72,-309.83 1358.36,-320.4 1364.46,-311.74 1357.72,-309.83"/>
<text text-anchor="middle" x="1642.5" y="-119.96" font-family="Helvetica,sans-Serif" font-size="10.00"> m_density</text>
</g>
<!-- Node28 -->
<g id="node28" class="node">
<title>Node28</title>
<g id="a_node28"><a xlink:href="classamr__wind_1_1pde_1_1_i_c_n_s_diff_scalar_segregated_op.html" target="_top" xlink:title=" ">
<polygon fill="white" stroke="black" points="1820,-425.96 1820,-455.96 1985,-455.96 1985,-425.96 1820,-425.96"/>
<text text-anchor="start" x="1828" y="-443.96" font-family="Helvetica,sans-Serif" font-size="10.00">amr_wind::pde::ICNSDiffScalar</text>
<text text-anchor="middle" x="1902.5" y="-432.96" font-family="Helvetica,sans-Serif" font-size="10.00">SegregatedOp</text>
</a>
</g>
</g>
<!-- Node8&#45;&gt;Node28 -->
<g id="edge46" class="edge">
<title>Node8&#45;&gt;Node28</title>
<path fill="none" stroke="#9a32cd" stroke-dasharray="5,2" d="M1366.07,-348.72C1376.84,-366.74 1395.7,-393.06 1420,-405.96 1487.18,-441.63 1701.13,-444.31 1819.97,-442.85"/>
<polygon fill="#9a32cd" stroke="#9a32cd" points="1368.93,-346.67 1360.94,-339.71 1362.85,-350.13 1368.93,-346.67"/>
<text text-anchor="middle" x="1642.5" y="-444.96" font-family="Helvetica,sans-Serif" font-size="10.00"> m_density</text>
</g>
<!-- Node9 -->
<g id="node9" class="node">
<title>Node9</title>
<g id="a_node9"><a xlink:title=" ">
<polygon fill="white" stroke="#bfbfbf" points="1012,-320.96 1012,-350.96 1132,-350.96 1132,-320.96 1012,-320.96"/>
<text text-anchor="start" x="1020" y="-338.96" font-family="Helvetica,sans-Serif" font-size="10.00">std::shared_ptr&lt; amr</text>
<text text-anchor="middle" x="1072" y="-327.96" font-family="Helvetica,sans-Serif" font-size="10.00">_wind::FieldInfo &gt;</text>
</a>
</g>
</g>
<!-- Node9&#45;&gt;Node8 -->
<g id="edge8" class="edge">
<title>Node9&#45;&gt;Node8</title>
<path fill="none" stroke="#9a32cd" stroke-dasharray="5,2" d="M1142.32,-334.48C1193.88,-333.38 1262.82,-331.9 1307.81,-330.94"/>
<polygon fill="#9a32cd" stroke="#9a32cd" points="1142.17,-330.98 1132.25,-334.69 1142.32,-337.98 1142.17,-330.98"/>
<text text-anchor="middle" x="1220" y="-337.96" font-family="Helvetica,sans-Serif" font-size="10.00"> m_info</text>
</g>
<!-- Node10 -->
<g id="node10" class="node">
<title>Node10</title>
<g id="a_node10"><a xlink:href="structamr__wind_1_1_field_info.html" target="_top" xlink:title="Information common to a field that has multiple states.">
<polygon fill="white" stroke="black" points="726.5,-326.46 726.5,-345.46 839.5,-345.46 839.5,-326.46 726.5,-326.46"/>
<text text-anchor="middle" x="783" y="-333.46" font-family="Helvetica,sans-Serif" font-size="10.00">amr_wind::FieldInfo</text>
</a>
</g>
</g>
<!-- Node10&#45;&gt;Node9 -->
<g id="edge9" class="edge">
<title>Node10&#45;&gt;Node9</title>
<path fill="none" stroke="#9a32cd" stroke-dasharray="5,2" d="M849.82,-335.96C898.63,-335.96 964.61,-335.96 1011.77,-335.96"/>
<polygon fill="#9a32cd" stroke="#9a32cd" points="849.68,-332.46 839.68,-335.96 849.68,-339.46 849.68,-332.46"/>
<text text-anchor="middle" x="928" y="-338.96" font-family="Helvetica,sans-Serif" font-size="10.00"> ptr</text>
</g>
<!-- Node11&#45;&gt;Node10 -->
<g id="edge10" class="edge">
<title>Node11&#45;&gt;Node10</title>
<path fill="none" stroke="#9a32cd" stroke-dasharray="5,2" d="M564.46,-338.05C617.35,-337.54 681.57,-336.92 726.48,-336.49"/>
<polygon fill="#9a32cd" stroke="#9a32cd" points="564.35,-334.55 554.39,-338.15 564.42,-341.55 564.35,-334.55"/>
<text text-anchor="middle" x="638" y="-340.96" font-family="Helvetica,sans-Serif" font-size="10.00"> m_fillpatch_op</text>
</g>
<!-- Node12 -->
<g id="node12" class="node">
<title>Node12</title>
<g id="a_node12"><a xlink:href="classamr__wind_1_1_field_fill_patch_ops_base.html" target="_top" xlink:title="Abstract interface for classes that handle fill patch and physical boundary condition operations for ...">
<polygon fill="white" stroke="black" points="82,-323.96 82,-353.96 216,-353.96 216,-323.96 82,-323.96"/>
<text text-anchor="start" x="90" y="-341.96" font-family="Helvetica,sans-Serif" font-size="10.00">amr_wind::FieldFillPatch</text>
<text text-anchor="middle" x="149" y="-330.96" font-family="Helvetica,sans-Serif" font-size="10.00">OpsBase</text>
</a>
</g>
</g>
<!-- Node12&#45;&gt;Node11 -->
<g id="edge11" class="edge">
<title>Node12&#45;&gt;Node11</title>
<path fill="none" stroke="#9a32cd" stroke-dasharray="5,2" d="M226.66,-338.96C274.42,-338.96 335.87,-338.96 384.88,-338.96"/>
<polygon fill="#9a32cd" stroke="#9a32cd" points="226.38,-335.46 216.38,-338.96 226.38,-342.46 226.38,-335.46"/>
<text text-anchor="middle" x="300.5" y="-341.96" font-family="Helvetica,sans-Serif" font-size="10.00"> ptr</text>
</g>
<!-- Node13 -->
<g id="node13" class="node">
<title>Node13</title>
<g id="a_node13"><a xlink:title="STL class.">
<polygon fill="white" stroke="#bfbfbf" points="437,-271.46 437,-290.46 502,-290.46 502,-271.46 437,-271.46"/>
<text text-anchor="middle" x="469.5" y="-278.46" font-family="Helvetica,sans-Serif" font-size="10.00">std::string</text>
</a>
</g>
</g>
<!-- Node13&#45;&gt;Node8 -->
<g id="edge17" class="edge">
<title>Node13&#45;&gt;Node8</title>
<path fill="none" stroke="#9a32cd" stroke-dasharray="5,2" d="M512.33,-282.27C616.89,-285.69 897.99,-295.64 1132,-310.96 1192.79,-314.94 1262.81,-321.21 1307.69,-325.45"/>
<polygon fill="#9a32cd" stroke="#9a32cd" points="512.3,-278.77 502.2,-281.94 512.08,-285.77 512.3,-278.77"/>
<text text-anchor="middle" x="928" y="-305.96" font-family="Helvetica,sans-Serif" font-size="10.00"> m_name</text>
</g>
<!-- Node13&#45;&gt;Node10 -->
<g id="edge13" class="edge">
<title>Node13&#45;&gt;Node10</title>
<path fill="none" stroke="#9a32cd" stroke-dasharray="5,2" d="M512.28,-288.24C559.01,-296.41 636.94,-310.05 704,-321.96 712.13,-323.4 720.73,-324.94 729.14,-326.44"/>
<polygon fill="#9a32cd" stroke="#9a32cd" points="512.68,-284.76 502.23,-286.49 511.48,-291.66 512.68,-284.76"/>
<text text-anchor="middle" x="638" y="-324.96" font-family="Helvetica,sans-Serif" font-size="10.00"> m_basename</text>
</g>
<!-- Node17 -->
<g id="node17" class="node">
<title>Node17</title>
<g id="a_node17"><a xlink:title=" ">
<polygon fill="white" stroke="#bfbfbf" points="722,-425.96 722,-455.96 844,-455.96 844,-425.96 722,-425.96"/>
<text text-anchor="start" x="730" y="-443.96" font-family="Helvetica,sans-Serif" font-size="10.00">std::unordered_map</text>
<text text-anchor="middle" x="783" y="-432.96" font-family="Helvetica,sans-Serif" font-size="10.00">&lt; std::string, size_t &gt;</text>
</a>
</g>
</g>
<!-- Node13&#45;&gt;Node17 -->
<g id="edge20" class="edge">
<title>Node13&#45;&gt;Node17</title>
<path fill="none" stroke="#9a32cd" stroke-dasharray="5,2" d="M512.17,-288.56C527.43,-293.38 543.51,-301.23 554,-313.96 581.87,-347.8 540.36,-380.6 572,-410.96 577.44,-416.18 661.84,-426.99 721.96,-434.11"/>
<polygon fill="#9a32cd" stroke="#9a32cd" points="512.9,-285.13 502.32,-285.8 511.01,-291.87 512.9,-285.13"/>
<text text-anchor="middle" x="638" y="-434.96" font-family="Helvetica,sans-Serif" font-size="10.00"> keys</text>
</g>
<!-- Node20 -->
<g id="node20" class="node">
<title>Node20</title>
<g id="a_node20"><a xlink:href="structamr__wind_1_1_m_l_m_g_options.html" target="_top" xlink:title="Interface to control the behavior of AMReX LinearSolvers.">
<polygon fill="white" stroke="black" points="1573,-179.46 1573,-198.46 1712,-198.46 1712,-179.46 1573,-179.46"/>
<text text-anchor="middle" x="1642.5" y="-186.46" font-family="Helvetica,sans-Serif" font-size="10.00">amr_wind::MLMGOptions</text>
</a>
</g>
</g>
<!-- Node13&#45;&gt;Node20 -->
<g id="edge25" class="edge">
<title>Node13&#45;&gt;Node20</title>
<path fill="none" stroke="#9a32cd" stroke-dasharray="5,2" d="M498.46,-266.95C552.04,-241.42 673.54,-189.96 782,-189.96 782,-189.96 782,-189.96 1356,-189.96 1430.1,-189.96 1515.02,-189.62 1572.85,-189.33"/>
<polygon fill="#9a32cd" stroke="#9a32cd" points="496.74,-263.89 489.26,-271.39 499.79,-270.19 496.74,-263.89"/>
<text text-anchor="middle" x="1072" y="-214.96" font-family="Helvetica,sans-Serif" font-size="10.00"> hypre_namespace</text>
<text text-anchor="middle" x="1072" y="-203.96" font-family="Helvetica,sans-Serif" font-size="10.00">bottom_solver_type</text>
<text text-anchor="middle" x="1072" y="-192.96" font-family="Helvetica,sans-Serif" font-size="10.00">hypre_interface</text>
</g>
<!-- Node14 -->
<g id="node14" class="node">
<title>Node14</title>
<g id="a_node14"><a xlink:title="STL class.">
<polygon fill="white" stroke="#bfbfbf" points="97,-265.96 97,-295.96 201,-295.96 201,-265.96 97,-265.96"/>
<text text-anchor="start" x="105" y="-283.96" font-family="Helvetica,sans-Serif" font-size="10.00">std::basic_string&lt;</text>
<text text-anchor="middle" x="149" y="-272.96" font-family="Helvetica,sans-Serif" font-size="10.00"> char &gt;</text>
</a>
</g>
</g>
<!-- Node14&#45;&gt;Node13 -->
<g id="edge14" class="edge">
<title>Node14&#45;&gt;Node13</title>
<path fill="none" stroke="midnightblue" d="M211.24,-280.96C278.64,-280.96 384.37,-280.96 436.81,-280.96"/>
<polygon fill="midnightblue" stroke="midnightblue" points="211.17,-277.46 201.17,-280.96 211.17,-284.46 211.17,-277.46"/>
</g>
<!-- Node15&#45;&gt;Node9 -->
<g id="edge15" class="edge">
<title>Node15&#45;&gt;Node9</title>
<path fill="none" stroke="orange" stroke-dasharray="5,2" d="M332.68,-477.52C382.33,-456.72 482.88,-417.03 572,-396.96 756.06,-355.51 807.47,-379.24 994,-350.96 999.79,-350.08 1005.81,-349.07 1011.81,-348.01"/>
<polygon fill="orange" stroke="orange" points="331.3,-474.3 323.45,-481.42 334.02,-480.75 331.3,-474.3"/>
<text text-anchor="middle" x="638" y="-399.96" font-family="Helvetica,sans-Serif" font-size="10.00"> &lt; amr_wind::FieldInfo &gt;</text>
</g>
<!-- Node16 -->
<g id="node16" class="node">
<title>Node16</title>
<g id="a_node16"><a xlink:href="classamr__wind_1_1_field_repo.html" target="_top" xlink:title="Field Repository.">
<polygon fill="white" stroke="black" points="1012.5,-406.46 1012.5,-425.46 1131.5,-425.46 1131.5,-406.46 1012.5,-406.46"/>
<text text-anchor="middle" x="1072" y="-413.46" font-family="Helvetica,sans-Serif" font-size="10.00">amr_wind::FieldRepo</text>
</a>
</g>
</g>
<!-- Node16&#45;&gt;Node8 -->
<g id="edge18" class="edge">
<title>Node16&#45;&gt;Node8</title>
<path fill="none" stroke="#9a32cd" stroke-dasharray="5,2" d="M1111.35,-403.26C1123.67,-399.25 1137.39,-394.85 1150,-390.96 1211.95,-371.83 1227.94,-368.74 1290,-349.96 1301.03,-346.62 1313.1,-342.87 1323.76,-339.53"/>
<polygon fill="#9a32cd" stroke="#9a32cd" points="1110.24,-399.94 1101.82,-406.38 1112.42,-406.6 1110.24,-399.94"/>
<text text-anchor="middle" x="1220" y="-393.96" font-family="Helvetica,sans-Serif" font-size="10.00"> m_repo</text>
</g>
<!-- Node16&#45;&gt;Node21 -->
<g id="edge28" class="edge">
<title>Node16&#45;&gt;Node21</title>
<path fill="none" stroke="#9a32cd" stroke-dasharray="5,2" d="M1141.68,-416.7C1235,-417.09 1406.98,-415.58 1553,-401.96 1564.46,-400.89 1576.69,-399.27 1588.29,-397.5"/>
<polygon fill="#9a32cd" stroke="#9a32cd" points="1141.54,-413.2 1131.52,-416.65 1141.5,-420.2 1141.54,-413.2"/>
<text text-anchor="middle" x="1355" y="-418.96" font-family="Helvetica,sans-Serif" font-size="10.00"> repo</text>
</g>
<!-- Node17&#45;&gt;Node16 -->
<g id="edge19" class="edge">
<title>Node17&#45;&gt;Node16</title>
<path fill="none" stroke="#9a32cd" stroke-dasharray="5,2" d="M854.28,-434.84C902.81,-430.61 966.6,-425.05 1012.39,-421.06"/>
<polygon fill="#9a32cd" stroke="#9a32cd" points="853.82,-431.36 844.16,-435.72 854.43,-438.34 853.82,-431.36"/>
<text text-anchor="middle" x="928" y="-446.96" font-family="Helvetica,sans-Serif" font-size="10.00"> m_fid_map</text>
<text text-anchor="middle" x="928" y="-435.96" font-family="Helvetica,sans-Serif" font-size="10.00">m_int_fid_map</text>
</g>
<!-- Node18&#45;&gt;Node17 -->
<g id="edge21" class="edge">
<title>Node18&#45;&gt;Node17</title>
<path fill="none" stroke="orange" stroke-dasharray="5,2" d="M526.46,-523.81C586.24,-504.43 679.91,-474.06 735.7,-455.97"/>
<polygon fill="orange" stroke="orange" points="525.23,-520.53 516.8,-526.95 527.39,-527.19 525.23,-520.53"/>
<text text-anchor="middle" x="638" y="-508.96" font-family="Helvetica,sans-Serif" font-size="10.00"> &lt; std::string, size_t &gt;</text>
</g>
<!-- Node19 -->
<g id="node19" class="node">
<title>Node19</title>
<g id="a_node19"><a xlink:title=" ">
<polygon fill="white" stroke="#bfbfbf" points="134.5,-555.46 134.5,-574.46 163.5,-574.46 163.5,-555.46 134.5,-555.46"/>
<text text-anchor="middle" x="149" y="-562.46" font-family="Helvetica,sans-Serif" font-size="10.00">K</text>
</a>
</g>
</g>
<!-- Node19&#45;&gt;Node18 -->
<g id="edge22" class="edge">
<title>Node19&#45;&gt;Node18</title>
<path fill="none" stroke="#9a32cd" stroke-dasharray="5,2" d="M173.87,-563.23C224.1,-559.61 341.85,-551.1 412.34,-546.01"/>
<polygon fill="#9a32cd" stroke="#9a32cd" points="173.41,-559.76 163.69,-563.97 173.91,-566.74 173.41,-559.76"/>
<text text-anchor="middle" x="300.5" y="-560.96" font-family="Helvetica,sans-Serif" font-size="10.00"> keys</text>
</g>
<!-- Node20&#45;&gt;Node4 -->
<g id="edge24" class="edge">
<title>Node20&#45;&gt;Node4</title>
<path fill="none" stroke="#9a32cd" stroke-dasharray="5,2" d="M1708.35,-178.22C1735.21,-175.23 1766.65,-173.61 1795,-176.96 1951.7,-195.49 2131.93,-247.83 2215.27,-273.86"/>
<polygon fill="#9a32cd" stroke="#9a32cd" points="1707.81,-174.76 1698.3,-179.43 1708.64,-181.71 1707.81,-174.76"/>
<text text-anchor="middle" x="1902.5" y="-215.96" font-family="Helvetica,sans-Serif" font-size="10.00"> m_options</text>
</g>
<!-- Node20&#45;&gt;Node22 -->
<g id="edge33" class="edge">
<title>Node20&#45;&gt;Node22</title>
<path fill="none" stroke="#9a32cd" stroke-dasharray="5,2" d="M1722.37,-180.75C1746.17,-180.58 1772.05,-182.76 1795,-189.96 1831.58,-201.42 1866.81,-230.14 1886.17,-247.95"/>
<polygon fill="#9a32cd" stroke="#9a32cd" points="1722.25,-177.25 1712.32,-180.96 1722.39,-184.25 1722.25,-177.25"/>
<text text-anchor="middle" x="1763.5" y="-192.96" font-family="Helvetica,sans-Serif" font-size="10.00"> m_options</text>
</g>
<!-- Node20&#45;&gt;Node25 -->
<g id="edge39" class="edge">
<title>Node20&#45;&gt;Node25</title>
<path fill="none" stroke="#9a32cd" stroke-dasharray="5,2" d="M1684.48,-175.6C1694.8,-171.03 1705.38,-165.2 1714,-157.96 1725.04,-148.68 1720.9,-140.16 1732,-130.96 1770.76,-98.82 1825.99,-78.97 1862.75,-68.46"/>
<polygon fill="#9a32cd" stroke="#9a32cd" points="1683.06,-172.4 1675.15,-179.44 1685.73,-178.87 1683.06,-172.4"/>
<text text-anchor="middle" x="1763.5" y="-133.96" font-family="Helvetica,sans-Serif" font-size="10.00"> m_options</text>
</g>
<!-- Node20&#45;&gt;Node28 -->
<g id="edge47" class="edge">
<title>Node20&#45;&gt;Node28</title>
<path fill="none" stroke="#9a32cd" stroke-dasharray="5,2" d="M1667.36,-204.7C1682.82,-216.09 1702.2,-232.8 1714,-251.96 1730.17,-278.21 1710.85,-296.52 1732,-318.96 1752.24,-340.44 1774.91,-318.34 1795,-339.96 1817.16,-363.81 1790.9,-387.05 1813,-410.96 1818.62,-417.03 1825.51,-421.88 1832.94,-425.74"/>
<polygon fill="#9a32cd" stroke="#9a32cd" points="1668.98,-201.56 1658.8,-198.64 1664.94,-207.28 1668.98,-201.56"/>
<text text-anchor="middle" x="1763.5" y="-342.96" font-family="Helvetica,sans-Serif" font-size="10.00"> m_options</text>
</g>
<!-- Node21&#45;&gt;Node4 -->
<g id="edge26" class="edge">
<title>Node21&#45;&gt;Node4</title>
<path fill="none" stroke="#9a32cd" stroke-dasharray="5,2" d="M1724.2,-390.21C1747.13,-390.1 1772.09,-389.26 1795,-386.96 1947.08,-371.7 2122.52,-327.53 2208.65,-304.05"/>
<polygon fill="#9a32cd" stroke="#9a32cd" points="1724.17,-386.71 1714.17,-390.22 1724.17,-393.71 1724.17,-386.71"/>
<text text-anchor="middle" x="1902.5" y="-387.96" font-family="Helvetica,sans-Serif" font-size="10.00"> m_pdefields</text>
</g>
<!-- Node21&#45;&gt;Node22 -->
<g id="edge34" class="edge">
<title>Node21&#45;&gt;Node22</title>
<path fill="none" stroke="#9a32cd" stroke-dasharray="5,2" d="M1724.15,-376.72C1747.79,-371.49 1773.14,-363.91 1795,-352.96 1833.09,-333.88 1869.15,-298.49 1887.96,-278.24"/>
<polygon fill="#9a32cd" stroke="#9a32cd" points="1723.21,-373.34 1714.14,-378.81 1724.64,-380.19 1723.21,-373.34"/>
<text text-anchor="middle" x="1763.5" y="-377.96" font-family="Helvetica,sans-Serif" font-size="10.00"> m_pdefields</text>
</g>
<!-- Node21&#45;&gt;Node25 -->
<g id="edge40" class="edge">
<title>Node21&#45;&gt;Node25</title>
<path fill="none" stroke="#9a32cd" stroke-dasharray="5,2" d="M1656.71,-370.37C1673.77,-347.78 1704.54,-307.5 1732,-273.96 1759.15,-240.8 1774.94,-238.83 1795,-200.96 1809.44,-173.71 1796.49,-160 1813,-133.96 1831.44,-104.87 1864.73,-81.18 1884.81,-68.65"/>
<polygon fill="#9a32cd" stroke="#9a32cd" points="1653.9,-368.28 1650.68,-378.37 1659.49,-372.49 1653.9,-368.28"/>
<text text-anchor="middle" x="1763.5" y="-276.96" font-family="Helvetica,sans-Serif" font-size="10.00"> m_pdefields</text>
</g>
<!-- Node21&#45;&gt;Node28 -->
<g id="edge48" class="edge">
<title>Node21&#45;&gt;Node28</title>
<path fill="none" stroke="#9a32cd" stroke-dasharray="5,2" d="M1685.47,-400.22C1700.12,-404.26 1716.72,-408.59 1732,-411.96 1760.42,-418.23 1791.78,-423.93 1819.72,-428.58"/>
<polygon fill="#9a32cd" stroke="#9a32cd" points="1686.26,-396.8 1675.68,-397.48 1684.37,-403.55 1686.26,-396.8"/>
<text text-anchor="middle" x="1763.5" y="-426.96" font-family="Helvetica,sans-Serif" font-size="10.00"> m_pdefields</text>
</g>
<!-- Node22&#45;&gt;Node4 -->
<g id="edge29" class="edge">
<title>Node22&#45;&gt;Node4</title>
<path fill="none" stroke="orange" stroke-dasharray="5,2" d="M1984.43,-268.83C2043.9,-273.14 2124.26,-278.97 2183.22,-283.24"/>
<polygon fill="orange" stroke="orange" points="1984.56,-265.33 1974.33,-268.09 1984.05,-272.31 1984.56,-265.33"/>
<text text-anchor="middle" x="2071" y="-282.96" font-family="Helvetica,sans-Serif" font-size="10.00"> &lt; amrex::MLTensorOp &gt;</text>
</g>
<!-- Node23&#45;&gt;Node22 -->
<g id="edge31" class="edge">
<title>Node23&#45;&gt;Node22</title>
<path fill="none" stroke="#9a32cd" stroke-dasharray="5,2" d="M1300.5,-226.75C1434.49,-234.82 1703.12,-251.01 1830.87,-258.7"/>
<polygon fill="#9a32cd" stroke="#9a32cd" points="1300.5,-223.24 1290.31,-226.13 1300.08,-230.23 1300.5,-223.24"/>
<text text-anchor="middle" x="1486.5" y="-255.96" font-family="Helvetica,sans-Serif" font-size="10.00"> m_applier</text>
<text text-anchor="middle" x="1486.5" y="-244.96" font-family="Helvetica,sans-Serif" font-size="10.00">m_solver</text>
</g>
<!-- Node24&#45;&gt;Node1 -->
<g id="edge36" class="edge">
<title>Node24&#45;&gt;Node1</title>
<path fill="none" stroke="#9a32cd" stroke-dasharray="5,2" d="M2314.3,-77.56C2466.17,-133.71 2918.06,-300.79 3056.34,-351.92"/>
<polygon fill="#9a32cd" stroke="#9a32cd" points="2315.33,-74.21 2304.74,-74.02 2312.91,-80.77 2315.33,-74.21"/>
<text text-anchor="middle" x="2673.5" y="-235.96" font-family="Helvetica,sans-Serif" font-size="10.00"> m_scalar_op</text>
</g>
<!-- Node25&#45;&gt;Node24 -->
<g id="edge37" class="edge">
<title>Node25&#45;&gt;Node24</title>
<path fill="none" stroke="#9a32cd" stroke-dasharray="5,2" d="M2002.25,-58.96C2057.34,-58.96 2125.23,-58.96 2177.79,-58.96"/>
<polygon fill="#9a32cd" stroke="#9a32cd" points="2002.12,-55.46 1992.12,-58.96 2002.12,-62.46 2002.12,-55.46"/>
<text text-anchor="middle" x="2071" y="-61.96" font-family="Helvetica,sans-Serif" font-size="10.00"> ptr</text>
</g>
<!-- Node26&#45;&gt;Node25 -->
<g id="edge41" class="edge">
<title>Node26&#45;&gt;Node25</title>
<path fill="none" stroke="#9a32cd" stroke-dasharray="5,2" d="M1004.34,-49.95C1062.87,-48.56 1146.08,-46.96 1219,-46.96 1219,-46.96 1219,-46.96 1643.5,-46.96 1699.89,-46.96 1763.13,-49.85 1812.89,-52.8"/>
<polygon fill="#9a32cd" stroke="#9a32cd" points="1003.98,-46.45 994.07,-50.19 1004.15,-53.45 1003.98,-46.45"/>
<text text-anchor="middle" x="1355" y="-60.96" font-family="Helvetica,sans-Serif" font-size="10.00"> m_applier_scalar</text>
<text text-anchor="middle" x="1355" y="-49.96" font-family="Helvetica,sans-Serif" font-size="10.00">m_solver_scalar</text>
</g>
<!-- Node27&#45;&gt;Node1 -->
<g id="edge44" class="edge">
<title>Node27&#45;&gt;Node1</title>
<path fill="none" stroke="#9a32cd" stroke-dasharray="5,2" d="M2386.28,-525.34C2482.28,-524.24 2618.85,-517.81 2736,-493.96 2861,-468.51 3001.56,-409.79 3064.03,-382.03"/>
<polygon fill="#9a32cd" stroke="#9a32cd" points="2386.2,-521.84 2376.24,-525.44 2386.27,-528.84 2386.2,-521.84"/>
<text text-anchor="middle" x="2673.5" y="-514.96" font-family="Helvetica,sans-Serif" font-size="10.00"> m_scalar_segregated_op</text>
</g>
<!-- Node28&#45;&gt;Node27 -->
<g id="edge45" class="edge">
<title>Node28&#45;&gt;Node27</title>
<path fill="none" stroke="#9a32cd" stroke-dasharray="5,2" d="M1978.54,-458.33C2043.15,-473.29 2135.43,-494.66 2196.96,-508.9"/>
<polygon fill="#9a32cd" stroke="#9a32cd" points="1978.95,-454.83 1968.42,-455.99 1977.37,-461.65 1978.95,-454.83"/>
<text text-anchor="middle" x="2071" y="-494.96" font-family="Helvetica,sans-Serif" font-size="10.00"> ptr</text>
</g>
</g>
</svg>
