<?xml version="1.0" encoding="UTF-8" standalone="no"?>
<!DOCTYPE svg PUBLIC "-//W3C//DTD SVG 1.1//EN"
 "http://www.w3.org/Graphics/SVG/1.1/DTD/svg11.dtd">
<!-- Generated by graphviz version 2.43.0 (0)
 -->
<!-- Title: tensor_ops.H Pages: 1 -->
<svg width="1093pt" height="196pt"
 viewBox="0.00 0.00 1092.50 196.00" xmlns="http://www.w3.org/2000/svg" xmlns:xlink="http://www.w3.org/1999/xlink">
<g id="graph0" class="graph" transform="scale(1 1) rotate(0) translate(4 192)">
<title>tensor_ops.H</title>
<polygon fill="white" stroke="transparent" points="-4,4 -4,-192 1088.5,-192 1088.5,4 -4,4"/>
<!-- Node1 -->
<g id="node1" class="node">
<title>Node1</title>
<g id="a_node1"><a xlink:title=" ">
<polygon fill="#bfbfbf" stroke="black" points="501.5,-168.5 501.5,-187.5 581.5,-187.5 581.5,-168.5 501.5,-168.5"/>
<text text-anchor="middle" x="541.5" y="-175.5" font-family="Helvetica,sans-Serif" font-size="10.00">tensor_ops.H</text>
</a>
</g>
</g>
<!-- Node2 -->
<g id="node2" class="node">
<title>Node2</title>
<g id="a_node2"><a xlink:href="_coriolis_forcing_8cpp.html" target="_top" xlink:title=" ">
<polygon fill="white" stroke="black" points="0,-112.5 0,-131.5 109,-131.5 109,-112.5 0,-112.5"/>
<text text-anchor="middle" x="54.5" y="-119.5" font-family="Helvetica,sans-Serif" font-size="10.00">CoriolisForcing.cpp</text>
</a>
</g>
</g>
<!-- Node1&#45;&gt;Node2 -->
<g id="edge1" class="edge">
<title>Node1&#45;&gt;Node2</title>
<path fill="none" stroke="midnightblue" d="M491.19,-172.25C411.72,-164.62 252.3,-148.78 117.5,-132 114.76,-131.66 111.95,-131.3 109.12,-130.93"/>
<polygon fill="midnightblue" stroke="midnightblue" points="491.11,-175.76 501.4,-173.23 491.78,-168.79 491.11,-175.76"/>
</g>
<!-- Node3 -->
<g id="node3" class="node">
<title>Node3</title>
<g id="a_node3"><a xlink:href="_synthetic_turbulence_8cpp.html" target="_top" xlink:title=" ">
<polygon fill="white" stroke="black" points="127,-112.5 127,-131.5 262,-131.5 262,-112.5 127,-112.5"/>
<text text-anchor="middle" x="194.5" y="-119.5" font-family="Helvetica,sans-Serif" font-size="10.00">SyntheticTurbulence.cpp</text>
</a>
</g>
</g>
<!-- Node1&#45;&gt;Node3 -->
<g id="edge2" class="edge">
<title>Node1&#45;&gt;Node3</title>
<path fill="none" stroke="midnightblue" d="M491.45,-169.21C427.15,-159.21 315.92,-141.9 249.37,-131.54"/>
<polygon fill="midnightblue" stroke="midnightblue" points="490.94,-172.67 501.36,-170.75 492.01,-165.76 490.94,-172.67"/>
</g>
<!-- Node4 -->
<g id="node4" class="node">
<title>Node4</title>
<g id="a_node4"><a xlink:href="_d_t_u_spinner_sampler_8cpp.html" target="_top" xlink:title=" ">
<polygon fill="white" stroke="black" points="280.5,-112.5 280.5,-131.5 414.5,-131.5 414.5,-112.5 280.5,-112.5"/>
<text text-anchor="middle" x="347.5" y="-119.5" font-family="Helvetica,sans-Serif" font-size="10.00">DTUSpinnerSampler.cpp</text>
</a>
</g>
</g>
<!-- Node1&#45;&gt;Node4 -->
<g id="edge3" class="edge">
<title>Node1&#45;&gt;Node4</title>
<path fill="none" stroke="midnightblue" d="M500.9,-165.7C464.28,-155.51 411.24,-140.74 378.1,-131.52"/>
<polygon fill="midnightblue" stroke="midnightblue" points="500.19,-169.13 510.76,-168.44 502.06,-162.39 500.19,-169.13"/>
</g>
<!-- Node5 -->
<g id="node5" class="node">
<title>Node5</title>
<g id="a_node5"><a xlink:href="_lidar_sampler_8cpp.html" target="_top" xlink:title=" ">
<polygon fill="white" stroke="black" points="433,-112.5 433,-131.5 534,-131.5 534,-112.5 433,-112.5"/>
<text text-anchor="middle" x="483.5" y="-119.5" font-family="Helvetica,sans-Serif" font-size="10.00">LidarSampler.cpp</text>
</a>
</g>
</g>
<!-- Node1&#45;&gt;Node5 -->
<g id="edge4" class="edge">
<title>Node1&#45;&gt;Node5</title>
<path fill="none" stroke="midnightblue" d="M524.59,-161.25C514.3,-151.67 501.53,-139.79 492.99,-131.83"/>
<polygon fill="midnightblue" stroke="midnightblue" points="522.48,-164.07 532.18,-168.32 527.25,-158.95 522.48,-164.07"/>
</g>
<!-- Node6 -->
<g id="node6" class="node">
<title>Node6</title>
<g id="a_node6"><a xlink:href="_line_sampler_8cpp.html" target="_top" xlink:title=" ">
<polygon fill="white" stroke="black" points="552,-112.5 552,-131.5 649,-131.5 649,-112.5 552,-112.5"/>
<text text-anchor="middle" x="600.5" y="-119.5" font-family="Helvetica,sans-Serif" font-size="10.00">LineSampler.cpp</text>
</a>
</g>
</g>
<!-- Node1&#45;&gt;Node6 -->
<g id="edge5" class="edge">
<title>Node1&#45;&gt;Node6</title>
<path fill="none" stroke="midnightblue" d="M558.39,-161.54C568.91,-151.91 582.07,-139.87 590.85,-131.83"/>
<polygon fill="midnightblue" stroke="midnightblue" points="555.99,-158.99 550.98,-168.32 560.72,-164.15 555.99,-158.99"/>
</g>
<!-- Node7 -->
<g id="node7" class="node">
<title>Node7</title>
<g id="a_node7"><a xlink:href="_a_b_l_stats_8cpp.html" target="_top" xlink:title=" ">
<polygon fill="white" stroke="black" points="667.5,-112.5 667.5,-131.5 747.5,-131.5 747.5,-112.5 667.5,-112.5"/>
<text text-anchor="middle" x="707.5" y="-119.5" font-family="Helvetica,sans-Serif" font-size="10.00">ABLStats.cpp</text>
</a>
</g>
</g>
<!-- Node1&#45;&gt;Node7 -->
<g id="edge6" class="edge">
<title>Node1&#45;&gt;Node7</title>
<path fill="none" stroke="midnightblue" d="M577.45,-165.3C608.73,-155.13 653.32,-140.62 681.32,-131.52"/>
<polygon fill="midnightblue" stroke="midnightblue" points="576.23,-162.02 567.8,-168.44 578.4,-168.68 576.23,-162.02"/>
</g>
<!-- Node8 -->
<g id="node8" class="node">
<title>Node8</title>
<g id="a_node8"><a xlink:href="_a_b_l_wall_function_8cpp.html" target="_top" xlink:title=" ">
<polygon fill="white" stroke="black" points="766,-112.5 766,-131.5 883,-131.5 883,-112.5 766,-112.5"/>
<text text-anchor="middle" x="824.5" y="-119.5" font-family="Helvetica,sans-Serif" font-size="10.00">ABLWallFunction.cpp</text>
</a>
</g>
</g>
<!-- Node1&#45;&gt;Node8 -->
<g id="edge7" class="edge">
<title>Node1&#45;&gt;Node8</title>
<path fill="none" stroke="midnightblue" d="M591.66,-167.43C644.99,-157.25 728.55,-141.31 779.72,-131.54"/>
<polygon fill="midnightblue" stroke="midnightblue" points="590.91,-164.01 581.75,-169.32 592.23,-170.88 590.91,-164.01"/>
</g>
<!-- Node9 -->
<g id="node9" class="node">
<title>Node9</title>
<g id="a_node9"><a xlink:href="disk__ops_8_h.html" target="_top" xlink:title=" ">
<polygon fill="white" stroke="black" points="901.5,-112.5 901.5,-131.5 971.5,-131.5 971.5,-112.5 901.5,-112.5"/>
<text text-anchor="middle" x="936.5" y="-119.5" font-family="Helvetica,sans-Serif" font-size="10.00">disk_ops.H</text>
</a>
</g>
</g>
<!-- Node1&#45;&gt;Node9 -->
<g id="edge8" class="edge">
<title>Node1&#45;&gt;Node9</title>
<path fill="none" stroke="midnightblue" d="M591.54,-171.67C659.62,-164.18 785.12,-149.46 891.5,-132 894.64,-131.48 897.91,-130.91 901.17,-130.31"/>
<polygon fill="midnightblue" stroke="midnightblue" points="591.08,-168.2 581.52,-172.77 591.85,-175.16 591.08,-168.2"/>
</g>
<!-- Node10 -->
<g id="node10" class="node">
<title>Node10</title>
<g id="a_node10"><a xlink:href="uniform__ct__ops_8_h.html" target="_top" xlink:title=" ">
<polygon fill="white" stroke="black" points="726.5,-56.5 726.5,-75.5 828.5,-75.5 828.5,-56.5 726.5,-56.5"/>
<text text-anchor="middle" x="777.5" y="-63.5" font-family="Helvetica,sans-Serif" font-size="10.00">uniform_ct_ops.H</text>
</a>
</g>
</g>
<!-- Node9&#45;&gt;Node10 -->
<g id="edge9" class="edge">
<title>Node9&#45;&gt;Node10</title>
<path fill="none" stroke="midnightblue" d="M901.67,-109.17C871.73,-99 829.28,-84.59 802.58,-75.52"/>
<polygon fill="midnightblue" stroke="midnightblue" points="900.71,-112.54 911.31,-112.44 902.96,-105.91 900.71,-112.54"/>
</g>
<!-- Node13 -->
<g id="node13" class="node">
<title>Node13</title>
<g id="a_node13"><a xlink:href="_joukowsky__ops_8_h.html" target="_top" xlink:title=" ">
<polygon fill="white" stroke="black" points="847,-56.5 847,-75.5 948,-75.5 948,-56.5 847,-56.5"/>
<text text-anchor="middle" x="897.5" y="-63.5" font-family="Helvetica,sans-Serif" font-size="10.00">Joukowsky_ops.H</text>
</a>
</g>
</g>
<!-- Node9&#45;&gt;Node13 -->
<g id="edge12" class="edge">
<title>Node9&#45;&gt;Node13</title>
<path fill="none" stroke="midnightblue" d="M924.12,-103.86C917.36,-94.5 909.29,-83.33 903.82,-75.75"/>
<polygon fill="midnightblue" stroke="midnightblue" points="921.37,-106.03 930.06,-112.08 927.04,-101.93 921.37,-106.03"/>
</g>
<!-- Node14 -->
<g id="node14" class="node">
<title>Node14</title>
<g id="a_node14"><a xlink:href="_joukowsky__ops_8cpp.html" target="_top" xlink:title=" ">
<polygon fill="white" stroke="black" points="921.5,-0.5 921.5,-19.5 1031.5,-19.5 1031.5,-0.5 921.5,-0.5"/>
<text text-anchor="middle" x="976.5" y="-7.5" font-family="Helvetica,sans-Serif" font-size="10.00">Joukowsky_ops.cpp</text>
</a>
</g>
</g>
<!-- Node9&#45;&gt;Node14 -->
<g id="edge16" class="edge">
<title>Node9&#45;&gt;Node14</title>
<path fill="none" stroke="midnightblue" d="M945.67,-102.99C949.61,-94.86 954.08,-85.08 957.5,-76 964.97,-56.2 971.33,-32.11 974.44,-19.55"/>
<polygon fill="midnightblue" stroke="midnightblue" points="942.41,-101.69 941.09,-112.21 948.68,-104.81 942.41,-101.69"/>
</g>
<!-- Node15 -->
<g id="node15" class="node">
<title>Node15</title>
<g id="a_node15"><a xlink:href="disk__ops_8cpp.html" target="_top" xlink:title=" ">
<polygon fill="white" stroke="black" points="1004.5,-56.5 1004.5,-75.5 1084.5,-75.5 1084.5,-56.5 1004.5,-56.5"/>
<text text-anchor="middle" x="1044.5" y="-63.5" font-family="Helvetica,sans-Serif" font-size="10.00">disk_ops.cpp</text>
</a>
</g>
</g>
<!-- Node9&#45;&gt;Node15 -->
<g id="edge15" class="edge">
<title>Node9&#45;&gt;Node15</title>
<path fill="none" stroke="midnightblue" d="M963.05,-107.73C983.05,-97.73 1009.89,-84.31 1027.19,-75.65"/>
<polygon fill="midnightblue" stroke="midnightblue" points="961.23,-104.72 953.85,-112.32 964.36,-110.98 961.23,-104.72"/>
</g>
<!-- Node11 -->
<g id="node11" class="node">
<title>Node11</title>
<g id="a_node11"><a xlink:href="_actuator_disk_8cpp.html" target="_top" xlink:title=" ">
<polygon fill="white" stroke="black" points="803.5,-0.5 803.5,-19.5 903.5,-19.5 903.5,-0.5 803.5,-0.5"/>
<text text-anchor="middle" x="853.5" y="-7.5" font-family="Helvetica,sans-Serif" font-size="10.00">ActuatorDisk.cpp</text>
</a>
</g>
</g>
<!-- Node10&#45;&gt;Node11 -->
<g id="edge10" class="edge">
<title>Node10&#45;&gt;Node11</title>
<path fill="none" stroke="midnightblue" d="M798.08,-50.38C811.81,-40.62 829.43,-28.11 841.07,-19.83"/>
<polygon fill="midnightblue" stroke="midnightblue" points="795.84,-47.68 789.71,-56.32 799.89,-53.38 795.84,-47.68"/>
</g>
<!-- Node12 -->
<g id="node12" class="node">
<title>Node12</title>
<g id="a_node12"><a xlink:href="uniform__ct__ops_8cpp.html" target="_top" xlink:title=" ">
<polygon fill="white" stroke="black" points="673.5,-0.5 673.5,-19.5 785.5,-19.5 785.5,-0.5 673.5,-0.5"/>
<text text-anchor="middle" x="729.5" y="-7.5" font-family="Helvetica,sans-Serif" font-size="10.00">uniform_ct_ops.cpp</text>
</a>
</g>
</g>
<!-- Node10&#45;&gt;Node12 -->
<g id="edge11" class="edge">
<title>Node10&#45;&gt;Node12</title>
<path fill="none" stroke="midnightblue" d="M762.77,-48.43C754.36,-38.97 744.15,-27.48 737.28,-19.75"/>
<polygon fill="midnightblue" stroke="midnightblue" points="760.31,-50.93 769.57,-56.08 765.55,-46.28 760.31,-50.93"/>
</g>
<!-- Node13&#45;&gt;Node11 -->
<g id="edge13" class="edge">
<title>Node13&#45;&gt;Node11</title>
<path fill="none" stroke="midnightblue" d="M883.77,-48.14C876.1,-38.74 866.87,-27.4 860.63,-19.75"/>
<polygon fill="midnightblue" stroke="midnightblue" points="881.2,-50.54 890.23,-56.08 886.63,-46.12 881.2,-50.54"/>
</g>
<!-- Node13&#45;&gt;Node14 -->
<g id="edge14" class="edge">
<title>Node13&#45;&gt;Node14</title>
<path fill="none" stroke="midnightblue" d="M918.53,-50.62C932.97,-40.76 951.64,-27.99 963.84,-19.65"/>
<polygon fill="midnightblue" stroke="midnightblue" points="916.47,-47.79 910.19,-56.32 920.42,-53.57 916.47,-47.79"/>
</g>
</g>
</svg>
