<?xml version="1.0" encoding="UTF-8" standalone="no"?>
<!DOCTYPE svg PUBLIC "-//W3C//DTD SVG 1.1//EN"
 "http://www.w3.org/Graphics/SVG/1.1/DTD/svg11.dtd">
<!-- Generated by graphviz version 2.43.0 (0)
 -->
<!-- Title: trig_ops.H Pages: 1 -->
<svg width="3307pt" height="431pt"
 viewBox="0.00 0.00 3307.00 431.00" xmlns="http://www.w3.org/2000/svg" xmlns:xlink="http://www.w3.org/1999/xlink">
<g id="graph0" class="graph" transform="scale(1 1) rotate(0) translate(4 427)">
<title>trig_ops.H</title>
<polygon fill="white" stroke="transparent" points="-4,4 -4,-427 3303,-427 3303,4 -4,4"/>
<!-- Node1 -->
<g id="node1" class="node">
<title>Node1</title>
<g id="a_node1"><a xlink:title=" ">
<polygon fill="#bfbfbf" stroke="black" points="2419,-403.5 2419,-422.5 2485,-422.5 2485,-403.5 2419,-403.5"/>
<text text-anchor="middle" x="2452" y="-410.5" font-family="Helvetica,sans-Serif" font-size="10.00">trig_ops.H</text>
</a>
</g>
</g>
<!-- Node2 -->
<g id="node2" class="node">
<title>Node2</title>
<g id="a_node2"><a xlink:href="tensor_i_8_h.html" target="_top" xlink:title=" ">
<polygon fill="white" stroke="black" points="995.5,-347.5 995.5,-366.5 1056.5,-366.5 1056.5,-347.5 995.5,-347.5"/>
<text text-anchor="middle" x="1026" y="-354.5" font-family="Helvetica,sans-Serif" font-size="10.00">tensorI.H</text>
</a>
</g>
</g>
<!-- Node1&#45;&gt;Node2 -->
<g id="edge1" class="edge">
<title>Node1&#45;&gt;Node2</title>
<path fill="none" stroke="midnightblue" d="M2408.56,-410.36C2192.83,-402.19 1239.69,-366.09 1056.51,-359.16"/>
<polygon fill="midnightblue" stroke="midnightblue" points="2408.72,-413.86 2418.85,-410.74 2408.99,-406.87 2408.72,-413.86"/>
</g>
<!-- Node47 -->
<g id="node14" class="node">
<title>Node47</title>
<g id="a_node14"><a xlink:href="_synthetic_turbulence_8cpp.html" target="_top" xlink:title=" ">
<polygon fill="white" stroke="black" points="1178.5,-118 1178.5,-137 1313.5,-137 1313.5,-118 1178.5,-118"/>
<text text-anchor="middle" x="1246" y="-125" font-family="Helvetica,sans-Serif" font-size="10.00">SyntheticTurbulence.cpp</text>
</a>
</g>
</g>
<!-- Node1&#45;&gt;Node47 -->
<g id="edge62" class="edge">
<title>Node1&#45;&gt;Node47</title>
<path fill="none" stroke="midnightblue" d="M2408.73,-411.86C2216.81,-410.66 1452,-399.76 1452,-302 1452,-302 1452,-302 1452,-244 1452,-203.2 1327.52,-156.04 1272.09,-137.06"/>
<polygon fill="midnightblue" stroke="midnightblue" points="2408.71,-415.36 2418.73,-411.91 2408.75,-408.36 2408.71,-415.36"/>
</g>
<!-- Node75 -->
<g id="node25" class="node">
<title>Node75</title>
<g id="a_node25"><a xlink:href="_m_o_data_8_h.html" target="_top" xlink:title=" ">
<polygon fill="white" stroke="black" points="1924.5,-347.5 1924.5,-366.5 1991.5,-366.5 1991.5,-347.5 1924.5,-347.5"/>
<text text-anchor="middle" x="1958" y="-354.5" font-family="Helvetica,sans-Serif" font-size="10.00">MOData.H</text>
</a>
</g>
</g>
<!-- Node1&#45;&gt;Node75 -->
<g id="edge34" class="edge">
<title>Node1&#45;&gt;Node75</title>
<path fill="none" stroke="midnightblue" d="M2408.78,-407.28C2311.87,-396.68 2078.87,-371.21 1991.69,-361.68"/>
<polygon fill="midnightblue" stroke="midnightblue" points="2408.5,-410.77 2418.82,-408.37 2409.26,-403.81 2408.5,-410.77"/>
</g>
<!-- Node84 -->
<g id="node34" class="node">
<title>Node84</title>
<g id="a_node34"><a xlink:href="_a_b_l_wall_function_8cpp.html" target="_top" xlink:title=" ">
<polygon fill="white" stroke="black" points="2047.5,-118 2047.5,-137 2164.5,-137 2164.5,-118 2047.5,-118"/>
<text text-anchor="middle" x="2106" y="-125" font-family="Helvetica,sans-Serif" font-size="10.00">ABLWallFunction.cpp</text>
</a>
</g>
</g>
<!-- Node1&#45;&gt;Node84 -->
<g id="edge65" class="edge">
<title>Node1&#45;&gt;Node84</title>
<path fill="none" stroke="midnightblue" d="M2408.74,-412.57C2321.16,-412.83 2127.02,-408.55 2078,-367 2055.04,-347.54 2059,-332.1 2059,-302 2059,-302 2059,-302 2059,-244 2059,-201.35 2086.83,-155.95 2099.66,-137.28"/>
<polygon fill="midnightblue" stroke="midnightblue" points="2408.89,-416.07 2418.88,-412.52 2408.86,-409.07 2408.89,-416.07"/>
</g>
<!-- Node91 -->
<g id="node41" class="node">
<title>Node91</title>
<g id="a_node41"><a xlink:href="_body_force_8cpp.html" target="_top" xlink:title=" ">
<polygon fill="white" stroke="black" points="2087,-347.5 2087,-366.5 2175,-366.5 2175,-347.5 2087,-347.5"/>
<text text-anchor="middle" x="2131" y="-354.5" font-family="Helvetica,sans-Serif" font-size="10.00">BodyForce.cpp</text>
</a>
</g>
</g>
<!-- Node1&#45;&gt;Node91 -->
<g id="edge54" class="edge">
<title>Node1&#45;&gt;Node91</title>
<path fill="none" stroke="midnightblue" d="M2408.94,-404.8C2356,-395.93 2263.38,-380.4 2184,-367 2181.15,-366.52 2178.21,-366.02 2175.25,-365.52"/>
<polygon fill="midnightblue" stroke="midnightblue" points="2408.55,-408.28 2418.99,-406.48 2409.71,-401.37 2408.55,-408.28"/>
</g>
<!-- Node92 -->
<g id="node42" class="node">
<title>Node92</title>
<g id="a_node42"><a xlink:href="_coriolis_forcing_8cpp.html" target="_top" xlink:title=" ">
<polygon fill="white" stroke="black" points="2193.5,-347.5 2193.5,-366.5 2302.5,-366.5 2302.5,-347.5 2193.5,-347.5"/>
<text text-anchor="middle" x="2248" y="-354.5" font-family="Helvetica,sans-Serif" font-size="10.00">CoriolisForcing.cpp</text>
</a>
</g>
</g>
<!-- Node1&#45;&gt;Node92 -->
<g id="edge55" class="edge">
<title>Node1&#45;&gt;Node92</title>
<path fill="none" stroke="midnightblue" d="M2409.8,-400.83C2371.28,-390.63 2315.18,-375.78 2280.17,-366.52"/>
<polygon fill="midnightblue" stroke="midnightblue" points="2409.11,-404.27 2419.68,-403.44 2410.9,-397.5 2409.11,-404.27"/>
</g>
<!-- Node93 -->
<g id="node43" class="node">
<title>Node93</title>
<g id="a_node43"><a xlink:href="_geostrophic_forcing_8cpp.html" target="_top" xlink:title=" ">
<polygon fill="white" stroke="black" points="2320.5,-347.5 2320.5,-366.5 2451.5,-366.5 2451.5,-347.5 2320.5,-347.5"/>
<text text-anchor="middle" x="2386" y="-354.5" font-family="Helvetica,sans-Serif" font-size="10.00">GeostrophicForcing.cpp</text>
</a>
</g>
</g>
<!-- Node1&#45;&gt;Node93 -->
<g id="edge56" class="edge">
<title>Node1&#45;&gt;Node93</title>
<path fill="none" stroke="midnightblue" d="M2433.45,-396.82C2421.62,-387.15 2406.71,-374.95 2396.8,-366.83"/>
<polygon fill="midnightblue" stroke="midnightblue" points="2431.44,-399.7 2441.4,-403.32 2435.87,-394.28 2431.44,-399.7"/>
</g>
<!-- Node94 -->
<g id="node44" class="node">
<title>Node94</title>
<g id="a_node44"><a xlink:href="_channel_flow_8cpp.html" target="_top" xlink:title=" ">
<polygon fill="white" stroke="black" points="2469.5,-347.5 2469.5,-366.5 2568.5,-366.5 2568.5,-347.5 2469.5,-347.5"/>
<text text-anchor="middle" x="2519" y="-354.5" font-family="Helvetica,sans-Serif" font-size="10.00">ChannelFlow.cpp</text>
</a>
</g>
</g>
<!-- Node1&#45;&gt;Node94 -->
<g id="edge57" class="edge">
<title>Node1&#45;&gt;Node94</title>
<path fill="none" stroke="midnightblue" d="M2470.83,-396.82C2482.84,-387.15 2497.97,-374.95 2508.04,-366.83"/>
<polygon fill="midnightblue" stroke="midnightblue" points="2468.35,-394.32 2462.76,-403.32 2472.75,-399.77 2468.35,-394.32"/>
</g>
<!-- Node95 -->
<g id="node45" class="node">
<title>Node95</title>
<g id="a_node45"><a xlink:href="_convecting_taylor_vortex_8cpp.html" target="_top" xlink:title=" ">
<polygon fill="white" stroke="black" points="2587,-347.5 2587,-366.5 2739,-366.5 2739,-347.5 2587,-347.5"/>
<text text-anchor="middle" x="2663" y="-354.5" font-family="Helvetica,sans-Serif" font-size="10.00">ConvectingTaylorVortex.cpp</text>
</a>
</g>
</g>
<!-- Node1&#45;&gt;Node95 -->
<g id="edge58" class="edge">
<title>Node1&#45;&gt;Node95</title>
<path fill="none" stroke="midnightblue" d="M2495.14,-400.96C2534.99,-390.76 2593.36,-375.82 2629.72,-366.52"/>
<polygon fill="midnightblue" stroke="midnightblue" points="2494.25,-397.57 2485.43,-403.44 2495.99,-404.35 2494.25,-397.57"/>
</g>
<!-- Node96 -->
<g id="node46" class="node">
<title>Node96</title>
<g id="a_node46"><a xlink:href="_ekman_spiral_8cpp.html" target="_top" xlink:title=" ">
<polygon fill="white" stroke="black" points="2757,-347.5 2757,-366.5 2855,-366.5 2855,-347.5 2757,-347.5"/>
<text text-anchor="middle" x="2806" y="-354.5" font-family="Helvetica,sans-Serif" font-size="10.00">EkmanSpiral.cpp</text>
</a>
</g>
</g>
<!-- Node1&#45;&gt;Node96 -->
<g id="edge59" class="edge">
<title>Node1&#45;&gt;Node96</title>
<path fill="none" stroke="midnightblue" d="M2495.51,-405.43C2553.23,-396.7 2658.28,-380.78 2748,-367 2750.92,-366.55 2753.92,-366.09 2756.95,-365.62"/>
<polygon fill="midnightblue" stroke="midnightblue" points="2494.66,-402.02 2485.3,-406.97 2495.71,-408.94 2494.66,-402.02"/>
</g>
<!-- Node97 -->
<g id="node47" class="node">
<title>Node97</title>
<g id="a_node47"><a xlink:href="_free_stream_8cpp.html" target="_top" xlink:title=" ">
<polygon fill="white" stroke="black" points="2873.5,-347.5 2873.5,-366.5 2966.5,-366.5 2966.5,-347.5 2873.5,-347.5"/>
<text text-anchor="middle" x="2920" y="-354.5" font-family="Helvetica,sans-Serif" font-size="10.00">FreeStream.cpp</text>
</a>
</g>
</g>
<!-- Node1&#45;&gt;Node97 -->
<g id="edge60" class="edge">
<title>Node1&#45;&gt;Node97</title>
<path fill="none" stroke="midnightblue" d="M2495.21,-408.01C2570.33,-400.9 2729.83,-385.1 2864,-367 2867.03,-366.59 2870.14,-366.15 2873.28,-365.69"/>
<polygon fill="midnightblue" stroke="midnightblue" points="2494.81,-404.53 2485.18,-408.95 2495.46,-411.5 2494.81,-404.53"/>
</g>
<!-- Node98 -->
<g id="node48" class="node">
<title>Node98</title>
<g id="a_node48"><a xlink:href="_n_w_b_8cpp.html" target="_top" xlink:title=" ">
<polygon fill="white" stroke="black" points="2984.5,-347.5 2984.5,-366.5 3045.5,-366.5 3045.5,-347.5 2984.5,-347.5"/>
<text text-anchor="middle" x="3015" y="-354.5" font-family="Helvetica,sans-Serif" font-size="10.00">NWB.cpp</text>
</a>
</g>
</g>
<!-- Node1&#45;&gt;Node98 -->
<g id="edge61" class="edge">
<title>Node1&#45;&gt;Node98</title>
<path fill="none" stroke="midnightblue" d="M2495.41,-410.35C2585.47,-406.46 2799.01,-394.88 2976,-367 2978.75,-366.57 2981.59,-366.05 2984.42,-365.49"/>
<polygon fill="midnightblue" stroke="midnightblue" points="2495.15,-406.85 2485.3,-410.77 2495.44,-413.85 2495.15,-406.85"/>
</g>
<!-- Node99 -->
<g id="node49" class="node">
<title>Node99</title>
<g id="a_node49"><a xlink:href="_taylor_green_vortex_8cpp.html" target="_top" xlink:title=" ">
<polygon fill="white" stroke="black" points="3063.5,-347.5 3063.5,-366.5 3190.5,-366.5 3190.5,-347.5 3063.5,-347.5"/>
<text text-anchor="middle" x="3127" y="-354.5" font-family="Helvetica,sans-Serif" font-size="10.00">TaylorGreenVortex.cpp</text>
</a>
</g>
</g>
<!-- Node1&#45;&gt;Node99 -->
<g id="edge63" class="edge">
<title>Node1&#45;&gt;Node99</title>
<path fill="none" stroke="midnightblue" d="M2495.28,-409.51C2594.44,-403.65 2845.61,-387.89 3055,-367 3057.76,-366.72 3060.57,-366.43 3063.42,-366.12"/>
<polygon fill="midnightblue" stroke="midnightblue" points="2494.84,-406.03 2485.06,-410.11 2495.25,-413.02 2494.84,-406.03"/>
</g>
<!-- Node100 -->
<g id="node50" class="node">
<title>Node100</title>
<g id="a_node50"><a xlink:href="_vortex_ring_8cpp.html" target="_top" xlink:title=" ">
<polygon fill="white" stroke="black" points="3209,-347.5 3209,-366.5 3299,-366.5 3299,-347.5 3209,-347.5"/>
<text text-anchor="middle" x="3254" y="-354.5" font-family="Helvetica,sans-Serif" font-size="10.00">VortexRing.cpp</text>
</a>
</g>
</g>
<!-- Node1&#45;&gt;Node100 -->
<g id="edge64" class="edge">
<title>Node1&#45;&gt;Node100</title>
<path fill="none" stroke="midnightblue" d="M2495.46,-410.98C2610.66,-407.94 2933.3,-397.16 3200,-367 3202.93,-366.67 3205.94,-366.29 3208.97,-365.87"/>
<polygon fill="midnightblue" stroke="midnightblue" points="2495.19,-407.49 2485.29,-411.24 2495.37,-414.48 2495.19,-407.49"/>
</g>
<!-- Node3 -->
<g id="node3" class="node">
<title>Node3</title>
<g id="a_node3"><a xlink:href="tensor_8_h.html" target="_top" xlink:title=" ">
<polygon fill="white" stroke="black" points="997.5,-291.5 997.5,-310.5 1054.5,-310.5 1054.5,-291.5 997.5,-291.5"/>
<text text-anchor="middle" x="1026" y="-298.5" font-family="Helvetica,sans-Serif" font-size="10.00">tensor.H</text>
</a>
</g>
</g>
<!-- Node2&#45;&gt;Node3 -->
<g id="edge2" class="edge">
<title>Node2&#45;&gt;Node3</title>
<path fill="none" stroke="midnightblue" d="M1019.53,-337.1C1018.9,-328.14 1019.34,-317.86 1020.87,-310.75"/>
<polygon fill="midnightblue" stroke="midnightblue" points="1016.07,-337.62 1020.83,-347.08 1023.01,-336.71 1016.07,-337.62"/>
</g>
<!-- Node3&#45;&gt;Node2 -->
<g id="edge33" class="edge">
<title>Node3&#45;&gt;Node2</title>
<path fill="none" stroke="midnightblue" d="M1032.46,-320.69C1033.11,-329.64 1032.68,-339.93 1031.17,-347.08"/>
<polygon fill="midnightblue" stroke="midnightblue" points="1035.92,-320.2 1031.13,-310.75 1028.98,-321.13 1035.92,-320.2"/>
</g>
<!-- Node4 -->
<g id="node4" class="node">
<title>Node4</title>
<g id="a_node4"><a xlink:href="vector__space_8_h.html" target="_top" xlink:title=" ">
<polygon fill="white" stroke="black" points="632,-235.5 632,-254.5 724,-254.5 724,-235.5 632,-235.5"/>
<text text-anchor="middle" x="678" y="-242.5" font-family="Helvetica,sans-Serif" font-size="10.00">vector_space.H</text>
</a>
</g>
</g>
<!-- Node3&#45;&gt;Node4 -->
<g id="edge3" class="edge">
<title>Node3&#45;&gt;Node4</title>
<path fill="none" stroke="midnightblue" d="M987.05,-293.96C922.41,-283.93 793.25,-263.88 724.14,-253.16"/>
<polygon fill="midnightblue" stroke="midnightblue" points="986.81,-297.46 997.23,-295.54 987.88,-290.54 986.81,-297.46"/>
</g>
<!-- Node5 -->
<g id="node5" class="node">
<title>Node5</title>
<g id="a_node5"><a xlink:href="_multi_parser_8_h.html" target="_top" xlink:title=" ">
<polygon fill="white" stroke="black" points="913.5,-179.5 913.5,-198.5 994.5,-198.5 994.5,-179.5 913.5,-179.5"/>
<text text-anchor="middle" x="954" y="-186.5" font-family="Helvetica,sans-Serif" font-size="10.00">MultiParser.H</text>
</a>
</g>
</g>
<!-- Node4&#45;&gt;Node5 -->
<g id="edge4" class="edge">
<title>Node4&#45;&gt;Node5</title>
<path fill="none" stroke="midnightblue" d="M731.65,-233.5C784.8,-223.1 865.01,-207.41 913.17,-197.99"/>
<polygon fill="midnightblue" stroke="midnightblue" points="730.87,-230.09 721.73,-235.44 732.22,-236.96 730.87,-230.09"/>
</g>
<!-- Node40 -->
<g id="node11" class="node">
<title>Node40</title>
<g id="a_node11"><a xlink:href="_i_b_types_8_h.html" target="_top" xlink:title=" ">
<polygon fill="white" stroke="red" points="1019.5,-179.5 1019.5,-198.5 1084.5,-198.5 1084.5,-179.5 1019.5,-179.5"/>
<text text-anchor="middle" x="1052" y="-186.5" font-family="Helvetica,sans-Serif" font-size="10.00">IBTypes.H</text>
</a>
</g>
</g>
<!-- Node4&#45;&gt;Node40 -->
<g id="edge12" class="edge">
<title>Node4&#45;&gt;Node40</title>
<path fill="none" stroke="midnightblue" d="M734.13,-236.99C799,-228.71 908.91,-214.15 1003,-199 1008.29,-198.15 1013.9,-197.18 1019.35,-196.2"/>
<polygon fill="midnightblue" stroke="midnightblue" points="733.59,-233.53 724.11,-238.27 734.47,-240.48 733.59,-233.53"/>
</g>
<!-- Node41 -->
<g id="node12" class="node">
<title>Node41</title>
<g id="a_node12"><a xlink:href="_bluff_body_8_h.html" target="_top" xlink:title=" ">
<polygon fill="white" stroke="red" points="1087.5,-118 1087.5,-137 1160.5,-137 1160.5,-118 1087.5,-118"/>
<text text-anchor="middle" x="1124" y="-125" font-family="Helvetica,sans-Serif" font-size="10.00">BluffBody.H</text>
</a>
</g>
</g>
<!-- Node4&#45;&gt;Node41 -->
<g id="edge17" class="edge">
<title>Node4&#45;&gt;Node41</title>
<path fill="none" stroke="midnightblue" d="M734.27,-244.68C834.17,-244.81 1037.24,-239.85 1093,-199 1113.49,-183.99 1120.64,-152.42 1122.97,-137.15"/>
<polygon fill="midnightblue" stroke="midnightblue" points="734.08,-241.18 724.06,-244.65 734.05,-248.18 734.08,-241.18"/>
</g>
<!-- Node46 -->
<g id="node13" class="node">
<title>Node46</title>
<g id="a_node13"><a xlink:href="_synthetic_turbulence_8_h.html" target="_top" xlink:title=" ">
<polygon fill="white" stroke="black" points="1168.5,-179.5 1168.5,-198.5 1293.5,-198.5 1293.5,-179.5 1168.5,-179.5"/>
<text text-anchor="middle" x="1231" y="-186.5" font-family="Helvetica,sans-Serif" font-size="10.00">SyntheticTurbulence.H</text>
</a>
</g>
</g>
<!-- Node4&#45;&gt;Node46 -->
<g id="edge18" class="edge">
<title>Node4&#45;&gt;Node46</title>
<path fill="none" stroke="midnightblue" d="M734.18,-238.51C838.11,-228.37 1059.67,-206.73 1168.31,-196.12"/>
<polygon fill="midnightblue" stroke="midnightblue" points="733.81,-235.03 724.2,-239.49 734.49,-242 733.81,-235.03"/>
</g>
<!-- Node48 -->
<g id="node15" class="node">
<title>Node48</title>
<g id="a_node15"><a xlink:href="_lidar_sampler_8_h.html" target="_top" xlink:title=" ">
<polygon fill="white" stroke="red" points="632.5,-179.5 632.5,-198.5 723.5,-198.5 723.5,-179.5 632.5,-179.5"/>
<text text-anchor="middle" x="678" y="-186.5" font-family="Helvetica,sans-Serif" font-size="10.00">LidarSampler.H</text>
</a>
</g>
</g>
<!-- Node4&#45;&gt;Node48 -->
<g id="edge20" class="edge">
<title>Node4&#45;&gt;Node48</title>
<path fill="none" stroke="midnightblue" d="M678,-224.8C678,-215.91 678,-205.78 678,-198.75"/>
<polygon fill="midnightblue" stroke="midnightblue" points="674.5,-225.08 678,-235.08 681.5,-225.08 674.5,-225.08"/>
</g>
<!-- Node49 -->
<g id="node16" class="node">
<title>Node49</title>
<g id="a_node16"><a xlink:href="_d_t_u_spinner_sampler_8_h.html" target="_top" xlink:title=" ">
<polygon fill="white" stroke="red" points="615.5,-118 615.5,-137 740.5,-137 740.5,-118 615.5,-118"/>
<text text-anchor="middle" x="678" y="-125" font-family="Helvetica,sans-Serif" font-size="10.00">DTUSpinnerSampler.H</text>
</a>
</g>
</g>
<!-- Node4&#45;&gt;Node49 -->
<g id="edge22" class="edge">
<title>Node4&#45;&gt;Node49</title>
<path fill="none" stroke="midnightblue" d="M734.46,-238.06C783.44,-231.61 848.94,-219.39 865,-199 870.5,-192.02 870.4,-186.06 865,-179 856.08,-167.35 772.43,-148.12 720.08,-137.05"/>
<polygon fill="midnightblue" stroke="midnightblue" points="733.76,-234.62 724.28,-239.35 734.64,-241.57 733.76,-234.62"/>
</g>
<!-- Node52 -->
<g id="node17" class="node">
<title>Node52</title>
<g id="a_node17"><a xlink:href="_box_refiner_8_h.html" target="_top" xlink:title=" ">
<polygon fill="white" stroke="red" points="118,-179.5 118,-198.5 198,-198.5 198,-179.5 118,-179.5"/>
<text text-anchor="middle" x="158" y="-186.5" font-family="Helvetica,sans-Serif" font-size="10.00">BoxRefiner.H</text>
</a>
</g>
</g>
<!-- Node4&#45;&gt;Node52 -->
<g id="edge23" class="edge">
<title>Node4&#45;&gt;Node52</title>
<path fill="none" stroke="midnightblue" d="M621.62,-240.2C533.06,-233.86 356.08,-219.77 207,-199 204.09,-198.59 201.08,-198.14 198.07,-197.65"/>
<polygon fill="midnightblue" stroke="midnightblue" points="621.49,-243.7 631.72,-240.91 621.99,-236.71 621.49,-243.7"/>
</g>
<!-- Node54 -->
<g id="node18" class="node">
<title>Node54</title>
<g id="a_node18"><a xlink:href="_cylinder_refiner_8_h.html" target="_top" xlink:title=" ">
<polygon fill="white" stroke="red" points="216.5,-179.5 216.5,-198.5 317.5,-198.5 317.5,-179.5 216.5,-179.5"/>
<text text-anchor="middle" x="267" y="-186.5" font-family="Helvetica,sans-Serif" font-size="10.00">CylinderRefiner.H</text>
</a>
</g>
</g>
<!-- Node4&#45;&gt;Node54 -->
<g id="edge24" class="edge">
<title>Node4&#45;&gt;Node54</title>
<path fill="none" stroke="midnightblue" d="M621.67,-236.82C553.18,-228.05 434.08,-212.7 332,-199 327.37,-198.38 322.56,-197.73 317.74,-197.07"/>
<polygon fill="midnightblue" stroke="midnightblue" points="621.45,-240.32 631.81,-238.12 622.34,-233.38 621.45,-240.32"/>
</g>
<!-- Node56 -->
<g id="node19" class="node">
<title>Node56</title>
<g id="a_node19"><a xlink:href="actuator__types_8_h.html" target="_top" xlink:title=" ">
<polygon fill="white" stroke="red" points="0,-179.5 0,-198.5 100,-198.5 100,-179.5 0,-179.5"/>
<text text-anchor="middle" x="50" y="-186.5" font-family="Helvetica,sans-Serif" font-size="10.00">actuator_types.H</text>
</a>
</g>
</g>
<!-- Node4&#45;&gt;Node56 -->
<g id="edge25" class="edge">
<title>Node4&#45;&gt;Node56</title>
<path fill="none" stroke="midnightblue" d="M621.69,-240.9C519.38,-234.97 296.24,-220.66 109,-199 106.12,-198.67 103.16,-198.3 100.18,-197.91"/>
<polygon fill="midnightblue" stroke="midnightblue" points="621.61,-244.4 631.79,-241.48 622.01,-237.42 621.61,-244.4"/>
</g>
<!-- Node70 -->
<g id="node20" class="node">
<title>Node70</title>
<g id="a_node20"><a xlink:href="_actuator_wing_8_h.html" target="_top" xlink:title=" ">
<polygon fill="white" stroke="red" points="206.5,-118 206.5,-137 299.5,-137 299.5,-118 206.5,-118"/>
<text text-anchor="middle" x="253" y="-125" font-family="Helvetica,sans-Serif" font-size="10.00">ActuatorWing.H</text>
</a>
</g>
</g>
<!-- Node4&#45;&gt;Node70 -->
<g id="edge32" class="edge">
<title>Node4&#45;&gt;Node70</title>
<path fill="none" stroke="midnightblue" d="M621.69,-242.92C557.67,-240.11 450.91,-230.58 365,-199 343.87,-191.23 289.44,-154.03 265.09,-137.02"/>
<polygon fill="midnightblue" stroke="midnightblue" points="621.84,-246.43 631.97,-243.33 622.12,-239.44 621.84,-246.43"/>
</g>
<!-- Node71 -->
<g id="node21" class="node">
<title>Node71</title>
<g id="a_node21"><a xlink:href="actuator__utils_8_h.html" target="_top" xlink:title=" ">
<polygon fill="white" stroke="red" points="482,-179.5 482,-198.5 576,-198.5 576,-179.5 482,-179.5"/>
<text text-anchor="middle" x="529" y="-186.5" font-family="Helvetica,sans-Serif" font-size="10.00">actuator_utils.H</text>
</a>
</g>
</g>
<!-- Node4&#45;&gt;Node71 -->
<g id="edge27" class="edge">
<title>Node4&#45;&gt;Node71</title>
<path fill="none" stroke="midnightblue" d="M644.63,-231.91C616.62,-221.75 577.3,-207.51 552.5,-198.52"/>
<polygon fill="midnightblue" stroke="midnightblue" points="643.8,-235.33 654.39,-235.44 646.18,-228.75 643.8,-235.33"/>
</g>
<!-- Node60 -->
<g id="node22" class="node">
<title>Node60</title>
<g id="a_node22"><a xlink:href="_actuator_disk_8_h.html" target="_top" xlink:title=" ">
<polygon fill="white" stroke="red" points="374,-179.5 374,-198.5 464,-198.5 464,-179.5 374,-179.5"/>
<text text-anchor="middle" x="419" y="-186.5" font-family="Helvetica,sans-Serif" font-size="10.00">ActuatorDisk.H</text>
</a>
</g>
</g>
<!-- Node4&#45;&gt;Node60 -->
<g id="edge28" class="edge">
<title>Node4&#45;&gt;Node60</title>
<path fill="none" stroke="midnightblue" d="M626.9,-233.35C577.95,-223.14 505.05,-207.94 459.85,-198.52"/>
<polygon fill="midnightblue" stroke="midnightblue" points="626.46,-236.83 636.96,-235.44 627.89,-229.98 626.46,-236.83"/>
</g>
<!-- Node63 -->
<g id="node23" class="node">
<title>Node63</title>
<g id="a_node23"><a xlink:href="_joukowsky_8_h.html" target="_top" xlink:title=" ">
<polygon fill="white" stroke="red" points="450.5,-118 450.5,-137 527.5,-137 527.5,-118 450.5,-118"/>
<text text-anchor="middle" x="489" y="-125" font-family="Helvetica,sans-Serif" font-size="10.00">Joukowsky.H</text>
</a>
</g>
</g>
<!-- Node4&#45;&gt;Node63 -->
<g id="edge31" class="edge">
<title>Node4&#45;&gt;Node63</title>
<path fill="none" stroke="midnightblue" d="M658.37,-229.19C639.87,-215.51 611.17,-194.94 585,-179 558.62,-162.93 526.64,-146.73 507.06,-137.15"/>
<polygon fill="midnightblue" stroke="midnightblue" points="656.46,-232.14 666.57,-235.31 660.64,-226.53 656.46,-232.14"/>
</g>
<!-- Node73 -->
<g id="node24" class="node">
<title>Node73</title>
<g id="a_node24"><a xlink:href="_actuator_container_8_h.html" target="_top" xlink:title=" ">
<polygon fill="white" stroke="red" points="741.5,-179.5 741.5,-198.5 856.5,-198.5 856.5,-179.5 741.5,-179.5"/>
<text text-anchor="middle" x="799" y="-186.5" font-family="Helvetica,sans-Serif" font-size="10.00">ActuatorContainer.H</text>
</a>
</g>
</g>
<!-- Node4&#45;&gt;Node73 -->
<g id="edge30" class="edge">
<title>Node4&#45;&gt;Node73</title>
<path fill="none" stroke="midnightblue" d="M706.31,-231.37C728.97,-221.26 760.13,-207.35 779.92,-198.52"/>
<polygon fill="midnightblue" stroke="midnightblue" points="704.88,-228.17 697.17,-235.44 707.73,-234.56 704.88,-228.17"/>
</g>
<!-- Node6 -->
<g id="node6" class="node">
<title>Node6</title>
<g id="a_node6"><a xlink:href="bluff__body__ops_8_h.html" target="_top" xlink:title=" ">
<polygon fill="white" stroke="red" points="946.5,-56.5 946.5,-75.5 1047.5,-75.5 1047.5,-56.5 946.5,-56.5"/>
<text text-anchor="middle" x="997" y="-63.5" font-family="Helvetica,sans-Serif" font-size="10.00">bluff_body_ops.H</text>
</a>
</g>
</g>
<!-- Node5&#45;&gt;Node6 -->
<g id="edge5" class="edge">
<title>Node5&#45;&gt;Node6</title>
<path fill="none" stroke="midnightblue" d="M950.2,-169.04C947.89,-153.2 946.65,-130.33 954,-112 960.11,-96.76 974.13,-83.75 984.5,-75.7"/>
<polygon fill="midnightblue" stroke="midnightblue" points="946.79,-169.91 951.95,-179.17 953.69,-168.72 946.79,-169.91"/>
</g>
<!-- Node7 -->
<g id="node7" class="node">
<title>Node7</title>
<g id="a_node7"><a xlink:href="bluff__body__ops_8cpp.html" target="_top" xlink:title=" ">
<polygon fill="white" stroke="black" points="797,-0.5 797,-19.5 907,-19.5 907,-0.5 797,-0.5"/>
<text text-anchor="middle" x="852" y="-7.5" font-family="Helvetica,sans-Serif" font-size="10.00">bluff_body_ops.cpp</text>
</a>
</g>
</g>
<!-- Node5&#45;&gt;Node7 -->
<g id="edge7" class="edge">
<title>Node5&#45;&gt;Node7</title>
<path fill="none" stroke="midnightblue" d="M903.21,-177.82C868.69,-169.74 827.46,-157.44 817,-143 788.36,-103.44 828.47,-42.07 845.24,-19.61"/>
<polygon fill="midnightblue" stroke="midnightblue" points="902.68,-181.28 913.21,-180.08 904.23,-174.46 902.68,-181.28"/>
</g>
<!-- Node14 -->
<g id="node8" class="node">
<title>Node14</title>
<g id="a_node8"><a xlink:href="_i_b_model_8_h.html" target="_top" xlink:title=" ">
<polygon fill="white" stroke="red" points="963.5,-118 963.5,-137 1030.5,-137 1030.5,-118 963.5,-118"/>
<text text-anchor="middle" x="997" y="-125" font-family="Helvetica,sans-Serif" font-size="10.00">IBModel.H</text>
</a>
</g>
</g>
<!-- Node5&#45;&gt;Node14 -->
<g id="edge8" class="edge">
<title>Node5&#45;&gt;Node14</title>
<path fill="none" stroke="midnightblue" d="M966.04,-171.34C974.11,-160.17 984.41,-145.93 990.85,-137.01"/>
<polygon fill="midnightblue" stroke="midnightblue" points="963.18,-169.32 960.16,-179.48 968.86,-173.42 963.18,-169.32"/>
</g>
<!-- Node15 -->
<g id="node9" class="node">
<title>Node15</title>
<g id="a_node9"><a xlink:href="_i_b_8cpp.html" target="_top" xlink:title=" ">
<polygon fill="white" stroke="black" points="870.5,-56.5 870.5,-75.5 917.5,-75.5 917.5,-56.5 870.5,-56.5"/>
<text text-anchor="middle" x="894" y="-63.5" font-family="Helvetica,sans-Serif" font-size="10.00">IB.cpp</text>
</a>
</g>
</g>
<!-- Node5&#45;&gt;Node15 -->
<g id="edge10" class="edge">
<title>Node5&#45;&gt;Node15</title>
<path fill="none" stroke="midnightblue" d="M903.23,-183.98C875.55,-178.9 843.46,-167.65 826,-143 818.04,-131.76 819.48,-124.14 826,-112 835.38,-94.54 854.84,-82.72 870.55,-75.59"/>
<polygon fill="midnightblue" stroke="midnightblue" points="902.77,-187.45 913.2,-185.59 903.88,-180.54 902.77,-187.45"/>
</g>
<!-- Node16 -->
<g id="node10" class="node">
<title>Node16</title>
<g id="a_node10"><a xlink:href="_act_parser_8_h.html" target="_top" xlink:title=" ">
<polygon fill="white" stroke="red" points="835,-118 835,-137 907,-137 907,-118 835,-118"/>
<text text-anchor="middle" x="871" y="-125" font-family="Helvetica,sans-Serif" font-size="10.00">ActParser.H</text>
</a>
</g>
</g>
<!-- Node5&#45;&gt;Node16 -->
<g id="edge11" class="edge">
<title>Node5&#45;&gt;Node16</title>
<path fill="none" stroke="midnightblue" d="M933.93,-173.61C917.97,-162.17 896.17,-146.55 882.87,-137.01"/>
<polygon fill="midnightblue" stroke="midnightblue" points="931.94,-176.49 942.11,-179.48 936.02,-170.8 931.94,-176.49"/>
</g>
<!-- Node6&#45;&gt;Node7 -->
<g id="edge6" class="edge">
<title>Node6&#45;&gt;Node7</title>
<path fill="none" stroke="midnightblue" d="M964.52,-52.91C937.26,-42.75 899.01,-28.51 874.87,-19.52"/>
<polygon fill="midnightblue" stroke="midnightblue" points="963.43,-56.23 974.02,-56.44 965.87,-49.67 963.43,-56.23"/>
</g>
<!-- Node14&#45;&gt;Node15 -->
<g id="edge9" class="edge">
<title>Node14&#45;&gt;Node15</title>
<path fill="none" stroke="midnightblue" d="M973.46,-112.9C953.54,-101.4 925.62,-85.27 908.73,-75.51"/>
<polygon fill="midnightblue" stroke="midnightblue" points="971.83,-116 982.24,-117.98 975.33,-109.94 971.83,-116"/>
</g>
<!-- Node40&#45;&gt;Node6 -->
<g id="edge15" class="edge">
<title>Node40&#45;&gt;Node6</title>
<path fill="none" stroke="midnightblue" d="M1051.74,-168.85C1050.83,-152.89 1047.9,-129.95 1039,-112 1031.69,-97.25 1017.98,-83.97 1008.21,-75.72"/>
<polygon fill="midnightblue" stroke="midnightblue" points="1048.25,-169.19 1052.1,-179.06 1055.25,-168.95 1048.25,-169.19"/>
</g>
<!-- Node40&#45;&gt;Node14 -->
<g id="edge16" class="edge">
<title>Node40&#45;&gt;Node14</title>
<path fill="none" stroke="midnightblue" d="M1037.21,-172C1026.8,-160.74 1013.27,-146.1 1004.87,-137.01"/>
<polygon fill="midnightblue" stroke="midnightblue" points="1034.76,-174.51 1044.12,-179.48 1039.9,-169.76 1034.76,-174.51"/>
</g>
<!-- Node40&#45;&gt;Node41 -->
<g id="edge13" class="edge">
<title>Node40&#45;&gt;Node41</title>
<path fill="none" stroke="midnightblue" d="M1070.18,-172.97C1083.96,-161.59 1102.38,-146.37 1113.7,-137.01"/>
<polygon fill="midnightblue" stroke="midnightblue" points="1067.79,-170.41 1062.32,-179.48 1072.25,-175.8 1067.79,-170.41"/>
</g>
<!-- Node41&#45;&gt;Node6 -->
<g id="edge14" class="edge">
<title>Node41&#45;&gt;Node6</title>
<path fill="none" stroke="midnightblue" d="M1096.62,-113.67C1071.98,-102.13 1036.46,-85.49 1015.16,-75.51"/>
<polygon fill="midnightblue" stroke="midnightblue" points="1095.26,-116.9 1105.8,-117.98 1098.23,-110.56 1095.26,-116.9"/>
</g>
<!-- Node46&#45;&gt;Node47 -->
<g id="edge19" class="edge">
<title>Node46&#45;&gt;Node47</title>
<path fill="none" stroke="midnightblue" d="M1235.62,-169.66C1238.37,-158.77 1241.72,-145.49 1243.85,-137.01"/>
<polygon fill="midnightblue" stroke="midnightblue" points="1232.2,-168.92 1233.15,-179.48 1238.99,-170.63 1232.2,-168.92"/>
</g>
<!-- Node48&#45;&gt;Node49 -->
<g id="edge21" class="edge">
<title>Node48&#45;&gt;Node49</title>
<path fill="none" stroke="midnightblue" d="M678,-169.32C678,-158.5 678,-145.4 678,-137.01"/>
<polygon fill="midnightblue" stroke="midnightblue" points="674.5,-169.48 678,-179.48 681.5,-169.48 674.5,-169.48"/>
</g>
<!-- Node56&#45;&gt;Node70 -->
<g id="edge26" class="edge">
<title>Node56&#45;&gt;Node70</title>
<path fill="none" stroke="midnightblue" d="M88.89,-176.6C128.34,-165.04 188.49,-147.41 223.97,-137.01"/>
<polygon fill="midnightblue" stroke="midnightblue" points="87.7,-173.3 79.08,-179.48 89.67,-180.02 87.7,-173.3"/>
</g>
<!-- Node60&#45;&gt;Node63 -->
<g id="edge29" class="edge">
<title>Node60&#45;&gt;Node63</title>
<path fill="none" stroke="midnightblue" d="M436.68,-172.97C450.07,-161.59 467.98,-146.37 478.99,-137.01"/>
<polygon fill="midnightblue" stroke="midnightblue" points="434.38,-170.33 429.03,-179.48 438.92,-175.67 434.38,-170.33"/>
</g>
<!-- Node76 -->
<g id="node26" class="node">
<title>Node76</title>
<g id="a_node26"><a xlink:href="_a_b_l_wall_function_8_h.html" target="_top" xlink:title=" ">
<polygon fill="white" stroke="black" points="1761.5,-291.5 1761.5,-310.5 1868.5,-310.5 1868.5,-291.5 1761.5,-291.5"/>
<text text-anchor="middle" x="1815" y="-298.5" font-family="Helvetica,sans-Serif" font-size="10.00">ABLWallFunction.H</text>
</a>
</g>
</g>
<!-- Node75&#45;&gt;Node76 -->
<g id="edge35" class="edge">
<title>Node75&#45;&gt;Node76</title>
<path fill="none" stroke="midnightblue" d="M1925.97,-343.91C1899.09,-333.75 1861.36,-319.51 1837.55,-310.52"/>
<polygon fill="midnightblue" stroke="midnightblue" points="1924.75,-347.19 1935.34,-347.44 1927.22,-340.64 1924.75,-347.19"/>
</g>
<!-- Node89 -->
<g id="node39" class="node">
<title>Node89</title>
<g id="a_node39"><a xlink:href="_shear_stress_8_h.html" target="_top" xlink:title=" ">
<polygon fill="white" stroke="black" points="1945.5,-235.5 1945.5,-254.5 2030.5,-254.5 2030.5,-235.5 1945.5,-235.5"/>
<text text-anchor="middle" x="1988" y="-242.5" font-family="Helvetica,sans-Serif" font-size="10.00">ShearStress.H</text>
</a>
</g>
</g>
<!-- Node75&#45;&gt;Node89 -->
<g id="edge51" class="edge">
<title>Node75&#45;&gt;Node89</title>
<path fill="none" stroke="midnightblue" d="M1948.64,-338.24C1942.9,-324.89 1937.75,-306.33 1944,-291 1950.27,-275.62 1964.61,-262.64 1975.22,-254.63"/>
<polygon fill="midnightblue" stroke="midnightblue" points="1945.49,-339.78 1952.96,-347.3 1951.81,-336.77 1945.49,-339.78"/>
</g>
<!-- Node90 -->
<g id="node40" class="node">
<title>Node90</title>
<g id="a_node40"><a xlink:href="_m_o_data_8cpp.html" target="_top" xlink:title=" ">
<polygon fill="white" stroke="black" points="1953.5,-291.5 1953.5,-310.5 2030.5,-310.5 2030.5,-291.5 1953.5,-291.5"/>
<text text-anchor="middle" x="1992" y="-298.5" font-family="Helvetica,sans-Serif" font-size="10.00">MOData.cpp</text>
</a>
</g>
</g>
<!-- Node75&#45;&gt;Node90 -->
<g id="edge53" class="edge">
<title>Node75&#45;&gt;Node90</title>
<path fill="none" stroke="midnightblue" d="M1968.98,-338.57C1974.83,-329.27 1981.77,-318.25 1986.49,-310.75"/>
<polygon fill="midnightblue" stroke="midnightblue" points="1965.98,-336.76 1963.61,-347.08 1971.9,-340.49 1965.98,-336.76"/>
</g>
<!-- Node77 -->
<g id="node27" class="node">
<title>Node77</title>
<g id="a_node27"><a xlink:href="_a_b_l_8_h.html" target="_top" xlink:title=" ">
<polygon fill="white" stroke="black" points="1796,-179.5 1796,-198.5 1842,-198.5 1842,-179.5 1796,-179.5"/>
<text text-anchor="middle" x="1819" y="-186.5" font-family="Helvetica,sans-Serif" font-size="10.00">ABL.H</text>
</a>
</g>
</g>
<!-- Node76&#45;&gt;Node77 -->
<g id="edge36" class="edge">
<title>Node76&#45;&gt;Node77</title>
<path fill="none" stroke="midnightblue" d="M1836.17,-285.04C1845.33,-277.26 1855.08,-266.88 1860,-255 1869.04,-233.18 1845.98,-210.46 1830.89,-198.52"/>
<polygon fill="midnightblue" stroke="midnightblue" points="1833.75,-282.49 1828.06,-291.44 1838.08,-287.99 1833.75,-282.49"/>
</g>
<!-- Node76&#45;&gt;Node84 -->
<g id="edge50" class="edge">
<title>Node76&#45;&gt;Node84</title>
<path fill="none" stroke="midnightblue" d="M1838.18,-286.34C1895.83,-252.36 2044.43,-164.79 2091.48,-137.06"/>
<polygon fill="midnightblue" stroke="midnightblue" points="1836.27,-283.4 1829.43,-291.5 1839.82,-289.43 1836.27,-283.4"/>
</g>
<!-- Node85 -->
<g id="node35" class="node">
<title>Node85</title>
<g id="a_node35"><a xlink:href="_a_b_l_stats_base_8_h.html" target="_top" xlink:title=" ">
<polygon fill="white" stroke="black" points="1611.5,-235.5 1611.5,-254.5 1706.5,-254.5 1706.5,-235.5 1611.5,-235.5"/>
<text text-anchor="middle" x="1659" y="-242.5" font-family="Helvetica,sans-Serif" font-size="10.00">ABLStatsBase.H</text>
</a>
</g>
</g>
<!-- Node76&#45;&gt;Node85 -->
<g id="edge44" class="edge">
<title>Node76&#45;&gt;Node85</title>
<path fill="none" stroke="midnightblue" d="M1780.83,-288.17C1751.46,-278 1709.8,-263.59 1683.6,-254.52"/>
<polygon fill="midnightblue" stroke="midnightblue" points="1779.69,-291.48 1790.28,-291.44 1781.98,-284.86 1779.69,-291.48"/>
</g>
<!-- Node86 -->
<g id="node36" class="node">
<title>Node86</title>
<g id="a_node36"><a xlink:href="_a_b_l_stats_8_h.html" target="_top" xlink:title=" ">
<polygon fill="white" stroke="black" points="1547.5,-179.5 1547.5,-198.5 1618.5,-198.5 1618.5,-179.5 1547.5,-179.5"/>
<text text-anchor="middle" x="1583" y="-186.5" font-family="Helvetica,sans-Serif" font-size="10.00">ABLStats.H</text>
</a>
</g>
</g>
<!-- Node76&#45;&gt;Node86 -->
<g id="edge49" class="edge">
<title>Node76&#45;&gt;Node86</title>
<path fill="none" stroke="midnightblue" d="M1751.33,-293.76C1696.68,-287.15 1623.43,-274.86 1602,-255 1585.96,-240.14 1583.2,-212.56 1582.89,-198.59"/>
<polygon fill="midnightblue" stroke="midnightblue" points="1750.97,-297.24 1761.31,-294.93 1751.78,-290.29 1750.97,-297.24"/>
</g>
<!-- Node88 -->
<g id="node38" class="node">
<title>Node88</title>
<g id="a_node38"><a xlink:href="_boussinesq_bubble_8cpp.html" target="_top" xlink:title=" ">
<polygon fill="white" stroke="black" points="1725,-235.5 1725,-254.5 1851,-254.5 1851,-235.5 1725,-235.5"/>
<text text-anchor="middle" x="1788" y="-242.5" font-family="Helvetica,sans-Serif" font-size="10.00">BoussinesqBubble.cpp</text>
</a>
</g>
</g>
<!-- Node76&#45;&gt;Node88 -->
<g id="edge48" class="edge">
<title>Node76&#45;&gt;Node88</title>
<path fill="none" stroke="midnightblue" d="M1805.99,-281.98C1801.41,-272.82 1796.05,-262.09 1792.38,-254.75"/>
<polygon fill="midnightblue" stroke="midnightblue" points="1802.94,-283.7 1810.54,-291.08 1809.2,-280.57 1802.94,-283.7"/>
</g>
<!-- Node78 -->
<g id="node28" class="node">
<title>Node78</title>
<g id="a_node28"><a xlink:href="_a_b_l_forcing_8cpp.html" target="_top" xlink:title=" ">
<polygon fill="white" stroke="black" points="1938.5,-118 1938.5,-137 2029.5,-137 2029.5,-118 1938.5,-118"/>
<text text-anchor="middle" x="1984" y="-125" font-family="Helvetica,sans-Serif" font-size="10.00">ABLForcing.cpp</text>
</a>
</g>
</g>
<!-- Node77&#45;&gt;Node78 -->
<g id="edge37" class="edge">
<title>Node77&#45;&gt;Node78</title>
<path fill="none" stroke="midnightblue" d="M1852.09,-176.07C1884.12,-164.52 1931.89,-147.29 1960.29,-137.05"/>
<polygon fill="midnightblue" stroke="midnightblue" points="1850.51,-172.92 1842.29,-179.6 1852.88,-179.5 1850.51,-172.92"/>
</g>
<!-- Node79 -->
<g id="node29" class="node">
<title>Node79</title>
<g id="a_node29"><a xlink:href="_a_b_l_mean_boussinesq_8cpp.html" target="_top" xlink:title=" ">
<polygon fill="white" stroke="black" points="1430,-118 1430,-137 1568,-137 1568,-118 1430,-118"/>
<text text-anchor="middle" x="1499" y="-125" font-family="Helvetica,sans-Serif" font-size="10.00">ABLMeanBoussinesq.cpp</text>
</a>
</g>
</g>
<!-- Node77&#45;&gt;Node79 -->
<g id="edge38" class="edge">
<title>Node77&#45;&gt;Node79</title>
<path fill="none" stroke="midnightblue" d="M1786,-181.86C1728.6,-171.19 1610.24,-149.18 1544.88,-137.03"/>
<polygon fill="midnightblue" stroke="midnightblue" points="1785.52,-185.33 1795.99,-183.72 1786.79,-178.45 1785.52,-185.33"/>
</g>
<!-- Node80 -->
<g id="node30" class="node">
<title>Node80</title>
<g id="a_node30"><a xlink:href="incflo_8cpp.html" target="_top" xlink:title=" ">
<polygon fill="white" stroke="black" points="1586.5,-118 1586.5,-137 1649.5,-137 1649.5,-118 1586.5,-118"/>
<text text-anchor="middle" x="1618" y="-125" font-family="Helvetica,sans-Serif" font-size="10.00">incflo.cpp</text>
</a>
</g>
</g>
<!-- Node77&#45;&gt;Node80 -->
<g id="edge39" class="edge">
<title>Node77&#45;&gt;Node80</title>
<path fill="none" stroke="midnightblue" d="M1785.98,-179.55C1753.29,-171 1701.89,-157.07 1658,-143 1652.37,-141.2 1646.36,-139.1 1640.74,-137.08"/>
<polygon fill="midnightblue" stroke="midnightblue" points="1785.35,-183 1795.91,-182.13 1787.11,-176.23 1785.35,-183"/>
</g>
<!-- Node81 -->
<g id="node31" class="node">
<title>Node81</title>
<g id="a_node31"><a xlink:href="incflo__apply__nodal__projection_8cpp.html" target="_top" xlink:title=" ">
<polygon fill="white" stroke="black" points="1667.5,-112.5 1667.5,-142.5 1774.5,-142.5 1774.5,-112.5 1667.5,-112.5"/>
<text text-anchor="start" x="1675.5" y="-130.5" font-family="Helvetica,sans-Serif" font-size="10.00">incflo_apply_nodal</text>
<text text-anchor="middle" x="1721" y="-119.5" font-family="Helvetica,sans-Serif" font-size="10.00">_projection.cpp</text>
</a>
</g>
</g>
<!-- Node77&#45;&gt;Node81 -->
<g id="edge40" class="edge">
<title>Node77&#45;&gt;Node81</title>
<path fill="none" stroke="midnightblue" d="M1796.4,-174.28C1780.71,-164.75 1759.89,-152.11 1744.1,-142.52"/>
<polygon fill="midnightblue" stroke="midnightblue" points="1794.59,-177.28 1804.96,-179.48 1798.23,-171.29 1794.59,-177.28"/>
</g>
<!-- Node82 -->
<g id="node32" class="node">
<title>Node82</title>
<g id="a_node32"><a xlink:href="init_8cpp.html" target="_top" xlink:title=" ">
<polygon fill="white" stroke="black" points="1792.5,-118 1792.5,-137 1845.5,-137 1845.5,-118 1792.5,-118"/>
<text text-anchor="middle" x="1819" y="-125" font-family="Helvetica,sans-Serif" font-size="10.00">init.cpp</text>
</a>
</g>
</g>
<!-- Node77&#45;&gt;Node82 -->
<g id="edge41" class="edge">
<title>Node77&#45;&gt;Node82</title>
<path fill="none" stroke="midnightblue" d="M1819,-169.32C1819,-158.5 1819,-145.4 1819,-137.01"/>
<polygon fill="midnightblue" stroke="midnightblue" points="1815.5,-169.48 1819,-179.48 1822.5,-169.48 1815.5,-169.48"/>
</g>
<!-- Node83 -->
<g id="node33" class="node">
<title>Node83</title>
<g id="a_node33"><a xlink:href="_a_b_l_8cpp.html" target="_top" xlink:title=" ">
<polygon fill="white" stroke="black" points="1864,-118 1864,-137 1920,-137 1920,-118 1864,-118"/>
<text text-anchor="middle" x="1892" y="-125" font-family="Helvetica,sans-Serif" font-size="10.00">ABL.cpp</text>
</a>
</g>
</g>
<!-- Node77&#45;&gt;Node83 -->
<g id="edge42" class="edge">
<title>Node77&#45;&gt;Node83</title>
<path fill="none" stroke="midnightblue" d="M1837.44,-172.97C1851.4,-161.59 1870.08,-146.37 1881.56,-137.01"/>
<polygon fill="midnightblue" stroke="midnightblue" points="1835,-170.44 1829.46,-179.48 1839.42,-175.87 1835,-170.44"/>
</g>
<!-- Node77&#45;&gt;Node84 -->
<g id="edge43" class="edge">
<title>Node77&#45;&gt;Node84</title>
<path fill="none" stroke="midnightblue" d="M1851.9,-181.32C1894.76,-172.6 1972.02,-156.81 2038,-143 2047.1,-141.1 2056.87,-139.02 2066.1,-137.06"/>
<polygon fill="midnightblue" stroke="midnightblue" points="1851.13,-177.9 1842.03,-183.33 1852.53,-184.76 1851.13,-177.9"/>
</g>
<!-- Node85&#45;&gt;Node77 -->
<g id="edge45" class="edge">
<title>Node85&#45;&gt;Node77</title>
<path fill="none" stroke="midnightblue" d="M1693.88,-232.23C1724.81,-221.79 1769.1,-206.84 1795.84,-197.82"/>
<polygon fill="midnightblue" stroke="midnightblue" points="1692.71,-228.93 1684.35,-235.44 1694.95,-235.56 1692.71,-228.93"/>
</g>
<!-- Node85&#45;&gt;Node86 -->
<g id="edge46" class="edge">
<title>Node85&#45;&gt;Node86</title>
<path fill="none" stroke="midnightblue" d="M1638.42,-229.38C1624.69,-219.62 1607.07,-207.11 1595.43,-198.83"/>
<polygon fill="midnightblue" stroke="midnightblue" points="1636.61,-232.38 1646.79,-235.32 1640.66,-226.68 1636.61,-232.38"/>
</g>
<!-- Node87 -->
<g id="node37" class="node">
<title>Node87</title>
<g id="a_node37"><a xlink:href="_a_b_l_stats_8cpp.html" target="_top" xlink:title=" ">
<polygon fill="white" stroke="black" points="1332,-118 1332,-137 1412,-137 1412,-118 1332,-118"/>
<text text-anchor="middle" x="1372" y="-125" font-family="Helvetica,sans-Serif" font-size="10.00">ABLStats.cpp</text>
</a>
</g>
</g>
<!-- Node86&#45;&gt;Node87 -->
<g id="edge47" class="edge">
<title>Node86&#45;&gt;Node87</title>
<path fill="none" stroke="midnightblue" d="M1541.91,-176.79C1509.13,-167.8 1462.07,-154.78 1421,-143 1414.35,-141.09 1407.2,-139 1400.48,-137.01"/>
<polygon fill="midnightblue" stroke="midnightblue" points="1541.03,-180.18 1551.6,-179.44 1542.88,-173.43 1541.03,-180.18"/>
</g>
<!-- Node89&#45;&gt;Node84 -->
<g id="edge52" class="edge">
<title>Node89&#45;&gt;Node84</title>
<path fill="none" stroke="midnightblue" d="M2001.45,-227.23C2012.59,-213.7 2029.11,-194.45 2045,-179 2061.17,-163.28 2081.66,-146.98 2094.29,-137.29"/>
<polygon fill="midnightblue" stroke="midnightblue" points="1998.56,-225.23 1994.97,-235.19 2003.99,-229.65 1998.56,-225.23"/>
</g>
</g>
</svg>
