<?xml version="1.0" encoding="UTF-8" standalone="no"?>
<!DOCTYPE svg PUBLIC "-//W3C//DTD SVG 1.1//EN"
 "http://www.w3.org/Graphics/SVG/1.1/DTD/svg11.dtd">
<!-- Generated by graphviz version 2.43.0 (0)
 -->
<!-- Title: turbine_utils.cpp Pages: 1 -->
<svg width="1007pt" height="553pt"
 viewBox="0.00 0.00 1006.50 553.00" xmlns="http://www.w3.org/2000/svg" xmlns:xlink="http://www.w3.org/1999/xlink">
<g id="graph0" class="graph" transform="scale(1 1) rotate(0) translate(4 549)">
<title>turbine_utils.cpp</title>
<polygon fill="white" stroke="transparent" points="-4,4 -4,-549 1002.5,-549 1002.5,4 -4,4"/>
<!-- Node1 -->
<g id="node1" class="node">
<title>Node1</title>
<g id="a_node1"><a xlink:title=" ">
<polygon fill="#bfbfbf" stroke="black" points="547.5,-525.5 547.5,-544.5 645.5,-544.5 645.5,-525.5 547.5,-525.5"/>
<text text-anchor="middle" x="596.5" y="-532.5" font-family="Helvetica,sans-Serif" font-size="10.00">turbine_utils.cpp</text>
</a>
</g>
</g>
<!-- Node2 -->
<g id="node2" class="node">
<title>Node2</title>
<g id="a_node2"><a xlink:href="turbine__utils_8_h.html" target="_top" xlink:title=" ">
<polygon fill="white" stroke="black" points="214,-447.5 214,-488.5 349,-488.5 349,-447.5 214,-447.5"/>
<text text-anchor="start" x="222" y="-476.5" font-family="Helvetica,sans-Serif" font-size="10.00">amr&#45;wind/wind_energy</text>
<text text-anchor="start" x="222" y="-465.5" font-family="Helvetica,sans-Serif" font-size="10.00">/actuator/turbine/turbine</text>
<text text-anchor="middle" x="281.5" y="-454.5" font-family="Helvetica,sans-Serif" font-size="10.00">_utils.H</text>
</a>
</g>
</g>
<!-- Node1&#45;&gt;Node2 -->
<g id="edge1" class="edge">
<title>Node1&#45;&gt;Node2</title>
<path fill="none" stroke="midnightblue" d="M555,-525.44C505.3,-515.18 421.05,-497.8 359.15,-485.02"/>
<polygon fill="midnightblue" stroke="midnightblue" points="359.54,-481.53 349.03,-482.94 358.12,-488.38 359.54,-481.53"/>
</g>
<!-- Node26 -->
<g id="node26" class="node">
<title>Node26</title>
<g id="a_node26"><a xlink:href="nc__interface_8_h.html" target="_top" xlink:title=" ">
<polygon fill="white" stroke="black" points="534,-453 534,-483 659,-483 659,-453 534,-453"/>
<text text-anchor="start" x="542" y="-471" font-family="Helvetica,sans-Serif" font-size="10.00">amr&#45;wind/utilities</text>
<text text-anchor="middle" x="596.5" y="-460" font-family="Helvetica,sans-Serif" font-size="10.00">/ncutils/nc_interface.H</text>
</a>
</g>
</g>
<!-- Node1&#45;&gt;Node26 -->
<g id="edge37" class="edge">
<title>Node1&#45;&gt;Node26</title>
<path fill="none" stroke="midnightblue" d="M596.5,-525.23C596.5,-517.04 596.5,-504.42 596.5,-493.21"/>
<polygon fill="midnightblue" stroke="midnightblue" points="600,-493.09 596.5,-483.09 593,-493.09 600,-493.09"/>
</g>
<!-- Node32 -->
<g id="node32" class="node">
<title>Node32</title>
<g id="a_node32"><a xlink:href="io__utils_8_h.html" target="_top" xlink:title=" ">
<polygon fill="white" stroke="black" points="779,-453 779,-483 882,-483 882,-453 779,-453"/>
<text text-anchor="start" x="787" y="-471" font-family="Helvetica,sans-Serif" font-size="10.00">amr&#45;wind/utilities</text>
<text text-anchor="middle" x="830.5" y="-460" font-family="Helvetica,sans-Serif" font-size="10.00">/io_utils.H</text>
</a>
</g>
</g>
<!-- Node1&#45;&gt;Node32 -->
<g id="edge43" class="edge">
<title>Node1&#45;&gt;Node32</title>
<path fill="none" stroke="midnightblue" d="M627.57,-525.37C663.83,-515.3 724.61,-498.41 770.22,-485.74"/>
<polygon fill="midnightblue" stroke="midnightblue" points="771.3,-489.08 780,-483.03 769.43,-482.33 771.3,-489.08"/>
</g>
<!-- Node3 -->
<g id="node3" class="node">
<title>Node3</title>
<g id="a_node3"><a xlink:href="turbine__types_8_h.html" target="_top" xlink:title=" ">
<polygon fill="white" stroke="black" points="214,-369.5 214,-410.5 349,-410.5 349,-369.5 214,-369.5"/>
<text text-anchor="start" x="222" y="-398.5" font-family="Helvetica,sans-Serif" font-size="10.00">amr&#45;wind/wind_energy</text>
<text text-anchor="start" x="222" y="-387.5" font-family="Helvetica,sans-Serif" font-size="10.00">/actuator/turbine/turbine</text>
<text text-anchor="middle" x="281.5" y="-376.5" font-family="Helvetica,sans-Serif" font-size="10.00">_types.H</text>
</a>
</g>
</g>
<!-- Node2&#45;&gt;Node3 -->
<g id="edge2" class="edge">
<title>Node2&#45;&gt;Node3</title>
<path fill="none" stroke="midnightblue" d="M281.5,-447.43C281.5,-439.27 281.5,-429.62 281.5,-420.63"/>
<polygon fill="midnightblue" stroke="midnightblue" points="285,-420.51 281.5,-410.51 278,-420.51 285,-420.51"/>
</g>
<!-- Node23 -->
<g id="node23" class="node">
<title>Node23</title>
<g id="a_node23"><a xlink:href="_act_parser_8_h.html" target="_top" xlink:title=" ">
<polygon fill="white" stroke="black" points="67.5,-375 67.5,-405 195.5,-405 195.5,-375 67.5,-375"/>
<text text-anchor="start" x="75.5" y="-393" font-family="Helvetica,sans-Serif" font-size="10.00">amr&#45;wind/wind_energy</text>
<text text-anchor="middle" x="131.5" y="-382" font-family="Helvetica,sans-Serif" font-size="10.00">/actuator/ActParser.H</text>
</a>
</g>
</g>
<!-- Node2&#45;&gt;Node23 -->
<g id="edge33" class="edge">
<title>Node2&#45;&gt;Node23</title>
<path fill="none" stroke="midnightblue" d="M242.87,-447.43C219.98,-435.83 191.13,-421.21 168.53,-409.76"/>
<polygon fill="midnightblue" stroke="midnightblue" points="170.08,-406.62 159.58,-405.23 166.91,-412.87 170.08,-406.62"/>
</g>
<!-- Node4 -->
<g id="node4" class="node">
<title>Node4</title>
<g id="a_node4"><a xlink:href="actuator__types_8_h.html" target="_top" xlink:title=" ">
<polygon fill="white" stroke="black" points="359.5,-302.5 359.5,-332.5 505.5,-332.5 505.5,-302.5 359.5,-302.5"/>
<text text-anchor="start" x="367.5" y="-320.5" font-family="Helvetica,sans-Serif" font-size="10.00">amr&#45;wind/wind_energy</text>
<text text-anchor="middle" x="432.5" y="-309.5" font-family="Helvetica,sans-Serif" font-size="10.00">/actuator/actuator_types.H</text>
</a>
</g>
</g>
<!-- Node3&#45;&gt;Node4 -->
<g id="edge3" class="edge">
<title>Node3&#45;&gt;Node4</title>
<path fill="none" stroke="midnightblue" d="M323.56,-369.36C345.3,-359.21 371.68,-346.9 393.03,-336.93"/>
<polygon fill="midnightblue" stroke="midnightblue" points="394.57,-340.07 402.15,-332.67 391.61,-333.73 394.57,-340.07"/>
</g>
<!-- Node5 -->
<g id="node5" class="node">
<title>Node5</title>
<g id="a_node5"><a xlink:href="_slice_8_h.html" target="_top" xlink:title=" ">
<polygon fill="white" stroke="black" points="530.5,-241 530.5,-260 654.5,-260 654.5,-241 530.5,-241"/>
<text text-anchor="middle" x="592.5" y="-248" font-family="Helvetica,sans-Serif" font-size="10.00">amr&#45;wind/core/Slice.H</text>
</a>
</g>
</g>
<!-- Node4&#45;&gt;Node5 -->
<g id="edge4" class="edge">
<title>Node4&#45;&gt;Node5</title>
<path fill="none" stroke="midnightblue" d="M467.22,-302.4C495.54,-290.89 535.15,-274.8 562.21,-263.81"/>
<polygon fill="midnightblue" stroke="midnightblue" points="563.61,-267.01 571.56,-260.01 560.98,-260.53 563.61,-267.01"/>
</g>
<!-- Node8 -->
<g id="node8" class="node">
<title>Node8</title>
<g id="a_node8"><a xlink:title=" ">
<polygon fill="white" stroke="#bfbfbf" points="511,-0.5 511,-19.5 598,-19.5 598,-0.5 511,-0.5"/>
<text text-anchor="middle" x="554.5" y="-7.5" font-family="Helvetica,sans-Serif" font-size="10.00">AMReX_Gpu.H</text>
</a>
</g>
</g>
<!-- Node4&#45;&gt;Node8 -->
<g id="edge29" class="edge">
<title>Node4&#45;&gt;Node8</title>
<path fill="none" stroke="midnightblue" d="M505.56,-310.42C552.75,-304.16 614.3,-291.51 663.5,-266 707.9,-242.98 746.5,-240.02 746.5,-190 746.5,-190 746.5,-190 746.5,-132 746.5,-66.21 664.82,-34.77 608.01,-20.85"/>
<polygon fill="midnightblue" stroke="midnightblue" points="608.6,-17.4 598.07,-18.53 607.01,-24.21 608.6,-17.4"/>
</g>
<!-- Node9 -->
<g id="node9" class="node">
<title>Node9</title>
<g id="a_node9"><a xlink:href="vector__space_8_h.html" target="_top" xlink:title=" ">
<polygon fill="white" stroke="black" points="137,-235.5 137,-265.5 272,-265.5 272,-235.5 137,-235.5"/>
<text text-anchor="start" x="145" y="-253.5" font-family="Helvetica,sans-Serif" font-size="10.00">amr&#45;wind/core/vs/vector</text>
<text text-anchor="middle" x="204.5" y="-242.5" font-family="Helvetica,sans-Serif" font-size="10.00">_space.H</text>
</a>
</g>
</g>
<!-- Node4&#45;&gt;Node9 -->
<g id="edge8" class="edge">
<title>Node4&#45;&gt;Node9</title>
<path fill="none" stroke="midnightblue" d="M383.31,-302.48C348.22,-292.47 300.86,-278.97 263.7,-268.38"/>
<polygon fill="midnightblue" stroke="midnightblue" points="264.57,-264.99 254,-265.61 262.65,-271.72 264.57,-264.99"/>
</g>
<!-- Node20 -->
<g id="node20" class="node">
<title>Node20</title>
<g id="a_node20"><a xlink:title=" ">
<polygon fill="white" stroke="#bfbfbf" points="290.5,-241 290.5,-260 398.5,-260 398.5,-241 290.5,-241"/>
<text text-anchor="middle" x="344.5" y="-248" font-family="Helvetica,sans-Serif" font-size="10.00">AMReX_RealBox.H</text>
</a>
</g>
</g>
<!-- Node4&#45;&gt;Node20 -->
<g id="edge30" class="edge">
<title>Node4&#45;&gt;Node20</title>
<path fill="none" stroke="midnightblue" d="M413.41,-302.4C398.92,-291.7 379.07,-277.03 364.39,-266.19"/>
<polygon fill="midnightblue" stroke="midnightblue" points="366.14,-263.13 356.02,-260.01 361.98,-268.76 366.14,-263.13"/>
</g>
<!-- Node21 -->
<g id="node21" class="node">
<title>Node21</title>
<g id="a_node21"><a xlink:title=" ">
<polygon fill="white" stroke="#bfbfbf" points="416.5,-241 416.5,-260 448.5,-260 448.5,-241 416.5,-241"/>
<text text-anchor="middle" x="432.5" y="-248" font-family="Helvetica,sans-Serif" font-size="10.00">set</text>
</a>
</g>
</g>
<!-- Node4&#45;&gt;Node21 -->
<g id="edge31" class="edge">
<title>Node4&#45;&gt;Node21</title>
<path fill="none" stroke="midnightblue" d="M432.5,-302.4C432.5,-293.06 432.5,-280.71 432.5,-270.52"/>
<polygon fill="midnightblue" stroke="midnightblue" points="436,-270.19 432.5,-260.19 429,-270.19 436,-270.19"/>
</g>
<!-- Node22 -->
<g id="node22" class="node">
<title>Node22</title>
<g id="a_node22"><a xlink:title=" ">
<polygon fill="white" stroke="#bfbfbf" points="467,-241 467,-260 512,-260 512,-241 467,-241"/>
<text text-anchor="middle" x="489.5" y="-248" font-family="Helvetica,sans-Serif" font-size="10.00">utility</text>
</a>
</g>
</g>
<!-- Node4&#45;&gt;Node22 -->
<g id="edge32" class="edge">
<title>Node4&#45;&gt;Node22</title>
<path fill="none" stroke="midnightblue" d="M444.87,-302.4C453.76,-292.26 465.76,-278.57 475.09,-267.94"/>
<polygon fill="midnightblue" stroke="midnightblue" points="477.91,-270.02 481.88,-260.19 472.65,-265.41 477.91,-270.02"/>
</g>
<!-- Node6 -->
<g id="node6" class="node">
<title>Node6</title>
<g id="a_node6"><a xlink:title=" ">
<polygon fill="white" stroke="#bfbfbf" points="511,-179.5 511,-198.5 564,-198.5 564,-179.5 511,-179.5"/>
<text text-anchor="middle" x="537.5" y="-186.5" font-family="Helvetica,sans-Serif" font-size="10.00">iterator</text>
</a>
</g>
</g>
<!-- Node5&#45;&gt;Node6 -->
<g id="edge5" class="edge">
<title>Node5&#45;&gt;Node6</title>
<path fill="none" stroke="midnightblue" d="M584.62,-240.98C576.21,-231.87 562.68,-217.24 552.27,-205.98"/>
<polygon fill="midnightblue" stroke="midnightblue" points="554.72,-203.48 545.37,-198.51 549.58,-208.23 554.72,-203.48"/>
</g>
<!-- Node7 -->
<g id="node7" class="node">
<title>Node7</title>
<g id="a_node7"><a xlink:title=" ">
<polygon fill="white" stroke="#bfbfbf" points="620.5,-179.5 620.5,-198.5 718.5,-198.5 718.5,-179.5 620.5,-179.5"/>
<text text-anchor="middle" x="669.5" y="-186.5" font-family="Helvetica,sans-Serif" font-size="10.00">AMReX_Vector.H</text>
</a>
</g>
</g>
<!-- Node5&#45;&gt;Node7 -->
<g id="edge6" class="edge">
<title>Node5&#45;&gt;Node7</title>
<path fill="none" stroke="midnightblue" d="M603.53,-240.98C615.77,-231.52 635.73,-216.1 650.49,-204.69"/>
<polygon fill="midnightblue" stroke="midnightblue" points="652.72,-207.39 658.49,-198.51 648.44,-201.85 652.72,-207.39"/>
</g>
<!-- Node5&#45;&gt;Node8 -->
<g id="edge7" class="edge">
<title>Node5&#45;&gt;Node8</title>
<path fill="none" stroke="midnightblue" d="M591.1,-240.73C585.57,-206.03 565.16,-77.89 557.46,-29.59"/>
<polygon fill="midnightblue" stroke="midnightblue" points="560.9,-28.92 555.87,-19.6 553.99,-30.03 560.9,-28.92"/>
</g>
<!-- Node10 -->
<g id="node10" class="node">
<title>Node10</title>
<g id="a_node10"><a xlink:href="vector_8_h.html" target="_top" xlink:title=" ">
<polygon fill="white" stroke="black" points="106,-123.5 106,-142.5 251,-142.5 251,-123.5 106,-123.5"/>
<text text-anchor="middle" x="178.5" y="-130.5" font-family="Helvetica,sans-Serif" font-size="10.00">amr&#45;wind/core/vs/vector.H</text>
</a>
</g>
</g>
<!-- Node9&#45;&gt;Node10 -->
<g id="edge9" class="edge">
<title>Node9&#45;&gt;Node10</title>
<path fill="none" stroke="midnightblue" d="M201.31,-235.34C196.63,-214.53 187.88,-175.66 182.68,-152.58"/>
<polygon fill="midnightblue" stroke="midnightblue" points="186.06,-151.66 180.45,-142.67 179.23,-153.19 186.06,-151.66"/>
</g>
<!-- Node17 -->
<g id="node17" class="node">
<title>Node17</title>
<g id="a_node17"><a xlink:href="tensor_8_h.html" target="_top" xlink:title=" ">
<polygon fill="white" stroke="black" points="220,-179.5 220,-198.5 365,-198.5 365,-179.5 220,-179.5"/>
<text text-anchor="middle" x="292.5" y="-186.5" font-family="Helvetica,sans-Serif" font-size="10.00">amr&#45;wind/core/vs/tensor.H</text>
</a>
</g>
</g>
<!-- Node9&#45;&gt;Node17 -->
<g id="edge18" class="edge">
<title>Node9&#45;&gt;Node17</title>
<path fill="none" stroke="midnightblue" d="M225.35,-235.4C239.2,-226.04 257.31,-213.79 271.24,-204.38"/>
<polygon fill="midnightblue" stroke="midnightblue" points="273.37,-207.16 279.7,-198.66 269.45,-201.36 273.37,-207.16"/>
</g>
<!-- Node10&#45;&gt;Node8 -->
<g id="edge10" class="edge">
<title>Node10&#45;&gt;Node8</title>
<path fill="none" stroke="midnightblue" d="M251.17,-124.72C338.71,-115.48 476.7,-99.29 497.5,-87 520.4,-73.47 537.06,-46.83 546.26,-28.97"/>
<polygon fill="midnightblue" stroke="midnightblue" points="549.47,-30.38 550.71,-19.85 543.18,-27.31 549.47,-30.38"/>
</g>
<!-- Node11 -->
<g id="node11" class="node">
<title>Node11</title>
<g id="a_node11"><a xlink:href="vstraits_8_h.html" target="_top" xlink:title=" ">
<polygon fill="white" stroke="black" points="176.5,-62 176.5,-81 328.5,-81 328.5,-62 176.5,-62"/>
<text text-anchor="middle" x="252.5" y="-69" font-family="Helvetica,sans-Serif" font-size="10.00">amr&#45;wind/core/vs/vstraits.H</text>
</a>
</g>
</g>
<!-- Node10&#45;&gt;Node11 -->
<g id="edge11" class="edge">
<title>Node10&#45;&gt;Node11</title>
<path fill="none" stroke="midnightblue" d="M189.1,-123.48C200.75,-114.11 219.69,-98.88 233.83,-87.51"/>
<polygon fill="midnightblue" stroke="midnightblue" points="236.32,-90 241.92,-81.01 231.93,-84.55 236.32,-90"/>
</g>
<!-- Node14 -->
<g id="node14" class="node">
<title>Node14</title>
<g id="a_node14"><a xlink:href="vector_i_8_h.html" target="_top" xlink:title=" ">
<polygon fill="white" stroke="black" points="9,-62 9,-81 158,-81 158,-62 9,-62"/>
<text text-anchor="middle" x="83.5" y="-69" font-family="Helvetica,sans-Serif" font-size="10.00">amr&#45;wind/core/vs/vectorI.H</text>
</a>
</g>
</g>
<!-- Node10&#45;&gt;Node14 -->
<g id="edge14" class="edge">
<title>Node10&#45;&gt;Node14</title>
<path fill="none" stroke="midnightblue" d="M159.99,-123.48C142.67,-113.93 117.4,-98.31 100.57,-86.87"/>
<polygon fill="midnightblue" stroke="midnightblue" points="102.39,-83.87 92.19,-81.01 98.38,-89.61 102.39,-83.87"/>
</g>
<!-- Node12 -->
<g id="node12" class="node">
<title>Node12</title>
<g id="a_node12"><a xlink:title=" ">
<polygon fill="white" stroke="#bfbfbf" points="230.5,-0.5 230.5,-19.5 274.5,-19.5 274.5,-0.5 230.5,-0.5"/>
<text text-anchor="middle" x="252.5" y="-7.5" font-family="Helvetica,sans-Serif" font-size="10.00">limits</text>
</a>
</g>
</g>
<!-- Node11&#45;&gt;Node12 -->
<g id="edge12" class="edge">
<title>Node11&#45;&gt;Node12</title>
<path fill="none" stroke="midnightblue" d="M252.5,-61.98C252.5,-53.58 252.5,-40.48 252.5,-29.66"/>
<polygon fill="midnightblue" stroke="midnightblue" points="256,-29.51 252.5,-19.51 249,-29.51 256,-29.51"/>
</g>
<!-- Node13 -->
<g id="node13" class="node">
<title>Node13</title>
<g id="a_node13"><a xlink:title=" ">
<polygon fill="white" stroke="#bfbfbf" points="390.5,-0.5 390.5,-19.5 482.5,-19.5 482.5,-0.5 390.5,-0.5"/>
<text text-anchor="middle" x="436.5" y="-7.5" font-family="Helvetica,sans-Serif" font-size="10.00">AMReX_REAL.H</text>
</a>
</g>
</g>
<!-- Node11&#45;&gt;Node13 -->
<g id="edge13" class="edge">
<title>Node11&#45;&gt;Node13</title>
<path fill="none" stroke="midnightblue" d="M278.86,-61.98C310.84,-51.64 364.88,-34.16 400.62,-22.6"/>
<polygon fill="midnightblue" stroke="midnightblue" points="401.75,-25.92 410.19,-19.51 399.59,-19.26 401.75,-25.92"/>
</g>
<!-- Node14&#45;&gt;Node10 -->
<g id="edge17" class="edge">
<title>Node14&#45;&gt;Node10</title>
<path fill="none" stroke="midnightblue" d="M101.98,-81.01C119.29,-90.55 144.56,-106.17 161.4,-117.61"/>
<polygon fill="midnightblue" stroke="midnightblue" points="159.59,-120.61 169.79,-123.48 163.6,-114.88 159.59,-120.61"/>
</g>
<!-- Node15 -->
<g id="node15" class="node">
<title>Node15</title>
<g id="a_node15"><a xlink:title=" ">
<polygon fill="white" stroke="#bfbfbf" points="55,-0.5 55,-19.5 112,-19.5 112,-0.5 55,-0.5"/>
<text text-anchor="middle" x="83.5" y="-7.5" font-family="Helvetica,sans-Serif" font-size="10.00">ostream</text>
</a>
</g>
</g>
<!-- Node14&#45;&gt;Node15 -->
<g id="edge15" class="edge">
<title>Node14&#45;&gt;Node15</title>
<path fill="none" stroke="midnightblue" d="M83.5,-61.98C83.5,-53.58 83.5,-40.48 83.5,-29.66"/>
<polygon fill="midnightblue" stroke="midnightblue" points="87,-29.51 83.5,-19.51 80,-29.51 87,-29.51"/>
</g>
<!-- Node16 -->
<g id="node16" class="node">
<title>Node16</title>
<g id="a_node16"><a xlink:title=" ">
<polygon fill="white" stroke="#bfbfbf" points="325,-0.5 325,-19.5 372,-19.5 372,-0.5 325,-0.5"/>
<text text-anchor="middle" x="348.5" y="-7.5" font-family="Helvetica,sans-Serif" font-size="10.00">cmath</text>
</a>
</g>
</g>
<!-- Node14&#45;&gt;Node16 -->
<g id="edge16" class="edge">
<title>Node14&#45;&gt;Node16</title>
<path fill="none" stroke="midnightblue" d="M121.47,-61.98C173.31,-50.34 265.43,-29.65 314.89,-18.55"/>
<polygon fill="midnightblue" stroke="midnightblue" points="315.78,-21.93 324.77,-16.33 314.25,-15.1 315.78,-21.93"/>
</g>
<!-- Node17&#45;&gt;Node8 -->
<g id="edge19" class="edge">
<title>Node17&#45;&gt;Node8</title>
<path fill="none" stroke="midnightblue" d="M354.46,-179.44C388.71,-172.89 431.16,-161.7 465.5,-143 497.82,-125.4 506.01,-117.57 526.5,-87 538.46,-69.16 546.12,-45.55 550.35,-29.41"/>
<polygon fill="midnightblue" stroke="midnightblue" points="553.77,-30.13 552.74,-19.59 546.97,-28.48 553.77,-30.13"/>
</g>
<!-- Node17&#45;&gt;Node10 -->
<g id="edge21" class="edge">
<title>Node17&#45;&gt;Node10</title>
<path fill="none" stroke="midnightblue" d="M274.44,-179.44C255.93,-170.68 226.92,-156.94 205.64,-146.86"/>
<polygon fill="midnightblue" stroke="midnightblue" points="207.01,-143.63 196.48,-142.52 204.02,-149.96 207.01,-143.63"/>
</g>
<!-- Node17&#45;&gt;Node11 -->
<g id="edge20" class="edge">
<title>Node17&#45;&gt;Node11</title>
<path fill="none" stroke="midnightblue" d="M289.49,-179.32C283.01,-160.59 267.58,-116.05 258.84,-90.79"/>
<polygon fill="midnightblue" stroke="midnightblue" points="262.12,-89.59 255.54,-81.28 255.51,-91.88 262.12,-89.59"/>
</g>
<!-- Node18 -->
<g id="node18" class="node">
<title>Node18</title>
<g id="a_node18"><a xlink:href="tensor_i_8_h.html" target="_top" xlink:title=" ">
<polygon fill="white" stroke="black" points="307,-123.5 307,-142.5 456,-142.5 456,-123.5 307,-123.5"/>
<text text-anchor="middle" x="381.5" y="-130.5" font-family="Helvetica,sans-Serif" font-size="10.00">amr&#45;wind/core/vs/tensorI.H</text>
</a>
</g>
</g>
<!-- Node17&#45;&gt;Node18 -->
<g id="edge22" class="edge">
<title>Node17&#45;&gt;Node18</title>
<path fill="none" stroke="midnightblue" d="M301.68,-179.32C313.97,-170.74 335.54,-157.49 353.27,-147.52"/>
<polygon fill="midnightblue" stroke="midnightblue" points="355.05,-150.54 362.13,-142.65 351.68,-144.41 355.05,-150.54"/>
</g>
<!-- Node18&#45;&gt;Node16 -->
<g id="edge23" class="edge">
<title>Node18&#45;&gt;Node16</title>
<path fill="none" stroke="midnightblue" d="M379.13,-123.3C373.8,-103.76 360.79,-56.06 353.56,-29.55"/>
<polygon fill="midnightblue" stroke="midnightblue" points="356.86,-28.35 350.85,-19.62 350.11,-30.19 356.86,-28.35"/>
</g>
<!-- Node18&#45;&gt;Node17 -->
<g id="edge24" class="edge">
<title>Node18&#45;&gt;Node17</title>
<path fill="none" stroke="midnightblue" d="M372.35,-142.65C360.08,-151.23 338.51,-164.48 320.77,-174.45"/>
<polygon fill="midnightblue" stroke="midnightblue" points="318.99,-171.44 311.91,-179.32 322.36,-177.57 318.99,-171.44"/>
</g>
<!-- Node19 -->
<g id="node19" class="node">
<title>Node19</title>
<g id="a_node19"><a xlink:href="trig__ops_8_h.html" target="_top" xlink:title=" ">
<polygon fill="white" stroke="black" points="385,-56.5 385,-86.5 488,-86.5 488,-56.5 385,-56.5"/>
<text text-anchor="start" x="393" y="-74.5" font-family="Helvetica,sans-Serif" font-size="10.00">amr&#45;wind/utilities</text>
<text text-anchor="middle" x="436.5" y="-63.5" font-family="Helvetica,sans-Serif" font-size="10.00">/trig_ops.H</text>
</a>
</g>
</g>
<!-- Node18&#45;&gt;Node19 -->
<g id="edge25" class="edge">
<title>Node18&#45;&gt;Node19</title>
<path fill="none" stroke="midnightblue" d="M389.38,-123.48C396.48,-115.79 407.22,-104.17 416.66,-93.96"/>
<polygon fill="midnightblue" stroke="midnightblue" points="419.32,-96.24 423.54,-86.52 414.18,-91.49 419.32,-96.24"/>
</g>
<!-- Node19&#45;&gt;Node8 -->
<g id="edge28" class="edge">
<title>Node19&#45;&gt;Node8</title>
<path fill="none" stroke="midnightblue" d="M464.46,-56.4C483.82,-46.64 509.41,-33.74 528.36,-24.18"/>
<polygon fill="midnightblue" stroke="midnightblue" points="529.98,-27.29 537.33,-19.66 526.83,-21.04 529.98,-27.29"/>
</g>
<!-- Node19&#45;&gt;Node13 -->
<g id="edge27" class="edge">
<title>Node19&#45;&gt;Node13</title>
<path fill="none" stroke="midnightblue" d="M436.5,-56.4C436.5,-48.47 436.5,-38.46 436.5,-29.86"/>
<polygon fill="midnightblue" stroke="midnightblue" points="440,-29.66 436.5,-19.66 433,-29.66 440,-29.66"/>
</g>
<!-- Node19&#45;&gt;Node16 -->
<g id="edge26" class="edge">
<title>Node19&#45;&gt;Node16</title>
<path fill="none" stroke="midnightblue" d="M415.65,-56.4C401.8,-47.04 383.69,-34.79 369.76,-25.38"/>
<polygon fill="midnightblue" stroke="midnightblue" points="371.55,-22.36 361.3,-19.66 367.63,-28.16 371.55,-22.36"/>
</g>
<!-- Node24 -->
<g id="node24" class="node">
<title>Node24</title>
<g id="a_node24"><a xlink:href="_multi_parser_8_h.html" target="_top" xlink:title=" ">
<polygon fill="white" stroke="black" points="54,-308 54,-327 209,-327 209,-308 54,-308"/>
<text text-anchor="middle" x="131.5" y="-315" font-family="Helvetica,sans-Serif" font-size="10.00">amr&#45;wind/core/MultiParser.H</text>
</a>
</g>
</g>
<!-- Node23&#45;&gt;Node24 -->
<g id="edge34" class="edge">
<title>Node23&#45;&gt;Node24</title>
<path fill="none" stroke="midnightblue" d="M131.5,-374.73C131.5,-364 131.5,-349.19 131.5,-337.46"/>
<polygon fill="midnightblue" stroke="midnightblue" points="135,-337.39 131.5,-327.39 128,-337.39 135,-337.39"/>
</g>
<!-- Node24&#45;&gt;Node9 -->
<g id="edge35" class="edge">
<title>Node24&#45;&gt;Node9</title>
<path fill="none" stroke="midnightblue" d="M141.35,-307.73C151.5,-298.7 167.69,-284.27 181.14,-272.3"/>
<polygon fill="midnightblue" stroke="midnightblue" points="183.54,-274.85 188.68,-265.59 178.88,-269.63 183.54,-274.85"/>
</g>
<!-- Node25 -->
<g id="node25" class="node">
<title>Node25</title>
<g id="a_node25"><a xlink:title=" ">
<polygon fill="white" stroke="#bfbfbf" points="0,-241 0,-260 119,-260 119,-241 0,-241"/>
<text text-anchor="middle" x="59.5" y="-248" font-family="Helvetica,sans-Serif" font-size="10.00">AMReX_ParmParse.H</text>
</a>
</g>
</g>
<!-- Node24&#45;&gt;Node25 -->
<g id="edge36" class="edge">
<title>Node24&#45;&gt;Node25</title>
<path fill="none" stroke="midnightblue" d="M121.79,-307.73C110.24,-297.31 90.75,-279.71 76.64,-266.97"/>
<polygon fill="midnightblue" stroke="midnightblue" points="78.82,-264.23 69.06,-260.13 74.13,-269.43 78.82,-264.23"/>
</g>
<!-- Node27 -->
<g id="node27" class="node">
<title>Node27</title>
<g id="a_node27"><a xlink:title=" ">
<polygon fill="white" stroke="#bfbfbf" points="712.5,-380.5 712.5,-399.5 756.5,-399.5 756.5,-380.5 712.5,-380.5"/>
<text text-anchor="middle" x="734.5" y="-387.5" font-family="Helvetica,sans-Serif" font-size="10.00">string</text>
</a>
</g>
</g>
<!-- Node26&#45;&gt;Node27 -->
<g id="edge38" class="edge">
<title>Node26&#45;&gt;Node27</title>
<path fill="none" stroke="midnightblue" d="M625.04,-452.95C646.82,-442.02 677.41,-426.2 703.5,-411 706.64,-409.17 709.91,-407.17 713.1,-405.17"/>
<polygon fill="midnightblue" stroke="midnightblue" points="715.18,-407.99 721.69,-399.63 711.39,-402.1 715.18,-407.99"/>
</g>
<!-- Node28 -->
<g id="node28" class="node">
<title>Node28</title>
<g id="a_node28"><a xlink:title=" ">
<polygon fill="white" stroke="#bfbfbf" points="462,-380.5 462,-399.5 555,-399.5 555,-380.5 462,-380.5"/>
<text text-anchor="middle" x="508.5" y="-387.5" font-family="Helvetica,sans-Serif" font-size="10.00">unordered_map</text>
</a>
</g>
</g>
<!-- Node26&#45;&gt;Node28 -->
<g id="edge39" class="edge">
<title>Node26&#45;&gt;Node28</title>
<path fill="none" stroke="midnightblue" d="M579.95,-452.7C564.66,-439.5 542,-419.93 526.32,-406.39"/>
<polygon fill="midnightblue" stroke="midnightblue" points="528.27,-403.45 518.42,-399.56 523.7,-408.75 528.27,-403.45"/>
</g>
<!-- Node29 -->
<g id="node29" class="node">
<title>Node29</title>
<g id="a_node29"><a xlink:title=" ">
<polygon fill="white" stroke="#bfbfbf" points="573,-380.5 573,-399.5 620,-399.5 620,-380.5 573,-380.5"/>
<text text-anchor="middle" x="596.5" y="-387.5" font-family="Helvetica,sans-Serif" font-size="10.00">vector</text>
</a>
</g>
</g>
<!-- Node26&#45;&gt;Node29 -->
<g id="edge40" class="edge">
<title>Node26&#45;&gt;Node29</title>
<path fill="none" stroke="midnightblue" d="M596.5,-452.7C596.5,-440.6 596.5,-423.15 596.5,-409.89"/>
<polygon fill="midnightblue" stroke="midnightblue" points="600,-409.56 596.5,-399.56 593,-409.56 600,-409.56"/>
</g>
<!-- Node30 -->
<g id="node30" class="node">
<title>Node30</title>
<g id="a_node30"><a xlink:title=" ">
<polygon fill="white" stroke="#bfbfbf" points="638.5,-380.5 638.5,-399.5 694.5,-399.5 694.5,-380.5 638.5,-380.5"/>
<text text-anchor="middle" x="666.5" y="-387.5" font-family="Helvetica,sans-Serif" font-size="10.00">netcdf.h</text>
</a>
</g>
</g>
<!-- Node26&#45;&gt;Node30 -->
<g id="edge41" class="edge">
<title>Node26&#45;&gt;Node30</title>
<path fill="none" stroke="midnightblue" d="M609.67,-452.7C621.6,-439.74 639.19,-420.66 651.63,-407.15"/>
<polygon fill="midnightblue" stroke="midnightblue" points="654.41,-409.29 658.61,-399.56 649.26,-404.55 654.41,-409.29"/>
</g>
<!-- Node31 -->
<g id="node31" class="node">
<title>Node31</title>
<g id="a_node31"><a xlink:title=" ">
<polygon fill="white" stroke="#bfbfbf" points="367,-380.5 367,-399.5 444,-399.5 444,-380.5 367,-380.5"/>
<text text-anchor="middle" x="405.5" y="-387.5" font-family="Helvetica,sans-Serif" font-size="10.00">netcdf_par.h</text>
</a>
</g>
</g>
<!-- Node26&#45;&gt;Node31 -->
<g id="edge42" class="edge">
<title>Node26&#45;&gt;Node31</title>
<path fill="none" stroke="midnightblue" d="M559.97,-452.95C531.03,-441.75 489.59,-425.58 453.5,-411 447.71,-408.66 441.54,-406.12 435.63,-403.67"/>
<polygon fill="midnightblue" stroke="midnightblue" points="436.59,-400.28 426.02,-399.66 433.9,-406.74 436.59,-400.28"/>
</g>
<!-- Node32&#45;&gt;Node7 -->
<g id="edge48" class="edge">
<title>Node32&#45;&gt;Node7</title>
<path fill="none" stroke="midnightblue" d="M835.75,-452.79C842.12,-433.18 850.71,-397.09 839.5,-369 809.34,-293.46 730.47,-231.54 691.68,-204.57"/>
<polygon fill="midnightblue" stroke="midnightblue" points="693.41,-201.51 683.17,-198.77 689.46,-207.29 693.41,-201.51"/>
</g>
<!-- Node32&#45;&gt;Node27 -->
<g id="edge46" class="edge">
<title>Node32&#45;&gt;Node27</title>
<path fill="none" stroke="midnightblue" d="M812.44,-452.7C795.61,-439.38 770.59,-419.57 753.47,-406.01"/>
<polygon fill="midnightblue" stroke="midnightblue" points="755.33,-403.03 745.32,-399.56 750.99,-408.51 755.33,-403.03"/>
</g>
<!-- Node33 -->
<g id="node33" class="node">
<title>Node33</title>
<g id="a_node33"><a xlink:title=" ">
<polygon fill="white" stroke="#bfbfbf" points="886.5,-380.5 886.5,-399.5 936.5,-399.5 936.5,-380.5 886.5,-380.5"/>
<text text-anchor="middle" x="911.5" y="-387.5" font-family="Helvetica,sans-Serif" font-size="10.00">chrono</text>
</a>
</g>
</g>
<!-- Node32&#45;&gt;Node33 -->
<g id="edge44" class="edge">
<title>Node32&#45;&gt;Node33</title>
<path fill="none" stroke="midnightblue" d="M845.74,-452.7C859.68,-439.62 880.28,-420.3 894.7,-406.77"/>
<polygon fill="midnightblue" stroke="midnightblue" points="897.48,-408.96 902.37,-399.56 892.69,-403.85 897.48,-408.96"/>
</g>
<!-- Node34 -->
<g id="node34" class="node">
<title>Node34</title>
<g id="a_node34"><a xlink:title=" ">
<polygon fill="white" stroke="#bfbfbf" points="954.5,-380.5 954.5,-399.5 998.5,-399.5 998.5,-380.5 954.5,-380.5"/>
<text text-anchor="middle" x="976.5" y="-387.5" font-family="Helvetica,sans-Serif" font-size="10.00">ctime</text>
</a>
</g>
</g>
<!-- Node32&#45;&gt;Node34 -->
<g id="edge45" class="edge">
<title>Node32&#45;&gt;Node34</title>
<path fill="none" stroke="midnightblue" d="M862.26,-452.78C885.65,-442.02 918.03,-426.48 945.5,-411 948.82,-409.13 952.27,-407.05 955.61,-404.95"/>
<polygon fill="midnightblue" stroke="midnightblue" points="957.53,-407.88 964.04,-399.52 953.74,-402 957.53,-407.88"/>
</g>
<!-- Node35 -->
<g id="node35" class="node">
<title>Node35</title>
<g id="a_node35"><a xlink:title=" ">
<polygon fill="white" stroke="#bfbfbf" points="774.5,-380.5 774.5,-399.5 830.5,-399.5 830.5,-380.5 774.5,-380.5"/>
<text text-anchor="middle" x="802.5" y="-387.5" font-family="Helvetica,sans-Serif" font-size="10.00">sstream</text>
</a>
</g>
</g>
<!-- Node32&#45;&gt;Node35 -->
<g id="edge47" class="edge">
<title>Node32&#45;&gt;Node35</title>
<path fill="none" stroke="midnightblue" d="M825.23,-452.7C820.68,-440.35 814.08,-422.44 809.17,-409.1"/>
<polygon fill="midnightblue" stroke="midnightblue" points="812.4,-407.74 805.65,-399.56 805.83,-410.16 812.4,-407.74"/>
</g>
</g>
</svg>
