<?xml version="1.0" encoding="UTF-8" standalone="no"?>
<!DOCTYPE svg PUBLIC "-//W3C//DTD SVG 1.1//EN"
 "http://www.w3.org/Graphics/SVG/1.1/DTD/svg11.dtd">
<!-- Generated by graphviz version 2.43.0 (0)
 -->
<!-- Title: velocity_bcs.H Pages: 1 -->
<!--zoomable 263 -->
<svg id="main" version="1.1" xmlns="http://www.w3.org/2000/svg" xmlns:xlink="http://www.w3.org/1999/xlink" xml:space="preserve" onload="init(evt)">
<style type="text/css"><![CDATA[
.edge:hover path { stroke: red; }
.edge:hover polygon { stroke: red; fill: red; }
]]></style>
<script type="text/javascript"><![CDATA[
var edges = document.getElementsByTagName('g');
if (edges && edges.length) {
  for (var i=0;i<edges.length;i++) {
    if (edges[i].id.substr(0,4)=='edge') {
      edges[i].setAttribute('class','edge');
    }
  }
}
]]></script>
        <defs>
                <circle id="rim" cx="0" cy="0" r="7"/>
                <circle id="rim2" cx="0" cy="0" r="3.5"/>
                <g id="zoomPlus">
                        <use xlink:href="#rim" fill="#404040">
                                <set attributeName="fill" to="#808080" begin="zoomplus.mouseover" end="zoomplus.mouseout"/>
                        </use>
                        <path d="M-4,0h8M0,-4v8" fill="none" stroke="white" stroke-width="1.5" pointer-events="none"/>
                </g>
                <g id="zoomMin">
                        <use xlink:href="#rim" fill="#404040">
                                <set attributeName="fill" to="#808080" begin="zoomminus.mouseover" end="zoomminus.mouseout"/>
                        </use>
                        <path d="M-4,0h8" fill="none" stroke="white" stroke-width="1.5" pointer-events="none"/>
                </g>
                <g id="dirArrow">
                        <path fill="none" stroke="white" stroke-width="1.5" d="M0,-3.0v7 M-2.5,-0.5L0,-3.0L2.5,-0.5"/>
                </g>
               <g id="resetDef">
                       <use xlink:href="#rim2" fill="#404040">
                               <set attributeName="fill" to="#808080" begin="reset.mouseover" end="reset.mouseout"/>
                       </use>
               </g>
        </defs>

<script type="text/javascript">
var viewWidth = 2348;
var viewHeight = 263;
var sectionId = 'dynsection-0';
</script>
<script xlink:href="svgpan.js"/>
<svg id="graph" class="graph">
<g id="viewport">
<title>velocity_bcs.H</title>
<polygon fill="white" stroke="transparent" points="-4,4 -4,-259 2344.19,-259 2344.19,4 -4,4"/>
<!-- Node1 -->
<g id="node1" class="node">
<title>Node1</title>
<g id="a_node1"><a xlink:title=" ">
<polygon fill="#bfbfbf" stroke="black" points="1795.69,-235.5 1795.69,-254.5 1883.69,-254.5 1883.69,-235.5 1795.69,-235.5"/>
<text text-anchor="middle" x="1839.69" y="-242.5" font-family="Helvetica,sans-Serif" font-size="10.00">velocity_bcs.H</text>
</a>
</g>
</g>
<!-- Node2 -->
<g id="node2" class="node">
<title>Node2</title>
<g id="a_node2"><a xlink:href="_field_b_c_ops_8_h.html" target="_top" xlink:title=" ">
<polygon fill="white" stroke="black" points="1708.69,-174 1708.69,-193 1864.69,-193 1864.69,-174 1708.69,-174"/>
<text text-anchor="middle" x="1786.69" y="-181" font-family="Helvetica,sans-Serif" font-size="10.00">amr&#45;wind/core/FieldBCOps.H</text>
</a>
</g>
</g>
<!-- Node1&#45;&gt;Node2 -->
<g id="edge1" class="edge">
<title>Node1&#45;&gt;Node2</title>
<path fill="none" stroke="midnightblue" d="M1832.1,-235.48C1823.99,-226.37 1810.96,-211.74 1800.93,-200.48"/>
<polygon fill="midnightblue" stroke="midnightblue" points="1803.54,-198.15 1794.27,-193.01 1798.31,-202.8 1803.54,-198.15"/>
</g>
<!-- Node18 -->
<g id="node18" class="node">
<title>Node18</title>
<g id="a_node18"><a xlink:href="_field_fill_patch_ops_8_h.html" target="_top" xlink:title=" ">
<polygon fill="white" stroke="black" points="1213.69,-168.5 1213.69,-198.5 1367.69,-198.5 1367.69,-168.5 1213.69,-168.5"/>
<text text-anchor="start" x="1221.69" y="-186.5" font-family="Helvetica,sans-Serif" font-size="10.00">amr&#45;wind/core/FieldFillPatch</text>
<text text-anchor="middle" x="1290.69" y="-175.5" font-family="Helvetica,sans-Serif" font-size="10.00">Ops.H</text>
</a>
</g>
</g>
<!-- Node1&#45;&gt;Node18 -->
<g id="edge22" class="edge">
<title>Node1&#45;&gt;Node18</title>
<path fill="none" stroke="midnightblue" d="M1795.23,-239.18C1704.57,-229.36 1496.93,-206.85 1378.21,-193.98"/>
<polygon fill="midnightblue" stroke="midnightblue" points="1378.38,-190.48 1368.06,-192.89 1377.63,-197.44 1378.38,-190.48"/>
</g>
<!-- Node19 -->
<g id="node19" class="node">
<title>Node19</title>
<g id="a_node19"><a xlink:href="_sim_time_8_h.html" target="_top" xlink:title=" ">
<polygon fill="white" stroke="black" points="1820.69,-112.5 1820.69,-131.5 1964.69,-131.5 1964.69,-112.5 1820.69,-112.5"/>
<text text-anchor="middle" x="1892.69" y="-119.5" font-family="Helvetica,sans-Serif" font-size="10.00">amr&#45;wind/core/SimTime.H</text>
</a>
</g>
</g>
<!-- Node1&#45;&gt;Node19 -->
<g id="edge59" class="edge">
<title>Node1&#45;&gt;Node19</title>
<path fill="none" stroke="midnightblue" d="M1847.89,-235.4C1855.63,-226.83 1867.02,-212.96 1873.69,-199 1882.48,-180.64 1887.48,-157.77 1890.13,-141.94"/>
<polygon fill="midnightblue" stroke="midnightblue" points="1893.62,-142.23 1891.66,-131.82 1886.7,-141.19 1893.62,-142.23"/>
</g>
<!-- Node27 -->
<g id="node27" class="node">
<title>Node27</title>
<g id="a_node27"><a xlink:href="_field_repo_8_h.html" target="_top" xlink:title=" ">
<polygon fill="white" stroke="black" points="576.19,-174 576.19,-193 725.19,-193 725.19,-174 576.19,-174"/>
<text text-anchor="middle" x="650.69" y="-181" font-family="Helvetica,sans-Serif" font-size="10.00">amr&#45;wind/core/FieldRepo.H</text>
</a>
</g>
</g>
<!-- Node1&#45;&gt;Node27 -->
<g id="edge38" class="edge">
<title>Node1&#45;&gt;Node27</title>
<path fill="none" stroke="midnightblue" d="M1795.61,-241.79C1620.23,-233.02 970.19,-200.49 735.72,-188.75"/>
<polygon fill="midnightblue" stroke="midnightblue" points="735.7,-185.25 725.54,-188.25 735.35,-192.24 735.7,-185.25"/>
</g>
<!-- Node32 -->
<g id="node32" class="node">
<title>Node32</title>
<g id="a_node32"><a xlink:href="_linear_profile_8_h.html" target="_top" xlink:title=" ">
<polygon fill="white" stroke="black" points="2068.19,-168.5 2068.19,-198.5 2195.19,-198.5 2195.19,-168.5 2068.19,-168.5"/>
<text text-anchor="start" x="2076.19" y="-186.5" font-family="Helvetica,sans-Serif" font-size="10.00">amr&#45;wind/physics/udfs</text>
<text text-anchor="middle" x="2131.69" y="-175.5" font-family="Helvetica,sans-Serif" font-size="10.00">/LinearProfile.H</text>
</a>
</g>
</g>
<!-- Node1&#45;&gt;Node32 -->
<g id="edge60" class="edge">
<title>Node1&#45;&gt;Node32</title>
<path fill="none" stroke="midnightblue" d="M1881.53,-235.48C1927.57,-226.09 2002.46,-210.83 2058.31,-199.45"/>
<polygon fill="midnightblue" stroke="midnightblue" points="2059.06,-202.87 2068.16,-197.45 2057.66,-196.01 2059.06,-202.87"/>
</g>
<!-- Node33 -->
<g id="node33" class="node">
<title>Node33</title>
<g id="a_node33"><a xlink:href="_power_law_profile_8_h.html" target="_top" xlink:title=" ">
<polygon fill="white" stroke="black" points="2213.19,-168.5 2213.19,-198.5 2340.19,-198.5 2340.19,-168.5 2213.19,-168.5"/>
<text text-anchor="start" x="2221.19" y="-186.5" font-family="Helvetica,sans-Serif" font-size="10.00">amr&#45;wind/physics/udfs</text>
<text text-anchor="middle" x="2276.69" y="-175.5" font-family="Helvetica,sans-Serif" font-size="10.00">/PowerLawProfile.H</text>
</a>
</g>
</g>
<!-- Node1&#45;&gt;Node33 -->
<g id="edge63" class="edge">
<title>Node1&#45;&gt;Node33</title>
<path fill="none" stroke="midnightblue" d="M1883.95,-239.64C1950.89,-232.81 2082.09,-218.48 2202.97,-199.21"/>
<polygon fill="midnightblue" stroke="midnightblue" points="2203.82,-202.62 2213.14,-197.57 2202.71,-195.71 2203.82,-202.62"/>
</g>
<!-- Node3 -->
<g id="node3" class="node">
<title>Node3</title>
<g id="a_node3"><a xlink:href="_field_desc_types_8_h.html" target="_top" xlink:title=" ">
<polygon fill="white" stroke="black" points="548.69,-0.5 548.69,-19.5 724.69,-19.5 724.69,-0.5 548.69,-0.5"/>
<text text-anchor="middle" x="636.69" y="-7.5" font-family="Helvetica,sans-Serif" font-size="10.00">amr&#45;wind/core/FieldDescTypes.H</text>
</a>
</g>
</g>
<!-- Node2&#45;&gt;Node3 -->
<g id="edge2" class="edge">
<title>Node2&#45;&gt;Node3</title>
<path fill="none" stroke="midnightblue" d="M1783.78,-173.99C1775.11,-150.17 1746.99,-82.83 1697.69,-56 1608.14,-7.25 882.53,-25.18 780.69,-20 765.92,-19.25 750.3,-18.36 735,-17.45"/>
<polygon fill="midnightblue" stroke="midnightblue" points="735.21,-13.96 725.02,-16.84 734.79,-20.94 735.21,-13.96"/>
</g>
<!-- Node4 -->
<g id="node4" class="node">
<title>Node4</title>
<g id="a_node4"><a xlink:href="_field_8_h.html" target="_top" xlink:title=" ">
<polygon fill="white" stroke="black" points="1292.69,-112.5 1292.69,-131.5 1416.69,-131.5 1416.69,-112.5 1292.69,-112.5"/>
<text text-anchor="middle" x="1354.69" y="-119.5" font-family="Helvetica,sans-Serif" font-size="10.00">amr&#45;wind/core/Field.H</text>
</a>
</g>
</g>
<!-- Node2&#45;&gt;Node4 -->
<g id="edge3" class="edge">
<title>Node2&#45;&gt;Node4</title>
<path fill="none" stroke="midnightblue" d="M1724.8,-173.98C1645.96,-163.12 1509.98,-144.39 1426.62,-132.91"/>
<polygon fill="midnightblue" stroke="midnightblue" points="1426.86,-129.41 1416.48,-131.51 1425.9,-136.34 1426.86,-129.41"/>
</g>
<!-- Node11 -->
<g id="node11" class="node">
<title>Node11</title>
<g id="a_node11"><a xlink:title=" ">
<polygon fill="white" stroke="#bfbfbf" points="2237.19,-56.5 2237.19,-75.5 2324.19,-75.5 2324.19,-56.5 2237.19,-56.5"/>
<text text-anchor="middle" x="2280.69" y="-63.5" font-family="Helvetica,sans-Serif" font-size="10.00">AMReX_Gpu.H</text>
</a>
</g>
</g>
<!-- Node2&#45;&gt;Node11 -->
<g id="edge18" class="edge">
<title>Node2&#45;&gt;Node11</title>
<path fill="none" stroke="midnightblue" d="M1864.99,-177.27C1931.43,-171.19 2028.6,-158.38 2109.69,-132 2128.22,-125.97 2130.76,-119.61 2148.69,-112 2179.43,-98.96 2215.35,-86.91 2241.95,-78.57"/>
<polygon fill="midnightblue" stroke="midnightblue" points="2243.15,-81.87 2251.66,-75.56 2241.07,-75.18 2243.15,-81.87"/>
</g>
<!-- Node15 -->
<g id="node15" class="node">
<title>Node15</title>
<g id="a_node15"><a xlink:title=" ">
<polygon fill="white" stroke="#bfbfbf" points="1983.19,-112.5 1983.19,-131.5 2100.19,-131.5 2100.19,-112.5 1983.19,-112.5"/>
<text text-anchor="middle" x="2041.69" y="-119.5" font-family="Helvetica,sans-Serif" font-size="10.00">AMReX_FArrayBox.H</text>
</a>
</g>
</g>
<!-- Node2&#45;&gt;Node15 -->
<g id="edge19" class="edge">
<title>Node2&#45;&gt;Node15</title>
<path fill="none" stroke="midnightblue" d="M1823.23,-173.98C1868.58,-163.39 1945.97,-145.34 1995.42,-133.8"/>
<polygon fill="midnightblue" stroke="midnightblue" points="1996.28,-137.19 2005.23,-131.51 1994.69,-130.37 1996.28,-137.19"/>
</g>
<!-- Node16 -->
<g id="node16" class="node">
<title>Node16</title>
<g id="a_node16"><a xlink:title=" ">
<polygon fill="white" stroke="#bfbfbf" points="2157.19,-112.5 2157.19,-131.5 2272.19,-131.5 2272.19,-112.5 2157.19,-112.5"/>
<text text-anchor="middle" x="2214.69" y="-119.5" font-family="Helvetica,sans-Serif" font-size="10.00">AMReX_Geometry.H</text>
</a>
</g>
</g>
<!-- Node2&#45;&gt;Node16 -->
<g id="edge20" class="edge">
<title>Node2&#45;&gt;Node16</title>
<path fill="none" stroke="midnightblue" d="M1848.02,-173.98C1927.23,-162.96 2064.68,-143.85 2146.92,-132.42"/>
<polygon fill="midnightblue" stroke="midnightblue" points="2147.49,-135.88 2156.91,-131.03 2146.53,-128.94 2147.49,-135.88"/>
</g>
<!-- Node17 -->
<g id="node17" class="node">
<title>Node17</title>
<g id="a_node17"><a xlink:title=" ">
<polygon fill="white" stroke="#bfbfbf" points="935.19,-56.5 935.19,-75.5 1066.19,-75.5 1066.19,-56.5 935.19,-56.5"/>
<text text-anchor="middle" x="1000.69" y="-63.5" font-family="Helvetica,sans-Serif" font-size="10.00">AMReX_PhysBCFunct.H</text>
</a>
</g>
</g>
<!-- Node2&#45;&gt;Node17 -->
<g id="edge21" class="edge">
<title>Node2&#45;&gt;Node17</title>
<path fill="none" stroke="midnightblue" d="M1708.3,-181.91C1608.26,-179.51 1430.55,-169.69 1283.69,-132 1261.71,-126.36 1258.41,-118.61 1236.69,-112 1183.81,-95.91 1122.44,-84.42 1075.53,-77.08"/>
<polygon fill="midnightblue" stroke="midnightblue" points="1075.87,-73.59 1065.45,-75.53 1074.8,-80.51 1075.87,-73.59"/>
</g>
<!-- Node4&#45;&gt;Node3 -->
<g id="edge12" class="edge">
<title>Node4&#45;&gt;Node3</title>
<path fill="none" stroke="midnightblue" d="M1337.25,-112.5C1301.46,-95.07 1222.8,-56.83 1219.69,-56 1196.75,-49.82 895.42,-28.6 735.25,-17.65"/>
<polygon fill="midnightblue" stroke="midnightblue" points="735.13,-14.14 724.91,-16.95 734.65,-21.12 735.13,-14.14"/>
</g>
<!-- Node5 -->
<g id="node5" class="node">
<title>Node5</title>
<g id="a_node5"><a xlink:title=" ">
<polygon fill="white" stroke="#bfbfbf" points="104.69,-0.5 104.69,-19.5 148.69,-19.5 148.69,-0.5 104.69,-0.5"/>
<text text-anchor="middle" x="126.69" y="-7.5" font-family="Helvetica,sans-Serif" font-size="10.00">string</text>
</a>
</g>
</g>
<!-- Node4&#45;&gt;Node5 -->
<g id="edge4" class="edge">
<title>Node4&#45;&gt;Node5</title>
<path fill="none" stroke="midnightblue" d="M1322.88,-112.45C1295.06,-104.49 1253.88,-91.54 1219.69,-76 1203.74,-68.74 1202.53,-60.91 1185.69,-56 971.8,6.39 405.47,-41.41 183.69,-20 175.56,-19.21 166.82,-18.02 158.69,-16.75"/>
<polygon fill="midnightblue" stroke="midnightblue" points="159.25,-13.29 148.81,-15.13 158.12,-20.2 159.25,-13.29"/>
</g>
<!-- Node6 -->
<g id="node6" class="node">
<title>Node6</title>
<g id="a_node6"><a xlink:title=" ">
<polygon fill="white" stroke="#bfbfbf" points="1271.69,-56.5 1271.69,-75.5 1329.69,-75.5 1329.69,-56.5 1271.69,-56.5"/>
<text text-anchor="middle" x="1300.69" y="-63.5" font-family="Helvetica,sans-Serif" font-size="10.00">memory</text>
</a>
</g>
</g>
<!-- Node4&#45;&gt;Node6 -->
<g id="edge5" class="edge">
<title>Node4&#45;&gt;Node6</title>
<path fill="none" stroke="midnightblue" d="M1345.78,-112.08C1337.91,-104.22 1326.26,-92.57 1316.78,-83.08"/>
<polygon fill="midnightblue" stroke="midnightblue" points="1318.99,-80.35 1309.45,-75.75 1314.04,-85.3 1318.99,-80.35"/>
</g>
<!-- Node7 -->
<g id="node7" class="node">
<title>Node7</title>
<g id="a_node7"><a xlink:title=" ">
<polygon fill="white" stroke="#bfbfbf" points="1084.19,-56.5 1084.19,-75.5 1177.19,-75.5 1177.19,-56.5 1084.19,-56.5"/>
<text text-anchor="middle" x="1130.69" y="-63.5" font-family="Helvetica,sans-Serif" font-size="10.00">unordered_map</text>
</a>
</g>
</g>
<!-- Node4&#45;&gt;Node7 -->
<g id="edge6" class="edge">
<title>Node4&#45;&gt;Node7</title>
<path fill="none" stroke="midnightblue" d="M1319.2,-112.44C1280.37,-103.08 1218.04,-88.06 1175.78,-77.87"/>
<polygon fill="midnightblue" stroke="midnightblue" points="1176.56,-74.46 1166.02,-75.52 1174.92,-81.26 1176.56,-74.46"/>
</g>
<!-- Node8 -->
<g id="node8" class="node">
<title>Node8</title>
<g id="a_node8"><a xlink:title=" ">
<polygon fill="white" stroke="#bfbfbf" points="1347.69,-56.5 1347.69,-75.5 1411.69,-75.5 1411.69,-56.5 1347.69,-56.5"/>
<text text-anchor="middle" x="1379.69" y="-63.5" font-family="Helvetica,sans-Serif" font-size="10.00">algorithm</text>
</a>
</g>
</g>
<!-- Node4&#45;&gt;Node8 -->
<g id="edge7" class="edge">
<title>Node4&#45;&gt;Node8</title>
<path fill="none" stroke="midnightblue" d="M1358.82,-112.08C1362.21,-104.77 1367.11,-94.18 1371.31,-85.1"/>
<polygon fill="midnightblue" stroke="midnightblue" points="1374.62,-86.3 1375.64,-75.75 1368.27,-83.36 1374.62,-86.3"/>
</g>
<!-- Node9 -->
<g id="node9" class="node">
<title>Node9</title>
<g id="a_node9"><a xlink:title=" ">
<polygon fill="white" stroke="#bfbfbf" points="790.19,-0.5 790.19,-19.5 899.19,-19.5 899.19,-0.5 790.19,-0.5"/>
<text text-anchor="middle" x="844.69" y="-7.5" font-family="Helvetica,sans-Serif" font-size="10.00">AMReX_MultiFab.H</text>
</a>
</g>
</g>
<!-- Node4&#45;&gt;Node9 -->
<g id="edge8" class="edge">
<title>Node4&#45;&gt;Node9</title>
<path fill="none" stroke="midnightblue" d="M1416.89,-117.23C1510.71,-110.89 1679.5,-96.74 1697.69,-76 1703.56,-69.32 1703.81,-62.45 1697.69,-56 1670.65,-27.49 1103.65,-15.34 909.35,-12.01"/>
<polygon fill="midnightblue" stroke="midnightblue" points="909.34,-8.51 899.28,-11.84 909.22,-15.5 909.34,-8.51"/>
</g>
<!-- Node10 -->
<g id="node10" class="node">
<title>Node10</title>
<g id="a_node10"><a xlink:title=" ">
<polygon fill="white" stroke="#bfbfbf" points="1430.19,-56.5 1430.19,-75.5 1529.19,-75.5 1529.19,-56.5 1430.19,-56.5"/>
<text text-anchor="middle" x="1479.69" y="-63.5" font-family="Helvetica,sans-Serif" font-size="10.00">AMReX_BCRec.H</text>
</a>
</g>
</g>
<!-- Node4&#45;&gt;Node10 -->
<g id="edge9" class="edge">
<title>Node4&#45;&gt;Node10</title>
<path fill="none" stroke="midnightblue" d="M1374.5,-112.44C1394.98,-103.6 1427.18,-89.69 1450.56,-79.59"/>
<polygon fill="midnightblue" stroke="midnightblue" points="1452.19,-82.7 1459.98,-75.52 1449.41,-76.27 1452.19,-82.7"/>
</g>
<!-- Node4&#45;&gt;Node11 -->
<g id="edge10" class="edge">
<title>Node4&#45;&gt;Node11</title>
<path fill="none" stroke="midnightblue" d="M1416.88,-119.21C1557.8,-114.83 1912.24,-101.97 2207.69,-76 2213.96,-75.45 2220.51,-74.78 2227.01,-74.05"/>
<polygon fill="midnightblue" stroke="midnightblue" points="2227.6,-77.51 2237.13,-72.88 2226.79,-70.55 2227.6,-77.51"/>
</g>
<!-- Node12 -->
<g id="node12" class="node">
<title>Node12</title>
<g id="a_node12"><a xlink:href="incflo__enums_8_h.html" target="_top" xlink:title=" ">
<polygon fill="white" stroke="black" points="1547.19,-56.5 1547.19,-75.5 1688.19,-75.5 1688.19,-56.5 1547.19,-56.5"/>
<text text-anchor="middle" x="1617.69" y="-63.5" font-family="Helvetica,sans-Serif" font-size="10.00">amr&#45;wind/incflo_enums.H</text>
</a>
</g>
</g>
<!-- Node4&#45;&gt;Node12 -->
<g id="edge11" class="edge">
<title>Node4&#45;&gt;Node12</title>
<path fill="none" stroke="midnightblue" d="M1396.37,-112.44C1442.44,-102.98 1516.69,-87.74 1566.33,-77.55"/>
<polygon fill="midnightblue" stroke="midnightblue" points="1567.13,-80.96 1576.22,-75.52 1565.72,-74.1 1567.13,-80.96"/>
</g>
<!-- Node13 -->
<g id="node13" class="node">
<title>Node13</title>
<g id="a_node13"><a xlink:href="_view_field_8_h.html" target="_top" xlink:title=" ">
<polygon fill="white" stroke="black" points="192.69,-56.5 192.69,-75.5 340.69,-75.5 340.69,-56.5 192.69,-56.5"/>
<text text-anchor="middle" x="266.69" y="-63.5" font-family="Helvetica,sans-Serif" font-size="10.00">amr&#45;wind/core/ViewField.H</text>
</a>
</g>
</g>
<!-- Node4&#45;&gt;Node13 -->
<g id="edge13" class="edge">
<title>Node4&#45;&gt;Node13</title>
<path fill="none" stroke="midnightblue" d="M1292.48,-117.01C1266.3,-115.37 1235.52,-113.52 1207.69,-112 1042.26,-102.98 549.3,-80.05 350.84,-70.88"/>
<polygon fill="midnightblue" stroke="midnightblue" points="350.91,-67.38 340.76,-70.41 350.59,-74.37 350.91,-67.38"/>
</g>
<!-- Node13&#45;&gt;Node3 -->
<g id="edge15" class="edge">
<title>Node13&#45;&gt;Node3</title>
<path fill="none" stroke="midnightblue" d="M325.32,-56.44C391.36,-46.81 498.54,-31.16 568.33,-20.98"/>
<polygon fill="midnightblue" stroke="midnightblue" points="568.95,-24.42 578.34,-19.52 567.94,-17.5 568.95,-24.42"/>
</g>
<!-- Node13&#45;&gt;Node5 -->
<g id="edge14" class="edge">
<title>Node13&#45;&gt;Node5</title>
<path fill="none" stroke="midnightblue" d="M244.51,-56.44C221.27,-47.48 184.55,-33.31 158.28,-23.18"/>
<polygon fill="midnightblue" stroke="midnightblue" points="159.36,-19.85 148.77,-19.52 156.85,-26.38 159.36,-19.85"/>
</g>
<!-- Node13&#45;&gt;Node9 -->
<g id="edge16" class="edge">
<title>Node13&#45;&gt;Node9</title>
<path fill="none" stroke="midnightblue" d="M340.78,-58.08C454.84,-47.42 671.56,-27.17 779.8,-17.06"/>
<polygon fill="midnightblue" stroke="midnightblue" points="780.3,-20.53 789.93,-16.12 779.65,-13.56 780.3,-20.53"/>
</g>
<!-- Node14 -->
<g id="node14" class="node">
<title>Node14</title>
<g id="a_node14"><a xlink:title=" ">
<polygon fill="white" stroke="#bfbfbf" points="192.69,-0.5 192.69,-19.5 290.69,-19.5 290.69,-0.5 192.69,-0.5"/>
<text text-anchor="middle" x="241.69" y="-7.5" font-family="Helvetica,sans-Serif" font-size="10.00">AMReX_Vector.H</text>
</a>
</g>
</g>
<!-- Node13&#45;&gt;Node14 -->
<g id="edge17" class="edge">
<title>Node13&#45;&gt;Node14</title>
<path fill="none" stroke="midnightblue" d="M262.57,-56.08C259.18,-48.77 254.28,-38.18 250.08,-29.1"/>
<polygon fill="midnightblue" stroke="midnightblue" points="253.12,-27.36 245.75,-19.75 246.77,-30.3 253.12,-27.36"/>
</g>
<!-- Node18&#45;&gt;Node3 -->
<g id="edge28" class="edge">
<title>Node18&#45;&gt;Node3</title>
<path fill="none" stroke="midnightblue" d="M1217.62,-168.49C1173.09,-159.38 1115.22,-146.52 1064.69,-132 967.29,-104.01 947.26,-83.42 849.69,-56 798.49,-41.61 739.22,-29.44 696.22,-21.4"/>
<polygon fill="midnightblue" stroke="midnightblue" points="696.68,-17.93 686.21,-19.55 695.41,-24.81 696.68,-17.93"/>
</g>
<!-- Node18&#45;&gt;Node4 -->
<g id="edge23" class="edge">
<title>Node18&#45;&gt;Node4</title>
<path fill="none" stroke="midnightblue" d="M1305.86,-168.4C1315.45,-159.49 1327.86,-147.95 1337.76,-138.74"/>
<polygon fill="midnightblue" stroke="midnightblue" points="1340.44,-141.03 1345.38,-131.66 1335.68,-135.9 1340.44,-141.03"/>
</g>
<!-- Node18&#45;&gt;Node9 -->
<g id="edge34" class="edge">
<title>Node18&#45;&gt;Node9</title>
<path fill="none" stroke="midnightblue" d="M1367.98,-182.85C1516.16,-181.12 1816.81,-164.6 1713.69,-56 1686.09,-26.92 1106.49,-15.12 909.53,-11.94"/>
<polygon fill="midnightblue" stroke="midnightblue" points="909.39,-8.44 899.33,-11.78 909.27,-15.44 909.39,-8.44"/>
</g>
<!-- Node18&#45;&gt;Node17 -->
<g id="edge36" class="edge">
<title>Node18&#45;&gt;Node17</title>
<path fill="none" stroke="midnightblue" d="M1278.11,-168.23C1263.02,-152.04 1236.17,-126.08 1207.69,-112 1182.81,-99.7 1115.31,-86.26 1064.1,-77.3"/>
<polygon fill="midnightblue" stroke="midnightblue" points="1064.54,-73.83 1054.09,-75.57 1063.35,-80.72 1064.54,-73.83"/>
</g>
<!-- Node18&#45;&gt;Node19 -->
<g id="edge24" class="edge">
<title>Node18&#45;&gt;Node19</title>
<path fill="none" stroke="midnightblue" d="M1368.08,-175.09C1469.02,-165.39 1651.1,-147.76 1806.69,-132 1807.82,-131.89 1808.94,-131.77 1810.08,-131.66"/>
<polygon fill="midnightblue" stroke="midnightblue" points="1810.85,-135.1 1820.44,-130.6 1810.13,-128.13 1810.85,-135.1"/>
</g>
<!-- Node20 -->
<g id="node20" class="node">
<title>Node20</title>
<g id="a_node20"><a xlink:title=" ">
<polygon fill="white" stroke="#bfbfbf" points="1820.69,-56.5 1820.69,-75.5 1912.69,-75.5 1912.69,-56.5 1820.69,-56.5"/>
<text text-anchor="middle" x="1866.69" y="-63.5" font-family="Helvetica,sans-Serif" font-size="10.00">AMReX_REAL.H</text>
</a>
</g>
</g>
<!-- Node18&#45;&gt;Node20 -->
<g id="edge35" class="edge">
<title>Node18&#45;&gt;Node20</title>
<path fill="none" stroke="midnightblue" d="M1368.08,-178.8C1484.05,-172.51 1696.95,-157.82 1768.69,-132 1799.87,-120.78 1830.91,-97.66 1849.45,-82.24"/>
<polygon fill="midnightblue" stroke="midnightblue" points="1851.93,-84.72 1857.27,-75.57 1847.39,-79.4 1851.93,-84.72"/>
</g>
<!-- Node23 -->
<g id="node23" class="node">
<title>Node23</title>
<g id="a_node23"><a xlink:href="_field_utils_8_h.html" target="_top" xlink:title=" ">
<polygon fill="white" stroke="black" points="678.69,-112.5 678.69,-131.5 824.69,-131.5 824.69,-112.5 678.69,-112.5"/>
<text text-anchor="middle" x="751.69" y="-119.5" font-family="Helvetica,sans-Serif" font-size="10.00">amr&#45;wind/core/FieldUtils.H</text>
</a>
</g>
</g>
<!-- Node18&#45;&gt;Node23 -->
<g id="edge29" class="edge">
<title>Node18&#45;&gt;Node23</title>
<path fill="none" stroke="midnightblue" d="M1213.47,-173.98C1113.04,-162.89 938.28,-143.6 834.97,-132.19"/>
<polygon fill="midnightblue" stroke="midnightblue" points="835.21,-128.7 824.89,-131.08 834.44,-135.66 835.21,-128.7"/>
</g>
<!-- Node25 -->
<g id="node25" class="node">
<title>Node25</title>
<g id="a_node25"><a xlink:title=" ">
<polygon fill="white" stroke="#bfbfbf" points="880.69,-112.5 880.69,-131.5 990.69,-131.5 990.69,-112.5 880.69,-112.5"/>
<text text-anchor="middle" x="935.69" y="-119.5" font-family="Helvetica,sans-Serif" font-size="10.00">AMReX_AmrCore.H</text>
</a>
</g>
</g>
<!-- Node18&#45;&gt;Node25 -->
<g id="edge33" class="edge">
<title>Node18&#45;&gt;Node25</title>
<path fill="none" stroke="midnightblue" d="M1213.67,-169.59C1148.61,-158.68 1056.69,-143.28 996.66,-133.22"/>
<polygon fill="midnightblue" stroke="midnightblue" points="997.01,-129.73 986.57,-131.53 995.85,-136.63 997.01,-129.73"/>
</g>
<!-- Node26 -->
<g id="node26" class="node">
<title>Node26</title>
<g id="a_node26"><a xlink:title=" ">
<polygon fill="white" stroke="#bfbfbf" points="1073.19,-112.5 1073.19,-131.5 1198.19,-131.5 1198.19,-112.5 1073.19,-112.5"/>
<text text-anchor="middle" x="1135.69" y="-119.5" font-family="Helvetica,sans-Serif" font-size="10.00">AMReX_FillPatchUtil.H</text>
</a>
</g>
</g>
<!-- Node18&#45;&gt;Node26 -->
<g id="edge37" class="edge">
<title>Node18&#45;&gt;Node26</title>
<path fill="none" stroke="midnightblue" d="M1253.96,-168.4C1227.72,-158.33 1192.77,-144.91 1167.68,-135.28"/>
<polygon fill="midnightblue" stroke="midnightblue" points="1168.84,-131.97 1158.25,-131.66 1166.33,-138.51 1168.84,-131.97"/>
</g>
<!-- Node19&#45;&gt;Node20 -->
<g id="edge25" class="edge">
<title>Node19&#45;&gt;Node20</title>
<path fill="none" stroke="midnightblue" d="M1888.4,-112.08C1884.84,-104.69 1879.67,-93.95 1875.27,-84.81"/>
<polygon fill="midnightblue" stroke="midnightblue" points="1878.4,-83.24 1870.91,-75.75 1872.09,-86.28 1878.4,-83.24"/>
</g>
<!-- Node21 -->
<g id="node21" class="node">
<title>Node21</title>
<g id="a_node21"><a xlink:title=" ">
<polygon fill="white" stroke="#bfbfbf" points="2064.69,-56.5 2064.69,-75.5 2198.69,-75.5 2198.69,-56.5 2064.69,-56.5"/>
<text text-anchor="middle" x="2131.69" y="-63.5" font-family="Helvetica,sans-Serif" font-size="10.00">AMReX_GpuQualifiers.H</text>
</a>
</g>
</g>
<!-- Node19&#45;&gt;Node21 -->
<g id="edge26" class="edge">
<title>Node19&#45;&gt;Node21</title>
<path fill="none" stroke="midnightblue" d="M1930.57,-112.44C1972.17,-103.04 2039.06,-87.93 2084.16,-77.74"/>
<polygon fill="midnightblue" stroke="midnightblue" points="2085.02,-81.13 2094,-75.52 2083.48,-74.31 2085.02,-81.13"/>
</g>
<!-- Node22 -->
<g id="node22" class="node">
<title>Node22</title>
<g id="a_node22"><a xlink:title=" ">
<polygon fill="white" stroke="#bfbfbf" points="1930.69,-56.5 1930.69,-75.5 2046.69,-75.5 2046.69,-56.5 1930.69,-56.5"/>
<text text-anchor="middle" x="1988.69" y="-63.5" font-family="Helvetica,sans-Serif" font-size="10.00">AMReX_Extension.H</text>
</a>
</g>
</g>
<!-- Node19&#45;&gt;Node22 -->
<g id="edge27" class="edge">
<title>Node19&#45;&gt;Node22</title>
<path fill="none" stroke="midnightblue" d="M1908.12,-112.32C1923.23,-103.82 1946.51,-90.73 1964.17,-80.8"/>
<polygon fill="midnightblue" stroke="midnightblue" points="1966.31,-83.61 1973.31,-75.65 1962.88,-77.51 1966.31,-83.61"/>
</g>
<!-- Node23&#45;&gt;Node3 -->
<g id="edge30" class="edge">
<title>Node23&#45;&gt;Node3</title>
<path fill="none" stroke="midnightblue" d="M742.67,-112.37C723.36,-93.89 677.77,-50.29 653.15,-26.74"/>
<polygon fill="midnightblue" stroke="midnightblue" points="655.32,-23.97 645.68,-19.59 650.48,-29.03 655.32,-23.97"/>
</g>
<!-- Node23&#45;&gt;Node9 -->
<g id="edge31" class="edge">
<title>Node23&#45;&gt;Node9</title>
<path fill="none" stroke="midnightblue" d="M794.76,-112.49C815.09,-106.07 837.52,-94.99 849.69,-76 858.47,-62.32 855.82,-43.53 851.81,-29.67"/>
<polygon fill="midnightblue" stroke="midnightblue" points="855,-28.17 848.49,-19.81 848.37,-30.4 855,-28.17"/>
</g>
<!-- Node24 -->
<g id="node24" class="node">
<title>Node24</title>
<g id="a_node24"><a xlink:title=" ">
<polygon fill="white" stroke="#bfbfbf" points="716.69,-56.5 716.69,-75.5 840.69,-75.5 840.69,-56.5 716.69,-56.5"/>
<text text-anchor="middle" x="778.69" y="-63.5" font-family="Helvetica,sans-Serif" font-size="10.00">AMReX_Interpolater.H</text>
</a>
</g>
</g>
<!-- Node23&#45;&gt;Node24 -->
<g id="edge32" class="edge">
<title>Node23&#45;&gt;Node24</title>
<path fill="none" stroke="midnightblue" d="M756.15,-112.08C759.85,-104.69 765.22,-93.95 769.79,-84.81"/>
<polygon fill="midnightblue" stroke="midnightblue" points="772.98,-86.26 774.32,-75.75 766.72,-83.13 772.98,-86.26"/>
</g>
<!-- Node27&#45;&gt;Node3 -->
<g id="edge41" class="edge">
<title>Node27&#45;&gt;Node3</title>
<path fill="none" stroke="midnightblue" d="M647.48,-173.71C644.01,-163.76 638.73,-146.96 636.69,-132 631.8,-96.05 633.51,-53.52 635.14,-29.66"/>
<polygon fill="midnightblue" stroke="midnightblue" points="638.64,-29.8 635.91,-19.56 631.66,-29.27 638.64,-29.8"/>
</g>
<!-- Node27&#45;&gt;Node4 -->
<g id="edge43" class="edge">
<title>Node27&#45;&gt;Node4</title>
<path fill="none" stroke="midnightblue" d="M725.37,-176.19C861.43,-164.69 1148.03,-140.47 1282.35,-129.11"/>
<polygon fill="midnightblue" stroke="midnightblue" points="1282.86,-132.58 1292.53,-128.25 1282.27,-125.61 1282.86,-132.58"/>
</g>
<!-- Node27&#45;&gt;Node5 -->
<g id="edge39" class="edge">
<title>Node27&#45;&gt;Node5</title>
<path fill="none" stroke="midnightblue" d="M576.01,-182.53C420.74,-180.75 72.01,-166.53 5.69,-76 -19.74,-41.27 50.87,-23.2 94.71,-15.56"/>
<polygon fill="midnightblue" stroke="midnightblue" points="95.38,-19 104.68,-13.92 94.24,-12.09 95.38,-19"/>
</g>
<!-- Node27&#45;&gt;Node7 -->
<g id="edge40" class="edge">
<title>Node27&#45;&gt;Node7</title>
<path fill="none" stroke="midnightblue" d="M691.13,-173.98C728.76,-165.44 786.04,-150.86 833.69,-132 851.44,-124.98 853.63,-118.15 871.69,-112 881.22,-108.75 1000.66,-88.6 1073.97,-76.39"/>
<polygon fill="midnightblue" stroke="midnightblue" points="1074.7,-79.82 1083.99,-74.73 1073.55,-72.92 1074.7,-79.82"/>
</g>
<!-- Node27&#45;&gt;Node9 -->
<g id="edge57" class="edge">
<title>Node27&#45;&gt;Node9</title>
<path fill="none" stroke="midnightblue" d="M651.78,-173.67C655.18,-150.2 667.88,-86.02 707.69,-56 729.67,-39.44 758.03,-28.8 783.24,-22.06"/>
<polygon fill="midnightblue" stroke="midnightblue" points="784.25,-25.41 793.09,-19.57 782.53,-18.62 784.25,-25.41"/>
</g>
<!-- Node27&#45;&gt;Node23 -->
<g id="edge42" class="edge">
<title>Node27&#45;&gt;Node23</title>
<path fill="none" stroke="midnightblue" d="M665.17,-173.98C681.67,-164.25 708.87,-148.23 728.38,-136.74"/>
<polygon fill="midnightblue" stroke="midnightblue" points="730.41,-139.6 737.25,-131.51 726.86,-133.57 730.41,-139.6"/>
</g>
<!-- Node27&#45;&gt;Node25 -->
<g id="edge56" class="edge">
<title>Node27&#45;&gt;Node25</title>
<path fill="none" stroke="midnightblue" d="M691.53,-173.98C742.53,-163.33 829.79,-145.11 885.01,-133.58"/>
<polygon fill="midnightblue" stroke="midnightblue" points="885.86,-136.98 894.94,-131.51 884.43,-130.13 885.86,-136.98"/>
</g>
<!-- Node28 -->
<g id="node28" class="node">
<title>Node28</title>
<g id="a_node28"><a xlink:href="_int_field_8_h.html" target="_top" xlink:title=" ">
<polygon fill="white" stroke="black" points="384.19,-112.5 384.19,-131.5 521.19,-131.5 521.19,-112.5 384.19,-112.5"/>
<text text-anchor="middle" x="452.69" y="-119.5" font-family="Helvetica,sans-Serif" font-size="10.00">amr&#45;wind/core/IntField.H</text>
</a>
</g>
</g>
<!-- Node27&#45;&gt;Node28 -->
<g id="edge44" class="edge">
<title>Node27&#45;&gt;Node28</title>
<path fill="none" stroke="midnightblue" d="M622.33,-173.98C587.77,-163.59 529.27,-146.01 490.81,-134.45"/>
<polygon fill="midnightblue" stroke="midnightblue" points="491.6,-131.04 481.01,-131.51 489.58,-137.74 491.6,-131.04"/>
</g>
<!-- Node29 -->
<g id="node29" class="node">
<title>Node29</title>
<g id="a_node29"><a xlink:title=" ">
<polygon fill="white" stroke="#bfbfbf" points="472.69,-56.5 472.69,-75.5 584.69,-75.5 584.69,-56.5 472.69,-56.5"/>
<text text-anchor="middle" x="528.69" y="-63.5" font-family="Helvetica,sans-Serif" font-size="10.00">AMReX_iMultiFab.H</text>
</a>
</g>
</g>
<!-- Node27&#45;&gt;Node29 -->
<g id="edge58" class="edge">
<title>Node27&#45;&gt;Node29</title>
<path fill="none" stroke="midnightblue" d="M641.53,-173.82C621.04,-154.42 571.3,-107.33 545.24,-82.66"/>
<polygon fill="midnightblue" stroke="midnightblue" points="547.64,-80.12 537.97,-75.78 542.83,-85.2 547.64,-80.12"/>
</g>
<!-- Node30 -->
<g id="node30" class="node">
<title>Node30</title>
<g id="a_node30"><a xlink:href="_scratch_field_8_h.html" target="_top" xlink:title=" ">
<polygon fill="white" stroke="black" points="191.69,-112.5 191.69,-131.5 351.69,-131.5 351.69,-112.5 191.69,-112.5"/>
<text text-anchor="middle" x="271.69" y="-119.5" font-family="Helvetica,sans-Serif" font-size="10.00">amr&#45;wind/core/ScratchField.H</text>
</a>
</g>
</g>
<!-- Node27&#45;&gt;Node30 -->
<g id="edge48" class="edge">
<title>Node27&#45;&gt;Node30</title>
<path fill="none" stroke="midnightblue" d="M596.39,-173.98C527.58,-163.17 409.14,-144.58 335.92,-133.08"/>
<polygon fill="midnightblue" stroke="midnightblue" points="336.32,-129.6 325.9,-131.51 335.23,-136.52 336.32,-129.6"/>
</g>
<!-- Node28&#45;&gt;Node3 -->
<g id="edge46" class="edge">
<title>Node28&#45;&gt;Node3</title>
<path fill="none" stroke="midnightblue" d="M451.44,-112.15C450.01,-98.31 449.46,-71.52 463.69,-56 477.87,-40.54 525.3,-28.86 566.92,-21.28"/>
<polygon fill="midnightblue" stroke="midnightblue" points="567.56,-24.72 576.8,-19.54 566.34,-17.83 567.56,-24.72"/>
</g>
<!-- Node28&#45;&gt;Node5 -->
<g id="edge45" class="edge">
<title>Node28&#45;&gt;Node5</title>
<path fill="none" stroke="midnightblue" d="M387.97,-112.49C314.13,-102.42 201.27,-85.79 183.69,-76 163.5,-64.75 146.97,-43.5 137.01,-28.37"/>
<polygon fill="midnightblue" stroke="midnightblue" points="139.96,-26.48 131.68,-19.87 134.03,-30.21 139.96,-26.48"/>
</g>
<!-- Node28&#45;&gt;Node29 -->
<g id="edge47" class="edge">
<title>Node28&#45;&gt;Node29</title>
<path fill="none" stroke="midnightblue" d="M464.91,-112.32C476.47,-104.11 494.07,-91.6 507.86,-81.81"/>
<polygon fill="midnightblue" stroke="midnightblue" points="510.14,-84.48 516.26,-75.83 506.08,-78.77 510.14,-84.48"/>
</g>
<!-- Node30&#45;&gt;Node3 -->
<g id="edge51" class="edge">
<title>Node30&#45;&gt;Node3</title>
<path fill="none" stroke="midnightblue" d="M286.55,-112.27C313.83,-96.35 371.1,-63.58 392.69,-56 441.82,-38.75 498.96,-27.76 545.59,-20.96"/>
<polygon fill="midnightblue" stroke="midnightblue" points="546.26,-24.4 555.67,-19.53 545.28,-17.47 546.26,-24.4"/>
</g>
<!-- Node30&#45;&gt;Node5 -->
<g id="edge49" class="edge">
<title>Node30&#45;&gt;Node5</title>
<path fill="none" stroke="midnightblue" d="M215.85,-112.47C175.27,-104.99 125.33,-92.7 112.69,-76 102.29,-62.24 108.81,-42.38 116.04,-28.24"/>
<polygon fill="midnightblue" stroke="midnightblue" points="119.1,-29.94 120.96,-19.51 113,-26.51 119.1,-29.94"/>
</g>
<!-- Node30&#45;&gt;Node9 -->
<g id="edge53" class="edge">
<title>Node30&#45;&gt;Node9</title>
<path fill="none" stroke="midnightblue" d="M292.31,-112.42C327.03,-98.34 399.67,-70.45 463.69,-56 522.33,-42.77 687.66,-25.83 780.1,-16.98"/>
<polygon fill="midnightblue" stroke="midnightblue" points="780.56,-20.45 790.18,-16.02 779.89,-13.49 780.56,-20.45"/>
</g>
<!-- Node30&#45;&gt;Node13 -->
<g id="edge52" class="edge">
<title>Node30&#45;&gt;Node13</title>
<path fill="none" stroke="midnightblue" d="M270.87,-112.08C270.21,-105.01 269.27,-94.86 268.45,-85.99"/>
<polygon fill="midnightblue" stroke="midnightblue" points="271.91,-85.39 267.51,-75.75 264.94,-86.03 271.91,-85.39"/>
</g>
<!-- Node30&#45;&gt;Node14 -->
<g id="edge54" class="edge">
<title>Node30&#45;&gt;Node14</title>
<path fill="none" stroke="midnightblue" d="M235.84,-112.4C216.81,-105.81 195.07,-94.59 183.69,-76 171.66,-56.33 194.53,-37.04 214.99,-24.65"/>
<polygon fill="midnightblue" stroke="midnightblue" points="216.85,-27.62 223.8,-19.62 213.38,-21.54 216.85,-27.62"/>
</g>
<!-- Node30&#45;&gt;Node17 -->
<g id="edge55" class="edge">
<title>Node30&#45;&gt;Node17</title>
<path fill="none" stroke="midnightblue" d="M351.81,-113.88C359.54,-113.23 367.27,-112.59 374.69,-112 573.11,-96.2 807.11,-80.04 924.88,-72.07"/>
<polygon fill="midnightblue" stroke="midnightblue" points="925.14,-75.56 934.88,-71.4 924.66,-68.58 925.14,-75.56"/>
</g>
<!-- Node31 -->
<g id="node31" class="node">
<title>Node31</title>
<g id="a_node31"><a xlink:title=" ">
<polygon fill="white" stroke="#bfbfbf" points="15.19,-56.5 15.19,-75.5 60.19,-75.5 60.19,-56.5 15.19,-56.5"/>
<text text-anchor="middle" x="37.69" y="-63.5" font-family="Helvetica,sans-Serif" font-size="10.00">utility</text>
</a>
</g>
</g>
<!-- Node30&#45;&gt;Node31 -->
<g id="edge50" class="edge">
<title>Node30&#45;&gt;Node31</title>
<path fill="none" stroke="midnightblue" d="M233.52,-112.45C193.81,-103.51 129.84,-89 74.69,-76 73.25,-75.66 71.77,-75.31 70.27,-74.95"/>
<polygon fill="midnightblue" stroke="midnightblue" points="70.92,-71.51 60.38,-72.57 69.29,-78.31 70.92,-71.51"/>
</g>
<!-- Node32&#45;&gt;Node11 -->
<g id="edge62" class="edge">
<title>Node32&#45;&gt;Node11</title>
<path fill="none" stroke="midnightblue" d="M2195.33,-168.9C2231.26,-159.79 2271.07,-146.78 2281.69,-132 2291.26,-118.69 2289.65,-99.57 2286.47,-85.51"/>
<polygon fill="midnightblue" stroke="midnightblue" points="2289.76,-84.27 2283.76,-75.53 2283,-86.1 2289.76,-84.27"/>
</g>
<!-- Node32&#45;&gt;Node16 -->
<g id="edge61" class="edge">
<title>Node32&#45;&gt;Node16</title>
<path fill="none" stroke="midnightblue" d="M2151.36,-168.4C2164.3,-159.13 2181.18,-147.03 2194.26,-137.65"/>
<polygon fill="midnightblue" stroke="midnightblue" points="2196.53,-140.33 2202.62,-131.66 2192.45,-134.64 2196.53,-140.33"/>
</g>
<!-- Node33&#45;&gt;Node11 -->
<g id="edge65" class="edge">
<title>Node33&#45;&gt;Node11</title>
<path fill="none" stroke="midnightblue" d="M2291.57,-168.1C2300.14,-158.73 2310.1,-145.74 2314.69,-132 2320.52,-114.56 2308.96,-96.12 2297.77,-83.35"/>
<polygon fill="midnightblue" stroke="midnightblue" points="2300.08,-80.7 2290.66,-75.85 2295,-85.51 2300.08,-80.7"/>
</g>
<!-- Node33&#45;&gt;Node16 -->
<g id="edge64" class="edge">
<title>Node33&#45;&gt;Node16</title>
<path fill="none" stroke="midnightblue" d="M2262,-168.4C2252.71,-159.49 2240.7,-147.95 2231.1,-138.74"/>
<polygon fill="midnightblue" stroke="midnightblue" points="2233.36,-136.06 2223.72,-131.66 2228.51,-141.11 2233.36,-136.06"/>
</g>
</g>
</svg>
        <g id="navigator" transform="translate(0 0)" fill="#404254">
                <rect fill="#f2f5e9" fill-opacity="0.5" stroke="#606060" stroke-width=".5" x="0" y="0" width="60" height="60"/>
                <use id="zoomplus" xlink:href="#zoomPlus" x="17" y="9" onmousedown="handleZoom(evt,'in')"/>
                <use id="zoomminus" xlink:href="#zoomMin" x="42" y="9" onmousedown="handleZoom(evt,'out')"/>
                <use id="reset" xlink:href="#resetDef" x="30" y="36" onmousedown="handleReset()"/>
                <g id="arrowUp" xlink:href="#dirArrow" transform="translate(30 24)" onmousedown="handlePan(0,-1)">
                  <use xlink:href="#rim" fill="#404040">
                        <set attributeName="fill" to="#808080" begin="arrowUp.mouseover" end="arrowUp.mouseout"/>
                  </use>
                  <path fill="none" stroke="white" stroke-width="1.5" d="M0,-3.0v7 M-2.5,-0.5L0,-3.0L2.5,-0.5"/>
                </g>
                <g id="arrowRight" xlink:href="#dirArrow" transform="rotate(90) translate(36 -43)" onmousedown="handlePan(1,0)">
                  <use xlink:href="#rim" fill="#404040">
                        <set attributeName="fill" to="#808080" begin="arrowRight.mouseover" end="arrowRight.mouseout"/>
                  </use>
                  <path fill="none" stroke="white" stroke-width="1.5" d="M0,-3.0v7 M-2.5,-0.5L0,-3.0L2.5,-0.5"/>
                </g>
                <g id="arrowDown" xlink:href="#dirArrow" transform="rotate(180) translate(-30 -48)" onmousedown="handlePan(0,1)">
                  <use xlink:href="#rim" fill="#404040">
                        <set attributeName="fill" to="#808080" begin="arrowDown.mouseover" end="arrowDown.mouseout"/>
                  </use>
                  <path fill="none" stroke="white" stroke-width="1.5" d="M0,-3.0v7 M-2.5,-0.5L0,-3.0L2.5,-0.5"/>
                </g>
                <g id="arrowLeft" xlink:href="#dirArrow" transform="rotate(270) translate(-36 17)" onmousedown="handlePan(-1,0)">
                  <use xlink:href="#rim" fill="#404040">
                        <set attributeName="fill" to="#808080" begin="arrowLeft.mouseover" end="arrowLeft.mouseout"/>
                  </use>
                  <path fill="none" stroke="white" stroke-width="1.5" d="M0,-3.0v7 M-2.5,-0.5L0,-3.0L2.5,-0.5"/>
                </g>
        </g>
        <svg viewBox="0 0 15 15" width="100%" height="30px" preserveAspectRatio="xMaxYMin meet">
         <g id="arrow_out" transform="scale(0.3 0.3)">
          <a xlink:href="velocity__bcs_8_h__incl_org.svg" target="_base">
           <rect id="button" ry="5" rx="5" y="6" x="6" height="38" width="38"
                fill="#f2f5e9" fill-opacity="0.5" stroke="#606060" stroke-width="1.0"/>
           <path id="arrow"
             d="M 11.500037,31.436501 C 11.940474,20.09759 22.043105,11.32322 32.158766,21.979434 L 37.068811,17.246167 C 37.068811,17.246167 37.088388,32 37.088388,32 L 22.160133,31.978069 C 22.160133,31.978069 26.997745,27.140456 26.997745,27.140456 C 18.528582,18.264221 13.291696,25.230495 11.500037,31.436501 z"
             style="fill:#404040;"/>
          </a>
         </g>
        </svg>
</svg>
